%TF.GenerationSoftware,KiCad,Pcbnew,9.0.1*%
%TF.CreationDate,2025-05-21T18:26:19+10:00*%
%TF.ProjectId,Power,506f7765-722e-46b6-9963-61645f706362,rev?*%
%TF.SameCoordinates,Original*%
%TF.FileFunction,Copper,L3,Inr*%
%TF.FilePolarity,Positive*%
%FSLAX46Y46*%
G04 Gerber Fmt 4.6, Leading zero omitted, Abs format (unit mm)*
G04 Created by KiCad (PCBNEW 9.0.1) date 2025-05-21 18:26:19*
%MOMM*%
%LPD*%
G01*
G04 APERTURE LIST*
G04 Aperture macros list*
%AMRoundRect*
0 Rectangle with rounded corners*
0 $1 Rounding radius*
0 $2 $3 $4 $5 $6 $7 $8 $9 X,Y pos of 4 corners*
0 Add a 4 corners polygon primitive as box body*
4,1,4,$2,$3,$4,$5,$6,$7,$8,$9,$2,$3,0*
0 Add four circle primitives for the rounded corners*
1,1,$1+$1,$2,$3*
1,1,$1+$1,$4,$5*
1,1,$1+$1,$6,$7*
1,1,$1+$1,$8,$9*
0 Add four rect primitives between the rounded corners*
20,1,$1+$1,$2,$3,$4,$5,0*
20,1,$1+$1,$4,$5,$6,$7,0*
20,1,$1+$1,$6,$7,$8,$9,0*
20,1,$1+$1,$8,$9,$2,$3,0*%
G04 Aperture macros list end*
%TA.AperFunction,ComponentPad*%
%ADD10RoundRect,0.291666X-0.408334X-0.708334X0.408334X-0.708334X0.408334X0.708334X-0.408334X0.708334X0*%
%TD*%
%TA.AperFunction,ComponentPad*%
%ADD11O,1.400000X2.000000*%
%TD*%
%TA.AperFunction,ComponentPad*%
%ADD12R,2.000000X2.000000*%
%TD*%
%TA.AperFunction,ComponentPad*%
%ADD13C,2.000000*%
%TD*%
%TA.AperFunction,ComponentPad*%
%ADD14R,1.905000X2.000000*%
%TD*%
%TA.AperFunction,ComponentPad*%
%ADD15O,1.905000X2.000000*%
%TD*%
%TA.AperFunction,ComponentPad*%
%ADD16R,1.800000X1.800000*%
%TD*%
%TA.AperFunction,ComponentPad*%
%ADD17C,1.800000*%
%TD*%
%TA.AperFunction,ComponentPad*%
%ADD18O,1.800000X1.800000*%
%TD*%
%TA.AperFunction,ComponentPad*%
%ADD19O,1.800000X3.000000*%
%TD*%
%TA.AperFunction,ComponentPad*%
%ADD20R,1.800000X3.000000*%
%TD*%
%TA.AperFunction,ComponentPad*%
%ADD21O,1.600000X3.000000*%
%TD*%
%TA.AperFunction,ComponentPad*%
%ADD22C,1.600000*%
%TD*%
%TA.AperFunction,ComponentPad*%
%ADD23O,1.600000X1.600000*%
%TD*%
%TA.AperFunction,ComponentPad*%
%ADD24R,1.350000X1.900000*%
%TD*%
%TA.AperFunction,ComponentPad*%
%ADD25O,1.350000X1.900000*%
%TD*%
G04 APERTURE END LIST*
D10*
%TO.N,GND*%
%TO.C,J2*%
X120160000Y-134178680D03*
D11*
%TO.N,VDD*%
X122160000Y-134178680D03*
%TO.N,VSS*%
X124160000Y-134178680D03*
%TD*%
D12*
%TO.N,GND*%
%TO.C,C3*%
X126250000Y-84500000D03*
D13*
%TO.N,VSS*%
X126250000Y-79500000D03*
%TD*%
D14*
%TO.N,Net-(D1-K)*%
%TO.C,U1*%
X106660000Y-113680000D03*
D15*
%TO.N,VDD*%
X111740000Y-113680000D03*
%TO.N,Net-(D1-A)*%
X109200000Y-113680000D03*
%TD*%
D16*
%TO.N,VDD*%
%TO.C,C4*%
X113410000Y-118000000D03*
D17*
%TO.N,Net-(D2-A)*%
X110910000Y-118000000D03*
%TD*%
D16*
%TO.N,Net-(D1-K)*%
%TO.C,C5*%
X119410000Y-118000000D03*
D17*
%TO.N,VSS*%
X116910000Y-118000000D03*
%TD*%
D12*
%TO.N,VDD*%
%TO.C,C1*%
X126250000Y-61500000D03*
D13*
%TO.N,VSS*%
X126250000Y-56500000D03*
%TD*%
D16*
%TO.N,Net-(D2-K)*%
%TO.C,D2*%
X123160000Y-130640000D03*
D18*
%TO.N,Net-(D2-A)*%
X123160000Y-123020000D03*
%TD*%
D16*
%TO.N,GND*%
%TO.C,D4*%
X127160000Y-130640000D03*
D18*
%TO.N,VSS*%
X127160000Y-123020000D03*
%TD*%
D19*
%TO.N,VDD*%
%TO.C,J1*%
X125460000Y-50650000D03*
D20*
%TO.N,VSS*%
X116960000Y-50650000D03*
D19*
%TO.N,unconnected-(J1-Pad3)*%
X120160000Y-50650000D03*
D21*
%TO.N,GND*%
X126360000Y-43350000D03*
X116560000Y-43350000D03*
%TD*%
D22*
%TO.N,GND*%
%TO.C,R3*%
X103160000Y-120260000D03*
D23*
%TO.N,Net-(D1-A)*%
X103160000Y-112640000D03*
%TD*%
D12*
%TO.N,VDD*%
%TO.C,C2*%
X126250000Y-73000000D03*
D13*
%TO.N,GND*%
X126250000Y-68000000D03*
%TD*%
D22*
%TO.N,VSS*%
%TO.C,R2*%
X120190000Y-90250000D03*
D23*
%TO.N,Net-(D1-K)*%
X127810000Y-90250000D03*
%TD*%
D24*
%TO.N,Net-(D1-K)*%
%TO.C,U3*%
X116970001Y-90250000D03*
D25*
%TO.N,Net-(D2-A)*%
X115200001Y-90250000D03*
%TO.N,unconnected-(U3-Pad3)*%
X113470001Y-90250000D03*
%TD*%
D22*
%TO.N,Net-(D2-A)*%
%TO.C,R1*%
X102390000Y-90250000D03*
D23*
%TO.N,VDD*%
X110010000Y-90250000D03*
%TD*%
D22*
%TO.N,Net-(D2-K)*%
%TO.C,R4*%
X127160000Y-112640000D03*
D23*
%TO.N,GND*%
X127160000Y-120260000D03*
%TD*%
D14*
%TO.N,Net-(D2-A)*%
%TO.C,U2*%
X118760002Y-113680000D03*
D15*
%TO.N,VSS*%
X121300002Y-113680000D03*
%TO.N,Net-(D2-K)*%
X123840002Y-113680000D03*
%TD*%
D22*
%TO.N,VSS*%
%TO.C,R5*%
X112500000Y-50810000D03*
D23*
%TO.N,Net-(D5-K)*%
X112500000Y-43190000D03*
%TD*%
D16*
%TO.N,Net-(D5-K)*%
%TO.C,D5*%
X104750000Y-47000000D03*
D17*
%TO.N,VDD*%
X107290000Y-47000000D03*
%TD*%
D16*
%TO.N,VDD*%
%TO.C,D3*%
X103160000Y-130640000D03*
D18*
%TO.N,GND*%
X103160000Y-123020000D03*
%TD*%
D16*
%TO.N,Net-(D1-K)*%
%TO.C,D1*%
X107160000Y-130640000D03*
D18*
%TO.N,Net-(D1-A)*%
X107160000Y-123020000D03*
%TD*%
%TA.AperFunction,Conductor*%
%TO.N,VSS*%
G36*
X127003736Y-41000726D02*
G01*
X127293796Y-41018271D01*
X127308657Y-41020075D01*
X127590798Y-41071780D01*
X127605335Y-41075363D01*
X127879172Y-41160695D01*
X127893163Y-41166000D01*
X128154743Y-41283727D01*
X128167989Y-41290680D01*
X128413465Y-41439075D01*
X128425776Y-41447573D01*
X128651573Y-41624473D01*
X128662781Y-41634403D01*
X128865596Y-41837218D01*
X128875526Y-41848426D01*
X128995481Y-42001538D01*
X129052422Y-42074217D01*
X129060928Y-42086540D01*
X129209316Y-42332004D01*
X129216275Y-42345263D01*
X129333997Y-42606831D01*
X129339306Y-42620832D01*
X129424635Y-42894663D01*
X129428219Y-42909201D01*
X129479923Y-43191340D01*
X129481728Y-43206205D01*
X129499274Y-43496263D01*
X129499500Y-43503750D01*
X129499500Y-137496249D01*
X129499274Y-137503736D01*
X129481728Y-137793794D01*
X129479923Y-137808659D01*
X129428219Y-138090798D01*
X129424635Y-138105336D01*
X129339306Y-138379167D01*
X129333997Y-138393168D01*
X129216275Y-138654736D01*
X129209316Y-138667995D01*
X129060928Y-138913459D01*
X129052422Y-138925782D01*
X128875526Y-139151573D01*
X128865596Y-139162781D01*
X128662781Y-139365596D01*
X128651573Y-139375526D01*
X128425782Y-139552422D01*
X128413459Y-139560928D01*
X128167995Y-139709316D01*
X128154736Y-139716275D01*
X127893168Y-139833997D01*
X127879167Y-139839306D01*
X127605336Y-139924635D01*
X127590798Y-139928219D01*
X127308659Y-139979923D01*
X127293794Y-139981728D01*
X127003736Y-139999274D01*
X126996249Y-139999500D01*
X103003733Y-139999500D01*
X102996246Y-139999274D01*
X102706204Y-139981729D01*
X102691339Y-139979924D01*
X102409201Y-139928220D01*
X102394663Y-139924636D01*
X102120824Y-139839305D01*
X102106826Y-139833996D01*
X101954095Y-139765257D01*
X101845268Y-139716278D01*
X101832011Y-139709320D01*
X101586540Y-139560929D01*
X101574216Y-139552423D01*
X101348425Y-139375526D01*
X101337217Y-139365596D01*
X101134403Y-139162782D01*
X101124473Y-139151574D01*
X101124472Y-139151573D01*
X100947572Y-138925777D01*
X100939070Y-138913459D01*
X100790679Y-138667988D01*
X100783721Y-138654731D01*
X100665999Y-138393164D01*
X100660697Y-138379183D01*
X100575362Y-138105335D01*
X100571779Y-138090798D01*
X100520075Y-137808660D01*
X100518270Y-137793795D01*
X100500725Y-137503737D01*
X100500499Y-137496250D01*
X100500499Y-133425856D01*
X118959500Y-133425856D01*
X118959500Y-134931498D01*
X118959501Y-134931502D01*
X118974474Y-135064400D01*
X119033433Y-135232898D01*
X119128203Y-135383722D01*
X119128407Y-135384046D01*
X119254634Y-135510273D01*
X119405783Y-135605247D01*
X119490030Y-135634726D01*
X119574279Y-135664206D01*
X119659271Y-135673781D01*
X119707183Y-135679180D01*
X120612816Y-135679179D01*
X120612818Y-135679179D01*
X120612819Y-135679178D01*
X120745723Y-135664205D01*
X120914217Y-135605247D01*
X121065366Y-135510273D01*
X121191593Y-135384046D01*
X121191593Y-135384045D01*
X121191917Y-135383722D01*
X121253240Y-135350237D01*
X121322932Y-135355221D01*
X121367279Y-135383722D01*
X121377927Y-135394370D01*
X121530801Y-135505440D01*
X121610347Y-135545970D01*
X121699163Y-135591225D01*
X121699165Y-135591225D01*
X121699168Y-135591227D01*
X121742314Y-135605246D01*
X121878881Y-135649620D01*
X122065514Y-135679180D01*
X122065519Y-135679180D01*
X122254486Y-135679180D01*
X122441118Y-135649620D01*
X122442623Y-135649131D01*
X122620832Y-135591227D01*
X122789199Y-135505440D01*
X122942073Y-135394370D01*
X123072672Y-135263771D01*
X123133995Y-135230286D01*
X123203687Y-135235270D01*
X123248034Y-135263771D01*
X123378253Y-135393990D01*
X123378258Y-135393994D01*
X123531059Y-135505009D01*
X123699362Y-135590765D01*
X123878997Y-135649131D01*
X123910000Y-135654042D01*
X123910000Y-134459010D01*
X123929745Y-134478755D01*
X124015255Y-134528124D01*
X124110630Y-134553680D01*
X124209370Y-134553680D01*
X124304745Y-134528124D01*
X124390255Y-134478755D01*
X124410000Y-134459010D01*
X124410000Y-135654041D01*
X124441002Y-135649131D01*
X124620637Y-135590765D01*
X124788940Y-135505009D01*
X124941741Y-135393994D01*
X124941746Y-135393990D01*
X125075310Y-135260426D01*
X125075314Y-135260421D01*
X125186329Y-135107620D01*
X125272085Y-134939317D01*
X125330451Y-134759682D01*
X125360000Y-134573127D01*
X125360000Y-134428680D01*
X124440330Y-134428680D01*
X124460075Y-134408935D01*
X124509444Y-134323425D01*
X124535000Y-134228050D01*
X124535000Y-134129310D01*
X124509444Y-134033935D01*
X124460075Y-133948425D01*
X124440330Y-133928680D01*
X125360000Y-133928680D01*
X125360000Y-133784232D01*
X125330451Y-133597677D01*
X125272085Y-133418042D01*
X125186329Y-133249739D01*
X125075314Y-133096938D01*
X125075310Y-133096933D01*
X124941746Y-132963369D01*
X124941741Y-132963365D01*
X124788940Y-132852350D01*
X124620635Y-132766593D01*
X124441004Y-132708229D01*
X124440995Y-132708227D01*
X124410000Y-132703317D01*
X124410000Y-133898350D01*
X124390255Y-133878605D01*
X124304745Y-133829236D01*
X124209370Y-133803680D01*
X124110630Y-133803680D01*
X124015255Y-133829236D01*
X123929745Y-133878605D01*
X123910000Y-133898350D01*
X123910000Y-132703317D01*
X123909999Y-132703317D01*
X123879004Y-132708227D01*
X123878995Y-132708229D01*
X123699364Y-132766593D01*
X123531059Y-132852350D01*
X123378258Y-132963365D01*
X123378253Y-132963369D01*
X123248034Y-133093589D01*
X123186711Y-133127074D01*
X123117019Y-133122090D01*
X123072672Y-133093589D01*
X122942075Y-132962992D01*
X122942073Y-132962990D01*
X122789199Y-132851920D01*
X122779712Y-132847086D01*
X122620836Y-132766134D01*
X122441118Y-132707739D01*
X122254486Y-132678180D01*
X122254481Y-132678180D01*
X122065519Y-132678180D01*
X122065514Y-132678180D01*
X121878881Y-132707739D01*
X121699163Y-132766134D01*
X121530800Y-132851920D01*
X121443579Y-132915290D01*
X121377927Y-132962990D01*
X121377925Y-132962992D01*
X121377920Y-132962995D01*
X121367272Y-132973643D01*
X121305946Y-133007124D01*
X121236255Y-133002135D01*
X121191916Y-132973637D01*
X121065365Y-132847086D01*
X120914218Y-132752113D01*
X120745720Y-132693153D01*
X120612821Y-132678180D01*
X119707181Y-132678180D01*
X119707177Y-132678181D01*
X119574279Y-132693154D01*
X119405781Y-132752113D01*
X119254634Y-132847086D01*
X119128406Y-132973314D01*
X119033433Y-133124461D01*
X118974473Y-133292959D01*
X118959500Y-133425856D01*
X100500499Y-133425856D01*
X100500499Y-129692135D01*
X101759500Y-129692135D01*
X101759500Y-131587870D01*
X101759501Y-131587876D01*
X101765908Y-131647483D01*
X101816202Y-131782328D01*
X101816206Y-131782335D01*
X101902452Y-131897544D01*
X101902455Y-131897547D01*
X102017664Y-131983793D01*
X102017671Y-131983797D01*
X102152517Y-132034091D01*
X102152516Y-132034091D01*
X102159444Y-132034835D01*
X102212127Y-132040500D01*
X104107872Y-132040499D01*
X104167483Y-132034091D01*
X104302331Y-131983796D01*
X104417546Y-131897546D01*
X104503796Y-131782331D01*
X104554091Y-131647483D01*
X104560500Y-131587873D01*
X104560499Y-129692135D01*
X105759500Y-129692135D01*
X105759500Y-131587870D01*
X105759501Y-131587876D01*
X105765908Y-131647483D01*
X105816202Y-131782328D01*
X105816206Y-131782335D01*
X105902452Y-131897544D01*
X105902455Y-131897547D01*
X106017664Y-131983793D01*
X106017671Y-131983797D01*
X106152517Y-132034091D01*
X106152516Y-132034091D01*
X106159444Y-132034835D01*
X106212127Y-132040500D01*
X108107872Y-132040499D01*
X108167483Y-132034091D01*
X108302331Y-131983796D01*
X108417546Y-131897546D01*
X108503796Y-131782331D01*
X108554091Y-131647483D01*
X108560500Y-131587873D01*
X108560499Y-129692135D01*
X121759500Y-129692135D01*
X121759500Y-131587870D01*
X121759501Y-131587876D01*
X121765908Y-131647483D01*
X121816202Y-131782328D01*
X121816206Y-131782335D01*
X121902452Y-131897544D01*
X121902455Y-131897547D01*
X122017664Y-131983793D01*
X122017671Y-131983797D01*
X122152517Y-132034091D01*
X122152516Y-132034091D01*
X122159444Y-132034835D01*
X122212127Y-132040500D01*
X124107872Y-132040499D01*
X124167483Y-132034091D01*
X124302331Y-131983796D01*
X124417546Y-131897546D01*
X124503796Y-131782331D01*
X124554091Y-131647483D01*
X124560500Y-131587873D01*
X124560499Y-129692135D01*
X125759500Y-129692135D01*
X125759500Y-131587870D01*
X125759501Y-131587876D01*
X125765908Y-131647483D01*
X125816202Y-131782328D01*
X125816206Y-131782335D01*
X125902452Y-131897544D01*
X125902455Y-131897547D01*
X126017664Y-131983793D01*
X126017671Y-131983797D01*
X126152517Y-132034091D01*
X126152516Y-132034091D01*
X126159444Y-132034835D01*
X126212127Y-132040500D01*
X128107872Y-132040499D01*
X128167483Y-132034091D01*
X128302331Y-131983796D01*
X128417546Y-131897546D01*
X128503796Y-131782331D01*
X128554091Y-131647483D01*
X128560500Y-131587873D01*
X128560499Y-129692128D01*
X128554091Y-129632517D01*
X128503796Y-129497669D01*
X128503795Y-129497668D01*
X128503793Y-129497664D01*
X128417547Y-129382455D01*
X128417544Y-129382452D01*
X128302335Y-129296206D01*
X128302328Y-129296202D01*
X128167482Y-129245908D01*
X128167483Y-129245908D01*
X128107883Y-129239501D01*
X128107881Y-129239500D01*
X128107873Y-129239500D01*
X128107864Y-129239500D01*
X126212129Y-129239500D01*
X126212123Y-129239501D01*
X126152516Y-129245908D01*
X126017671Y-129296202D01*
X126017664Y-129296206D01*
X125902455Y-129382452D01*
X125902452Y-129382455D01*
X125816206Y-129497664D01*
X125816202Y-129497671D01*
X125765908Y-129632517D01*
X125759501Y-129692116D01*
X125759501Y-129692123D01*
X125759500Y-129692135D01*
X124560499Y-129692135D01*
X124560499Y-129692128D01*
X124554091Y-129632517D01*
X124503796Y-129497669D01*
X124503795Y-129497668D01*
X124503793Y-129497664D01*
X124417547Y-129382455D01*
X124417544Y-129382452D01*
X124302335Y-129296206D01*
X124302328Y-129296202D01*
X124167482Y-129245908D01*
X124167483Y-129245908D01*
X124107883Y-129239501D01*
X124107881Y-129239500D01*
X124107873Y-129239500D01*
X124107864Y-129239500D01*
X122212129Y-129239500D01*
X122212123Y-129239501D01*
X122152516Y-129245908D01*
X122017671Y-129296202D01*
X122017664Y-129296206D01*
X121902455Y-129382452D01*
X121902452Y-129382455D01*
X121816206Y-129497664D01*
X121816202Y-129497671D01*
X121765908Y-129632517D01*
X121759501Y-129692116D01*
X121759501Y-129692123D01*
X121759500Y-129692135D01*
X108560499Y-129692135D01*
X108560499Y-129692128D01*
X108554091Y-129632517D01*
X108503796Y-129497669D01*
X108503795Y-129497668D01*
X108503793Y-129497664D01*
X108417547Y-129382455D01*
X108417544Y-129382452D01*
X108302335Y-129296206D01*
X108302328Y-129296202D01*
X108167482Y-129245908D01*
X108167483Y-129245908D01*
X108107883Y-129239501D01*
X108107881Y-129239500D01*
X108107873Y-129239500D01*
X108107864Y-129239500D01*
X106212129Y-129239500D01*
X106212123Y-129239501D01*
X106152516Y-129245908D01*
X106017671Y-129296202D01*
X106017664Y-129296206D01*
X105902455Y-129382452D01*
X105902452Y-129382455D01*
X105816206Y-129497664D01*
X105816202Y-129497671D01*
X105765908Y-129632517D01*
X105759501Y-129692116D01*
X105759501Y-129692123D01*
X105759500Y-129692135D01*
X104560499Y-129692135D01*
X104560499Y-129692128D01*
X104554091Y-129632517D01*
X104503796Y-129497669D01*
X104503795Y-129497668D01*
X104503793Y-129497664D01*
X104417547Y-129382455D01*
X104417544Y-129382452D01*
X104302335Y-129296206D01*
X104302328Y-129296202D01*
X104167482Y-129245908D01*
X104167483Y-129245908D01*
X104107883Y-129239501D01*
X104107881Y-129239500D01*
X104107873Y-129239500D01*
X104107864Y-129239500D01*
X102212129Y-129239500D01*
X102212123Y-129239501D01*
X102152516Y-129245908D01*
X102017671Y-129296202D01*
X102017664Y-129296206D01*
X101902455Y-129382452D01*
X101902452Y-129382455D01*
X101816206Y-129497664D01*
X101816202Y-129497671D01*
X101765908Y-129632517D01*
X101759501Y-129692116D01*
X101759501Y-129692123D01*
X101759500Y-129692135D01*
X100500499Y-129692135D01*
X100500499Y-122909778D01*
X101759500Y-122909778D01*
X101759500Y-123130221D01*
X101793985Y-123347952D01*
X101862103Y-123557603D01*
X101862104Y-123557606D01*
X101962187Y-123754025D01*
X102091752Y-123932358D01*
X102091756Y-123932363D01*
X102247636Y-124088243D01*
X102247641Y-124088247D01*
X102403192Y-124201260D01*
X102425978Y-124217815D01*
X102554375Y-124283237D01*
X102622393Y-124317895D01*
X102622396Y-124317896D01*
X102727221Y-124351955D01*
X102832049Y-124386015D01*
X103049778Y-124420500D01*
X103049779Y-124420500D01*
X103270221Y-124420500D01*
X103270222Y-124420500D01*
X103487951Y-124386015D01*
X103697606Y-124317895D01*
X103894022Y-124217815D01*
X104072365Y-124088242D01*
X104228242Y-123932365D01*
X104357815Y-123754022D01*
X104457895Y-123557606D01*
X104526015Y-123347951D01*
X104560500Y-123130222D01*
X104560500Y-122909778D01*
X105759500Y-122909778D01*
X105759500Y-123130221D01*
X105793985Y-123347952D01*
X105862103Y-123557603D01*
X105862104Y-123557606D01*
X105962187Y-123754025D01*
X106091752Y-123932358D01*
X106091756Y-123932363D01*
X106247636Y-124088243D01*
X106247641Y-124088247D01*
X106403192Y-124201260D01*
X106425978Y-124217815D01*
X106554375Y-124283237D01*
X106622393Y-124317895D01*
X106622396Y-124317896D01*
X106727221Y-124351955D01*
X106832049Y-124386015D01*
X107049778Y-124420500D01*
X107049779Y-124420500D01*
X107270221Y-124420500D01*
X107270222Y-124420500D01*
X107487951Y-124386015D01*
X107697606Y-124317895D01*
X107894022Y-124217815D01*
X108072365Y-124088242D01*
X108228242Y-123932365D01*
X108357815Y-123754022D01*
X108457895Y-123557606D01*
X108526015Y-123347951D01*
X108560500Y-123130222D01*
X108560500Y-122909778D01*
X121759500Y-122909778D01*
X121759500Y-123130221D01*
X121793985Y-123347952D01*
X121862103Y-123557603D01*
X121862104Y-123557606D01*
X121962187Y-123754025D01*
X122091752Y-123932358D01*
X122091756Y-123932363D01*
X122247636Y-124088243D01*
X122247641Y-124088247D01*
X122403192Y-124201260D01*
X122425978Y-124217815D01*
X122554375Y-124283237D01*
X122622393Y-124317895D01*
X122622396Y-124317896D01*
X122727221Y-124351955D01*
X122832049Y-124386015D01*
X123049778Y-124420500D01*
X123049779Y-124420500D01*
X123270221Y-124420500D01*
X123270222Y-124420500D01*
X123487951Y-124386015D01*
X123697606Y-124317895D01*
X123894022Y-124217815D01*
X124072365Y-124088242D01*
X124228242Y-123932365D01*
X124357815Y-123754022D01*
X124457895Y-123557606D01*
X124526015Y-123347951D01*
X124560500Y-123130222D01*
X124560500Y-122909778D01*
X124538361Y-122770000D01*
X125782145Y-122770000D01*
X126784722Y-122770000D01*
X126740667Y-122846306D01*
X126710000Y-122960756D01*
X126710000Y-123079244D01*
X126740667Y-123193694D01*
X126784722Y-123270000D01*
X125782145Y-123270000D01*
X125794473Y-123347835D01*
X125794473Y-123347838D01*
X125862567Y-123557410D01*
X125962613Y-123753760D01*
X126092142Y-123932041D01*
X126247958Y-124087857D01*
X126426239Y-124217386D01*
X126622589Y-124317432D01*
X126832163Y-124385526D01*
X126909999Y-124397854D01*
X126910000Y-124397854D01*
X126910000Y-123395277D01*
X126986306Y-123439333D01*
X127100756Y-123470000D01*
X127219244Y-123470000D01*
X127333694Y-123439333D01*
X127410000Y-123395277D01*
X127410000Y-124397854D01*
X127487834Y-124385526D01*
X127487837Y-124385526D01*
X127697410Y-124317432D01*
X127893760Y-124217386D01*
X128072041Y-124087857D01*
X128227857Y-123932041D01*
X128357386Y-123753760D01*
X128457432Y-123557410D01*
X128525526Y-123347838D01*
X128525526Y-123347835D01*
X128537855Y-123270000D01*
X127535278Y-123270000D01*
X127579333Y-123193694D01*
X127610000Y-123079244D01*
X127610000Y-122960756D01*
X127579333Y-122846306D01*
X127535278Y-122770000D01*
X128537855Y-122770000D01*
X128525526Y-122692164D01*
X128525526Y-122692161D01*
X128457432Y-122482589D01*
X128357386Y-122286239D01*
X128227857Y-122107958D01*
X128072041Y-121952142D01*
X127893760Y-121822613D01*
X127697410Y-121722567D01*
X127645251Y-121705620D01*
X127587576Y-121666183D01*
X127560377Y-121601824D01*
X127572291Y-121532978D01*
X127619535Y-121481502D01*
X127645252Y-121469758D01*
X127659219Y-121465220D01*
X127841610Y-121372287D01*
X127934590Y-121304732D01*
X128007213Y-121251971D01*
X128007215Y-121251968D01*
X128007219Y-121251966D01*
X128151966Y-121107219D01*
X128151968Y-121107215D01*
X128151971Y-121107213D01*
X128204732Y-121034590D01*
X128272287Y-120941610D01*
X128365220Y-120759219D01*
X128428477Y-120564534D01*
X128460500Y-120362352D01*
X128460500Y-120157648D01*
X128428477Y-119955466D01*
X128365220Y-119760781D01*
X128365218Y-119760778D01*
X128365218Y-119760776D01*
X128331503Y-119694607D01*
X128272287Y-119578390D01*
X128264556Y-119567749D01*
X128151971Y-119412786D01*
X128007213Y-119268028D01*
X127841613Y-119147715D01*
X127841612Y-119147714D01*
X127841610Y-119147713D01*
X127784653Y-119118691D01*
X127659223Y-119054781D01*
X127464534Y-118991522D01*
X127289995Y-118963878D01*
X127262352Y-118959500D01*
X127057648Y-118959500D01*
X127033329Y-118963351D01*
X126855465Y-118991522D01*
X126660776Y-119054781D01*
X126478386Y-119147715D01*
X126312786Y-119268028D01*
X126168028Y-119412786D01*
X126047715Y-119578386D01*
X125954781Y-119760776D01*
X125891522Y-119955465D01*
X125859500Y-120157648D01*
X125859500Y-120362351D01*
X125891522Y-120564534D01*
X125954781Y-120759223D01*
X126047715Y-120941613D01*
X126168028Y-121107213D01*
X126312786Y-121251971D01*
X126467749Y-121364556D01*
X126478390Y-121372287D01*
X126594607Y-121431503D01*
X126660776Y-121465218D01*
X126660778Y-121465218D01*
X126660781Y-121465220D01*
X126674750Y-121469758D01*
X126732424Y-121509196D01*
X126759622Y-121573555D01*
X126747707Y-121642401D01*
X126700462Y-121693877D01*
X126674748Y-121705620D01*
X126622589Y-121722567D01*
X126426239Y-121822613D01*
X126247958Y-121952142D01*
X126092142Y-122107958D01*
X125962613Y-122286239D01*
X125862567Y-122482589D01*
X125794473Y-122692161D01*
X125794473Y-122692164D01*
X125782145Y-122770000D01*
X124538361Y-122770000D01*
X124526015Y-122692049D01*
X124491955Y-122587221D01*
X124457896Y-122482396D01*
X124457895Y-122482393D01*
X124423237Y-122414375D01*
X124357815Y-122285978D01*
X124228477Y-122107958D01*
X124228247Y-122107641D01*
X124228243Y-122107636D01*
X124072363Y-121951756D01*
X124072358Y-121951752D01*
X123894025Y-121822187D01*
X123894024Y-121822186D01*
X123894022Y-121822185D01*
X123831096Y-121790122D01*
X123697606Y-121722104D01*
X123697603Y-121722103D01*
X123487952Y-121653985D01*
X123379086Y-121636742D01*
X123270222Y-121619500D01*
X123049778Y-121619500D01*
X122977201Y-121630995D01*
X122832047Y-121653985D01*
X122622396Y-121722103D01*
X122622393Y-121722104D01*
X122425974Y-121822187D01*
X122247641Y-121951752D01*
X122247636Y-121951756D01*
X122091756Y-122107636D01*
X122091752Y-122107641D01*
X121962187Y-122285974D01*
X121862104Y-122482393D01*
X121862103Y-122482396D01*
X121793985Y-122692047D01*
X121759500Y-122909778D01*
X108560500Y-122909778D01*
X108526015Y-122692049D01*
X108491955Y-122587221D01*
X108457896Y-122482396D01*
X108457895Y-122482393D01*
X108423237Y-122414375D01*
X108357815Y-122285978D01*
X108228477Y-122107958D01*
X108228247Y-122107641D01*
X108228243Y-122107636D01*
X108072363Y-121951756D01*
X108072358Y-121951752D01*
X107894025Y-121822187D01*
X107894024Y-121822186D01*
X107894022Y-121822185D01*
X107831096Y-121790122D01*
X107697606Y-121722104D01*
X107697603Y-121722103D01*
X107487952Y-121653985D01*
X107379086Y-121636742D01*
X107270222Y-121619500D01*
X107049778Y-121619500D01*
X106977201Y-121630995D01*
X106832047Y-121653985D01*
X106622396Y-121722103D01*
X106622393Y-121722104D01*
X106425974Y-121822187D01*
X106247641Y-121951752D01*
X106247636Y-121951756D01*
X106091756Y-122107636D01*
X106091752Y-122107641D01*
X105962187Y-122285974D01*
X105862104Y-122482393D01*
X105862103Y-122482396D01*
X105793985Y-122692047D01*
X105759500Y-122909778D01*
X104560500Y-122909778D01*
X104526015Y-122692049D01*
X104491955Y-122587221D01*
X104457896Y-122482396D01*
X104457895Y-122482393D01*
X104423237Y-122414375D01*
X104357815Y-122285978D01*
X104228477Y-122107958D01*
X104228247Y-122107641D01*
X104228243Y-122107636D01*
X104072363Y-121951756D01*
X104072358Y-121951752D01*
X103894025Y-121822187D01*
X103894024Y-121822186D01*
X103894022Y-121822185D01*
X103831096Y-121790122D01*
X103697606Y-121722104D01*
X103646060Y-121705356D01*
X103588385Y-121665918D01*
X103561187Y-121601559D01*
X103573102Y-121532712D01*
X103620347Y-121481237D01*
X103646056Y-121469496D01*
X103659219Y-121465220D01*
X103841610Y-121372287D01*
X103934590Y-121304732D01*
X104007213Y-121251971D01*
X104007215Y-121251968D01*
X104007219Y-121251966D01*
X104151966Y-121107219D01*
X104151968Y-121107215D01*
X104151971Y-121107213D01*
X104204732Y-121034590D01*
X104272287Y-120941610D01*
X104365220Y-120759219D01*
X104428477Y-120564534D01*
X104460500Y-120362352D01*
X104460500Y-120157648D01*
X104428477Y-119955466D01*
X104365220Y-119760781D01*
X104365218Y-119760778D01*
X104365218Y-119760776D01*
X104331503Y-119694607D01*
X104272287Y-119578390D01*
X104264556Y-119567749D01*
X104151971Y-119412786D01*
X104007213Y-119268028D01*
X103841613Y-119147715D01*
X103841612Y-119147714D01*
X103841610Y-119147713D01*
X103784653Y-119118691D01*
X103659223Y-119054781D01*
X103464534Y-118991522D01*
X103289995Y-118963878D01*
X103262352Y-118959500D01*
X103057648Y-118959500D01*
X103033329Y-118963351D01*
X102855465Y-118991522D01*
X102660776Y-119054781D01*
X102478386Y-119147715D01*
X102312786Y-119268028D01*
X102168028Y-119412786D01*
X102047715Y-119578386D01*
X101954781Y-119760776D01*
X101891522Y-119955465D01*
X101859500Y-120157648D01*
X101859500Y-120362351D01*
X101891522Y-120564534D01*
X101954781Y-120759223D01*
X102047715Y-120941613D01*
X102168028Y-121107213D01*
X102312786Y-121251971D01*
X102467749Y-121364556D01*
X102478390Y-121372287D01*
X102660781Y-121465220D01*
X102673935Y-121469494D01*
X102731611Y-121508928D01*
X102758811Y-121573286D01*
X102746899Y-121642133D01*
X102699657Y-121693610D01*
X102673940Y-121705355D01*
X102622401Y-121722101D01*
X102622393Y-121722104D01*
X102425974Y-121822187D01*
X102247641Y-121951752D01*
X102247636Y-121951756D01*
X102091756Y-122107636D01*
X102091752Y-122107641D01*
X101962187Y-122285974D01*
X101862104Y-122482393D01*
X101862103Y-122482396D01*
X101793985Y-122692047D01*
X101759500Y-122909778D01*
X100500499Y-122909778D01*
X100500499Y-117889778D01*
X109509500Y-117889778D01*
X109509500Y-118110221D01*
X109543985Y-118327952D01*
X109612103Y-118537603D01*
X109612104Y-118537606D01*
X109680122Y-118671096D01*
X109712049Y-118733756D01*
X109712187Y-118734025D01*
X109841752Y-118912358D01*
X109841756Y-118912363D01*
X109997636Y-119068243D01*
X109997641Y-119068247D01*
X110099610Y-119142331D01*
X110175978Y-119197815D01*
X110304375Y-119263237D01*
X110372393Y-119297895D01*
X110372396Y-119297896D01*
X110477221Y-119331955D01*
X110582049Y-119366015D01*
X110799778Y-119400500D01*
X110799779Y-119400500D01*
X111020221Y-119400500D01*
X111020222Y-119400500D01*
X111237951Y-119366015D01*
X111447606Y-119297895D01*
X111644022Y-119197815D01*
X111822365Y-119068242D01*
X111843401Y-119047205D01*
X111904721Y-119013720D01*
X111974413Y-119018703D01*
X112030348Y-119060574D01*
X112047264Y-119091552D01*
X112066203Y-119142329D01*
X112066206Y-119142335D01*
X112152452Y-119257544D01*
X112152455Y-119257547D01*
X112267664Y-119343793D01*
X112267671Y-119343797D01*
X112402517Y-119394091D01*
X112402516Y-119394091D01*
X112409444Y-119394835D01*
X112462127Y-119400500D01*
X114357872Y-119400499D01*
X114417483Y-119394091D01*
X114552331Y-119343796D01*
X114667546Y-119257546D01*
X114753796Y-119142331D01*
X114781429Y-119068243D01*
X114784327Y-119060474D01*
X114799906Y-119018703D01*
X114804091Y-119007483D01*
X114810500Y-118947873D01*
X114810499Y-117889818D01*
X115510000Y-117889818D01*
X115510000Y-118110181D01*
X115544473Y-118327835D01*
X115612567Y-118537410D01*
X115712611Y-118733756D01*
X115758932Y-118797513D01*
X116510000Y-118046445D01*
X116510000Y-118052661D01*
X116537259Y-118154394D01*
X116589920Y-118245606D01*
X116664394Y-118320080D01*
X116755606Y-118372741D01*
X116857339Y-118400000D01*
X116863553Y-118400000D01*
X116112485Y-119151065D01*
X116112485Y-119151066D01*
X116176243Y-119197388D01*
X116372589Y-119297432D01*
X116582164Y-119365526D01*
X116799819Y-119400000D01*
X117020181Y-119400000D01*
X117237835Y-119365526D01*
X117447410Y-119297432D01*
X117643760Y-119197386D01*
X117707513Y-119151066D01*
X117707514Y-119151066D01*
X116956447Y-118400000D01*
X116962661Y-118400000D01*
X117064394Y-118372741D01*
X117155606Y-118320080D01*
X117230080Y-118245606D01*
X117282741Y-118154394D01*
X117310000Y-118052661D01*
X117310000Y-118046447D01*
X117973181Y-118709628D01*
X118006666Y-118770951D01*
X118009500Y-118797308D01*
X118009500Y-118947869D01*
X118009501Y-118947876D01*
X118015908Y-119007483D01*
X118066202Y-119142328D01*
X118066206Y-119142335D01*
X118152452Y-119257544D01*
X118152455Y-119257547D01*
X118267664Y-119343793D01*
X118267671Y-119343797D01*
X118402517Y-119394091D01*
X118402516Y-119394091D01*
X118409444Y-119394835D01*
X118462127Y-119400500D01*
X120357872Y-119400499D01*
X120417483Y-119394091D01*
X120552331Y-119343796D01*
X120667546Y-119257546D01*
X120753796Y-119142331D01*
X120804091Y-119007483D01*
X120810500Y-118947873D01*
X120810499Y-117052128D01*
X120804091Y-116992517D01*
X120789275Y-116952794D01*
X120753797Y-116857671D01*
X120753793Y-116857664D01*
X120667547Y-116742455D01*
X120667544Y-116742452D01*
X120552335Y-116656206D01*
X120552328Y-116656202D01*
X120417482Y-116605908D01*
X120417483Y-116605908D01*
X120357883Y-116599501D01*
X120357881Y-116599500D01*
X120357873Y-116599500D01*
X120357864Y-116599500D01*
X118462129Y-116599500D01*
X118462123Y-116599501D01*
X118402516Y-116605908D01*
X118267671Y-116656202D01*
X118267664Y-116656206D01*
X118152455Y-116742452D01*
X118152452Y-116742455D01*
X118066206Y-116857664D01*
X118066202Y-116857671D01*
X118015908Y-116992517D01*
X118009501Y-117052116D01*
X118009501Y-117052123D01*
X118009500Y-117052135D01*
X118009500Y-117202691D01*
X117989815Y-117269730D01*
X117973181Y-117290372D01*
X117310000Y-117953553D01*
X117310000Y-117947339D01*
X117282741Y-117845606D01*
X117230080Y-117754394D01*
X117155606Y-117679920D01*
X117064394Y-117627259D01*
X116962661Y-117600000D01*
X116956445Y-117600000D01*
X117707513Y-116848932D01*
X117643756Y-116802611D01*
X117447410Y-116702567D01*
X117237835Y-116634473D01*
X117020181Y-116600000D01*
X116799819Y-116600000D01*
X116582164Y-116634473D01*
X116372589Y-116702567D01*
X116176233Y-116802616D01*
X116112485Y-116848931D01*
X116112485Y-116848932D01*
X116863553Y-117600000D01*
X116857339Y-117600000D01*
X116755606Y-117627259D01*
X116664394Y-117679920D01*
X116589920Y-117754394D01*
X116537259Y-117845606D01*
X116510000Y-117947339D01*
X116510000Y-117953553D01*
X115758932Y-117202485D01*
X115758931Y-117202485D01*
X115712616Y-117266233D01*
X115612567Y-117462589D01*
X115544473Y-117672164D01*
X115510000Y-117889818D01*
X114810499Y-117889818D01*
X114810499Y-117052128D01*
X114804091Y-116992517D01*
X114753796Y-116857669D01*
X114753795Y-116857668D01*
X114753793Y-116857664D01*
X114667547Y-116742455D01*
X114667544Y-116742452D01*
X114552335Y-116656206D01*
X114552328Y-116656202D01*
X114417482Y-116605908D01*
X114417483Y-116605908D01*
X114357883Y-116599501D01*
X114357881Y-116599500D01*
X114357873Y-116599500D01*
X114357864Y-116599500D01*
X112462129Y-116599500D01*
X112462123Y-116599501D01*
X112402516Y-116605908D01*
X112267671Y-116656202D01*
X112267664Y-116656206D01*
X112152455Y-116742452D01*
X112152452Y-116742455D01*
X112066206Y-116857664D01*
X112066201Y-116857674D01*
X112047263Y-116908448D01*
X112005391Y-116964381D01*
X111939927Y-116988797D01*
X111871654Y-116973945D01*
X111843401Y-116952794D01*
X111822363Y-116931756D01*
X111822358Y-116931752D01*
X111644025Y-116802187D01*
X111644024Y-116802186D01*
X111644022Y-116802185D01*
X111526791Y-116742452D01*
X111447606Y-116702104D01*
X111447603Y-116702103D01*
X111237952Y-116633985D01*
X111129086Y-116616742D01*
X111020222Y-116599500D01*
X110799778Y-116599500D01*
X110727201Y-116610995D01*
X110582047Y-116633985D01*
X110372396Y-116702103D01*
X110372393Y-116702104D01*
X110175974Y-116802187D01*
X109997641Y-116931752D01*
X109997636Y-116931756D01*
X109841756Y-117087636D01*
X109841752Y-117087641D01*
X109712187Y-117265974D01*
X109612104Y-117462393D01*
X109612103Y-117462396D01*
X109543985Y-117672047D01*
X109509500Y-117889778D01*
X100500499Y-117889778D01*
X100500499Y-112537648D01*
X101859500Y-112537648D01*
X101859500Y-112742351D01*
X101891522Y-112944534D01*
X101954781Y-113139223D01*
X102018691Y-113264653D01*
X102032753Y-113292250D01*
X102047715Y-113321613D01*
X102168028Y-113487213D01*
X102312786Y-113631971D01*
X102467749Y-113744556D01*
X102478390Y-113752287D01*
X102594607Y-113811503D01*
X102660776Y-113845218D01*
X102660778Y-113845218D01*
X102660781Y-113845220D01*
X102765137Y-113879127D01*
X102855465Y-113908477D01*
X102956557Y-113924488D01*
X103057648Y-113940500D01*
X103057649Y-113940500D01*
X103262351Y-113940500D01*
X103262352Y-113940500D01*
X103464534Y-113908477D01*
X103659219Y-113845220D01*
X103841610Y-113752287D01*
X103934590Y-113684732D01*
X104007213Y-113631971D01*
X104007215Y-113631968D01*
X104007219Y-113631966D01*
X104151966Y-113487219D01*
X104151968Y-113487215D01*
X104151971Y-113487213D01*
X104204732Y-113414590D01*
X104272287Y-113321610D01*
X104365220Y-113139219D01*
X104428477Y-112944534D01*
X104460500Y-112742352D01*
X104460500Y-112632135D01*
X105207000Y-112632135D01*
X105207000Y-114727870D01*
X105207001Y-114727876D01*
X105213408Y-114787483D01*
X105263702Y-114922328D01*
X105263706Y-114922335D01*
X105349952Y-115037544D01*
X105349955Y-115037547D01*
X105465164Y-115123793D01*
X105465171Y-115123797D01*
X105600017Y-115174091D01*
X105600016Y-115174091D01*
X105606944Y-115174835D01*
X105659627Y-115180500D01*
X107660372Y-115180499D01*
X107719983Y-115174091D01*
X107854831Y-115123796D01*
X107970046Y-115037546D01*
X108056296Y-114922331D01*
X108066690Y-114894460D01*
X108108560Y-114838527D01*
X108174023Y-114814108D01*
X108242297Y-114828958D01*
X108255746Y-114837465D01*
X108438462Y-114970217D01*
X108570599Y-115037544D01*
X108642244Y-115074049D01*
X108859751Y-115144721D01*
X108859752Y-115144721D01*
X108859755Y-115144722D01*
X109085646Y-115180500D01*
X109085647Y-115180500D01*
X109314353Y-115180500D01*
X109314354Y-115180500D01*
X109540245Y-115144722D01*
X109540248Y-115144721D01*
X109540249Y-115144721D01*
X109757755Y-115074049D01*
X109757755Y-115074048D01*
X109757758Y-115074048D01*
X109961538Y-114970217D01*
X110146566Y-114835786D01*
X110308286Y-114674066D01*
X110369683Y-114589559D01*
X110425012Y-114546896D01*
X110494625Y-114540917D01*
X110556420Y-114573523D01*
X110570314Y-114589556D01*
X110631714Y-114674066D01*
X110793434Y-114835786D01*
X110978462Y-114970217D01*
X111110599Y-115037544D01*
X111182244Y-115074049D01*
X111399751Y-115144721D01*
X111399752Y-115144721D01*
X111399755Y-115144722D01*
X111625646Y-115180500D01*
X111625647Y-115180500D01*
X111854353Y-115180500D01*
X111854354Y-115180500D01*
X112080245Y-115144722D01*
X112080248Y-115144721D01*
X112080249Y-115144721D01*
X112297755Y-115074049D01*
X112297755Y-115074048D01*
X112297758Y-115074048D01*
X112501538Y-114970217D01*
X112686566Y-114835786D01*
X112848286Y-114674066D01*
X112982717Y-114489038D01*
X113086548Y-114285258D01*
X113157222Y-114067745D01*
X113193000Y-113841854D01*
X113193000Y-113518146D01*
X113157222Y-113292255D01*
X113157221Y-113292251D01*
X113157221Y-113292250D01*
X113086549Y-113074744D01*
X113086548Y-113074742D01*
X112982717Y-112870962D01*
X112848286Y-112685934D01*
X112794487Y-112632135D01*
X117307002Y-112632135D01*
X117307002Y-114727870D01*
X117307003Y-114727876D01*
X117313410Y-114787483D01*
X117363704Y-114922328D01*
X117363708Y-114922335D01*
X117449954Y-115037544D01*
X117449957Y-115037547D01*
X117565166Y-115123793D01*
X117565173Y-115123797D01*
X117700019Y-115174091D01*
X117700018Y-115174091D01*
X117706946Y-115174835D01*
X117759629Y-115180500D01*
X119760374Y-115180499D01*
X119819985Y-115174091D01*
X119954833Y-115123796D01*
X120070048Y-115037546D01*
X120156298Y-114922331D01*
X120166874Y-114893974D01*
X120208742Y-114838041D01*
X120274206Y-114813622D01*
X120342479Y-114828472D01*
X120355942Y-114836988D01*
X120538725Y-114969788D01*
X120742431Y-115073582D01*
X120959873Y-115144234D01*
X121050002Y-115158509D01*
X121050002Y-114170747D01*
X121087710Y-114192518D01*
X121227593Y-114230000D01*
X121372411Y-114230000D01*
X121512294Y-114192518D01*
X121550002Y-114170747D01*
X121550002Y-115158508D01*
X121640130Y-115144234D01*
X121857572Y-115073582D01*
X122061278Y-114969788D01*
X122246244Y-114835402D01*
X122407907Y-114673739D01*
X122469373Y-114589137D01*
X122524703Y-114546470D01*
X122594316Y-114540491D01*
X122656111Y-114573096D01*
X122670009Y-114589134D01*
X122731716Y-114674066D01*
X122893436Y-114835786D01*
X123078464Y-114970217D01*
X123210601Y-115037544D01*
X123282246Y-115074049D01*
X123499753Y-115144721D01*
X123499754Y-115144721D01*
X123499757Y-115144722D01*
X123725648Y-115180500D01*
X123725649Y-115180500D01*
X123954355Y-115180500D01*
X123954356Y-115180500D01*
X124180247Y-115144722D01*
X124180250Y-115144721D01*
X124180251Y-115144721D01*
X124397757Y-115074049D01*
X124397757Y-115074048D01*
X124397760Y-115074048D01*
X124601540Y-114970217D01*
X124786568Y-114835786D01*
X124948288Y-114674066D01*
X125082719Y-114489038D01*
X125186550Y-114285258D01*
X125257224Y-114067745D01*
X125293002Y-113841854D01*
X125293002Y-113518146D01*
X125257224Y-113292255D01*
X125257223Y-113292251D01*
X125257223Y-113292250D01*
X125186551Y-113074744D01*
X125186550Y-113074742D01*
X125082719Y-112870962D01*
X124948288Y-112685934D01*
X124800002Y-112537648D01*
X125859500Y-112537648D01*
X125859500Y-112742351D01*
X125891522Y-112944534D01*
X125954781Y-113139223D01*
X126018691Y-113264653D01*
X126032753Y-113292250D01*
X126047715Y-113321613D01*
X126168028Y-113487213D01*
X126312786Y-113631971D01*
X126467749Y-113744556D01*
X126478390Y-113752287D01*
X126594607Y-113811503D01*
X126660776Y-113845218D01*
X126660778Y-113845218D01*
X126660781Y-113845220D01*
X126765137Y-113879127D01*
X126855465Y-113908477D01*
X126956557Y-113924488D01*
X127057648Y-113940500D01*
X127057649Y-113940500D01*
X127262351Y-113940500D01*
X127262352Y-113940500D01*
X127464534Y-113908477D01*
X127659219Y-113845220D01*
X127841610Y-113752287D01*
X127934590Y-113684732D01*
X128007213Y-113631971D01*
X128007215Y-113631968D01*
X128007219Y-113631966D01*
X128151966Y-113487219D01*
X128151968Y-113487215D01*
X128151971Y-113487213D01*
X128204732Y-113414590D01*
X128272287Y-113321610D01*
X128365220Y-113139219D01*
X128428477Y-112944534D01*
X128460500Y-112742352D01*
X128460500Y-112537648D01*
X128428477Y-112335466D01*
X128424249Y-112322455D01*
X128389584Y-112215765D01*
X128365220Y-112140781D01*
X128365218Y-112140778D01*
X128365218Y-112140776D01*
X128331503Y-112074607D01*
X128272287Y-111958390D01*
X128264556Y-111947749D01*
X128151971Y-111792786D01*
X128007213Y-111648028D01*
X127841613Y-111527715D01*
X127841612Y-111527714D01*
X127841610Y-111527713D01*
X127784653Y-111498691D01*
X127659223Y-111434781D01*
X127464534Y-111371522D01*
X127289995Y-111343878D01*
X127262352Y-111339500D01*
X127057648Y-111339500D01*
X127033329Y-111343351D01*
X126855465Y-111371522D01*
X126660776Y-111434781D01*
X126478386Y-111527715D01*
X126312786Y-111648028D01*
X126168028Y-111792786D01*
X126047715Y-111958386D01*
X125954781Y-112140776D01*
X125891522Y-112335465D01*
X125859500Y-112537648D01*
X124800002Y-112537648D01*
X124786568Y-112524214D01*
X124601540Y-112389783D01*
X124494935Y-112335465D01*
X124397757Y-112285950D01*
X124180250Y-112215278D01*
X123994814Y-112185908D01*
X123954356Y-112179500D01*
X123725648Y-112179500D01*
X123685190Y-112185908D01*
X123499755Y-112215278D01*
X123499752Y-112215278D01*
X123282246Y-112285950D01*
X123078463Y-112389783D01*
X123012552Y-112437671D01*
X122893436Y-112524214D01*
X122893434Y-112524216D01*
X122893433Y-112524216D01*
X122731718Y-112685931D01*
X122731711Y-112685940D01*
X122670009Y-112770864D01*
X122614679Y-112813530D01*
X122545065Y-112819508D01*
X122483271Y-112786901D01*
X122469374Y-112770863D01*
X122407909Y-112686263D01*
X122407904Y-112686257D01*
X122246244Y-112524597D01*
X122061278Y-112390211D01*
X121857570Y-112286417D01*
X121640126Y-112215765D01*
X121550002Y-112201490D01*
X121550002Y-113189252D01*
X121512294Y-113167482D01*
X121372411Y-113130000D01*
X121227593Y-113130000D01*
X121087710Y-113167482D01*
X121050002Y-113189252D01*
X121050002Y-112201490D01*
X121050001Y-112201490D01*
X120959877Y-112215765D01*
X120742433Y-112286417D01*
X120538721Y-112390213D01*
X120355941Y-112523010D01*
X120290134Y-112546490D01*
X120222081Y-112530664D01*
X120173386Y-112480558D01*
X120166877Y-112466033D01*
X120156298Y-112437669D01*
X120156297Y-112437667D01*
X120156295Y-112437664D01*
X120070049Y-112322455D01*
X120070046Y-112322452D01*
X119954837Y-112236206D01*
X119954830Y-112236202D01*
X119819984Y-112185908D01*
X119819985Y-112185908D01*
X119760385Y-112179501D01*
X119760383Y-112179500D01*
X119760375Y-112179500D01*
X119760366Y-112179500D01*
X117759631Y-112179500D01*
X117759625Y-112179501D01*
X117700018Y-112185908D01*
X117565173Y-112236202D01*
X117565166Y-112236206D01*
X117449957Y-112322452D01*
X117449954Y-112322455D01*
X117363708Y-112437664D01*
X117363704Y-112437671D01*
X117313410Y-112572517D01*
X117307003Y-112632116D01*
X117307002Y-112632135D01*
X112794487Y-112632135D01*
X112686566Y-112524214D01*
X112501538Y-112389783D01*
X112394933Y-112335465D01*
X112297755Y-112285950D01*
X112080248Y-112215278D01*
X111894812Y-112185908D01*
X111854354Y-112179500D01*
X111625646Y-112179500D01*
X111585188Y-112185908D01*
X111399753Y-112215278D01*
X111399750Y-112215278D01*
X111182244Y-112285950D01*
X110978461Y-112389783D01*
X110912550Y-112437671D01*
X110793434Y-112524214D01*
X110793432Y-112524216D01*
X110793431Y-112524216D01*
X110631715Y-112685932D01*
X110570318Y-112770438D01*
X110514987Y-112813103D01*
X110445374Y-112819082D01*
X110383579Y-112786476D01*
X110369682Y-112770438D01*
X110349275Y-112742351D01*
X110308286Y-112685934D01*
X110146566Y-112524214D01*
X109961538Y-112389783D01*
X109854933Y-112335465D01*
X109757755Y-112285950D01*
X109540248Y-112215278D01*
X109354812Y-112185908D01*
X109314354Y-112179500D01*
X109085646Y-112179500D01*
X109045188Y-112185908D01*
X108859753Y-112215278D01*
X108859750Y-112215278D01*
X108642244Y-112285950D01*
X108438461Y-112389783D01*
X108255759Y-112522525D01*
X108189952Y-112546005D01*
X108121898Y-112530180D01*
X108073203Y-112480074D01*
X108066690Y-112465538D01*
X108056296Y-112437669D01*
X108056293Y-112437664D01*
X107970047Y-112322455D01*
X107970044Y-112322452D01*
X107854835Y-112236206D01*
X107854828Y-112236202D01*
X107719982Y-112185908D01*
X107719983Y-112185908D01*
X107660383Y-112179501D01*
X107660381Y-112179500D01*
X107660373Y-112179500D01*
X107660364Y-112179500D01*
X105659629Y-112179500D01*
X105659623Y-112179501D01*
X105600016Y-112185908D01*
X105465171Y-112236202D01*
X105465164Y-112236206D01*
X105349955Y-112322452D01*
X105349952Y-112322455D01*
X105263706Y-112437664D01*
X105263702Y-112437671D01*
X105213408Y-112572517D01*
X105207001Y-112632116D01*
X105207000Y-112632135D01*
X104460500Y-112632135D01*
X104460500Y-112537648D01*
X104428477Y-112335466D01*
X104424249Y-112322455D01*
X104389584Y-112215765D01*
X104365220Y-112140781D01*
X104365218Y-112140778D01*
X104365218Y-112140776D01*
X104331503Y-112074607D01*
X104272287Y-111958390D01*
X104264556Y-111947749D01*
X104151971Y-111792786D01*
X104007213Y-111648028D01*
X103841613Y-111527715D01*
X103841612Y-111527714D01*
X103841610Y-111527713D01*
X103784653Y-111498691D01*
X103659223Y-111434781D01*
X103464534Y-111371522D01*
X103289995Y-111343878D01*
X103262352Y-111339500D01*
X103057648Y-111339500D01*
X103033329Y-111343351D01*
X102855465Y-111371522D01*
X102660776Y-111434781D01*
X102478386Y-111527715D01*
X102312786Y-111648028D01*
X102168028Y-111792786D01*
X102047715Y-111958386D01*
X101954781Y-112140776D01*
X101891522Y-112335465D01*
X101859500Y-112537648D01*
X100500499Y-112537648D01*
X100500499Y-96888872D01*
X107199500Y-96888872D01*
X107199500Y-97151127D01*
X107226123Y-97353339D01*
X107233730Y-97411116D01*
X107301602Y-97664418D01*
X107301605Y-97664428D01*
X107401953Y-97906690D01*
X107401958Y-97906700D01*
X107533075Y-98133803D01*
X107692718Y-98341851D01*
X107692726Y-98341860D01*
X107878140Y-98527274D01*
X107878148Y-98527281D01*
X108086196Y-98686924D01*
X108313299Y-98818041D01*
X108313309Y-98818046D01*
X108555571Y-98918394D01*
X108555581Y-98918398D01*
X108808884Y-98986270D01*
X109068880Y-99020500D01*
X109068887Y-99020500D01*
X109331113Y-99020500D01*
X109331120Y-99020500D01*
X109591116Y-98986270D01*
X109844419Y-98918398D01*
X110086697Y-98818043D01*
X110313803Y-98686924D01*
X110521851Y-98527282D01*
X110521855Y-98527277D01*
X110521860Y-98527274D01*
X110707274Y-98341860D01*
X110707277Y-98341855D01*
X110707282Y-98341851D01*
X110866924Y-98133803D01*
X110998043Y-97906697D01*
X111098398Y-97664419D01*
X111166270Y-97411116D01*
X111200500Y-97151120D01*
X111200500Y-96888880D01*
X111200499Y-96888872D01*
X119299502Y-96888872D01*
X119299502Y-97151127D01*
X119326125Y-97353339D01*
X119333732Y-97411116D01*
X119401604Y-97664418D01*
X119401607Y-97664428D01*
X119501955Y-97906690D01*
X119501960Y-97906700D01*
X119633077Y-98133803D01*
X119792720Y-98341851D01*
X119792728Y-98341860D01*
X119978142Y-98527274D01*
X119978150Y-98527281D01*
X120186198Y-98686924D01*
X120413301Y-98818041D01*
X120413311Y-98818046D01*
X120655573Y-98918394D01*
X120655583Y-98918398D01*
X120908886Y-98986270D01*
X121168882Y-99020500D01*
X121168889Y-99020500D01*
X121431115Y-99020500D01*
X121431122Y-99020500D01*
X121691118Y-98986270D01*
X121944421Y-98918398D01*
X122186699Y-98818043D01*
X122413805Y-98686924D01*
X122621853Y-98527282D01*
X122621857Y-98527277D01*
X122621862Y-98527274D01*
X122807276Y-98341860D01*
X122807279Y-98341855D01*
X122807284Y-98341851D01*
X122966926Y-98133803D01*
X123098045Y-97906697D01*
X123198400Y-97664419D01*
X123266272Y-97411116D01*
X123300502Y-97151120D01*
X123300502Y-96888880D01*
X123266272Y-96628884D01*
X123198400Y-96375581D01*
X123198396Y-96375571D01*
X123098048Y-96133309D01*
X123098043Y-96133299D01*
X122966926Y-95906196D01*
X122807283Y-95698148D01*
X122807276Y-95698140D01*
X122621862Y-95512726D01*
X122621853Y-95512718D01*
X122413805Y-95353075D01*
X122186702Y-95221958D01*
X122186692Y-95221953D01*
X121944430Y-95121605D01*
X121944423Y-95121603D01*
X121944421Y-95121602D01*
X121691118Y-95053730D01*
X121633341Y-95046123D01*
X121431129Y-95019500D01*
X121431122Y-95019500D01*
X121168882Y-95019500D01*
X121168874Y-95019500D01*
X120937774Y-95049926D01*
X120908886Y-95053730D01*
X120655583Y-95121602D01*
X120655573Y-95121605D01*
X120413311Y-95221953D01*
X120413301Y-95221958D01*
X120186198Y-95353075D01*
X119978150Y-95512718D01*
X119792720Y-95698148D01*
X119633077Y-95906196D01*
X119501960Y-96133299D01*
X119501955Y-96133309D01*
X119401607Y-96375571D01*
X119401604Y-96375581D01*
X119333732Y-96628885D01*
X119299502Y-96888872D01*
X111200499Y-96888872D01*
X111166270Y-96628884D01*
X111098398Y-96375581D01*
X111098394Y-96375571D01*
X110998046Y-96133309D01*
X110998041Y-96133299D01*
X110866924Y-95906196D01*
X110707281Y-95698148D01*
X110707274Y-95698140D01*
X110521860Y-95512726D01*
X110521851Y-95512718D01*
X110313803Y-95353075D01*
X110086700Y-95221958D01*
X110086690Y-95221953D01*
X109844428Y-95121605D01*
X109844421Y-95121603D01*
X109844419Y-95121602D01*
X109591116Y-95053730D01*
X109533339Y-95046123D01*
X109331127Y-95019500D01*
X109331120Y-95019500D01*
X109068880Y-95019500D01*
X109068872Y-95019500D01*
X108837772Y-95049926D01*
X108808884Y-95053730D01*
X108555581Y-95121602D01*
X108555571Y-95121605D01*
X108313309Y-95221953D01*
X108313299Y-95221958D01*
X108086196Y-95353075D01*
X107878148Y-95512718D01*
X107692718Y-95698148D01*
X107533075Y-95906196D01*
X107401958Y-96133299D01*
X107401953Y-96133309D01*
X107301605Y-96375571D01*
X107301602Y-96375581D01*
X107233730Y-96628885D01*
X107199500Y-96888872D01*
X100500499Y-96888872D01*
X100500499Y-90147648D01*
X101089500Y-90147648D01*
X101089500Y-90352351D01*
X101121522Y-90554534D01*
X101184781Y-90749223D01*
X101210789Y-90800265D01*
X101277585Y-90931359D01*
X101277715Y-90931613D01*
X101398028Y-91097213D01*
X101542786Y-91241971D01*
X101663226Y-91329474D01*
X101708390Y-91362287D01*
X101802207Y-91410089D01*
X101890776Y-91455218D01*
X101890778Y-91455218D01*
X101890781Y-91455220D01*
X101995137Y-91489127D01*
X102085465Y-91518477D01*
X102186557Y-91534488D01*
X102287648Y-91550500D01*
X102287649Y-91550500D01*
X102492351Y-91550500D01*
X102492352Y-91550500D01*
X102694534Y-91518477D01*
X102889219Y-91455220D01*
X103071610Y-91362287D01*
X103229089Y-91247873D01*
X103237213Y-91241971D01*
X103237215Y-91241968D01*
X103237219Y-91241966D01*
X103381966Y-91097219D01*
X103381968Y-91097215D01*
X103381971Y-91097213D01*
X103469867Y-90976232D01*
X103502287Y-90931610D01*
X103595220Y-90749219D01*
X103658477Y-90554534D01*
X103690500Y-90352352D01*
X103690500Y-90147648D01*
X108709500Y-90147648D01*
X108709500Y-90352351D01*
X108741522Y-90554534D01*
X108804781Y-90749223D01*
X108830789Y-90800265D01*
X108897585Y-90931359D01*
X108897715Y-90931613D01*
X109018028Y-91097213D01*
X109162786Y-91241971D01*
X109283226Y-91329474D01*
X109328390Y-91362287D01*
X109422207Y-91410089D01*
X109510776Y-91455218D01*
X109510778Y-91455218D01*
X109510781Y-91455220D01*
X109615137Y-91489127D01*
X109705465Y-91518477D01*
X109806557Y-91534488D01*
X109907648Y-91550500D01*
X109907649Y-91550500D01*
X110112351Y-91550500D01*
X110112352Y-91550500D01*
X110314534Y-91518477D01*
X110509219Y-91455220D01*
X110691610Y-91362287D01*
X110849089Y-91247873D01*
X110857213Y-91241971D01*
X110857215Y-91241968D01*
X110857219Y-91241966D01*
X111001966Y-91097219D01*
X111001968Y-91097215D01*
X111001971Y-91097213D01*
X111089867Y-90976232D01*
X111122287Y-90931610D01*
X111215220Y-90749219D01*
X111278477Y-90554534D01*
X111310500Y-90352352D01*
X111310500Y-90147648D01*
X111278477Y-89945466D01*
X111258014Y-89882486D01*
X112294501Y-89882486D01*
X112294501Y-90617513D01*
X112323446Y-90800265D01*
X112380620Y-90976232D01*
X112380621Y-90976235D01*
X112464623Y-91141096D01*
X112573380Y-91290787D01*
X112704214Y-91421621D01*
X112853905Y-91530378D01*
X112907225Y-91557546D01*
X113018765Y-91614379D01*
X113018768Y-91614380D01*
X113106751Y-91642967D01*
X113194737Y-91671555D01*
X113377487Y-91700500D01*
X113377488Y-91700500D01*
X113562514Y-91700500D01*
X113562515Y-91700500D01*
X113745265Y-91671555D01*
X113921236Y-91614379D01*
X114086097Y-91530378D01*
X114235788Y-91421621D01*
X114247320Y-91410089D01*
X114308643Y-91376604D01*
X114378335Y-91381588D01*
X114422682Y-91410089D01*
X114434214Y-91421621D01*
X114583905Y-91530378D01*
X114637225Y-91557546D01*
X114748765Y-91614379D01*
X114748768Y-91614380D01*
X114836751Y-91642967D01*
X114924737Y-91671555D01*
X115107487Y-91700500D01*
X115107488Y-91700500D01*
X115292514Y-91700500D01*
X115292515Y-91700500D01*
X115475265Y-91671555D01*
X115651236Y-91614379D01*
X115798222Y-91539485D01*
X115866889Y-91526589D01*
X115930288Y-91552320D01*
X115930355Y-91552231D01*
X115930694Y-91552485D01*
X115931630Y-91552865D01*
X115933867Y-91554860D01*
X115937454Y-91557545D01*
X115937455Y-91557546D01*
X116052670Y-91643796D01*
X116052671Y-91643796D01*
X116052672Y-91643797D01*
X116187518Y-91694091D01*
X116187517Y-91694091D01*
X116194445Y-91694835D01*
X116247128Y-91700500D01*
X117692873Y-91700499D01*
X117752484Y-91694091D01*
X117887332Y-91643796D01*
X118002547Y-91557546D01*
X118088797Y-91442331D01*
X118139092Y-91307483D01*
X118145501Y-91247873D01*
X118145500Y-90147682D01*
X118890000Y-90147682D01*
X118890000Y-90352317D01*
X118922009Y-90554417D01*
X118985244Y-90749031D01*
X119078141Y-90931350D01*
X119078147Y-90931359D01*
X119110523Y-90975921D01*
X119110524Y-90975922D01*
X119790000Y-90296446D01*
X119790000Y-90302661D01*
X119817259Y-90404394D01*
X119869920Y-90495606D01*
X119944394Y-90570080D01*
X120035606Y-90622741D01*
X120137339Y-90650000D01*
X120143553Y-90650000D01*
X119464076Y-91329474D01*
X119508650Y-91361859D01*
X119690968Y-91454755D01*
X119885582Y-91517990D01*
X120087683Y-91550000D01*
X120292317Y-91550000D01*
X120494417Y-91517990D01*
X120689031Y-91454755D01*
X120871349Y-91361859D01*
X120915921Y-91329474D01*
X120236447Y-90650000D01*
X120242661Y-90650000D01*
X120344394Y-90622741D01*
X120435606Y-90570080D01*
X120510080Y-90495606D01*
X120562741Y-90404394D01*
X120590000Y-90302661D01*
X120590000Y-90296448D01*
X121269474Y-90975922D01*
X121269474Y-90975921D01*
X121301859Y-90931349D01*
X121394755Y-90749031D01*
X121457990Y-90554417D01*
X121490000Y-90352317D01*
X121490000Y-90147682D01*
X121489995Y-90147648D01*
X126509500Y-90147648D01*
X126509500Y-90352351D01*
X126541522Y-90554534D01*
X126604781Y-90749223D01*
X126630789Y-90800265D01*
X126697585Y-90931359D01*
X126697715Y-90931613D01*
X126818028Y-91097213D01*
X126962786Y-91241971D01*
X127083226Y-91329474D01*
X127128390Y-91362287D01*
X127222207Y-91410089D01*
X127310776Y-91455218D01*
X127310778Y-91455218D01*
X127310781Y-91455220D01*
X127415137Y-91489127D01*
X127505465Y-91518477D01*
X127606557Y-91534488D01*
X127707648Y-91550500D01*
X127707649Y-91550500D01*
X127912351Y-91550500D01*
X127912352Y-91550500D01*
X128114534Y-91518477D01*
X128309219Y-91455220D01*
X128491610Y-91362287D01*
X128649089Y-91247873D01*
X128657213Y-91241971D01*
X128657215Y-91241968D01*
X128657219Y-91241966D01*
X128801966Y-91097219D01*
X128801968Y-91097215D01*
X128801971Y-91097213D01*
X128889867Y-90976232D01*
X128922287Y-90931610D01*
X129015220Y-90749219D01*
X129078477Y-90554534D01*
X129110500Y-90352352D01*
X129110500Y-90147648D01*
X129102257Y-90095606D01*
X129078477Y-89945465D01*
X129047458Y-89850000D01*
X129015220Y-89750781D01*
X129015218Y-89750778D01*
X129015218Y-89750776D01*
X128922419Y-89568650D01*
X128922287Y-89568390D01*
X128890092Y-89524077D01*
X128801971Y-89402786D01*
X128657213Y-89258028D01*
X128491613Y-89137715D01*
X128491612Y-89137714D01*
X128491610Y-89137713D01*
X128434653Y-89108691D01*
X128309223Y-89044781D01*
X128114534Y-88981522D01*
X127939995Y-88953878D01*
X127912352Y-88949500D01*
X127707648Y-88949500D01*
X127683329Y-88953351D01*
X127505465Y-88981522D01*
X127310776Y-89044781D01*
X127128386Y-89137715D01*
X126962786Y-89258028D01*
X126818028Y-89402786D01*
X126697715Y-89568386D01*
X126604781Y-89750776D01*
X126541522Y-89945465D01*
X126509500Y-90147648D01*
X121489995Y-90147648D01*
X121457990Y-89945582D01*
X121394755Y-89750968D01*
X121301859Y-89568650D01*
X121269474Y-89524077D01*
X121269474Y-89524076D01*
X120590000Y-90203551D01*
X120590000Y-90197339D01*
X120562741Y-90095606D01*
X120510080Y-90004394D01*
X120435606Y-89929920D01*
X120344394Y-89877259D01*
X120242661Y-89850000D01*
X120236446Y-89850000D01*
X120915922Y-89170524D01*
X120915921Y-89170523D01*
X120871359Y-89138147D01*
X120871350Y-89138141D01*
X120689031Y-89045244D01*
X120494417Y-88982009D01*
X120292317Y-88950000D01*
X120087683Y-88950000D01*
X119885582Y-88982009D01*
X119690968Y-89045244D01*
X119508644Y-89138143D01*
X119464077Y-89170523D01*
X119464077Y-89170524D01*
X120143554Y-89850000D01*
X120137339Y-89850000D01*
X120035606Y-89877259D01*
X119944394Y-89929920D01*
X119869920Y-90004394D01*
X119817259Y-90095606D01*
X119790000Y-90197339D01*
X119790000Y-90203553D01*
X119110524Y-89524077D01*
X119110523Y-89524077D01*
X119078143Y-89568644D01*
X118985244Y-89750968D01*
X118922009Y-89945582D01*
X118890000Y-90147682D01*
X118145500Y-90147682D01*
X118145500Y-89252128D01*
X118139092Y-89192517D01*
X118103299Y-89096552D01*
X118088798Y-89057671D01*
X118088794Y-89057664D01*
X118002548Y-88942455D01*
X118002545Y-88942452D01*
X117887336Y-88856206D01*
X117887329Y-88856202D01*
X117752483Y-88805908D01*
X117752484Y-88805908D01*
X117692884Y-88799501D01*
X117692882Y-88799500D01*
X117692874Y-88799500D01*
X117692865Y-88799500D01*
X116247130Y-88799500D01*
X116247124Y-88799501D01*
X116187517Y-88805908D01*
X116052672Y-88856202D01*
X116052665Y-88856206D01*
X115930356Y-88947768D01*
X115928451Y-88945223D01*
X115880835Y-88971204D01*
X115811145Y-88966197D01*
X115798222Y-88960514D01*
X115651236Y-88885620D01*
X115651233Y-88885619D01*
X115475266Y-88828445D01*
X115332973Y-88805908D01*
X115292515Y-88799500D01*
X115107487Y-88799500D01*
X115067029Y-88805908D01*
X114924735Y-88828445D01*
X114748768Y-88885619D01*
X114748765Y-88885620D01*
X114583904Y-88969622D01*
X114518473Y-89017161D01*
X114434214Y-89078379D01*
X114434212Y-89078381D01*
X114434211Y-89078381D01*
X114422682Y-89089911D01*
X114361359Y-89123396D01*
X114291667Y-89118412D01*
X114247320Y-89089911D01*
X114235790Y-89078381D01*
X114235788Y-89078379D01*
X114086097Y-88969622D01*
X114047587Y-88950000D01*
X113921236Y-88885620D01*
X113921233Y-88885619D01*
X113745266Y-88828445D01*
X113602973Y-88805908D01*
X113562515Y-88799500D01*
X113377487Y-88799500D01*
X113337029Y-88805908D01*
X113194735Y-88828445D01*
X113018768Y-88885619D01*
X113018765Y-88885620D01*
X112853904Y-88969622D01*
X112788473Y-89017161D01*
X112704214Y-89078379D01*
X112704212Y-89078381D01*
X112704211Y-89078381D01*
X112573382Y-89209210D01*
X112573382Y-89209211D01*
X112573380Y-89209213D01*
X112526673Y-89273499D01*
X112464623Y-89358903D01*
X112380621Y-89523764D01*
X112380620Y-89523767D01*
X112323446Y-89699734D01*
X112294501Y-89882486D01*
X111258014Y-89882486D01*
X111215220Y-89750781D01*
X111122287Y-89568390D01*
X111090092Y-89524077D01*
X111001971Y-89402786D01*
X110857213Y-89258028D01*
X110691613Y-89137715D01*
X110691612Y-89137714D01*
X110691610Y-89137713D01*
X110634653Y-89108691D01*
X110509223Y-89044781D01*
X110314534Y-88981522D01*
X110139995Y-88953878D01*
X110112352Y-88949500D01*
X109907648Y-88949500D01*
X109883329Y-88953351D01*
X109705465Y-88981522D01*
X109510776Y-89044781D01*
X109328386Y-89137715D01*
X109162786Y-89258028D01*
X109018028Y-89402786D01*
X108897715Y-89568386D01*
X108804781Y-89750776D01*
X108741522Y-89945465D01*
X108709500Y-90147648D01*
X103690500Y-90147648D01*
X103682257Y-90095606D01*
X103658477Y-89945465D01*
X103627458Y-89850000D01*
X103595220Y-89750781D01*
X103595218Y-89750778D01*
X103595218Y-89750776D01*
X103502419Y-89568650D01*
X103502287Y-89568390D01*
X103470092Y-89524077D01*
X103381971Y-89402786D01*
X103237213Y-89258028D01*
X103071613Y-89137715D01*
X103071612Y-89137714D01*
X103071610Y-89137713D01*
X103014653Y-89108691D01*
X102889223Y-89044781D01*
X102694534Y-88981522D01*
X102519995Y-88953878D01*
X102492352Y-88949500D01*
X102287648Y-88949500D01*
X102263329Y-88953351D01*
X102085465Y-88981522D01*
X101890776Y-89044781D01*
X101708386Y-89137715D01*
X101542786Y-89258028D01*
X101398028Y-89402786D01*
X101277715Y-89568386D01*
X101184781Y-89750776D01*
X101121522Y-89945465D01*
X101089500Y-90147648D01*
X100500499Y-90147648D01*
X100500499Y-78392682D01*
X104749500Y-78392682D01*
X104749500Y-85607317D01*
X104780044Y-85819764D01*
X104780047Y-85819774D01*
X104840517Y-86025715D01*
X104929672Y-86220938D01*
X104929679Y-86220951D01*
X105045720Y-86401514D01*
X105186275Y-86563724D01*
X105310277Y-86671172D01*
X105348487Y-86704281D01*
X105477531Y-86787211D01*
X105529048Y-86820320D01*
X105529061Y-86820327D01*
X105724284Y-86909482D01*
X105724288Y-86909483D01*
X105724290Y-86909484D01*
X105930231Y-86969954D01*
X105930232Y-86969954D01*
X105930235Y-86969955D01*
X105993584Y-86979062D01*
X106142682Y-87000500D01*
X106142683Y-87000500D01*
X123357317Y-87000500D01*
X123357318Y-87000500D01*
X123527851Y-86975980D01*
X123569764Y-86969955D01*
X123569765Y-86969954D01*
X123569769Y-86969954D01*
X123775710Y-86909484D01*
X123775713Y-86909482D01*
X123775715Y-86909482D01*
X123970938Y-86820327D01*
X123970944Y-86820323D01*
X123970950Y-86820321D01*
X124151513Y-86704281D01*
X124313724Y-86563724D01*
X124454281Y-86401513D01*
X124570321Y-86220950D01*
X124570323Y-86220944D01*
X124570327Y-86220938D01*
X124610633Y-86132677D01*
X124659484Y-86025710D01*
X124691654Y-85916147D01*
X124729427Y-85857371D01*
X124792982Y-85828346D01*
X124862141Y-85838289D01*
X124884283Y-85853663D01*
X124885355Y-85852232D01*
X125007664Y-85943793D01*
X125007671Y-85943797D01*
X125142517Y-85994091D01*
X125142516Y-85994091D01*
X125149444Y-85994835D01*
X125202127Y-86000500D01*
X127297872Y-86000499D01*
X127357483Y-85994091D01*
X127492331Y-85943796D01*
X127607546Y-85857546D01*
X127693796Y-85742331D01*
X127744091Y-85607483D01*
X127750500Y-85547873D01*
X127750499Y-83452128D01*
X127744091Y-83392517D01*
X127693796Y-83257669D01*
X127693795Y-83257668D01*
X127693793Y-83257664D01*
X127607547Y-83142455D01*
X127607544Y-83142452D01*
X127492335Y-83056206D01*
X127492328Y-83056202D01*
X127357482Y-83005908D01*
X127357483Y-83005908D01*
X127297883Y-82999501D01*
X127297881Y-82999500D01*
X127297873Y-82999500D01*
X127297864Y-82999500D01*
X125202129Y-82999500D01*
X125202123Y-82999501D01*
X125142516Y-83005908D01*
X125007671Y-83056202D01*
X125007668Y-83056204D01*
X124948811Y-83100265D01*
X124883347Y-83124682D01*
X124815074Y-83109830D01*
X124765668Y-83060425D01*
X124750500Y-83000998D01*
X124750500Y-80369700D01*
X124770185Y-80302661D01*
X124822989Y-80256906D01*
X124892147Y-80246962D01*
X124955703Y-80275987D01*
X124974818Y-80296815D01*
X125027339Y-80369104D01*
X125027340Y-80369105D01*
X125767037Y-79629408D01*
X125784075Y-79692993D01*
X125849901Y-79807007D01*
X125942993Y-79900099D01*
X126057007Y-79965925D01*
X126120590Y-79982962D01*
X125380893Y-80722658D01*
X125463828Y-80782914D01*
X125674197Y-80890102D01*
X125898752Y-80963065D01*
X125898751Y-80963065D01*
X126131948Y-81000000D01*
X126368052Y-81000000D01*
X126601247Y-80963065D01*
X126825802Y-80890102D01*
X127036163Y-80782918D01*
X127036169Y-80782914D01*
X127119104Y-80722658D01*
X127119105Y-80722658D01*
X126379408Y-79982962D01*
X126442993Y-79965925D01*
X126557007Y-79900099D01*
X126650099Y-79807007D01*
X126715925Y-79692993D01*
X126732962Y-79629409D01*
X127472658Y-80369105D01*
X127472658Y-80369104D01*
X127532914Y-80286169D01*
X127532918Y-80286163D01*
X127640102Y-80075802D01*
X127713065Y-79851247D01*
X127750000Y-79618052D01*
X127750000Y-79381947D01*
X127713065Y-79148752D01*
X127640102Y-78924197D01*
X127532914Y-78713828D01*
X127472658Y-78630894D01*
X127472658Y-78630893D01*
X126732962Y-79370590D01*
X126715925Y-79307007D01*
X126650099Y-79192993D01*
X126557007Y-79099901D01*
X126442993Y-79034075D01*
X126379409Y-79017037D01*
X127119105Y-78277340D01*
X127119104Y-78277338D01*
X127036174Y-78217087D01*
X126825802Y-78109897D01*
X126601247Y-78036934D01*
X126601248Y-78036934D01*
X126368052Y-78000000D01*
X126131948Y-78000000D01*
X125898752Y-78036934D01*
X125674197Y-78109897D01*
X125463830Y-78217084D01*
X125380894Y-78277340D01*
X126120591Y-79017037D01*
X126057007Y-79034075D01*
X125942993Y-79099901D01*
X125849901Y-79192993D01*
X125784075Y-79307007D01*
X125767037Y-79370591D01*
X125027340Y-78630894D01*
X125027339Y-78630894D01*
X124974818Y-78703185D01*
X124919489Y-78745851D01*
X124849875Y-78751830D01*
X124788080Y-78719225D01*
X124753723Y-78658386D01*
X124750500Y-78630300D01*
X124750500Y-78392684D01*
X124749949Y-78388851D01*
X124719954Y-78180231D01*
X124659484Y-77974290D01*
X124659483Y-77974288D01*
X124659482Y-77974284D01*
X124570327Y-77779061D01*
X124570320Y-77779048D01*
X124537211Y-77727531D01*
X124454281Y-77598487D01*
X124421172Y-77560277D01*
X124313724Y-77436275D01*
X124151514Y-77295720D01*
X124151513Y-77295719D01*
X124086991Y-77254253D01*
X123970951Y-77179679D01*
X123970938Y-77179672D01*
X123775715Y-77090517D01*
X123569774Y-77030047D01*
X123569764Y-77030044D01*
X123378754Y-77002582D01*
X123357318Y-76999500D01*
X123315892Y-76999500D01*
X106315892Y-76999500D01*
X106250000Y-76999500D01*
X106142682Y-76999500D01*
X105930235Y-77030044D01*
X105930225Y-77030047D01*
X105724284Y-77090517D01*
X105529061Y-77179672D01*
X105529048Y-77179679D01*
X105348485Y-77295720D01*
X105186275Y-77436275D01*
X105045720Y-77598485D01*
X104929679Y-77779048D01*
X104929672Y-77779061D01*
X104840517Y-77974284D01*
X104780047Y-78180225D01*
X104780044Y-78180235D01*
X104749500Y-78392682D01*
X100500499Y-78392682D01*
X100500499Y-66892682D01*
X104749500Y-66892682D01*
X104749500Y-74107317D01*
X104780044Y-74319764D01*
X104780047Y-74319774D01*
X104840517Y-74525715D01*
X104929672Y-74720938D01*
X104929679Y-74720951D01*
X105045720Y-74901514D01*
X105186275Y-75063724D01*
X105310277Y-75171172D01*
X105348487Y-75204281D01*
X105477531Y-75287211D01*
X105529048Y-75320320D01*
X105529061Y-75320327D01*
X105724284Y-75409482D01*
X105724288Y-75409483D01*
X105724290Y-75409484D01*
X105930231Y-75469954D01*
X105930232Y-75469954D01*
X105930235Y-75469955D01*
X105993584Y-75479062D01*
X106142682Y-75500500D01*
X106142683Y-75500500D01*
X123357317Y-75500500D01*
X123357318Y-75500500D01*
X123527851Y-75475980D01*
X123569764Y-75469955D01*
X123569765Y-75469954D01*
X123569769Y-75469954D01*
X123775710Y-75409484D01*
X123775713Y-75409482D01*
X123775715Y-75409482D01*
X123970938Y-75320327D01*
X123970944Y-75320323D01*
X123970950Y-75320321D01*
X124151513Y-75204281D01*
X124313724Y-75063724D01*
X124454281Y-74901513D01*
X124570321Y-74720950D01*
X124570323Y-74720944D01*
X124570327Y-74720938D01*
X124610633Y-74632677D01*
X124659484Y-74525710D01*
X124691654Y-74416147D01*
X124729427Y-74357371D01*
X124792982Y-74328346D01*
X124862141Y-74338289D01*
X124884283Y-74353663D01*
X124885355Y-74352232D01*
X125007664Y-74443793D01*
X125007671Y-74443797D01*
X125142517Y-74494091D01*
X125142516Y-74494091D01*
X125149444Y-74494835D01*
X125202127Y-74500500D01*
X127297872Y-74500499D01*
X127357483Y-74494091D01*
X127492331Y-74443796D01*
X127607546Y-74357546D01*
X127693796Y-74242331D01*
X127744091Y-74107483D01*
X127750500Y-74047873D01*
X127750499Y-71952128D01*
X127744091Y-71892517D01*
X127693796Y-71757669D01*
X127693795Y-71757668D01*
X127693793Y-71757664D01*
X127607547Y-71642455D01*
X127607544Y-71642452D01*
X127492335Y-71556206D01*
X127492328Y-71556202D01*
X127357482Y-71505908D01*
X127357483Y-71505908D01*
X127297883Y-71499501D01*
X127297881Y-71499500D01*
X127297873Y-71499500D01*
X127297864Y-71499500D01*
X125202129Y-71499500D01*
X125202123Y-71499501D01*
X125142516Y-71505908D01*
X125007671Y-71556202D01*
X125007668Y-71556204D01*
X124948811Y-71600265D01*
X124883347Y-71624682D01*
X124815074Y-71609830D01*
X124765668Y-71560425D01*
X124750500Y-71500998D01*
X124750500Y-68870551D01*
X124770185Y-68803512D01*
X124822989Y-68757757D01*
X124892147Y-68747813D01*
X124955703Y-68776838D01*
X124974815Y-68797662D01*
X125105483Y-68977510D01*
X125272490Y-69144517D01*
X125463567Y-69283343D01*
X125562991Y-69334002D01*
X125674003Y-69390566D01*
X125674005Y-69390566D01*
X125674008Y-69390568D01*
X125794412Y-69429689D01*
X125898631Y-69463553D01*
X126131903Y-69500500D01*
X126131908Y-69500500D01*
X126368097Y-69500500D01*
X126601368Y-69463553D01*
X126825992Y-69390568D01*
X127036433Y-69283343D01*
X127227510Y-69144517D01*
X127394517Y-68977510D01*
X127533343Y-68786433D01*
X127640568Y-68575992D01*
X127713553Y-68351368D01*
X127750500Y-68118097D01*
X127750500Y-67881902D01*
X127713553Y-67648631D01*
X127640566Y-67424003D01*
X127533342Y-67213566D01*
X127394517Y-67022490D01*
X127227510Y-66855483D01*
X127036433Y-66716657D01*
X126825996Y-66609433D01*
X126601368Y-66536446D01*
X126368097Y-66499500D01*
X126368092Y-66499500D01*
X126131908Y-66499500D01*
X126131903Y-66499500D01*
X125898631Y-66536446D01*
X125674003Y-66609433D01*
X125463566Y-66716657D01*
X125371875Y-66783275D01*
X125272490Y-66855483D01*
X125272488Y-66855485D01*
X125272487Y-66855485D01*
X125105485Y-67022487D01*
X125105485Y-67022488D01*
X125105483Y-67022490D01*
X125027773Y-67129448D01*
X124974818Y-67202334D01*
X124919488Y-67244999D01*
X124849874Y-67250978D01*
X124788079Y-67218372D01*
X124753722Y-67157533D01*
X124750500Y-67129448D01*
X124750500Y-66892683D01*
X124750500Y-66892682D01*
X124719954Y-66680231D01*
X124659484Y-66474290D01*
X124659483Y-66474288D01*
X124659482Y-66474284D01*
X124570327Y-66279061D01*
X124570320Y-66279048D01*
X124537211Y-66227531D01*
X124454281Y-66098487D01*
X124421172Y-66060277D01*
X124313724Y-65936275D01*
X124151514Y-65795720D01*
X124151513Y-65795719D01*
X124086991Y-65754253D01*
X123970951Y-65679679D01*
X123970938Y-65679672D01*
X123775715Y-65590517D01*
X123569774Y-65530047D01*
X123569764Y-65530044D01*
X123378754Y-65502582D01*
X123357318Y-65499500D01*
X123315892Y-65499500D01*
X106315892Y-65499500D01*
X106250000Y-65499500D01*
X106142682Y-65499500D01*
X105930235Y-65530044D01*
X105930225Y-65530047D01*
X105724284Y-65590517D01*
X105529061Y-65679672D01*
X105529048Y-65679679D01*
X105348485Y-65795720D01*
X105186275Y-65936275D01*
X105045720Y-66098485D01*
X104929679Y-66279048D01*
X104929672Y-66279061D01*
X104840517Y-66474284D01*
X104780047Y-66680225D01*
X104780044Y-66680235D01*
X104749500Y-66892682D01*
X100500499Y-66892682D01*
X100500499Y-55392682D01*
X104749500Y-55392682D01*
X104749500Y-62607317D01*
X104780044Y-62819764D01*
X104780047Y-62819774D01*
X104840517Y-63025715D01*
X104929672Y-63220938D01*
X104929679Y-63220951D01*
X105045720Y-63401514D01*
X105186275Y-63563724D01*
X105310277Y-63671172D01*
X105348487Y-63704281D01*
X105477531Y-63787211D01*
X105529048Y-63820320D01*
X105529061Y-63820327D01*
X105724284Y-63909482D01*
X105724288Y-63909483D01*
X105724290Y-63909484D01*
X105930231Y-63969954D01*
X105930232Y-63969954D01*
X105930235Y-63969955D01*
X105993584Y-63979062D01*
X106142682Y-64000500D01*
X106142683Y-64000500D01*
X123357317Y-64000500D01*
X123357318Y-64000500D01*
X123527851Y-63975980D01*
X123569764Y-63969955D01*
X123569765Y-63969954D01*
X123569769Y-63969954D01*
X123775710Y-63909484D01*
X123775713Y-63909482D01*
X123775715Y-63909482D01*
X123970938Y-63820327D01*
X123970944Y-63820323D01*
X123970950Y-63820321D01*
X124151513Y-63704281D01*
X124313724Y-63563724D01*
X124454281Y-63401513D01*
X124570321Y-63220950D01*
X124570323Y-63220944D01*
X124570327Y-63220938D01*
X124610633Y-63132677D01*
X124659484Y-63025710D01*
X124691654Y-62916147D01*
X124729427Y-62857371D01*
X124792982Y-62828346D01*
X124862141Y-62838289D01*
X124884283Y-62853663D01*
X124885355Y-62852232D01*
X125007664Y-62943793D01*
X125007671Y-62943797D01*
X125142517Y-62994091D01*
X125142516Y-62994091D01*
X125149444Y-62994835D01*
X125202127Y-63000500D01*
X127297872Y-63000499D01*
X127357483Y-62994091D01*
X127492331Y-62943796D01*
X127607546Y-62857546D01*
X127693796Y-62742331D01*
X127744091Y-62607483D01*
X127750500Y-62547873D01*
X127750499Y-60452128D01*
X127744091Y-60392517D01*
X127693796Y-60257669D01*
X127693795Y-60257668D01*
X127693793Y-60257664D01*
X127607547Y-60142455D01*
X127607544Y-60142452D01*
X127492335Y-60056206D01*
X127492328Y-60056202D01*
X127357482Y-60005908D01*
X127357483Y-60005908D01*
X127297883Y-59999501D01*
X127297881Y-59999500D01*
X127297873Y-59999500D01*
X127297864Y-59999500D01*
X125202129Y-59999500D01*
X125202123Y-59999501D01*
X125142516Y-60005908D01*
X125007671Y-60056202D01*
X125007668Y-60056204D01*
X124948811Y-60100265D01*
X124883347Y-60124682D01*
X124815074Y-60109830D01*
X124765668Y-60060425D01*
X124750500Y-60000998D01*
X124750500Y-57369700D01*
X124770185Y-57302661D01*
X124822989Y-57256906D01*
X124892147Y-57246962D01*
X124955703Y-57275987D01*
X124974818Y-57296815D01*
X125027339Y-57369104D01*
X125027340Y-57369105D01*
X125767037Y-56629408D01*
X125784075Y-56692993D01*
X125849901Y-56807007D01*
X125942993Y-56900099D01*
X126057007Y-56965925D01*
X126120590Y-56982962D01*
X125380893Y-57722658D01*
X125463828Y-57782914D01*
X125674197Y-57890102D01*
X125898752Y-57963065D01*
X125898751Y-57963065D01*
X126131948Y-58000000D01*
X126368052Y-58000000D01*
X126601247Y-57963065D01*
X126825802Y-57890102D01*
X127036163Y-57782918D01*
X127036169Y-57782914D01*
X127119104Y-57722658D01*
X127119105Y-57722658D01*
X126379408Y-56982962D01*
X126442993Y-56965925D01*
X126557007Y-56900099D01*
X126650099Y-56807007D01*
X126715925Y-56692993D01*
X126732962Y-56629409D01*
X127472658Y-57369105D01*
X127472658Y-57369104D01*
X127532914Y-57286169D01*
X127532918Y-57286163D01*
X127640102Y-57075802D01*
X127713065Y-56851247D01*
X127750000Y-56618052D01*
X127750000Y-56381947D01*
X127713065Y-56148752D01*
X127640102Y-55924197D01*
X127532914Y-55713828D01*
X127472658Y-55630894D01*
X127472658Y-55630893D01*
X126732962Y-56370590D01*
X126715925Y-56307007D01*
X126650099Y-56192993D01*
X126557007Y-56099901D01*
X126442993Y-56034075D01*
X126379409Y-56017037D01*
X127119105Y-55277340D01*
X127119104Y-55277338D01*
X127036174Y-55217087D01*
X126825802Y-55109897D01*
X126601247Y-55036934D01*
X126601248Y-55036934D01*
X126368052Y-55000000D01*
X126131948Y-55000000D01*
X125898752Y-55036934D01*
X125674197Y-55109897D01*
X125463830Y-55217084D01*
X125380894Y-55277340D01*
X126120591Y-56017037D01*
X126057007Y-56034075D01*
X125942993Y-56099901D01*
X125849901Y-56192993D01*
X125784075Y-56307007D01*
X125767037Y-56370591D01*
X125027340Y-55630894D01*
X125027339Y-55630894D01*
X124974818Y-55703185D01*
X124919489Y-55745851D01*
X124849875Y-55751830D01*
X124788080Y-55719225D01*
X124753723Y-55658386D01*
X124750500Y-55630300D01*
X124750500Y-55392684D01*
X124749949Y-55388851D01*
X124719954Y-55180231D01*
X124659484Y-54974290D01*
X124659483Y-54974288D01*
X124659482Y-54974284D01*
X124570327Y-54779061D01*
X124570320Y-54779048D01*
X124537211Y-54727531D01*
X124454281Y-54598487D01*
X124421172Y-54560277D01*
X124313724Y-54436275D01*
X124151514Y-54295720D01*
X124151513Y-54295719D01*
X124086991Y-54254253D01*
X123970951Y-54179679D01*
X123970938Y-54179672D01*
X123775715Y-54090517D01*
X123569774Y-54030047D01*
X123569764Y-54030044D01*
X123378754Y-54002582D01*
X123357318Y-53999500D01*
X123315892Y-53999500D01*
X106315892Y-53999500D01*
X106250000Y-53999500D01*
X106142682Y-53999500D01*
X105930235Y-54030044D01*
X105930225Y-54030047D01*
X105724284Y-54090517D01*
X105529061Y-54179672D01*
X105529048Y-54179679D01*
X105348485Y-54295720D01*
X105186275Y-54436275D01*
X105045720Y-54598485D01*
X104929679Y-54779048D01*
X104929672Y-54779061D01*
X104840517Y-54974284D01*
X104780047Y-55180225D01*
X104780044Y-55180235D01*
X104749500Y-55392682D01*
X100500499Y-55392682D01*
X100500499Y-50707682D01*
X111200000Y-50707682D01*
X111200000Y-50912317D01*
X111232009Y-51114417D01*
X111295244Y-51309031D01*
X111388141Y-51491350D01*
X111388147Y-51491359D01*
X111420523Y-51535921D01*
X111420524Y-51535922D01*
X112100000Y-50856446D01*
X112100000Y-50862661D01*
X112127259Y-50964394D01*
X112179920Y-51055606D01*
X112254394Y-51130080D01*
X112345606Y-51182741D01*
X112447339Y-51210000D01*
X112453553Y-51210000D01*
X111774076Y-51889474D01*
X111818650Y-51921859D01*
X112000968Y-52014755D01*
X112195582Y-52077990D01*
X112397683Y-52110000D01*
X112602317Y-52110000D01*
X112804417Y-52077990D01*
X112999031Y-52014755D01*
X113181349Y-51921859D01*
X113225921Y-51889474D01*
X112546447Y-51210000D01*
X112552661Y-51210000D01*
X112654394Y-51182741D01*
X112745606Y-51130080D01*
X112820080Y-51055606D01*
X112872741Y-50964394D01*
X112900000Y-50862661D01*
X112900000Y-50856447D01*
X113579474Y-51535921D01*
X113611859Y-51491349D01*
X113704755Y-51309031D01*
X113767990Y-51114417D01*
X113800000Y-50912317D01*
X113800000Y-50707682D01*
X113767990Y-50505582D01*
X113704755Y-50310968D01*
X113611859Y-50128650D01*
X113579474Y-50084077D01*
X113579474Y-50084076D01*
X112900000Y-50763551D01*
X112900000Y-50757339D01*
X112872741Y-50655606D01*
X112820080Y-50564394D01*
X112745606Y-50489920D01*
X112654394Y-50437259D01*
X112552661Y-50410000D01*
X112546446Y-50410000D01*
X113225922Y-49730524D01*
X113225921Y-49730523D01*
X113181359Y-49698147D01*
X113181350Y-49698141D01*
X112999031Y-49605244D01*
X112804417Y-49542009D01*
X112602317Y-49510000D01*
X112397683Y-49510000D01*
X112195582Y-49542009D01*
X112000968Y-49605244D01*
X111818644Y-49698143D01*
X111774077Y-49730523D01*
X111774077Y-49730524D01*
X112453554Y-50410000D01*
X112447339Y-50410000D01*
X112345606Y-50437259D01*
X112254394Y-50489920D01*
X112179920Y-50564394D01*
X112127259Y-50655606D01*
X112100000Y-50757339D01*
X112100000Y-50763553D01*
X111420524Y-50084077D01*
X111420523Y-50084077D01*
X111388143Y-50128644D01*
X111295244Y-50310968D01*
X111232009Y-50505582D01*
X111200000Y-50707682D01*
X100500499Y-50707682D01*
X100500499Y-49102155D01*
X115560000Y-49102155D01*
X115560000Y-50400000D01*
X116560000Y-50400000D01*
X116560000Y-50900000D01*
X115560000Y-50900000D01*
X115560000Y-52197844D01*
X115566401Y-52257372D01*
X115566403Y-52257379D01*
X115616645Y-52392086D01*
X115616649Y-52392093D01*
X115702809Y-52507187D01*
X115702812Y-52507190D01*
X115817906Y-52593350D01*
X115817913Y-52593354D01*
X115952620Y-52643596D01*
X115952627Y-52643598D01*
X116012155Y-52649999D01*
X116012172Y-52650000D01*
X116710000Y-52650000D01*
X116710000Y-51565686D01*
X116714394Y-51570080D01*
X116805606Y-51622741D01*
X116907339Y-51650000D01*
X117012661Y-51650000D01*
X117114394Y-51622741D01*
X117205606Y-51570080D01*
X117210000Y-51565686D01*
X117210000Y-52650000D01*
X117907828Y-52650000D01*
X117907844Y-52649999D01*
X117967372Y-52643598D01*
X117967379Y-52643596D01*
X118102086Y-52593354D01*
X118102093Y-52593350D01*
X118217187Y-52507190D01*
X118217190Y-52507187D01*
X118303350Y-52392093D01*
X118303354Y-52392086D01*
X118353596Y-52257379D01*
X118353598Y-52257372D01*
X118359999Y-52197844D01*
X118360000Y-52197827D01*
X118360000Y-50900000D01*
X117360000Y-50900000D01*
X117360000Y-50400000D01*
X118360000Y-50400000D01*
X118360000Y-49939778D01*
X118759500Y-49939778D01*
X118759500Y-51360221D01*
X118793985Y-51577952D01*
X118862103Y-51787603D01*
X118862104Y-51787606D01*
X118962187Y-51984025D01*
X119091752Y-52162358D01*
X119091756Y-52162363D01*
X119247636Y-52318243D01*
X119247641Y-52318247D01*
X119403192Y-52431260D01*
X119425978Y-52447815D01*
X119542501Y-52507187D01*
X119622393Y-52547895D01*
X119622396Y-52547896D01*
X119727221Y-52581955D01*
X119832049Y-52616015D01*
X120049778Y-52650500D01*
X120049779Y-52650500D01*
X120270221Y-52650500D01*
X120270222Y-52650500D01*
X120487951Y-52616015D01*
X120697606Y-52547895D01*
X120894022Y-52447815D01*
X121072365Y-52318242D01*
X121228242Y-52162365D01*
X121357815Y-51984022D01*
X121457895Y-51787606D01*
X121526015Y-51577951D01*
X121560500Y-51360222D01*
X121560500Y-49939778D01*
X124059500Y-49939778D01*
X124059500Y-51360221D01*
X124093985Y-51577952D01*
X124162103Y-51787603D01*
X124162104Y-51787606D01*
X124262187Y-51984025D01*
X124391752Y-52162358D01*
X124391756Y-52162363D01*
X124547636Y-52318243D01*
X124547641Y-52318247D01*
X124703192Y-52431260D01*
X124725978Y-52447815D01*
X124842501Y-52507187D01*
X124922393Y-52547895D01*
X124922396Y-52547896D01*
X125027221Y-52581955D01*
X125132049Y-52616015D01*
X125349778Y-52650500D01*
X125349779Y-52650500D01*
X125570221Y-52650500D01*
X125570222Y-52650500D01*
X125787951Y-52616015D01*
X125997606Y-52547895D01*
X126194022Y-52447815D01*
X126372365Y-52318242D01*
X126528242Y-52162365D01*
X126657815Y-51984022D01*
X126757895Y-51787606D01*
X126826015Y-51577951D01*
X126860500Y-51360222D01*
X126860500Y-49939778D01*
X126826015Y-49722049D01*
X126788063Y-49605244D01*
X126757896Y-49512396D01*
X126757895Y-49512393D01*
X126723237Y-49444375D01*
X126657815Y-49315978D01*
X126641260Y-49293192D01*
X126528247Y-49137641D01*
X126528243Y-49137636D01*
X126372363Y-48981756D01*
X126372358Y-48981752D01*
X126194025Y-48852187D01*
X126194024Y-48852186D01*
X126194022Y-48852185D01*
X126131096Y-48820122D01*
X125997606Y-48752104D01*
X125997603Y-48752103D01*
X125787952Y-48683985D01*
X125679086Y-48666742D01*
X125570222Y-48649500D01*
X125349778Y-48649500D01*
X125277201Y-48660995D01*
X125132047Y-48683985D01*
X124922396Y-48752103D01*
X124922393Y-48752104D01*
X124725974Y-48852187D01*
X124547641Y-48981752D01*
X124547636Y-48981756D01*
X124391756Y-49137636D01*
X124391752Y-49137641D01*
X124262187Y-49315974D01*
X124162104Y-49512393D01*
X124162103Y-49512396D01*
X124093985Y-49722047D01*
X124059500Y-49939778D01*
X121560500Y-49939778D01*
X121526015Y-49722049D01*
X121488063Y-49605244D01*
X121457896Y-49512396D01*
X121457895Y-49512393D01*
X121423237Y-49444375D01*
X121357815Y-49315978D01*
X121341260Y-49293192D01*
X121228247Y-49137641D01*
X121228243Y-49137636D01*
X121072363Y-48981756D01*
X121072358Y-48981752D01*
X120894025Y-48852187D01*
X120894024Y-48852186D01*
X120894022Y-48852185D01*
X120831096Y-48820122D01*
X120697606Y-48752104D01*
X120697603Y-48752103D01*
X120487952Y-48683985D01*
X120379086Y-48666742D01*
X120270222Y-48649500D01*
X120049778Y-48649500D01*
X119977201Y-48660995D01*
X119832047Y-48683985D01*
X119622396Y-48752103D01*
X119622393Y-48752104D01*
X119425974Y-48852187D01*
X119247641Y-48981752D01*
X119247636Y-48981756D01*
X119091756Y-49137636D01*
X119091752Y-49137641D01*
X118962187Y-49315974D01*
X118862104Y-49512393D01*
X118862103Y-49512396D01*
X118793985Y-49722047D01*
X118759500Y-49939778D01*
X118360000Y-49939778D01*
X118360000Y-49102172D01*
X118359999Y-49102155D01*
X118353598Y-49042627D01*
X118353596Y-49042620D01*
X118303354Y-48907913D01*
X118303350Y-48907906D01*
X118217190Y-48792812D01*
X118217187Y-48792809D01*
X118102093Y-48706649D01*
X118102086Y-48706645D01*
X117967379Y-48656403D01*
X117967372Y-48656401D01*
X117907844Y-48650000D01*
X117210000Y-48650000D01*
X117210000Y-49734314D01*
X117205606Y-49729920D01*
X117114394Y-49677259D01*
X117012661Y-49650000D01*
X116907339Y-49650000D01*
X116805606Y-49677259D01*
X116714394Y-49729920D01*
X116710000Y-49734314D01*
X116710000Y-48650000D01*
X116012155Y-48650000D01*
X115952627Y-48656401D01*
X115952620Y-48656403D01*
X115817913Y-48706645D01*
X115817906Y-48706649D01*
X115702812Y-48792809D01*
X115702809Y-48792812D01*
X115616649Y-48907906D01*
X115616645Y-48907913D01*
X115566403Y-49042620D01*
X115566401Y-49042627D01*
X115560000Y-49102155D01*
X100500499Y-49102155D01*
X100500499Y-46052135D01*
X103349500Y-46052135D01*
X103349500Y-47947870D01*
X103349501Y-47947876D01*
X103355908Y-48007483D01*
X103406202Y-48142328D01*
X103406206Y-48142335D01*
X103492452Y-48257544D01*
X103492455Y-48257547D01*
X103607664Y-48343793D01*
X103607671Y-48343797D01*
X103742517Y-48394091D01*
X103742516Y-48394091D01*
X103749444Y-48394835D01*
X103802127Y-48400500D01*
X105697872Y-48400499D01*
X105757483Y-48394091D01*
X105892331Y-48343796D01*
X106007546Y-48257546D01*
X106093796Y-48142331D01*
X106121429Y-48068243D01*
X106123601Y-48062420D01*
X106165471Y-48006486D01*
X106230936Y-47982068D01*
X106299209Y-47996919D01*
X106327464Y-48018071D01*
X106377636Y-48068243D01*
X106377641Y-48068247D01*
X106479603Y-48142326D01*
X106555978Y-48197815D01*
X106684375Y-48263237D01*
X106752393Y-48297895D01*
X106752396Y-48297896D01*
X106857221Y-48331955D01*
X106962049Y-48366015D01*
X107179778Y-48400500D01*
X107179779Y-48400500D01*
X107400221Y-48400500D01*
X107400222Y-48400500D01*
X107617951Y-48366015D01*
X107827606Y-48297895D01*
X108024022Y-48197815D01*
X108202365Y-48068242D01*
X108358242Y-47912365D01*
X108487815Y-47734022D01*
X108587895Y-47537606D01*
X108656015Y-47327951D01*
X108690500Y-47110222D01*
X108690500Y-46889778D01*
X108656015Y-46672049D01*
X108587895Y-46462394D01*
X108587895Y-46462393D01*
X108553237Y-46394375D01*
X108487815Y-46265978D01*
X108429501Y-46185715D01*
X108358247Y-46087641D01*
X108358243Y-46087636D01*
X108202363Y-45931756D01*
X108202358Y-45931752D01*
X108024025Y-45802187D01*
X108024024Y-45802186D01*
X108024022Y-45802185D01*
X107906791Y-45742452D01*
X107827606Y-45702104D01*
X107827603Y-45702103D01*
X107617952Y-45633985D01*
X107509086Y-45616742D01*
X107400222Y-45599500D01*
X107179778Y-45599500D01*
X107107201Y-45610995D01*
X106962047Y-45633985D01*
X106752396Y-45702103D01*
X106752393Y-45702104D01*
X106555974Y-45802187D01*
X106377641Y-45931752D01*
X106377636Y-45931756D01*
X106327463Y-45981929D01*
X106266140Y-46015413D01*
X106196448Y-46010428D01*
X106140515Y-45968557D01*
X106123601Y-45937580D01*
X106093797Y-45857671D01*
X106093793Y-45857664D01*
X106007547Y-45742455D01*
X106007544Y-45742452D01*
X105892335Y-45656206D01*
X105892328Y-45656202D01*
X105757482Y-45605908D01*
X105757483Y-45605908D01*
X105697883Y-45599501D01*
X105697881Y-45599500D01*
X105697873Y-45599500D01*
X105697864Y-45599500D01*
X103802129Y-45599500D01*
X103802123Y-45599501D01*
X103742516Y-45605908D01*
X103607671Y-45656202D01*
X103607664Y-45656206D01*
X103492455Y-45742452D01*
X103492452Y-45742455D01*
X103406206Y-45857664D01*
X103406202Y-45857671D01*
X103355908Y-45992517D01*
X103349501Y-46052116D01*
X103349500Y-46052135D01*
X100500499Y-46052135D01*
X100500499Y-43503750D01*
X100500725Y-43496263D01*
X100518270Y-43206205D01*
X100520075Y-43191341D01*
X100531155Y-43130878D01*
X100539077Y-43087648D01*
X111199500Y-43087648D01*
X111199500Y-43292351D01*
X111231522Y-43494534D01*
X111294781Y-43689223D01*
X111387715Y-43871613D01*
X111508026Y-44037210D01*
X111508032Y-44037217D01*
X111652786Y-44181971D01*
X111807749Y-44294556D01*
X111818390Y-44302287D01*
X111934607Y-44361503D01*
X112000776Y-44395218D01*
X112000778Y-44395218D01*
X112000781Y-44395220D01*
X112105137Y-44429127D01*
X112195465Y-44458477D01*
X112296557Y-44474488D01*
X112397648Y-44490500D01*
X112397649Y-44490500D01*
X112602351Y-44490500D01*
X112602352Y-44490500D01*
X112804534Y-44458477D01*
X112999219Y-44395220D01*
X113181610Y-44302287D01*
X113291844Y-44222198D01*
X113347213Y-44181971D01*
X113347215Y-44181968D01*
X113347219Y-44181966D01*
X113491966Y-44037219D01*
X113491968Y-44037215D01*
X113491974Y-44037210D01*
X113569023Y-43931157D01*
X113612287Y-43871610D01*
X113705220Y-43689219D01*
X113768477Y-43494534D01*
X113800500Y-43292352D01*
X113800500Y-43087648D01*
X113784361Y-42985750D01*
X113768477Y-42885465D01*
X113705218Y-42690776D01*
X113658491Y-42599071D01*
X113632290Y-42547648D01*
X115259500Y-42547648D01*
X115259500Y-44152351D01*
X115291522Y-44354534D01*
X115354781Y-44549223D01*
X115447715Y-44731613D01*
X115568028Y-44897213D01*
X115712786Y-45041971D01*
X115867749Y-45154556D01*
X115878390Y-45162287D01*
X115994607Y-45221503D01*
X116060776Y-45255218D01*
X116060778Y-45255218D01*
X116060781Y-45255220D01*
X116165137Y-45289127D01*
X116255465Y-45318477D01*
X116356557Y-45334488D01*
X116457648Y-45350500D01*
X116457649Y-45350500D01*
X116662351Y-45350500D01*
X116662352Y-45350500D01*
X116864534Y-45318477D01*
X117059219Y-45255220D01*
X117241610Y-45162287D01*
X117334590Y-45094732D01*
X117407213Y-45041971D01*
X117407215Y-45041968D01*
X117407219Y-45041966D01*
X117551966Y-44897219D01*
X117551968Y-44897215D01*
X117551971Y-44897213D01*
X117604732Y-44824590D01*
X117672287Y-44731610D01*
X117765220Y-44549219D01*
X117828477Y-44354534D01*
X117845593Y-44246468D01*
X118844500Y-44246468D01*
X118844500Y-44453531D01*
X118876892Y-44658048D01*
X118940876Y-44854974D01*
X118940877Y-44854977D01*
X118962398Y-44897213D01*
X119034883Y-45039472D01*
X119156593Y-45206991D01*
X119303009Y-45353407D01*
X119470528Y-45475117D01*
X119561017Y-45521223D01*
X119655022Y-45569122D01*
X119655025Y-45569123D01*
X119748521Y-45599501D01*
X119851953Y-45633108D01*
X120056468Y-45665500D01*
X120056469Y-45665500D01*
X120263531Y-45665500D01*
X120263532Y-45665500D01*
X120468047Y-45633108D01*
X120664977Y-45569122D01*
X120849472Y-45475117D01*
X121016991Y-45353407D01*
X121163407Y-45206991D01*
X121285117Y-45039472D01*
X121379122Y-44854977D01*
X121443108Y-44658047D01*
X121475500Y-44453532D01*
X121475500Y-44246468D01*
X121443108Y-44041953D01*
X121379122Y-43845023D01*
X121379122Y-43845022D01*
X121299738Y-43689223D01*
X121285117Y-43660528D01*
X121163407Y-43493009D01*
X121016991Y-43346593D01*
X120849472Y-43224883D01*
X120664977Y-43130877D01*
X120664974Y-43130876D01*
X120468048Y-43066892D01*
X120365789Y-43050696D01*
X120263532Y-43034500D01*
X120056468Y-43034500D01*
X119988296Y-43045297D01*
X119851951Y-43066892D01*
X119655025Y-43130876D01*
X119655022Y-43130877D01*
X119470527Y-43224883D01*
X119377665Y-43292352D01*
X119303009Y-43346593D01*
X119303007Y-43346595D01*
X119303006Y-43346595D01*
X119156595Y-43493006D01*
X119156595Y-43493007D01*
X119156593Y-43493009D01*
X119104323Y-43564951D01*
X119034883Y-43660527D01*
X118940877Y-43845022D01*
X118940876Y-43845025D01*
X118876892Y-44041951D01*
X118844500Y-44246468D01*
X117845593Y-44246468D01*
X117860500Y-44152352D01*
X117860500Y-42547648D01*
X125059500Y-42547648D01*
X125059500Y-44152351D01*
X125091522Y-44354534D01*
X125154781Y-44549223D01*
X125247715Y-44731613D01*
X125368028Y-44897213D01*
X125512786Y-45041971D01*
X125667749Y-45154556D01*
X125678390Y-45162287D01*
X125794607Y-45221503D01*
X125860776Y-45255218D01*
X125860778Y-45255218D01*
X125860781Y-45255220D01*
X125965137Y-45289127D01*
X126055465Y-45318477D01*
X126156557Y-45334488D01*
X126257648Y-45350500D01*
X126257649Y-45350500D01*
X126462351Y-45350500D01*
X126462352Y-45350500D01*
X126664534Y-45318477D01*
X126859219Y-45255220D01*
X127041610Y-45162287D01*
X127134590Y-45094732D01*
X127207213Y-45041971D01*
X127207215Y-45041968D01*
X127207219Y-45041966D01*
X127351966Y-44897219D01*
X127351968Y-44897215D01*
X127351971Y-44897213D01*
X127404732Y-44824590D01*
X127472287Y-44731610D01*
X127565220Y-44549219D01*
X127628477Y-44354534D01*
X127660500Y-44152352D01*
X127660500Y-42547648D01*
X127628477Y-42345466D01*
X127627606Y-42342786D01*
X127565218Y-42150776D01*
X127489177Y-42001539D01*
X127472287Y-41968390D01*
X127464556Y-41957749D01*
X127351971Y-41802786D01*
X127207213Y-41658028D01*
X127041613Y-41537715D01*
X127041612Y-41537714D01*
X127041610Y-41537713D01*
X126984653Y-41508691D01*
X126859223Y-41444781D01*
X126664534Y-41381522D01*
X126489995Y-41353878D01*
X126462352Y-41349500D01*
X126257648Y-41349500D01*
X126233329Y-41353351D01*
X126055465Y-41381522D01*
X125860776Y-41444781D01*
X125678386Y-41537715D01*
X125512786Y-41658028D01*
X125368028Y-41802786D01*
X125247715Y-41968386D01*
X125154781Y-42150776D01*
X125091522Y-42345465D01*
X125059500Y-42547648D01*
X117860500Y-42547648D01*
X117828477Y-42345466D01*
X117827606Y-42342786D01*
X117765218Y-42150776D01*
X117689177Y-42001539D01*
X117672287Y-41968390D01*
X117664556Y-41957749D01*
X117551971Y-41802786D01*
X117407213Y-41658028D01*
X117241613Y-41537715D01*
X117241612Y-41537714D01*
X117241610Y-41537713D01*
X117184653Y-41508691D01*
X117059223Y-41444781D01*
X116864534Y-41381522D01*
X116689995Y-41353878D01*
X116662352Y-41349500D01*
X116457648Y-41349500D01*
X116433329Y-41353351D01*
X116255465Y-41381522D01*
X116060776Y-41444781D01*
X115878386Y-41537715D01*
X115712786Y-41658028D01*
X115568028Y-41802786D01*
X115447715Y-41968386D01*
X115354781Y-42150776D01*
X115291522Y-42345465D01*
X115259500Y-42547648D01*
X113632290Y-42547648D01*
X113612284Y-42508385D01*
X113491971Y-42342786D01*
X113347213Y-42198028D01*
X113181613Y-42077715D01*
X113181612Y-42077714D01*
X113181610Y-42077713D01*
X113124653Y-42048691D01*
X112999223Y-41984781D01*
X112804534Y-41921522D01*
X112629995Y-41893878D01*
X112602352Y-41889500D01*
X112397648Y-41889500D01*
X112373329Y-41893351D01*
X112195465Y-41921522D01*
X112000776Y-41984781D01*
X111818386Y-42077715D01*
X111652786Y-42198028D01*
X111508028Y-42342786D01*
X111387715Y-42508386D01*
X111294781Y-42690776D01*
X111231522Y-42885465D01*
X111199500Y-43087648D01*
X100539077Y-43087648D01*
X100571779Y-42909198D01*
X100575363Y-42894664D01*
X100660695Y-42620823D01*
X100665997Y-42606842D01*
X100783726Y-42345256D01*
X100790677Y-42332012D01*
X100939079Y-42086526D01*
X100947566Y-42074230D01*
X101124479Y-41848417D01*
X101134394Y-41837226D01*
X101337225Y-41634395D01*
X101348416Y-41624480D01*
X101574229Y-41447566D01*
X101586525Y-41439079D01*
X101832015Y-41290675D01*
X101845248Y-41283730D01*
X102106840Y-41165997D01*
X102120821Y-41160695D01*
X102394667Y-41075361D01*
X102409196Y-41071779D01*
X102691343Y-41020074D01*
X102706200Y-41018270D01*
X102996229Y-41000726D01*
X103003714Y-41000501D01*
X103065891Y-41000501D01*
X103065894Y-41000500D01*
X103073501Y-41000500D01*
X126934108Y-41000500D01*
X126996249Y-41000500D01*
X127003736Y-41000726D01*
G37*
%TD.AperFunction*%
%TD*%
M02*
