%TF.GenerationSoftware,KiCad,Pcbnew,9.0.0*%
%TF.CreationDate,2025-07-31T22:07:32+10:00*%
%TF.ProjectId,VCO,56434f2e-6b69-4636-9164-5f7063625858,rev?*%
%TF.SameCoordinates,Original*%
%TF.FileFunction,Soldermask,Top*%
%TF.FilePolarity,Negative*%
%FSLAX46Y46*%
G04 Gerber Fmt 4.6, Leading zero omitted, Abs format (unit mm)*
G04 Created by KiCad (PCBNEW 9.0.0) date 2025-07-31 22:07:32*
%MOMM*%
%LPD*%
G01*
G04 APERTURE LIST*
G04 Aperture macros list*
%AMRoundRect*
0 Rectangle with rounded corners*
0 $1 Rounding radius*
0 $2 $3 $4 $5 $6 $7 $8 $9 X,Y pos of 4 corners*
0 Add a 4 corners polygon primitive as box body*
4,1,4,$2,$3,$4,$5,$6,$7,$8,$9,$2,$3,0*
0 Add four circle primitives for the rounded corners*
1,1,$1+$1,$2,$3*
1,1,$1+$1,$4,$5*
1,1,$1+$1,$6,$7*
1,1,$1+$1,$8,$9*
0 Add four rect primitives between the rounded corners*
20,1,$1+$1,$2,$3,$4,$5,0*
20,1,$1+$1,$4,$5,$6,$7,0*
20,1,$1+$1,$6,$7,$8,$9,0*
20,1,$1+$1,$8,$9,$2,$3,0*%
%AMHorizOval*
0 Thick line with rounded ends*
0 $1 width*
0 $2 $3 position (X,Y) of the first rounded end (center of the circle)*
0 $4 $5 position (X,Y) of the second rounded end (center of the circle)*
0 Add line between two ends*
20,1,$1,$2,$3,$4,$5,0*
0 Add two circle primitives to create the rounded ends*
1,1,$1,$2,$3*
1,1,$1,$4,$5*%
G04 Aperture macros list end*
%ADD10C,4.000000*%
%ADD11O,1.600000X2.400000*%
%ADD12R,1.350000X1.900000*%
%ADD13O,1.350000X1.900000*%
%ADD14C,1.600000*%
%ADD15O,1.600000X1.600000*%
%ADD16R,2.000000X2.000000*%
%ADD17C,2.200000*%
%ADD18RoundRect,0.291666X-0.408334X-0.708334X0.408334X-0.708334X0.408334X0.708334X-0.408334X0.708334X0*%
%ADD19O,1.400000X2.000000*%
%ADD20HorizOval,1.600000X0.000000X0.000000X0.000000X0.000000X0*%
%ADD21RoundRect,0.250000X-0.950000X-0.550000X0.950000X-0.550000X0.950000X0.550000X-0.950000X0.550000X0*%
%ADD22O,2.400000X1.600000*%
%ADD23R,1.800000X1.800000*%
%ADD24O,1.800000X1.800000*%
%ADD25R,1.900000X1.350000*%
%ADD26O,1.900000X1.350000*%
%ADD27HorizOval,1.600000X0.000000X0.000000X0.000000X0.000000X0*%
G04 APERTURE END LIST*
D10*
%TO.C,RV3*%
X85600000Y-137500000D03*
X94400000Y-137500000D03*
D11*
X92500001Y-144500000D03*
X90000000Y-144500000D03*
X87499999Y-144500000D03*
%TD*%
D12*
%TO.C,Q1*%
X73230000Y-93360000D03*
D13*
X75000000Y-93360000D03*
X76730000Y-93360000D03*
%TD*%
D14*
%TO.C,R7*%
X56190000Y-89750000D03*
D15*
X63810000Y-89750000D03*
%TD*%
D14*
%TO.C,R5*%
X56190000Y-97500000D03*
D15*
X63810000Y-97500000D03*
%TD*%
D16*
%TO.C,J3*%
X81480000Y-62500000D03*
D17*
X78380000Y-62500000D03*
X70080000Y-62500000D03*
%TD*%
D18*
%TO.C,J6*%
X68750000Y-143000000D03*
D19*
X70750000Y-143000000D03*
X72750000Y-143000000D03*
%TD*%
D14*
%TO.C,R21*%
X86190000Y-107500000D03*
D15*
X93810000Y-107500000D03*
%TD*%
D14*
%TO.C,C3*%
X82750000Y-112500000D03*
X82750000Y-110000000D03*
%TD*%
%TO.C,R3*%
X79874997Y-91892500D03*
D20*
X77675292Y-90622500D03*
%TD*%
D16*
%TO.C,J1*%
X66480000Y-62500000D03*
D17*
X63380000Y-62500000D03*
X55080000Y-62500000D03*
%TD*%
D14*
%TO.C,R20*%
X86193333Y-89750000D03*
D15*
X93813333Y-89750000D03*
%TD*%
D14*
%TO.C,R11*%
X56190000Y-122000000D03*
D15*
X63810000Y-122000000D03*
%TD*%
D14*
%TO.C,R12*%
X86190000Y-125750000D03*
D15*
X93810000Y-125750000D03*
%TD*%
D14*
%TO.C,C1*%
X62500000Y-85250000D03*
X65000000Y-85250000D03*
%TD*%
%TO.C,R16*%
X86210000Y-93410000D03*
D15*
X93830000Y-93410000D03*
%TD*%
D14*
%TO.C,R8*%
X63710000Y-107750000D03*
D15*
X56090000Y-107750000D03*
%TD*%
D21*
%TO.C,U1*%
X71250000Y-107630000D03*
D22*
X71250000Y-110170000D03*
X71250000Y-112710000D03*
X71250000Y-115250000D03*
X71250000Y-117790000D03*
X71250000Y-120330000D03*
X71250000Y-122870000D03*
X78870000Y-122870000D03*
X78870000Y-120330000D03*
X78870000Y-117790000D03*
X78870000Y-115250000D03*
X78870000Y-112710000D03*
X78870000Y-110170000D03*
X78870000Y-107630000D03*
%TD*%
D23*
%TO.C,D1*%
X71200000Y-135010000D03*
D24*
X71200000Y-127390000D03*
%TD*%
D10*
%TO.C,RV1*%
X55600000Y-137500000D03*
X64400000Y-137500000D03*
D11*
X62500001Y-144500000D03*
X60000000Y-144500000D03*
X57499999Y-144500000D03*
%TD*%
D14*
%TO.C,R19*%
X86193333Y-118250000D03*
D15*
X93813333Y-118250000D03*
%TD*%
D14*
%TO.C,C4*%
X82750000Y-120000000D03*
X82750000Y-117500000D03*
%TD*%
%TO.C,R13*%
X93810000Y-121870000D03*
D15*
X86190000Y-121870000D03*
%TD*%
D14*
%TO.C,C2*%
X83000000Y-85250000D03*
X85500000Y-85250000D03*
%TD*%
D25*
%TO.C,T2*%
X77000000Y-97500000D03*
D26*
X77000000Y-99270000D03*
X77000000Y-101000000D03*
%TD*%
D16*
%TO.C,J4*%
X96480000Y-77500000D03*
D17*
X93380000Y-77500000D03*
X85080000Y-77500000D03*
%TD*%
D25*
%TO.C,T1*%
X73000000Y-101020000D03*
D26*
X73000000Y-99250000D03*
X73000000Y-97520000D03*
%TD*%
D23*
%TO.C,D2*%
X78750000Y-135060000D03*
D24*
X78750000Y-127440000D03*
%TD*%
D14*
%TO.C,RV2*%
X77530000Y-77505000D03*
X74990000Y-74965000D03*
X72450000Y-77505000D03*
%TD*%
%TO.C,R14*%
X86190000Y-100750000D03*
D15*
X93810000Y-100750000D03*
%TD*%
D14*
%TO.C,R4*%
X56190000Y-93750000D03*
D15*
X63810000Y-93750000D03*
%TD*%
D14*
%TO.C,R18*%
X93813333Y-114500000D03*
D15*
X86193333Y-114500000D03*
%TD*%
D14*
%TO.C,R9*%
X63800000Y-118540000D03*
D15*
X56180000Y-118540000D03*
%TD*%
D14*
%TO.C,R17*%
X63810000Y-125750000D03*
D15*
X56190000Y-125750000D03*
%TD*%
D14*
%TO.C,R2*%
X69985004Y-91842500D03*
D27*
X72184709Y-90572500D03*
%TD*%
D14*
%TO.C,R6*%
X56190000Y-101250000D03*
D15*
X63810000Y-101250000D03*
%TD*%
D14*
%TO.C,R10*%
X56150000Y-114550000D03*
D15*
X63770000Y-114550000D03*
%TD*%
D16*
%TO.C,J2*%
X66530000Y-77500000D03*
D17*
X63430000Y-77500000D03*
X55130000Y-77500000D03*
%TD*%
D14*
%TO.C,R1*%
X75000000Y-86955000D03*
D15*
X75000000Y-89495000D03*
%TD*%
D16*
%TO.C,J5*%
X96480000Y-62500000D03*
D17*
X93380000Y-62500000D03*
X85080000Y-62500000D03*
%TD*%
D14*
%TO.C,R15*%
X86193333Y-97250000D03*
D15*
X93813333Y-97250000D03*
%TD*%
D18*
%TO.C,J7*%
X77250000Y-143000000D03*
D19*
X79250000Y-143000000D03*
X81250000Y-143000000D03*
%TD*%
M02*
