%TF.GenerationSoftware,KiCad,Pcbnew,9.0.0*%
%TF.CreationDate,2025-07-31T22:07:32+10:00*%
%TF.ProjectId,VCO,56434f2e-6b69-4636-9164-5f7063625858,rev?*%
%TF.SameCoordinates,Original*%
%TF.FileFunction,Legend,Bot*%
%TF.FilePolarity,Positive*%
%FSLAX46Y46*%
G04 Gerber Fmt 4.6, Leading zero omitted, Abs format (unit mm)*
G04 Created by KiCad (PCBNEW 9.0.0) date 2025-07-31 22:07:32*
%MOMM*%
%LPD*%
G01*
G04 APERTURE LIST*
G04 Aperture macros list*
%AMRoundRect*
0 Rectangle with rounded corners*
0 $1 Rounding radius*
0 $2 $3 $4 $5 $6 $7 $8 $9 X,Y pos of 4 corners*
0 Add a 4 corners polygon primitive as box body*
4,1,4,$2,$3,$4,$5,$6,$7,$8,$9,$2,$3,0*
0 Add four circle primitives for the rounded corners*
1,1,$1+$1,$2,$3*
1,1,$1+$1,$4,$5*
1,1,$1+$1,$6,$7*
1,1,$1+$1,$8,$9*
0 Add four rect primitives between the rounded corners*
20,1,$1+$1,$2,$3,$4,$5,0*
20,1,$1+$1,$4,$5,$6,$7,0*
20,1,$1+$1,$6,$7,$8,$9,0*
20,1,$1+$1,$8,$9,$2,$3,0*%
%AMHorizOval*
0 Thick line with rounded ends*
0 $1 width*
0 $2 $3 position (X,Y) of the first rounded end (center of the circle)*
0 $4 $5 position (X,Y) of the second rounded end (center of the circle)*
0 Add line between two ends*
20,1,$1,$2,$3,$4,$5,0*
0 Add two circle primitives to create the rounded ends*
1,1,$1,$2,$3*
1,1,$1,$4,$5*%
G04 Aperture macros list end*
%ADD10C,0.200000*%
%ADD11C,4.000000*%
%ADD12O,1.600000X2.400000*%
%ADD13R,1.350000X1.900000*%
%ADD14O,1.350000X1.900000*%
%ADD15C,1.600000*%
%ADD16O,1.600000X1.600000*%
%ADD17R,2.000000X2.000000*%
%ADD18C,2.200000*%
%ADD19RoundRect,0.291666X-0.408334X-0.708334X0.408334X-0.708334X0.408334X0.708334X-0.408334X0.708334X0*%
%ADD20O,1.400000X2.000000*%
%ADD21HorizOval,1.600000X0.000000X0.000000X0.000000X0.000000X0*%
%ADD22RoundRect,0.250000X-0.950000X-0.550000X0.950000X-0.550000X0.950000X0.550000X-0.950000X0.550000X0*%
%ADD23O,2.400000X1.600000*%
%ADD24R,1.800000X1.800000*%
%ADD25O,1.800000X1.800000*%
%ADD26R,1.900000X1.350000*%
%ADD27O,1.900000X1.350000*%
%ADD28HorizOval,1.600000X0.000000X0.000000X0.000000X0.000000X0*%
G04 APERTURE END LIST*
D10*
X70893316Y-139483958D02*
X70893316Y-140451578D01*
X71377126Y-139967768D02*
X70409507Y-139967768D01*
X70107126Y-140874911D02*
X71377126Y-141298244D01*
X71377126Y-141298244D02*
X70107126Y-141721578D01*
X68167602Y-139049197D02*
X68107126Y-138928244D01*
X68107126Y-138928244D02*
X68107126Y-138746816D01*
X68107126Y-138746816D02*
X68167602Y-138565387D01*
X68167602Y-138565387D02*
X68288554Y-138444435D01*
X68288554Y-138444435D02*
X68409507Y-138383958D01*
X68409507Y-138383958D02*
X68651411Y-138323482D01*
X68651411Y-138323482D02*
X68832840Y-138323482D01*
X68832840Y-138323482D02*
X69074745Y-138383958D01*
X69074745Y-138383958D02*
X69195697Y-138444435D01*
X69195697Y-138444435D02*
X69316650Y-138565387D01*
X69316650Y-138565387D02*
X69377126Y-138746816D01*
X69377126Y-138746816D02*
X69377126Y-138867768D01*
X69377126Y-138867768D02*
X69316650Y-139049197D01*
X69316650Y-139049197D02*
X69256173Y-139109673D01*
X69256173Y-139109673D02*
X68832840Y-139109673D01*
X68832840Y-139109673D02*
X68832840Y-138867768D01*
X69377126Y-139653958D02*
X68107126Y-139653958D01*
X68107126Y-139653958D02*
X69377126Y-140379673D01*
X69377126Y-140379673D02*
X68107126Y-140379673D01*
X69377126Y-140984434D02*
X68107126Y-140984434D01*
X68107126Y-140984434D02*
X68107126Y-141286815D01*
X68107126Y-141286815D02*
X68167602Y-141468244D01*
X68167602Y-141468244D02*
X68288554Y-141589196D01*
X68288554Y-141589196D02*
X68409507Y-141649673D01*
X68409507Y-141649673D02*
X68651411Y-141710149D01*
X68651411Y-141710149D02*
X68832840Y-141710149D01*
X68832840Y-141710149D02*
X69074745Y-141649673D01*
X69074745Y-141649673D02*
X69195697Y-141589196D01*
X69195697Y-141589196D02*
X69316650Y-141468244D01*
X69316650Y-141468244D02*
X69377126Y-141286815D01*
X69377126Y-141286815D02*
X69377126Y-140984434D01*
X72818316Y-139458958D02*
X72818316Y-140426578D01*
X72032126Y-140849911D02*
X73302126Y-141273244D01*
X73302126Y-141273244D02*
X72032126Y-141696578D01*
X79343316Y-139483958D02*
X79343316Y-140451578D01*
X79827126Y-139967768D02*
X78859507Y-139967768D01*
X78557126Y-140874911D02*
X79827126Y-141298244D01*
X79827126Y-141298244D02*
X78557126Y-141721578D01*
X76592602Y-139024197D02*
X76532126Y-138903244D01*
X76532126Y-138903244D02*
X76532126Y-138721816D01*
X76532126Y-138721816D02*
X76592602Y-138540387D01*
X76592602Y-138540387D02*
X76713554Y-138419435D01*
X76713554Y-138419435D02*
X76834507Y-138358958D01*
X76834507Y-138358958D02*
X77076411Y-138298482D01*
X77076411Y-138298482D02*
X77257840Y-138298482D01*
X77257840Y-138298482D02*
X77499745Y-138358958D01*
X77499745Y-138358958D02*
X77620697Y-138419435D01*
X77620697Y-138419435D02*
X77741650Y-138540387D01*
X77741650Y-138540387D02*
X77802126Y-138721816D01*
X77802126Y-138721816D02*
X77802126Y-138842768D01*
X77802126Y-138842768D02*
X77741650Y-139024197D01*
X77741650Y-139024197D02*
X77681173Y-139084673D01*
X77681173Y-139084673D02*
X77257840Y-139084673D01*
X77257840Y-139084673D02*
X77257840Y-138842768D01*
X77802126Y-139628958D02*
X76532126Y-139628958D01*
X76532126Y-139628958D02*
X77802126Y-140354673D01*
X77802126Y-140354673D02*
X76532126Y-140354673D01*
X77802126Y-140959434D02*
X76532126Y-140959434D01*
X76532126Y-140959434D02*
X76532126Y-141261815D01*
X76532126Y-141261815D02*
X76592602Y-141443244D01*
X76592602Y-141443244D02*
X76713554Y-141564196D01*
X76713554Y-141564196D02*
X76834507Y-141624673D01*
X76834507Y-141624673D02*
X77076411Y-141685149D01*
X77076411Y-141685149D02*
X77257840Y-141685149D01*
X77257840Y-141685149D02*
X77499745Y-141624673D01*
X77499745Y-141624673D02*
X77620697Y-141564196D01*
X77620697Y-141564196D02*
X77741650Y-141443244D01*
X77741650Y-141443244D02*
X77802126Y-141261815D01*
X77802126Y-141261815D02*
X77802126Y-140959434D01*
X81243316Y-139433958D02*
X81243316Y-140401578D01*
X80457126Y-140824911D02*
X81727126Y-141248244D01*
X81727126Y-141248244D02*
X80457126Y-141671578D01*
%LPC*%
D11*
%TO.C,RV3*%
X85600000Y-137500000D03*
X94400000Y-137500000D03*
D12*
X92500001Y-144500000D03*
X90000000Y-144500000D03*
X87499999Y-144500000D03*
%TD*%
D13*
%TO.C,Q1*%
X73230000Y-93360000D03*
D14*
X75000000Y-93360000D03*
X76730000Y-93360000D03*
%TD*%
D15*
%TO.C,R7*%
X56190000Y-89750000D03*
D16*
X63810000Y-89750000D03*
%TD*%
D15*
%TO.C,R5*%
X56190000Y-97500000D03*
D16*
X63810000Y-97500000D03*
%TD*%
D17*
%TO.C,J3*%
X81480000Y-62500000D03*
D18*
X78380000Y-62500000D03*
X70080000Y-62500000D03*
%TD*%
D19*
%TO.C,J6*%
X68750000Y-143000000D03*
D20*
X70750000Y-143000000D03*
X72750000Y-143000000D03*
%TD*%
D15*
%TO.C,R21*%
X86190000Y-107500000D03*
D16*
X93810000Y-107500000D03*
%TD*%
D15*
%TO.C,C3*%
X82750000Y-112500000D03*
X82750000Y-110000000D03*
%TD*%
%TO.C,R3*%
X79874997Y-91892500D03*
D21*
X77675292Y-90622500D03*
%TD*%
D17*
%TO.C,J1*%
X66480000Y-62500000D03*
D18*
X63380000Y-62500000D03*
X55080000Y-62500000D03*
%TD*%
D15*
%TO.C,R20*%
X86193333Y-89750000D03*
D16*
X93813333Y-89750000D03*
%TD*%
D15*
%TO.C,R11*%
X56190000Y-122000000D03*
D16*
X63810000Y-122000000D03*
%TD*%
D15*
%TO.C,R12*%
X86190000Y-125750000D03*
D16*
X93810000Y-125750000D03*
%TD*%
D15*
%TO.C,C1*%
X62500000Y-85250000D03*
X65000000Y-85250000D03*
%TD*%
%TO.C,R16*%
X86210000Y-93410000D03*
D16*
X93830000Y-93410000D03*
%TD*%
D15*
%TO.C,R8*%
X63710000Y-107750000D03*
D16*
X56090000Y-107750000D03*
%TD*%
D22*
%TO.C,U1*%
X71250000Y-107630000D03*
D23*
X71250000Y-110170000D03*
X71250000Y-112710000D03*
X71250000Y-115250000D03*
X71250000Y-117790000D03*
X71250000Y-120330000D03*
X71250000Y-122870000D03*
X78870000Y-122870000D03*
X78870000Y-120330000D03*
X78870000Y-117790000D03*
X78870000Y-115250000D03*
X78870000Y-112710000D03*
X78870000Y-110170000D03*
X78870000Y-107630000D03*
%TD*%
D24*
%TO.C,D1*%
X71200000Y-135010000D03*
D25*
X71200000Y-127390000D03*
%TD*%
D11*
%TO.C,RV1*%
X55600000Y-137500000D03*
X64400000Y-137500000D03*
D12*
X62500001Y-144500000D03*
X60000000Y-144500000D03*
X57499999Y-144500000D03*
%TD*%
D15*
%TO.C,R19*%
X86193333Y-118250000D03*
D16*
X93813333Y-118250000D03*
%TD*%
D15*
%TO.C,C4*%
X82750000Y-120000000D03*
X82750000Y-117500000D03*
%TD*%
%TO.C,R13*%
X93810000Y-121870000D03*
D16*
X86190000Y-121870000D03*
%TD*%
D15*
%TO.C,C2*%
X83000000Y-85250000D03*
X85500000Y-85250000D03*
%TD*%
D26*
%TO.C,T2*%
X77000000Y-97500000D03*
D27*
X77000000Y-99270000D03*
X77000000Y-101000000D03*
%TD*%
D17*
%TO.C,J4*%
X96480000Y-77500000D03*
D18*
X93380000Y-77500000D03*
X85080000Y-77500000D03*
%TD*%
D26*
%TO.C,T1*%
X73000000Y-101020000D03*
D27*
X73000000Y-99250000D03*
X73000000Y-97520000D03*
%TD*%
D24*
%TO.C,D2*%
X78750000Y-135060000D03*
D25*
X78750000Y-127440000D03*
%TD*%
D15*
%TO.C,RV2*%
X77530000Y-77505000D03*
X74990000Y-74965000D03*
X72450000Y-77505000D03*
%TD*%
%TO.C,R14*%
X86190000Y-100750000D03*
D16*
X93810000Y-100750000D03*
%TD*%
D15*
%TO.C,R4*%
X56190000Y-93750000D03*
D16*
X63810000Y-93750000D03*
%TD*%
D15*
%TO.C,R18*%
X93813333Y-114500000D03*
D16*
X86193333Y-114500000D03*
%TD*%
D15*
%TO.C,R9*%
X63800000Y-118540000D03*
D16*
X56180000Y-118540000D03*
%TD*%
D15*
%TO.C,R17*%
X63810000Y-125750000D03*
D16*
X56190000Y-125750000D03*
%TD*%
D15*
%TO.C,R2*%
X69985004Y-91842500D03*
D28*
X72184709Y-90572500D03*
%TD*%
D15*
%TO.C,R6*%
X56190000Y-101250000D03*
D16*
X63810000Y-101250000D03*
%TD*%
D15*
%TO.C,R10*%
X56150000Y-114550000D03*
D16*
X63770000Y-114550000D03*
%TD*%
D17*
%TO.C,J2*%
X66530000Y-77500000D03*
D18*
X63430000Y-77500000D03*
X55130000Y-77500000D03*
%TD*%
D15*
%TO.C,R1*%
X75000000Y-86955000D03*
D16*
X75000000Y-89495000D03*
%TD*%
D17*
%TO.C,J5*%
X96480000Y-62500000D03*
D18*
X93380000Y-62500000D03*
X85080000Y-62500000D03*
%TD*%
D15*
%TO.C,R15*%
X86193333Y-97250000D03*
D16*
X93813333Y-97250000D03*
%TD*%
D19*
%TO.C,J7*%
X77250000Y-143000000D03*
D20*
X79250000Y-143000000D03*
X81250000Y-143000000D03*
%TD*%
%LPD*%
M02*
