M48
; DRILL file {KiCad 9.0.1} date 2025-05-21T18:25:46+1000
; FORMAT={-:-/ absolute / metric / decimal}
; #@! TF.CreationDate,2025-05-21T18:25:46+10:00
; #@! TF.GenerationSoftware,Kicad,Pcbnew,9.0.1
; #@! TF.FileFunction,Plated,1,4,PTH
FMAT,2
METRIC
; #@! TA.AperFunction,Plated,PTH,ComponentDrill
T1C0.600
; #@! TA.AperFunction,Plated,PTH,ComponentDrill
T2C0.750
; #@! TA.AperFunction,Plated,PTH,ComponentDrill
T3C0.800
; #@! TA.AperFunction,Plated,PTH,ComponentDrill
T4C0.900
; #@! TA.AperFunction,Plated,PTH,ComponentDrill
T5C1.000
; #@! TA.AperFunction,Plated,PTH,ComponentDrill
T6C1.100
%
G90
G05
T2
X113.47Y-90.25
X115.2Y-90.25
X116.97Y-90.25
X120.16Y-134.179
X122.16Y-134.179
X124.16Y-134.179
T3
X102.39Y-90.25
X103.16Y-112.64
X103.16Y-120.26
X110.01Y-90.25
X110.91Y-118.0
X112.5Y-43.19
X112.5Y-50.81
X113.41Y-118.0
X116.91Y-118.0
X119.41Y-118.0
X120.19Y-90.25
X127.16Y-112.64
X127.16Y-120.26
X127.81Y-90.25
T4
X103.16Y-123.02
X103.16Y-130.64
X104.75Y-47.0
X107.16Y-123.02
X107.16Y-130.64
X107.29Y-47.0
X123.16Y-123.02
X123.16Y-130.64
X127.16Y-123.02
X127.16Y-130.64
T5
X126.25Y-56.5
X126.25Y-61.5
X126.25Y-68.0
X126.25Y-73.0
X126.25Y-79.5
X126.25Y-84.5
T6
X106.66Y-113.68
X109.2Y-113.68
X111.74Y-113.68
X118.76Y-113.68
X121.3Y-113.68
X123.84Y-113.68
T1
G00X116.56Y-42.55
M15
G01X116.56Y-44.15
M16
G05
G00X126.36Y-42.55
M15
G01X126.36Y-44.15
M16
G05
T3
G00X116.96Y-50.05
M15
G01X116.96Y-51.25
M16
G05
G00X120.16Y-50.05
M15
G01X120.16Y-51.25
M16
G05
G00X125.46Y-50.05
M15
G01X125.46Y-51.25
M16
G05
M30
