%TF.GenerationSoftware,KiCad,Pcbnew,9.0.1*%
%TF.CreationDate,2025-05-19T14:39:27+10:00*%
%TF.ProjectId,Power,506f7765-722e-46b6-9963-61645f706362,rev?*%
%TF.SameCoordinates,Original*%
%TF.FileFunction,Copper,L2,Inr*%
%TF.FilePolarity,Positive*%
%FSLAX46Y46*%
G04 Gerber Fmt 4.6, Leading zero omitted, Abs format (unit mm)*
G04 Created by KiCad (PCBNEW 9.0.1) date 2025-05-19 14:39:27*
%MOMM*%
%LPD*%
G01*
G04 APERTURE LIST*
G04 Aperture macros list*
%AMRoundRect*
0 Rectangle with rounded corners*
0 $1 Rounding radius*
0 $2 $3 $4 $5 $6 $7 $8 $9 X,Y pos of 4 corners*
0 Add a 4 corners polygon primitive as box body*
4,1,4,$2,$3,$4,$5,$6,$7,$8,$9,$2,$3,0*
0 Add four circle primitives for the rounded corners*
1,1,$1+$1,$2,$3*
1,1,$1+$1,$4,$5*
1,1,$1+$1,$6,$7*
1,1,$1+$1,$8,$9*
0 Add four rect primitives between the rounded corners*
20,1,$1+$1,$2,$3,$4,$5,0*
20,1,$1+$1,$4,$5,$6,$7,0*
20,1,$1+$1,$6,$7,$8,$9,0*
20,1,$1+$1,$8,$9,$2,$3,0*%
G04 Aperture macros list end*
%TA.AperFunction,ComponentPad*%
%ADD10O,1.400000X2.000000*%
%TD*%
%TA.AperFunction,ComponentPad*%
%ADD11RoundRect,0.291666X-0.408334X-0.708334X0.408334X-0.708334X0.408334X0.708334X-0.408334X0.708334X0*%
%TD*%
%TA.AperFunction,ComponentPad*%
%ADD12R,2.000000X2.000000*%
%TD*%
%TA.AperFunction,ComponentPad*%
%ADD13C,2.000000*%
%TD*%
%TA.AperFunction,ComponentPad*%
%ADD14R,1.905000X2.000000*%
%TD*%
%TA.AperFunction,ComponentPad*%
%ADD15O,1.905000X2.000000*%
%TD*%
%TA.AperFunction,ComponentPad*%
%ADD16R,1.800000X1.800000*%
%TD*%
%TA.AperFunction,ComponentPad*%
%ADD17C,1.800000*%
%TD*%
%TA.AperFunction,ComponentPad*%
%ADD18O,1.800000X1.800000*%
%TD*%
%TA.AperFunction,ComponentPad*%
%ADD19O,1.800000X3.000000*%
%TD*%
%TA.AperFunction,ComponentPad*%
%ADD20R,1.800000X3.000000*%
%TD*%
%TA.AperFunction,ComponentPad*%
%ADD21O,1.600000X3.000000*%
%TD*%
%TA.AperFunction,ComponentPad*%
%ADD22C,1.600000*%
%TD*%
%TA.AperFunction,ComponentPad*%
%ADD23O,1.600000X1.600000*%
%TD*%
%TA.AperFunction,ComponentPad*%
%ADD24R,1.350000X1.900000*%
%TD*%
%TA.AperFunction,ComponentPad*%
%ADD25O,1.350000X1.900000*%
%TD*%
%TA.AperFunction,Conductor*%
%ADD26C,0.200000*%
%TD*%
G04 APERTURE END LIST*
D10*
%TO.N,VSS*%
%TO.C,J2*%
X124160000Y-135550000D03*
%TO.N,VDD*%
X122160000Y-135550000D03*
D11*
%TO.N,GND*%
X120160000Y-135550000D03*
%TD*%
D12*
%TO.N,GND*%
%TO.C,C3*%
X125875000Y-83760000D03*
D13*
%TO.N,VSS*%
X125875000Y-78760000D03*
%TD*%
D14*
%TO.N,Net-(D1-K)*%
%TO.C,U1*%
X106660000Y-113680000D03*
D15*
%TO.N,VDD*%
X111740000Y-113680000D03*
%TO.N,Net-(D1-A)*%
X109200000Y-113680000D03*
%TD*%
D16*
%TO.N,VDD*%
%TO.C,C4*%
X113409999Y-118640000D03*
D17*
%TO.N,Net-(D2-A)*%
X110910001Y-118640000D03*
%TD*%
D16*
%TO.N,Net-(D1-K)*%
%TO.C,C5*%
X119409999Y-118640000D03*
D17*
%TO.N,VSS*%
X116910001Y-118640000D03*
%TD*%
D13*
%TO.N,VSS*%
%TO.C,C1*%
X125875000Y-55760000D03*
D12*
%TO.N,VDD*%
X125875000Y-60760000D03*
%TD*%
D16*
%TO.N,Net-(D2-K)*%
%TO.C,D2*%
X123160000Y-130640000D03*
D18*
%TO.N,Net-(D2-A)*%
X123160000Y-123020000D03*
%TD*%
D16*
%TO.N,GND*%
%TO.C,D4*%
X127160000Y-130640000D03*
D18*
%TO.N,VSS*%
X127160000Y-123020000D03*
%TD*%
D19*
%TO.N,VDD*%
%TO.C,J1*%
X125460001Y-50040000D03*
D20*
%TO.N,VSS*%
X116960000Y-50040000D03*
D19*
%TO.N,unconnected-(J1-Pad3)*%
X120160000Y-50040000D03*
D21*
%TO.N,GND*%
X126360000Y-42740000D03*
X116560000Y-42740000D03*
%TD*%
D22*
%TO.N,GND*%
%TO.C,R3*%
X103160000Y-120260000D03*
D23*
%TO.N,Net-(D1-A)*%
X103160000Y-112640000D03*
%TD*%
D13*
%TO.N,GND*%
%TO.C,C2*%
X125875000Y-67260000D03*
D12*
%TO.N,VDD*%
X125875000Y-72260000D03*
%TD*%
D22*
%TO.N,VSS*%
%TO.C,R2*%
X120390000Y-89640000D03*
D23*
%TO.N,Net-(D1-K)*%
X128010000Y-89640000D03*
%TD*%
D24*
%TO.N,Net-(D1-K)*%
%TO.C,U3*%
X116970001Y-89640000D03*
D25*
%TO.N,Net-(D2-A)*%
X115200001Y-89640000D03*
%TO.N,unconnected-(U3-Pad3)*%
X113470001Y-89640000D03*
%TD*%
D22*
%TO.N,Net-(D2-A)*%
%TO.C,R1*%
X102390000Y-89640000D03*
D23*
%TO.N,VDD*%
X110010000Y-89640000D03*
%TD*%
D22*
%TO.N,Net-(D2-K)*%
%TO.C,R4*%
X127160000Y-112640000D03*
D23*
%TO.N,GND*%
X127160000Y-120260000D03*
%TD*%
D14*
%TO.N,Net-(D2-A)*%
%TO.C,U2*%
X118760002Y-113680000D03*
D15*
%TO.N,VSS*%
X121300002Y-113680000D03*
%TO.N,Net-(D2-K)*%
X123840002Y-113680000D03*
%TD*%
D16*
%TO.N,VDD*%
%TO.C,D3*%
X103160000Y-130640000D03*
D18*
%TO.N,GND*%
X103160000Y-123020000D03*
%TD*%
D16*
%TO.N,Net-(D1-K)*%
%TO.C,D1*%
X107160000Y-130640000D03*
D18*
%TO.N,Net-(D1-A)*%
X107160000Y-123020000D03*
%TD*%
D26*
%TO.N,Net-(D2-A)*%
X118760002Y-113680000D02*
X115870001Y-113680000D01*
X118760002Y-113680000D02*
X123160000Y-118079998D01*
X115200001Y-110119999D02*
X118760002Y-113680000D01*
X104770000Y-87260000D02*
X114160000Y-87260000D01*
X115200001Y-88300001D02*
X115200001Y-89640000D01*
X123160000Y-118079998D02*
X123160000Y-123020000D01*
X115200001Y-89020000D02*
X115200001Y-110119999D01*
X102390000Y-89640000D02*
X104770000Y-87260000D01*
X115870001Y-113680000D02*
X110910001Y-118640000D01*
X114160000Y-87260000D02*
X115200001Y-88300001D01*
%TO.N,Net-(D1-A)*%
X109200000Y-113680000D02*
X109200000Y-120980000D01*
X103959999Y-111840001D02*
X107360001Y-111840001D01*
X109200000Y-120980000D02*
X107160000Y-123020000D01*
X107360001Y-111840001D02*
X109200000Y-113680000D01*
X103160000Y-112640000D02*
X103959999Y-111840001D01*
%TO.N,Net-(D2-K)*%
X123840002Y-113680000D02*
X125160000Y-114999998D01*
X127160000Y-112640000D02*
X124880002Y-112640000D01*
X123160000Y-128640000D02*
X123160000Y-130640000D01*
X125160000Y-114999998D02*
X125160000Y-126640000D01*
X124880002Y-112640000D02*
X123840002Y-113680000D01*
X125160000Y-126640000D02*
X123160000Y-128640000D01*
%TD*%
%TA.AperFunction,Conductor*%
%TO.N,GND*%
G36*
X116461298Y-40520185D02*
G01*
X116507053Y-40572989D01*
X116516997Y-40642147D01*
X116487972Y-40705703D01*
X116429194Y-40743477D01*
X116413657Y-40746973D01*
X116255582Y-40772009D01*
X116060968Y-40835244D01*
X115878650Y-40928140D01*
X115713105Y-41048417D01*
X115713104Y-41048417D01*
X115568417Y-41193104D01*
X115568417Y-41193105D01*
X115448140Y-41358650D01*
X115355244Y-41540968D01*
X115292009Y-41735582D01*
X115260000Y-41937682D01*
X115260000Y-42490000D01*
X116260000Y-42490000D01*
X116260000Y-42990000D01*
X115260000Y-42990000D01*
X115260000Y-43542317D01*
X115292009Y-43744417D01*
X115355244Y-43939031D01*
X115448140Y-44121349D01*
X115568417Y-44286894D01*
X115568417Y-44286895D01*
X115713104Y-44431582D01*
X115878650Y-44551859D01*
X116060968Y-44644754D01*
X116255578Y-44707988D01*
X116310000Y-44716607D01*
X116310000Y-43706988D01*
X116319940Y-43724205D01*
X116375795Y-43780060D01*
X116444204Y-43819556D01*
X116520504Y-43840000D01*
X116599496Y-43840000D01*
X116675796Y-43819556D01*
X116744205Y-43780060D01*
X116800060Y-43724205D01*
X116810000Y-43706988D01*
X116810000Y-44716606D01*
X116864421Y-44707988D01*
X117059031Y-44644754D01*
X117241349Y-44551859D01*
X117406894Y-44431582D01*
X117406895Y-44431582D01*
X117551582Y-44286895D01*
X117551582Y-44286894D01*
X117671859Y-44121349D01*
X117764755Y-43939031D01*
X117827990Y-43744417D01*
X117845088Y-43636468D01*
X118844500Y-43636468D01*
X118844500Y-43843531D01*
X118876892Y-44048048D01*
X118940876Y-44244974D01*
X118940877Y-44244977D01*
X118962236Y-44286895D01*
X119034883Y-44429472D01*
X119156593Y-44596991D01*
X119303009Y-44743407D01*
X119470528Y-44865117D01*
X119561017Y-44911223D01*
X119655022Y-44959122D01*
X119655025Y-44959123D01*
X119753488Y-44991115D01*
X119851953Y-45023108D01*
X120056468Y-45055500D01*
X120056469Y-45055500D01*
X120263531Y-45055500D01*
X120263532Y-45055500D01*
X120468047Y-45023108D01*
X120664977Y-44959122D01*
X120849472Y-44865117D01*
X121016991Y-44743407D01*
X121163407Y-44596991D01*
X121285117Y-44429472D01*
X121379122Y-44244977D01*
X121443108Y-44048047D01*
X121475500Y-43843532D01*
X121475500Y-43636468D01*
X121443108Y-43431953D01*
X121379122Y-43235023D01*
X121379122Y-43235022D01*
X121346568Y-43171133D01*
X121285117Y-43050528D01*
X121281708Y-43045836D01*
X121256781Y-43011526D01*
X121256779Y-43011524D01*
X121241141Y-42990000D01*
X121163407Y-42883009D01*
X121016991Y-42736593D01*
X120849472Y-42614883D01*
X120664977Y-42520877D01*
X120664974Y-42520876D01*
X120468048Y-42456892D01*
X120365789Y-42440696D01*
X120263532Y-42424500D01*
X120056468Y-42424500D01*
X119988296Y-42435297D01*
X119851951Y-42456892D01*
X119655025Y-42520876D01*
X119655022Y-42520877D01*
X119470527Y-42614883D01*
X119374951Y-42684323D01*
X119303009Y-42736593D01*
X119303007Y-42736595D01*
X119303006Y-42736595D01*
X119156595Y-42883006D01*
X119156595Y-42883007D01*
X119156593Y-42883009D01*
X119121616Y-42931151D01*
X119034883Y-43050527D01*
X118940877Y-43235022D01*
X118940876Y-43235025D01*
X118876892Y-43431951D01*
X118844500Y-43636468D01*
X117845088Y-43636468D01*
X117848932Y-43612198D01*
X117860000Y-43542317D01*
X117860000Y-42990000D01*
X116860000Y-42990000D01*
X116860000Y-42490000D01*
X117860000Y-42490000D01*
X117860000Y-41937682D01*
X117827990Y-41735582D01*
X117764755Y-41540968D01*
X117671859Y-41358650D01*
X117551582Y-41193105D01*
X117551582Y-41193104D01*
X117406895Y-41048417D01*
X117241349Y-40928140D01*
X117059031Y-40835244D01*
X116864417Y-40772009D01*
X116706343Y-40746973D01*
X116643208Y-40717044D01*
X116606277Y-40657732D01*
X116607275Y-40587870D01*
X116645885Y-40529637D01*
X116709849Y-40501523D01*
X116725741Y-40500500D01*
X126194259Y-40500500D01*
X126261298Y-40520185D01*
X126307053Y-40572989D01*
X126316997Y-40642147D01*
X126287972Y-40705703D01*
X126229194Y-40743477D01*
X126213657Y-40746973D01*
X126055582Y-40772009D01*
X125860968Y-40835244D01*
X125678650Y-40928140D01*
X125513105Y-41048417D01*
X125513104Y-41048417D01*
X125368417Y-41193104D01*
X125368417Y-41193105D01*
X125248140Y-41358650D01*
X125155244Y-41540968D01*
X125092009Y-41735582D01*
X125060000Y-41937682D01*
X125060000Y-42490000D01*
X126060000Y-42490000D01*
X126060000Y-42990000D01*
X125060000Y-42990000D01*
X125060000Y-43542317D01*
X125092009Y-43744417D01*
X125155244Y-43939031D01*
X125248140Y-44121349D01*
X125368417Y-44286894D01*
X125368417Y-44286895D01*
X125513104Y-44431582D01*
X125678650Y-44551859D01*
X125860968Y-44644754D01*
X126055578Y-44707988D01*
X126110000Y-44716607D01*
X126110000Y-43706988D01*
X126119940Y-43724205D01*
X126175795Y-43780060D01*
X126244204Y-43819556D01*
X126320504Y-43840000D01*
X126399496Y-43840000D01*
X126475796Y-43819556D01*
X126544205Y-43780060D01*
X126600060Y-43724205D01*
X126610000Y-43706988D01*
X126610000Y-44716606D01*
X126664421Y-44707988D01*
X126859031Y-44644754D01*
X127041349Y-44551859D01*
X127206894Y-44431582D01*
X127206895Y-44431582D01*
X127351582Y-44286895D01*
X127351582Y-44286894D01*
X127471859Y-44121349D01*
X127564755Y-43939031D01*
X127627990Y-43744417D01*
X127660000Y-43542317D01*
X127660000Y-42990000D01*
X126660000Y-42990000D01*
X126660000Y-42490000D01*
X127660000Y-42490000D01*
X127660000Y-41937682D01*
X127627990Y-41735582D01*
X127564755Y-41540968D01*
X127471859Y-41358650D01*
X127351582Y-41193105D01*
X127351582Y-41193104D01*
X127206895Y-41048417D01*
X127041349Y-40928140D01*
X126859031Y-40835244D01*
X126664417Y-40772009D01*
X126506343Y-40746973D01*
X126443208Y-40717044D01*
X126406277Y-40657732D01*
X126407275Y-40587870D01*
X126445885Y-40529637D01*
X126509849Y-40501523D01*
X126525741Y-40500500D01*
X126934108Y-40500500D01*
X126996249Y-40500500D01*
X127003736Y-40500726D01*
X127293796Y-40518271D01*
X127308657Y-40520075D01*
X127590798Y-40571780D01*
X127605335Y-40575363D01*
X127879172Y-40660695D01*
X127893163Y-40666000D01*
X128154743Y-40783727D01*
X128167989Y-40790680D01*
X128413465Y-40939075D01*
X128425776Y-40947573D01*
X128651573Y-41124473D01*
X128662781Y-41134403D01*
X128865596Y-41337218D01*
X128875526Y-41348426D01*
X128995481Y-41501538D01*
X129052422Y-41574217D01*
X129060928Y-41586540D01*
X129209316Y-41832004D01*
X129216275Y-41845263D01*
X129333997Y-42106831D01*
X129339306Y-42120832D01*
X129424635Y-42394663D01*
X129428219Y-42409201D01*
X129479923Y-42691340D01*
X129481728Y-42706205D01*
X129499274Y-42996263D01*
X129499500Y-43003750D01*
X129499500Y-89232798D01*
X129479815Y-89299837D01*
X129427011Y-89345592D01*
X129357853Y-89355536D01*
X129294297Y-89326511D01*
X129257569Y-89271117D01*
X129240220Y-89217723D01*
X129215220Y-89140781D01*
X129215218Y-89140778D01*
X129215218Y-89140776D01*
X129181503Y-89074607D01*
X129122287Y-88958390D01*
X129089867Y-88913767D01*
X129001971Y-88792786D01*
X128857213Y-88648028D01*
X128691613Y-88527715D01*
X128691612Y-88527714D01*
X128691610Y-88527713D01*
X128634653Y-88498691D01*
X128509223Y-88434781D01*
X128314534Y-88371522D01*
X128122302Y-88341076D01*
X128112352Y-88339500D01*
X127907648Y-88339500D01*
X127897698Y-88341076D01*
X127705465Y-88371522D01*
X127510776Y-88434781D01*
X127328386Y-88527715D01*
X127162786Y-88648028D01*
X127018028Y-88792786D01*
X126897715Y-88958386D01*
X126804781Y-89140776D01*
X126741522Y-89335465D01*
X126709500Y-89537648D01*
X126709500Y-89742351D01*
X126741522Y-89944534D01*
X126804781Y-90139223D01*
X126897715Y-90321613D01*
X127018028Y-90487213D01*
X127162786Y-90631971D01*
X127317749Y-90744556D01*
X127328390Y-90752287D01*
X127421671Y-90799816D01*
X127510776Y-90845218D01*
X127510778Y-90845218D01*
X127510781Y-90845220D01*
X127615137Y-90879127D01*
X127705465Y-90908477D01*
X127799224Y-90923327D01*
X127907648Y-90940500D01*
X127907649Y-90940500D01*
X128112351Y-90940500D01*
X128112352Y-90940500D01*
X128314534Y-90908477D01*
X128509219Y-90845220D01*
X128691610Y-90752287D01*
X128790022Y-90680787D01*
X128857213Y-90631971D01*
X128857215Y-90631968D01*
X128857219Y-90631966D01*
X129001966Y-90487219D01*
X129001968Y-90487215D01*
X129001971Y-90487213D01*
X129089867Y-90366232D01*
X129122287Y-90321610D01*
X129215220Y-90139219D01*
X129257569Y-90008881D01*
X129297007Y-89951207D01*
X129361366Y-89924009D01*
X129430212Y-89935924D01*
X129481688Y-89983168D01*
X129499500Y-90047201D01*
X129499500Y-138996249D01*
X129499274Y-139003736D01*
X129481728Y-139293794D01*
X129479923Y-139308659D01*
X129428219Y-139590798D01*
X129424635Y-139605336D01*
X129339306Y-139879167D01*
X129333997Y-139893168D01*
X129216275Y-140154736D01*
X129209316Y-140167995D01*
X129060928Y-140413459D01*
X129052422Y-140425782D01*
X128875526Y-140651573D01*
X128865596Y-140662781D01*
X128662781Y-140865596D01*
X128651573Y-140875526D01*
X128425782Y-141052422D01*
X128413459Y-141060928D01*
X128167995Y-141209316D01*
X128154736Y-141216275D01*
X127893168Y-141333997D01*
X127879167Y-141339306D01*
X127605336Y-141424635D01*
X127590798Y-141428219D01*
X127308659Y-141479923D01*
X127293794Y-141481728D01*
X127003736Y-141499274D01*
X126996249Y-141499500D01*
X103003751Y-141499500D01*
X102996264Y-141499274D01*
X102706205Y-141481728D01*
X102691340Y-141479923D01*
X102409201Y-141428219D01*
X102394663Y-141424635D01*
X102120832Y-141339306D01*
X102106831Y-141333997D01*
X101845263Y-141216275D01*
X101832004Y-141209316D01*
X101586540Y-141060928D01*
X101574217Y-141052422D01*
X101348426Y-140875526D01*
X101337218Y-140865596D01*
X101134403Y-140662781D01*
X101124473Y-140651573D01*
X100947573Y-140425776D01*
X100939075Y-140413465D01*
X100790680Y-140167989D01*
X100783727Y-140154743D01*
X100666000Y-139893163D01*
X100660693Y-139879167D01*
X100575364Y-139605336D01*
X100571780Y-139590798D01*
X100520076Y-139308659D01*
X100518271Y-139293794D01*
X100500726Y-139003736D01*
X100500500Y-138996249D01*
X100500500Y-134797202D01*
X118960000Y-134797202D01*
X118960000Y-135300000D01*
X119879670Y-135300000D01*
X119859925Y-135319745D01*
X119810556Y-135405255D01*
X119785000Y-135500630D01*
X119785000Y-135599370D01*
X119810556Y-135694745D01*
X119859925Y-135780255D01*
X119879670Y-135800000D01*
X118960001Y-135800000D01*
X118960001Y-136302798D01*
X118974963Y-136435602D01*
X118974965Y-136435612D01*
X119033887Y-136603999D01*
X119128797Y-136755050D01*
X119254949Y-136881202D01*
X119406001Y-136976112D01*
X119406000Y-136976112D01*
X119574387Y-137035034D01*
X119574397Y-137035036D01*
X119707204Y-137049999D01*
X119909999Y-137049999D01*
X119910000Y-137049998D01*
X119910000Y-135830330D01*
X119929745Y-135850075D01*
X120015255Y-135899444D01*
X120110630Y-135925000D01*
X120209370Y-135925000D01*
X120304745Y-135899444D01*
X120390255Y-135850075D01*
X120410000Y-135830330D01*
X120410000Y-137049999D01*
X120612791Y-137049999D01*
X120612798Y-137049998D01*
X120745602Y-137035036D01*
X120745612Y-137035034D01*
X120913999Y-136976112D01*
X121065050Y-136881202D01*
X121065053Y-136881199D01*
X121191564Y-136754689D01*
X121252887Y-136721204D01*
X121322579Y-136726188D01*
X121366926Y-136754689D01*
X121377927Y-136765690D01*
X121530801Y-136876760D01*
X121610347Y-136917290D01*
X121699163Y-136962545D01*
X121699165Y-136962545D01*
X121699168Y-136962547D01*
X121740917Y-136976112D01*
X121878881Y-137020940D01*
X122065514Y-137050500D01*
X122065519Y-137050500D01*
X122254486Y-137050500D01*
X122441118Y-137020940D01*
X122620832Y-136962547D01*
X122789199Y-136876760D01*
X122942073Y-136765690D01*
X123072319Y-136635444D01*
X123133642Y-136601959D01*
X123203334Y-136606943D01*
X123247681Y-136635444D01*
X123377927Y-136765690D01*
X123530801Y-136876760D01*
X123610347Y-136917290D01*
X123699163Y-136962545D01*
X123699165Y-136962545D01*
X123699168Y-136962547D01*
X123740917Y-136976112D01*
X123878881Y-137020940D01*
X124065514Y-137050500D01*
X124065519Y-137050500D01*
X124254486Y-137050500D01*
X124441118Y-137020940D01*
X124620832Y-136962547D01*
X124789199Y-136876760D01*
X124942073Y-136765690D01*
X125075690Y-136632073D01*
X125186760Y-136479199D01*
X125272547Y-136310832D01*
X125330940Y-136131118D01*
X125360500Y-135944486D01*
X125360500Y-135155513D01*
X125330940Y-134968881D01*
X125272545Y-134789163D01*
X125186759Y-134620800D01*
X125075690Y-134467927D01*
X124942073Y-134334310D01*
X124789199Y-134223240D01*
X124780479Y-134218797D01*
X124620836Y-134137454D01*
X124441118Y-134079059D01*
X124254486Y-134049500D01*
X124254481Y-134049500D01*
X124065519Y-134049500D01*
X124065514Y-134049500D01*
X123878881Y-134079059D01*
X123699163Y-134137454D01*
X123530800Y-134223240D01*
X123443579Y-134286610D01*
X123377927Y-134334310D01*
X123377925Y-134334312D01*
X123377924Y-134334312D01*
X123247681Y-134464556D01*
X123186358Y-134498041D01*
X123116666Y-134493057D01*
X123072319Y-134464556D01*
X122942075Y-134334312D01*
X122942073Y-134334310D01*
X122789199Y-134223240D01*
X122780479Y-134218797D01*
X122620836Y-134137454D01*
X122441118Y-134079059D01*
X122254486Y-134049500D01*
X122254481Y-134049500D01*
X122065519Y-134049500D01*
X122065514Y-134049500D01*
X121878881Y-134079059D01*
X121699163Y-134137454D01*
X121530800Y-134223240D01*
X121443579Y-134286610D01*
X121377927Y-134334310D01*
X121377925Y-134334312D01*
X121377922Y-134334314D01*
X121366923Y-134345313D01*
X121305599Y-134378796D01*
X121235907Y-134373809D01*
X121191564Y-134345311D01*
X121065049Y-134218797D01*
X121065050Y-134218797D01*
X120913998Y-134123887D01*
X120913999Y-134123887D01*
X120745612Y-134064965D01*
X120745602Y-134064963D01*
X120612797Y-134050000D01*
X120410000Y-134050000D01*
X120410000Y-135269670D01*
X120390255Y-135249925D01*
X120304745Y-135200556D01*
X120209370Y-135175000D01*
X120110630Y-135175000D01*
X120015255Y-135200556D01*
X119929745Y-135249925D01*
X119910000Y-135269670D01*
X119910000Y-134050000D01*
X119707207Y-134050000D01*
X119707201Y-134050001D01*
X119574397Y-134064963D01*
X119574387Y-134064965D01*
X119406000Y-134123887D01*
X119254949Y-134218797D01*
X119128797Y-134344949D01*
X119033887Y-134496000D01*
X118974965Y-134664387D01*
X118974963Y-134664397D01*
X118960000Y-134797202D01*
X100500500Y-134797202D01*
X100500500Y-129692135D01*
X101759500Y-129692135D01*
X101759500Y-131587870D01*
X101759501Y-131587876D01*
X101765908Y-131647483D01*
X101816202Y-131782328D01*
X101816206Y-131782335D01*
X101902452Y-131897544D01*
X101902455Y-131897547D01*
X102017664Y-131983793D01*
X102017671Y-131983797D01*
X102152517Y-132034091D01*
X102152516Y-132034091D01*
X102159444Y-132034835D01*
X102212127Y-132040500D01*
X104107872Y-132040499D01*
X104167483Y-132034091D01*
X104302331Y-131983796D01*
X104417546Y-131897546D01*
X104503796Y-131782331D01*
X104554091Y-131647483D01*
X104560500Y-131587873D01*
X104560499Y-129692135D01*
X105759500Y-129692135D01*
X105759500Y-131587870D01*
X105759501Y-131587876D01*
X105765908Y-131647483D01*
X105816202Y-131782328D01*
X105816206Y-131782335D01*
X105902452Y-131897544D01*
X105902455Y-131897547D01*
X106017664Y-131983793D01*
X106017671Y-131983797D01*
X106152517Y-132034091D01*
X106152516Y-132034091D01*
X106159444Y-132034835D01*
X106212127Y-132040500D01*
X108107872Y-132040499D01*
X108167483Y-132034091D01*
X108302331Y-131983796D01*
X108417546Y-131897546D01*
X108503796Y-131782331D01*
X108554091Y-131647483D01*
X108560500Y-131587873D01*
X108560499Y-129692128D01*
X108554091Y-129632517D01*
X108503884Y-129497906D01*
X108503797Y-129497671D01*
X108503793Y-129497664D01*
X108417547Y-129382455D01*
X108417544Y-129382452D01*
X108302335Y-129296206D01*
X108302328Y-129296202D01*
X108167482Y-129245908D01*
X108167483Y-129245908D01*
X108107883Y-129239501D01*
X108107881Y-129239500D01*
X108107873Y-129239500D01*
X108107864Y-129239500D01*
X106212129Y-129239500D01*
X106212123Y-129239501D01*
X106152516Y-129245908D01*
X106017671Y-129296202D01*
X106017664Y-129296206D01*
X105902455Y-129382452D01*
X105902452Y-129382455D01*
X105816206Y-129497664D01*
X105816202Y-129497671D01*
X105765908Y-129632517D01*
X105759501Y-129692116D01*
X105759501Y-129692123D01*
X105759500Y-129692135D01*
X104560499Y-129692135D01*
X104560499Y-129692128D01*
X104554091Y-129632517D01*
X104503884Y-129497906D01*
X104503797Y-129497671D01*
X104503793Y-129497664D01*
X104417547Y-129382455D01*
X104417544Y-129382452D01*
X104302335Y-129296206D01*
X104302328Y-129296202D01*
X104167482Y-129245908D01*
X104167483Y-129245908D01*
X104107883Y-129239501D01*
X104107881Y-129239500D01*
X104107873Y-129239500D01*
X104107864Y-129239500D01*
X102212129Y-129239500D01*
X102212123Y-129239501D01*
X102152516Y-129245908D01*
X102017671Y-129296202D01*
X102017664Y-129296206D01*
X101902455Y-129382452D01*
X101902452Y-129382455D01*
X101816206Y-129497664D01*
X101816202Y-129497671D01*
X101765908Y-129632517D01*
X101759501Y-129692116D01*
X101759501Y-129692123D01*
X101759500Y-129692135D01*
X100500500Y-129692135D01*
X100500500Y-122770000D01*
X101782145Y-122770000D01*
X102784722Y-122770000D01*
X102740667Y-122846306D01*
X102710000Y-122960756D01*
X102710000Y-123079244D01*
X102740667Y-123193694D01*
X102784722Y-123270000D01*
X101782145Y-123270000D01*
X101794473Y-123347835D01*
X101794473Y-123347838D01*
X101862567Y-123557410D01*
X101962613Y-123753760D01*
X102092142Y-123932041D01*
X102247958Y-124087857D01*
X102426239Y-124217386D01*
X102622589Y-124317432D01*
X102832163Y-124385526D01*
X102909999Y-124397854D01*
X102910000Y-124397854D01*
X102910000Y-123395277D01*
X102986306Y-123439333D01*
X103100756Y-123470000D01*
X103219244Y-123470000D01*
X103333694Y-123439333D01*
X103410000Y-123395277D01*
X103410000Y-124397854D01*
X103487834Y-124385526D01*
X103487837Y-124385526D01*
X103697410Y-124317432D01*
X103893760Y-124217386D01*
X104072041Y-124087857D01*
X104227857Y-123932041D01*
X104357386Y-123753760D01*
X104457432Y-123557410D01*
X104525526Y-123347838D01*
X104525526Y-123347835D01*
X104537855Y-123270000D01*
X103535278Y-123270000D01*
X103579333Y-123193694D01*
X103610000Y-123079244D01*
X103610000Y-122960756D01*
X103579333Y-122846306D01*
X103535278Y-122770000D01*
X104537855Y-122770000D01*
X104525526Y-122692164D01*
X104525526Y-122692161D01*
X104457432Y-122482589D01*
X104357386Y-122286239D01*
X104227857Y-122107958D01*
X104072041Y-121952142D01*
X103893760Y-121822613D01*
X103697410Y-121722567D01*
X103644442Y-121705357D01*
X103586766Y-121665920D01*
X103559568Y-121601561D01*
X103571483Y-121532715D01*
X103618727Y-121481239D01*
X103644445Y-121469494D01*
X103659030Y-121464755D01*
X103841349Y-121371859D01*
X103885921Y-121339474D01*
X103206447Y-120660000D01*
X103212661Y-120660000D01*
X103314394Y-120632741D01*
X103405606Y-120580080D01*
X103480080Y-120505606D01*
X103532741Y-120414394D01*
X103560000Y-120312661D01*
X103560000Y-120306447D01*
X104239474Y-120985921D01*
X104271859Y-120941349D01*
X104364755Y-120759031D01*
X104427990Y-120564417D01*
X104460000Y-120362317D01*
X104460000Y-120157682D01*
X104427990Y-119955582D01*
X104364755Y-119760968D01*
X104271859Y-119578650D01*
X104239474Y-119534077D01*
X104239474Y-119534076D01*
X103560000Y-120213551D01*
X103560000Y-120207339D01*
X103532741Y-120105606D01*
X103480080Y-120014394D01*
X103405606Y-119939920D01*
X103314394Y-119887259D01*
X103212661Y-119860000D01*
X103206446Y-119860000D01*
X103885922Y-119180524D01*
X103885921Y-119180523D01*
X103841359Y-119148147D01*
X103841350Y-119148141D01*
X103659031Y-119055244D01*
X103464417Y-118992009D01*
X103262317Y-118960000D01*
X103057683Y-118960000D01*
X102855582Y-118992009D01*
X102660968Y-119055244D01*
X102478644Y-119148143D01*
X102434077Y-119180523D01*
X102434077Y-119180524D01*
X103113554Y-119860000D01*
X103107339Y-119860000D01*
X103005606Y-119887259D01*
X102914394Y-119939920D01*
X102839920Y-120014394D01*
X102787259Y-120105606D01*
X102760000Y-120207339D01*
X102760000Y-120213553D01*
X102080524Y-119534077D01*
X102080523Y-119534077D01*
X102048143Y-119578644D01*
X101955244Y-119760968D01*
X101892009Y-119955582D01*
X101860000Y-120157682D01*
X101860000Y-120362317D01*
X101892009Y-120564417D01*
X101955244Y-120759031D01*
X102048141Y-120941350D01*
X102048147Y-120941359D01*
X102080523Y-120985921D01*
X102080524Y-120985922D01*
X102760000Y-120306446D01*
X102760000Y-120312661D01*
X102787259Y-120414394D01*
X102839920Y-120505606D01*
X102914394Y-120580080D01*
X103005606Y-120632741D01*
X103107339Y-120660000D01*
X103113553Y-120660000D01*
X102434076Y-121339474D01*
X102478650Y-121371859D01*
X102660968Y-121464754D01*
X102675555Y-121469494D01*
X102733231Y-121508931D01*
X102760431Y-121573289D01*
X102748517Y-121642136D01*
X102701274Y-121693612D01*
X102675558Y-121705357D01*
X102622588Y-121722568D01*
X102426239Y-121822613D01*
X102247958Y-121952142D01*
X102092142Y-122107958D01*
X101962613Y-122286239D01*
X101862567Y-122482589D01*
X101794473Y-122692161D01*
X101794473Y-122692164D01*
X101782145Y-122770000D01*
X100500500Y-122770000D01*
X100500500Y-96888872D01*
X107199500Y-96888872D01*
X107199500Y-97151127D01*
X107226123Y-97353339D01*
X107233730Y-97411116D01*
X107301602Y-97664418D01*
X107301605Y-97664428D01*
X107401953Y-97906690D01*
X107401958Y-97906700D01*
X107533075Y-98133803D01*
X107692718Y-98341851D01*
X107692726Y-98341860D01*
X107878140Y-98527274D01*
X107878148Y-98527281D01*
X108086196Y-98686924D01*
X108313299Y-98818041D01*
X108313309Y-98818046D01*
X108555571Y-98918394D01*
X108555581Y-98918398D01*
X108808884Y-98986270D01*
X109068880Y-99020500D01*
X109068887Y-99020500D01*
X109331113Y-99020500D01*
X109331120Y-99020500D01*
X109591116Y-98986270D01*
X109844419Y-98918398D01*
X110086697Y-98818043D01*
X110313803Y-98686924D01*
X110521851Y-98527282D01*
X110521855Y-98527277D01*
X110521860Y-98527274D01*
X110707274Y-98341860D01*
X110707277Y-98341855D01*
X110707282Y-98341851D01*
X110866924Y-98133803D01*
X110998043Y-97906697D01*
X111098398Y-97664419D01*
X111166270Y-97411116D01*
X111200500Y-97151120D01*
X111200500Y-96888880D01*
X111166270Y-96628884D01*
X111098398Y-96375581D01*
X111098394Y-96375571D01*
X110998046Y-96133309D01*
X110998041Y-96133299D01*
X110866924Y-95906196D01*
X110707281Y-95698148D01*
X110707274Y-95698140D01*
X110521860Y-95512726D01*
X110521851Y-95512718D01*
X110313803Y-95353075D01*
X110086700Y-95221958D01*
X110086690Y-95221953D01*
X109844428Y-95121605D01*
X109844421Y-95121603D01*
X109844419Y-95121602D01*
X109591116Y-95053730D01*
X109533339Y-95046123D01*
X109331127Y-95019500D01*
X109331120Y-95019500D01*
X109068880Y-95019500D01*
X109068872Y-95019500D01*
X108837772Y-95049926D01*
X108808884Y-95053730D01*
X108555581Y-95121602D01*
X108555571Y-95121605D01*
X108313309Y-95221953D01*
X108313299Y-95221958D01*
X108086196Y-95353075D01*
X107878148Y-95512718D01*
X107692718Y-95698148D01*
X107533075Y-95906196D01*
X107401958Y-96133299D01*
X107401953Y-96133309D01*
X107301605Y-96375571D01*
X107301602Y-96375581D01*
X107233730Y-96628885D01*
X107199500Y-96888872D01*
X100500500Y-96888872D01*
X100500500Y-89537648D01*
X101089500Y-89537648D01*
X101089500Y-89742351D01*
X101121522Y-89944534D01*
X101184781Y-90139223D01*
X101277715Y-90321613D01*
X101398028Y-90487213D01*
X101542786Y-90631971D01*
X101697749Y-90744556D01*
X101708390Y-90752287D01*
X101801671Y-90799816D01*
X101890776Y-90845218D01*
X101890778Y-90845218D01*
X101890781Y-90845220D01*
X101995137Y-90879127D01*
X102085465Y-90908477D01*
X102179224Y-90923327D01*
X102287648Y-90940500D01*
X102287649Y-90940500D01*
X102492351Y-90940500D01*
X102492352Y-90940500D01*
X102694534Y-90908477D01*
X102889219Y-90845220D01*
X103071610Y-90752287D01*
X103170022Y-90680787D01*
X103237213Y-90631971D01*
X103237215Y-90631968D01*
X103237219Y-90631966D01*
X103381966Y-90487219D01*
X103381968Y-90487215D01*
X103381971Y-90487213D01*
X103469867Y-90366232D01*
X103502287Y-90321610D01*
X103595220Y-90139219D01*
X103658477Y-89944534D01*
X103690500Y-89742352D01*
X103690500Y-89537648D01*
X108709500Y-89537648D01*
X108709500Y-89742351D01*
X108741522Y-89944534D01*
X108804781Y-90139223D01*
X108897715Y-90321613D01*
X109018028Y-90487213D01*
X109162786Y-90631971D01*
X109317749Y-90744556D01*
X109328390Y-90752287D01*
X109421671Y-90799816D01*
X109510776Y-90845218D01*
X109510778Y-90845218D01*
X109510781Y-90845220D01*
X109615137Y-90879127D01*
X109705465Y-90908477D01*
X109799224Y-90923327D01*
X109907648Y-90940500D01*
X109907649Y-90940500D01*
X110112351Y-90940500D01*
X110112352Y-90940500D01*
X110314534Y-90908477D01*
X110509219Y-90845220D01*
X110691610Y-90752287D01*
X110790022Y-90680787D01*
X110857213Y-90631971D01*
X110857215Y-90631968D01*
X110857219Y-90631966D01*
X111001966Y-90487219D01*
X111001968Y-90487215D01*
X111001971Y-90487213D01*
X111089867Y-90366232D01*
X111122287Y-90321610D01*
X111215220Y-90139219D01*
X111278477Y-89944534D01*
X111310500Y-89742352D01*
X111310500Y-89537648D01*
X111278477Y-89335466D01*
X111275567Y-89326511D01*
X111245118Y-89232798D01*
X111215220Y-89140781D01*
X111215218Y-89140778D01*
X111215218Y-89140776D01*
X111181503Y-89074607D01*
X111122287Y-88958390D01*
X111089867Y-88913767D01*
X111001971Y-88792786D01*
X110857213Y-88648028D01*
X110691613Y-88527715D01*
X110691612Y-88527714D01*
X110691610Y-88527713D01*
X110634653Y-88498691D01*
X110509223Y-88434781D01*
X110314534Y-88371522D01*
X110122302Y-88341076D01*
X110112352Y-88339500D01*
X109907648Y-88339500D01*
X109897698Y-88341076D01*
X109705465Y-88371522D01*
X109510776Y-88434781D01*
X109328386Y-88527715D01*
X109162786Y-88648028D01*
X109018028Y-88792786D01*
X108897715Y-88958386D01*
X108804781Y-89140776D01*
X108741522Y-89335465D01*
X108709500Y-89537648D01*
X103690500Y-89537648D01*
X103658477Y-89335466D01*
X103653825Y-89321151D01*
X103651832Y-89251312D01*
X103684075Y-89195158D01*
X104982416Y-87896819D01*
X105043739Y-87863334D01*
X105070097Y-87860500D01*
X113859903Y-87860500D01*
X113926942Y-87880185D01*
X113947584Y-87896819D01*
X114193674Y-88142910D01*
X114227159Y-88204233D01*
X114222175Y-88273925D01*
X114180303Y-88329858D01*
X114114839Y-88354275D01*
X114049698Y-88341076D01*
X113921236Y-88275620D01*
X113921233Y-88275619D01*
X113745266Y-88218445D01*
X113602973Y-88195908D01*
X113562515Y-88189500D01*
X113377487Y-88189500D01*
X113337029Y-88195908D01*
X113194735Y-88218445D01*
X113018768Y-88275619D01*
X113018765Y-88275620D01*
X112853904Y-88359622D01*
X112798807Y-88399653D01*
X112704214Y-88468379D01*
X112704212Y-88468381D01*
X112704211Y-88468381D01*
X112573382Y-88599210D01*
X112573382Y-88599211D01*
X112573380Y-88599213D01*
X112526673Y-88663499D01*
X112464623Y-88748903D01*
X112380621Y-88913764D01*
X112380620Y-88913767D01*
X112323446Y-89089734D01*
X112294501Y-89272486D01*
X112294501Y-90007513D01*
X112323446Y-90190265D01*
X112380620Y-90366232D01*
X112380621Y-90366235D01*
X112464623Y-90531096D01*
X112573380Y-90680787D01*
X112704214Y-90811621D01*
X112853905Y-90920378D01*
X112917103Y-90952579D01*
X113018765Y-91004379D01*
X113018768Y-91004380D01*
X113084401Y-91025705D01*
X113194737Y-91061555D01*
X113377487Y-91090500D01*
X113377488Y-91090500D01*
X113562514Y-91090500D01*
X113562515Y-91090500D01*
X113745265Y-91061555D01*
X113921236Y-91004379D01*
X114086097Y-90920378D01*
X114235788Y-90811621D01*
X114247320Y-90800089D01*
X114247818Y-90799816D01*
X114248095Y-90799321D01*
X114278426Y-90783103D01*
X114308643Y-90766604D01*
X114309209Y-90766644D01*
X114309710Y-90766377D01*
X114343981Y-90769131D01*
X114378335Y-90771588D01*
X114378979Y-90771943D01*
X114379355Y-90771974D01*
X114381175Y-90773155D01*
X114410182Y-90789161D01*
X114416798Y-90794205D01*
X114434214Y-90811621D01*
X114549568Y-90895430D01*
X114550682Y-90896280D01*
X114570560Y-90923327D01*
X114591052Y-90949900D01*
X114591381Y-90951656D01*
X114592060Y-90952579D01*
X114592312Y-90956614D01*
X114599501Y-90994889D01*
X114599501Y-110033329D01*
X114599500Y-110033347D01*
X114599500Y-110199053D01*
X114599499Y-110199053D01*
X114640424Y-110351784D01*
X114669359Y-110401899D01*
X114669360Y-110401903D01*
X114669361Y-110401903D01*
X114719480Y-110488713D01*
X114719482Y-110488716D01*
X114838350Y-110607584D01*
X114838356Y-110607589D01*
X117098586Y-112867819D01*
X117132071Y-112929142D01*
X117127087Y-112998834D01*
X117085215Y-113054767D01*
X117019751Y-113079184D01*
X117010905Y-113079500D01*
X115790943Y-113079500D01*
X115638215Y-113120423D01*
X115605661Y-113139219D01*
X115605660Y-113139219D01*
X115501288Y-113199477D01*
X115501283Y-113199481D01*
X115389479Y-113311286D01*
X111434203Y-117266561D01*
X111372880Y-117300046D01*
X111308204Y-117296811D01*
X111283585Y-117288812D01*
X111237953Y-117273985D01*
X111129087Y-117256742D01*
X111020223Y-117239500D01*
X110799779Y-117239500D01*
X110727202Y-117250995D01*
X110582048Y-117273985D01*
X110372397Y-117342103D01*
X110372394Y-117342104D01*
X110175975Y-117442187D01*
X109997385Y-117571939D01*
X109931578Y-117595419D01*
X109863525Y-117579593D01*
X109814830Y-117529487D01*
X109800500Y-117471621D01*
X109800500Y-115128256D01*
X109820185Y-115061217D01*
X109868204Y-115017772D01*
X109961538Y-114970217D01*
X110146566Y-114835786D01*
X110308286Y-114674066D01*
X110369683Y-114589559D01*
X110425012Y-114546896D01*
X110494625Y-114540917D01*
X110556420Y-114573523D01*
X110570314Y-114589556D01*
X110631714Y-114674066D01*
X110793434Y-114835786D01*
X110978462Y-114970217D01*
X111182242Y-115074048D01*
X111182244Y-115074049D01*
X111399751Y-115144721D01*
X111399752Y-115144721D01*
X111399755Y-115144722D01*
X111625646Y-115180500D01*
X111625647Y-115180500D01*
X111854353Y-115180500D01*
X111854354Y-115180500D01*
X112080245Y-115144722D01*
X112080248Y-115144721D01*
X112080249Y-115144721D01*
X112297755Y-115074049D01*
X112297755Y-115074048D01*
X112297758Y-115074048D01*
X112501538Y-114970217D01*
X112686566Y-114835786D01*
X112848286Y-114674066D01*
X112982717Y-114489038D01*
X113086548Y-114285258D01*
X113157222Y-114067745D01*
X113193000Y-113841854D01*
X113193000Y-113518146D01*
X113157222Y-113292255D01*
X113157221Y-113292251D01*
X113157221Y-113292250D01*
X113086549Y-113074744D01*
X113047871Y-112998834D01*
X112982717Y-112870962D01*
X112848286Y-112685934D01*
X112686566Y-112524214D01*
X112501538Y-112389783D01*
X112394933Y-112335465D01*
X112297755Y-112285950D01*
X112080248Y-112215278D01*
X111894812Y-112185908D01*
X111854354Y-112179500D01*
X111625646Y-112179500D01*
X111585188Y-112185908D01*
X111399753Y-112215278D01*
X111399750Y-112215278D01*
X111182244Y-112285950D01*
X110978461Y-112389783D01*
X110893231Y-112451707D01*
X110793434Y-112524214D01*
X110793432Y-112524216D01*
X110793431Y-112524216D01*
X110631715Y-112685932D01*
X110570318Y-112770438D01*
X110514987Y-112813103D01*
X110445374Y-112819082D01*
X110383579Y-112786476D01*
X110369682Y-112770438D01*
X110349275Y-112742351D01*
X110308286Y-112685934D01*
X110146566Y-112524214D01*
X109961538Y-112389783D01*
X109854933Y-112335465D01*
X109757755Y-112285950D01*
X109540248Y-112215278D01*
X109354812Y-112185908D01*
X109314354Y-112179500D01*
X109085646Y-112179500D01*
X109045188Y-112185908D01*
X108859751Y-112215278D01*
X108724278Y-112259295D01*
X108654437Y-112261290D01*
X108598280Y-112229045D01*
X107847591Y-111478356D01*
X107847589Y-111478353D01*
X107728718Y-111359482D01*
X107728717Y-111359481D01*
X107641905Y-111309361D01*
X107641905Y-111309360D01*
X107641901Y-111309359D01*
X107591786Y-111280424D01*
X107439058Y-111239500D01*
X107280944Y-111239500D01*
X107273348Y-111239500D01*
X107273332Y-111239501D01*
X103880939Y-111239501D01*
X103840018Y-111250465D01*
X103840018Y-111250466D01*
X103802750Y-111260452D01*
X103728213Y-111280424D01*
X103728208Y-111280427D01*
X103584244Y-111363544D01*
X103583068Y-111361507D01*
X103529118Y-111382353D01*
X103480507Y-111376713D01*
X103464531Y-111371522D01*
X103309220Y-111346923D01*
X103262352Y-111339500D01*
X103057648Y-111339500D01*
X103033329Y-111343351D01*
X102855465Y-111371522D01*
X102660776Y-111434781D01*
X102478386Y-111527715D01*
X102312786Y-111648028D01*
X102168028Y-111792786D01*
X102047715Y-111958386D01*
X101954781Y-112140776D01*
X101891522Y-112335465D01*
X101859500Y-112537648D01*
X101859500Y-112742351D01*
X101891522Y-112944534D01*
X101954781Y-113139223D01*
X101985485Y-113199481D01*
X102044143Y-113314604D01*
X102047715Y-113321613D01*
X102168028Y-113487213D01*
X102312786Y-113631971D01*
X102467749Y-113744556D01*
X102478390Y-113752287D01*
X102594607Y-113811503D01*
X102660776Y-113845218D01*
X102660778Y-113845218D01*
X102660781Y-113845220D01*
X102765137Y-113879127D01*
X102855465Y-113908477D01*
X102956557Y-113924488D01*
X103057648Y-113940500D01*
X103057649Y-113940500D01*
X103262351Y-113940500D01*
X103262352Y-113940500D01*
X103464534Y-113908477D01*
X103659219Y-113845220D01*
X103841610Y-113752287D01*
X103934590Y-113684732D01*
X104007213Y-113631971D01*
X104007215Y-113631968D01*
X104007219Y-113631966D01*
X104151966Y-113487219D01*
X104151968Y-113487215D01*
X104151971Y-113487213D01*
X104227032Y-113383898D01*
X104272287Y-113321610D01*
X104365220Y-113139219D01*
X104428477Y-112944534D01*
X104460500Y-112742352D01*
X104460500Y-112564501D01*
X104480185Y-112497462D01*
X104532989Y-112451707D01*
X104584500Y-112440501D01*
X105089556Y-112440501D01*
X105156595Y-112460186D01*
X105202350Y-112512990D01*
X105212845Y-112577754D01*
X105207000Y-112632127D01*
X105207000Y-112632128D01*
X105207000Y-112632132D01*
X105207000Y-114727870D01*
X105207001Y-114727876D01*
X105213408Y-114787483D01*
X105263702Y-114922328D01*
X105263706Y-114922335D01*
X105349952Y-115037544D01*
X105349955Y-115037547D01*
X105465164Y-115123793D01*
X105465171Y-115123797D01*
X105600017Y-115174091D01*
X105600016Y-115174091D01*
X105606944Y-115174835D01*
X105659627Y-115180500D01*
X107660372Y-115180499D01*
X107719983Y-115174091D01*
X107854831Y-115123796D01*
X107970046Y-115037546D01*
X108056296Y-114922331D01*
X108066690Y-114894460D01*
X108108560Y-114838527D01*
X108174023Y-114814108D01*
X108242297Y-114828958D01*
X108255746Y-114837465D01*
X108370640Y-114920941D01*
X108438457Y-114970214D01*
X108438459Y-114970215D01*
X108438462Y-114970217D01*
X108531795Y-115017772D01*
X108582590Y-115065745D01*
X108599500Y-115128256D01*
X108599500Y-120679902D01*
X108579815Y-120746941D01*
X108563181Y-120767583D01*
X107684202Y-121646561D01*
X107622879Y-121680046D01*
X107558203Y-121676811D01*
X107524684Y-121665920D01*
X107487952Y-121653985D01*
X107379086Y-121636742D01*
X107270222Y-121619500D01*
X107049778Y-121619500D01*
X106977201Y-121630995D01*
X106832047Y-121653985D01*
X106622396Y-121722103D01*
X106622393Y-121722104D01*
X106425974Y-121822187D01*
X106247641Y-121951752D01*
X106247636Y-121951756D01*
X106091756Y-122107636D01*
X106091752Y-122107641D01*
X105962187Y-122285974D01*
X105862104Y-122482393D01*
X105862103Y-122482396D01*
X105793985Y-122692047D01*
X105759500Y-122909778D01*
X105759500Y-123130221D01*
X105793985Y-123347952D01*
X105862103Y-123557603D01*
X105862104Y-123557606D01*
X105930122Y-123691096D01*
X105956318Y-123742508D01*
X105962187Y-123754025D01*
X106091752Y-123932358D01*
X106091756Y-123932363D01*
X106247636Y-124088243D01*
X106247641Y-124088247D01*
X106403192Y-124201260D01*
X106425978Y-124217815D01*
X106554375Y-124283237D01*
X106622393Y-124317895D01*
X106622396Y-124317896D01*
X106727221Y-124351955D01*
X106832049Y-124386015D01*
X107049778Y-124420500D01*
X107049779Y-124420500D01*
X107270221Y-124420500D01*
X107270222Y-124420500D01*
X107487951Y-124386015D01*
X107697606Y-124317895D01*
X107894022Y-124217815D01*
X108072365Y-124088242D01*
X108228242Y-123932365D01*
X108357815Y-123754022D01*
X108457895Y-123557606D01*
X108526015Y-123347951D01*
X108560500Y-123130222D01*
X108560500Y-122909778D01*
X108526015Y-122692049D01*
X108503188Y-122621794D01*
X108501193Y-122551953D01*
X108533436Y-122495797D01*
X109680520Y-121348716D01*
X109759577Y-121211784D01*
X109800501Y-121059057D01*
X109800501Y-120900942D01*
X109800501Y-120893347D01*
X109800500Y-120893329D01*
X109800500Y-119808378D01*
X109820185Y-119741339D01*
X109872989Y-119695584D01*
X109942147Y-119685640D01*
X109997385Y-119708060D01*
X110070210Y-119760970D01*
X110175979Y-119837815D01*
X110304376Y-119903237D01*
X110372394Y-119937895D01*
X110372397Y-119937896D01*
X110426843Y-119955586D01*
X110582050Y-120006015D01*
X110799779Y-120040500D01*
X110799780Y-120040500D01*
X111020222Y-120040500D01*
X111020223Y-120040500D01*
X111237952Y-120006015D01*
X111447607Y-119937895D01*
X111644023Y-119837815D01*
X111822366Y-119708242D01*
X111843401Y-119687206D01*
X111904721Y-119653721D01*
X111974413Y-119658704D01*
X112030348Y-119700575D01*
X112047264Y-119731554D01*
X112066201Y-119782328D01*
X112066205Y-119782335D01*
X112152451Y-119897544D01*
X112152454Y-119897547D01*
X112267663Y-119983793D01*
X112267670Y-119983797D01*
X112402516Y-120034091D01*
X112402515Y-120034091D01*
X112409443Y-120034835D01*
X112462126Y-120040500D01*
X114357871Y-120040499D01*
X114417482Y-120034091D01*
X114552330Y-119983796D01*
X114667545Y-119897546D01*
X114753795Y-119782331D01*
X114804090Y-119647483D01*
X114810499Y-119587873D01*
X114810498Y-118529778D01*
X115509501Y-118529778D01*
X115509501Y-118750221D01*
X115543986Y-118967952D01*
X115612104Y-119177603D01*
X115612105Y-119177606D01*
X115712188Y-119374025D01*
X115841753Y-119552358D01*
X115841757Y-119552363D01*
X115997637Y-119708243D01*
X115997642Y-119708247D01*
X116070210Y-119760970D01*
X116175979Y-119837815D01*
X116304376Y-119903237D01*
X116372394Y-119937895D01*
X116372397Y-119937896D01*
X116426843Y-119955586D01*
X116582050Y-120006015D01*
X116799779Y-120040500D01*
X116799780Y-120040500D01*
X117020222Y-120040500D01*
X117020223Y-120040500D01*
X117237952Y-120006015D01*
X117447607Y-119937895D01*
X117644023Y-119837815D01*
X117822366Y-119708242D01*
X117843401Y-119687206D01*
X117904721Y-119653721D01*
X117974413Y-119658704D01*
X118030348Y-119700575D01*
X118047264Y-119731554D01*
X118066201Y-119782328D01*
X118066205Y-119782335D01*
X118152451Y-119897544D01*
X118152454Y-119897547D01*
X118267663Y-119983793D01*
X118267670Y-119983797D01*
X118402516Y-120034091D01*
X118402515Y-120034091D01*
X118409443Y-120034835D01*
X118462126Y-120040500D01*
X120357871Y-120040499D01*
X120417482Y-120034091D01*
X120552330Y-119983796D01*
X120667545Y-119897546D01*
X120753795Y-119782331D01*
X120804090Y-119647483D01*
X120810499Y-119587873D01*
X120810498Y-117692128D01*
X120804090Y-117632517D01*
X120802702Y-117628796D01*
X120753796Y-117497671D01*
X120753792Y-117497664D01*
X120667546Y-117382455D01*
X120667543Y-117382452D01*
X120552334Y-117296206D01*
X120552327Y-117296202D01*
X120417481Y-117245908D01*
X120417482Y-117245908D01*
X120357882Y-117239501D01*
X120357880Y-117239500D01*
X120357872Y-117239500D01*
X120357863Y-117239500D01*
X118462128Y-117239500D01*
X118462122Y-117239501D01*
X118402515Y-117245908D01*
X118267670Y-117296202D01*
X118267663Y-117296206D01*
X118152454Y-117382452D01*
X118152451Y-117382455D01*
X118066205Y-117497664D01*
X118066202Y-117497669D01*
X118047264Y-117548446D01*
X118005392Y-117604379D01*
X117939928Y-117628796D01*
X117871655Y-117613944D01*
X117843401Y-117592793D01*
X117822364Y-117571756D01*
X117822359Y-117571752D01*
X117644026Y-117442187D01*
X117644025Y-117442186D01*
X117644023Y-117442185D01*
X117526792Y-117382452D01*
X117447607Y-117342104D01*
X117447604Y-117342103D01*
X117237953Y-117273985D01*
X117129087Y-117256742D01*
X117020223Y-117239500D01*
X116799779Y-117239500D01*
X116727202Y-117250995D01*
X116582048Y-117273985D01*
X116372397Y-117342103D01*
X116372394Y-117342104D01*
X116175975Y-117442187D01*
X115997642Y-117571752D01*
X115997637Y-117571756D01*
X115841757Y-117727636D01*
X115841753Y-117727641D01*
X115712188Y-117905974D01*
X115612105Y-118102393D01*
X115612104Y-118102396D01*
X115543986Y-118312047D01*
X115509501Y-118529778D01*
X114810498Y-118529778D01*
X114810498Y-117692128D01*
X114804090Y-117632517D01*
X114802702Y-117628796D01*
X114753796Y-117497671D01*
X114753792Y-117497664D01*
X114667546Y-117382455D01*
X114667543Y-117382452D01*
X114552334Y-117296206D01*
X114552327Y-117296202D01*
X114417481Y-117245908D01*
X114417482Y-117245908D01*
X114357882Y-117239501D01*
X114357880Y-117239500D01*
X114357872Y-117239500D01*
X114357864Y-117239500D01*
X113459097Y-117239500D01*
X113392058Y-117219815D01*
X113346303Y-117167011D01*
X113336359Y-117097853D01*
X113365384Y-117034297D01*
X113371416Y-117027819D01*
X116082417Y-114316819D01*
X116143740Y-114283334D01*
X116170098Y-114280500D01*
X117183003Y-114280500D01*
X117250042Y-114300185D01*
X117295797Y-114352989D01*
X117307003Y-114404500D01*
X117307003Y-114727876D01*
X117313410Y-114787483D01*
X117363704Y-114922328D01*
X117363708Y-114922335D01*
X117449954Y-115037544D01*
X117449957Y-115037547D01*
X117565166Y-115123793D01*
X117565173Y-115123797D01*
X117700019Y-115174091D01*
X117700018Y-115174091D01*
X117706946Y-115174835D01*
X117759629Y-115180500D01*
X119359904Y-115180499D01*
X119426943Y-115200184D01*
X119447585Y-115216818D01*
X122523181Y-118292414D01*
X122556666Y-118353737D01*
X122559500Y-118380095D01*
X122559500Y-121678164D01*
X122539815Y-121745203D01*
X122491796Y-121788648D01*
X122425976Y-121822185D01*
X122247641Y-121951752D01*
X122247636Y-121951756D01*
X122091756Y-122107636D01*
X122091752Y-122107641D01*
X121962187Y-122285974D01*
X121862104Y-122482393D01*
X121862103Y-122482396D01*
X121793985Y-122692047D01*
X121759500Y-122909778D01*
X121759500Y-123130221D01*
X121793985Y-123347952D01*
X121862103Y-123557603D01*
X121862104Y-123557606D01*
X121930122Y-123691096D01*
X121956318Y-123742508D01*
X121962187Y-123754025D01*
X122091752Y-123932358D01*
X122091756Y-123932363D01*
X122247636Y-124088243D01*
X122247641Y-124088247D01*
X122403192Y-124201260D01*
X122425978Y-124217815D01*
X122554375Y-124283237D01*
X122622393Y-124317895D01*
X122622396Y-124317896D01*
X122727221Y-124351955D01*
X122832049Y-124386015D01*
X123049778Y-124420500D01*
X123049779Y-124420500D01*
X123270221Y-124420500D01*
X123270222Y-124420500D01*
X123487951Y-124386015D01*
X123697606Y-124317895D01*
X123894022Y-124217815D01*
X124072365Y-124088242D01*
X124228242Y-123932365D01*
X124335183Y-123785172D01*
X124390511Y-123742508D01*
X124460124Y-123736529D01*
X124521920Y-123769134D01*
X124556277Y-123829973D01*
X124559500Y-123858059D01*
X124559500Y-126339902D01*
X124539815Y-126406941D01*
X124523181Y-126427583D01*
X122679481Y-128271282D01*
X122679479Y-128271285D01*
X122629361Y-128358094D01*
X122629359Y-128358096D01*
X122600425Y-128408209D01*
X122600424Y-128408210D01*
X122600423Y-128408215D01*
X122559499Y-128560943D01*
X122559499Y-128560945D01*
X122559499Y-128729046D01*
X122559500Y-128729059D01*
X122559500Y-129115500D01*
X122539815Y-129182539D01*
X122487011Y-129228294D01*
X122435501Y-129239500D01*
X122212130Y-129239500D01*
X122212123Y-129239501D01*
X122152516Y-129245908D01*
X122017671Y-129296202D01*
X122017664Y-129296206D01*
X121902455Y-129382452D01*
X121902452Y-129382455D01*
X121816206Y-129497664D01*
X121816202Y-129497671D01*
X121765908Y-129632517D01*
X121759501Y-129692116D01*
X121759501Y-129692123D01*
X121759500Y-129692135D01*
X121759500Y-131587870D01*
X121759501Y-131587876D01*
X121765908Y-131647483D01*
X121816202Y-131782328D01*
X121816206Y-131782335D01*
X121902452Y-131897544D01*
X121902455Y-131897547D01*
X122017664Y-131983793D01*
X122017671Y-131983797D01*
X122152517Y-132034091D01*
X122152516Y-132034091D01*
X122159444Y-132034835D01*
X122212127Y-132040500D01*
X124107872Y-132040499D01*
X124167483Y-132034091D01*
X124302331Y-131983796D01*
X124417546Y-131897546D01*
X124503796Y-131782331D01*
X124554091Y-131647483D01*
X124560500Y-131587873D01*
X124560499Y-130580756D01*
X124560499Y-129692155D01*
X125760000Y-129692155D01*
X125760000Y-130390000D01*
X126784722Y-130390000D01*
X126740667Y-130466306D01*
X126710000Y-130580756D01*
X126710000Y-130699244D01*
X126740667Y-130813694D01*
X126784722Y-130890000D01*
X125760000Y-130890000D01*
X125760000Y-131587844D01*
X125766401Y-131647372D01*
X125766403Y-131647379D01*
X125816645Y-131782086D01*
X125816649Y-131782093D01*
X125902809Y-131897187D01*
X125902812Y-131897190D01*
X126017906Y-131983350D01*
X126017913Y-131983354D01*
X126152620Y-132033596D01*
X126152627Y-132033598D01*
X126212155Y-132039999D01*
X126212172Y-132040000D01*
X126910000Y-132040000D01*
X126910000Y-131015277D01*
X126986306Y-131059333D01*
X127100756Y-131090000D01*
X127219244Y-131090000D01*
X127333694Y-131059333D01*
X127410000Y-131015277D01*
X127410000Y-132040000D01*
X128107828Y-132040000D01*
X128107844Y-132039999D01*
X128167372Y-132033598D01*
X128167379Y-132033596D01*
X128302086Y-131983354D01*
X128302093Y-131983350D01*
X128417187Y-131897190D01*
X128417190Y-131897187D01*
X128503350Y-131782093D01*
X128503354Y-131782086D01*
X128553596Y-131647379D01*
X128553598Y-131647372D01*
X128559999Y-131587844D01*
X128560000Y-131587827D01*
X128560000Y-130890000D01*
X127535278Y-130890000D01*
X127579333Y-130813694D01*
X127610000Y-130699244D01*
X127610000Y-130580756D01*
X127579333Y-130466306D01*
X127535278Y-130390000D01*
X128560000Y-130390000D01*
X128560000Y-129692172D01*
X128559999Y-129692155D01*
X128553598Y-129632627D01*
X128553596Y-129632620D01*
X128503354Y-129497913D01*
X128503350Y-129497906D01*
X128417190Y-129382812D01*
X128417187Y-129382809D01*
X128302093Y-129296649D01*
X128302086Y-129296645D01*
X128167379Y-129246403D01*
X128167372Y-129246401D01*
X128107844Y-129240000D01*
X127410000Y-129240000D01*
X127410000Y-130264722D01*
X127333694Y-130220667D01*
X127219244Y-130190000D01*
X127100756Y-130190000D01*
X126986306Y-130220667D01*
X126910000Y-130264722D01*
X126910000Y-129240000D01*
X126212155Y-129240000D01*
X126152627Y-129246401D01*
X126152620Y-129246403D01*
X126017913Y-129296645D01*
X126017906Y-129296649D01*
X125902812Y-129382809D01*
X125902809Y-129382812D01*
X125816649Y-129497906D01*
X125816645Y-129497913D01*
X125766403Y-129632620D01*
X125766401Y-129632627D01*
X125760000Y-129692155D01*
X124560499Y-129692155D01*
X124560499Y-129692129D01*
X124560498Y-129692123D01*
X124560497Y-129692116D01*
X124554091Y-129632517D01*
X124503884Y-129497906D01*
X124503797Y-129497671D01*
X124503793Y-129497664D01*
X124417547Y-129382455D01*
X124417544Y-129382452D01*
X124302335Y-129296206D01*
X124302328Y-129296202D01*
X124167482Y-129245908D01*
X124167483Y-129245908D01*
X124107883Y-129239501D01*
X124107881Y-129239500D01*
X124107873Y-129239500D01*
X124107865Y-129239500D01*
X123884500Y-129239500D01*
X123875814Y-129236949D01*
X123866853Y-129238238D01*
X123842812Y-129227259D01*
X123817461Y-129219815D01*
X123811533Y-129212974D01*
X123803297Y-129209213D01*
X123789007Y-129186978D01*
X123771706Y-129167011D01*
X123769418Y-129156496D01*
X123765523Y-129150435D01*
X123760500Y-129115500D01*
X123760500Y-128940096D01*
X123780185Y-128873057D01*
X123796814Y-128852420D01*
X125528713Y-127120521D01*
X125528716Y-127120520D01*
X125640520Y-127008716D01*
X125690639Y-126921904D01*
X125719577Y-126871785D01*
X125760500Y-126719057D01*
X125760500Y-126560943D01*
X125760500Y-123858059D01*
X125780185Y-123791020D01*
X125832989Y-123745265D01*
X125902147Y-123735321D01*
X125965703Y-123764346D01*
X125984814Y-123785169D01*
X126037772Y-123858059D01*
X126091758Y-123932365D01*
X126247636Y-124088243D01*
X126247641Y-124088247D01*
X126403192Y-124201260D01*
X126425978Y-124217815D01*
X126554375Y-124283237D01*
X126622393Y-124317895D01*
X126622396Y-124317896D01*
X126727221Y-124351955D01*
X126832049Y-124386015D01*
X127049778Y-124420500D01*
X127049779Y-124420500D01*
X127270221Y-124420500D01*
X127270222Y-124420500D01*
X127487951Y-124386015D01*
X127697606Y-124317895D01*
X127894022Y-124217815D01*
X128072365Y-124088242D01*
X128228242Y-123932365D01*
X128357815Y-123754022D01*
X128457895Y-123557606D01*
X128526015Y-123347951D01*
X128560500Y-123130222D01*
X128560500Y-122909778D01*
X128526015Y-122692049D01*
X128491955Y-122587221D01*
X128457896Y-122482396D01*
X128457895Y-122482393D01*
X128423237Y-122414375D01*
X128357815Y-122285978D01*
X128302633Y-122210026D01*
X128228247Y-122107641D01*
X128228243Y-122107636D01*
X128072363Y-121951756D01*
X128072358Y-121951752D01*
X127894025Y-121822187D01*
X127894024Y-121822186D01*
X127894022Y-121822185D01*
X127828203Y-121788648D01*
X127697606Y-121722104D01*
X127697603Y-121722103D01*
X127645252Y-121705094D01*
X127587577Y-121665657D01*
X127560378Y-121601298D01*
X127572292Y-121532452D01*
X127619536Y-121480976D01*
X127645254Y-121469231D01*
X127659032Y-121464754D01*
X127841349Y-121371859D01*
X128006894Y-121251582D01*
X128006895Y-121251582D01*
X128151582Y-121106895D01*
X128151582Y-121106894D01*
X128271859Y-120941349D01*
X128364755Y-120759029D01*
X128427990Y-120564413D01*
X128436609Y-120510000D01*
X127475686Y-120510000D01*
X127480080Y-120505606D01*
X127532741Y-120414394D01*
X127560000Y-120312661D01*
X127560000Y-120207339D01*
X127532741Y-120105606D01*
X127480080Y-120014394D01*
X127475686Y-120010000D01*
X128436609Y-120010000D01*
X128427990Y-119955586D01*
X128364755Y-119760970D01*
X128271859Y-119578650D01*
X128151582Y-119413105D01*
X128151582Y-119413104D01*
X128006895Y-119268417D01*
X127841349Y-119148140D01*
X127659029Y-119055244D01*
X127464413Y-118992009D01*
X127410000Y-118983390D01*
X127410000Y-119944314D01*
X127405606Y-119939920D01*
X127314394Y-119887259D01*
X127212661Y-119860000D01*
X127107339Y-119860000D01*
X127005606Y-119887259D01*
X126914394Y-119939920D01*
X126910000Y-119944314D01*
X126910000Y-118983390D01*
X126855586Y-118992009D01*
X126660970Y-119055244D01*
X126478650Y-119148140D01*
X126313105Y-119268417D01*
X126313104Y-119268417D01*
X126168417Y-119413104D01*
X126168417Y-119413105D01*
X126048140Y-119578650D01*
X125994985Y-119682974D01*
X125947011Y-119733770D01*
X125879190Y-119750565D01*
X125813055Y-119728028D01*
X125769603Y-119673313D01*
X125760500Y-119626679D01*
X125760500Y-114920943D01*
X125760500Y-114920941D01*
X125719577Y-114768214D01*
X125719577Y-114768213D01*
X125719577Y-114768212D01*
X125690639Y-114718093D01*
X125690637Y-114718090D01*
X125677509Y-114695351D01*
X125640520Y-114631282D01*
X125528716Y-114519478D01*
X125528715Y-114519477D01*
X125524385Y-114515147D01*
X125524374Y-114515137D01*
X125266753Y-114257516D01*
X125233268Y-114196193D01*
X125236502Y-114131518D01*
X125257224Y-114067745D01*
X125293002Y-113841854D01*
X125293002Y-113518146D01*
X125271739Y-113383898D01*
X125280694Y-113314604D01*
X125325690Y-113261153D01*
X125392441Y-113240513D01*
X125394212Y-113240500D01*
X125930398Y-113240500D01*
X125997437Y-113260185D01*
X126040883Y-113308205D01*
X126047715Y-113321614D01*
X126168028Y-113487213D01*
X126312786Y-113631971D01*
X126467749Y-113744556D01*
X126478390Y-113752287D01*
X126594607Y-113811503D01*
X126660776Y-113845218D01*
X126660778Y-113845218D01*
X126660781Y-113845220D01*
X126765137Y-113879127D01*
X126855465Y-113908477D01*
X126956557Y-113924488D01*
X127057648Y-113940500D01*
X127057649Y-113940500D01*
X127262351Y-113940500D01*
X127262352Y-113940500D01*
X127464534Y-113908477D01*
X127659219Y-113845220D01*
X127841610Y-113752287D01*
X127934590Y-113684732D01*
X128007213Y-113631971D01*
X128007215Y-113631968D01*
X128007219Y-113631966D01*
X128151966Y-113487219D01*
X128151968Y-113487215D01*
X128151971Y-113487213D01*
X128227032Y-113383898D01*
X128272287Y-113321610D01*
X128365220Y-113139219D01*
X128428477Y-112944534D01*
X128460500Y-112742352D01*
X128460500Y-112537648D01*
X128458105Y-112522525D01*
X128428477Y-112335465D01*
X128393899Y-112229045D01*
X128365220Y-112140781D01*
X128365218Y-112140778D01*
X128365218Y-112140776D01*
X128331503Y-112074607D01*
X128272287Y-111958390D01*
X128264556Y-111947749D01*
X128151971Y-111792786D01*
X128007213Y-111648028D01*
X127841613Y-111527715D01*
X127841612Y-111527714D01*
X127841610Y-111527713D01*
X127744736Y-111478353D01*
X127659223Y-111434781D01*
X127464534Y-111371522D01*
X127289995Y-111343878D01*
X127262352Y-111339500D01*
X127057648Y-111339500D01*
X127033329Y-111343351D01*
X126855465Y-111371522D01*
X126660776Y-111434781D01*
X126478386Y-111527715D01*
X126312786Y-111648028D01*
X126168028Y-111792786D01*
X126047715Y-111958385D01*
X126040883Y-111971795D01*
X125992909Y-112022591D01*
X125930398Y-112039500D01*
X124959059Y-112039500D01*
X124800945Y-112039500D01*
X124648217Y-112080423D01*
X124648216Y-112080423D01*
X124648214Y-112080424D01*
X124648211Y-112080425D01*
X124605082Y-112105326D01*
X124605075Y-112105330D01*
X124598097Y-112109360D01*
X124511286Y-112159480D01*
X124435928Y-112234837D01*
X124429421Y-112239820D01*
X124404156Y-112249556D01*
X124380396Y-112262530D01*
X124371629Y-112262091D01*
X124364225Y-112264945D01*
X124343584Y-112260688D01*
X124315722Y-112259295D01*
X124180249Y-112215278D01*
X124180250Y-112215278D01*
X123994814Y-112185908D01*
X123954356Y-112179500D01*
X123725648Y-112179500D01*
X123685190Y-112185908D01*
X123499755Y-112215278D01*
X123499752Y-112215278D01*
X123282246Y-112285950D01*
X123078463Y-112389783D01*
X122993233Y-112451707D01*
X122893436Y-112524214D01*
X122893434Y-112524216D01*
X122893433Y-112524216D01*
X122731717Y-112685932D01*
X122670320Y-112770438D01*
X122614989Y-112813103D01*
X122545376Y-112819082D01*
X122483581Y-112786476D01*
X122469684Y-112770438D01*
X122449277Y-112742351D01*
X122408288Y-112685934D01*
X122246568Y-112524214D01*
X122061540Y-112389783D01*
X121954935Y-112335465D01*
X121857757Y-112285950D01*
X121640250Y-112215278D01*
X121454814Y-112185908D01*
X121414356Y-112179500D01*
X121185648Y-112179500D01*
X121145190Y-112185908D01*
X120959755Y-112215278D01*
X120959752Y-112215278D01*
X120742246Y-112285950D01*
X120538463Y-112389783D01*
X120434196Y-112465538D01*
X120368885Y-112512990D01*
X120355761Y-112522525D01*
X120289954Y-112546005D01*
X120221900Y-112530180D01*
X120173205Y-112480074D01*
X120166692Y-112465538D01*
X120156298Y-112437669D01*
X120156295Y-112437664D01*
X120070049Y-112322455D01*
X120070046Y-112322452D01*
X119954837Y-112236206D01*
X119954830Y-112236202D01*
X119819984Y-112185908D01*
X119819985Y-112185908D01*
X119760385Y-112179501D01*
X119760383Y-112179500D01*
X119760375Y-112179500D01*
X119760367Y-112179500D01*
X118160100Y-112179500D01*
X118093061Y-112159815D01*
X118072419Y-112143181D01*
X115836820Y-109907582D01*
X115803335Y-109846259D01*
X115800501Y-109819901D01*
X115800501Y-96888872D01*
X119299502Y-96888872D01*
X119299502Y-97151127D01*
X119326125Y-97353339D01*
X119333732Y-97411116D01*
X119401604Y-97664418D01*
X119401607Y-97664428D01*
X119501955Y-97906690D01*
X119501960Y-97906700D01*
X119633077Y-98133803D01*
X119792720Y-98341851D01*
X119792728Y-98341860D01*
X119978142Y-98527274D01*
X119978150Y-98527281D01*
X120186198Y-98686924D01*
X120413301Y-98818041D01*
X120413311Y-98818046D01*
X120655573Y-98918394D01*
X120655583Y-98918398D01*
X120908886Y-98986270D01*
X121168882Y-99020500D01*
X121168889Y-99020500D01*
X121431115Y-99020500D01*
X121431122Y-99020500D01*
X121691118Y-98986270D01*
X121944421Y-98918398D01*
X122186699Y-98818043D01*
X122413805Y-98686924D01*
X122621853Y-98527282D01*
X122621857Y-98527277D01*
X122621862Y-98527274D01*
X122807276Y-98341860D01*
X122807279Y-98341855D01*
X122807284Y-98341851D01*
X122966926Y-98133803D01*
X123098045Y-97906697D01*
X123198400Y-97664419D01*
X123266272Y-97411116D01*
X123300502Y-97151120D01*
X123300502Y-96888880D01*
X123266272Y-96628884D01*
X123198400Y-96375581D01*
X123198396Y-96375571D01*
X123098048Y-96133309D01*
X123098043Y-96133299D01*
X122966926Y-95906196D01*
X122807283Y-95698148D01*
X122807276Y-95698140D01*
X122621862Y-95512726D01*
X122621853Y-95512718D01*
X122413805Y-95353075D01*
X122186702Y-95221958D01*
X122186692Y-95221953D01*
X121944430Y-95121605D01*
X121944423Y-95121603D01*
X121944421Y-95121602D01*
X121691118Y-95053730D01*
X121633341Y-95046123D01*
X121431129Y-95019500D01*
X121431122Y-95019500D01*
X121168882Y-95019500D01*
X121168874Y-95019500D01*
X120937774Y-95049926D01*
X120908886Y-95053730D01*
X120655583Y-95121602D01*
X120655573Y-95121605D01*
X120413311Y-95221953D01*
X120413301Y-95221958D01*
X120186198Y-95353075D01*
X119978150Y-95512718D01*
X119792720Y-95698148D01*
X119633077Y-95906196D01*
X119501960Y-96133299D01*
X119501955Y-96133309D01*
X119401607Y-96375571D01*
X119401604Y-96375581D01*
X119333732Y-96628885D01*
X119299502Y-96888872D01*
X115800501Y-96888872D01*
X115800501Y-91092744D01*
X115820186Y-91025705D01*
X115872990Y-90979950D01*
X115942148Y-90970006D01*
X115998811Y-90993477D01*
X116041862Y-91025705D01*
X116052669Y-91033795D01*
X116052672Y-91033797D01*
X116187518Y-91084091D01*
X116187517Y-91084091D01*
X116194445Y-91084835D01*
X116247128Y-91090500D01*
X117692873Y-91090499D01*
X117752484Y-91084091D01*
X117887332Y-91033796D01*
X118002547Y-90947546D01*
X118088797Y-90832331D01*
X118139092Y-90697483D01*
X118145501Y-90637873D01*
X118145500Y-89537648D01*
X119089500Y-89537648D01*
X119089500Y-89742351D01*
X119121522Y-89944534D01*
X119184781Y-90139223D01*
X119277715Y-90321613D01*
X119398028Y-90487213D01*
X119542786Y-90631971D01*
X119697749Y-90744556D01*
X119708390Y-90752287D01*
X119801671Y-90799816D01*
X119890776Y-90845218D01*
X119890778Y-90845218D01*
X119890781Y-90845220D01*
X119995137Y-90879127D01*
X120085465Y-90908477D01*
X120179224Y-90923327D01*
X120287648Y-90940500D01*
X120287649Y-90940500D01*
X120492351Y-90940500D01*
X120492352Y-90940500D01*
X120694534Y-90908477D01*
X120889219Y-90845220D01*
X121071610Y-90752287D01*
X121170022Y-90680787D01*
X121237213Y-90631971D01*
X121237215Y-90631968D01*
X121237219Y-90631966D01*
X121381966Y-90487219D01*
X121381968Y-90487215D01*
X121381971Y-90487213D01*
X121469867Y-90366232D01*
X121502287Y-90321610D01*
X121595220Y-90139219D01*
X121658477Y-89944534D01*
X121690500Y-89742352D01*
X121690500Y-89537648D01*
X121658477Y-89335466D01*
X121655567Y-89326511D01*
X121625118Y-89232798D01*
X121595220Y-89140781D01*
X121595218Y-89140778D01*
X121595218Y-89140776D01*
X121561503Y-89074607D01*
X121502287Y-88958390D01*
X121469867Y-88913767D01*
X121381971Y-88792786D01*
X121237213Y-88648028D01*
X121071613Y-88527715D01*
X121071612Y-88527714D01*
X121071610Y-88527713D01*
X121014653Y-88498691D01*
X120889223Y-88434781D01*
X120694534Y-88371522D01*
X120502302Y-88341076D01*
X120492352Y-88339500D01*
X120287648Y-88339500D01*
X120277698Y-88341076D01*
X120085465Y-88371522D01*
X119890776Y-88434781D01*
X119708386Y-88527715D01*
X119542786Y-88648028D01*
X119398028Y-88792786D01*
X119277715Y-88958386D01*
X119184781Y-89140776D01*
X119121522Y-89335465D01*
X119089500Y-89537648D01*
X118145500Y-89537648D01*
X118145500Y-88642128D01*
X118139092Y-88582517D01*
X118133525Y-88567592D01*
X118088798Y-88447671D01*
X118088794Y-88447664D01*
X118002548Y-88332455D01*
X118002545Y-88332452D01*
X117887336Y-88246206D01*
X117887329Y-88246202D01*
X117752483Y-88195908D01*
X117752484Y-88195908D01*
X117692884Y-88189501D01*
X117692882Y-88189500D01*
X117692874Y-88189500D01*
X117692865Y-88189500D01*
X116247130Y-88189500D01*
X116247124Y-88189501D01*
X116187517Y-88195908D01*
X116052672Y-88246202D01*
X116052665Y-88246206D01*
X115994936Y-88289422D01*
X115929472Y-88313839D01*
X115861199Y-88298987D01*
X115811794Y-88249581D01*
X115800851Y-88222249D01*
X115800502Y-88220946D01*
X115800502Y-88220944D01*
X115759578Y-88068217D01*
X115759574Y-88068210D01*
X115680525Y-87931291D01*
X115680519Y-87931283D01*
X114647590Y-86898355D01*
X114647588Y-86898352D01*
X114528717Y-86779481D01*
X114528716Y-86779480D01*
X114441904Y-86729360D01*
X114441904Y-86729359D01*
X114441900Y-86729358D01*
X114391785Y-86700423D01*
X114239057Y-86659499D01*
X114080943Y-86659499D01*
X114073347Y-86659499D01*
X114073331Y-86659500D01*
X104849057Y-86659500D01*
X104690942Y-86659500D01*
X104538215Y-86700423D01*
X104538214Y-86700423D01*
X104538212Y-86700424D01*
X104538209Y-86700425D01*
X104488096Y-86729359D01*
X104488095Y-86729360D01*
X104444689Y-86754420D01*
X104401285Y-86779479D01*
X104401282Y-86779481D01*
X104289478Y-86891286D01*
X102834842Y-88345921D01*
X102773519Y-88379406D01*
X102708848Y-88376173D01*
X102694534Y-88371522D01*
X102502302Y-88341076D01*
X102492352Y-88339500D01*
X102287648Y-88339500D01*
X102277698Y-88341076D01*
X102085465Y-88371522D01*
X101890776Y-88434781D01*
X101708386Y-88527715D01*
X101542786Y-88648028D01*
X101398028Y-88792786D01*
X101277715Y-88958386D01*
X101184781Y-89140776D01*
X101121522Y-89335465D01*
X101089500Y-89537648D01*
X100500500Y-89537648D01*
X100500500Y-77652682D01*
X104374500Y-77652682D01*
X104374500Y-84867317D01*
X104405044Y-85079764D01*
X104405047Y-85079774D01*
X104465517Y-85285715D01*
X104554672Y-85480938D01*
X104554679Y-85480951D01*
X104670720Y-85661514D01*
X104811275Y-85823724D01*
X104935277Y-85931172D01*
X104973487Y-85964281D01*
X105102531Y-86047211D01*
X105154048Y-86080320D01*
X105154061Y-86080327D01*
X105349284Y-86169482D01*
X105349288Y-86169483D01*
X105349290Y-86169484D01*
X105555231Y-86229954D01*
X105555232Y-86229954D01*
X105555235Y-86229955D01*
X105618584Y-86239062D01*
X105767682Y-86260500D01*
X105767683Y-86260500D01*
X122982317Y-86260500D01*
X122982318Y-86260500D01*
X123152851Y-86235980D01*
X123194764Y-86229955D01*
X123194765Y-86229954D01*
X123194769Y-86229954D01*
X123400710Y-86169484D01*
X123400713Y-86169482D01*
X123400715Y-86169482D01*
X123595938Y-86080327D01*
X123595944Y-86080323D01*
X123595950Y-86080321D01*
X123776513Y-85964281D01*
X123938724Y-85823724D01*
X124079281Y-85661513D01*
X124195321Y-85480950D01*
X124195323Y-85480944D01*
X124195327Y-85480938D01*
X124235633Y-85392677D01*
X124284484Y-85285710D01*
X124316816Y-85175595D01*
X124354589Y-85116820D01*
X124418144Y-85087794D01*
X124487303Y-85097737D01*
X124509669Y-85113267D01*
X124510712Y-85111875D01*
X124632906Y-85203350D01*
X124632913Y-85203354D01*
X124767620Y-85253596D01*
X124767627Y-85253598D01*
X124827155Y-85259999D01*
X124827172Y-85260000D01*
X125625000Y-85260000D01*
X125625000Y-84193012D01*
X125682007Y-84225925D01*
X125809174Y-84260000D01*
X125940826Y-84260000D01*
X126067993Y-84225925D01*
X126125000Y-84193012D01*
X126125000Y-85260000D01*
X126922828Y-85260000D01*
X126922844Y-85259999D01*
X126982372Y-85253598D01*
X126982379Y-85253596D01*
X127117086Y-85203354D01*
X127117093Y-85203350D01*
X127232187Y-85117190D01*
X127232190Y-85117187D01*
X127318350Y-85002093D01*
X127318354Y-85002086D01*
X127368596Y-84867379D01*
X127368598Y-84867372D01*
X127374999Y-84807844D01*
X127375000Y-84807827D01*
X127375000Y-84010000D01*
X126308012Y-84010000D01*
X126340925Y-83952993D01*
X126375000Y-83825826D01*
X126375000Y-83694174D01*
X126340925Y-83567007D01*
X126308012Y-83510000D01*
X127375000Y-83510000D01*
X127375000Y-82712172D01*
X127374999Y-82712155D01*
X127368598Y-82652627D01*
X127368596Y-82652620D01*
X127318354Y-82517913D01*
X127318350Y-82517906D01*
X127232190Y-82402812D01*
X127232187Y-82402809D01*
X127117093Y-82316649D01*
X127117086Y-82316645D01*
X126982379Y-82266403D01*
X126982372Y-82266401D01*
X126922844Y-82260000D01*
X126125000Y-82260000D01*
X126125000Y-83326988D01*
X126067993Y-83294075D01*
X125940826Y-83260000D01*
X125809174Y-83260000D01*
X125682007Y-83294075D01*
X125625000Y-83326988D01*
X125625000Y-82260000D01*
X124827155Y-82260000D01*
X124767627Y-82266401D01*
X124767620Y-82266403D01*
X124632913Y-82316645D01*
X124632910Y-82316647D01*
X124573811Y-82360889D01*
X124508346Y-82385306D01*
X124440073Y-82370454D01*
X124390668Y-82321049D01*
X124375500Y-82261622D01*
X124375500Y-79630551D01*
X124395185Y-79563512D01*
X124447989Y-79517757D01*
X124517147Y-79507813D01*
X124580703Y-79536838D01*
X124599815Y-79557662D01*
X124730483Y-79737510D01*
X124897490Y-79904517D01*
X125088567Y-80043343D01*
X125187991Y-80094002D01*
X125299003Y-80150566D01*
X125299005Y-80150566D01*
X125299008Y-80150568D01*
X125419412Y-80189689D01*
X125523631Y-80223553D01*
X125756903Y-80260500D01*
X125756908Y-80260500D01*
X125993097Y-80260500D01*
X126226368Y-80223553D01*
X126450992Y-80150568D01*
X126661433Y-80043343D01*
X126852510Y-79904517D01*
X127019517Y-79737510D01*
X127158343Y-79546433D01*
X127265568Y-79335992D01*
X127338553Y-79111368D01*
X127375500Y-78878097D01*
X127375500Y-78641902D01*
X127338553Y-78408631D01*
X127265566Y-78184003D01*
X127158342Y-77973566D01*
X127019517Y-77782490D01*
X126852510Y-77615483D01*
X126661433Y-77476657D01*
X126450996Y-77369433D01*
X126226368Y-77296446D01*
X125993097Y-77259500D01*
X125993092Y-77259500D01*
X125756908Y-77259500D01*
X125756903Y-77259500D01*
X125523631Y-77296446D01*
X125299003Y-77369433D01*
X125088566Y-77476657D01*
X124996875Y-77543275D01*
X124897490Y-77615483D01*
X124897488Y-77615485D01*
X124897487Y-77615485D01*
X124730485Y-77782487D01*
X124730485Y-77782488D01*
X124730483Y-77782490D01*
X124652773Y-77889448D01*
X124599818Y-77962334D01*
X124544488Y-78004999D01*
X124474874Y-78010978D01*
X124413079Y-77978372D01*
X124378722Y-77917533D01*
X124375500Y-77889448D01*
X124375500Y-77652683D01*
X124375500Y-77652682D01*
X124344954Y-77440231D01*
X124284484Y-77234290D01*
X124284483Y-77234288D01*
X124284482Y-77234284D01*
X124195327Y-77039061D01*
X124195320Y-77039048D01*
X124162211Y-76987531D01*
X124079281Y-76858487D01*
X124046172Y-76820277D01*
X123938724Y-76696275D01*
X123776514Y-76555720D01*
X123776513Y-76555719D01*
X123711991Y-76514253D01*
X123595951Y-76439679D01*
X123595938Y-76439672D01*
X123400715Y-76350517D01*
X123194774Y-76290047D01*
X123194764Y-76290044D01*
X123003754Y-76262582D01*
X122982318Y-76259500D01*
X122940892Y-76259500D01*
X105940892Y-76259500D01*
X105875000Y-76259500D01*
X105767682Y-76259500D01*
X105555235Y-76290044D01*
X105555225Y-76290047D01*
X105349284Y-76350517D01*
X105154061Y-76439672D01*
X105154048Y-76439679D01*
X104973485Y-76555720D01*
X104811275Y-76696275D01*
X104670720Y-76858485D01*
X104554679Y-77039048D01*
X104554672Y-77039061D01*
X104465517Y-77234284D01*
X104405047Y-77440225D01*
X104405044Y-77440235D01*
X104374500Y-77652682D01*
X100500500Y-77652682D01*
X100500500Y-66152682D01*
X104374500Y-66152682D01*
X104374500Y-73367317D01*
X104405044Y-73579764D01*
X104405047Y-73579774D01*
X104465517Y-73785715D01*
X104554672Y-73980938D01*
X104554679Y-73980951D01*
X104670720Y-74161514D01*
X104811275Y-74323724D01*
X104935277Y-74431172D01*
X104973487Y-74464281D01*
X105102531Y-74547211D01*
X105154048Y-74580320D01*
X105154061Y-74580327D01*
X105349284Y-74669482D01*
X105349288Y-74669483D01*
X105349290Y-74669484D01*
X105555231Y-74729954D01*
X105555232Y-74729954D01*
X105555235Y-74729955D01*
X105618584Y-74739062D01*
X105767682Y-74760500D01*
X105767683Y-74760500D01*
X122982317Y-74760500D01*
X122982318Y-74760500D01*
X123152851Y-74735980D01*
X123194764Y-74729955D01*
X123194765Y-74729954D01*
X123194769Y-74729954D01*
X123400710Y-74669484D01*
X123400713Y-74669482D01*
X123400715Y-74669482D01*
X123595938Y-74580327D01*
X123595944Y-74580323D01*
X123595950Y-74580321D01*
X123776513Y-74464281D01*
X123938724Y-74323724D01*
X124079281Y-74161513D01*
X124195321Y-73980950D01*
X124195323Y-73980944D01*
X124195327Y-73980938D01*
X124235633Y-73892677D01*
X124284484Y-73785710D01*
X124316654Y-73676147D01*
X124354427Y-73617371D01*
X124417982Y-73588346D01*
X124487141Y-73598289D01*
X124509283Y-73613663D01*
X124510355Y-73612232D01*
X124632664Y-73703793D01*
X124632671Y-73703797D01*
X124767517Y-73754091D01*
X124767516Y-73754091D01*
X124774444Y-73754835D01*
X124827127Y-73760500D01*
X126922872Y-73760499D01*
X126982483Y-73754091D01*
X127117331Y-73703796D01*
X127232546Y-73617546D01*
X127318796Y-73502331D01*
X127369091Y-73367483D01*
X127375500Y-73307873D01*
X127375499Y-71212128D01*
X127369091Y-71152517D01*
X127318796Y-71017669D01*
X127318795Y-71017668D01*
X127318793Y-71017664D01*
X127232547Y-70902455D01*
X127232544Y-70902452D01*
X127117335Y-70816206D01*
X127117328Y-70816202D01*
X126982482Y-70765908D01*
X126982483Y-70765908D01*
X126922883Y-70759501D01*
X126922881Y-70759500D01*
X126922873Y-70759500D01*
X126922864Y-70759500D01*
X124827129Y-70759500D01*
X124827123Y-70759501D01*
X124767516Y-70765908D01*
X124632671Y-70816202D01*
X124632668Y-70816204D01*
X124573811Y-70860265D01*
X124508347Y-70884682D01*
X124440074Y-70869830D01*
X124390668Y-70820425D01*
X124375500Y-70760998D01*
X124375500Y-68129700D01*
X124395185Y-68062661D01*
X124447989Y-68016906D01*
X124517147Y-68006962D01*
X124580703Y-68035987D01*
X124599818Y-68056815D01*
X124652339Y-68129104D01*
X124652340Y-68129105D01*
X125392037Y-67389408D01*
X125409075Y-67452993D01*
X125474901Y-67567007D01*
X125567993Y-67660099D01*
X125682007Y-67725925D01*
X125745590Y-67742962D01*
X125005893Y-68482658D01*
X125088828Y-68542914D01*
X125299197Y-68650102D01*
X125523752Y-68723065D01*
X125523751Y-68723065D01*
X125756948Y-68760000D01*
X125993052Y-68760000D01*
X126226247Y-68723065D01*
X126450802Y-68650102D01*
X126661163Y-68542918D01*
X126661169Y-68542914D01*
X126744104Y-68482658D01*
X126744105Y-68482658D01*
X126004408Y-67742962D01*
X126067993Y-67725925D01*
X126182007Y-67660099D01*
X126275099Y-67567007D01*
X126340925Y-67452993D01*
X126357962Y-67389408D01*
X127097658Y-68129105D01*
X127097658Y-68129104D01*
X127157914Y-68046169D01*
X127157918Y-68046163D01*
X127265102Y-67835802D01*
X127338065Y-67611247D01*
X127375000Y-67378052D01*
X127375000Y-67141947D01*
X127338065Y-66908752D01*
X127265102Y-66684197D01*
X127157914Y-66473828D01*
X127097658Y-66390894D01*
X127097658Y-66390893D01*
X126357962Y-67130590D01*
X126340925Y-67067007D01*
X126275099Y-66952993D01*
X126182007Y-66859901D01*
X126067993Y-66794075D01*
X126004409Y-66777037D01*
X126744105Y-66037340D01*
X126744104Y-66037338D01*
X126661174Y-65977087D01*
X126450802Y-65869897D01*
X126226247Y-65796934D01*
X126226248Y-65796934D01*
X125993052Y-65760000D01*
X125756948Y-65760000D01*
X125523752Y-65796934D01*
X125299197Y-65869897D01*
X125088830Y-65977084D01*
X125005894Y-66037340D01*
X125745591Y-66777037D01*
X125682007Y-66794075D01*
X125567993Y-66859901D01*
X125474901Y-66952993D01*
X125409075Y-67067007D01*
X125392037Y-67130591D01*
X124652340Y-66390894D01*
X124652339Y-66390894D01*
X124599818Y-66463185D01*
X124544489Y-66505851D01*
X124474875Y-66511830D01*
X124413080Y-66479225D01*
X124378723Y-66418386D01*
X124375500Y-66390300D01*
X124375500Y-66152684D01*
X124374949Y-66148851D01*
X124344954Y-65940231D01*
X124284484Y-65734290D01*
X124284483Y-65734288D01*
X124284482Y-65734284D01*
X124195327Y-65539061D01*
X124195320Y-65539048D01*
X124162211Y-65487531D01*
X124079281Y-65358487D01*
X124046172Y-65320277D01*
X123938724Y-65196275D01*
X123776514Y-65055720D01*
X123776513Y-65055719D01*
X123711991Y-65014253D01*
X123595951Y-64939679D01*
X123595938Y-64939672D01*
X123400715Y-64850517D01*
X123194774Y-64790047D01*
X123194764Y-64790044D01*
X123003754Y-64762582D01*
X122982318Y-64759500D01*
X122940892Y-64759500D01*
X105940892Y-64759500D01*
X105875000Y-64759500D01*
X105767682Y-64759500D01*
X105555235Y-64790044D01*
X105555225Y-64790047D01*
X105349284Y-64850517D01*
X105154061Y-64939672D01*
X105154048Y-64939679D01*
X104973485Y-65055720D01*
X104811275Y-65196275D01*
X104670720Y-65358485D01*
X104554679Y-65539048D01*
X104554672Y-65539061D01*
X104465517Y-65734284D01*
X104405047Y-65940225D01*
X104405044Y-65940235D01*
X104374500Y-66152682D01*
X100500500Y-66152682D01*
X100500500Y-54652682D01*
X104374500Y-54652682D01*
X104374500Y-61867317D01*
X104405044Y-62079764D01*
X104405047Y-62079774D01*
X104465517Y-62285715D01*
X104554672Y-62480938D01*
X104554679Y-62480951D01*
X104670720Y-62661514D01*
X104811275Y-62823724D01*
X104935277Y-62931172D01*
X104973487Y-62964281D01*
X105102531Y-63047211D01*
X105154048Y-63080320D01*
X105154061Y-63080327D01*
X105349284Y-63169482D01*
X105349288Y-63169483D01*
X105349290Y-63169484D01*
X105555231Y-63229954D01*
X105555232Y-63229954D01*
X105555235Y-63229955D01*
X105618584Y-63239062D01*
X105767682Y-63260500D01*
X105767683Y-63260500D01*
X122982317Y-63260500D01*
X122982318Y-63260500D01*
X123152851Y-63235980D01*
X123194764Y-63229955D01*
X123194765Y-63229954D01*
X123194769Y-63229954D01*
X123400710Y-63169484D01*
X123400713Y-63169482D01*
X123400715Y-63169482D01*
X123595938Y-63080327D01*
X123595944Y-63080323D01*
X123595950Y-63080321D01*
X123776513Y-62964281D01*
X123938724Y-62823724D01*
X124079281Y-62661513D01*
X124195321Y-62480950D01*
X124195323Y-62480944D01*
X124195327Y-62480938D01*
X124235633Y-62392677D01*
X124284484Y-62285710D01*
X124316654Y-62176147D01*
X124354427Y-62117371D01*
X124417982Y-62088346D01*
X124487141Y-62098289D01*
X124509283Y-62113663D01*
X124510355Y-62112232D01*
X124632664Y-62203793D01*
X124632671Y-62203797D01*
X124767517Y-62254091D01*
X124767516Y-62254091D01*
X124774444Y-62254835D01*
X124827127Y-62260500D01*
X126922872Y-62260499D01*
X126982483Y-62254091D01*
X127117331Y-62203796D01*
X127232546Y-62117546D01*
X127318796Y-62002331D01*
X127369091Y-61867483D01*
X127375500Y-61807873D01*
X127375499Y-59712128D01*
X127369091Y-59652517D01*
X127318796Y-59517669D01*
X127318795Y-59517668D01*
X127318793Y-59517664D01*
X127232547Y-59402455D01*
X127232544Y-59402452D01*
X127117335Y-59316206D01*
X127117328Y-59316202D01*
X126982482Y-59265908D01*
X126982483Y-59265908D01*
X126922883Y-59259501D01*
X126922881Y-59259500D01*
X126922873Y-59259500D01*
X126922864Y-59259500D01*
X124827129Y-59259500D01*
X124827123Y-59259501D01*
X124767516Y-59265908D01*
X124632671Y-59316202D01*
X124632668Y-59316204D01*
X124573811Y-59360265D01*
X124508347Y-59384682D01*
X124440074Y-59369830D01*
X124390668Y-59320425D01*
X124375500Y-59260998D01*
X124375500Y-56630551D01*
X124395185Y-56563512D01*
X124447989Y-56517757D01*
X124517147Y-56507813D01*
X124580703Y-56536838D01*
X124599815Y-56557662D01*
X124730483Y-56737510D01*
X124897490Y-56904517D01*
X125088567Y-57043343D01*
X125187991Y-57094002D01*
X125299003Y-57150566D01*
X125299005Y-57150566D01*
X125299008Y-57150568D01*
X125419412Y-57189689D01*
X125523631Y-57223553D01*
X125756903Y-57260500D01*
X125756908Y-57260500D01*
X125993097Y-57260500D01*
X126226368Y-57223553D01*
X126450992Y-57150568D01*
X126661433Y-57043343D01*
X126852510Y-56904517D01*
X127019517Y-56737510D01*
X127158343Y-56546433D01*
X127265568Y-56335992D01*
X127338553Y-56111368D01*
X127375500Y-55878097D01*
X127375500Y-55641902D01*
X127338553Y-55408631D01*
X127265566Y-55184003D01*
X127158342Y-54973566D01*
X127019517Y-54782490D01*
X126852510Y-54615483D01*
X126661433Y-54476657D01*
X126450996Y-54369433D01*
X126226368Y-54296446D01*
X125993097Y-54259500D01*
X125993092Y-54259500D01*
X125756908Y-54259500D01*
X125756903Y-54259500D01*
X125523631Y-54296446D01*
X125299003Y-54369433D01*
X125088566Y-54476657D01*
X124996875Y-54543275D01*
X124897490Y-54615483D01*
X124897488Y-54615485D01*
X124897487Y-54615485D01*
X124730485Y-54782487D01*
X124730485Y-54782488D01*
X124730483Y-54782490D01*
X124652773Y-54889448D01*
X124599818Y-54962334D01*
X124544488Y-55004999D01*
X124474874Y-55010978D01*
X124413079Y-54978372D01*
X124378722Y-54917533D01*
X124375500Y-54889448D01*
X124375500Y-54652683D01*
X124375500Y-54652682D01*
X124344954Y-54440231D01*
X124284484Y-54234290D01*
X124284483Y-54234288D01*
X124284482Y-54234284D01*
X124195327Y-54039061D01*
X124195320Y-54039048D01*
X124162211Y-53987531D01*
X124079281Y-53858487D01*
X124046172Y-53820277D01*
X123938724Y-53696275D01*
X123776514Y-53555720D01*
X123776513Y-53555719D01*
X123711991Y-53514253D01*
X123595951Y-53439679D01*
X123595938Y-53439672D01*
X123400715Y-53350517D01*
X123194774Y-53290047D01*
X123194764Y-53290044D01*
X123003754Y-53262582D01*
X122982318Y-53259500D01*
X122940892Y-53259500D01*
X105940892Y-53259500D01*
X105875000Y-53259500D01*
X105767682Y-53259500D01*
X105555235Y-53290044D01*
X105555225Y-53290047D01*
X105349284Y-53350517D01*
X105154061Y-53439672D01*
X105154048Y-53439679D01*
X104973485Y-53555720D01*
X104811275Y-53696275D01*
X104670720Y-53858485D01*
X104554679Y-54039048D01*
X104554672Y-54039061D01*
X104465517Y-54234284D01*
X104405047Y-54440225D01*
X104405044Y-54440235D01*
X104374500Y-54652682D01*
X100500500Y-54652682D01*
X100500500Y-48492135D01*
X115559500Y-48492135D01*
X115559500Y-51587870D01*
X115559501Y-51587876D01*
X115565908Y-51647483D01*
X115616202Y-51782328D01*
X115616206Y-51782335D01*
X115702452Y-51897544D01*
X115702455Y-51897547D01*
X115817664Y-51983793D01*
X115817671Y-51983797D01*
X115952517Y-52034091D01*
X115952516Y-52034091D01*
X115959444Y-52034835D01*
X116012127Y-52040500D01*
X117907872Y-52040499D01*
X117967483Y-52034091D01*
X118102331Y-51983796D01*
X118217546Y-51897546D01*
X118303796Y-51782331D01*
X118354091Y-51647483D01*
X118360500Y-51587873D01*
X118360499Y-49329778D01*
X118759500Y-49329778D01*
X118759500Y-50750221D01*
X118793985Y-50967952D01*
X118862103Y-51177603D01*
X118862104Y-51177606D01*
X118962187Y-51374025D01*
X119091752Y-51552358D01*
X119091756Y-51552363D01*
X119247636Y-51708243D01*
X119247641Y-51708247D01*
X119349606Y-51782328D01*
X119425978Y-51837815D01*
X119554375Y-51903237D01*
X119622393Y-51937895D01*
X119622396Y-51937896D01*
X119727221Y-51971955D01*
X119832049Y-52006015D01*
X120049778Y-52040500D01*
X120049779Y-52040500D01*
X120270221Y-52040500D01*
X120270222Y-52040500D01*
X120487951Y-52006015D01*
X120697606Y-51937895D01*
X120894022Y-51837815D01*
X121072365Y-51708242D01*
X121228242Y-51552365D01*
X121357815Y-51374022D01*
X121457895Y-51177606D01*
X121526015Y-50967951D01*
X121560500Y-50750222D01*
X121560500Y-49329778D01*
X124059501Y-49329778D01*
X124059501Y-50750221D01*
X124093986Y-50967952D01*
X124162104Y-51177603D01*
X124162105Y-51177606D01*
X124262188Y-51374025D01*
X124391753Y-51552358D01*
X124391757Y-51552363D01*
X124547637Y-51708243D01*
X124547642Y-51708247D01*
X124649607Y-51782328D01*
X124725979Y-51837815D01*
X124854376Y-51903237D01*
X124922394Y-51937895D01*
X124922397Y-51937896D01*
X125027222Y-51971955D01*
X125132050Y-52006015D01*
X125349779Y-52040500D01*
X125349780Y-52040500D01*
X125570222Y-52040500D01*
X125570223Y-52040500D01*
X125787952Y-52006015D01*
X125997607Y-51937895D01*
X126194023Y-51837815D01*
X126372366Y-51708242D01*
X126528243Y-51552365D01*
X126657816Y-51374022D01*
X126757896Y-51177606D01*
X126826016Y-50967951D01*
X126860501Y-50750222D01*
X126860501Y-49329778D01*
X126826016Y-49112049D01*
X126757896Y-48902394D01*
X126757896Y-48902393D01*
X126723238Y-48834375D01*
X126657816Y-48705978D01*
X126641261Y-48683192D01*
X126528248Y-48527641D01*
X126528244Y-48527636D01*
X126372364Y-48371756D01*
X126372359Y-48371752D01*
X126194026Y-48242187D01*
X126194025Y-48242186D01*
X126194023Y-48242185D01*
X126076792Y-48182452D01*
X125997607Y-48142104D01*
X125997604Y-48142103D01*
X125787953Y-48073985D01*
X125679087Y-48056742D01*
X125570223Y-48039500D01*
X125349779Y-48039500D01*
X125277202Y-48050995D01*
X125132048Y-48073985D01*
X124922397Y-48142103D01*
X124922394Y-48142104D01*
X124725975Y-48242187D01*
X124547642Y-48371752D01*
X124547637Y-48371756D01*
X124391757Y-48527636D01*
X124391753Y-48527641D01*
X124262188Y-48705974D01*
X124162105Y-48902393D01*
X124162104Y-48902396D01*
X124093986Y-49112047D01*
X124059501Y-49329778D01*
X121560500Y-49329778D01*
X121526015Y-49112049D01*
X121457895Y-48902394D01*
X121457895Y-48902393D01*
X121423237Y-48834375D01*
X121357815Y-48705978D01*
X121341260Y-48683192D01*
X121228247Y-48527641D01*
X121228243Y-48527636D01*
X121072363Y-48371756D01*
X121072358Y-48371752D01*
X120894025Y-48242187D01*
X120894024Y-48242186D01*
X120894022Y-48242185D01*
X120776791Y-48182452D01*
X120697606Y-48142104D01*
X120697603Y-48142103D01*
X120487952Y-48073985D01*
X120379086Y-48056742D01*
X120270222Y-48039500D01*
X120049778Y-48039500D01*
X119977201Y-48050995D01*
X119832047Y-48073985D01*
X119622396Y-48142103D01*
X119622393Y-48142104D01*
X119425974Y-48242187D01*
X119247641Y-48371752D01*
X119247636Y-48371756D01*
X119091756Y-48527636D01*
X119091752Y-48527641D01*
X118962187Y-48705974D01*
X118862104Y-48902393D01*
X118862103Y-48902396D01*
X118793985Y-49112047D01*
X118759500Y-49329778D01*
X118360499Y-49329778D01*
X118360499Y-48492128D01*
X118354091Y-48432517D01*
X118331429Y-48371758D01*
X118303797Y-48297671D01*
X118303793Y-48297664D01*
X118217547Y-48182455D01*
X118217544Y-48182452D01*
X118102335Y-48096206D01*
X118102328Y-48096202D01*
X117967482Y-48045908D01*
X117967483Y-48045908D01*
X117907883Y-48039501D01*
X117907881Y-48039500D01*
X117907873Y-48039500D01*
X117907864Y-48039500D01*
X116012129Y-48039500D01*
X116012123Y-48039501D01*
X115952516Y-48045908D01*
X115817671Y-48096202D01*
X115817664Y-48096206D01*
X115702455Y-48182452D01*
X115702452Y-48182455D01*
X115616206Y-48297664D01*
X115616202Y-48297671D01*
X115565908Y-48432517D01*
X115559501Y-48492116D01*
X115559501Y-48492123D01*
X115559500Y-48492135D01*
X100500500Y-48492135D01*
X100500500Y-43003750D01*
X100500726Y-42996264D01*
X100501105Y-42990000D01*
X100518271Y-42706201D01*
X100520076Y-42691340D01*
X100534088Y-42614883D01*
X100571780Y-42409197D01*
X100575364Y-42394663D01*
X100652096Y-42148422D01*
X100660696Y-42120822D01*
X100665998Y-42106841D01*
X100783731Y-41845249D01*
X100790676Y-41832016D01*
X100939080Y-41586526D01*
X100947567Y-41574230D01*
X101124480Y-41348417D01*
X101134395Y-41337226D01*
X101337226Y-41134395D01*
X101348417Y-41124480D01*
X101574230Y-40947567D01*
X101586526Y-40939080D01*
X101832016Y-40790676D01*
X101845249Y-40783731D01*
X102106841Y-40665998D01*
X102120822Y-40660696D01*
X102394668Y-40575362D01*
X102409197Y-40571780D01*
X102691344Y-40520075D01*
X102706201Y-40518271D01*
X102996264Y-40500726D01*
X103003751Y-40500500D01*
X103065892Y-40500500D01*
X116394259Y-40500500D01*
X116461298Y-40520185D01*
G37*
%TD.AperFunction*%
%TD*%
%TA.AperFunction,NonConductor*%
G36*
X125965703Y-120799607D02*
G01*
X125994985Y-120837026D01*
X126048138Y-120941347D01*
X126168417Y-121106894D01*
X126168417Y-121106895D01*
X126313104Y-121251582D01*
X126478650Y-121371859D01*
X126660971Y-121464756D01*
X126674746Y-121469232D01*
X126732422Y-121508669D01*
X126759621Y-121573027D01*
X126747707Y-121641874D01*
X126700463Y-121693350D01*
X126674747Y-121705094D01*
X126622396Y-121722103D01*
X126622393Y-121722104D01*
X126425974Y-121822187D01*
X126247641Y-121951752D01*
X126247636Y-121951756D01*
X126091756Y-122107636D01*
X126091752Y-122107641D01*
X125984818Y-122254825D01*
X125929489Y-122297491D01*
X125859875Y-122303470D01*
X125798080Y-122270865D01*
X125763723Y-122210026D01*
X125760500Y-122181940D01*
X125760500Y-120893320D01*
X125780185Y-120826281D01*
X125832989Y-120780526D01*
X125902147Y-120770582D01*
X125965703Y-120799607D01*
G37*
%TD.AperFunction*%
%TA.AperFunction,NonConductor*%
G36*
X122656422Y-114573523D02*
G01*
X122670316Y-114589556D01*
X122731716Y-114674066D01*
X122893436Y-114835786D01*
X123078464Y-114970217D01*
X123282244Y-115074048D01*
X123282246Y-115074049D01*
X123499753Y-115144721D01*
X123499754Y-115144721D01*
X123499757Y-115144722D01*
X123725648Y-115180500D01*
X123725649Y-115180500D01*
X123954355Y-115180500D01*
X123954356Y-115180500D01*
X124180247Y-115144722D01*
X124315722Y-115100702D01*
X124330933Y-115100268D01*
X124345193Y-115094950D01*
X124365148Y-115099291D01*
X124385562Y-115098708D01*
X124399648Y-115106796D01*
X124413466Y-115109802D01*
X124441720Y-115130953D01*
X124523181Y-115212414D01*
X124556666Y-115273737D01*
X124559500Y-115300095D01*
X124559500Y-122181940D01*
X124539815Y-122248979D01*
X124487011Y-122294734D01*
X124417853Y-122304678D01*
X124354297Y-122275653D01*
X124335182Y-122254825D01*
X124228247Y-122107641D01*
X124228243Y-122107636D01*
X124072363Y-121951756D01*
X124072358Y-121951752D01*
X123894023Y-121822185D01*
X123828204Y-121788648D01*
X123777409Y-121740674D01*
X123760500Y-121678164D01*
X123760500Y-118169057D01*
X123760501Y-118169044D01*
X123760501Y-118000943D01*
X123760501Y-118000941D01*
X123719577Y-117848213D01*
X123676791Y-117774106D01*
X123640520Y-117711282D01*
X123528716Y-117599478D01*
X123528715Y-117599477D01*
X123524385Y-117595147D01*
X123524374Y-117595137D01*
X121321418Y-115392181D01*
X121287933Y-115330858D01*
X121292917Y-115261166D01*
X121334789Y-115205233D01*
X121400253Y-115180816D01*
X121409099Y-115180500D01*
X121414355Y-115180500D01*
X121414356Y-115180500D01*
X121640247Y-115144722D01*
X121640250Y-115144721D01*
X121640251Y-115144721D01*
X121857757Y-115074049D01*
X121857757Y-115074048D01*
X121857760Y-115074048D01*
X122061540Y-114970217D01*
X122246568Y-114835786D01*
X122408288Y-114674066D01*
X122469685Y-114589559D01*
X122525014Y-114546896D01*
X122594627Y-114540917D01*
X122656422Y-114573523D01*
G37*
%TD.AperFunction*%
M02*
