%TF.GenerationSoftware,KiCad,Pcbnew,9.0.1*%
%TF.CreationDate,2025-05-21T18:26:19+10:00*%
%TF.ProjectId,Power,506f7765-722e-46b6-9963-61645f706362,rev?*%
%TF.SameCoordinates,Original*%
%TF.FileFunction,Soldermask,Bot*%
%TF.FilePolarity,Negative*%
%FSLAX46Y46*%
G04 Gerber Fmt 4.6, Leading zero omitted, Abs format (unit mm)*
G04 Created by KiCad (PCBNEW 9.0.1) date 2025-05-21 18:26:19*
%MOMM*%
%LPD*%
G01*
G04 APERTURE LIST*
G04 Aperture macros list*
%AMRoundRect*
0 Rectangle with rounded corners*
0 $1 Rounding radius*
0 $2 $3 $4 $5 $6 $7 $8 $9 X,Y pos of 4 corners*
0 Add a 4 corners polygon primitive as box body*
4,1,4,$2,$3,$4,$5,$6,$7,$8,$9,$2,$3,0*
0 Add four circle primitives for the rounded corners*
1,1,$1+$1,$2,$3*
1,1,$1+$1,$4,$5*
1,1,$1+$1,$6,$7*
1,1,$1+$1,$8,$9*
0 Add four rect primitives between the rounded corners*
20,1,$1+$1,$2,$3,$4,$5,0*
20,1,$1+$1,$4,$5,$6,$7,0*
20,1,$1+$1,$6,$7,$8,$9,0*
20,1,$1+$1,$8,$9,$2,$3,0*%
G04 Aperture macros list end*
%ADD10RoundRect,0.291666X-0.408334X-0.708334X0.408334X-0.708334X0.408334X0.708334X-0.408334X0.708334X0*%
%ADD11O,1.400000X2.000000*%
%ADD12R,2.000000X2.000000*%
%ADD13C,2.000000*%
%ADD14C,3.500000*%
%ADD15R,1.905000X2.000000*%
%ADD16O,1.905000X2.000000*%
%ADD17R,1.800000X1.800000*%
%ADD18C,1.800000*%
%ADD19O,1.800000X1.800000*%
%ADD20C,2.130000*%
%ADD21O,1.800000X3.000000*%
%ADD22R,1.800000X3.000000*%
%ADD23O,1.600000X3.000000*%
%ADD24C,1.600000*%
%ADD25O,1.600000X1.600000*%
%ADD26R,1.350000X1.900000*%
%ADD27O,1.350000X1.900000*%
G04 APERTURE END LIST*
D10*
%TO.C,J2*%
X120160000Y-134178680D03*
D11*
X122160000Y-134178680D03*
X124160000Y-134178680D03*
%TD*%
D12*
%TO.C,C3*%
X126250000Y-84500000D03*
D13*
X126250000Y-79500000D03*
%TD*%
D14*
%TO.C,U1*%
X109200000Y-97020000D03*
D15*
X106660000Y-113680000D03*
D16*
X111740000Y-113680000D03*
X109200000Y-113680000D03*
%TD*%
D17*
%TO.C,C4*%
X113410000Y-118000000D03*
D18*
X110910000Y-118000000D03*
%TD*%
D17*
%TO.C,C5*%
X119410000Y-118000000D03*
D18*
X116910000Y-118000000D03*
%TD*%
D12*
%TO.C,C1*%
X126250000Y-61500000D03*
D13*
X126250000Y-56500000D03*
%TD*%
D17*
%TO.C,D2*%
X123160000Y-130640000D03*
D19*
X123160000Y-123020000D03*
%TD*%
D17*
%TO.C,D4*%
X127160000Y-130640000D03*
D19*
X127160000Y-123020000D03*
%TD*%
D20*
%TO.C,J1*%
X120160000Y-44350000D03*
D21*
X125460000Y-50650000D03*
D22*
X116960000Y-50650000D03*
D21*
X120160000Y-50650000D03*
D23*
X126360000Y-43350000D03*
X116560000Y-43350000D03*
%TD*%
D24*
%TO.C,R3*%
X103160000Y-120260000D03*
D25*
X103160000Y-112640000D03*
%TD*%
D12*
%TO.C,C2*%
X126250000Y-73000000D03*
D13*
X126250000Y-68000000D03*
%TD*%
D24*
%TO.C,R2*%
X120190000Y-90250000D03*
D25*
X127810000Y-90250000D03*
%TD*%
D26*
%TO.C,U3*%
X116970001Y-90250000D03*
D27*
X115200001Y-90250000D03*
X113470001Y-90250000D03*
%TD*%
D24*
%TO.C,R1*%
X102390000Y-90250000D03*
D25*
X110010000Y-90250000D03*
%TD*%
D24*
%TO.C,R4*%
X127160000Y-112640000D03*
D25*
X127160000Y-120260000D03*
%TD*%
D14*
%TO.C,U2*%
X121300002Y-97020000D03*
D15*
X118760002Y-113680000D03*
D16*
X121300002Y-113680000D03*
X123840002Y-113680000D03*
%TD*%
D24*
%TO.C,R5*%
X112500000Y-50810000D03*
D25*
X112500000Y-43190000D03*
%TD*%
D17*
%TO.C,D5*%
X104750000Y-47000000D03*
D18*
X107290000Y-47000000D03*
%TD*%
D17*
%TO.C,D3*%
X103160000Y-130640000D03*
D19*
X103160000Y-123020000D03*
%TD*%
D17*
%TO.C,D1*%
X107160000Y-130640000D03*
D19*
X107160000Y-123020000D03*
%TD*%
M02*
