%TF.GenerationSoftware,KiCad,Pcbnew,9.0.1*%
%TF.CreationDate,2025-05-21T18:26:19+10:00*%
%TF.ProjectId,Power,506f7765-722e-46b6-9963-61645f706362,rev?*%
%TF.SameCoordinates,Original*%
%TF.FileFunction,Legend,Bot*%
%TF.FilePolarity,Positive*%
%FSLAX46Y46*%
G04 Gerber Fmt 4.6, Leading zero omitted, Abs format (unit mm)*
G04 Created by KiCad (PCBNEW 9.0.1) date 2025-05-21 18:26:19*
%MOMM*%
%LPD*%
G01*
G04 APERTURE LIST*
%ADD10C,0.150000*%
%ADD11C,0.300000*%
%ADD12C,0.200000*%
%ADD13C,0.010000*%
%ADD14C,0.500000*%
G04 APERTURE END LIST*
D10*
X109500000Y-43825000D02*
X108500000Y-43825000D01*
X103500000Y-43825000D02*
X102500000Y-43825000D01*
X103000000Y-43324999D02*
X103000000Y-44325000D01*
X102845342Y-54134398D02*
X101645342Y-54134398D01*
X101645342Y-54134398D02*
X101645342Y-54591541D01*
X101645342Y-54591541D02*
X101702485Y-54705826D01*
X101702485Y-54705826D02*
X101759628Y-54762969D01*
X101759628Y-54762969D02*
X101873914Y-54820112D01*
X101873914Y-54820112D02*
X102045342Y-54820112D01*
X102045342Y-54820112D02*
X102159628Y-54762969D01*
X102159628Y-54762969D02*
X102216771Y-54705826D01*
X102216771Y-54705826D02*
X102273914Y-54591541D01*
X102273914Y-54591541D02*
X102273914Y-54134398D01*
X101645342Y-55562969D02*
X101645342Y-55791541D01*
X101645342Y-55791541D02*
X101702485Y-55905826D01*
X101702485Y-55905826D02*
X101816771Y-56020112D01*
X101816771Y-56020112D02*
X102045342Y-56077255D01*
X102045342Y-56077255D02*
X102445342Y-56077255D01*
X102445342Y-56077255D02*
X102673914Y-56020112D01*
X102673914Y-56020112D02*
X102788200Y-55905826D01*
X102788200Y-55905826D02*
X102845342Y-55791541D01*
X102845342Y-55791541D02*
X102845342Y-55562969D01*
X102845342Y-55562969D02*
X102788200Y-55448684D01*
X102788200Y-55448684D02*
X102673914Y-55334398D01*
X102673914Y-55334398D02*
X102445342Y-55277255D01*
X102445342Y-55277255D02*
X102045342Y-55277255D01*
X102045342Y-55277255D02*
X101816771Y-55334398D01*
X101816771Y-55334398D02*
X101702485Y-55448684D01*
X101702485Y-55448684D02*
X101645342Y-55562969D01*
X101645342Y-56477255D02*
X102845342Y-56762969D01*
X102845342Y-56762969D02*
X101988200Y-56991541D01*
X101988200Y-56991541D02*
X102845342Y-57220112D01*
X102845342Y-57220112D02*
X101645342Y-57505827D01*
X102216771Y-57962970D02*
X102216771Y-58362970D01*
X102845342Y-58534398D02*
X102845342Y-57962970D01*
X102845342Y-57962970D02*
X101645342Y-57962970D01*
X101645342Y-57962970D02*
X101645342Y-58534398D01*
X102845342Y-59734398D02*
X102273914Y-59334398D01*
X102845342Y-59048684D02*
X101645342Y-59048684D01*
X101645342Y-59048684D02*
X101645342Y-59505827D01*
X101645342Y-59505827D02*
X101702485Y-59620112D01*
X101702485Y-59620112D02*
X101759628Y-59677255D01*
X101759628Y-59677255D02*
X101873914Y-59734398D01*
X101873914Y-59734398D02*
X102045342Y-59734398D01*
X102045342Y-59734398D02*
X102159628Y-59677255D01*
X102159628Y-59677255D02*
X102216771Y-59620112D01*
X102216771Y-59620112D02*
X102273914Y-59505827D01*
X102273914Y-59505827D02*
X102273914Y-59048684D01*
X102045342Y-61048684D02*
X102845342Y-61334398D01*
X102845342Y-61334398D02*
X102045342Y-61620113D01*
X102845342Y-62705827D02*
X102845342Y-62020113D01*
X102845342Y-62362970D02*
X101645342Y-62362970D01*
X101645342Y-62362970D02*
X101816771Y-62248684D01*
X101816771Y-62248684D02*
X101931057Y-62134399D01*
X101931057Y-62134399D02*
X101988200Y-62020113D01*
X102388200Y-63220113D02*
X102388200Y-64134399D01*
X101645342Y-64934398D02*
X101645342Y-65048684D01*
X101645342Y-65048684D02*
X101702485Y-65162970D01*
X101702485Y-65162970D02*
X101759628Y-65220113D01*
X101759628Y-65220113D02*
X101873914Y-65277255D01*
X101873914Y-65277255D02*
X102102485Y-65334398D01*
X102102485Y-65334398D02*
X102388200Y-65334398D01*
X102388200Y-65334398D02*
X102616771Y-65277255D01*
X102616771Y-65277255D02*
X102731057Y-65220113D01*
X102731057Y-65220113D02*
X102788200Y-65162970D01*
X102788200Y-65162970D02*
X102845342Y-65048684D01*
X102845342Y-65048684D02*
X102845342Y-64934398D01*
X102845342Y-64934398D02*
X102788200Y-64820113D01*
X102788200Y-64820113D02*
X102731057Y-64762970D01*
X102731057Y-64762970D02*
X102616771Y-64705827D01*
X102616771Y-64705827D02*
X102388200Y-64648684D01*
X102388200Y-64648684D02*
X102102485Y-64648684D01*
X102102485Y-64648684D02*
X101873914Y-64705827D01*
X101873914Y-64705827D02*
X101759628Y-64762970D01*
X101759628Y-64762970D02*
X101702485Y-64820113D01*
X101702485Y-64820113D02*
X101645342Y-64934398D01*
X102388200Y-66762970D02*
X102388200Y-67677256D01*
X102845342Y-69162970D02*
X101645342Y-69162970D01*
X101645342Y-69162970D02*
X101645342Y-69620113D01*
X101645342Y-69620113D02*
X101702485Y-69734398D01*
X101702485Y-69734398D02*
X101759628Y-69791541D01*
X101759628Y-69791541D02*
X101873914Y-69848684D01*
X101873914Y-69848684D02*
X102045342Y-69848684D01*
X102045342Y-69848684D02*
X102159628Y-69791541D01*
X102159628Y-69791541D02*
X102216771Y-69734398D01*
X102216771Y-69734398D02*
X102273914Y-69620113D01*
X102273914Y-69620113D02*
X102273914Y-69162970D01*
X102845342Y-70877256D02*
X102216771Y-70877256D01*
X102216771Y-70877256D02*
X102102485Y-70820113D01*
X102102485Y-70820113D02*
X102045342Y-70705827D01*
X102045342Y-70705827D02*
X102045342Y-70477256D01*
X102045342Y-70477256D02*
X102102485Y-70362970D01*
X102788200Y-70877256D02*
X102845342Y-70762970D01*
X102845342Y-70762970D02*
X102845342Y-70477256D01*
X102845342Y-70477256D02*
X102788200Y-70362970D01*
X102788200Y-70362970D02*
X102673914Y-70305827D01*
X102673914Y-70305827D02*
X102559628Y-70305827D01*
X102559628Y-70305827D02*
X102445342Y-70362970D01*
X102445342Y-70362970D02*
X102388200Y-70477256D01*
X102388200Y-70477256D02*
X102388200Y-70762970D01*
X102388200Y-70762970D02*
X102331057Y-70877256D01*
X102045342Y-71448684D02*
X102845342Y-71448684D01*
X102159628Y-71448684D02*
X102102485Y-71505827D01*
X102102485Y-71505827D02*
X102045342Y-71620112D01*
X102045342Y-71620112D02*
X102045342Y-71791541D01*
X102045342Y-71791541D02*
X102102485Y-71905827D01*
X102102485Y-71905827D02*
X102216771Y-71962970D01*
X102216771Y-71962970D02*
X102845342Y-71962970D01*
X102788200Y-73048684D02*
X102845342Y-72934398D01*
X102845342Y-72934398D02*
X102845342Y-72705826D01*
X102845342Y-72705826D02*
X102788200Y-72591541D01*
X102788200Y-72591541D02*
X102731057Y-72534398D01*
X102731057Y-72534398D02*
X102616771Y-72477255D01*
X102616771Y-72477255D02*
X102273914Y-72477255D01*
X102273914Y-72477255D02*
X102159628Y-72534398D01*
X102159628Y-72534398D02*
X102102485Y-72591541D01*
X102102485Y-72591541D02*
X102045342Y-72705826D01*
X102045342Y-72705826D02*
X102045342Y-72934398D01*
X102045342Y-72934398D02*
X102102485Y-73048684D01*
X102845342Y-74077255D02*
X102216771Y-74077255D01*
X102216771Y-74077255D02*
X102102485Y-74020112D01*
X102102485Y-74020112D02*
X102045342Y-73905826D01*
X102045342Y-73905826D02*
X102045342Y-73677255D01*
X102045342Y-73677255D02*
X102102485Y-73562969D01*
X102788200Y-74077255D02*
X102845342Y-73962969D01*
X102845342Y-73962969D02*
X102845342Y-73677255D01*
X102845342Y-73677255D02*
X102788200Y-73562969D01*
X102788200Y-73562969D02*
X102673914Y-73505826D01*
X102673914Y-73505826D02*
X102559628Y-73505826D01*
X102559628Y-73505826D02*
X102445342Y-73562969D01*
X102445342Y-73562969D02*
X102388200Y-73677255D01*
X102388200Y-73677255D02*
X102388200Y-73962969D01*
X102388200Y-73962969D02*
X102331057Y-74077255D01*
X102845342Y-74648683D02*
X101645342Y-74648683D01*
X102388200Y-74762969D02*
X102845342Y-75105826D01*
X102045342Y-75105826D02*
X102502485Y-74648683D01*
X102788200Y-76077255D02*
X102845342Y-75962969D01*
X102845342Y-75962969D02*
X102845342Y-75734398D01*
X102845342Y-75734398D02*
X102788200Y-75620112D01*
X102788200Y-75620112D02*
X102673914Y-75562969D01*
X102673914Y-75562969D02*
X102216771Y-75562969D01*
X102216771Y-75562969D02*
X102102485Y-75620112D01*
X102102485Y-75620112D02*
X102045342Y-75734398D01*
X102045342Y-75734398D02*
X102045342Y-75962969D01*
X102045342Y-75962969D02*
X102102485Y-76077255D01*
X102102485Y-76077255D02*
X102216771Y-76134398D01*
X102216771Y-76134398D02*
X102331057Y-76134398D01*
X102331057Y-76134398D02*
X102445342Y-75562969D01*
X102845342Y-77220111D02*
X102845342Y-76648683D01*
X102845342Y-76648683D02*
X101645342Y-76648683D01*
X102788200Y-78077255D02*
X102845342Y-77962969D01*
X102845342Y-77962969D02*
X102845342Y-77734398D01*
X102845342Y-77734398D02*
X102788200Y-77620112D01*
X102788200Y-77620112D02*
X102673914Y-77562969D01*
X102673914Y-77562969D02*
X102216771Y-77562969D01*
X102216771Y-77562969D02*
X102102485Y-77620112D01*
X102102485Y-77620112D02*
X102045342Y-77734398D01*
X102045342Y-77734398D02*
X102045342Y-77962969D01*
X102045342Y-77962969D02*
X102102485Y-78077255D01*
X102102485Y-78077255D02*
X102216771Y-78134398D01*
X102216771Y-78134398D02*
X102331057Y-78134398D01*
X102331057Y-78134398D02*
X102445342Y-77562969D01*
X102045342Y-79162969D02*
X103016771Y-79162969D01*
X103016771Y-79162969D02*
X103131057Y-79105826D01*
X103131057Y-79105826D02*
X103188200Y-79048683D01*
X103188200Y-79048683D02*
X103245342Y-78934397D01*
X103245342Y-78934397D02*
X103245342Y-78762969D01*
X103245342Y-78762969D02*
X103188200Y-78648683D01*
X102788200Y-79162969D02*
X102845342Y-79048683D01*
X102845342Y-79048683D02*
X102845342Y-78820111D01*
X102845342Y-78820111D02*
X102788200Y-78705826D01*
X102788200Y-78705826D02*
X102731057Y-78648683D01*
X102731057Y-78648683D02*
X102616771Y-78591540D01*
X102616771Y-78591540D02*
X102273914Y-78591540D01*
X102273914Y-78591540D02*
X102159628Y-78648683D01*
X102159628Y-78648683D02*
X102102485Y-78705826D01*
X102102485Y-78705826D02*
X102045342Y-78820111D01*
X102045342Y-78820111D02*
X102045342Y-79048683D01*
X102045342Y-79048683D02*
X102102485Y-79162969D01*
X102788200Y-80191540D02*
X102845342Y-80077254D01*
X102845342Y-80077254D02*
X102845342Y-79848683D01*
X102845342Y-79848683D02*
X102788200Y-79734397D01*
X102788200Y-79734397D02*
X102673914Y-79677254D01*
X102673914Y-79677254D02*
X102216771Y-79677254D01*
X102216771Y-79677254D02*
X102102485Y-79734397D01*
X102102485Y-79734397D02*
X102045342Y-79848683D01*
X102045342Y-79848683D02*
X102045342Y-80077254D01*
X102045342Y-80077254D02*
X102102485Y-80191540D01*
X102102485Y-80191540D02*
X102216771Y-80248683D01*
X102216771Y-80248683D02*
X102331057Y-80248683D01*
X102331057Y-80248683D02*
X102445342Y-79677254D01*
X102045342Y-80762968D02*
X102845342Y-80762968D01*
X102159628Y-80762968D02*
X102102485Y-80820111D01*
X102102485Y-80820111D02*
X102045342Y-80934396D01*
X102045342Y-80934396D02*
X102045342Y-81105825D01*
X102045342Y-81105825D02*
X102102485Y-81220111D01*
X102102485Y-81220111D02*
X102216771Y-81277254D01*
X102216771Y-81277254D02*
X102845342Y-81277254D01*
X102845342Y-82362968D02*
X101645342Y-82362968D01*
X102788200Y-82362968D02*
X102845342Y-82248682D01*
X102845342Y-82248682D02*
X102845342Y-82020110D01*
X102845342Y-82020110D02*
X102788200Y-81905825D01*
X102788200Y-81905825D02*
X102731057Y-81848682D01*
X102731057Y-81848682D02*
X102616771Y-81791539D01*
X102616771Y-81791539D02*
X102273914Y-81791539D01*
X102273914Y-81791539D02*
X102159628Y-81848682D01*
X102159628Y-81848682D02*
X102102485Y-81905825D01*
X102102485Y-81905825D02*
X102045342Y-82020110D01*
X102045342Y-82020110D02*
X102045342Y-82248682D01*
X102045342Y-82248682D02*
X102102485Y-82362968D01*
X101759628Y-83791539D02*
X101702485Y-83848682D01*
X101702485Y-83848682D02*
X101645342Y-83962968D01*
X101645342Y-83962968D02*
X101645342Y-84248682D01*
X101645342Y-84248682D02*
X101702485Y-84362968D01*
X101702485Y-84362968D02*
X101759628Y-84420110D01*
X101759628Y-84420110D02*
X101873914Y-84477253D01*
X101873914Y-84477253D02*
X101988200Y-84477253D01*
X101988200Y-84477253D02*
X102159628Y-84420110D01*
X102159628Y-84420110D02*
X102845342Y-83734396D01*
X102845342Y-83734396D02*
X102845342Y-84477253D01*
X101645342Y-85220110D02*
X101645342Y-85334396D01*
X101645342Y-85334396D02*
X101702485Y-85448682D01*
X101702485Y-85448682D02*
X101759628Y-85505825D01*
X101759628Y-85505825D02*
X101873914Y-85562967D01*
X101873914Y-85562967D02*
X102102485Y-85620110D01*
X102102485Y-85620110D02*
X102388200Y-85620110D01*
X102388200Y-85620110D02*
X102616771Y-85562967D01*
X102616771Y-85562967D02*
X102731057Y-85505825D01*
X102731057Y-85505825D02*
X102788200Y-85448682D01*
X102788200Y-85448682D02*
X102845342Y-85334396D01*
X102845342Y-85334396D02*
X102845342Y-85220110D01*
X102845342Y-85220110D02*
X102788200Y-85105825D01*
X102788200Y-85105825D02*
X102731057Y-85048682D01*
X102731057Y-85048682D02*
X102616771Y-84991539D01*
X102616771Y-84991539D02*
X102388200Y-84934396D01*
X102388200Y-84934396D02*
X102102485Y-84934396D01*
X102102485Y-84934396D02*
X101873914Y-84991539D01*
X101873914Y-84991539D02*
X101759628Y-85048682D01*
X101759628Y-85048682D02*
X101702485Y-85105825D01*
X101702485Y-85105825D02*
X101645342Y-85220110D01*
X101759628Y-86077253D02*
X101702485Y-86134396D01*
X101702485Y-86134396D02*
X101645342Y-86248682D01*
X101645342Y-86248682D02*
X101645342Y-86534396D01*
X101645342Y-86534396D02*
X101702485Y-86648682D01*
X101702485Y-86648682D02*
X101759628Y-86705824D01*
X101759628Y-86705824D02*
X101873914Y-86762967D01*
X101873914Y-86762967D02*
X101988200Y-86762967D01*
X101988200Y-86762967D02*
X102159628Y-86705824D01*
X102159628Y-86705824D02*
X102845342Y-86020110D01*
X102845342Y-86020110D02*
X102845342Y-86762967D01*
X101645342Y-87848681D02*
X101645342Y-87277253D01*
X101645342Y-87277253D02*
X102216771Y-87220110D01*
X102216771Y-87220110D02*
X102159628Y-87277253D01*
X102159628Y-87277253D02*
X102102485Y-87391539D01*
X102102485Y-87391539D02*
X102102485Y-87677253D01*
X102102485Y-87677253D02*
X102159628Y-87791539D01*
X102159628Y-87791539D02*
X102216771Y-87848681D01*
X102216771Y-87848681D02*
X102331057Y-87905824D01*
X102331057Y-87905824D02*
X102616771Y-87905824D01*
X102616771Y-87905824D02*
X102731057Y-87848681D01*
X102731057Y-87848681D02*
X102788200Y-87791539D01*
X102788200Y-87791539D02*
X102845342Y-87677253D01*
X102845342Y-87677253D02*
X102845342Y-87391539D01*
X102845342Y-87391539D02*
X102788200Y-87277253D01*
X102788200Y-87277253D02*
X102731057Y-87220110D01*
D11*
X109464285Y-50800828D02*
X109464285Y-49300828D01*
X109464285Y-49300828D02*
X109107142Y-49300828D01*
X109107142Y-49300828D02*
X108892856Y-49372257D01*
X108892856Y-49372257D02*
X108749999Y-49515114D01*
X108749999Y-49515114D02*
X108678570Y-49657971D01*
X108678570Y-49657971D02*
X108607142Y-49943685D01*
X108607142Y-49943685D02*
X108607142Y-50157971D01*
X108607142Y-50157971D02*
X108678570Y-50443685D01*
X108678570Y-50443685D02*
X108749999Y-50586542D01*
X108749999Y-50586542D02*
X108892856Y-50729400D01*
X108892856Y-50729400D02*
X109107142Y-50800828D01*
X109107142Y-50800828D02*
X109464285Y-50800828D01*
X107107142Y-50657971D02*
X107178570Y-50729400D01*
X107178570Y-50729400D02*
X107392856Y-50800828D01*
X107392856Y-50800828D02*
X107535713Y-50800828D01*
X107535713Y-50800828D02*
X107749999Y-50729400D01*
X107749999Y-50729400D02*
X107892856Y-50586542D01*
X107892856Y-50586542D02*
X107964285Y-50443685D01*
X107964285Y-50443685D02*
X108035713Y-50157971D01*
X108035713Y-50157971D02*
X108035713Y-49943685D01*
X108035713Y-49943685D02*
X107964285Y-49657971D01*
X107964285Y-49657971D02*
X107892856Y-49515114D01*
X107892856Y-49515114D02*
X107749999Y-49372257D01*
X107749999Y-49372257D02*
X107535713Y-49300828D01*
X107535713Y-49300828D02*
X107392856Y-49300828D01*
X107392856Y-49300828D02*
X107178570Y-49372257D01*
X107178570Y-49372257D02*
X107107142Y-49443685D01*
X105392856Y-49443685D02*
X105321428Y-49372257D01*
X105321428Y-49372257D02*
X105178571Y-49300828D01*
X105178571Y-49300828D02*
X104821428Y-49300828D01*
X104821428Y-49300828D02*
X104678571Y-49372257D01*
X104678571Y-49372257D02*
X104607142Y-49443685D01*
X104607142Y-49443685D02*
X104535713Y-49586542D01*
X104535713Y-49586542D02*
X104535713Y-49729400D01*
X104535713Y-49729400D02*
X104607142Y-49943685D01*
X104607142Y-49943685D02*
X105464285Y-50800828D01*
X105464285Y-50800828D02*
X104535713Y-50800828D01*
X103250000Y-49800828D02*
X103250000Y-50800828D01*
X103607142Y-49229400D02*
X103964285Y-50300828D01*
X103964285Y-50300828D02*
X103035714Y-50300828D01*
X102607143Y-49800828D02*
X102250000Y-50800828D01*
X102250000Y-50800828D02*
X101892857Y-49800828D01*
D12*
X119527602Y-136777877D02*
X119467126Y-136656924D01*
X119467126Y-136656924D02*
X119467126Y-136475496D01*
X119467126Y-136475496D02*
X119527602Y-136294067D01*
X119527602Y-136294067D02*
X119648554Y-136173115D01*
X119648554Y-136173115D02*
X119769507Y-136112638D01*
X119769507Y-136112638D02*
X120011411Y-136052162D01*
X120011411Y-136052162D02*
X120192840Y-136052162D01*
X120192840Y-136052162D02*
X120434745Y-136112638D01*
X120434745Y-136112638D02*
X120555697Y-136173115D01*
X120555697Y-136173115D02*
X120676650Y-136294067D01*
X120676650Y-136294067D02*
X120737126Y-136475496D01*
X120737126Y-136475496D02*
X120737126Y-136596448D01*
X120737126Y-136596448D02*
X120676650Y-136777877D01*
X120676650Y-136777877D02*
X120616173Y-136838353D01*
X120616173Y-136838353D02*
X120192840Y-136838353D01*
X120192840Y-136838353D02*
X120192840Y-136596448D01*
X120737126Y-137382638D02*
X119467126Y-137382638D01*
X119467126Y-137382638D02*
X120737126Y-138108353D01*
X120737126Y-138108353D02*
X119467126Y-138108353D01*
X120737126Y-138713114D02*
X119467126Y-138713114D01*
X119467126Y-138713114D02*
X119467126Y-139015495D01*
X119467126Y-139015495D02*
X119527602Y-139196924D01*
X119527602Y-139196924D02*
X119648554Y-139317876D01*
X119648554Y-139317876D02*
X119769507Y-139378353D01*
X119769507Y-139378353D02*
X120011411Y-139438829D01*
X120011411Y-139438829D02*
X120192840Y-139438829D01*
X120192840Y-139438829D02*
X120434745Y-139378353D01*
X120434745Y-139378353D02*
X120555697Y-139317876D01*
X120555697Y-139317876D02*
X120676650Y-139196924D01*
X120676650Y-139196924D02*
X120737126Y-139015495D01*
X120737126Y-139015495D02*
X120737126Y-138713114D01*
X124253316Y-136112638D02*
X124253316Y-137080258D01*
X123467126Y-137503591D02*
X124737126Y-137926924D01*
X124737126Y-137926924D02*
X123467126Y-138350258D01*
X122253316Y-136112638D02*
X122253316Y-137080258D01*
X122737126Y-136596448D02*
X121769507Y-136596448D01*
X121467126Y-137503591D02*
X122737126Y-137926924D01*
X122737126Y-137926924D02*
X121467126Y-138350258D01*
D13*
%TO.C,Ref\u002A\u002A*%
X123478238Y-102496758D02*
X123533574Y-102528118D01*
X123567076Y-102595176D01*
X123578333Y-102697272D01*
X123578151Y-102710527D01*
X123560195Y-102811675D01*
X123509541Y-102892940D01*
X123421461Y-102962308D01*
X123417865Y-102964455D01*
X123358059Y-102991192D01*
X123304531Y-103002254D01*
X123266336Y-102993331D01*
X123214657Y-102963723D01*
X123172458Y-102924546D01*
X123155000Y-102887508D01*
X123162949Y-102869125D01*
X123193172Y-102826622D01*
X123238226Y-102773683D01*
X123271188Y-102733652D01*
X123313407Y-102668645D01*
X123335921Y-102614942D01*
X123336753Y-102611105D01*
X123360258Y-102540967D01*
X123396366Y-102504674D01*
X123452725Y-102494333D01*
X123478238Y-102496758D01*
G36*
X123478238Y-102496758D02*
G01*
X123533574Y-102528118D01*
X123567076Y-102595176D01*
X123578333Y-102697272D01*
X123578151Y-102710527D01*
X123560195Y-102811675D01*
X123509541Y-102892940D01*
X123421461Y-102962308D01*
X123417865Y-102964455D01*
X123358059Y-102991192D01*
X123304531Y-103002254D01*
X123266336Y-102993331D01*
X123214657Y-102963723D01*
X123172458Y-102924546D01*
X123155000Y-102887508D01*
X123162949Y-102869125D01*
X123193172Y-102826622D01*
X123238226Y-102773683D01*
X123271188Y-102733652D01*
X123313407Y-102668645D01*
X123335921Y-102614942D01*
X123336753Y-102611105D01*
X123360258Y-102540967D01*
X123396366Y-102504674D01*
X123452725Y-102494333D01*
X123478238Y-102496758D01*
G37*
X119386830Y-103722027D02*
X119410284Y-103728797D01*
X119418258Y-103755103D01*
X119414472Y-103811958D01*
X119411464Y-103864175D01*
X119422345Y-103909864D01*
X119455132Y-103949216D01*
X119507054Y-103984911D01*
X119570505Y-104009459D01*
X119610763Y-104012942D01*
X119655425Y-103998319D01*
X119709865Y-103956868D01*
X119733683Y-103936494D01*
X119774989Y-103904107D01*
X119796823Y-103891333D01*
X119802712Y-103894741D01*
X119828133Y-103922932D01*
X119862821Y-103970330D01*
X119874694Y-103988746D01*
X119907077Y-104064630D01*
X119916030Y-104155538D01*
X119915292Y-104181565D01*
X119896912Y-104272730D01*
X119849757Y-104338353D01*
X119768333Y-104387042D01*
X119767598Y-104387357D01*
X119674671Y-104414472D01*
X119576068Y-104414973D01*
X119458096Y-104388946D01*
X119413704Y-104374444D01*
X119283301Y-104311157D01*
X119188902Y-104228155D01*
X119131519Y-104126555D01*
X119112167Y-104007474D01*
X119112956Y-103974436D01*
X119125866Y-103897439D01*
X119158054Y-103838706D01*
X119163201Y-103832452D01*
X119227717Y-103777942D01*
X119307969Y-103737698D01*
X119384054Y-103722000D01*
X119386830Y-103722027D01*
G36*
X119386830Y-103722027D02*
G01*
X119410284Y-103728797D01*
X119418258Y-103755103D01*
X119414472Y-103811958D01*
X119411464Y-103864175D01*
X119422345Y-103909864D01*
X119455132Y-103949216D01*
X119507054Y-103984911D01*
X119570505Y-104009459D01*
X119610763Y-104012942D01*
X119655425Y-103998319D01*
X119709865Y-103956868D01*
X119733683Y-103936494D01*
X119774989Y-103904107D01*
X119796823Y-103891333D01*
X119802712Y-103894741D01*
X119828133Y-103922932D01*
X119862821Y-103970330D01*
X119874694Y-103988746D01*
X119907077Y-104064630D01*
X119916030Y-104155538D01*
X119915292Y-104181565D01*
X119896912Y-104272730D01*
X119849757Y-104338353D01*
X119768333Y-104387042D01*
X119767598Y-104387357D01*
X119674671Y-104414472D01*
X119576068Y-104414973D01*
X119458096Y-104388946D01*
X119413704Y-104374444D01*
X119283301Y-104311157D01*
X119188902Y-104228155D01*
X119131519Y-104126555D01*
X119112167Y-104007474D01*
X119112956Y-103974436D01*
X119125866Y-103897439D01*
X119158054Y-103838706D01*
X119163201Y-103832452D01*
X119227717Y-103777942D01*
X119307969Y-103737698D01*
X119384054Y-103722000D01*
X119386830Y-103722027D01*
G37*
X125504634Y-102896087D02*
X125713316Y-103276199D01*
X125818416Y-103500053D01*
X125828802Y-103526208D01*
X125971359Y-103885234D01*
X126087292Y-104270354D01*
X126167953Y-104662877D01*
X126215076Y-105070270D01*
X126230396Y-105500000D01*
X126226097Y-105731247D01*
X126193676Y-106151213D01*
X126128099Y-106552793D01*
X126027721Y-106943071D01*
X125890901Y-107329128D01*
X125742550Y-107659000D01*
X125715996Y-107718045D01*
X125631678Y-107880766D01*
X125397772Y-108269419D01*
X125132166Y-108631717D01*
X124836934Y-108966251D01*
X124514152Y-109271611D01*
X124165897Y-109546390D01*
X123794244Y-109789175D01*
X123401269Y-109998558D01*
X122989047Y-110173130D01*
X122559655Y-110311480D01*
X122115168Y-110412200D01*
X121657662Y-110473879D01*
X121639016Y-110475418D01*
X121532290Y-110481126D01*
X121401386Y-110484455D01*
X121261163Y-110485152D01*
X121126480Y-110482962D01*
X121064858Y-110480858D01*
X120638191Y-110448276D01*
X120232349Y-110383579D01*
X119839280Y-110284798D01*
X119450930Y-110149962D01*
X119059250Y-109977100D01*
X118738275Y-109806969D01*
X118357153Y-109563387D01*
X118003180Y-109287569D01*
X117675739Y-108978977D01*
X117374216Y-108637071D01*
X117097994Y-108261313D01*
X117031584Y-108159675D01*
X116809342Y-107771670D01*
X116624991Y-107368401D01*
X116478533Y-106952713D01*
X116369965Y-106527451D01*
X116299291Y-106095459D01*
X116266508Y-105659583D01*
X116271616Y-105222668D01*
X116314616Y-104787560D01*
X116329282Y-104709517D01*
X117360908Y-104709517D01*
X117361232Y-104840150D01*
X117369204Y-104979502D01*
X117384197Y-105114067D01*
X117405583Y-105230342D01*
X117407506Y-105238264D01*
X117434768Y-105323841D01*
X117475130Y-105404146D01*
X117533884Y-105486712D01*
X117616323Y-105579069D01*
X117727739Y-105688747D01*
X117902192Y-105853881D01*
X117890419Y-105983723D01*
X117888234Y-106015985D01*
X117899509Y-106154948D01*
X117947211Y-106273861D01*
X118032405Y-106375662D01*
X118120887Y-106438834D01*
X118245717Y-106484331D01*
X118381190Y-106491342D01*
X118523206Y-106459781D01*
X118667667Y-106389556D01*
X118693784Y-106374026D01*
X118743072Y-106350711D01*
X118798190Y-106335628D01*
X118871304Y-106325980D01*
X118974583Y-106318967D01*
X119021310Y-106315977D01*
X119128727Y-106306201D01*
X119227131Y-106293735D01*
X119299871Y-106280542D01*
X119349641Y-106269365D01*
X119395354Y-106263663D01*
X119422024Y-106271233D01*
X119442477Y-106293216D01*
X119466550Y-106341087D01*
X119484563Y-106402692D01*
X119487722Y-106451630D01*
X119472154Y-106500122D01*
X119431916Y-106561935D01*
X119408238Y-106596061D01*
X119377995Y-106647553D01*
X119366166Y-106679971D01*
X119368646Y-106702492D01*
X119391894Y-106755967D01*
X119442241Y-106819416D01*
X119522897Y-106896528D01*
X119637077Y-106990990D01*
X119848321Y-107157997D01*
X119874113Y-107317884D01*
X119875563Y-107326775D01*
X119890619Y-107410383D01*
X119905661Y-107481094D01*
X119917639Y-107524412D01*
X119924576Y-107558323D01*
X119904836Y-107596397D01*
X119887433Y-107619471D01*
X119860872Y-107677564D01*
X119836102Y-107752308D01*
X119817806Y-107828966D01*
X119810667Y-107892798D01*
X119810391Y-107905613D01*
X119802258Y-107935654D01*
X119774396Y-107951901D01*
X119715548Y-107962617D01*
X119681407Y-107969149D01*
X119596861Y-107994501D01*
X119516552Y-108028292D01*
X119444558Y-108071970D01*
X119357089Y-108156501D01*
X119306007Y-108253351D01*
X119290868Y-108357528D01*
X119311226Y-108464042D01*
X119366635Y-108567904D01*
X119456649Y-108664122D01*
X119580822Y-108747708D01*
X119633136Y-108775759D01*
X119678858Y-108800322D01*
X119697821Y-108810578D01*
X119709409Y-108832747D01*
X119716465Y-108873109D01*
X119716755Y-108911749D01*
X119708506Y-108929000D01*
X119676431Y-108935884D01*
X119626836Y-108953477D01*
X119579439Y-108965725D01*
X119503719Y-108976062D01*
X119419083Y-108981262D01*
X119293153Y-108992266D01*
X119139166Y-109030045D01*
X119005309Y-109091307D01*
X118898216Y-109172817D01*
X118824519Y-109271336D01*
X118819650Y-109281493D01*
X118804079Y-109364053D01*
X118824406Y-109448343D01*
X118876003Y-109526988D01*
X118954244Y-109592617D01*
X119054501Y-109637855D01*
X119058224Y-109638931D01*
X119135952Y-109654394D01*
X119234318Y-109665120D01*
X119332967Y-109668843D01*
X119430650Y-109664499D01*
X119567299Y-109639421D01*
X119691978Y-109587376D01*
X119820364Y-109503026D01*
X119879645Y-109459689D01*
X119915750Y-109438797D01*
X119934462Y-109438977D01*
X119943583Y-109457337D01*
X119946897Y-109466704D01*
X119986203Y-109509182D01*
X120057327Y-109543434D01*
X120151896Y-109567815D01*
X120261536Y-109580679D01*
X120377876Y-109580378D01*
X120492542Y-109565268D01*
X120556124Y-109547148D01*
X120644537Y-109498290D01*
X120700986Y-109431131D01*
X120720833Y-109350042D01*
X120713915Y-109286981D01*
X120682807Y-109176334D01*
X120629577Y-109045237D01*
X120557397Y-108900475D01*
X120469445Y-108748841D01*
X120368893Y-108597124D01*
X120360143Y-108584729D01*
X120317597Y-108523490D01*
X120287658Y-108478779D01*
X120276346Y-108459540D01*
X120282270Y-108458246D01*
X120321979Y-108456070D01*
X120392864Y-108454327D01*
X120487669Y-108453170D01*
X120599137Y-108452750D01*
X120637436Y-108452727D01*
X120752858Y-108451966D01*
X120837135Y-108449309D01*
X120899045Y-108443652D01*
X120947363Y-108433897D01*
X120990867Y-108418942D01*
X121038333Y-108397687D01*
X121088876Y-108371473D01*
X121158673Y-108328303D01*
X121207667Y-108289621D01*
X121240037Y-108262610D01*
X121280693Y-108244441D01*
X121340047Y-108233103D01*
X121429917Y-108225170D01*
X121532368Y-108213385D01*
X121641850Y-108192968D01*
X121732948Y-108168496D01*
X121866645Y-108123269D01*
X121934031Y-108180154D01*
X122006914Y-108231938D01*
X122129118Y-108296250D01*
X122270905Y-108352262D01*
X122419458Y-108394321D01*
X122484662Y-108409334D01*
X122540624Y-108425166D01*
X122570103Y-108441238D01*
X122581579Y-108462747D01*
X122583533Y-108494891D01*
X122590667Y-108558275D01*
X122631604Y-108654526D01*
X122702562Y-108731844D01*
X122796286Y-108783307D01*
X122905522Y-108802000D01*
X122950198Y-108800733D01*
X123028228Y-108786960D01*
X123096186Y-108752249D01*
X123170875Y-108689474D01*
X123182462Y-108678060D01*
X123229327Y-108611290D01*
X123234281Y-108550321D01*
X123197333Y-108495083D01*
X123168988Y-108466155D01*
X123155050Y-108444178D01*
X123168816Y-108431094D01*
X123211164Y-108404141D01*
X123272125Y-108370436D01*
X123371281Y-108308180D01*
X123493112Y-108204583D01*
X123598995Y-108085182D01*
X123676294Y-107962719D01*
X123678051Y-107959132D01*
X123708804Y-107889790D01*
X123726636Y-107827631D01*
X123734818Y-107756192D01*
X123736619Y-107659000D01*
X123728089Y-107522419D01*
X123700249Y-107413789D01*
X123648803Y-107323241D01*
X123569450Y-107239998D01*
X123481524Y-107182038D01*
X123377722Y-107157597D01*
X123260405Y-107172282D01*
X123252789Y-107174498D01*
X123167667Y-107216987D01*
X123075428Y-107289749D01*
X122984043Y-107384607D01*
X122901486Y-107493382D01*
X122835729Y-107607897D01*
X122764528Y-107757143D01*
X122488807Y-107676583D01*
X122469760Y-107670983D01*
X122363904Y-107638544D01*
X122270090Y-107607738D01*
X122197896Y-107581810D01*
X122156901Y-107564012D01*
X122091013Y-107541263D01*
X121979851Y-107534077D01*
X121834506Y-107548653D01*
X121656110Y-107584944D01*
X121586066Y-107601713D01*
X121505698Y-107620382D01*
X121447864Y-107633121D01*
X121421851Y-107637833D01*
X121412289Y-107628148D01*
X121392704Y-107587785D01*
X121370733Y-107526708D01*
X121348785Y-107466441D01*
X121279573Y-107324824D01*
X121177848Y-107159813D01*
X121042981Y-106970340D01*
X121004651Y-106918485D01*
X121463613Y-106918485D01*
X121529304Y-107024159D01*
X121560236Y-107070005D01*
X121595455Y-107112503D01*
X121618289Y-107128301D01*
X121652110Y-107123714D01*
X121729340Y-107106676D01*
X121823551Y-107081224D01*
X121920914Y-107051437D01*
X122007597Y-107021393D01*
X122069772Y-106995170D01*
X122102945Y-106979075D01*
X122151173Y-106961025D01*
X122202328Y-106952199D01*
X122269483Y-106950829D01*
X122365714Y-106955147D01*
X122439566Y-106958837D01*
X122512796Y-106959216D01*
X122567643Y-106952443D01*
X122617798Y-106936506D01*
X122676951Y-106909391D01*
X122706674Y-106894079D01*
X122804563Y-106827259D01*
X122883560Y-106739984D01*
X122954167Y-106621340D01*
X123004988Y-106521049D01*
X123143435Y-106512233D01*
X123173030Y-106510070D01*
X123256576Y-106498083D01*
X123304366Y-106477121D01*
X123321376Y-106443715D01*
X123312583Y-106394400D01*
X123304437Y-106376000D01*
X123252126Y-106318806D01*
X123168114Y-106273850D01*
X123060048Y-106244390D01*
X122935574Y-106233686D01*
X122768032Y-106247252D01*
X122591857Y-106294909D01*
X122416388Y-106379016D01*
X122235816Y-106501800D01*
X122216553Y-106501285D01*
X122172117Y-106474357D01*
X122110898Y-106421207D01*
X122079906Y-106392184D01*
X122027358Y-106350136D01*
X121985212Y-106331348D01*
X121941947Y-106329573D01*
X121900226Y-106338673D01*
X121865582Y-106364494D01*
X121848600Y-106410882D01*
X121848754Y-106482539D01*
X121865519Y-106584163D01*
X121898374Y-106720455D01*
X121899205Y-106723799D01*
X121898390Y-106753911D01*
X121873769Y-106778831D01*
X121817036Y-106807446D01*
X121734617Y-106841312D01*
X121520848Y-106905841D01*
X121463613Y-106918485D01*
X121004651Y-106918485D01*
X120998118Y-106909646D01*
X120952626Y-106845663D01*
X120923053Y-106800999D01*
X120914306Y-106782806D01*
X120925939Y-106774619D01*
X120964642Y-106748135D01*
X121019529Y-106710930D01*
X121131331Y-106623302D01*
X121263593Y-106493473D01*
X121397132Y-106337369D01*
X121482849Y-106220683D01*
X123574326Y-106220683D01*
X123650413Y-106304903D01*
X123678782Y-106338601D01*
X123713105Y-106388082D01*
X123726500Y-106420811D01*
X123727045Y-106424970D01*
X123736541Y-106435119D01*
X123761939Y-106442488D01*
X123773361Y-106443715D01*
X123808526Y-106447493D01*
X123881586Y-106450553D01*
X123986403Y-106452083D01*
X124128264Y-106452500D01*
X124203507Y-106452482D01*
X124323884Y-106452091D01*
X124410576Y-106450672D01*
X124469337Y-106447560D01*
X124505916Y-106442089D01*
X124526065Y-106433595D01*
X124535535Y-106421412D01*
X124540078Y-106404875D01*
X124543057Y-106383637D01*
X124550493Y-106323661D01*
X124561755Y-106229700D01*
X124576358Y-106105982D01*
X124593820Y-105956730D01*
X124613655Y-105786168D01*
X124635380Y-105598519D01*
X124658514Y-105398009D01*
X124682570Y-105188860D01*
X124707065Y-104975298D01*
X124731516Y-104761546D01*
X124755438Y-104551828D01*
X124778348Y-104350369D01*
X124799763Y-104161392D01*
X124819198Y-103989121D01*
X124836169Y-103837781D01*
X124850194Y-103711596D01*
X124860788Y-103614789D01*
X124867467Y-103551585D01*
X124869749Y-103526208D01*
X124851560Y-103519758D01*
X124804846Y-103514305D01*
X124743690Y-103510582D01*
X124682184Y-103509171D01*
X124634421Y-103510657D01*
X124614493Y-103515625D01*
X124614251Y-103517579D01*
X124610473Y-103550274D01*
X124602444Y-103620486D01*
X124590566Y-103724673D01*
X124575243Y-103859294D01*
X124556877Y-104020811D01*
X124535870Y-104205681D01*
X124513878Y-104399333D01*
X124512626Y-104410363D01*
X124487546Y-104631316D01*
X124461035Y-104865000D01*
X124413018Y-105288333D01*
X124308583Y-106209083D01*
X123941455Y-106214884D01*
X123574326Y-106220683D01*
X121482849Y-106220683D01*
X121525683Y-106162374D01*
X121642984Y-105975873D01*
X121651590Y-105962011D01*
X121669285Y-105948128D01*
X121699141Y-105951729D01*
X121754538Y-105972395D01*
X121823630Y-105994528D01*
X121915648Y-106004425D01*
X121988733Y-105988042D01*
X122036943Y-105947142D01*
X122054333Y-105883489D01*
X122051236Y-105856340D01*
X122025367Y-105805068D01*
X121969120Y-105751710D01*
X121877528Y-105690850D01*
X121855737Y-105676868D01*
X121773561Y-105599300D01*
X121726993Y-105507326D01*
X121718179Y-105407387D01*
X121746549Y-105314792D01*
X122288359Y-105314792D01*
X122289091Y-105323962D01*
X122293770Y-105370477D01*
X122301983Y-105447162D01*
X122312860Y-105545944D01*
X122325526Y-105658750D01*
X122361500Y-105976250D01*
X123234499Y-105981776D01*
X123349109Y-105982444D01*
X123553027Y-105983224D01*
X123719395Y-105983156D01*
X123851418Y-105982164D01*
X123952303Y-105980169D01*
X124025255Y-105977093D01*
X124073479Y-105972860D01*
X124100184Y-105967391D01*
X124108573Y-105960610D01*
X124109393Y-105950319D01*
X124114255Y-105902475D01*
X124122695Y-105824664D01*
X124133839Y-105724881D01*
X124146811Y-105611125D01*
X124183975Y-105288333D01*
X123235571Y-105288333D01*
X123052058Y-105288470D01*
X122848176Y-105289103D01*
X122681297Y-105290325D01*
X122548410Y-105292223D01*
X122446500Y-105294881D01*
X122372552Y-105298383D01*
X122323556Y-105302812D01*
X122296496Y-105308255D01*
X122288359Y-105314792D01*
X121746549Y-105314792D01*
X121749266Y-105305923D01*
X121766829Y-105274748D01*
X121808243Y-105208849D01*
X121855100Y-105140405D01*
X121863291Y-105128812D01*
X121913397Y-105039980D01*
X121927246Y-104964362D01*
X121904583Y-104893811D01*
X121845157Y-104820176D01*
X121835277Y-104810562D01*
X121758432Y-104754511D01*
X121691008Y-104737140D01*
X121637195Y-104757093D01*
X121601189Y-104813016D01*
X121587179Y-104903553D01*
X121584557Y-104965156D01*
X121572585Y-105024350D01*
X121544112Y-105069214D01*
X121491743Y-105110251D01*
X121408081Y-105157969D01*
X121355314Y-105187399D01*
X121290307Y-105231103D01*
X121246654Y-105275496D01*
X121212958Y-105330673D01*
X121177564Y-105433464D01*
X121166331Y-105572797D01*
X121187201Y-105727883D01*
X121191307Y-105746711D01*
X121197184Y-105802262D01*
X121186591Y-105853442D01*
X121156317Y-105920241D01*
X121155611Y-105921632D01*
X121055120Y-106091179D01*
X120944037Y-106226882D01*
X120824892Y-106326618D01*
X120700217Y-106388264D01*
X120572537Y-106409702D01*
X120567484Y-106409683D01*
X120508429Y-106406849D01*
X120422414Y-106400007D01*
X120319312Y-106390238D01*
X120209005Y-106378623D01*
X120101370Y-106366245D01*
X120006284Y-106354184D01*
X119933625Y-106343522D01*
X119893272Y-106335341D01*
X119883775Y-106329679D01*
X119856335Y-106292571D01*
X119832756Y-106235565D01*
X119829410Y-106224266D01*
X119817026Y-106171956D01*
X119820759Y-106143394D01*
X119841722Y-106124841D01*
X119951347Y-106055188D01*
X120099163Y-105950294D01*
X120231324Y-105843685D01*
X120342189Y-105740340D01*
X120426119Y-105645243D01*
X120477474Y-105563374D01*
X120487597Y-105540482D01*
X120504031Y-105492012D01*
X120501915Y-105453677D01*
X120481811Y-105405025D01*
X120429641Y-105329761D01*
X120346704Y-105275260D01*
X120242445Y-105256583D01*
X120216842Y-105257590D01*
X120137225Y-105279619D01*
X120074360Y-105334118D01*
X120021961Y-105425917D01*
X119950034Y-105556142D01*
X119859687Y-105661922D01*
X119758508Y-105732467D01*
X119645766Y-105770984D01*
X119520393Y-105777984D01*
X119403399Y-105748081D01*
X119301450Y-105683107D01*
X119221216Y-105584894D01*
X119206039Y-105555565D01*
X119172274Y-105443429D01*
X119161865Y-105316829D01*
X119175102Y-105191861D01*
X119212271Y-105084621D01*
X119261177Y-105007153D01*
X119330890Y-104932455D01*
X119419199Y-104871004D01*
X119530007Y-104821444D01*
X119667220Y-104782420D01*
X119834741Y-104752574D01*
X120036478Y-104730550D01*
X120276333Y-104714992D01*
X120373798Y-104710027D01*
X120524562Y-104701047D01*
X120641950Y-104691453D01*
X120731773Y-104680209D01*
X120799835Y-104666276D01*
X120851946Y-104648618D01*
X120893910Y-104626198D01*
X120931537Y-104597978D01*
X120956194Y-104573014D01*
X120988817Y-104504265D01*
X120986289Y-104428393D01*
X120951184Y-104352316D01*
X120886076Y-104282949D01*
X120793538Y-104227209D01*
X120702900Y-104187116D01*
X120774589Y-104080585D01*
X120785847Y-104063458D01*
X120842924Y-103952695D01*
X120863448Y-103852691D01*
X120848901Y-103756988D01*
X120848126Y-103754662D01*
X120792380Y-103651692D01*
X120705680Y-103574902D01*
X120592194Y-103526912D01*
X120456087Y-103510333D01*
X121588167Y-103510333D01*
X121599448Y-103589709D01*
X121603681Y-103621734D01*
X121612747Y-103694720D01*
X121624768Y-103794376D01*
X121638689Y-103911921D01*
X121653452Y-104038574D01*
X121665715Y-104143097D01*
X121678570Y-104249103D01*
X121689247Y-104333277D01*
X121696886Y-104388876D01*
X121700630Y-104409154D01*
X121707374Y-104411393D01*
X121743830Y-104424136D01*
X121800333Y-104444163D01*
X121827845Y-104454063D01*
X121891701Y-104477763D01*
X121935793Y-104495105D01*
X121951227Y-104500891D01*
X121968343Y-104496733D01*
X121964129Y-104461022D01*
X121962812Y-104454313D01*
X121955862Y-104407184D01*
X121954854Y-104399333D01*
X122179415Y-104399333D01*
X122190595Y-104468125D01*
X122194031Y-104491612D01*
X122194683Y-104496733D01*
X122202712Y-104559955D01*
X122213176Y-104650008D01*
X122223859Y-104748583D01*
X122229470Y-104801369D01*
X122240433Y-104899685D01*
X122250430Y-104983749D01*
X122257831Y-105039625D01*
X122269721Y-105119000D01*
X124205729Y-105119000D01*
X124232387Y-104859708D01*
X124242774Y-104759660D01*
X124254140Y-104652221D01*
X124263966Y-104561371D01*
X124270887Y-104499875D01*
X124282730Y-104399333D01*
X122179415Y-104399333D01*
X121954854Y-104399333D01*
X121945584Y-104327147D01*
X121932835Y-104221255D01*
X121918468Y-104096562D01*
X121903344Y-103960125D01*
X121854433Y-103510333D01*
X121588167Y-103510333D01*
X120456087Y-103510333D01*
X120437070Y-103510622D01*
X120311479Y-103530655D01*
X120205114Y-103584161D01*
X120114026Y-103673881D01*
X120034264Y-103802550D01*
X119998864Y-103872517D01*
X119899474Y-103796708D01*
X119861263Y-103768900D01*
X119777012Y-103713297D01*
X119699257Y-103668033D01*
X119598431Y-103615165D01*
X119633105Y-103548113D01*
X119640896Y-103532477D01*
X119675731Y-103451175D01*
X119710033Y-103356072D01*
X119739661Y-103260300D01*
X119760475Y-103176990D01*
X119768333Y-103119276D01*
X119765832Y-103077629D01*
X119753136Y-103043777D01*
X119723799Y-103021851D01*
X119671409Y-103009322D01*
X119589551Y-103003659D01*
X119471812Y-103002333D01*
X119350573Y-103003967D01*
X119259934Y-103010587D01*
X119201175Y-103024406D01*
X119169000Y-103047637D01*
X119158112Y-103082490D01*
X119163215Y-103131176D01*
X119170687Y-103176284D01*
X119180841Y-103255709D01*
X119189381Y-103341000D01*
X119201014Y-103478583D01*
X118802049Y-103478583D01*
X118700655Y-103479079D01*
X118528325Y-103483372D01*
X118388835Y-103492912D01*
X118275984Y-103508711D01*
X118183571Y-103531782D01*
X118105395Y-103563136D01*
X118035256Y-103603787D01*
X118002100Y-103628396D01*
X117915465Y-103709286D01*
X117820122Y-103816647D01*
X117721598Y-103942430D01*
X117625422Y-104078582D01*
X117537120Y-104217053D01*
X117462219Y-104349793D01*
X117406247Y-104468749D01*
X117374734Y-104565872D01*
X117368862Y-104601110D01*
X117360908Y-104709517D01*
X116329282Y-104709517D01*
X116395508Y-104357103D01*
X116514292Y-103934142D01*
X116670968Y-103521522D01*
X116865535Y-103122089D01*
X117097994Y-102738687D01*
X117126659Y-102698743D01*
X122826917Y-102698743D01*
X122827159Y-102747745D01*
X122830331Y-102819430D01*
X122839892Y-102868688D01*
X122859207Y-102908723D01*
X122891644Y-102952743D01*
X122908117Y-102971748D01*
X122976589Y-103033635D01*
X123049587Y-103081708D01*
X123118789Y-103108476D01*
X123242204Y-103128457D01*
X123369957Y-103122206D01*
X123484264Y-103089410D01*
X123567707Y-103038485D01*
X123658850Y-102944646D01*
X123724772Y-102829054D01*
X123760196Y-102701611D01*
X123759844Y-102572222D01*
X123759474Y-102570017D01*
X123744125Y-102514945D01*
X123714372Y-102433232D01*
X123674349Y-102335541D01*
X123628187Y-102232535D01*
X123564116Y-102090444D01*
X123476847Y-101874107D01*
X123410266Y-101676897D01*
X123366962Y-101506007D01*
X123351416Y-101429591D01*
X123336333Y-101365312D01*
X123323443Y-101328908D01*
X123309850Y-101312697D01*
X123292658Y-101309000D01*
X123281380Y-101314498D01*
X123259827Y-101354899D01*
X123240395Y-101430708D01*
X123203443Y-101588678D01*
X123138738Y-101799599D01*
X123055647Y-102022714D01*
X122958209Y-102246358D01*
X122937527Y-102290501D01*
X122892143Y-102389377D01*
X122861246Y-102463143D01*
X122842056Y-102521381D01*
X122831791Y-102573673D01*
X122827672Y-102629600D01*
X122826917Y-102698743D01*
X117126659Y-102698743D01*
X117301326Y-102455350D01*
X117594056Y-102106828D01*
X117912011Y-101791803D01*
X118256665Y-101508975D01*
X118629488Y-101257050D01*
X119031955Y-101034728D01*
X119234828Y-100938588D01*
X119620831Y-100783533D01*
X120008536Y-100665690D01*
X120404758Y-100583476D01*
X120816308Y-100535306D01*
X121250000Y-100519604D01*
X121553301Y-100526909D01*
X121953392Y-100562279D01*
X122336360Y-100628752D01*
X122710641Y-100728287D01*
X123084671Y-100862843D01*
X123466881Y-101034378D01*
X123757735Y-101188840D01*
X124115307Y-101416392D01*
X124452559Y-101676864D01*
X124775457Y-101974543D01*
X124994280Y-102206512D01*
X125266397Y-102541527D01*
X125373962Y-102701611D01*
X125504634Y-102896087D01*
G36*
X125504634Y-102896087D02*
G01*
X125713316Y-103276199D01*
X125818416Y-103500053D01*
X125828802Y-103526208D01*
X125971359Y-103885234D01*
X126087292Y-104270354D01*
X126167953Y-104662877D01*
X126215076Y-105070270D01*
X126230396Y-105500000D01*
X126226097Y-105731247D01*
X126193676Y-106151213D01*
X126128099Y-106552793D01*
X126027721Y-106943071D01*
X125890901Y-107329128D01*
X125742550Y-107659000D01*
X125715996Y-107718045D01*
X125631678Y-107880766D01*
X125397772Y-108269419D01*
X125132166Y-108631717D01*
X124836934Y-108966251D01*
X124514152Y-109271611D01*
X124165897Y-109546390D01*
X123794244Y-109789175D01*
X123401269Y-109998558D01*
X122989047Y-110173130D01*
X122559655Y-110311480D01*
X122115168Y-110412200D01*
X121657662Y-110473879D01*
X121639016Y-110475418D01*
X121532290Y-110481126D01*
X121401386Y-110484455D01*
X121261163Y-110485152D01*
X121126480Y-110482962D01*
X121064858Y-110480858D01*
X120638191Y-110448276D01*
X120232349Y-110383579D01*
X119839280Y-110284798D01*
X119450930Y-110149962D01*
X119059250Y-109977100D01*
X118738275Y-109806969D01*
X118357153Y-109563387D01*
X118003180Y-109287569D01*
X117675739Y-108978977D01*
X117374216Y-108637071D01*
X117097994Y-108261313D01*
X117031584Y-108159675D01*
X116809342Y-107771670D01*
X116624991Y-107368401D01*
X116478533Y-106952713D01*
X116369965Y-106527451D01*
X116299291Y-106095459D01*
X116266508Y-105659583D01*
X116271616Y-105222668D01*
X116314616Y-104787560D01*
X116329282Y-104709517D01*
X117360908Y-104709517D01*
X117361232Y-104840150D01*
X117369204Y-104979502D01*
X117384197Y-105114067D01*
X117405583Y-105230342D01*
X117407506Y-105238264D01*
X117434768Y-105323841D01*
X117475130Y-105404146D01*
X117533884Y-105486712D01*
X117616323Y-105579069D01*
X117727739Y-105688747D01*
X117902192Y-105853881D01*
X117890419Y-105983723D01*
X117888234Y-106015985D01*
X117899509Y-106154948D01*
X117947211Y-106273861D01*
X118032405Y-106375662D01*
X118120887Y-106438834D01*
X118245717Y-106484331D01*
X118381190Y-106491342D01*
X118523206Y-106459781D01*
X118667667Y-106389556D01*
X118693784Y-106374026D01*
X118743072Y-106350711D01*
X118798190Y-106335628D01*
X118871304Y-106325980D01*
X118974583Y-106318967D01*
X119021310Y-106315977D01*
X119128727Y-106306201D01*
X119227131Y-106293735D01*
X119299871Y-106280542D01*
X119349641Y-106269365D01*
X119395354Y-106263663D01*
X119422024Y-106271233D01*
X119442477Y-106293216D01*
X119466550Y-106341087D01*
X119484563Y-106402692D01*
X119487722Y-106451630D01*
X119472154Y-106500122D01*
X119431916Y-106561935D01*
X119408238Y-106596061D01*
X119377995Y-106647553D01*
X119366166Y-106679971D01*
X119368646Y-106702492D01*
X119391894Y-106755967D01*
X119442241Y-106819416D01*
X119522897Y-106896528D01*
X119637077Y-106990990D01*
X119848321Y-107157997D01*
X119874113Y-107317884D01*
X119875563Y-107326775D01*
X119890619Y-107410383D01*
X119905661Y-107481094D01*
X119917639Y-107524412D01*
X119924576Y-107558323D01*
X119904836Y-107596397D01*
X119887433Y-107619471D01*
X119860872Y-107677564D01*
X119836102Y-107752308D01*
X119817806Y-107828966D01*
X119810667Y-107892798D01*
X119810391Y-107905613D01*
X119802258Y-107935654D01*
X119774396Y-107951901D01*
X119715548Y-107962617D01*
X119681407Y-107969149D01*
X119596861Y-107994501D01*
X119516552Y-108028292D01*
X119444558Y-108071970D01*
X119357089Y-108156501D01*
X119306007Y-108253351D01*
X119290868Y-108357528D01*
X119311226Y-108464042D01*
X119366635Y-108567904D01*
X119456649Y-108664122D01*
X119580822Y-108747708D01*
X119633136Y-108775759D01*
X119678858Y-108800322D01*
X119697821Y-108810578D01*
X119709409Y-108832747D01*
X119716465Y-108873109D01*
X119716755Y-108911749D01*
X119708506Y-108929000D01*
X119676431Y-108935884D01*
X119626836Y-108953477D01*
X119579439Y-108965725D01*
X119503719Y-108976062D01*
X119419083Y-108981262D01*
X119293153Y-108992266D01*
X119139166Y-109030045D01*
X119005309Y-109091307D01*
X118898216Y-109172817D01*
X118824519Y-109271336D01*
X118819650Y-109281493D01*
X118804079Y-109364053D01*
X118824406Y-109448343D01*
X118876003Y-109526988D01*
X118954244Y-109592617D01*
X119054501Y-109637855D01*
X119058224Y-109638931D01*
X119135952Y-109654394D01*
X119234318Y-109665120D01*
X119332967Y-109668843D01*
X119430650Y-109664499D01*
X119567299Y-109639421D01*
X119691978Y-109587376D01*
X119820364Y-109503026D01*
X119879645Y-109459689D01*
X119915750Y-109438797D01*
X119934462Y-109438977D01*
X119943583Y-109457337D01*
X119946897Y-109466704D01*
X119986203Y-109509182D01*
X120057327Y-109543434D01*
X120151896Y-109567815D01*
X120261536Y-109580679D01*
X120377876Y-109580378D01*
X120492542Y-109565268D01*
X120556124Y-109547148D01*
X120644537Y-109498290D01*
X120700986Y-109431131D01*
X120720833Y-109350042D01*
X120713915Y-109286981D01*
X120682807Y-109176334D01*
X120629577Y-109045237D01*
X120557397Y-108900475D01*
X120469445Y-108748841D01*
X120368893Y-108597124D01*
X120360143Y-108584729D01*
X120317597Y-108523490D01*
X120287658Y-108478779D01*
X120276346Y-108459540D01*
X120282270Y-108458246D01*
X120321979Y-108456070D01*
X120392864Y-108454327D01*
X120487669Y-108453170D01*
X120599137Y-108452750D01*
X120637436Y-108452727D01*
X120752858Y-108451966D01*
X120837135Y-108449309D01*
X120899045Y-108443652D01*
X120947363Y-108433897D01*
X120990867Y-108418942D01*
X121038333Y-108397687D01*
X121088876Y-108371473D01*
X121158673Y-108328303D01*
X121207667Y-108289621D01*
X121240037Y-108262610D01*
X121280693Y-108244441D01*
X121340047Y-108233103D01*
X121429917Y-108225170D01*
X121532368Y-108213385D01*
X121641850Y-108192968D01*
X121732948Y-108168496D01*
X121866645Y-108123269D01*
X121934031Y-108180154D01*
X122006914Y-108231938D01*
X122129118Y-108296250D01*
X122270905Y-108352262D01*
X122419458Y-108394321D01*
X122484662Y-108409334D01*
X122540624Y-108425166D01*
X122570103Y-108441238D01*
X122581579Y-108462747D01*
X122583533Y-108494891D01*
X122590667Y-108558275D01*
X122631604Y-108654526D01*
X122702562Y-108731844D01*
X122796286Y-108783307D01*
X122905522Y-108802000D01*
X122950198Y-108800733D01*
X123028228Y-108786960D01*
X123096186Y-108752249D01*
X123170875Y-108689474D01*
X123182462Y-108678060D01*
X123229327Y-108611290D01*
X123234281Y-108550321D01*
X123197333Y-108495083D01*
X123168988Y-108466155D01*
X123155050Y-108444178D01*
X123168816Y-108431094D01*
X123211164Y-108404141D01*
X123272125Y-108370436D01*
X123371281Y-108308180D01*
X123493112Y-108204583D01*
X123598995Y-108085182D01*
X123676294Y-107962719D01*
X123678051Y-107959132D01*
X123708804Y-107889790D01*
X123726636Y-107827631D01*
X123734818Y-107756192D01*
X123736619Y-107659000D01*
X123728089Y-107522419D01*
X123700249Y-107413789D01*
X123648803Y-107323241D01*
X123569450Y-107239998D01*
X123481524Y-107182038D01*
X123377722Y-107157597D01*
X123260405Y-107172282D01*
X123252789Y-107174498D01*
X123167667Y-107216987D01*
X123075428Y-107289749D01*
X122984043Y-107384607D01*
X122901486Y-107493382D01*
X122835729Y-107607897D01*
X122764528Y-107757143D01*
X122488807Y-107676583D01*
X122469760Y-107670983D01*
X122363904Y-107638544D01*
X122270090Y-107607738D01*
X122197896Y-107581810D01*
X122156901Y-107564012D01*
X122091013Y-107541263D01*
X121979851Y-107534077D01*
X121834506Y-107548653D01*
X121656110Y-107584944D01*
X121586066Y-107601713D01*
X121505698Y-107620382D01*
X121447864Y-107633121D01*
X121421851Y-107637833D01*
X121412289Y-107628148D01*
X121392704Y-107587785D01*
X121370733Y-107526708D01*
X121348785Y-107466441D01*
X121279573Y-107324824D01*
X121177848Y-107159813D01*
X121042981Y-106970340D01*
X121004651Y-106918485D01*
X121463613Y-106918485D01*
X121529304Y-107024159D01*
X121560236Y-107070005D01*
X121595455Y-107112503D01*
X121618289Y-107128301D01*
X121652110Y-107123714D01*
X121729340Y-107106676D01*
X121823551Y-107081224D01*
X121920914Y-107051437D01*
X122007597Y-107021393D01*
X122069772Y-106995170D01*
X122102945Y-106979075D01*
X122151173Y-106961025D01*
X122202328Y-106952199D01*
X122269483Y-106950829D01*
X122365714Y-106955147D01*
X122439566Y-106958837D01*
X122512796Y-106959216D01*
X122567643Y-106952443D01*
X122617798Y-106936506D01*
X122676951Y-106909391D01*
X122706674Y-106894079D01*
X122804563Y-106827259D01*
X122883560Y-106739984D01*
X122954167Y-106621340D01*
X123004988Y-106521049D01*
X123143435Y-106512233D01*
X123173030Y-106510070D01*
X123256576Y-106498083D01*
X123304366Y-106477121D01*
X123321376Y-106443715D01*
X123312583Y-106394400D01*
X123304437Y-106376000D01*
X123252126Y-106318806D01*
X123168114Y-106273850D01*
X123060048Y-106244390D01*
X122935574Y-106233686D01*
X122768032Y-106247252D01*
X122591857Y-106294909D01*
X122416388Y-106379016D01*
X122235816Y-106501800D01*
X122216553Y-106501285D01*
X122172117Y-106474357D01*
X122110898Y-106421207D01*
X122079906Y-106392184D01*
X122027358Y-106350136D01*
X121985212Y-106331348D01*
X121941947Y-106329573D01*
X121900226Y-106338673D01*
X121865582Y-106364494D01*
X121848600Y-106410882D01*
X121848754Y-106482539D01*
X121865519Y-106584163D01*
X121898374Y-106720455D01*
X121899205Y-106723799D01*
X121898390Y-106753911D01*
X121873769Y-106778831D01*
X121817036Y-106807446D01*
X121734617Y-106841312D01*
X121520848Y-106905841D01*
X121463613Y-106918485D01*
X121004651Y-106918485D01*
X120998118Y-106909646D01*
X120952626Y-106845663D01*
X120923053Y-106800999D01*
X120914306Y-106782806D01*
X120925939Y-106774619D01*
X120964642Y-106748135D01*
X121019529Y-106710930D01*
X121131331Y-106623302D01*
X121263593Y-106493473D01*
X121397132Y-106337369D01*
X121482849Y-106220683D01*
X123574326Y-106220683D01*
X123650413Y-106304903D01*
X123678782Y-106338601D01*
X123713105Y-106388082D01*
X123726500Y-106420811D01*
X123727045Y-106424970D01*
X123736541Y-106435119D01*
X123761939Y-106442488D01*
X123773361Y-106443715D01*
X123808526Y-106447493D01*
X123881586Y-106450553D01*
X123986403Y-106452083D01*
X124128264Y-106452500D01*
X124203507Y-106452482D01*
X124323884Y-106452091D01*
X124410576Y-106450672D01*
X124469337Y-106447560D01*
X124505916Y-106442089D01*
X124526065Y-106433595D01*
X124535535Y-106421412D01*
X124540078Y-106404875D01*
X124543057Y-106383637D01*
X124550493Y-106323661D01*
X124561755Y-106229700D01*
X124576358Y-106105982D01*
X124593820Y-105956730D01*
X124613655Y-105786168D01*
X124635380Y-105598519D01*
X124658514Y-105398009D01*
X124682570Y-105188860D01*
X124707065Y-104975298D01*
X124731516Y-104761546D01*
X124755438Y-104551828D01*
X124778348Y-104350369D01*
X124799763Y-104161392D01*
X124819198Y-103989121D01*
X124836169Y-103837781D01*
X124850194Y-103711596D01*
X124860788Y-103614789D01*
X124867467Y-103551585D01*
X124869749Y-103526208D01*
X124851560Y-103519758D01*
X124804846Y-103514305D01*
X124743690Y-103510582D01*
X124682184Y-103509171D01*
X124634421Y-103510657D01*
X124614493Y-103515625D01*
X124614251Y-103517579D01*
X124610473Y-103550274D01*
X124602444Y-103620486D01*
X124590566Y-103724673D01*
X124575243Y-103859294D01*
X124556877Y-104020811D01*
X124535870Y-104205681D01*
X124513878Y-104399333D01*
X124512626Y-104410363D01*
X124487546Y-104631316D01*
X124461035Y-104865000D01*
X124413018Y-105288333D01*
X124308583Y-106209083D01*
X123941455Y-106214884D01*
X123574326Y-106220683D01*
X121482849Y-106220683D01*
X121525683Y-106162374D01*
X121642984Y-105975873D01*
X121651590Y-105962011D01*
X121669285Y-105948128D01*
X121699141Y-105951729D01*
X121754538Y-105972395D01*
X121823630Y-105994528D01*
X121915648Y-106004425D01*
X121988733Y-105988042D01*
X122036943Y-105947142D01*
X122054333Y-105883489D01*
X122051236Y-105856340D01*
X122025367Y-105805068D01*
X121969120Y-105751710D01*
X121877528Y-105690850D01*
X121855737Y-105676868D01*
X121773561Y-105599300D01*
X121726993Y-105507326D01*
X121718179Y-105407387D01*
X121746549Y-105314792D01*
X122288359Y-105314792D01*
X122289091Y-105323962D01*
X122293770Y-105370477D01*
X122301983Y-105447162D01*
X122312860Y-105545944D01*
X122325526Y-105658750D01*
X122361500Y-105976250D01*
X123234499Y-105981776D01*
X123349109Y-105982444D01*
X123553027Y-105983224D01*
X123719395Y-105983156D01*
X123851418Y-105982164D01*
X123952303Y-105980169D01*
X124025255Y-105977093D01*
X124073479Y-105972860D01*
X124100184Y-105967391D01*
X124108573Y-105960610D01*
X124109393Y-105950319D01*
X124114255Y-105902475D01*
X124122695Y-105824664D01*
X124133839Y-105724881D01*
X124146811Y-105611125D01*
X124183975Y-105288333D01*
X123235571Y-105288333D01*
X123052058Y-105288470D01*
X122848176Y-105289103D01*
X122681297Y-105290325D01*
X122548410Y-105292223D01*
X122446500Y-105294881D01*
X122372552Y-105298383D01*
X122323556Y-105302812D01*
X122296496Y-105308255D01*
X122288359Y-105314792D01*
X121746549Y-105314792D01*
X121749266Y-105305923D01*
X121766829Y-105274748D01*
X121808243Y-105208849D01*
X121855100Y-105140405D01*
X121863291Y-105128812D01*
X121913397Y-105039980D01*
X121927246Y-104964362D01*
X121904583Y-104893811D01*
X121845157Y-104820176D01*
X121835277Y-104810562D01*
X121758432Y-104754511D01*
X121691008Y-104737140D01*
X121637195Y-104757093D01*
X121601189Y-104813016D01*
X121587179Y-104903553D01*
X121584557Y-104965156D01*
X121572585Y-105024350D01*
X121544112Y-105069214D01*
X121491743Y-105110251D01*
X121408081Y-105157969D01*
X121355314Y-105187399D01*
X121290307Y-105231103D01*
X121246654Y-105275496D01*
X121212958Y-105330673D01*
X121177564Y-105433464D01*
X121166331Y-105572797D01*
X121187201Y-105727883D01*
X121191307Y-105746711D01*
X121197184Y-105802262D01*
X121186591Y-105853442D01*
X121156317Y-105920241D01*
X121155611Y-105921632D01*
X121055120Y-106091179D01*
X120944037Y-106226882D01*
X120824892Y-106326618D01*
X120700217Y-106388264D01*
X120572537Y-106409702D01*
X120567484Y-106409683D01*
X120508429Y-106406849D01*
X120422414Y-106400007D01*
X120319312Y-106390238D01*
X120209005Y-106378623D01*
X120101370Y-106366245D01*
X120006284Y-106354184D01*
X119933625Y-106343522D01*
X119893272Y-106335341D01*
X119883775Y-106329679D01*
X119856335Y-106292571D01*
X119832756Y-106235565D01*
X119829410Y-106224266D01*
X119817026Y-106171956D01*
X119820759Y-106143394D01*
X119841722Y-106124841D01*
X119951347Y-106055188D01*
X120099163Y-105950294D01*
X120231324Y-105843685D01*
X120342189Y-105740340D01*
X120426119Y-105645243D01*
X120477474Y-105563374D01*
X120487597Y-105540482D01*
X120504031Y-105492012D01*
X120501915Y-105453677D01*
X120481811Y-105405025D01*
X120429641Y-105329761D01*
X120346704Y-105275260D01*
X120242445Y-105256583D01*
X120216842Y-105257590D01*
X120137225Y-105279619D01*
X120074360Y-105334118D01*
X120021961Y-105425917D01*
X119950034Y-105556142D01*
X119859687Y-105661922D01*
X119758508Y-105732467D01*
X119645766Y-105770984D01*
X119520393Y-105777984D01*
X119403399Y-105748081D01*
X119301450Y-105683107D01*
X119221216Y-105584894D01*
X119206039Y-105555565D01*
X119172274Y-105443429D01*
X119161865Y-105316829D01*
X119175102Y-105191861D01*
X119212271Y-105084621D01*
X119261177Y-105007153D01*
X119330890Y-104932455D01*
X119419199Y-104871004D01*
X119530007Y-104821444D01*
X119667220Y-104782420D01*
X119834741Y-104752574D01*
X120036478Y-104730550D01*
X120276333Y-104714992D01*
X120373798Y-104710027D01*
X120524562Y-104701047D01*
X120641950Y-104691453D01*
X120731773Y-104680209D01*
X120799835Y-104666276D01*
X120851946Y-104648618D01*
X120893910Y-104626198D01*
X120931537Y-104597978D01*
X120956194Y-104573014D01*
X120988817Y-104504265D01*
X120986289Y-104428393D01*
X120951184Y-104352316D01*
X120886076Y-104282949D01*
X120793538Y-104227209D01*
X120702900Y-104187116D01*
X120774589Y-104080585D01*
X120785847Y-104063458D01*
X120842924Y-103952695D01*
X120863448Y-103852691D01*
X120848901Y-103756988D01*
X120848126Y-103754662D01*
X120792380Y-103651692D01*
X120705680Y-103574902D01*
X120592194Y-103526912D01*
X120456087Y-103510333D01*
X121588167Y-103510333D01*
X121599448Y-103589709D01*
X121603681Y-103621734D01*
X121612747Y-103694720D01*
X121624768Y-103794376D01*
X121638689Y-103911921D01*
X121653452Y-104038574D01*
X121665715Y-104143097D01*
X121678570Y-104249103D01*
X121689247Y-104333277D01*
X121696886Y-104388876D01*
X121700630Y-104409154D01*
X121707374Y-104411393D01*
X121743830Y-104424136D01*
X121800333Y-104444163D01*
X121827845Y-104454063D01*
X121891701Y-104477763D01*
X121935793Y-104495105D01*
X121951227Y-104500891D01*
X121968343Y-104496733D01*
X121964129Y-104461022D01*
X121962812Y-104454313D01*
X121955862Y-104407184D01*
X121954854Y-104399333D01*
X122179415Y-104399333D01*
X122190595Y-104468125D01*
X122194031Y-104491612D01*
X122194683Y-104496733D01*
X122202712Y-104559955D01*
X122213176Y-104650008D01*
X122223859Y-104748583D01*
X122229470Y-104801369D01*
X122240433Y-104899685D01*
X122250430Y-104983749D01*
X122257831Y-105039625D01*
X122269721Y-105119000D01*
X124205729Y-105119000D01*
X124232387Y-104859708D01*
X124242774Y-104759660D01*
X124254140Y-104652221D01*
X124263966Y-104561371D01*
X124270887Y-104499875D01*
X124282730Y-104399333D01*
X122179415Y-104399333D01*
X121954854Y-104399333D01*
X121945584Y-104327147D01*
X121932835Y-104221255D01*
X121918468Y-104096562D01*
X121903344Y-103960125D01*
X121854433Y-103510333D01*
X121588167Y-103510333D01*
X120456087Y-103510333D01*
X120437070Y-103510622D01*
X120311479Y-103530655D01*
X120205114Y-103584161D01*
X120114026Y-103673881D01*
X120034264Y-103802550D01*
X119998864Y-103872517D01*
X119899474Y-103796708D01*
X119861263Y-103768900D01*
X119777012Y-103713297D01*
X119699257Y-103668033D01*
X119598431Y-103615165D01*
X119633105Y-103548113D01*
X119640896Y-103532477D01*
X119675731Y-103451175D01*
X119710033Y-103356072D01*
X119739661Y-103260300D01*
X119760475Y-103176990D01*
X119768333Y-103119276D01*
X119765832Y-103077629D01*
X119753136Y-103043777D01*
X119723799Y-103021851D01*
X119671409Y-103009322D01*
X119589551Y-103003659D01*
X119471812Y-103002333D01*
X119350573Y-103003967D01*
X119259934Y-103010587D01*
X119201175Y-103024406D01*
X119169000Y-103047637D01*
X119158112Y-103082490D01*
X119163215Y-103131176D01*
X119170687Y-103176284D01*
X119180841Y-103255709D01*
X119189381Y-103341000D01*
X119201014Y-103478583D01*
X118802049Y-103478583D01*
X118700655Y-103479079D01*
X118528325Y-103483372D01*
X118388835Y-103492912D01*
X118275984Y-103508711D01*
X118183571Y-103531782D01*
X118105395Y-103563136D01*
X118035256Y-103603787D01*
X118002100Y-103628396D01*
X117915465Y-103709286D01*
X117820122Y-103816647D01*
X117721598Y-103942430D01*
X117625422Y-104078582D01*
X117537120Y-104217053D01*
X117462219Y-104349793D01*
X117406247Y-104468749D01*
X117374734Y-104565872D01*
X117368862Y-104601110D01*
X117360908Y-104709517D01*
X116329282Y-104709517D01*
X116395508Y-104357103D01*
X116514292Y-103934142D01*
X116670968Y-103521522D01*
X116865535Y-103122089D01*
X117097994Y-102738687D01*
X117126659Y-102698743D01*
X122826917Y-102698743D01*
X122827159Y-102747745D01*
X122830331Y-102819430D01*
X122839892Y-102868688D01*
X122859207Y-102908723D01*
X122891644Y-102952743D01*
X122908117Y-102971748D01*
X122976589Y-103033635D01*
X123049587Y-103081708D01*
X123118789Y-103108476D01*
X123242204Y-103128457D01*
X123369957Y-103122206D01*
X123484264Y-103089410D01*
X123567707Y-103038485D01*
X123658850Y-102944646D01*
X123724772Y-102829054D01*
X123760196Y-102701611D01*
X123759844Y-102572222D01*
X123759474Y-102570017D01*
X123744125Y-102514945D01*
X123714372Y-102433232D01*
X123674349Y-102335541D01*
X123628187Y-102232535D01*
X123564116Y-102090444D01*
X123476847Y-101874107D01*
X123410266Y-101676897D01*
X123366962Y-101506007D01*
X123351416Y-101429591D01*
X123336333Y-101365312D01*
X123323443Y-101328908D01*
X123309850Y-101312697D01*
X123292658Y-101309000D01*
X123281380Y-101314498D01*
X123259827Y-101354899D01*
X123240395Y-101430708D01*
X123203443Y-101588678D01*
X123138738Y-101799599D01*
X123055647Y-102022714D01*
X122958209Y-102246358D01*
X122937527Y-102290501D01*
X122892143Y-102389377D01*
X122861246Y-102463143D01*
X122842056Y-102521381D01*
X122831791Y-102573673D01*
X122827672Y-102629600D01*
X122826917Y-102698743D01*
X117126659Y-102698743D01*
X117301326Y-102455350D01*
X117594056Y-102106828D01*
X117912011Y-101791803D01*
X118256665Y-101508975D01*
X118629488Y-101257050D01*
X119031955Y-101034728D01*
X119234828Y-100938588D01*
X119620831Y-100783533D01*
X120008536Y-100665690D01*
X120404758Y-100583476D01*
X120816308Y-100535306D01*
X121250000Y-100519604D01*
X121553301Y-100526909D01*
X121953392Y-100562279D01*
X122336360Y-100628752D01*
X122710641Y-100728287D01*
X123084671Y-100862843D01*
X123466881Y-101034378D01*
X123757735Y-101188840D01*
X124115307Y-101416392D01*
X124452559Y-101676864D01*
X124775457Y-101974543D01*
X124994280Y-102206512D01*
X125266397Y-102541527D01*
X125373962Y-102701611D01*
X125504634Y-102896087D01*
G37*
X108486870Y-103681954D02*
X108501500Y-103715623D01*
X108495914Y-103735945D01*
X108457551Y-103776409D01*
X108389674Y-103814775D01*
X108300417Y-103845779D01*
X108231926Y-103856333D01*
X108139415Y-103855459D01*
X108042977Y-103842445D01*
X107951865Y-103819687D01*
X107875330Y-103789582D01*
X107822625Y-103754527D01*
X107803000Y-103716919D01*
X107803957Y-103705227D01*
X107825483Y-103678052D01*
X107876487Y-103678208D01*
X107958485Y-103705583D01*
X107990632Y-103716180D01*
X108069449Y-103731367D01*
X108152249Y-103737333D01*
X108195937Y-103735504D01*
X108279672Y-103724055D01*
X108346015Y-103705582D01*
X108366722Y-103697264D01*
X108442291Y-103675857D01*
X108486870Y-103681954D01*
G36*
X108486870Y-103681954D02*
G01*
X108501500Y-103715623D01*
X108495914Y-103735945D01*
X108457551Y-103776409D01*
X108389674Y-103814775D01*
X108300417Y-103845779D01*
X108231926Y-103856333D01*
X108139415Y-103855459D01*
X108042977Y-103842445D01*
X107951865Y-103819687D01*
X107875330Y-103789582D01*
X107822625Y-103754527D01*
X107803000Y-103716919D01*
X107803957Y-103705227D01*
X107825483Y-103678052D01*
X107876487Y-103678208D01*
X107958485Y-103705583D01*
X107990632Y-103716180D01*
X108069449Y-103731367D01*
X108152249Y-103737333D01*
X108195937Y-103735504D01*
X108279672Y-103724055D01*
X108346015Y-103705582D01*
X108366722Y-103697264D01*
X108442291Y-103675857D01*
X108486870Y-103681954D01*
G37*
X109075246Y-105435344D02*
X109352658Y-105441250D01*
X109517613Y-105854000D01*
X109682567Y-106266750D01*
X109486575Y-106277333D01*
X109290583Y-106287917D01*
X109448421Y-106616000D01*
X109485523Y-106693336D01*
X109539288Y-106806162D01*
X109586972Y-106907085D01*
X109624454Y-106987373D01*
X109647616Y-107038289D01*
X109668197Y-107085748D01*
X109678356Y-107114531D01*
X109671378Y-107115500D01*
X109647223Y-107094714D01*
X109643609Y-107091263D01*
X109612764Y-107058472D01*
X109560719Y-107000612D01*
X109491565Y-106922426D01*
X109409393Y-106828656D01*
X109318298Y-106724044D01*
X109222369Y-106613331D01*
X109125701Y-106501259D01*
X109032385Y-106392570D01*
X108946513Y-106292007D01*
X108872177Y-106204308D01*
X108813470Y-106134221D01*
X108774483Y-106086482D01*
X108759310Y-106065836D01*
X108761281Y-106062005D01*
X108791960Y-106052714D01*
X108852033Y-106044938D01*
X108932259Y-106040054D01*
X109111981Y-106033917D01*
X108954907Y-105753478D01*
X108926867Y-105703063D01*
X108875852Y-105609349D01*
X108834925Y-105531490D01*
X108807711Y-105476462D01*
X108797833Y-105451237D01*
X108808729Y-105443976D01*
X108858924Y-105437186D01*
X108948334Y-105434276D01*
X109075246Y-105435344D01*
G36*
X109075246Y-105435344D02*
G01*
X109352658Y-105441250D01*
X109517613Y-105854000D01*
X109682567Y-106266750D01*
X109486575Y-106277333D01*
X109290583Y-106287917D01*
X109448421Y-106616000D01*
X109485523Y-106693336D01*
X109539288Y-106806162D01*
X109586972Y-106907085D01*
X109624454Y-106987373D01*
X109647616Y-107038289D01*
X109668197Y-107085748D01*
X109678356Y-107114531D01*
X109671378Y-107115500D01*
X109647223Y-107094714D01*
X109643609Y-107091263D01*
X109612764Y-107058472D01*
X109560719Y-107000612D01*
X109491565Y-106922426D01*
X109409393Y-106828656D01*
X109318298Y-106724044D01*
X109222369Y-106613331D01*
X109125701Y-106501259D01*
X109032385Y-106392570D01*
X108946513Y-106292007D01*
X108872177Y-106204308D01*
X108813470Y-106134221D01*
X108774483Y-106086482D01*
X108759310Y-106065836D01*
X108761281Y-106062005D01*
X108791960Y-106052714D01*
X108852033Y-106044938D01*
X108932259Y-106040054D01*
X109111981Y-106033917D01*
X108954907Y-105753478D01*
X108926867Y-105703063D01*
X108875852Y-105609349D01*
X108834925Y-105531490D01*
X108807711Y-105476462D01*
X108797833Y-105451237D01*
X108808729Y-105443976D01*
X108858924Y-105437186D01*
X108948334Y-105434276D01*
X109075246Y-105435344D01*
G37*
X114184737Y-102241985D02*
X114183501Y-102342784D01*
X114178763Y-102415197D01*
X114168421Y-102471359D01*
X114150376Y-102523407D01*
X114122528Y-102583480D01*
X114088865Y-102643091D01*
X114025170Y-102734561D01*
X113958694Y-102811822D01*
X113938973Y-102830408D01*
X113865209Y-102888475D01*
X113778686Y-102944704D01*
X113690693Y-102992740D01*
X113612517Y-103026228D01*
X113555445Y-103038816D01*
X113537573Y-103041987D01*
X113520973Y-103058540D01*
X113518685Y-103065262D01*
X113508297Y-103095786D01*
X113497292Y-103160906D01*
X113485701Y-103261083D01*
X113465591Y-103424233D01*
X113418115Y-103714609D01*
X113354613Y-104025321D01*
X113310275Y-104209618D01*
X113277509Y-104345816D01*
X113224256Y-104538678D01*
X113189227Y-104665544D01*
X113092191Y-104973950D01*
X113091660Y-104975530D01*
X113052145Y-105096409D01*
X113018767Y-105204848D01*
X112993479Y-105293963D01*
X112978236Y-105356874D01*
X112974992Y-105386701D01*
X112978206Y-105396656D01*
X112994179Y-105444138D01*
X113018662Y-105515674D01*
X113047805Y-105600000D01*
X113093065Y-105741226D01*
X113137519Y-105919979D01*
X113166870Y-106103041D01*
X113182966Y-106302722D01*
X113187224Y-106510167D01*
X113187658Y-106531333D01*
X113183058Y-106752896D01*
X113169159Y-106945101D01*
X113145862Y-107097957D01*
X113113052Y-107212473D01*
X113092505Y-107247213D01*
X113049865Y-107283502D01*
X112981986Y-107317338D01*
X112883294Y-107351410D01*
X112748214Y-107388404D01*
X112666014Y-107408385D01*
X112652854Y-107410931D01*
X112434367Y-107453218D01*
X112210789Y-107476981D01*
X111975313Y-107482093D01*
X111734377Y-107478785D01*
X111556374Y-107693832D01*
X111333399Y-107949601D01*
X111063951Y-108230948D01*
X110777839Y-108504540D01*
X110486031Y-108759928D01*
X110199492Y-108986667D01*
X110151333Y-109022752D01*
X110077832Y-109079626D01*
X110031153Y-109120159D01*
X110006164Y-109149810D01*
X109997734Y-109174047D01*
X110000734Y-109198333D01*
X110004331Y-109218816D01*
X110009676Y-109281093D01*
X110013260Y-109366526D01*
X110014298Y-109450199D01*
X110014455Y-109462917D01*
X110013816Y-109533436D01*
X110009897Y-109616123D01*
X110000277Y-109678685D01*
X109982530Y-109734587D01*
X109954234Y-109797295D01*
X109925159Y-109851155D01*
X109819431Y-109991996D01*
X109685608Y-110110928D01*
X109532364Y-110201160D01*
X109368376Y-110255900D01*
X109205036Y-110272143D01*
X109031279Y-110252192D01*
X108865723Y-110196816D01*
X108714362Y-110109531D01*
X108583190Y-109993852D01*
X108478204Y-109853291D01*
X108405399Y-109691365D01*
X108391309Y-109624767D01*
X108381855Y-109530995D01*
X108379285Y-109460191D01*
X108736316Y-109460191D01*
X108754529Y-109574941D01*
X108802516Y-109683367D01*
X108881713Y-109779366D01*
X108993557Y-109856834D01*
X109120664Y-109901606D01*
X109252194Y-109906950D01*
X109379398Y-109871486D01*
X109497338Y-109795812D01*
X109507941Y-109786493D01*
X109595050Y-109683460D01*
X109646547Y-109569292D01*
X109664695Y-109450199D01*
X109651758Y-109332390D01*
X109609998Y-109222076D01*
X109541679Y-109125467D01*
X109449065Y-109048771D01*
X109334417Y-108998200D01*
X109200000Y-108979963D01*
X109171804Y-108980694D01*
X109041554Y-109005210D01*
X108932456Y-109060025D01*
X108845946Y-109139034D01*
X108783460Y-109236134D01*
X108746439Y-109345221D01*
X108736316Y-109460191D01*
X108379285Y-109460191D01*
X108378047Y-109426090D01*
X108379987Y-109323313D01*
X108387775Y-109235919D01*
X108401510Y-109177167D01*
X108401766Y-109176499D01*
X108394673Y-109152518D01*
X108359559Y-109113522D01*
X108293810Y-109057024D01*
X108194808Y-108980530D01*
X108124496Y-108927077D01*
X107787411Y-108650752D01*
X107454035Y-108345631D01*
X107135187Y-108022032D01*
X106841685Y-107690271D01*
X106665433Y-107478935D01*
X106414008Y-107481775D01*
X106331219Y-107481427D01*
X106156941Y-107473095D01*
X105983685Y-107455590D01*
X105817353Y-107430229D01*
X105737599Y-107413658D01*
X107106766Y-107413658D01*
X107108042Y-107418505D01*
X107128760Y-107448372D01*
X107169069Y-107498863D01*
X107223183Y-107562577D01*
X107398706Y-107757752D01*
X107717604Y-108083695D01*
X108048065Y-108387645D01*
X108379867Y-108659903D01*
X108611908Y-108838434D01*
X108692605Y-108774521D01*
X108762450Y-108724080D01*
X108880160Y-108663076D01*
X109011077Y-108626789D01*
X109168250Y-108610727D01*
X109237977Y-108608658D01*
X109329677Y-108611322D01*
X109405792Y-108623190D01*
X109482717Y-108646106D01*
X109533505Y-108666373D01*
X109627422Y-108712759D01*
X109707663Y-108762153D01*
X109808642Y-108834700D01*
X110038779Y-108656008D01*
X110283667Y-108456869D01*
X110561098Y-108211496D01*
X110828750Y-107954812D01*
X111071904Y-107700435D01*
X111334993Y-107410932D01*
X111163833Y-107355317D01*
X111102200Y-107334266D01*
X111022804Y-107299919D01*
X110971002Y-107262025D01*
X110937946Y-107213140D01*
X110914786Y-107145821D01*
X110907606Y-107116228D01*
X110888193Y-107006586D01*
X110871965Y-106872592D01*
X110860102Y-106727613D01*
X110853781Y-106585016D01*
X110854160Y-106464467D01*
X111032189Y-106464467D01*
X111034700Y-106672968D01*
X111051031Y-106877805D01*
X111080232Y-107060500D01*
X111083159Y-107072831D01*
X111096709Y-107106244D01*
X111121459Y-107133214D01*
X111163498Y-107156547D01*
X111228917Y-107179046D01*
X111323804Y-107203517D01*
X111454250Y-107232765D01*
X111549139Y-107250072D01*
X111720587Y-107270341D01*
X111908111Y-107282057D01*
X112097428Y-107284794D01*
X112274246Y-107278127D01*
X112424279Y-107261632D01*
X112530666Y-107242454D01*
X112650731Y-107217026D01*
X112760591Y-107190102D01*
X112849696Y-107164289D01*
X112907494Y-107142196D01*
X112927398Y-107120795D01*
X112951327Y-107058210D01*
X112970830Y-106961301D01*
X112985267Y-106834623D01*
X112993998Y-106682726D01*
X112996382Y-106510167D01*
X112995611Y-106448789D01*
X112983982Y-106229093D01*
X112956545Y-106026351D01*
X112910575Y-105828113D01*
X112843342Y-105621934D01*
X112752121Y-105395363D01*
X112668249Y-105201310D01*
X112549270Y-105284657D01*
X112385436Y-105375516D01*
X112204758Y-105431538D01*
X112017210Y-105450508D01*
X111829623Y-105432422D01*
X111648830Y-105377278D01*
X111481661Y-105285074D01*
X111363279Y-105202147D01*
X111298929Y-105342865D01*
X111269531Y-105408479D01*
X111181127Y-105630337D01*
X111116517Y-105842437D01*
X111071342Y-106061003D01*
X111041245Y-106302261D01*
X111032189Y-106464467D01*
X110854160Y-106464467D01*
X110854180Y-106458166D01*
X110854805Y-106440745D01*
X110857316Y-106352881D01*
X110856351Y-106298778D01*
X110850574Y-106271068D01*
X110838652Y-106262384D01*
X110819250Y-106265360D01*
X110780599Y-106272497D01*
X110720050Y-106277044D01*
X110663183Y-106277333D01*
X110656550Y-106801208D01*
X110654348Y-106959788D01*
X110651837Y-107088274D01*
X110648609Y-107185757D01*
X110644170Y-107258006D01*
X110638026Y-107310788D01*
X110629682Y-107349873D01*
X110618644Y-107381030D01*
X110604420Y-107410026D01*
X110584552Y-107444505D01*
X110484010Y-107567593D01*
X110353861Y-107660586D01*
X110340724Y-107667436D01*
X110319593Y-107676857D01*
X110294737Y-107684658D01*
X110262293Y-107691022D01*
X110218403Y-107696132D01*
X110159204Y-107700171D01*
X110080837Y-107703322D01*
X109979441Y-107705768D01*
X109851154Y-107707692D01*
X109692117Y-107709278D01*
X109498468Y-107710708D01*
X109266347Y-107712165D01*
X109174196Y-107712714D01*
X108938739Y-107713864D01*
X108740468Y-107714120D01*
X108575566Y-107713113D01*
X108440225Y-107710478D01*
X108330633Y-107705843D01*
X108242978Y-107698844D01*
X108173450Y-107689112D01*
X108118237Y-107676280D01*
X108073528Y-107659982D01*
X108035512Y-107639847D01*
X108000376Y-107615509D01*
X107964311Y-107586602D01*
X107936156Y-107559963D01*
X107877721Y-107487890D01*
X107832226Y-107411250D01*
X107830809Y-107408200D01*
X107815311Y-107372841D01*
X107803511Y-107338209D01*
X107794903Y-107298153D01*
X107788982Y-107246521D01*
X107785241Y-107177162D01*
X107783175Y-107083925D01*
X107782277Y-106960657D01*
X107782040Y-106801208D01*
X107781718Y-106706641D01*
X107780242Y-106575136D01*
X107777742Y-106462650D01*
X107774404Y-106375008D01*
X107770414Y-106318041D01*
X107765958Y-106297578D01*
X107759631Y-106296865D01*
X107719992Y-106290361D01*
X107661624Y-106279528D01*
X107573165Y-106262399D01*
X107572508Y-106550324D01*
X107570415Y-106665251D01*
X107570241Y-106674845D01*
X107560353Y-106843356D01*
X107543458Y-106992479D01*
X107520455Y-107116512D01*
X107492240Y-107209753D01*
X107459713Y-107266501D01*
X107458837Y-107267415D01*
X107415150Y-107297814D01*
X107345624Y-107331446D01*
X107264896Y-107361197D01*
X107253781Y-107364677D01*
X107182153Y-107387536D01*
X107129580Y-107405047D01*
X107106766Y-107413658D01*
X105737599Y-107413658D01*
X105663847Y-107398334D01*
X105529067Y-107361224D01*
X105418915Y-107320219D01*
X105339295Y-107276638D01*
X105296105Y-107231800D01*
X105271321Y-107166724D01*
X105245797Y-107050952D01*
X105227018Y-106901598D01*
X105215535Y-106723312D01*
X105211899Y-106520750D01*
X105212009Y-106501091D01*
X105393800Y-106501091D01*
X105394408Y-106599156D01*
X105402084Y-106705937D01*
X105417155Y-106837887D01*
X105417291Y-106838968D01*
X105435002Y-106966089D01*
X105451625Y-107055308D01*
X105468153Y-107110977D01*
X105485584Y-107137444D01*
X105491096Y-107140913D01*
X105538781Y-107160241D01*
X105616497Y-107183704D01*
X105714640Y-107208953D01*
X105823605Y-107233639D01*
X105933787Y-107255414D01*
X106035583Y-107271929D01*
X106179215Y-107286037D01*
X106409960Y-107290164D01*
X106652326Y-107275722D01*
X106891195Y-107243789D01*
X107111446Y-107195437D01*
X107153882Y-107183800D01*
X107229865Y-107160376D01*
X107277223Y-107136074D01*
X107304510Y-107102247D01*
X107320283Y-107050247D01*
X107333099Y-106971427D01*
X107364695Y-106665251D01*
X107363788Y-106352813D01*
X107326084Y-106048386D01*
X107250617Y-105744401D01*
X107136417Y-105433289D01*
X107038366Y-105200995D01*
X106919162Y-105284497D01*
X106903212Y-105295381D01*
X106744280Y-105379039D01*
X106569470Y-105432819D01*
X106394126Y-105451834D01*
X106259711Y-105451833D01*
X106291206Y-105541098D01*
X106299856Y-105564002D01*
X106335906Y-105645075D01*
X106376300Y-105721822D01*
X106379905Y-105728062D01*
X106416692Y-105814531D01*
X106416886Y-105880353D01*
X106380480Y-105925221D01*
X106375576Y-105927912D01*
X106321510Y-105933181D01*
X106245398Y-105912702D01*
X106153770Y-105870664D01*
X106053157Y-105811250D01*
X105950091Y-105738647D01*
X105851104Y-105657045D01*
X105762727Y-105570628D01*
X105691491Y-105483583D01*
X105646808Y-105420083D01*
X105590156Y-105547083D01*
X105578576Y-105574002D01*
X105522856Y-105731548D01*
X105473720Y-105916495D01*
X105434103Y-106116476D01*
X105406940Y-106319124D01*
X105399941Y-106395288D01*
X105393800Y-106501091D01*
X105212009Y-106501091D01*
X105212160Y-106474270D01*
X105218099Y-106277901D01*
X105233556Y-106105226D01*
X105260891Y-105941320D01*
X105302464Y-105771261D01*
X105360635Y-105580125D01*
X105435394Y-105350425D01*
X105317760Y-105004254D01*
X105228616Y-104725034D01*
X105219318Y-104692115D01*
X105546386Y-104692115D01*
X105560421Y-104854212D01*
X105594599Y-105019750D01*
X105645865Y-105170433D01*
X105650301Y-105180545D01*
X105714541Y-105299212D01*
X105799862Y-105422633D01*
X105894916Y-105535791D01*
X105988354Y-105623667D01*
X106045256Y-105665416D01*
X106113683Y-105710334D01*
X106182139Y-105751278D01*
X106241875Y-105783281D01*
X106284135Y-105801376D01*
X106300167Y-105800596D01*
X106299080Y-105795727D01*
X106285140Y-105761817D01*
X106260275Y-105710282D01*
X106253880Y-105697028D01*
X106225999Y-105631010D01*
X106193097Y-105544217D01*
X106161005Y-105451833D01*
X106154635Y-105432432D01*
X106137609Y-105377877D01*
X106124527Y-105327592D01*
X106114757Y-105274920D01*
X106107659Y-105213203D01*
X106102599Y-105135785D01*
X106098941Y-105036008D01*
X106096049Y-104907216D01*
X106093287Y-104742750D01*
X106091885Y-104653810D01*
X106172877Y-104653810D01*
X106173428Y-104780839D01*
X106176006Y-104905436D01*
X106180633Y-105019991D01*
X106187326Y-105116888D01*
X106196106Y-105188517D01*
X106196537Y-105190980D01*
X106210606Y-105262405D01*
X106225497Y-105302815D01*
X106247627Y-105322844D01*
X106283420Y-105333124D01*
X106378749Y-105342326D01*
X106520800Y-105329655D01*
X106665962Y-105291081D01*
X106799544Y-105229553D01*
X106919344Y-105141886D01*
X106944127Y-105114535D01*
X107219018Y-105114535D01*
X107288441Y-105256726D01*
X107309680Y-105302073D01*
X107370121Y-105448593D01*
X107428095Y-105611674D01*
X107477544Y-105773476D01*
X107512409Y-105916160D01*
X107524239Y-105970631D01*
X107541199Y-106024099D01*
X107561986Y-106052535D01*
X107592017Y-106066139D01*
X107646577Y-106079243D01*
X107713042Y-106093409D01*
X107781833Y-106106943D01*
X107781833Y-105683458D01*
X107781994Y-105596758D01*
X107783699Y-105455153D01*
X107788261Y-105345582D01*
X107792933Y-105299926D01*
X108131083Y-105299926D01*
X108131083Y-107275907D01*
X108181053Y-107316370D01*
X108182692Y-107317680D01*
X108196464Y-107326990D01*
X108214582Y-107334697D01*
X108240844Y-107340952D01*
X108279050Y-107345906D01*
X108332998Y-107349710D01*
X108406487Y-107352515D01*
X108503315Y-107354472D01*
X108627282Y-107355731D01*
X108782185Y-107356444D01*
X108971826Y-107356761D01*
X109200000Y-107356834D01*
X109231404Y-107356832D01*
X109454448Y-107356738D01*
X109639442Y-107356378D01*
X109790186Y-107355604D01*
X109910477Y-107354264D01*
X110004115Y-107352208D01*
X110074898Y-107349283D01*
X110126625Y-107345341D01*
X110163094Y-107340229D01*
X110188105Y-107333797D01*
X110205457Y-107325896D01*
X110218947Y-107316370D01*
X110268917Y-107275907D01*
X110268917Y-105299926D01*
X110218947Y-105259463D01*
X110217307Y-105258152D01*
X110203537Y-105248843D01*
X110185419Y-105241136D01*
X110159156Y-105234881D01*
X110120951Y-105229927D01*
X110067003Y-105226123D01*
X109993515Y-105223318D01*
X109896685Y-105221361D01*
X109772718Y-105220102D01*
X109617814Y-105219388D01*
X109428174Y-105219072D01*
X109200000Y-105219000D01*
X109168596Y-105219001D01*
X108945552Y-105219096D01*
X108760559Y-105219455D01*
X108609815Y-105220229D01*
X108489524Y-105221568D01*
X108395886Y-105223625D01*
X108325102Y-105226550D01*
X108273375Y-105230492D01*
X108236906Y-105235604D01*
X108211895Y-105242036D01*
X108194544Y-105249938D01*
X108181053Y-105259463D01*
X108131083Y-105299926D01*
X107792933Y-105299926D01*
X107796893Y-105261227D01*
X107810806Y-105195274D01*
X107831213Y-105140909D01*
X107859327Y-105091316D01*
X107896360Y-105039680D01*
X107925548Y-105008556D01*
X107988396Y-104957454D01*
X108059747Y-104911649D01*
X108173417Y-104848800D01*
X108633792Y-104841327D01*
X108691608Y-104840288D01*
X108820327Y-104837203D01*
X108931018Y-104833479D01*
X109017606Y-104829384D01*
X109074014Y-104825184D01*
X109094167Y-104821144D01*
X109093842Y-104819201D01*
X109327000Y-104819201D01*
X109327134Y-104821144D01*
X109327542Y-104827097D01*
X109333322Y-104838421D01*
X109349773Y-104846723D01*
X109382173Y-104852471D01*
X109435797Y-104856139D01*
X109515924Y-104858198D01*
X109627830Y-104859120D01*
X109776792Y-104859373D01*
X109864794Y-104859469D01*
X109994391Y-104860145D01*
X110091983Y-104861982D01*
X110164213Y-104865583D01*
X110217726Y-104871543D01*
X110259168Y-104880469D01*
X110295183Y-104892958D01*
X110332417Y-104909613D01*
X110425114Y-104962965D01*
X110522468Y-105054638D01*
X110595288Y-105176667D01*
X110606948Y-105204423D01*
X110618987Y-105242751D01*
X110627558Y-105288921D01*
X110628586Y-105299926D01*
X110633246Y-105349828D01*
X110636637Y-105432371D01*
X110638316Y-105543448D01*
X110638869Y-105689958D01*
X110639237Y-105792011D01*
X110640888Y-105916975D01*
X110644095Y-106006597D01*
X110649132Y-106065109D01*
X110656273Y-106096745D01*
X110665792Y-106105733D01*
X110674549Y-106104633D01*
X110720456Y-106096350D01*
X110782113Y-106083340D01*
X110831410Y-106069460D01*
X110867815Y-106045560D01*
X110884448Y-106006231D01*
X110889616Y-105982891D01*
X110964135Y-105694190D01*
X111050947Y-105437229D01*
X111148450Y-105216811D01*
X111190851Y-105133699D01*
X111071516Y-104888275D01*
X111056541Y-104856503D01*
X111270367Y-104856503D01*
X111309392Y-104925907D01*
X111324789Y-104951750D01*
X111425852Y-105077522D01*
X111493222Y-105133699D01*
X111556083Y-105186117D01*
X111705158Y-105270142D01*
X111862750Y-105322200D01*
X111898568Y-105329369D01*
X112008520Y-105342791D01*
X112110196Y-105337235D01*
X112226320Y-105312068D01*
X112378684Y-105254478D01*
X112531416Y-105155484D01*
X112660355Y-105023033D01*
X112762470Y-104859679D01*
X112773780Y-104836429D01*
X112803607Y-104767493D01*
X112820606Y-104705919D01*
X112828259Y-104635161D01*
X112830050Y-104538678D01*
X112829842Y-104503579D01*
X112827654Y-104425118D01*
X112823590Y-104368079D01*
X112818276Y-104342913D01*
X112805382Y-104342471D01*
X112759054Y-104352036D01*
X112688028Y-104371536D01*
X112601317Y-104398654D01*
X112396167Y-104466229D01*
X112396167Y-104523961D01*
X112396167Y-104539598D01*
X112395571Y-104560422D01*
X112370966Y-104670056D01*
X112315581Y-104761627D01*
X112236743Y-104832424D01*
X112141774Y-104879732D01*
X112037999Y-104900845D01*
X111932744Y-104893048D01*
X111833330Y-104853631D01*
X111747085Y-104779882D01*
X111701252Y-104725386D01*
X111636498Y-104779874D01*
X111554228Y-104834016D01*
X111447969Y-104869817D01*
X111345054Y-104870516D01*
X111270367Y-104856503D01*
X111056541Y-104856503D01*
X111018186Y-104775128D01*
X110974664Y-104669925D01*
X110949500Y-104585101D01*
X110941752Y-104518787D01*
X111147332Y-104518787D01*
X111149911Y-104561632D01*
X111169515Y-104619287D01*
X111216125Y-104678055D01*
X111298536Y-104741466D01*
X111386262Y-104764037D01*
X111477212Y-104744667D01*
X111488656Y-104739343D01*
X111567782Y-104681170D01*
X111617787Y-104604283D01*
X111631681Y-104539999D01*
X111759746Y-104539999D01*
X111784392Y-104632389D01*
X111839990Y-104711347D01*
X111922791Y-104766481D01*
X111951340Y-104777958D01*
X112007356Y-104792959D01*
X112056291Y-104786788D01*
X112119496Y-104758592D01*
X112198944Y-104703422D01*
X112255095Y-104622467D01*
X112273037Y-104523961D01*
X112268550Y-104477438D01*
X112235187Y-104390340D01*
X112176302Y-104324846D01*
X112100199Y-104283130D01*
X112015191Y-104267365D01*
X111929583Y-104279725D01*
X111851684Y-104322384D01*
X111789802Y-104397516D01*
X111769797Y-104444571D01*
X111762063Y-104517997D01*
X111759746Y-104539999D01*
X111631681Y-104539999D01*
X111636436Y-104517997D01*
X111621496Y-104431628D01*
X111570736Y-104354492D01*
X111501025Y-104301367D01*
X111407745Y-104273673D01*
X111306514Y-104287525D01*
X111297700Y-104290624D01*
X111217519Y-104341495D01*
X111165719Y-104419987D01*
X111147332Y-104518787D01*
X110941752Y-104518787D01*
X110940961Y-104512021D01*
X110947316Y-104442052D01*
X110966831Y-104366562D01*
X110967771Y-104363570D01*
X110986983Y-104297738D01*
X110992067Y-104253553D01*
X110982108Y-104213075D01*
X110956188Y-104158367D01*
X110949268Y-104144793D01*
X111296030Y-104144793D01*
X111300586Y-104149681D01*
X111334977Y-104157558D01*
X111392142Y-104160666D01*
X111396934Y-104160681D01*
X111487735Y-104169937D01*
X111562520Y-104201371D01*
X111639458Y-104262463D01*
X111697667Y-104316753D01*
X111755875Y-104261223D01*
X111773847Y-104245193D01*
X111874764Y-104185668D01*
X111986981Y-104160285D01*
X112100879Y-104168624D01*
X112206840Y-104210265D01*
X112295247Y-104284788D01*
X112307746Y-104298834D01*
X112348782Y-104335340D01*
X112378925Y-104348836D01*
X112404145Y-104345137D01*
X112467527Y-104329541D01*
X112543135Y-104305933D01*
X112620377Y-104278228D01*
X112688662Y-104250333D01*
X112737401Y-104226160D01*
X112756000Y-104209618D01*
X112755205Y-104198949D01*
X112731499Y-104137296D01*
X112680189Y-104062901D01*
X112608492Y-103983170D01*
X112523624Y-103905511D01*
X112432805Y-103837329D01*
X112343249Y-103786032D01*
X112316113Y-103773661D01*
X112252901Y-103749158D01*
X112191459Y-103734941D01*
X112117107Y-103728355D01*
X112015167Y-103726750D01*
X111976674Y-103726902D01*
X111885423Y-103729936D01*
X111817002Y-103738841D01*
X111756879Y-103756211D01*
X111690523Y-103784635D01*
X111632776Y-103813873D01*
X111556587Y-103858202D01*
X111500023Y-103897656D01*
X111492827Y-103903758D01*
X111445237Y-103949907D01*
X111393202Y-104007453D01*
X111345284Y-104066029D01*
X111310041Y-104115264D01*
X111296030Y-104144793D01*
X110949268Y-104144793D01*
X110939922Y-104126458D01*
X110915270Y-104079626D01*
X110902705Y-104057987D01*
X110898603Y-104057908D01*
X110870008Y-104073103D01*
X110825039Y-104104770D01*
X110786454Y-104131927D01*
X110660062Y-104201060D01*
X110519444Y-104255828D01*
X110385117Y-104287697D01*
X110295450Y-104295348D01*
X110125734Y-104285731D01*
X109959496Y-104248017D01*
X109808201Y-104185263D01*
X109683311Y-104100527D01*
X109607975Y-104034381D01*
X109521440Y-104220629D01*
X109508923Y-104248270D01*
X109466695Y-104350400D01*
X109424953Y-104462899D01*
X109386907Y-104575898D01*
X109355763Y-104679527D01*
X109334725Y-104763918D01*
X109327000Y-104819201D01*
X109093842Y-104819201D01*
X109088623Y-104788027D01*
X109069771Y-104720637D01*
X109040718Y-104631335D01*
X109004753Y-104529401D01*
X108965166Y-104424113D01*
X108925248Y-104324748D01*
X108888289Y-104240589D01*
X108791961Y-104034760D01*
X108715522Y-104094813D01*
X108699040Y-104107417D01*
X108633517Y-104152950D01*
X108575583Y-104187483D01*
X108557780Y-104198018D01*
X108549139Y-104207081D01*
X108511634Y-104246419D01*
X108474806Y-104326179D01*
X108453546Y-104374567D01*
X108404470Y-104457328D01*
X108347806Y-104530801D01*
X108307132Y-104573749D01*
X108263318Y-104609917D01*
X108221015Y-104626187D01*
X108165972Y-104630364D01*
X108096995Y-104623819D01*
X108017805Y-104589789D01*
X107994224Y-104570153D01*
X107926389Y-104493565D01*
X107865137Y-104398569D01*
X107821978Y-104302084D01*
X107793434Y-104243457D01*
X107730340Y-104188058D01*
X107716877Y-104180811D01*
X107700474Y-104170593D01*
X107893875Y-104170593D01*
X107910138Y-104237345D01*
X107939805Y-104314531D01*
X107977839Y-104389187D01*
X108019202Y-104448348D01*
X108034430Y-104464647D01*
X108104327Y-104513509D01*
X108173601Y-104520890D01*
X108240666Y-104487470D01*
X108303940Y-104413932D01*
X108361836Y-104300956D01*
X108390837Y-104207081D01*
X108389045Y-104138767D01*
X108355559Y-104098358D01*
X108328238Y-104086481D01*
X108252193Y-104068768D01*
X108163094Y-104061969D01*
X108071890Y-104065352D01*
X107989539Y-104078181D01*
X107926990Y-104099722D01*
X107895198Y-104129239D01*
X107893875Y-104170593D01*
X107700474Y-104170593D01*
X107653406Y-104141273D01*
X107589846Y-104095501D01*
X107514275Y-104036135D01*
X107484821Y-104095457D01*
X107454460Y-104156609D01*
X107434056Y-104199319D01*
X107413235Y-104253892D01*
X107402018Y-104309367D01*
X107398022Y-104379529D01*
X107398862Y-104478167D01*
X107395909Y-104536716D01*
X107388935Y-104675011D01*
X107345427Y-104867179D01*
X107267913Y-105034476D01*
X107219018Y-105114535D01*
X106944127Y-105114535D01*
X107034720Y-105014553D01*
X107123117Y-104866067D01*
X107180994Y-104704198D01*
X107204806Y-104536716D01*
X107191009Y-104371389D01*
X107172593Y-104289541D01*
X107153839Y-104238693D01*
X107128526Y-104218642D01*
X107089318Y-104223838D01*
X107028877Y-104248731D01*
X106999801Y-104260567D01*
X106867511Y-104294217D01*
X106718202Y-104307147D01*
X106568023Y-104298815D01*
X106433126Y-104268680D01*
X106432877Y-104268596D01*
X106337776Y-104239118D01*
X106272672Y-104226580D01*
X106229093Y-104230292D01*
X106198566Y-104249566D01*
X106190550Y-104273640D01*
X106183190Y-104334264D01*
X106177778Y-104422910D01*
X106174333Y-104531962D01*
X106172877Y-104653810D01*
X106091885Y-104653810D01*
X106084948Y-104213584D01*
X106137145Y-104164614D01*
X106186126Y-104130775D01*
X106250334Y-104116558D01*
X106333157Y-104126449D01*
X106442766Y-104160333D01*
X106458884Y-104165930D01*
X106594515Y-104195508D01*
X106738842Y-104201078D01*
X106877020Y-104183129D01*
X106994208Y-104142152D01*
X107084999Y-104095457D01*
X107040795Y-104033377D01*
X107009665Y-103994789D01*
X106923276Y-103912420D01*
X106818792Y-103835156D01*
X106711231Y-103774780D01*
X106702127Y-103770647D01*
X106643733Y-103748504D01*
X106581735Y-103735113D01*
X106503255Y-103728514D01*
X106395417Y-103726750D01*
X106338171Y-103727069D01*
X106250187Y-103730439D01*
X106184115Y-103739365D01*
X106126435Y-103756141D01*
X106063626Y-103783062D01*
X106043622Y-103792731D01*
X105885192Y-103894232D01*
X105756129Y-104025899D01*
X105656896Y-104187000D01*
X105587954Y-104376805D01*
X105549766Y-104594583D01*
X105546386Y-104692115D01*
X105219318Y-104692115D01*
X105142256Y-104419285D01*
X105065226Y-104109566D01*
X104999946Y-103806326D01*
X104948829Y-103520015D01*
X104914300Y-103261082D01*
X104908143Y-103203290D01*
X104897996Y-103126949D01*
X104885507Y-103081168D01*
X105242737Y-103081168D01*
X105246094Y-103112494D01*
X105256608Y-103179910D01*
X105272915Y-103274573D01*
X105293616Y-103389012D01*
X105317315Y-103515767D01*
X105342613Y-103647371D01*
X105368112Y-103776359D01*
X105392416Y-103895265D01*
X105414126Y-103996625D01*
X105431674Y-104065492D01*
X105450395Y-104108980D01*
X105467847Y-104112336D01*
X105485032Y-104076687D01*
X105517793Y-104010157D01*
X105576398Y-103927628D01*
X105651216Y-103841161D01*
X105733083Y-103761328D01*
X105812831Y-103698698D01*
X105979543Y-103608644D01*
X106164825Y-103549830D01*
X106355199Y-103526518D01*
X106544854Y-103537807D01*
X106727978Y-103582795D01*
X106898761Y-103660580D01*
X107051390Y-103770259D01*
X107180053Y-103910931D01*
X107186854Y-103920149D01*
X107232263Y-103979205D01*
X107260867Y-104008444D01*
X107278846Y-104012557D01*
X107292376Y-103996237D01*
X107296055Y-103987678D01*
X107297441Y-103951994D01*
X107280517Y-103898164D01*
X107242887Y-103817528D01*
X107223635Y-103777199D01*
X107158612Y-103585575D01*
X107132952Y-103391462D01*
X107134490Y-103366916D01*
X107347917Y-103366916D01*
X107348236Y-103424162D01*
X107351606Y-103512146D01*
X107360532Y-103578219D01*
X107377308Y-103635899D01*
X107404229Y-103698707D01*
X107441409Y-103767481D01*
X107521977Y-103880989D01*
X107615885Y-103982181D01*
X107710914Y-104056789D01*
X107783028Y-104101357D01*
X107824611Y-104048493D01*
X107824729Y-104048343D01*
X107885094Y-104001978D01*
X107976925Y-103969701D01*
X108091096Y-103953654D01*
X108218483Y-103955981D01*
X108283239Y-103964120D01*
X108354585Y-103978034D01*
X108400841Y-103993003D01*
X108435157Y-104015119D01*
X108480333Y-104057145D01*
X108486679Y-104064989D01*
X108508356Y-104084577D01*
X108533498Y-104081799D01*
X108578281Y-104056557D01*
X108641171Y-104012849D01*
X108756984Y-103899618D01*
X108851345Y-103762321D01*
X108919566Y-103610288D01*
X108956958Y-103452848D01*
X108958833Y-103299330D01*
X108945736Y-103215184D01*
X108900713Y-103065848D01*
X108825793Y-102932788D01*
X108715103Y-102804064D01*
X108649617Y-102743081D01*
X108520471Y-102651430D01*
X108380891Y-102592452D01*
X108218807Y-102560213D01*
X108073211Y-102559366D01*
X107910129Y-102594361D01*
X107754617Y-102663403D01*
X107613838Y-102762323D01*
X107494956Y-102886962D01*
X107405130Y-103033155D01*
X107389081Y-103068710D01*
X107367577Y-103127398D01*
X107355102Y-103187602D01*
X107349325Y-103262912D01*
X107347917Y-103366916D01*
X107134490Y-103366916D01*
X107144959Y-103199814D01*
X107192935Y-103015587D01*
X107275184Y-102843738D01*
X107390007Y-102689221D01*
X107535708Y-102556993D01*
X107710588Y-102452009D01*
X107760116Y-102428999D01*
X107834347Y-102398875D01*
X107901842Y-102380710D01*
X107978958Y-102370670D01*
X108082049Y-102364922D01*
X108164860Y-102362750D01*
X108261657Y-102365825D01*
X108344937Y-102377849D01*
X108431545Y-102400538D01*
X108448070Y-102405718D01*
X108636043Y-102487790D01*
X108800236Y-102604316D01*
X108938396Y-102753349D01*
X109048264Y-102932942D01*
X109049676Y-102935830D01*
X109081508Y-103002481D01*
X109102959Y-103055611D01*
X109116076Y-103106390D01*
X109122908Y-103165990D01*
X109125506Y-103245580D01*
X109125706Y-103299330D01*
X109125917Y-103356333D01*
X109125917Y-103363824D01*
X109125439Y-103472417D01*
X109122616Y-103550779D01*
X109115327Y-103610345D01*
X109101459Y-103662551D01*
X109078892Y-103718835D01*
X109045508Y-103790631D01*
X108965100Y-103960346D01*
X109037004Y-104118714D01*
X109039852Y-104125012D01*
X109080227Y-104218463D01*
X109118085Y-104312693D01*
X109145572Y-104388208D01*
X109161136Y-104434021D01*
X109178487Y-104481088D01*
X109187252Y-104499333D01*
X109193599Y-104486366D01*
X109209339Y-104442749D01*
X109230194Y-104379021D01*
X109230275Y-104378764D01*
X109259007Y-104297070D01*
X109297810Y-104198627D01*
X109338309Y-104104689D01*
X109408498Y-103950668D01*
X109347537Y-103838115D01*
X109312046Y-103766302D01*
X109248298Y-103576405D01*
X109228625Y-103422063D01*
X109441860Y-103422063D01*
X109472031Y-103589338D01*
X109537672Y-103747198D01*
X109635436Y-103889470D01*
X109761977Y-104009979D01*
X109913949Y-104102550D01*
X109948406Y-104118177D01*
X110034353Y-104150028D01*
X110119634Y-104167342D01*
X110225623Y-104175089D01*
X110294348Y-104175850D01*
X110403104Y-104168844D01*
X110485111Y-104152360D01*
X110628579Y-104089355D01*
X110775676Y-103986783D01*
X110898726Y-103857972D01*
X110989401Y-103710224D01*
X111040100Y-103600795D01*
X110919092Y-103567278D01*
X110866623Y-103551705D01*
X110797845Y-103528193D01*
X110752326Y-103508802D01*
X110741578Y-103502392D01*
X110678647Y-103448736D01*
X110614519Y-103373134D01*
X110560609Y-103290519D01*
X110528333Y-103215821D01*
X110504817Y-103128226D01*
X110412398Y-103167842D01*
X110390851Y-103176764D01*
X110202564Y-103229933D01*
X110009738Y-103242484D01*
X109818391Y-103214582D01*
X109634533Y-103146391D01*
X109568215Y-103116846D01*
X109516447Y-103099950D01*
X109490711Y-103099489D01*
X109480355Y-103122616D01*
X109465635Y-103176859D01*
X109451050Y-103248397D01*
X109450504Y-103251548D01*
X109441860Y-103422063D01*
X109228625Y-103422063D01*
X109223818Y-103384347D01*
X109237042Y-103194801D01*
X109286400Y-103012437D01*
X109317908Y-102948424D01*
X109563776Y-102948424D01*
X109583103Y-102974231D01*
X109630877Y-103010830D01*
X109696044Y-103048821D01*
X109753192Y-103076580D01*
X109806192Y-103096153D01*
X109862442Y-103107099D01*
X109934961Y-103111869D01*
X110036773Y-103112917D01*
X110121775Y-103112219D01*
X110200774Y-103108060D01*
X110261724Y-103097972D01*
X110318115Y-103079518D01*
X110383444Y-103050260D01*
X110451898Y-103020082D01*
X110515207Y-103004770D01*
X110559644Y-103019275D01*
X110594421Y-103067464D01*
X110628750Y-103153202D01*
X110686189Y-103272873D01*
X110767598Y-103370430D01*
X110865549Y-103433438D01*
X110932774Y-103453517D01*
X111001207Y-103462167D01*
X111068106Y-103462167D01*
X111058440Y-103295190D01*
X111039428Y-103160636D01*
X110980669Y-102994859D01*
X110885845Y-102848645D01*
X110757206Y-102725246D01*
X110597000Y-102627915D01*
X110541882Y-102602791D01*
X110482839Y-102581275D01*
X110423463Y-102569147D01*
X110349764Y-102563790D01*
X110247750Y-102562587D01*
X110168589Y-102563201D01*
X110089189Y-102567215D01*
X110028495Y-102577160D01*
X109972972Y-102595522D01*
X109909083Y-102624787D01*
X109901586Y-102628540D01*
X109825481Y-102674218D01*
X109747229Y-102732387D01*
X109674382Y-102795969D01*
X109614490Y-102857887D01*
X109575104Y-102911065D01*
X109563776Y-102948424D01*
X109317908Y-102948424D01*
X109370325Y-102841929D01*
X109487251Y-102687946D01*
X109635610Y-102555162D01*
X109655467Y-102543250D01*
X110728713Y-102543250D01*
X110728992Y-102544133D01*
X110749255Y-102569687D01*
X110793373Y-102611938D01*
X110852334Y-102662214D01*
X110970085Y-102757707D01*
X111027043Y-102708713D01*
X111050541Y-102690724D01*
X111145185Y-102649178D01*
X111251738Y-102639056D01*
X111360601Y-102657818D01*
X111462173Y-102702917D01*
X111546856Y-102771807D01*
X111605046Y-102861945D01*
X111606276Y-102864943D01*
X111629212Y-102959155D01*
X111631852Y-103063161D01*
X111613524Y-103153872D01*
X111601806Y-103193364D01*
X111609317Y-103204422D01*
X111639148Y-103183200D01*
X111693131Y-103129125D01*
X111701341Y-103120292D01*
X111784053Y-103007633D01*
X111830489Y-102885527D01*
X111845162Y-102742499D01*
X111841752Y-102678144D01*
X111807767Y-102535699D01*
X111741801Y-102409274D01*
X111649376Y-102303253D01*
X111536009Y-102222016D01*
X111407217Y-102169948D01*
X111268520Y-102151432D01*
X111125436Y-102170853D01*
X111088203Y-102183051D01*
X110972065Y-102242208D01*
X110866200Y-102324837D01*
X110786637Y-102419187D01*
X110761191Y-102462158D01*
X110736063Y-102513669D01*
X110728713Y-102543250D01*
X109655467Y-102543250D01*
X109813833Y-102448248D01*
X109848158Y-102431916D01*
X109912425Y-102403679D01*
X109967372Y-102386088D01*
X110025912Y-102376633D01*
X110100957Y-102372802D01*
X110205417Y-102372083D01*
X110281653Y-102372885D01*
X110375603Y-102376129D01*
X110450210Y-102381290D01*
X110493981Y-102387740D01*
X110523335Y-102393729D01*
X110552451Y-102383331D01*
X110575590Y-102340922D01*
X110601078Y-102296460D01*
X110663173Y-102223419D01*
X110745844Y-102148026D01*
X110838627Y-102079519D01*
X110931051Y-102027137D01*
X110931560Y-102026900D01*
X111000570Y-101998160D01*
X111065015Y-101981057D01*
X111140487Y-101972754D01*
X111242583Y-101970409D01*
X111258730Y-101970460D01*
X111424045Y-101984938D01*
X111565018Y-102027855D01*
X111691407Y-102103408D01*
X111812967Y-102215796D01*
X111866850Y-102278804D01*
X111953170Y-102416680D01*
X112002570Y-102565846D01*
X112018704Y-102735530D01*
X112018660Y-102742500D01*
X112018584Y-102754673D01*
X111996130Y-102936021D01*
X111935545Y-103099354D01*
X111837544Y-103243246D01*
X111702839Y-103366273D01*
X111682756Y-103380269D01*
X111585919Y-103427589D01*
X111498079Y-103440648D01*
X111424560Y-103423361D01*
X111370686Y-103379640D01*
X111341780Y-103313402D01*
X111343166Y-103228560D01*
X111380167Y-103129028D01*
X111398959Y-103092395D01*
X111418611Y-103037564D01*
X111416035Y-102991293D01*
X111392338Y-102936070D01*
X111349333Y-102882244D01*
X111284171Y-102842699D01*
X111213644Y-102828617D01*
X111151625Y-102845233D01*
X111142028Y-102856500D01*
X111139890Y-102886024D01*
X111151519Y-102938996D01*
X111178085Y-103023266D01*
X111190163Y-103061605D01*
X111229087Y-103265206D01*
X111227502Y-103462167D01*
X111227445Y-103469299D01*
X111199880Y-103600795D01*
X111185730Y-103668298D01*
X111104440Y-103856619D01*
X111092594Y-103878229D01*
X111065203Y-103935963D01*
X111058363Y-103972952D01*
X111069384Y-104000209D01*
X111082386Y-104013737D01*
X111101105Y-104013150D01*
X111128629Y-103987333D01*
X111172363Y-103931332D01*
X111258722Y-103830075D01*
X111404483Y-103707547D01*
X111582451Y-103606624D01*
X111588370Y-103603862D01*
X111668965Y-103569533D01*
X111740991Y-103548176D01*
X111821407Y-103535978D01*
X111927170Y-103529128D01*
X112029865Y-103527887D01*
X112209187Y-103546148D01*
X112368973Y-103593616D01*
X112518486Y-103672536D01*
X112617556Y-103746679D01*
X112723401Y-103846666D01*
X112814212Y-103953644D01*
X112878311Y-104055193D01*
X112920755Y-104140980D01*
X112954651Y-103986782D01*
X112979517Y-103866490D01*
X113007350Y-103717631D01*
X113034043Y-103561911D01*
X113057625Y-103411385D01*
X113076122Y-103278108D01*
X113087567Y-103174134D01*
X113091779Y-103122981D01*
X113094338Y-103065262D01*
X113088991Y-103033769D01*
X113073103Y-103018525D01*
X113044032Y-103009547D01*
X112982083Y-102988439D01*
X112864932Y-102921560D01*
X112751706Y-102825083D01*
X112650732Y-102706662D01*
X112570334Y-102573955D01*
X112547551Y-102524627D01*
X112529216Y-102471653D01*
X112518700Y-102413677D01*
X112513901Y-102338266D01*
X112512718Y-102232983D01*
X112512710Y-102218954D01*
X112905022Y-102218954D01*
X112920050Y-102342793D01*
X112967909Y-102458343D01*
X113047611Y-102558368D01*
X113158167Y-102635629D01*
X113158229Y-102635661D01*
X113289817Y-102680308D01*
X113423124Y-102685210D01*
X113550922Y-102651172D01*
X113665980Y-102578999D01*
X113751108Y-102485595D01*
X113811245Y-102367232D01*
X113834847Y-102240466D01*
X113821724Y-102112410D01*
X113771686Y-101990171D01*
X113684548Y-101880858D01*
X113661248Y-101860684D01*
X113569425Y-101803252D01*
X113465958Y-101762902D01*
X113369833Y-101747667D01*
X113341738Y-101749244D01*
X113241280Y-101773188D01*
X113139412Y-101819739D01*
X113055119Y-101880858D01*
X112977413Y-101975365D01*
X112923813Y-102094066D01*
X112905022Y-102218954D01*
X112512710Y-102218954D01*
X112512583Y-102009216D01*
X112322083Y-101928562D01*
X112047547Y-101818684D01*
X111514572Y-101639241D01*
X110963167Y-101496209D01*
X110396685Y-101390398D01*
X109818482Y-101322622D01*
X109797292Y-101320955D01*
X109651457Y-101313076D01*
X109476826Y-101308457D01*
X109282289Y-101306927D01*
X109076729Y-101308322D01*
X108869033Y-101312471D01*
X108668085Y-101319209D01*
X108482770Y-101328366D01*
X108321974Y-101339776D01*
X108194583Y-101353271D01*
X107645546Y-101442836D01*
X107104875Y-101565154D01*
X106581171Y-101719982D01*
X106067333Y-101909176D01*
X105823917Y-102007727D01*
X105823917Y-102224844D01*
X105823917Y-102232238D01*
X105822939Y-102335439D01*
X105818479Y-102410642D01*
X105808301Y-102468656D01*
X105790171Y-102522139D01*
X105761854Y-102583750D01*
X105705181Y-102679580D01*
X105604268Y-102801402D01*
X105485907Y-102904235D01*
X105361773Y-102976614D01*
X105327150Y-102992106D01*
X105274318Y-103021096D01*
X105249105Y-103048214D01*
X105242737Y-103081168D01*
X104885507Y-103081168D01*
X104884970Y-103079201D01*
X104864224Y-103051369D01*
X104830917Y-103034777D01*
X104780207Y-103020747D01*
X104725840Y-103003716D01*
X104587839Y-102933585D01*
X104459193Y-102831466D01*
X104348231Y-102704767D01*
X104263280Y-102560897D01*
X104249918Y-102530139D01*
X104232263Y-102476270D01*
X104221706Y-102415035D01*
X104216588Y-102334797D01*
X104215250Y-102223917D01*
X104215259Y-102222318D01*
X104569631Y-102222318D01*
X104587355Y-102356945D01*
X104591093Y-102369152D01*
X104639269Y-102464327D01*
X104713938Y-102555112D01*
X104803171Y-102629202D01*
X104895038Y-102674294D01*
X104903483Y-102676754D01*
X105021482Y-102697931D01*
X105129118Y-102686853D01*
X105243199Y-102641958D01*
X105267361Y-102628946D01*
X105373697Y-102547858D01*
X105447335Y-102449412D01*
X105489733Y-102339707D01*
X105502349Y-102224844D01*
X105486643Y-102110919D01*
X105444074Y-102004032D01*
X105376100Y-101910281D01*
X105284180Y-101835765D01*
X105169774Y-101786582D01*
X105034339Y-101768833D01*
X104956507Y-101775092D01*
X104830904Y-101814455D01*
X104724863Y-101884848D01*
X104642936Y-101980281D01*
X104589675Y-102094768D01*
X104569631Y-102222318D01*
X104215259Y-102222318D01*
X104215618Y-102158346D01*
X104218833Y-102065786D01*
X104226743Y-101997456D01*
X104241005Y-101941719D01*
X104263280Y-101886936D01*
X104332068Y-101763431D01*
X104451486Y-101621473D01*
X104600260Y-101509936D01*
X104777922Y-101429236D01*
X104935370Y-101393810D01*
X105111587Y-101391805D01*
X105284466Y-101426262D01*
X105445582Y-101495425D01*
X105586510Y-101597545D01*
X105680358Y-101684050D01*
X105905882Y-101589564D01*
X106107751Y-101508123D01*
X106663829Y-101314674D01*
X107233100Y-101160280D01*
X107812532Y-101045264D01*
X108399086Y-100969951D01*
X108989721Y-100934664D01*
X109581403Y-100939728D01*
X110171092Y-100985467D01*
X110755750Y-101072206D01*
X110773386Y-101075490D01*
X111113604Y-101147990D01*
X111469802Y-101239723D01*
X111827414Y-101346360D01*
X112171872Y-101463574D01*
X112488607Y-101587035D01*
X112718631Y-101683626D01*
X112823006Y-101589784D01*
X112824700Y-101588266D01*
X112967578Y-101487010D01*
X113124464Y-101421871D01*
X113289573Y-101391598D01*
X113457119Y-101394941D01*
X113621319Y-101430650D01*
X113776389Y-101497473D01*
X113916544Y-101594161D01*
X114036000Y-101719462D01*
X114128973Y-101872126D01*
X114152042Y-101924825D01*
X114169229Y-101978483D01*
X114179131Y-102038153D01*
X114183665Y-102115931D01*
X114184750Y-102223917D01*
X114184738Y-102240466D01*
X114184737Y-102241985D01*
G36*
X114184737Y-102241985D02*
G01*
X114183501Y-102342784D01*
X114178763Y-102415197D01*
X114168421Y-102471359D01*
X114150376Y-102523407D01*
X114122528Y-102583480D01*
X114088865Y-102643091D01*
X114025170Y-102734561D01*
X113958694Y-102811822D01*
X113938973Y-102830408D01*
X113865209Y-102888475D01*
X113778686Y-102944704D01*
X113690693Y-102992740D01*
X113612517Y-103026228D01*
X113555445Y-103038816D01*
X113537573Y-103041987D01*
X113520973Y-103058540D01*
X113518685Y-103065262D01*
X113508297Y-103095786D01*
X113497292Y-103160906D01*
X113485701Y-103261083D01*
X113465591Y-103424233D01*
X113418115Y-103714609D01*
X113354613Y-104025321D01*
X113310275Y-104209618D01*
X113277509Y-104345816D01*
X113224256Y-104538678D01*
X113189227Y-104665544D01*
X113092191Y-104973950D01*
X113091660Y-104975530D01*
X113052145Y-105096409D01*
X113018767Y-105204848D01*
X112993479Y-105293963D01*
X112978236Y-105356874D01*
X112974992Y-105386701D01*
X112978206Y-105396656D01*
X112994179Y-105444138D01*
X113018662Y-105515674D01*
X113047805Y-105600000D01*
X113093065Y-105741226D01*
X113137519Y-105919979D01*
X113166870Y-106103041D01*
X113182966Y-106302722D01*
X113187224Y-106510167D01*
X113187658Y-106531333D01*
X113183058Y-106752896D01*
X113169159Y-106945101D01*
X113145862Y-107097957D01*
X113113052Y-107212473D01*
X113092505Y-107247213D01*
X113049865Y-107283502D01*
X112981986Y-107317338D01*
X112883294Y-107351410D01*
X112748214Y-107388404D01*
X112666014Y-107408385D01*
X112652854Y-107410931D01*
X112434367Y-107453218D01*
X112210789Y-107476981D01*
X111975313Y-107482093D01*
X111734377Y-107478785D01*
X111556374Y-107693832D01*
X111333399Y-107949601D01*
X111063951Y-108230948D01*
X110777839Y-108504540D01*
X110486031Y-108759928D01*
X110199492Y-108986667D01*
X110151333Y-109022752D01*
X110077832Y-109079626D01*
X110031153Y-109120159D01*
X110006164Y-109149810D01*
X109997734Y-109174047D01*
X110000734Y-109198333D01*
X110004331Y-109218816D01*
X110009676Y-109281093D01*
X110013260Y-109366526D01*
X110014298Y-109450199D01*
X110014455Y-109462917D01*
X110013816Y-109533436D01*
X110009897Y-109616123D01*
X110000277Y-109678685D01*
X109982530Y-109734587D01*
X109954234Y-109797295D01*
X109925159Y-109851155D01*
X109819431Y-109991996D01*
X109685608Y-110110928D01*
X109532364Y-110201160D01*
X109368376Y-110255900D01*
X109205036Y-110272143D01*
X109031279Y-110252192D01*
X108865723Y-110196816D01*
X108714362Y-110109531D01*
X108583190Y-109993852D01*
X108478204Y-109853291D01*
X108405399Y-109691365D01*
X108391309Y-109624767D01*
X108381855Y-109530995D01*
X108379285Y-109460191D01*
X108736316Y-109460191D01*
X108754529Y-109574941D01*
X108802516Y-109683367D01*
X108881713Y-109779366D01*
X108993557Y-109856834D01*
X109120664Y-109901606D01*
X109252194Y-109906950D01*
X109379398Y-109871486D01*
X109497338Y-109795812D01*
X109507941Y-109786493D01*
X109595050Y-109683460D01*
X109646547Y-109569292D01*
X109664695Y-109450199D01*
X109651758Y-109332390D01*
X109609998Y-109222076D01*
X109541679Y-109125467D01*
X109449065Y-109048771D01*
X109334417Y-108998200D01*
X109200000Y-108979963D01*
X109171804Y-108980694D01*
X109041554Y-109005210D01*
X108932456Y-109060025D01*
X108845946Y-109139034D01*
X108783460Y-109236134D01*
X108746439Y-109345221D01*
X108736316Y-109460191D01*
X108379285Y-109460191D01*
X108378047Y-109426090D01*
X108379987Y-109323313D01*
X108387775Y-109235919D01*
X108401510Y-109177167D01*
X108401766Y-109176499D01*
X108394673Y-109152518D01*
X108359559Y-109113522D01*
X108293810Y-109057024D01*
X108194808Y-108980530D01*
X108124496Y-108927077D01*
X107787411Y-108650752D01*
X107454035Y-108345631D01*
X107135187Y-108022032D01*
X106841685Y-107690271D01*
X106665433Y-107478935D01*
X106414008Y-107481775D01*
X106331219Y-107481427D01*
X106156941Y-107473095D01*
X105983685Y-107455590D01*
X105817353Y-107430229D01*
X105737599Y-107413658D01*
X107106766Y-107413658D01*
X107108042Y-107418505D01*
X107128760Y-107448372D01*
X107169069Y-107498863D01*
X107223183Y-107562577D01*
X107398706Y-107757752D01*
X107717604Y-108083695D01*
X108048065Y-108387645D01*
X108379867Y-108659903D01*
X108611908Y-108838434D01*
X108692605Y-108774521D01*
X108762450Y-108724080D01*
X108880160Y-108663076D01*
X109011077Y-108626789D01*
X109168250Y-108610727D01*
X109237977Y-108608658D01*
X109329677Y-108611322D01*
X109405792Y-108623190D01*
X109482717Y-108646106D01*
X109533505Y-108666373D01*
X109627422Y-108712759D01*
X109707663Y-108762153D01*
X109808642Y-108834700D01*
X110038779Y-108656008D01*
X110283667Y-108456869D01*
X110561098Y-108211496D01*
X110828750Y-107954812D01*
X111071904Y-107700435D01*
X111334993Y-107410932D01*
X111163833Y-107355317D01*
X111102200Y-107334266D01*
X111022804Y-107299919D01*
X110971002Y-107262025D01*
X110937946Y-107213140D01*
X110914786Y-107145821D01*
X110907606Y-107116228D01*
X110888193Y-107006586D01*
X110871965Y-106872592D01*
X110860102Y-106727613D01*
X110853781Y-106585016D01*
X110854160Y-106464467D01*
X111032189Y-106464467D01*
X111034700Y-106672968D01*
X111051031Y-106877805D01*
X111080232Y-107060500D01*
X111083159Y-107072831D01*
X111096709Y-107106244D01*
X111121459Y-107133214D01*
X111163498Y-107156547D01*
X111228917Y-107179046D01*
X111323804Y-107203517D01*
X111454250Y-107232765D01*
X111549139Y-107250072D01*
X111720587Y-107270341D01*
X111908111Y-107282057D01*
X112097428Y-107284794D01*
X112274246Y-107278127D01*
X112424279Y-107261632D01*
X112530666Y-107242454D01*
X112650731Y-107217026D01*
X112760591Y-107190102D01*
X112849696Y-107164289D01*
X112907494Y-107142196D01*
X112927398Y-107120795D01*
X112951327Y-107058210D01*
X112970830Y-106961301D01*
X112985267Y-106834623D01*
X112993998Y-106682726D01*
X112996382Y-106510167D01*
X112995611Y-106448789D01*
X112983982Y-106229093D01*
X112956545Y-106026351D01*
X112910575Y-105828113D01*
X112843342Y-105621934D01*
X112752121Y-105395363D01*
X112668249Y-105201310D01*
X112549270Y-105284657D01*
X112385436Y-105375516D01*
X112204758Y-105431538D01*
X112017210Y-105450508D01*
X111829623Y-105432422D01*
X111648830Y-105377278D01*
X111481661Y-105285074D01*
X111363279Y-105202147D01*
X111298929Y-105342865D01*
X111269531Y-105408479D01*
X111181127Y-105630337D01*
X111116517Y-105842437D01*
X111071342Y-106061003D01*
X111041245Y-106302261D01*
X111032189Y-106464467D01*
X110854160Y-106464467D01*
X110854180Y-106458166D01*
X110854805Y-106440745D01*
X110857316Y-106352881D01*
X110856351Y-106298778D01*
X110850574Y-106271068D01*
X110838652Y-106262384D01*
X110819250Y-106265360D01*
X110780599Y-106272497D01*
X110720050Y-106277044D01*
X110663183Y-106277333D01*
X110656550Y-106801208D01*
X110654348Y-106959788D01*
X110651837Y-107088274D01*
X110648609Y-107185757D01*
X110644170Y-107258006D01*
X110638026Y-107310788D01*
X110629682Y-107349873D01*
X110618644Y-107381030D01*
X110604420Y-107410026D01*
X110584552Y-107444505D01*
X110484010Y-107567593D01*
X110353861Y-107660586D01*
X110340724Y-107667436D01*
X110319593Y-107676857D01*
X110294737Y-107684658D01*
X110262293Y-107691022D01*
X110218403Y-107696132D01*
X110159204Y-107700171D01*
X110080837Y-107703322D01*
X109979441Y-107705768D01*
X109851154Y-107707692D01*
X109692117Y-107709278D01*
X109498468Y-107710708D01*
X109266347Y-107712165D01*
X109174196Y-107712714D01*
X108938739Y-107713864D01*
X108740468Y-107714120D01*
X108575566Y-107713113D01*
X108440225Y-107710478D01*
X108330633Y-107705843D01*
X108242978Y-107698844D01*
X108173450Y-107689112D01*
X108118237Y-107676280D01*
X108073528Y-107659982D01*
X108035512Y-107639847D01*
X108000376Y-107615509D01*
X107964311Y-107586602D01*
X107936156Y-107559963D01*
X107877721Y-107487890D01*
X107832226Y-107411250D01*
X107830809Y-107408200D01*
X107815311Y-107372841D01*
X107803511Y-107338209D01*
X107794903Y-107298153D01*
X107788982Y-107246521D01*
X107785241Y-107177162D01*
X107783175Y-107083925D01*
X107782277Y-106960657D01*
X107782040Y-106801208D01*
X107781718Y-106706641D01*
X107780242Y-106575136D01*
X107777742Y-106462650D01*
X107774404Y-106375008D01*
X107770414Y-106318041D01*
X107765958Y-106297578D01*
X107759631Y-106296865D01*
X107719992Y-106290361D01*
X107661624Y-106279528D01*
X107573165Y-106262399D01*
X107572508Y-106550324D01*
X107570415Y-106665251D01*
X107570241Y-106674845D01*
X107560353Y-106843356D01*
X107543458Y-106992479D01*
X107520455Y-107116512D01*
X107492240Y-107209753D01*
X107459713Y-107266501D01*
X107458837Y-107267415D01*
X107415150Y-107297814D01*
X107345624Y-107331446D01*
X107264896Y-107361197D01*
X107253781Y-107364677D01*
X107182153Y-107387536D01*
X107129580Y-107405047D01*
X107106766Y-107413658D01*
X105737599Y-107413658D01*
X105663847Y-107398334D01*
X105529067Y-107361224D01*
X105418915Y-107320219D01*
X105339295Y-107276638D01*
X105296105Y-107231800D01*
X105271321Y-107166724D01*
X105245797Y-107050952D01*
X105227018Y-106901598D01*
X105215535Y-106723312D01*
X105211899Y-106520750D01*
X105212009Y-106501091D01*
X105393800Y-106501091D01*
X105394408Y-106599156D01*
X105402084Y-106705937D01*
X105417155Y-106837887D01*
X105417291Y-106838968D01*
X105435002Y-106966089D01*
X105451625Y-107055308D01*
X105468153Y-107110977D01*
X105485584Y-107137444D01*
X105491096Y-107140913D01*
X105538781Y-107160241D01*
X105616497Y-107183704D01*
X105714640Y-107208953D01*
X105823605Y-107233639D01*
X105933787Y-107255414D01*
X106035583Y-107271929D01*
X106179215Y-107286037D01*
X106409960Y-107290164D01*
X106652326Y-107275722D01*
X106891195Y-107243789D01*
X107111446Y-107195437D01*
X107153882Y-107183800D01*
X107229865Y-107160376D01*
X107277223Y-107136074D01*
X107304510Y-107102247D01*
X107320283Y-107050247D01*
X107333099Y-106971427D01*
X107364695Y-106665251D01*
X107363788Y-106352813D01*
X107326084Y-106048386D01*
X107250617Y-105744401D01*
X107136417Y-105433289D01*
X107038366Y-105200995D01*
X106919162Y-105284497D01*
X106903212Y-105295381D01*
X106744280Y-105379039D01*
X106569470Y-105432819D01*
X106394126Y-105451834D01*
X106259711Y-105451833D01*
X106291206Y-105541098D01*
X106299856Y-105564002D01*
X106335906Y-105645075D01*
X106376300Y-105721822D01*
X106379905Y-105728062D01*
X106416692Y-105814531D01*
X106416886Y-105880353D01*
X106380480Y-105925221D01*
X106375576Y-105927912D01*
X106321510Y-105933181D01*
X106245398Y-105912702D01*
X106153770Y-105870664D01*
X106053157Y-105811250D01*
X105950091Y-105738647D01*
X105851104Y-105657045D01*
X105762727Y-105570628D01*
X105691491Y-105483583D01*
X105646808Y-105420083D01*
X105590156Y-105547083D01*
X105578576Y-105574002D01*
X105522856Y-105731548D01*
X105473720Y-105916495D01*
X105434103Y-106116476D01*
X105406940Y-106319124D01*
X105399941Y-106395288D01*
X105393800Y-106501091D01*
X105212009Y-106501091D01*
X105212160Y-106474270D01*
X105218099Y-106277901D01*
X105233556Y-106105226D01*
X105260891Y-105941320D01*
X105302464Y-105771261D01*
X105360635Y-105580125D01*
X105435394Y-105350425D01*
X105317760Y-105004254D01*
X105228616Y-104725034D01*
X105219318Y-104692115D01*
X105546386Y-104692115D01*
X105560421Y-104854212D01*
X105594599Y-105019750D01*
X105645865Y-105170433D01*
X105650301Y-105180545D01*
X105714541Y-105299212D01*
X105799862Y-105422633D01*
X105894916Y-105535791D01*
X105988354Y-105623667D01*
X106045256Y-105665416D01*
X106113683Y-105710334D01*
X106182139Y-105751278D01*
X106241875Y-105783281D01*
X106284135Y-105801376D01*
X106300167Y-105800596D01*
X106299080Y-105795727D01*
X106285140Y-105761817D01*
X106260275Y-105710282D01*
X106253880Y-105697028D01*
X106225999Y-105631010D01*
X106193097Y-105544217D01*
X106161005Y-105451833D01*
X106154635Y-105432432D01*
X106137609Y-105377877D01*
X106124527Y-105327592D01*
X106114757Y-105274920D01*
X106107659Y-105213203D01*
X106102599Y-105135785D01*
X106098941Y-105036008D01*
X106096049Y-104907216D01*
X106093287Y-104742750D01*
X106091885Y-104653810D01*
X106172877Y-104653810D01*
X106173428Y-104780839D01*
X106176006Y-104905436D01*
X106180633Y-105019991D01*
X106187326Y-105116888D01*
X106196106Y-105188517D01*
X106196537Y-105190980D01*
X106210606Y-105262405D01*
X106225497Y-105302815D01*
X106247627Y-105322844D01*
X106283420Y-105333124D01*
X106378749Y-105342326D01*
X106520800Y-105329655D01*
X106665962Y-105291081D01*
X106799544Y-105229553D01*
X106919344Y-105141886D01*
X106944127Y-105114535D01*
X107219018Y-105114535D01*
X107288441Y-105256726D01*
X107309680Y-105302073D01*
X107370121Y-105448593D01*
X107428095Y-105611674D01*
X107477544Y-105773476D01*
X107512409Y-105916160D01*
X107524239Y-105970631D01*
X107541199Y-106024099D01*
X107561986Y-106052535D01*
X107592017Y-106066139D01*
X107646577Y-106079243D01*
X107713042Y-106093409D01*
X107781833Y-106106943D01*
X107781833Y-105683458D01*
X107781994Y-105596758D01*
X107783699Y-105455153D01*
X107788261Y-105345582D01*
X107792933Y-105299926D01*
X108131083Y-105299926D01*
X108131083Y-107275907D01*
X108181053Y-107316370D01*
X108182692Y-107317680D01*
X108196464Y-107326990D01*
X108214582Y-107334697D01*
X108240844Y-107340952D01*
X108279050Y-107345906D01*
X108332998Y-107349710D01*
X108406487Y-107352515D01*
X108503315Y-107354472D01*
X108627282Y-107355731D01*
X108782185Y-107356444D01*
X108971826Y-107356761D01*
X109200000Y-107356834D01*
X109231404Y-107356832D01*
X109454448Y-107356738D01*
X109639442Y-107356378D01*
X109790186Y-107355604D01*
X109910477Y-107354264D01*
X110004115Y-107352208D01*
X110074898Y-107349283D01*
X110126625Y-107345341D01*
X110163094Y-107340229D01*
X110188105Y-107333797D01*
X110205457Y-107325896D01*
X110218947Y-107316370D01*
X110268917Y-107275907D01*
X110268917Y-105299926D01*
X110218947Y-105259463D01*
X110217307Y-105258152D01*
X110203537Y-105248843D01*
X110185419Y-105241136D01*
X110159156Y-105234881D01*
X110120951Y-105229927D01*
X110067003Y-105226123D01*
X109993515Y-105223318D01*
X109896685Y-105221361D01*
X109772718Y-105220102D01*
X109617814Y-105219388D01*
X109428174Y-105219072D01*
X109200000Y-105219000D01*
X109168596Y-105219001D01*
X108945552Y-105219096D01*
X108760559Y-105219455D01*
X108609815Y-105220229D01*
X108489524Y-105221568D01*
X108395886Y-105223625D01*
X108325102Y-105226550D01*
X108273375Y-105230492D01*
X108236906Y-105235604D01*
X108211895Y-105242036D01*
X108194544Y-105249938D01*
X108181053Y-105259463D01*
X108131083Y-105299926D01*
X107792933Y-105299926D01*
X107796893Y-105261227D01*
X107810806Y-105195274D01*
X107831213Y-105140909D01*
X107859327Y-105091316D01*
X107896360Y-105039680D01*
X107925548Y-105008556D01*
X107988396Y-104957454D01*
X108059747Y-104911649D01*
X108173417Y-104848800D01*
X108633792Y-104841327D01*
X108691608Y-104840288D01*
X108820327Y-104837203D01*
X108931018Y-104833479D01*
X109017606Y-104829384D01*
X109074014Y-104825184D01*
X109094167Y-104821144D01*
X109093842Y-104819201D01*
X109327000Y-104819201D01*
X109327134Y-104821144D01*
X109327542Y-104827097D01*
X109333322Y-104838421D01*
X109349773Y-104846723D01*
X109382173Y-104852471D01*
X109435797Y-104856139D01*
X109515924Y-104858198D01*
X109627830Y-104859120D01*
X109776792Y-104859373D01*
X109864794Y-104859469D01*
X109994391Y-104860145D01*
X110091983Y-104861982D01*
X110164213Y-104865583D01*
X110217726Y-104871543D01*
X110259168Y-104880469D01*
X110295183Y-104892958D01*
X110332417Y-104909613D01*
X110425114Y-104962965D01*
X110522468Y-105054638D01*
X110595288Y-105176667D01*
X110606948Y-105204423D01*
X110618987Y-105242751D01*
X110627558Y-105288921D01*
X110628586Y-105299926D01*
X110633246Y-105349828D01*
X110636637Y-105432371D01*
X110638316Y-105543448D01*
X110638869Y-105689958D01*
X110639237Y-105792011D01*
X110640888Y-105916975D01*
X110644095Y-106006597D01*
X110649132Y-106065109D01*
X110656273Y-106096745D01*
X110665792Y-106105733D01*
X110674549Y-106104633D01*
X110720456Y-106096350D01*
X110782113Y-106083340D01*
X110831410Y-106069460D01*
X110867815Y-106045560D01*
X110884448Y-106006231D01*
X110889616Y-105982891D01*
X110964135Y-105694190D01*
X111050947Y-105437229D01*
X111148450Y-105216811D01*
X111190851Y-105133699D01*
X111071516Y-104888275D01*
X111056541Y-104856503D01*
X111270367Y-104856503D01*
X111309392Y-104925907D01*
X111324789Y-104951750D01*
X111425852Y-105077522D01*
X111493222Y-105133699D01*
X111556083Y-105186117D01*
X111705158Y-105270142D01*
X111862750Y-105322200D01*
X111898568Y-105329369D01*
X112008520Y-105342791D01*
X112110196Y-105337235D01*
X112226320Y-105312068D01*
X112378684Y-105254478D01*
X112531416Y-105155484D01*
X112660355Y-105023033D01*
X112762470Y-104859679D01*
X112773780Y-104836429D01*
X112803607Y-104767493D01*
X112820606Y-104705919D01*
X112828259Y-104635161D01*
X112830050Y-104538678D01*
X112829842Y-104503579D01*
X112827654Y-104425118D01*
X112823590Y-104368079D01*
X112818276Y-104342913D01*
X112805382Y-104342471D01*
X112759054Y-104352036D01*
X112688028Y-104371536D01*
X112601317Y-104398654D01*
X112396167Y-104466229D01*
X112396167Y-104523961D01*
X112396167Y-104539598D01*
X112395571Y-104560422D01*
X112370966Y-104670056D01*
X112315581Y-104761627D01*
X112236743Y-104832424D01*
X112141774Y-104879732D01*
X112037999Y-104900845D01*
X111932744Y-104893048D01*
X111833330Y-104853631D01*
X111747085Y-104779882D01*
X111701252Y-104725386D01*
X111636498Y-104779874D01*
X111554228Y-104834016D01*
X111447969Y-104869817D01*
X111345054Y-104870516D01*
X111270367Y-104856503D01*
X111056541Y-104856503D01*
X111018186Y-104775128D01*
X110974664Y-104669925D01*
X110949500Y-104585101D01*
X110941752Y-104518787D01*
X111147332Y-104518787D01*
X111149911Y-104561632D01*
X111169515Y-104619287D01*
X111216125Y-104678055D01*
X111298536Y-104741466D01*
X111386262Y-104764037D01*
X111477212Y-104744667D01*
X111488656Y-104739343D01*
X111567782Y-104681170D01*
X111617787Y-104604283D01*
X111631681Y-104539999D01*
X111759746Y-104539999D01*
X111784392Y-104632389D01*
X111839990Y-104711347D01*
X111922791Y-104766481D01*
X111951340Y-104777958D01*
X112007356Y-104792959D01*
X112056291Y-104786788D01*
X112119496Y-104758592D01*
X112198944Y-104703422D01*
X112255095Y-104622467D01*
X112273037Y-104523961D01*
X112268550Y-104477438D01*
X112235187Y-104390340D01*
X112176302Y-104324846D01*
X112100199Y-104283130D01*
X112015191Y-104267365D01*
X111929583Y-104279725D01*
X111851684Y-104322384D01*
X111789802Y-104397516D01*
X111769797Y-104444571D01*
X111762063Y-104517997D01*
X111759746Y-104539999D01*
X111631681Y-104539999D01*
X111636436Y-104517997D01*
X111621496Y-104431628D01*
X111570736Y-104354492D01*
X111501025Y-104301367D01*
X111407745Y-104273673D01*
X111306514Y-104287525D01*
X111297700Y-104290624D01*
X111217519Y-104341495D01*
X111165719Y-104419987D01*
X111147332Y-104518787D01*
X110941752Y-104518787D01*
X110940961Y-104512021D01*
X110947316Y-104442052D01*
X110966831Y-104366562D01*
X110967771Y-104363570D01*
X110986983Y-104297738D01*
X110992067Y-104253553D01*
X110982108Y-104213075D01*
X110956188Y-104158367D01*
X110949268Y-104144793D01*
X111296030Y-104144793D01*
X111300586Y-104149681D01*
X111334977Y-104157558D01*
X111392142Y-104160666D01*
X111396934Y-104160681D01*
X111487735Y-104169937D01*
X111562520Y-104201371D01*
X111639458Y-104262463D01*
X111697667Y-104316753D01*
X111755875Y-104261223D01*
X111773847Y-104245193D01*
X111874764Y-104185668D01*
X111986981Y-104160285D01*
X112100879Y-104168624D01*
X112206840Y-104210265D01*
X112295247Y-104284788D01*
X112307746Y-104298834D01*
X112348782Y-104335340D01*
X112378925Y-104348836D01*
X112404145Y-104345137D01*
X112467527Y-104329541D01*
X112543135Y-104305933D01*
X112620377Y-104278228D01*
X112688662Y-104250333D01*
X112737401Y-104226160D01*
X112756000Y-104209618D01*
X112755205Y-104198949D01*
X112731499Y-104137296D01*
X112680189Y-104062901D01*
X112608492Y-103983170D01*
X112523624Y-103905511D01*
X112432805Y-103837329D01*
X112343249Y-103786032D01*
X112316113Y-103773661D01*
X112252901Y-103749158D01*
X112191459Y-103734941D01*
X112117107Y-103728355D01*
X112015167Y-103726750D01*
X111976674Y-103726902D01*
X111885423Y-103729936D01*
X111817002Y-103738841D01*
X111756879Y-103756211D01*
X111690523Y-103784635D01*
X111632776Y-103813873D01*
X111556587Y-103858202D01*
X111500023Y-103897656D01*
X111492827Y-103903758D01*
X111445237Y-103949907D01*
X111393202Y-104007453D01*
X111345284Y-104066029D01*
X111310041Y-104115264D01*
X111296030Y-104144793D01*
X110949268Y-104144793D01*
X110939922Y-104126458D01*
X110915270Y-104079626D01*
X110902705Y-104057987D01*
X110898603Y-104057908D01*
X110870008Y-104073103D01*
X110825039Y-104104770D01*
X110786454Y-104131927D01*
X110660062Y-104201060D01*
X110519444Y-104255828D01*
X110385117Y-104287697D01*
X110295450Y-104295348D01*
X110125734Y-104285731D01*
X109959496Y-104248017D01*
X109808201Y-104185263D01*
X109683311Y-104100527D01*
X109607975Y-104034381D01*
X109521440Y-104220629D01*
X109508923Y-104248270D01*
X109466695Y-104350400D01*
X109424953Y-104462899D01*
X109386907Y-104575898D01*
X109355763Y-104679527D01*
X109334725Y-104763918D01*
X109327000Y-104819201D01*
X109093842Y-104819201D01*
X109088623Y-104788027D01*
X109069771Y-104720637D01*
X109040718Y-104631335D01*
X109004753Y-104529401D01*
X108965166Y-104424113D01*
X108925248Y-104324748D01*
X108888289Y-104240589D01*
X108791961Y-104034760D01*
X108715522Y-104094813D01*
X108699040Y-104107417D01*
X108633517Y-104152950D01*
X108575583Y-104187483D01*
X108557780Y-104198018D01*
X108549139Y-104207081D01*
X108511634Y-104246419D01*
X108474806Y-104326179D01*
X108453546Y-104374567D01*
X108404470Y-104457328D01*
X108347806Y-104530801D01*
X108307132Y-104573749D01*
X108263318Y-104609917D01*
X108221015Y-104626187D01*
X108165972Y-104630364D01*
X108096995Y-104623819D01*
X108017805Y-104589789D01*
X107994224Y-104570153D01*
X107926389Y-104493565D01*
X107865137Y-104398569D01*
X107821978Y-104302084D01*
X107793434Y-104243457D01*
X107730340Y-104188058D01*
X107716877Y-104180811D01*
X107700474Y-104170593D01*
X107893875Y-104170593D01*
X107910138Y-104237345D01*
X107939805Y-104314531D01*
X107977839Y-104389187D01*
X108019202Y-104448348D01*
X108034430Y-104464647D01*
X108104327Y-104513509D01*
X108173601Y-104520890D01*
X108240666Y-104487470D01*
X108303940Y-104413932D01*
X108361836Y-104300956D01*
X108390837Y-104207081D01*
X108389045Y-104138767D01*
X108355559Y-104098358D01*
X108328238Y-104086481D01*
X108252193Y-104068768D01*
X108163094Y-104061969D01*
X108071890Y-104065352D01*
X107989539Y-104078181D01*
X107926990Y-104099722D01*
X107895198Y-104129239D01*
X107893875Y-104170593D01*
X107700474Y-104170593D01*
X107653406Y-104141273D01*
X107589846Y-104095501D01*
X107514275Y-104036135D01*
X107484821Y-104095457D01*
X107454460Y-104156609D01*
X107434056Y-104199319D01*
X107413235Y-104253892D01*
X107402018Y-104309367D01*
X107398022Y-104379529D01*
X107398862Y-104478167D01*
X107395909Y-104536716D01*
X107388935Y-104675011D01*
X107345427Y-104867179D01*
X107267913Y-105034476D01*
X107219018Y-105114535D01*
X106944127Y-105114535D01*
X107034720Y-105014553D01*
X107123117Y-104866067D01*
X107180994Y-104704198D01*
X107204806Y-104536716D01*
X107191009Y-104371389D01*
X107172593Y-104289541D01*
X107153839Y-104238693D01*
X107128526Y-104218642D01*
X107089318Y-104223838D01*
X107028877Y-104248731D01*
X106999801Y-104260567D01*
X106867511Y-104294217D01*
X106718202Y-104307147D01*
X106568023Y-104298815D01*
X106433126Y-104268680D01*
X106432877Y-104268596D01*
X106337776Y-104239118D01*
X106272672Y-104226580D01*
X106229093Y-104230292D01*
X106198566Y-104249566D01*
X106190550Y-104273640D01*
X106183190Y-104334264D01*
X106177778Y-104422910D01*
X106174333Y-104531962D01*
X106172877Y-104653810D01*
X106091885Y-104653810D01*
X106084948Y-104213584D01*
X106137145Y-104164614D01*
X106186126Y-104130775D01*
X106250334Y-104116558D01*
X106333157Y-104126449D01*
X106442766Y-104160333D01*
X106458884Y-104165930D01*
X106594515Y-104195508D01*
X106738842Y-104201078D01*
X106877020Y-104183129D01*
X106994208Y-104142152D01*
X107084999Y-104095457D01*
X107040795Y-104033377D01*
X107009665Y-103994789D01*
X106923276Y-103912420D01*
X106818792Y-103835156D01*
X106711231Y-103774780D01*
X106702127Y-103770647D01*
X106643733Y-103748504D01*
X106581735Y-103735113D01*
X106503255Y-103728514D01*
X106395417Y-103726750D01*
X106338171Y-103727069D01*
X106250187Y-103730439D01*
X106184115Y-103739365D01*
X106126435Y-103756141D01*
X106063626Y-103783062D01*
X106043622Y-103792731D01*
X105885192Y-103894232D01*
X105756129Y-104025899D01*
X105656896Y-104187000D01*
X105587954Y-104376805D01*
X105549766Y-104594583D01*
X105546386Y-104692115D01*
X105219318Y-104692115D01*
X105142256Y-104419285D01*
X105065226Y-104109566D01*
X104999946Y-103806326D01*
X104948829Y-103520015D01*
X104914300Y-103261082D01*
X104908143Y-103203290D01*
X104897996Y-103126949D01*
X104885507Y-103081168D01*
X105242737Y-103081168D01*
X105246094Y-103112494D01*
X105256608Y-103179910D01*
X105272915Y-103274573D01*
X105293616Y-103389012D01*
X105317315Y-103515767D01*
X105342613Y-103647371D01*
X105368112Y-103776359D01*
X105392416Y-103895265D01*
X105414126Y-103996625D01*
X105431674Y-104065492D01*
X105450395Y-104108980D01*
X105467847Y-104112336D01*
X105485032Y-104076687D01*
X105517793Y-104010157D01*
X105576398Y-103927628D01*
X105651216Y-103841161D01*
X105733083Y-103761328D01*
X105812831Y-103698698D01*
X105979543Y-103608644D01*
X106164825Y-103549830D01*
X106355199Y-103526518D01*
X106544854Y-103537807D01*
X106727978Y-103582795D01*
X106898761Y-103660580D01*
X107051390Y-103770259D01*
X107180053Y-103910931D01*
X107186854Y-103920149D01*
X107232263Y-103979205D01*
X107260867Y-104008444D01*
X107278846Y-104012557D01*
X107292376Y-103996237D01*
X107296055Y-103987678D01*
X107297441Y-103951994D01*
X107280517Y-103898164D01*
X107242887Y-103817528D01*
X107223635Y-103777199D01*
X107158612Y-103585575D01*
X107132952Y-103391462D01*
X107134490Y-103366916D01*
X107347917Y-103366916D01*
X107348236Y-103424162D01*
X107351606Y-103512146D01*
X107360532Y-103578219D01*
X107377308Y-103635899D01*
X107404229Y-103698707D01*
X107441409Y-103767481D01*
X107521977Y-103880989D01*
X107615885Y-103982181D01*
X107710914Y-104056789D01*
X107783028Y-104101357D01*
X107824611Y-104048493D01*
X107824729Y-104048343D01*
X107885094Y-104001978D01*
X107976925Y-103969701D01*
X108091096Y-103953654D01*
X108218483Y-103955981D01*
X108283239Y-103964120D01*
X108354585Y-103978034D01*
X108400841Y-103993003D01*
X108435157Y-104015119D01*
X108480333Y-104057145D01*
X108486679Y-104064989D01*
X108508356Y-104084577D01*
X108533498Y-104081799D01*
X108578281Y-104056557D01*
X108641171Y-104012849D01*
X108756984Y-103899618D01*
X108851345Y-103762321D01*
X108919566Y-103610288D01*
X108956958Y-103452848D01*
X108958833Y-103299330D01*
X108945736Y-103215184D01*
X108900713Y-103065848D01*
X108825793Y-102932788D01*
X108715103Y-102804064D01*
X108649617Y-102743081D01*
X108520471Y-102651430D01*
X108380891Y-102592452D01*
X108218807Y-102560213D01*
X108073211Y-102559366D01*
X107910129Y-102594361D01*
X107754617Y-102663403D01*
X107613838Y-102762323D01*
X107494956Y-102886962D01*
X107405130Y-103033155D01*
X107389081Y-103068710D01*
X107367577Y-103127398D01*
X107355102Y-103187602D01*
X107349325Y-103262912D01*
X107347917Y-103366916D01*
X107134490Y-103366916D01*
X107144959Y-103199814D01*
X107192935Y-103015587D01*
X107275184Y-102843738D01*
X107390007Y-102689221D01*
X107535708Y-102556993D01*
X107710588Y-102452009D01*
X107760116Y-102428999D01*
X107834347Y-102398875D01*
X107901842Y-102380710D01*
X107978958Y-102370670D01*
X108082049Y-102364922D01*
X108164860Y-102362750D01*
X108261657Y-102365825D01*
X108344937Y-102377849D01*
X108431545Y-102400538D01*
X108448070Y-102405718D01*
X108636043Y-102487790D01*
X108800236Y-102604316D01*
X108938396Y-102753349D01*
X109048264Y-102932942D01*
X109049676Y-102935830D01*
X109081508Y-103002481D01*
X109102959Y-103055611D01*
X109116076Y-103106390D01*
X109122908Y-103165990D01*
X109125506Y-103245580D01*
X109125706Y-103299330D01*
X109125917Y-103356333D01*
X109125917Y-103363824D01*
X109125439Y-103472417D01*
X109122616Y-103550779D01*
X109115327Y-103610345D01*
X109101459Y-103662551D01*
X109078892Y-103718835D01*
X109045508Y-103790631D01*
X108965100Y-103960346D01*
X109037004Y-104118714D01*
X109039852Y-104125012D01*
X109080227Y-104218463D01*
X109118085Y-104312693D01*
X109145572Y-104388208D01*
X109161136Y-104434021D01*
X109178487Y-104481088D01*
X109187252Y-104499333D01*
X109193599Y-104486366D01*
X109209339Y-104442749D01*
X109230194Y-104379021D01*
X109230275Y-104378764D01*
X109259007Y-104297070D01*
X109297810Y-104198627D01*
X109338309Y-104104689D01*
X109408498Y-103950668D01*
X109347537Y-103838115D01*
X109312046Y-103766302D01*
X109248298Y-103576405D01*
X109228625Y-103422063D01*
X109441860Y-103422063D01*
X109472031Y-103589338D01*
X109537672Y-103747198D01*
X109635436Y-103889470D01*
X109761977Y-104009979D01*
X109913949Y-104102550D01*
X109948406Y-104118177D01*
X110034353Y-104150028D01*
X110119634Y-104167342D01*
X110225623Y-104175089D01*
X110294348Y-104175850D01*
X110403104Y-104168844D01*
X110485111Y-104152360D01*
X110628579Y-104089355D01*
X110775676Y-103986783D01*
X110898726Y-103857972D01*
X110989401Y-103710224D01*
X111040100Y-103600795D01*
X110919092Y-103567278D01*
X110866623Y-103551705D01*
X110797845Y-103528193D01*
X110752326Y-103508802D01*
X110741578Y-103502392D01*
X110678647Y-103448736D01*
X110614519Y-103373134D01*
X110560609Y-103290519D01*
X110528333Y-103215821D01*
X110504817Y-103128226D01*
X110412398Y-103167842D01*
X110390851Y-103176764D01*
X110202564Y-103229933D01*
X110009738Y-103242484D01*
X109818391Y-103214582D01*
X109634533Y-103146391D01*
X109568215Y-103116846D01*
X109516447Y-103099950D01*
X109490711Y-103099489D01*
X109480355Y-103122616D01*
X109465635Y-103176859D01*
X109451050Y-103248397D01*
X109450504Y-103251548D01*
X109441860Y-103422063D01*
X109228625Y-103422063D01*
X109223818Y-103384347D01*
X109237042Y-103194801D01*
X109286400Y-103012437D01*
X109317908Y-102948424D01*
X109563776Y-102948424D01*
X109583103Y-102974231D01*
X109630877Y-103010830D01*
X109696044Y-103048821D01*
X109753192Y-103076580D01*
X109806192Y-103096153D01*
X109862442Y-103107099D01*
X109934961Y-103111869D01*
X110036773Y-103112917D01*
X110121775Y-103112219D01*
X110200774Y-103108060D01*
X110261724Y-103097972D01*
X110318115Y-103079518D01*
X110383444Y-103050260D01*
X110451898Y-103020082D01*
X110515207Y-103004770D01*
X110559644Y-103019275D01*
X110594421Y-103067464D01*
X110628750Y-103153202D01*
X110686189Y-103272873D01*
X110767598Y-103370430D01*
X110865549Y-103433438D01*
X110932774Y-103453517D01*
X111001207Y-103462167D01*
X111068106Y-103462167D01*
X111058440Y-103295190D01*
X111039428Y-103160636D01*
X110980669Y-102994859D01*
X110885845Y-102848645D01*
X110757206Y-102725246D01*
X110597000Y-102627915D01*
X110541882Y-102602791D01*
X110482839Y-102581275D01*
X110423463Y-102569147D01*
X110349764Y-102563790D01*
X110247750Y-102562587D01*
X110168589Y-102563201D01*
X110089189Y-102567215D01*
X110028495Y-102577160D01*
X109972972Y-102595522D01*
X109909083Y-102624787D01*
X109901586Y-102628540D01*
X109825481Y-102674218D01*
X109747229Y-102732387D01*
X109674382Y-102795969D01*
X109614490Y-102857887D01*
X109575104Y-102911065D01*
X109563776Y-102948424D01*
X109317908Y-102948424D01*
X109370325Y-102841929D01*
X109487251Y-102687946D01*
X109635610Y-102555162D01*
X109655467Y-102543250D01*
X110728713Y-102543250D01*
X110728992Y-102544133D01*
X110749255Y-102569687D01*
X110793373Y-102611938D01*
X110852334Y-102662214D01*
X110970085Y-102757707D01*
X111027043Y-102708713D01*
X111050541Y-102690724D01*
X111145185Y-102649178D01*
X111251738Y-102639056D01*
X111360601Y-102657818D01*
X111462173Y-102702917D01*
X111546856Y-102771807D01*
X111605046Y-102861945D01*
X111606276Y-102864943D01*
X111629212Y-102959155D01*
X111631852Y-103063161D01*
X111613524Y-103153872D01*
X111601806Y-103193364D01*
X111609317Y-103204422D01*
X111639148Y-103183200D01*
X111693131Y-103129125D01*
X111701341Y-103120292D01*
X111784053Y-103007633D01*
X111830489Y-102885527D01*
X111845162Y-102742499D01*
X111841752Y-102678144D01*
X111807767Y-102535699D01*
X111741801Y-102409274D01*
X111649376Y-102303253D01*
X111536009Y-102222016D01*
X111407217Y-102169948D01*
X111268520Y-102151432D01*
X111125436Y-102170853D01*
X111088203Y-102183051D01*
X110972065Y-102242208D01*
X110866200Y-102324837D01*
X110786637Y-102419187D01*
X110761191Y-102462158D01*
X110736063Y-102513669D01*
X110728713Y-102543250D01*
X109655467Y-102543250D01*
X109813833Y-102448248D01*
X109848158Y-102431916D01*
X109912425Y-102403679D01*
X109967372Y-102386088D01*
X110025912Y-102376633D01*
X110100957Y-102372802D01*
X110205417Y-102372083D01*
X110281653Y-102372885D01*
X110375603Y-102376129D01*
X110450210Y-102381290D01*
X110493981Y-102387740D01*
X110523335Y-102393729D01*
X110552451Y-102383331D01*
X110575590Y-102340922D01*
X110601078Y-102296460D01*
X110663173Y-102223419D01*
X110745844Y-102148026D01*
X110838627Y-102079519D01*
X110931051Y-102027137D01*
X110931560Y-102026900D01*
X111000570Y-101998160D01*
X111065015Y-101981057D01*
X111140487Y-101972754D01*
X111242583Y-101970409D01*
X111258730Y-101970460D01*
X111424045Y-101984938D01*
X111565018Y-102027855D01*
X111691407Y-102103408D01*
X111812967Y-102215796D01*
X111866850Y-102278804D01*
X111953170Y-102416680D01*
X112002570Y-102565846D01*
X112018704Y-102735530D01*
X112018660Y-102742500D01*
X112018584Y-102754673D01*
X111996130Y-102936021D01*
X111935545Y-103099354D01*
X111837544Y-103243246D01*
X111702839Y-103366273D01*
X111682756Y-103380269D01*
X111585919Y-103427589D01*
X111498079Y-103440648D01*
X111424560Y-103423361D01*
X111370686Y-103379640D01*
X111341780Y-103313402D01*
X111343166Y-103228560D01*
X111380167Y-103129028D01*
X111398959Y-103092395D01*
X111418611Y-103037564D01*
X111416035Y-102991293D01*
X111392338Y-102936070D01*
X111349333Y-102882244D01*
X111284171Y-102842699D01*
X111213644Y-102828617D01*
X111151625Y-102845233D01*
X111142028Y-102856500D01*
X111139890Y-102886024D01*
X111151519Y-102938996D01*
X111178085Y-103023266D01*
X111190163Y-103061605D01*
X111229087Y-103265206D01*
X111227502Y-103462167D01*
X111227445Y-103469299D01*
X111199880Y-103600795D01*
X111185730Y-103668298D01*
X111104440Y-103856619D01*
X111092594Y-103878229D01*
X111065203Y-103935963D01*
X111058363Y-103972952D01*
X111069384Y-104000209D01*
X111082386Y-104013737D01*
X111101105Y-104013150D01*
X111128629Y-103987333D01*
X111172363Y-103931332D01*
X111258722Y-103830075D01*
X111404483Y-103707547D01*
X111582451Y-103606624D01*
X111588370Y-103603862D01*
X111668965Y-103569533D01*
X111740991Y-103548176D01*
X111821407Y-103535978D01*
X111927170Y-103529128D01*
X112029865Y-103527887D01*
X112209187Y-103546148D01*
X112368973Y-103593616D01*
X112518486Y-103672536D01*
X112617556Y-103746679D01*
X112723401Y-103846666D01*
X112814212Y-103953644D01*
X112878311Y-104055193D01*
X112920755Y-104140980D01*
X112954651Y-103986782D01*
X112979517Y-103866490D01*
X113007350Y-103717631D01*
X113034043Y-103561911D01*
X113057625Y-103411385D01*
X113076122Y-103278108D01*
X113087567Y-103174134D01*
X113091779Y-103122981D01*
X113094338Y-103065262D01*
X113088991Y-103033769D01*
X113073103Y-103018525D01*
X113044032Y-103009547D01*
X112982083Y-102988439D01*
X112864932Y-102921560D01*
X112751706Y-102825083D01*
X112650732Y-102706662D01*
X112570334Y-102573955D01*
X112547551Y-102524627D01*
X112529216Y-102471653D01*
X112518700Y-102413677D01*
X112513901Y-102338266D01*
X112512718Y-102232983D01*
X112512710Y-102218954D01*
X112905022Y-102218954D01*
X112920050Y-102342793D01*
X112967909Y-102458343D01*
X113047611Y-102558368D01*
X113158167Y-102635629D01*
X113158229Y-102635661D01*
X113289817Y-102680308D01*
X113423124Y-102685210D01*
X113550922Y-102651172D01*
X113665980Y-102578999D01*
X113751108Y-102485595D01*
X113811245Y-102367232D01*
X113834847Y-102240466D01*
X113821724Y-102112410D01*
X113771686Y-101990171D01*
X113684548Y-101880858D01*
X113661248Y-101860684D01*
X113569425Y-101803252D01*
X113465958Y-101762902D01*
X113369833Y-101747667D01*
X113341738Y-101749244D01*
X113241280Y-101773188D01*
X113139412Y-101819739D01*
X113055119Y-101880858D01*
X112977413Y-101975365D01*
X112923813Y-102094066D01*
X112905022Y-102218954D01*
X112512710Y-102218954D01*
X112512583Y-102009216D01*
X112322083Y-101928562D01*
X112047547Y-101818684D01*
X111514572Y-101639241D01*
X110963167Y-101496209D01*
X110396685Y-101390398D01*
X109818482Y-101322622D01*
X109797292Y-101320955D01*
X109651457Y-101313076D01*
X109476826Y-101308457D01*
X109282289Y-101306927D01*
X109076729Y-101308322D01*
X108869033Y-101312471D01*
X108668085Y-101319209D01*
X108482770Y-101328366D01*
X108321974Y-101339776D01*
X108194583Y-101353271D01*
X107645546Y-101442836D01*
X107104875Y-101565154D01*
X106581171Y-101719982D01*
X106067333Y-101909176D01*
X105823917Y-102007727D01*
X105823917Y-102224844D01*
X105823917Y-102232238D01*
X105822939Y-102335439D01*
X105818479Y-102410642D01*
X105808301Y-102468656D01*
X105790171Y-102522139D01*
X105761854Y-102583750D01*
X105705181Y-102679580D01*
X105604268Y-102801402D01*
X105485907Y-102904235D01*
X105361773Y-102976614D01*
X105327150Y-102992106D01*
X105274318Y-103021096D01*
X105249105Y-103048214D01*
X105242737Y-103081168D01*
X104885507Y-103081168D01*
X104884970Y-103079201D01*
X104864224Y-103051369D01*
X104830917Y-103034777D01*
X104780207Y-103020747D01*
X104725840Y-103003716D01*
X104587839Y-102933585D01*
X104459193Y-102831466D01*
X104348231Y-102704767D01*
X104263280Y-102560897D01*
X104249918Y-102530139D01*
X104232263Y-102476270D01*
X104221706Y-102415035D01*
X104216588Y-102334797D01*
X104215250Y-102223917D01*
X104215259Y-102222318D01*
X104569631Y-102222318D01*
X104587355Y-102356945D01*
X104591093Y-102369152D01*
X104639269Y-102464327D01*
X104713938Y-102555112D01*
X104803171Y-102629202D01*
X104895038Y-102674294D01*
X104903483Y-102676754D01*
X105021482Y-102697931D01*
X105129118Y-102686853D01*
X105243199Y-102641958D01*
X105267361Y-102628946D01*
X105373697Y-102547858D01*
X105447335Y-102449412D01*
X105489733Y-102339707D01*
X105502349Y-102224844D01*
X105486643Y-102110919D01*
X105444074Y-102004032D01*
X105376100Y-101910281D01*
X105284180Y-101835765D01*
X105169774Y-101786582D01*
X105034339Y-101768833D01*
X104956507Y-101775092D01*
X104830904Y-101814455D01*
X104724863Y-101884848D01*
X104642936Y-101980281D01*
X104589675Y-102094768D01*
X104569631Y-102222318D01*
X104215259Y-102222318D01*
X104215618Y-102158346D01*
X104218833Y-102065786D01*
X104226743Y-101997456D01*
X104241005Y-101941719D01*
X104263280Y-101886936D01*
X104332068Y-101763431D01*
X104451486Y-101621473D01*
X104600260Y-101509936D01*
X104777922Y-101429236D01*
X104935370Y-101393810D01*
X105111587Y-101391805D01*
X105284466Y-101426262D01*
X105445582Y-101495425D01*
X105586510Y-101597545D01*
X105680358Y-101684050D01*
X105905882Y-101589564D01*
X106107751Y-101508123D01*
X106663829Y-101314674D01*
X107233100Y-101160280D01*
X107812532Y-101045264D01*
X108399086Y-100969951D01*
X108989721Y-100934664D01*
X109581403Y-100939728D01*
X110171092Y-100985467D01*
X110755750Y-101072206D01*
X110773386Y-101075490D01*
X111113604Y-101147990D01*
X111469802Y-101239723D01*
X111827414Y-101346360D01*
X112171872Y-101463574D01*
X112488607Y-101587035D01*
X112718631Y-101683626D01*
X112823006Y-101589784D01*
X112824700Y-101588266D01*
X112967578Y-101487010D01*
X113124464Y-101421871D01*
X113289573Y-101391598D01*
X113457119Y-101394941D01*
X113621319Y-101430650D01*
X113776389Y-101497473D01*
X113916544Y-101594161D01*
X114036000Y-101719462D01*
X114128973Y-101872126D01*
X114152042Y-101924825D01*
X114169229Y-101978483D01*
X114179131Y-102038153D01*
X114183665Y-102115931D01*
X114184750Y-102223917D01*
X114184738Y-102240466D01*
X114184737Y-102241985D01*
G37*
D10*
%TO.C,REF\u002A\u002A*%
X106000000Y-43825000D02*
X103999999Y-43825000D01*
X108000001Y-43825000D02*
X107099999Y-43825000D01*
X105325000Y-43075000D02*
G75*
G02*
X105250000Y-44500000I675000J-750000D01*
G01*
X103925000Y-43825000D02*
G75*
G02*
X102075000Y-43825000I-925000J0D01*
G01*
X102075000Y-43825000D02*
G75*
G02*
X103925000Y-43825000I925000J0D01*
G01*
D14*
X106175000Y-43825000D02*
G75*
G02*
X105825000Y-43825000I-175000J0D01*
G01*
X105825000Y-43825000D02*
G75*
G02*
X106175000Y-43825000I175000J0D01*
G01*
D10*
X109925000Y-43825000D02*
G75*
G02*
X108075000Y-43825000I-925000J0D01*
G01*
X108075000Y-43825000D02*
G75*
G02*
X109925000Y-43825000I925000J0D01*
G01*
%TD*%
M02*
