%TF.GenerationSoftware,KiCad,Pcbnew,9.0.1*%
%TF.CreationDate,2025-05-19T14:39:27+10:00*%
%TF.ProjectId,Power,506f7765-722e-46b6-9963-61645f706362,rev?*%
%TF.SameCoordinates,Original*%
%TF.FileFunction,Legend,Bot*%
%TF.FilePolarity,Positive*%
%FSLAX46Y46*%
G04 Gerber Fmt 4.6, Leading zero omitted, Abs format (unit mm)*
G04 Created by KiCad (PCBNEW 9.0.1) date 2025-05-19 14:39:27*
%MOMM*%
%LPD*%
G01*
G04 APERTURE LIST*
%ADD10C,0.300000*%
%ADD11C,0.200000*%
%ADD12C,0.100000*%
%ADD13C,0.400000*%
G04 APERTURE END LIST*
D10*
X102960828Y-63194510D02*
X101460828Y-63194510D01*
X101460828Y-63194510D02*
X101460828Y-63765939D01*
X101460828Y-63765939D02*
X101532257Y-63908796D01*
X101532257Y-63908796D02*
X101603685Y-63980225D01*
X101603685Y-63980225D02*
X101746542Y-64051653D01*
X101746542Y-64051653D02*
X101960828Y-64051653D01*
X101960828Y-64051653D02*
X102103685Y-63980225D01*
X102103685Y-63980225D02*
X102175114Y-63908796D01*
X102175114Y-63908796D02*
X102246542Y-63765939D01*
X102246542Y-63765939D02*
X102246542Y-63194510D01*
X101460828Y-64980225D02*
X101460828Y-65265939D01*
X101460828Y-65265939D02*
X101532257Y-65408796D01*
X101532257Y-65408796D02*
X101675114Y-65551653D01*
X101675114Y-65551653D02*
X101960828Y-65623082D01*
X101960828Y-65623082D02*
X102460828Y-65623082D01*
X102460828Y-65623082D02*
X102746542Y-65551653D01*
X102746542Y-65551653D02*
X102889400Y-65408796D01*
X102889400Y-65408796D02*
X102960828Y-65265939D01*
X102960828Y-65265939D02*
X102960828Y-64980225D01*
X102960828Y-64980225D02*
X102889400Y-64837368D01*
X102889400Y-64837368D02*
X102746542Y-64694510D01*
X102746542Y-64694510D02*
X102460828Y-64623082D01*
X102460828Y-64623082D02*
X101960828Y-64623082D01*
X101960828Y-64623082D02*
X101675114Y-64694510D01*
X101675114Y-64694510D02*
X101532257Y-64837368D01*
X101532257Y-64837368D02*
X101460828Y-64980225D01*
X101460828Y-66123082D02*
X102960828Y-66480225D01*
X102960828Y-66480225D02*
X101889400Y-66765939D01*
X101889400Y-66765939D02*
X102960828Y-67051654D01*
X102960828Y-67051654D02*
X101460828Y-67408797D01*
X102175114Y-67980225D02*
X102175114Y-68480225D01*
X102960828Y-68694511D02*
X102960828Y-67980225D01*
X102960828Y-67980225D02*
X101460828Y-67980225D01*
X101460828Y-67980225D02*
X101460828Y-68694511D01*
X102960828Y-70194511D02*
X102246542Y-69694511D01*
X102960828Y-69337368D02*
X101460828Y-69337368D01*
X101460828Y-69337368D02*
X101460828Y-69908797D01*
X101460828Y-69908797D02*
X101532257Y-70051654D01*
X101532257Y-70051654D02*
X101603685Y-70123083D01*
X101603685Y-70123083D02*
X101746542Y-70194511D01*
X101746542Y-70194511D02*
X101960828Y-70194511D01*
X101960828Y-70194511D02*
X102103685Y-70123083D01*
X102103685Y-70123083D02*
X102175114Y-70051654D01*
X102175114Y-70051654D02*
X102246542Y-69908797D01*
X102246542Y-69908797D02*
X102246542Y-69337368D01*
X101960828Y-71837368D02*
X102960828Y-72194511D01*
X102960828Y-72194511D02*
X101960828Y-72551654D01*
X102960828Y-73908797D02*
X102960828Y-73051654D01*
X102960828Y-73480225D02*
X101460828Y-73480225D01*
X101460828Y-73480225D02*
X101675114Y-73337368D01*
X101675114Y-73337368D02*
X101817971Y-73194511D01*
X101817971Y-73194511D02*
X101889400Y-73051654D01*
X102389400Y-74551653D02*
X102389400Y-75694511D01*
X101460828Y-76694511D02*
X101460828Y-76837368D01*
X101460828Y-76837368D02*
X101532257Y-76980225D01*
X101532257Y-76980225D02*
X101603685Y-77051654D01*
X101603685Y-77051654D02*
X101746542Y-77123082D01*
X101746542Y-77123082D02*
X102032257Y-77194511D01*
X102032257Y-77194511D02*
X102389400Y-77194511D01*
X102389400Y-77194511D02*
X102675114Y-77123082D01*
X102675114Y-77123082D02*
X102817971Y-77051654D01*
X102817971Y-77051654D02*
X102889400Y-76980225D01*
X102889400Y-76980225D02*
X102960828Y-76837368D01*
X102960828Y-76837368D02*
X102960828Y-76694511D01*
X102960828Y-76694511D02*
X102889400Y-76551654D01*
X102889400Y-76551654D02*
X102817971Y-76480225D01*
X102817971Y-76480225D02*
X102675114Y-76408796D01*
X102675114Y-76408796D02*
X102389400Y-76337368D01*
X102389400Y-76337368D02*
X102032257Y-76337368D01*
X102032257Y-76337368D02*
X101746542Y-76408796D01*
X101746542Y-76408796D02*
X101603685Y-76480225D01*
X101603685Y-76480225D02*
X101532257Y-76551654D01*
X101532257Y-76551654D02*
X101460828Y-76694511D01*
D11*
X122253316Y-137483958D02*
X122253316Y-138451578D01*
X122737126Y-137967768D02*
X121769507Y-137967768D01*
X121467126Y-138874911D02*
X122737126Y-139298244D01*
X122737126Y-139298244D02*
X121467126Y-139721578D01*
X124253316Y-137483958D02*
X124253316Y-138451578D01*
X123467126Y-138874911D02*
X124737126Y-139298244D01*
X124737126Y-139298244D02*
X123467126Y-139721578D01*
X119527602Y-138149197D02*
X119467126Y-138028244D01*
X119467126Y-138028244D02*
X119467126Y-137846816D01*
X119467126Y-137846816D02*
X119527602Y-137665387D01*
X119527602Y-137665387D02*
X119648554Y-137544435D01*
X119648554Y-137544435D02*
X119769507Y-137483958D01*
X119769507Y-137483958D02*
X120011411Y-137423482D01*
X120011411Y-137423482D02*
X120192840Y-137423482D01*
X120192840Y-137423482D02*
X120434745Y-137483958D01*
X120434745Y-137483958D02*
X120555697Y-137544435D01*
X120555697Y-137544435D02*
X120676650Y-137665387D01*
X120676650Y-137665387D02*
X120737126Y-137846816D01*
X120737126Y-137846816D02*
X120737126Y-137967768D01*
X120737126Y-137967768D02*
X120676650Y-138149197D01*
X120676650Y-138149197D02*
X120616173Y-138209673D01*
X120616173Y-138209673D02*
X120192840Y-138209673D01*
X120192840Y-138209673D02*
X120192840Y-137967768D01*
X120737126Y-138753958D02*
X119467126Y-138753958D01*
X119467126Y-138753958D02*
X120737126Y-139479673D01*
X120737126Y-139479673D02*
X119467126Y-139479673D01*
X120737126Y-140084434D02*
X119467126Y-140084434D01*
X119467126Y-140084434D02*
X119467126Y-140386815D01*
X119467126Y-140386815D02*
X119527602Y-140568244D01*
X119527602Y-140568244D02*
X119648554Y-140689196D01*
X119648554Y-140689196D02*
X119769507Y-140749673D01*
X119769507Y-140749673D02*
X120011411Y-140810149D01*
X120011411Y-140810149D02*
X120192840Y-140810149D01*
X120192840Y-140810149D02*
X120434745Y-140749673D01*
X120434745Y-140749673D02*
X120555697Y-140689196D01*
X120555697Y-140689196D02*
X120676650Y-140568244D01*
X120676650Y-140568244D02*
X120737126Y-140386815D01*
X120737126Y-140386815D02*
X120737126Y-140084434D01*
D12*
%TO.C,REF\u002A\u002A*%
X111623522Y-45859942D02*
G75*
G02*
X110882432Y-45859942I-370545J0D01*
G01*
X110882432Y-45859942D02*
G75*
G02*
X111623522Y-45859942I370545J0D01*
G01*
X110880466Y-45843914D02*
G75*
G02*
X110171430Y-45843914I-354518J0D01*
G01*
X110171430Y-45843914D02*
G75*
G02*
X110880466Y-45843914I354518J0D01*
G01*
X109629021Y-43593394D02*
G75*
G02*
X110061962Y-43961676I-409576J-920101D01*
G01*
X107120744Y-44930676D02*
G75*
G02*
X106440370Y-44930675I-340186J589222D01*
G01*
X104725607Y-47349617D02*
G75*
G02*
X104440023Y-46319942I1713461J1029675D01*
G01*
X104440023Y-46319942D02*
X104440023Y-45607580D01*
X104440023Y-45607580D02*
G75*
G02*
X104691978Y-45453102I173334J0D01*
G01*
X105676096Y-45355584D02*
G75*
G02*
X104691977Y-45453102I-568206J719683D01*
G01*
X104665667Y-47422363D02*
G75*
G02*
X103849207Y-46687551I500701J1377332D01*
G01*
X105534012Y-46488423D02*
G75*
G02*
X104508428Y-46838416I-786988J628481D01*
G01*
X109491877Y-44161023D02*
G75*
G02*
X109567837Y-44199239I26154J-42614D01*
G01*
X110262897Y-44683082D02*
G75*
G02*
X109567837Y-44199240I-145335J532383D01*
G01*
X107140804Y-45453449D02*
G75*
G02*
X106954329Y-45836780I-804046J154114D01*
G01*
X107049113Y-45294637D02*
G75*
G02*
X107140803Y-45453448I-45984J-132423D01*
G01*
X106512000Y-45294637D02*
G75*
G02*
X107049113Y-45294637I268557J-773380D01*
G01*
X106420310Y-45453449D02*
G75*
G02*
X106511999Y-45294637I137674J26389D01*
G01*
X106606784Y-45836779D02*
G75*
G02*
X106420310Y-45453448I617571J537444D01*
G01*
X106954328Y-45836779D02*
G75*
G02*
X106606786Y-45836779I-173771J151226D01*
G01*
X109491877Y-44161023D02*
G75*
G02*
X108280274Y-44028199I-520171J847524D01*
G01*
X111605729Y-45746499D02*
X112259358Y-45536291D01*
X107567545Y-45141975D02*
G75*
G02*
X107140688Y-45454049I-786988J628480D01*
G01*
X106420425Y-45454050D02*
G75*
G02*
X105993568Y-45141975I360132J940555D01*
G01*
X104725607Y-47349617D02*
G75*
G02*
X104665667Y-47422362I-42857J-25754D01*
G01*
X110006433Y-45141975D02*
G75*
G02*
X108432457Y-45141975I-786988J628480D01*
G01*
X112039965Y-46488423D02*
G75*
G02*
X110465988Y-46488422I-786988J628481D01*
G01*
X107614591Y-47073978D02*
X108118711Y-47073978D01*
X108118711Y-47073978D02*
X108468199Y-47928426D01*
X108468199Y-47928426D02*
X108003657Y-47928426D01*
X108003657Y-47928426D02*
X108340104Y-48641806D01*
X108340104Y-48641806D02*
X107594200Y-47778726D01*
X107594200Y-47778726D02*
X108007606Y-47778725D01*
X108007606Y-47778725D02*
X107614591Y-47073978D01*
X107699724Y-47123978D02*
X108085141Y-47123978D01*
X108085141Y-47123978D02*
X108393727Y-47878426D01*
X108393727Y-47878426D02*
X107924794Y-47878426D01*
X107924794Y-47878426D02*
X108139029Y-48332676D01*
X108139029Y-48332676D02*
X107703497Y-47828725D01*
X107703497Y-47828725D02*
X108092738Y-47828725D01*
X108092738Y-47828725D02*
X107699724Y-47123978D01*
X107784856Y-47173978D02*
X108051572Y-47173978D01*
X108051572Y-47173978D02*
X108319255Y-47828426D01*
X108319255Y-47828426D02*
X108149823Y-47828426D01*
X108149823Y-47828426D02*
X107784856Y-47173978D01*
X107869989Y-47223978D02*
X108018002Y-47223978D01*
X108018002Y-47223978D02*
X108244783Y-47778426D01*
X108244783Y-47778426D02*
X108179188Y-47778426D01*
X108179188Y-47778426D02*
X107869989Y-47223978D01*
X107955122Y-47273978D02*
X107984432Y-47273978D01*
X107984432Y-47273978D02*
X108065081Y-47471156D01*
X108065081Y-47471156D02*
X107955122Y-47273978D01*
X107812794Y-47878725D02*
X107869652Y-47878725D01*
X107869652Y-47878725D02*
X107937954Y-48023546D01*
X107937954Y-48023546D02*
X107812794Y-47878725D01*
D11*
X110091471Y-43915896D02*
G75*
G02*
X110624319Y-44337504I269921J-206384D01*
G01*
X103821324Y-46743351D02*
G75*
G02*
X103779896Y-45433075I1345044J698320D01*
G01*
X108000001Y-46339886D02*
G75*
G02*
X108405304Y-45187830I3227478J-488132D01*
G01*
X108405304Y-45187829D02*
G75*
G02*
X109643031Y-43544925I814141J674334D01*
G01*
X109643029Y-43544925D02*
G75*
G02*
X110746804Y-44490098I748773J-242663D01*
G01*
X110746803Y-44490098D02*
G75*
G02*
X110624320Y-44337505I-45101J89252D01*
G01*
X110091471Y-43915896D02*
G75*
G02*
X110033587Y-45187830I-872026J-597599D01*
G01*
X110033585Y-45187829D02*
G75*
G02*
X110224957Y-45573656I-2822175J-1640189D01*
G01*
X110239907Y-45557882D02*
G75*
G02*
X112067118Y-46534276I1013070J-302060D01*
G01*
X112404290Y-45975961D02*
G75*
G02*
X112119137Y-46627242I-1151313J116019D01*
G01*
X103779897Y-45433073D02*
G75*
G02*
X105561165Y-46534276I967127J-426869D01*
G01*
X105966415Y-45187829D02*
G75*
G02*
X107594698Y-45187831I814142J674334D01*
G01*
X107594697Y-45187829D02*
G75*
G02*
X108000001Y-46339886I-2822175J-1640189D01*
G01*
X105768797Y-45588772D02*
G75*
G02*
X105966416Y-45187830I3019794J-1239246D01*
G01*
X106548500Y-47812601D02*
G75*
G02*
X105971415Y-47720244I232057J3299106D01*
G01*
X105561165Y-46534277D02*
G75*
G02*
X105908057Y-48956707I-2822175J-1640188D01*
G01*
X103585992Y-48956707D02*
G75*
G02*
X103785599Y-46819032I3169067J782242D01*
G01*
X105908057Y-48956707D02*
G75*
G02*
X103585992Y-48956707I-1161033J3096765D01*
G01*
X110028586Y-47720244D02*
G75*
G02*
X109451501Y-47812601I-809141J3206749D01*
G01*
X110438835Y-46534277D02*
G75*
G02*
X110227578Y-46117065I814142J674335D01*
G01*
X110227579Y-46117065D02*
G75*
G02*
X110239905Y-45557880I298369J273151D01*
G01*
X112414010Y-48956707D02*
G75*
G02*
X110091945Y-48956707I-1161033J3096765D01*
G01*
X112067118Y-46534277D02*
G75*
G02*
X112414010Y-48956708I-2822176J-1640188D01*
G01*
X110091945Y-48956707D02*
G75*
G02*
X110438837Y-46534277I3169067J782242D01*
G01*
X103785598Y-46819033D02*
G75*
G02*
X103465426Y-45887310I9028765J3623465D01*
G01*
X112501570Y-45999408D02*
G75*
G02*
X112214404Y-46819033I-9315932J2803840D01*
G01*
X110882155Y-49146345D02*
G75*
G02*
X110773796Y-49283916I-7696517J5950777D01*
G01*
X105226206Y-49283915D02*
G75*
G02*
X105117847Y-49146345I7588157J6088347D01*
G01*
D13*
X113570773Y-43195568D02*
G75*
G02*
X112057953Y-43195568I-756410J0D01*
G01*
X112057953Y-43195568D02*
G75*
G02*
X113570773Y-43195568I756410J0D01*
G01*
X103942048Y-43195568D02*
G75*
G02*
X102429228Y-43195568I-756410J0D01*
G01*
X102429228Y-43195568D02*
G75*
G02*
X103942048Y-43195568I756410J0D01*
G01*
X108756411Y-51534289D02*
G75*
G02*
X107243591Y-51534289I-756410J0D01*
G01*
X107243591Y-51534289D02*
G75*
G02*
X108756411Y-51534289I756410J0D01*
G01*
X109451501Y-48932904D02*
X109451501Y-46844903D01*
X109044001Y-46437403D02*
G75*
G02*
X109451501Y-46844903I0J-407500D01*
G01*
X109044001Y-46437403D02*
X106956000Y-46437403D01*
X106548500Y-46844903D02*
G75*
G02*
X106956000Y-46437403I407500J0D01*
G01*
X106548500Y-46844903D02*
X106548500Y-48932904D01*
X109451501Y-48932904D02*
G75*
G02*
X109044001Y-49340404I-407500J0D01*
G01*
X109044001Y-49340404D02*
X106956000Y-49340404D01*
X106956000Y-49340404D02*
G75*
G02*
X106548500Y-48932904I0J407500D01*
G01*
X103561523Y-45859642D02*
G75*
G02*
X103215349Y-43951395I9252840J2664074D01*
G01*
X103855057Y-42843386D02*
G75*
G02*
X112144943Y-42843385I4144944J-8690903D01*
G01*
X112775834Y-43981124D02*
G75*
G02*
X112404289Y-45975961I-9599014J755827D01*
G01*
X110695798Y-49221334D02*
G75*
G02*
X108639710Y-51130646I-7510160J6025766D01*
G01*
X107360291Y-51130646D02*
G75*
G02*
X105304203Y-49221334I5454072J7935078D01*
G01*
%TD*%
M02*
