%TF.GenerationSoftware,KiCad,Pcbnew,9.0.1*%
%TF.CreationDate,2025-05-19T14:39:27+10:00*%
%TF.ProjectId,Power,506f7765-722e-46b6-9963-61645f706362,rev?*%
%TF.SameCoordinates,Original*%
%TF.FileFunction,Copper,L4,Bot*%
%TF.FilePolarity,Positive*%
%FSLAX46Y46*%
G04 Gerber Fmt 4.6, Leading zero omitted, Abs format (unit mm)*
G04 Created by KiCad (PCBNEW 9.0.1) date 2025-05-19 14:39:27*
%MOMM*%
%LPD*%
G01*
G04 APERTURE LIST*
G04 Aperture macros list*
%AMRoundRect*
0 Rectangle with rounded corners*
0 $1 Rounding radius*
0 $2 $3 $4 $5 $6 $7 $8 $9 X,Y pos of 4 corners*
0 Add a 4 corners polygon primitive as box body*
4,1,4,$2,$3,$4,$5,$6,$7,$8,$9,$2,$3,0*
0 Add four circle primitives for the rounded corners*
1,1,$1+$1,$2,$3*
1,1,$1+$1,$4,$5*
1,1,$1+$1,$6,$7*
1,1,$1+$1,$8,$9*
0 Add four rect primitives between the rounded corners*
20,1,$1+$1,$2,$3,$4,$5,0*
20,1,$1+$1,$4,$5,$6,$7,0*
20,1,$1+$1,$6,$7,$8,$9,0*
20,1,$1+$1,$8,$9,$2,$3,0*%
G04 Aperture macros list end*
%TA.AperFunction,ComponentPad*%
%ADD10O,1.400000X2.000000*%
%TD*%
%TA.AperFunction,ComponentPad*%
%ADD11RoundRect,0.291666X-0.408334X-0.708334X0.408334X-0.708334X0.408334X0.708334X-0.408334X0.708334X0*%
%TD*%
%TA.AperFunction,ComponentPad*%
%ADD12R,2.000000X2.000000*%
%TD*%
%TA.AperFunction,ComponentPad*%
%ADD13C,2.000000*%
%TD*%
%TA.AperFunction,ComponentPad*%
%ADD14R,1.905000X2.000000*%
%TD*%
%TA.AperFunction,ComponentPad*%
%ADD15O,1.905000X2.000000*%
%TD*%
%TA.AperFunction,ComponentPad*%
%ADD16R,1.800000X1.800000*%
%TD*%
%TA.AperFunction,ComponentPad*%
%ADD17C,1.800000*%
%TD*%
%TA.AperFunction,ComponentPad*%
%ADD18O,1.800000X1.800000*%
%TD*%
%TA.AperFunction,ComponentPad*%
%ADD19O,1.800000X3.000000*%
%TD*%
%TA.AperFunction,ComponentPad*%
%ADD20R,1.800000X3.000000*%
%TD*%
%TA.AperFunction,ComponentPad*%
%ADD21O,1.600000X3.000000*%
%TD*%
%TA.AperFunction,ComponentPad*%
%ADD22C,1.600000*%
%TD*%
%TA.AperFunction,ComponentPad*%
%ADD23O,1.600000X1.600000*%
%TD*%
%TA.AperFunction,ComponentPad*%
%ADD24R,1.350000X1.900000*%
%TD*%
%TA.AperFunction,ComponentPad*%
%ADD25O,1.350000X1.900000*%
%TD*%
G04 APERTURE END LIST*
D10*
%TO.P,J2,3,Pin_3*%
%TO.N,VSS*%
X124160000Y-135550000D03*
%TO.P,J2,2,Pin_2*%
%TO.N,VDD*%
X122160000Y-135550000D03*
D11*
%TO.P,J2,1,Pin_1*%
%TO.N,GND*%
X120160000Y-135550000D03*
%TD*%
D12*
%TO.P,C3,1*%
%TO.N,GND*%
X125875000Y-83760000D03*
D13*
%TO.P,C3,2*%
%TO.N,VSS*%
X125875000Y-78760000D03*
%TD*%
D14*
%TO.P,U1,A,ADJ*%
%TO.N,Net-(D1-K)*%
X106660000Y-113680000D03*
D15*
%TO.P,U1,I,VI*%
%TO.N,VDD*%
X111740000Y-113680000D03*
%TO.P,U1,O,VO*%
%TO.N,Net-(D1-A)*%
X109200000Y-113680000D03*
%TD*%
D16*
%TO.P,C4,1*%
%TO.N,VDD*%
X113409999Y-118640000D03*
D17*
%TO.P,C4,2*%
%TO.N,Net-(D2-A)*%
X110910001Y-118640000D03*
%TD*%
D16*
%TO.P,C5,1*%
%TO.N,Net-(D1-K)*%
X119409999Y-118640000D03*
D17*
%TO.P,C5,2*%
%TO.N,VSS*%
X116910001Y-118640000D03*
%TD*%
D13*
%TO.P,C1,2*%
%TO.N,VSS*%
X125875000Y-55760000D03*
D12*
%TO.P,C1,1*%
%TO.N,VDD*%
X125875000Y-60760000D03*
%TD*%
D16*
%TO.P,D2,1,K*%
%TO.N,Net-(D2-K)*%
X123160000Y-130640000D03*
D18*
%TO.P,D2,2,A*%
%TO.N,Net-(D2-A)*%
X123160000Y-123020000D03*
%TD*%
D16*
%TO.P,D4,1,K*%
%TO.N,GND*%
X127160000Y-130640000D03*
D18*
%TO.P,D4,2,A*%
%TO.N,VSS*%
X127160000Y-123020000D03*
%TD*%
D19*
%TO.P,J1,1*%
%TO.N,VDD*%
X125460001Y-50040000D03*
D20*
%TO.P,J1,2*%
%TO.N,VSS*%
X116960000Y-50040000D03*
D19*
%TO.P,J1,3*%
%TO.N,unconnected-(J1-Pad3)*%
X120160000Y-50040000D03*
D21*
%TO.P,J1,SH,MountPin*%
%TO.N,GND*%
X126360000Y-42740000D03*
X116560000Y-42740000D03*
%TD*%
D22*
%TO.P,R3,1*%
%TO.N,GND*%
X103160000Y-120260000D03*
D23*
%TO.P,R3,2*%
%TO.N,Net-(D1-A)*%
X103160000Y-112640000D03*
%TD*%
D13*
%TO.P,C2,2*%
%TO.N,GND*%
X125875000Y-67260000D03*
D12*
%TO.P,C2,1*%
%TO.N,VDD*%
X125875000Y-72260000D03*
%TD*%
D22*
%TO.P,R2,1*%
%TO.N,VSS*%
X120390000Y-89640000D03*
D23*
%TO.P,R2,2*%
%TO.N,Net-(D1-K)*%
X128010000Y-89640000D03*
%TD*%
D24*
%TO.P,U3,1*%
%TO.N,Net-(D1-K)*%
X116970001Y-89640000D03*
D25*
%TO.P,U3,2*%
%TO.N,Net-(D2-A)*%
X115200001Y-89640000D03*
%TO.P,U3,3*%
%TO.N,unconnected-(U3-Pad3)*%
X113470001Y-89640000D03*
%TD*%
D22*
%TO.P,R1,1*%
%TO.N,Net-(D2-A)*%
X102390000Y-89640000D03*
D23*
%TO.P,R1,2*%
%TO.N,VDD*%
X110010000Y-89640000D03*
%TD*%
D22*
%TO.P,R4,1*%
%TO.N,Net-(D2-K)*%
X127160000Y-112640000D03*
D23*
%TO.P,R4,2*%
%TO.N,GND*%
X127160000Y-120260000D03*
%TD*%
D14*
%TO.P,U2,A,ADJ*%
%TO.N,Net-(D2-A)*%
X118760002Y-113680000D03*
D15*
%TO.P,U2,I,VI*%
%TO.N,VSS*%
X121300002Y-113680000D03*
%TO.P,U2,O,VO*%
%TO.N,Net-(D2-K)*%
X123840002Y-113680000D03*
%TD*%
D16*
%TO.P,D3,1,K*%
%TO.N,VDD*%
X103160000Y-130640000D03*
D18*
%TO.P,D3,2,A*%
%TO.N,GND*%
X103160000Y-123020000D03*
%TD*%
D16*
%TO.P,D1,1,K*%
%TO.N,Net-(D1-K)*%
X107160000Y-130640000D03*
D18*
%TO.P,D1,2,A*%
%TO.N,Net-(D1-A)*%
X107160000Y-123020000D03*
%TD*%
%TA.AperFunction,Conductor*%
%TO.N,VSS*%
G36*
X116458108Y-40520185D02*
G01*
X116503863Y-40572989D01*
X116513807Y-40642147D01*
X116484782Y-40705703D01*
X116426004Y-40743477D01*
X116410469Y-40746972D01*
X116393429Y-40749671D01*
X116255465Y-40771522D01*
X116060776Y-40834781D01*
X115878386Y-40927715D01*
X115712786Y-41048028D01*
X115568028Y-41192786D01*
X115447715Y-41358386D01*
X115354781Y-41540776D01*
X115291522Y-41735465D01*
X115259500Y-41937648D01*
X115259500Y-43542351D01*
X115291522Y-43744534D01*
X115354781Y-43939223D01*
X115447715Y-44121613D01*
X115568028Y-44287213D01*
X115712786Y-44431971D01*
X115867749Y-44544556D01*
X115878390Y-44552287D01*
X115994607Y-44611503D01*
X116060776Y-44645218D01*
X116060778Y-44645218D01*
X116060781Y-44645220D01*
X116165137Y-44679127D01*
X116255465Y-44708477D01*
X116356557Y-44724488D01*
X116457648Y-44740500D01*
X116457649Y-44740500D01*
X116662351Y-44740500D01*
X116662352Y-44740500D01*
X116864534Y-44708477D01*
X117059219Y-44645220D01*
X117241610Y-44552287D01*
X117334590Y-44484732D01*
X117407213Y-44431971D01*
X117407215Y-44431968D01*
X117407219Y-44431966D01*
X117551966Y-44287219D01*
X117551968Y-44287215D01*
X117551971Y-44287213D01*
X117604732Y-44214590D01*
X117672287Y-44121610D01*
X117765220Y-43939219D01*
X117828477Y-43744534D01*
X117845593Y-43636468D01*
X118844500Y-43636468D01*
X118844500Y-43843531D01*
X118876892Y-44048048D01*
X118940876Y-44244974D01*
X118940877Y-44244977D01*
X118962398Y-44287213D01*
X119034883Y-44429472D01*
X119156593Y-44596991D01*
X119303009Y-44743407D01*
X119470528Y-44865117D01*
X119561017Y-44911223D01*
X119655022Y-44959122D01*
X119655025Y-44959123D01*
X119753488Y-44991115D01*
X119851953Y-45023108D01*
X120056468Y-45055500D01*
X120056469Y-45055500D01*
X120263531Y-45055500D01*
X120263532Y-45055500D01*
X120468047Y-45023108D01*
X120664977Y-44959122D01*
X120849472Y-44865117D01*
X121016991Y-44743407D01*
X121163407Y-44596991D01*
X121285117Y-44429472D01*
X121379122Y-44244977D01*
X121443108Y-44048047D01*
X121475500Y-43843532D01*
X121475500Y-43636468D01*
X121443108Y-43431953D01*
X121379122Y-43235023D01*
X121379122Y-43235022D01*
X121285116Y-43050527D01*
X121163407Y-42883009D01*
X121016991Y-42736593D01*
X120849472Y-42614883D01*
X120664977Y-42520877D01*
X120664974Y-42520876D01*
X120468048Y-42456892D01*
X120365789Y-42440696D01*
X120263532Y-42424500D01*
X120056468Y-42424500D01*
X119988296Y-42435297D01*
X119851951Y-42456892D01*
X119655025Y-42520876D01*
X119655022Y-42520877D01*
X119470527Y-42614883D01*
X119374951Y-42684323D01*
X119303009Y-42736593D01*
X119303007Y-42736595D01*
X119303006Y-42736595D01*
X119156595Y-42883006D01*
X119156595Y-42883007D01*
X119156593Y-42883009D01*
X119119467Y-42934108D01*
X119034883Y-43050527D01*
X118940877Y-43235022D01*
X118940876Y-43235025D01*
X118876892Y-43431951D01*
X118844500Y-43636468D01*
X117845593Y-43636468D01*
X117860500Y-43542352D01*
X117860500Y-41937648D01*
X117843767Y-41832004D01*
X117828477Y-41735465D01*
X117780088Y-41586540D01*
X117765220Y-41540781D01*
X117765218Y-41540778D01*
X117765218Y-41540776D01*
X117731503Y-41474607D01*
X117672287Y-41358390D01*
X117664556Y-41347749D01*
X117551971Y-41192786D01*
X117407213Y-41048028D01*
X117241613Y-40927715D01*
X117241612Y-40927714D01*
X117241610Y-40927713D01*
X117184653Y-40898691D01*
X117059223Y-40834781D01*
X116864534Y-40771522D01*
X116728931Y-40750045D01*
X116709532Y-40746972D01*
X116646398Y-40717044D01*
X116609467Y-40657732D01*
X116610465Y-40587870D01*
X116649075Y-40529637D01*
X116713038Y-40501523D01*
X116728931Y-40500500D01*
X126191069Y-40500500D01*
X126258108Y-40520185D01*
X126303863Y-40572989D01*
X126313807Y-40642147D01*
X126284782Y-40705703D01*
X126226004Y-40743477D01*
X126210469Y-40746972D01*
X126193429Y-40749671D01*
X126055465Y-40771522D01*
X125860776Y-40834781D01*
X125678386Y-40927715D01*
X125512786Y-41048028D01*
X125368028Y-41192786D01*
X125247715Y-41358386D01*
X125154781Y-41540776D01*
X125091522Y-41735465D01*
X125059500Y-41937648D01*
X125059500Y-43542351D01*
X125091522Y-43744534D01*
X125154781Y-43939223D01*
X125247715Y-44121613D01*
X125368028Y-44287213D01*
X125512786Y-44431971D01*
X125667749Y-44544556D01*
X125678390Y-44552287D01*
X125794607Y-44611503D01*
X125860776Y-44645218D01*
X125860778Y-44645218D01*
X125860781Y-44645220D01*
X125965137Y-44679127D01*
X126055465Y-44708477D01*
X126156557Y-44724488D01*
X126257648Y-44740500D01*
X126257649Y-44740500D01*
X126462351Y-44740500D01*
X126462352Y-44740500D01*
X126664534Y-44708477D01*
X126859219Y-44645220D01*
X127041610Y-44552287D01*
X127134590Y-44484732D01*
X127207213Y-44431971D01*
X127207215Y-44431968D01*
X127207219Y-44431966D01*
X127351966Y-44287219D01*
X127351968Y-44287215D01*
X127351971Y-44287213D01*
X127404732Y-44214590D01*
X127472287Y-44121610D01*
X127565220Y-43939219D01*
X127628477Y-43744534D01*
X127660500Y-43542352D01*
X127660500Y-41937648D01*
X127643767Y-41832004D01*
X127628477Y-41735465D01*
X127580088Y-41586540D01*
X127565220Y-41540781D01*
X127565218Y-41540778D01*
X127565218Y-41540776D01*
X127531503Y-41474607D01*
X127472287Y-41358390D01*
X127464556Y-41347749D01*
X127351971Y-41192786D01*
X127207213Y-41048028D01*
X127041613Y-40927715D01*
X127041612Y-40927714D01*
X127041610Y-40927713D01*
X126984653Y-40898691D01*
X126859223Y-40834781D01*
X126664534Y-40771522D01*
X126528931Y-40750045D01*
X126509532Y-40746972D01*
X126446398Y-40717044D01*
X126409467Y-40657732D01*
X126410465Y-40587870D01*
X126449075Y-40529637D01*
X126513038Y-40501523D01*
X126528931Y-40500500D01*
X126934108Y-40500500D01*
X126996249Y-40500500D01*
X127003736Y-40500726D01*
X127293796Y-40518271D01*
X127308657Y-40520075D01*
X127590798Y-40571780D01*
X127605335Y-40575363D01*
X127879172Y-40660695D01*
X127893163Y-40666000D01*
X128154743Y-40783727D01*
X128167989Y-40790680D01*
X128413465Y-40939075D01*
X128425776Y-40947573D01*
X128553998Y-41048028D01*
X128651573Y-41124473D01*
X128662781Y-41134403D01*
X128865596Y-41337218D01*
X128875526Y-41348426D01*
X129026226Y-41540781D01*
X129052422Y-41574217D01*
X129060928Y-41586540D01*
X129209316Y-41832004D01*
X129216275Y-41845263D01*
X129333997Y-42106831D01*
X129339306Y-42120832D01*
X129424635Y-42394663D01*
X129428219Y-42409201D01*
X129479923Y-42691340D01*
X129481728Y-42706205D01*
X129499274Y-42996263D01*
X129499500Y-43003750D01*
X129499500Y-89232798D01*
X129479815Y-89299837D01*
X129427011Y-89345592D01*
X129357853Y-89355536D01*
X129294297Y-89326511D01*
X129257569Y-89271117D01*
X129240220Y-89217723D01*
X129215220Y-89140781D01*
X129215218Y-89140778D01*
X129215218Y-89140776D01*
X129122419Y-88958650D01*
X129122287Y-88958390D01*
X129090092Y-88914077D01*
X129001971Y-88792786D01*
X128857213Y-88648028D01*
X128691613Y-88527715D01*
X128691612Y-88527714D01*
X128691610Y-88527713D01*
X128634653Y-88498691D01*
X128509223Y-88434781D01*
X128314534Y-88371522D01*
X128139995Y-88343878D01*
X128112352Y-88339500D01*
X127907648Y-88339500D01*
X127883329Y-88343351D01*
X127705465Y-88371522D01*
X127510776Y-88434781D01*
X127328386Y-88527715D01*
X127162786Y-88648028D01*
X127018028Y-88792786D01*
X126897715Y-88958386D01*
X126804781Y-89140776D01*
X126741522Y-89335465D01*
X126709500Y-89537648D01*
X126709500Y-89742351D01*
X126741522Y-89944534D01*
X126804781Y-90139223D01*
X126830789Y-90190265D01*
X126897585Y-90321359D01*
X126897715Y-90321613D01*
X127018028Y-90487213D01*
X127162786Y-90631971D01*
X127283226Y-90719474D01*
X127328390Y-90752287D01*
X127422207Y-90800089D01*
X127510776Y-90845218D01*
X127510778Y-90845218D01*
X127510781Y-90845220D01*
X127615137Y-90879127D01*
X127705465Y-90908477D01*
X127806557Y-90924488D01*
X127907648Y-90940500D01*
X127907649Y-90940500D01*
X128112351Y-90940500D01*
X128112352Y-90940500D01*
X128314534Y-90908477D01*
X128509219Y-90845220D01*
X128691610Y-90752287D01*
X128849089Y-90637873D01*
X128857213Y-90631971D01*
X128857215Y-90631968D01*
X128857219Y-90631966D01*
X129001966Y-90487219D01*
X129001968Y-90487215D01*
X129001971Y-90487213D01*
X129089867Y-90366232D01*
X129122287Y-90321610D01*
X129215220Y-90139219D01*
X129257569Y-90008881D01*
X129297007Y-89951207D01*
X129361366Y-89924009D01*
X129430212Y-89935924D01*
X129481688Y-89983168D01*
X129499500Y-90047201D01*
X129499500Y-138996249D01*
X129499274Y-139003736D01*
X129481728Y-139293794D01*
X129479923Y-139308659D01*
X129428219Y-139590798D01*
X129424635Y-139605336D01*
X129339306Y-139879167D01*
X129333997Y-139893168D01*
X129216275Y-140154736D01*
X129209316Y-140167995D01*
X129060928Y-140413459D01*
X129052422Y-140425782D01*
X128875526Y-140651573D01*
X128865596Y-140662781D01*
X128662781Y-140865596D01*
X128651573Y-140875526D01*
X128425782Y-141052422D01*
X128413459Y-141060928D01*
X128167995Y-141209316D01*
X128154736Y-141216275D01*
X127893168Y-141333997D01*
X127879167Y-141339306D01*
X127605336Y-141424635D01*
X127590798Y-141428219D01*
X127308659Y-141479923D01*
X127293794Y-141481728D01*
X127003736Y-141499274D01*
X126996249Y-141499500D01*
X103003751Y-141499500D01*
X102996264Y-141499274D01*
X102706205Y-141481728D01*
X102691340Y-141479923D01*
X102409201Y-141428219D01*
X102394663Y-141424635D01*
X102120832Y-141339306D01*
X102106831Y-141333997D01*
X101845263Y-141216275D01*
X101832004Y-141209316D01*
X101586540Y-141060928D01*
X101574217Y-141052422D01*
X101348426Y-140875526D01*
X101337218Y-140865596D01*
X101134403Y-140662781D01*
X101124473Y-140651573D01*
X100947573Y-140425776D01*
X100939075Y-140413465D01*
X100790680Y-140167989D01*
X100783727Y-140154743D01*
X100666000Y-139893163D01*
X100660693Y-139879167D01*
X100575364Y-139605336D01*
X100571780Y-139590798D01*
X100520076Y-139308659D01*
X100518271Y-139293794D01*
X100500726Y-139003736D01*
X100500500Y-138996249D01*
X100500500Y-134797176D01*
X118959500Y-134797176D01*
X118959500Y-136302818D01*
X118959501Y-136302822D01*
X118974474Y-136435720D01*
X119033433Y-136604218D01*
X119128203Y-136755042D01*
X119128407Y-136755366D01*
X119254634Y-136881593D01*
X119405783Y-136976567D01*
X119490030Y-137006046D01*
X119574279Y-137035526D01*
X119659271Y-137045101D01*
X119707183Y-137050500D01*
X120612816Y-137050499D01*
X120612818Y-137050499D01*
X120612819Y-137050498D01*
X120745723Y-137035525D01*
X120914217Y-136976567D01*
X121065366Y-136881593D01*
X121191593Y-136755366D01*
X121191593Y-136755365D01*
X121191917Y-136755042D01*
X121253240Y-136721557D01*
X121322932Y-136726541D01*
X121367279Y-136755042D01*
X121377927Y-136765690D01*
X121530801Y-136876760D01*
X121610347Y-136917290D01*
X121699163Y-136962545D01*
X121699165Y-136962545D01*
X121699168Y-136962547D01*
X121742314Y-136976566D01*
X121878881Y-137020940D01*
X122065514Y-137050500D01*
X122065519Y-137050500D01*
X122254486Y-137050500D01*
X122441118Y-137020940D01*
X122442623Y-137020451D01*
X122620832Y-136962547D01*
X122789199Y-136876760D01*
X122942073Y-136765690D01*
X123072672Y-136635091D01*
X123133995Y-136601606D01*
X123203687Y-136606590D01*
X123248034Y-136635091D01*
X123378253Y-136765310D01*
X123378258Y-136765314D01*
X123531059Y-136876329D01*
X123699362Y-136962085D01*
X123878997Y-137020451D01*
X123910000Y-137025362D01*
X123910000Y-135830330D01*
X123929745Y-135850075D01*
X124015255Y-135899444D01*
X124110630Y-135925000D01*
X124209370Y-135925000D01*
X124304745Y-135899444D01*
X124390255Y-135850075D01*
X124410000Y-135830330D01*
X124410000Y-137025361D01*
X124441002Y-137020451D01*
X124620637Y-136962085D01*
X124788940Y-136876329D01*
X124941741Y-136765314D01*
X124941746Y-136765310D01*
X125075310Y-136631746D01*
X125075314Y-136631741D01*
X125186329Y-136478940D01*
X125272085Y-136310637D01*
X125330451Y-136131002D01*
X125360000Y-135944447D01*
X125360000Y-135800000D01*
X124440330Y-135800000D01*
X124460075Y-135780255D01*
X124509444Y-135694745D01*
X124535000Y-135599370D01*
X124535000Y-135500630D01*
X124509444Y-135405255D01*
X124460075Y-135319745D01*
X124440330Y-135300000D01*
X125360000Y-135300000D01*
X125360000Y-135155552D01*
X125330451Y-134968997D01*
X125272085Y-134789362D01*
X125186329Y-134621059D01*
X125075314Y-134468258D01*
X125075310Y-134468253D01*
X124941746Y-134334689D01*
X124941741Y-134334685D01*
X124788940Y-134223670D01*
X124620635Y-134137913D01*
X124441004Y-134079549D01*
X124440995Y-134079547D01*
X124410000Y-134074637D01*
X124410000Y-135269670D01*
X124390255Y-135249925D01*
X124304745Y-135200556D01*
X124209370Y-135175000D01*
X124110630Y-135175000D01*
X124015255Y-135200556D01*
X123929745Y-135249925D01*
X123910000Y-135269670D01*
X123910000Y-134074637D01*
X123909999Y-134074637D01*
X123879004Y-134079547D01*
X123878995Y-134079549D01*
X123699364Y-134137913D01*
X123531059Y-134223670D01*
X123378258Y-134334685D01*
X123378253Y-134334689D01*
X123248034Y-134464909D01*
X123186711Y-134498394D01*
X123117019Y-134493410D01*
X123072672Y-134464909D01*
X122942075Y-134334312D01*
X122942073Y-134334310D01*
X122789199Y-134223240D01*
X122779712Y-134218406D01*
X122620836Y-134137454D01*
X122441118Y-134079059D01*
X122254486Y-134049500D01*
X122254481Y-134049500D01*
X122065519Y-134049500D01*
X122065514Y-134049500D01*
X121878881Y-134079059D01*
X121699163Y-134137454D01*
X121530800Y-134223240D01*
X121443579Y-134286610D01*
X121377927Y-134334310D01*
X121377925Y-134334312D01*
X121377920Y-134334315D01*
X121367272Y-134344963D01*
X121305946Y-134378444D01*
X121236255Y-134373455D01*
X121191916Y-134344957D01*
X121065365Y-134218406D01*
X120914218Y-134123433D01*
X120745720Y-134064473D01*
X120612821Y-134049500D01*
X119707181Y-134049500D01*
X119707177Y-134049501D01*
X119574279Y-134064474D01*
X119405781Y-134123433D01*
X119254634Y-134218406D01*
X119128406Y-134344634D01*
X119033433Y-134495781D01*
X118974473Y-134664279D01*
X118959500Y-134797176D01*
X100500500Y-134797176D01*
X100500500Y-129692135D01*
X101759500Y-129692135D01*
X101759500Y-131587870D01*
X101759501Y-131587876D01*
X101765908Y-131647483D01*
X101816202Y-131782328D01*
X101816206Y-131782335D01*
X101902452Y-131897544D01*
X101902455Y-131897547D01*
X102017664Y-131983793D01*
X102017671Y-131983797D01*
X102152517Y-132034091D01*
X102152516Y-132034091D01*
X102159444Y-132034835D01*
X102212127Y-132040500D01*
X104107872Y-132040499D01*
X104167483Y-132034091D01*
X104302331Y-131983796D01*
X104417546Y-131897546D01*
X104503796Y-131782331D01*
X104554091Y-131647483D01*
X104560500Y-131587873D01*
X104560499Y-129692135D01*
X105759500Y-129692135D01*
X105759500Y-131587870D01*
X105759501Y-131587876D01*
X105765908Y-131647483D01*
X105816202Y-131782328D01*
X105816206Y-131782335D01*
X105902452Y-131897544D01*
X105902455Y-131897547D01*
X106017664Y-131983793D01*
X106017671Y-131983797D01*
X106152517Y-132034091D01*
X106152516Y-132034091D01*
X106159444Y-132034835D01*
X106212127Y-132040500D01*
X108107872Y-132040499D01*
X108167483Y-132034091D01*
X108302331Y-131983796D01*
X108417546Y-131897546D01*
X108503796Y-131782331D01*
X108554091Y-131647483D01*
X108560500Y-131587873D01*
X108560499Y-129692135D01*
X121759500Y-129692135D01*
X121759500Y-131587870D01*
X121759501Y-131587876D01*
X121765908Y-131647483D01*
X121816202Y-131782328D01*
X121816206Y-131782335D01*
X121902452Y-131897544D01*
X121902455Y-131897547D01*
X122017664Y-131983793D01*
X122017671Y-131983797D01*
X122152517Y-132034091D01*
X122152516Y-132034091D01*
X122159444Y-132034835D01*
X122212127Y-132040500D01*
X124107872Y-132040499D01*
X124167483Y-132034091D01*
X124302331Y-131983796D01*
X124417546Y-131897546D01*
X124503796Y-131782331D01*
X124554091Y-131647483D01*
X124560500Y-131587873D01*
X124560499Y-129692135D01*
X125759500Y-129692135D01*
X125759500Y-131587870D01*
X125759501Y-131587876D01*
X125765908Y-131647483D01*
X125816202Y-131782328D01*
X125816206Y-131782335D01*
X125902452Y-131897544D01*
X125902455Y-131897547D01*
X126017664Y-131983793D01*
X126017671Y-131983797D01*
X126152517Y-132034091D01*
X126152516Y-132034091D01*
X126159444Y-132034835D01*
X126212127Y-132040500D01*
X128107872Y-132040499D01*
X128167483Y-132034091D01*
X128302331Y-131983796D01*
X128417546Y-131897546D01*
X128503796Y-131782331D01*
X128554091Y-131647483D01*
X128560500Y-131587873D01*
X128560499Y-129692128D01*
X128554091Y-129632517D01*
X128503796Y-129497669D01*
X128503795Y-129497668D01*
X128503793Y-129497664D01*
X128417547Y-129382455D01*
X128417544Y-129382452D01*
X128302335Y-129296206D01*
X128302328Y-129296202D01*
X128167482Y-129245908D01*
X128167483Y-129245908D01*
X128107883Y-129239501D01*
X128107881Y-129239500D01*
X128107873Y-129239500D01*
X128107864Y-129239500D01*
X126212129Y-129239500D01*
X126212123Y-129239501D01*
X126152516Y-129245908D01*
X126017671Y-129296202D01*
X126017664Y-129296206D01*
X125902455Y-129382452D01*
X125902452Y-129382455D01*
X125816206Y-129497664D01*
X125816202Y-129497671D01*
X125765908Y-129632517D01*
X125759501Y-129692116D01*
X125759501Y-129692123D01*
X125759500Y-129692135D01*
X124560499Y-129692135D01*
X124560499Y-129692128D01*
X124554091Y-129632517D01*
X124503796Y-129497669D01*
X124503795Y-129497668D01*
X124503793Y-129497664D01*
X124417547Y-129382455D01*
X124417544Y-129382452D01*
X124302335Y-129296206D01*
X124302328Y-129296202D01*
X124167482Y-129245908D01*
X124167483Y-129245908D01*
X124107883Y-129239501D01*
X124107881Y-129239500D01*
X124107873Y-129239500D01*
X124107864Y-129239500D01*
X122212129Y-129239500D01*
X122212123Y-129239501D01*
X122152516Y-129245908D01*
X122017671Y-129296202D01*
X122017664Y-129296206D01*
X121902455Y-129382452D01*
X121902452Y-129382455D01*
X121816206Y-129497664D01*
X121816202Y-129497671D01*
X121765908Y-129632517D01*
X121759501Y-129692116D01*
X121759501Y-129692123D01*
X121759500Y-129692135D01*
X108560499Y-129692135D01*
X108560499Y-129692128D01*
X108554091Y-129632517D01*
X108503796Y-129497669D01*
X108503795Y-129497668D01*
X108503793Y-129497664D01*
X108417547Y-129382455D01*
X108417544Y-129382452D01*
X108302335Y-129296206D01*
X108302328Y-129296202D01*
X108167482Y-129245908D01*
X108167483Y-129245908D01*
X108107883Y-129239501D01*
X108107881Y-129239500D01*
X108107873Y-129239500D01*
X108107864Y-129239500D01*
X106212129Y-129239500D01*
X106212123Y-129239501D01*
X106152516Y-129245908D01*
X106017671Y-129296202D01*
X106017664Y-129296206D01*
X105902455Y-129382452D01*
X105902452Y-129382455D01*
X105816206Y-129497664D01*
X105816202Y-129497671D01*
X105765908Y-129632517D01*
X105759501Y-129692116D01*
X105759501Y-129692123D01*
X105759500Y-129692135D01*
X104560499Y-129692135D01*
X104560499Y-129692128D01*
X104554091Y-129632517D01*
X104503796Y-129497669D01*
X104503795Y-129497668D01*
X104503793Y-129497664D01*
X104417547Y-129382455D01*
X104417544Y-129382452D01*
X104302335Y-129296206D01*
X104302328Y-129296202D01*
X104167482Y-129245908D01*
X104167483Y-129245908D01*
X104107883Y-129239501D01*
X104107881Y-129239500D01*
X104107873Y-129239500D01*
X104107864Y-129239500D01*
X102212129Y-129239500D01*
X102212123Y-129239501D01*
X102152516Y-129245908D01*
X102017671Y-129296202D01*
X102017664Y-129296206D01*
X101902455Y-129382452D01*
X101902452Y-129382455D01*
X101816206Y-129497664D01*
X101816202Y-129497671D01*
X101765908Y-129632517D01*
X101759501Y-129692116D01*
X101759501Y-129692123D01*
X101759500Y-129692135D01*
X100500500Y-129692135D01*
X100500500Y-122909778D01*
X101759500Y-122909778D01*
X101759500Y-123130221D01*
X101793985Y-123347952D01*
X101862103Y-123557603D01*
X101862104Y-123557606D01*
X101962187Y-123754025D01*
X102091752Y-123932358D01*
X102091756Y-123932363D01*
X102247636Y-124088243D01*
X102247641Y-124088247D01*
X102403192Y-124201260D01*
X102425978Y-124217815D01*
X102554375Y-124283237D01*
X102622393Y-124317895D01*
X102622396Y-124317896D01*
X102727221Y-124351955D01*
X102832049Y-124386015D01*
X103049778Y-124420500D01*
X103049779Y-124420500D01*
X103270221Y-124420500D01*
X103270222Y-124420500D01*
X103487951Y-124386015D01*
X103697606Y-124317895D01*
X103894022Y-124217815D01*
X104072365Y-124088242D01*
X104228242Y-123932365D01*
X104357815Y-123754022D01*
X104457895Y-123557606D01*
X104526015Y-123347951D01*
X104560500Y-123130222D01*
X104560500Y-122909778D01*
X105759500Y-122909778D01*
X105759500Y-123130221D01*
X105793985Y-123347952D01*
X105862103Y-123557603D01*
X105862104Y-123557606D01*
X105962187Y-123754025D01*
X106091752Y-123932358D01*
X106091756Y-123932363D01*
X106247636Y-124088243D01*
X106247641Y-124088247D01*
X106403192Y-124201260D01*
X106425978Y-124217815D01*
X106554375Y-124283237D01*
X106622393Y-124317895D01*
X106622396Y-124317896D01*
X106727221Y-124351955D01*
X106832049Y-124386015D01*
X107049778Y-124420500D01*
X107049779Y-124420500D01*
X107270221Y-124420500D01*
X107270222Y-124420500D01*
X107487951Y-124386015D01*
X107697606Y-124317895D01*
X107894022Y-124217815D01*
X108072365Y-124088242D01*
X108228242Y-123932365D01*
X108357815Y-123754022D01*
X108457895Y-123557606D01*
X108526015Y-123347951D01*
X108560500Y-123130222D01*
X108560500Y-122909778D01*
X121759500Y-122909778D01*
X121759500Y-123130221D01*
X121793985Y-123347952D01*
X121862103Y-123557603D01*
X121862104Y-123557606D01*
X121962187Y-123754025D01*
X122091752Y-123932358D01*
X122091756Y-123932363D01*
X122247636Y-124088243D01*
X122247641Y-124088247D01*
X122403192Y-124201260D01*
X122425978Y-124217815D01*
X122554375Y-124283237D01*
X122622393Y-124317895D01*
X122622396Y-124317896D01*
X122727221Y-124351955D01*
X122832049Y-124386015D01*
X123049778Y-124420500D01*
X123049779Y-124420500D01*
X123270221Y-124420500D01*
X123270222Y-124420500D01*
X123487951Y-124386015D01*
X123697606Y-124317895D01*
X123894022Y-124217815D01*
X124072365Y-124088242D01*
X124228242Y-123932365D01*
X124357815Y-123754022D01*
X124457895Y-123557606D01*
X124526015Y-123347951D01*
X124560500Y-123130222D01*
X124560500Y-122909778D01*
X124538361Y-122770000D01*
X125782145Y-122770000D01*
X126784722Y-122770000D01*
X126740667Y-122846306D01*
X126710000Y-122960756D01*
X126710000Y-123079244D01*
X126740667Y-123193694D01*
X126784722Y-123270000D01*
X125782145Y-123270000D01*
X125794473Y-123347835D01*
X125794473Y-123347838D01*
X125862567Y-123557410D01*
X125962613Y-123753760D01*
X126092142Y-123932041D01*
X126247958Y-124087857D01*
X126426239Y-124217386D01*
X126622589Y-124317432D01*
X126832163Y-124385526D01*
X126909999Y-124397854D01*
X126910000Y-124397854D01*
X126910000Y-123395277D01*
X126986306Y-123439333D01*
X127100756Y-123470000D01*
X127219244Y-123470000D01*
X127333694Y-123439333D01*
X127410000Y-123395277D01*
X127410000Y-124397854D01*
X127487834Y-124385526D01*
X127487837Y-124385526D01*
X127697410Y-124317432D01*
X127893760Y-124217386D01*
X128072041Y-124087857D01*
X128227857Y-123932041D01*
X128357386Y-123753760D01*
X128457432Y-123557410D01*
X128525526Y-123347838D01*
X128525526Y-123347835D01*
X128537855Y-123270000D01*
X127535278Y-123270000D01*
X127579333Y-123193694D01*
X127610000Y-123079244D01*
X127610000Y-122960756D01*
X127579333Y-122846306D01*
X127535278Y-122770000D01*
X128537855Y-122770000D01*
X128525526Y-122692164D01*
X128525526Y-122692161D01*
X128457432Y-122482589D01*
X128357386Y-122286239D01*
X128227857Y-122107958D01*
X128072041Y-121952142D01*
X127893760Y-121822613D01*
X127697410Y-121722567D01*
X127645251Y-121705620D01*
X127587576Y-121666183D01*
X127560377Y-121601824D01*
X127572291Y-121532978D01*
X127619535Y-121481502D01*
X127645252Y-121469758D01*
X127659219Y-121465220D01*
X127841610Y-121372287D01*
X127934590Y-121304732D01*
X128007213Y-121251971D01*
X128007215Y-121251968D01*
X128007219Y-121251966D01*
X128151966Y-121107219D01*
X128151968Y-121107215D01*
X128151971Y-121107213D01*
X128204732Y-121034590D01*
X128272287Y-120941610D01*
X128365220Y-120759219D01*
X128428477Y-120564534D01*
X128460500Y-120362352D01*
X128460500Y-120157648D01*
X128428477Y-119955466D01*
X128422617Y-119937432D01*
X128365218Y-119760776D01*
X128310670Y-119653721D01*
X128272287Y-119578390D01*
X128253379Y-119552365D01*
X128151971Y-119412786D01*
X128007213Y-119268028D01*
X127841613Y-119147715D01*
X127841612Y-119147714D01*
X127841610Y-119147713D01*
X127784653Y-119118691D01*
X127659223Y-119054781D01*
X127464534Y-118991522D01*
X127289995Y-118963878D01*
X127262352Y-118959500D01*
X127057648Y-118959500D01*
X127033329Y-118963351D01*
X126855465Y-118991522D01*
X126660776Y-119054781D01*
X126478386Y-119147715D01*
X126312786Y-119268028D01*
X126168028Y-119412786D01*
X126047715Y-119578386D01*
X125954781Y-119760776D01*
X125891522Y-119955465D01*
X125859500Y-120157648D01*
X125859500Y-120362351D01*
X125891522Y-120564534D01*
X125954781Y-120759223D01*
X126047715Y-120941613D01*
X126168028Y-121107213D01*
X126312786Y-121251971D01*
X126467749Y-121364556D01*
X126478390Y-121372287D01*
X126594607Y-121431503D01*
X126660776Y-121465218D01*
X126660778Y-121465218D01*
X126660781Y-121465220D01*
X126674750Y-121469758D01*
X126732424Y-121509196D01*
X126759622Y-121573555D01*
X126747707Y-121642401D01*
X126700462Y-121693877D01*
X126674748Y-121705620D01*
X126622589Y-121722567D01*
X126426239Y-121822613D01*
X126247958Y-121952142D01*
X126092142Y-122107958D01*
X125962613Y-122286239D01*
X125862567Y-122482589D01*
X125794473Y-122692161D01*
X125794473Y-122692164D01*
X125782145Y-122770000D01*
X124538361Y-122770000D01*
X124526015Y-122692049D01*
X124491955Y-122587221D01*
X124457896Y-122482396D01*
X124457895Y-122482393D01*
X124423237Y-122414375D01*
X124357815Y-122285978D01*
X124228477Y-122107958D01*
X124228247Y-122107641D01*
X124228243Y-122107636D01*
X124072363Y-121951756D01*
X124072358Y-121951752D01*
X123894025Y-121822187D01*
X123894024Y-121822186D01*
X123894022Y-121822185D01*
X123831096Y-121790122D01*
X123697606Y-121722104D01*
X123697603Y-121722103D01*
X123487952Y-121653985D01*
X123379086Y-121636742D01*
X123270222Y-121619500D01*
X123049778Y-121619500D01*
X122977201Y-121630995D01*
X122832047Y-121653985D01*
X122622396Y-121722103D01*
X122622393Y-121722104D01*
X122425974Y-121822187D01*
X122247641Y-121951752D01*
X122247636Y-121951756D01*
X122091756Y-122107636D01*
X122091752Y-122107641D01*
X121962187Y-122285974D01*
X121862104Y-122482393D01*
X121862103Y-122482396D01*
X121793985Y-122692047D01*
X121759500Y-122909778D01*
X108560500Y-122909778D01*
X108526015Y-122692049D01*
X108491955Y-122587221D01*
X108457896Y-122482396D01*
X108457895Y-122482393D01*
X108423237Y-122414375D01*
X108357815Y-122285978D01*
X108228477Y-122107958D01*
X108228247Y-122107641D01*
X108228243Y-122107636D01*
X108072363Y-121951756D01*
X108072358Y-121951752D01*
X107894025Y-121822187D01*
X107894024Y-121822186D01*
X107894022Y-121822185D01*
X107831096Y-121790122D01*
X107697606Y-121722104D01*
X107697603Y-121722103D01*
X107487952Y-121653985D01*
X107379086Y-121636742D01*
X107270222Y-121619500D01*
X107049778Y-121619500D01*
X106977201Y-121630995D01*
X106832047Y-121653985D01*
X106622396Y-121722103D01*
X106622393Y-121722104D01*
X106425974Y-121822187D01*
X106247641Y-121951752D01*
X106247636Y-121951756D01*
X106091756Y-122107636D01*
X106091752Y-122107641D01*
X105962187Y-122285974D01*
X105862104Y-122482393D01*
X105862103Y-122482396D01*
X105793985Y-122692047D01*
X105759500Y-122909778D01*
X104560500Y-122909778D01*
X104526015Y-122692049D01*
X104491955Y-122587221D01*
X104457896Y-122482396D01*
X104457895Y-122482393D01*
X104423237Y-122414375D01*
X104357815Y-122285978D01*
X104228477Y-122107958D01*
X104228247Y-122107641D01*
X104228243Y-122107636D01*
X104072363Y-121951756D01*
X104072358Y-121951752D01*
X103894025Y-121822187D01*
X103894024Y-121822186D01*
X103894022Y-121822185D01*
X103831096Y-121790122D01*
X103697606Y-121722104D01*
X103646060Y-121705356D01*
X103588385Y-121665918D01*
X103561187Y-121601559D01*
X103573102Y-121532712D01*
X103620347Y-121481237D01*
X103646056Y-121469496D01*
X103659219Y-121465220D01*
X103841610Y-121372287D01*
X103934590Y-121304732D01*
X104007213Y-121251971D01*
X104007215Y-121251968D01*
X104007219Y-121251966D01*
X104151966Y-121107219D01*
X104151968Y-121107215D01*
X104151971Y-121107213D01*
X104204732Y-121034590D01*
X104272287Y-120941610D01*
X104365220Y-120759219D01*
X104428477Y-120564534D01*
X104460500Y-120362352D01*
X104460500Y-120157648D01*
X104428477Y-119955466D01*
X104422617Y-119937432D01*
X104365218Y-119760776D01*
X104310670Y-119653721D01*
X104272287Y-119578390D01*
X104253379Y-119552365D01*
X104151971Y-119412786D01*
X104007213Y-119268028D01*
X103841613Y-119147715D01*
X103841612Y-119147714D01*
X103841610Y-119147713D01*
X103784653Y-119118691D01*
X103659223Y-119054781D01*
X103464534Y-118991522D01*
X103289995Y-118963878D01*
X103262352Y-118959500D01*
X103057648Y-118959500D01*
X103033329Y-118963351D01*
X102855465Y-118991522D01*
X102660776Y-119054781D01*
X102478386Y-119147715D01*
X102312786Y-119268028D01*
X102168028Y-119412786D01*
X102047715Y-119578386D01*
X101954781Y-119760776D01*
X101891522Y-119955465D01*
X101859500Y-120157648D01*
X101859500Y-120362351D01*
X101891522Y-120564534D01*
X101954781Y-120759223D01*
X102047715Y-120941613D01*
X102168028Y-121107213D01*
X102312786Y-121251971D01*
X102467749Y-121364556D01*
X102478390Y-121372287D01*
X102660781Y-121465220D01*
X102673935Y-121469494D01*
X102731611Y-121508928D01*
X102758811Y-121573286D01*
X102746899Y-121642133D01*
X102699657Y-121693610D01*
X102673940Y-121705355D01*
X102622401Y-121722101D01*
X102622393Y-121722104D01*
X102425974Y-121822187D01*
X102247641Y-121951752D01*
X102247636Y-121951756D01*
X102091756Y-122107636D01*
X102091752Y-122107641D01*
X101962187Y-122285974D01*
X101862104Y-122482393D01*
X101862103Y-122482396D01*
X101793985Y-122692047D01*
X101759500Y-122909778D01*
X100500500Y-122909778D01*
X100500500Y-118529778D01*
X109509501Y-118529778D01*
X109509501Y-118750221D01*
X109543986Y-118967952D01*
X109612104Y-119177603D01*
X109612105Y-119177606D01*
X109658182Y-119268034D01*
X109712050Y-119373756D01*
X109712188Y-119374025D01*
X109841753Y-119552358D01*
X109841757Y-119552363D01*
X109997637Y-119708243D01*
X109997642Y-119708247D01*
X110029722Y-119731554D01*
X110175979Y-119837815D01*
X110304376Y-119903237D01*
X110372394Y-119937895D01*
X110372397Y-119937896D01*
X110477222Y-119971955D01*
X110582050Y-120006015D01*
X110799779Y-120040500D01*
X110799780Y-120040500D01*
X111020222Y-120040500D01*
X111020223Y-120040500D01*
X111237952Y-120006015D01*
X111447607Y-119937895D01*
X111644023Y-119837815D01*
X111822366Y-119708242D01*
X111843401Y-119687206D01*
X111904721Y-119653721D01*
X111974413Y-119658704D01*
X112030348Y-119700575D01*
X112047264Y-119731554D01*
X112066201Y-119782328D01*
X112066205Y-119782335D01*
X112152451Y-119897544D01*
X112152454Y-119897547D01*
X112267663Y-119983793D01*
X112267670Y-119983797D01*
X112402516Y-120034091D01*
X112402515Y-120034091D01*
X112409443Y-120034835D01*
X112462126Y-120040500D01*
X114357871Y-120040499D01*
X114417482Y-120034091D01*
X114552330Y-119983796D01*
X114667545Y-119897546D01*
X114753795Y-119782331D01*
X114781428Y-119708243D01*
X114784326Y-119700474D01*
X114804090Y-119647482D01*
X114810499Y-119587873D01*
X114810498Y-118529818D01*
X115510001Y-118529818D01*
X115510001Y-118750181D01*
X115544474Y-118967835D01*
X115612568Y-119177410D01*
X115712612Y-119373756D01*
X115758933Y-119437513D01*
X116510001Y-118686445D01*
X116510001Y-118692661D01*
X116537260Y-118794394D01*
X116589921Y-118885606D01*
X116664395Y-118960080D01*
X116755607Y-119012741D01*
X116857340Y-119040000D01*
X116863554Y-119040000D01*
X116112486Y-119791065D01*
X116112486Y-119791066D01*
X116176244Y-119837388D01*
X116372590Y-119937432D01*
X116582165Y-120005526D01*
X116799820Y-120040000D01*
X117020182Y-120040000D01*
X117237836Y-120005526D01*
X117447411Y-119937432D01*
X117643761Y-119837386D01*
X117707514Y-119791066D01*
X117707515Y-119791066D01*
X116956448Y-119040000D01*
X116962662Y-119040000D01*
X117064395Y-119012741D01*
X117155607Y-118960080D01*
X117230081Y-118885606D01*
X117282742Y-118794394D01*
X117310001Y-118692661D01*
X117310001Y-118686447D01*
X117973180Y-119349626D01*
X118006665Y-119410949D01*
X118009499Y-119437306D01*
X118009499Y-119587869D01*
X118009500Y-119587876D01*
X118015907Y-119647483D01*
X118066201Y-119782328D01*
X118066205Y-119782335D01*
X118152451Y-119897544D01*
X118152454Y-119897547D01*
X118267663Y-119983793D01*
X118267670Y-119983797D01*
X118402516Y-120034091D01*
X118402515Y-120034091D01*
X118409443Y-120034835D01*
X118462126Y-120040500D01*
X120357871Y-120040499D01*
X120417482Y-120034091D01*
X120552330Y-119983796D01*
X120667545Y-119897546D01*
X120753795Y-119782331D01*
X120804090Y-119647483D01*
X120810499Y-119587873D01*
X120810498Y-117692128D01*
X120804090Y-117632517D01*
X120802702Y-117628796D01*
X120753796Y-117497671D01*
X120753792Y-117497664D01*
X120667546Y-117382455D01*
X120667543Y-117382452D01*
X120552334Y-117296206D01*
X120552327Y-117296202D01*
X120417481Y-117245908D01*
X120417482Y-117245908D01*
X120357882Y-117239501D01*
X120357880Y-117239500D01*
X120357872Y-117239500D01*
X120357863Y-117239500D01*
X118462128Y-117239500D01*
X118462122Y-117239501D01*
X118402515Y-117245908D01*
X118267670Y-117296202D01*
X118267663Y-117296206D01*
X118152454Y-117382452D01*
X118152451Y-117382455D01*
X118066205Y-117497664D01*
X118066201Y-117497671D01*
X118015907Y-117632517D01*
X118009500Y-117692116D01*
X118009500Y-117692123D01*
X118009499Y-117692135D01*
X118009499Y-117842693D01*
X117989814Y-117909732D01*
X117973180Y-117930374D01*
X117310001Y-118593553D01*
X117310001Y-118587339D01*
X117282742Y-118485606D01*
X117230081Y-118394394D01*
X117155607Y-118319920D01*
X117064395Y-118267259D01*
X116962662Y-118240000D01*
X116956446Y-118240000D01*
X117707514Y-117488932D01*
X117643757Y-117442611D01*
X117447411Y-117342567D01*
X117237836Y-117274473D01*
X117020182Y-117240000D01*
X116799820Y-117240000D01*
X116582165Y-117274473D01*
X116372590Y-117342567D01*
X116176234Y-117442616D01*
X116112486Y-117488931D01*
X116112486Y-117488932D01*
X116863554Y-118240000D01*
X116857340Y-118240000D01*
X116755607Y-118267259D01*
X116664395Y-118319920D01*
X116589921Y-118394394D01*
X116537260Y-118485606D01*
X116510001Y-118587339D01*
X116510001Y-118593553D01*
X115758933Y-117842485D01*
X115758932Y-117842485D01*
X115712617Y-117906233D01*
X115612568Y-118102589D01*
X115544474Y-118312164D01*
X115510001Y-118529818D01*
X114810498Y-118529818D01*
X114810498Y-117692128D01*
X114804090Y-117632517D01*
X114802702Y-117628796D01*
X114784325Y-117579524D01*
X114753796Y-117497671D01*
X114753792Y-117497664D01*
X114667546Y-117382455D01*
X114667543Y-117382452D01*
X114552334Y-117296206D01*
X114552327Y-117296202D01*
X114417481Y-117245908D01*
X114417482Y-117245908D01*
X114357882Y-117239501D01*
X114357880Y-117239500D01*
X114357872Y-117239500D01*
X114357863Y-117239500D01*
X112462128Y-117239500D01*
X112462122Y-117239501D01*
X112402515Y-117245908D01*
X112267670Y-117296202D01*
X112267663Y-117296206D01*
X112152454Y-117382452D01*
X112152451Y-117382455D01*
X112066205Y-117497664D01*
X112066202Y-117497669D01*
X112047264Y-117548446D01*
X112005392Y-117604379D01*
X111939928Y-117628796D01*
X111871655Y-117613944D01*
X111843401Y-117592793D01*
X111822364Y-117571756D01*
X111822359Y-117571752D01*
X111644026Y-117442187D01*
X111644025Y-117442186D01*
X111644023Y-117442185D01*
X111526792Y-117382452D01*
X111447607Y-117342104D01*
X111447604Y-117342103D01*
X111237953Y-117273985D01*
X111129087Y-117256742D01*
X111020223Y-117239500D01*
X110799779Y-117239500D01*
X110727202Y-117250995D01*
X110582048Y-117273985D01*
X110372397Y-117342103D01*
X110372394Y-117342104D01*
X110175975Y-117442187D01*
X109997642Y-117571752D01*
X109997637Y-117571756D01*
X109841757Y-117727636D01*
X109841753Y-117727641D01*
X109712188Y-117905974D01*
X109612105Y-118102393D01*
X109612104Y-118102396D01*
X109543986Y-118312047D01*
X109509501Y-118529778D01*
X100500500Y-118529778D01*
X100500500Y-112537648D01*
X101859500Y-112537648D01*
X101859500Y-112742351D01*
X101891522Y-112944534D01*
X101954781Y-113139223D01*
X102018691Y-113264653D01*
X102032753Y-113292250D01*
X102047715Y-113321613D01*
X102168028Y-113487213D01*
X102312786Y-113631971D01*
X102467749Y-113744556D01*
X102478390Y-113752287D01*
X102594607Y-113811503D01*
X102660776Y-113845218D01*
X102660778Y-113845218D01*
X102660781Y-113845220D01*
X102765137Y-113879127D01*
X102855465Y-113908477D01*
X102956557Y-113924488D01*
X103057648Y-113940500D01*
X103057649Y-113940500D01*
X103262351Y-113940500D01*
X103262352Y-113940500D01*
X103464534Y-113908477D01*
X103659219Y-113845220D01*
X103841610Y-113752287D01*
X103934590Y-113684732D01*
X104007213Y-113631971D01*
X104007215Y-113631968D01*
X104007219Y-113631966D01*
X104151966Y-113487219D01*
X104151968Y-113487215D01*
X104151971Y-113487213D01*
X104204732Y-113414590D01*
X104272287Y-113321610D01*
X104365220Y-113139219D01*
X104428477Y-112944534D01*
X104460500Y-112742352D01*
X104460500Y-112632135D01*
X105207000Y-112632135D01*
X105207000Y-114727870D01*
X105207001Y-114727876D01*
X105213408Y-114787483D01*
X105263702Y-114922328D01*
X105263706Y-114922335D01*
X105349952Y-115037544D01*
X105349955Y-115037547D01*
X105465164Y-115123793D01*
X105465171Y-115123797D01*
X105600017Y-115174091D01*
X105600016Y-115174091D01*
X105606944Y-115174835D01*
X105659627Y-115180500D01*
X107660372Y-115180499D01*
X107719983Y-115174091D01*
X107854831Y-115123796D01*
X107970046Y-115037546D01*
X108056296Y-114922331D01*
X108066690Y-114894460D01*
X108108560Y-114838527D01*
X108174023Y-114814108D01*
X108242297Y-114828958D01*
X108255746Y-114837465D01*
X108438462Y-114970217D01*
X108570599Y-115037544D01*
X108642244Y-115074049D01*
X108859751Y-115144721D01*
X108859752Y-115144721D01*
X108859755Y-115144722D01*
X109085646Y-115180500D01*
X109085647Y-115180500D01*
X109314353Y-115180500D01*
X109314354Y-115180500D01*
X109540245Y-115144722D01*
X109540248Y-115144721D01*
X109540249Y-115144721D01*
X109757755Y-115074049D01*
X109757755Y-115074048D01*
X109757758Y-115074048D01*
X109961538Y-114970217D01*
X110146566Y-114835786D01*
X110308286Y-114674066D01*
X110369683Y-114589559D01*
X110425012Y-114546896D01*
X110494625Y-114540917D01*
X110556420Y-114573523D01*
X110570314Y-114589556D01*
X110631714Y-114674066D01*
X110793434Y-114835786D01*
X110978462Y-114970217D01*
X111110599Y-115037544D01*
X111182244Y-115074049D01*
X111399751Y-115144721D01*
X111399752Y-115144721D01*
X111399755Y-115144722D01*
X111625646Y-115180500D01*
X111625647Y-115180500D01*
X111854353Y-115180500D01*
X111854354Y-115180500D01*
X112080245Y-115144722D01*
X112080248Y-115144721D01*
X112080249Y-115144721D01*
X112297755Y-115074049D01*
X112297755Y-115074048D01*
X112297758Y-115074048D01*
X112501538Y-114970217D01*
X112686566Y-114835786D01*
X112848286Y-114674066D01*
X112982717Y-114489038D01*
X113086548Y-114285258D01*
X113157222Y-114067745D01*
X113193000Y-113841854D01*
X113193000Y-113518146D01*
X113157222Y-113292255D01*
X113157221Y-113292251D01*
X113157221Y-113292250D01*
X113086549Y-113074744D01*
X113086548Y-113074742D01*
X112982717Y-112870962D01*
X112848286Y-112685934D01*
X112794487Y-112632135D01*
X117307002Y-112632135D01*
X117307002Y-114727870D01*
X117307003Y-114727876D01*
X117313410Y-114787483D01*
X117363704Y-114922328D01*
X117363708Y-114922335D01*
X117449954Y-115037544D01*
X117449957Y-115037547D01*
X117565166Y-115123793D01*
X117565173Y-115123797D01*
X117700019Y-115174091D01*
X117700018Y-115174091D01*
X117706946Y-115174835D01*
X117759629Y-115180500D01*
X119760374Y-115180499D01*
X119819985Y-115174091D01*
X119954833Y-115123796D01*
X120070048Y-115037546D01*
X120156298Y-114922331D01*
X120166874Y-114893974D01*
X120208742Y-114838041D01*
X120274206Y-114813622D01*
X120342479Y-114828472D01*
X120355942Y-114836988D01*
X120538725Y-114969788D01*
X120742431Y-115073582D01*
X120959873Y-115144234D01*
X121050002Y-115158509D01*
X121050002Y-114170747D01*
X121087710Y-114192518D01*
X121227593Y-114230000D01*
X121372411Y-114230000D01*
X121512294Y-114192518D01*
X121550002Y-114170747D01*
X121550002Y-115158508D01*
X121640130Y-115144234D01*
X121857572Y-115073582D01*
X122061278Y-114969788D01*
X122246244Y-114835402D01*
X122407907Y-114673739D01*
X122469373Y-114589137D01*
X122524703Y-114546470D01*
X122594316Y-114540491D01*
X122656111Y-114573096D01*
X122670009Y-114589134D01*
X122731716Y-114674066D01*
X122893436Y-114835786D01*
X123078464Y-114970217D01*
X123210601Y-115037544D01*
X123282246Y-115074049D01*
X123499753Y-115144721D01*
X123499754Y-115144721D01*
X123499757Y-115144722D01*
X123725648Y-115180500D01*
X123725649Y-115180500D01*
X123954355Y-115180500D01*
X123954356Y-115180500D01*
X124180247Y-115144722D01*
X124180250Y-115144721D01*
X124180251Y-115144721D01*
X124397757Y-115074049D01*
X124397757Y-115074048D01*
X124397760Y-115074048D01*
X124601540Y-114970217D01*
X124786568Y-114835786D01*
X124948288Y-114674066D01*
X125082719Y-114489038D01*
X125186550Y-114285258D01*
X125257224Y-114067745D01*
X125293002Y-113841854D01*
X125293002Y-113518146D01*
X125257224Y-113292255D01*
X125257223Y-113292251D01*
X125257223Y-113292250D01*
X125186551Y-113074744D01*
X125186550Y-113074742D01*
X125082719Y-112870962D01*
X124948288Y-112685934D01*
X124800002Y-112537648D01*
X125859500Y-112537648D01*
X125859500Y-112742351D01*
X125891522Y-112944534D01*
X125954781Y-113139223D01*
X126018691Y-113264653D01*
X126032753Y-113292250D01*
X126047715Y-113321613D01*
X126168028Y-113487213D01*
X126312786Y-113631971D01*
X126467749Y-113744556D01*
X126478390Y-113752287D01*
X126594607Y-113811503D01*
X126660776Y-113845218D01*
X126660778Y-113845218D01*
X126660781Y-113845220D01*
X126765137Y-113879127D01*
X126855465Y-113908477D01*
X126956557Y-113924488D01*
X127057648Y-113940500D01*
X127057649Y-113940500D01*
X127262351Y-113940500D01*
X127262352Y-113940500D01*
X127464534Y-113908477D01*
X127659219Y-113845220D01*
X127841610Y-113752287D01*
X127934590Y-113684732D01*
X128007213Y-113631971D01*
X128007215Y-113631968D01*
X128007219Y-113631966D01*
X128151966Y-113487219D01*
X128151968Y-113487215D01*
X128151971Y-113487213D01*
X128204732Y-113414590D01*
X128272287Y-113321610D01*
X128365220Y-113139219D01*
X128428477Y-112944534D01*
X128460500Y-112742352D01*
X128460500Y-112537648D01*
X128428477Y-112335466D01*
X128424249Y-112322455D01*
X128389584Y-112215765D01*
X128365220Y-112140781D01*
X128365218Y-112140778D01*
X128365218Y-112140776D01*
X128331503Y-112074607D01*
X128272287Y-111958390D01*
X128264556Y-111947749D01*
X128151971Y-111792786D01*
X128007213Y-111648028D01*
X127841613Y-111527715D01*
X127841612Y-111527714D01*
X127841610Y-111527713D01*
X127784653Y-111498691D01*
X127659223Y-111434781D01*
X127464534Y-111371522D01*
X127289995Y-111343878D01*
X127262352Y-111339500D01*
X127057648Y-111339500D01*
X127033329Y-111343351D01*
X126855465Y-111371522D01*
X126660776Y-111434781D01*
X126478386Y-111527715D01*
X126312786Y-111648028D01*
X126168028Y-111792786D01*
X126047715Y-111958386D01*
X125954781Y-112140776D01*
X125891522Y-112335465D01*
X125859500Y-112537648D01*
X124800002Y-112537648D01*
X124786568Y-112524214D01*
X124601540Y-112389783D01*
X124494935Y-112335465D01*
X124397757Y-112285950D01*
X124180250Y-112215278D01*
X123994814Y-112185908D01*
X123954356Y-112179500D01*
X123725648Y-112179500D01*
X123685190Y-112185908D01*
X123499755Y-112215278D01*
X123499752Y-112215278D01*
X123282246Y-112285950D01*
X123078463Y-112389783D01*
X123012552Y-112437671D01*
X122893436Y-112524214D01*
X122893434Y-112524216D01*
X122893433Y-112524216D01*
X122731718Y-112685931D01*
X122731711Y-112685940D01*
X122670009Y-112770864D01*
X122614679Y-112813530D01*
X122545065Y-112819508D01*
X122483271Y-112786901D01*
X122469374Y-112770863D01*
X122407909Y-112686263D01*
X122407904Y-112686257D01*
X122246244Y-112524597D01*
X122061278Y-112390211D01*
X121857570Y-112286417D01*
X121640126Y-112215765D01*
X121550002Y-112201490D01*
X121550002Y-113189252D01*
X121512294Y-113167482D01*
X121372411Y-113130000D01*
X121227593Y-113130000D01*
X121087710Y-113167482D01*
X121050002Y-113189252D01*
X121050002Y-112201490D01*
X121050001Y-112201490D01*
X120959877Y-112215765D01*
X120742433Y-112286417D01*
X120538721Y-112390213D01*
X120355941Y-112523010D01*
X120290134Y-112546490D01*
X120222081Y-112530664D01*
X120173386Y-112480558D01*
X120166877Y-112466033D01*
X120156298Y-112437669D01*
X120156297Y-112437667D01*
X120156295Y-112437664D01*
X120070049Y-112322455D01*
X120070046Y-112322452D01*
X119954837Y-112236206D01*
X119954830Y-112236202D01*
X119819984Y-112185908D01*
X119819985Y-112185908D01*
X119760385Y-112179501D01*
X119760383Y-112179500D01*
X119760375Y-112179500D01*
X119760366Y-112179500D01*
X117759631Y-112179500D01*
X117759625Y-112179501D01*
X117700018Y-112185908D01*
X117565173Y-112236202D01*
X117565166Y-112236206D01*
X117449957Y-112322452D01*
X117449954Y-112322455D01*
X117363708Y-112437664D01*
X117363704Y-112437671D01*
X117313410Y-112572517D01*
X117307003Y-112632116D01*
X117307002Y-112632135D01*
X112794487Y-112632135D01*
X112686566Y-112524214D01*
X112501538Y-112389783D01*
X112394933Y-112335465D01*
X112297755Y-112285950D01*
X112080248Y-112215278D01*
X111894812Y-112185908D01*
X111854354Y-112179500D01*
X111625646Y-112179500D01*
X111585188Y-112185908D01*
X111399753Y-112215278D01*
X111399750Y-112215278D01*
X111182244Y-112285950D01*
X110978461Y-112389783D01*
X110912550Y-112437671D01*
X110793434Y-112524214D01*
X110793432Y-112524216D01*
X110793431Y-112524216D01*
X110631715Y-112685932D01*
X110570318Y-112770438D01*
X110514987Y-112813103D01*
X110445374Y-112819082D01*
X110383579Y-112786476D01*
X110369682Y-112770438D01*
X110349275Y-112742351D01*
X110308286Y-112685934D01*
X110146566Y-112524214D01*
X109961538Y-112389783D01*
X109854933Y-112335465D01*
X109757755Y-112285950D01*
X109540248Y-112215278D01*
X109354812Y-112185908D01*
X109314354Y-112179500D01*
X109085646Y-112179500D01*
X109045188Y-112185908D01*
X108859753Y-112215278D01*
X108859750Y-112215278D01*
X108642244Y-112285950D01*
X108438461Y-112389783D01*
X108255759Y-112522525D01*
X108189952Y-112546005D01*
X108121898Y-112530180D01*
X108073203Y-112480074D01*
X108066690Y-112465538D01*
X108056296Y-112437669D01*
X108056293Y-112437664D01*
X107970047Y-112322455D01*
X107970044Y-112322452D01*
X107854835Y-112236206D01*
X107854828Y-112236202D01*
X107719982Y-112185908D01*
X107719983Y-112185908D01*
X107660383Y-112179501D01*
X107660381Y-112179500D01*
X107660373Y-112179500D01*
X107660364Y-112179500D01*
X105659629Y-112179500D01*
X105659623Y-112179501D01*
X105600016Y-112185908D01*
X105465171Y-112236202D01*
X105465164Y-112236206D01*
X105349955Y-112322452D01*
X105349952Y-112322455D01*
X105263706Y-112437664D01*
X105263702Y-112437671D01*
X105213408Y-112572517D01*
X105207001Y-112632116D01*
X105207000Y-112632135D01*
X104460500Y-112632135D01*
X104460500Y-112537648D01*
X104428477Y-112335466D01*
X104424249Y-112322455D01*
X104389584Y-112215765D01*
X104365220Y-112140781D01*
X104365218Y-112140778D01*
X104365218Y-112140776D01*
X104331503Y-112074607D01*
X104272287Y-111958390D01*
X104264556Y-111947749D01*
X104151971Y-111792786D01*
X104007213Y-111648028D01*
X103841613Y-111527715D01*
X103841612Y-111527714D01*
X103841610Y-111527713D01*
X103784653Y-111498691D01*
X103659223Y-111434781D01*
X103464534Y-111371522D01*
X103289995Y-111343878D01*
X103262352Y-111339500D01*
X103057648Y-111339500D01*
X103033329Y-111343351D01*
X102855465Y-111371522D01*
X102660776Y-111434781D01*
X102478386Y-111527715D01*
X102312786Y-111648028D01*
X102168028Y-111792786D01*
X102047715Y-111958386D01*
X101954781Y-112140776D01*
X101891522Y-112335465D01*
X101859500Y-112537648D01*
X100500500Y-112537648D01*
X100500500Y-96888872D01*
X107199500Y-96888872D01*
X107199500Y-97151127D01*
X107226123Y-97353339D01*
X107233730Y-97411116D01*
X107301602Y-97664418D01*
X107301605Y-97664428D01*
X107401953Y-97906690D01*
X107401958Y-97906700D01*
X107533075Y-98133803D01*
X107692718Y-98341851D01*
X107692726Y-98341860D01*
X107878140Y-98527274D01*
X107878148Y-98527281D01*
X108086196Y-98686924D01*
X108313299Y-98818041D01*
X108313309Y-98818046D01*
X108555571Y-98918394D01*
X108555581Y-98918398D01*
X108808884Y-98986270D01*
X109068880Y-99020500D01*
X109068887Y-99020500D01*
X109331113Y-99020500D01*
X109331120Y-99020500D01*
X109591116Y-98986270D01*
X109844419Y-98918398D01*
X110086697Y-98818043D01*
X110313803Y-98686924D01*
X110521851Y-98527282D01*
X110521855Y-98527277D01*
X110521860Y-98527274D01*
X110707274Y-98341860D01*
X110707277Y-98341855D01*
X110707282Y-98341851D01*
X110866924Y-98133803D01*
X110998043Y-97906697D01*
X111098398Y-97664419D01*
X111166270Y-97411116D01*
X111200500Y-97151120D01*
X111200500Y-96888880D01*
X111200499Y-96888872D01*
X119299502Y-96888872D01*
X119299502Y-97151127D01*
X119326125Y-97353339D01*
X119333732Y-97411116D01*
X119401604Y-97664418D01*
X119401607Y-97664428D01*
X119501955Y-97906690D01*
X119501960Y-97906700D01*
X119633077Y-98133803D01*
X119792720Y-98341851D01*
X119792728Y-98341860D01*
X119978142Y-98527274D01*
X119978150Y-98527281D01*
X120186198Y-98686924D01*
X120413301Y-98818041D01*
X120413311Y-98818046D01*
X120655573Y-98918394D01*
X120655583Y-98918398D01*
X120908886Y-98986270D01*
X121168882Y-99020500D01*
X121168889Y-99020500D01*
X121431115Y-99020500D01*
X121431122Y-99020500D01*
X121691118Y-98986270D01*
X121944421Y-98918398D01*
X122186699Y-98818043D01*
X122413805Y-98686924D01*
X122621853Y-98527282D01*
X122621857Y-98527277D01*
X122621862Y-98527274D01*
X122807276Y-98341860D01*
X122807279Y-98341855D01*
X122807284Y-98341851D01*
X122966926Y-98133803D01*
X123098045Y-97906697D01*
X123198400Y-97664419D01*
X123266272Y-97411116D01*
X123300502Y-97151120D01*
X123300502Y-96888880D01*
X123266272Y-96628884D01*
X123198400Y-96375581D01*
X123198396Y-96375571D01*
X123098048Y-96133309D01*
X123098043Y-96133299D01*
X122966926Y-95906196D01*
X122807283Y-95698148D01*
X122807276Y-95698140D01*
X122621862Y-95512726D01*
X122621853Y-95512718D01*
X122413805Y-95353075D01*
X122186702Y-95221958D01*
X122186692Y-95221953D01*
X121944430Y-95121605D01*
X121944423Y-95121603D01*
X121944421Y-95121602D01*
X121691118Y-95053730D01*
X121633341Y-95046123D01*
X121431129Y-95019500D01*
X121431122Y-95019500D01*
X121168882Y-95019500D01*
X121168874Y-95019500D01*
X120937774Y-95049926D01*
X120908886Y-95053730D01*
X120655583Y-95121602D01*
X120655573Y-95121605D01*
X120413311Y-95221953D01*
X120413301Y-95221958D01*
X120186198Y-95353075D01*
X119978150Y-95512718D01*
X119792720Y-95698148D01*
X119633077Y-95906196D01*
X119501960Y-96133299D01*
X119501955Y-96133309D01*
X119401607Y-96375571D01*
X119401604Y-96375581D01*
X119333732Y-96628885D01*
X119299502Y-96888872D01*
X111200499Y-96888872D01*
X111166270Y-96628884D01*
X111098398Y-96375581D01*
X111098394Y-96375571D01*
X110998046Y-96133309D01*
X110998041Y-96133299D01*
X110866924Y-95906196D01*
X110707281Y-95698148D01*
X110707274Y-95698140D01*
X110521860Y-95512726D01*
X110521851Y-95512718D01*
X110313803Y-95353075D01*
X110086700Y-95221958D01*
X110086690Y-95221953D01*
X109844428Y-95121605D01*
X109844421Y-95121603D01*
X109844419Y-95121602D01*
X109591116Y-95053730D01*
X109533339Y-95046123D01*
X109331127Y-95019500D01*
X109331120Y-95019500D01*
X109068880Y-95019500D01*
X109068872Y-95019500D01*
X108837772Y-95049926D01*
X108808884Y-95053730D01*
X108555581Y-95121602D01*
X108555571Y-95121605D01*
X108313309Y-95221953D01*
X108313299Y-95221958D01*
X108086196Y-95353075D01*
X107878148Y-95512718D01*
X107692718Y-95698148D01*
X107533075Y-95906196D01*
X107401958Y-96133299D01*
X107401953Y-96133309D01*
X107301605Y-96375571D01*
X107301602Y-96375581D01*
X107233730Y-96628885D01*
X107199500Y-96888872D01*
X100500500Y-96888872D01*
X100500500Y-89537648D01*
X101089500Y-89537648D01*
X101089500Y-89742351D01*
X101121522Y-89944534D01*
X101184781Y-90139223D01*
X101210789Y-90190265D01*
X101277585Y-90321359D01*
X101277715Y-90321613D01*
X101398028Y-90487213D01*
X101542786Y-90631971D01*
X101663226Y-90719474D01*
X101708390Y-90752287D01*
X101802207Y-90800089D01*
X101890776Y-90845218D01*
X101890778Y-90845218D01*
X101890781Y-90845220D01*
X101995137Y-90879127D01*
X102085465Y-90908477D01*
X102186557Y-90924488D01*
X102287648Y-90940500D01*
X102287649Y-90940500D01*
X102492351Y-90940500D01*
X102492352Y-90940500D01*
X102694534Y-90908477D01*
X102889219Y-90845220D01*
X103071610Y-90752287D01*
X103229089Y-90637873D01*
X103237213Y-90631971D01*
X103237215Y-90631968D01*
X103237219Y-90631966D01*
X103381966Y-90487219D01*
X103381968Y-90487215D01*
X103381971Y-90487213D01*
X103469867Y-90366232D01*
X103502287Y-90321610D01*
X103595220Y-90139219D01*
X103658477Y-89944534D01*
X103690500Y-89742352D01*
X103690500Y-89537648D01*
X108709500Y-89537648D01*
X108709500Y-89742351D01*
X108741522Y-89944534D01*
X108804781Y-90139223D01*
X108830789Y-90190265D01*
X108897585Y-90321359D01*
X108897715Y-90321613D01*
X109018028Y-90487213D01*
X109162786Y-90631971D01*
X109283226Y-90719474D01*
X109328390Y-90752287D01*
X109422207Y-90800089D01*
X109510776Y-90845218D01*
X109510778Y-90845218D01*
X109510781Y-90845220D01*
X109615137Y-90879127D01*
X109705465Y-90908477D01*
X109806557Y-90924488D01*
X109907648Y-90940500D01*
X109907649Y-90940500D01*
X110112351Y-90940500D01*
X110112352Y-90940500D01*
X110314534Y-90908477D01*
X110509219Y-90845220D01*
X110691610Y-90752287D01*
X110849089Y-90637873D01*
X110857213Y-90631971D01*
X110857215Y-90631968D01*
X110857219Y-90631966D01*
X111001966Y-90487219D01*
X111001968Y-90487215D01*
X111001971Y-90487213D01*
X111089867Y-90366232D01*
X111122287Y-90321610D01*
X111215220Y-90139219D01*
X111278477Y-89944534D01*
X111310500Y-89742352D01*
X111310500Y-89537648D01*
X111278477Y-89335466D01*
X111258014Y-89272486D01*
X112294501Y-89272486D01*
X112294501Y-90007513D01*
X112323446Y-90190265D01*
X112380620Y-90366232D01*
X112380621Y-90366235D01*
X112464623Y-90531096D01*
X112573380Y-90680787D01*
X112704214Y-90811621D01*
X112853905Y-90920378D01*
X112907225Y-90947546D01*
X113018765Y-91004379D01*
X113018768Y-91004380D01*
X113106751Y-91032967D01*
X113194737Y-91061555D01*
X113377487Y-91090500D01*
X113377488Y-91090500D01*
X113562514Y-91090500D01*
X113562515Y-91090500D01*
X113745265Y-91061555D01*
X113921236Y-91004379D01*
X114086097Y-90920378D01*
X114235788Y-90811621D01*
X114247320Y-90800089D01*
X114308643Y-90766604D01*
X114378335Y-90771588D01*
X114422682Y-90800089D01*
X114434214Y-90811621D01*
X114583905Y-90920378D01*
X114637225Y-90947546D01*
X114748765Y-91004379D01*
X114748768Y-91004380D01*
X114836751Y-91032967D01*
X114924737Y-91061555D01*
X115107487Y-91090500D01*
X115107488Y-91090500D01*
X115292514Y-91090500D01*
X115292515Y-91090500D01*
X115475265Y-91061555D01*
X115651236Y-91004379D01*
X115798222Y-90929485D01*
X115866889Y-90916589D01*
X115930288Y-90942320D01*
X115930355Y-90942231D01*
X115930694Y-90942485D01*
X115931630Y-90942865D01*
X115933867Y-90944860D01*
X115937454Y-90947545D01*
X115937455Y-90947546D01*
X116052670Y-91033796D01*
X116052671Y-91033796D01*
X116052672Y-91033797D01*
X116187518Y-91084091D01*
X116187517Y-91084091D01*
X116194445Y-91084835D01*
X116247128Y-91090500D01*
X117692873Y-91090499D01*
X117752484Y-91084091D01*
X117887332Y-91033796D01*
X118002547Y-90947546D01*
X118088797Y-90832331D01*
X118139092Y-90697483D01*
X118145501Y-90637873D01*
X118145500Y-89537682D01*
X119090000Y-89537682D01*
X119090000Y-89742317D01*
X119122009Y-89944417D01*
X119185244Y-90139031D01*
X119278141Y-90321350D01*
X119278147Y-90321359D01*
X119310523Y-90365921D01*
X119310524Y-90365922D01*
X119990000Y-89686446D01*
X119990000Y-89692661D01*
X120017259Y-89794394D01*
X120069920Y-89885606D01*
X120144394Y-89960080D01*
X120235606Y-90012741D01*
X120337339Y-90040000D01*
X120343553Y-90040000D01*
X119664076Y-90719474D01*
X119708650Y-90751859D01*
X119890968Y-90844755D01*
X120085582Y-90907990D01*
X120287683Y-90940000D01*
X120492317Y-90940000D01*
X120694417Y-90907990D01*
X120889031Y-90844755D01*
X121071349Y-90751859D01*
X121115921Y-90719474D01*
X120436447Y-90040000D01*
X120442661Y-90040000D01*
X120544394Y-90012741D01*
X120635606Y-89960080D01*
X120710080Y-89885606D01*
X120762741Y-89794394D01*
X120790000Y-89692661D01*
X120790000Y-89686447D01*
X121469474Y-90365921D01*
X121501859Y-90321349D01*
X121594755Y-90139031D01*
X121657990Y-89944417D01*
X121690000Y-89742317D01*
X121690000Y-89537682D01*
X121657990Y-89335582D01*
X121594755Y-89140968D01*
X121501859Y-88958650D01*
X121469474Y-88914077D01*
X121469474Y-88914076D01*
X120790000Y-89593551D01*
X120790000Y-89587339D01*
X120762741Y-89485606D01*
X120710080Y-89394394D01*
X120635606Y-89319920D01*
X120544394Y-89267259D01*
X120442661Y-89240000D01*
X120436446Y-89240000D01*
X121115922Y-88560524D01*
X121115921Y-88560523D01*
X121071359Y-88528147D01*
X121071350Y-88528141D01*
X120889031Y-88435244D01*
X120694417Y-88372009D01*
X120492317Y-88340000D01*
X120287683Y-88340000D01*
X120085582Y-88372009D01*
X119890968Y-88435244D01*
X119708644Y-88528143D01*
X119664077Y-88560523D01*
X119664077Y-88560524D01*
X120343554Y-89240000D01*
X120337339Y-89240000D01*
X120235606Y-89267259D01*
X120144394Y-89319920D01*
X120069920Y-89394394D01*
X120017259Y-89485606D01*
X119990000Y-89587339D01*
X119990000Y-89593553D01*
X119310524Y-88914077D01*
X119310523Y-88914077D01*
X119278143Y-88958644D01*
X119185244Y-89140968D01*
X119122009Y-89335582D01*
X119090000Y-89537682D01*
X118145500Y-89537682D01*
X118145500Y-88642128D01*
X118139092Y-88582517D01*
X118103299Y-88486552D01*
X118088798Y-88447671D01*
X118088794Y-88447664D01*
X118002548Y-88332455D01*
X118002545Y-88332452D01*
X117887336Y-88246206D01*
X117887329Y-88246202D01*
X117752483Y-88195908D01*
X117752484Y-88195908D01*
X117692884Y-88189501D01*
X117692882Y-88189500D01*
X117692874Y-88189500D01*
X117692865Y-88189500D01*
X116247130Y-88189500D01*
X116247124Y-88189501D01*
X116187517Y-88195908D01*
X116052672Y-88246202D01*
X116052665Y-88246206D01*
X115930356Y-88337768D01*
X115928451Y-88335223D01*
X115880835Y-88361204D01*
X115811145Y-88356197D01*
X115798222Y-88350514D01*
X115651236Y-88275620D01*
X115651233Y-88275619D01*
X115475266Y-88218445D01*
X115332973Y-88195908D01*
X115292515Y-88189500D01*
X115107487Y-88189500D01*
X115067029Y-88195908D01*
X114924735Y-88218445D01*
X114748768Y-88275619D01*
X114748765Y-88275620D01*
X114583904Y-88359622D01*
X114518473Y-88407161D01*
X114434214Y-88468379D01*
X114434212Y-88468381D01*
X114434211Y-88468381D01*
X114422682Y-88479911D01*
X114361359Y-88513396D01*
X114291667Y-88508412D01*
X114247320Y-88479911D01*
X114235790Y-88468381D01*
X114235788Y-88468379D01*
X114086097Y-88359622D01*
X114047587Y-88340000D01*
X113921236Y-88275620D01*
X113921233Y-88275619D01*
X113745266Y-88218445D01*
X113602973Y-88195908D01*
X113562515Y-88189500D01*
X113377487Y-88189500D01*
X113337029Y-88195908D01*
X113194735Y-88218445D01*
X113018768Y-88275619D01*
X113018765Y-88275620D01*
X112853904Y-88359622D01*
X112788473Y-88407161D01*
X112704214Y-88468379D01*
X112704212Y-88468381D01*
X112704211Y-88468381D01*
X112573382Y-88599210D01*
X112573382Y-88599211D01*
X112573380Y-88599213D01*
X112526673Y-88663499D01*
X112464623Y-88748903D01*
X112380621Y-88913764D01*
X112380620Y-88913767D01*
X112323446Y-89089734D01*
X112294501Y-89272486D01*
X111258014Y-89272486D01*
X111215220Y-89140781D01*
X111122287Y-88958390D01*
X111090092Y-88914077D01*
X111001971Y-88792786D01*
X110857213Y-88648028D01*
X110691613Y-88527715D01*
X110691612Y-88527714D01*
X110691610Y-88527713D01*
X110634653Y-88498691D01*
X110509223Y-88434781D01*
X110314534Y-88371522D01*
X110139995Y-88343878D01*
X110112352Y-88339500D01*
X109907648Y-88339500D01*
X109883329Y-88343351D01*
X109705465Y-88371522D01*
X109510776Y-88434781D01*
X109328386Y-88527715D01*
X109162786Y-88648028D01*
X109018028Y-88792786D01*
X108897715Y-88958386D01*
X108804781Y-89140776D01*
X108741522Y-89335465D01*
X108709500Y-89537648D01*
X103690500Y-89537648D01*
X103682257Y-89485606D01*
X103658477Y-89335465D01*
X103625118Y-89232798D01*
X103595220Y-89140781D01*
X103595218Y-89140778D01*
X103595218Y-89140776D01*
X103502419Y-88958650D01*
X103502287Y-88958390D01*
X103470092Y-88914077D01*
X103381971Y-88792786D01*
X103237213Y-88648028D01*
X103071613Y-88527715D01*
X103071612Y-88527714D01*
X103071610Y-88527713D01*
X103014653Y-88498691D01*
X102889223Y-88434781D01*
X102694534Y-88371522D01*
X102519995Y-88343878D01*
X102492352Y-88339500D01*
X102287648Y-88339500D01*
X102263329Y-88343351D01*
X102085465Y-88371522D01*
X101890776Y-88434781D01*
X101708386Y-88527715D01*
X101542786Y-88648028D01*
X101398028Y-88792786D01*
X101277715Y-88958386D01*
X101184781Y-89140776D01*
X101121522Y-89335465D01*
X101089500Y-89537648D01*
X100500500Y-89537648D01*
X100500500Y-77652682D01*
X104374500Y-77652682D01*
X104374500Y-84867317D01*
X104405044Y-85079764D01*
X104405047Y-85079774D01*
X104465517Y-85285715D01*
X104554672Y-85480938D01*
X104554679Y-85480951D01*
X104670720Y-85661514D01*
X104811275Y-85823724D01*
X104935277Y-85931172D01*
X104973487Y-85964281D01*
X105102531Y-86047211D01*
X105154048Y-86080320D01*
X105154061Y-86080327D01*
X105349284Y-86169482D01*
X105349288Y-86169483D01*
X105349290Y-86169484D01*
X105555231Y-86229954D01*
X105555232Y-86229954D01*
X105555235Y-86229955D01*
X105618584Y-86239062D01*
X105767682Y-86260500D01*
X105767683Y-86260500D01*
X122982317Y-86260500D01*
X122982318Y-86260500D01*
X123152851Y-86235980D01*
X123194764Y-86229955D01*
X123194765Y-86229954D01*
X123194769Y-86229954D01*
X123400710Y-86169484D01*
X123400713Y-86169482D01*
X123400715Y-86169482D01*
X123595938Y-86080327D01*
X123595944Y-86080323D01*
X123595950Y-86080321D01*
X123776513Y-85964281D01*
X123938724Y-85823724D01*
X124079281Y-85661513D01*
X124195321Y-85480950D01*
X124195323Y-85480944D01*
X124195327Y-85480938D01*
X124235633Y-85392677D01*
X124284484Y-85285710D01*
X124316654Y-85176147D01*
X124354427Y-85117371D01*
X124417982Y-85088346D01*
X124487141Y-85098289D01*
X124509283Y-85113663D01*
X124510355Y-85112232D01*
X124632664Y-85203793D01*
X124632671Y-85203797D01*
X124767517Y-85254091D01*
X124767516Y-85254091D01*
X124774444Y-85254835D01*
X124827127Y-85260500D01*
X126922872Y-85260499D01*
X126982483Y-85254091D01*
X127117331Y-85203796D01*
X127232546Y-85117546D01*
X127318796Y-85002331D01*
X127369091Y-84867483D01*
X127375500Y-84807873D01*
X127375499Y-82712128D01*
X127369091Y-82652517D01*
X127318796Y-82517669D01*
X127318795Y-82517668D01*
X127318793Y-82517664D01*
X127232547Y-82402455D01*
X127232544Y-82402452D01*
X127117335Y-82316206D01*
X127117328Y-82316202D01*
X126982482Y-82265908D01*
X126982483Y-82265908D01*
X126922883Y-82259501D01*
X126922881Y-82259500D01*
X126922873Y-82259500D01*
X126922864Y-82259500D01*
X124827129Y-82259500D01*
X124827123Y-82259501D01*
X124767516Y-82265908D01*
X124632671Y-82316202D01*
X124632668Y-82316204D01*
X124573811Y-82360265D01*
X124508347Y-82384682D01*
X124440074Y-82369830D01*
X124390668Y-82320425D01*
X124375500Y-82260998D01*
X124375500Y-79629700D01*
X124395185Y-79562661D01*
X124447989Y-79516906D01*
X124517147Y-79506962D01*
X124580703Y-79535987D01*
X124599818Y-79556815D01*
X124652339Y-79629104D01*
X124652340Y-79629105D01*
X125392037Y-78889408D01*
X125409075Y-78952993D01*
X125474901Y-79067007D01*
X125567993Y-79160099D01*
X125682007Y-79225925D01*
X125745590Y-79242962D01*
X125005893Y-79982658D01*
X125088828Y-80042914D01*
X125299197Y-80150102D01*
X125523752Y-80223065D01*
X125523751Y-80223065D01*
X125756948Y-80260000D01*
X125993052Y-80260000D01*
X126226247Y-80223065D01*
X126450802Y-80150102D01*
X126661163Y-80042918D01*
X126661169Y-80042914D01*
X126744104Y-79982658D01*
X126744105Y-79982658D01*
X126004408Y-79242962D01*
X126067993Y-79225925D01*
X126182007Y-79160099D01*
X126275099Y-79067007D01*
X126340925Y-78952993D01*
X126357962Y-78889408D01*
X127097658Y-79629105D01*
X127097658Y-79629104D01*
X127157914Y-79546169D01*
X127157918Y-79546163D01*
X127265102Y-79335802D01*
X127338065Y-79111247D01*
X127375000Y-78878052D01*
X127375000Y-78641947D01*
X127338065Y-78408752D01*
X127265102Y-78184197D01*
X127157914Y-77973828D01*
X127097658Y-77890894D01*
X127097658Y-77890893D01*
X126357962Y-78630590D01*
X126340925Y-78567007D01*
X126275099Y-78452993D01*
X126182007Y-78359901D01*
X126067993Y-78294075D01*
X126004409Y-78277037D01*
X126744105Y-77537340D01*
X126744104Y-77537338D01*
X126661174Y-77477087D01*
X126450802Y-77369897D01*
X126226247Y-77296934D01*
X126226248Y-77296934D01*
X125993052Y-77260000D01*
X125756948Y-77260000D01*
X125523752Y-77296934D01*
X125299197Y-77369897D01*
X125088830Y-77477084D01*
X125005894Y-77537340D01*
X125745591Y-78277037D01*
X125682007Y-78294075D01*
X125567993Y-78359901D01*
X125474901Y-78452993D01*
X125409075Y-78567007D01*
X125392037Y-78630591D01*
X124652340Y-77890894D01*
X124652339Y-77890894D01*
X124599818Y-77963185D01*
X124544489Y-78005851D01*
X124474875Y-78011830D01*
X124413080Y-77979225D01*
X124378723Y-77918386D01*
X124375500Y-77890300D01*
X124375500Y-77652684D01*
X124374949Y-77648851D01*
X124344954Y-77440231D01*
X124284484Y-77234290D01*
X124284483Y-77234288D01*
X124284482Y-77234284D01*
X124195327Y-77039061D01*
X124195320Y-77039048D01*
X124162211Y-76987531D01*
X124079281Y-76858487D01*
X124046172Y-76820277D01*
X123938724Y-76696275D01*
X123776514Y-76555720D01*
X123776513Y-76555719D01*
X123711991Y-76514253D01*
X123595951Y-76439679D01*
X123595938Y-76439672D01*
X123400715Y-76350517D01*
X123194774Y-76290047D01*
X123194764Y-76290044D01*
X123003754Y-76262582D01*
X122982318Y-76259500D01*
X122940892Y-76259500D01*
X105940892Y-76259500D01*
X105875000Y-76259500D01*
X105767682Y-76259500D01*
X105555235Y-76290044D01*
X105555225Y-76290047D01*
X105349284Y-76350517D01*
X105154061Y-76439672D01*
X105154048Y-76439679D01*
X104973485Y-76555720D01*
X104811275Y-76696275D01*
X104670720Y-76858485D01*
X104554679Y-77039048D01*
X104554672Y-77039061D01*
X104465517Y-77234284D01*
X104405047Y-77440225D01*
X104405044Y-77440235D01*
X104374500Y-77652682D01*
X100500500Y-77652682D01*
X100500500Y-66152682D01*
X104374500Y-66152682D01*
X104374500Y-73367317D01*
X104405044Y-73579764D01*
X104405047Y-73579774D01*
X104465517Y-73785715D01*
X104554672Y-73980938D01*
X104554679Y-73980951D01*
X104670720Y-74161514D01*
X104811275Y-74323724D01*
X104935277Y-74431172D01*
X104973487Y-74464281D01*
X105102531Y-74547211D01*
X105154048Y-74580320D01*
X105154061Y-74580327D01*
X105349284Y-74669482D01*
X105349288Y-74669483D01*
X105349290Y-74669484D01*
X105555231Y-74729954D01*
X105555232Y-74729954D01*
X105555235Y-74729955D01*
X105618584Y-74739062D01*
X105767682Y-74760500D01*
X105767683Y-74760500D01*
X122982317Y-74760500D01*
X122982318Y-74760500D01*
X123152851Y-74735980D01*
X123194764Y-74729955D01*
X123194765Y-74729954D01*
X123194769Y-74729954D01*
X123400710Y-74669484D01*
X123400713Y-74669482D01*
X123400715Y-74669482D01*
X123595938Y-74580327D01*
X123595944Y-74580323D01*
X123595950Y-74580321D01*
X123776513Y-74464281D01*
X123938724Y-74323724D01*
X124079281Y-74161513D01*
X124195321Y-73980950D01*
X124195323Y-73980944D01*
X124195327Y-73980938D01*
X124235633Y-73892677D01*
X124284484Y-73785710D01*
X124316654Y-73676147D01*
X124354427Y-73617371D01*
X124417982Y-73588346D01*
X124487141Y-73598289D01*
X124509283Y-73613663D01*
X124510355Y-73612232D01*
X124632664Y-73703793D01*
X124632671Y-73703797D01*
X124767517Y-73754091D01*
X124767516Y-73754091D01*
X124774444Y-73754835D01*
X124827127Y-73760500D01*
X126922872Y-73760499D01*
X126982483Y-73754091D01*
X127117331Y-73703796D01*
X127232546Y-73617546D01*
X127318796Y-73502331D01*
X127369091Y-73367483D01*
X127375500Y-73307873D01*
X127375499Y-71212128D01*
X127369091Y-71152517D01*
X127318796Y-71017669D01*
X127318795Y-71017668D01*
X127318793Y-71017664D01*
X127232547Y-70902455D01*
X127232544Y-70902452D01*
X127117335Y-70816206D01*
X127117328Y-70816202D01*
X126982482Y-70765908D01*
X126982483Y-70765908D01*
X126922883Y-70759501D01*
X126922881Y-70759500D01*
X126922873Y-70759500D01*
X126922864Y-70759500D01*
X124827129Y-70759500D01*
X124827123Y-70759501D01*
X124767516Y-70765908D01*
X124632671Y-70816202D01*
X124632668Y-70816204D01*
X124573811Y-70860265D01*
X124508347Y-70884682D01*
X124440074Y-70869830D01*
X124390668Y-70820425D01*
X124375500Y-70760998D01*
X124375500Y-68130551D01*
X124395185Y-68063512D01*
X124447989Y-68017757D01*
X124517147Y-68007813D01*
X124580703Y-68036838D01*
X124599815Y-68057662D01*
X124730483Y-68237510D01*
X124897490Y-68404517D01*
X125088567Y-68543343D01*
X125187991Y-68594002D01*
X125299003Y-68650566D01*
X125299005Y-68650566D01*
X125299008Y-68650568D01*
X125419412Y-68689689D01*
X125523631Y-68723553D01*
X125756903Y-68760500D01*
X125756908Y-68760500D01*
X125993097Y-68760500D01*
X126226368Y-68723553D01*
X126450992Y-68650568D01*
X126661433Y-68543343D01*
X126852510Y-68404517D01*
X127019517Y-68237510D01*
X127158343Y-68046433D01*
X127265568Y-67835992D01*
X127338553Y-67611368D01*
X127375500Y-67378097D01*
X127375500Y-67141902D01*
X127338553Y-66908631D01*
X127265566Y-66684003D01*
X127158342Y-66473566D01*
X127019517Y-66282490D01*
X126852510Y-66115483D01*
X126661433Y-65976657D01*
X126450996Y-65869433D01*
X126226368Y-65796446D01*
X125993097Y-65759500D01*
X125993092Y-65759500D01*
X125756908Y-65759500D01*
X125756903Y-65759500D01*
X125523631Y-65796446D01*
X125299003Y-65869433D01*
X125088566Y-65976657D01*
X124996875Y-66043275D01*
X124897490Y-66115483D01*
X124897488Y-66115485D01*
X124897487Y-66115485D01*
X124730485Y-66282487D01*
X124730485Y-66282488D01*
X124730483Y-66282490D01*
X124652773Y-66389448D01*
X124599818Y-66462334D01*
X124544488Y-66504999D01*
X124474874Y-66510978D01*
X124413079Y-66478372D01*
X124378722Y-66417533D01*
X124375500Y-66389448D01*
X124375500Y-66152683D01*
X124375500Y-66152682D01*
X124344954Y-65940231D01*
X124284484Y-65734290D01*
X124284483Y-65734288D01*
X124284482Y-65734284D01*
X124195327Y-65539061D01*
X124195320Y-65539048D01*
X124162211Y-65487531D01*
X124079281Y-65358487D01*
X124046172Y-65320277D01*
X123938724Y-65196275D01*
X123776514Y-65055720D01*
X123776513Y-65055719D01*
X123711991Y-65014253D01*
X123595951Y-64939679D01*
X123595938Y-64939672D01*
X123400715Y-64850517D01*
X123194774Y-64790047D01*
X123194764Y-64790044D01*
X123003754Y-64762582D01*
X122982318Y-64759500D01*
X122940892Y-64759500D01*
X105940892Y-64759500D01*
X105875000Y-64759500D01*
X105767682Y-64759500D01*
X105555235Y-64790044D01*
X105555225Y-64790047D01*
X105349284Y-64850517D01*
X105154061Y-64939672D01*
X105154048Y-64939679D01*
X104973485Y-65055720D01*
X104811275Y-65196275D01*
X104670720Y-65358485D01*
X104554679Y-65539048D01*
X104554672Y-65539061D01*
X104465517Y-65734284D01*
X104405047Y-65940225D01*
X104405044Y-65940235D01*
X104374500Y-66152682D01*
X100500500Y-66152682D01*
X100500500Y-54652682D01*
X104374500Y-54652682D01*
X104374500Y-61867317D01*
X104405044Y-62079764D01*
X104405047Y-62079774D01*
X104465517Y-62285715D01*
X104554672Y-62480938D01*
X104554679Y-62480951D01*
X104670720Y-62661514D01*
X104811275Y-62823724D01*
X104935277Y-62931172D01*
X104973487Y-62964281D01*
X105102531Y-63047211D01*
X105154048Y-63080320D01*
X105154061Y-63080327D01*
X105349284Y-63169482D01*
X105349288Y-63169483D01*
X105349290Y-63169484D01*
X105555231Y-63229954D01*
X105555232Y-63229954D01*
X105555235Y-63229955D01*
X105618584Y-63239062D01*
X105767682Y-63260500D01*
X105767683Y-63260500D01*
X122982317Y-63260500D01*
X122982318Y-63260500D01*
X123152851Y-63235980D01*
X123194764Y-63229955D01*
X123194765Y-63229954D01*
X123194769Y-63229954D01*
X123400710Y-63169484D01*
X123400713Y-63169482D01*
X123400715Y-63169482D01*
X123595938Y-63080327D01*
X123595944Y-63080323D01*
X123595950Y-63080321D01*
X123776513Y-62964281D01*
X123938724Y-62823724D01*
X124079281Y-62661513D01*
X124195321Y-62480950D01*
X124195323Y-62480944D01*
X124195327Y-62480938D01*
X124235633Y-62392677D01*
X124284484Y-62285710D01*
X124316654Y-62176147D01*
X124354427Y-62117371D01*
X124417982Y-62088346D01*
X124487141Y-62098289D01*
X124509283Y-62113663D01*
X124510355Y-62112232D01*
X124632664Y-62203793D01*
X124632671Y-62203797D01*
X124767517Y-62254091D01*
X124767516Y-62254091D01*
X124774444Y-62254835D01*
X124827127Y-62260500D01*
X126922872Y-62260499D01*
X126982483Y-62254091D01*
X127117331Y-62203796D01*
X127232546Y-62117546D01*
X127318796Y-62002331D01*
X127369091Y-61867483D01*
X127375500Y-61807873D01*
X127375499Y-59712128D01*
X127369091Y-59652517D01*
X127318796Y-59517669D01*
X127318795Y-59517668D01*
X127318793Y-59517664D01*
X127232547Y-59402455D01*
X127232544Y-59402452D01*
X127117335Y-59316206D01*
X127117328Y-59316202D01*
X126982482Y-59265908D01*
X126982483Y-59265908D01*
X126922883Y-59259501D01*
X126922881Y-59259500D01*
X126922873Y-59259500D01*
X126922864Y-59259500D01*
X124827129Y-59259500D01*
X124827123Y-59259501D01*
X124767516Y-59265908D01*
X124632671Y-59316202D01*
X124632668Y-59316204D01*
X124573811Y-59360265D01*
X124508347Y-59384682D01*
X124440074Y-59369830D01*
X124390668Y-59320425D01*
X124375500Y-59260998D01*
X124375500Y-56629700D01*
X124395185Y-56562661D01*
X124447989Y-56516906D01*
X124517147Y-56506962D01*
X124580703Y-56535987D01*
X124599818Y-56556815D01*
X124652339Y-56629104D01*
X124652340Y-56629105D01*
X125392037Y-55889408D01*
X125409075Y-55952993D01*
X125474901Y-56067007D01*
X125567993Y-56160099D01*
X125682007Y-56225925D01*
X125745590Y-56242962D01*
X125005893Y-56982658D01*
X125088828Y-57042914D01*
X125299197Y-57150102D01*
X125523752Y-57223065D01*
X125523751Y-57223065D01*
X125756948Y-57260000D01*
X125993052Y-57260000D01*
X126226247Y-57223065D01*
X126450802Y-57150102D01*
X126661163Y-57042918D01*
X126661169Y-57042914D01*
X126744104Y-56982658D01*
X126744105Y-56982658D01*
X126004408Y-56242962D01*
X126067993Y-56225925D01*
X126182007Y-56160099D01*
X126275099Y-56067007D01*
X126340925Y-55952993D01*
X126357962Y-55889408D01*
X127097658Y-56629105D01*
X127097658Y-56629104D01*
X127157914Y-56546169D01*
X127157918Y-56546163D01*
X127265102Y-56335802D01*
X127338065Y-56111247D01*
X127375000Y-55878052D01*
X127375000Y-55641947D01*
X127338065Y-55408752D01*
X127265102Y-55184197D01*
X127157914Y-54973828D01*
X127097658Y-54890894D01*
X127097658Y-54890893D01*
X126357962Y-55630590D01*
X126340925Y-55567007D01*
X126275099Y-55452993D01*
X126182007Y-55359901D01*
X126067993Y-55294075D01*
X126004409Y-55277037D01*
X126744105Y-54537340D01*
X126744104Y-54537338D01*
X126661174Y-54477087D01*
X126450802Y-54369897D01*
X126226247Y-54296934D01*
X126226248Y-54296934D01*
X125993052Y-54260000D01*
X125756948Y-54260000D01*
X125523752Y-54296934D01*
X125299197Y-54369897D01*
X125088830Y-54477084D01*
X125005894Y-54537340D01*
X125745591Y-55277037D01*
X125682007Y-55294075D01*
X125567993Y-55359901D01*
X125474901Y-55452993D01*
X125409075Y-55567007D01*
X125392037Y-55630591D01*
X124652340Y-54890894D01*
X124652339Y-54890894D01*
X124599818Y-54963185D01*
X124544489Y-55005851D01*
X124474875Y-55011830D01*
X124413080Y-54979225D01*
X124378723Y-54918386D01*
X124375500Y-54890300D01*
X124375500Y-54652684D01*
X124374949Y-54648851D01*
X124344954Y-54440231D01*
X124284484Y-54234290D01*
X124284483Y-54234288D01*
X124284482Y-54234284D01*
X124195327Y-54039061D01*
X124195320Y-54039048D01*
X124162211Y-53987531D01*
X124079281Y-53858487D01*
X124046172Y-53820277D01*
X123938724Y-53696275D01*
X123776514Y-53555720D01*
X123776513Y-53555719D01*
X123711991Y-53514253D01*
X123595951Y-53439679D01*
X123595938Y-53439672D01*
X123400715Y-53350517D01*
X123194774Y-53290047D01*
X123194764Y-53290044D01*
X123003754Y-53262582D01*
X122982318Y-53259500D01*
X122940892Y-53259500D01*
X105940892Y-53259500D01*
X105875000Y-53259500D01*
X105767682Y-53259500D01*
X105555235Y-53290044D01*
X105555225Y-53290047D01*
X105349284Y-53350517D01*
X105154061Y-53439672D01*
X105154048Y-53439679D01*
X104973485Y-53555720D01*
X104811275Y-53696275D01*
X104670720Y-53858485D01*
X104554679Y-54039048D01*
X104554672Y-54039061D01*
X104465517Y-54234284D01*
X104405047Y-54440225D01*
X104405044Y-54440235D01*
X104374500Y-54652682D01*
X100500500Y-54652682D01*
X100500500Y-48492155D01*
X115560000Y-48492155D01*
X115560000Y-49790000D01*
X116560000Y-49790000D01*
X116560000Y-50290000D01*
X115560000Y-50290000D01*
X115560000Y-51587844D01*
X115566401Y-51647372D01*
X115566403Y-51647379D01*
X115616645Y-51782086D01*
X115616649Y-51782093D01*
X115702809Y-51897187D01*
X115702812Y-51897190D01*
X115817906Y-51983350D01*
X115817913Y-51983354D01*
X115952620Y-52033596D01*
X115952627Y-52033598D01*
X116012155Y-52039999D01*
X116012172Y-52040000D01*
X116710000Y-52040000D01*
X116710000Y-50955686D01*
X116714394Y-50960080D01*
X116805606Y-51012741D01*
X116907339Y-51040000D01*
X117012661Y-51040000D01*
X117114394Y-51012741D01*
X117205606Y-50960080D01*
X117210000Y-50955686D01*
X117210000Y-52040000D01*
X117907828Y-52040000D01*
X117907844Y-52039999D01*
X117967372Y-52033598D01*
X117967379Y-52033596D01*
X118102086Y-51983354D01*
X118102093Y-51983350D01*
X118217187Y-51897190D01*
X118217190Y-51897187D01*
X118303350Y-51782093D01*
X118303354Y-51782086D01*
X118353596Y-51647379D01*
X118353598Y-51647372D01*
X118359999Y-51587844D01*
X118360000Y-51587827D01*
X118360000Y-50290000D01*
X117360000Y-50290000D01*
X117360000Y-49790000D01*
X118360000Y-49790000D01*
X118360000Y-49329778D01*
X118759500Y-49329778D01*
X118759500Y-50750221D01*
X118793985Y-50967952D01*
X118862103Y-51177603D01*
X118862104Y-51177606D01*
X118962187Y-51374025D01*
X119091752Y-51552358D01*
X119091756Y-51552363D01*
X119247636Y-51708243D01*
X119247641Y-51708247D01*
X119403192Y-51821260D01*
X119425978Y-51837815D01*
X119542501Y-51897187D01*
X119622393Y-51937895D01*
X119622396Y-51937896D01*
X119727221Y-51971955D01*
X119832049Y-52006015D01*
X120049778Y-52040500D01*
X120049779Y-52040500D01*
X120270221Y-52040500D01*
X120270222Y-52040500D01*
X120487951Y-52006015D01*
X120697606Y-51937895D01*
X120894022Y-51837815D01*
X121072365Y-51708242D01*
X121228242Y-51552365D01*
X121357815Y-51374022D01*
X121457895Y-51177606D01*
X121526015Y-50967951D01*
X121560500Y-50750222D01*
X121560500Y-49329778D01*
X124059501Y-49329778D01*
X124059501Y-50750221D01*
X124093986Y-50967952D01*
X124162104Y-51177603D01*
X124162105Y-51177606D01*
X124262188Y-51374025D01*
X124391753Y-51552358D01*
X124391757Y-51552363D01*
X124547637Y-51708243D01*
X124547642Y-51708247D01*
X124703193Y-51821260D01*
X124725979Y-51837815D01*
X124842502Y-51897187D01*
X124922394Y-51937895D01*
X124922397Y-51937896D01*
X125027222Y-51971955D01*
X125132050Y-52006015D01*
X125349779Y-52040500D01*
X125349780Y-52040500D01*
X125570222Y-52040500D01*
X125570223Y-52040500D01*
X125787952Y-52006015D01*
X125997607Y-51937895D01*
X126194023Y-51837815D01*
X126372366Y-51708242D01*
X126528243Y-51552365D01*
X126657816Y-51374022D01*
X126757896Y-51177606D01*
X126826016Y-50967951D01*
X126860501Y-50750222D01*
X126860501Y-49329778D01*
X126826016Y-49112049D01*
X126757896Y-48902394D01*
X126757896Y-48902393D01*
X126723238Y-48834375D01*
X126657816Y-48705978D01*
X126641261Y-48683192D01*
X126528248Y-48527641D01*
X126528244Y-48527636D01*
X126372364Y-48371756D01*
X126372359Y-48371752D01*
X126194026Y-48242187D01*
X126194025Y-48242186D01*
X126194023Y-48242185D01*
X126131097Y-48210122D01*
X125997607Y-48142104D01*
X125997604Y-48142103D01*
X125787953Y-48073985D01*
X125679087Y-48056742D01*
X125570223Y-48039500D01*
X125349779Y-48039500D01*
X125277202Y-48050995D01*
X125132048Y-48073985D01*
X124922397Y-48142103D01*
X124922394Y-48142104D01*
X124725975Y-48242187D01*
X124547642Y-48371752D01*
X124547637Y-48371756D01*
X124391757Y-48527636D01*
X124391753Y-48527641D01*
X124262188Y-48705974D01*
X124162105Y-48902393D01*
X124162104Y-48902396D01*
X124093986Y-49112047D01*
X124059501Y-49329778D01*
X121560500Y-49329778D01*
X121526015Y-49112049D01*
X121457895Y-48902394D01*
X121457895Y-48902393D01*
X121423237Y-48834375D01*
X121357815Y-48705978D01*
X121341260Y-48683192D01*
X121228247Y-48527641D01*
X121228243Y-48527636D01*
X121072363Y-48371756D01*
X121072358Y-48371752D01*
X120894025Y-48242187D01*
X120894024Y-48242186D01*
X120894022Y-48242185D01*
X120831096Y-48210122D01*
X120697606Y-48142104D01*
X120697603Y-48142103D01*
X120487952Y-48073985D01*
X120379086Y-48056742D01*
X120270222Y-48039500D01*
X120049778Y-48039500D01*
X119977201Y-48050995D01*
X119832047Y-48073985D01*
X119622396Y-48142103D01*
X119622393Y-48142104D01*
X119425974Y-48242187D01*
X119247641Y-48371752D01*
X119247636Y-48371756D01*
X119091756Y-48527636D01*
X119091752Y-48527641D01*
X118962187Y-48705974D01*
X118862104Y-48902393D01*
X118862103Y-48902396D01*
X118793985Y-49112047D01*
X118759500Y-49329778D01*
X118360000Y-49329778D01*
X118360000Y-48492172D01*
X118359999Y-48492155D01*
X118353598Y-48432627D01*
X118353596Y-48432620D01*
X118303354Y-48297913D01*
X118303350Y-48297906D01*
X118217190Y-48182812D01*
X118217187Y-48182809D01*
X118102093Y-48096649D01*
X118102086Y-48096645D01*
X117967379Y-48046403D01*
X117967372Y-48046401D01*
X117907844Y-48040000D01*
X117210000Y-48040000D01*
X117210000Y-49124314D01*
X117205606Y-49119920D01*
X117114394Y-49067259D01*
X117012661Y-49040000D01*
X116907339Y-49040000D01*
X116805606Y-49067259D01*
X116714394Y-49119920D01*
X116710000Y-49124314D01*
X116710000Y-48040000D01*
X116012155Y-48040000D01*
X115952627Y-48046401D01*
X115952620Y-48046403D01*
X115817913Y-48096645D01*
X115817906Y-48096649D01*
X115702812Y-48182809D01*
X115702809Y-48182812D01*
X115616649Y-48297906D01*
X115616645Y-48297913D01*
X115566403Y-48432620D01*
X115566401Y-48432627D01*
X115560000Y-48492155D01*
X100500500Y-48492155D01*
X100500500Y-43003750D01*
X100500726Y-42996263D01*
X100504486Y-42934108D01*
X100518271Y-42706201D01*
X100520076Y-42691340D01*
X100534088Y-42614883D01*
X100571780Y-42409197D01*
X100575364Y-42394663D01*
X100652096Y-42148422D01*
X100660696Y-42120822D01*
X100665998Y-42106841D01*
X100783731Y-41845249D01*
X100790676Y-41832016D01*
X100939080Y-41586526D01*
X100947567Y-41574230D01*
X101124480Y-41348417D01*
X101134395Y-41337226D01*
X101337226Y-41134395D01*
X101348417Y-41124480D01*
X101574230Y-40947567D01*
X101586526Y-40939080D01*
X101832016Y-40790676D01*
X101845249Y-40783731D01*
X102106841Y-40665998D01*
X102120822Y-40660696D01*
X102394668Y-40575362D01*
X102409197Y-40571780D01*
X102691344Y-40520075D01*
X102706201Y-40518271D01*
X102996264Y-40500726D01*
X103003751Y-40500500D01*
X103065892Y-40500500D01*
X116391069Y-40500500D01*
X116458108Y-40520185D01*
G37*
%TD.AperFunction*%
%TD*%
M02*
