%TF.GenerationSoftware,KiCad,Pcbnew,9.0.1*%
%TF.CreationDate,2025-06-09T19:24:01+10:00*%
%TF.ProjectId,MIDI_to_CV,4d494449-5f74-46f5-9f43-562e6b696361,rev?*%
%TF.SameCoordinates,Original*%
%TF.FileFunction,Copper,L1,Top*%
%TF.FilePolarity,Positive*%
%FSLAX46Y46*%
G04 Gerber Fmt 4.6, Leading zero omitted, Abs format (unit mm)*
G04 Created by KiCad (PCBNEW 9.0.1) date 2025-06-09 19:24:01*
%MOMM*%
%LPD*%
G01*
G04 APERTURE LIST*
G04 Aperture macros list*
%AMRoundRect*
0 Rectangle with rounded corners*
0 $1 Rounding radius*
0 $2 $3 $4 $5 $6 $7 $8 $9 X,Y pos of 4 corners*
0 Add a 4 corners polygon primitive as box body*
4,1,4,$2,$3,$4,$5,$6,$7,$8,$9,$2,$3,0*
0 Add four circle primitives for the rounded corners*
1,1,$1+$1,$2,$3*
1,1,$1+$1,$4,$5*
1,1,$1+$1,$6,$7*
1,1,$1+$1,$8,$9*
0 Add four rect primitives between the rounded corners*
20,1,$1+$1,$2,$3,$4,$5,0*
20,1,$1+$1,$4,$5,$6,$7,0*
20,1,$1+$1,$6,$7,$8,$9,0*
20,1,$1+$1,$8,$9,$2,$3,0*%
%AMFreePoly0*
4,1,49,4.512206,8.544944,4.602918,8.544944,4.804799,8.504787,4.994967,8.426017,5.166113,8.311661,5.311661,8.166113,5.426017,7.994967,5.504787,7.804799,5.544944,7.602918,5.544944,7.512205,5.550000,7.500000,5.550000,-7.250000,5.544944,-7.262205,5.544944,-7.352918,5.504787,-7.554799,5.426017,-7.744967,5.311661,-7.916113,5.166113,-8.061661,4.994967,-8.176017,4.804799,-8.254787,
4.602918,-8.294944,4.512206,-8.294944,4.500000,-8.300000,-4.500000,-8.300000,-4.512206,-8.294944,-4.602918,-8.294944,-4.804799,-8.254787,-4.994967,-8.176017,-5.166113,-8.061661,-5.311661,-7.916113,-5.426017,-7.744967,-5.504787,-7.554799,-5.544944,-7.352918,-5.544944,-7.262205,-5.550000,-7.250000,-5.550000,7.500000,-5.544944,7.512205,-5.544944,7.602918,-5.504787,7.804799,-5.426017,7.994967,
-5.311661,8.166113,-5.166113,8.311661,-4.994967,8.426017,-4.804799,8.504787,-4.602918,8.544944,-4.512206,8.544944,-4.500000,8.550000,4.500000,8.550000,4.512206,8.544944,4.512206,8.544944,$1*%
G04 Aperture macros list end*
%TA.AperFunction,ComponentPad*%
%ADD10C,1.800000*%
%TD*%
%TA.AperFunction,ComponentPad*%
%ADD11R,1.905000X2.000000*%
%TD*%
%TA.AperFunction,ComponentPad*%
%ADD12O,1.905000X2.000000*%
%TD*%
%TA.AperFunction,SMDPad,CuDef*%
%ADD13FreePoly0,0.000000*%
%TD*%
%TA.AperFunction,ComponentPad*%
%ADD14R,2.000000X2.000000*%
%TD*%
%TA.AperFunction,ComponentPad*%
%ADD15C,2.200000*%
%TD*%
%TA.AperFunction,ComponentPad*%
%ADD16C,1.600000*%
%TD*%
%TA.AperFunction,ComponentPad*%
%ADD17O,1.600000X1.600000*%
%TD*%
%TA.AperFunction,ComponentPad*%
%ADD18R,1.800000X1.800000*%
%TD*%
%TA.AperFunction,ComponentPad*%
%ADD19O,1.800000X1.800000*%
%TD*%
%TA.AperFunction,ComponentPad*%
%ADD20RoundRect,0.291666X-0.408334X-0.708334X0.408334X-0.708334X0.408334X0.708334X-0.408334X0.708334X0*%
%TD*%
%TA.AperFunction,ComponentPad*%
%ADD21O,1.400000X2.000000*%
%TD*%
%TA.AperFunction,ComponentPad*%
%ADD22R,2.400000X1.600000*%
%TD*%
%TA.AperFunction,ComponentPad*%
%ADD23O,2.400000X1.600000*%
%TD*%
%TA.AperFunction,ComponentPad*%
%ADD24R,1.600000X1.600000*%
%TD*%
%TA.AperFunction,ComponentPad*%
%ADD25C,2.300000*%
%TD*%
%TA.AperFunction,ComponentPad*%
%ADD26O,3.200000X1.800000*%
%TD*%
%TA.AperFunction,Conductor*%
%ADD27C,0.200000*%
%TD*%
G04 APERTURE END LIST*
D10*
%TO.P,C1,1*%
%TO.N,Net-(C1-Pad1)*%
X173000000Y-76500000D03*
%TO.P,C1,2*%
%TO.N,GND*%
X173000000Y-71500000D03*
%TD*%
D11*
%TO.P,U3,1,IN*%
%TO.N,Net-(D2-K)*%
X162460000Y-137500000D03*
D12*
%TO.P,U3,2,GND*%
%TO.N,GND*%
X165000000Y-137500000D03*
%TO.P,U3,3,OUT*%
%TO.N,+5V*%
X167540000Y-137500000D03*
D13*
%TO.P,U3,4*%
%TO.N,N/C*%
X165000000Y-126000000D03*
%TD*%
D14*
%TO.P,J3,G*%
%TO.N,GND*%
X158000000Y-109400000D03*
D15*
%TO.P,J3,S*%
X158000000Y-106300000D03*
%TO.P,J3,T*%
%TO.N,Net-(J3-PadT)*%
X158000000Y-98000000D03*
%TD*%
D16*
%TO.P,R4,1*%
%TO.N,Net-(U1-PB1)*%
X177000000Y-70190000D03*
D17*
%TO.P,R4,2*%
%TO.N,Net-(C1-Pad1)*%
X177000000Y-77810000D03*
%TD*%
D18*
%TO.P,D2,1,K*%
%TO.N,Net-(D2-K)*%
X165000000Y-140750000D03*
D19*
%TO.P,D2,2,A*%
%TO.N,VDD*%
X165000000Y-148370000D03*
%TD*%
D16*
%TO.P,R5,1*%
%TO.N,Net-(U1-PB2)*%
X173000000Y-83000000D03*
D17*
%TO.P,R5,2*%
%TO.N,Net-(J3-PadT)*%
X173000000Y-90620000D03*
%TD*%
D20*
%TO.P,J4,1,Pin_1*%
%TO.N,GND*%
X155000000Y-143500000D03*
D21*
%TO.P,J4,2,Pin_2*%
%TO.N,VDD*%
X157000000Y-143500000D03*
%TO.P,J4,3,Pin_3*%
%TO.N,VSS*%
X159000000Y-143500000D03*
%TD*%
D14*
%TO.P,J2,G*%
%TO.N,GND*%
X172000000Y-109400000D03*
D15*
%TO.P,J2,S*%
X172000000Y-106300000D03*
%TO.P,J2,T*%
%TO.N,Net-(C1-Pad1)*%
X172000000Y-98000000D03*
%TD*%
D22*
%TO.P,U2,1,NC*%
%TO.N,unconnected-(U2-NC-Pad1)*%
X161190000Y-83000000D03*
D23*
%TO.P,U2,2,C1*%
%TO.N,Net-(D1-K)*%
X161190000Y-85540000D03*
%TO.P,U2,3,C2*%
%TO.N,Net-(D1-A)*%
X161190000Y-88080000D03*
%TO.P,U2,4,NC*%
%TO.N,unconnected-(U2-NC-Pad4)*%
X161190000Y-90620000D03*
%TO.P,U2,5,GND*%
%TO.N,GND*%
X168810000Y-90620000D03*
%TO.P,U2,6,VO2*%
%TO.N,PB0*%
X168810000Y-88080000D03*
%TO.P,U2,7,VO1*%
%TO.N,Net-(U2-VO1)*%
X168810000Y-85540000D03*
%TO.P,U2,8,VCC*%
%TO.N,+5V*%
X168810000Y-83000000D03*
%TD*%
D24*
%TO.P,D1,1,K*%
%TO.N,Net-(D1-K)*%
X153000000Y-82940000D03*
D17*
%TO.P,D1,2,A*%
%TO.N,Net-(D1-A)*%
X153000000Y-90560000D03*
%TD*%
D22*
%TO.P,U1,1,~{RESET}/PB5*%
%TO.N,unconnected-(U1-~{RESET}{slash}PB5-Pad1)*%
X161190000Y-70190000D03*
D23*
%TO.P,U1,2,XTAL1/PB3*%
%TO.N,unconnected-(U1-XTAL1{slash}PB3-Pad2)*%
X161190000Y-72730000D03*
%TO.P,U1,3,XTAL2/PB4*%
%TO.N,unconnected-(U1-XTAL2{slash}PB4-Pad3)*%
X161190000Y-75270000D03*
%TO.P,U1,4,GND*%
%TO.N,GND*%
X161190000Y-77810000D03*
%TO.P,U1,5,AREF/PB0*%
%TO.N,PB0*%
X168810000Y-77810000D03*
%TO.P,U1,6,PB1*%
%TO.N,Net-(U1-PB1)*%
X168810000Y-75270000D03*
%TO.P,U1,7,PB2*%
%TO.N,Net-(U1-PB2)*%
X168810000Y-72730000D03*
%TO.P,U1,8,VCC*%
%TO.N,+5V*%
X168810000Y-70190000D03*
%TD*%
D16*
%TO.P,R2,1*%
%TO.N,PB0*%
X157000000Y-90620000D03*
D17*
%TO.P,R2,2*%
%TO.N,+5V*%
X157000000Y-83000000D03*
%TD*%
D20*
%TO.P,J5,1,Pin_1*%
%TO.N,GND*%
X171000000Y-143550000D03*
D21*
%TO.P,J5,2,Pin_2*%
%TO.N,VDD*%
X173000000Y-143550000D03*
%TO.P,J5,3,Pin_3*%
%TO.N,VSS*%
X175000000Y-143550000D03*
%TD*%
D18*
%TO.P,C2,1*%
%TO.N,Net-(D2-K)*%
X153100000Y-138162500D03*
D10*
%TO.P,C2,2*%
%TO.N,GND*%
X155600000Y-138162500D03*
%TD*%
D16*
%TO.P,R3,1*%
%TO.N,GND*%
X177000000Y-90500000D03*
D17*
%TO.P,R3,2*%
%TO.N,Net-(U2-VO1)*%
X177000000Y-82880000D03*
%TD*%
D16*
%TO.P,R1,1*%
%TO.N,Net-(J1-Pad4)*%
X157000000Y-70190000D03*
D17*
%TO.P,R1,2*%
%TO.N,Net-(D1-K)*%
X157000000Y-77810000D03*
%TD*%
D25*
%TO.P,J1,1*%
%TO.N,unconnected-(J1-Pad1)*%
X168500000Y-58000000D03*
%TO.P,J1,2*%
%TO.N,GND*%
X165000000Y-54500000D03*
%TO.P,J1,3*%
%TO.N,unconnected-(J1-Pad3)*%
X161500000Y-58000000D03*
%TO.P,J1,4*%
%TO.N,Net-(J1-Pad4)*%
X167474874Y-55525126D03*
%TO.P,J1,5*%
%TO.N,Net-(D1-A)*%
X162525126Y-55525126D03*
D26*
%TO.P,J1,G*%
%TO.N,GND*%
X165000000Y-61100000D03*
%TD*%
D18*
%TO.P,C3,1*%
%TO.N,+5V*%
X174100000Y-138162500D03*
D10*
%TO.P,C3,2*%
%TO.N,GND*%
X176600000Y-138162500D03*
%TD*%
D27*
%TO.N,Net-(J1-Pad4)*%
X157000000Y-70190000D02*
X157000000Y-66000000D01*
%TO.N,Net-(U1-PB2)*%
X175000000Y-81000000D02*
X173000000Y-83000000D01*
X175000000Y-75000000D02*
X175000000Y-81000000D01*
X174000000Y-74000000D02*
X175000000Y-75000000D01*
X172250000Y-74000000D02*
X174000000Y-74000000D01*
X170980000Y-72730000D02*
X172250000Y-74000000D01*
X168810000Y-72730000D02*
X170980000Y-72730000D01*
%TO.N,Net-(J3-PadT)*%
X165620000Y-98000000D02*
X173000000Y-90620000D01*
X158000000Y-98000000D02*
X165620000Y-98000000D01*
%TO.N,Net-(D1-A)*%
X155480000Y-88080000D02*
X153000000Y-90560000D01*
X161190000Y-88080000D02*
X155480000Y-88080000D01*
%TO.N,Net-(D1-K)*%
X155600000Y-85540000D02*
X153000000Y-82940000D01*
X161190000Y-85540000D02*
X155600000Y-85540000D01*
%TO.N,PB0*%
X159880000Y-93500000D02*
X157000000Y-90620000D01*
X163250000Y-93500000D02*
X159880000Y-93500000D01*
X168670000Y-88080000D02*
X163250000Y-93500000D01*
X168810000Y-88080000D02*
X168670000Y-88080000D01*
X157120000Y-90620000D02*
X157000000Y-90620000D01*
%TO.N,Net-(D1-K)*%
X153000000Y-81810000D02*
X157000000Y-77810000D01*
X153000000Y-83230000D02*
X153000000Y-81810000D01*
%TO.N,Net-(J1-Pad4)*%
X167474874Y-55525126D02*
X157000000Y-66000000D01*
%TO.N,PB0*%
X166750000Y-86250000D02*
X168580000Y-88080000D01*
X168580000Y-88080000D02*
X168810000Y-88080000D01*
X168810000Y-77810000D02*
X168810000Y-79690000D01*
X166750000Y-81750000D02*
X166750000Y-86250000D01*
X168810000Y-79690000D02*
X166750000Y-81750000D01*
%TO.N,Net-(U2-VO1)*%
X174340000Y-85540000D02*
X177000000Y-82880000D01*
X168810000Y-85540000D02*
X174340000Y-85540000D01*
%TD*%
%TA.AperFunction,Conductor*%
%TO.N,GND*%
G36*
X177003736Y-50500726D02*
G01*
X177293796Y-50518271D01*
X177308659Y-50520076D01*
X177590798Y-50571780D01*
X177605335Y-50575363D01*
X177879172Y-50660695D01*
X177893163Y-50666000D01*
X178154743Y-50783727D01*
X178167989Y-50790680D01*
X178413465Y-50939075D01*
X178425776Y-50947573D01*
X178651573Y-51124473D01*
X178662781Y-51134403D01*
X178865596Y-51337218D01*
X178875526Y-51348426D01*
X178995481Y-51501538D01*
X179052422Y-51574217D01*
X179060928Y-51586540D01*
X179209316Y-51832004D01*
X179216275Y-51845263D01*
X179333997Y-52106831D01*
X179339306Y-52120832D01*
X179424635Y-52394663D01*
X179428219Y-52409201D01*
X179479923Y-52691340D01*
X179481728Y-52706205D01*
X179499274Y-52996263D01*
X179499500Y-53003750D01*
X179499500Y-146996249D01*
X179499274Y-147003736D01*
X179481728Y-147293794D01*
X179479923Y-147308659D01*
X179428219Y-147590798D01*
X179424635Y-147605336D01*
X179339306Y-147879167D01*
X179333997Y-147893168D01*
X179216275Y-148154736D01*
X179209316Y-148167995D01*
X179060928Y-148413459D01*
X179052422Y-148425782D01*
X178875526Y-148651573D01*
X178865596Y-148662781D01*
X178662781Y-148865596D01*
X178651573Y-148875526D01*
X178425782Y-149052422D01*
X178413459Y-149060928D01*
X178167995Y-149209316D01*
X178154736Y-149216275D01*
X177893168Y-149333997D01*
X177879167Y-149339306D01*
X177605336Y-149424635D01*
X177590798Y-149428219D01*
X177308659Y-149479923D01*
X177293794Y-149481728D01*
X177003736Y-149499274D01*
X176996249Y-149499500D01*
X166150469Y-149499500D01*
X166083430Y-149479815D01*
X166037675Y-149427011D01*
X166027731Y-149357853D01*
X166056756Y-149294297D01*
X166062788Y-149287819D01*
X166068242Y-149282365D01*
X166197815Y-149104022D01*
X166297895Y-148907606D01*
X166366015Y-148697951D01*
X166400500Y-148480222D01*
X166400500Y-148259778D01*
X166366015Y-148042049D01*
X166331955Y-147937221D01*
X166297896Y-147832396D01*
X166297895Y-147832393D01*
X166263237Y-147764375D01*
X166197815Y-147635978D01*
X166109375Y-147514250D01*
X166068247Y-147457641D01*
X166068243Y-147457636D01*
X165912363Y-147301756D01*
X165912358Y-147301752D01*
X165734025Y-147172187D01*
X165734024Y-147172186D01*
X165734022Y-147172185D01*
X165671096Y-147140122D01*
X165537606Y-147072104D01*
X165537603Y-147072103D01*
X165327952Y-147003985D01*
X165219086Y-146986742D01*
X165110222Y-146969500D01*
X164889778Y-146969500D01*
X164817201Y-146980995D01*
X164672047Y-147003985D01*
X164462396Y-147072103D01*
X164462393Y-147072104D01*
X164265974Y-147172187D01*
X164087641Y-147301752D01*
X164087636Y-147301756D01*
X163931756Y-147457636D01*
X163931752Y-147457641D01*
X163802187Y-147635974D01*
X163702104Y-147832393D01*
X163702103Y-147832396D01*
X163633985Y-148042047D01*
X163599500Y-148259778D01*
X163599500Y-148480221D01*
X163633985Y-148697952D01*
X163702103Y-148907603D01*
X163702104Y-148907606D01*
X163802187Y-149104025D01*
X163931752Y-149282358D01*
X163931756Y-149282363D01*
X163937212Y-149287819D01*
X163970697Y-149349142D01*
X163965713Y-149418834D01*
X163923841Y-149474767D01*
X163858377Y-149499184D01*
X163849531Y-149499500D01*
X153003751Y-149499500D01*
X152996264Y-149499274D01*
X152706205Y-149481728D01*
X152691340Y-149479923D01*
X152409201Y-149428219D01*
X152394663Y-149424635D01*
X152120832Y-149339306D01*
X152106831Y-149333997D01*
X151845263Y-149216275D01*
X151832004Y-149209316D01*
X151586540Y-149060928D01*
X151574217Y-149052422D01*
X151348426Y-148875526D01*
X151337218Y-148865596D01*
X151134403Y-148662781D01*
X151124473Y-148651573D01*
X150947573Y-148425776D01*
X150939075Y-148413465D01*
X150790680Y-148167989D01*
X150783727Y-148154743D01*
X150666000Y-147893163D01*
X150660693Y-147879167D01*
X150575364Y-147605336D01*
X150571780Y-147590798D01*
X150520076Y-147308659D01*
X150518271Y-147293794D01*
X150504861Y-147072105D01*
X150500726Y-147003736D01*
X150500500Y-146996249D01*
X150500500Y-142747202D01*
X153800000Y-142747202D01*
X153800000Y-143250000D01*
X154719670Y-143250000D01*
X154699925Y-143269745D01*
X154650556Y-143355255D01*
X154625000Y-143450630D01*
X154625000Y-143549370D01*
X154650556Y-143644745D01*
X154699925Y-143730255D01*
X154719670Y-143750000D01*
X153800001Y-143750000D01*
X153800001Y-144252798D01*
X153814963Y-144385602D01*
X153814965Y-144385612D01*
X153873887Y-144553999D01*
X153968797Y-144705050D01*
X154094949Y-144831202D01*
X154246001Y-144926112D01*
X154246000Y-144926112D01*
X154414387Y-144985034D01*
X154414397Y-144985036D01*
X154547204Y-144999999D01*
X154749999Y-144999999D01*
X154750000Y-144999998D01*
X154750000Y-143780330D01*
X154769745Y-143800075D01*
X154855255Y-143849444D01*
X154950630Y-143875000D01*
X155049370Y-143875000D01*
X155144745Y-143849444D01*
X155230255Y-143800075D01*
X155250000Y-143780330D01*
X155250000Y-144999999D01*
X155452791Y-144999999D01*
X155452798Y-144999998D01*
X155585602Y-144985036D01*
X155585612Y-144985034D01*
X155753999Y-144926112D01*
X155905050Y-144831202D01*
X155905053Y-144831199D01*
X156031564Y-144704689D01*
X156092887Y-144671204D01*
X156162579Y-144676188D01*
X156206926Y-144704689D01*
X156217927Y-144715690D01*
X156370801Y-144826760D01*
X156450347Y-144867290D01*
X156539163Y-144912545D01*
X156539165Y-144912545D01*
X156539168Y-144912547D01*
X156580917Y-144926112D01*
X156718881Y-144970940D01*
X156905514Y-145000500D01*
X156905519Y-145000500D01*
X157094486Y-145000500D01*
X157281118Y-144970940D01*
X157306955Y-144962545D01*
X157460832Y-144912547D01*
X157629199Y-144826760D01*
X157782073Y-144715690D01*
X157912319Y-144585444D01*
X157973642Y-144551959D01*
X158043334Y-144556943D01*
X158087681Y-144585444D01*
X158217927Y-144715690D01*
X158370801Y-144826760D01*
X158450347Y-144867290D01*
X158539163Y-144912545D01*
X158539165Y-144912545D01*
X158539168Y-144912547D01*
X158580917Y-144926112D01*
X158718881Y-144970940D01*
X158905514Y-145000500D01*
X158905519Y-145000500D01*
X159094486Y-145000500D01*
X159281118Y-144970940D01*
X159306955Y-144962545D01*
X159460832Y-144912547D01*
X159629199Y-144826760D01*
X159782073Y-144715690D01*
X159915690Y-144582073D01*
X160026760Y-144429199D01*
X160112547Y-144260832D01*
X160170940Y-144081118D01*
X160200500Y-143894486D01*
X160200500Y-143105513D01*
X160170940Y-142918881D01*
X160142726Y-142832049D01*
X160131403Y-142797202D01*
X169800000Y-142797202D01*
X169800000Y-143300000D01*
X170719670Y-143300000D01*
X170699925Y-143319745D01*
X170650556Y-143405255D01*
X170625000Y-143500630D01*
X170625000Y-143599370D01*
X170650556Y-143694745D01*
X170699925Y-143780255D01*
X170719670Y-143800000D01*
X169800001Y-143800000D01*
X169800001Y-144302798D01*
X169814963Y-144435602D01*
X169814965Y-144435612D01*
X169873887Y-144603999D01*
X169968797Y-144755050D01*
X170094949Y-144881202D01*
X170246001Y-144976112D01*
X170246000Y-144976112D01*
X170414387Y-145035034D01*
X170414397Y-145035036D01*
X170547204Y-145049999D01*
X170749999Y-145049999D01*
X170750000Y-145049998D01*
X170750000Y-143830330D01*
X170769745Y-143850075D01*
X170855255Y-143899444D01*
X170950630Y-143925000D01*
X171049370Y-143925000D01*
X171144745Y-143899444D01*
X171230255Y-143850075D01*
X171250000Y-143830330D01*
X171250000Y-145049999D01*
X171452791Y-145049999D01*
X171452798Y-145049998D01*
X171585602Y-145035036D01*
X171585612Y-145035034D01*
X171753999Y-144976112D01*
X171905050Y-144881202D01*
X171905053Y-144881199D01*
X172031564Y-144754689D01*
X172092887Y-144721204D01*
X172162579Y-144726188D01*
X172206926Y-144754689D01*
X172217927Y-144765690D01*
X172370801Y-144876760D01*
X172441033Y-144912545D01*
X172539163Y-144962545D01*
X172539165Y-144962545D01*
X172539168Y-144962547D01*
X172608382Y-144985036D01*
X172718881Y-145020940D01*
X172905514Y-145050500D01*
X172905519Y-145050500D01*
X173094486Y-145050500D01*
X173281118Y-145020940D01*
X173345570Y-144999998D01*
X173460832Y-144962547D01*
X173629199Y-144876760D01*
X173782073Y-144765690D01*
X173912319Y-144635444D01*
X173973642Y-144601959D01*
X174043334Y-144606943D01*
X174087681Y-144635444D01*
X174217927Y-144765690D01*
X174370801Y-144876760D01*
X174441033Y-144912545D01*
X174539163Y-144962545D01*
X174539165Y-144962545D01*
X174539168Y-144962547D01*
X174608382Y-144985036D01*
X174718881Y-145020940D01*
X174905514Y-145050500D01*
X174905519Y-145050500D01*
X175094486Y-145050500D01*
X175281118Y-145020940D01*
X175345570Y-144999998D01*
X175460832Y-144962547D01*
X175629199Y-144876760D01*
X175782073Y-144765690D01*
X175915690Y-144632073D01*
X176026760Y-144479199D01*
X176112547Y-144310832D01*
X176170940Y-144131118D01*
X176178859Y-144081118D01*
X176200500Y-143944486D01*
X176200500Y-143155513D01*
X176170940Y-142968881D01*
X176112545Y-142789163D01*
X176026759Y-142620800D01*
X176022100Y-142614387D01*
X175915690Y-142467927D01*
X175782073Y-142334310D01*
X175629199Y-142223240D01*
X175620479Y-142218797D01*
X175460836Y-142137454D01*
X175281118Y-142079059D01*
X175094486Y-142049500D01*
X175094481Y-142049500D01*
X174905519Y-142049500D01*
X174905514Y-142049500D01*
X174718881Y-142079059D01*
X174539163Y-142137454D01*
X174370800Y-142223240D01*
X174286746Y-142284310D01*
X174217927Y-142334310D01*
X174217925Y-142334312D01*
X174217924Y-142334312D01*
X174087681Y-142464556D01*
X174026358Y-142498041D01*
X173956666Y-142493057D01*
X173912319Y-142464556D01*
X173782075Y-142334312D01*
X173782073Y-142334310D01*
X173629199Y-142223240D01*
X173620479Y-142218797D01*
X173460836Y-142137454D01*
X173281118Y-142079059D01*
X173094486Y-142049500D01*
X173094481Y-142049500D01*
X172905519Y-142049500D01*
X172905514Y-142049500D01*
X172718881Y-142079059D01*
X172539163Y-142137454D01*
X172370800Y-142223240D01*
X172286746Y-142284310D01*
X172217927Y-142334310D01*
X172217925Y-142334312D01*
X172217922Y-142334314D01*
X172206923Y-142345313D01*
X172145599Y-142378796D01*
X172075907Y-142373809D01*
X172031564Y-142345311D01*
X171905049Y-142218797D01*
X171905050Y-142218797D01*
X171753998Y-142123887D01*
X171753999Y-142123887D01*
X171585612Y-142064965D01*
X171585602Y-142064963D01*
X171452797Y-142050000D01*
X171250000Y-142050000D01*
X171250000Y-143269670D01*
X171230255Y-143249925D01*
X171144745Y-143200556D01*
X171049370Y-143175000D01*
X170950630Y-143175000D01*
X170855255Y-143200556D01*
X170769745Y-143249925D01*
X170750000Y-143269670D01*
X170750000Y-142050000D01*
X170547207Y-142050000D01*
X170547201Y-142050001D01*
X170414397Y-142064963D01*
X170414387Y-142064965D01*
X170246000Y-142123887D01*
X170094949Y-142218797D01*
X169968797Y-142344949D01*
X169873887Y-142496000D01*
X169814965Y-142664387D01*
X169814963Y-142664397D01*
X169800000Y-142797202D01*
X160131403Y-142797202D01*
X160112547Y-142739168D01*
X160112545Y-142739165D01*
X160112545Y-142739163D01*
X160026759Y-142570800D01*
X159915690Y-142417927D01*
X159782073Y-142284310D01*
X159629199Y-142173240D01*
X159620479Y-142168797D01*
X159460836Y-142087454D01*
X159281118Y-142029059D01*
X159094486Y-141999500D01*
X159094481Y-141999500D01*
X158905519Y-141999500D01*
X158905514Y-141999500D01*
X158718881Y-142029059D01*
X158539163Y-142087454D01*
X158370800Y-142173240D01*
X158308097Y-142218797D01*
X158217927Y-142284310D01*
X158217925Y-142284312D01*
X158217924Y-142284312D01*
X158087681Y-142414556D01*
X158026358Y-142448041D01*
X157956666Y-142443057D01*
X157912319Y-142414556D01*
X157782075Y-142284312D01*
X157782073Y-142284310D01*
X157629199Y-142173240D01*
X157620479Y-142168797D01*
X157460836Y-142087454D01*
X157281118Y-142029059D01*
X157094486Y-141999500D01*
X157094481Y-141999500D01*
X156905519Y-141999500D01*
X156905514Y-141999500D01*
X156718881Y-142029059D01*
X156539163Y-142087454D01*
X156370800Y-142173240D01*
X156308097Y-142218797D01*
X156217927Y-142284310D01*
X156217925Y-142284312D01*
X156217922Y-142284314D01*
X156206923Y-142295313D01*
X156145599Y-142328796D01*
X156075907Y-142323809D01*
X156031564Y-142295311D01*
X155905049Y-142168797D01*
X155905050Y-142168797D01*
X155753998Y-142073887D01*
X155753999Y-142073887D01*
X155585612Y-142014965D01*
X155585602Y-142014963D01*
X155452797Y-142000000D01*
X155250000Y-142000000D01*
X155250000Y-143219670D01*
X155230255Y-143199925D01*
X155144745Y-143150556D01*
X155049370Y-143125000D01*
X154950630Y-143125000D01*
X154855255Y-143150556D01*
X154769745Y-143199925D01*
X154750000Y-143219670D01*
X154750000Y-142000000D01*
X154547207Y-142000000D01*
X154547201Y-142000001D01*
X154414397Y-142014963D01*
X154414387Y-142014965D01*
X154246000Y-142073887D01*
X154094949Y-142168797D01*
X153968797Y-142294949D01*
X153873887Y-142446000D01*
X153814965Y-142614387D01*
X153814963Y-142614397D01*
X153800000Y-142747202D01*
X150500500Y-142747202D01*
X150500500Y-139802135D01*
X163599500Y-139802135D01*
X163599500Y-141697870D01*
X163599501Y-141697876D01*
X163605908Y-141757483D01*
X163656202Y-141892328D01*
X163656206Y-141892335D01*
X163742452Y-142007544D01*
X163742455Y-142007547D01*
X163857664Y-142093793D01*
X163857671Y-142093797D01*
X163992517Y-142144091D01*
X163992516Y-142144091D01*
X163999444Y-142144835D01*
X164052127Y-142150500D01*
X165947872Y-142150499D01*
X166007483Y-142144091D01*
X166142331Y-142093796D01*
X166257546Y-142007546D01*
X166343796Y-141892331D01*
X166394091Y-141757483D01*
X166400500Y-141697873D01*
X166400499Y-139802128D01*
X166394091Y-139742517D01*
X166343796Y-139607669D01*
X166343795Y-139607668D01*
X166343793Y-139607664D01*
X166257547Y-139492455D01*
X166257544Y-139492452D01*
X166142335Y-139406206D01*
X166142328Y-139406202D01*
X166007482Y-139355908D01*
X166007483Y-139355908D01*
X165947883Y-139349501D01*
X165947881Y-139349500D01*
X165947873Y-139349500D01*
X165947864Y-139349500D01*
X164052129Y-139349500D01*
X164052123Y-139349501D01*
X163992516Y-139355908D01*
X163857671Y-139406202D01*
X163857664Y-139406206D01*
X163742455Y-139492452D01*
X163742452Y-139492455D01*
X163656206Y-139607664D01*
X163656202Y-139607671D01*
X163605908Y-139742517D01*
X163599501Y-139802116D01*
X163599501Y-139802123D01*
X163599500Y-139802135D01*
X150500500Y-139802135D01*
X150500500Y-137214635D01*
X151699500Y-137214635D01*
X151699500Y-139110370D01*
X151699501Y-139110376D01*
X151705908Y-139169983D01*
X151756202Y-139304828D01*
X151756206Y-139304835D01*
X151842452Y-139420044D01*
X151842455Y-139420047D01*
X151957664Y-139506293D01*
X151957671Y-139506297D01*
X152092517Y-139556591D01*
X152092516Y-139556591D01*
X152099444Y-139557335D01*
X152152127Y-139563000D01*
X154047872Y-139562999D01*
X154107483Y-139556591D01*
X154242331Y-139506296D01*
X154357546Y-139420046D01*
X154443796Y-139304831D01*
X154494091Y-139169983D01*
X154500500Y-139110373D01*
X154500499Y-138959804D01*
X154520183Y-138892768D01*
X154536818Y-138872126D01*
X155200000Y-138208945D01*
X155200000Y-138215161D01*
X155227259Y-138316894D01*
X155279920Y-138408106D01*
X155354394Y-138482580D01*
X155445606Y-138535241D01*
X155547339Y-138562500D01*
X155553553Y-138562500D01*
X154802485Y-139313565D01*
X154802485Y-139313566D01*
X154866243Y-139359888D01*
X155062589Y-139459932D01*
X155272164Y-139528026D01*
X155489819Y-139562500D01*
X155710181Y-139562500D01*
X155927835Y-139528026D01*
X156137410Y-139459932D01*
X156333760Y-139359886D01*
X156397513Y-139313566D01*
X156397514Y-139313566D01*
X155646447Y-138562500D01*
X155652661Y-138562500D01*
X155754394Y-138535241D01*
X155845606Y-138482580D01*
X155920080Y-138408106D01*
X155972741Y-138316894D01*
X156000000Y-138215161D01*
X156000000Y-138208948D01*
X156751066Y-138960014D01*
X156751066Y-138960013D01*
X156797386Y-138896260D01*
X156897432Y-138699910D01*
X156965526Y-138490335D01*
X157000000Y-138272681D01*
X157000000Y-138052318D01*
X156965526Y-137834664D01*
X156897432Y-137625089D01*
X156797388Y-137428743D01*
X156751066Y-137364985D01*
X156751065Y-137364985D01*
X156000000Y-138116051D01*
X156000000Y-138109839D01*
X155972741Y-138008106D01*
X155920080Y-137916894D01*
X155845606Y-137842420D01*
X155754394Y-137789759D01*
X155652661Y-137762500D01*
X155646445Y-137762500D01*
X156397513Y-137011432D01*
X156333756Y-136965111D01*
X156137410Y-136865067D01*
X155927835Y-136796973D01*
X155710181Y-136762500D01*
X155489819Y-136762500D01*
X155272164Y-136796973D01*
X155062589Y-136865067D01*
X154866233Y-136965116D01*
X154802485Y-137011431D01*
X154802485Y-137011432D01*
X155553553Y-137762500D01*
X155547339Y-137762500D01*
X155445606Y-137789759D01*
X155354394Y-137842420D01*
X155279920Y-137916894D01*
X155227259Y-138008106D01*
X155200000Y-138109839D01*
X155200000Y-138116053D01*
X154536818Y-137452871D01*
X154503333Y-137391548D01*
X154500499Y-137365190D01*
X154500499Y-137214629D01*
X154500498Y-137214623D01*
X154500497Y-137214616D01*
X154494091Y-137155017D01*
X154443796Y-137020169D01*
X154443795Y-137020168D01*
X154443793Y-137020164D01*
X154357547Y-136904955D01*
X154357544Y-136904952D01*
X154242335Y-136818706D01*
X154242328Y-136818702D01*
X154107482Y-136768408D01*
X154107483Y-136768408D01*
X154047883Y-136762001D01*
X154047881Y-136762000D01*
X154047873Y-136762000D01*
X154047864Y-136762000D01*
X152152129Y-136762000D01*
X152152123Y-136762001D01*
X152092516Y-136768408D01*
X151957671Y-136818702D01*
X151957664Y-136818706D01*
X151842455Y-136904952D01*
X151842452Y-136904955D01*
X151756206Y-137020164D01*
X151756202Y-137020171D01*
X151705908Y-137155017D01*
X151699501Y-137214616D01*
X151699501Y-137214623D01*
X151699500Y-137214635D01*
X150500500Y-137214635D01*
X150500500Y-136452135D01*
X161007000Y-136452135D01*
X161007000Y-138547870D01*
X161007001Y-138547876D01*
X161013408Y-138607483D01*
X161063702Y-138742328D01*
X161063706Y-138742335D01*
X161149952Y-138857544D01*
X161149955Y-138857547D01*
X161265164Y-138943793D01*
X161265171Y-138943797D01*
X161400017Y-138994091D01*
X161400016Y-138994091D01*
X161406944Y-138994835D01*
X161459627Y-139000500D01*
X163460372Y-139000499D01*
X163519983Y-138994091D01*
X163654831Y-138943796D01*
X163770046Y-138857546D01*
X163856296Y-138742331D01*
X163866872Y-138713974D01*
X163908740Y-138658041D01*
X163974204Y-138633622D01*
X164042477Y-138648472D01*
X164055940Y-138656988D01*
X164238723Y-138789788D01*
X164442429Y-138893582D01*
X164659871Y-138964234D01*
X164750000Y-138978509D01*
X164750000Y-137990747D01*
X164787708Y-138012518D01*
X164927591Y-138050000D01*
X165072409Y-138050000D01*
X165212292Y-138012518D01*
X165250000Y-137990747D01*
X165250000Y-138978508D01*
X165340128Y-138964234D01*
X165557570Y-138893582D01*
X165761276Y-138789788D01*
X165946242Y-138655402D01*
X166107905Y-138493739D01*
X166169371Y-138409137D01*
X166224701Y-138366470D01*
X166294314Y-138360491D01*
X166356109Y-138393096D01*
X166370007Y-138409134D01*
X166431714Y-138494066D01*
X166593434Y-138655786D01*
X166778462Y-138790217D01*
X166910599Y-138857544D01*
X166982244Y-138894049D01*
X167199751Y-138964721D01*
X167199752Y-138964721D01*
X167199755Y-138964722D01*
X167425646Y-139000500D01*
X167425647Y-139000500D01*
X167654353Y-139000500D01*
X167654354Y-139000500D01*
X167880245Y-138964722D01*
X167880248Y-138964721D01*
X167880249Y-138964721D01*
X168097755Y-138894049D01*
X168097755Y-138894048D01*
X168097758Y-138894048D01*
X168301538Y-138790217D01*
X168486566Y-138655786D01*
X168648286Y-138494066D01*
X168782717Y-138309038D01*
X168886548Y-138105258D01*
X168916681Y-138012518D01*
X168957221Y-137887749D01*
X168957221Y-137887748D01*
X168957222Y-137887745D01*
X168993000Y-137661854D01*
X168993000Y-137338146D01*
X168973437Y-137214635D01*
X172699500Y-137214635D01*
X172699500Y-139110370D01*
X172699501Y-139110376D01*
X172705908Y-139169983D01*
X172756202Y-139304828D01*
X172756206Y-139304835D01*
X172842452Y-139420044D01*
X172842455Y-139420047D01*
X172957664Y-139506293D01*
X172957671Y-139506297D01*
X173092517Y-139556591D01*
X173092516Y-139556591D01*
X173099444Y-139557335D01*
X173152127Y-139563000D01*
X175047872Y-139562999D01*
X175107483Y-139556591D01*
X175242331Y-139506296D01*
X175357546Y-139420046D01*
X175443796Y-139304831D01*
X175494091Y-139169983D01*
X175500500Y-139110373D01*
X175500499Y-138959804D01*
X175520183Y-138892768D01*
X175536818Y-138872126D01*
X176200000Y-138208945D01*
X176200000Y-138215161D01*
X176227259Y-138316894D01*
X176279920Y-138408106D01*
X176354394Y-138482580D01*
X176445606Y-138535241D01*
X176547339Y-138562500D01*
X176553553Y-138562500D01*
X175802485Y-139313565D01*
X175802485Y-139313566D01*
X175866243Y-139359888D01*
X176062589Y-139459932D01*
X176272164Y-139528026D01*
X176489819Y-139562500D01*
X176710181Y-139562500D01*
X176927835Y-139528026D01*
X177137410Y-139459932D01*
X177333760Y-139359886D01*
X177397513Y-139313566D01*
X177397514Y-139313566D01*
X176646447Y-138562500D01*
X176652661Y-138562500D01*
X176754394Y-138535241D01*
X176845606Y-138482580D01*
X176920080Y-138408106D01*
X176972741Y-138316894D01*
X177000000Y-138215161D01*
X177000000Y-138208947D01*
X177751066Y-138960014D01*
X177751066Y-138960013D01*
X177797386Y-138896260D01*
X177897432Y-138699910D01*
X177965526Y-138490335D01*
X178000000Y-138272681D01*
X178000000Y-138052318D01*
X177965526Y-137834664D01*
X177897432Y-137625089D01*
X177797388Y-137428743D01*
X177751066Y-137364985D01*
X177751065Y-137364985D01*
X177000000Y-138116051D01*
X177000000Y-138109839D01*
X176972741Y-138008106D01*
X176920080Y-137916894D01*
X176845606Y-137842420D01*
X176754394Y-137789759D01*
X176652661Y-137762500D01*
X176646445Y-137762500D01*
X177397513Y-137011432D01*
X177333756Y-136965111D01*
X177137410Y-136865067D01*
X176927835Y-136796973D01*
X176710181Y-136762500D01*
X176489819Y-136762500D01*
X176272164Y-136796973D01*
X176062589Y-136865067D01*
X175866233Y-136965116D01*
X175802485Y-137011431D01*
X175802485Y-137011432D01*
X176553553Y-137762500D01*
X176547339Y-137762500D01*
X176445606Y-137789759D01*
X176354394Y-137842420D01*
X176279920Y-137916894D01*
X176227259Y-138008106D01*
X176200000Y-138109839D01*
X176200000Y-138116053D01*
X175536818Y-137452871D01*
X175503333Y-137391548D01*
X175500499Y-137365190D01*
X175500499Y-137214629D01*
X175500498Y-137214623D01*
X175500497Y-137214616D01*
X175494091Y-137155017D01*
X175443796Y-137020169D01*
X175443795Y-137020168D01*
X175443793Y-137020164D01*
X175357547Y-136904955D01*
X175357544Y-136904952D01*
X175242335Y-136818706D01*
X175242328Y-136818702D01*
X175107482Y-136768408D01*
X175107483Y-136768408D01*
X175047883Y-136762001D01*
X175047881Y-136762000D01*
X175047873Y-136762000D01*
X175047864Y-136762000D01*
X173152129Y-136762000D01*
X173152123Y-136762001D01*
X173092516Y-136768408D01*
X172957671Y-136818702D01*
X172957664Y-136818706D01*
X172842455Y-136904952D01*
X172842452Y-136904955D01*
X172756206Y-137020164D01*
X172756202Y-137020171D01*
X172705908Y-137155017D01*
X172699501Y-137214616D01*
X172699501Y-137214623D01*
X172699500Y-137214635D01*
X168973437Y-137214635D01*
X168973436Y-137214628D01*
X168963995Y-137155017D01*
X168957222Y-137112255D01*
X168957221Y-137112251D01*
X168957221Y-137112250D01*
X168886549Y-136894744D01*
X168822178Y-136768409D01*
X168782717Y-136690962D01*
X168648286Y-136505934D01*
X168486566Y-136344214D01*
X168301538Y-136209783D01*
X168097755Y-136105950D01*
X167880248Y-136035278D01*
X167694812Y-136005908D01*
X167654354Y-135999500D01*
X167425646Y-135999500D01*
X167385188Y-136005908D01*
X167199753Y-136035278D01*
X167199750Y-136035278D01*
X166982244Y-136105950D01*
X166778461Y-136209783D01*
X166712550Y-136257671D01*
X166593434Y-136344214D01*
X166593432Y-136344216D01*
X166593431Y-136344216D01*
X166431716Y-136505931D01*
X166431709Y-136505940D01*
X166370007Y-136590864D01*
X166314677Y-136633530D01*
X166245063Y-136639508D01*
X166183269Y-136606901D01*
X166169372Y-136590863D01*
X166107907Y-136506263D01*
X166107902Y-136506257D01*
X165946242Y-136344597D01*
X165761276Y-136210211D01*
X165557568Y-136106417D01*
X165340124Y-136035765D01*
X165250000Y-136021490D01*
X165250000Y-137009252D01*
X165212292Y-136987482D01*
X165072409Y-136950000D01*
X164927591Y-136950000D01*
X164787708Y-136987482D01*
X164750000Y-137009252D01*
X164750000Y-136021490D01*
X164749999Y-136021490D01*
X164659875Y-136035765D01*
X164442431Y-136106417D01*
X164238719Y-136210213D01*
X164055939Y-136343010D01*
X163990132Y-136366490D01*
X163922079Y-136350664D01*
X163873384Y-136300558D01*
X163866875Y-136286033D01*
X163856296Y-136257669D01*
X163856295Y-136257667D01*
X163856293Y-136257664D01*
X163770047Y-136142455D01*
X163770044Y-136142452D01*
X163654835Y-136056206D01*
X163654828Y-136056202D01*
X163519982Y-136005908D01*
X163519983Y-136005908D01*
X163460383Y-135999501D01*
X163460381Y-135999500D01*
X163460373Y-135999500D01*
X163460364Y-135999500D01*
X161459629Y-135999500D01*
X161459623Y-135999501D01*
X161400016Y-136005908D01*
X161265171Y-136056202D01*
X161265164Y-136056206D01*
X161149955Y-136142452D01*
X161149952Y-136142455D01*
X161063706Y-136257664D01*
X161063702Y-136257671D01*
X161013408Y-136392517D01*
X161007001Y-136452116D01*
X161007000Y-136452135D01*
X150500500Y-136452135D01*
X150500500Y-118500000D01*
X158939500Y-118500000D01*
X158939500Y-118503441D01*
X158939500Y-133250003D01*
X158942396Y-133304037D01*
X158943076Y-133308486D01*
X158944500Y-133327223D01*
X158944500Y-133353413D01*
X158954211Y-133452019D01*
X158954212Y-133452026D01*
X158954213Y-133452032D01*
X158971187Y-133537369D01*
X158994561Y-133654884D01*
X159023331Y-133749727D01*
X159102483Y-133940812D01*
X159102485Y-133940817D01*
X159149187Y-134028190D01*
X159149204Y-134028218D01*
X159264090Y-134200158D01*
X159264107Y-134200181D01*
X159326973Y-134276783D01*
X159473216Y-134423026D01*
X159473221Y-134423030D01*
X159473222Y-134423031D01*
X159549824Y-134485897D01*
X159549831Y-134485902D01*
X159549841Y-134485909D01*
X159721781Y-134600795D01*
X159721786Y-134600798D01*
X159721798Y-134600806D01*
X159721807Y-134600810D01*
X159721809Y-134600812D01*
X159809182Y-134647514D01*
X159809184Y-134647514D01*
X159809190Y-134647518D01*
X159925645Y-134695756D01*
X160000272Y-134726668D01*
X160000276Y-134726669D01*
X160000278Y-134726670D01*
X160095110Y-134755437D01*
X160297968Y-134795787D01*
X160396584Y-134805500D01*
X160456355Y-134805500D01*
X160474001Y-134806762D01*
X160500000Y-134810500D01*
X160500003Y-134810500D01*
X169500004Y-134810500D01*
X169509982Y-134809964D01*
X169554036Y-134807604D01*
X169554044Y-134807601D01*
X169558486Y-134806924D01*
X169577223Y-134805500D01*
X169603414Y-134805500D01*
X169603416Y-134805500D01*
X169702032Y-134795787D01*
X169904890Y-134755437D01*
X169999722Y-134726670D01*
X170190810Y-134647518D01*
X170278202Y-134600806D01*
X170450176Y-134485897D01*
X170526778Y-134423031D01*
X170673031Y-134276778D01*
X170735897Y-134200176D01*
X170850806Y-134028202D01*
X170897518Y-133940810D01*
X170976670Y-133749722D01*
X171005437Y-133654890D01*
X171045787Y-133452032D01*
X171055500Y-133353416D01*
X171055500Y-133293645D01*
X171056762Y-133275999D01*
X171057031Y-133274125D01*
X171060500Y-133250000D01*
X171060500Y-118500000D01*
X171057604Y-118445964D01*
X171057604Y-118445963D01*
X171056924Y-118441515D01*
X171055500Y-118422778D01*
X171055500Y-118396586D01*
X171045788Y-118297980D01*
X171045787Y-118297968D01*
X171005437Y-118095110D01*
X170976670Y-118000278D01*
X170897518Y-117809190D01*
X170850806Y-117721798D01*
X170850795Y-117721781D01*
X170735909Y-117549841D01*
X170735902Y-117549831D01*
X170735897Y-117549824D01*
X170673031Y-117473222D01*
X170673030Y-117473221D01*
X170673026Y-117473216D01*
X170526783Y-117326973D01*
X170450181Y-117264107D01*
X170450158Y-117264090D01*
X170278218Y-117149204D01*
X170278190Y-117149187D01*
X170190817Y-117102485D01*
X170190812Y-117102483D01*
X169999727Y-117023331D01*
X169904884Y-116994561D01*
X169787369Y-116971187D01*
X169702032Y-116954213D01*
X169702026Y-116954212D01*
X169702019Y-116954211D01*
X169624605Y-116946587D01*
X169603416Y-116944500D01*
X169603414Y-116944500D01*
X169543645Y-116944500D01*
X169525999Y-116943238D01*
X169500001Y-116939500D01*
X169500000Y-116939500D01*
X160500000Y-116939500D01*
X160499996Y-116939500D01*
X160445962Y-116942396D01*
X160441514Y-116943076D01*
X160422777Y-116944500D01*
X160396584Y-116944500D01*
X160377450Y-116946384D01*
X160297980Y-116954211D01*
X160297971Y-116954212D01*
X160297968Y-116954213D01*
X160241610Y-116965423D01*
X160095115Y-116994561D01*
X160000272Y-117023331D01*
X159809187Y-117102483D01*
X159809182Y-117102485D01*
X159721809Y-117149187D01*
X159721781Y-117149204D01*
X159549841Y-117264090D01*
X159549818Y-117264107D01*
X159473216Y-117326973D01*
X159326973Y-117473216D01*
X159264107Y-117549818D01*
X159264090Y-117549841D01*
X159149204Y-117721781D01*
X159149187Y-117721809D01*
X159102485Y-117809182D01*
X159102483Y-117809187D01*
X159023331Y-118000272D01*
X158994561Y-118095115D01*
X158954211Y-118297980D01*
X158944500Y-118396586D01*
X158944500Y-118456354D01*
X158943481Y-118470600D01*
X158943504Y-118472037D01*
X158943376Y-118473040D01*
X158939500Y-118500000D01*
X150500500Y-118500000D01*
X150500500Y-106174071D01*
X156400000Y-106174071D01*
X156400000Y-106425928D01*
X156439397Y-106674669D01*
X156517219Y-106914184D01*
X156631557Y-107138583D01*
X156705748Y-107240697D01*
X156705748Y-107240698D01*
X157435387Y-106511059D01*
X157440889Y-106531591D01*
X157519881Y-106668408D01*
X157631592Y-106780119D01*
X157768409Y-106859111D01*
X157788940Y-106864612D01*
X157059300Y-107594250D01*
X157161415Y-107668441D01*
X157164399Y-107670270D01*
X157165295Y-107671260D01*
X157165359Y-107671307D01*
X157165349Y-107671320D01*
X157211276Y-107722080D01*
X157222701Y-107791009D01*
X157195047Y-107855173D01*
X157137093Y-107894200D01*
X157099613Y-107900000D01*
X156952155Y-107900000D01*
X156892627Y-107906401D01*
X156892620Y-107906403D01*
X156757913Y-107956645D01*
X156757906Y-107956649D01*
X156642812Y-108042809D01*
X156642809Y-108042812D01*
X156556649Y-108157906D01*
X156556645Y-108157913D01*
X156506403Y-108292620D01*
X156506401Y-108292627D01*
X156500000Y-108352155D01*
X156500000Y-109150000D01*
X157451518Y-109150000D01*
X157440889Y-109168409D01*
X157400000Y-109321009D01*
X157400000Y-109478991D01*
X157440889Y-109631591D01*
X157451518Y-109650000D01*
X156500000Y-109650000D01*
X156500000Y-110447844D01*
X156506401Y-110507372D01*
X156506403Y-110507379D01*
X156556645Y-110642086D01*
X156556649Y-110642093D01*
X156642809Y-110757187D01*
X156642812Y-110757190D01*
X156757906Y-110843350D01*
X156757913Y-110843354D01*
X156892620Y-110893596D01*
X156892627Y-110893598D01*
X156952155Y-110899999D01*
X156952172Y-110900000D01*
X157750000Y-110900000D01*
X157750000Y-109948482D01*
X157768409Y-109959111D01*
X157921009Y-110000000D01*
X158078991Y-110000000D01*
X158231591Y-109959111D01*
X158250000Y-109948482D01*
X158250000Y-110900000D01*
X159047828Y-110900000D01*
X159047844Y-110899999D01*
X159107372Y-110893598D01*
X159107379Y-110893596D01*
X159242086Y-110843354D01*
X159242093Y-110843350D01*
X159357187Y-110757190D01*
X159357190Y-110757187D01*
X159443350Y-110642093D01*
X159443354Y-110642086D01*
X159493596Y-110507379D01*
X159493598Y-110507372D01*
X159499999Y-110447844D01*
X159500000Y-110447827D01*
X159500000Y-109650000D01*
X158548482Y-109650000D01*
X158559111Y-109631591D01*
X158600000Y-109478991D01*
X158600000Y-109321009D01*
X158559111Y-109168409D01*
X158548482Y-109150000D01*
X159500000Y-109150000D01*
X159500000Y-108352172D01*
X159499999Y-108352155D01*
X159493598Y-108292627D01*
X159493596Y-108292620D01*
X159443354Y-108157913D01*
X159443350Y-108157906D01*
X159357190Y-108042812D01*
X159357187Y-108042809D01*
X159242093Y-107956649D01*
X159242086Y-107956645D01*
X159107379Y-107906403D01*
X159107372Y-107906401D01*
X159047844Y-107900000D01*
X158900387Y-107900000D01*
X158833348Y-107880315D01*
X158787593Y-107827511D01*
X158777649Y-107758353D01*
X158806674Y-107694797D01*
X158835591Y-107670277D01*
X158838571Y-107668450D01*
X158940697Y-107594250D01*
X158940698Y-107594250D01*
X158211059Y-106864612D01*
X158231591Y-106859111D01*
X158368408Y-106780119D01*
X158480119Y-106668408D01*
X158559111Y-106531591D01*
X158564612Y-106511060D01*
X159294250Y-107240698D01*
X159294250Y-107240697D01*
X159368442Y-107138581D01*
X159368446Y-107138575D01*
X159482780Y-106914184D01*
X159560602Y-106674669D01*
X159600000Y-106425928D01*
X159600000Y-106174071D01*
X170400000Y-106174071D01*
X170400000Y-106425928D01*
X170439397Y-106674669D01*
X170517219Y-106914184D01*
X170631557Y-107138583D01*
X170705748Y-107240697D01*
X170705748Y-107240698D01*
X171435387Y-106511059D01*
X171440889Y-106531591D01*
X171519881Y-106668408D01*
X171631592Y-106780119D01*
X171768409Y-106859111D01*
X171788940Y-106864612D01*
X171059300Y-107594250D01*
X171161415Y-107668441D01*
X171164399Y-107670270D01*
X171165295Y-107671260D01*
X171165359Y-107671307D01*
X171165349Y-107671320D01*
X171211276Y-107722080D01*
X171222701Y-107791009D01*
X171195047Y-107855173D01*
X171137093Y-107894200D01*
X171099613Y-107900000D01*
X170952155Y-107900000D01*
X170892627Y-107906401D01*
X170892620Y-107906403D01*
X170757913Y-107956645D01*
X170757906Y-107956649D01*
X170642812Y-108042809D01*
X170642809Y-108042812D01*
X170556649Y-108157906D01*
X170556645Y-108157913D01*
X170506403Y-108292620D01*
X170506401Y-108292627D01*
X170500000Y-108352155D01*
X170500000Y-109150000D01*
X171451518Y-109150000D01*
X171440889Y-109168409D01*
X171400000Y-109321009D01*
X171400000Y-109478991D01*
X171440889Y-109631591D01*
X171451518Y-109650000D01*
X170500000Y-109650000D01*
X170500000Y-110447844D01*
X170506401Y-110507372D01*
X170506403Y-110507379D01*
X170556645Y-110642086D01*
X170556649Y-110642093D01*
X170642809Y-110757187D01*
X170642812Y-110757190D01*
X170757906Y-110843350D01*
X170757913Y-110843354D01*
X170892620Y-110893596D01*
X170892627Y-110893598D01*
X170952155Y-110899999D01*
X170952172Y-110900000D01*
X171750000Y-110900000D01*
X171750000Y-109948482D01*
X171768409Y-109959111D01*
X171921009Y-110000000D01*
X172078991Y-110000000D01*
X172231591Y-109959111D01*
X172250000Y-109948482D01*
X172250000Y-110900000D01*
X173047828Y-110900000D01*
X173047844Y-110899999D01*
X173107372Y-110893598D01*
X173107379Y-110893596D01*
X173242086Y-110843354D01*
X173242093Y-110843350D01*
X173357187Y-110757190D01*
X173357190Y-110757187D01*
X173443350Y-110642093D01*
X173443354Y-110642086D01*
X173493596Y-110507379D01*
X173493598Y-110507372D01*
X173499999Y-110447844D01*
X173500000Y-110447827D01*
X173500000Y-109650000D01*
X172548482Y-109650000D01*
X172559111Y-109631591D01*
X172600000Y-109478991D01*
X172600000Y-109321009D01*
X172559111Y-109168409D01*
X172548482Y-109150000D01*
X173500000Y-109150000D01*
X173500000Y-108352172D01*
X173499999Y-108352155D01*
X173493598Y-108292627D01*
X173493596Y-108292620D01*
X173443354Y-108157913D01*
X173443350Y-108157906D01*
X173357190Y-108042812D01*
X173357187Y-108042809D01*
X173242093Y-107956649D01*
X173242086Y-107956645D01*
X173107379Y-107906403D01*
X173107372Y-107906401D01*
X173047844Y-107900000D01*
X172900387Y-107900000D01*
X172833348Y-107880315D01*
X172787593Y-107827511D01*
X172777649Y-107758353D01*
X172806674Y-107694797D01*
X172835591Y-107670277D01*
X172838571Y-107668450D01*
X172940697Y-107594250D01*
X172940698Y-107594250D01*
X172211059Y-106864612D01*
X172231591Y-106859111D01*
X172368408Y-106780119D01*
X172480119Y-106668408D01*
X172559111Y-106531591D01*
X172564612Y-106511060D01*
X173294250Y-107240698D01*
X173294250Y-107240697D01*
X173368442Y-107138581D01*
X173368446Y-107138575D01*
X173482780Y-106914184D01*
X173560602Y-106674669D01*
X173600000Y-106425928D01*
X173600000Y-106174071D01*
X173560602Y-105925330D01*
X173482780Y-105685815D01*
X173368442Y-105461416D01*
X173294250Y-105359301D01*
X173294250Y-105359300D01*
X172564612Y-106088939D01*
X172559111Y-106068409D01*
X172480119Y-105931592D01*
X172368408Y-105819881D01*
X172231591Y-105740889D01*
X172211058Y-105735387D01*
X172940698Y-105005748D01*
X172838583Y-104931557D01*
X172614184Y-104817219D01*
X172374669Y-104739397D01*
X172125928Y-104700000D01*
X171874072Y-104700000D01*
X171625330Y-104739397D01*
X171385815Y-104817219D01*
X171161413Y-104931559D01*
X171059301Y-105005747D01*
X171059300Y-105005748D01*
X171788940Y-105735387D01*
X171768409Y-105740889D01*
X171631592Y-105819881D01*
X171519881Y-105931592D01*
X171440889Y-106068409D01*
X171435387Y-106088940D01*
X170705748Y-105359300D01*
X170705747Y-105359301D01*
X170631559Y-105461413D01*
X170517219Y-105685815D01*
X170439397Y-105925330D01*
X170400000Y-106174071D01*
X159600000Y-106174071D01*
X159560602Y-105925330D01*
X159482780Y-105685815D01*
X159368442Y-105461416D01*
X159294250Y-105359301D01*
X159294250Y-105359300D01*
X158564612Y-106088939D01*
X158559111Y-106068409D01*
X158480119Y-105931592D01*
X158368408Y-105819881D01*
X158231591Y-105740889D01*
X158211058Y-105735387D01*
X158940698Y-105005748D01*
X158838583Y-104931557D01*
X158614184Y-104817219D01*
X158374669Y-104739397D01*
X158125928Y-104700000D01*
X157874072Y-104700000D01*
X157625330Y-104739397D01*
X157385815Y-104817219D01*
X157161413Y-104931559D01*
X157059301Y-105005747D01*
X157059300Y-105005748D01*
X157788940Y-105735387D01*
X157768409Y-105740889D01*
X157631592Y-105819881D01*
X157519881Y-105931592D01*
X157440889Y-106068409D01*
X157435387Y-106088940D01*
X156705748Y-105359300D01*
X156705747Y-105359301D01*
X156631559Y-105461413D01*
X156517219Y-105685815D01*
X156439397Y-105925330D01*
X156400000Y-106174071D01*
X150500500Y-106174071D01*
X150500500Y-102919995D01*
X156494858Y-102919995D01*
X156494859Y-102920007D01*
X156515070Y-103165831D01*
X156575159Y-103405055D01*
X156575162Y-103405063D01*
X156673512Y-103631253D01*
X156673514Y-103631256D01*
X156807492Y-103838355D01*
X156973496Y-104020790D01*
X157167068Y-104173664D01*
X157383008Y-104292869D01*
X157383017Y-104292873D01*
X157615508Y-104375203D01*
X157615513Y-104375204D01*
X157615518Y-104375206D01*
X157615524Y-104375207D01*
X157615528Y-104375208D01*
X157665797Y-104384162D01*
X157858354Y-104418461D01*
X157858347Y-104418461D01*
X157877566Y-104418695D01*
X158104993Y-104421475D01*
X158348813Y-104384165D01*
X158583266Y-104307534D01*
X158802054Y-104193640D01*
X158999303Y-104045542D01*
X159169714Y-103867216D01*
X159308712Y-103663452D01*
X159412564Y-103439722D01*
X159478481Y-103202035D01*
X159504692Y-102956774D01*
X159502571Y-102919995D01*
X170494858Y-102919995D01*
X170494859Y-102920007D01*
X170515070Y-103165831D01*
X170575159Y-103405055D01*
X170575162Y-103405063D01*
X170673512Y-103631253D01*
X170673514Y-103631256D01*
X170807492Y-103838355D01*
X170973496Y-104020790D01*
X171167068Y-104173664D01*
X171383008Y-104292869D01*
X171383017Y-104292873D01*
X171615508Y-104375203D01*
X171615513Y-104375204D01*
X171615518Y-104375206D01*
X171615524Y-104375207D01*
X171615528Y-104375208D01*
X171665797Y-104384162D01*
X171858354Y-104418461D01*
X171858347Y-104418461D01*
X171877566Y-104418695D01*
X172104993Y-104421475D01*
X172348813Y-104384165D01*
X172583266Y-104307534D01*
X172802054Y-104193640D01*
X172999303Y-104045542D01*
X173169714Y-103867216D01*
X173308712Y-103663452D01*
X173412564Y-103439722D01*
X173478481Y-103202035D01*
X173504692Y-102956774D01*
X173490493Y-102710525D01*
X173466020Y-102601928D01*
X173436268Y-102469907D01*
X173394044Y-102365921D01*
X173343468Y-102241366D01*
X173214589Y-102031055D01*
X173214588Y-102031054D01*
X173214587Y-102031052D01*
X173139601Y-101944487D01*
X173053092Y-101844618D01*
X172863313Y-101687061D01*
X172863311Y-101687059D01*
X172863303Y-101687054D01*
X172650349Y-101562614D01*
X172419927Y-101474624D01*
X172355731Y-101461563D01*
X172178215Y-101425447D01*
X172178216Y-101425447D01*
X172137132Y-101423940D01*
X171931722Y-101416408D01*
X171931720Y-101416408D01*
X171931717Y-101416408D01*
X171687062Y-101447750D01*
X171450815Y-101518627D01*
X171450813Y-101518628D01*
X171229302Y-101627144D01*
X171028500Y-101770374D01*
X171028493Y-101770380D01*
X170853777Y-101944487D01*
X170853773Y-101944492D01*
X170709843Y-102144791D01*
X170709840Y-102144797D01*
X170600555Y-102365918D01*
X170600554Y-102365923D01*
X170528850Y-102601928D01*
X170496657Y-102846459D01*
X170496656Y-102846480D01*
X170494858Y-102919995D01*
X159502571Y-102919995D01*
X159490493Y-102710525D01*
X159466020Y-102601928D01*
X159436268Y-102469907D01*
X159394044Y-102365921D01*
X159343468Y-102241366D01*
X159214589Y-102031055D01*
X159214588Y-102031054D01*
X159214587Y-102031052D01*
X159139601Y-101944487D01*
X159053092Y-101844618D01*
X158863313Y-101687061D01*
X158863311Y-101687059D01*
X158863303Y-101687054D01*
X158650349Y-101562614D01*
X158419927Y-101474624D01*
X158355731Y-101461563D01*
X158178215Y-101425447D01*
X158178216Y-101425447D01*
X158137132Y-101423940D01*
X157931722Y-101416408D01*
X157931720Y-101416408D01*
X157931717Y-101416408D01*
X157687062Y-101447750D01*
X157450815Y-101518627D01*
X157450813Y-101518628D01*
X157229302Y-101627144D01*
X157028500Y-101770374D01*
X157028493Y-101770380D01*
X156853777Y-101944487D01*
X156853773Y-101944492D01*
X156709843Y-102144791D01*
X156709840Y-102144797D01*
X156600555Y-102365918D01*
X156600554Y-102365923D01*
X156528850Y-102601928D01*
X156496657Y-102846459D01*
X156496656Y-102846480D01*
X156494858Y-102919995D01*
X150500500Y-102919995D01*
X150500500Y-97874038D01*
X156399500Y-97874038D01*
X156399500Y-98125961D01*
X156438910Y-98374785D01*
X156516760Y-98614383D01*
X156631132Y-98838848D01*
X156779201Y-99042649D01*
X156779205Y-99042654D01*
X156957345Y-99220794D01*
X156957350Y-99220798D01*
X157135117Y-99349952D01*
X157161155Y-99368870D01*
X157304184Y-99441747D01*
X157385616Y-99483239D01*
X157385618Y-99483239D01*
X157385621Y-99483241D01*
X157625215Y-99561090D01*
X157874038Y-99600500D01*
X157874039Y-99600500D01*
X158125961Y-99600500D01*
X158125962Y-99600500D01*
X158374785Y-99561090D01*
X158614379Y-99483241D01*
X158838845Y-99368870D01*
X159042656Y-99220793D01*
X159220793Y-99042656D01*
X159368870Y-98838845D01*
X159455815Y-98668204D01*
X159503789Y-98617409D01*
X159566300Y-98600500D01*
X165533331Y-98600500D01*
X165533347Y-98600501D01*
X165540943Y-98600501D01*
X165699054Y-98600501D01*
X165699057Y-98600501D01*
X165851785Y-98559577D01*
X165901904Y-98530639D01*
X165988716Y-98480520D01*
X166100520Y-98368716D01*
X166100520Y-98368714D01*
X166110728Y-98358507D01*
X166110730Y-98358504D01*
X166595196Y-97874038D01*
X170399500Y-97874038D01*
X170399500Y-98125961D01*
X170438910Y-98374785D01*
X170516760Y-98614383D01*
X170631132Y-98838848D01*
X170779201Y-99042649D01*
X170779205Y-99042654D01*
X170957345Y-99220794D01*
X170957350Y-99220798D01*
X171135117Y-99349952D01*
X171161155Y-99368870D01*
X171304184Y-99441747D01*
X171385616Y-99483239D01*
X171385618Y-99483239D01*
X171385621Y-99483241D01*
X171625215Y-99561090D01*
X171874038Y-99600500D01*
X171874039Y-99600500D01*
X172125961Y-99600500D01*
X172125962Y-99600500D01*
X172374785Y-99561090D01*
X172614379Y-99483241D01*
X172838845Y-99368870D01*
X173042656Y-99220793D01*
X173220793Y-99042656D01*
X173368870Y-98838845D01*
X173483241Y-98614379D01*
X173561090Y-98374785D01*
X173600500Y-98125962D01*
X173600500Y-97874038D01*
X173561090Y-97625215D01*
X173483241Y-97385621D01*
X173483239Y-97385618D01*
X173483239Y-97385616D01*
X173441747Y-97304184D01*
X173368870Y-97161155D01*
X173349952Y-97135117D01*
X173220798Y-96957350D01*
X173220794Y-96957345D01*
X173042654Y-96779205D01*
X173042649Y-96779201D01*
X172838848Y-96631132D01*
X172838847Y-96631131D01*
X172838845Y-96631130D01*
X172768747Y-96595413D01*
X172614383Y-96516760D01*
X172374785Y-96438910D01*
X172125962Y-96399500D01*
X171874038Y-96399500D01*
X171749626Y-96419205D01*
X171625214Y-96438910D01*
X171385616Y-96516760D01*
X171161151Y-96631132D01*
X170957350Y-96779201D01*
X170957345Y-96779205D01*
X170779205Y-96957345D01*
X170779201Y-96957350D01*
X170631132Y-97161151D01*
X170516760Y-97385616D01*
X170438910Y-97625214D01*
X170399500Y-97874038D01*
X166595196Y-97874038D01*
X172555158Y-91914075D01*
X172616479Y-91880592D01*
X172681151Y-91883825D01*
X172695466Y-91888477D01*
X172897648Y-91920500D01*
X172897649Y-91920500D01*
X173102351Y-91920500D01*
X173102352Y-91920500D01*
X173304534Y-91888477D01*
X173499219Y-91825220D01*
X173681610Y-91732287D01*
X173774590Y-91664732D01*
X173847213Y-91611971D01*
X173847215Y-91611968D01*
X173847219Y-91611966D01*
X173991966Y-91467219D01*
X174112287Y-91301610D01*
X174205220Y-91119219D01*
X174268477Y-90924534D01*
X174300500Y-90722352D01*
X174300500Y-90517648D01*
X174297705Y-90499999D01*
X174283801Y-90412214D01*
X174281499Y-90397682D01*
X175700000Y-90397682D01*
X175700000Y-90602317D01*
X175732009Y-90804417D01*
X175795244Y-90999031D01*
X175888141Y-91181350D01*
X175888147Y-91181359D01*
X175920523Y-91225921D01*
X175920524Y-91225922D01*
X176600000Y-90546446D01*
X176600000Y-90552661D01*
X176627259Y-90654394D01*
X176679920Y-90745606D01*
X176754394Y-90820080D01*
X176845606Y-90872741D01*
X176947339Y-90900000D01*
X176953553Y-90900000D01*
X176274076Y-91579474D01*
X176318650Y-91611859D01*
X176500968Y-91704755D01*
X176695582Y-91767990D01*
X176897683Y-91800000D01*
X177102317Y-91800000D01*
X177304417Y-91767990D01*
X177499031Y-91704755D01*
X177681349Y-91611859D01*
X177725921Y-91579474D01*
X177046447Y-90900000D01*
X177052661Y-90900000D01*
X177154394Y-90872741D01*
X177245606Y-90820080D01*
X177320080Y-90745606D01*
X177372741Y-90654394D01*
X177400000Y-90552661D01*
X177400000Y-90546448D01*
X178079474Y-91225922D01*
X178079474Y-91225921D01*
X178111859Y-91181349D01*
X178204755Y-90999031D01*
X178267990Y-90804417D01*
X178300000Y-90602317D01*
X178300000Y-90397682D01*
X178267990Y-90195582D01*
X178204755Y-90000968D01*
X178111859Y-89818650D01*
X178079474Y-89774077D01*
X178079474Y-89774076D01*
X177400000Y-90453551D01*
X177400000Y-90447339D01*
X177372741Y-90345606D01*
X177320080Y-90254394D01*
X177245606Y-90179920D01*
X177154394Y-90127259D01*
X177052661Y-90100000D01*
X177046446Y-90100000D01*
X177725922Y-89420524D01*
X177725921Y-89420523D01*
X177681359Y-89388147D01*
X177681350Y-89388141D01*
X177499031Y-89295244D01*
X177304417Y-89232009D01*
X177102317Y-89200000D01*
X176897683Y-89200000D01*
X176695582Y-89232009D01*
X176500968Y-89295244D01*
X176318644Y-89388143D01*
X176274077Y-89420523D01*
X176274077Y-89420524D01*
X176953554Y-90100000D01*
X176947339Y-90100000D01*
X176845606Y-90127259D01*
X176754394Y-90179920D01*
X176679920Y-90254394D01*
X176627259Y-90345606D01*
X176600000Y-90447339D01*
X176600000Y-90453553D01*
X175920524Y-89774077D01*
X175920523Y-89774077D01*
X175888143Y-89818644D01*
X175795244Y-90000968D01*
X175732009Y-90195582D01*
X175700000Y-90397682D01*
X174281499Y-90397682D01*
X174268477Y-90315465D01*
X174224435Y-90179920D01*
X174205220Y-90120781D01*
X174205218Y-90120778D01*
X174205218Y-90120776D01*
X174112419Y-89938650D01*
X174112287Y-89938390D01*
X174025292Y-89818650D01*
X173991971Y-89772786D01*
X173847217Y-89628032D01*
X173847212Y-89628028D01*
X173764752Y-89568117D01*
X173764729Y-89568102D01*
X173681609Y-89507712D01*
X173499223Y-89414781D01*
X173304534Y-89351522D01*
X173129995Y-89323878D01*
X173102352Y-89319500D01*
X172897648Y-89319500D01*
X172873329Y-89323351D01*
X172695465Y-89351522D01*
X172500776Y-89414781D01*
X172318386Y-89507715D01*
X172152786Y-89628028D01*
X172008028Y-89772786D01*
X171887715Y-89938386D01*
X171794781Y-90120776D01*
X171731522Y-90315465D01*
X171699500Y-90517648D01*
X171699500Y-90722351D01*
X171731522Y-90924534D01*
X171736173Y-90938848D01*
X171738165Y-91008690D01*
X171705921Y-91064842D01*
X165407584Y-97363181D01*
X165346261Y-97396666D01*
X165319903Y-97399500D01*
X159566300Y-97399500D01*
X159499261Y-97379815D01*
X159455815Y-97331795D01*
X159368870Y-97161155D01*
X159349952Y-97135117D01*
X159220798Y-96957350D01*
X159220794Y-96957345D01*
X159042654Y-96779205D01*
X159042649Y-96779201D01*
X158838848Y-96631132D01*
X158838847Y-96631131D01*
X158838845Y-96631130D01*
X158768747Y-96595413D01*
X158614383Y-96516760D01*
X158374785Y-96438910D01*
X158125962Y-96399500D01*
X157874038Y-96399500D01*
X157749626Y-96419205D01*
X157625214Y-96438910D01*
X157385616Y-96516760D01*
X157161151Y-96631132D01*
X156957350Y-96779201D01*
X156957345Y-96779205D01*
X156779205Y-96957345D01*
X156779201Y-96957350D01*
X156631132Y-97161151D01*
X156516760Y-97385616D01*
X156438910Y-97625214D01*
X156399500Y-97874038D01*
X150500500Y-97874038D01*
X150500500Y-82092135D01*
X151699500Y-82092135D01*
X151699500Y-83787870D01*
X151699501Y-83787876D01*
X151705908Y-83847483D01*
X151756202Y-83982328D01*
X151756206Y-83982335D01*
X151842452Y-84097544D01*
X151842455Y-84097547D01*
X151957664Y-84183793D01*
X151957671Y-84183797D01*
X152092517Y-84234091D01*
X152092516Y-84234091D01*
X152099444Y-84234835D01*
X152152127Y-84240500D01*
X153399902Y-84240499D01*
X153466941Y-84260184D01*
X153487583Y-84276818D01*
X155115139Y-85904374D01*
X155115149Y-85904385D01*
X155119479Y-85908715D01*
X155119480Y-85908716D01*
X155231284Y-86020520D01*
X155318095Y-86070639D01*
X155318097Y-86070641D01*
X155368213Y-86099576D01*
X155368215Y-86099577D01*
X155520942Y-86140500D01*
X155520943Y-86140500D01*
X159560398Y-86140500D01*
X159627437Y-86160185D01*
X159670883Y-86208205D01*
X159677715Y-86221614D01*
X159798028Y-86387213D01*
X159942786Y-86531971D01*
X160062180Y-86618714D01*
X160108390Y-86652287D01*
X160199840Y-86698883D01*
X160201080Y-86699515D01*
X160251876Y-86747490D01*
X160268671Y-86815311D01*
X160246134Y-86881446D01*
X160201080Y-86920485D01*
X160108386Y-86967715D01*
X159942786Y-87088028D01*
X159798028Y-87232786D01*
X159677715Y-87398385D01*
X159670883Y-87411795D01*
X159622909Y-87462591D01*
X159560398Y-87479500D01*
X155566670Y-87479500D01*
X155566654Y-87479499D01*
X155559058Y-87479499D01*
X155400943Y-87479499D01*
X155324579Y-87499961D01*
X155248214Y-87520423D01*
X155248209Y-87520426D01*
X155111290Y-87599475D01*
X155111282Y-87599481D01*
X153444842Y-89265921D01*
X153383519Y-89299406D01*
X153318848Y-89296173D01*
X153304534Y-89291522D01*
X153129995Y-89263878D01*
X153102352Y-89259500D01*
X152897648Y-89259500D01*
X152873329Y-89263351D01*
X152695465Y-89291522D01*
X152500776Y-89354781D01*
X152318386Y-89447715D01*
X152152786Y-89568028D01*
X152008028Y-89712786D01*
X151887715Y-89878386D01*
X151794781Y-90060776D01*
X151731522Y-90255465D01*
X151706696Y-90412214D01*
X151699500Y-90457648D01*
X151699500Y-90662352D01*
X151701133Y-90672661D01*
X151731522Y-90864534D01*
X151794781Y-91059223D01*
X151887715Y-91241613D01*
X152008028Y-91407213D01*
X152152786Y-91551971D01*
X152235371Y-91611971D01*
X152318390Y-91672287D01*
X152434607Y-91731503D01*
X152500776Y-91765218D01*
X152500778Y-91765218D01*
X152500781Y-91765220D01*
X152605137Y-91799127D01*
X152695465Y-91828477D01*
X152796557Y-91844488D01*
X152897648Y-91860500D01*
X152897649Y-91860500D01*
X153102351Y-91860500D01*
X153102352Y-91860500D01*
X153304534Y-91828477D01*
X153499219Y-91765220D01*
X153681610Y-91672287D01*
X153774590Y-91604732D01*
X153847213Y-91551971D01*
X153847215Y-91551968D01*
X153847219Y-91551966D01*
X153991966Y-91407219D01*
X153991968Y-91407215D01*
X153991971Y-91407213D01*
X154044732Y-91334590D01*
X154112287Y-91241610D01*
X154205220Y-91059219D01*
X154268477Y-90864534D01*
X154300500Y-90662352D01*
X154300500Y-90517648D01*
X155699500Y-90517648D01*
X155699500Y-90722351D01*
X155731522Y-90924534D01*
X155794781Y-91119223D01*
X155849147Y-91225921D01*
X155887712Y-91301609D01*
X155887715Y-91301613D01*
X156008028Y-91467213D01*
X156152786Y-91611971D01*
X156235806Y-91672287D01*
X156318390Y-91732287D01*
X156434607Y-91791503D01*
X156500776Y-91825218D01*
X156500778Y-91825218D01*
X156500781Y-91825220D01*
X156605137Y-91859127D01*
X156695465Y-91888477D01*
X156796557Y-91904488D01*
X156897648Y-91920500D01*
X156897649Y-91920500D01*
X157102351Y-91920500D01*
X157102352Y-91920500D01*
X157304534Y-91888477D01*
X157318842Y-91883827D01*
X157388682Y-91881831D01*
X157444842Y-91914077D01*
X159395139Y-93864374D01*
X159395149Y-93864385D01*
X159399479Y-93868715D01*
X159399480Y-93868716D01*
X159511284Y-93980520D01*
X159598095Y-94030639D01*
X159598097Y-94030641D01*
X159636151Y-94052611D01*
X159648215Y-94059577D01*
X159800943Y-94100500D01*
X163163331Y-94100500D01*
X163163347Y-94100501D01*
X163170943Y-94100501D01*
X163329054Y-94100501D01*
X163329057Y-94100501D01*
X163481785Y-94059577D01*
X163531904Y-94030639D01*
X163618716Y-93980520D01*
X163730520Y-93868716D01*
X163730520Y-93868714D01*
X163740728Y-93858507D01*
X163740730Y-93858504D01*
X166906051Y-90693182D01*
X166967370Y-90659700D01*
X167037062Y-90664684D01*
X167092995Y-90706556D01*
X167116201Y-90761468D01*
X167142009Y-90924417D01*
X167205244Y-91119031D01*
X167298140Y-91301349D01*
X167418417Y-91466894D01*
X167418417Y-91466895D01*
X167563104Y-91611582D01*
X167728650Y-91731859D01*
X167910968Y-91824755D01*
X168105582Y-91887990D01*
X168307683Y-91920000D01*
X168560000Y-91920000D01*
X168560000Y-90935686D01*
X168564394Y-90940080D01*
X168655606Y-90992741D01*
X168757339Y-91020000D01*
X168862661Y-91020000D01*
X168964394Y-90992741D01*
X169055606Y-90940080D01*
X169060000Y-90935686D01*
X169060000Y-91920000D01*
X169312317Y-91920000D01*
X169514417Y-91887990D01*
X169709031Y-91824755D01*
X169891349Y-91731859D01*
X170056894Y-91611582D01*
X170056895Y-91611582D01*
X170201582Y-91466895D01*
X170201582Y-91466894D01*
X170321859Y-91301349D01*
X170414755Y-91119029D01*
X170477990Y-90924413D01*
X170486609Y-90870000D01*
X169125686Y-90870000D01*
X169130080Y-90865606D01*
X169182741Y-90774394D01*
X169210000Y-90672661D01*
X169210000Y-90567339D01*
X169182741Y-90465606D01*
X169130080Y-90374394D01*
X169125686Y-90370000D01*
X170486609Y-90370000D01*
X170477990Y-90315586D01*
X170414755Y-90120970D01*
X170321859Y-89938650D01*
X170201582Y-89773105D01*
X170201582Y-89773104D01*
X170056895Y-89628417D01*
X169891349Y-89508140D01*
X169798370Y-89460765D01*
X169747574Y-89412790D01*
X169730779Y-89344969D01*
X169753316Y-89278835D01*
X169798370Y-89239795D01*
X169813651Y-89232009D01*
X169891610Y-89192287D01*
X169912770Y-89176913D01*
X170057213Y-89071971D01*
X170057215Y-89071968D01*
X170057219Y-89071966D01*
X170201966Y-88927219D01*
X170201968Y-88927215D01*
X170201971Y-88927213D01*
X170254732Y-88854590D01*
X170322287Y-88761610D01*
X170415220Y-88579219D01*
X170478477Y-88384534D01*
X170510500Y-88182352D01*
X170510500Y-87977648D01*
X170478477Y-87775466D01*
X170478476Y-87775464D01*
X170421296Y-87599481D01*
X170415220Y-87580781D01*
X170415218Y-87580778D01*
X170415218Y-87580776D01*
X170377549Y-87506847D01*
X170322287Y-87398390D01*
X170314556Y-87387749D01*
X170201971Y-87232786D01*
X170057213Y-87088028D01*
X169891614Y-86967715D01*
X169885006Y-86964348D01*
X169798917Y-86920483D01*
X169748123Y-86872511D01*
X169731328Y-86804690D01*
X169753865Y-86738555D01*
X169798917Y-86699516D01*
X169891610Y-86652287D01*
X169937820Y-86618714D01*
X170057213Y-86531971D01*
X170057215Y-86531968D01*
X170057219Y-86531966D01*
X170201966Y-86387219D01*
X170201968Y-86387215D01*
X170201971Y-86387213D01*
X170322284Y-86221614D01*
X170322285Y-86221613D01*
X170322287Y-86221610D01*
X170329117Y-86208204D01*
X170377091Y-86157409D01*
X170439602Y-86140500D01*
X174253331Y-86140500D01*
X174253347Y-86140501D01*
X174260943Y-86140501D01*
X174419054Y-86140501D01*
X174419057Y-86140501D01*
X174571785Y-86099577D01*
X174621904Y-86070639D01*
X174708716Y-86020520D01*
X174820520Y-85908716D01*
X174820520Y-85908714D01*
X174830728Y-85898507D01*
X174830730Y-85898504D01*
X176555158Y-84174075D01*
X176616479Y-84140592D01*
X176681151Y-84143825D01*
X176695466Y-84148477D01*
X176897648Y-84180500D01*
X176897649Y-84180500D01*
X177102351Y-84180500D01*
X177102352Y-84180500D01*
X177304534Y-84148477D01*
X177499219Y-84085220D01*
X177681610Y-83992287D01*
X177798335Y-83907482D01*
X177847213Y-83871971D01*
X177847215Y-83871968D01*
X177847219Y-83871966D01*
X177991966Y-83727219D01*
X177991968Y-83727215D01*
X177991971Y-83727213D01*
X178044732Y-83654590D01*
X178112287Y-83561610D01*
X178205220Y-83379219D01*
X178268477Y-83184534D01*
X178300500Y-82982352D01*
X178300500Y-82777648D01*
X178287484Y-82695472D01*
X178268477Y-82575465D01*
X178205218Y-82380776D01*
X178171503Y-82314607D01*
X178112287Y-82198390D01*
X178079154Y-82152786D01*
X177991971Y-82032786D01*
X177847213Y-81888028D01*
X177681613Y-81767715D01*
X177681612Y-81767714D01*
X177681610Y-81767713D01*
X177610583Y-81731523D01*
X177499223Y-81674781D01*
X177304534Y-81611522D01*
X177129995Y-81583878D01*
X177102352Y-81579500D01*
X176897648Y-81579500D01*
X176873329Y-81583351D01*
X176695465Y-81611522D01*
X176500776Y-81674781D01*
X176318386Y-81767715D01*
X176152786Y-81888028D01*
X176008028Y-82032786D01*
X175887715Y-82198386D01*
X175794781Y-82380776D01*
X175731522Y-82575465D01*
X175699500Y-82777648D01*
X175699500Y-82982351D01*
X175731522Y-83184534D01*
X175736173Y-83198848D01*
X175738165Y-83268690D01*
X175705921Y-83324842D01*
X174127584Y-84903181D01*
X174066261Y-84936666D01*
X174039903Y-84939500D01*
X170439602Y-84939500D01*
X170372563Y-84919815D01*
X170329117Y-84871795D01*
X170322284Y-84858385D01*
X170201971Y-84692786D01*
X170057213Y-84548028D01*
X169891614Y-84427715D01*
X169885006Y-84424348D01*
X169798917Y-84380483D01*
X169748123Y-84332511D01*
X169731328Y-84264690D01*
X169753865Y-84198555D01*
X169798917Y-84159516D01*
X169891610Y-84112287D01*
X169937361Y-84079047D01*
X170057213Y-83991971D01*
X170057215Y-83991968D01*
X170057219Y-83991966D01*
X170201966Y-83847219D01*
X170201968Y-83847215D01*
X170201971Y-83847213D01*
X170289150Y-83727219D01*
X170322287Y-83681610D01*
X170415220Y-83499219D01*
X170478477Y-83304534D01*
X170510500Y-83102352D01*
X170510500Y-82897648D01*
X170478477Y-82695466D01*
X170415220Y-82500781D01*
X170415218Y-82500778D01*
X170415218Y-82500776D01*
X170381503Y-82434607D01*
X170322287Y-82318390D01*
X170269500Y-82245734D01*
X170201971Y-82152786D01*
X170057213Y-82008028D01*
X169891613Y-81887715D01*
X169891612Y-81887714D01*
X169891610Y-81887713D01*
X169834653Y-81858691D01*
X169709223Y-81794781D01*
X169514534Y-81731522D01*
X169339995Y-81703878D01*
X169312352Y-81699500D01*
X168307648Y-81699500D01*
X168283329Y-81703351D01*
X168105465Y-81731522D01*
X167910773Y-81794782D01*
X167881860Y-81809515D01*
X167813191Y-81822411D01*
X167748450Y-81796134D01*
X167708194Y-81739027D01*
X167705202Y-81669222D01*
X167737883Y-81611350D01*
X169178713Y-80170521D01*
X169178716Y-80170520D01*
X169290520Y-80058716D01*
X169340639Y-79971904D01*
X169369577Y-79921785D01*
X169410501Y-79769057D01*
X169410501Y-79610943D01*
X169410501Y-79603348D01*
X169410500Y-79603330D01*
X169410500Y-79200860D01*
X169430185Y-79133821D01*
X169482989Y-79088066D01*
X169509886Y-79079959D01*
X169509803Y-79079613D01*
X169514528Y-79078477D01*
X169514534Y-79078477D01*
X169709219Y-79015220D01*
X169891610Y-78922287D01*
X169984590Y-78854732D01*
X170057213Y-78801971D01*
X170057215Y-78801968D01*
X170057219Y-78801966D01*
X170201966Y-78657219D01*
X170201968Y-78657215D01*
X170201971Y-78657213D01*
X170254732Y-78584590D01*
X170322287Y-78491610D01*
X170415220Y-78309219D01*
X170478477Y-78114534D01*
X170510500Y-77912352D01*
X170510500Y-77707648D01*
X170488420Y-77568242D01*
X170478477Y-77505465D01*
X170415218Y-77310776D01*
X170375015Y-77231874D01*
X170322287Y-77128390D01*
X170314556Y-77117749D01*
X170201971Y-76962786D01*
X170057213Y-76818028D01*
X169891614Y-76697715D01*
X169885006Y-76694348D01*
X169798917Y-76650483D01*
X169748123Y-76602511D01*
X169731328Y-76534690D01*
X169753865Y-76468555D01*
X169798917Y-76429516D01*
X169891610Y-76382287D01*
X169912770Y-76366913D01*
X170057213Y-76261971D01*
X170057215Y-76261968D01*
X170057219Y-76261966D01*
X170201966Y-76117219D01*
X170201968Y-76117215D01*
X170201971Y-76117213D01*
X170254732Y-76044590D01*
X170322287Y-75951610D01*
X170415220Y-75769219D01*
X170478477Y-75574534D01*
X170510500Y-75372352D01*
X170510500Y-75167648D01*
X170496469Y-75079061D01*
X170478477Y-74965465D01*
X170415218Y-74770776D01*
X170381503Y-74704607D01*
X170322287Y-74588390D01*
X170301353Y-74559576D01*
X170201971Y-74422786D01*
X170057213Y-74278028D01*
X169891614Y-74157715D01*
X169885006Y-74154348D01*
X169798917Y-74110483D01*
X169748123Y-74062511D01*
X169731328Y-73994690D01*
X169753865Y-73928555D01*
X169798917Y-73889516D01*
X169891610Y-73842287D01*
X169912770Y-73826913D01*
X170057213Y-73721971D01*
X170057215Y-73721968D01*
X170057219Y-73721966D01*
X170201966Y-73577219D01*
X170201968Y-73577215D01*
X170201971Y-73577213D01*
X170322284Y-73411614D01*
X170322285Y-73411613D01*
X170322287Y-73411610D01*
X170329117Y-73398204D01*
X170339566Y-73387140D01*
X170345889Y-73373297D01*
X170363068Y-73362256D01*
X170377091Y-73347409D01*
X170392772Y-73343167D01*
X170404667Y-73335523D01*
X170439602Y-73330500D01*
X170679903Y-73330500D01*
X170746942Y-73350185D01*
X170767584Y-73366819D01*
X171765139Y-74364374D01*
X171765149Y-74364385D01*
X171769479Y-74368715D01*
X171769480Y-74368716D01*
X171881284Y-74480520D01*
X171968095Y-74530639D01*
X171968097Y-74530641D01*
X172018213Y-74559576D01*
X172018215Y-74559577D01*
X172170942Y-74600500D01*
X172170943Y-74600500D01*
X173699903Y-74600500D01*
X173766942Y-74620185D01*
X173787584Y-74636819D01*
X174363181Y-75212416D01*
X174396666Y-75273739D01*
X174399500Y-75300097D01*
X174399500Y-75661940D01*
X174379815Y-75728979D01*
X174327011Y-75774734D01*
X174257853Y-75784678D01*
X174194297Y-75755653D01*
X174175182Y-75734825D01*
X174068247Y-75587641D01*
X174068243Y-75587636D01*
X173912363Y-75431756D01*
X173912358Y-75431752D01*
X173734025Y-75302187D01*
X173734024Y-75302186D01*
X173734022Y-75302185D01*
X173629122Y-75248735D01*
X173537606Y-75202104D01*
X173537603Y-75202103D01*
X173327952Y-75133985D01*
X173219086Y-75116742D01*
X173110222Y-75099500D01*
X172889778Y-75099500D01*
X172817201Y-75110995D01*
X172672047Y-75133985D01*
X172462396Y-75202103D01*
X172462393Y-75202104D01*
X172265974Y-75302187D01*
X172087641Y-75431752D01*
X172087636Y-75431756D01*
X171931756Y-75587636D01*
X171931752Y-75587641D01*
X171802187Y-75765974D01*
X171702104Y-75962393D01*
X171702103Y-75962396D01*
X171633985Y-76172047D01*
X171633985Y-76172049D01*
X171599500Y-76389778D01*
X171599500Y-76610222D01*
X171613357Y-76697713D01*
X171633985Y-76827952D01*
X171702103Y-77037603D01*
X171702104Y-77037606D01*
X171770122Y-77171096D01*
X171796318Y-77222508D01*
X171802187Y-77234025D01*
X171931752Y-77412358D01*
X171931756Y-77412363D01*
X172087636Y-77568243D01*
X172087641Y-77568247D01*
X172207882Y-77655606D01*
X172265978Y-77697815D01*
X172382799Y-77757339D01*
X172462393Y-77797895D01*
X172462396Y-77797896D01*
X172567221Y-77831955D01*
X172672049Y-77866015D01*
X172889778Y-77900500D01*
X172889779Y-77900500D01*
X173110221Y-77900500D01*
X173110222Y-77900500D01*
X173327951Y-77866015D01*
X173537606Y-77797895D01*
X173734022Y-77697815D01*
X173912365Y-77568242D01*
X174068242Y-77412365D01*
X174175183Y-77265172D01*
X174230511Y-77222508D01*
X174300124Y-77216529D01*
X174361920Y-77249134D01*
X174396277Y-77309973D01*
X174399500Y-77338059D01*
X174399500Y-80699902D01*
X174379815Y-80766941D01*
X174363181Y-80787583D01*
X173444842Y-81705921D01*
X173383519Y-81739406D01*
X173318848Y-81736173D01*
X173304534Y-81731522D01*
X173129995Y-81703878D01*
X173102352Y-81699500D01*
X172897648Y-81699500D01*
X172873329Y-81703351D01*
X172695465Y-81731522D01*
X172500776Y-81794781D01*
X172318386Y-81887715D01*
X172152786Y-82008028D01*
X172008028Y-82152786D01*
X171887715Y-82318386D01*
X171794781Y-82500776D01*
X171731522Y-82695465D01*
X171699500Y-82897648D01*
X171699500Y-83102351D01*
X171731522Y-83304534D01*
X171794781Y-83499223D01*
X171887715Y-83681613D01*
X172008028Y-83847213D01*
X172152786Y-83991971D01*
X172298102Y-84097547D01*
X172318390Y-84112287D01*
X172389417Y-84148477D01*
X172500776Y-84205218D01*
X172500778Y-84205218D01*
X172500781Y-84205220D01*
X172589637Y-84234091D01*
X172695465Y-84268477D01*
X172714697Y-84271523D01*
X172897648Y-84300500D01*
X172897649Y-84300500D01*
X173102351Y-84300500D01*
X173102352Y-84300500D01*
X173304534Y-84268477D01*
X173499219Y-84205220D01*
X173681610Y-84112287D01*
X173777901Y-84042328D01*
X173847213Y-83991971D01*
X173847215Y-83991968D01*
X173847219Y-83991966D01*
X173991966Y-83847219D01*
X173991968Y-83847215D01*
X173991971Y-83847213D01*
X174079150Y-83727219D01*
X174112287Y-83681610D01*
X174205220Y-83499219D01*
X174268477Y-83304534D01*
X174300500Y-83102352D01*
X174300500Y-82897648D01*
X174268477Y-82695466D01*
X174263825Y-82681151D01*
X174261832Y-82611312D01*
X174294075Y-82555158D01*
X175368713Y-81480521D01*
X175368716Y-81480520D01*
X175480520Y-81368716D01*
X175530639Y-81281904D01*
X175559577Y-81231785D01*
X175600500Y-81079057D01*
X175600500Y-80920943D01*
X175600500Y-78444420D01*
X175620185Y-78377381D01*
X175672989Y-78331626D01*
X175742147Y-78321682D01*
X175805703Y-78350707D01*
X175834984Y-78388123D01*
X175882146Y-78480684D01*
X175887715Y-78491614D01*
X176008028Y-78657213D01*
X176152786Y-78801971D01*
X176307749Y-78914556D01*
X176318390Y-78922287D01*
X176434607Y-78981503D01*
X176500776Y-79015218D01*
X176500778Y-79015218D01*
X176500781Y-79015220D01*
X176605137Y-79049127D01*
X176695465Y-79078477D01*
X176796557Y-79094488D01*
X176897648Y-79110500D01*
X176897649Y-79110500D01*
X177102351Y-79110500D01*
X177102352Y-79110500D01*
X177304534Y-79078477D01*
X177499219Y-79015220D01*
X177681610Y-78922287D01*
X177774590Y-78854732D01*
X177847213Y-78801971D01*
X177847215Y-78801968D01*
X177847219Y-78801966D01*
X177991966Y-78657219D01*
X177991968Y-78657215D01*
X177991971Y-78657213D01*
X178044732Y-78584590D01*
X178112287Y-78491610D01*
X178205220Y-78309219D01*
X178268477Y-78114534D01*
X178300500Y-77912352D01*
X178300500Y-77707648D01*
X178278420Y-77568242D01*
X178268477Y-77505465D01*
X178205218Y-77310776D01*
X178165015Y-77231874D01*
X178112287Y-77128390D01*
X178104556Y-77117749D01*
X177991971Y-76962786D01*
X177847213Y-76818028D01*
X177681613Y-76697715D01*
X177681612Y-76697714D01*
X177681610Y-76697713D01*
X177589470Y-76650765D01*
X177499223Y-76604781D01*
X177304534Y-76541522D01*
X177129995Y-76513878D01*
X177102352Y-76509500D01*
X176897648Y-76509500D01*
X176873329Y-76513351D01*
X176695465Y-76541522D01*
X176500776Y-76604781D01*
X176318386Y-76697715D01*
X176152786Y-76818028D01*
X176008028Y-76962786D01*
X175887715Y-77128386D01*
X175834985Y-77231874D01*
X175787010Y-77282670D01*
X175719189Y-77299465D01*
X175653054Y-77276927D01*
X175609603Y-77222212D01*
X175600500Y-77175579D01*
X175600500Y-75089060D01*
X175600501Y-75089047D01*
X175600501Y-74920944D01*
X175559576Y-74768214D01*
X175559573Y-74768209D01*
X175480524Y-74631290D01*
X175480518Y-74631282D01*
X174487590Y-73638355D01*
X174487588Y-73638352D01*
X174368717Y-73519481D01*
X174368716Y-73519480D01*
X174281904Y-73469360D01*
X174281904Y-73469359D01*
X174281900Y-73469358D01*
X174231785Y-73440423D01*
X174079057Y-73399499D01*
X173920943Y-73399499D01*
X173913347Y-73399499D01*
X173913331Y-73399500D01*
X172550097Y-73399500D01*
X172483058Y-73379815D01*
X172462416Y-73363181D01*
X171467590Y-72368355D01*
X171467588Y-72368352D01*
X171348717Y-72249481D01*
X171348716Y-72249480D01*
X171261904Y-72199360D01*
X171261904Y-72199359D01*
X171261900Y-72199358D01*
X171211785Y-72170423D01*
X171059057Y-72129499D01*
X170900943Y-72129499D01*
X170893347Y-72129499D01*
X170893331Y-72129500D01*
X170439602Y-72129500D01*
X170372563Y-72109815D01*
X170329117Y-72061795D01*
X170322284Y-72048385D01*
X170201971Y-71882786D01*
X170057213Y-71738028D01*
X169891614Y-71617715D01*
X169876828Y-71610181D01*
X169798917Y-71570483D01*
X169791592Y-71563565D01*
X169782108Y-71560158D01*
X169766618Y-71539978D01*
X169748123Y-71522511D01*
X169745700Y-71512728D01*
X169739564Y-71504734D01*
X169737442Y-71479381D01*
X169731328Y-71454690D01*
X169734578Y-71445151D01*
X169733738Y-71435108D01*
X169745659Y-71412634D01*
X169753435Y-71389818D01*
X171600000Y-71389818D01*
X171600000Y-71610181D01*
X171634473Y-71827835D01*
X171702567Y-72037410D01*
X171802611Y-72233756D01*
X171848932Y-72297513D01*
X172600000Y-71546445D01*
X172600000Y-71552661D01*
X172627259Y-71654394D01*
X172679920Y-71745606D01*
X172754394Y-71820080D01*
X172845606Y-71872741D01*
X172947339Y-71900000D01*
X172953553Y-71900000D01*
X172202485Y-72651065D01*
X172202485Y-72651066D01*
X172266243Y-72697388D01*
X172462589Y-72797432D01*
X172672164Y-72865526D01*
X172889819Y-72900000D01*
X173110181Y-72900000D01*
X173327835Y-72865526D01*
X173537410Y-72797432D01*
X173733760Y-72697386D01*
X173797513Y-72651066D01*
X173797514Y-72651066D01*
X173046447Y-71900000D01*
X173052661Y-71900000D01*
X173154394Y-71872741D01*
X173245606Y-71820080D01*
X173320080Y-71745606D01*
X173372741Y-71654394D01*
X173400000Y-71552661D01*
X173400000Y-71546448D01*
X174151066Y-72297514D01*
X174151066Y-72297513D01*
X174197386Y-72233760D01*
X174297432Y-72037410D01*
X174365526Y-71827835D01*
X174400000Y-71610181D01*
X174400000Y-71389818D01*
X174365526Y-71172164D01*
X174297432Y-70962589D01*
X174197388Y-70766243D01*
X174151066Y-70702485D01*
X174151065Y-70702485D01*
X173400000Y-71453551D01*
X173400000Y-71447339D01*
X173372741Y-71345606D01*
X173320080Y-71254394D01*
X173245606Y-71179920D01*
X173154394Y-71127259D01*
X173052661Y-71100000D01*
X173046445Y-71100000D01*
X173797513Y-70348932D01*
X173733756Y-70302611D01*
X173537408Y-70202566D01*
X173531685Y-70200707D01*
X173531684Y-70200707D01*
X173327835Y-70134473D01*
X173110181Y-70100000D01*
X172889819Y-70100000D01*
X172672164Y-70134473D01*
X172462589Y-70202567D01*
X172266233Y-70302616D01*
X172202485Y-70348931D01*
X172202485Y-70348932D01*
X172953553Y-71100000D01*
X172947339Y-71100000D01*
X172845606Y-71127259D01*
X172754394Y-71179920D01*
X172679920Y-71254394D01*
X172627259Y-71345606D01*
X172600000Y-71447339D01*
X172600000Y-71453553D01*
X171848932Y-70702485D01*
X171848931Y-70702485D01*
X171802616Y-70766233D01*
X171702567Y-70962589D01*
X171634473Y-71172164D01*
X171600000Y-71389818D01*
X169753435Y-71389818D01*
X169753865Y-71388555D01*
X169762630Y-71380642D01*
X169766480Y-71373385D01*
X169789141Y-71356709D01*
X169794476Y-71351894D01*
X169796668Y-71350662D01*
X169891610Y-71302287D01*
X169921763Y-71280379D01*
X169921766Y-71280378D01*
X170057213Y-71181971D01*
X170057215Y-71181968D01*
X170057219Y-71181966D01*
X170201966Y-71037219D01*
X170201968Y-71037215D01*
X170201971Y-71037213D01*
X170256187Y-70962589D01*
X170322287Y-70871610D01*
X170415220Y-70689219D01*
X170478477Y-70494534D01*
X170501539Y-70348932D01*
X170510500Y-70292352D01*
X170510500Y-70087648D01*
X175699500Y-70087648D01*
X175699500Y-70292351D01*
X175731522Y-70494534D01*
X175794781Y-70689223D01*
X175887715Y-70871613D01*
X176008028Y-71037213D01*
X176152786Y-71181971D01*
X176307749Y-71294556D01*
X176318390Y-71302287D01*
X176407212Y-71347544D01*
X176500776Y-71395218D01*
X176500778Y-71395218D01*
X176500781Y-71395220D01*
X176554376Y-71412634D01*
X176695465Y-71458477D01*
X176714697Y-71461523D01*
X176897648Y-71490500D01*
X176897649Y-71490500D01*
X177102351Y-71490500D01*
X177102352Y-71490500D01*
X177304534Y-71458477D01*
X177499219Y-71395220D01*
X177681610Y-71302287D01*
X177777901Y-71232328D01*
X177847213Y-71181971D01*
X177847215Y-71181968D01*
X177847219Y-71181966D01*
X177991966Y-71037219D01*
X177991968Y-71037215D01*
X177991971Y-71037213D01*
X178046187Y-70962589D01*
X178112287Y-70871610D01*
X178205220Y-70689219D01*
X178268477Y-70494534D01*
X178300500Y-70292352D01*
X178300500Y-70087648D01*
X178268477Y-69885466D01*
X178205220Y-69690781D01*
X178205218Y-69690778D01*
X178205218Y-69690776D01*
X178171503Y-69624607D01*
X178112287Y-69508390D01*
X178042032Y-69411691D01*
X177991971Y-69342786D01*
X177847213Y-69198028D01*
X177681613Y-69077715D01*
X177681612Y-69077714D01*
X177681610Y-69077713D01*
X177624653Y-69048691D01*
X177499223Y-68984781D01*
X177304534Y-68921522D01*
X177129995Y-68893878D01*
X177102352Y-68889500D01*
X176897648Y-68889500D01*
X176873329Y-68893351D01*
X176695465Y-68921522D01*
X176500776Y-68984781D01*
X176318386Y-69077715D01*
X176152786Y-69198028D01*
X176008028Y-69342786D01*
X175887715Y-69508386D01*
X175794781Y-69690776D01*
X175731522Y-69885465D01*
X175699500Y-70087648D01*
X170510500Y-70087648D01*
X170478477Y-69885465D01*
X170415218Y-69690776D01*
X170381503Y-69624607D01*
X170322287Y-69508390D01*
X170252032Y-69411691D01*
X170201971Y-69342786D01*
X170057213Y-69198028D01*
X169891613Y-69077715D01*
X169891612Y-69077714D01*
X169891610Y-69077713D01*
X169834653Y-69048691D01*
X169709223Y-68984781D01*
X169514534Y-68921522D01*
X169339995Y-68893878D01*
X169312352Y-68889500D01*
X168307648Y-68889500D01*
X168283329Y-68893351D01*
X168105465Y-68921522D01*
X167910776Y-68984781D01*
X167728386Y-69077715D01*
X167562786Y-69198028D01*
X167418028Y-69342786D01*
X167297715Y-69508386D01*
X167204781Y-69690776D01*
X167141522Y-69885465D01*
X167109500Y-70087648D01*
X167109500Y-70292351D01*
X167141522Y-70494534D01*
X167204781Y-70689223D01*
X167297715Y-70871613D01*
X167418028Y-71037213D01*
X167562786Y-71181971D01*
X167717749Y-71294556D01*
X167728390Y-71302287D01*
X167813408Y-71345606D01*
X167821080Y-71349515D01*
X167871876Y-71397490D01*
X167888671Y-71465311D01*
X167866134Y-71531446D01*
X167821080Y-71570485D01*
X167728386Y-71617715D01*
X167562786Y-71738028D01*
X167418028Y-71882786D01*
X167297715Y-72048386D01*
X167204781Y-72230776D01*
X167141522Y-72425465D01*
X167109500Y-72627648D01*
X167109500Y-72832351D01*
X167141522Y-73034534D01*
X167204781Y-73229223D01*
X167297715Y-73411613D01*
X167418028Y-73577213D01*
X167562786Y-73721971D01*
X167717749Y-73834556D01*
X167728390Y-73842287D01*
X167819840Y-73888883D01*
X167821080Y-73889515D01*
X167871876Y-73937490D01*
X167888671Y-74005311D01*
X167866134Y-74071446D01*
X167821080Y-74110485D01*
X167728386Y-74157715D01*
X167562786Y-74278028D01*
X167418028Y-74422786D01*
X167297715Y-74588386D01*
X167204781Y-74770776D01*
X167141522Y-74965465D01*
X167109500Y-75167648D01*
X167109500Y-75372351D01*
X167141522Y-75574534D01*
X167204781Y-75769223D01*
X167297715Y-75951613D01*
X167418028Y-76117213D01*
X167562786Y-76261971D01*
X167717749Y-76374556D01*
X167728390Y-76382287D01*
X167819840Y-76428883D01*
X167821080Y-76429515D01*
X167871876Y-76477490D01*
X167888671Y-76545311D01*
X167866134Y-76611446D01*
X167821080Y-76650485D01*
X167728386Y-76697715D01*
X167562786Y-76818028D01*
X167418028Y-76962786D01*
X167297715Y-77128386D01*
X167204781Y-77310776D01*
X167141522Y-77505465D01*
X167109500Y-77707648D01*
X167109500Y-77912351D01*
X167141522Y-78114534D01*
X167204781Y-78309223D01*
X167268691Y-78434653D01*
X167273668Y-78444420D01*
X167297715Y-78491613D01*
X167418028Y-78657213D01*
X167562786Y-78801971D01*
X167717749Y-78914556D01*
X167728390Y-78922287D01*
X167910781Y-79015220D01*
X168105466Y-79078477D01*
X168105468Y-79078477D01*
X168110197Y-79079613D01*
X168109919Y-79080768D01*
X168135679Y-79092979D01*
X168166703Y-79107147D01*
X168167199Y-79107919D01*
X168168029Y-79108313D01*
X168186033Y-79137226D01*
X168204477Y-79165925D01*
X168204648Y-79167120D01*
X168204962Y-79167623D01*
X168209500Y-79200860D01*
X168209500Y-79389902D01*
X168189815Y-79456941D01*
X168173181Y-79477583D01*
X166269481Y-81381282D01*
X166269480Y-81381284D01*
X166234841Y-81441282D01*
X166219361Y-81468094D01*
X166219359Y-81468096D01*
X166190425Y-81518209D01*
X166190424Y-81518210D01*
X166178941Y-81561065D01*
X166149499Y-81670943D01*
X166149499Y-81670945D01*
X166149499Y-81839046D01*
X166149500Y-81839059D01*
X166149500Y-86163330D01*
X166149499Y-86163348D01*
X166149499Y-86329054D01*
X166149498Y-86329054D01*
X166190423Y-86481785D01*
X166219358Y-86531900D01*
X166219359Y-86531904D01*
X166219360Y-86531904D01*
X166269479Y-86618714D01*
X166269481Y-86618717D01*
X166388349Y-86737585D01*
X166388355Y-86737590D01*
X167157612Y-87506847D01*
X167191097Y-87568170D01*
X167187862Y-87632846D01*
X167141523Y-87775461D01*
X167141523Y-87775464D01*
X167109500Y-87977648D01*
X167109500Y-88182351D01*
X167141523Y-88384535D01*
X167141523Y-88384538D01*
X167204779Y-88579217D01*
X167206643Y-88583717D01*
X167204827Y-88584469D01*
X167216188Y-88644970D01*
X167189910Y-88709710D01*
X167180488Y-88720274D01*
X163037584Y-92863181D01*
X162976261Y-92896666D01*
X162949903Y-92899500D01*
X160180097Y-92899500D01*
X160113058Y-92879815D01*
X160092416Y-92863181D01*
X158294077Y-91064842D01*
X158260592Y-91003519D01*
X158263828Y-90938841D01*
X158268477Y-90924534D01*
X158300500Y-90722352D01*
X158300500Y-90517648D01*
X158278889Y-90381206D01*
X158268477Y-90315465D01*
X158224435Y-90179920D01*
X158205220Y-90120781D01*
X158205218Y-90120778D01*
X158205218Y-90120776D01*
X158112419Y-89938650D01*
X158112287Y-89938390D01*
X158025292Y-89818650D01*
X157991971Y-89772786D01*
X157847213Y-89628028D01*
X157681613Y-89507715D01*
X157681612Y-89507714D01*
X157681610Y-89507713D01*
X157589470Y-89460765D01*
X157499223Y-89414781D01*
X157304534Y-89351522D01*
X157129995Y-89323878D01*
X157102352Y-89319500D01*
X156897648Y-89319500D01*
X156873329Y-89323351D01*
X156695465Y-89351522D01*
X156500776Y-89414781D01*
X156318386Y-89507715D01*
X156152786Y-89628028D01*
X156008028Y-89772786D01*
X155887715Y-89938386D01*
X155794781Y-90120776D01*
X155731522Y-90315465D01*
X155699500Y-90517648D01*
X154300500Y-90517648D01*
X154300500Y-90457648D01*
X154268477Y-90255466D01*
X154263825Y-90241151D01*
X154261832Y-90171312D01*
X154294075Y-90115158D01*
X155692417Y-88716819D01*
X155753740Y-88683334D01*
X155780098Y-88680500D01*
X159560398Y-88680500D01*
X159627437Y-88700185D01*
X159670883Y-88748205D01*
X159677715Y-88761614D01*
X159798028Y-88927213D01*
X159942786Y-89071971D01*
X160097749Y-89184556D01*
X160108390Y-89192287D01*
X160186349Y-89232009D01*
X160201080Y-89239515D01*
X160251876Y-89287490D01*
X160268671Y-89355311D01*
X160246134Y-89421446D01*
X160201080Y-89460485D01*
X160108386Y-89507715D01*
X159942786Y-89628028D01*
X159798028Y-89772786D01*
X159677715Y-89938386D01*
X159584781Y-90120776D01*
X159521522Y-90315465D01*
X159489500Y-90517648D01*
X159489500Y-90722351D01*
X159521522Y-90924534D01*
X159584781Y-91119223D01*
X159639147Y-91225921D01*
X159677712Y-91301609D01*
X159677715Y-91301613D01*
X159798028Y-91467213D01*
X159942786Y-91611971D01*
X160025806Y-91672287D01*
X160108390Y-91732287D01*
X160224607Y-91791503D01*
X160290776Y-91825218D01*
X160290778Y-91825218D01*
X160290781Y-91825220D01*
X160395137Y-91859127D01*
X160485465Y-91888477D01*
X160586557Y-91904488D01*
X160687648Y-91920500D01*
X160687649Y-91920500D01*
X161692351Y-91920500D01*
X161692352Y-91920500D01*
X161894534Y-91888477D01*
X162089219Y-91825220D01*
X162271610Y-91732287D01*
X162364590Y-91664732D01*
X162437213Y-91611971D01*
X162437215Y-91611968D01*
X162437219Y-91611966D01*
X162581966Y-91467219D01*
X162581968Y-91467215D01*
X162581971Y-91467213D01*
X162634732Y-91394590D01*
X162702287Y-91301610D01*
X162795220Y-91119219D01*
X162858477Y-90924534D01*
X162890500Y-90722352D01*
X162890500Y-90517648D01*
X162868889Y-90381206D01*
X162858477Y-90315465D01*
X162814435Y-90179920D01*
X162795220Y-90120781D01*
X162795218Y-90120778D01*
X162795218Y-90120776D01*
X162702419Y-89938650D01*
X162702287Y-89938390D01*
X162615292Y-89818650D01*
X162581971Y-89772786D01*
X162437213Y-89628028D01*
X162271614Y-89507715D01*
X162265006Y-89504348D01*
X162178917Y-89460483D01*
X162128123Y-89412511D01*
X162111328Y-89344690D01*
X162133865Y-89278555D01*
X162178917Y-89239516D01*
X162271610Y-89192287D01*
X162292770Y-89176913D01*
X162437213Y-89071971D01*
X162437215Y-89071968D01*
X162437219Y-89071966D01*
X162581966Y-88927219D01*
X162581968Y-88927215D01*
X162581971Y-88927213D01*
X162634732Y-88854590D01*
X162702287Y-88761610D01*
X162795220Y-88579219D01*
X162858477Y-88384534D01*
X162890500Y-88182352D01*
X162890500Y-87977648D01*
X162858477Y-87775466D01*
X162858476Y-87775464D01*
X162801296Y-87599481D01*
X162795220Y-87580781D01*
X162795218Y-87580778D01*
X162795218Y-87580776D01*
X162757549Y-87506847D01*
X162702287Y-87398390D01*
X162694556Y-87387749D01*
X162581971Y-87232786D01*
X162437213Y-87088028D01*
X162271614Y-86967715D01*
X162265006Y-86964348D01*
X162178917Y-86920483D01*
X162128123Y-86872511D01*
X162111328Y-86804690D01*
X162133865Y-86738555D01*
X162178917Y-86699516D01*
X162271610Y-86652287D01*
X162317820Y-86618714D01*
X162437213Y-86531971D01*
X162437215Y-86531968D01*
X162437219Y-86531966D01*
X162581966Y-86387219D01*
X162581968Y-86387215D01*
X162581971Y-86387213D01*
X162634732Y-86314590D01*
X162702287Y-86221610D01*
X162795220Y-86039219D01*
X162858477Y-85844534D01*
X162890500Y-85642352D01*
X162890500Y-85437648D01*
X162858477Y-85235466D01*
X162795220Y-85040781D01*
X162795218Y-85040778D01*
X162795218Y-85040776D01*
X162761503Y-84974607D01*
X162702287Y-84858390D01*
X162649500Y-84785734D01*
X162581971Y-84692786D01*
X162437219Y-84548034D01*
X162400930Y-84521669D01*
X162358264Y-84466339D01*
X162352285Y-84396726D01*
X162384890Y-84334931D01*
X162445728Y-84300573D01*
X162460562Y-84298060D01*
X162497483Y-84294091D01*
X162632328Y-84243797D01*
X162632327Y-84243797D01*
X162632331Y-84243796D01*
X162747546Y-84157546D01*
X162833796Y-84042331D01*
X162884091Y-83907483D01*
X162890500Y-83847873D01*
X162890499Y-82152128D01*
X162884091Y-82092517D01*
X162883946Y-82092129D01*
X162833797Y-81957671D01*
X162833793Y-81957664D01*
X162747547Y-81842455D01*
X162747544Y-81842452D01*
X162632335Y-81756206D01*
X162632328Y-81756202D01*
X162497482Y-81705908D01*
X162497483Y-81705908D01*
X162437883Y-81699501D01*
X162437881Y-81699500D01*
X162437873Y-81699500D01*
X162437864Y-81699500D01*
X159942129Y-81699500D01*
X159942123Y-81699501D01*
X159882516Y-81705908D01*
X159747671Y-81756202D01*
X159747664Y-81756206D01*
X159632455Y-81842452D01*
X159632452Y-81842455D01*
X159546206Y-81957664D01*
X159546202Y-81957671D01*
X159495908Y-82092517D01*
X159489501Y-82152116D01*
X159489501Y-82152123D01*
X159489500Y-82152135D01*
X159489500Y-83847870D01*
X159489501Y-83847876D01*
X159495908Y-83907483D01*
X159546202Y-84042328D01*
X159546206Y-84042335D01*
X159632452Y-84157544D01*
X159632455Y-84157547D01*
X159747664Y-84243793D01*
X159747671Y-84243797D01*
X159791608Y-84260184D01*
X159882517Y-84294091D01*
X159919441Y-84298060D01*
X159983989Y-84324796D01*
X160023838Y-84382188D01*
X160026333Y-84452013D01*
X159990681Y-84512102D01*
X159979071Y-84521666D01*
X159942784Y-84548030D01*
X159798028Y-84692786D01*
X159677715Y-84858385D01*
X159670883Y-84871795D01*
X159622909Y-84922591D01*
X159560398Y-84939500D01*
X155900097Y-84939500D01*
X155833058Y-84919815D01*
X155812416Y-84903181D01*
X154336818Y-83427583D01*
X154303333Y-83366260D01*
X154300499Y-83339902D01*
X154300499Y-82897648D01*
X155699500Y-82897648D01*
X155699500Y-83102351D01*
X155731522Y-83304534D01*
X155794781Y-83499223D01*
X155887715Y-83681613D01*
X156008028Y-83847213D01*
X156152786Y-83991971D01*
X156298102Y-84097547D01*
X156318390Y-84112287D01*
X156389417Y-84148477D01*
X156500776Y-84205218D01*
X156500778Y-84205218D01*
X156500781Y-84205220D01*
X156589637Y-84234091D01*
X156695465Y-84268477D01*
X156714697Y-84271523D01*
X156897648Y-84300500D01*
X156897649Y-84300500D01*
X157102351Y-84300500D01*
X157102352Y-84300500D01*
X157304534Y-84268477D01*
X157499219Y-84205220D01*
X157681610Y-84112287D01*
X157777901Y-84042328D01*
X157847213Y-83991971D01*
X157847215Y-83991968D01*
X157847219Y-83991966D01*
X157991966Y-83847219D01*
X157991968Y-83847215D01*
X157991971Y-83847213D01*
X158079150Y-83727219D01*
X158112287Y-83681610D01*
X158205220Y-83499219D01*
X158268477Y-83304534D01*
X158300500Y-83102352D01*
X158300500Y-82897648D01*
X158268477Y-82695466D01*
X158205220Y-82500781D01*
X158205218Y-82500778D01*
X158205218Y-82500776D01*
X158171503Y-82434607D01*
X158112287Y-82318390D01*
X158059500Y-82245734D01*
X157991971Y-82152786D01*
X157847213Y-82008028D01*
X157681613Y-81887715D01*
X157681612Y-81887714D01*
X157681610Y-81887713D01*
X157624653Y-81858691D01*
X157499223Y-81794781D01*
X157304534Y-81731522D01*
X157129995Y-81703878D01*
X157102352Y-81699500D01*
X156897648Y-81699500D01*
X156873329Y-81703351D01*
X156695465Y-81731522D01*
X156500776Y-81794781D01*
X156318386Y-81887715D01*
X156152786Y-82008028D01*
X156008028Y-82152786D01*
X155887715Y-82318386D01*
X155794781Y-82500776D01*
X155731522Y-82695465D01*
X155699500Y-82897648D01*
X154300499Y-82897648D01*
X154300499Y-82092129D01*
X154300498Y-82092123D01*
X154300497Y-82092116D01*
X154294091Y-82032517D01*
X154284959Y-82008034D01*
X154243797Y-81897671D01*
X154243793Y-81897664D01*
X154167787Y-81796134D01*
X154157546Y-81782454D01*
X154111536Y-81748011D01*
X154069667Y-81692079D01*
X154064683Y-81622387D01*
X154098166Y-81561067D01*
X156555158Y-79104075D01*
X156616479Y-79070592D01*
X156681151Y-79073825D01*
X156695466Y-79078477D01*
X156695471Y-79078477D01*
X156695472Y-79078478D01*
X156743744Y-79086123D01*
X156897648Y-79110500D01*
X156897649Y-79110500D01*
X157102351Y-79110500D01*
X157102352Y-79110500D01*
X157304534Y-79078477D01*
X157499219Y-79015220D01*
X157681610Y-78922287D01*
X157774590Y-78854732D01*
X157847213Y-78801971D01*
X157847215Y-78801968D01*
X157847219Y-78801966D01*
X157991966Y-78657219D01*
X157991968Y-78657215D01*
X157991971Y-78657213D01*
X158044732Y-78584590D01*
X158112287Y-78491610D01*
X158205220Y-78309219D01*
X158268477Y-78114534D01*
X158300500Y-77912352D01*
X158300500Y-77707648D01*
X158278420Y-77568242D01*
X158268477Y-77505465D01*
X158205218Y-77310776D01*
X158165015Y-77231874D01*
X158112287Y-77128390D01*
X158104556Y-77117749D01*
X157991971Y-76962786D01*
X157847213Y-76818028D01*
X157681613Y-76697715D01*
X157681612Y-76697714D01*
X157681610Y-76697713D01*
X157589470Y-76650765D01*
X157499223Y-76604781D01*
X157304534Y-76541522D01*
X157129995Y-76513878D01*
X157102352Y-76509500D01*
X156897648Y-76509500D01*
X156873329Y-76513351D01*
X156695465Y-76541522D01*
X156500776Y-76604781D01*
X156318386Y-76697715D01*
X156152786Y-76818028D01*
X156008028Y-76962786D01*
X155887715Y-77128386D01*
X155794781Y-77310776D01*
X155731522Y-77505465D01*
X155699500Y-77707648D01*
X155699500Y-77912351D01*
X155731522Y-78114534D01*
X155736173Y-78128848D01*
X155738165Y-78198690D01*
X155705921Y-78254842D01*
X152631286Y-81329478D01*
X152519481Y-81441282D01*
X152519475Y-81441290D01*
X152475066Y-81518209D01*
X152475064Y-81518214D01*
X152475064Y-81518215D01*
X152450522Y-81560722D01*
X152440835Y-81577501D01*
X152390267Y-81625716D01*
X152333449Y-81639500D01*
X152152130Y-81639500D01*
X152152123Y-81639501D01*
X152092516Y-81645908D01*
X151957671Y-81696202D01*
X151957664Y-81696206D01*
X151842455Y-81782452D01*
X151842452Y-81782455D01*
X151756206Y-81897664D01*
X151756202Y-81897671D01*
X151705908Y-82032517D01*
X151699501Y-82092116D01*
X151699501Y-82092123D01*
X151699500Y-82092135D01*
X150500500Y-82092135D01*
X150500500Y-70087648D01*
X155699500Y-70087648D01*
X155699500Y-70292351D01*
X155731522Y-70494534D01*
X155794781Y-70689223D01*
X155887715Y-70871613D01*
X156008028Y-71037213D01*
X156152786Y-71181971D01*
X156307749Y-71294556D01*
X156318390Y-71302287D01*
X156407212Y-71347544D01*
X156500776Y-71395218D01*
X156500778Y-71395218D01*
X156500781Y-71395220D01*
X156554376Y-71412634D01*
X156695465Y-71458477D01*
X156714697Y-71461523D01*
X156897648Y-71490500D01*
X156897649Y-71490500D01*
X157102351Y-71490500D01*
X157102352Y-71490500D01*
X157304534Y-71458477D01*
X157499219Y-71395220D01*
X157681610Y-71302287D01*
X157777901Y-71232328D01*
X157847213Y-71181971D01*
X157847215Y-71181968D01*
X157847219Y-71181966D01*
X157991966Y-71037219D01*
X157991968Y-71037215D01*
X157991971Y-71037213D01*
X158046187Y-70962589D01*
X158112287Y-70871610D01*
X158205220Y-70689219D01*
X158268477Y-70494534D01*
X158300500Y-70292352D01*
X158300500Y-70087648D01*
X158268477Y-69885466D01*
X158205220Y-69690781D01*
X158205218Y-69690778D01*
X158205218Y-69690776D01*
X158112287Y-69508390D01*
X158042032Y-69411691D01*
X158042031Y-69411688D01*
X157991971Y-69342787D01*
X157991967Y-69342782D01*
X157991320Y-69342135D01*
X159489500Y-69342135D01*
X159489500Y-71037870D01*
X159489501Y-71037876D01*
X159495908Y-71097483D01*
X159546202Y-71232328D01*
X159546206Y-71232335D01*
X159632452Y-71347544D01*
X159632455Y-71347547D01*
X159747664Y-71433793D01*
X159747671Y-71433797D01*
X159778113Y-71445151D01*
X159882517Y-71484091D01*
X159919441Y-71488060D01*
X159983989Y-71514796D01*
X160023838Y-71572188D01*
X160026333Y-71642013D01*
X159990681Y-71702102D01*
X159979071Y-71711666D01*
X159942784Y-71738030D01*
X159798028Y-71882786D01*
X159677715Y-72048386D01*
X159584781Y-72230776D01*
X159521522Y-72425465D01*
X159489500Y-72627648D01*
X159489500Y-72832351D01*
X159521522Y-73034534D01*
X159584781Y-73229223D01*
X159677715Y-73411613D01*
X159798028Y-73577213D01*
X159942786Y-73721971D01*
X160097749Y-73834556D01*
X160108390Y-73842287D01*
X160199840Y-73888883D01*
X160201080Y-73889515D01*
X160251876Y-73937490D01*
X160268671Y-74005311D01*
X160246134Y-74071446D01*
X160201080Y-74110485D01*
X160108386Y-74157715D01*
X159942786Y-74278028D01*
X159798028Y-74422786D01*
X159677715Y-74588386D01*
X159584781Y-74770776D01*
X159521522Y-74965465D01*
X159489500Y-75167648D01*
X159489500Y-75372351D01*
X159521522Y-75574534D01*
X159584781Y-75769223D01*
X159677715Y-75951613D01*
X159798028Y-76117213D01*
X159942786Y-76261971D01*
X160097749Y-76374556D01*
X160108390Y-76382287D01*
X160180424Y-76418990D01*
X160201629Y-76429795D01*
X160252425Y-76477770D01*
X160269220Y-76545591D01*
X160246682Y-76611726D01*
X160201629Y-76650765D01*
X160108650Y-76698140D01*
X159943105Y-76818417D01*
X159943104Y-76818417D01*
X159798417Y-76963104D01*
X159798417Y-76963105D01*
X159678140Y-77128650D01*
X159585244Y-77310970D01*
X159522009Y-77505586D01*
X159513391Y-77560000D01*
X160874314Y-77560000D01*
X160869920Y-77564394D01*
X160817259Y-77655606D01*
X160790000Y-77757339D01*
X160790000Y-77862661D01*
X160817259Y-77964394D01*
X160869920Y-78055606D01*
X160874314Y-78060000D01*
X159513391Y-78060000D01*
X159522009Y-78114413D01*
X159585244Y-78309029D01*
X159678140Y-78491349D01*
X159798417Y-78656894D01*
X159798417Y-78656895D01*
X159943104Y-78801582D01*
X160108650Y-78921859D01*
X160290968Y-79014755D01*
X160485582Y-79077990D01*
X160687683Y-79110000D01*
X160940000Y-79110000D01*
X160940000Y-78125686D01*
X160944394Y-78130080D01*
X161035606Y-78182741D01*
X161137339Y-78210000D01*
X161242661Y-78210000D01*
X161344394Y-78182741D01*
X161435606Y-78130080D01*
X161440000Y-78125686D01*
X161440000Y-79110000D01*
X161692317Y-79110000D01*
X161894417Y-79077990D01*
X162089031Y-79014755D01*
X162271349Y-78921859D01*
X162436894Y-78801582D01*
X162436895Y-78801582D01*
X162581582Y-78656895D01*
X162581582Y-78656894D01*
X162701859Y-78491349D01*
X162794755Y-78309029D01*
X162857990Y-78114413D01*
X162866609Y-78060000D01*
X161505686Y-78060000D01*
X161510080Y-78055606D01*
X161562741Y-77964394D01*
X161590000Y-77862661D01*
X161590000Y-77757339D01*
X161562741Y-77655606D01*
X161510080Y-77564394D01*
X161505686Y-77560000D01*
X162866609Y-77560000D01*
X162857990Y-77505586D01*
X162794755Y-77310970D01*
X162701859Y-77128650D01*
X162581582Y-76963105D01*
X162581582Y-76963104D01*
X162436895Y-76818417D01*
X162271349Y-76698140D01*
X162178370Y-76650765D01*
X162127574Y-76602790D01*
X162110779Y-76534969D01*
X162133316Y-76468835D01*
X162178370Y-76429795D01*
X162178920Y-76429515D01*
X162271610Y-76382287D01*
X162292770Y-76366913D01*
X162437213Y-76261971D01*
X162437215Y-76261968D01*
X162437219Y-76261966D01*
X162581966Y-76117219D01*
X162581968Y-76117215D01*
X162581971Y-76117213D01*
X162634732Y-76044590D01*
X162702287Y-75951610D01*
X162795220Y-75769219D01*
X162858477Y-75574534D01*
X162890500Y-75372352D01*
X162890500Y-75167648D01*
X162876469Y-75079061D01*
X162858477Y-74965465D01*
X162795218Y-74770776D01*
X162761503Y-74704607D01*
X162702287Y-74588390D01*
X162681353Y-74559576D01*
X162581971Y-74422786D01*
X162437213Y-74278028D01*
X162271614Y-74157715D01*
X162265006Y-74154348D01*
X162178917Y-74110483D01*
X162128123Y-74062511D01*
X162111328Y-73994690D01*
X162133865Y-73928555D01*
X162178917Y-73889516D01*
X162271610Y-73842287D01*
X162292770Y-73826913D01*
X162437213Y-73721971D01*
X162437215Y-73721968D01*
X162437219Y-73721966D01*
X162581966Y-73577219D01*
X162581968Y-73577215D01*
X162581971Y-73577213D01*
X162634732Y-73504590D01*
X162702287Y-73411610D01*
X162795220Y-73229219D01*
X162858477Y-73034534D01*
X162890500Y-72832352D01*
X162890500Y-72627648D01*
X162858477Y-72425466D01*
X162795220Y-72230781D01*
X162795218Y-72230778D01*
X162795218Y-72230776D01*
X162761503Y-72164607D01*
X162702287Y-72048390D01*
X162694310Y-72037410D01*
X162581971Y-71882786D01*
X162437219Y-71738034D01*
X162400930Y-71711669D01*
X162358264Y-71656339D01*
X162352285Y-71586726D01*
X162384890Y-71524931D01*
X162445728Y-71490573D01*
X162460562Y-71488060D01*
X162497483Y-71484091D01*
X162596020Y-71447339D01*
X162632331Y-71433796D01*
X162747546Y-71347546D01*
X162833796Y-71232331D01*
X162884091Y-71097483D01*
X162890500Y-71037873D01*
X162890499Y-69342128D01*
X162884091Y-69282517D01*
X162833796Y-69147669D01*
X162833795Y-69147668D01*
X162833793Y-69147664D01*
X162747547Y-69032455D01*
X162747544Y-69032452D01*
X162632335Y-68946206D01*
X162632328Y-68946202D01*
X162497482Y-68895908D01*
X162497483Y-68895908D01*
X162437883Y-68889501D01*
X162437881Y-68889500D01*
X162437873Y-68889500D01*
X162437864Y-68889500D01*
X159942129Y-68889500D01*
X159942123Y-68889501D01*
X159882516Y-68895908D01*
X159747671Y-68946202D01*
X159747664Y-68946206D01*
X159632455Y-69032452D01*
X159632452Y-69032455D01*
X159546206Y-69147664D01*
X159546202Y-69147671D01*
X159495908Y-69282517D01*
X159489501Y-69342116D01*
X159489501Y-69342123D01*
X159489500Y-69342135D01*
X157991320Y-69342135D01*
X157847213Y-69198028D01*
X157681610Y-69077712D01*
X157668200Y-69070879D01*
X157617406Y-69022903D01*
X157600500Y-68960397D01*
X157600500Y-66300096D01*
X157620185Y-66233057D01*
X157636814Y-66212420D01*
X162692242Y-61156992D01*
X162753560Y-61123510D01*
X162823252Y-61128494D01*
X162879185Y-61170366D01*
X162902391Y-61225278D01*
X162934473Y-61427835D01*
X163002567Y-61637410D01*
X163102613Y-61833760D01*
X163232142Y-62012041D01*
X163387958Y-62167857D01*
X163566239Y-62297386D01*
X163762589Y-62397432D01*
X163972164Y-62465526D01*
X164189819Y-62500000D01*
X164750000Y-62500000D01*
X164750000Y-61500000D01*
X165250000Y-61500000D01*
X165250000Y-62500000D01*
X165810181Y-62500000D01*
X166027835Y-62465526D01*
X166237410Y-62397432D01*
X166433760Y-62297386D01*
X166612041Y-62167857D01*
X166767857Y-62012041D01*
X166897386Y-61833760D01*
X166997432Y-61637410D01*
X167065526Y-61427838D01*
X167065526Y-61427835D01*
X167077855Y-61350000D01*
X165965686Y-61350000D01*
X165970080Y-61345606D01*
X166022741Y-61254394D01*
X166050000Y-61152661D01*
X166050000Y-61047339D01*
X166022741Y-60945606D01*
X165970080Y-60854394D01*
X165965686Y-60850000D01*
X167077855Y-60850000D01*
X167065526Y-60772164D01*
X167065526Y-60772161D01*
X166997432Y-60562589D01*
X166897386Y-60366239D01*
X166767857Y-60187958D01*
X166612041Y-60032142D01*
X166433760Y-59902613D01*
X166237410Y-59802567D01*
X166027835Y-59734473D01*
X165810181Y-59700000D01*
X165250000Y-59700000D01*
X165250000Y-60700000D01*
X164750000Y-60700000D01*
X164750000Y-59700000D01*
X164448595Y-59700000D01*
X164381556Y-59680315D01*
X164335801Y-59627511D01*
X164325857Y-59558353D01*
X164354882Y-59494797D01*
X164360896Y-59488337D01*
X166752270Y-57096963D01*
X166765623Y-57089672D01*
X166775916Y-57078458D01*
X166795668Y-57073266D01*
X166813591Y-57063480D01*
X166829815Y-57064291D01*
X166843491Y-57060697D01*
X166878261Y-57066713D01*
X166950273Y-57090111D01*
X167007947Y-57129549D01*
X167035145Y-57193908D01*
X167023230Y-57262754D01*
X167022438Y-57264336D01*
X166970423Y-57366420D01*
X166890140Y-57613506D01*
X166849500Y-57870097D01*
X166849500Y-58129902D01*
X166890140Y-58386493D01*
X166970422Y-58633576D01*
X167088368Y-58865054D01*
X167241066Y-59075225D01*
X167241069Y-59075229D01*
X167424771Y-59258931D01*
X167634949Y-59411634D01*
X167719620Y-59454776D01*
X167866423Y-59529577D01*
X167866425Y-59529577D01*
X167866428Y-59529579D01*
X168113507Y-59609860D01*
X168245706Y-59630797D01*
X168370098Y-59650500D01*
X168370103Y-59650500D01*
X168629902Y-59650500D01*
X168743298Y-59632539D01*
X168886493Y-59609860D01*
X169133572Y-59529579D01*
X169365051Y-59411634D01*
X169575229Y-59258931D01*
X169758931Y-59075229D01*
X169911634Y-58865051D01*
X170029579Y-58633572D01*
X170109860Y-58386493D01*
X170132539Y-58243298D01*
X170150500Y-58129902D01*
X170150500Y-57870097D01*
X170128947Y-57734021D01*
X170109860Y-57613507D01*
X170029579Y-57366428D01*
X170029577Y-57366425D01*
X170029577Y-57366423D01*
X169976754Y-57262754D01*
X169911634Y-57134949D01*
X169758931Y-56924771D01*
X169575229Y-56741069D01*
X169381555Y-56600357D01*
X169365054Y-56588368D01*
X169365053Y-56588367D01*
X169365051Y-56588366D01*
X169292764Y-56551534D01*
X169133576Y-56470422D01*
X169024601Y-56435014D01*
X168966926Y-56395576D01*
X168939728Y-56331217D01*
X168951643Y-56262371D01*
X168952435Y-56260788D01*
X168959089Y-56247730D01*
X169004453Y-56158698D01*
X169084734Y-55911619D01*
X169107413Y-55768424D01*
X169125374Y-55655028D01*
X169125374Y-55395223D01*
X169102372Y-55250000D01*
X169084734Y-55138633D01*
X169004453Y-54891554D01*
X169004451Y-54891551D01*
X169004451Y-54891549D01*
X168916413Y-54718767D01*
X168886508Y-54660075D01*
X168733805Y-54449897D01*
X168550103Y-54266195D01*
X168550099Y-54266192D01*
X168339928Y-54113494D01*
X168339927Y-54113493D01*
X168339925Y-54113492D01*
X168235925Y-54060501D01*
X168108450Y-53995548D01*
X167861367Y-53915266D01*
X167604776Y-53874626D01*
X167604771Y-53874626D01*
X167344977Y-53874626D01*
X167344972Y-53874626D01*
X167088380Y-53915266D01*
X166841294Y-53995549D01*
X166738758Y-54047794D01*
X166670089Y-54060690D01*
X166605348Y-54034413D01*
X166565092Y-53977306D01*
X166564533Y-53975626D01*
X166529117Y-53866624D01*
X166411203Y-53635208D01*
X166330048Y-53523506D01*
X166330046Y-53523505D01*
X165677577Y-54175973D01*
X165664641Y-54144742D01*
X165582563Y-54021903D01*
X165478097Y-53917437D01*
X165355258Y-53835359D01*
X165324024Y-53822421D01*
X165976493Y-53169952D01*
X165976492Y-53169951D01*
X165864791Y-53088796D01*
X165633377Y-52970883D01*
X165386377Y-52890629D01*
X165129857Y-52850000D01*
X164870143Y-52850000D01*
X164613622Y-52890629D01*
X164366622Y-52970883D01*
X164135215Y-53088792D01*
X164023506Y-53169952D01*
X164675975Y-53822421D01*
X164644742Y-53835359D01*
X164521903Y-53917437D01*
X164417437Y-54021903D01*
X164335359Y-54144742D01*
X164322421Y-54175975D01*
X163669952Y-53523506D01*
X163588792Y-53635215D01*
X163470884Y-53866621D01*
X163435465Y-53975628D01*
X163396027Y-54033303D01*
X163331668Y-54060501D01*
X163262822Y-54048586D01*
X163261239Y-54047794D01*
X163158702Y-53995549D01*
X163158701Y-53995548D01*
X163158698Y-53995547D01*
X162911619Y-53915266D01*
X162655028Y-53874626D01*
X162655023Y-53874626D01*
X162395229Y-53874626D01*
X162395224Y-53874626D01*
X162138632Y-53915266D01*
X161891549Y-53995548D01*
X161660071Y-54113494D01*
X161449900Y-54266192D01*
X161449894Y-54266197D01*
X161266197Y-54449894D01*
X161266192Y-54449900D01*
X161113494Y-54660071D01*
X160995548Y-54891549D01*
X160915266Y-55138632D01*
X160874626Y-55395223D01*
X160874626Y-55655028D01*
X160915266Y-55911619D01*
X160995547Y-56158698D01*
X160995548Y-56158700D01*
X160995549Y-56158702D01*
X161047564Y-56260788D01*
X161060460Y-56329458D01*
X161034183Y-56394198D01*
X160977077Y-56434455D01*
X160975398Y-56435014D01*
X160866424Y-56470422D01*
X160634945Y-56588368D01*
X160424774Y-56741066D01*
X160424768Y-56741071D01*
X160241071Y-56924768D01*
X160241066Y-56924774D01*
X160088368Y-57134945D01*
X159970422Y-57366423D01*
X159890140Y-57613506D01*
X159849500Y-57870097D01*
X159849500Y-58129902D01*
X159890140Y-58386493D01*
X159970422Y-58633576D01*
X160088368Y-58865054D01*
X160241066Y-59075225D01*
X160241069Y-59075229D01*
X160424771Y-59258931D01*
X160634949Y-59411634D01*
X160719620Y-59454776D01*
X160866423Y-59529577D01*
X160866425Y-59529577D01*
X160866428Y-59529579D01*
X161113507Y-59609860D01*
X161245706Y-59630797D01*
X161370098Y-59650500D01*
X161370103Y-59650500D01*
X161629902Y-59650500D01*
X161743298Y-59632539D01*
X161886493Y-59609860D01*
X162133572Y-59529579D01*
X162365051Y-59411634D01*
X162458352Y-59343846D01*
X162524155Y-59320368D01*
X162592209Y-59336193D01*
X162640904Y-59386299D01*
X162654780Y-59454776D01*
X162629431Y-59519886D01*
X162618916Y-59531847D01*
X156631286Y-65519478D01*
X156519481Y-65631282D01*
X156519479Y-65631285D01*
X156469361Y-65718094D01*
X156469359Y-65718096D01*
X156440425Y-65768209D01*
X156440424Y-65768210D01*
X156440423Y-65768215D01*
X156399499Y-65920943D01*
X156399499Y-65920945D01*
X156399499Y-66089046D01*
X156399500Y-66089059D01*
X156399500Y-68960397D01*
X156379815Y-69027436D01*
X156331800Y-69070879D01*
X156318389Y-69077712D01*
X156152786Y-69198028D01*
X156008028Y-69342786D01*
X155887715Y-69508386D01*
X155794781Y-69690776D01*
X155731522Y-69885465D01*
X155699500Y-70087648D01*
X150500500Y-70087648D01*
X150500500Y-53003750D01*
X150500726Y-52996263D01*
X150518271Y-52706205D01*
X150520076Y-52691340D01*
X150571780Y-52409201D01*
X150575364Y-52394663D01*
X150652096Y-52148422D01*
X150660696Y-52120822D01*
X150665998Y-52106841D01*
X150783731Y-51845249D01*
X150790676Y-51832016D01*
X150939080Y-51586526D01*
X150947567Y-51574230D01*
X151124480Y-51348417D01*
X151134395Y-51337226D01*
X151337226Y-51134395D01*
X151348417Y-51124480D01*
X151574230Y-50947567D01*
X151586526Y-50939080D01*
X151832016Y-50790676D01*
X151845249Y-50783731D01*
X152106841Y-50665998D01*
X152120822Y-50660696D01*
X152394668Y-50575362D01*
X152409197Y-50571780D01*
X152691344Y-50520075D01*
X152706201Y-50518271D01*
X152996264Y-50500726D01*
X153003751Y-50500500D01*
X153065892Y-50500500D01*
X176934108Y-50500500D01*
X176996249Y-50500500D01*
X177003736Y-50500726D01*
G37*
%TD.AperFunction*%
%TD*%
M02*
