%TF.GenerationSoftware,KiCad,Pcbnew,9.0.2*%
%TF.CreationDate,2025-06-21T12:05:43+10:00*%
%TF.ProjectId,VCF,5643462e-6b69-4636-9164-5f7063625858,1-0*%
%TF.SameCoordinates,Original*%
%TF.FileFunction,Legend,Top*%
%TF.FilePolarity,Positive*%
%FSLAX46Y46*%
G04 Gerber Fmt 4.6, Leading zero omitted, Abs format (unit mm)*
G04 Created by KiCad (PCBNEW 9.0.2) date 2025-06-21 12:05:43*
%MOMM*%
%LPD*%
G01*
G04 APERTURE LIST*
G04 Aperture macros list*
%AMRoundRect*
0 Rectangle with rounded corners*
0 $1 Rounding radius*
0 $2 $3 $4 $5 $6 $7 $8 $9 X,Y pos of 4 corners*
0 Add a 4 corners polygon primitive as box body*
4,1,4,$2,$3,$4,$5,$6,$7,$8,$9,$2,$3,0*
0 Add four circle primitives for the rounded corners*
1,1,$1+$1,$2,$3*
1,1,$1+$1,$4,$5*
1,1,$1+$1,$6,$7*
1,1,$1+$1,$8,$9*
0 Add four rect primitives between the rounded corners*
20,1,$1+$1,$2,$3,$4,$5,0*
20,1,$1+$1,$4,$5,$6,$7,0*
20,1,$1+$1,$6,$7,$8,$9,0*
20,1,$1+$1,$8,$9,$2,$3,0*%
G04 Aperture macros list end*
%ADD10C,0.300000*%
%ADD11C,0.150000*%
%ADD12C,0.120000*%
%ADD13C,0.100000*%
%ADD14C,1.600000*%
%ADD15O,1.600000X1.600000*%
%ADD16R,2.000000X2.000000*%
%ADD17C,2.200000*%
%ADD18RoundRect,0.291666X-0.408334X-0.708334X0.408334X-0.708334X0.408334X0.708334X-0.408334X0.708334X0*%
%ADD19O,1.400000X2.000000*%
%ADD20C,4.000000*%
%ADD21O,1.600000X2.400000*%
%ADD22C,1.440000*%
%ADD23O,3.600000X1.800000*%
%ADD24R,2.400000X1.600000*%
%ADD25O,2.400000X1.600000*%
%ADD26RoundRect,0.250000X-0.550000X-0.550000X0.550000X-0.550000X0.550000X0.550000X-0.550000X0.550000X0*%
%ADD27RoundRect,0.250000X0.550000X0.550000X-0.550000X0.550000X-0.550000X-0.550000X0.550000X-0.550000X0*%
%ADD28O,1.350000X1.900000*%
%ADD29R,1.350000X1.900000*%
G04 APERTURE END LIST*
D10*
X134142857Y-99612019D02*
X133476190Y-99612019D01*
X133476190Y-100659638D02*
X133476190Y-98659638D01*
X133476190Y-98659638D02*
X134428571Y-98659638D01*
X135190476Y-100659638D02*
X135190476Y-98659638D01*
X135190476Y-98659638D02*
X135857143Y-100088209D01*
X135857143Y-100088209D02*
X136523809Y-98659638D01*
X136523809Y-98659638D02*
X136523809Y-100659638D01*
X133952381Y-53909638D02*
X133952381Y-51909638D01*
X134904762Y-53909638D02*
X134904762Y-51909638D01*
X134904762Y-51909638D02*
X136047619Y-53909638D01*
X136047619Y-53909638D02*
X136047619Y-51909638D01*
X162333333Y-132612019D02*
X161666666Y-132612019D01*
X161666666Y-133659638D02*
X161666666Y-131659638D01*
X161666666Y-131659638D02*
X162619047Y-131659638D01*
X164523809Y-133659638D02*
X163857142Y-132707257D01*
X163380952Y-133659638D02*
X163380952Y-131659638D01*
X163380952Y-131659638D02*
X164142857Y-131659638D01*
X164142857Y-131659638D02*
X164333333Y-131754876D01*
X164333333Y-131754876D02*
X164428571Y-131850114D01*
X164428571Y-131850114D02*
X164523809Y-132040590D01*
X164523809Y-132040590D02*
X164523809Y-132326304D01*
X164523809Y-132326304D02*
X164428571Y-132516780D01*
X164428571Y-132516780D02*
X164333333Y-132612019D01*
X164333333Y-132612019D02*
X164142857Y-132707257D01*
X164142857Y-132707257D02*
X163380952Y-132707257D01*
X165380952Y-132612019D02*
X166047619Y-132612019D01*
X166333333Y-133659638D02*
X165380952Y-133659638D01*
X165380952Y-133659638D02*
X165380952Y-131659638D01*
X165380952Y-131659638D02*
X166333333Y-131659638D01*
X168523809Y-133850114D02*
X168333333Y-133754876D01*
X168333333Y-133754876D02*
X168142857Y-133564400D01*
X168142857Y-133564400D02*
X167857143Y-133278685D01*
X167857143Y-133278685D02*
X167666666Y-133183447D01*
X167666666Y-133183447D02*
X167476190Y-133183447D01*
X167571428Y-133659638D02*
X167380952Y-133564400D01*
X167380952Y-133564400D02*
X167190476Y-133373923D01*
X167190476Y-133373923D02*
X167095238Y-132992971D01*
X167095238Y-132992971D02*
X167095238Y-132326304D01*
X167095238Y-132326304D02*
X167190476Y-131945352D01*
X167190476Y-131945352D02*
X167380952Y-131754876D01*
X167380952Y-131754876D02*
X167571428Y-131659638D01*
X167571428Y-131659638D02*
X167952381Y-131659638D01*
X167952381Y-131659638D02*
X168142857Y-131754876D01*
X168142857Y-131754876D02*
X168333333Y-131945352D01*
X168333333Y-131945352D02*
X168428571Y-132326304D01*
X168428571Y-132326304D02*
X168428571Y-132992971D01*
X168428571Y-132992971D02*
X168333333Y-133373923D01*
X168333333Y-133373923D02*
X168142857Y-133564400D01*
X168142857Y-133564400D02*
X167952381Y-133659638D01*
X167952381Y-133659638D02*
X167571428Y-133659638D01*
X134142857Y-85612019D02*
X133476190Y-85612019D01*
X133476190Y-86659638D02*
X133476190Y-84659638D01*
X133476190Y-84659638D02*
X134428571Y-84659638D01*
X135190476Y-86659638D02*
X135190476Y-84659638D01*
X135190476Y-84659638D02*
X135857143Y-86088209D01*
X135857143Y-86088209D02*
X136523809Y-84659638D01*
X136523809Y-84659638D02*
X136523809Y-86659638D01*
X148761904Y-148659638D02*
X148095237Y-147707257D01*
X147619047Y-148659638D02*
X147619047Y-146659638D01*
X147619047Y-146659638D02*
X148380952Y-146659638D01*
X148380952Y-146659638D02*
X148571428Y-146754876D01*
X148571428Y-146754876D02*
X148666666Y-146850114D01*
X148666666Y-146850114D02*
X148761904Y-147040590D01*
X148761904Y-147040590D02*
X148761904Y-147326304D01*
X148761904Y-147326304D02*
X148666666Y-147516780D01*
X148666666Y-147516780D02*
X148571428Y-147612019D01*
X148571428Y-147612019D02*
X148380952Y-147707257D01*
X148380952Y-147707257D02*
X147619047Y-147707257D01*
X149619047Y-147612019D02*
X150285714Y-147612019D01*
X150571428Y-148659638D02*
X149619047Y-148659638D01*
X149619047Y-148659638D02*
X149619047Y-146659638D01*
X149619047Y-146659638D02*
X150571428Y-146659638D01*
X151333333Y-148564400D02*
X151619047Y-148659638D01*
X151619047Y-148659638D02*
X152095238Y-148659638D01*
X152095238Y-148659638D02*
X152285714Y-148564400D01*
X152285714Y-148564400D02*
X152380952Y-148469161D01*
X152380952Y-148469161D02*
X152476190Y-148278685D01*
X152476190Y-148278685D02*
X152476190Y-148088209D01*
X152476190Y-148088209D02*
X152380952Y-147897733D01*
X152380952Y-147897733D02*
X152285714Y-147802495D01*
X152285714Y-147802495D02*
X152095238Y-147707257D01*
X152095238Y-147707257D02*
X151714285Y-147612019D01*
X151714285Y-147612019D02*
X151523809Y-147516780D01*
X151523809Y-147516780D02*
X151428571Y-147421542D01*
X151428571Y-147421542D02*
X151333333Y-147231066D01*
X151333333Y-147231066D02*
X151333333Y-147040590D01*
X151333333Y-147040590D02*
X151428571Y-146850114D01*
X151428571Y-146850114D02*
X151523809Y-146754876D01*
X151523809Y-146754876D02*
X151714285Y-146659638D01*
X151714285Y-146659638D02*
X152190476Y-146659638D01*
X152190476Y-146659638D02*
X152476190Y-146754876D01*
X162999999Y-51909638D02*
X163380952Y-51909638D01*
X163380952Y-51909638D02*
X163571428Y-52004876D01*
X163571428Y-52004876D02*
X163761904Y-52195352D01*
X163761904Y-52195352D02*
X163857142Y-52576304D01*
X163857142Y-52576304D02*
X163857142Y-53242971D01*
X163857142Y-53242971D02*
X163761904Y-53623923D01*
X163761904Y-53623923D02*
X163571428Y-53814400D01*
X163571428Y-53814400D02*
X163380952Y-53909638D01*
X163380952Y-53909638D02*
X162999999Y-53909638D01*
X162999999Y-53909638D02*
X162809523Y-53814400D01*
X162809523Y-53814400D02*
X162619047Y-53623923D01*
X162619047Y-53623923D02*
X162523809Y-53242971D01*
X162523809Y-53242971D02*
X162523809Y-52576304D01*
X162523809Y-52576304D02*
X162619047Y-52195352D01*
X162619047Y-52195352D02*
X162809523Y-52004876D01*
X162809523Y-52004876D02*
X162999999Y-51909638D01*
X164714285Y-51909638D02*
X164714285Y-53528685D01*
X164714285Y-53528685D02*
X164809523Y-53719161D01*
X164809523Y-53719161D02*
X164904761Y-53814400D01*
X164904761Y-53814400D02*
X165095237Y-53909638D01*
X165095237Y-53909638D02*
X165476190Y-53909638D01*
X165476190Y-53909638D02*
X165666666Y-53814400D01*
X165666666Y-53814400D02*
X165761904Y-53719161D01*
X165761904Y-53719161D02*
X165857142Y-53528685D01*
X165857142Y-53528685D02*
X165857142Y-51909638D01*
X166523809Y-51909638D02*
X167666666Y-51909638D01*
X167095237Y-53909638D02*
X167095237Y-51909638D01*
X149761904Y-53719161D02*
X149666666Y-53814400D01*
X149666666Y-53814400D02*
X149380952Y-53909638D01*
X149380952Y-53909638D02*
X149190476Y-53909638D01*
X149190476Y-53909638D02*
X148904761Y-53814400D01*
X148904761Y-53814400D02*
X148714285Y-53623923D01*
X148714285Y-53623923D02*
X148619047Y-53433447D01*
X148619047Y-53433447D02*
X148523809Y-53052495D01*
X148523809Y-53052495D02*
X148523809Y-52766780D01*
X148523809Y-52766780D02*
X148619047Y-52385828D01*
X148619047Y-52385828D02*
X148714285Y-52195352D01*
X148714285Y-52195352D02*
X148904761Y-52004876D01*
X148904761Y-52004876D02*
X149190476Y-51909638D01*
X149190476Y-51909638D02*
X149380952Y-51909638D01*
X149380952Y-51909638D02*
X149666666Y-52004876D01*
X149666666Y-52004876D02*
X149761904Y-52100114D01*
X150333333Y-51909638D02*
X150999999Y-53909638D01*
X150999999Y-53909638D02*
X151666666Y-51909638D01*
D11*
X130454819Y-93142857D02*
X129978628Y-93476190D01*
X130454819Y-93714285D02*
X129454819Y-93714285D01*
X129454819Y-93714285D02*
X129454819Y-93333333D01*
X129454819Y-93333333D02*
X129502438Y-93238095D01*
X129502438Y-93238095D02*
X129550057Y-93190476D01*
X129550057Y-93190476D02*
X129645295Y-93142857D01*
X129645295Y-93142857D02*
X129788152Y-93142857D01*
X129788152Y-93142857D02*
X129883390Y-93190476D01*
X129883390Y-93190476D02*
X129931009Y-93238095D01*
X129931009Y-93238095D02*
X129978628Y-93333333D01*
X129978628Y-93333333D02*
X129978628Y-93714285D01*
X130454819Y-92190476D02*
X130454819Y-92761904D01*
X130454819Y-92476190D02*
X129454819Y-92476190D01*
X129454819Y-92476190D02*
X129597676Y-92571428D01*
X129597676Y-92571428D02*
X129692914Y-92666666D01*
X129692914Y-92666666D02*
X129740533Y-92761904D01*
X129454819Y-91333333D02*
X129454819Y-91523809D01*
X129454819Y-91523809D02*
X129502438Y-91619047D01*
X129502438Y-91619047D02*
X129550057Y-91666666D01*
X129550057Y-91666666D02*
X129692914Y-91761904D01*
X129692914Y-91761904D02*
X129883390Y-91809523D01*
X129883390Y-91809523D02*
X130264342Y-91809523D01*
X130264342Y-91809523D02*
X130359580Y-91761904D01*
X130359580Y-91761904D02*
X130407200Y-91714285D01*
X130407200Y-91714285D02*
X130454819Y-91619047D01*
X130454819Y-91619047D02*
X130454819Y-91428571D01*
X130454819Y-91428571D02*
X130407200Y-91333333D01*
X130407200Y-91333333D02*
X130359580Y-91285714D01*
X130359580Y-91285714D02*
X130264342Y-91238095D01*
X130264342Y-91238095D02*
X130026247Y-91238095D01*
X130026247Y-91238095D02*
X129931009Y-91285714D01*
X129931009Y-91285714D02*
X129883390Y-91333333D01*
X129883390Y-91333333D02*
X129835771Y-91428571D01*
X129835771Y-91428571D02*
X129835771Y-91619047D01*
X129835771Y-91619047D02*
X129883390Y-91714285D01*
X129883390Y-91714285D02*
X129931009Y-91761904D01*
X129931009Y-91761904D02*
X130026247Y-91809523D01*
X170857142Y-136204819D02*
X170523809Y-135728628D01*
X170285714Y-136204819D02*
X170285714Y-135204819D01*
X170285714Y-135204819D02*
X170666666Y-135204819D01*
X170666666Y-135204819D02*
X170761904Y-135252438D01*
X170761904Y-135252438D02*
X170809523Y-135300057D01*
X170809523Y-135300057D02*
X170857142Y-135395295D01*
X170857142Y-135395295D02*
X170857142Y-135538152D01*
X170857142Y-135538152D02*
X170809523Y-135633390D01*
X170809523Y-135633390D02*
X170761904Y-135681009D01*
X170761904Y-135681009D02*
X170666666Y-135728628D01*
X170666666Y-135728628D02*
X170285714Y-135728628D01*
X171238095Y-135300057D02*
X171285714Y-135252438D01*
X171285714Y-135252438D02*
X171380952Y-135204819D01*
X171380952Y-135204819D02*
X171619047Y-135204819D01*
X171619047Y-135204819D02*
X171714285Y-135252438D01*
X171714285Y-135252438D02*
X171761904Y-135300057D01*
X171761904Y-135300057D02*
X171809523Y-135395295D01*
X171809523Y-135395295D02*
X171809523Y-135490533D01*
X171809523Y-135490533D02*
X171761904Y-135633390D01*
X171761904Y-135633390D02*
X171190476Y-136204819D01*
X171190476Y-136204819D02*
X171809523Y-136204819D01*
X172761904Y-136204819D02*
X172190476Y-136204819D01*
X172476190Y-136204819D02*
X172476190Y-135204819D01*
X172476190Y-135204819D02*
X172380952Y-135347676D01*
X172380952Y-135347676D02*
X172285714Y-135442914D01*
X172285714Y-135442914D02*
X172190476Y-135490533D01*
X127954819Y-71892857D02*
X127478628Y-72226190D01*
X127954819Y-72464285D02*
X126954819Y-72464285D01*
X126954819Y-72464285D02*
X126954819Y-72083333D01*
X126954819Y-72083333D02*
X127002438Y-71988095D01*
X127002438Y-71988095D02*
X127050057Y-71940476D01*
X127050057Y-71940476D02*
X127145295Y-71892857D01*
X127145295Y-71892857D02*
X127288152Y-71892857D01*
X127288152Y-71892857D02*
X127383390Y-71940476D01*
X127383390Y-71940476D02*
X127431009Y-71988095D01*
X127431009Y-71988095D02*
X127478628Y-72083333D01*
X127478628Y-72083333D02*
X127478628Y-72464285D01*
X127954819Y-70940476D02*
X127954819Y-71511904D01*
X127954819Y-71226190D02*
X126954819Y-71226190D01*
X126954819Y-71226190D02*
X127097676Y-71321428D01*
X127097676Y-71321428D02*
X127192914Y-71416666D01*
X127192914Y-71416666D02*
X127240533Y-71511904D01*
X127288152Y-70083333D02*
X127954819Y-70083333D01*
X126907200Y-70321428D02*
X127621485Y-70559523D01*
X127621485Y-70559523D02*
X127621485Y-69940476D01*
X130636666Y-56554819D02*
X130636666Y-57269104D01*
X130636666Y-57269104D02*
X130589047Y-57411961D01*
X130589047Y-57411961D02*
X130493809Y-57507200D01*
X130493809Y-57507200D02*
X130350952Y-57554819D01*
X130350952Y-57554819D02*
X130255714Y-57554819D01*
X131017619Y-56554819D02*
X131636666Y-56554819D01*
X131636666Y-56554819D02*
X131303333Y-56935771D01*
X131303333Y-56935771D02*
X131446190Y-56935771D01*
X131446190Y-56935771D02*
X131541428Y-56983390D01*
X131541428Y-56983390D02*
X131589047Y-57031009D01*
X131589047Y-57031009D02*
X131636666Y-57126247D01*
X131636666Y-57126247D02*
X131636666Y-57364342D01*
X131636666Y-57364342D02*
X131589047Y-57459580D01*
X131589047Y-57459580D02*
X131541428Y-57507200D01*
X131541428Y-57507200D02*
X131446190Y-57554819D01*
X131446190Y-57554819D02*
X131160476Y-57554819D01*
X131160476Y-57554819D02*
X131065238Y-57507200D01*
X131065238Y-57507200D02*
X131017619Y-57459580D01*
X162416666Y-142454819D02*
X162416666Y-143169104D01*
X162416666Y-143169104D02*
X162369047Y-143311961D01*
X162369047Y-143311961D02*
X162273809Y-143407200D01*
X162273809Y-143407200D02*
X162130952Y-143454819D01*
X162130952Y-143454819D02*
X162035714Y-143454819D01*
X163321428Y-142454819D02*
X163130952Y-142454819D01*
X163130952Y-142454819D02*
X163035714Y-142502438D01*
X163035714Y-142502438D02*
X162988095Y-142550057D01*
X162988095Y-142550057D02*
X162892857Y-142692914D01*
X162892857Y-142692914D02*
X162845238Y-142883390D01*
X162845238Y-142883390D02*
X162845238Y-143264342D01*
X162845238Y-143264342D02*
X162892857Y-143359580D01*
X162892857Y-143359580D02*
X162940476Y-143407200D01*
X162940476Y-143407200D02*
X163035714Y-143454819D01*
X163035714Y-143454819D02*
X163226190Y-143454819D01*
X163226190Y-143454819D02*
X163321428Y-143407200D01*
X163321428Y-143407200D02*
X163369047Y-143359580D01*
X163369047Y-143359580D02*
X163416666Y-143264342D01*
X163416666Y-143264342D02*
X163416666Y-143026247D01*
X163416666Y-143026247D02*
X163369047Y-142931009D01*
X163369047Y-142931009D02*
X163321428Y-142883390D01*
X163321428Y-142883390D02*
X163226190Y-142835771D01*
X163226190Y-142835771D02*
X163035714Y-142835771D01*
X163035714Y-142835771D02*
X162940476Y-142883390D01*
X162940476Y-142883390D02*
X162892857Y-142931009D01*
X162892857Y-142931009D02*
X162845238Y-143026247D01*
X170607142Y-115454819D02*
X170273809Y-114978628D01*
X170035714Y-115454819D02*
X170035714Y-114454819D01*
X170035714Y-114454819D02*
X170416666Y-114454819D01*
X170416666Y-114454819D02*
X170511904Y-114502438D01*
X170511904Y-114502438D02*
X170559523Y-114550057D01*
X170559523Y-114550057D02*
X170607142Y-114645295D01*
X170607142Y-114645295D02*
X170607142Y-114788152D01*
X170607142Y-114788152D02*
X170559523Y-114883390D01*
X170559523Y-114883390D02*
X170511904Y-114931009D01*
X170511904Y-114931009D02*
X170416666Y-114978628D01*
X170416666Y-114978628D02*
X170035714Y-114978628D01*
X170988095Y-114550057D02*
X171035714Y-114502438D01*
X171035714Y-114502438D02*
X171130952Y-114454819D01*
X171130952Y-114454819D02*
X171369047Y-114454819D01*
X171369047Y-114454819D02*
X171464285Y-114502438D01*
X171464285Y-114502438D02*
X171511904Y-114550057D01*
X171511904Y-114550057D02*
X171559523Y-114645295D01*
X171559523Y-114645295D02*
X171559523Y-114740533D01*
X171559523Y-114740533D02*
X171511904Y-114883390D01*
X171511904Y-114883390D02*
X170940476Y-115454819D01*
X170940476Y-115454819D02*
X171559523Y-115454819D01*
X172178571Y-114454819D02*
X172273809Y-114454819D01*
X172273809Y-114454819D02*
X172369047Y-114502438D01*
X172369047Y-114502438D02*
X172416666Y-114550057D01*
X172416666Y-114550057D02*
X172464285Y-114645295D01*
X172464285Y-114645295D02*
X172511904Y-114835771D01*
X172511904Y-114835771D02*
X172511904Y-115073866D01*
X172511904Y-115073866D02*
X172464285Y-115264342D01*
X172464285Y-115264342D02*
X172416666Y-115359580D01*
X172416666Y-115359580D02*
X172369047Y-115407200D01*
X172369047Y-115407200D02*
X172273809Y-115454819D01*
X172273809Y-115454819D02*
X172178571Y-115454819D01*
X172178571Y-115454819D02*
X172083333Y-115407200D01*
X172083333Y-115407200D02*
X172035714Y-115359580D01*
X172035714Y-115359580D02*
X171988095Y-115264342D01*
X171988095Y-115264342D02*
X171940476Y-115073866D01*
X171940476Y-115073866D02*
X171940476Y-114835771D01*
X171940476Y-114835771D02*
X171988095Y-114645295D01*
X171988095Y-114645295D02*
X172035714Y-114550057D01*
X172035714Y-114550057D02*
X172083333Y-114502438D01*
X172083333Y-114502438D02*
X172178571Y-114454819D01*
X157954819Y-86892857D02*
X157478628Y-87226190D01*
X157954819Y-87464285D02*
X156954819Y-87464285D01*
X156954819Y-87464285D02*
X156954819Y-87083333D01*
X156954819Y-87083333D02*
X157002438Y-86988095D01*
X157002438Y-86988095D02*
X157050057Y-86940476D01*
X157050057Y-86940476D02*
X157145295Y-86892857D01*
X157145295Y-86892857D02*
X157288152Y-86892857D01*
X157288152Y-86892857D02*
X157383390Y-86940476D01*
X157383390Y-86940476D02*
X157431009Y-86988095D01*
X157431009Y-86988095D02*
X157478628Y-87083333D01*
X157478628Y-87083333D02*
X157478628Y-87464285D01*
X157954819Y-85940476D02*
X157954819Y-86511904D01*
X157954819Y-86226190D02*
X156954819Y-86226190D01*
X156954819Y-86226190D02*
X157097676Y-86321428D01*
X157097676Y-86321428D02*
X157192914Y-86416666D01*
X157192914Y-86416666D02*
X157240533Y-86511904D01*
X157050057Y-85559523D02*
X157002438Y-85511904D01*
X157002438Y-85511904D02*
X156954819Y-85416666D01*
X156954819Y-85416666D02*
X156954819Y-85178571D01*
X156954819Y-85178571D02*
X157002438Y-85083333D01*
X157002438Y-85083333D02*
X157050057Y-85035714D01*
X157050057Y-85035714D02*
X157145295Y-84988095D01*
X157145295Y-84988095D02*
X157240533Y-84988095D01*
X157240533Y-84988095D02*
X157383390Y-85035714D01*
X157383390Y-85035714D02*
X157954819Y-85607142D01*
X157954819Y-85607142D02*
X157954819Y-84988095D01*
X144154761Y-144954819D02*
X143821428Y-144478628D01*
X143583333Y-144954819D02*
X143583333Y-143954819D01*
X143583333Y-143954819D02*
X143964285Y-143954819D01*
X143964285Y-143954819D02*
X144059523Y-144002438D01*
X144059523Y-144002438D02*
X144107142Y-144050057D01*
X144107142Y-144050057D02*
X144154761Y-144145295D01*
X144154761Y-144145295D02*
X144154761Y-144288152D01*
X144154761Y-144288152D02*
X144107142Y-144383390D01*
X144107142Y-144383390D02*
X144059523Y-144431009D01*
X144059523Y-144431009D02*
X143964285Y-144478628D01*
X143964285Y-144478628D02*
X143583333Y-144478628D01*
X144440476Y-143954819D02*
X144773809Y-144954819D01*
X144773809Y-144954819D02*
X145107142Y-143954819D01*
X145869047Y-144288152D02*
X145869047Y-144954819D01*
X145630952Y-143907200D02*
X145392857Y-144621485D01*
X145392857Y-144621485D02*
X146011904Y-144621485D01*
X170833333Y-139704819D02*
X170500000Y-139228628D01*
X170261905Y-139704819D02*
X170261905Y-138704819D01*
X170261905Y-138704819D02*
X170642857Y-138704819D01*
X170642857Y-138704819D02*
X170738095Y-138752438D01*
X170738095Y-138752438D02*
X170785714Y-138800057D01*
X170785714Y-138800057D02*
X170833333Y-138895295D01*
X170833333Y-138895295D02*
X170833333Y-139038152D01*
X170833333Y-139038152D02*
X170785714Y-139133390D01*
X170785714Y-139133390D02*
X170738095Y-139181009D01*
X170738095Y-139181009D02*
X170642857Y-139228628D01*
X170642857Y-139228628D02*
X170261905Y-139228628D01*
X171166667Y-138704819D02*
X171833333Y-138704819D01*
X171833333Y-138704819D02*
X171404762Y-139704819D01*
X159154761Y-129954819D02*
X158821428Y-129478628D01*
X158583333Y-129954819D02*
X158583333Y-128954819D01*
X158583333Y-128954819D02*
X158964285Y-128954819D01*
X158964285Y-128954819D02*
X159059523Y-129002438D01*
X159059523Y-129002438D02*
X159107142Y-129050057D01*
X159107142Y-129050057D02*
X159154761Y-129145295D01*
X159154761Y-129145295D02*
X159154761Y-129288152D01*
X159154761Y-129288152D02*
X159107142Y-129383390D01*
X159107142Y-129383390D02*
X159059523Y-129431009D01*
X159059523Y-129431009D02*
X158964285Y-129478628D01*
X158964285Y-129478628D02*
X158583333Y-129478628D01*
X159440476Y-128954819D02*
X159773809Y-129954819D01*
X159773809Y-129954819D02*
X160107142Y-128954819D01*
X160345238Y-128954819D02*
X160964285Y-128954819D01*
X160964285Y-128954819D02*
X160630952Y-129335771D01*
X160630952Y-129335771D02*
X160773809Y-129335771D01*
X160773809Y-129335771D02*
X160869047Y-129383390D01*
X160869047Y-129383390D02*
X160916666Y-129431009D01*
X160916666Y-129431009D02*
X160964285Y-129526247D01*
X160964285Y-129526247D02*
X160964285Y-129764342D01*
X160964285Y-129764342D02*
X160916666Y-129859580D01*
X160916666Y-129859580D02*
X160869047Y-129907200D01*
X160869047Y-129907200D02*
X160773809Y-129954819D01*
X160773809Y-129954819D02*
X160488095Y-129954819D01*
X160488095Y-129954819D02*
X160392857Y-129907200D01*
X160392857Y-129907200D02*
X160345238Y-129859580D01*
X129404761Y-114954819D02*
X129071428Y-114478628D01*
X128833333Y-114954819D02*
X128833333Y-113954819D01*
X128833333Y-113954819D02*
X129214285Y-113954819D01*
X129214285Y-113954819D02*
X129309523Y-114002438D01*
X129309523Y-114002438D02*
X129357142Y-114050057D01*
X129357142Y-114050057D02*
X129404761Y-114145295D01*
X129404761Y-114145295D02*
X129404761Y-114288152D01*
X129404761Y-114288152D02*
X129357142Y-114383390D01*
X129357142Y-114383390D02*
X129309523Y-114431009D01*
X129309523Y-114431009D02*
X129214285Y-114478628D01*
X129214285Y-114478628D02*
X128833333Y-114478628D01*
X129690476Y-113954819D02*
X130023809Y-114954819D01*
X130023809Y-114954819D02*
X130357142Y-113954819D01*
X130642857Y-114050057D02*
X130690476Y-114002438D01*
X130690476Y-114002438D02*
X130785714Y-113954819D01*
X130785714Y-113954819D02*
X131023809Y-113954819D01*
X131023809Y-113954819D02*
X131119047Y-114002438D01*
X131119047Y-114002438D02*
X131166666Y-114050057D01*
X131166666Y-114050057D02*
X131214285Y-114145295D01*
X131214285Y-114145295D02*
X131214285Y-114240533D01*
X131214285Y-114240533D02*
X131166666Y-114383390D01*
X131166666Y-114383390D02*
X130595238Y-114954819D01*
X130595238Y-114954819D02*
X131214285Y-114954819D01*
X136916666Y-142454819D02*
X136916666Y-143169104D01*
X136916666Y-143169104D02*
X136869047Y-143311961D01*
X136869047Y-143311961D02*
X136773809Y-143407200D01*
X136773809Y-143407200D02*
X136630952Y-143454819D01*
X136630952Y-143454819D02*
X136535714Y-143454819D01*
X137869047Y-142454819D02*
X137392857Y-142454819D01*
X137392857Y-142454819D02*
X137345238Y-142931009D01*
X137345238Y-142931009D02*
X137392857Y-142883390D01*
X137392857Y-142883390D02*
X137488095Y-142835771D01*
X137488095Y-142835771D02*
X137726190Y-142835771D01*
X137726190Y-142835771D02*
X137821428Y-142883390D01*
X137821428Y-142883390D02*
X137869047Y-142931009D01*
X137869047Y-142931009D02*
X137916666Y-143026247D01*
X137916666Y-143026247D02*
X137916666Y-143264342D01*
X137916666Y-143264342D02*
X137869047Y-143359580D01*
X137869047Y-143359580D02*
X137821428Y-143407200D01*
X137821428Y-143407200D02*
X137726190Y-143454819D01*
X137726190Y-143454819D02*
X137488095Y-143454819D01*
X137488095Y-143454819D02*
X137392857Y-143407200D01*
X137392857Y-143407200D02*
X137345238Y-143359580D01*
X130636666Y-71554819D02*
X130636666Y-72269104D01*
X130636666Y-72269104D02*
X130589047Y-72411961D01*
X130589047Y-72411961D02*
X130493809Y-72507200D01*
X130493809Y-72507200D02*
X130350952Y-72554819D01*
X130350952Y-72554819D02*
X130255714Y-72554819D01*
X131636666Y-72554819D02*
X131065238Y-72554819D01*
X131350952Y-72554819D02*
X131350952Y-71554819D01*
X131350952Y-71554819D02*
X131255714Y-71697676D01*
X131255714Y-71697676D02*
X131160476Y-71792914D01*
X131160476Y-71792914D02*
X131065238Y-71840533D01*
X149404761Y-82304818D02*
X149071428Y-81828627D01*
X148833333Y-82304818D02*
X148833333Y-81304818D01*
X148833333Y-81304818D02*
X149214285Y-81304818D01*
X149214285Y-81304818D02*
X149309523Y-81352437D01*
X149309523Y-81352437D02*
X149357142Y-81400056D01*
X149357142Y-81400056D02*
X149404761Y-81495294D01*
X149404761Y-81495294D02*
X149404761Y-81638151D01*
X149404761Y-81638151D02*
X149357142Y-81733389D01*
X149357142Y-81733389D02*
X149309523Y-81781008D01*
X149309523Y-81781008D02*
X149214285Y-81828627D01*
X149214285Y-81828627D02*
X148833333Y-81828627D01*
X149690476Y-81304818D02*
X150023809Y-82304818D01*
X150023809Y-82304818D02*
X150357142Y-81304818D01*
X151214285Y-82304818D02*
X150642857Y-82304818D01*
X150928571Y-82304818D02*
X150928571Y-81304818D01*
X150928571Y-81304818D02*
X150833333Y-81447675D01*
X150833333Y-81447675D02*
X150738095Y-81542913D01*
X150738095Y-81542913D02*
X150642857Y-81590532D01*
X128107142Y-132704819D02*
X127773809Y-132228628D01*
X127535714Y-132704819D02*
X127535714Y-131704819D01*
X127535714Y-131704819D02*
X127916666Y-131704819D01*
X127916666Y-131704819D02*
X128011904Y-131752438D01*
X128011904Y-131752438D02*
X128059523Y-131800057D01*
X128059523Y-131800057D02*
X128107142Y-131895295D01*
X128107142Y-131895295D02*
X128107142Y-132038152D01*
X128107142Y-132038152D02*
X128059523Y-132133390D01*
X128059523Y-132133390D02*
X128011904Y-132181009D01*
X128011904Y-132181009D02*
X127916666Y-132228628D01*
X127916666Y-132228628D02*
X127535714Y-132228628D01*
X128488095Y-131800057D02*
X128535714Y-131752438D01*
X128535714Y-131752438D02*
X128630952Y-131704819D01*
X128630952Y-131704819D02*
X128869047Y-131704819D01*
X128869047Y-131704819D02*
X128964285Y-131752438D01*
X128964285Y-131752438D02*
X129011904Y-131800057D01*
X129011904Y-131800057D02*
X129059523Y-131895295D01*
X129059523Y-131895295D02*
X129059523Y-131990533D01*
X129059523Y-131990533D02*
X129011904Y-132133390D01*
X129011904Y-132133390D02*
X128440476Y-132704819D01*
X128440476Y-132704819D02*
X129059523Y-132704819D01*
X129916666Y-132038152D02*
X129916666Y-132704819D01*
X129678571Y-131657200D02*
X129440476Y-132371485D01*
X129440476Y-132371485D02*
X130059523Y-132371485D01*
X172859579Y-107666666D02*
X172907199Y-107714285D01*
X172907199Y-107714285D02*
X172954818Y-107857142D01*
X172954818Y-107857142D02*
X172954818Y-107952380D01*
X172954818Y-107952380D02*
X172907199Y-108095237D01*
X172907199Y-108095237D02*
X172811960Y-108190475D01*
X172811960Y-108190475D02*
X172716722Y-108238094D01*
X172716722Y-108238094D02*
X172526246Y-108285713D01*
X172526246Y-108285713D02*
X172383389Y-108285713D01*
X172383389Y-108285713D02*
X172192913Y-108238094D01*
X172192913Y-108238094D02*
X172097675Y-108190475D01*
X172097675Y-108190475D02*
X172002437Y-108095237D01*
X172002437Y-108095237D02*
X171954818Y-107952380D01*
X171954818Y-107952380D02*
X171954818Y-107857142D01*
X171954818Y-107857142D02*
X172002437Y-107714285D01*
X172002437Y-107714285D02*
X172050056Y-107666666D01*
X172954818Y-106714285D02*
X172954818Y-107285713D01*
X172954818Y-106999999D02*
X171954818Y-106999999D01*
X171954818Y-106999999D02*
X172097675Y-107095237D01*
X172097675Y-107095237D02*
X172192913Y-107190475D01*
X172192913Y-107190475D02*
X172240532Y-107285713D01*
X127857142Y-136204819D02*
X127523809Y-135728628D01*
X127285714Y-136204819D02*
X127285714Y-135204819D01*
X127285714Y-135204819D02*
X127666666Y-135204819D01*
X127666666Y-135204819D02*
X127761904Y-135252438D01*
X127761904Y-135252438D02*
X127809523Y-135300057D01*
X127809523Y-135300057D02*
X127857142Y-135395295D01*
X127857142Y-135395295D02*
X127857142Y-135538152D01*
X127857142Y-135538152D02*
X127809523Y-135633390D01*
X127809523Y-135633390D02*
X127761904Y-135681009D01*
X127761904Y-135681009D02*
X127666666Y-135728628D01*
X127666666Y-135728628D02*
X127285714Y-135728628D01*
X128238095Y-135300057D02*
X128285714Y-135252438D01*
X128285714Y-135252438D02*
X128380952Y-135204819D01*
X128380952Y-135204819D02*
X128619047Y-135204819D01*
X128619047Y-135204819D02*
X128714285Y-135252438D01*
X128714285Y-135252438D02*
X128761904Y-135300057D01*
X128761904Y-135300057D02*
X128809523Y-135395295D01*
X128809523Y-135395295D02*
X128809523Y-135490533D01*
X128809523Y-135490533D02*
X128761904Y-135633390D01*
X128761904Y-135633390D02*
X128190476Y-136204819D01*
X128190476Y-136204819D02*
X128809523Y-136204819D01*
X129190476Y-135300057D02*
X129238095Y-135252438D01*
X129238095Y-135252438D02*
X129333333Y-135204819D01*
X129333333Y-135204819D02*
X129571428Y-135204819D01*
X129571428Y-135204819D02*
X129666666Y-135252438D01*
X129666666Y-135252438D02*
X129714285Y-135300057D01*
X129714285Y-135300057D02*
X129761904Y-135395295D01*
X129761904Y-135395295D02*
X129761904Y-135490533D01*
X129761904Y-135490533D02*
X129714285Y-135633390D01*
X129714285Y-135633390D02*
X129142857Y-136204819D01*
X129142857Y-136204819D02*
X129761904Y-136204819D01*
X142857142Y-71454819D02*
X142523809Y-70978628D01*
X142285714Y-71454819D02*
X142285714Y-70454819D01*
X142285714Y-70454819D02*
X142666666Y-70454819D01*
X142666666Y-70454819D02*
X142761904Y-70502438D01*
X142761904Y-70502438D02*
X142809523Y-70550057D01*
X142809523Y-70550057D02*
X142857142Y-70645295D01*
X142857142Y-70645295D02*
X142857142Y-70788152D01*
X142857142Y-70788152D02*
X142809523Y-70883390D01*
X142809523Y-70883390D02*
X142761904Y-70931009D01*
X142761904Y-70931009D02*
X142666666Y-70978628D01*
X142666666Y-70978628D02*
X142285714Y-70978628D01*
X143809523Y-71454819D02*
X143238095Y-71454819D01*
X143523809Y-71454819D02*
X143523809Y-70454819D01*
X143523809Y-70454819D02*
X143428571Y-70597676D01*
X143428571Y-70597676D02*
X143333333Y-70692914D01*
X143333333Y-70692914D02*
X143238095Y-70740533D01*
X144142857Y-70454819D02*
X144761904Y-70454819D01*
X144761904Y-70454819D02*
X144428571Y-70835771D01*
X144428571Y-70835771D02*
X144571428Y-70835771D01*
X144571428Y-70835771D02*
X144666666Y-70883390D01*
X144666666Y-70883390D02*
X144714285Y-70931009D01*
X144714285Y-70931009D02*
X144761904Y-71026247D01*
X144761904Y-71026247D02*
X144761904Y-71264342D01*
X144761904Y-71264342D02*
X144714285Y-71359580D01*
X144714285Y-71359580D02*
X144666666Y-71407200D01*
X144666666Y-71407200D02*
X144571428Y-71454819D01*
X144571428Y-71454819D02*
X144285714Y-71454819D01*
X144285714Y-71454819D02*
X144190476Y-71407200D01*
X144190476Y-71407200D02*
X144142857Y-71359580D01*
X127954819Y-128666666D02*
X127478628Y-128999999D01*
X127954819Y-129238094D02*
X126954819Y-129238094D01*
X126954819Y-129238094D02*
X126954819Y-128857142D01*
X126954819Y-128857142D02*
X127002438Y-128761904D01*
X127002438Y-128761904D02*
X127050057Y-128714285D01*
X127050057Y-128714285D02*
X127145295Y-128666666D01*
X127145295Y-128666666D02*
X127288152Y-128666666D01*
X127288152Y-128666666D02*
X127383390Y-128714285D01*
X127383390Y-128714285D02*
X127431009Y-128761904D01*
X127431009Y-128761904D02*
X127478628Y-128857142D01*
X127478628Y-128857142D02*
X127478628Y-129238094D01*
X126954819Y-127809523D02*
X126954819Y-127999999D01*
X126954819Y-127999999D02*
X127002438Y-128095237D01*
X127002438Y-128095237D02*
X127050057Y-128142856D01*
X127050057Y-128142856D02*
X127192914Y-128238094D01*
X127192914Y-128238094D02*
X127383390Y-128285713D01*
X127383390Y-128285713D02*
X127764342Y-128285713D01*
X127764342Y-128285713D02*
X127859580Y-128238094D01*
X127859580Y-128238094D02*
X127907200Y-128190475D01*
X127907200Y-128190475D02*
X127954819Y-128095237D01*
X127954819Y-128095237D02*
X127954819Y-127904761D01*
X127954819Y-127904761D02*
X127907200Y-127809523D01*
X127907200Y-127809523D02*
X127859580Y-127761904D01*
X127859580Y-127761904D02*
X127764342Y-127714285D01*
X127764342Y-127714285D02*
X127526247Y-127714285D01*
X127526247Y-127714285D02*
X127431009Y-127761904D01*
X127431009Y-127761904D02*
X127383390Y-127809523D01*
X127383390Y-127809523D02*
X127335771Y-127904761D01*
X127335771Y-127904761D02*
X127335771Y-128095237D01*
X127335771Y-128095237D02*
X127383390Y-128190475D01*
X127383390Y-128190475D02*
X127431009Y-128238094D01*
X127431009Y-128238094D02*
X127526247Y-128285713D01*
X170407200Y-96595237D02*
X170454819Y-96452380D01*
X170454819Y-96452380D02*
X170454819Y-96214285D01*
X170454819Y-96214285D02*
X170407200Y-96119047D01*
X170407200Y-96119047D02*
X170359580Y-96071428D01*
X170359580Y-96071428D02*
X170264342Y-96023809D01*
X170264342Y-96023809D02*
X170169104Y-96023809D01*
X170169104Y-96023809D02*
X170073866Y-96071428D01*
X170073866Y-96071428D02*
X170026247Y-96119047D01*
X170026247Y-96119047D02*
X169978628Y-96214285D01*
X169978628Y-96214285D02*
X169931009Y-96404761D01*
X169931009Y-96404761D02*
X169883390Y-96499999D01*
X169883390Y-96499999D02*
X169835771Y-96547618D01*
X169835771Y-96547618D02*
X169740533Y-96595237D01*
X169740533Y-96595237D02*
X169645295Y-96595237D01*
X169645295Y-96595237D02*
X169550057Y-96547618D01*
X169550057Y-96547618D02*
X169502438Y-96499999D01*
X169502438Y-96499999D02*
X169454819Y-96404761D01*
X169454819Y-96404761D02*
X169454819Y-96166666D01*
X169454819Y-96166666D02*
X169502438Y-96023809D01*
X169454819Y-95404761D02*
X169454819Y-95214285D01*
X169454819Y-95214285D02*
X169502438Y-95119047D01*
X169502438Y-95119047D02*
X169597676Y-95023809D01*
X169597676Y-95023809D02*
X169788152Y-94976190D01*
X169788152Y-94976190D02*
X170121485Y-94976190D01*
X170121485Y-94976190D02*
X170311961Y-95023809D01*
X170311961Y-95023809D02*
X170407200Y-95119047D01*
X170407200Y-95119047D02*
X170454819Y-95214285D01*
X170454819Y-95214285D02*
X170454819Y-95404761D01*
X170454819Y-95404761D02*
X170407200Y-95499999D01*
X170407200Y-95499999D02*
X170311961Y-95595237D01*
X170311961Y-95595237D02*
X170121485Y-95642856D01*
X170121485Y-95642856D02*
X169788152Y-95642856D01*
X169788152Y-95642856D02*
X169597676Y-95595237D01*
X169597676Y-95595237D02*
X169502438Y-95499999D01*
X169502438Y-95499999D02*
X169454819Y-95404761D01*
X169931009Y-94214285D02*
X169931009Y-94547618D01*
X170454819Y-94547618D02*
X169454819Y-94547618D01*
X169454819Y-94547618D02*
X169454819Y-94071428D01*
X169454819Y-93833332D02*
X169454819Y-93261904D01*
X170454819Y-93547618D02*
X169454819Y-93547618D01*
X169407200Y-92214285D02*
X170692914Y-93071427D01*
X170454819Y-91880951D02*
X169454819Y-91880951D01*
X169931009Y-91880951D02*
X169931009Y-91309523D01*
X170454819Y-91309523D02*
X169454819Y-91309523D01*
X170169104Y-90880951D02*
X170169104Y-90404761D01*
X170454819Y-90976189D02*
X169454819Y-90642856D01*
X169454819Y-90642856D02*
X170454819Y-90309523D01*
X170454819Y-89404761D02*
X169978628Y-89738094D01*
X170454819Y-89976189D02*
X169454819Y-89976189D01*
X169454819Y-89976189D02*
X169454819Y-89595237D01*
X169454819Y-89595237D02*
X169502438Y-89499999D01*
X169502438Y-89499999D02*
X169550057Y-89452380D01*
X169550057Y-89452380D02*
X169645295Y-89404761D01*
X169645295Y-89404761D02*
X169788152Y-89404761D01*
X169788152Y-89404761D02*
X169883390Y-89452380D01*
X169883390Y-89452380D02*
X169931009Y-89499999D01*
X169931009Y-89499999D02*
X169978628Y-89595237D01*
X169978628Y-89595237D02*
X169978628Y-89976189D01*
X170454819Y-88976189D02*
X169454819Y-88976189D01*
X169454819Y-88976189D02*
X169454819Y-88738094D01*
X169454819Y-88738094D02*
X169502438Y-88595237D01*
X169502438Y-88595237D02*
X169597676Y-88499999D01*
X169597676Y-88499999D02*
X169692914Y-88452380D01*
X169692914Y-88452380D02*
X169883390Y-88404761D01*
X169883390Y-88404761D02*
X170026247Y-88404761D01*
X170026247Y-88404761D02*
X170216723Y-88452380D01*
X170216723Y-88452380D02*
X170311961Y-88499999D01*
X170311961Y-88499999D02*
X170407200Y-88595237D01*
X170407200Y-88595237D02*
X170454819Y-88738094D01*
X170454819Y-88738094D02*
X170454819Y-88976189D01*
X127954819Y-56892857D02*
X127478628Y-57226190D01*
X127954819Y-57464285D02*
X126954819Y-57464285D01*
X126954819Y-57464285D02*
X126954819Y-57083333D01*
X126954819Y-57083333D02*
X127002438Y-56988095D01*
X127002438Y-56988095D02*
X127050057Y-56940476D01*
X127050057Y-56940476D02*
X127145295Y-56892857D01*
X127145295Y-56892857D02*
X127288152Y-56892857D01*
X127288152Y-56892857D02*
X127383390Y-56940476D01*
X127383390Y-56940476D02*
X127431009Y-56988095D01*
X127431009Y-56988095D02*
X127478628Y-57083333D01*
X127478628Y-57083333D02*
X127478628Y-57464285D01*
X127954819Y-55940476D02*
X127954819Y-56511904D01*
X127954819Y-56226190D02*
X126954819Y-56226190D01*
X126954819Y-56226190D02*
X127097676Y-56321428D01*
X127097676Y-56321428D02*
X127192914Y-56416666D01*
X127192914Y-56416666D02*
X127240533Y-56511904D01*
X126954819Y-55321428D02*
X126954819Y-55226190D01*
X126954819Y-55226190D02*
X127002438Y-55130952D01*
X127002438Y-55130952D02*
X127050057Y-55083333D01*
X127050057Y-55083333D02*
X127145295Y-55035714D01*
X127145295Y-55035714D02*
X127335771Y-54988095D01*
X127335771Y-54988095D02*
X127573866Y-54988095D01*
X127573866Y-54988095D02*
X127764342Y-55035714D01*
X127764342Y-55035714D02*
X127859580Y-55083333D01*
X127859580Y-55083333D02*
X127907200Y-55130952D01*
X127907200Y-55130952D02*
X127954819Y-55226190D01*
X127954819Y-55226190D02*
X127954819Y-55321428D01*
X127954819Y-55321428D02*
X127907200Y-55416666D01*
X127907200Y-55416666D02*
X127859580Y-55464285D01*
X127859580Y-55464285D02*
X127764342Y-55511904D01*
X127764342Y-55511904D02*
X127573866Y-55559523D01*
X127573866Y-55559523D02*
X127335771Y-55559523D01*
X127335771Y-55559523D02*
X127145295Y-55511904D01*
X127145295Y-55511904D02*
X127050057Y-55464285D01*
X127050057Y-55464285D02*
X127002438Y-55416666D01*
X127002438Y-55416666D02*
X126954819Y-55321428D01*
X142857142Y-101254819D02*
X142523809Y-100778628D01*
X142285714Y-101254819D02*
X142285714Y-100254819D01*
X142285714Y-100254819D02*
X142666666Y-100254819D01*
X142666666Y-100254819D02*
X142761904Y-100302438D01*
X142761904Y-100302438D02*
X142809523Y-100350057D01*
X142809523Y-100350057D02*
X142857142Y-100445295D01*
X142857142Y-100445295D02*
X142857142Y-100588152D01*
X142857142Y-100588152D02*
X142809523Y-100683390D01*
X142809523Y-100683390D02*
X142761904Y-100731009D01*
X142761904Y-100731009D02*
X142666666Y-100778628D01*
X142666666Y-100778628D02*
X142285714Y-100778628D01*
X143809523Y-101254819D02*
X143238095Y-101254819D01*
X143523809Y-101254819D02*
X143523809Y-100254819D01*
X143523809Y-100254819D02*
X143428571Y-100397676D01*
X143428571Y-100397676D02*
X143333333Y-100492914D01*
X143333333Y-100492914D02*
X143238095Y-100540533D01*
X144285714Y-101254819D02*
X144476190Y-101254819D01*
X144476190Y-101254819D02*
X144571428Y-101207200D01*
X144571428Y-101207200D02*
X144619047Y-101159580D01*
X144619047Y-101159580D02*
X144714285Y-101016723D01*
X144714285Y-101016723D02*
X144761904Y-100826247D01*
X144761904Y-100826247D02*
X144761904Y-100445295D01*
X144761904Y-100445295D02*
X144714285Y-100350057D01*
X144714285Y-100350057D02*
X144666666Y-100302438D01*
X144666666Y-100302438D02*
X144571428Y-100254819D01*
X144571428Y-100254819D02*
X144380952Y-100254819D01*
X144380952Y-100254819D02*
X144285714Y-100302438D01*
X144285714Y-100302438D02*
X144238095Y-100350057D01*
X144238095Y-100350057D02*
X144190476Y-100445295D01*
X144190476Y-100445295D02*
X144190476Y-100683390D01*
X144190476Y-100683390D02*
X144238095Y-100778628D01*
X144238095Y-100778628D02*
X144285714Y-100826247D01*
X144285714Y-100826247D02*
X144380952Y-100873866D01*
X144380952Y-100873866D02*
X144571428Y-100873866D01*
X144571428Y-100873866D02*
X144666666Y-100826247D01*
X144666666Y-100826247D02*
X144714285Y-100778628D01*
X144714285Y-100778628D02*
X144761904Y-100683390D01*
X140454819Y-93142857D02*
X139978628Y-93476190D01*
X140454819Y-93714285D02*
X139454819Y-93714285D01*
X139454819Y-93714285D02*
X139454819Y-93333333D01*
X139454819Y-93333333D02*
X139502438Y-93238095D01*
X139502438Y-93238095D02*
X139550057Y-93190476D01*
X139550057Y-93190476D02*
X139645295Y-93142857D01*
X139645295Y-93142857D02*
X139788152Y-93142857D01*
X139788152Y-93142857D02*
X139883390Y-93190476D01*
X139883390Y-93190476D02*
X139931009Y-93238095D01*
X139931009Y-93238095D02*
X139978628Y-93333333D01*
X139978628Y-93333333D02*
X139978628Y-93714285D01*
X139550057Y-92761904D02*
X139502438Y-92714285D01*
X139502438Y-92714285D02*
X139454819Y-92619047D01*
X139454819Y-92619047D02*
X139454819Y-92380952D01*
X139454819Y-92380952D02*
X139502438Y-92285714D01*
X139502438Y-92285714D02*
X139550057Y-92238095D01*
X139550057Y-92238095D02*
X139645295Y-92190476D01*
X139645295Y-92190476D02*
X139740533Y-92190476D01*
X139740533Y-92190476D02*
X139883390Y-92238095D01*
X139883390Y-92238095D02*
X140454819Y-92809523D01*
X140454819Y-92809523D02*
X140454819Y-92190476D01*
X139454819Y-91333333D02*
X139454819Y-91523809D01*
X139454819Y-91523809D02*
X139502438Y-91619047D01*
X139502438Y-91619047D02*
X139550057Y-91666666D01*
X139550057Y-91666666D02*
X139692914Y-91761904D01*
X139692914Y-91761904D02*
X139883390Y-91809523D01*
X139883390Y-91809523D02*
X140264342Y-91809523D01*
X140264342Y-91809523D02*
X140359580Y-91761904D01*
X140359580Y-91761904D02*
X140407200Y-91714285D01*
X140407200Y-91714285D02*
X140454819Y-91619047D01*
X140454819Y-91619047D02*
X140454819Y-91428571D01*
X140454819Y-91428571D02*
X140407200Y-91333333D01*
X140407200Y-91333333D02*
X140359580Y-91285714D01*
X140359580Y-91285714D02*
X140264342Y-91238095D01*
X140264342Y-91238095D02*
X140026247Y-91238095D01*
X140026247Y-91238095D02*
X139931009Y-91285714D01*
X139931009Y-91285714D02*
X139883390Y-91333333D01*
X139883390Y-91333333D02*
X139835771Y-91428571D01*
X139835771Y-91428571D02*
X139835771Y-91619047D01*
X139835771Y-91619047D02*
X139883390Y-91714285D01*
X139883390Y-91714285D02*
X139931009Y-91761904D01*
X139931009Y-91761904D02*
X140026247Y-91809523D01*
X157954819Y-56916666D02*
X157478628Y-57249999D01*
X157954819Y-57488094D02*
X156954819Y-57488094D01*
X156954819Y-57488094D02*
X156954819Y-57107142D01*
X156954819Y-57107142D02*
X157002438Y-57011904D01*
X157002438Y-57011904D02*
X157050057Y-56964285D01*
X157050057Y-56964285D02*
X157145295Y-56916666D01*
X157145295Y-56916666D02*
X157288152Y-56916666D01*
X157288152Y-56916666D02*
X157383390Y-56964285D01*
X157383390Y-56964285D02*
X157431009Y-57011904D01*
X157431009Y-57011904D02*
X157478628Y-57107142D01*
X157478628Y-57107142D02*
X157478628Y-57488094D01*
X157383390Y-56345237D02*
X157335771Y-56440475D01*
X157335771Y-56440475D02*
X157288152Y-56488094D01*
X157288152Y-56488094D02*
X157192914Y-56535713D01*
X157192914Y-56535713D02*
X157145295Y-56535713D01*
X157145295Y-56535713D02*
X157050057Y-56488094D01*
X157050057Y-56488094D02*
X157002438Y-56440475D01*
X157002438Y-56440475D02*
X156954819Y-56345237D01*
X156954819Y-56345237D02*
X156954819Y-56154761D01*
X156954819Y-56154761D02*
X157002438Y-56059523D01*
X157002438Y-56059523D02*
X157050057Y-56011904D01*
X157050057Y-56011904D02*
X157145295Y-55964285D01*
X157145295Y-55964285D02*
X157192914Y-55964285D01*
X157192914Y-55964285D02*
X157288152Y-56011904D01*
X157288152Y-56011904D02*
X157335771Y-56059523D01*
X157335771Y-56059523D02*
X157383390Y-56154761D01*
X157383390Y-56154761D02*
X157383390Y-56345237D01*
X157383390Y-56345237D02*
X157431009Y-56440475D01*
X157431009Y-56440475D02*
X157478628Y-56488094D01*
X157478628Y-56488094D02*
X157573866Y-56535713D01*
X157573866Y-56535713D02*
X157764342Y-56535713D01*
X157764342Y-56535713D02*
X157859580Y-56488094D01*
X157859580Y-56488094D02*
X157907200Y-56440475D01*
X157907200Y-56440475D02*
X157954819Y-56345237D01*
X157954819Y-56345237D02*
X157954819Y-56154761D01*
X157954819Y-56154761D02*
X157907200Y-56059523D01*
X157907200Y-56059523D02*
X157859580Y-56011904D01*
X157859580Y-56011904D02*
X157764342Y-55964285D01*
X157764342Y-55964285D02*
X157573866Y-55964285D01*
X157573866Y-55964285D02*
X157478628Y-56011904D01*
X157478628Y-56011904D02*
X157431009Y-56059523D01*
X157431009Y-56059523D02*
X157383390Y-56154761D01*
X149303095Y-122024819D02*
X149303095Y-122834342D01*
X149303095Y-122834342D02*
X149350714Y-122929580D01*
X149350714Y-122929580D02*
X149398333Y-122977200D01*
X149398333Y-122977200D02*
X149493571Y-123024819D01*
X149493571Y-123024819D02*
X149684047Y-123024819D01*
X149684047Y-123024819D02*
X149779285Y-122977200D01*
X149779285Y-122977200D02*
X149826904Y-122929580D01*
X149826904Y-122929580D02*
X149874523Y-122834342D01*
X149874523Y-122834342D02*
X149874523Y-122024819D01*
X150826904Y-122024819D02*
X150350714Y-122024819D01*
X150350714Y-122024819D02*
X150303095Y-122501009D01*
X150303095Y-122501009D02*
X150350714Y-122453390D01*
X150350714Y-122453390D02*
X150445952Y-122405771D01*
X150445952Y-122405771D02*
X150684047Y-122405771D01*
X150684047Y-122405771D02*
X150779285Y-122453390D01*
X150779285Y-122453390D02*
X150826904Y-122501009D01*
X150826904Y-122501009D02*
X150874523Y-122596247D01*
X150874523Y-122596247D02*
X150874523Y-122834342D01*
X150874523Y-122834342D02*
X150826904Y-122929580D01*
X150826904Y-122929580D02*
X150779285Y-122977200D01*
X150779285Y-122977200D02*
X150684047Y-123024819D01*
X150684047Y-123024819D02*
X150445952Y-123024819D01*
X150445952Y-123024819D02*
X150350714Y-122977200D01*
X150350714Y-122977200D02*
X150303095Y-122929580D01*
X142954819Y-128666666D02*
X142478628Y-128999999D01*
X142954819Y-129238094D02*
X141954819Y-129238094D01*
X141954819Y-129238094D02*
X141954819Y-128857142D01*
X141954819Y-128857142D02*
X142002438Y-128761904D01*
X142002438Y-128761904D02*
X142050057Y-128714285D01*
X142050057Y-128714285D02*
X142145295Y-128666666D01*
X142145295Y-128666666D02*
X142288152Y-128666666D01*
X142288152Y-128666666D02*
X142383390Y-128714285D01*
X142383390Y-128714285D02*
X142431009Y-128761904D01*
X142431009Y-128761904D02*
X142478628Y-128857142D01*
X142478628Y-128857142D02*
X142478628Y-129238094D01*
X141954819Y-128333332D02*
X141954819Y-127714285D01*
X141954819Y-127714285D02*
X142335771Y-128047618D01*
X142335771Y-128047618D02*
X142335771Y-127904761D01*
X142335771Y-127904761D02*
X142383390Y-127809523D01*
X142383390Y-127809523D02*
X142431009Y-127761904D01*
X142431009Y-127761904D02*
X142526247Y-127714285D01*
X142526247Y-127714285D02*
X142764342Y-127714285D01*
X142764342Y-127714285D02*
X142859580Y-127761904D01*
X142859580Y-127761904D02*
X142907200Y-127809523D01*
X142907200Y-127809523D02*
X142954819Y-127904761D01*
X142954819Y-127904761D02*
X142954819Y-128190475D01*
X142954819Y-128190475D02*
X142907200Y-128285713D01*
X142907200Y-128285713D02*
X142859580Y-128333332D01*
X172954819Y-99392857D02*
X172478628Y-99726190D01*
X172954819Y-99964285D02*
X171954819Y-99964285D01*
X171954819Y-99964285D02*
X171954819Y-99583333D01*
X171954819Y-99583333D02*
X172002438Y-99488095D01*
X172002438Y-99488095D02*
X172050057Y-99440476D01*
X172050057Y-99440476D02*
X172145295Y-99392857D01*
X172145295Y-99392857D02*
X172288152Y-99392857D01*
X172288152Y-99392857D02*
X172383390Y-99440476D01*
X172383390Y-99440476D02*
X172431009Y-99488095D01*
X172431009Y-99488095D02*
X172478628Y-99583333D01*
X172478628Y-99583333D02*
X172478628Y-99964285D01*
X172954819Y-98440476D02*
X172954819Y-99011904D01*
X172954819Y-98726190D02*
X171954819Y-98726190D01*
X171954819Y-98726190D02*
X172097676Y-98821428D01*
X172097676Y-98821428D02*
X172192914Y-98916666D01*
X172192914Y-98916666D02*
X172240533Y-99011904D01*
X171954819Y-97535714D02*
X171954819Y-98011904D01*
X171954819Y-98011904D02*
X172431009Y-98059523D01*
X172431009Y-98059523D02*
X172383390Y-98011904D01*
X172383390Y-98011904D02*
X172335771Y-97916666D01*
X172335771Y-97916666D02*
X172335771Y-97678571D01*
X172335771Y-97678571D02*
X172383390Y-97583333D01*
X172383390Y-97583333D02*
X172431009Y-97535714D01*
X172431009Y-97535714D02*
X172526247Y-97488095D01*
X172526247Y-97488095D02*
X172764342Y-97488095D01*
X172764342Y-97488095D02*
X172859580Y-97535714D01*
X172859580Y-97535714D02*
X172907200Y-97583333D01*
X172907200Y-97583333D02*
X172954819Y-97678571D01*
X172954819Y-97678571D02*
X172954819Y-97916666D01*
X172954819Y-97916666D02*
X172907200Y-98011904D01*
X172907200Y-98011904D02*
X172859580Y-98059523D01*
X172954819Y-56892857D02*
X172478628Y-57226190D01*
X172954819Y-57464285D02*
X171954819Y-57464285D01*
X171954819Y-57464285D02*
X171954819Y-57083333D01*
X171954819Y-57083333D02*
X172002438Y-56988095D01*
X172002438Y-56988095D02*
X172050057Y-56940476D01*
X172050057Y-56940476D02*
X172145295Y-56892857D01*
X172145295Y-56892857D02*
X172288152Y-56892857D01*
X172288152Y-56892857D02*
X172383390Y-56940476D01*
X172383390Y-56940476D02*
X172431009Y-56988095D01*
X172431009Y-56988095D02*
X172478628Y-57083333D01*
X172478628Y-57083333D02*
X172478628Y-57464285D01*
X172954819Y-55940476D02*
X172954819Y-56511904D01*
X172954819Y-56226190D02*
X171954819Y-56226190D01*
X171954819Y-56226190D02*
X172097676Y-56321428D01*
X172097676Y-56321428D02*
X172192914Y-56416666D01*
X172192914Y-56416666D02*
X172240533Y-56511904D01*
X172383390Y-55369047D02*
X172335771Y-55464285D01*
X172335771Y-55464285D02*
X172288152Y-55511904D01*
X172288152Y-55511904D02*
X172192914Y-55559523D01*
X172192914Y-55559523D02*
X172145295Y-55559523D01*
X172145295Y-55559523D02*
X172050057Y-55511904D01*
X172050057Y-55511904D02*
X172002438Y-55464285D01*
X172002438Y-55464285D02*
X171954819Y-55369047D01*
X171954819Y-55369047D02*
X171954819Y-55178571D01*
X171954819Y-55178571D02*
X172002438Y-55083333D01*
X172002438Y-55083333D02*
X172050057Y-55035714D01*
X172050057Y-55035714D02*
X172145295Y-54988095D01*
X172145295Y-54988095D02*
X172192914Y-54988095D01*
X172192914Y-54988095D02*
X172288152Y-55035714D01*
X172288152Y-55035714D02*
X172335771Y-55083333D01*
X172335771Y-55083333D02*
X172383390Y-55178571D01*
X172383390Y-55178571D02*
X172383390Y-55369047D01*
X172383390Y-55369047D02*
X172431009Y-55464285D01*
X172431009Y-55464285D02*
X172478628Y-55511904D01*
X172478628Y-55511904D02*
X172573866Y-55559523D01*
X172573866Y-55559523D02*
X172764342Y-55559523D01*
X172764342Y-55559523D02*
X172859580Y-55511904D01*
X172859580Y-55511904D02*
X172907200Y-55464285D01*
X172907200Y-55464285D02*
X172954819Y-55369047D01*
X172954819Y-55369047D02*
X172954819Y-55178571D01*
X172954819Y-55178571D02*
X172907200Y-55083333D01*
X172907200Y-55083333D02*
X172859580Y-55035714D01*
X172859580Y-55035714D02*
X172764342Y-54988095D01*
X172764342Y-54988095D02*
X172573866Y-54988095D01*
X172573866Y-54988095D02*
X172478628Y-55035714D01*
X172478628Y-55035714D02*
X172431009Y-55083333D01*
X172431009Y-55083333D02*
X172383390Y-55178571D01*
X160636666Y-56554819D02*
X160636666Y-57269104D01*
X160636666Y-57269104D02*
X160589047Y-57411961D01*
X160589047Y-57411961D02*
X160493809Y-57507200D01*
X160493809Y-57507200D02*
X160350952Y-57554819D01*
X160350952Y-57554819D02*
X160255714Y-57554819D01*
X161541428Y-56888152D02*
X161541428Y-57554819D01*
X161303333Y-56507200D02*
X161065238Y-57221485D01*
X161065238Y-57221485D02*
X161684285Y-57221485D01*
X145636666Y-56554819D02*
X145636666Y-57269104D01*
X145636666Y-57269104D02*
X145589047Y-57411961D01*
X145589047Y-57411961D02*
X145493809Y-57507200D01*
X145493809Y-57507200D02*
X145350952Y-57554819D01*
X145350952Y-57554819D02*
X145255714Y-57554819D01*
X146065238Y-56650057D02*
X146112857Y-56602438D01*
X146112857Y-56602438D02*
X146208095Y-56554819D01*
X146208095Y-56554819D02*
X146446190Y-56554819D01*
X146446190Y-56554819D02*
X146541428Y-56602438D01*
X146541428Y-56602438D02*
X146589047Y-56650057D01*
X146589047Y-56650057D02*
X146636666Y-56745295D01*
X146636666Y-56745295D02*
X146636666Y-56840533D01*
X146636666Y-56840533D02*
X146589047Y-56983390D01*
X146589047Y-56983390D02*
X146017619Y-57554819D01*
X146017619Y-57554819D02*
X146636666Y-57554819D01*
X158261904Y-101204819D02*
X158261904Y-100204819D01*
X158261904Y-100204819D02*
X158499999Y-100204819D01*
X158499999Y-100204819D02*
X158642856Y-100252438D01*
X158642856Y-100252438D02*
X158738094Y-100347676D01*
X158738094Y-100347676D02*
X158785713Y-100442914D01*
X158785713Y-100442914D02*
X158833332Y-100633390D01*
X158833332Y-100633390D02*
X158833332Y-100776247D01*
X158833332Y-100776247D02*
X158785713Y-100966723D01*
X158785713Y-100966723D02*
X158738094Y-101061961D01*
X158738094Y-101061961D02*
X158642856Y-101157200D01*
X158642856Y-101157200D02*
X158499999Y-101204819D01*
X158499999Y-101204819D02*
X158261904Y-101204819D01*
X159214285Y-100300057D02*
X159261904Y-100252438D01*
X159261904Y-100252438D02*
X159357142Y-100204819D01*
X159357142Y-100204819D02*
X159595237Y-100204819D01*
X159595237Y-100204819D02*
X159690475Y-100252438D01*
X159690475Y-100252438D02*
X159738094Y-100300057D01*
X159738094Y-100300057D02*
X159785713Y-100395295D01*
X159785713Y-100395295D02*
X159785713Y-100490533D01*
X159785713Y-100490533D02*
X159738094Y-100633390D01*
X159738094Y-100633390D02*
X159166666Y-101204819D01*
X159166666Y-101204819D02*
X159785713Y-101204819D01*
X159238094Y-99404819D02*
X159238094Y-98404819D01*
X159809522Y-99404819D02*
X159380951Y-98833390D01*
X159809522Y-98404819D02*
X159238094Y-98976247D01*
X155454819Y-94214285D02*
X155454819Y-94690475D01*
X155454819Y-94690475D02*
X154454819Y-94690475D01*
X155454819Y-93880951D02*
X154454819Y-93880951D01*
X154454819Y-93880951D02*
X154454819Y-93499999D01*
X154454819Y-93499999D02*
X154502438Y-93404761D01*
X154502438Y-93404761D02*
X154550057Y-93357142D01*
X154550057Y-93357142D02*
X154645295Y-93309523D01*
X154645295Y-93309523D02*
X154788152Y-93309523D01*
X154788152Y-93309523D02*
X154883390Y-93357142D01*
X154883390Y-93357142D02*
X154931009Y-93404761D01*
X154931009Y-93404761D02*
X154978628Y-93499999D01*
X154978628Y-93499999D02*
X154978628Y-93880951D01*
X154407200Y-92166666D02*
X155692914Y-93023808D01*
X154931009Y-91499999D02*
X154978628Y-91357142D01*
X154978628Y-91357142D02*
X155026247Y-91309523D01*
X155026247Y-91309523D02*
X155121485Y-91261904D01*
X155121485Y-91261904D02*
X155264342Y-91261904D01*
X155264342Y-91261904D02*
X155359580Y-91309523D01*
X155359580Y-91309523D02*
X155407200Y-91357142D01*
X155407200Y-91357142D02*
X155454819Y-91452380D01*
X155454819Y-91452380D02*
X155454819Y-91833332D01*
X155454819Y-91833332D02*
X154454819Y-91833332D01*
X154454819Y-91833332D02*
X154454819Y-91499999D01*
X154454819Y-91499999D02*
X154502438Y-91404761D01*
X154502438Y-91404761D02*
X154550057Y-91357142D01*
X154550057Y-91357142D02*
X154645295Y-91309523D01*
X154645295Y-91309523D02*
X154740533Y-91309523D01*
X154740533Y-91309523D02*
X154835771Y-91357142D01*
X154835771Y-91357142D02*
X154883390Y-91404761D01*
X154883390Y-91404761D02*
X154931009Y-91499999D01*
X154931009Y-91499999D02*
X154931009Y-91833332D01*
X155454819Y-90833332D02*
X154454819Y-90833332D01*
X154454819Y-90833332D02*
X154454819Y-90452380D01*
X154454819Y-90452380D02*
X154502438Y-90357142D01*
X154502438Y-90357142D02*
X154550057Y-90309523D01*
X154550057Y-90309523D02*
X154645295Y-90261904D01*
X154645295Y-90261904D02*
X154788152Y-90261904D01*
X154788152Y-90261904D02*
X154883390Y-90309523D01*
X154883390Y-90309523D02*
X154931009Y-90357142D01*
X154931009Y-90357142D02*
X154978628Y-90452380D01*
X154978628Y-90452380D02*
X154978628Y-90833332D01*
X157954819Y-129892857D02*
X157478628Y-130226190D01*
X157954819Y-130464285D02*
X156954819Y-130464285D01*
X156954819Y-130464285D02*
X156954819Y-130083333D01*
X156954819Y-130083333D02*
X157002438Y-129988095D01*
X157002438Y-129988095D02*
X157050057Y-129940476D01*
X157050057Y-129940476D02*
X157145295Y-129892857D01*
X157145295Y-129892857D02*
X157288152Y-129892857D01*
X157288152Y-129892857D02*
X157383390Y-129940476D01*
X157383390Y-129940476D02*
X157431009Y-129988095D01*
X157431009Y-129988095D02*
X157478628Y-130083333D01*
X157478628Y-130083333D02*
X157478628Y-130464285D01*
X157050057Y-129511904D02*
X157002438Y-129464285D01*
X157002438Y-129464285D02*
X156954819Y-129369047D01*
X156954819Y-129369047D02*
X156954819Y-129130952D01*
X156954819Y-129130952D02*
X157002438Y-129035714D01*
X157002438Y-129035714D02*
X157050057Y-128988095D01*
X157050057Y-128988095D02*
X157145295Y-128940476D01*
X157145295Y-128940476D02*
X157240533Y-128940476D01*
X157240533Y-128940476D02*
X157383390Y-128988095D01*
X157383390Y-128988095D02*
X157954819Y-129559523D01*
X157954819Y-129559523D02*
X157954819Y-128940476D01*
X156954819Y-128035714D02*
X156954819Y-128511904D01*
X156954819Y-128511904D02*
X157431009Y-128559523D01*
X157431009Y-128559523D02*
X157383390Y-128511904D01*
X157383390Y-128511904D02*
X157335771Y-128416666D01*
X157335771Y-128416666D02*
X157335771Y-128178571D01*
X157335771Y-128178571D02*
X157383390Y-128083333D01*
X157383390Y-128083333D02*
X157431009Y-128035714D01*
X157431009Y-128035714D02*
X157526247Y-127988095D01*
X157526247Y-127988095D02*
X157764342Y-127988095D01*
X157764342Y-127988095D02*
X157859580Y-128035714D01*
X157859580Y-128035714D02*
X157907200Y-128083333D01*
X157907200Y-128083333D02*
X157954819Y-128178571D01*
X157954819Y-128178571D02*
X157954819Y-128416666D01*
X157954819Y-128416666D02*
X157907200Y-128511904D01*
X157907200Y-128511904D02*
X157859580Y-128559523D01*
X172954819Y-128666666D02*
X172478628Y-128999999D01*
X172954819Y-129238094D02*
X171954819Y-129238094D01*
X171954819Y-129238094D02*
X171954819Y-128857142D01*
X171954819Y-128857142D02*
X172002438Y-128761904D01*
X172002438Y-128761904D02*
X172050057Y-128714285D01*
X172050057Y-128714285D02*
X172145295Y-128666666D01*
X172145295Y-128666666D02*
X172288152Y-128666666D01*
X172288152Y-128666666D02*
X172383390Y-128714285D01*
X172383390Y-128714285D02*
X172431009Y-128761904D01*
X172431009Y-128761904D02*
X172478628Y-128857142D01*
X172478628Y-128857142D02*
X172478628Y-129238094D01*
X172288152Y-127809523D02*
X172954819Y-127809523D01*
X171907200Y-128047618D02*
X172621485Y-128285713D01*
X172621485Y-128285713D02*
X172621485Y-127666666D01*
X170261905Y-84954819D02*
X170261905Y-83954819D01*
X170261905Y-83954819D02*
X170500000Y-83954819D01*
X170500000Y-83954819D02*
X170642857Y-84002438D01*
X170642857Y-84002438D02*
X170738095Y-84097676D01*
X170738095Y-84097676D02*
X170785714Y-84192914D01*
X170785714Y-84192914D02*
X170833333Y-84383390D01*
X170833333Y-84383390D02*
X170833333Y-84526247D01*
X170833333Y-84526247D02*
X170785714Y-84716723D01*
X170785714Y-84716723D02*
X170738095Y-84811961D01*
X170738095Y-84811961D02*
X170642857Y-84907200D01*
X170642857Y-84907200D02*
X170500000Y-84954819D01*
X170500000Y-84954819D02*
X170261905Y-84954819D01*
X171785714Y-84954819D02*
X171214286Y-84954819D01*
X171500000Y-84954819D02*
X171500000Y-83954819D01*
X171500000Y-83954819D02*
X171404762Y-84097676D01*
X171404762Y-84097676D02*
X171309524Y-84192914D01*
X171309524Y-84192914D02*
X171214286Y-84240533D01*
X170238095Y-86454819D02*
X170238095Y-85454819D01*
X170809523Y-86454819D02*
X170380952Y-85883390D01*
X170809523Y-85454819D02*
X170238095Y-86026247D01*
X172954819Y-71892857D02*
X172478628Y-72226190D01*
X172954819Y-72464285D02*
X171954819Y-72464285D01*
X171954819Y-72464285D02*
X171954819Y-72083333D01*
X171954819Y-72083333D02*
X172002438Y-71988095D01*
X172002438Y-71988095D02*
X172050057Y-71940476D01*
X172050057Y-71940476D02*
X172145295Y-71892857D01*
X172145295Y-71892857D02*
X172288152Y-71892857D01*
X172288152Y-71892857D02*
X172383390Y-71940476D01*
X172383390Y-71940476D02*
X172431009Y-71988095D01*
X172431009Y-71988095D02*
X172478628Y-72083333D01*
X172478628Y-72083333D02*
X172478628Y-72464285D01*
X172954819Y-70940476D02*
X172954819Y-71511904D01*
X172954819Y-71226190D02*
X171954819Y-71226190D01*
X171954819Y-71226190D02*
X172097676Y-71321428D01*
X172097676Y-71321428D02*
X172192914Y-71416666D01*
X172192914Y-71416666D02*
X172240533Y-71511904D01*
X171954819Y-70607142D02*
X171954819Y-69940476D01*
X171954819Y-69940476D02*
X172954819Y-70369047D01*
X155607142Y-115454819D02*
X155273809Y-114978628D01*
X155035714Y-115454819D02*
X155035714Y-114454819D01*
X155035714Y-114454819D02*
X155416666Y-114454819D01*
X155416666Y-114454819D02*
X155511904Y-114502438D01*
X155511904Y-114502438D02*
X155559523Y-114550057D01*
X155559523Y-114550057D02*
X155607142Y-114645295D01*
X155607142Y-114645295D02*
X155607142Y-114788152D01*
X155607142Y-114788152D02*
X155559523Y-114883390D01*
X155559523Y-114883390D02*
X155511904Y-114931009D01*
X155511904Y-114931009D02*
X155416666Y-114978628D01*
X155416666Y-114978628D02*
X155035714Y-114978628D01*
X155988095Y-114550057D02*
X156035714Y-114502438D01*
X156035714Y-114502438D02*
X156130952Y-114454819D01*
X156130952Y-114454819D02*
X156369047Y-114454819D01*
X156369047Y-114454819D02*
X156464285Y-114502438D01*
X156464285Y-114502438D02*
X156511904Y-114550057D01*
X156511904Y-114550057D02*
X156559523Y-114645295D01*
X156559523Y-114645295D02*
X156559523Y-114740533D01*
X156559523Y-114740533D02*
X156511904Y-114883390D01*
X156511904Y-114883390D02*
X155940476Y-115454819D01*
X155940476Y-115454819D02*
X156559523Y-115454819D01*
X156892857Y-114454819D02*
X157511904Y-114454819D01*
X157511904Y-114454819D02*
X157178571Y-114835771D01*
X157178571Y-114835771D02*
X157321428Y-114835771D01*
X157321428Y-114835771D02*
X157416666Y-114883390D01*
X157416666Y-114883390D02*
X157464285Y-114931009D01*
X157464285Y-114931009D02*
X157511904Y-115026247D01*
X157511904Y-115026247D02*
X157511904Y-115264342D01*
X157511904Y-115264342D02*
X157464285Y-115359580D01*
X157464285Y-115359580D02*
X157416666Y-115407200D01*
X157416666Y-115407200D02*
X157321428Y-115454819D01*
X157321428Y-115454819D02*
X157035714Y-115454819D01*
X157035714Y-115454819D02*
X156940476Y-115407200D01*
X156940476Y-115407200D02*
X156892857Y-115359580D01*
X142954819Y-83416666D02*
X142478628Y-83749999D01*
X142954819Y-83988094D02*
X141954819Y-83988094D01*
X141954819Y-83988094D02*
X141954819Y-83607142D01*
X141954819Y-83607142D02*
X142002438Y-83511904D01*
X142002438Y-83511904D02*
X142050057Y-83464285D01*
X142050057Y-83464285D02*
X142145295Y-83416666D01*
X142145295Y-83416666D02*
X142288152Y-83416666D01*
X142288152Y-83416666D02*
X142383390Y-83464285D01*
X142383390Y-83464285D02*
X142431009Y-83511904D01*
X142431009Y-83511904D02*
X142478628Y-83607142D01*
X142478628Y-83607142D02*
X142478628Y-83988094D01*
X142954819Y-82464285D02*
X142954819Y-83035713D01*
X142954819Y-82749999D02*
X141954819Y-82749999D01*
X141954819Y-82749999D02*
X142097676Y-82845237D01*
X142097676Y-82845237D02*
X142192914Y-82940475D01*
X142192914Y-82940475D02*
X142240533Y-83035713D01*
X157959579Y-107666666D02*
X158007199Y-107714285D01*
X158007199Y-107714285D02*
X158054818Y-107857142D01*
X158054818Y-107857142D02*
X158054818Y-107952380D01*
X158054818Y-107952380D02*
X158007199Y-108095237D01*
X158007199Y-108095237D02*
X157911960Y-108190475D01*
X157911960Y-108190475D02*
X157816722Y-108238094D01*
X157816722Y-108238094D02*
X157626246Y-108285713D01*
X157626246Y-108285713D02*
X157483389Y-108285713D01*
X157483389Y-108285713D02*
X157292913Y-108238094D01*
X157292913Y-108238094D02*
X157197675Y-108190475D01*
X157197675Y-108190475D02*
X157102437Y-108095237D01*
X157102437Y-108095237D02*
X157054818Y-107952380D01*
X157054818Y-107952380D02*
X157054818Y-107857142D01*
X157054818Y-107857142D02*
X157102437Y-107714285D01*
X157102437Y-107714285D02*
X157150056Y-107666666D01*
X157150056Y-107285713D02*
X157102437Y-107238094D01*
X157102437Y-107238094D02*
X157054818Y-107142856D01*
X157054818Y-107142856D02*
X157054818Y-106904761D01*
X157054818Y-106904761D02*
X157102437Y-106809523D01*
X157102437Y-106809523D02*
X157150056Y-106761904D01*
X157150056Y-106761904D02*
X157245294Y-106714285D01*
X157245294Y-106714285D02*
X157340532Y-106714285D01*
X157340532Y-106714285D02*
X157483389Y-106761904D01*
X157483389Y-106761904D02*
X158054818Y-107333332D01*
X158054818Y-107333332D02*
X158054818Y-106714285D01*
X149303095Y-107024819D02*
X149303095Y-107834342D01*
X149303095Y-107834342D02*
X149350714Y-107929580D01*
X149350714Y-107929580D02*
X149398333Y-107977200D01*
X149398333Y-107977200D02*
X149493571Y-108024819D01*
X149493571Y-108024819D02*
X149684047Y-108024819D01*
X149684047Y-108024819D02*
X149779285Y-107977200D01*
X149779285Y-107977200D02*
X149826904Y-107929580D01*
X149826904Y-107929580D02*
X149874523Y-107834342D01*
X149874523Y-107834342D02*
X149874523Y-107024819D01*
X150779285Y-107358152D02*
X150779285Y-108024819D01*
X150541190Y-106977200D02*
X150303095Y-107691485D01*
X150303095Y-107691485D02*
X150922142Y-107691485D01*
X134904761Y-95800057D02*
X134809523Y-95752438D01*
X134809523Y-95752438D02*
X134714285Y-95657200D01*
X134714285Y-95657200D02*
X134571428Y-95514342D01*
X134571428Y-95514342D02*
X134476190Y-95466723D01*
X134476190Y-95466723D02*
X134380952Y-95466723D01*
X134428571Y-95704819D02*
X134333333Y-95657200D01*
X134333333Y-95657200D02*
X134238095Y-95561961D01*
X134238095Y-95561961D02*
X134190476Y-95371485D01*
X134190476Y-95371485D02*
X134190476Y-95038152D01*
X134190476Y-95038152D02*
X134238095Y-94847676D01*
X134238095Y-94847676D02*
X134333333Y-94752438D01*
X134333333Y-94752438D02*
X134428571Y-94704819D01*
X134428571Y-94704819D02*
X134619047Y-94704819D01*
X134619047Y-94704819D02*
X134714285Y-94752438D01*
X134714285Y-94752438D02*
X134809523Y-94847676D01*
X134809523Y-94847676D02*
X134857142Y-95038152D01*
X134857142Y-95038152D02*
X134857142Y-95371485D01*
X134857142Y-95371485D02*
X134809523Y-95561961D01*
X134809523Y-95561961D02*
X134714285Y-95657200D01*
X134714285Y-95657200D02*
X134619047Y-95704819D01*
X134619047Y-95704819D02*
X134428571Y-95704819D01*
X135809523Y-95704819D02*
X135238095Y-95704819D01*
X135523809Y-95704819D02*
X135523809Y-94704819D01*
X135523809Y-94704819D02*
X135428571Y-94847676D01*
X135428571Y-94847676D02*
X135333333Y-94942914D01*
X135333333Y-94942914D02*
X135238095Y-94990533D01*
X128833333Y-139704819D02*
X128500000Y-139228628D01*
X128261905Y-139704819D02*
X128261905Y-138704819D01*
X128261905Y-138704819D02*
X128642857Y-138704819D01*
X128642857Y-138704819D02*
X128738095Y-138752438D01*
X128738095Y-138752438D02*
X128785714Y-138800057D01*
X128785714Y-138800057D02*
X128833333Y-138895295D01*
X128833333Y-138895295D02*
X128833333Y-139038152D01*
X128833333Y-139038152D02*
X128785714Y-139133390D01*
X128785714Y-139133390D02*
X128738095Y-139181009D01*
X128738095Y-139181009D02*
X128642857Y-139228628D01*
X128642857Y-139228628D02*
X128261905Y-139228628D01*
X129309524Y-139704819D02*
X129500000Y-139704819D01*
X129500000Y-139704819D02*
X129595238Y-139657200D01*
X129595238Y-139657200D02*
X129642857Y-139609580D01*
X129642857Y-139609580D02*
X129738095Y-139466723D01*
X129738095Y-139466723D02*
X129785714Y-139276247D01*
X129785714Y-139276247D02*
X129785714Y-138895295D01*
X129785714Y-138895295D02*
X129738095Y-138800057D01*
X129738095Y-138800057D02*
X129690476Y-138752438D01*
X129690476Y-138752438D02*
X129595238Y-138704819D01*
X129595238Y-138704819D02*
X129404762Y-138704819D01*
X129404762Y-138704819D02*
X129309524Y-138752438D01*
X129309524Y-138752438D02*
X129261905Y-138800057D01*
X129261905Y-138800057D02*
X129214286Y-138895295D01*
X129214286Y-138895295D02*
X129214286Y-139133390D01*
X129214286Y-139133390D02*
X129261905Y-139228628D01*
X129261905Y-139228628D02*
X129309524Y-139276247D01*
X129309524Y-139276247D02*
X129404762Y-139323866D01*
X129404762Y-139323866D02*
X129595238Y-139323866D01*
X129595238Y-139323866D02*
X129690476Y-139276247D01*
X129690476Y-139276247D02*
X129738095Y-139228628D01*
X129738095Y-139228628D02*
X129785714Y-139133390D01*
X157954819Y-71642857D02*
X157478628Y-71976190D01*
X157954819Y-72214285D02*
X156954819Y-72214285D01*
X156954819Y-72214285D02*
X156954819Y-71833333D01*
X156954819Y-71833333D02*
X157002438Y-71738095D01*
X157002438Y-71738095D02*
X157050057Y-71690476D01*
X157050057Y-71690476D02*
X157145295Y-71642857D01*
X157145295Y-71642857D02*
X157288152Y-71642857D01*
X157288152Y-71642857D02*
X157383390Y-71690476D01*
X157383390Y-71690476D02*
X157431009Y-71738095D01*
X157431009Y-71738095D02*
X157478628Y-71833333D01*
X157478628Y-71833333D02*
X157478628Y-72214285D01*
X157954819Y-70690476D02*
X157954819Y-71261904D01*
X157954819Y-70976190D02*
X156954819Y-70976190D01*
X156954819Y-70976190D02*
X157097676Y-71071428D01*
X157097676Y-71071428D02*
X157192914Y-71166666D01*
X157192914Y-71166666D02*
X157240533Y-71261904D01*
X157954819Y-69738095D02*
X157954819Y-70309523D01*
X157954819Y-70023809D02*
X156954819Y-70023809D01*
X156954819Y-70023809D02*
X157097676Y-70119047D01*
X157097676Y-70119047D02*
X157192914Y-70214285D01*
X157192914Y-70214285D02*
X157240533Y-70309523D01*
X142954819Y-56916666D02*
X142478628Y-57249999D01*
X142954819Y-57488094D02*
X141954819Y-57488094D01*
X141954819Y-57488094D02*
X141954819Y-57107142D01*
X141954819Y-57107142D02*
X142002438Y-57011904D01*
X142002438Y-57011904D02*
X142050057Y-56964285D01*
X142050057Y-56964285D02*
X142145295Y-56916666D01*
X142145295Y-56916666D02*
X142288152Y-56916666D01*
X142288152Y-56916666D02*
X142383390Y-56964285D01*
X142383390Y-56964285D02*
X142431009Y-57011904D01*
X142431009Y-57011904D02*
X142478628Y-57107142D01*
X142478628Y-57107142D02*
X142478628Y-57488094D01*
X141954819Y-56011904D02*
X141954819Y-56488094D01*
X141954819Y-56488094D02*
X142431009Y-56535713D01*
X142431009Y-56535713D02*
X142383390Y-56488094D01*
X142383390Y-56488094D02*
X142335771Y-56392856D01*
X142335771Y-56392856D02*
X142335771Y-56154761D01*
X142335771Y-56154761D02*
X142383390Y-56059523D01*
X142383390Y-56059523D02*
X142431009Y-56011904D01*
X142431009Y-56011904D02*
X142526247Y-55964285D01*
X142526247Y-55964285D02*
X142764342Y-55964285D01*
X142764342Y-55964285D02*
X142859580Y-56011904D01*
X142859580Y-56011904D02*
X142907200Y-56059523D01*
X142907200Y-56059523D02*
X142954819Y-56154761D01*
X142954819Y-56154761D02*
X142954819Y-56392856D01*
X142954819Y-56392856D02*
X142907200Y-56488094D01*
X142907200Y-56488094D02*
X142859580Y-56535713D01*
X142954819Y-114392857D02*
X142478628Y-114726190D01*
X142954819Y-114964285D02*
X141954819Y-114964285D01*
X141954819Y-114964285D02*
X141954819Y-114583333D01*
X141954819Y-114583333D02*
X142002438Y-114488095D01*
X142002438Y-114488095D02*
X142050057Y-114440476D01*
X142050057Y-114440476D02*
X142145295Y-114392857D01*
X142145295Y-114392857D02*
X142288152Y-114392857D01*
X142288152Y-114392857D02*
X142383390Y-114440476D01*
X142383390Y-114440476D02*
X142431009Y-114488095D01*
X142431009Y-114488095D02*
X142478628Y-114583333D01*
X142478628Y-114583333D02*
X142478628Y-114964285D01*
X142050057Y-114011904D02*
X142002438Y-113964285D01*
X142002438Y-113964285D02*
X141954819Y-113869047D01*
X141954819Y-113869047D02*
X141954819Y-113630952D01*
X141954819Y-113630952D02*
X142002438Y-113535714D01*
X142002438Y-113535714D02*
X142050057Y-113488095D01*
X142050057Y-113488095D02*
X142145295Y-113440476D01*
X142145295Y-113440476D02*
X142240533Y-113440476D01*
X142240533Y-113440476D02*
X142383390Y-113488095D01*
X142383390Y-113488095D02*
X142954819Y-114059523D01*
X142954819Y-114059523D02*
X142954819Y-113440476D01*
X141954819Y-113107142D02*
X141954819Y-112440476D01*
X141954819Y-112440476D02*
X142954819Y-112869047D01*
X134303095Y-122024819D02*
X134303095Y-122834342D01*
X134303095Y-122834342D02*
X134350714Y-122929580D01*
X134350714Y-122929580D02*
X134398333Y-122977200D01*
X134398333Y-122977200D02*
X134493571Y-123024819D01*
X134493571Y-123024819D02*
X134684047Y-123024819D01*
X134684047Y-123024819D02*
X134779285Y-122977200D01*
X134779285Y-122977200D02*
X134826904Y-122929580D01*
X134826904Y-122929580D02*
X134874523Y-122834342D01*
X134874523Y-122834342D02*
X134874523Y-122024819D01*
X135874523Y-123024819D02*
X135303095Y-123024819D01*
X135588809Y-123024819D02*
X135588809Y-122024819D01*
X135588809Y-122024819D02*
X135493571Y-122167676D01*
X135493571Y-122167676D02*
X135398333Y-122262914D01*
X135398333Y-122262914D02*
X135303095Y-122310533D01*
X155583333Y-84704819D02*
X155250000Y-84228628D01*
X155011905Y-84704819D02*
X155011905Y-83704819D01*
X155011905Y-83704819D02*
X155392857Y-83704819D01*
X155392857Y-83704819D02*
X155488095Y-83752438D01*
X155488095Y-83752438D02*
X155535714Y-83800057D01*
X155535714Y-83800057D02*
X155583333Y-83895295D01*
X155583333Y-83895295D02*
X155583333Y-84038152D01*
X155583333Y-84038152D02*
X155535714Y-84133390D01*
X155535714Y-84133390D02*
X155488095Y-84181009D01*
X155488095Y-84181009D02*
X155392857Y-84228628D01*
X155392857Y-84228628D02*
X155011905Y-84228628D01*
X155964286Y-83800057D02*
X156011905Y-83752438D01*
X156011905Y-83752438D02*
X156107143Y-83704819D01*
X156107143Y-83704819D02*
X156345238Y-83704819D01*
X156345238Y-83704819D02*
X156440476Y-83752438D01*
X156440476Y-83752438D02*
X156488095Y-83800057D01*
X156488095Y-83800057D02*
X156535714Y-83895295D01*
X156535714Y-83895295D02*
X156535714Y-83990533D01*
X156535714Y-83990533D02*
X156488095Y-84133390D01*
X156488095Y-84133390D02*
X155916667Y-84704819D01*
X155916667Y-84704819D02*
X156535714Y-84704819D01*
X164303095Y-107024819D02*
X164303095Y-107834342D01*
X164303095Y-107834342D02*
X164350714Y-107929580D01*
X164350714Y-107929580D02*
X164398333Y-107977200D01*
X164398333Y-107977200D02*
X164493571Y-108024819D01*
X164493571Y-108024819D02*
X164684047Y-108024819D01*
X164684047Y-108024819D02*
X164779285Y-107977200D01*
X164779285Y-107977200D02*
X164826904Y-107929580D01*
X164826904Y-107929580D02*
X164874523Y-107834342D01*
X164874523Y-107834342D02*
X164874523Y-107024819D01*
X165255476Y-107024819D02*
X165874523Y-107024819D01*
X165874523Y-107024819D02*
X165541190Y-107405771D01*
X165541190Y-107405771D02*
X165684047Y-107405771D01*
X165684047Y-107405771D02*
X165779285Y-107453390D01*
X165779285Y-107453390D02*
X165826904Y-107501009D01*
X165826904Y-107501009D02*
X165874523Y-107596247D01*
X165874523Y-107596247D02*
X165874523Y-107834342D01*
X165874523Y-107834342D02*
X165826904Y-107929580D01*
X165826904Y-107929580D02*
X165779285Y-107977200D01*
X165779285Y-107977200D02*
X165684047Y-108024819D01*
X165684047Y-108024819D02*
X165398333Y-108024819D01*
X165398333Y-108024819D02*
X165303095Y-107977200D01*
X165303095Y-107977200D02*
X165255476Y-107929580D01*
D12*
%TO.C,R16*%
X128870000Y-89230000D02*
X128870000Y-95770000D01*
X128540000Y-89230000D02*
X128870000Y-89230000D01*
X126460000Y-89230000D02*
X126130000Y-89230000D01*
X126130000Y-89230000D02*
X126130000Y-95770000D01*
X128870000Y-95770000D02*
X128540000Y-95770000D01*
X126130000Y-95770000D02*
X126460000Y-95770000D01*
%TO.C,R21*%
X161730000Y-134380000D02*
X168270000Y-134380000D01*
X161730000Y-134710000D02*
X161730000Y-134380000D01*
X161730000Y-136790000D02*
X161730000Y-137120000D01*
X161730000Y-137120000D02*
X168270000Y-137120000D01*
X168270000Y-134380000D02*
X168270000Y-134710000D01*
X168270000Y-137120000D02*
X168270000Y-136790000D01*
%TO.C,R14*%
X126130000Y-80770000D02*
X126130000Y-74230000D01*
X126460000Y-80770000D02*
X126130000Y-80770000D01*
X128540000Y-80770000D02*
X128870000Y-80770000D01*
X128870000Y-80770000D02*
X128870000Y-74230000D01*
X126130000Y-74230000D02*
X126460000Y-74230000D01*
X128870000Y-74230000D02*
X128540000Y-74230000D01*
%TO.C,J3*%
X139500000Y-68500000D02*
X135800000Y-68500000D01*
X139500000Y-58000000D02*
X139500000Y-68500000D01*
X139500000Y-58000000D02*
X135720000Y-58000000D01*
X134280000Y-58000000D02*
X130500000Y-58000000D01*
X134200000Y-68500000D02*
X130500000Y-68500000D01*
X133770000Y-54850000D02*
X134630000Y-54850000D01*
X133770000Y-54850000D02*
X133770000Y-55650000D01*
X130500000Y-58000000D02*
X130500000Y-68500000D01*
X136800000Y-62500000D02*
G75*
G02*
X133200000Y-62500000I-1800000J0D01*
G01*
X133200000Y-62500000D02*
G75*
G02*
X136800000Y-62500000I1800000J0D01*
G01*
%TO.C,J6*%
X163940000Y-142090000D02*
X163940000Y-149910000D01*
X163940000Y-143690000D02*
X164860000Y-143690000D01*
X163940000Y-149910000D02*
X172060000Y-149910000D01*
X164700000Y-146050000D02*
X164700000Y-147650000D01*
X164700000Y-147650000D02*
X165700000Y-147650000D01*
X164860000Y-142090000D02*
X163940000Y-142090000D01*
X164860000Y-143690000D02*
X164860000Y-142090000D01*
X165140000Y-143690000D02*
X164860000Y-143690000D01*
X165140000Y-143690000D02*
X165140000Y-142475000D01*
X165200000Y-147650000D02*
X165200000Y-149910000D01*
X165700000Y-146050000D02*
X164700000Y-146050000D01*
X165700000Y-147650000D02*
X165700000Y-146050000D01*
X165700000Y-147650000D02*
X165700000Y-149910000D01*
X166500000Y-145550000D02*
X169500000Y-145550000D01*
X166500000Y-149910000D02*
X166500000Y-145550000D01*
X169500000Y-145550000D02*
X169500000Y-149910000D01*
X170300000Y-146050000D02*
X171300000Y-146050000D01*
X170300000Y-147650000D02*
X170300000Y-146050000D01*
X171140000Y-142090000D02*
X171140000Y-143690000D01*
X171140000Y-143690000D02*
X170860000Y-143690000D01*
X171300000Y-146050000D02*
X171300000Y-147650000D01*
X171300000Y-147650000D02*
X170300000Y-147650000D01*
X172060000Y-142090000D02*
X171140000Y-142090000D01*
X172060000Y-143690000D02*
X171140000Y-143690000D01*
X172060000Y-149910000D02*
X172060000Y-142090000D01*
%TO.C,R20*%
X161730000Y-113630000D02*
X168270000Y-113630000D01*
X161730000Y-113960000D02*
X161730000Y-113630000D01*
X161730000Y-116040000D02*
X161730000Y-116370000D01*
X161730000Y-116370000D02*
X168270000Y-116370000D01*
X168270000Y-113630000D02*
X168270000Y-113960000D01*
X168270000Y-116370000D02*
X168270000Y-116040000D01*
%TO.C,R12*%
X156130000Y-95770000D02*
X156130000Y-89230000D01*
X156460000Y-95770000D02*
X156130000Y-95770000D01*
X158540000Y-95770000D02*
X158870000Y-95770000D01*
X158870000Y-95770000D02*
X158870000Y-89230000D01*
X156130000Y-89230000D02*
X156460000Y-89230000D01*
X158870000Y-89230000D02*
X158540000Y-89230000D01*
%TO.C,RV4*%
X145100000Y-135400001D02*
X145100001Y-132000000D01*
X145100001Y-143000000D02*
X145100001Y-139600000D01*
X145100001Y-143000000D02*
X154899999Y-143000000D01*
X154899999Y-132000000D02*
X145100001Y-132000000D01*
X154899999Y-135400000D02*
X154899999Y-132000000D01*
X154899999Y-143000000D02*
X154900000Y-139599999D01*
X147279707Y-136139853D02*
G75*
G02*
X152699999Y-136100001I2720293J-1360147D01*
G01*
X152720293Y-138860147D02*
G75*
G02*
X147300001Y-138899999I-2720293J1360147D01*
G01*
%TO.C,R7*%
X161730000Y-137880000D02*
X168270000Y-137880000D01*
X161730000Y-138210000D02*
X161730000Y-137880000D01*
X161730000Y-140290000D02*
X161730000Y-140620000D01*
X161730000Y-140620000D02*
X168270000Y-140620000D01*
X168270000Y-137880000D02*
X168270000Y-138210000D01*
X168270000Y-140620000D02*
X168270000Y-140290000D01*
%TO.C,RV3*%
X160100000Y-120400001D02*
X160100001Y-117000000D01*
X160100001Y-128000000D02*
X160100001Y-124600000D01*
X160100001Y-128000000D02*
X169899999Y-128000000D01*
X169899999Y-117000000D02*
X160100001Y-117000000D01*
X169899999Y-120400000D02*
X169899999Y-117000000D01*
X169899999Y-128000000D02*
X169900000Y-124599999D01*
X162279707Y-121139853D02*
G75*
G02*
X167699999Y-121100001I2720293J-1360147D01*
G01*
X167720293Y-123860147D02*
G75*
G02*
X162300001Y-123899999I-2720293J1360147D01*
G01*
%TO.C,RV2*%
X130100000Y-105400001D02*
X130100001Y-102000000D01*
X130100001Y-113000000D02*
X130100001Y-109600000D01*
X130100001Y-113000000D02*
X139899999Y-113000000D01*
X139899999Y-102000000D02*
X130100001Y-102000000D01*
X139899999Y-105400000D02*
X139899999Y-102000000D01*
X139899999Y-113000000D02*
X139900000Y-109599999D01*
X132279707Y-106139853D02*
G75*
G02*
X137699999Y-106100001I2720293J-1360147D01*
G01*
X137720293Y-108860147D02*
G75*
G02*
X132300001Y-108899999I-2720293J1360147D01*
G01*
%TO.C,J5*%
X127940000Y-142090000D02*
X127940000Y-149910000D01*
X127940000Y-143690000D02*
X128860000Y-143690000D01*
X127940000Y-149910000D02*
X136060000Y-149910000D01*
X128700000Y-146050000D02*
X128700000Y-147650000D01*
X128700000Y-147650000D02*
X129700000Y-147650000D01*
X128860000Y-142090000D02*
X127940000Y-142090000D01*
X128860000Y-143690000D02*
X128860000Y-142090000D01*
X129140000Y-143690000D02*
X128860000Y-143690000D01*
X129140000Y-143690000D02*
X129140000Y-142475000D01*
X129200000Y-147650000D02*
X129200000Y-149910000D01*
X129700000Y-146050000D02*
X128700000Y-146050000D01*
X129700000Y-147650000D02*
X129700000Y-146050000D01*
X129700000Y-147650000D02*
X129700000Y-149910000D01*
X130500000Y-145550000D02*
X133500000Y-145550000D01*
X130500000Y-149910000D02*
X130500000Y-145550000D01*
X133500000Y-145550000D02*
X133500000Y-149910000D01*
X134300000Y-146050000D02*
X135300000Y-146050000D01*
X134300000Y-147650000D02*
X134300000Y-146050000D01*
X135140000Y-142090000D02*
X135140000Y-143690000D01*
X135140000Y-143690000D02*
X134860000Y-143690000D01*
X135300000Y-146050000D02*
X135300000Y-147650000D01*
X135300000Y-147650000D02*
X134300000Y-147650000D01*
X136060000Y-142090000D02*
X135140000Y-142090000D01*
X136060000Y-143690000D02*
X135140000Y-143690000D01*
X136060000Y-149910000D02*
X136060000Y-142090000D01*
%TO.C,J1*%
X139500000Y-83500000D02*
X135800000Y-83500000D01*
X139500000Y-73000000D02*
X139500000Y-83500000D01*
X139500000Y-73000000D02*
X135720000Y-73000000D01*
X134280000Y-73000000D02*
X130500000Y-73000000D01*
X134200000Y-83500000D02*
X130500000Y-83500000D01*
X133770000Y-69850000D02*
X134630000Y-69850000D01*
X133770000Y-69850000D02*
X133770000Y-70650000D01*
X130500000Y-73000000D02*
X130500000Y-83500000D01*
X136800000Y-77500000D02*
G75*
G02*
X133200000Y-77500000I-1800000J0D01*
G01*
X133200000Y-77500000D02*
G75*
G02*
X136800000Y-77500000I1800000J0D01*
G01*
%TO.C,RV1*%
X146500000Y-73965000D02*
X146500000Y-80155000D01*
X147000000Y-80155000D02*
X147000000Y-81000000D01*
X153000000Y-80155000D02*
X153000000Y-81000000D01*
X153000000Y-81000000D02*
X147000000Y-81000000D01*
X153500000Y-73965000D02*
X146500000Y-73965000D01*
X153500000Y-73965000D02*
X153500000Y-80155000D01*
X153500000Y-80155000D02*
X146500000Y-80155000D01*
%TO.C,R24*%
X131730000Y-130880000D02*
X138270000Y-130880000D01*
X131730000Y-131210000D02*
X131730000Y-130880000D01*
X131730000Y-133290000D02*
X131730000Y-133620000D01*
X131730000Y-133620000D02*
X138270000Y-133620000D01*
X138270000Y-130880000D02*
X138270000Y-131210000D01*
X138270000Y-133620000D02*
X138270000Y-133290000D01*
%TO.C,C1*%
X173900000Y-105000000D02*
X173900000Y-110000000D01*
X173500000Y-105000000D02*
X173900000Y-105000000D01*
X171500000Y-105000000D02*
X171100000Y-105000000D01*
X171100000Y-105000000D02*
X171100000Y-110000000D01*
X173900000Y-110000000D02*
X173500000Y-110000000D01*
X171100000Y-110000000D02*
X171500000Y-110000000D01*
%TO.C,R22*%
X138270000Y-137120000D02*
X131730000Y-137120000D01*
X138270000Y-136790000D02*
X138270000Y-137120000D01*
X138270000Y-134710000D02*
X138270000Y-134380000D01*
X138270000Y-134380000D02*
X131730000Y-134380000D01*
X131730000Y-137120000D02*
X131730000Y-136790000D01*
X131730000Y-134380000D02*
X131730000Y-134710000D01*
%TO.C,R13*%
X146730000Y-69630000D02*
X153270000Y-69630000D01*
X146730000Y-69960000D02*
X146730000Y-69630000D01*
X146730000Y-72040000D02*
X146730000Y-72370000D01*
X146730000Y-72370000D02*
X153270000Y-72370000D01*
X153270000Y-69630000D02*
X153270000Y-69960000D01*
X153270000Y-72370000D02*
X153270000Y-72040000D01*
%TO.C,R6*%
X126130000Y-125770000D02*
X126130000Y-119230000D01*
X126460000Y-125770000D02*
X126130000Y-125770000D01*
X128540000Y-125770000D02*
X128870000Y-125770000D01*
X128870000Y-125770000D02*
X128870000Y-119230000D01*
X126130000Y-119230000D02*
X126460000Y-119230000D01*
X128870000Y-119230000D02*
X128540000Y-119230000D01*
%TO.C,SOFT/HARD*%
D13*
X161000000Y-86000000D02*
X169000000Y-86000000D01*
X169000000Y-99000000D01*
X161000000Y-99000000D01*
X161000000Y-86000000D01*
D12*
%TO.C,R10*%
X126130000Y-65770000D02*
X126130000Y-59230000D01*
X126460000Y-65770000D02*
X126130000Y-65770000D01*
X128540000Y-65770000D02*
X128870000Y-65770000D01*
X128870000Y-65770000D02*
X128870000Y-59230000D01*
X126130000Y-59230000D02*
X126460000Y-59230000D01*
X128870000Y-59230000D02*
X128540000Y-59230000D01*
%TO.C,R19*%
X146480000Y-99380000D02*
X153020000Y-99380000D01*
X146480000Y-99710000D02*
X146480000Y-99380000D01*
X146480000Y-101790000D02*
X146480000Y-102120000D01*
X146480000Y-102120000D02*
X153020000Y-102120000D01*
X153020000Y-99380000D02*
X153020000Y-99710000D01*
X153020000Y-102120000D02*
X153020000Y-101790000D01*
%TO.C,R26*%
X141130000Y-95770000D02*
X141130000Y-89230000D01*
X141460000Y-95770000D02*
X141130000Y-95770000D01*
X143540000Y-95770000D02*
X143870000Y-95770000D01*
X143870000Y-95770000D02*
X143870000Y-89230000D01*
X141130000Y-89230000D02*
X141460000Y-89230000D01*
X143870000Y-89230000D02*
X143540000Y-89230000D01*
%TO.C,R8*%
X156130000Y-65770000D02*
X156130000Y-59230000D01*
X156460000Y-65770000D02*
X156130000Y-65770000D01*
X158540000Y-65770000D02*
X158870000Y-65770000D01*
X158870000Y-65770000D02*
X158870000Y-59230000D01*
X156130000Y-59230000D02*
X156460000Y-59230000D01*
X158870000Y-59230000D02*
X158540000Y-59230000D01*
%TO.C,U5*%
X147750000Y-117860000D02*
X147750000Y-127090000D01*
X147750000Y-127090000D02*
X152250000Y-127090000D01*
X149000000Y-117860000D02*
X147750000Y-117860000D01*
X152250000Y-117860000D02*
X151000000Y-117860000D01*
X152250000Y-127090000D02*
X152250000Y-117860000D01*
X151000000Y-117860000D02*
G75*
G02*
X149000000Y-117860000I-1000000J0D01*
G01*
%TO.C,R3*%
X143870000Y-119230000D02*
X143870000Y-125770000D01*
X143540000Y-119230000D02*
X143870000Y-119230000D01*
X141460000Y-119230000D02*
X141130000Y-119230000D01*
X141130000Y-119230000D02*
X141130000Y-125770000D01*
X143870000Y-125770000D02*
X143540000Y-125770000D01*
X141130000Y-125770000D02*
X141460000Y-125770000D01*
%TO.C,R15*%
X171130000Y-95770000D02*
X171130000Y-89230000D01*
X171460000Y-95770000D02*
X171130000Y-95770000D01*
X173540000Y-95770000D02*
X173870000Y-95770000D01*
X173870000Y-95770000D02*
X173870000Y-89230000D01*
X171130000Y-89230000D02*
X171460000Y-89230000D01*
X173870000Y-89230000D02*
X173540000Y-89230000D01*
%TO.C,R18*%
X171130000Y-65770000D02*
X171130000Y-59230000D01*
X171460000Y-65770000D02*
X171130000Y-65770000D01*
X173540000Y-65770000D02*
X173870000Y-65770000D01*
X173870000Y-65770000D02*
X173870000Y-59230000D01*
X171130000Y-59230000D02*
X171460000Y-59230000D01*
X173870000Y-59230000D02*
X173540000Y-59230000D01*
%TO.C,J4*%
X169500000Y-68500000D02*
X165800000Y-68500000D01*
X169500000Y-58000000D02*
X169500000Y-68500000D01*
X169500000Y-58000000D02*
X165720000Y-58000000D01*
X164280000Y-58000000D02*
X160500000Y-58000000D01*
X164200000Y-68500000D02*
X160500000Y-68500000D01*
X163770000Y-54850000D02*
X164630000Y-54850000D01*
X163770000Y-54850000D02*
X163770000Y-55650000D01*
X160500000Y-58000000D02*
X160500000Y-68500000D01*
X166800000Y-62500000D02*
G75*
G02*
X163200000Y-62500000I-1800000J0D01*
G01*
X163200000Y-62500000D02*
G75*
G02*
X166800000Y-62500000I1800000J0D01*
G01*
%TO.C,U2*%
X162750000Y-72860000D02*
X162750000Y-82090000D01*
X162750000Y-82090000D02*
X167250000Y-82090000D01*
X164000000Y-72860000D02*
X162750000Y-72860000D01*
X167250000Y-72860000D02*
X166000000Y-72860000D01*
X167250000Y-82090000D02*
X167250000Y-72860000D01*
X166000000Y-72860000D02*
G75*
G02*
X164000000Y-72860000I-1000000J0D01*
G01*
%TO.C,J2*%
X154500000Y-68500000D02*
X150800000Y-68500000D01*
X154500000Y-58000000D02*
X154500000Y-68500000D01*
X154500000Y-58000000D02*
X150720000Y-58000000D01*
X149280000Y-58000000D02*
X145500000Y-58000000D01*
X149200000Y-68500000D02*
X145500000Y-68500000D01*
X148770000Y-54850000D02*
X149630000Y-54850000D01*
X148770000Y-54850000D02*
X148770000Y-55650000D01*
X145500000Y-58000000D02*
X145500000Y-68500000D01*
X151800000Y-62500000D02*
G75*
G02*
X148200000Y-62500000I-1800000J0D01*
G01*
X148200000Y-62500000D02*
G75*
G02*
X151800000Y-62500000I1800000J0D01*
G01*
%TO.C,D2*%
X162230000Y-100750000D02*
X162880000Y-100750000D01*
X163480000Y-99630000D02*
X163480000Y-101870000D01*
X163600000Y-99630000D02*
X163600000Y-101870000D01*
X163720000Y-99630000D02*
X163720000Y-101870000D01*
X167770000Y-100750000D02*
X167120000Y-100750000D01*
X162880000Y-99630000D02*
X167120000Y-99630000D01*
X167120000Y-101870000D01*
X162880000Y-101870000D01*
X162880000Y-99630000D01*
%TO.C,LP/BP*%
D13*
X146000000Y-86000000D02*
X154000000Y-86000000D01*
X154000000Y-99000000D01*
X146000000Y-99000000D01*
X146000000Y-86000000D01*
D12*
%TO.C,R25*%
X158870000Y-119480000D02*
X158870000Y-126020000D01*
X158540000Y-119480000D02*
X158870000Y-119480000D01*
X156460000Y-119480000D02*
X156130000Y-119480000D01*
X156130000Y-119480000D02*
X156130000Y-126020000D01*
X158870000Y-126020000D02*
X158540000Y-126020000D01*
X156130000Y-126020000D02*
X156460000Y-126020000D01*
%TO.C,R4*%
X173870000Y-119230000D02*
X173870000Y-125770000D01*
X173540000Y-119230000D02*
X173870000Y-119230000D01*
X171460000Y-119230000D02*
X171130000Y-119230000D01*
X171130000Y-119230000D02*
X171130000Y-125770000D01*
X173870000Y-125770000D02*
X173540000Y-125770000D01*
X171130000Y-125770000D02*
X171460000Y-125770000D01*
%TO.C,D1*%
X167769999Y-84500000D02*
X167119999Y-84500000D01*
X166519999Y-85620000D02*
X166519999Y-83380000D01*
X166399999Y-85620000D02*
X166399999Y-83380000D01*
X166279999Y-85620000D02*
X166279999Y-83380000D01*
X162229999Y-84500000D02*
X162879999Y-84500000D01*
X167119999Y-85620000D02*
X162879999Y-85620000D01*
X162879999Y-83380000D01*
X167119999Y-83380000D01*
X167119999Y-85620000D01*
%TO.C,R17*%
X173870000Y-74230000D02*
X173870000Y-80770000D01*
X173540000Y-74230000D02*
X173870000Y-74230000D01*
X171460000Y-74230000D02*
X171130000Y-74230000D01*
X171130000Y-74230000D02*
X171130000Y-80770000D01*
X173870000Y-80770000D02*
X173540000Y-80770000D01*
X171130000Y-80770000D02*
X171460000Y-80770000D01*
%TO.C,R23*%
X153270000Y-116370000D02*
X146730000Y-116370000D01*
X153270000Y-116040000D02*
X153270000Y-116370000D01*
X153270000Y-113960000D02*
X153270000Y-113630000D01*
X153270000Y-113630000D02*
X146730000Y-113630000D01*
X146730000Y-116370000D02*
X146730000Y-116040000D01*
X146730000Y-113630000D02*
X146730000Y-113960000D01*
%TO.C,R1*%
X141130000Y-80770000D02*
X141130000Y-74230000D01*
X141460000Y-80770000D02*
X141130000Y-80770000D01*
X143540000Y-80770000D02*
X143870000Y-80770000D01*
X143870000Y-80770000D02*
X143870000Y-74230000D01*
X141130000Y-74230000D02*
X141460000Y-74230000D01*
X143870000Y-74230000D02*
X143540000Y-74230000D01*
%TO.C,C2*%
X159000000Y-105000000D02*
X159000000Y-110000000D01*
X158600000Y-105000000D02*
X159000000Y-105000000D01*
X156600000Y-105000000D02*
X156200000Y-105000000D01*
X156200000Y-105000000D02*
X156200000Y-110000000D01*
X159000000Y-110000000D02*
X158600000Y-110000000D01*
X156200000Y-110000000D02*
X156600000Y-110000000D01*
%TO.C,U4*%
X147750000Y-102860000D02*
X147750000Y-112090000D01*
X147750000Y-112090000D02*
X152250000Y-112090000D01*
X149000000Y-102860000D02*
X147750000Y-102860000D01*
X152250000Y-102860000D02*
X151000000Y-102860000D01*
X152250000Y-112090000D02*
X152250000Y-102860000D01*
X151000000Y-102860000D02*
G75*
G02*
X149000000Y-102860000I-1000000J0D01*
G01*
%TO.C,Q1*%
X133200000Y-94350000D02*
X136800000Y-94350000D01*
X133161522Y-94338478D02*
G75*
G02*
X135000000Y-89899999I1838478J1838478D01*
G01*
X135000000Y-89900000D02*
G75*
G02*
X136838478Y-94338478I0J-2600000D01*
G01*
%TO.C,R9*%
X138270000Y-140620000D02*
X131730000Y-140620000D01*
X138270000Y-140290000D02*
X138270000Y-140620000D01*
X138270000Y-138210000D02*
X138270000Y-137880000D01*
X138270000Y-137880000D02*
X131730000Y-137880000D01*
X131730000Y-140620000D02*
X131730000Y-140290000D01*
X131730000Y-137880000D02*
X131730000Y-138210000D01*
%TO.C,R11*%
X158870000Y-74230000D02*
X158870000Y-80770000D01*
X158540000Y-74230000D02*
X158870000Y-74230000D01*
X156460000Y-74230000D02*
X156130000Y-74230000D01*
X156130000Y-74230000D02*
X156130000Y-80770000D01*
X158870000Y-80770000D02*
X158540000Y-80770000D01*
X156130000Y-80770000D02*
X156460000Y-80770000D01*
%TO.C,R5*%
X143870000Y-59230000D02*
X143870000Y-65770000D01*
X143540000Y-59230000D02*
X143870000Y-59230000D01*
X141460000Y-59230000D02*
X141130000Y-59230000D01*
X141130000Y-59230000D02*
X141130000Y-65770000D01*
X143870000Y-65770000D02*
X143540000Y-65770000D01*
X141130000Y-65770000D02*
X141460000Y-65770000D01*
%TO.C,R27*%
X141130000Y-110770000D02*
X141130000Y-104230000D01*
X141460000Y-110770000D02*
X141130000Y-110770000D01*
X143540000Y-110770000D02*
X143870000Y-110770000D01*
X143870000Y-110770000D02*
X143870000Y-104230000D01*
X141130000Y-104230000D02*
X141460000Y-104230000D01*
X143870000Y-104230000D02*
X143540000Y-104230000D01*
%TO.C,U1*%
X132750000Y-117860000D02*
X132750000Y-127090000D01*
X132750000Y-127090000D02*
X137250000Y-127090000D01*
X134000000Y-117860000D02*
X132750000Y-117860000D01*
X137250000Y-117860000D02*
X136000000Y-117860000D01*
X137250000Y-127090000D02*
X137250000Y-117860000D01*
X136000000Y-117860000D02*
G75*
G02*
X134000000Y-117860000I-1000000J0D01*
G01*
%TO.C,R2*%
X153270000Y-85620000D02*
X153270000Y-85290000D01*
X153270000Y-82880000D02*
X153270000Y-83210000D01*
X146730000Y-85620000D02*
X153270000Y-85620000D01*
X146730000Y-85290000D02*
X146730000Y-85620000D01*
X146730000Y-83210000D02*
X146730000Y-82880000D01*
X146730000Y-82880000D02*
X153270000Y-82880000D01*
%TO.C,U3*%
X162750000Y-102860000D02*
X162750000Y-112090000D01*
X162750000Y-112090000D02*
X167250000Y-112090000D01*
X164000000Y-102860000D02*
X162750000Y-102860000D01*
X167250000Y-102860000D02*
X166000000Y-102860000D01*
X167250000Y-112090000D02*
X167250000Y-102860000D01*
X166000000Y-102860000D02*
G75*
G02*
X164000000Y-102860000I-1000000J0D01*
G01*
%TD*%
%LPC*%
D14*
%TO.C,R16*%
X127500000Y-88690000D03*
D15*
X127500000Y-96310000D03*
%TD*%
D14*
%TO.C,R21*%
X161190000Y-135750000D03*
D15*
X168810000Y-135750000D03*
%TD*%
D14*
%TO.C,R14*%
X127500000Y-81310000D03*
D15*
X127500000Y-73690000D03*
%TD*%
D16*
%TO.C,J3*%
X135000000Y-56020000D03*
D17*
X135000000Y-59120000D03*
X135000000Y-67420000D03*
%TD*%
D18*
%TO.C,J6*%
X166000000Y-143550000D03*
D19*
X168000000Y-143550000D03*
X170000000Y-143550000D03*
%TD*%
D14*
%TO.C,R20*%
X161190000Y-115000000D03*
D15*
X168810000Y-115000000D03*
%TD*%
D14*
%TO.C,R12*%
X157500000Y-96310000D03*
D15*
X157500000Y-88690000D03*
%TD*%
D20*
%TO.C,RV4*%
X145600000Y-137500000D03*
X154400000Y-137500000D03*
D21*
X152500001Y-144500000D03*
X150000000Y-144500000D03*
X147499999Y-144500000D03*
%TD*%
D14*
%TO.C,R7*%
X161190000Y-139250000D03*
D15*
X168810000Y-139250000D03*
%TD*%
D20*
%TO.C,RV3*%
X160600000Y-122500000D03*
X169400000Y-122500000D03*
D21*
X167500001Y-129500000D03*
X165000000Y-129500000D03*
X162499999Y-129500000D03*
%TD*%
D20*
%TO.C,RV2*%
X130600000Y-107500000D03*
X139400000Y-107500000D03*
D21*
X137500001Y-114500000D03*
X135000000Y-114500000D03*
X132499999Y-114500000D03*
%TD*%
D18*
%TO.C,J5*%
X130000000Y-143550000D03*
D19*
X132000000Y-143550000D03*
X134000000Y-143550000D03*
%TD*%
D16*
%TO.C,J1*%
X135000000Y-71020000D03*
D17*
X135000000Y-74120000D03*
X135000000Y-82420000D03*
%TD*%
D22*
%TO.C,RV1*%
X152530000Y-77505000D03*
X149990000Y-74965000D03*
X147450000Y-77505000D03*
%TD*%
D14*
%TO.C,R24*%
X131190000Y-132250000D03*
D15*
X138810000Y-132250000D03*
%TD*%
D14*
%TO.C,C1*%
X172500000Y-105000000D03*
X172500000Y-110000000D03*
%TD*%
%TO.C,R22*%
X138810000Y-135750000D03*
D15*
X131190000Y-135750000D03*
%TD*%
D14*
%TO.C,R13*%
X146190000Y-71000000D03*
D15*
X153810000Y-71000000D03*
%TD*%
D14*
%TO.C,R6*%
X127500000Y-126310000D03*
D15*
X127500000Y-118690000D03*
%TD*%
D23*
%TO.C,SOFT/HARD*%
X165000000Y-87800000D03*
X165000000Y-92500000D03*
X165000000Y-97200000D03*
%TD*%
D14*
%TO.C,R10*%
X127500000Y-66310000D03*
D15*
X127500000Y-58690000D03*
%TD*%
D14*
%TO.C,R19*%
X145940000Y-100750000D03*
D15*
X153560000Y-100750000D03*
%TD*%
D14*
%TO.C,R26*%
X142500000Y-96310000D03*
D15*
X142500000Y-88690000D03*
%TD*%
D14*
%TO.C,R8*%
X157500000Y-66310000D03*
D15*
X157500000Y-58690000D03*
%TD*%
D24*
%TO.C,U5*%
X146190000Y-118690000D03*
D25*
X146190000Y-121230000D03*
X146190000Y-123770000D03*
X146190000Y-126310000D03*
X153810000Y-126310000D03*
X153810000Y-123770000D03*
X153810000Y-121230000D03*
X153810000Y-118690000D03*
%TD*%
D14*
%TO.C,R3*%
X142500000Y-118690000D03*
D15*
X142500000Y-126310000D03*
%TD*%
D14*
%TO.C,R15*%
X172500000Y-96310000D03*
D15*
X172500000Y-88690000D03*
%TD*%
D14*
%TO.C,R18*%
X172500000Y-66310000D03*
D15*
X172500000Y-58690000D03*
%TD*%
D16*
%TO.C,J4*%
X165000000Y-56020000D03*
D17*
X165000000Y-59120000D03*
X165000000Y-67420000D03*
%TD*%
D24*
%TO.C,U2*%
X161190000Y-73690000D03*
D25*
X161190000Y-76230000D03*
X161190000Y-78770000D03*
X161190000Y-81310000D03*
X168810000Y-81310000D03*
X168810000Y-78770000D03*
X168810000Y-76230000D03*
X168810000Y-73690000D03*
%TD*%
D16*
%TO.C,J2*%
X150000000Y-56020000D03*
D17*
X150000000Y-59120000D03*
X150000000Y-67420000D03*
%TD*%
D26*
%TO.C,D2*%
X161190000Y-100750000D03*
D14*
X168810000Y-100750000D03*
%TD*%
D23*
%TO.C,LP/BP*%
X150000000Y-87800000D03*
X150000000Y-92500000D03*
X150000000Y-97200000D03*
%TD*%
D14*
%TO.C,R25*%
X157500000Y-118940000D03*
D15*
X157500000Y-126560000D03*
%TD*%
D14*
%TO.C,R4*%
X172500000Y-118690000D03*
D15*
X172500000Y-126310000D03*
%TD*%
D27*
%TO.C,D1*%
X168809999Y-84500000D03*
D14*
X161189999Y-84500000D03*
%TD*%
%TO.C,R17*%
X172500000Y-73690000D03*
D15*
X172500000Y-81310000D03*
%TD*%
D14*
%TO.C,R23*%
X153810000Y-115000000D03*
D15*
X146190000Y-115000000D03*
%TD*%
D14*
%TO.C,R1*%
X142500000Y-81310000D03*
D15*
X142500000Y-73690000D03*
%TD*%
D14*
%TO.C,C2*%
X157600000Y-105000000D03*
X157600000Y-110000000D03*
%TD*%
D24*
%TO.C,U4*%
X146190000Y-103690000D03*
D25*
X146190000Y-106230000D03*
X146190000Y-108770000D03*
X146190000Y-111310000D03*
X153810000Y-111310000D03*
X153810000Y-108770000D03*
X153810000Y-106230000D03*
X153810000Y-103690000D03*
%TD*%
D28*
%TO.C,Q1*%
X136730000Y-92500000D03*
X135000000Y-92500000D03*
D29*
X133230000Y-92500000D03*
%TD*%
D14*
%TO.C,R9*%
X138810000Y-139250000D03*
D15*
X131190000Y-139250000D03*
%TD*%
D14*
%TO.C,R11*%
X157500000Y-73690000D03*
D15*
X157500000Y-81310000D03*
%TD*%
D14*
%TO.C,R5*%
X142500000Y-58690000D03*
D15*
X142500000Y-66310000D03*
%TD*%
D14*
%TO.C,R27*%
X142500000Y-111310000D03*
D15*
X142500000Y-103690000D03*
%TD*%
D24*
%TO.C,U1*%
X131190000Y-118690000D03*
D25*
X131190000Y-121230000D03*
X131190000Y-123770000D03*
X131190000Y-126310000D03*
X138810000Y-126310000D03*
X138810000Y-123770000D03*
X138810000Y-121230000D03*
X138810000Y-118690000D03*
%TD*%
D15*
%TO.C,R2*%
X153810000Y-84250000D03*
D14*
X146190000Y-84250000D03*
%TD*%
D24*
%TO.C,U3*%
X161190000Y-103690000D03*
D25*
X161190000Y-106230000D03*
X161190000Y-108770000D03*
X161190000Y-111310000D03*
X168810000Y-111310000D03*
X168810000Y-108770000D03*
X168810000Y-106230000D03*
X168810000Y-103690000D03*
%TD*%
%LPD*%
M02*
