%TF.GenerationSoftware,KiCad,Pcbnew,9.0.2*%
%TF.CreationDate,2025-06-21T00:54:04+10:00*%
%TF.ProjectId,VCF,5643462e-6b69-4636-9164-5f7063625858,1-0*%
%TF.SameCoordinates,Original*%
%TF.FileFunction,Legend,Top*%
%TF.FilePolarity,Positive*%
%FSLAX46Y46*%
G04 Gerber Fmt 4.6, Leading zero omitted, Abs format (unit mm)*
G04 Created by KiCad (PCBNEW 9.0.2) date 2025-06-21 00:54:04*
%MOMM*%
%LPD*%
G01*
G04 APERTURE LIST*
G04 Aperture macros list*
%AMRoundRect*
0 Rectangle with rounded corners*
0 $1 Rounding radius*
0 $2 $3 $4 $5 $6 $7 $8 $9 X,Y pos of 4 corners*
0 Add a 4 corners polygon primitive as box body*
4,1,4,$2,$3,$4,$5,$6,$7,$8,$9,$2,$3,0*
0 Add four circle primitives for the rounded corners*
1,1,$1+$1,$2,$3*
1,1,$1+$1,$4,$5*
1,1,$1+$1,$6,$7*
1,1,$1+$1,$8,$9*
0 Add four rect primitives between the rounded corners*
20,1,$1+$1,$2,$3,$4,$5,0*
20,1,$1+$1,$4,$5,$6,$7,0*
20,1,$1+$1,$6,$7,$8,$9,0*
20,1,$1+$1,$8,$9,$2,$3,0*%
G04 Aperture macros list end*
%ADD10C,0.150000*%
%ADD11C,0.100000*%
%ADD12C,0.120000*%
%ADD13C,1.600000*%
%ADD14O,1.600000X1.600000*%
%ADD15R,2.000000X2.000000*%
%ADD16C,2.200000*%
%ADD17RoundRect,0.291666X-0.408334X-0.708334X0.408334X-0.708334X0.408334X0.708334X-0.408334X0.708334X0*%
%ADD18O,1.400000X2.000000*%
%ADD19R,2.400000X1.600000*%
%ADD20O,2.400000X1.600000*%
%ADD21C,4.000000*%
%ADD22O,1.600000X2.400000*%
%ADD23C,1.440000*%
%ADD24O,3.600000X1.800000*%
%ADD25RoundRect,0.250000X-0.550000X-0.550000X0.550000X-0.550000X0.550000X0.550000X-0.550000X0.550000X0*%
%ADD26RoundRect,0.250000X0.550000X0.550000X-0.550000X0.550000X-0.550000X-0.550000X0.550000X-0.550000X0*%
%ADD27O,1.350000X1.900000*%
%ADD28R,1.350000X1.900000*%
G04 APERTURE END LIST*
D10*
X127954819Y-86892857D02*
X127478628Y-87226190D01*
X127954819Y-87464285D02*
X126954819Y-87464285D01*
X126954819Y-87464285D02*
X126954819Y-87083333D01*
X126954819Y-87083333D02*
X127002438Y-86988095D01*
X127002438Y-86988095D02*
X127050057Y-86940476D01*
X127050057Y-86940476D02*
X127145295Y-86892857D01*
X127145295Y-86892857D02*
X127288152Y-86892857D01*
X127288152Y-86892857D02*
X127383390Y-86940476D01*
X127383390Y-86940476D02*
X127431009Y-86988095D01*
X127431009Y-86988095D02*
X127478628Y-87083333D01*
X127478628Y-87083333D02*
X127478628Y-87464285D01*
X127954819Y-85940476D02*
X127954819Y-86511904D01*
X127954819Y-86226190D02*
X126954819Y-86226190D01*
X126954819Y-86226190D02*
X127097676Y-86321428D01*
X127097676Y-86321428D02*
X127192914Y-86416666D01*
X127192914Y-86416666D02*
X127240533Y-86511904D01*
X126954819Y-85083333D02*
X126954819Y-85273809D01*
X126954819Y-85273809D02*
X127002438Y-85369047D01*
X127002438Y-85369047D02*
X127050057Y-85416666D01*
X127050057Y-85416666D02*
X127192914Y-85511904D01*
X127192914Y-85511904D02*
X127383390Y-85559523D01*
X127383390Y-85559523D02*
X127764342Y-85559523D01*
X127764342Y-85559523D02*
X127859580Y-85511904D01*
X127859580Y-85511904D02*
X127907200Y-85464285D01*
X127907200Y-85464285D02*
X127954819Y-85369047D01*
X127954819Y-85369047D02*
X127954819Y-85178571D01*
X127954819Y-85178571D02*
X127907200Y-85083333D01*
X127907200Y-85083333D02*
X127859580Y-85035714D01*
X127859580Y-85035714D02*
X127764342Y-84988095D01*
X127764342Y-84988095D02*
X127526247Y-84988095D01*
X127526247Y-84988095D02*
X127431009Y-85035714D01*
X127431009Y-85035714D02*
X127383390Y-85083333D01*
X127383390Y-85083333D02*
X127335771Y-85178571D01*
X127335771Y-85178571D02*
X127335771Y-85369047D01*
X127335771Y-85369047D02*
X127383390Y-85464285D01*
X127383390Y-85464285D02*
X127431009Y-85511904D01*
X127431009Y-85511904D02*
X127526247Y-85559523D01*
X170857142Y-136204819D02*
X170523809Y-135728628D01*
X170285714Y-136204819D02*
X170285714Y-135204819D01*
X170285714Y-135204819D02*
X170666666Y-135204819D01*
X170666666Y-135204819D02*
X170761904Y-135252438D01*
X170761904Y-135252438D02*
X170809523Y-135300057D01*
X170809523Y-135300057D02*
X170857142Y-135395295D01*
X170857142Y-135395295D02*
X170857142Y-135538152D01*
X170857142Y-135538152D02*
X170809523Y-135633390D01*
X170809523Y-135633390D02*
X170761904Y-135681009D01*
X170761904Y-135681009D02*
X170666666Y-135728628D01*
X170666666Y-135728628D02*
X170285714Y-135728628D01*
X171238095Y-135300057D02*
X171285714Y-135252438D01*
X171285714Y-135252438D02*
X171380952Y-135204819D01*
X171380952Y-135204819D02*
X171619047Y-135204819D01*
X171619047Y-135204819D02*
X171714285Y-135252438D01*
X171714285Y-135252438D02*
X171761904Y-135300057D01*
X171761904Y-135300057D02*
X171809523Y-135395295D01*
X171809523Y-135395295D02*
X171809523Y-135490533D01*
X171809523Y-135490533D02*
X171761904Y-135633390D01*
X171761904Y-135633390D02*
X171190476Y-136204819D01*
X171190476Y-136204819D02*
X171809523Y-136204819D01*
X172761904Y-136204819D02*
X172190476Y-136204819D01*
X172476190Y-136204819D02*
X172476190Y-135204819D01*
X172476190Y-135204819D02*
X172380952Y-135347676D01*
X172380952Y-135347676D02*
X172285714Y-135442914D01*
X172285714Y-135442914D02*
X172190476Y-135490533D01*
X127954819Y-71892857D02*
X127478628Y-72226190D01*
X127954819Y-72464285D02*
X126954819Y-72464285D01*
X126954819Y-72464285D02*
X126954819Y-72083333D01*
X126954819Y-72083333D02*
X127002438Y-71988095D01*
X127002438Y-71988095D02*
X127050057Y-71940476D01*
X127050057Y-71940476D02*
X127145295Y-71892857D01*
X127145295Y-71892857D02*
X127288152Y-71892857D01*
X127288152Y-71892857D02*
X127383390Y-71940476D01*
X127383390Y-71940476D02*
X127431009Y-71988095D01*
X127431009Y-71988095D02*
X127478628Y-72083333D01*
X127478628Y-72083333D02*
X127478628Y-72464285D01*
X127954819Y-70940476D02*
X127954819Y-71511904D01*
X127954819Y-71226190D02*
X126954819Y-71226190D01*
X126954819Y-71226190D02*
X127097676Y-71321428D01*
X127097676Y-71321428D02*
X127192914Y-71416666D01*
X127192914Y-71416666D02*
X127240533Y-71511904D01*
X127288152Y-70083333D02*
X127954819Y-70083333D01*
X126907200Y-70321428D02*
X127621485Y-70559523D01*
X127621485Y-70559523D02*
X127621485Y-69940476D01*
X130636666Y-56554819D02*
X130636666Y-57269104D01*
X130636666Y-57269104D02*
X130589047Y-57411961D01*
X130589047Y-57411961D02*
X130493809Y-57507200D01*
X130493809Y-57507200D02*
X130350952Y-57554819D01*
X130350952Y-57554819D02*
X130255714Y-57554819D01*
X131017619Y-56554819D02*
X131636666Y-56554819D01*
X131636666Y-56554819D02*
X131303333Y-56935771D01*
X131303333Y-56935771D02*
X131446190Y-56935771D01*
X131446190Y-56935771D02*
X131541428Y-56983390D01*
X131541428Y-56983390D02*
X131589047Y-57031009D01*
X131589047Y-57031009D02*
X131636666Y-57126247D01*
X131636666Y-57126247D02*
X131636666Y-57364342D01*
X131636666Y-57364342D02*
X131589047Y-57459580D01*
X131589047Y-57459580D02*
X131541428Y-57507200D01*
X131541428Y-57507200D02*
X131446190Y-57554819D01*
X131446190Y-57554819D02*
X131160476Y-57554819D01*
X131160476Y-57554819D02*
X131065238Y-57507200D01*
X131065238Y-57507200D02*
X131017619Y-57459580D01*
X162416666Y-142454819D02*
X162416666Y-143169104D01*
X162416666Y-143169104D02*
X162369047Y-143311961D01*
X162369047Y-143311961D02*
X162273809Y-143407200D01*
X162273809Y-143407200D02*
X162130952Y-143454819D01*
X162130952Y-143454819D02*
X162035714Y-143454819D01*
X163321428Y-142454819D02*
X163130952Y-142454819D01*
X163130952Y-142454819D02*
X163035714Y-142502438D01*
X163035714Y-142502438D02*
X162988095Y-142550057D01*
X162988095Y-142550057D02*
X162892857Y-142692914D01*
X162892857Y-142692914D02*
X162845238Y-142883390D01*
X162845238Y-142883390D02*
X162845238Y-143264342D01*
X162845238Y-143264342D02*
X162892857Y-143359580D01*
X162892857Y-143359580D02*
X162940476Y-143407200D01*
X162940476Y-143407200D02*
X163035714Y-143454819D01*
X163035714Y-143454819D02*
X163226190Y-143454819D01*
X163226190Y-143454819D02*
X163321428Y-143407200D01*
X163321428Y-143407200D02*
X163369047Y-143359580D01*
X163369047Y-143359580D02*
X163416666Y-143264342D01*
X163416666Y-143264342D02*
X163416666Y-143026247D01*
X163416666Y-143026247D02*
X163369047Y-142931009D01*
X163369047Y-142931009D02*
X163321428Y-142883390D01*
X163321428Y-142883390D02*
X163226190Y-142835771D01*
X163226190Y-142835771D02*
X163035714Y-142835771D01*
X163035714Y-142835771D02*
X162940476Y-142883390D01*
X162940476Y-142883390D02*
X162892857Y-142931009D01*
X162892857Y-142931009D02*
X162845238Y-143026247D01*
X170607142Y-115454819D02*
X170273809Y-114978628D01*
X170035714Y-115454819D02*
X170035714Y-114454819D01*
X170035714Y-114454819D02*
X170416666Y-114454819D01*
X170416666Y-114454819D02*
X170511904Y-114502438D01*
X170511904Y-114502438D02*
X170559523Y-114550057D01*
X170559523Y-114550057D02*
X170607142Y-114645295D01*
X170607142Y-114645295D02*
X170607142Y-114788152D01*
X170607142Y-114788152D02*
X170559523Y-114883390D01*
X170559523Y-114883390D02*
X170511904Y-114931009D01*
X170511904Y-114931009D02*
X170416666Y-114978628D01*
X170416666Y-114978628D02*
X170035714Y-114978628D01*
X170988095Y-114550057D02*
X171035714Y-114502438D01*
X171035714Y-114502438D02*
X171130952Y-114454819D01*
X171130952Y-114454819D02*
X171369047Y-114454819D01*
X171369047Y-114454819D02*
X171464285Y-114502438D01*
X171464285Y-114502438D02*
X171511904Y-114550057D01*
X171511904Y-114550057D02*
X171559523Y-114645295D01*
X171559523Y-114645295D02*
X171559523Y-114740533D01*
X171559523Y-114740533D02*
X171511904Y-114883390D01*
X171511904Y-114883390D02*
X170940476Y-115454819D01*
X170940476Y-115454819D02*
X171559523Y-115454819D01*
X172178571Y-114454819D02*
X172273809Y-114454819D01*
X172273809Y-114454819D02*
X172369047Y-114502438D01*
X172369047Y-114502438D02*
X172416666Y-114550057D01*
X172416666Y-114550057D02*
X172464285Y-114645295D01*
X172464285Y-114645295D02*
X172511904Y-114835771D01*
X172511904Y-114835771D02*
X172511904Y-115073866D01*
X172511904Y-115073866D02*
X172464285Y-115264342D01*
X172464285Y-115264342D02*
X172416666Y-115359580D01*
X172416666Y-115359580D02*
X172369047Y-115407200D01*
X172369047Y-115407200D02*
X172273809Y-115454819D01*
X172273809Y-115454819D02*
X172178571Y-115454819D01*
X172178571Y-115454819D02*
X172083333Y-115407200D01*
X172083333Y-115407200D02*
X172035714Y-115359580D01*
X172035714Y-115359580D02*
X171988095Y-115264342D01*
X171988095Y-115264342D02*
X171940476Y-115073866D01*
X171940476Y-115073866D02*
X171940476Y-114835771D01*
X171940476Y-114835771D02*
X171988095Y-114645295D01*
X171988095Y-114645295D02*
X172035714Y-114550057D01*
X172035714Y-114550057D02*
X172083333Y-114502438D01*
X172083333Y-114502438D02*
X172178571Y-114454819D01*
X157954819Y-86892857D02*
X157478628Y-87226190D01*
X157954819Y-87464285D02*
X156954819Y-87464285D01*
X156954819Y-87464285D02*
X156954819Y-87083333D01*
X156954819Y-87083333D02*
X157002438Y-86988095D01*
X157002438Y-86988095D02*
X157050057Y-86940476D01*
X157050057Y-86940476D02*
X157145295Y-86892857D01*
X157145295Y-86892857D02*
X157288152Y-86892857D01*
X157288152Y-86892857D02*
X157383390Y-86940476D01*
X157383390Y-86940476D02*
X157431009Y-86988095D01*
X157431009Y-86988095D02*
X157478628Y-87083333D01*
X157478628Y-87083333D02*
X157478628Y-87464285D01*
X157954819Y-85940476D02*
X157954819Y-86511904D01*
X157954819Y-86226190D02*
X156954819Y-86226190D01*
X156954819Y-86226190D02*
X157097676Y-86321428D01*
X157097676Y-86321428D02*
X157192914Y-86416666D01*
X157192914Y-86416666D02*
X157240533Y-86511904D01*
X157050057Y-85559523D02*
X157002438Y-85511904D01*
X157002438Y-85511904D02*
X156954819Y-85416666D01*
X156954819Y-85416666D02*
X156954819Y-85178571D01*
X156954819Y-85178571D02*
X157002438Y-85083333D01*
X157002438Y-85083333D02*
X157050057Y-85035714D01*
X157050057Y-85035714D02*
X157145295Y-84988095D01*
X157145295Y-84988095D02*
X157240533Y-84988095D01*
X157240533Y-84988095D02*
X157383390Y-85035714D01*
X157383390Y-85035714D02*
X157954819Y-85607142D01*
X157954819Y-85607142D02*
X157954819Y-84988095D01*
X134303095Y-122024819D02*
X134303095Y-122834342D01*
X134303095Y-122834342D02*
X134350714Y-122929580D01*
X134350714Y-122929580D02*
X134398333Y-122977200D01*
X134398333Y-122977200D02*
X134493571Y-123024819D01*
X134493571Y-123024819D02*
X134684047Y-123024819D01*
X134684047Y-123024819D02*
X134779285Y-122977200D01*
X134779285Y-122977200D02*
X134826904Y-122929580D01*
X134826904Y-122929580D02*
X134874523Y-122834342D01*
X134874523Y-122834342D02*
X134874523Y-122024819D01*
X135255476Y-122024819D02*
X135874523Y-122024819D01*
X135874523Y-122024819D02*
X135541190Y-122405771D01*
X135541190Y-122405771D02*
X135684047Y-122405771D01*
X135684047Y-122405771D02*
X135779285Y-122453390D01*
X135779285Y-122453390D02*
X135826904Y-122501009D01*
X135826904Y-122501009D02*
X135874523Y-122596247D01*
X135874523Y-122596247D02*
X135874523Y-122834342D01*
X135874523Y-122834342D02*
X135826904Y-122929580D01*
X135826904Y-122929580D02*
X135779285Y-122977200D01*
X135779285Y-122977200D02*
X135684047Y-123024819D01*
X135684047Y-123024819D02*
X135398333Y-123024819D01*
X135398333Y-123024819D02*
X135303095Y-122977200D01*
X135303095Y-122977200D02*
X135255476Y-122929580D01*
X156454819Y-142095238D02*
X155978628Y-142428571D01*
X156454819Y-142666666D02*
X155454819Y-142666666D01*
X155454819Y-142666666D02*
X155454819Y-142285714D01*
X155454819Y-142285714D02*
X155502438Y-142190476D01*
X155502438Y-142190476D02*
X155550057Y-142142857D01*
X155550057Y-142142857D02*
X155645295Y-142095238D01*
X155645295Y-142095238D02*
X155788152Y-142095238D01*
X155788152Y-142095238D02*
X155883390Y-142142857D01*
X155883390Y-142142857D02*
X155931009Y-142190476D01*
X155931009Y-142190476D02*
X155978628Y-142285714D01*
X155978628Y-142285714D02*
X155978628Y-142666666D01*
X155454819Y-141809523D02*
X156454819Y-141476190D01*
X156454819Y-141476190D02*
X155454819Y-141142857D01*
X155788152Y-140380952D02*
X156454819Y-140380952D01*
X155407200Y-140619047D02*
X156121485Y-140857142D01*
X156121485Y-140857142D02*
X156121485Y-140238095D01*
X127954819Y-101916666D02*
X127478628Y-102249999D01*
X127954819Y-102488094D02*
X126954819Y-102488094D01*
X126954819Y-102488094D02*
X126954819Y-102107142D01*
X126954819Y-102107142D02*
X127002438Y-102011904D01*
X127002438Y-102011904D02*
X127050057Y-101964285D01*
X127050057Y-101964285D02*
X127145295Y-101916666D01*
X127145295Y-101916666D02*
X127288152Y-101916666D01*
X127288152Y-101916666D02*
X127383390Y-101964285D01*
X127383390Y-101964285D02*
X127431009Y-102011904D01*
X127431009Y-102011904D02*
X127478628Y-102107142D01*
X127478628Y-102107142D02*
X127478628Y-102488094D01*
X126954819Y-101583332D02*
X126954819Y-100916666D01*
X126954819Y-100916666D02*
X127954819Y-101345237D01*
X134404761Y-101454819D02*
X134071428Y-100978628D01*
X133833333Y-101454819D02*
X133833333Y-100454819D01*
X133833333Y-100454819D02*
X134214285Y-100454819D01*
X134214285Y-100454819D02*
X134309523Y-100502438D01*
X134309523Y-100502438D02*
X134357142Y-100550057D01*
X134357142Y-100550057D02*
X134404761Y-100645295D01*
X134404761Y-100645295D02*
X134404761Y-100788152D01*
X134404761Y-100788152D02*
X134357142Y-100883390D01*
X134357142Y-100883390D02*
X134309523Y-100931009D01*
X134309523Y-100931009D02*
X134214285Y-100978628D01*
X134214285Y-100978628D02*
X133833333Y-100978628D01*
X134690476Y-100454819D02*
X135023809Y-101454819D01*
X135023809Y-101454819D02*
X135357142Y-100454819D01*
X135595238Y-100454819D02*
X136214285Y-100454819D01*
X136214285Y-100454819D02*
X135880952Y-100835771D01*
X135880952Y-100835771D02*
X136023809Y-100835771D01*
X136023809Y-100835771D02*
X136119047Y-100883390D01*
X136119047Y-100883390D02*
X136166666Y-100931009D01*
X136166666Y-100931009D02*
X136214285Y-101026247D01*
X136214285Y-101026247D02*
X136214285Y-101264342D01*
X136214285Y-101264342D02*
X136166666Y-101359580D01*
X136166666Y-101359580D02*
X136119047Y-101407200D01*
X136119047Y-101407200D02*
X136023809Y-101454819D01*
X136023809Y-101454819D02*
X135738095Y-101454819D01*
X135738095Y-101454819D02*
X135642857Y-101407200D01*
X135642857Y-101407200D02*
X135595238Y-101359580D01*
X171454819Y-127095238D02*
X170978628Y-127428571D01*
X171454819Y-127666666D02*
X170454819Y-127666666D01*
X170454819Y-127666666D02*
X170454819Y-127285714D01*
X170454819Y-127285714D02*
X170502438Y-127190476D01*
X170502438Y-127190476D02*
X170550057Y-127142857D01*
X170550057Y-127142857D02*
X170645295Y-127095238D01*
X170645295Y-127095238D02*
X170788152Y-127095238D01*
X170788152Y-127095238D02*
X170883390Y-127142857D01*
X170883390Y-127142857D02*
X170931009Y-127190476D01*
X170931009Y-127190476D02*
X170978628Y-127285714D01*
X170978628Y-127285714D02*
X170978628Y-127666666D01*
X170454819Y-126809523D02*
X171454819Y-126476190D01*
X171454819Y-126476190D02*
X170454819Y-126142857D01*
X170550057Y-125857142D02*
X170502438Y-125809523D01*
X170502438Y-125809523D02*
X170454819Y-125714285D01*
X170454819Y-125714285D02*
X170454819Y-125476190D01*
X170454819Y-125476190D02*
X170502438Y-125380952D01*
X170502438Y-125380952D02*
X170550057Y-125333333D01*
X170550057Y-125333333D02*
X170645295Y-125285714D01*
X170645295Y-125285714D02*
X170740533Y-125285714D01*
X170740533Y-125285714D02*
X170883390Y-125333333D01*
X170883390Y-125333333D02*
X171454819Y-125904761D01*
X171454819Y-125904761D02*
X171454819Y-125285714D01*
X136916666Y-142454819D02*
X136916666Y-143169104D01*
X136916666Y-143169104D02*
X136869047Y-143311961D01*
X136869047Y-143311961D02*
X136773809Y-143407200D01*
X136773809Y-143407200D02*
X136630952Y-143454819D01*
X136630952Y-143454819D02*
X136535714Y-143454819D01*
X137869047Y-142454819D02*
X137392857Y-142454819D01*
X137392857Y-142454819D02*
X137345238Y-142931009D01*
X137345238Y-142931009D02*
X137392857Y-142883390D01*
X137392857Y-142883390D02*
X137488095Y-142835771D01*
X137488095Y-142835771D02*
X137726190Y-142835771D01*
X137726190Y-142835771D02*
X137821428Y-142883390D01*
X137821428Y-142883390D02*
X137869047Y-142931009D01*
X137869047Y-142931009D02*
X137916666Y-143026247D01*
X137916666Y-143026247D02*
X137916666Y-143264342D01*
X137916666Y-143264342D02*
X137869047Y-143359580D01*
X137869047Y-143359580D02*
X137821428Y-143407200D01*
X137821428Y-143407200D02*
X137726190Y-143454819D01*
X137726190Y-143454819D02*
X137488095Y-143454819D01*
X137488095Y-143454819D02*
X137392857Y-143407200D01*
X137392857Y-143407200D02*
X137345238Y-143359580D01*
X130636666Y-71554819D02*
X130636666Y-72269104D01*
X130636666Y-72269104D02*
X130589047Y-72411961D01*
X130589047Y-72411961D02*
X130493809Y-72507200D01*
X130493809Y-72507200D02*
X130350952Y-72554819D01*
X130350952Y-72554819D02*
X130255714Y-72554819D01*
X131636666Y-72554819D02*
X131065238Y-72554819D01*
X131350952Y-72554819D02*
X131350952Y-71554819D01*
X131350952Y-71554819D02*
X131255714Y-71697676D01*
X131255714Y-71697676D02*
X131160476Y-71792914D01*
X131160476Y-71792914D02*
X131065238Y-71840533D01*
X149404761Y-82304818D02*
X149071428Y-81828627D01*
X148833333Y-82304818D02*
X148833333Y-81304818D01*
X148833333Y-81304818D02*
X149214285Y-81304818D01*
X149214285Y-81304818D02*
X149309523Y-81352437D01*
X149309523Y-81352437D02*
X149357142Y-81400056D01*
X149357142Y-81400056D02*
X149404761Y-81495294D01*
X149404761Y-81495294D02*
X149404761Y-81638151D01*
X149404761Y-81638151D02*
X149357142Y-81733389D01*
X149357142Y-81733389D02*
X149309523Y-81781008D01*
X149309523Y-81781008D02*
X149214285Y-81828627D01*
X149214285Y-81828627D02*
X148833333Y-81828627D01*
X149690476Y-81304818D02*
X150023809Y-82304818D01*
X150023809Y-82304818D02*
X150357142Y-81304818D01*
X151214285Y-82304818D02*
X150642857Y-82304818D01*
X150928571Y-82304818D02*
X150928571Y-81304818D01*
X150928571Y-81304818D02*
X150833333Y-81447675D01*
X150833333Y-81447675D02*
X150738095Y-81542913D01*
X150738095Y-81542913D02*
X150642857Y-81590532D01*
X128107142Y-132704819D02*
X127773809Y-132228628D01*
X127535714Y-132704819D02*
X127535714Y-131704819D01*
X127535714Y-131704819D02*
X127916666Y-131704819D01*
X127916666Y-131704819D02*
X128011904Y-131752438D01*
X128011904Y-131752438D02*
X128059523Y-131800057D01*
X128059523Y-131800057D02*
X128107142Y-131895295D01*
X128107142Y-131895295D02*
X128107142Y-132038152D01*
X128107142Y-132038152D02*
X128059523Y-132133390D01*
X128059523Y-132133390D02*
X128011904Y-132181009D01*
X128011904Y-132181009D02*
X127916666Y-132228628D01*
X127916666Y-132228628D02*
X127535714Y-132228628D01*
X128488095Y-131800057D02*
X128535714Y-131752438D01*
X128535714Y-131752438D02*
X128630952Y-131704819D01*
X128630952Y-131704819D02*
X128869047Y-131704819D01*
X128869047Y-131704819D02*
X128964285Y-131752438D01*
X128964285Y-131752438D02*
X129011904Y-131800057D01*
X129011904Y-131800057D02*
X129059523Y-131895295D01*
X129059523Y-131895295D02*
X129059523Y-131990533D01*
X129059523Y-131990533D02*
X129011904Y-132133390D01*
X129011904Y-132133390D02*
X128440476Y-132704819D01*
X128440476Y-132704819D02*
X129059523Y-132704819D01*
X129916666Y-132038152D02*
X129916666Y-132704819D01*
X129678571Y-131657200D02*
X129440476Y-132371485D01*
X129440476Y-132371485D02*
X130059523Y-132371485D01*
X142859581Y-122666666D02*
X142907201Y-122714285D01*
X142907201Y-122714285D02*
X142954820Y-122857142D01*
X142954820Y-122857142D02*
X142954820Y-122952380D01*
X142954820Y-122952380D02*
X142907201Y-123095237D01*
X142907201Y-123095237D02*
X142811962Y-123190475D01*
X142811962Y-123190475D02*
X142716724Y-123238094D01*
X142716724Y-123238094D02*
X142526248Y-123285713D01*
X142526248Y-123285713D02*
X142383391Y-123285713D01*
X142383391Y-123285713D02*
X142192915Y-123238094D01*
X142192915Y-123238094D02*
X142097677Y-123190475D01*
X142097677Y-123190475D02*
X142002439Y-123095237D01*
X142002439Y-123095237D02*
X141954820Y-122952380D01*
X141954820Y-122952380D02*
X141954820Y-122857142D01*
X141954820Y-122857142D02*
X142002439Y-122714285D01*
X142002439Y-122714285D02*
X142050058Y-122666666D01*
X142954820Y-121714285D02*
X142954820Y-122285713D01*
X142954820Y-121999999D02*
X141954820Y-121999999D01*
X141954820Y-121999999D02*
X142097677Y-122095237D01*
X142097677Y-122095237D02*
X142192915Y-122190475D01*
X142192915Y-122190475D02*
X142240534Y-122285713D01*
X127857142Y-136204819D02*
X127523809Y-135728628D01*
X127285714Y-136204819D02*
X127285714Y-135204819D01*
X127285714Y-135204819D02*
X127666666Y-135204819D01*
X127666666Y-135204819D02*
X127761904Y-135252438D01*
X127761904Y-135252438D02*
X127809523Y-135300057D01*
X127809523Y-135300057D02*
X127857142Y-135395295D01*
X127857142Y-135395295D02*
X127857142Y-135538152D01*
X127857142Y-135538152D02*
X127809523Y-135633390D01*
X127809523Y-135633390D02*
X127761904Y-135681009D01*
X127761904Y-135681009D02*
X127666666Y-135728628D01*
X127666666Y-135728628D02*
X127285714Y-135728628D01*
X128238095Y-135300057D02*
X128285714Y-135252438D01*
X128285714Y-135252438D02*
X128380952Y-135204819D01*
X128380952Y-135204819D02*
X128619047Y-135204819D01*
X128619047Y-135204819D02*
X128714285Y-135252438D01*
X128714285Y-135252438D02*
X128761904Y-135300057D01*
X128761904Y-135300057D02*
X128809523Y-135395295D01*
X128809523Y-135395295D02*
X128809523Y-135490533D01*
X128809523Y-135490533D02*
X128761904Y-135633390D01*
X128761904Y-135633390D02*
X128190476Y-136204819D01*
X128190476Y-136204819D02*
X128809523Y-136204819D01*
X129190476Y-135300057D02*
X129238095Y-135252438D01*
X129238095Y-135252438D02*
X129333333Y-135204819D01*
X129333333Y-135204819D02*
X129571428Y-135204819D01*
X129571428Y-135204819D02*
X129666666Y-135252438D01*
X129666666Y-135252438D02*
X129714285Y-135300057D01*
X129714285Y-135300057D02*
X129761904Y-135395295D01*
X129761904Y-135395295D02*
X129761904Y-135490533D01*
X129761904Y-135490533D02*
X129714285Y-135633390D01*
X129714285Y-135633390D02*
X129142857Y-136204819D01*
X129142857Y-136204819D02*
X129761904Y-136204819D01*
X155607142Y-71454819D02*
X155273809Y-70978628D01*
X155035714Y-71454819D02*
X155035714Y-70454819D01*
X155035714Y-70454819D02*
X155416666Y-70454819D01*
X155416666Y-70454819D02*
X155511904Y-70502438D01*
X155511904Y-70502438D02*
X155559523Y-70550057D01*
X155559523Y-70550057D02*
X155607142Y-70645295D01*
X155607142Y-70645295D02*
X155607142Y-70788152D01*
X155607142Y-70788152D02*
X155559523Y-70883390D01*
X155559523Y-70883390D02*
X155511904Y-70931009D01*
X155511904Y-70931009D02*
X155416666Y-70978628D01*
X155416666Y-70978628D02*
X155035714Y-70978628D01*
X156559523Y-71454819D02*
X155988095Y-71454819D01*
X156273809Y-71454819D02*
X156273809Y-70454819D01*
X156273809Y-70454819D02*
X156178571Y-70597676D01*
X156178571Y-70597676D02*
X156083333Y-70692914D01*
X156083333Y-70692914D02*
X155988095Y-70740533D01*
X156892857Y-70454819D02*
X157511904Y-70454819D01*
X157511904Y-70454819D02*
X157178571Y-70835771D01*
X157178571Y-70835771D02*
X157321428Y-70835771D01*
X157321428Y-70835771D02*
X157416666Y-70883390D01*
X157416666Y-70883390D02*
X157464285Y-70931009D01*
X157464285Y-70931009D02*
X157511904Y-71026247D01*
X157511904Y-71026247D02*
X157511904Y-71264342D01*
X157511904Y-71264342D02*
X157464285Y-71359580D01*
X157464285Y-71359580D02*
X157416666Y-71407200D01*
X157416666Y-71407200D02*
X157321428Y-71454819D01*
X157321428Y-71454819D02*
X157035714Y-71454819D01*
X157035714Y-71454819D02*
X156940476Y-71407200D01*
X156940476Y-71407200D02*
X156892857Y-71359580D01*
X149833333Y-127834819D02*
X149500000Y-127358628D01*
X149261905Y-127834819D02*
X149261905Y-126834819D01*
X149261905Y-126834819D02*
X149642857Y-126834819D01*
X149642857Y-126834819D02*
X149738095Y-126882438D01*
X149738095Y-126882438D02*
X149785714Y-126930057D01*
X149785714Y-126930057D02*
X149833333Y-127025295D01*
X149833333Y-127025295D02*
X149833333Y-127168152D01*
X149833333Y-127168152D02*
X149785714Y-127263390D01*
X149785714Y-127263390D02*
X149738095Y-127311009D01*
X149738095Y-127311009D02*
X149642857Y-127358628D01*
X149642857Y-127358628D02*
X149261905Y-127358628D01*
X150690476Y-126834819D02*
X150500000Y-126834819D01*
X150500000Y-126834819D02*
X150404762Y-126882438D01*
X150404762Y-126882438D02*
X150357143Y-126930057D01*
X150357143Y-126930057D02*
X150261905Y-127072914D01*
X150261905Y-127072914D02*
X150214286Y-127263390D01*
X150214286Y-127263390D02*
X150214286Y-127644342D01*
X150214286Y-127644342D02*
X150261905Y-127739580D01*
X150261905Y-127739580D02*
X150309524Y-127787200D01*
X150309524Y-127787200D02*
X150404762Y-127834819D01*
X150404762Y-127834819D02*
X150595238Y-127834819D01*
X150595238Y-127834819D02*
X150690476Y-127787200D01*
X150690476Y-127787200D02*
X150738095Y-127739580D01*
X150738095Y-127739580D02*
X150785714Y-127644342D01*
X150785714Y-127644342D02*
X150785714Y-127406247D01*
X150785714Y-127406247D02*
X150738095Y-127311009D01*
X150738095Y-127311009D02*
X150690476Y-127263390D01*
X150690476Y-127263390D02*
X150595238Y-127215771D01*
X150595238Y-127215771D02*
X150404762Y-127215771D01*
X150404762Y-127215771D02*
X150309524Y-127263390D01*
X150309524Y-127263390D02*
X150261905Y-127311009D01*
X150261905Y-127311009D02*
X150214286Y-127406247D01*
D11*
X160476190Y-90657419D02*
X160476190Y-89657419D01*
X160476190Y-90133609D02*
X161047618Y-90133609D01*
X161047618Y-90657419D02*
X161047618Y-89657419D01*
X161476190Y-90371704D02*
X161952380Y-90371704D01*
X161380952Y-90657419D02*
X161714285Y-89657419D01*
X161714285Y-89657419D02*
X162047618Y-90657419D01*
X162952380Y-90657419D02*
X162619047Y-90181228D01*
X162380952Y-90657419D02*
X162380952Y-89657419D01*
X162380952Y-89657419D02*
X162761904Y-89657419D01*
X162761904Y-89657419D02*
X162857142Y-89705038D01*
X162857142Y-89705038D02*
X162904761Y-89752657D01*
X162904761Y-89752657D02*
X162952380Y-89847895D01*
X162952380Y-89847895D02*
X162952380Y-89990752D01*
X162952380Y-89990752D02*
X162904761Y-90085990D01*
X162904761Y-90085990D02*
X162857142Y-90133609D01*
X162857142Y-90133609D02*
X162761904Y-90181228D01*
X162761904Y-90181228D02*
X162380952Y-90181228D01*
X163380952Y-90657419D02*
X163380952Y-89657419D01*
X163380952Y-89657419D02*
X163619047Y-89657419D01*
X163619047Y-89657419D02*
X163761904Y-89705038D01*
X163761904Y-89705038D02*
X163857142Y-89800276D01*
X163857142Y-89800276D02*
X163904761Y-89895514D01*
X163904761Y-89895514D02*
X163952380Y-90085990D01*
X163952380Y-90085990D02*
X163952380Y-90228847D01*
X163952380Y-90228847D02*
X163904761Y-90419323D01*
X163904761Y-90419323D02*
X163857142Y-90514561D01*
X163857142Y-90514561D02*
X163761904Y-90609800D01*
X163761904Y-90609800D02*
X163619047Y-90657419D01*
X163619047Y-90657419D02*
X163380952Y-90657419D01*
X165095237Y-89609800D02*
X164238095Y-90895514D01*
X165380952Y-90609800D02*
X165523809Y-90657419D01*
X165523809Y-90657419D02*
X165761904Y-90657419D01*
X165761904Y-90657419D02*
X165857142Y-90609800D01*
X165857142Y-90609800D02*
X165904761Y-90562180D01*
X165904761Y-90562180D02*
X165952380Y-90466942D01*
X165952380Y-90466942D02*
X165952380Y-90371704D01*
X165952380Y-90371704D02*
X165904761Y-90276466D01*
X165904761Y-90276466D02*
X165857142Y-90228847D01*
X165857142Y-90228847D02*
X165761904Y-90181228D01*
X165761904Y-90181228D02*
X165571428Y-90133609D01*
X165571428Y-90133609D02*
X165476190Y-90085990D01*
X165476190Y-90085990D02*
X165428571Y-90038371D01*
X165428571Y-90038371D02*
X165380952Y-89943133D01*
X165380952Y-89943133D02*
X165380952Y-89847895D01*
X165380952Y-89847895D02*
X165428571Y-89752657D01*
X165428571Y-89752657D02*
X165476190Y-89705038D01*
X165476190Y-89705038D02*
X165571428Y-89657419D01*
X165571428Y-89657419D02*
X165809523Y-89657419D01*
X165809523Y-89657419D02*
X165952380Y-89705038D01*
X166571428Y-89657419D02*
X166761904Y-89657419D01*
X166761904Y-89657419D02*
X166857142Y-89705038D01*
X166857142Y-89705038D02*
X166952380Y-89800276D01*
X166952380Y-89800276D02*
X166999999Y-89990752D01*
X166999999Y-89990752D02*
X166999999Y-90324085D01*
X166999999Y-90324085D02*
X166952380Y-90514561D01*
X166952380Y-90514561D02*
X166857142Y-90609800D01*
X166857142Y-90609800D02*
X166761904Y-90657419D01*
X166761904Y-90657419D02*
X166571428Y-90657419D01*
X166571428Y-90657419D02*
X166476190Y-90609800D01*
X166476190Y-90609800D02*
X166380952Y-90514561D01*
X166380952Y-90514561D02*
X166333333Y-90324085D01*
X166333333Y-90324085D02*
X166333333Y-89990752D01*
X166333333Y-89990752D02*
X166380952Y-89800276D01*
X166380952Y-89800276D02*
X166476190Y-89705038D01*
X166476190Y-89705038D02*
X166571428Y-89657419D01*
X167761904Y-90133609D02*
X167428571Y-90133609D01*
X167428571Y-90657419D02*
X167428571Y-89657419D01*
X167428571Y-89657419D02*
X167904761Y-89657419D01*
X168142857Y-89657419D02*
X168714285Y-89657419D01*
X168428571Y-90657419D02*
X168428571Y-89657419D01*
X169571428Y-90657419D02*
X169000000Y-90657419D01*
X169285714Y-90657419D02*
X169285714Y-89657419D01*
X169285714Y-89657419D02*
X169190476Y-89800276D01*
X169190476Y-89800276D02*
X169095238Y-89895514D01*
X169095238Y-89895514D02*
X169000000Y-89943133D01*
D10*
X127954819Y-56892857D02*
X127478628Y-57226190D01*
X127954819Y-57464285D02*
X126954819Y-57464285D01*
X126954819Y-57464285D02*
X126954819Y-57083333D01*
X126954819Y-57083333D02*
X127002438Y-56988095D01*
X127002438Y-56988095D02*
X127050057Y-56940476D01*
X127050057Y-56940476D02*
X127145295Y-56892857D01*
X127145295Y-56892857D02*
X127288152Y-56892857D01*
X127288152Y-56892857D02*
X127383390Y-56940476D01*
X127383390Y-56940476D02*
X127431009Y-56988095D01*
X127431009Y-56988095D02*
X127478628Y-57083333D01*
X127478628Y-57083333D02*
X127478628Y-57464285D01*
X127954819Y-55940476D02*
X127954819Y-56511904D01*
X127954819Y-56226190D02*
X126954819Y-56226190D01*
X126954819Y-56226190D02*
X127097676Y-56321428D01*
X127097676Y-56321428D02*
X127192914Y-56416666D01*
X127192914Y-56416666D02*
X127240533Y-56511904D01*
X126954819Y-55321428D02*
X126954819Y-55226190D01*
X126954819Y-55226190D02*
X127002438Y-55130952D01*
X127002438Y-55130952D02*
X127050057Y-55083333D01*
X127050057Y-55083333D02*
X127145295Y-55035714D01*
X127145295Y-55035714D02*
X127335771Y-54988095D01*
X127335771Y-54988095D02*
X127573866Y-54988095D01*
X127573866Y-54988095D02*
X127764342Y-55035714D01*
X127764342Y-55035714D02*
X127859580Y-55083333D01*
X127859580Y-55083333D02*
X127907200Y-55130952D01*
X127907200Y-55130952D02*
X127954819Y-55226190D01*
X127954819Y-55226190D02*
X127954819Y-55321428D01*
X127954819Y-55321428D02*
X127907200Y-55416666D01*
X127907200Y-55416666D02*
X127859580Y-55464285D01*
X127859580Y-55464285D02*
X127764342Y-55511904D01*
X127764342Y-55511904D02*
X127573866Y-55559523D01*
X127573866Y-55559523D02*
X127335771Y-55559523D01*
X127335771Y-55559523D02*
X127145295Y-55511904D01*
X127145295Y-55511904D02*
X127050057Y-55464285D01*
X127050057Y-55464285D02*
X127002438Y-55416666D01*
X127002438Y-55416666D02*
X126954819Y-55321428D01*
X142857142Y-101254819D02*
X142523809Y-100778628D01*
X142285714Y-101254819D02*
X142285714Y-100254819D01*
X142285714Y-100254819D02*
X142666666Y-100254819D01*
X142666666Y-100254819D02*
X142761904Y-100302438D01*
X142761904Y-100302438D02*
X142809523Y-100350057D01*
X142809523Y-100350057D02*
X142857142Y-100445295D01*
X142857142Y-100445295D02*
X142857142Y-100588152D01*
X142857142Y-100588152D02*
X142809523Y-100683390D01*
X142809523Y-100683390D02*
X142761904Y-100731009D01*
X142761904Y-100731009D02*
X142666666Y-100778628D01*
X142666666Y-100778628D02*
X142285714Y-100778628D01*
X143809523Y-101254819D02*
X143238095Y-101254819D01*
X143523809Y-101254819D02*
X143523809Y-100254819D01*
X143523809Y-100254819D02*
X143428571Y-100397676D01*
X143428571Y-100397676D02*
X143333333Y-100492914D01*
X143333333Y-100492914D02*
X143238095Y-100540533D01*
X144285714Y-101254819D02*
X144476190Y-101254819D01*
X144476190Y-101254819D02*
X144571428Y-101207200D01*
X144571428Y-101207200D02*
X144619047Y-101159580D01*
X144619047Y-101159580D02*
X144714285Y-101016723D01*
X144714285Y-101016723D02*
X144761904Y-100826247D01*
X144761904Y-100826247D02*
X144761904Y-100445295D01*
X144761904Y-100445295D02*
X144714285Y-100350057D01*
X144714285Y-100350057D02*
X144666666Y-100302438D01*
X144666666Y-100302438D02*
X144571428Y-100254819D01*
X144571428Y-100254819D02*
X144380952Y-100254819D01*
X144380952Y-100254819D02*
X144285714Y-100302438D01*
X144285714Y-100302438D02*
X144238095Y-100350057D01*
X144238095Y-100350057D02*
X144190476Y-100445295D01*
X144190476Y-100445295D02*
X144190476Y-100683390D01*
X144190476Y-100683390D02*
X144238095Y-100778628D01*
X144238095Y-100778628D02*
X144285714Y-100826247D01*
X144285714Y-100826247D02*
X144380952Y-100873866D01*
X144380952Y-100873866D02*
X144571428Y-100873866D01*
X144571428Y-100873866D02*
X144666666Y-100826247D01*
X144666666Y-100826247D02*
X144714285Y-100778628D01*
X144714285Y-100778628D02*
X144761904Y-100683390D01*
X142954819Y-86892857D02*
X142478628Y-87226190D01*
X142954819Y-87464285D02*
X141954819Y-87464285D01*
X141954819Y-87464285D02*
X141954819Y-87083333D01*
X141954819Y-87083333D02*
X142002438Y-86988095D01*
X142002438Y-86988095D02*
X142050057Y-86940476D01*
X142050057Y-86940476D02*
X142145295Y-86892857D01*
X142145295Y-86892857D02*
X142288152Y-86892857D01*
X142288152Y-86892857D02*
X142383390Y-86940476D01*
X142383390Y-86940476D02*
X142431009Y-86988095D01*
X142431009Y-86988095D02*
X142478628Y-87083333D01*
X142478628Y-87083333D02*
X142478628Y-87464285D01*
X142050057Y-86511904D02*
X142002438Y-86464285D01*
X142002438Y-86464285D02*
X141954819Y-86369047D01*
X141954819Y-86369047D02*
X141954819Y-86130952D01*
X141954819Y-86130952D02*
X142002438Y-86035714D01*
X142002438Y-86035714D02*
X142050057Y-85988095D01*
X142050057Y-85988095D02*
X142145295Y-85940476D01*
X142145295Y-85940476D02*
X142240533Y-85940476D01*
X142240533Y-85940476D02*
X142383390Y-85988095D01*
X142383390Y-85988095D02*
X142954819Y-86559523D01*
X142954819Y-86559523D02*
X142954819Y-85940476D01*
X141954819Y-85083333D02*
X141954819Y-85273809D01*
X141954819Y-85273809D02*
X142002438Y-85369047D01*
X142002438Y-85369047D02*
X142050057Y-85416666D01*
X142050057Y-85416666D02*
X142192914Y-85511904D01*
X142192914Y-85511904D02*
X142383390Y-85559523D01*
X142383390Y-85559523D02*
X142764342Y-85559523D01*
X142764342Y-85559523D02*
X142859580Y-85511904D01*
X142859580Y-85511904D02*
X142907200Y-85464285D01*
X142907200Y-85464285D02*
X142954819Y-85369047D01*
X142954819Y-85369047D02*
X142954819Y-85178571D01*
X142954819Y-85178571D02*
X142907200Y-85083333D01*
X142907200Y-85083333D02*
X142859580Y-85035714D01*
X142859580Y-85035714D02*
X142764342Y-84988095D01*
X142764342Y-84988095D02*
X142526247Y-84988095D01*
X142526247Y-84988095D02*
X142431009Y-85035714D01*
X142431009Y-85035714D02*
X142383390Y-85083333D01*
X142383390Y-85083333D02*
X142335771Y-85178571D01*
X142335771Y-85178571D02*
X142335771Y-85369047D01*
X142335771Y-85369047D02*
X142383390Y-85464285D01*
X142383390Y-85464285D02*
X142431009Y-85511904D01*
X142431009Y-85511904D02*
X142526247Y-85559523D01*
X157954819Y-56916666D02*
X157478628Y-57249999D01*
X157954819Y-57488094D02*
X156954819Y-57488094D01*
X156954819Y-57488094D02*
X156954819Y-57107142D01*
X156954819Y-57107142D02*
X157002438Y-57011904D01*
X157002438Y-57011904D02*
X157050057Y-56964285D01*
X157050057Y-56964285D02*
X157145295Y-56916666D01*
X157145295Y-56916666D02*
X157288152Y-56916666D01*
X157288152Y-56916666D02*
X157383390Y-56964285D01*
X157383390Y-56964285D02*
X157431009Y-57011904D01*
X157431009Y-57011904D02*
X157478628Y-57107142D01*
X157478628Y-57107142D02*
X157478628Y-57488094D01*
X157383390Y-56345237D02*
X157335771Y-56440475D01*
X157335771Y-56440475D02*
X157288152Y-56488094D01*
X157288152Y-56488094D02*
X157192914Y-56535713D01*
X157192914Y-56535713D02*
X157145295Y-56535713D01*
X157145295Y-56535713D02*
X157050057Y-56488094D01*
X157050057Y-56488094D02*
X157002438Y-56440475D01*
X157002438Y-56440475D02*
X156954819Y-56345237D01*
X156954819Y-56345237D02*
X156954819Y-56154761D01*
X156954819Y-56154761D02*
X157002438Y-56059523D01*
X157002438Y-56059523D02*
X157050057Y-56011904D01*
X157050057Y-56011904D02*
X157145295Y-55964285D01*
X157145295Y-55964285D02*
X157192914Y-55964285D01*
X157192914Y-55964285D02*
X157288152Y-56011904D01*
X157288152Y-56011904D02*
X157335771Y-56059523D01*
X157335771Y-56059523D02*
X157383390Y-56154761D01*
X157383390Y-56154761D02*
X157383390Y-56345237D01*
X157383390Y-56345237D02*
X157431009Y-56440475D01*
X157431009Y-56440475D02*
X157478628Y-56488094D01*
X157478628Y-56488094D02*
X157573866Y-56535713D01*
X157573866Y-56535713D02*
X157764342Y-56535713D01*
X157764342Y-56535713D02*
X157859580Y-56488094D01*
X157859580Y-56488094D02*
X157907200Y-56440475D01*
X157907200Y-56440475D02*
X157954819Y-56345237D01*
X157954819Y-56345237D02*
X157954819Y-56154761D01*
X157954819Y-56154761D02*
X157907200Y-56059523D01*
X157907200Y-56059523D02*
X157859580Y-56011904D01*
X157859580Y-56011904D02*
X157764342Y-55964285D01*
X157764342Y-55964285D02*
X157573866Y-55964285D01*
X157573866Y-55964285D02*
X157478628Y-56011904D01*
X157478628Y-56011904D02*
X157431009Y-56059523D01*
X157431009Y-56059523D02*
X157383390Y-56154761D01*
X149303095Y-122024819D02*
X149303095Y-122834342D01*
X149303095Y-122834342D02*
X149350714Y-122929580D01*
X149350714Y-122929580D02*
X149398333Y-122977200D01*
X149398333Y-122977200D02*
X149493571Y-123024819D01*
X149493571Y-123024819D02*
X149684047Y-123024819D01*
X149684047Y-123024819D02*
X149779285Y-122977200D01*
X149779285Y-122977200D02*
X149826904Y-122929580D01*
X149826904Y-122929580D02*
X149874523Y-122834342D01*
X149874523Y-122834342D02*
X149874523Y-122024819D01*
X150826904Y-122024819D02*
X150350714Y-122024819D01*
X150350714Y-122024819D02*
X150303095Y-122501009D01*
X150303095Y-122501009D02*
X150350714Y-122453390D01*
X150350714Y-122453390D02*
X150445952Y-122405771D01*
X150445952Y-122405771D02*
X150684047Y-122405771D01*
X150684047Y-122405771D02*
X150779285Y-122453390D01*
X150779285Y-122453390D02*
X150826904Y-122501009D01*
X150826904Y-122501009D02*
X150874523Y-122596247D01*
X150874523Y-122596247D02*
X150874523Y-122834342D01*
X150874523Y-122834342D02*
X150826904Y-122929580D01*
X150826904Y-122929580D02*
X150779285Y-122977200D01*
X150779285Y-122977200D02*
X150684047Y-123024819D01*
X150684047Y-123024819D02*
X150445952Y-123024819D01*
X150445952Y-123024819D02*
X150350714Y-122977200D01*
X150350714Y-122977200D02*
X150303095Y-122929580D01*
X172954819Y-101916666D02*
X172478628Y-102249999D01*
X172954819Y-102488094D02*
X171954819Y-102488094D01*
X171954819Y-102488094D02*
X171954819Y-102107142D01*
X171954819Y-102107142D02*
X172002438Y-102011904D01*
X172002438Y-102011904D02*
X172050057Y-101964285D01*
X172050057Y-101964285D02*
X172145295Y-101916666D01*
X172145295Y-101916666D02*
X172288152Y-101916666D01*
X172288152Y-101916666D02*
X172383390Y-101964285D01*
X172383390Y-101964285D02*
X172431009Y-102011904D01*
X172431009Y-102011904D02*
X172478628Y-102107142D01*
X172478628Y-102107142D02*
X172478628Y-102488094D01*
X171954819Y-101583332D02*
X171954819Y-100964285D01*
X171954819Y-100964285D02*
X172335771Y-101297618D01*
X172335771Y-101297618D02*
X172335771Y-101154761D01*
X172335771Y-101154761D02*
X172383390Y-101059523D01*
X172383390Y-101059523D02*
X172431009Y-101011904D01*
X172431009Y-101011904D02*
X172526247Y-100964285D01*
X172526247Y-100964285D02*
X172764342Y-100964285D01*
X172764342Y-100964285D02*
X172859580Y-101011904D01*
X172859580Y-101011904D02*
X172907200Y-101059523D01*
X172907200Y-101059523D02*
X172954819Y-101154761D01*
X172954819Y-101154761D02*
X172954819Y-101440475D01*
X172954819Y-101440475D02*
X172907200Y-101535713D01*
X172907200Y-101535713D02*
X172859580Y-101583332D01*
X127857142Y-139704819D02*
X127523809Y-139228628D01*
X127285714Y-139704819D02*
X127285714Y-138704819D01*
X127285714Y-138704819D02*
X127666666Y-138704819D01*
X127666666Y-138704819D02*
X127761904Y-138752438D01*
X127761904Y-138752438D02*
X127809523Y-138800057D01*
X127809523Y-138800057D02*
X127857142Y-138895295D01*
X127857142Y-138895295D02*
X127857142Y-139038152D01*
X127857142Y-139038152D02*
X127809523Y-139133390D01*
X127809523Y-139133390D02*
X127761904Y-139181009D01*
X127761904Y-139181009D02*
X127666666Y-139228628D01*
X127666666Y-139228628D02*
X127285714Y-139228628D01*
X128809523Y-139704819D02*
X128238095Y-139704819D01*
X128523809Y-139704819D02*
X128523809Y-138704819D01*
X128523809Y-138704819D02*
X128428571Y-138847676D01*
X128428571Y-138847676D02*
X128333333Y-138942914D01*
X128333333Y-138942914D02*
X128238095Y-138990533D01*
X129714285Y-138704819D02*
X129238095Y-138704819D01*
X129238095Y-138704819D02*
X129190476Y-139181009D01*
X129190476Y-139181009D02*
X129238095Y-139133390D01*
X129238095Y-139133390D02*
X129333333Y-139085771D01*
X129333333Y-139085771D02*
X129571428Y-139085771D01*
X129571428Y-139085771D02*
X129666666Y-139133390D01*
X129666666Y-139133390D02*
X129714285Y-139181009D01*
X129714285Y-139181009D02*
X129761904Y-139276247D01*
X129761904Y-139276247D02*
X129761904Y-139514342D01*
X129761904Y-139514342D02*
X129714285Y-139609580D01*
X129714285Y-139609580D02*
X129666666Y-139657200D01*
X129666666Y-139657200D02*
X129571428Y-139704819D01*
X129571428Y-139704819D02*
X129333333Y-139704819D01*
X129333333Y-139704819D02*
X129238095Y-139657200D01*
X129238095Y-139657200D02*
X129190476Y-139609580D01*
X172954819Y-56892857D02*
X172478628Y-57226190D01*
X172954819Y-57464285D02*
X171954819Y-57464285D01*
X171954819Y-57464285D02*
X171954819Y-57083333D01*
X171954819Y-57083333D02*
X172002438Y-56988095D01*
X172002438Y-56988095D02*
X172050057Y-56940476D01*
X172050057Y-56940476D02*
X172145295Y-56892857D01*
X172145295Y-56892857D02*
X172288152Y-56892857D01*
X172288152Y-56892857D02*
X172383390Y-56940476D01*
X172383390Y-56940476D02*
X172431009Y-56988095D01*
X172431009Y-56988095D02*
X172478628Y-57083333D01*
X172478628Y-57083333D02*
X172478628Y-57464285D01*
X172954819Y-55940476D02*
X172954819Y-56511904D01*
X172954819Y-56226190D02*
X171954819Y-56226190D01*
X171954819Y-56226190D02*
X172097676Y-56321428D01*
X172097676Y-56321428D02*
X172192914Y-56416666D01*
X172192914Y-56416666D02*
X172240533Y-56511904D01*
X172383390Y-55369047D02*
X172335771Y-55464285D01*
X172335771Y-55464285D02*
X172288152Y-55511904D01*
X172288152Y-55511904D02*
X172192914Y-55559523D01*
X172192914Y-55559523D02*
X172145295Y-55559523D01*
X172145295Y-55559523D02*
X172050057Y-55511904D01*
X172050057Y-55511904D02*
X172002438Y-55464285D01*
X172002438Y-55464285D02*
X171954819Y-55369047D01*
X171954819Y-55369047D02*
X171954819Y-55178571D01*
X171954819Y-55178571D02*
X172002438Y-55083333D01*
X172002438Y-55083333D02*
X172050057Y-55035714D01*
X172050057Y-55035714D02*
X172145295Y-54988095D01*
X172145295Y-54988095D02*
X172192914Y-54988095D01*
X172192914Y-54988095D02*
X172288152Y-55035714D01*
X172288152Y-55035714D02*
X172335771Y-55083333D01*
X172335771Y-55083333D02*
X172383390Y-55178571D01*
X172383390Y-55178571D02*
X172383390Y-55369047D01*
X172383390Y-55369047D02*
X172431009Y-55464285D01*
X172431009Y-55464285D02*
X172478628Y-55511904D01*
X172478628Y-55511904D02*
X172573866Y-55559523D01*
X172573866Y-55559523D02*
X172764342Y-55559523D01*
X172764342Y-55559523D02*
X172859580Y-55511904D01*
X172859580Y-55511904D02*
X172907200Y-55464285D01*
X172907200Y-55464285D02*
X172954819Y-55369047D01*
X172954819Y-55369047D02*
X172954819Y-55178571D01*
X172954819Y-55178571D02*
X172907200Y-55083333D01*
X172907200Y-55083333D02*
X172859580Y-55035714D01*
X172859580Y-55035714D02*
X172764342Y-54988095D01*
X172764342Y-54988095D02*
X172573866Y-54988095D01*
X172573866Y-54988095D02*
X172478628Y-55035714D01*
X172478628Y-55035714D02*
X172431009Y-55083333D01*
X172431009Y-55083333D02*
X172383390Y-55178571D01*
X160636666Y-56554819D02*
X160636666Y-57269104D01*
X160636666Y-57269104D02*
X160589047Y-57411961D01*
X160589047Y-57411961D02*
X160493809Y-57507200D01*
X160493809Y-57507200D02*
X160350952Y-57554819D01*
X160350952Y-57554819D02*
X160255714Y-57554819D01*
X161541428Y-56888152D02*
X161541428Y-57554819D01*
X161303333Y-56507200D02*
X161065238Y-57221485D01*
X161065238Y-57221485D02*
X161684285Y-57221485D01*
X145636666Y-56554819D02*
X145636666Y-57269104D01*
X145636666Y-57269104D02*
X145589047Y-57411961D01*
X145589047Y-57411961D02*
X145493809Y-57507200D01*
X145493809Y-57507200D02*
X145350952Y-57554819D01*
X145350952Y-57554819D02*
X145255714Y-57554819D01*
X146065238Y-56650057D02*
X146112857Y-56602438D01*
X146112857Y-56602438D02*
X146208095Y-56554819D01*
X146208095Y-56554819D02*
X146446190Y-56554819D01*
X146446190Y-56554819D02*
X146541428Y-56602438D01*
X146541428Y-56602438D02*
X146589047Y-56650057D01*
X146589047Y-56650057D02*
X146636666Y-56745295D01*
X146636666Y-56745295D02*
X146636666Y-56840533D01*
X146636666Y-56840533D02*
X146589047Y-56983390D01*
X146589047Y-56983390D02*
X146017619Y-57554819D01*
X146017619Y-57554819D02*
X146636666Y-57554819D01*
X158011905Y-101204819D02*
X158011905Y-100204819D01*
X158011905Y-100204819D02*
X158250000Y-100204819D01*
X158250000Y-100204819D02*
X158392857Y-100252438D01*
X158392857Y-100252438D02*
X158488095Y-100347676D01*
X158488095Y-100347676D02*
X158535714Y-100442914D01*
X158535714Y-100442914D02*
X158583333Y-100633390D01*
X158583333Y-100633390D02*
X158583333Y-100776247D01*
X158583333Y-100776247D02*
X158535714Y-100966723D01*
X158535714Y-100966723D02*
X158488095Y-101061961D01*
X158488095Y-101061961D02*
X158392857Y-101157200D01*
X158392857Y-101157200D02*
X158250000Y-101204819D01*
X158250000Y-101204819D02*
X158011905Y-101204819D01*
X158964286Y-100300057D02*
X159011905Y-100252438D01*
X159011905Y-100252438D02*
X159107143Y-100204819D01*
X159107143Y-100204819D02*
X159345238Y-100204819D01*
X159345238Y-100204819D02*
X159440476Y-100252438D01*
X159440476Y-100252438D02*
X159488095Y-100300057D01*
X159488095Y-100300057D02*
X159535714Y-100395295D01*
X159535714Y-100395295D02*
X159535714Y-100490533D01*
X159535714Y-100490533D02*
X159488095Y-100633390D01*
X159488095Y-100633390D02*
X158916667Y-101204819D01*
X158916667Y-101204819D02*
X159535714Y-101204819D01*
X158988095Y-99404819D02*
X158988095Y-98404819D01*
X159559523Y-99404819D02*
X159130952Y-98833390D01*
X159559523Y-98404819D02*
X158988095Y-98976247D01*
D11*
X147809523Y-90657419D02*
X147333333Y-90657419D01*
X147333333Y-90657419D02*
X147333333Y-89657419D01*
X148142857Y-90657419D02*
X148142857Y-89657419D01*
X148142857Y-89657419D02*
X148523809Y-89657419D01*
X148523809Y-89657419D02*
X148619047Y-89705038D01*
X148619047Y-89705038D02*
X148666666Y-89752657D01*
X148666666Y-89752657D02*
X148714285Y-89847895D01*
X148714285Y-89847895D02*
X148714285Y-89990752D01*
X148714285Y-89990752D02*
X148666666Y-90085990D01*
X148666666Y-90085990D02*
X148619047Y-90133609D01*
X148619047Y-90133609D02*
X148523809Y-90181228D01*
X148523809Y-90181228D02*
X148142857Y-90181228D01*
X149857142Y-89609800D02*
X149000000Y-90895514D01*
X150523809Y-90133609D02*
X150666666Y-90181228D01*
X150666666Y-90181228D02*
X150714285Y-90228847D01*
X150714285Y-90228847D02*
X150761904Y-90324085D01*
X150761904Y-90324085D02*
X150761904Y-90466942D01*
X150761904Y-90466942D02*
X150714285Y-90562180D01*
X150714285Y-90562180D02*
X150666666Y-90609800D01*
X150666666Y-90609800D02*
X150571428Y-90657419D01*
X150571428Y-90657419D02*
X150190476Y-90657419D01*
X150190476Y-90657419D02*
X150190476Y-89657419D01*
X150190476Y-89657419D02*
X150523809Y-89657419D01*
X150523809Y-89657419D02*
X150619047Y-89705038D01*
X150619047Y-89705038D02*
X150666666Y-89752657D01*
X150666666Y-89752657D02*
X150714285Y-89847895D01*
X150714285Y-89847895D02*
X150714285Y-89943133D01*
X150714285Y-89943133D02*
X150666666Y-90038371D01*
X150666666Y-90038371D02*
X150619047Y-90085990D01*
X150619047Y-90085990D02*
X150523809Y-90133609D01*
X150523809Y-90133609D02*
X150190476Y-90133609D01*
X151190476Y-90657419D02*
X151190476Y-89657419D01*
X151190476Y-89657419D02*
X151571428Y-89657419D01*
X151571428Y-89657419D02*
X151666666Y-89705038D01*
X151666666Y-89705038D02*
X151714285Y-89752657D01*
X151714285Y-89752657D02*
X151761904Y-89847895D01*
X151761904Y-89847895D02*
X151761904Y-89990752D01*
X151761904Y-89990752D02*
X151714285Y-90085990D01*
X151714285Y-90085990D02*
X151666666Y-90133609D01*
X151666666Y-90133609D02*
X151571428Y-90181228D01*
X151571428Y-90181228D02*
X151190476Y-90181228D01*
X152714285Y-90657419D02*
X152142857Y-90657419D01*
X152428571Y-90657419D02*
X152428571Y-89657419D01*
X152428571Y-89657419D02*
X152333333Y-89800276D01*
X152333333Y-89800276D02*
X152238095Y-89895514D01*
X152238095Y-89895514D02*
X152142857Y-89943133D01*
D10*
X157954819Y-129892857D02*
X157478628Y-130226190D01*
X157954819Y-130464285D02*
X156954819Y-130464285D01*
X156954819Y-130464285D02*
X156954819Y-130083333D01*
X156954819Y-130083333D02*
X157002438Y-129988095D01*
X157002438Y-129988095D02*
X157050057Y-129940476D01*
X157050057Y-129940476D02*
X157145295Y-129892857D01*
X157145295Y-129892857D02*
X157288152Y-129892857D01*
X157288152Y-129892857D02*
X157383390Y-129940476D01*
X157383390Y-129940476D02*
X157431009Y-129988095D01*
X157431009Y-129988095D02*
X157478628Y-130083333D01*
X157478628Y-130083333D02*
X157478628Y-130464285D01*
X157050057Y-129511904D02*
X157002438Y-129464285D01*
X157002438Y-129464285D02*
X156954819Y-129369047D01*
X156954819Y-129369047D02*
X156954819Y-129130952D01*
X156954819Y-129130952D02*
X157002438Y-129035714D01*
X157002438Y-129035714D02*
X157050057Y-128988095D01*
X157050057Y-128988095D02*
X157145295Y-128940476D01*
X157145295Y-128940476D02*
X157240533Y-128940476D01*
X157240533Y-128940476D02*
X157383390Y-128988095D01*
X157383390Y-128988095D02*
X157954819Y-129559523D01*
X157954819Y-129559523D02*
X157954819Y-128940476D01*
X156954819Y-128035714D02*
X156954819Y-128511904D01*
X156954819Y-128511904D02*
X157431009Y-128559523D01*
X157431009Y-128559523D02*
X157383390Y-128511904D01*
X157383390Y-128511904D02*
X157335771Y-128416666D01*
X157335771Y-128416666D02*
X157335771Y-128178571D01*
X157335771Y-128178571D02*
X157383390Y-128083333D01*
X157383390Y-128083333D02*
X157431009Y-128035714D01*
X157431009Y-128035714D02*
X157526247Y-127988095D01*
X157526247Y-127988095D02*
X157764342Y-127988095D01*
X157764342Y-127988095D02*
X157859580Y-128035714D01*
X157859580Y-128035714D02*
X157907200Y-128083333D01*
X157907200Y-128083333D02*
X157954819Y-128178571D01*
X157954819Y-128178571D02*
X157954819Y-128416666D01*
X157954819Y-128416666D02*
X157907200Y-128511904D01*
X157907200Y-128511904D02*
X157859580Y-128559523D01*
X127954819Y-116916666D02*
X127478628Y-117249999D01*
X127954819Y-117488094D02*
X126954819Y-117488094D01*
X126954819Y-117488094D02*
X126954819Y-117107142D01*
X126954819Y-117107142D02*
X127002438Y-117011904D01*
X127002438Y-117011904D02*
X127050057Y-116964285D01*
X127050057Y-116964285D02*
X127145295Y-116916666D01*
X127145295Y-116916666D02*
X127288152Y-116916666D01*
X127288152Y-116916666D02*
X127383390Y-116964285D01*
X127383390Y-116964285D02*
X127431009Y-117011904D01*
X127431009Y-117011904D02*
X127478628Y-117107142D01*
X127478628Y-117107142D02*
X127478628Y-117488094D01*
X127288152Y-116059523D02*
X127954819Y-116059523D01*
X126907200Y-116297618D02*
X127621485Y-116535713D01*
X127621485Y-116535713D02*
X127621485Y-115916666D01*
X170261905Y-84954819D02*
X170261905Y-83954819D01*
X170261905Y-83954819D02*
X170500000Y-83954819D01*
X170500000Y-83954819D02*
X170642857Y-84002438D01*
X170642857Y-84002438D02*
X170738095Y-84097676D01*
X170738095Y-84097676D02*
X170785714Y-84192914D01*
X170785714Y-84192914D02*
X170833333Y-84383390D01*
X170833333Y-84383390D02*
X170833333Y-84526247D01*
X170833333Y-84526247D02*
X170785714Y-84716723D01*
X170785714Y-84716723D02*
X170738095Y-84811961D01*
X170738095Y-84811961D02*
X170642857Y-84907200D01*
X170642857Y-84907200D02*
X170500000Y-84954819D01*
X170500000Y-84954819D02*
X170261905Y-84954819D01*
X171785714Y-84954819D02*
X171214286Y-84954819D01*
X171500000Y-84954819D02*
X171500000Y-83954819D01*
X171500000Y-83954819D02*
X171404762Y-84097676D01*
X171404762Y-84097676D02*
X171309524Y-84192914D01*
X171309524Y-84192914D02*
X171214286Y-84240533D01*
X168548094Y-86754819D02*
X168548094Y-85754819D01*
X169119522Y-86754819D02*
X168690951Y-86183390D01*
X169119522Y-85754819D02*
X168548094Y-86326247D01*
X172954819Y-71892857D02*
X172478628Y-72226190D01*
X172954819Y-72464285D02*
X171954819Y-72464285D01*
X171954819Y-72464285D02*
X171954819Y-72083333D01*
X171954819Y-72083333D02*
X172002438Y-71988095D01*
X172002438Y-71988095D02*
X172050057Y-71940476D01*
X172050057Y-71940476D02*
X172145295Y-71892857D01*
X172145295Y-71892857D02*
X172288152Y-71892857D01*
X172288152Y-71892857D02*
X172383390Y-71940476D01*
X172383390Y-71940476D02*
X172431009Y-71988095D01*
X172431009Y-71988095D02*
X172478628Y-72083333D01*
X172478628Y-72083333D02*
X172478628Y-72464285D01*
X172954819Y-70940476D02*
X172954819Y-71511904D01*
X172954819Y-71226190D02*
X171954819Y-71226190D01*
X171954819Y-71226190D02*
X172097676Y-71321428D01*
X172097676Y-71321428D02*
X172192914Y-71416666D01*
X172192914Y-71416666D02*
X172240533Y-71511904D01*
X171954819Y-70607142D02*
X171954819Y-69940476D01*
X171954819Y-69940476D02*
X172954819Y-70369047D01*
X155607142Y-115454819D02*
X155273809Y-114978628D01*
X155035714Y-115454819D02*
X155035714Y-114454819D01*
X155035714Y-114454819D02*
X155416666Y-114454819D01*
X155416666Y-114454819D02*
X155511904Y-114502438D01*
X155511904Y-114502438D02*
X155559523Y-114550057D01*
X155559523Y-114550057D02*
X155607142Y-114645295D01*
X155607142Y-114645295D02*
X155607142Y-114788152D01*
X155607142Y-114788152D02*
X155559523Y-114883390D01*
X155559523Y-114883390D02*
X155511904Y-114931009D01*
X155511904Y-114931009D02*
X155416666Y-114978628D01*
X155416666Y-114978628D02*
X155035714Y-114978628D01*
X155988095Y-114550057D02*
X156035714Y-114502438D01*
X156035714Y-114502438D02*
X156130952Y-114454819D01*
X156130952Y-114454819D02*
X156369047Y-114454819D01*
X156369047Y-114454819D02*
X156464285Y-114502438D01*
X156464285Y-114502438D02*
X156511904Y-114550057D01*
X156511904Y-114550057D02*
X156559523Y-114645295D01*
X156559523Y-114645295D02*
X156559523Y-114740533D01*
X156559523Y-114740533D02*
X156511904Y-114883390D01*
X156511904Y-114883390D02*
X155940476Y-115454819D01*
X155940476Y-115454819D02*
X156559523Y-115454819D01*
X156892857Y-114454819D02*
X157511904Y-114454819D01*
X157511904Y-114454819D02*
X157178571Y-114835771D01*
X157178571Y-114835771D02*
X157321428Y-114835771D01*
X157321428Y-114835771D02*
X157416666Y-114883390D01*
X157416666Y-114883390D02*
X157464285Y-114931009D01*
X157464285Y-114931009D02*
X157511904Y-115026247D01*
X157511904Y-115026247D02*
X157511904Y-115264342D01*
X157511904Y-115264342D02*
X157464285Y-115359580D01*
X157464285Y-115359580D02*
X157416666Y-115407200D01*
X157416666Y-115407200D02*
X157321428Y-115454819D01*
X157321428Y-115454819D02*
X157035714Y-115454819D01*
X157035714Y-115454819D02*
X156940476Y-115407200D01*
X156940476Y-115407200D02*
X156892857Y-115359580D01*
X145454819Y-77666666D02*
X144978628Y-77999999D01*
X145454819Y-78238094D02*
X144454819Y-78238094D01*
X144454819Y-78238094D02*
X144454819Y-77857142D01*
X144454819Y-77857142D02*
X144502438Y-77761904D01*
X144502438Y-77761904D02*
X144550057Y-77714285D01*
X144550057Y-77714285D02*
X144645295Y-77666666D01*
X144645295Y-77666666D02*
X144788152Y-77666666D01*
X144788152Y-77666666D02*
X144883390Y-77714285D01*
X144883390Y-77714285D02*
X144931009Y-77761904D01*
X144931009Y-77761904D02*
X144978628Y-77857142D01*
X144978628Y-77857142D02*
X144978628Y-78238094D01*
X145454819Y-76714285D02*
X145454819Y-77285713D01*
X145454819Y-76999999D02*
X144454819Y-76999999D01*
X144454819Y-76999999D02*
X144597676Y-77095237D01*
X144597676Y-77095237D02*
X144692914Y-77190475D01*
X144692914Y-77190475D02*
X144740533Y-77285713D01*
X157959579Y-107666666D02*
X158007199Y-107714285D01*
X158007199Y-107714285D02*
X158054818Y-107857142D01*
X158054818Y-107857142D02*
X158054818Y-107952380D01*
X158054818Y-107952380D02*
X158007199Y-108095237D01*
X158007199Y-108095237D02*
X157911960Y-108190475D01*
X157911960Y-108190475D02*
X157816722Y-108238094D01*
X157816722Y-108238094D02*
X157626246Y-108285713D01*
X157626246Y-108285713D02*
X157483389Y-108285713D01*
X157483389Y-108285713D02*
X157292913Y-108238094D01*
X157292913Y-108238094D02*
X157197675Y-108190475D01*
X157197675Y-108190475D02*
X157102437Y-108095237D01*
X157102437Y-108095237D02*
X157054818Y-107952380D01*
X157054818Y-107952380D02*
X157054818Y-107857142D01*
X157054818Y-107857142D02*
X157102437Y-107714285D01*
X157102437Y-107714285D02*
X157150056Y-107666666D01*
X157150056Y-107285713D02*
X157102437Y-107238094D01*
X157102437Y-107238094D02*
X157054818Y-107142856D01*
X157054818Y-107142856D02*
X157054818Y-106904761D01*
X157054818Y-106904761D02*
X157102437Y-106809523D01*
X157102437Y-106809523D02*
X157150056Y-106761904D01*
X157150056Y-106761904D02*
X157245294Y-106714285D01*
X157245294Y-106714285D02*
X157340532Y-106714285D01*
X157340532Y-106714285D02*
X157483389Y-106761904D01*
X157483389Y-106761904D02*
X158054818Y-107333332D01*
X158054818Y-107333332D02*
X158054818Y-106714285D01*
X149303095Y-107024819D02*
X149303095Y-107834342D01*
X149303095Y-107834342D02*
X149350714Y-107929580D01*
X149350714Y-107929580D02*
X149398333Y-107977200D01*
X149398333Y-107977200D02*
X149493571Y-108024819D01*
X149493571Y-108024819D02*
X149684047Y-108024819D01*
X149684047Y-108024819D02*
X149779285Y-107977200D01*
X149779285Y-107977200D02*
X149826904Y-107929580D01*
X149826904Y-107929580D02*
X149874523Y-107834342D01*
X149874523Y-107834342D02*
X149874523Y-107024819D01*
X150779285Y-107358152D02*
X150779285Y-108024819D01*
X150541190Y-106977200D02*
X150303095Y-107691485D01*
X150303095Y-107691485D02*
X150922142Y-107691485D01*
X134904761Y-95800057D02*
X134809523Y-95752438D01*
X134809523Y-95752438D02*
X134714285Y-95657200D01*
X134714285Y-95657200D02*
X134571428Y-95514342D01*
X134571428Y-95514342D02*
X134476190Y-95466723D01*
X134476190Y-95466723D02*
X134380952Y-95466723D01*
X134428571Y-95704819D02*
X134333333Y-95657200D01*
X134333333Y-95657200D02*
X134238095Y-95561961D01*
X134238095Y-95561961D02*
X134190476Y-95371485D01*
X134190476Y-95371485D02*
X134190476Y-95038152D01*
X134190476Y-95038152D02*
X134238095Y-94847676D01*
X134238095Y-94847676D02*
X134333333Y-94752438D01*
X134333333Y-94752438D02*
X134428571Y-94704819D01*
X134428571Y-94704819D02*
X134619047Y-94704819D01*
X134619047Y-94704819D02*
X134714285Y-94752438D01*
X134714285Y-94752438D02*
X134809523Y-94847676D01*
X134809523Y-94847676D02*
X134857142Y-95038152D01*
X134857142Y-95038152D02*
X134857142Y-95371485D01*
X134857142Y-95371485D02*
X134809523Y-95561961D01*
X134809523Y-95561961D02*
X134714285Y-95657200D01*
X134714285Y-95657200D02*
X134619047Y-95704819D01*
X134619047Y-95704819D02*
X134428571Y-95704819D01*
X135809523Y-95704819D02*
X135238095Y-95704819D01*
X135523809Y-95704819D02*
X135523809Y-94704819D01*
X135523809Y-94704819D02*
X135428571Y-94847676D01*
X135428571Y-94847676D02*
X135333333Y-94942914D01*
X135333333Y-94942914D02*
X135238095Y-94990533D01*
X170833333Y-139704819D02*
X170500000Y-139228628D01*
X170261905Y-139704819D02*
X170261905Y-138704819D01*
X170261905Y-138704819D02*
X170642857Y-138704819D01*
X170642857Y-138704819D02*
X170738095Y-138752438D01*
X170738095Y-138752438D02*
X170785714Y-138800057D01*
X170785714Y-138800057D02*
X170833333Y-138895295D01*
X170833333Y-138895295D02*
X170833333Y-139038152D01*
X170833333Y-139038152D02*
X170785714Y-139133390D01*
X170785714Y-139133390D02*
X170738095Y-139181009D01*
X170738095Y-139181009D02*
X170642857Y-139228628D01*
X170642857Y-139228628D02*
X170261905Y-139228628D01*
X171309524Y-139704819D02*
X171500000Y-139704819D01*
X171500000Y-139704819D02*
X171595238Y-139657200D01*
X171595238Y-139657200D02*
X171642857Y-139609580D01*
X171642857Y-139609580D02*
X171738095Y-139466723D01*
X171738095Y-139466723D02*
X171785714Y-139276247D01*
X171785714Y-139276247D02*
X171785714Y-138895295D01*
X171785714Y-138895295D02*
X171738095Y-138800057D01*
X171738095Y-138800057D02*
X171690476Y-138752438D01*
X171690476Y-138752438D02*
X171595238Y-138704819D01*
X171595238Y-138704819D02*
X171404762Y-138704819D01*
X171404762Y-138704819D02*
X171309524Y-138752438D01*
X171309524Y-138752438D02*
X171261905Y-138800057D01*
X171261905Y-138800057D02*
X171214286Y-138895295D01*
X171214286Y-138895295D02*
X171214286Y-139133390D01*
X171214286Y-139133390D02*
X171261905Y-139228628D01*
X171261905Y-139228628D02*
X171309524Y-139276247D01*
X171309524Y-139276247D02*
X171404762Y-139323866D01*
X171404762Y-139323866D02*
X171595238Y-139323866D01*
X171595238Y-139323866D02*
X171690476Y-139276247D01*
X171690476Y-139276247D02*
X171738095Y-139228628D01*
X171738095Y-139228628D02*
X171785714Y-139133390D01*
X142797142Y-83954819D02*
X142463809Y-83478628D01*
X142225714Y-83954819D02*
X142225714Y-82954819D01*
X142225714Y-82954819D02*
X142606666Y-82954819D01*
X142606666Y-82954819D02*
X142701904Y-83002438D01*
X142701904Y-83002438D02*
X142749523Y-83050057D01*
X142749523Y-83050057D02*
X142797142Y-83145295D01*
X142797142Y-83145295D02*
X142797142Y-83288152D01*
X142797142Y-83288152D02*
X142749523Y-83383390D01*
X142749523Y-83383390D02*
X142701904Y-83431009D01*
X142701904Y-83431009D02*
X142606666Y-83478628D01*
X142606666Y-83478628D02*
X142225714Y-83478628D01*
X143749523Y-83954819D02*
X143178095Y-83954819D01*
X143463809Y-83954819D02*
X143463809Y-82954819D01*
X143463809Y-82954819D02*
X143368571Y-83097676D01*
X143368571Y-83097676D02*
X143273333Y-83192914D01*
X143273333Y-83192914D02*
X143178095Y-83240533D01*
X144701904Y-83954819D02*
X144130476Y-83954819D01*
X144416190Y-83954819D02*
X144416190Y-82954819D01*
X144416190Y-82954819D02*
X144320952Y-83097676D01*
X144320952Y-83097676D02*
X144225714Y-83192914D01*
X144225714Y-83192914D02*
X144130476Y-83240533D01*
X142954819Y-56916666D02*
X142478628Y-57249999D01*
X142954819Y-57488094D02*
X141954819Y-57488094D01*
X141954819Y-57488094D02*
X141954819Y-57107142D01*
X141954819Y-57107142D02*
X142002438Y-57011904D01*
X142002438Y-57011904D02*
X142050057Y-56964285D01*
X142050057Y-56964285D02*
X142145295Y-56916666D01*
X142145295Y-56916666D02*
X142288152Y-56916666D01*
X142288152Y-56916666D02*
X142383390Y-56964285D01*
X142383390Y-56964285D02*
X142431009Y-57011904D01*
X142431009Y-57011904D02*
X142478628Y-57107142D01*
X142478628Y-57107142D02*
X142478628Y-57488094D01*
X141954819Y-56011904D02*
X141954819Y-56488094D01*
X141954819Y-56488094D02*
X142431009Y-56535713D01*
X142431009Y-56535713D02*
X142383390Y-56488094D01*
X142383390Y-56488094D02*
X142335771Y-56392856D01*
X142335771Y-56392856D02*
X142335771Y-56154761D01*
X142335771Y-56154761D02*
X142383390Y-56059523D01*
X142383390Y-56059523D02*
X142431009Y-56011904D01*
X142431009Y-56011904D02*
X142526247Y-55964285D01*
X142526247Y-55964285D02*
X142764342Y-55964285D01*
X142764342Y-55964285D02*
X142859580Y-56011904D01*
X142859580Y-56011904D02*
X142907200Y-56059523D01*
X142907200Y-56059523D02*
X142954819Y-56154761D01*
X142954819Y-56154761D02*
X142954819Y-56392856D01*
X142954819Y-56392856D02*
X142907200Y-56488094D01*
X142907200Y-56488094D02*
X142859580Y-56535713D01*
X142954819Y-114392857D02*
X142478628Y-114726190D01*
X142954819Y-114964285D02*
X141954819Y-114964285D01*
X141954819Y-114964285D02*
X141954819Y-114583333D01*
X141954819Y-114583333D02*
X142002438Y-114488095D01*
X142002438Y-114488095D02*
X142050057Y-114440476D01*
X142050057Y-114440476D02*
X142145295Y-114392857D01*
X142145295Y-114392857D02*
X142288152Y-114392857D01*
X142288152Y-114392857D02*
X142383390Y-114440476D01*
X142383390Y-114440476D02*
X142431009Y-114488095D01*
X142431009Y-114488095D02*
X142478628Y-114583333D01*
X142478628Y-114583333D02*
X142478628Y-114964285D01*
X142050057Y-114011904D02*
X142002438Y-113964285D01*
X142002438Y-113964285D02*
X141954819Y-113869047D01*
X141954819Y-113869047D02*
X141954819Y-113630952D01*
X141954819Y-113630952D02*
X142002438Y-113535714D01*
X142002438Y-113535714D02*
X142050057Y-113488095D01*
X142050057Y-113488095D02*
X142145295Y-113440476D01*
X142145295Y-113440476D02*
X142240533Y-113440476D01*
X142240533Y-113440476D02*
X142383390Y-113488095D01*
X142383390Y-113488095D02*
X142954819Y-114059523D01*
X142954819Y-114059523D02*
X142954819Y-113440476D01*
X141954819Y-113107142D02*
X141954819Y-112440476D01*
X141954819Y-112440476D02*
X142954819Y-112869047D01*
X164303095Y-107024819D02*
X164303095Y-107834342D01*
X164303095Y-107834342D02*
X164350714Y-107929580D01*
X164350714Y-107929580D02*
X164398333Y-107977200D01*
X164398333Y-107977200D02*
X164493571Y-108024819D01*
X164493571Y-108024819D02*
X164684047Y-108024819D01*
X164684047Y-108024819D02*
X164779285Y-107977200D01*
X164779285Y-107977200D02*
X164826904Y-107929580D01*
X164826904Y-107929580D02*
X164874523Y-107834342D01*
X164874523Y-107834342D02*
X164874523Y-107024819D01*
X165874523Y-108024819D02*
X165303095Y-108024819D01*
X165588809Y-108024819D02*
X165588809Y-107024819D01*
X165588809Y-107024819D02*
X165493571Y-107167676D01*
X165493571Y-107167676D02*
X165398333Y-107262914D01*
X165398333Y-107262914D02*
X165303095Y-107310533D01*
X155584819Y-77666666D02*
X155108628Y-77999999D01*
X155584819Y-78238094D02*
X154584819Y-78238094D01*
X154584819Y-78238094D02*
X154584819Y-77857142D01*
X154584819Y-77857142D02*
X154632438Y-77761904D01*
X154632438Y-77761904D02*
X154680057Y-77714285D01*
X154680057Y-77714285D02*
X154775295Y-77666666D01*
X154775295Y-77666666D02*
X154918152Y-77666666D01*
X154918152Y-77666666D02*
X155013390Y-77714285D01*
X155013390Y-77714285D02*
X155061009Y-77761904D01*
X155061009Y-77761904D02*
X155108628Y-77857142D01*
X155108628Y-77857142D02*
X155108628Y-78238094D01*
X154680057Y-77285713D02*
X154632438Y-77238094D01*
X154632438Y-77238094D02*
X154584819Y-77142856D01*
X154584819Y-77142856D02*
X154584819Y-76904761D01*
X154584819Y-76904761D02*
X154632438Y-76809523D01*
X154632438Y-76809523D02*
X154680057Y-76761904D01*
X154680057Y-76761904D02*
X154775295Y-76714285D01*
X154775295Y-76714285D02*
X154870533Y-76714285D01*
X154870533Y-76714285D02*
X155013390Y-76761904D01*
X155013390Y-76761904D02*
X155584819Y-77333332D01*
X155584819Y-77333332D02*
X155584819Y-76714285D01*
D12*
%TO.C,R16*%
X126130000Y-89230000D02*
X126130000Y-95770000D01*
X126130000Y-95770000D02*
X126460000Y-95770000D01*
X126460000Y-89230000D02*
X126130000Y-89230000D01*
X128540000Y-89230000D02*
X128870000Y-89230000D01*
X128870000Y-89230000D02*
X128870000Y-95770000D01*
X128870000Y-95770000D02*
X128540000Y-95770000D01*
%TO.C,R21*%
X161730000Y-134380000D02*
X168270000Y-134380000D01*
X161730000Y-134710000D02*
X161730000Y-134380000D01*
X161730000Y-136790000D02*
X161730000Y-137120000D01*
X161730000Y-137120000D02*
X168270000Y-137120000D01*
X168270000Y-134380000D02*
X168270000Y-134710000D01*
X168270000Y-137120000D02*
X168270000Y-136790000D01*
%TO.C,R14*%
X126130000Y-74230000D02*
X126460000Y-74230000D01*
X126130000Y-80770000D02*
X126130000Y-74230000D01*
X126460000Y-80770000D02*
X126130000Y-80770000D01*
X128540000Y-80770000D02*
X128870000Y-80770000D01*
X128870000Y-74230000D02*
X128540000Y-74230000D01*
X128870000Y-80770000D02*
X128870000Y-74230000D01*
%TO.C,J3*%
X130500000Y-58000000D02*
X130500000Y-68500000D01*
X133770000Y-54850000D02*
X133770000Y-55650000D01*
X133770000Y-54850000D02*
X134630000Y-54850000D01*
X134200000Y-68500000D02*
X130500000Y-68500000D01*
X134280000Y-58000000D02*
X130500000Y-58000000D01*
X139500000Y-58000000D02*
X135720000Y-58000000D01*
X139500000Y-58000000D02*
X139500000Y-68500000D01*
X139500000Y-68500000D02*
X135800000Y-68500000D01*
X136800000Y-62500000D02*
G75*
G02*
X133200000Y-62500000I-1800000J0D01*
G01*
X133200000Y-62500000D02*
G75*
G02*
X136800000Y-62500000I1800000J0D01*
G01*
%TO.C,J6*%
X163940000Y-142090000D02*
X163940000Y-149910000D01*
X163940000Y-143690000D02*
X164860000Y-143690000D01*
X163940000Y-149910000D02*
X172060000Y-149910000D01*
X164700000Y-146050000D02*
X164700000Y-147650000D01*
X164700000Y-147650000D02*
X165700000Y-147650000D01*
X164860000Y-142090000D02*
X163940000Y-142090000D01*
X164860000Y-143690000D02*
X164860000Y-142090000D01*
X165140000Y-143690000D02*
X164860000Y-143690000D01*
X165140000Y-143690000D02*
X165140000Y-142475000D01*
X165200000Y-147650000D02*
X165200000Y-149910000D01*
X165700000Y-146050000D02*
X164700000Y-146050000D01*
X165700000Y-147650000D02*
X165700000Y-146050000D01*
X165700000Y-147650000D02*
X165700000Y-149910000D01*
X166500000Y-145550000D02*
X169500000Y-145550000D01*
X166500000Y-149910000D02*
X166500000Y-145550000D01*
X169500000Y-145550000D02*
X169500000Y-149910000D01*
X170300000Y-146050000D02*
X171300000Y-146050000D01*
X170300000Y-147650000D02*
X170300000Y-146050000D01*
X171140000Y-142090000D02*
X171140000Y-143690000D01*
X171140000Y-143690000D02*
X170860000Y-143690000D01*
X171300000Y-146050000D02*
X171300000Y-147650000D01*
X171300000Y-147650000D02*
X170300000Y-147650000D01*
X172060000Y-142090000D02*
X171140000Y-142090000D01*
X172060000Y-143690000D02*
X171140000Y-143690000D01*
X172060000Y-149910000D02*
X172060000Y-142090000D01*
%TO.C,R20*%
X161730000Y-113630000D02*
X168270000Y-113630000D01*
X161730000Y-113960000D02*
X161730000Y-113630000D01*
X161730000Y-116040000D02*
X161730000Y-116370000D01*
X161730000Y-116370000D02*
X168270000Y-116370000D01*
X168270000Y-113630000D02*
X168270000Y-113960000D01*
X168270000Y-116370000D02*
X168270000Y-116040000D01*
%TO.C,R12*%
X156130000Y-89230000D02*
X156460000Y-89230000D01*
X156130000Y-95770000D02*
X156130000Y-89230000D01*
X156460000Y-95770000D02*
X156130000Y-95770000D01*
X158540000Y-95770000D02*
X158870000Y-95770000D01*
X158870000Y-89230000D02*
X158540000Y-89230000D01*
X158870000Y-95770000D02*
X158870000Y-89230000D01*
%TO.C,U3*%
X132750000Y-117860000D02*
X132750000Y-127090000D01*
X132750000Y-127090000D02*
X137250000Y-127090000D01*
X134000000Y-117860000D02*
X132750000Y-117860000D01*
X137250000Y-117860000D02*
X136000000Y-117860000D01*
X137250000Y-127090000D02*
X137250000Y-117860000D01*
X136000000Y-117860000D02*
G75*
G02*
X134000000Y-117860000I-1000000J0D01*
G01*
%TO.C,RV4*%
X145100000Y-135400001D02*
X145100001Y-132000000D01*
X145100001Y-143000000D02*
X145100001Y-139600000D01*
X145100001Y-143000000D02*
X154899999Y-143000000D01*
X154899999Y-132000000D02*
X145100001Y-132000000D01*
X154899999Y-135400000D02*
X154899999Y-132000000D01*
X154899999Y-143000000D02*
X154900000Y-139599999D01*
X147279707Y-136139853D02*
G75*
G02*
X152699999Y-136100001I2720293J-1360147D01*
G01*
X152720293Y-138860147D02*
G75*
G02*
X147300001Y-138899999I-2720293J1360147D01*
G01*
%TO.C,R7*%
X126130000Y-104290000D02*
X126130000Y-110830000D01*
X126130000Y-110830000D02*
X126460000Y-110830000D01*
X126460000Y-104290000D02*
X126130000Y-104290000D01*
X128540000Y-104290000D02*
X128870000Y-104290000D01*
X128870000Y-104290000D02*
X128870000Y-110830000D01*
X128870000Y-110830000D02*
X128540000Y-110830000D01*
%TO.C,RV3*%
X130100000Y-105400001D02*
X130100001Y-102000000D01*
X130100001Y-113000000D02*
X130100001Y-109600000D01*
X130100001Y-113000000D02*
X139899999Y-113000000D01*
X139899999Y-102000000D02*
X130100001Y-102000000D01*
X139899999Y-105400000D02*
X139899999Y-102000000D01*
X139899999Y-113000000D02*
X139900000Y-109599999D01*
X132279707Y-106139853D02*
G75*
G02*
X137699999Y-106100001I2720293J-1360147D01*
G01*
X137720293Y-108860147D02*
G75*
G02*
X132300001Y-108899999I-2720293J1360147D01*
G01*
%TO.C,RV2*%
X160100000Y-120400001D02*
X160100001Y-117000000D01*
X160100001Y-128000000D02*
X160100001Y-124600000D01*
X160100001Y-128000000D02*
X169899999Y-128000000D01*
X169899999Y-117000000D02*
X160100001Y-117000000D01*
X169899999Y-120400000D02*
X169899999Y-117000000D01*
X169899999Y-128000000D02*
X169900000Y-124599999D01*
X162279707Y-121139853D02*
G75*
G02*
X167699999Y-121100001I2720293J-1360147D01*
G01*
X167720293Y-123860147D02*
G75*
G02*
X162300001Y-123899999I-2720293J1360147D01*
G01*
%TO.C,J5*%
X127940000Y-142090000D02*
X127940000Y-149910000D01*
X127940000Y-143690000D02*
X128860000Y-143690000D01*
X127940000Y-149910000D02*
X136060000Y-149910000D01*
X128700000Y-146050000D02*
X128700000Y-147650000D01*
X128700000Y-147650000D02*
X129700000Y-147650000D01*
X128860000Y-142090000D02*
X127940000Y-142090000D01*
X128860000Y-143690000D02*
X128860000Y-142090000D01*
X129140000Y-143690000D02*
X128860000Y-143690000D01*
X129140000Y-143690000D02*
X129140000Y-142475000D01*
X129200000Y-147650000D02*
X129200000Y-149910000D01*
X129700000Y-146050000D02*
X128700000Y-146050000D01*
X129700000Y-147650000D02*
X129700000Y-146050000D01*
X129700000Y-147650000D02*
X129700000Y-149910000D01*
X130500000Y-145550000D02*
X133500000Y-145550000D01*
X130500000Y-149910000D02*
X130500000Y-145550000D01*
X133500000Y-145550000D02*
X133500000Y-149910000D01*
X134300000Y-146050000D02*
X135300000Y-146050000D01*
X134300000Y-147650000D02*
X134300000Y-146050000D01*
X135140000Y-142090000D02*
X135140000Y-143690000D01*
X135140000Y-143690000D02*
X134860000Y-143690000D01*
X135300000Y-146050000D02*
X135300000Y-147650000D01*
X135300000Y-147650000D02*
X134300000Y-147650000D01*
X136060000Y-142090000D02*
X135140000Y-142090000D01*
X136060000Y-143690000D02*
X135140000Y-143690000D01*
X136060000Y-149910000D02*
X136060000Y-142090000D01*
%TO.C,J1*%
X130500000Y-73000000D02*
X130500000Y-83500000D01*
X133770000Y-69850000D02*
X133770000Y-70650000D01*
X133770000Y-69850000D02*
X134630000Y-69850000D01*
X134200000Y-83500000D02*
X130500000Y-83500000D01*
X134280000Y-73000000D02*
X130500000Y-73000000D01*
X139500000Y-73000000D02*
X135720000Y-73000000D01*
X139500000Y-73000000D02*
X139500000Y-83500000D01*
X139500000Y-83500000D02*
X135800000Y-83500000D01*
X136800000Y-77500000D02*
G75*
G02*
X133200000Y-77500000I-1800000J0D01*
G01*
X133200000Y-77500000D02*
G75*
G02*
X136800000Y-77500000I1800000J0D01*
G01*
%TO.C,RV1*%
X146500000Y-73965000D02*
X146500000Y-80155000D01*
X147000000Y-80155000D02*
X147000000Y-81000000D01*
X153000000Y-80155000D02*
X153000000Y-81000000D01*
X153000000Y-81000000D02*
X147000000Y-81000000D01*
X153500000Y-73965000D02*
X146500000Y-73965000D01*
X153500000Y-73965000D02*
X153500000Y-80155000D01*
X153500000Y-80155000D02*
X146500000Y-80155000D01*
%TO.C,R24*%
X131730000Y-130880000D02*
X138270000Y-130880000D01*
X131730000Y-131210000D02*
X131730000Y-130880000D01*
X131730000Y-133290000D02*
X131730000Y-133620000D01*
X131730000Y-133620000D02*
X138270000Y-133620000D01*
X138270000Y-130880000D02*
X138270000Y-131210000D01*
X138270000Y-133620000D02*
X138270000Y-133290000D01*
%TO.C,C1*%
X141100000Y-120000000D02*
X141500000Y-120000000D01*
X141100000Y-125000000D02*
X141100000Y-120000000D01*
X141500000Y-125000000D02*
X141100000Y-125000000D01*
X143500000Y-125000000D02*
X143900000Y-125000000D01*
X143900000Y-120000000D02*
X143500000Y-120000000D01*
X143900000Y-125000000D02*
X143900000Y-120000000D01*
%TO.C,R22*%
X131730000Y-134380000D02*
X131730000Y-134710000D01*
X131730000Y-137120000D02*
X131730000Y-136790000D01*
X138270000Y-134380000D02*
X131730000Y-134380000D01*
X138270000Y-134710000D02*
X138270000Y-134380000D01*
X138270000Y-136790000D02*
X138270000Y-137120000D01*
X138270000Y-137120000D02*
X131730000Y-137120000D01*
%TO.C,R13*%
X146730000Y-69630000D02*
X153270000Y-69630000D01*
X146730000Y-69960000D02*
X146730000Y-69630000D01*
X146730000Y-72040000D02*
X146730000Y-72370000D01*
X146730000Y-72370000D02*
X153270000Y-72370000D01*
X153270000Y-69630000D02*
X153270000Y-69960000D01*
X153270000Y-72370000D02*
X153270000Y-72040000D01*
%TO.C,R6*%
X146730000Y-128380000D02*
X153270000Y-128380000D01*
X146730000Y-128710000D02*
X146730000Y-128380000D01*
X146730000Y-130790000D02*
X146730000Y-131120000D01*
X146730000Y-131120000D02*
X153270000Y-131120000D01*
X153270000Y-128380000D02*
X153270000Y-128710000D01*
X153270000Y-131120000D02*
X153270000Y-130790000D01*
%TO.C,HARD/SOFT1*%
D11*
X161000000Y-86000000D02*
X169000000Y-86000000D01*
X169000000Y-99000000D01*
X161000000Y-99000000D01*
X161000000Y-86000000D01*
D12*
%TO.C,R10*%
X126130000Y-59230000D02*
X126130000Y-65770000D01*
X126130000Y-65770000D02*
X126460000Y-65770000D01*
X126460000Y-59230000D02*
X126130000Y-59230000D01*
X128540000Y-59230000D02*
X128870000Y-59230000D01*
X128870000Y-59230000D02*
X128870000Y-65770000D01*
X128870000Y-65770000D02*
X128540000Y-65770000D01*
%TO.C,R19*%
X146480000Y-99380000D02*
X153020000Y-99380000D01*
X146480000Y-99710000D02*
X146480000Y-99380000D01*
X146480000Y-101790000D02*
X146480000Y-102120000D01*
X146480000Y-102120000D02*
X153020000Y-102120000D01*
X153020000Y-99380000D02*
X153020000Y-99710000D01*
X153020000Y-102120000D02*
X153020000Y-101790000D01*
%TO.C,R26*%
X141130000Y-89230000D02*
X141460000Y-89230000D01*
X141130000Y-95770000D02*
X141130000Y-89230000D01*
X141460000Y-95770000D02*
X141130000Y-95770000D01*
X143540000Y-95770000D02*
X143870000Y-95770000D01*
X143870000Y-89230000D02*
X143540000Y-89230000D01*
X143870000Y-95770000D02*
X143870000Y-89230000D01*
%TO.C,R8*%
X156130000Y-59230000D02*
X156460000Y-59230000D01*
X156130000Y-65770000D02*
X156130000Y-59230000D01*
X156460000Y-65770000D02*
X156130000Y-65770000D01*
X158540000Y-65770000D02*
X158870000Y-65770000D01*
X158870000Y-59230000D02*
X158540000Y-59230000D01*
X158870000Y-65770000D02*
X158870000Y-59230000D01*
%TO.C,U5*%
X147750000Y-117860000D02*
X147750000Y-127090000D01*
X147750000Y-127090000D02*
X152250000Y-127090000D01*
X149000000Y-117860000D02*
X147750000Y-117860000D01*
X152250000Y-117860000D02*
X151000000Y-117860000D01*
X152250000Y-127090000D02*
X152250000Y-117860000D01*
X151000000Y-117860000D02*
G75*
G02*
X149000000Y-117860000I-1000000J0D01*
G01*
%TO.C,R3*%
X171130000Y-104230000D02*
X171130000Y-110770000D01*
X171130000Y-110770000D02*
X171460000Y-110770000D01*
X171460000Y-104230000D02*
X171130000Y-104230000D01*
X173540000Y-104230000D02*
X173870000Y-104230000D01*
X173870000Y-104230000D02*
X173870000Y-110770000D01*
X173870000Y-110770000D02*
X173540000Y-110770000D01*
%TO.C,R15*%
X131730000Y-137880000D02*
X131730000Y-138210000D01*
X131730000Y-140620000D02*
X131730000Y-140290000D01*
X138270000Y-137880000D02*
X131730000Y-137880000D01*
X138270000Y-138210000D02*
X138270000Y-137880000D01*
X138270000Y-140290000D02*
X138270000Y-140620000D01*
X138270000Y-140620000D02*
X131730000Y-140620000D01*
%TO.C,R18*%
X171130000Y-59230000D02*
X171460000Y-59230000D01*
X171130000Y-65770000D02*
X171130000Y-59230000D01*
X171460000Y-65770000D02*
X171130000Y-65770000D01*
X173540000Y-65770000D02*
X173870000Y-65770000D01*
X173870000Y-59230000D02*
X173540000Y-59230000D01*
X173870000Y-65770000D02*
X173870000Y-59230000D01*
%TO.C,J4*%
X160500000Y-58000000D02*
X160500000Y-68500000D01*
X163770000Y-54850000D02*
X163770000Y-55650000D01*
X163770000Y-54850000D02*
X164630000Y-54850000D01*
X164200000Y-68500000D02*
X160500000Y-68500000D01*
X164280000Y-58000000D02*
X160500000Y-58000000D01*
X169500000Y-58000000D02*
X165720000Y-58000000D01*
X169500000Y-58000000D02*
X169500000Y-68500000D01*
X169500000Y-68500000D02*
X165800000Y-68500000D01*
X166800000Y-62500000D02*
G75*
G02*
X163200000Y-62500000I-1800000J0D01*
G01*
X163200000Y-62500000D02*
G75*
G02*
X166800000Y-62500000I1800000J0D01*
G01*
%TO.C,U2*%
X162750000Y-72860000D02*
X162750000Y-82090000D01*
X162750000Y-82090000D02*
X167250000Y-82090000D01*
X164000000Y-72860000D02*
X162750000Y-72860000D01*
X167250000Y-72860000D02*
X166000000Y-72860000D01*
X167250000Y-82090000D02*
X167250000Y-72860000D01*
X166000000Y-72860000D02*
G75*
G02*
X164000000Y-72860000I-1000000J0D01*
G01*
%TO.C,J2*%
X145500000Y-58000000D02*
X145500000Y-68500000D01*
X148770000Y-54850000D02*
X148770000Y-55650000D01*
X148770000Y-54850000D02*
X149630000Y-54850000D01*
X149200000Y-68500000D02*
X145500000Y-68500000D01*
X149280000Y-58000000D02*
X145500000Y-58000000D01*
X154500000Y-58000000D02*
X150720000Y-58000000D01*
X154500000Y-58000000D02*
X154500000Y-68500000D01*
X154500000Y-68500000D02*
X150800000Y-68500000D01*
X151800000Y-62500000D02*
G75*
G02*
X148200000Y-62500000I-1800000J0D01*
G01*
X148200000Y-62500000D02*
G75*
G02*
X151800000Y-62500000I1800000J0D01*
G01*
%TO.C,D2*%
X161980001Y-100750000D02*
X162630001Y-100750000D01*
X163230001Y-99630000D02*
X163230001Y-101870000D01*
X163350001Y-99630000D02*
X163350001Y-101870000D01*
X163470001Y-99630000D02*
X163470001Y-101870000D01*
X167520001Y-100750000D02*
X166870001Y-100750000D01*
X162630001Y-99630000D02*
X166870001Y-99630000D01*
X166870001Y-101870000D01*
X162630001Y-101870000D01*
X162630001Y-99630000D01*
%TO.C,LP/BP1*%
D11*
X146000000Y-86000000D02*
X154000000Y-86000000D01*
X154000000Y-99000000D01*
X146000000Y-99000000D01*
X146000000Y-86000000D01*
D12*
%TO.C,R25*%
X156130000Y-119480000D02*
X156130000Y-126020000D01*
X156130000Y-126020000D02*
X156460000Y-126020000D01*
X156460000Y-119480000D02*
X156130000Y-119480000D01*
X158540000Y-119480000D02*
X158870000Y-119480000D01*
X158870000Y-119480000D02*
X158870000Y-126020000D01*
X158870000Y-126020000D02*
X158540000Y-126020000D01*
%TO.C,R4*%
X126130000Y-119230000D02*
X126130000Y-125770000D01*
X126130000Y-125770000D02*
X126460000Y-125770000D01*
X126460000Y-119230000D02*
X126130000Y-119230000D01*
X128540000Y-119230000D02*
X128870000Y-119230000D01*
X128870000Y-119230000D02*
X128870000Y-125770000D01*
X128870000Y-125770000D02*
X128540000Y-125770000D01*
%TO.C,D1*%
X162229999Y-84500000D02*
X162879999Y-84500000D01*
X166279999Y-85620000D02*
X166279999Y-83380000D01*
X166399999Y-85620000D02*
X166399999Y-83380000D01*
X166519999Y-85620000D02*
X166519999Y-83380000D01*
X167769999Y-84500000D02*
X167119999Y-84500000D01*
X167119999Y-85620000D02*
X162879999Y-85620000D01*
X162879999Y-83380000D01*
X167119999Y-83380000D01*
X167119999Y-85620000D01*
%TO.C,R17*%
X171130000Y-74230000D02*
X171130000Y-80770000D01*
X171130000Y-80770000D02*
X171460000Y-80770000D01*
X171460000Y-74230000D02*
X171130000Y-74230000D01*
X173540000Y-74230000D02*
X173870000Y-74230000D01*
X173870000Y-74230000D02*
X173870000Y-80770000D01*
X173870000Y-80770000D02*
X173540000Y-80770000D01*
%TO.C,R23*%
X146730000Y-113630000D02*
X153270000Y-113630000D01*
X146730000Y-113960000D02*
X146730000Y-113630000D01*
X146730000Y-116040000D02*
X146730000Y-116370000D01*
X146730000Y-116370000D02*
X153270000Y-116370000D01*
X153270000Y-113630000D02*
X153270000Y-113960000D01*
X153270000Y-116370000D02*
X153270000Y-116040000D01*
%TO.C,R1*%
X141130000Y-74230000D02*
X141460000Y-74230000D01*
X141130000Y-80770000D02*
X141130000Y-74230000D01*
X141460000Y-80770000D02*
X141130000Y-80770000D01*
X143540000Y-80770000D02*
X143870000Y-80770000D01*
X143870000Y-74230000D02*
X143540000Y-74230000D01*
X143870000Y-80770000D02*
X143870000Y-74230000D01*
%TO.C,C2*%
X156200000Y-105000000D02*
X156200000Y-110000000D01*
X156200000Y-110000000D02*
X156600000Y-110000000D01*
X156600000Y-105000000D02*
X156200000Y-105000000D01*
X158600000Y-105000000D02*
X159000000Y-105000000D01*
X159000000Y-105000000D02*
X159000000Y-110000000D01*
X159000000Y-110000000D02*
X158600000Y-110000000D01*
%TO.C,U4*%
X147750000Y-102860000D02*
X147750000Y-112090000D01*
X147750000Y-112090000D02*
X152250000Y-112090000D01*
X149000000Y-102860000D02*
X147750000Y-102860000D01*
X152250000Y-102860000D02*
X151000000Y-102860000D01*
X152250000Y-112090000D02*
X152250000Y-102860000D01*
X151000000Y-102860000D02*
G75*
G02*
X149000000Y-102860000I-1000000J0D01*
G01*
%TO.C,Q1*%
X133200000Y-94350000D02*
X136800000Y-94350000D01*
X133161522Y-94338478D02*
G75*
G02*
X135000000Y-89899999I1838478J1838478D01*
G01*
X135000000Y-89900000D02*
G75*
G02*
X136838478Y-94338478I0J-2600000D01*
G01*
%TO.C,R9*%
X161730000Y-137880000D02*
X168270000Y-137880000D01*
X161730000Y-138210000D02*
X161730000Y-137880000D01*
X161730000Y-140290000D02*
X161730000Y-140620000D01*
X161730000Y-140620000D02*
X168270000Y-140620000D01*
X168270000Y-137880000D02*
X168270000Y-138210000D01*
X168270000Y-140620000D02*
X168270000Y-140290000D01*
%TO.C,R11*%
X146670000Y-82130000D02*
X153210000Y-82130000D01*
X146670000Y-82460000D02*
X146670000Y-82130000D01*
X146670000Y-84540000D02*
X146670000Y-84870000D01*
X146670000Y-84870000D02*
X153210000Y-84870000D01*
X153210000Y-82130000D02*
X153210000Y-82460000D01*
X153210000Y-84870000D02*
X153210000Y-84540000D01*
%TO.C,R5*%
X141130000Y-59230000D02*
X141130000Y-65770000D01*
X141130000Y-65770000D02*
X141460000Y-65770000D01*
X141460000Y-59230000D02*
X141130000Y-59230000D01*
X143540000Y-59230000D02*
X143870000Y-59230000D01*
X143870000Y-59230000D02*
X143870000Y-65770000D01*
X143870000Y-65770000D02*
X143540000Y-65770000D01*
%TO.C,R27*%
X141130000Y-104230000D02*
X141460000Y-104230000D01*
X141130000Y-110770000D02*
X141130000Y-104230000D01*
X141460000Y-110770000D02*
X141130000Y-110770000D01*
X143540000Y-110770000D02*
X143870000Y-110770000D01*
X143870000Y-104230000D02*
X143540000Y-104230000D01*
X143870000Y-110770000D02*
X143870000Y-104230000D01*
%TO.C,U1*%
X162750000Y-102860000D02*
X162750000Y-112090000D01*
X162750000Y-112090000D02*
X167250000Y-112090000D01*
X164000000Y-102860000D02*
X162750000Y-102860000D01*
X167250000Y-102860000D02*
X166000000Y-102860000D01*
X167250000Y-112090000D02*
X167250000Y-102860000D01*
X166000000Y-102860000D02*
G75*
G02*
X164000000Y-102860000I-1000000J0D01*
G01*
%TO.C,R2*%
X156130000Y-74230000D02*
X156460000Y-74230000D01*
X156130000Y-80770000D02*
X156130000Y-74230000D01*
X156460000Y-80770000D02*
X156130000Y-80770000D01*
X158540000Y-80770000D02*
X158870000Y-80770000D01*
X158870000Y-74230000D02*
X158540000Y-74230000D01*
X158870000Y-80770000D02*
X158870000Y-74230000D01*
%TD*%
%LPC*%
D13*
%TO.C,R16*%
X127500000Y-88690000D03*
D14*
X127500000Y-96310000D03*
%TD*%
D13*
%TO.C,R21*%
X161190000Y-135750000D03*
D14*
X168810000Y-135750000D03*
%TD*%
D13*
%TO.C,R14*%
X127500000Y-81310000D03*
D14*
X127500000Y-73690000D03*
%TD*%
D15*
%TO.C,J3*%
X135000000Y-56020000D03*
D16*
X135000000Y-59120000D03*
X135000000Y-67420000D03*
%TD*%
D17*
%TO.C,J6*%
X166000000Y-143550000D03*
D18*
X168000000Y-143550000D03*
X170000000Y-143550000D03*
%TD*%
D13*
%TO.C,R20*%
X161190000Y-115000000D03*
D14*
X168810000Y-115000000D03*
%TD*%
D13*
%TO.C,R12*%
X157500000Y-96310000D03*
D14*
X157500000Y-88690000D03*
%TD*%
D19*
%TO.C,U3*%
X131190000Y-118690000D03*
D20*
X131190000Y-121230000D03*
X131190000Y-123770000D03*
X131190000Y-126310000D03*
X138810000Y-126310000D03*
X138810000Y-123770000D03*
X138810000Y-121230000D03*
X138810000Y-118690000D03*
%TD*%
D21*
%TO.C,RV4*%
X145600000Y-137500000D03*
X154400000Y-137500000D03*
D22*
X152500001Y-144500000D03*
X150000000Y-144500000D03*
X147499999Y-144500000D03*
%TD*%
D13*
%TO.C,R7*%
X127500000Y-103750000D03*
D14*
X127500000Y-111370000D03*
%TD*%
D21*
%TO.C,RV3*%
X130600000Y-107500000D03*
X139400000Y-107500000D03*
D22*
X137500001Y-114500000D03*
X135000000Y-114500000D03*
X132499999Y-114500000D03*
%TD*%
D21*
%TO.C,RV2*%
X160600000Y-122500000D03*
X169400000Y-122500000D03*
D22*
X167500001Y-129500000D03*
X165000000Y-129500000D03*
X162499999Y-129500000D03*
%TD*%
D17*
%TO.C,J5*%
X130000000Y-143550000D03*
D18*
X132000000Y-143550000D03*
X134000000Y-143550000D03*
%TD*%
D15*
%TO.C,J1*%
X135000000Y-71020000D03*
D16*
X135000000Y-74120000D03*
X135000000Y-82420000D03*
%TD*%
D23*
%TO.C,RV1*%
X152530000Y-77505000D03*
X149990000Y-74965000D03*
X147450000Y-77505000D03*
%TD*%
D13*
%TO.C,R24*%
X131190000Y-132250000D03*
D14*
X138810000Y-132250000D03*
%TD*%
D13*
%TO.C,C1*%
X142500000Y-125000000D03*
X142500000Y-120000000D03*
%TD*%
%TO.C,R22*%
X138810000Y-135750000D03*
D14*
X131190000Y-135750000D03*
%TD*%
D13*
%TO.C,R13*%
X146190000Y-71000000D03*
D14*
X153810000Y-71000000D03*
%TD*%
D13*
%TO.C,R6*%
X146190000Y-129750000D03*
D14*
X153810000Y-129750000D03*
%TD*%
D24*
%TO.C,HARD/SOFT1*%
X165000000Y-87800000D03*
X165000000Y-92500000D03*
X165000000Y-97200000D03*
%TD*%
D13*
%TO.C,R10*%
X127500000Y-58690000D03*
D14*
X127500000Y-66310000D03*
%TD*%
D13*
%TO.C,R19*%
X145940000Y-100750000D03*
D14*
X153560000Y-100750000D03*
%TD*%
D13*
%TO.C,R26*%
X142500000Y-96310000D03*
D14*
X142500000Y-88690000D03*
%TD*%
D13*
%TO.C,R8*%
X157500000Y-66310000D03*
D14*
X157500000Y-58690000D03*
%TD*%
D19*
%TO.C,U5*%
X146190000Y-118690000D03*
D20*
X146190000Y-121230000D03*
X146190000Y-123770000D03*
X146190000Y-126310000D03*
X153810000Y-126310000D03*
X153810000Y-123770000D03*
X153810000Y-121230000D03*
X153810000Y-118690000D03*
%TD*%
D13*
%TO.C,R3*%
X172500000Y-103690000D03*
D14*
X172500000Y-111310000D03*
%TD*%
D13*
%TO.C,R15*%
X138810000Y-139250000D03*
D14*
X131190000Y-139250000D03*
%TD*%
D13*
%TO.C,R18*%
X172500000Y-66310000D03*
D14*
X172500000Y-58690000D03*
%TD*%
D15*
%TO.C,J4*%
X165000000Y-56020000D03*
D16*
X165000000Y-59120000D03*
X165000000Y-67420000D03*
%TD*%
D19*
%TO.C,U2*%
X161190000Y-73690000D03*
D20*
X161190000Y-76230000D03*
X161190000Y-78770000D03*
X161190000Y-81310000D03*
X168810000Y-81310000D03*
X168810000Y-78770000D03*
X168810000Y-76230000D03*
X168810000Y-73690000D03*
%TD*%
D15*
%TO.C,J2*%
X150000000Y-56020000D03*
D16*
X150000000Y-59120000D03*
X150000000Y-67420000D03*
%TD*%
D25*
%TO.C,D2*%
X160940001Y-100750000D03*
D13*
X168560001Y-100750000D03*
%TD*%
D24*
%TO.C,LP/BP1*%
X150000000Y-87800000D03*
X150000000Y-92500000D03*
X150000000Y-97200000D03*
%TD*%
D13*
%TO.C,R25*%
X157500000Y-118940000D03*
D14*
X157500000Y-126560000D03*
%TD*%
D13*
%TO.C,R4*%
X127500000Y-118690000D03*
D14*
X127500000Y-126310000D03*
%TD*%
D26*
%TO.C,D1*%
X168809999Y-84500000D03*
D13*
X161189999Y-84500000D03*
%TD*%
%TO.C,R17*%
X172500000Y-73690000D03*
D14*
X172500000Y-81310000D03*
%TD*%
D13*
%TO.C,R23*%
X146190000Y-115000000D03*
D14*
X153810000Y-115000000D03*
%TD*%
D13*
%TO.C,R1*%
X142500000Y-81310000D03*
D14*
X142500000Y-73690000D03*
%TD*%
D13*
%TO.C,C2*%
X157600000Y-105000000D03*
X157600000Y-110000000D03*
%TD*%
D19*
%TO.C,U4*%
X146190000Y-103690000D03*
D20*
X146190000Y-106230000D03*
X146190000Y-108770000D03*
X146190000Y-111310000D03*
X153810000Y-111310000D03*
X153810000Y-108770000D03*
X153810000Y-106230000D03*
X153810000Y-103690000D03*
%TD*%
D27*
%TO.C,Q1*%
X136730000Y-92500000D03*
X135000000Y-92500000D03*
D28*
X133230000Y-92500000D03*
%TD*%
D13*
%TO.C,R9*%
X161190000Y-139250000D03*
D14*
X168810000Y-139250000D03*
%TD*%
D13*
%TO.C,R11*%
X146130000Y-83500000D03*
D14*
X153750000Y-83500000D03*
%TD*%
D13*
%TO.C,R5*%
X142500000Y-58690000D03*
D14*
X142500000Y-66310000D03*
%TD*%
D13*
%TO.C,R27*%
X142500000Y-111310000D03*
D14*
X142500000Y-103690000D03*
%TD*%
D19*
%TO.C,U1*%
X161190000Y-103690000D03*
D20*
X161190000Y-106230000D03*
X161190000Y-108770000D03*
X161190000Y-111310000D03*
X168810000Y-111310000D03*
X168810000Y-108770000D03*
X168810000Y-106230000D03*
X168810000Y-103690000D03*
%TD*%
D13*
%TO.C,R2*%
X157500000Y-81310000D03*
D14*
X157500000Y-73690000D03*
%TD*%
%LPD*%
M02*
