%TF.GenerationSoftware,KiCad,Pcbnew,9.0.2*%
%TF.CreationDate,2025-06-20T23:13:18+10:00*%
%TF.ProjectId,VCF,5643462e-6b69-4636-9164-5f7063625858,1-0*%
%TF.SameCoordinates,Original*%
%TF.FileFunction,Legend,Bot*%
%TF.FilePolarity,Positive*%
%FSLAX46Y46*%
G04 Gerber Fmt 4.6, Leading zero omitted, Abs format (unit mm)*
G04 Created by KiCad (PCBNEW 9.0.2) date 2025-06-20 23:13:18*
%MOMM*%
%LPD*%
G01*
G04 APERTURE LIST*
G04 Aperture macros list*
%AMRoundRect*
0 Rectangle with rounded corners*
0 $1 Rounding radius*
0 $2 $3 $4 $5 $6 $7 $8 $9 X,Y pos of 4 corners*
0 Add a 4 corners polygon primitive as box body*
4,1,4,$2,$3,$4,$5,$6,$7,$8,$9,$2,$3,0*
0 Add four circle primitives for the rounded corners*
1,1,$1+$1,$2,$3*
1,1,$1+$1,$4,$5*
1,1,$1+$1,$6,$7*
1,1,$1+$1,$8,$9*
0 Add four rect primitives between the rounded corners*
20,1,$1+$1,$2,$3,$4,$5,0*
20,1,$1+$1,$4,$5,$6,$7,0*
20,1,$1+$1,$6,$7,$8,$9,0*
20,1,$1+$1,$8,$9,$2,$3,0*%
G04 Aperture macros list end*
%ADD10C,0.150000*%
%ADD11C,0.200000*%
%ADD12C,0.010000*%
%ADD13R,2.400000X1.600000*%
%ADD14O,2.400000X1.600000*%
%ADD15C,1.600000*%
%ADD16O,1.600000X1.600000*%
%ADD17C,4.000000*%
%ADD18O,1.600000X2.400000*%
%ADD19RoundRect,0.250000X-0.550000X-0.550000X0.550000X-0.550000X0.550000X0.550000X-0.550000X0.550000X0*%
%ADD20RoundRect,0.250000X0.550000X0.550000X-0.550000X0.550000X-0.550000X-0.550000X0.550000X-0.550000X0*%
%ADD21O,3.600000X1.800000*%
%ADD22R,2.000000X2.000000*%
%ADD23C,2.200000*%
%ADD24RoundRect,0.291666X-0.408334X-0.708334X0.408334X-0.708334X0.408334X0.708334X-0.408334X0.708334X0*%
%ADD25O,1.400000X2.000000*%
%ADD26O,1.350000X1.900000*%
%ADD27R,1.350000X1.900000*%
%ADD28C,1.440000*%
G04 APERTURE END LIST*
D10*
X154314285Y-145597342D02*
X153914285Y-146797342D01*
X153914285Y-146797342D02*
X153514285Y-145597342D01*
X152428571Y-146683057D02*
X152485714Y-146740200D01*
X152485714Y-146740200D02*
X152657142Y-146797342D01*
X152657142Y-146797342D02*
X152771428Y-146797342D01*
X152771428Y-146797342D02*
X152942857Y-146740200D01*
X152942857Y-146740200D02*
X153057142Y-146625914D01*
X153057142Y-146625914D02*
X153114285Y-146511628D01*
X153114285Y-146511628D02*
X153171428Y-146283057D01*
X153171428Y-146283057D02*
X153171428Y-146111628D01*
X153171428Y-146111628D02*
X153114285Y-145883057D01*
X153114285Y-145883057D02*
X153057142Y-145768771D01*
X153057142Y-145768771D02*
X152942857Y-145654485D01*
X152942857Y-145654485D02*
X152771428Y-145597342D01*
X152771428Y-145597342D02*
X152657142Y-145597342D01*
X152657142Y-145597342D02*
X152485714Y-145654485D01*
X152485714Y-145654485D02*
X152428571Y-145711628D01*
X151514285Y-146168771D02*
X151914285Y-146168771D01*
X151914285Y-146797342D02*
X151914285Y-145597342D01*
X151914285Y-145597342D02*
X151342857Y-145597342D01*
X150085714Y-145997342D02*
X149800000Y-146797342D01*
X149800000Y-146797342D02*
X149514285Y-145997342D01*
X148428571Y-146797342D02*
X149114285Y-146797342D01*
X148771428Y-146797342D02*
X148771428Y-145597342D01*
X148771428Y-145597342D02*
X148885714Y-145768771D01*
X148885714Y-145768771D02*
X148999999Y-145883057D01*
X148999999Y-145883057D02*
X149114285Y-145940200D01*
X147914285Y-146340200D02*
X147000000Y-146340200D01*
X146200000Y-145597342D02*
X146085714Y-145597342D01*
X146085714Y-145597342D02*
X145971428Y-145654485D01*
X145971428Y-145654485D02*
X145914286Y-145711628D01*
X145914286Y-145711628D02*
X145857143Y-145825914D01*
X145857143Y-145825914D02*
X145800000Y-146054485D01*
X145800000Y-146054485D02*
X145800000Y-146340200D01*
X145800000Y-146340200D02*
X145857143Y-146568771D01*
X145857143Y-146568771D02*
X145914286Y-146683057D01*
X145914286Y-146683057D02*
X145971428Y-146740200D01*
X145971428Y-146740200D02*
X146085714Y-146797342D01*
X146085714Y-146797342D02*
X146200000Y-146797342D01*
X146200000Y-146797342D02*
X146314286Y-146740200D01*
X146314286Y-146740200D02*
X146371428Y-146683057D01*
X146371428Y-146683057D02*
X146428571Y-146568771D01*
X146428571Y-146568771D02*
X146485714Y-146340200D01*
X146485714Y-146340200D02*
X146485714Y-146054485D01*
X146485714Y-146054485D02*
X146428571Y-145825914D01*
X146428571Y-145825914D02*
X146371428Y-145711628D01*
X146371428Y-145711628D02*
X146314286Y-145654485D01*
X146314286Y-145654485D02*
X146200000Y-145597342D01*
X158842855Y-148547341D02*
X158842855Y-147347341D01*
X158842855Y-147347341D02*
X158385712Y-147347341D01*
X158385712Y-147347341D02*
X158271427Y-147404484D01*
X158271427Y-147404484D02*
X158214284Y-147461627D01*
X158214284Y-147461627D02*
X158157141Y-147575913D01*
X158157141Y-147575913D02*
X158157141Y-147747341D01*
X158157141Y-147747341D02*
X158214284Y-147861627D01*
X158214284Y-147861627D02*
X158271427Y-147918770D01*
X158271427Y-147918770D02*
X158385712Y-147975913D01*
X158385712Y-147975913D02*
X158842855Y-147975913D01*
X157128570Y-148547341D02*
X157128570Y-147918770D01*
X157128570Y-147918770D02*
X157185712Y-147804484D01*
X157185712Y-147804484D02*
X157299998Y-147747341D01*
X157299998Y-147747341D02*
X157528570Y-147747341D01*
X157528570Y-147747341D02*
X157642855Y-147804484D01*
X157128570Y-148490199D02*
X157242855Y-148547341D01*
X157242855Y-148547341D02*
X157528570Y-148547341D01*
X157528570Y-148547341D02*
X157642855Y-148490199D01*
X157642855Y-148490199D02*
X157699998Y-148375913D01*
X157699998Y-148375913D02*
X157699998Y-148261627D01*
X157699998Y-148261627D02*
X157642855Y-148147341D01*
X157642855Y-148147341D02*
X157528570Y-148090199D01*
X157528570Y-148090199D02*
X157242855Y-148090199D01*
X157242855Y-148090199D02*
X157128570Y-148033056D01*
X156557141Y-147747341D02*
X156557141Y-148547341D01*
X156557141Y-147861627D02*
X156499998Y-147804484D01*
X156499998Y-147804484D02*
X156385713Y-147747341D01*
X156385713Y-147747341D02*
X156214284Y-147747341D01*
X156214284Y-147747341D02*
X156099998Y-147804484D01*
X156099998Y-147804484D02*
X156042856Y-147918770D01*
X156042856Y-147918770D02*
X156042856Y-148547341D01*
X154957142Y-148490199D02*
X155071427Y-148547341D01*
X155071427Y-148547341D02*
X155299999Y-148547341D01*
X155299999Y-148547341D02*
X155414284Y-148490199D01*
X155414284Y-148490199D02*
X155471427Y-148433056D01*
X155471427Y-148433056D02*
X155528570Y-148318770D01*
X155528570Y-148318770D02*
X155528570Y-147975913D01*
X155528570Y-147975913D02*
X155471427Y-147861627D01*
X155471427Y-147861627D02*
X155414284Y-147804484D01*
X155414284Y-147804484D02*
X155299999Y-147747341D01*
X155299999Y-147747341D02*
X155071427Y-147747341D01*
X155071427Y-147747341D02*
X154957142Y-147804484D01*
X153928571Y-148547341D02*
X153928571Y-147918770D01*
X153928571Y-147918770D02*
X153985713Y-147804484D01*
X153985713Y-147804484D02*
X154099999Y-147747341D01*
X154099999Y-147747341D02*
X154328571Y-147747341D01*
X154328571Y-147747341D02*
X154442856Y-147804484D01*
X153928571Y-148490199D02*
X154042856Y-148547341D01*
X154042856Y-148547341D02*
X154328571Y-148547341D01*
X154328571Y-148547341D02*
X154442856Y-148490199D01*
X154442856Y-148490199D02*
X154499999Y-148375913D01*
X154499999Y-148375913D02*
X154499999Y-148261627D01*
X154499999Y-148261627D02*
X154442856Y-148147341D01*
X154442856Y-148147341D02*
X154328571Y-148090199D01*
X154328571Y-148090199D02*
X154042856Y-148090199D01*
X154042856Y-148090199D02*
X153928571Y-148033056D01*
X153357142Y-148547341D02*
X153357142Y-147347341D01*
X153242857Y-148090199D02*
X152899999Y-148547341D01*
X152899999Y-147747341D02*
X153357142Y-148204484D01*
X151928570Y-148490199D02*
X152042856Y-148547341D01*
X152042856Y-148547341D02*
X152271428Y-148547341D01*
X152271428Y-148547341D02*
X152385713Y-148490199D01*
X152385713Y-148490199D02*
X152442856Y-148375913D01*
X152442856Y-148375913D02*
X152442856Y-147918770D01*
X152442856Y-147918770D02*
X152385713Y-147804484D01*
X152385713Y-147804484D02*
X152271428Y-147747341D01*
X152271428Y-147747341D02*
X152042856Y-147747341D01*
X152042856Y-147747341D02*
X151928570Y-147804484D01*
X151928570Y-147804484D02*
X151871428Y-147918770D01*
X151871428Y-147918770D02*
X151871428Y-148033056D01*
X151871428Y-148033056D02*
X152442856Y-148147341D01*
X150785714Y-148547341D02*
X151357142Y-148547341D01*
X151357142Y-148547341D02*
X151357142Y-147347341D01*
X149928570Y-148490199D02*
X150042856Y-148547341D01*
X150042856Y-148547341D02*
X150271428Y-148547341D01*
X150271428Y-148547341D02*
X150385713Y-148490199D01*
X150385713Y-148490199D02*
X150442856Y-148375913D01*
X150442856Y-148375913D02*
X150442856Y-147918770D01*
X150442856Y-147918770D02*
X150385713Y-147804484D01*
X150385713Y-147804484D02*
X150271428Y-147747341D01*
X150271428Y-147747341D02*
X150042856Y-147747341D01*
X150042856Y-147747341D02*
X149928570Y-147804484D01*
X149928570Y-147804484D02*
X149871428Y-147918770D01*
X149871428Y-147918770D02*
X149871428Y-148033056D01*
X149871428Y-148033056D02*
X150442856Y-148147341D01*
X148842857Y-147747341D02*
X148842857Y-148718770D01*
X148842857Y-148718770D02*
X148899999Y-148833056D01*
X148899999Y-148833056D02*
X148957142Y-148890199D01*
X148957142Y-148890199D02*
X149071428Y-148947341D01*
X149071428Y-148947341D02*
X149242857Y-148947341D01*
X149242857Y-148947341D02*
X149357142Y-148890199D01*
X148842857Y-148490199D02*
X148957142Y-148547341D01*
X148957142Y-148547341D02*
X149185714Y-148547341D01*
X149185714Y-148547341D02*
X149299999Y-148490199D01*
X149299999Y-148490199D02*
X149357142Y-148433056D01*
X149357142Y-148433056D02*
X149414285Y-148318770D01*
X149414285Y-148318770D02*
X149414285Y-147975913D01*
X149414285Y-147975913D02*
X149357142Y-147861627D01*
X149357142Y-147861627D02*
X149299999Y-147804484D01*
X149299999Y-147804484D02*
X149185714Y-147747341D01*
X149185714Y-147747341D02*
X148957142Y-147747341D01*
X148957142Y-147747341D02*
X148842857Y-147804484D01*
X147814285Y-148490199D02*
X147928571Y-148547341D01*
X147928571Y-148547341D02*
X148157143Y-148547341D01*
X148157143Y-148547341D02*
X148271428Y-148490199D01*
X148271428Y-148490199D02*
X148328571Y-148375913D01*
X148328571Y-148375913D02*
X148328571Y-147918770D01*
X148328571Y-147918770D02*
X148271428Y-147804484D01*
X148271428Y-147804484D02*
X148157143Y-147747341D01*
X148157143Y-147747341D02*
X147928571Y-147747341D01*
X147928571Y-147747341D02*
X147814285Y-147804484D01*
X147814285Y-147804484D02*
X147757143Y-147918770D01*
X147757143Y-147918770D02*
X147757143Y-148033056D01*
X147757143Y-148033056D02*
X148328571Y-148147341D01*
X147242857Y-147747341D02*
X147242857Y-148547341D01*
X147242857Y-147861627D02*
X147185714Y-147804484D01*
X147185714Y-147804484D02*
X147071429Y-147747341D01*
X147071429Y-147747341D02*
X146900000Y-147747341D01*
X146900000Y-147747341D02*
X146785714Y-147804484D01*
X146785714Y-147804484D02*
X146728572Y-147918770D01*
X146728572Y-147918770D02*
X146728572Y-148547341D01*
X145642858Y-148547341D02*
X145642858Y-147347341D01*
X145642858Y-148490199D02*
X145757143Y-148547341D01*
X145757143Y-148547341D02*
X145985715Y-148547341D01*
X145985715Y-148547341D02*
X146100000Y-148490199D01*
X146100000Y-148490199D02*
X146157143Y-148433056D01*
X146157143Y-148433056D02*
X146214286Y-148318770D01*
X146214286Y-148318770D02*
X146214286Y-147975913D01*
X146214286Y-147975913D02*
X146157143Y-147861627D01*
X146157143Y-147861627D02*
X146100000Y-147804484D01*
X146100000Y-147804484D02*
X145985715Y-147747341D01*
X145985715Y-147747341D02*
X145757143Y-147747341D01*
X145757143Y-147747341D02*
X145642858Y-147804484D01*
X144214286Y-147461627D02*
X144157143Y-147404484D01*
X144157143Y-147404484D02*
X144042858Y-147347341D01*
X144042858Y-147347341D02*
X143757143Y-147347341D01*
X143757143Y-147347341D02*
X143642858Y-147404484D01*
X143642858Y-147404484D02*
X143585715Y-147461627D01*
X143585715Y-147461627D02*
X143528572Y-147575913D01*
X143528572Y-147575913D02*
X143528572Y-147690199D01*
X143528572Y-147690199D02*
X143585715Y-147861627D01*
X143585715Y-147861627D02*
X144271429Y-148547341D01*
X144271429Y-148547341D02*
X143528572Y-148547341D01*
X142785715Y-147347341D02*
X142671429Y-147347341D01*
X142671429Y-147347341D02*
X142557143Y-147404484D01*
X142557143Y-147404484D02*
X142500001Y-147461627D01*
X142500001Y-147461627D02*
X142442858Y-147575913D01*
X142442858Y-147575913D02*
X142385715Y-147804484D01*
X142385715Y-147804484D02*
X142385715Y-148090199D01*
X142385715Y-148090199D02*
X142442858Y-148318770D01*
X142442858Y-148318770D02*
X142500001Y-148433056D01*
X142500001Y-148433056D02*
X142557143Y-148490199D01*
X142557143Y-148490199D02*
X142671429Y-148547341D01*
X142671429Y-148547341D02*
X142785715Y-148547341D01*
X142785715Y-148547341D02*
X142900001Y-148490199D01*
X142900001Y-148490199D02*
X142957143Y-148433056D01*
X142957143Y-148433056D02*
X143014286Y-148318770D01*
X143014286Y-148318770D02*
X143071429Y-148090199D01*
X143071429Y-148090199D02*
X143071429Y-147804484D01*
X143071429Y-147804484D02*
X143014286Y-147575913D01*
X143014286Y-147575913D02*
X142957143Y-147461627D01*
X142957143Y-147461627D02*
X142900001Y-147404484D01*
X142900001Y-147404484D02*
X142785715Y-147347341D01*
X141928572Y-147461627D02*
X141871429Y-147404484D01*
X141871429Y-147404484D02*
X141757144Y-147347341D01*
X141757144Y-147347341D02*
X141471429Y-147347341D01*
X141471429Y-147347341D02*
X141357144Y-147404484D01*
X141357144Y-147404484D02*
X141300001Y-147461627D01*
X141300001Y-147461627D02*
X141242858Y-147575913D01*
X141242858Y-147575913D02*
X141242858Y-147690199D01*
X141242858Y-147690199D02*
X141300001Y-147861627D01*
X141300001Y-147861627D02*
X141985715Y-148547341D01*
X141985715Y-148547341D02*
X141242858Y-148547341D01*
X140157144Y-147347341D02*
X140728572Y-147347341D01*
X140728572Y-147347341D02*
X140785715Y-147918770D01*
X140785715Y-147918770D02*
X140728572Y-147861627D01*
X140728572Y-147861627D02*
X140614287Y-147804484D01*
X140614287Y-147804484D02*
X140328572Y-147804484D01*
X140328572Y-147804484D02*
X140214287Y-147861627D01*
X140214287Y-147861627D02*
X140157144Y-147918770D01*
X140157144Y-147918770D02*
X140100001Y-148033056D01*
X140100001Y-148033056D02*
X140100001Y-148318770D01*
X140100001Y-148318770D02*
X140157144Y-148433056D01*
X140157144Y-148433056D02*
X140214287Y-148490199D01*
X140214287Y-148490199D02*
X140328572Y-148547341D01*
X140328572Y-148547341D02*
X140614287Y-148547341D01*
X140614287Y-148547341D02*
X140728572Y-148490199D01*
X140728572Y-148490199D02*
X140785715Y-148433056D01*
D11*
X132093316Y-145483958D02*
X132093316Y-146451578D01*
X132577126Y-145967768D02*
X131609507Y-145967768D01*
X131307126Y-146874911D02*
X132577126Y-147298244D01*
X132577126Y-147298244D02*
X131307126Y-147721578D01*
X129367602Y-146149197D02*
X129307126Y-146028244D01*
X129307126Y-146028244D02*
X129307126Y-145846816D01*
X129307126Y-145846816D02*
X129367602Y-145665387D01*
X129367602Y-145665387D02*
X129488554Y-145544435D01*
X129488554Y-145544435D02*
X129609507Y-145483958D01*
X129609507Y-145483958D02*
X129851411Y-145423482D01*
X129851411Y-145423482D02*
X130032840Y-145423482D01*
X130032840Y-145423482D02*
X130274745Y-145483958D01*
X130274745Y-145483958D02*
X130395697Y-145544435D01*
X130395697Y-145544435D02*
X130516650Y-145665387D01*
X130516650Y-145665387D02*
X130577126Y-145846816D01*
X130577126Y-145846816D02*
X130577126Y-145967768D01*
X130577126Y-145967768D02*
X130516650Y-146149197D01*
X130516650Y-146149197D02*
X130456173Y-146209673D01*
X130456173Y-146209673D02*
X130032840Y-146209673D01*
X130032840Y-146209673D02*
X130032840Y-145967768D01*
X130577126Y-146753958D02*
X129307126Y-146753958D01*
X129307126Y-146753958D02*
X130577126Y-147479673D01*
X130577126Y-147479673D02*
X129307126Y-147479673D01*
X130577126Y-148084434D02*
X129307126Y-148084434D01*
X129307126Y-148084434D02*
X129307126Y-148386815D01*
X129307126Y-148386815D02*
X129367602Y-148568244D01*
X129367602Y-148568244D02*
X129488554Y-148689196D01*
X129488554Y-148689196D02*
X129609507Y-148749673D01*
X129609507Y-148749673D02*
X129851411Y-148810149D01*
X129851411Y-148810149D02*
X130032840Y-148810149D01*
X130032840Y-148810149D02*
X130274745Y-148749673D01*
X130274745Y-148749673D02*
X130395697Y-148689196D01*
X130395697Y-148689196D02*
X130516650Y-148568244D01*
X130516650Y-148568244D02*
X130577126Y-148386815D01*
X130577126Y-148386815D02*
X130577126Y-148084434D01*
X134093316Y-145483958D02*
X134093316Y-146451578D01*
X133307126Y-146874911D02*
X134577126Y-147298244D01*
X134577126Y-147298244D02*
X133307126Y-147721578D01*
X168093316Y-145483958D02*
X168093316Y-146451578D01*
X168577126Y-145967768D02*
X167609507Y-145967768D01*
X167307126Y-146874911D02*
X168577126Y-147298244D01*
X168577126Y-147298244D02*
X167307126Y-147721578D01*
X165367602Y-146149197D02*
X165307126Y-146028244D01*
X165307126Y-146028244D02*
X165307126Y-145846816D01*
X165307126Y-145846816D02*
X165367602Y-145665387D01*
X165367602Y-145665387D02*
X165488554Y-145544435D01*
X165488554Y-145544435D02*
X165609507Y-145483958D01*
X165609507Y-145483958D02*
X165851411Y-145423482D01*
X165851411Y-145423482D02*
X166032840Y-145423482D01*
X166032840Y-145423482D02*
X166274745Y-145483958D01*
X166274745Y-145483958D02*
X166395697Y-145544435D01*
X166395697Y-145544435D02*
X166516650Y-145665387D01*
X166516650Y-145665387D02*
X166577126Y-145846816D01*
X166577126Y-145846816D02*
X166577126Y-145967768D01*
X166577126Y-145967768D02*
X166516650Y-146149197D01*
X166516650Y-146149197D02*
X166456173Y-146209673D01*
X166456173Y-146209673D02*
X166032840Y-146209673D01*
X166032840Y-146209673D02*
X166032840Y-145967768D01*
X166577126Y-146753958D02*
X165307126Y-146753958D01*
X165307126Y-146753958D02*
X166577126Y-147479673D01*
X166577126Y-147479673D02*
X165307126Y-147479673D01*
X166577126Y-148084434D02*
X165307126Y-148084434D01*
X165307126Y-148084434D02*
X165307126Y-148386815D01*
X165307126Y-148386815D02*
X165367602Y-148568244D01*
X165367602Y-148568244D02*
X165488554Y-148689196D01*
X165488554Y-148689196D02*
X165609507Y-148749673D01*
X165609507Y-148749673D02*
X165851411Y-148810149D01*
X165851411Y-148810149D02*
X166032840Y-148810149D01*
X166032840Y-148810149D02*
X166274745Y-148749673D01*
X166274745Y-148749673D02*
X166395697Y-148689196D01*
X166395697Y-148689196D02*
X166516650Y-148568244D01*
X166516650Y-148568244D02*
X166577126Y-148386815D01*
X166577126Y-148386815D02*
X166577126Y-148084434D01*
X170093316Y-145483958D02*
X170093316Y-146451578D01*
X169307126Y-146874911D02*
X170577126Y-147298244D01*
X170577126Y-147298244D02*
X169307126Y-147721578D01*
D12*
%TO.C,Ref\u002A\u002A*%
X198254634Y-70396087D02*
X198463316Y-70776199D01*
X198568416Y-71000053D01*
X198578802Y-71026208D01*
X198721359Y-71385234D01*
X198837292Y-71770354D01*
X198917953Y-72162877D01*
X198965076Y-72570270D01*
X198980397Y-73000000D01*
X198976097Y-73231247D01*
X198943676Y-73651213D01*
X198878099Y-74052793D01*
X198777721Y-74443071D01*
X198640901Y-74829127D01*
X198492550Y-75159000D01*
X198465996Y-75218046D01*
X198381678Y-75380766D01*
X198147772Y-75769419D01*
X197882166Y-76131717D01*
X197586934Y-76466251D01*
X197264152Y-76771612D01*
X196915897Y-77046390D01*
X196544244Y-77289175D01*
X196151269Y-77498558D01*
X195739047Y-77673130D01*
X195309655Y-77811480D01*
X194865168Y-77912200D01*
X194407662Y-77973879D01*
X194389016Y-77975418D01*
X194282290Y-77981126D01*
X194151386Y-77984455D01*
X194011163Y-77985152D01*
X193876480Y-77982962D01*
X193814857Y-77980858D01*
X193388191Y-77948276D01*
X192982349Y-77883579D01*
X192589279Y-77784798D01*
X192200930Y-77649962D01*
X191809250Y-77477100D01*
X191488275Y-77306969D01*
X191107153Y-77063387D01*
X190753180Y-76787569D01*
X190425739Y-76478977D01*
X190124216Y-76137071D01*
X189847994Y-75761313D01*
X189781584Y-75659675D01*
X189559342Y-75271670D01*
X189374992Y-74868401D01*
X189228533Y-74452713D01*
X189119966Y-74027451D01*
X189049291Y-73595459D01*
X189016508Y-73159583D01*
X189021616Y-72722669D01*
X189064616Y-72287560D01*
X189079282Y-72209517D01*
X190110909Y-72209517D01*
X190111232Y-72340150D01*
X190119204Y-72479502D01*
X190134197Y-72614068D01*
X190155584Y-72730342D01*
X190157506Y-72738264D01*
X190184768Y-72823841D01*
X190225130Y-72904146D01*
X190283884Y-72986712D01*
X190366323Y-73079069D01*
X190477739Y-73188747D01*
X190652192Y-73353881D01*
X190640419Y-73483722D01*
X190638234Y-73515985D01*
X190649509Y-73654948D01*
X190697211Y-73773861D01*
X190782405Y-73875662D01*
X190870887Y-73938834D01*
X190995717Y-73984331D01*
X191131190Y-73991343D01*
X191273206Y-73959781D01*
X191417667Y-73889556D01*
X191443784Y-73874026D01*
X191493072Y-73850711D01*
X191548190Y-73835628D01*
X191621304Y-73825980D01*
X191724583Y-73818967D01*
X191771310Y-73815977D01*
X191878727Y-73806202D01*
X191977131Y-73793735D01*
X192049871Y-73780542D01*
X192099641Y-73769365D01*
X192145354Y-73763663D01*
X192172024Y-73771233D01*
X192192477Y-73793216D01*
X192216550Y-73841087D01*
X192234563Y-73902692D01*
X192237721Y-73951630D01*
X192222154Y-74000122D01*
X192181916Y-74061935D01*
X192158238Y-74096062D01*
X192127995Y-74147553D01*
X192116167Y-74179971D01*
X192118646Y-74202492D01*
X192141894Y-74255967D01*
X192192240Y-74319416D01*
X192272897Y-74396528D01*
X192387077Y-74490990D01*
X192598321Y-74657997D01*
X192624113Y-74817884D01*
X192625563Y-74826775D01*
X192640619Y-74910383D01*
X192655662Y-74981094D01*
X192667639Y-75024412D01*
X192674576Y-75058323D01*
X192654836Y-75096397D01*
X192637433Y-75119471D01*
X192610872Y-75177564D01*
X192586102Y-75252308D01*
X192567806Y-75328966D01*
X192560667Y-75392798D01*
X192560391Y-75405613D01*
X192552258Y-75435654D01*
X192524396Y-75451901D01*
X192465548Y-75462617D01*
X192431406Y-75469149D01*
X192346861Y-75494501D01*
X192266552Y-75528292D01*
X192194558Y-75571970D01*
X192107089Y-75656501D01*
X192056007Y-75753351D01*
X192040868Y-75857528D01*
X192061226Y-75964042D01*
X192116635Y-76067904D01*
X192206649Y-76164122D01*
X192330822Y-76247708D01*
X192383136Y-76275759D01*
X192428858Y-76300322D01*
X192447821Y-76310578D01*
X192459410Y-76332747D01*
X192466465Y-76373109D01*
X192466755Y-76411749D01*
X192458506Y-76429000D01*
X192426431Y-76435884D01*
X192376836Y-76453477D01*
X192329439Y-76465725D01*
X192253719Y-76476062D01*
X192169083Y-76481262D01*
X192043153Y-76492266D01*
X191889166Y-76530045D01*
X191755309Y-76591307D01*
X191648216Y-76672816D01*
X191574519Y-76771336D01*
X191569650Y-76781493D01*
X191554080Y-76864053D01*
X191574406Y-76948343D01*
X191626003Y-77026988D01*
X191704244Y-77092617D01*
X191804501Y-77137855D01*
X191808224Y-77138931D01*
X191885952Y-77154394D01*
X191984318Y-77165120D01*
X192082967Y-77168843D01*
X192180650Y-77164499D01*
X192317299Y-77139421D01*
X192441978Y-77087375D01*
X192570364Y-77003026D01*
X192629646Y-76959689D01*
X192665750Y-76938797D01*
X192684462Y-76938977D01*
X192693583Y-76957337D01*
X192696897Y-76966703D01*
X192736203Y-77009181D01*
X192807327Y-77043434D01*
X192901896Y-77067815D01*
X193011536Y-77080679D01*
X193127876Y-77080378D01*
X193242542Y-77065268D01*
X193306124Y-77047147D01*
X193394537Y-76998290D01*
X193450986Y-76931131D01*
X193470833Y-76850041D01*
X193463915Y-76786981D01*
X193432807Y-76676335D01*
X193379577Y-76545237D01*
X193307398Y-76400475D01*
X193219446Y-76248841D01*
X193118893Y-76097124D01*
X193110143Y-76084729D01*
X193067597Y-76023490D01*
X193037658Y-75978778D01*
X193026346Y-75959540D01*
X193032270Y-75958246D01*
X193071979Y-75956070D01*
X193142864Y-75954327D01*
X193237669Y-75953170D01*
X193349137Y-75952750D01*
X193387436Y-75952727D01*
X193502858Y-75951967D01*
X193587135Y-75949309D01*
X193649045Y-75943652D01*
X193697363Y-75933897D01*
X193740867Y-75918942D01*
X193788333Y-75897687D01*
X193838876Y-75871473D01*
X193908673Y-75828303D01*
X193957667Y-75789621D01*
X193990037Y-75762610D01*
X194030693Y-75744441D01*
X194090047Y-75733103D01*
X194179917Y-75725170D01*
X194282367Y-75713385D01*
X194391850Y-75692968D01*
X194482948Y-75668496D01*
X194616645Y-75623269D01*
X194684031Y-75680154D01*
X194756914Y-75731938D01*
X194879118Y-75796250D01*
X195020905Y-75852262D01*
X195169458Y-75894321D01*
X195234662Y-75909334D01*
X195290624Y-75925167D01*
X195320103Y-75941238D01*
X195331579Y-75962747D01*
X195333533Y-75994891D01*
X195340667Y-76058275D01*
X195381604Y-76154526D01*
X195452562Y-76231843D01*
X195546286Y-76283307D01*
X195655522Y-76302000D01*
X195700198Y-76300733D01*
X195778228Y-76286960D01*
X195846186Y-76252249D01*
X195920875Y-76189474D01*
X195932462Y-76178060D01*
X195979327Y-76111290D01*
X195984281Y-76050321D01*
X195947333Y-75995083D01*
X195918988Y-75966155D01*
X195905050Y-75944178D01*
X195918815Y-75931094D01*
X195961164Y-75904141D01*
X196022125Y-75870436D01*
X196121281Y-75808180D01*
X196243113Y-75704583D01*
X196348995Y-75585182D01*
X196426294Y-75462718D01*
X196428050Y-75459132D01*
X196458804Y-75389790D01*
X196476636Y-75327632D01*
X196484818Y-75256192D01*
X196486619Y-75159000D01*
X196478089Y-75022419D01*
X196450249Y-74913789D01*
X196398803Y-74823241D01*
X196319450Y-74739998D01*
X196231524Y-74682038D01*
X196127722Y-74657597D01*
X196010405Y-74672282D01*
X196002789Y-74674498D01*
X195917667Y-74716987D01*
X195825428Y-74789749D01*
X195734043Y-74884607D01*
X195651486Y-74993382D01*
X195585729Y-75107897D01*
X195514528Y-75257143D01*
X195238806Y-75176583D01*
X195219760Y-75170982D01*
X195113904Y-75138544D01*
X195020090Y-75107737D01*
X194947897Y-75081810D01*
X194906901Y-75064012D01*
X194841013Y-75041263D01*
X194729851Y-75034077D01*
X194584506Y-75048653D01*
X194406110Y-75084944D01*
X194336066Y-75101713D01*
X194255697Y-75120382D01*
X194197864Y-75133121D01*
X194171851Y-75137833D01*
X194162290Y-75128148D01*
X194142704Y-75087785D01*
X194120733Y-75026708D01*
X194098785Y-74966440D01*
X194029573Y-74824824D01*
X193927848Y-74659813D01*
X193792981Y-74470340D01*
X193754651Y-74418485D01*
X194213613Y-74418485D01*
X194279304Y-74524159D01*
X194310236Y-74570005D01*
X194345455Y-74612502D01*
X194368289Y-74628301D01*
X194402110Y-74623714D01*
X194479340Y-74606676D01*
X194573551Y-74581224D01*
X194670913Y-74551437D01*
X194757597Y-74521393D01*
X194819772Y-74495170D01*
X194852945Y-74479075D01*
X194901173Y-74461025D01*
X194952328Y-74452199D01*
X195019483Y-74450829D01*
X195115714Y-74455147D01*
X195189567Y-74458837D01*
X195262796Y-74459216D01*
X195317643Y-74452443D01*
X195367798Y-74436506D01*
X195426951Y-74409391D01*
X195456674Y-74394079D01*
X195554563Y-74327259D01*
X195633560Y-74239984D01*
X195704167Y-74121340D01*
X195754988Y-74021049D01*
X195893435Y-74012233D01*
X195923030Y-74010070D01*
X196006576Y-73998083D01*
X196054366Y-73977121D01*
X196071376Y-73943715D01*
X196062583Y-73894400D01*
X196054437Y-73876000D01*
X196002126Y-73818806D01*
X195918114Y-73773850D01*
X195810048Y-73744390D01*
X195685574Y-73733686D01*
X195518033Y-73747252D01*
X195341857Y-73794909D01*
X195166388Y-73879016D01*
X194985817Y-74001800D01*
X194966554Y-74001285D01*
X194922118Y-73974357D01*
X194860898Y-73921207D01*
X194829906Y-73892184D01*
X194777358Y-73850136D01*
X194735212Y-73831348D01*
X194691947Y-73829573D01*
X194650226Y-73838673D01*
X194615583Y-73864494D01*
X194598600Y-73910882D01*
X194598754Y-73982539D01*
X194615520Y-74084163D01*
X194648375Y-74220455D01*
X194649205Y-74223799D01*
X194648390Y-74253911D01*
X194623769Y-74278831D01*
X194567036Y-74307446D01*
X194484617Y-74341312D01*
X194270848Y-74405841D01*
X194213613Y-74418485D01*
X193754651Y-74418485D01*
X193748118Y-74409646D01*
X193702625Y-74345663D01*
X193673053Y-74301000D01*
X193664306Y-74282805D01*
X193675939Y-74274619D01*
X193714642Y-74248135D01*
X193769529Y-74210929D01*
X193881331Y-74123302D01*
X194013593Y-73993473D01*
X194147132Y-73837369D01*
X194232849Y-73720683D01*
X196324326Y-73720683D01*
X196400413Y-73804903D01*
X196428782Y-73838601D01*
X196463105Y-73888082D01*
X196476500Y-73920811D01*
X196477045Y-73924970D01*
X196486541Y-73935119D01*
X196511939Y-73942488D01*
X196523361Y-73943715D01*
X196558526Y-73947493D01*
X196631586Y-73950553D01*
X196736403Y-73952082D01*
X196878264Y-73952500D01*
X196953506Y-73952482D01*
X197073883Y-73952091D01*
X197160576Y-73950672D01*
X197219337Y-73947560D01*
X197255916Y-73942089D01*
X197276065Y-73933595D01*
X197285535Y-73921412D01*
X197290078Y-73904875D01*
X197293057Y-73883637D01*
X197300493Y-73823660D01*
X197311755Y-73729700D01*
X197326358Y-73605982D01*
X197343820Y-73456730D01*
X197363655Y-73286168D01*
X197385381Y-73098519D01*
X197408514Y-72898009D01*
X197432570Y-72688860D01*
X197457065Y-72475298D01*
X197481516Y-72261546D01*
X197505438Y-72051828D01*
X197528348Y-71850369D01*
X197549763Y-71661392D01*
X197569198Y-71489121D01*
X197586169Y-71337781D01*
X197600194Y-71211596D01*
X197610788Y-71114789D01*
X197617467Y-71051585D01*
X197619749Y-71026208D01*
X197601560Y-71019758D01*
X197554846Y-71014305D01*
X197493690Y-71010582D01*
X197432184Y-71009171D01*
X197384421Y-71010657D01*
X197364493Y-71015625D01*
X197364251Y-71017579D01*
X197360473Y-71050274D01*
X197352444Y-71120486D01*
X197340566Y-71224673D01*
X197325243Y-71359295D01*
X197306877Y-71520811D01*
X197285870Y-71705681D01*
X197263878Y-71899333D01*
X197262626Y-71910362D01*
X197237546Y-72131316D01*
X197211035Y-72365000D01*
X197163018Y-72788333D01*
X197058583Y-73709083D01*
X196691455Y-73714883D01*
X196324326Y-73720683D01*
X194232849Y-73720683D01*
X194275683Y-73662374D01*
X194392984Y-73475873D01*
X194401590Y-73462011D01*
X194419285Y-73448128D01*
X194449141Y-73451729D01*
X194504538Y-73472395D01*
X194573631Y-73494528D01*
X194665648Y-73504425D01*
X194738733Y-73488042D01*
X194786943Y-73447142D01*
X194804333Y-73383489D01*
X194801236Y-73356340D01*
X194775367Y-73305068D01*
X194719120Y-73251709D01*
X194627528Y-73190850D01*
X194605737Y-73176868D01*
X194523561Y-73099300D01*
X194476993Y-73007326D01*
X194468179Y-72907387D01*
X194496549Y-72814792D01*
X195038359Y-72814792D01*
X195039091Y-72823962D01*
X195043769Y-72870477D01*
X195051983Y-72947162D01*
X195062860Y-73045944D01*
X195075526Y-73158750D01*
X195111501Y-73476250D01*
X195984500Y-73481776D01*
X196099109Y-73482444D01*
X196303027Y-73483224D01*
X196469395Y-73483156D01*
X196601418Y-73482164D01*
X196702303Y-73480169D01*
X196775255Y-73477093D01*
X196823480Y-73472860D01*
X196850184Y-73467391D01*
X196858573Y-73460610D01*
X196859393Y-73450319D01*
X196864255Y-73402475D01*
X196872695Y-73324664D01*
X196883839Y-73224881D01*
X196896811Y-73111125D01*
X196933975Y-72788333D01*
X195985571Y-72788333D01*
X195802058Y-72788470D01*
X195598176Y-72789102D01*
X195431297Y-72790325D01*
X195298410Y-72792223D01*
X195196499Y-72794881D01*
X195122552Y-72798383D01*
X195073556Y-72802812D01*
X195046496Y-72808254D01*
X195038359Y-72814792D01*
X194496549Y-72814792D01*
X194499266Y-72805923D01*
X194516829Y-72774748D01*
X194558243Y-72708849D01*
X194605100Y-72640405D01*
X194613291Y-72628812D01*
X194663397Y-72539980D01*
X194677246Y-72464362D01*
X194654583Y-72393811D01*
X194595157Y-72320176D01*
X194585277Y-72310562D01*
X194508432Y-72254511D01*
X194441007Y-72237140D01*
X194387195Y-72257093D01*
X194351189Y-72313016D01*
X194337179Y-72403553D01*
X194334557Y-72465157D01*
X194322585Y-72524351D01*
X194294112Y-72569214D01*
X194241743Y-72610251D01*
X194158082Y-72657969D01*
X194105314Y-72687399D01*
X194040306Y-72731103D01*
X193996654Y-72775497D01*
X193962958Y-72830673D01*
X193927564Y-72933464D01*
X193916331Y-73072797D01*
X193937201Y-73227883D01*
X193941307Y-73246711D01*
X193947184Y-73302262D01*
X193936591Y-73353442D01*
X193906317Y-73420241D01*
X193905611Y-73421632D01*
X193805120Y-73591180D01*
X193694037Y-73726882D01*
X193574892Y-73826618D01*
X193450216Y-73888264D01*
X193322537Y-73909702D01*
X193317484Y-73909683D01*
X193258429Y-73906849D01*
X193172413Y-73900007D01*
X193069312Y-73890238D01*
X192959005Y-73878623D01*
X192851370Y-73866245D01*
X192756284Y-73854184D01*
X192683625Y-73843522D01*
X192643272Y-73835341D01*
X192633775Y-73829680D01*
X192606335Y-73792570D01*
X192582756Y-73735565D01*
X192579411Y-73724266D01*
X192567026Y-73671956D01*
X192570759Y-73643394D01*
X192591722Y-73624841D01*
X192701347Y-73555188D01*
X192849162Y-73450294D01*
X192981323Y-73343685D01*
X193092189Y-73240340D01*
X193176119Y-73145243D01*
X193227474Y-73063374D01*
X193237597Y-73040482D01*
X193254031Y-72992012D01*
X193251915Y-72953678D01*
X193231811Y-72905025D01*
X193179641Y-72829760D01*
X193096704Y-72775260D01*
X192992445Y-72756583D01*
X192966842Y-72757590D01*
X192887225Y-72779619D01*
X192824360Y-72834118D01*
X192771961Y-72925917D01*
X192700034Y-73056142D01*
X192609687Y-73161922D01*
X192508508Y-73232467D01*
X192395766Y-73270984D01*
X192270394Y-73277984D01*
X192153399Y-73248081D01*
X192051450Y-73183107D01*
X191971216Y-73084894D01*
X191956039Y-73055565D01*
X191922274Y-72943429D01*
X191911865Y-72816829D01*
X191925102Y-72691861D01*
X191962271Y-72584621D01*
X192011177Y-72507153D01*
X192080890Y-72432455D01*
X192169199Y-72371004D01*
X192280007Y-72321444D01*
X192417220Y-72282420D01*
X192584742Y-72252574D01*
X192786478Y-72230550D01*
X193026333Y-72214992D01*
X193123798Y-72210027D01*
X193274562Y-72201047D01*
X193391951Y-72191453D01*
X193481773Y-72180209D01*
X193549835Y-72166276D01*
X193601945Y-72148618D01*
X193643910Y-72126198D01*
X193681538Y-72097978D01*
X193706194Y-72073014D01*
X193738818Y-72004265D01*
X193736290Y-71928393D01*
X193701184Y-71852316D01*
X193636076Y-71782949D01*
X193543538Y-71727209D01*
X193452900Y-71687116D01*
X193524590Y-71580585D01*
X193535847Y-71563458D01*
X193592924Y-71452695D01*
X193613448Y-71352691D01*
X193598902Y-71256988D01*
X193598126Y-71254662D01*
X193542380Y-71151692D01*
X193455680Y-71074903D01*
X193342194Y-71026912D01*
X193206087Y-71010333D01*
X194338167Y-71010333D01*
X194349448Y-71089708D01*
X194353681Y-71121734D01*
X194362747Y-71194720D01*
X194374768Y-71294376D01*
X194388689Y-71411921D01*
X194403452Y-71538574D01*
X194415715Y-71643097D01*
X194428570Y-71749103D01*
X194439247Y-71833278D01*
X194446886Y-71888876D01*
X194450630Y-71909154D01*
X194457374Y-71911393D01*
X194493830Y-71924136D01*
X194550333Y-71944163D01*
X194577845Y-71954063D01*
X194641701Y-71977763D01*
X194685793Y-71995105D01*
X194701227Y-72000891D01*
X194718343Y-71996733D01*
X194714129Y-71961022D01*
X194712812Y-71954313D01*
X194705862Y-71907184D01*
X194704854Y-71899333D01*
X194929415Y-71899333D01*
X194940595Y-71968125D01*
X194944032Y-71991612D01*
X194944683Y-71996733D01*
X194952712Y-72059955D01*
X194963176Y-72150008D01*
X194973858Y-72248583D01*
X194979470Y-72301369D01*
X194990433Y-72399685D01*
X195000429Y-72483749D01*
X195007831Y-72539625D01*
X195019721Y-72619000D01*
X196955729Y-72619000D01*
X196982387Y-72359708D01*
X196992774Y-72259660D01*
X197004140Y-72152221D01*
X197013966Y-72061371D01*
X197020887Y-71999875D01*
X197032730Y-71899333D01*
X194929415Y-71899333D01*
X194704854Y-71899333D01*
X194695584Y-71827147D01*
X194682835Y-71721255D01*
X194668469Y-71596562D01*
X194653344Y-71460125D01*
X194604433Y-71010333D01*
X194338167Y-71010333D01*
X193206087Y-71010333D01*
X193187070Y-71010622D01*
X193061479Y-71030654D01*
X192955114Y-71084161D01*
X192864026Y-71173881D01*
X192784264Y-71302550D01*
X192748864Y-71372517D01*
X192649474Y-71296709D01*
X192611263Y-71268900D01*
X192527012Y-71213297D01*
X192449257Y-71168033D01*
X192348431Y-71115165D01*
X192383105Y-71048113D01*
X192390896Y-71032477D01*
X192425731Y-70951175D01*
X192460033Y-70856072D01*
X192489661Y-70760300D01*
X192510475Y-70676990D01*
X192518333Y-70619276D01*
X192515832Y-70577629D01*
X192503135Y-70543777D01*
X192473799Y-70521851D01*
X192421409Y-70509322D01*
X192339551Y-70503659D01*
X192221812Y-70502333D01*
X192100573Y-70503967D01*
X192009934Y-70510587D01*
X191951175Y-70524406D01*
X191919000Y-70547637D01*
X191908112Y-70582490D01*
X191913215Y-70631176D01*
X191920687Y-70676284D01*
X191930841Y-70755709D01*
X191939381Y-70841000D01*
X191951014Y-70978583D01*
X191552049Y-70978583D01*
X191450655Y-70979079D01*
X191278325Y-70983372D01*
X191138835Y-70992912D01*
X191025984Y-71008711D01*
X190933571Y-71031782D01*
X190855395Y-71063136D01*
X190785256Y-71103787D01*
X190752100Y-71128396D01*
X190665465Y-71209286D01*
X190570122Y-71316648D01*
X190471598Y-71442430D01*
X190375422Y-71578582D01*
X190287120Y-71717053D01*
X190212219Y-71849793D01*
X190156248Y-71968749D01*
X190124734Y-72065872D01*
X190118862Y-72101110D01*
X190110909Y-72209517D01*
X189079282Y-72209517D01*
X189145508Y-71857103D01*
X189264292Y-71434142D01*
X189420968Y-71021522D01*
X189615535Y-70622089D01*
X189847994Y-70238687D01*
X189876659Y-70198743D01*
X195576917Y-70198743D01*
X195577159Y-70247745D01*
X195580331Y-70319430D01*
X195589892Y-70368688D01*
X195609208Y-70408723D01*
X195641644Y-70452743D01*
X195658117Y-70471748D01*
X195726589Y-70533635D01*
X195799587Y-70581708D01*
X195868789Y-70608476D01*
X195992204Y-70628457D01*
X196119957Y-70622206D01*
X196234265Y-70589410D01*
X196317706Y-70538485D01*
X196408850Y-70444646D01*
X196474772Y-70329054D01*
X196510196Y-70201612D01*
X196509844Y-70072222D01*
X196509474Y-70070017D01*
X196494125Y-70014945D01*
X196464372Y-69933232D01*
X196424349Y-69835541D01*
X196378187Y-69732535D01*
X196314116Y-69590444D01*
X196226847Y-69374107D01*
X196160266Y-69176897D01*
X196116962Y-69006007D01*
X196101416Y-68929591D01*
X196086333Y-68865312D01*
X196073443Y-68828908D01*
X196059850Y-68812697D01*
X196042658Y-68809000D01*
X196031380Y-68814499D01*
X196009826Y-68854899D01*
X195990395Y-68930708D01*
X195953443Y-69088678D01*
X195888738Y-69299599D01*
X195805648Y-69522714D01*
X195708209Y-69746358D01*
X195687527Y-69790501D01*
X195642143Y-69889377D01*
X195611246Y-69963143D01*
X195592056Y-70021381D01*
X195581791Y-70073673D01*
X195577672Y-70129600D01*
X195576917Y-70198743D01*
X189876659Y-70198743D01*
X190051326Y-69955350D01*
X190344056Y-69606828D01*
X190662011Y-69291803D01*
X191006665Y-69008976D01*
X191379488Y-68757050D01*
X191781954Y-68534728D01*
X191984828Y-68438588D01*
X192370831Y-68283534D01*
X192758536Y-68165690D01*
X193154758Y-68083476D01*
X193566308Y-68035307D01*
X194000000Y-68019603D01*
X194303301Y-68026909D01*
X194703391Y-68062279D01*
X195086360Y-68128752D01*
X195460642Y-68228287D01*
X195834671Y-68362843D01*
X196216881Y-68534378D01*
X196507735Y-68688840D01*
X196865307Y-68916392D01*
X197202559Y-69176864D01*
X197525457Y-69474543D01*
X197744280Y-69706512D01*
X198016397Y-70041527D01*
X198123962Y-70201612D01*
X198254634Y-70396087D01*
G36*
X198254634Y-70396087D02*
G01*
X198463316Y-70776199D01*
X198568416Y-71000053D01*
X198578802Y-71026208D01*
X198721359Y-71385234D01*
X198837292Y-71770354D01*
X198917953Y-72162877D01*
X198965076Y-72570270D01*
X198980397Y-73000000D01*
X198976097Y-73231247D01*
X198943676Y-73651213D01*
X198878099Y-74052793D01*
X198777721Y-74443071D01*
X198640901Y-74829127D01*
X198492550Y-75159000D01*
X198465996Y-75218046D01*
X198381678Y-75380766D01*
X198147772Y-75769419D01*
X197882166Y-76131717D01*
X197586934Y-76466251D01*
X197264152Y-76771612D01*
X196915897Y-77046390D01*
X196544244Y-77289175D01*
X196151269Y-77498558D01*
X195739047Y-77673130D01*
X195309655Y-77811480D01*
X194865168Y-77912200D01*
X194407662Y-77973879D01*
X194389016Y-77975418D01*
X194282290Y-77981126D01*
X194151386Y-77984455D01*
X194011163Y-77985152D01*
X193876480Y-77982962D01*
X193814857Y-77980858D01*
X193388191Y-77948276D01*
X192982349Y-77883579D01*
X192589279Y-77784798D01*
X192200930Y-77649962D01*
X191809250Y-77477100D01*
X191488275Y-77306969D01*
X191107153Y-77063387D01*
X190753180Y-76787569D01*
X190425739Y-76478977D01*
X190124216Y-76137071D01*
X189847994Y-75761313D01*
X189781584Y-75659675D01*
X189559342Y-75271670D01*
X189374992Y-74868401D01*
X189228533Y-74452713D01*
X189119966Y-74027451D01*
X189049291Y-73595459D01*
X189016508Y-73159583D01*
X189021616Y-72722669D01*
X189064616Y-72287560D01*
X189079282Y-72209517D01*
X190110909Y-72209517D01*
X190111232Y-72340150D01*
X190119204Y-72479502D01*
X190134197Y-72614068D01*
X190155584Y-72730342D01*
X190157506Y-72738264D01*
X190184768Y-72823841D01*
X190225130Y-72904146D01*
X190283884Y-72986712D01*
X190366323Y-73079069D01*
X190477739Y-73188747D01*
X190652192Y-73353881D01*
X190640419Y-73483722D01*
X190638234Y-73515985D01*
X190649509Y-73654948D01*
X190697211Y-73773861D01*
X190782405Y-73875662D01*
X190870887Y-73938834D01*
X190995717Y-73984331D01*
X191131190Y-73991343D01*
X191273206Y-73959781D01*
X191417667Y-73889556D01*
X191443784Y-73874026D01*
X191493072Y-73850711D01*
X191548190Y-73835628D01*
X191621304Y-73825980D01*
X191724583Y-73818967D01*
X191771310Y-73815977D01*
X191878727Y-73806202D01*
X191977131Y-73793735D01*
X192049871Y-73780542D01*
X192099641Y-73769365D01*
X192145354Y-73763663D01*
X192172024Y-73771233D01*
X192192477Y-73793216D01*
X192216550Y-73841087D01*
X192234563Y-73902692D01*
X192237721Y-73951630D01*
X192222154Y-74000122D01*
X192181916Y-74061935D01*
X192158238Y-74096062D01*
X192127995Y-74147553D01*
X192116167Y-74179971D01*
X192118646Y-74202492D01*
X192141894Y-74255967D01*
X192192240Y-74319416D01*
X192272897Y-74396528D01*
X192387077Y-74490990D01*
X192598321Y-74657997D01*
X192624113Y-74817884D01*
X192625563Y-74826775D01*
X192640619Y-74910383D01*
X192655662Y-74981094D01*
X192667639Y-75024412D01*
X192674576Y-75058323D01*
X192654836Y-75096397D01*
X192637433Y-75119471D01*
X192610872Y-75177564D01*
X192586102Y-75252308D01*
X192567806Y-75328966D01*
X192560667Y-75392798D01*
X192560391Y-75405613D01*
X192552258Y-75435654D01*
X192524396Y-75451901D01*
X192465548Y-75462617D01*
X192431406Y-75469149D01*
X192346861Y-75494501D01*
X192266552Y-75528292D01*
X192194558Y-75571970D01*
X192107089Y-75656501D01*
X192056007Y-75753351D01*
X192040868Y-75857528D01*
X192061226Y-75964042D01*
X192116635Y-76067904D01*
X192206649Y-76164122D01*
X192330822Y-76247708D01*
X192383136Y-76275759D01*
X192428858Y-76300322D01*
X192447821Y-76310578D01*
X192459410Y-76332747D01*
X192466465Y-76373109D01*
X192466755Y-76411749D01*
X192458506Y-76429000D01*
X192426431Y-76435884D01*
X192376836Y-76453477D01*
X192329439Y-76465725D01*
X192253719Y-76476062D01*
X192169083Y-76481262D01*
X192043153Y-76492266D01*
X191889166Y-76530045D01*
X191755309Y-76591307D01*
X191648216Y-76672816D01*
X191574519Y-76771336D01*
X191569650Y-76781493D01*
X191554080Y-76864053D01*
X191574406Y-76948343D01*
X191626003Y-77026988D01*
X191704244Y-77092617D01*
X191804501Y-77137855D01*
X191808224Y-77138931D01*
X191885952Y-77154394D01*
X191984318Y-77165120D01*
X192082967Y-77168843D01*
X192180650Y-77164499D01*
X192317299Y-77139421D01*
X192441978Y-77087375D01*
X192570364Y-77003026D01*
X192629646Y-76959689D01*
X192665750Y-76938797D01*
X192684462Y-76938977D01*
X192693583Y-76957337D01*
X192696897Y-76966703D01*
X192736203Y-77009181D01*
X192807327Y-77043434D01*
X192901896Y-77067815D01*
X193011536Y-77080679D01*
X193127876Y-77080378D01*
X193242542Y-77065268D01*
X193306124Y-77047147D01*
X193394537Y-76998290D01*
X193450986Y-76931131D01*
X193470833Y-76850041D01*
X193463915Y-76786981D01*
X193432807Y-76676335D01*
X193379577Y-76545237D01*
X193307398Y-76400475D01*
X193219446Y-76248841D01*
X193118893Y-76097124D01*
X193110143Y-76084729D01*
X193067597Y-76023490D01*
X193037658Y-75978778D01*
X193026346Y-75959540D01*
X193032270Y-75958246D01*
X193071979Y-75956070D01*
X193142864Y-75954327D01*
X193237669Y-75953170D01*
X193349137Y-75952750D01*
X193387436Y-75952727D01*
X193502858Y-75951967D01*
X193587135Y-75949309D01*
X193649045Y-75943652D01*
X193697363Y-75933897D01*
X193740867Y-75918942D01*
X193788333Y-75897687D01*
X193838876Y-75871473D01*
X193908673Y-75828303D01*
X193957667Y-75789621D01*
X193990037Y-75762610D01*
X194030693Y-75744441D01*
X194090047Y-75733103D01*
X194179917Y-75725170D01*
X194282367Y-75713385D01*
X194391850Y-75692968D01*
X194482948Y-75668496D01*
X194616645Y-75623269D01*
X194684031Y-75680154D01*
X194756914Y-75731938D01*
X194879118Y-75796250D01*
X195020905Y-75852262D01*
X195169458Y-75894321D01*
X195234662Y-75909334D01*
X195290624Y-75925167D01*
X195320103Y-75941238D01*
X195331579Y-75962747D01*
X195333533Y-75994891D01*
X195340667Y-76058275D01*
X195381604Y-76154526D01*
X195452562Y-76231843D01*
X195546286Y-76283307D01*
X195655522Y-76302000D01*
X195700198Y-76300733D01*
X195778228Y-76286960D01*
X195846186Y-76252249D01*
X195920875Y-76189474D01*
X195932462Y-76178060D01*
X195979327Y-76111290D01*
X195984281Y-76050321D01*
X195947333Y-75995083D01*
X195918988Y-75966155D01*
X195905050Y-75944178D01*
X195918815Y-75931094D01*
X195961164Y-75904141D01*
X196022125Y-75870436D01*
X196121281Y-75808180D01*
X196243113Y-75704583D01*
X196348995Y-75585182D01*
X196426294Y-75462718D01*
X196428050Y-75459132D01*
X196458804Y-75389790D01*
X196476636Y-75327632D01*
X196484818Y-75256192D01*
X196486619Y-75159000D01*
X196478089Y-75022419D01*
X196450249Y-74913789D01*
X196398803Y-74823241D01*
X196319450Y-74739998D01*
X196231524Y-74682038D01*
X196127722Y-74657597D01*
X196010405Y-74672282D01*
X196002789Y-74674498D01*
X195917667Y-74716987D01*
X195825428Y-74789749D01*
X195734043Y-74884607D01*
X195651486Y-74993382D01*
X195585729Y-75107897D01*
X195514528Y-75257143D01*
X195238806Y-75176583D01*
X195219760Y-75170982D01*
X195113904Y-75138544D01*
X195020090Y-75107737D01*
X194947897Y-75081810D01*
X194906901Y-75064012D01*
X194841013Y-75041263D01*
X194729851Y-75034077D01*
X194584506Y-75048653D01*
X194406110Y-75084944D01*
X194336066Y-75101713D01*
X194255697Y-75120382D01*
X194197864Y-75133121D01*
X194171851Y-75137833D01*
X194162290Y-75128148D01*
X194142704Y-75087785D01*
X194120733Y-75026708D01*
X194098785Y-74966440D01*
X194029573Y-74824824D01*
X193927848Y-74659813D01*
X193792981Y-74470340D01*
X193754651Y-74418485D01*
X194213613Y-74418485D01*
X194279304Y-74524159D01*
X194310236Y-74570005D01*
X194345455Y-74612502D01*
X194368289Y-74628301D01*
X194402110Y-74623714D01*
X194479340Y-74606676D01*
X194573551Y-74581224D01*
X194670913Y-74551437D01*
X194757597Y-74521393D01*
X194819772Y-74495170D01*
X194852945Y-74479075D01*
X194901173Y-74461025D01*
X194952328Y-74452199D01*
X195019483Y-74450829D01*
X195115714Y-74455147D01*
X195189567Y-74458837D01*
X195262796Y-74459216D01*
X195317643Y-74452443D01*
X195367798Y-74436506D01*
X195426951Y-74409391D01*
X195456674Y-74394079D01*
X195554563Y-74327259D01*
X195633560Y-74239984D01*
X195704167Y-74121340D01*
X195754988Y-74021049D01*
X195893435Y-74012233D01*
X195923030Y-74010070D01*
X196006576Y-73998083D01*
X196054366Y-73977121D01*
X196071376Y-73943715D01*
X196062583Y-73894400D01*
X196054437Y-73876000D01*
X196002126Y-73818806D01*
X195918114Y-73773850D01*
X195810048Y-73744390D01*
X195685574Y-73733686D01*
X195518033Y-73747252D01*
X195341857Y-73794909D01*
X195166388Y-73879016D01*
X194985817Y-74001800D01*
X194966554Y-74001285D01*
X194922118Y-73974357D01*
X194860898Y-73921207D01*
X194829906Y-73892184D01*
X194777358Y-73850136D01*
X194735212Y-73831348D01*
X194691947Y-73829573D01*
X194650226Y-73838673D01*
X194615583Y-73864494D01*
X194598600Y-73910882D01*
X194598754Y-73982539D01*
X194615520Y-74084163D01*
X194648375Y-74220455D01*
X194649205Y-74223799D01*
X194648390Y-74253911D01*
X194623769Y-74278831D01*
X194567036Y-74307446D01*
X194484617Y-74341312D01*
X194270848Y-74405841D01*
X194213613Y-74418485D01*
X193754651Y-74418485D01*
X193748118Y-74409646D01*
X193702625Y-74345663D01*
X193673053Y-74301000D01*
X193664306Y-74282805D01*
X193675939Y-74274619D01*
X193714642Y-74248135D01*
X193769529Y-74210929D01*
X193881331Y-74123302D01*
X194013593Y-73993473D01*
X194147132Y-73837369D01*
X194232849Y-73720683D01*
X196324326Y-73720683D01*
X196400413Y-73804903D01*
X196428782Y-73838601D01*
X196463105Y-73888082D01*
X196476500Y-73920811D01*
X196477045Y-73924970D01*
X196486541Y-73935119D01*
X196511939Y-73942488D01*
X196523361Y-73943715D01*
X196558526Y-73947493D01*
X196631586Y-73950553D01*
X196736403Y-73952082D01*
X196878264Y-73952500D01*
X196953506Y-73952482D01*
X197073883Y-73952091D01*
X197160576Y-73950672D01*
X197219337Y-73947560D01*
X197255916Y-73942089D01*
X197276065Y-73933595D01*
X197285535Y-73921412D01*
X197290078Y-73904875D01*
X197293057Y-73883637D01*
X197300493Y-73823660D01*
X197311755Y-73729700D01*
X197326358Y-73605982D01*
X197343820Y-73456730D01*
X197363655Y-73286168D01*
X197385381Y-73098519D01*
X197408514Y-72898009D01*
X197432570Y-72688860D01*
X197457065Y-72475298D01*
X197481516Y-72261546D01*
X197505438Y-72051828D01*
X197528348Y-71850369D01*
X197549763Y-71661392D01*
X197569198Y-71489121D01*
X197586169Y-71337781D01*
X197600194Y-71211596D01*
X197610788Y-71114789D01*
X197617467Y-71051585D01*
X197619749Y-71026208D01*
X197601560Y-71019758D01*
X197554846Y-71014305D01*
X197493690Y-71010582D01*
X197432184Y-71009171D01*
X197384421Y-71010657D01*
X197364493Y-71015625D01*
X197364251Y-71017579D01*
X197360473Y-71050274D01*
X197352444Y-71120486D01*
X197340566Y-71224673D01*
X197325243Y-71359295D01*
X197306877Y-71520811D01*
X197285870Y-71705681D01*
X197263878Y-71899333D01*
X197262626Y-71910362D01*
X197237546Y-72131316D01*
X197211035Y-72365000D01*
X197163018Y-72788333D01*
X197058583Y-73709083D01*
X196691455Y-73714883D01*
X196324326Y-73720683D01*
X194232849Y-73720683D01*
X194275683Y-73662374D01*
X194392984Y-73475873D01*
X194401590Y-73462011D01*
X194419285Y-73448128D01*
X194449141Y-73451729D01*
X194504538Y-73472395D01*
X194573631Y-73494528D01*
X194665648Y-73504425D01*
X194738733Y-73488042D01*
X194786943Y-73447142D01*
X194804333Y-73383489D01*
X194801236Y-73356340D01*
X194775367Y-73305068D01*
X194719120Y-73251709D01*
X194627528Y-73190850D01*
X194605737Y-73176868D01*
X194523561Y-73099300D01*
X194476993Y-73007326D01*
X194468179Y-72907387D01*
X194496549Y-72814792D01*
X195038359Y-72814792D01*
X195039091Y-72823962D01*
X195043769Y-72870477D01*
X195051983Y-72947162D01*
X195062860Y-73045944D01*
X195075526Y-73158750D01*
X195111501Y-73476250D01*
X195984500Y-73481776D01*
X196099109Y-73482444D01*
X196303027Y-73483224D01*
X196469395Y-73483156D01*
X196601418Y-73482164D01*
X196702303Y-73480169D01*
X196775255Y-73477093D01*
X196823480Y-73472860D01*
X196850184Y-73467391D01*
X196858573Y-73460610D01*
X196859393Y-73450319D01*
X196864255Y-73402475D01*
X196872695Y-73324664D01*
X196883839Y-73224881D01*
X196896811Y-73111125D01*
X196933975Y-72788333D01*
X195985571Y-72788333D01*
X195802058Y-72788470D01*
X195598176Y-72789102D01*
X195431297Y-72790325D01*
X195298410Y-72792223D01*
X195196499Y-72794881D01*
X195122552Y-72798383D01*
X195073556Y-72802812D01*
X195046496Y-72808254D01*
X195038359Y-72814792D01*
X194496549Y-72814792D01*
X194499266Y-72805923D01*
X194516829Y-72774748D01*
X194558243Y-72708849D01*
X194605100Y-72640405D01*
X194613291Y-72628812D01*
X194663397Y-72539980D01*
X194677246Y-72464362D01*
X194654583Y-72393811D01*
X194595157Y-72320176D01*
X194585277Y-72310562D01*
X194508432Y-72254511D01*
X194441007Y-72237140D01*
X194387195Y-72257093D01*
X194351189Y-72313016D01*
X194337179Y-72403553D01*
X194334557Y-72465157D01*
X194322585Y-72524351D01*
X194294112Y-72569214D01*
X194241743Y-72610251D01*
X194158082Y-72657969D01*
X194105314Y-72687399D01*
X194040306Y-72731103D01*
X193996654Y-72775497D01*
X193962958Y-72830673D01*
X193927564Y-72933464D01*
X193916331Y-73072797D01*
X193937201Y-73227883D01*
X193941307Y-73246711D01*
X193947184Y-73302262D01*
X193936591Y-73353442D01*
X193906317Y-73420241D01*
X193905611Y-73421632D01*
X193805120Y-73591180D01*
X193694037Y-73726882D01*
X193574892Y-73826618D01*
X193450216Y-73888264D01*
X193322537Y-73909702D01*
X193317484Y-73909683D01*
X193258429Y-73906849D01*
X193172413Y-73900007D01*
X193069312Y-73890238D01*
X192959005Y-73878623D01*
X192851370Y-73866245D01*
X192756284Y-73854184D01*
X192683625Y-73843522D01*
X192643272Y-73835341D01*
X192633775Y-73829680D01*
X192606335Y-73792570D01*
X192582756Y-73735565D01*
X192579411Y-73724266D01*
X192567026Y-73671956D01*
X192570759Y-73643394D01*
X192591722Y-73624841D01*
X192701347Y-73555188D01*
X192849162Y-73450294D01*
X192981323Y-73343685D01*
X193092189Y-73240340D01*
X193176119Y-73145243D01*
X193227474Y-73063374D01*
X193237597Y-73040482D01*
X193254031Y-72992012D01*
X193251915Y-72953678D01*
X193231811Y-72905025D01*
X193179641Y-72829760D01*
X193096704Y-72775260D01*
X192992445Y-72756583D01*
X192966842Y-72757590D01*
X192887225Y-72779619D01*
X192824360Y-72834118D01*
X192771961Y-72925917D01*
X192700034Y-73056142D01*
X192609687Y-73161922D01*
X192508508Y-73232467D01*
X192395766Y-73270984D01*
X192270394Y-73277984D01*
X192153399Y-73248081D01*
X192051450Y-73183107D01*
X191971216Y-73084894D01*
X191956039Y-73055565D01*
X191922274Y-72943429D01*
X191911865Y-72816829D01*
X191925102Y-72691861D01*
X191962271Y-72584621D01*
X192011177Y-72507153D01*
X192080890Y-72432455D01*
X192169199Y-72371004D01*
X192280007Y-72321444D01*
X192417220Y-72282420D01*
X192584742Y-72252574D01*
X192786478Y-72230550D01*
X193026333Y-72214992D01*
X193123798Y-72210027D01*
X193274562Y-72201047D01*
X193391951Y-72191453D01*
X193481773Y-72180209D01*
X193549835Y-72166276D01*
X193601945Y-72148618D01*
X193643910Y-72126198D01*
X193681538Y-72097978D01*
X193706194Y-72073014D01*
X193738818Y-72004265D01*
X193736290Y-71928393D01*
X193701184Y-71852316D01*
X193636076Y-71782949D01*
X193543538Y-71727209D01*
X193452900Y-71687116D01*
X193524590Y-71580585D01*
X193535847Y-71563458D01*
X193592924Y-71452695D01*
X193613448Y-71352691D01*
X193598902Y-71256988D01*
X193598126Y-71254662D01*
X193542380Y-71151692D01*
X193455680Y-71074903D01*
X193342194Y-71026912D01*
X193206087Y-71010333D01*
X194338167Y-71010333D01*
X194349448Y-71089708D01*
X194353681Y-71121734D01*
X194362747Y-71194720D01*
X194374768Y-71294376D01*
X194388689Y-71411921D01*
X194403452Y-71538574D01*
X194415715Y-71643097D01*
X194428570Y-71749103D01*
X194439247Y-71833278D01*
X194446886Y-71888876D01*
X194450630Y-71909154D01*
X194457374Y-71911393D01*
X194493830Y-71924136D01*
X194550333Y-71944163D01*
X194577845Y-71954063D01*
X194641701Y-71977763D01*
X194685793Y-71995105D01*
X194701227Y-72000891D01*
X194718343Y-71996733D01*
X194714129Y-71961022D01*
X194712812Y-71954313D01*
X194705862Y-71907184D01*
X194704854Y-71899333D01*
X194929415Y-71899333D01*
X194940595Y-71968125D01*
X194944032Y-71991612D01*
X194944683Y-71996733D01*
X194952712Y-72059955D01*
X194963176Y-72150008D01*
X194973858Y-72248583D01*
X194979470Y-72301369D01*
X194990433Y-72399685D01*
X195000429Y-72483749D01*
X195007831Y-72539625D01*
X195019721Y-72619000D01*
X196955729Y-72619000D01*
X196982387Y-72359708D01*
X196992774Y-72259660D01*
X197004140Y-72152221D01*
X197013966Y-72061371D01*
X197020887Y-71999875D01*
X197032730Y-71899333D01*
X194929415Y-71899333D01*
X194704854Y-71899333D01*
X194695584Y-71827147D01*
X194682835Y-71721255D01*
X194668469Y-71596562D01*
X194653344Y-71460125D01*
X194604433Y-71010333D01*
X194338167Y-71010333D01*
X193206087Y-71010333D01*
X193187070Y-71010622D01*
X193061479Y-71030654D01*
X192955114Y-71084161D01*
X192864026Y-71173881D01*
X192784264Y-71302550D01*
X192748864Y-71372517D01*
X192649474Y-71296709D01*
X192611263Y-71268900D01*
X192527012Y-71213297D01*
X192449257Y-71168033D01*
X192348431Y-71115165D01*
X192383105Y-71048113D01*
X192390896Y-71032477D01*
X192425731Y-70951175D01*
X192460033Y-70856072D01*
X192489661Y-70760300D01*
X192510475Y-70676990D01*
X192518333Y-70619276D01*
X192515832Y-70577629D01*
X192503135Y-70543777D01*
X192473799Y-70521851D01*
X192421409Y-70509322D01*
X192339551Y-70503659D01*
X192221812Y-70502333D01*
X192100573Y-70503967D01*
X192009934Y-70510587D01*
X191951175Y-70524406D01*
X191919000Y-70547637D01*
X191908112Y-70582490D01*
X191913215Y-70631176D01*
X191920687Y-70676284D01*
X191930841Y-70755709D01*
X191939381Y-70841000D01*
X191951014Y-70978583D01*
X191552049Y-70978583D01*
X191450655Y-70979079D01*
X191278325Y-70983372D01*
X191138835Y-70992912D01*
X191025984Y-71008711D01*
X190933571Y-71031782D01*
X190855395Y-71063136D01*
X190785256Y-71103787D01*
X190752100Y-71128396D01*
X190665465Y-71209286D01*
X190570122Y-71316648D01*
X190471598Y-71442430D01*
X190375422Y-71578582D01*
X190287120Y-71717053D01*
X190212219Y-71849793D01*
X190156248Y-71968749D01*
X190124734Y-72065872D01*
X190118862Y-72101110D01*
X190110909Y-72209517D01*
X189079282Y-72209517D01*
X189145508Y-71857103D01*
X189264292Y-71434142D01*
X189420968Y-71021522D01*
X189615535Y-70622089D01*
X189847994Y-70238687D01*
X189876659Y-70198743D01*
X195576917Y-70198743D01*
X195577159Y-70247745D01*
X195580331Y-70319430D01*
X195589892Y-70368688D01*
X195609208Y-70408723D01*
X195641644Y-70452743D01*
X195658117Y-70471748D01*
X195726589Y-70533635D01*
X195799587Y-70581708D01*
X195868789Y-70608476D01*
X195992204Y-70628457D01*
X196119957Y-70622206D01*
X196234265Y-70589410D01*
X196317706Y-70538485D01*
X196408850Y-70444646D01*
X196474772Y-70329054D01*
X196510196Y-70201612D01*
X196509844Y-70072222D01*
X196509474Y-70070017D01*
X196494125Y-70014945D01*
X196464372Y-69933232D01*
X196424349Y-69835541D01*
X196378187Y-69732535D01*
X196314116Y-69590444D01*
X196226847Y-69374107D01*
X196160266Y-69176897D01*
X196116962Y-69006007D01*
X196101416Y-68929591D01*
X196086333Y-68865312D01*
X196073443Y-68828908D01*
X196059850Y-68812697D01*
X196042658Y-68809000D01*
X196031380Y-68814499D01*
X196009826Y-68854899D01*
X195990395Y-68930708D01*
X195953443Y-69088678D01*
X195888738Y-69299599D01*
X195805648Y-69522714D01*
X195708209Y-69746358D01*
X195687527Y-69790501D01*
X195642143Y-69889377D01*
X195611246Y-69963143D01*
X195592056Y-70021381D01*
X195581791Y-70073673D01*
X195577672Y-70129600D01*
X195576917Y-70198743D01*
X189876659Y-70198743D01*
X190051326Y-69955350D01*
X190344056Y-69606828D01*
X190662011Y-69291803D01*
X191006665Y-69008976D01*
X191379488Y-68757050D01*
X191781954Y-68534728D01*
X191984828Y-68438588D01*
X192370831Y-68283534D01*
X192758536Y-68165690D01*
X193154758Y-68083476D01*
X193566308Y-68035307D01*
X194000000Y-68019603D01*
X194303301Y-68026909D01*
X194703391Y-68062279D01*
X195086360Y-68128752D01*
X195460642Y-68228287D01*
X195834671Y-68362843D01*
X196216881Y-68534378D01*
X196507735Y-68688840D01*
X196865307Y-68916392D01*
X197202559Y-69176864D01*
X197525457Y-69474543D01*
X197744280Y-69706512D01*
X198016397Y-70041527D01*
X198123962Y-70201612D01*
X198254634Y-70396087D01*
G37*
X192136830Y-71222027D02*
X192160284Y-71228797D01*
X192168257Y-71255103D01*
X192164472Y-71311958D01*
X192161464Y-71364175D01*
X192172345Y-71409864D01*
X192205132Y-71449216D01*
X192257054Y-71484910D01*
X192320505Y-71509459D01*
X192360763Y-71512942D01*
X192405425Y-71498319D01*
X192459865Y-71456868D01*
X192483683Y-71436494D01*
X192524989Y-71404107D01*
X192546823Y-71391333D01*
X192552711Y-71394741D01*
X192578133Y-71422932D01*
X192612820Y-71470330D01*
X192624694Y-71488746D01*
X192657077Y-71564630D01*
X192666030Y-71655538D01*
X192665292Y-71681566D01*
X192646912Y-71772730D01*
X192599757Y-71838353D01*
X192518333Y-71887042D01*
X192517598Y-71887357D01*
X192424671Y-71914472D01*
X192326067Y-71914973D01*
X192208096Y-71888946D01*
X192163704Y-71874444D01*
X192033301Y-71811157D01*
X191938902Y-71728155D01*
X191881519Y-71626555D01*
X191862167Y-71507474D01*
X191862956Y-71474436D01*
X191875866Y-71397439D01*
X191908054Y-71338706D01*
X191913201Y-71332452D01*
X191977717Y-71277942D01*
X192057969Y-71237698D01*
X192134054Y-71222000D01*
X192136830Y-71222027D01*
G36*
X192136830Y-71222027D02*
G01*
X192160284Y-71228797D01*
X192168257Y-71255103D01*
X192164472Y-71311958D01*
X192161464Y-71364175D01*
X192172345Y-71409864D01*
X192205132Y-71449216D01*
X192257054Y-71484910D01*
X192320505Y-71509459D01*
X192360763Y-71512942D01*
X192405425Y-71498319D01*
X192459865Y-71456868D01*
X192483683Y-71436494D01*
X192524989Y-71404107D01*
X192546823Y-71391333D01*
X192552711Y-71394741D01*
X192578133Y-71422932D01*
X192612820Y-71470330D01*
X192624694Y-71488746D01*
X192657077Y-71564630D01*
X192666030Y-71655538D01*
X192665292Y-71681566D01*
X192646912Y-71772730D01*
X192599757Y-71838353D01*
X192518333Y-71887042D01*
X192517598Y-71887357D01*
X192424671Y-71914472D01*
X192326067Y-71914973D01*
X192208096Y-71888946D01*
X192163704Y-71874444D01*
X192033301Y-71811157D01*
X191938902Y-71728155D01*
X191881519Y-71626555D01*
X191862167Y-71507474D01*
X191862956Y-71474436D01*
X191875866Y-71397439D01*
X191908054Y-71338706D01*
X191913201Y-71332452D01*
X191977717Y-71277942D01*
X192057969Y-71237698D01*
X192134054Y-71222000D01*
X192136830Y-71222027D01*
G37*
X196228238Y-69996758D02*
X196283574Y-70028118D01*
X196317076Y-70095176D01*
X196328333Y-70197272D01*
X196328151Y-70210527D01*
X196310195Y-70311675D01*
X196259541Y-70392940D01*
X196171461Y-70462308D01*
X196167865Y-70464455D01*
X196108059Y-70491192D01*
X196054531Y-70502254D01*
X196016336Y-70493330D01*
X195964657Y-70463723D01*
X195922458Y-70424546D01*
X195905000Y-70387509D01*
X195912950Y-70369125D01*
X195943172Y-70326622D01*
X195988226Y-70273683D01*
X196021188Y-70233652D01*
X196063407Y-70168645D01*
X196085921Y-70114942D01*
X196086753Y-70111105D01*
X196110258Y-70040967D01*
X196146366Y-70004675D01*
X196202725Y-69994333D01*
X196228238Y-69996758D01*
G36*
X196228238Y-69996758D02*
G01*
X196283574Y-70028118D01*
X196317076Y-70095176D01*
X196328333Y-70197272D01*
X196328151Y-70210527D01*
X196310195Y-70311675D01*
X196259541Y-70392940D01*
X196171461Y-70462308D01*
X196167865Y-70464455D01*
X196108059Y-70491192D01*
X196054531Y-70502254D01*
X196016336Y-70493330D01*
X195964657Y-70463723D01*
X195922458Y-70424546D01*
X195905000Y-70387509D01*
X195912950Y-70369125D01*
X195943172Y-70326622D01*
X195988226Y-70273683D01*
X196021188Y-70233652D01*
X196063407Y-70168645D01*
X196085921Y-70114942D01*
X196086753Y-70111105D01*
X196110258Y-70040967D01*
X196146366Y-70004675D01*
X196202725Y-69994333D01*
X196228238Y-69996758D01*
G37*
X199014737Y-58821985D02*
X199013501Y-58922784D01*
X199008763Y-58995197D01*
X198998421Y-59051359D01*
X198980376Y-59103408D01*
X198952528Y-59163480D01*
X198918865Y-59223091D01*
X198855170Y-59314561D01*
X198788694Y-59391822D01*
X198768973Y-59410408D01*
X198695209Y-59468475D01*
X198608686Y-59524704D01*
X198520693Y-59572740D01*
X198442517Y-59606228D01*
X198385445Y-59618816D01*
X198367573Y-59621987D01*
X198350973Y-59638540D01*
X198348685Y-59645262D01*
X198338297Y-59675786D01*
X198327291Y-59740906D01*
X198315701Y-59841083D01*
X198295591Y-60004233D01*
X198248115Y-60294609D01*
X198184613Y-60605321D01*
X198140275Y-60789618D01*
X198107509Y-60925816D01*
X198054256Y-61118678D01*
X198019227Y-61245543D01*
X197922191Y-61553950D01*
X197921660Y-61555530D01*
X197882145Y-61676409D01*
X197848767Y-61784847D01*
X197823479Y-61873963D01*
X197808236Y-61936874D01*
X197804992Y-61966700D01*
X197808206Y-61976656D01*
X197824180Y-62024138D01*
X197848661Y-62095674D01*
X197877805Y-62180000D01*
X197923065Y-62321226D01*
X197967519Y-62499979D01*
X197996870Y-62683041D01*
X198012967Y-62882722D01*
X198017224Y-63090167D01*
X198017658Y-63111333D01*
X198013058Y-63332896D01*
X197999159Y-63525101D01*
X197975861Y-63677957D01*
X197943052Y-63792473D01*
X197922505Y-63827213D01*
X197879865Y-63863502D01*
X197811986Y-63897338D01*
X197713294Y-63931410D01*
X197578215Y-63968404D01*
X197496014Y-63988384D01*
X197482854Y-63990931D01*
X197264367Y-64033218D01*
X197040788Y-64056981D01*
X196805313Y-64062093D01*
X196564377Y-64058785D01*
X196386374Y-64273832D01*
X196163399Y-64529601D01*
X195893951Y-64810949D01*
X195607840Y-65084540D01*
X195316032Y-65339928D01*
X195029492Y-65566667D01*
X194981333Y-65602752D01*
X194907832Y-65659626D01*
X194861153Y-65700158D01*
X194836164Y-65729810D01*
X194827734Y-65754047D01*
X194830734Y-65778333D01*
X194834331Y-65798816D01*
X194839676Y-65861092D01*
X194843261Y-65946526D01*
X194844298Y-66030199D01*
X194844455Y-66042917D01*
X194843816Y-66113436D01*
X194839897Y-66196123D01*
X194830277Y-66258685D01*
X194812531Y-66314587D01*
X194784234Y-66377296D01*
X194755158Y-66431155D01*
X194649431Y-66571996D01*
X194515608Y-66690928D01*
X194362363Y-66781160D01*
X194198375Y-66835900D01*
X194035036Y-66852143D01*
X193861279Y-66832192D01*
X193695723Y-66776816D01*
X193544362Y-66689531D01*
X193413190Y-66573852D01*
X193308204Y-66433291D01*
X193235399Y-66271365D01*
X193221309Y-66204767D01*
X193211855Y-66110995D01*
X193209285Y-66040191D01*
X193566316Y-66040191D01*
X193584529Y-66154941D01*
X193632516Y-66263367D01*
X193711713Y-66359366D01*
X193823557Y-66436834D01*
X193950664Y-66481606D01*
X194082194Y-66486950D01*
X194209398Y-66451486D01*
X194327338Y-66375812D01*
X194337941Y-66366493D01*
X194425050Y-66263460D01*
X194476547Y-66149292D01*
X194494695Y-66030199D01*
X194481758Y-65912390D01*
X194439998Y-65802076D01*
X194371679Y-65705467D01*
X194279065Y-65628771D01*
X194164417Y-65578200D01*
X194030000Y-65559963D01*
X194001804Y-65560694D01*
X193871554Y-65585210D01*
X193762456Y-65640025D01*
X193675946Y-65719034D01*
X193613461Y-65816134D01*
X193576439Y-65925221D01*
X193566316Y-66040191D01*
X193209285Y-66040191D01*
X193208047Y-66006091D01*
X193209987Y-65903313D01*
X193217775Y-65815919D01*
X193231510Y-65757167D01*
X193231766Y-65756499D01*
X193224672Y-65732518D01*
X193189559Y-65693523D01*
X193123810Y-65637024D01*
X193024808Y-65560531D01*
X192954496Y-65507077D01*
X192617411Y-65230752D01*
X192284035Y-64925631D01*
X191965187Y-64602032D01*
X191671685Y-64270271D01*
X191495433Y-64058935D01*
X191244008Y-64061775D01*
X191161219Y-64061427D01*
X190986941Y-64053095D01*
X190813685Y-64035590D01*
X190647353Y-64010229D01*
X190567599Y-63993658D01*
X191936766Y-63993658D01*
X191938042Y-63998505D01*
X191958760Y-64028372D01*
X191999069Y-64078863D01*
X192053183Y-64142577D01*
X192228706Y-64337752D01*
X192547604Y-64663695D01*
X192878065Y-64967645D01*
X193209867Y-65239903D01*
X193441908Y-65418434D01*
X193522605Y-65354521D01*
X193592450Y-65304080D01*
X193710160Y-65243076D01*
X193841077Y-65206789D01*
X193998250Y-65190727D01*
X194067976Y-65188658D01*
X194159677Y-65191323D01*
X194235792Y-65203190D01*
X194312717Y-65226106D01*
X194363506Y-65246373D01*
X194457422Y-65292759D01*
X194537663Y-65342153D01*
X194638642Y-65414700D01*
X194868779Y-65236008D01*
X195113667Y-65036869D01*
X195391098Y-64791496D01*
X195658751Y-64534812D01*
X195901904Y-64280435D01*
X196164993Y-63990931D01*
X195993833Y-63935317D01*
X195932200Y-63914266D01*
X195852804Y-63879919D01*
X195801002Y-63842025D01*
X195767946Y-63793140D01*
X195744786Y-63725821D01*
X195737606Y-63696228D01*
X195718192Y-63586586D01*
X195701965Y-63452592D01*
X195690102Y-63307613D01*
X195683781Y-63165016D01*
X195684160Y-63044467D01*
X195862189Y-63044467D01*
X195864700Y-63252968D01*
X195881031Y-63457805D01*
X195910232Y-63640500D01*
X195913159Y-63652830D01*
X195926709Y-63686244D01*
X195951459Y-63713214D01*
X195993498Y-63736547D01*
X196058917Y-63759046D01*
X196153804Y-63783517D01*
X196284250Y-63812765D01*
X196379139Y-63830072D01*
X196550587Y-63850341D01*
X196738112Y-63862057D01*
X196927428Y-63864794D01*
X197104246Y-63858127D01*
X197254279Y-63841632D01*
X197360666Y-63822454D01*
X197480730Y-63797026D01*
X197590591Y-63770102D01*
X197679696Y-63744289D01*
X197737494Y-63722196D01*
X197757398Y-63700795D01*
X197781327Y-63638210D01*
X197800830Y-63541301D01*
X197815267Y-63414622D01*
X197823998Y-63262726D01*
X197826382Y-63090167D01*
X197825611Y-63028789D01*
X197813982Y-62809093D01*
X197786545Y-62606351D01*
X197740575Y-62408113D01*
X197673342Y-62201934D01*
X197582121Y-61975363D01*
X197498249Y-61781310D01*
X197379270Y-61864656D01*
X197215436Y-61955516D01*
X197034758Y-62011538D01*
X196847210Y-62030508D01*
X196659623Y-62012422D01*
X196478830Y-61957278D01*
X196311661Y-61865074D01*
X196193279Y-61782147D01*
X196128929Y-61922865D01*
X196099531Y-61988479D01*
X196011127Y-62210337D01*
X195946517Y-62422437D01*
X195901342Y-62641003D01*
X195871245Y-62882261D01*
X195862189Y-63044467D01*
X195684160Y-63044467D01*
X195684180Y-63038166D01*
X195684805Y-63020745D01*
X195687316Y-62932881D01*
X195686351Y-62878778D01*
X195680574Y-62851068D01*
X195668652Y-62842384D01*
X195649250Y-62845360D01*
X195610599Y-62852497D01*
X195550050Y-62857044D01*
X195493183Y-62857333D01*
X195486550Y-63381208D01*
X195484348Y-63539788D01*
X195481837Y-63668274D01*
X195478610Y-63765757D01*
X195474170Y-63838006D01*
X195468026Y-63890788D01*
X195459682Y-63929873D01*
X195448644Y-63961030D01*
X195434420Y-63990027D01*
X195414552Y-64024505D01*
X195314010Y-64147593D01*
X195183861Y-64240586D01*
X195170724Y-64247436D01*
X195149593Y-64256857D01*
X195124737Y-64264658D01*
X195092293Y-64271022D01*
X195048403Y-64276132D01*
X194989204Y-64280171D01*
X194910837Y-64283322D01*
X194809441Y-64285768D01*
X194681154Y-64287692D01*
X194522117Y-64289278D01*
X194328468Y-64290708D01*
X194096347Y-64292166D01*
X194004195Y-64292714D01*
X193768739Y-64293864D01*
X193570467Y-64294120D01*
X193405566Y-64293113D01*
X193270225Y-64290477D01*
X193160633Y-64285843D01*
X193072978Y-64278844D01*
X193003450Y-64269112D01*
X192948237Y-64256280D01*
X192903528Y-64239981D01*
X192865512Y-64219847D01*
X192830376Y-64195509D01*
X192794311Y-64166602D01*
X192766155Y-64139963D01*
X192707721Y-64067889D01*
X192662226Y-63991250D01*
X192660809Y-63988200D01*
X192645311Y-63952841D01*
X192633511Y-63918209D01*
X192624903Y-63878153D01*
X192618982Y-63826521D01*
X192615241Y-63757162D01*
X192613175Y-63663925D01*
X192612277Y-63540657D01*
X192612040Y-63381208D01*
X192611718Y-63286641D01*
X192610242Y-63155137D01*
X192607742Y-63042650D01*
X192604404Y-62955008D01*
X192600414Y-62898041D01*
X192595958Y-62877578D01*
X192589631Y-62876865D01*
X192549991Y-62870361D01*
X192491624Y-62859528D01*
X192403165Y-62842399D01*
X192402508Y-63130324D01*
X192400415Y-63245251D01*
X192400241Y-63254845D01*
X192390353Y-63423356D01*
X192373458Y-63572479D01*
X192350455Y-63696512D01*
X192322240Y-63789753D01*
X192289713Y-63846501D01*
X192288836Y-63847415D01*
X192245150Y-63877814D01*
X192175624Y-63911446D01*
X192094896Y-63941197D01*
X192083780Y-63944677D01*
X192012153Y-63967536D01*
X191959580Y-63985047D01*
X191936766Y-63993658D01*
X190567599Y-63993658D01*
X190493847Y-63978334D01*
X190359067Y-63941224D01*
X190248916Y-63900219D01*
X190169295Y-63856638D01*
X190126105Y-63811800D01*
X190101321Y-63746725D01*
X190075797Y-63630952D01*
X190057018Y-63481597D01*
X190045535Y-63303312D01*
X190041899Y-63100750D01*
X190042009Y-63081091D01*
X190223801Y-63081091D01*
X190224408Y-63179156D01*
X190232084Y-63285937D01*
X190247155Y-63417887D01*
X190247291Y-63418968D01*
X190265002Y-63546089D01*
X190281625Y-63635309D01*
X190298154Y-63690977D01*
X190315584Y-63717444D01*
X190321096Y-63720913D01*
X190368781Y-63740241D01*
X190446497Y-63763704D01*
X190544640Y-63788953D01*
X190653605Y-63813639D01*
X190763787Y-63835414D01*
X190865583Y-63851929D01*
X191009215Y-63866038D01*
X191239959Y-63870164D01*
X191482326Y-63855722D01*
X191721195Y-63823789D01*
X191941446Y-63775437D01*
X191983882Y-63763800D01*
X192059865Y-63740376D01*
X192107223Y-63716074D01*
X192134510Y-63682247D01*
X192150283Y-63630247D01*
X192163099Y-63551427D01*
X192194695Y-63245251D01*
X192193788Y-62932813D01*
X192156084Y-62628386D01*
X192080617Y-62324401D01*
X191966417Y-62013289D01*
X191868366Y-61780995D01*
X191749162Y-61864498D01*
X191733212Y-61875381D01*
X191574281Y-61959039D01*
X191399470Y-62012819D01*
X191224126Y-62031833D01*
X191089711Y-62031833D01*
X191121206Y-62121098D01*
X191129856Y-62144002D01*
X191165906Y-62225075D01*
X191206300Y-62301823D01*
X191209905Y-62308062D01*
X191246692Y-62394530D01*
X191246886Y-62460353D01*
X191210480Y-62505221D01*
X191205576Y-62507912D01*
X191151511Y-62513181D01*
X191075398Y-62492702D01*
X190983770Y-62450663D01*
X190883157Y-62391249D01*
X190780091Y-62318647D01*
X190681104Y-62237045D01*
X190592727Y-62150628D01*
X190521491Y-62063583D01*
X190476808Y-62000083D01*
X190420156Y-62127083D01*
X190408576Y-62154002D01*
X190352856Y-62311548D01*
X190303720Y-62496495D01*
X190264103Y-62696476D01*
X190236940Y-62899124D01*
X190229941Y-62975288D01*
X190223801Y-63081091D01*
X190042009Y-63081091D01*
X190042160Y-63054270D01*
X190048099Y-62857901D01*
X190063556Y-62685226D01*
X190090891Y-62521320D01*
X190132464Y-62351261D01*
X190190635Y-62160125D01*
X190265394Y-61930425D01*
X190147760Y-61584254D01*
X190058616Y-61305034D01*
X190049318Y-61272115D01*
X190376386Y-61272115D01*
X190390421Y-61434212D01*
X190424599Y-61599750D01*
X190475865Y-61750433D01*
X190480301Y-61760545D01*
X190544541Y-61879212D01*
X190629862Y-62002633D01*
X190724916Y-62115791D01*
X190818353Y-62203667D01*
X190875256Y-62245416D01*
X190943682Y-62290334D01*
X191012139Y-62331278D01*
X191071875Y-62363281D01*
X191114135Y-62381376D01*
X191130167Y-62380596D01*
X191129080Y-62375727D01*
X191115140Y-62341817D01*
X191090275Y-62290282D01*
X191083880Y-62277028D01*
X191055999Y-62211010D01*
X191023097Y-62124217D01*
X190991005Y-62031833D01*
X190984635Y-62012432D01*
X190967609Y-61957877D01*
X190954528Y-61907592D01*
X190944757Y-61854920D01*
X190937659Y-61793203D01*
X190932599Y-61715785D01*
X190928941Y-61616008D01*
X190926049Y-61487216D01*
X190923287Y-61322750D01*
X190921885Y-61233810D01*
X191002877Y-61233810D01*
X191003428Y-61360839D01*
X191006006Y-61485436D01*
X191010633Y-61599991D01*
X191017326Y-61696888D01*
X191026107Y-61768517D01*
X191026537Y-61770980D01*
X191040606Y-61842405D01*
X191055496Y-61882815D01*
X191077627Y-61902844D01*
X191113420Y-61913125D01*
X191208749Y-61922326D01*
X191350800Y-61909655D01*
X191495962Y-61871081D01*
X191629544Y-61809553D01*
X191749344Y-61721886D01*
X191774126Y-61694535D01*
X192049018Y-61694535D01*
X192118441Y-61836726D01*
X192139680Y-61882073D01*
X192200121Y-62028593D01*
X192258095Y-62191674D01*
X192307544Y-62353476D01*
X192342409Y-62496160D01*
X192354239Y-62550631D01*
X192371199Y-62604099D01*
X192391987Y-62632535D01*
X192422016Y-62646139D01*
X192476577Y-62659243D01*
X192543042Y-62673409D01*
X192611833Y-62686942D01*
X192611833Y-62263457D01*
X192611994Y-62176758D01*
X192613699Y-62035154D01*
X192618261Y-61925582D01*
X192622933Y-61879926D01*
X192961083Y-61879926D01*
X192961083Y-63855907D01*
X193011053Y-63896370D01*
X193012692Y-63897681D01*
X193026464Y-63906990D01*
X193044582Y-63914697D01*
X193070844Y-63920952D01*
X193109050Y-63925906D01*
X193162998Y-63929710D01*
X193236487Y-63932515D01*
X193333315Y-63934472D01*
X193457282Y-63935731D01*
X193612186Y-63936444D01*
X193801826Y-63936761D01*
X194030000Y-63936833D01*
X194061404Y-63936832D01*
X194284448Y-63936737D01*
X194469442Y-63936378D01*
X194620186Y-63935604D01*
X194740477Y-63934264D01*
X194834115Y-63932208D01*
X194904898Y-63929283D01*
X194956625Y-63925341D01*
X194993094Y-63920229D01*
X195018105Y-63913797D01*
X195035457Y-63905895D01*
X195048947Y-63896370D01*
X195098917Y-63855907D01*
X195098917Y-61879926D01*
X195048947Y-61839463D01*
X195047308Y-61838152D01*
X195033536Y-61828843D01*
X195015419Y-61821136D01*
X194989156Y-61814881D01*
X194950951Y-61809927D01*
X194897003Y-61806123D01*
X194823514Y-61803318D01*
X194726685Y-61801361D01*
X194602718Y-61800102D01*
X194447814Y-61799389D01*
X194258174Y-61799072D01*
X194030000Y-61799000D01*
X193998596Y-61799001D01*
X193775552Y-61799096D01*
X193590558Y-61799455D01*
X193439815Y-61800229D01*
X193319524Y-61801569D01*
X193225886Y-61803625D01*
X193155103Y-61806550D01*
X193103376Y-61810492D01*
X193066906Y-61815604D01*
X193041895Y-61822036D01*
X193024544Y-61829938D01*
X193011053Y-61839463D01*
X192961083Y-61879926D01*
X192622933Y-61879926D01*
X192626893Y-61841227D01*
X192640806Y-61775274D01*
X192661213Y-61720909D01*
X192689327Y-61671316D01*
X192726360Y-61619680D01*
X192755548Y-61588556D01*
X192818396Y-61537454D01*
X192889747Y-61491649D01*
X193003417Y-61428800D01*
X193463792Y-61421327D01*
X193521608Y-61420288D01*
X193650327Y-61417203D01*
X193761018Y-61413479D01*
X193847606Y-61409384D01*
X193904014Y-61405184D01*
X193924167Y-61401144D01*
X193923842Y-61399201D01*
X194157000Y-61399201D01*
X194157134Y-61401144D01*
X194157542Y-61407097D01*
X194163322Y-61418421D01*
X194179773Y-61426722D01*
X194212173Y-61432471D01*
X194265797Y-61436139D01*
X194345924Y-61438198D01*
X194457830Y-61439119D01*
X194606792Y-61439373D01*
X194694794Y-61439469D01*
X194824392Y-61440145D01*
X194921983Y-61441982D01*
X194994213Y-61445582D01*
X195047726Y-61451543D01*
X195089168Y-61460469D01*
X195125183Y-61472958D01*
X195162417Y-61489613D01*
X195255114Y-61542965D01*
X195352468Y-61634638D01*
X195425288Y-61756667D01*
X195436948Y-61784422D01*
X195448987Y-61822751D01*
X195457558Y-61868921D01*
X195458586Y-61879926D01*
X195463246Y-61929828D01*
X195466637Y-62012371D01*
X195468316Y-62123449D01*
X195468869Y-62269958D01*
X195469237Y-62372011D01*
X195470888Y-62496975D01*
X195474095Y-62586597D01*
X195479132Y-62645110D01*
X195486273Y-62676745D01*
X195495792Y-62685733D01*
X195504549Y-62684633D01*
X195550456Y-62676350D01*
X195612113Y-62663340D01*
X195661410Y-62649459D01*
X195697815Y-62625560D01*
X195714448Y-62586231D01*
X195719616Y-62562891D01*
X195794135Y-62274190D01*
X195880948Y-62017229D01*
X195978450Y-61796811D01*
X196020851Y-61713699D01*
X195901516Y-61468275D01*
X195886541Y-61436504D01*
X196100367Y-61436504D01*
X196139392Y-61505907D01*
X196154790Y-61531750D01*
X196255852Y-61657522D01*
X196323222Y-61713699D01*
X196386083Y-61766117D01*
X196535158Y-61850142D01*
X196692750Y-61902200D01*
X196728569Y-61909369D01*
X196838520Y-61922791D01*
X196940195Y-61917235D01*
X197056320Y-61892068D01*
X197208684Y-61834478D01*
X197361416Y-61735484D01*
X197490355Y-61603032D01*
X197592470Y-61439679D01*
X197603780Y-61416429D01*
X197633607Y-61347493D01*
X197650606Y-61285918D01*
X197658259Y-61215160D01*
X197660050Y-61118678D01*
X197659842Y-61083579D01*
X197657655Y-61005118D01*
X197653590Y-60948078D01*
X197648276Y-60922914D01*
X197635382Y-60922471D01*
X197589054Y-60932036D01*
X197518028Y-60951536D01*
X197431317Y-60978654D01*
X197226167Y-61046229D01*
X197226167Y-61103961D01*
X197226167Y-61119598D01*
X197225571Y-61140422D01*
X197200966Y-61250056D01*
X197145581Y-61341627D01*
X197066743Y-61412423D01*
X196971774Y-61459732D01*
X196867999Y-61480845D01*
X196762743Y-61473048D01*
X196663330Y-61433631D01*
X196577085Y-61359882D01*
X196531253Y-61305386D01*
X196466498Y-61359874D01*
X196384228Y-61414016D01*
X196277969Y-61449818D01*
X196175054Y-61450516D01*
X196100367Y-61436504D01*
X195886541Y-61436504D01*
X195848186Y-61355128D01*
X195804664Y-61249926D01*
X195779500Y-61165101D01*
X195771752Y-61098787D01*
X195977333Y-61098787D01*
X195979910Y-61141632D01*
X195999515Y-61199288D01*
X196046125Y-61258055D01*
X196128536Y-61321466D01*
X196216263Y-61344037D01*
X196307212Y-61324667D01*
X196318656Y-61319343D01*
X196397783Y-61261170D01*
X196447787Y-61184283D01*
X196461681Y-61119999D01*
X196589746Y-61119999D01*
X196614392Y-61212389D01*
X196669989Y-61291347D01*
X196752791Y-61346481D01*
X196781341Y-61357958D01*
X196837356Y-61372958D01*
X196886291Y-61366788D01*
X196949496Y-61338592D01*
X197028944Y-61283422D01*
X197085095Y-61202467D01*
X197103037Y-61103961D01*
X197098550Y-61057437D01*
X197065187Y-60970340D01*
X197006301Y-60904846D01*
X196930199Y-60863130D01*
X196845191Y-60847365D01*
X196759583Y-60859725D01*
X196681684Y-60902384D01*
X196619802Y-60977516D01*
X196599797Y-61024571D01*
X196592063Y-61097997D01*
X196589746Y-61119999D01*
X196461681Y-61119999D01*
X196466436Y-61097997D01*
X196451496Y-61011628D01*
X196400736Y-60934492D01*
X196331025Y-60881367D01*
X196237745Y-60853673D01*
X196136513Y-60867525D01*
X196127700Y-60870623D01*
X196047519Y-60921495D01*
X195995719Y-60999987D01*
X195977333Y-61098787D01*
X195771752Y-61098787D01*
X195770961Y-61092021D01*
X195777316Y-61022052D01*
X195796831Y-60946562D01*
X195797771Y-60943570D01*
X195816983Y-60877738D01*
X195822067Y-60833553D01*
X195812108Y-60793075D01*
X195786188Y-60738367D01*
X195779268Y-60724792D01*
X196126030Y-60724792D01*
X196130586Y-60729681D01*
X196164977Y-60737558D01*
X196222142Y-60740667D01*
X196226934Y-60740681D01*
X196317735Y-60749937D01*
X196392520Y-60781371D01*
X196469458Y-60842463D01*
X196527667Y-60896753D01*
X196585875Y-60841223D01*
X196603847Y-60825193D01*
X196704764Y-60765668D01*
X196816981Y-60740285D01*
X196930879Y-60748624D01*
X197036840Y-60790265D01*
X197125247Y-60864788D01*
X197137746Y-60878834D01*
X197178782Y-60915340D01*
X197208925Y-60928836D01*
X197234145Y-60925137D01*
X197297527Y-60909540D01*
X197373135Y-60885933D01*
X197450377Y-60858228D01*
X197518662Y-60830333D01*
X197567401Y-60806160D01*
X197586000Y-60789618D01*
X197585205Y-60778949D01*
X197561499Y-60717296D01*
X197510189Y-60642901D01*
X197438491Y-60563170D01*
X197353624Y-60485510D01*
X197262805Y-60417329D01*
X197173250Y-60366032D01*
X197146113Y-60353661D01*
X197082901Y-60329158D01*
X197021459Y-60314941D01*
X196947107Y-60308355D01*
X196845167Y-60306750D01*
X196806674Y-60306903D01*
X196715423Y-60309936D01*
X196647002Y-60318841D01*
X196586879Y-60336211D01*
X196520523Y-60364635D01*
X196462776Y-60393873D01*
X196386587Y-60438202D01*
X196330023Y-60477656D01*
X196322827Y-60483757D01*
X196275236Y-60529907D01*
X196223202Y-60587453D01*
X196175284Y-60646029D01*
X196140041Y-60695264D01*
X196126030Y-60724792D01*
X195779268Y-60724792D01*
X195769922Y-60706458D01*
X195745270Y-60659626D01*
X195732705Y-60637987D01*
X195728603Y-60637908D01*
X195700008Y-60653103D01*
X195655039Y-60684770D01*
X195616454Y-60711927D01*
X195490063Y-60781060D01*
X195349444Y-60835828D01*
X195215117Y-60867697D01*
X195125450Y-60875348D01*
X194955734Y-60865731D01*
X194789496Y-60828017D01*
X194638201Y-60765263D01*
X194513311Y-60680527D01*
X194437975Y-60614381D01*
X194351440Y-60800629D01*
X194338923Y-60828270D01*
X194296694Y-60930400D01*
X194254953Y-61042899D01*
X194216908Y-61155898D01*
X194185763Y-61259527D01*
X194164725Y-61343918D01*
X194157000Y-61399201D01*
X193923842Y-61399201D01*
X193918623Y-61368027D01*
X193899772Y-61300637D01*
X193870718Y-61211335D01*
X193834753Y-61109401D01*
X193795166Y-61004113D01*
X193755248Y-60904749D01*
X193718289Y-60820588D01*
X193621961Y-60614760D01*
X193545522Y-60674813D01*
X193529040Y-60687417D01*
X193463517Y-60732950D01*
X193405583Y-60767483D01*
X193387780Y-60778018D01*
X193379139Y-60787081D01*
X193341634Y-60826419D01*
X193304806Y-60906179D01*
X193283546Y-60954567D01*
X193234469Y-61037328D01*
X193177806Y-61110801D01*
X193137132Y-61153749D01*
X193093317Y-61189917D01*
X193051015Y-61206187D01*
X192995972Y-61210364D01*
X192926995Y-61203819D01*
X192847805Y-61169789D01*
X192824224Y-61150153D01*
X192756389Y-61073565D01*
X192695136Y-60978569D01*
X192651978Y-60882084D01*
X192623434Y-60823457D01*
X192560340Y-60768059D01*
X192546877Y-60760811D01*
X192530474Y-60750593D01*
X192723875Y-60750593D01*
X192740138Y-60817345D01*
X192769805Y-60894531D01*
X192807839Y-60969187D01*
X192849202Y-61028348D01*
X192864430Y-61044647D01*
X192934327Y-61093509D01*
X193003600Y-61100890D01*
X193070666Y-61067470D01*
X193133940Y-60993932D01*
X193191836Y-60880957D01*
X193220837Y-60787081D01*
X193219045Y-60718767D01*
X193185559Y-60678358D01*
X193158239Y-60666481D01*
X193082194Y-60648768D01*
X192993094Y-60641969D01*
X192901891Y-60645352D01*
X192819539Y-60658181D01*
X192756990Y-60679722D01*
X192725198Y-60709239D01*
X192723875Y-60750593D01*
X192530474Y-60750593D01*
X192483406Y-60721273D01*
X192419846Y-60675501D01*
X192344275Y-60616135D01*
X192314821Y-60675457D01*
X192284460Y-60736609D01*
X192264056Y-60779319D01*
X192243235Y-60833892D01*
X192232018Y-60889367D01*
X192228022Y-60959529D01*
X192228862Y-61058167D01*
X192225909Y-61116716D01*
X192218936Y-61255011D01*
X192175427Y-61447179D01*
X192097913Y-61614476D01*
X192049018Y-61694535D01*
X191774126Y-61694535D01*
X191864719Y-61594553D01*
X191953117Y-61446067D01*
X192010994Y-61284198D01*
X192034806Y-61116716D01*
X192021009Y-60951389D01*
X192002593Y-60869541D01*
X191983839Y-60818693D01*
X191958526Y-60798642D01*
X191919318Y-60803838D01*
X191858877Y-60828731D01*
X191829801Y-60840566D01*
X191697511Y-60874217D01*
X191548202Y-60887147D01*
X191398023Y-60878815D01*
X191263126Y-60848680D01*
X191262877Y-60848596D01*
X191167776Y-60819118D01*
X191102672Y-60806580D01*
X191059093Y-60810293D01*
X191028567Y-60829566D01*
X191020550Y-60853639D01*
X191013190Y-60914264D01*
X191007778Y-61002910D01*
X191004333Y-61111962D01*
X191002877Y-61233810D01*
X190921885Y-61233810D01*
X190914948Y-60793583D01*
X190967145Y-60744613D01*
X191016126Y-60710775D01*
X191080334Y-60696558D01*
X191163157Y-60706449D01*
X191272766Y-60740333D01*
X191288884Y-60745930D01*
X191424515Y-60775508D01*
X191568842Y-60781077D01*
X191707020Y-60763129D01*
X191824208Y-60722152D01*
X191914999Y-60675457D01*
X191870795Y-60613378D01*
X191839665Y-60574789D01*
X191753276Y-60492421D01*
X191648792Y-60415156D01*
X191541231Y-60354780D01*
X191532127Y-60350647D01*
X191473733Y-60328504D01*
X191411735Y-60315113D01*
X191333255Y-60308514D01*
X191225417Y-60306750D01*
X191168171Y-60307069D01*
X191080187Y-60310439D01*
X191014115Y-60319365D01*
X190956435Y-60336141D01*
X190893626Y-60363062D01*
X190873622Y-60372731D01*
X190715192Y-60474232D01*
X190586129Y-60605899D01*
X190486896Y-60767000D01*
X190417954Y-60956805D01*
X190379766Y-61174583D01*
X190376386Y-61272115D01*
X190049318Y-61272115D01*
X189972256Y-60999285D01*
X189895226Y-60689566D01*
X189829945Y-60386326D01*
X189778829Y-60100015D01*
X189744300Y-59841083D01*
X189738143Y-59783290D01*
X189727996Y-59706949D01*
X189715506Y-59661167D01*
X190072737Y-59661167D01*
X190076094Y-59692494D01*
X190086608Y-59759910D01*
X190102915Y-59854572D01*
X190123616Y-59969012D01*
X190147315Y-60095767D01*
X190172613Y-60227371D01*
X190198112Y-60356359D01*
X190222416Y-60475265D01*
X190244126Y-60576625D01*
X190261674Y-60645492D01*
X190280395Y-60688981D01*
X190297847Y-60692336D01*
X190315032Y-60656687D01*
X190347793Y-60590158D01*
X190406398Y-60507628D01*
X190481217Y-60421161D01*
X190563083Y-60341328D01*
X190642830Y-60278698D01*
X190809543Y-60188645D01*
X190994825Y-60129830D01*
X191185199Y-60106518D01*
X191374854Y-60117807D01*
X191557978Y-60162795D01*
X191728761Y-60240580D01*
X191881390Y-60350259D01*
X192010053Y-60490931D01*
X192016854Y-60500149D01*
X192062263Y-60559205D01*
X192090867Y-60588444D01*
X192108846Y-60592557D01*
X192122376Y-60576237D01*
X192126055Y-60567678D01*
X192127441Y-60531994D01*
X192110517Y-60478165D01*
X192072887Y-60397528D01*
X192053635Y-60357199D01*
X191988612Y-60165575D01*
X191962952Y-59971462D01*
X191964490Y-59946917D01*
X192177917Y-59946917D01*
X192178236Y-60004162D01*
X192181606Y-60092146D01*
X192190532Y-60158219D01*
X192207308Y-60215899D01*
X192234229Y-60278707D01*
X192271409Y-60347481D01*
X192351977Y-60460989D01*
X192445885Y-60562181D01*
X192540914Y-60636789D01*
X192613028Y-60681357D01*
X192654611Y-60628493D01*
X192654729Y-60628343D01*
X192715094Y-60581978D01*
X192806925Y-60549701D01*
X192921096Y-60533654D01*
X193048483Y-60535981D01*
X193113239Y-60544120D01*
X193184585Y-60558034D01*
X193230842Y-60573003D01*
X193265157Y-60595119D01*
X193310333Y-60637145D01*
X193316679Y-60644989D01*
X193338356Y-60664577D01*
X193363498Y-60661799D01*
X193408281Y-60636557D01*
X193471171Y-60592849D01*
X193586984Y-60479618D01*
X193681345Y-60342321D01*
X193749566Y-60190288D01*
X193786958Y-60032848D01*
X193788833Y-59879330D01*
X193775737Y-59795184D01*
X193730713Y-59645848D01*
X193655793Y-59512788D01*
X193545103Y-59384064D01*
X193479617Y-59323082D01*
X193350471Y-59231431D01*
X193210891Y-59172452D01*
X193048808Y-59140213D01*
X192903211Y-59139366D01*
X192740129Y-59174361D01*
X192584617Y-59243402D01*
X192443838Y-59342323D01*
X192324955Y-59466962D01*
X192235131Y-59613155D01*
X192219081Y-59648710D01*
X192197577Y-59707398D01*
X192185102Y-59767602D01*
X192179325Y-59842912D01*
X192177917Y-59946917D01*
X191964490Y-59946917D01*
X191974959Y-59779814D01*
X192022936Y-59595587D01*
X192105184Y-59423738D01*
X192220007Y-59269221D01*
X192365708Y-59136993D01*
X192540588Y-59032009D01*
X192590116Y-59008999D01*
X192664347Y-58978875D01*
X192731842Y-58960710D01*
X192808958Y-58950670D01*
X192912049Y-58944922D01*
X192994860Y-58942750D01*
X193091657Y-58945825D01*
X193174937Y-58957849D01*
X193261545Y-58980538D01*
X193278070Y-58985718D01*
X193466043Y-59067790D01*
X193630237Y-59184316D01*
X193768396Y-59333349D01*
X193878264Y-59512942D01*
X193879676Y-59515830D01*
X193911508Y-59582481D01*
X193932959Y-59635611D01*
X193946076Y-59686390D01*
X193952909Y-59745990D01*
X193955506Y-59825580D01*
X193955706Y-59879330D01*
X193955917Y-59936333D01*
X193955917Y-59943824D01*
X193955439Y-60052417D01*
X193952616Y-60130779D01*
X193945328Y-60190345D01*
X193931459Y-60242551D01*
X193908892Y-60298835D01*
X193875508Y-60370631D01*
X193795100Y-60540346D01*
X193867004Y-60698714D01*
X193869852Y-60705012D01*
X193910227Y-60798463D01*
X193948085Y-60892693D01*
X193975572Y-60968208D01*
X193991136Y-61014021D01*
X194008487Y-61061089D01*
X194017252Y-61079333D01*
X194023599Y-61066366D01*
X194039339Y-61022749D01*
X194060194Y-60959021D01*
X194060275Y-60958764D01*
X194089007Y-60877070D01*
X194127810Y-60778627D01*
X194168309Y-60684689D01*
X194238498Y-60530668D01*
X194177537Y-60418115D01*
X194142046Y-60346302D01*
X194078298Y-60156405D01*
X194058625Y-60002063D01*
X194271860Y-60002063D01*
X194302031Y-60169338D01*
X194367672Y-60327198D01*
X194465436Y-60469470D01*
X194591977Y-60589979D01*
X194743949Y-60682550D01*
X194778406Y-60698177D01*
X194864353Y-60730028D01*
X194949634Y-60747341D01*
X195055623Y-60755090D01*
X195124348Y-60755850D01*
X195233104Y-60748844D01*
X195315112Y-60732360D01*
X195458579Y-60669356D01*
X195605676Y-60566783D01*
X195728726Y-60437972D01*
X195819401Y-60290224D01*
X195870100Y-60180795D01*
X195749092Y-60147278D01*
X195696623Y-60131705D01*
X195627845Y-60108193D01*
X195582326Y-60088802D01*
X195571578Y-60082392D01*
X195508647Y-60028736D01*
X195444519Y-59953134D01*
X195390609Y-59870519D01*
X195358333Y-59795821D01*
X195334817Y-59708226D01*
X195242397Y-59747842D01*
X195220851Y-59756764D01*
X195032564Y-59809933D01*
X194839739Y-59822484D01*
X194648391Y-59794581D01*
X194464533Y-59726391D01*
X194398214Y-59696846D01*
X194346447Y-59679950D01*
X194320711Y-59679489D01*
X194310355Y-59702616D01*
X194295635Y-59756859D01*
X194281051Y-59828397D01*
X194280504Y-59831548D01*
X194271860Y-60002063D01*
X194058625Y-60002063D01*
X194053818Y-59964347D01*
X194067042Y-59774801D01*
X194116400Y-59592437D01*
X194147907Y-59528424D01*
X194393776Y-59528424D01*
X194413103Y-59554231D01*
X194460877Y-59590829D01*
X194526044Y-59628821D01*
X194583191Y-59656580D01*
X194636192Y-59676152D01*
X194692442Y-59687099D01*
X194764961Y-59691870D01*
X194866773Y-59692917D01*
X194951775Y-59692219D01*
X195030774Y-59688059D01*
X195091724Y-59677972D01*
X195148116Y-59659518D01*
X195213444Y-59630260D01*
X195281898Y-59600082D01*
X195345207Y-59584770D01*
X195389644Y-59599275D01*
X195424421Y-59647464D01*
X195458750Y-59733202D01*
X195516189Y-59852873D01*
X195597598Y-59950430D01*
X195695549Y-60013438D01*
X195762774Y-60033517D01*
X195831207Y-60042167D01*
X195898106Y-60042167D01*
X195888440Y-59875190D01*
X195869428Y-59740636D01*
X195810669Y-59574859D01*
X195715845Y-59428645D01*
X195587206Y-59305246D01*
X195427000Y-59207915D01*
X195371882Y-59182791D01*
X195312839Y-59161275D01*
X195253463Y-59149147D01*
X195179764Y-59143790D01*
X195077750Y-59142587D01*
X194998589Y-59143201D01*
X194919189Y-59147215D01*
X194858495Y-59157160D01*
X194802972Y-59175522D01*
X194739083Y-59204787D01*
X194731587Y-59208540D01*
X194655481Y-59254218D01*
X194577229Y-59312387D01*
X194504382Y-59375969D01*
X194444490Y-59437887D01*
X194405104Y-59491064D01*
X194393776Y-59528424D01*
X194147907Y-59528424D01*
X194200325Y-59421928D01*
X194317251Y-59267946D01*
X194465610Y-59135162D01*
X194485467Y-59123250D01*
X195558713Y-59123250D01*
X195558992Y-59124133D01*
X195579255Y-59149687D01*
X195623373Y-59191938D01*
X195682334Y-59242214D01*
X195800085Y-59337706D01*
X195857043Y-59288713D01*
X195880541Y-59270724D01*
X195975185Y-59229177D01*
X196081738Y-59219056D01*
X196190601Y-59237818D01*
X196292173Y-59282917D01*
X196376855Y-59351807D01*
X196435046Y-59441945D01*
X196436276Y-59444943D01*
X196459212Y-59539155D01*
X196461852Y-59643161D01*
X196443524Y-59733872D01*
X196431806Y-59773364D01*
X196439317Y-59784422D01*
X196469148Y-59763199D01*
X196523131Y-59709125D01*
X196531341Y-59700292D01*
X196614053Y-59587633D01*
X196660489Y-59465527D01*
X196675162Y-59322500D01*
X196671752Y-59258144D01*
X196637767Y-59115699D01*
X196571802Y-58989274D01*
X196479376Y-58883252D01*
X196366009Y-58802016D01*
X196237217Y-58749948D01*
X196098520Y-58731433D01*
X195955436Y-58750853D01*
X195918203Y-58763051D01*
X195802065Y-58822208D01*
X195696200Y-58904837D01*
X195616637Y-58999187D01*
X195591191Y-59042158D01*
X195566063Y-59093669D01*
X195558713Y-59123250D01*
X194485467Y-59123250D01*
X194643833Y-59028248D01*
X194678158Y-59011916D01*
X194742425Y-58983679D01*
X194797372Y-58966088D01*
X194855912Y-58956633D01*
X194930956Y-58952802D01*
X195035417Y-58952083D01*
X195111653Y-58952885D01*
X195205603Y-58956129D01*
X195280210Y-58961289D01*
X195323981Y-58967740D01*
X195353335Y-58973729D01*
X195382451Y-58963331D01*
X195405590Y-58920922D01*
X195431077Y-58876460D01*
X195493173Y-58803419D01*
X195575844Y-58728026D01*
X195668626Y-58659519D01*
X195761051Y-58607137D01*
X195761560Y-58606900D01*
X195830571Y-58578160D01*
X195895015Y-58561057D01*
X195970487Y-58552754D01*
X196072583Y-58550409D01*
X196088730Y-58550461D01*
X196254045Y-58564938D01*
X196395018Y-58607855D01*
X196521407Y-58683408D01*
X196642967Y-58795796D01*
X196696850Y-58858804D01*
X196783170Y-58996680D01*
X196832570Y-59145846D01*
X196848704Y-59315530D01*
X196848660Y-59322500D01*
X196848584Y-59334673D01*
X196826130Y-59516021D01*
X196765545Y-59679354D01*
X196667544Y-59823246D01*
X196532839Y-59946273D01*
X196512756Y-59960269D01*
X196415919Y-60007589D01*
X196328079Y-60020648D01*
X196254560Y-60003360D01*
X196200686Y-59959640D01*
X196171780Y-59893402D01*
X196173166Y-59808560D01*
X196210167Y-59709028D01*
X196228959Y-59672395D01*
X196248611Y-59617564D01*
X196246035Y-59571293D01*
X196222338Y-59516070D01*
X196179333Y-59462244D01*
X196114171Y-59422699D01*
X196043644Y-59408617D01*
X195981625Y-59425233D01*
X195972028Y-59436500D01*
X195969890Y-59466025D01*
X195981519Y-59518996D01*
X196008084Y-59603266D01*
X196020163Y-59641605D01*
X196059087Y-59845206D01*
X196057502Y-60042167D01*
X196057445Y-60049299D01*
X196029880Y-60180795D01*
X196015731Y-60248298D01*
X195934440Y-60436619D01*
X195922594Y-60458229D01*
X195895203Y-60515963D01*
X195888363Y-60552952D01*
X195899384Y-60580209D01*
X195912386Y-60593738D01*
X195931105Y-60593150D01*
X195958629Y-60567333D01*
X196002363Y-60511332D01*
X196088721Y-60410075D01*
X196234483Y-60287547D01*
X196412451Y-60186624D01*
X196418370Y-60183862D01*
X196498965Y-60149533D01*
X196570991Y-60128176D01*
X196651407Y-60115978D01*
X196757170Y-60109128D01*
X196859865Y-60107887D01*
X197039187Y-60126148D01*
X197198973Y-60173616D01*
X197348486Y-60252536D01*
X197447556Y-60326679D01*
X197553401Y-60426666D01*
X197644211Y-60533644D01*
X197708311Y-60635193D01*
X197750755Y-60720980D01*
X197784651Y-60566782D01*
X197809517Y-60446489D01*
X197837350Y-60297631D01*
X197864043Y-60141911D01*
X197887625Y-59991385D01*
X197906123Y-59858108D01*
X197917567Y-59754135D01*
X197921779Y-59702981D01*
X197924337Y-59645262D01*
X197918991Y-59613770D01*
X197903103Y-59598525D01*
X197874032Y-59589547D01*
X197812083Y-59568439D01*
X197694932Y-59501560D01*
X197581706Y-59405083D01*
X197480732Y-59286662D01*
X197400334Y-59153955D01*
X197377551Y-59104627D01*
X197359216Y-59051653D01*
X197348700Y-58993677D01*
X197343901Y-58918266D01*
X197342718Y-58812983D01*
X197342710Y-58798954D01*
X197735022Y-58798954D01*
X197750050Y-58922792D01*
X197797909Y-59038343D01*
X197877611Y-59138368D01*
X197988167Y-59215629D01*
X197988229Y-59215660D01*
X198119817Y-59260308D01*
X198253124Y-59265210D01*
X198380922Y-59231172D01*
X198495980Y-59158999D01*
X198581108Y-59065595D01*
X198641245Y-58947231D01*
X198664847Y-58820466D01*
X198651724Y-58692410D01*
X198601687Y-58570171D01*
X198514548Y-58460858D01*
X198491248Y-58440684D01*
X198399425Y-58383253D01*
X198295958Y-58342902D01*
X198199833Y-58327667D01*
X198171738Y-58329244D01*
X198071280Y-58353189D01*
X197969412Y-58399739D01*
X197885119Y-58460858D01*
X197807412Y-58555365D01*
X197753813Y-58674066D01*
X197735022Y-58798954D01*
X197342710Y-58798954D01*
X197342583Y-58589216D01*
X197152083Y-58508561D01*
X196877547Y-58398684D01*
X196344572Y-58219241D01*
X195793167Y-58076209D01*
X195226685Y-57970398D01*
X194648482Y-57902622D01*
X194627292Y-57900955D01*
X194481456Y-57893076D01*
X194306826Y-57888456D01*
X194112289Y-57886927D01*
X193906729Y-57888322D01*
X193699033Y-57892471D01*
X193498085Y-57899209D01*
X193312770Y-57908366D01*
X193151974Y-57919776D01*
X193024583Y-57933271D01*
X192475546Y-58022836D01*
X191934875Y-58145154D01*
X191411171Y-58299982D01*
X190897333Y-58489176D01*
X190653917Y-58587727D01*
X190653917Y-58804844D01*
X190653917Y-58812238D01*
X190652939Y-58915439D01*
X190648479Y-58990642D01*
X190638301Y-59048656D01*
X190620171Y-59102139D01*
X190591854Y-59163750D01*
X190535181Y-59259580D01*
X190434268Y-59381402D01*
X190315907Y-59484235D01*
X190191773Y-59556614D01*
X190157150Y-59572106D01*
X190104318Y-59601096D01*
X190079105Y-59628214D01*
X190072737Y-59661167D01*
X189715506Y-59661167D01*
X189714970Y-59659201D01*
X189694224Y-59631369D01*
X189660917Y-59614777D01*
X189610207Y-59600747D01*
X189555840Y-59583716D01*
X189417839Y-59513585D01*
X189289193Y-59411466D01*
X189178231Y-59284767D01*
X189093280Y-59140897D01*
X189079918Y-59110139D01*
X189062263Y-59056270D01*
X189051706Y-58995035D01*
X189046588Y-58914797D01*
X189045250Y-58803917D01*
X189045259Y-58802318D01*
X189399631Y-58802318D01*
X189417355Y-58936945D01*
X189421093Y-58949152D01*
X189469269Y-59044327D01*
X189543938Y-59135112D01*
X189633171Y-59209202D01*
X189725039Y-59254294D01*
X189733483Y-59256754D01*
X189851482Y-59277931D01*
X189959118Y-59266853D01*
X190073199Y-59221958D01*
X190097361Y-59208946D01*
X190203697Y-59127858D01*
X190277335Y-59029412D01*
X190319733Y-58919708D01*
X190332349Y-58804844D01*
X190316643Y-58690919D01*
X190274074Y-58584032D01*
X190206100Y-58490281D01*
X190114180Y-58415765D01*
X189999774Y-58366582D01*
X189864339Y-58348833D01*
X189786507Y-58355092D01*
X189660904Y-58394455D01*
X189554863Y-58464848D01*
X189472936Y-58560281D01*
X189419675Y-58674768D01*
X189399631Y-58802318D01*
X189045259Y-58802318D01*
X189045618Y-58738346D01*
X189048833Y-58645786D01*
X189056743Y-58577456D01*
X189071005Y-58521719D01*
X189093280Y-58466936D01*
X189162068Y-58343431D01*
X189281486Y-58201473D01*
X189430260Y-58089936D01*
X189607922Y-58009236D01*
X189765370Y-57973810D01*
X189941587Y-57971805D01*
X190114466Y-58006262D01*
X190275582Y-58075426D01*
X190416511Y-58177545D01*
X190510358Y-58264050D01*
X190735881Y-58169564D01*
X190937752Y-58088123D01*
X191493828Y-57894674D01*
X192063101Y-57740280D01*
X192642532Y-57625264D01*
X193229085Y-57549951D01*
X193819721Y-57514664D01*
X194411403Y-57519728D01*
X195001092Y-57565467D01*
X195585750Y-57652206D01*
X195603386Y-57655489D01*
X195943604Y-57727990D01*
X196299802Y-57819723D01*
X196657414Y-57926360D01*
X197001872Y-58043574D01*
X197318607Y-58167035D01*
X197548631Y-58263626D01*
X197653006Y-58169784D01*
X197654700Y-58168266D01*
X197797578Y-58067010D01*
X197954464Y-58001871D01*
X198119572Y-57971598D01*
X198287119Y-57974941D01*
X198451319Y-58010650D01*
X198606389Y-58077473D01*
X198746544Y-58174161D01*
X198866000Y-58299462D01*
X198958973Y-58452126D01*
X198982042Y-58504824D01*
X198999229Y-58558483D01*
X199009131Y-58618153D01*
X199013665Y-58695931D01*
X199014750Y-58803917D01*
X199014738Y-58820466D01*
X199014737Y-58821985D01*
G36*
X199014737Y-58821985D02*
G01*
X199013501Y-58922784D01*
X199008763Y-58995197D01*
X198998421Y-59051359D01*
X198980376Y-59103408D01*
X198952528Y-59163480D01*
X198918865Y-59223091D01*
X198855170Y-59314561D01*
X198788694Y-59391822D01*
X198768973Y-59410408D01*
X198695209Y-59468475D01*
X198608686Y-59524704D01*
X198520693Y-59572740D01*
X198442517Y-59606228D01*
X198385445Y-59618816D01*
X198367573Y-59621987D01*
X198350973Y-59638540D01*
X198348685Y-59645262D01*
X198338297Y-59675786D01*
X198327291Y-59740906D01*
X198315701Y-59841083D01*
X198295591Y-60004233D01*
X198248115Y-60294609D01*
X198184613Y-60605321D01*
X198140275Y-60789618D01*
X198107509Y-60925816D01*
X198054256Y-61118678D01*
X198019227Y-61245543D01*
X197922191Y-61553950D01*
X197921660Y-61555530D01*
X197882145Y-61676409D01*
X197848767Y-61784847D01*
X197823479Y-61873963D01*
X197808236Y-61936874D01*
X197804992Y-61966700D01*
X197808206Y-61976656D01*
X197824180Y-62024138D01*
X197848661Y-62095674D01*
X197877805Y-62180000D01*
X197923065Y-62321226D01*
X197967519Y-62499979D01*
X197996870Y-62683041D01*
X198012967Y-62882722D01*
X198017224Y-63090167D01*
X198017658Y-63111333D01*
X198013058Y-63332896D01*
X197999159Y-63525101D01*
X197975861Y-63677957D01*
X197943052Y-63792473D01*
X197922505Y-63827213D01*
X197879865Y-63863502D01*
X197811986Y-63897338D01*
X197713294Y-63931410D01*
X197578215Y-63968404D01*
X197496014Y-63988384D01*
X197482854Y-63990931D01*
X197264367Y-64033218D01*
X197040788Y-64056981D01*
X196805313Y-64062093D01*
X196564377Y-64058785D01*
X196386374Y-64273832D01*
X196163399Y-64529601D01*
X195893951Y-64810949D01*
X195607840Y-65084540D01*
X195316032Y-65339928D01*
X195029492Y-65566667D01*
X194981333Y-65602752D01*
X194907832Y-65659626D01*
X194861153Y-65700158D01*
X194836164Y-65729810D01*
X194827734Y-65754047D01*
X194830734Y-65778333D01*
X194834331Y-65798816D01*
X194839676Y-65861092D01*
X194843261Y-65946526D01*
X194844298Y-66030199D01*
X194844455Y-66042917D01*
X194843816Y-66113436D01*
X194839897Y-66196123D01*
X194830277Y-66258685D01*
X194812531Y-66314587D01*
X194784234Y-66377296D01*
X194755158Y-66431155D01*
X194649431Y-66571996D01*
X194515608Y-66690928D01*
X194362363Y-66781160D01*
X194198375Y-66835900D01*
X194035036Y-66852143D01*
X193861279Y-66832192D01*
X193695723Y-66776816D01*
X193544362Y-66689531D01*
X193413190Y-66573852D01*
X193308204Y-66433291D01*
X193235399Y-66271365D01*
X193221309Y-66204767D01*
X193211855Y-66110995D01*
X193209285Y-66040191D01*
X193566316Y-66040191D01*
X193584529Y-66154941D01*
X193632516Y-66263367D01*
X193711713Y-66359366D01*
X193823557Y-66436834D01*
X193950664Y-66481606D01*
X194082194Y-66486950D01*
X194209398Y-66451486D01*
X194327338Y-66375812D01*
X194337941Y-66366493D01*
X194425050Y-66263460D01*
X194476547Y-66149292D01*
X194494695Y-66030199D01*
X194481758Y-65912390D01*
X194439998Y-65802076D01*
X194371679Y-65705467D01*
X194279065Y-65628771D01*
X194164417Y-65578200D01*
X194030000Y-65559963D01*
X194001804Y-65560694D01*
X193871554Y-65585210D01*
X193762456Y-65640025D01*
X193675946Y-65719034D01*
X193613461Y-65816134D01*
X193576439Y-65925221D01*
X193566316Y-66040191D01*
X193209285Y-66040191D01*
X193208047Y-66006091D01*
X193209987Y-65903313D01*
X193217775Y-65815919D01*
X193231510Y-65757167D01*
X193231766Y-65756499D01*
X193224672Y-65732518D01*
X193189559Y-65693523D01*
X193123810Y-65637024D01*
X193024808Y-65560531D01*
X192954496Y-65507077D01*
X192617411Y-65230752D01*
X192284035Y-64925631D01*
X191965187Y-64602032D01*
X191671685Y-64270271D01*
X191495433Y-64058935D01*
X191244008Y-64061775D01*
X191161219Y-64061427D01*
X190986941Y-64053095D01*
X190813685Y-64035590D01*
X190647353Y-64010229D01*
X190567599Y-63993658D01*
X191936766Y-63993658D01*
X191938042Y-63998505D01*
X191958760Y-64028372D01*
X191999069Y-64078863D01*
X192053183Y-64142577D01*
X192228706Y-64337752D01*
X192547604Y-64663695D01*
X192878065Y-64967645D01*
X193209867Y-65239903D01*
X193441908Y-65418434D01*
X193522605Y-65354521D01*
X193592450Y-65304080D01*
X193710160Y-65243076D01*
X193841077Y-65206789D01*
X193998250Y-65190727D01*
X194067976Y-65188658D01*
X194159677Y-65191323D01*
X194235792Y-65203190D01*
X194312717Y-65226106D01*
X194363506Y-65246373D01*
X194457422Y-65292759D01*
X194537663Y-65342153D01*
X194638642Y-65414700D01*
X194868779Y-65236008D01*
X195113667Y-65036869D01*
X195391098Y-64791496D01*
X195658751Y-64534812D01*
X195901904Y-64280435D01*
X196164993Y-63990931D01*
X195993833Y-63935317D01*
X195932200Y-63914266D01*
X195852804Y-63879919D01*
X195801002Y-63842025D01*
X195767946Y-63793140D01*
X195744786Y-63725821D01*
X195737606Y-63696228D01*
X195718192Y-63586586D01*
X195701965Y-63452592D01*
X195690102Y-63307613D01*
X195683781Y-63165016D01*
X195684160Y-63044467D01*
X195862189Y-63044467D01*
X195864700Y-63252968D01*
X195881031Y-63457805D01*
X195910232Y-63640500D01*
X195913159Y-63652830D01*
X195926709Y-63686244D01*
X195951459Y-63713214D01*
X195993498Y-63736547D01*
X196058917Y-63759046D01*
X196153804Y-63783517D01*
X196284250Y-63812765D01*
X196379139Y-63830072D01*
X196550587Y-63850341D01*
X196738112Y-63862057D01*
X196927428Y-63864794D01*
X197104246Y-63858127D01*
X197254279Y-63841632D01*
X197360666Y-63822454D01*
X197480730Y-63797026D01*
X197590591Y-63770102D01*
X197679696Y-63744289D01*
X197737494Y-63722196D01*
X197757398Y-63700795D01*
X197781327Y-63638210D01*
X197800830Y-63541301D01*
X197815267Y-63414622D01*
X197823998Y-63262726D01*
X197826382Y-63090167D01*
X197825611Y-63028789D01*
X197813982Y-62809093D01*
X197786545Y-62606351D01*
X197740575Y-62408113D01*
X197673342Y-62201934D01*
X197582121Y-61975363D01*
X197498249Y-61781310D01*
X197379270Y-61864656D01*
X197215436Y-61955516D01*
X197034758Y-62011538D01*
X196847210Y-62030508D01*
X196659623Y-62012422D01*
X196478830Y-61957278D01*
X196311661Y-61865074D01*
X196193279Y-61782147D01*
X196128929Y-61922865D01*
X196099531Y-61988479D01*
X196011127Y-62210337D01*
X195946517Y-62422437D01*
X195901342Y-62641003D01*
X195871245Y-62882261D01*
X195862189Y-63044467D01*
X195684160Y-63044467D01*
X195684180Y-63038166D01*
X195684805Y-63020745D01*
X195687316Y-62932881D01*
X195686351Y-62878778D01*
X195680574Y-62851068D01*
X195668652Y-62842384D01*
X195649250Y-62845360D01*
X195610599Y-62852497D01*
X195550050Y-62857044D01*
X195493183Y-62857333D01*
X195486550Y-63381208D01*
X195484348Y-63539788D01*
X195481837Y-63668274D01*
X195478610Y-63765757D01*
X195474170Y-63838006D01*
X195468026Y-63890788D01*
X195459682Y-63929873D01*
X195448644Y-63961030D01*
X195434420Y-63990027D01*
X195414552Y-64024505D01*
X195314010Y-64147593D01*
X195183861Y-64240586D01*
X195170724Y-64247436D01*
X195149593Y-64256857D01*
X195124737Y-64264658D01*
X195092293Y-64271022D01*
X195048403Y-64276132D01*
X194989204Y-64280171D01*
X194910837Y-64283322D01*
X194809441Y-64285768D01*
X194681154Y-64287692D01*
X194522117Y-64289278D01*
X194328468Y-64290708D01*
X194096347Y-64292166D01*
X194004195Y-64292714D01*
X193768739Y-64293864D01*
X193570467Y-64294120D01*
X193405566Y-64293113D01*
X193270225Y-64290477D01*
X193160633Y-64285843D01*
X193072978Y-64278844D01*
X193003450Y-64269112D01*
X192948237Y-64256280D01*
X192903528Y-64239981D01*
X192865512Y-64219847D01*
X192830376Y-64195509D01*
X192794311Y-64166602D01*
X192766155Y-64139963D01*
X192707721Y-64067889D01*
X192662226Y-63991250D01*
X192660809Y-63988200D01*
X192645311Y-63952841D01*
X192633511Y-63918209D01*
X192624903Y-63878153D01*
X192618982Y-63826521D01*
X192615241Y-63757162D01*
X192613175Y-63663925D01*
X192612277Y-63540657D01*
X192612040Y-63381208D01*
X192611718Y-63286641D01*
X192610242Y-63155137D01*
X192607742Y-63042650D01*
X192604404Y-62955008D01*
X192600414Y-62898041D01*
X192595958Y-62877578D01*
X192589631Y-62876865D01*
X192549991Y-62870361D01*
X192491624Y-62859528D01*
X192403165Y-62842399D01*
X192402508Y-63130324D01*
X192400415Y-63245251D01*
X192400241Y-63254845D01*
X192390353Y-63423356D01*
X192373458Y-63572479D01*
X192350455Y-63696512D01*
X192322240Y-63789753D01*
X192289713Y-63846501D01*
X192288836Y-63847415D01*
X192245150Y-63877814D01*
X192175624Y-63911446D01*
X192094896Y-63941197D01*
X192083780Y-63944677D01*
X192012153Y-63967536D01*
X191959580Y-63985047D01*
X191936766Y-63993658D01*
X190567599Y-63993658D01*
X190493847Y-63978334D01*
X190359067Y-63941224D01*
X190248916Y-63900219D01*
X190169295Y-63856638D01*
X190126105Y-63811800D01*
X190101321Y-63746725D01*
X190075797Y-63630952D01*
X190057018Y-63481597D01*
X190045535Y-63303312D01*
X190041899Y-63100750D01*
X190042009Y-63081091D01*
X190223801Y-63081091D01*
X190224408Y-63179156D01*
X190232084Y-63285937D01*
X190247155Y-63417887D01*
X190247291Y-63418968D01*
X190265002Y-63546089D01*
X190281625Y-63635309D01*
X190298154Y-63690977D01*
X190315584Y-63717444D01*
X190321096Y-63720913D01*
X190368781Y-63740241D01*
X190446497Y-63763704D01*
X190544640Y-63788953D01*
X190653605Y-63813639D01*
X190763787Y-63835414D01*
X190865583Y-63851929D01*
X191009215Y-63866038D01*
X191239959Y-63870164D01*
X191482326Y-63855722D01*
X191721195Y-63823789D01*
X191941446Y-63775437D01*
X191983882Y-63763800D01*
X192059865Y-63740376D01*
X192107223Y-63716074D01*
X192134510Y-63682247D01*
X192150283Y-63630247D01*
X192163099Y-63551427D01*
X192194695Y-63245251D01*
X192193788Y-62932813D01*
X192156084Y-62628386D01*
X192080617Y-62324401D01*
X191966417Y-62013289D01*
X191868366Y-61780995D01*
X191749162Y-61864498D01*
X191733212Y-61875381D01*
X191574281Y-61959039D01*
X191399470Y-62012819D01*
X191224126Y-62031833D01*
X191089711Y-62031833D01*
X191121206Y-62121098D01*
X191129856Y-62144002D01*
X191165906Y-62225075D01*
X191206300Y-62301823D01*
X191209905Y-62308062D01*
X191246692Y-62394530D01*
X191246886Y-62460353D01*
X191210480Y-62505221D01*
X191205576Y-62507912D01*
X191151511Y-62513181D01*
X191075398Y-62492702D01*
X190983770Y-62450663D01*
X190883157Y-62391249D01*
X190780091Y-62318647D01*
X190681104Y-62237045D01*
X190592727Y-62150628D01*
X190521491Y-62063583D01*
X190476808Y-62000083D01*
X190420156Y-62127083D01*
X190408576Y-62154002D01*
X190352856Y-62311548D01*
X190303720Y-62496495D01*
X190264103Y-62696476D01*
X190236940Y-62899124D01*
X190229941Y-62975288D01*
X190223801Y-63081091D01*
X190042009Y-63081091D01*
X190042160Y-63054270D01*
X190048099Y-62857901D01*
X190063556Y-62685226D01*
X190090891Y-62521320D01*
X190132464Y-62351261D01*
X190190635Y-62160125D01*
X190265394Y-61930425D01*
X190147760Y-61584254D01*
X190058616Y-61305034D01*
X190049318Y-61272115D01*
X190376386Y-61272115D01*
X190390421Y-61434212D01*
X190424599Y-61599750D01*
X190475865Y-61750433D01*
X190480301Y-61760545D01*
X190544541Y-61879212D01*
X190629862Y-62002633D01*
X190724916Y-62115791D01*
X190818353Y-62203667D01*
X190875256Y-62245416D01*
X190943682Y-62290334D01*
X191012139Y-62331278D01*
X191071875Y-62363281D01*
X191114135Y-62381376D01*
X191130167Y-62380596D01*
X191129080Y-62375727D01*
X191115140Y-62341817D01*
X191090275Y-62290282D01*
X191083880Y-62277028D01*
X191055999Y-62211010D01*
X191023097Y-62124217D01*
X190991005Y-62031833D01*
X190984635Y-62012432D01*
X190967609Y-61957877D01*
X190954528Y-61907592D01*
X190944757Y-61854920D01*
X190937659Y-61793203D01*
X190932599Y-61715785D01*
X190928941Y-61616008D01*
X190926049Y-61487216D01*
X190923287Y-61322750D01*
X190921885Y-61233810D01*
X191002877Y-61233810D01*
X191003428Y-61360839D01*
X191006006Y-61485436D01*
X191010633Y-61599991D01*
X191017326Y-61696888D01*
X191026107Y-61768517D01*
X191026537Y-61770980D01*
X191040606Y-61842405D01*
X191055496Y-61882815D01*
X191077627Y-61902844D01*
X191113420Y-61913125D01*
X191208749Y-61922326D01*
X191350800Y-61909655D01*
X191495962Y-61871081D01*
X191629544Y-61809553D01*
X191749344Y-61721886D01*
X191774126Y-61694535D01*
X192049018Y-61694535D01*
X192118441Y-61836726D01*
X192139680Y-61882073D01*
X192200121Y-62028593D01*
X192258095Y-62191674D01*
X192307544Y-62353476D01*
X192342409Y-62496160D01*
X192354239Y-62550631D01*
X192371199Y-62604099D01*
X192391987Y-62632535D01*
X192422016Y-62646139D01*
X192476577Y-62659243D01*
X192543042Y-62673409D01*
X192611833Y-62686942D01*
X192611833Y-62263457D01*
X192611994Y-62176758D01*
X192613699Y-62035154D01*
X192618261Y-61925582D01*
X192622933Y-61879926D01*
X192961083Y-61879926D01*
X192961083Y-63855907D01*
X193011053Y-63896370D01*
X193012692Y-63897681D01*
X193026464Y-63906990D01*
X193044582Y-63914697D01*
X193070844Y-63920952D01*
X193109050Y-63925906D01*
X193162998Y-63929710D01*
X193236487Y-63932515D01*
X193333315Y-63934472D01*
X193457282Y-63935731D01*
X193612186Y-63936444D01*
X193801826Y-63936761D01*
X194030000Y-63936833D01*
X194061404Y-63936832D01*
X194284448Y-63936737D01*
X194469442Y-63936378D01*
X194620186Y-63935604D01*
X194740477Y-63934264D01*
X194834115Y-63932208D01*
X194904898Y-63929283D01*
X194956625Y-63925341D01*
X194993094Y-63920229D01*
X195018105Y-63913797D01*
X195035457Y-63905895D01*
X195048947Y-63896370D01*
X195098917Y-63855907D01*
X195098917Y-61879926D01*
X195048947Y-61839463D01*
X195047308Y-61838152D01*
X195033536Y-61828843D01*
X195015419Y-61821136D01*
X194989156Y-61814881D01*
X194950951Y-61809927D01*
X194897003Y-61806123D01*
X194823514Y-61803318D01*
X194726685Y-61801361D01*
X194602718Y-61800102D01*
X194447814Y-61799389D01*
X194258174Y-61799072D01*
X194030000Y-61799000D01*
X193998596Y-61799001D01*
X193775552Y-61799096D01*
X193590558Y-61799455D01*
X193439815Y-61800229D01*
X193319524Y-61801569D01*
X193225886Y-61803625D01*
X193155103Y-61806550D01*
X193103376Y-61810492D01*
X193066906Y-61815604D01*
X193041895Y-61822036D01*
X193024544Y-61829938D01*
X193011053Y-61839463D01*
X192961083Y-61879926D01*
X192622933Y-61879926D01*
X192626893Y-61841227D01*
X192640806Y-61775274D01*
X192661213Y-61720909D01*
X192689327Y-61671316D01*
X192726360Y-61619680D01*
X192755548Y-61588556D01*
X192818396Y-61537454D01*
X192889747Y-61491649D01*
X193003417Y-61428800D01*
X193463792Y-61421327D01*
X193521608Y-61420288D01*
X193650327Y-61417203D01*
X193761018Y-61413479D01*
X193847606Y-61409384D01*
X193904014Y-61405184D01*
X193924167Y-61401144D01*
X193923842Y-61399201D01*
X194157000Y-61399201D01*
X194157134Y-61401144D01*
X194157542Y-61407097D01*
X194163322Y-61418421D01*
X194179773Y-61426722D01*
X194212173Y-61432471D01*
X194265797Y-61436139D01*
X194345924Y-61438198D01*
X194457830Y-61439119D01*
X194606792Y-61439373D01*
X194694794Y-61439469D01*
X194824392Y-61440145D01*
X194921983Y-61441982D01*
X194994213Y-61445582D01*
X195047726Y-61451543D01*
X195089168Y-61460469D01*
X195125183Y-61472958D01*
X195162417Y-61489613D01*
X195255114Y-61542965D01*
X195352468Y-61634638D01*
X195425288Y-61756667D01*
X195436948Y-61784422D01*
X195448987Y-61822751D01*
X195457558Y-61868921D01*
X195458586Y-61879926D01*
X195463246Y-61929828D01*
X195466637Y-62012371D01*
X195468316Y-62123449D01*
X195468869Y-62269958D01*
X195469237Y-62372011D01*
X195470888Y-62496975D01*
X195474095Y-62586597D01*
X195479132Y-62645110D01*
X195486273Y-62676745D01*
X195495792Y-62685733D01*
X195504549Y-62684633D01*
X195550456Y-62676350D01*
X195612113Y-62663340D01*
X195661410Y-62649459D01*
X195697815Y-62625560D01*
X195714448Y-62586231D01*
X195719616Y-62562891D01*
X195794135Y-62274190D01*
X195880948Y-62017229D01*
X195978450Y-61796811D01*
X196020851Y-61713699D01*
X195901516Y-61468275D01*
X195886541Y-61436504D01*
X196100367Y-61436504D01*
X196139392Y-61505907D01*
X196154790Y-61531750D01*
X196255852Y-61657522D01*
X196323222Y-61713699D01*
X196386083Y-61766117D01*
X196535158Y-61850142D01*
X196692750Y-61902200D01*
X196728569Y-61909369D01*
X196838520Y-61922791D01*
X196940195Y-61917235D01*
X197056320Y-61892068D01*
X197208684Y-61834478D01*
X197361416Y-61735484D01*
X197490355Y-61603032D01*
X197592470Y-61439679D01*
X197603780Y-61416429D01*
X197633607Y-61347493D01*
X197650606Y-61285918D01*
X197658259Y-61215160D01*
X197660050Y-61118678D01*
X197659842Y-61083579D01*
X197657655Y-61005118D01*
X197653590Y-60948078D01*
X197648276Y-60922914D01*
X197635382Y-60922471D01*
X197589054Y-60932036D01*
X197518028Y-60951536D01*
X197431317Y-60978654D01*
X197226167Y-61046229D01*
X197226167Y-61103961D01*
X197226167Y-61119598D01*
X197225571Y-61140422D01*
X197200966Y-61250056D01*
X197145581Y-61341627D01*
X197066743Y-61412423D01*
X196971774Y-61459732D01*
X196867999Y-61480845D01*
X196762743Y-61473048D01*
X196663330Y-61433631D01*
X196577085Y-61359882D01*
X196531253Y-61305386D01*
X196466498Y-61359874D01*
X196384228Y-61414016D01*
X196277969Y-61449818D01*
X196175054Y-61450516D01*
X196100367Y-61436504D01*
X195886541Y-61436504D01*
X195848186Y-61355128D01*
X195804664Y-61249926D01*
X195779500Y-61165101D01*
X195771752Y-61098787D01*
X195977333Y-61098787D01*
X195979910Y-61141632D01*
X195999515Y-61199288D01*
X196046125Y-61258055D01*
X196128536Y-61321466D01*
X196216263Y-61344037D01*
X196307212Y-61324667D01*
X196318656Y-61319343D01*
X196397783Y-61261170D01*
X196447787Y-61184283D01*
X196461681Y-61119999D01*
X196589746Y-61119999D01*
X196614392Y-61212389D01*
X196669989Y-61291347D01*
X196752791Y-61346481D01*
X196781341Y-61357958D01*
X196837356Y-61372958D01*
X196886291Y-61366788D01*
X196949496Y-61338592D01*
X197028944Y-61283422D01*
X197085095Y-61202467D01*
X197103037Y-61103961D01*
X197098550Y-61057437D01*
X197065187Y-60970340D01*
X197006301Y-60904846D01*
X196930199Y-60863130D01*
X196845191Y-60847365D01*
X196759583Y-60859725D01*
X196681684Y-60902384D01*
X196619802Y-60977516D01*
X196599797Y-61024571D01*
X196592063Y-61097997D01*
X196589746Y-61119999D01*
X196461681Y-61119999D01*
X196466436Y-61097997D01*
X196451496Y-61011628D01*
X196400736Y-60934492D01*
X196331025Y-60881367D01*
X196237745Y-60853673D01*
X196136513Y-60867525D01*
X196127700Y-60870623D01*
X196047519Y-60921495D01*
X195995719Y-60999987D01*
X195977333Y-61098787D01*
X195771752Y-61098787D01*
X195770961Y-61092021D01*
X195777316Y-61022052D01*
X195796831Y-60946562D01*
X195797771Y-60943570D01*
X195816983Y-60877738D01*
X195822067Y-60833553D01*
X195812108Y-60793075D01*
X195786188Y-60738367D01*
X195779268Y-60724792D01*
X196126030Y-60724792D01*
X196130586Y-60729681D01*
X196164977Y-60737558D01*
X196222142Y-60740667D01*
X196226934Y-60740681D01*
X196317735Y-60749937D01*
X196392520Y-60781371D01*
X196469458Y-60842463D01*
X196527667Y-60896753D01*
X196585875Y-60841223D01*
X196603847Y-60825193D01*
X196704764Y-60765668D01*
X196816981Y-60740285D01*
X196930879Y-60748624D01*
X197036840Y-60790265D01*
X197125247Y-60864788D01*
X197137746Y-60878834D01*
X197178782Y-60915340D01*
X197208925Y-60928836D01*
X197234145Y-60925137D01*
X197297527Y-60909540D01*
X197373135Y-60885933D01*
X197450377Y-60858228D01*
X197518662Y-60830333D01*
X197567401Y-60806160D01*
X197586000Y-60789618D01*
X197585205Y-60778949D01*
X197561499Y-60717296D01*
X197510189Y-60642901D01*
X197438491Y-60563170D01*
X197353624Y-60485510D01*
X197262805Y-60417329D01*
X197173250Y-60366032D01*
X197146113Y-60353661D01*
X197082901Y-60329158D01*
X197021459Y-60314941D01*
X196947107Y-60308355D01*
X196845167Y-60306750D01*
X196806674Y-60306903D01*
X196715423Y-60309936D01*
X196647002Y-60318841D01*
X196586879Y-60336211D01*
X196520523Y-60364635D01*
X196462776Y-60393873D01*
X196386587Y-60438202D01*
X196330023Y-60477656D01*
X196322827Y-60483757D01*
X196275236Y-60529907D01*
X196223202Y-60587453D01*
X196175284Y-60646029D01*
X196140041Y-60695264D01*
X196126030Y-60724792D01*
X195779268Y-60724792D01*
X195769922Y-60706458D01*
X195745270Y-60659626D01*
X195732705Y-60637987D01*
X195728603Y-60637908D01*
X195700008Y-60653103D01*
X195655039Y-60684770D01*
X195616454Y-60711927D01*
X195490063Y-60781060D01*
X195349444Y-60835828D01*
X195215117Y-60867697D01*
X195125450Y-60875348D01*
X194955734Y-60865731D01*
X194789496Y-60828017D01*
X194638201Y-60765263D01*
X194513311Y-60680527D01*
X194437975Y-60614381D01*
X194351440Y-60800629D01*
X194338923Y-60828270D01*
X194296694Y-60930400D01*
X194254953Y-61042899D01*
X194216908Y-61155898D01*
X194185763Y-61259527D01*
X194164725Y-61343918D01*
X194157000Y-61399201D01*
X193923842Y-61399201D01*
X193918623Y-61368027D01*
X193899772Y-61300637D01*
X193870718Y-61211335D01*
X193834753Y-61109401D01*
X193795166Y-61004113D01*
X193755248Y-60904749D01*
X193718289Y-60820588D01*
X193621961Y-60614760D01*
X193545522Y-60674813D01*
X193529040Y-60687417D01*
X193463517Y-60732950D01*
X193405583Y-60767483D01*
X193387780Y-60778018D01*
X193379139Y-60787081D01*
X193341634Y-60826419D01*
X193304806Y-60906179D01*
X193283546Y-60954567D01*
X193234469Y-61037328D01*
X193177806Y-61110801D01*
X193137132Y-61153749D01*
X193093317Y-61189917D01*
X193051015Y-61206187D01*
X192995972Y-61210364D01*
X192926995Y-61203819D01*
X192847805Y-61169789D01*
X192824224Y-61150153D01*
X192756389Y-61073565D01*
X192695136Y-60978569D01*
X192651978Y-60882084D01*
X192623434Y-60823457D01*
X192560340Y-60768059D01*
X192546877Y-60760811D01*
X192530474Y-60750593D01*
X192723875Y-60750593D01*
X192740138Y-60817345D01*
X192769805Y-60894531D01*
X192807839Y-60969187D01*
X192849202Y-61028348D01*
X192864430Y-61044647D01*
X192934327Y-61093509D01*
X193003600Y-61100890D01*
X193070666Y-61067470D01*
X193133940Y-60993932D01*
X193191836Y-60880957D01*
X193220837Y-60787081D01*
X193219045Y-60718767D01*
X193185559Y-60678358D01*
X193158239Y-60666481D01*
X193082194Y-60648768D01*
X192993094Y-60641969D01*
X192901891Y-60645352D01*
X192819539Y-60658181D01*
X192756990Y-60679722D01*
X192725198Y-60709239D01*
X192723875Y-60750593D01*
X192530474Y-60750593D01*
X192483406Y-60721273D01*
X192419846Y-60675501D01*
X192344275Y-60616135D01*
X192314821Y-60675457D01*
X192284460Y-60736609D01*
X192264056Y-60779319D01*
X192243235Y-60833892D01*
X192232018Y-60889367D01*
X192228022Y-60959529D01*
X192228862Y-61058167D01*
X192225909Y-61116716D01*
X192218936Y-61255011D01*
X192175427Y-61447179D01*
X192097913Y-61614476D01*
X192049018Y-61694535D01*
X191774126Y-61694535D01*
X191864719Y-61594553D01*
X191953117Y-61446067D01*
X192010994Y-61284198D01*
X192034806Y-61116716D01*
X192021009Y-60951389D01*
X192002593Y-60869541D01*
X191983839Y-60818693D01*
X191958526Y-60798642D01*
X191919318Y-60803838D01*
X191858877Y-60828731D01*
X191829801Y-60840566D01*
X191697511Y-60874217D01*
X191548202Y-60887147D01*
X191398023Y-60878815D01*
X191263126Y-60848680D01*
X191262877Y-60848596D01*
X191167776Y-60819118D01*
X191102672Y-60806580D01*
X191059093Y-60810293D01*
X191028567Y-60829566D01*
X191020550Y-60853639D01*
X191013190Y-60914264D01*
X191007778Y-61002910D01*
X191004333Y-61111962D01*
X191002877Y-61233810D01*
X190921885Y-61233810D01*
X190914948Y-60793583D01*
X190967145Y-60744613D01*
X191016126Y-60710775D01*
X191080334Y-60696558D01*
X191163157Y-60706449D01*
X191272766Y-60740333D01*
X191288884Y-60745930D01*
X191424515Y-60775508D01*
X191568842Y-60781077D01*
X191707020Y-60763129D01*
X191824208Y-60722152D01*
X191914999Y-60675457D01*
X191870795Y-60613378D01*
X191839665Y-60574789D01*
X191753276Y-60492421D01*
X191648792Y-60415156D01*
X191541231Y-60354780D01*
X191532127Y-60350647D01*
X191473733Y-60328504D01*
X191411735Y-60315113D01*
X191333255Y-60308514D01*
X191225417Y-60306750D01*
X191168171Y-60307069D01*
X191080187Y-60310439D01*
X191014115Y-60319365D01*
X190956435Y-60336141D01*
X190893626Y-60363062D01*
X190873622Y-60372731D01*
X190715192Y-60474232D01*
X190586129Y-60605899D01*
X190486896Y-60767000D01*
X190417954Y-60956805D01*
X190379766Y-61174583D01*
X190376386Y-61272115D01*
X190049318Y-61272115D01*
X189972256Y-60999285D01*
X189895226Y-60689566D01*
X189829945Y-60386326D01*
X189778829Y-60100015D01*
X189744300Y-59841083D01*
X189738143Y-59783290D01*
X189727996Y-59706949D01*
X189715506Y-59661167D01*
X190072737Y-59661167D01*
X190076094Y-59692494D01*
X190086608Y-59759910D01*
X190102915Y-59854572D01*
X190123616Y-59969012D01*
X190147315Y-60095767D01*
X190172613Y-60227371D01*
X190198112Y-60356359D01*
X190222416Y-60475265D01*
X190244126Y-60576625D01*
X190261674Y-60645492D01*
X190280395Y-60688981D01*
X190297847Y-60692336D01*
X190315032Y-60656687D01*
X190347793Y-60590158D01*
X190406398Y-60507628D01*
X190481217Y-60421161D01*
X190563083Y-60341328D01*
X190642830Y-60278698D01*
X190809543Y-60188645D01*
X190994825Y-60129830D01*
X191185199Y-60106518D01*
X191374854Y-60117807D01*
X191557978Y-60162795D01*
X191728761Y-60240580D01*
X191881390Y-60350259D01*
X192010053Y-60490931D01*
X192016854Y-60500149D01*
X192062263Y-60559205D01*
X192090867Y-60588444D01*
X192108846Y-60592557D01*
X192122376Y-60576237D01*
X192126055Y-60567678D01*
X192127441Y-60531994D01*
X192110517Y-60478165D01*
X192072887Y-60397528D01*
X192053635Y-60357199D01*
X191988612Y-60165575D01*
X191962952Y-59971462D01*
X191964490Y-59946917D01*
X192177917Y-59946917D01*
X192178236Y-60004162D01*
X192181606Y-60092146D01*
X192190532Y-60158219D01*
X192207308Y-60215899D01*
X192234229Y-60278707D01*
X192271409Y-60347481D01*
X192351977Y-60460989D01*
X192445885Y-60562181D01*
X192540914Y-60636789D01*
X192613028Y-60681357D01*
X192654611Y-60628493D01*
X192654729Y-60628343D01*
X192715094Y-60581978D01*
X192806925Y-60549701D01*
X192921096Y-60533654D01*
X193048483Y-60535981D01*
X193113239Y-60544120D01*
X193184585Y-60558034D01*
X193230842Y-60573003D01*
X193265157Y-60595119D01*
X193310333Y-60637145D01*
X193316679Y-60644989D01*
X193338356Y-60664577D01*
X193363498Y-60661799D01*
X193408281Y-60636557D01*
X193471171Y-60592849D01*
X193586984Y-60479618D01*
X193681345Y-60342321D01*
X193749566Y-60190288D01*
X193786958Y-60032848D01*
X193788833Y-59879330D01*
X193775737Y-59795184D01*
X193730713Y-59645848D01*
X193655793Y-59512788D01*
X193545103Y-59384064D01*
X193479617Y-59323082D01*
X193350471Y-59231431D01*
X193210891Y-59172452D01*
X193048808Y-59140213D01*
X192903211Y-59139366D01*
X192740129Y-59174361D01*
X192584617Y-59243402D01*
X192443838Y-59342323D01*
X192324955Y-59466962D01*
X192235131Y-59613155D01*
X192219081Y-59648710D01*
X192197577Y-59707398D01*
X192185102Y-59767602D01*
X192179325Y-59842912D01*
X192177917Y-59946917D01*
X191964490Y-59946917D01*
X191974959Y-59779814D01*
X192022936Y-59595587D01*
X192105184Y-59423738D01*
X192220007Y-59269221D01*
X192365708Y-59136993D01*
X192540588Y-59032009D01*
X192590116Y-59008999D01*
X192664347Y-58978875D01*
X192731842Y-58960710D01*
X192808958Y-58950670D01*
X192912049Y-58944922D01*
X192994860Y-58942750D01*
X193091657Y-58945825D01*
X193174937Y-58957849D01*
X193261545Y-58980538D01*
X193278070Y-58985718D01*
X193466043Y-59067790D01*
X193630237Y-59184316D01*
X193768396Y-59333349D01*
X193878264Y-59512942D01*
X193879676Y-59515830D01*
X193911508Y-59582481D01*
X193932959Y-59635611D01*
X193946076Y-59686390D01*
X193952909Y-59745990D01*
X193955506Y-59825580D01*
X193955706Y-59879330D01*
X193955917Y-59936333D01*
X193955917Y-59943824D01*
X193955439Y-60052417D01*
X193952616Y-60130779D01*
X193945328Y-60190345D01*
X193931459Y-60242551D01*
X193908892Y-60298835D01*
X193875508Y-60370631D01*
X193795100Y-60540346D01*
X193867004Y-60698714D01*
X193869852Y-60705012D01*
X193910227Y-60798463D01*
X193948085Y-60892693D01*
X193975572Y-60968208D01*
X193991136Y-61014021D01*
X194008487Y-61061089D01*
X194017252Y-61079333D01*
X194023599Y-61066366D01*
X194039339Y-61022749D01*
X194060194Y-60959021D01*
X194060275Y-60958764D01*
X194089007Y-60877070D01*
X194127810Y-60778627D01*
X194168309Y-60684689D01*
X194238498Y-60530668D01*
X194177537Y-60418115D01*
X194142046Y-60346302D01*
X194078298Y-60156405D01*
X194058625Y-60002063D01*
X194271860Y-60002063D01*
X194302031Y-60169338D01*
X194367672Y-60327198D01*
X194465436Y-60469470D01*
X194591977Y-60589979D01*
X194743949Y-60682550D01*
X194778406Y-60698177D01*
X194864353Y-60730028D01*
X194949634Y-60747341D01*
X195055623Y-60755090D01*
X195124348Y-60755850D01*
X195233104Y-60748844D01*
X195315112Y-60732360D01*
X195458579Y-60669356D01*
X195605676Y-60566783D01*
X195728726Y-60437972D01*
X195819401Y-60290224D01*
X195870100Y-60180795D01*
X195749092Y-60147278D01*
X195696623Y-60131705D01*
X195627845Y-60108193D01*
X195582326Y-60088802D01*
X195571578Y-60082392D01*
X195508647Y-60028736D01*
X195444519Y-59953134D01*
X195390609Y-59870519D01*
X195358333Y-59795821D01*
X195334817Y-59708226D01*
X195242397Y-59747842D01*
X195220851Y-59756764D01*
X195032564Y-59809933D01*
X194839739Y-59822484D01*
X194648391Y-59794581D01*
X194464533Y-59726391D01*
X194398214Y-59696846D01*
X194346447Y-59679950D01*
X194320711Y-59679489D01*
X194310355Y-59702616D01*
X194295635Y-59756859D01*
X194281051Y-59828397D01*
X194280504Y-59831548D01*
X194271860Y-60002063D01*
X194058625Y-60002063D01*
X194053818Y-59964347D01*
X194067042Y-59774801D01*
X194116400Y-59592437D01*
X194147907Y-59528424D01*
X194393776Y-59528424D01*
X194413103Y-59554231D01*
X194460877Y-59590829D01*
X194526044Y-59628821D01*
X194583191Y-59656580D01*
X194636192Y-59676152D01*
X194692442Y-59687099D01*
X194764961Y-59691870D01*
X194866773Y-59692917D01*
X194951775Y-59692219D01*
X195030774Y-59688059D01*
X195091724Y-59677972D01*
X195148116Y-59659518D01*
X195213444Y-59630260D01*
X195281898Y-59600082D01*
X195345207Y-59584770D01*
X195389644Y-59599275D01*
X195424421Y-59647464D01*
X195458750Y-59733202D01*
X195516189Y-59852873D01*
X195597598Y-59950430D01*
X195695549Y-60013438D01*
X195762774Y-60033517D01*
X195831207Y-60042167D01*
X195898106Y-60042167D01*
X195888440Y-59875190D01*
X195869428Y-59740636D01*
X195810669Y-59574859D01*
X195715845Y-59428645D01*
X195587206Y-59305246D01*
X195427000Y-59207915D01*
X195371882Y-59182791D01*
X195312839Y-59161275D01*
X195253463Y-59149147D01*
X195179764Y-59143790D01*
X195077750Y-59142587D01*
X194998589Y-59143201D01*
X194919189Y-59147215D01*
X194858495Y-59157160D01*
X194802972Y-59175522D01*
X194739083Y-59204787D01*
X194731587Y-59208540D01*
X194655481Y-59254218D01*
X194577229Y-59312387D01*
X194504382Y-59375969D01*
X194444490Y-59437887D01*
X194405104Y-59491064D01*
X194393776Y-59528424D01*
X194147907Y-59528424D01*
X194200325Y-59421928D01*
X194317251Y-59267946D01*
X194465610Y-59135162D01*
X194485467Y-59123250D01*
X195558713Y-59123250D01*
X195558992Y-59124133D01*
X195579255Y-59149687D01*
X195623373Y-59191938D01*
X195682334Y-59242214D01*
X195800085Y-59337706D01*
X195857043Y-59288713D01*
X195880541Y-59270724D01*
X195975185Y-59229177D01*
X196081738Y-59219056D01*
X196190601Y-59237818D01*
X196292173Y-59282917D01*
X196376855Y-59351807D01*
X196435046Y-59441945D01*
X196436276Y-59444943D01*
X196459212Y-59539155D01*
X196461852Y-59643161D01*
X196443524Y-59733872D01*
X196431806Y-59773364D01*
X196439317Y-59784422D01*
X196469148Y-59763199D01*
X196523131Y-59709125D01*
X196531341Y-59700292D01*
X196614053Y-59587633D01*
X196660489Y-59465527D01*
X196675162Y-59322500D01*
X196671752Y-59258144D01*
X196637767Y-59115699D01*
X196571802Y-58989274D01*
X196479376Y-58883252D01*
X196366009Y-58802016D01*
X196237217Y-58749948D01*
X196098520Y-58731433D01*
X195955436Y-58750853D01*
X195918203Y-58763051D01*
X195802065Y-58822208D01*
X195696200Y-58904837D01*
X195616637Y-58999187D01*
X195591191Y-59042158D01*
X195566063Y-59093669D01*
X195558713Y-59123250D01*
X194485467Y-59123250D01*
X194643833Y-59028248D01*
X194678158Y-59011916D01*
X194742425Y-58983679D01*
X194797372Y-58966088D01*
X194855912Y-58956633D01*
X194930956Y-58952802D01*
X195035417Y-58952083D01*
X195111653Y-58952885D01*
X195205603Y-58956129D01*
X195280210Y-58961289D01*
X195323981Y-58967740D01*
X195353335Y-58973729D01*
X195382451Y-58963331D01*
X195405590Y-58920922D01*
X195431077Y-58876460D01*
X195493173Y-58803419D01*
X195575844Y-58728026D01*
X195668626Y-58659519D01*
X195761051Y-58607137D01*
X195761560Y-58606900D01*
X195830571Y-58578160D01*
X195895015Y-58561057D01*
X195970487Y-58552754D01*
X196072583Y-58550409D01*
X196088730Y-58550461D01*
X196254045Y-58564938D01*
X196395018Y-58607855D01*
X196521407Y-58683408D01*
X196642967Y-58795796D01*
X196696850Y-58858804D01*
X196783170Y-58996680D01*
X196832570Y-59145846D01*
X196848704Y-59315530D01*
X196848660Y-59322500D01*
X196848584Y-59334673D01*
X196826130Y-59516021D01*
X196765545Y-59679354D01*
X196667544Y-59823246D01*
X196532839Y-59946273D01*
X196512756Y-59960269D01*
X196415919Y-60007589D01*
X196328079Y-60020648D01*
X196254560Y-60003360D01*
X196200686Y-59959640D01*
X196171780Y-59893402D01*
X196173166Y-59808560D01*
X196210167Y-59709028D01*
X196228959Y-59672395D01*
X196248611Y-59617564D01*
X196246035Y-59571293D01*
X196222338Y-59516070D01*
X196179333Y-59462244D01*
X196114171Y-59422699D01*
X196043644Y-59408617D01*
X195981625Y-59425233D01*
X195972028Y-59436500D01*
X195969890Y-59466025D01*
X195981519Y-59518996D01*
X196008084Y-59603266D01*
X196020163Y-59641605D01*
X196059087Y-59845206D01*
X196057502Y-60042167D01*
X196057445Y-60049299D01*
X196029880Y-60180795D01*
X196015731Y-60248298D01*
X195934440Y-60436619D01*
X195922594Y-60458229D01*
X195895203Y-60515963D01*
X195888363Y-60552952D01*
X195899384Y-60580209D01*
X195912386Y-60593738D01*
X195931105Y-60593150D01*
X195958629Y-60567333D01*
X196002363Y-60511332D01*
X196088721Y-60410075D01*
X196234483Y-60287547D01*
X196412451Y-60186624D01*
X196418370Y-60183862D01*
X196498965Y-60149533D01*
X196570991Y-60128176D01*
X196651407Y-60115978D01*
X196757170Y-60109128D01*
X196859865Y-60107887D01*
X197039187Y-60126148D01*
X197198973Y-60173616D01*
X197348486Y-60252536D01*
X197447556Y-60326679D01*
X197553401Y-60426666D01*
X197644211Y-60533644D01*
X197708311Y-60635193D01*
X197750755Y-60720980D01*
X197784651Y-60566782D01*
X197809517Y-60446489D01*
X197837350Y-60297631D01*
X197864043Y-60141911D01*
X197887625Y-59991385D01*
X197906123Y-59858108D01*
X197917567Y-59754135D01*
X197921779Y-59702981D01*
X197924337Y-59645262D01*
X197918991Y-59613770D01*
X197903103Y-59598525D01*
X197874032Y-59589547D01*
X197812083Y-59568439D01*
X197694932Y-59501560D01*
X197581706Y-59405083D01*
X197480732Y-59286662D01*
X197400334Y-59153955D01*
X197377551Y-59104627D01*
X197359216Y-59051653D01*
X197348700Y-58993677D01*
X197343901Y-58918266D01*
X197342718Y-58812983D01*
X197342710Y-58798954D01*
X197735022Y-58798954D01*
X197750050Y-58922792D01*
X197797909Y-59038343D01*
X197877611Y-59138368D01*
X197988167Y-59215629D01*
X197988229Y-59215660D01*
X198119817Y-59260308D01*
X198253124Y-59265210D01*
X198380922Y-59231172D01*
X198495980Y-59158999D01*
X198581108Y-59065595D01*
X198641245Y-58947231D01*
X198664847Y-58820466D01*
X198651724Y-58692410D01*
X198601687Y-58570171D01*
X198514548Y-58460858D01*
X198491248Y-58440684D01*
X198399425Y-58383253D01*
X198295958Y-58342902D01*
X198199833Y-58327667D01*
X198171738Y-58329244D01*
X198071280Y-58353189D01*
X197969412Y-58399739D01*
X197885119Y-58460858D01*
X197807412Y-58555365D01*
X197753813Y-58674066D01*
X197735022Y-58798954D01*
X197342710Y-58798954D01*
X197342583Y-58589216D01*
X197152083Y-58508561D01*
X196877547Y-58398684D01*
X196344572Y-58219241D01*
X195793167Y-58076209D01*
X195226685Y-57970398D01*
X194648482Y-57902622D01*
X194627292Y-57900955D01*
X194481456Y-57893076D01*
X194306826Y-57888456D01*
X194112289Y-57886927D01*
X193906729Y-57888322D01*
X193699033Y-57892471D01*
X193498085Y-57899209D01*
X193312770Y-57908366D01*
X193151974Y-57919776D01*
X193024583Y-57933271D01*
X192475546Y-58022836D01*
X191934875Y-58145154D01*
X191411171Y-58299982D01*
X190897333Y-58489176D01*
X190653917Y-58587727D01*
X190653917Y-58804844D01*
X190653917Y-58812238D01*
X190652939Y-58915439D01*
X190648479Y-58990642D01*
X190638301Y-59048656D01*
X190620171Y-59102139D01*
X190591854Y-59163750D01*
X190535181Y-59259580D01*
X190434268Y-59381402D01*
X190315907Y-59484235D01*
X190191773Y-59556614D01*
X190157150Y-59572106D01*
X190104318Y-59601096D01*
X190079105Y-59628214D01*
X190072737Y-59661167D01*
X189715506Y-59661167D01*
X189714970Y-59659201D01*
X189694224Y-59631369D01*
X189660917Y-59614777D01*
X189610207Y-59600747D01*
X189555840Y-59583716D01*
X189417839Y-59513585D01*
X189289193Y-59411466D01*
X189178231Y-59284767D01*
X189093280Y-59140897D01*
X189079918Y-59110139D01*
X189062263Y-59056270D01*
X189051706Y-58995035D01*
X189046588Y-58914797D01*
X189045250Y-58803917D01*
X189045259Y-58802318D01*
X189399631Y-58802318D01*
X189417355Y-58936945D01*
X189421093Y-58949152D01*
X189469269Y-59044327D01*
X189543938Y-59135112D01*
X189633171Y-59209202D01*
X189725039Y-59254294D01*
X189733483Y-59256754D01*
X189851482Y-59277931D01*
X189959118Y-59266853D01*
X190073199Y-59221958D01*
X190097361Y-59208946D01*
X190203697Y-59127858D01*
X190277335Y-59029412D01*
X190319733Y-58919708D01*
X190332349Y-58804844D01*
X190316643Y-58690919D01*
X190274074Y-58584032D01*
X190206100Y-58490281D01*
X190114180Y-58415765D01*
X189999774Y-58366582D01*
X189864339Y-58348833D01*
X189786507Y-58355092D01*
X189660904Y-58394455D01*
X189554863Y-58464848D01*
X189472936Y-58560281D01*
X189419675Y-58674768D01*
X189399631Y-58802318D01*
X189045259Y-58802318D01*
X189045618Y-58738346D01*
X189048833Y-58645786D01*
X189056743Y-58577456D01*
X189071005Y-58521719D01*
X189093280Y-58466936D01*
X189162068Y-58343431D01*
X189281486Y-58201473D01*
X189430260Y-58089936D01*
X189607922Y-58009236D01*
X189765370Y-57973810D01*
X189941587Y-57971805D01*
X190114466Y-58006262D01*
X190275582Y-58075426D01*
X190416511Y-58177545D01*
X190510358Y-58264050D01*
X190735881Y-58169564D01*
X190937752Y-58088123D01*
X191493828Y-57894674D01*
X192063101Y-57740280D01*
X192642532Y-57625264D01*
X193229085Y-57549951D01*
X193819721Y-57514664D01*
X194411403Y-57519728D01*
X195001092Y-57565467D01*
X195585750Y-57652206D01*
X195603386Y-57655489D01*
X195943604Y-57727990D01*
X196299802Y-57819723D01*
X196657414Y-57926360D01*
X197001872Y-58043574D01*
X197318607Y-58167035D01*
X197548631Y-58263626D01*
X197653006Y-58169784D01*
X197654700Y-58168266D01*
X197797578Y-58067010D01*
X197954464Y-58001871D01*
X198119572Y-57971598D01*
X198287119Y-57974941D01*
X198451319Y-58010650D01*
X198606389Y-58077473D01*
X198746544Y-58174161D01*
X198866000Y-58299462D01*
X198958973Y-58452126D01*
X198982042Y-58504824D01*
X198999229Y-58558483D01*
X199009131Y-58618153D01*
X199013665Y-58695931D01*
X199014750Y-58803917D01*
X199014738Y-58820466D01*
X199014737Y-58821985D01*
G37*
X193905246Y-62015344D02*
X194182658Y-62021250D01*
X194347613Y-62434000D01*
X194512567Y-62846750D01*
X194316575Y-62857333D01*
X194120583Y-62867917D01*
X194278422Y-63196000D01*
X194315523Y-63273336D01*
X194369288Y-63386162D01*
X194416972Y-63487085D01*
X194454454Y-63567373D01*
X194477615Y-63618289D01*
X194498198Y-63665748D01*
X194508356Y-63694531D01*
X194501378Y-63695500D01*
X194477223Y-63674714D01*
X194473609Y-63671263D01*
X194442765Y-63638472D01*
X194390719Y-63580612D01*
X194321565Y-63502426D01*
X194239393Y-63408656D01*
X194148298Y-63304044D01*
X194052369Y-63193331D01*
X193955701Y-63081259D01*
X193862385Y-62972570D01*
X193776513Y-62872006D01*
X193702177Y-62784308D01*
X193643470Y-62714220D01*
X193604483Y-62666482D01*
X193589310Y-62645836D01*
X193591281Y-62642005D01*
X193621960Y-62632714D01*
X193682033Y-62624938D01*
X193762259Y-62620054D01*
X193941981Y-62613917D01*
X193784907Y-62333477D01*
X193756866Y-62283063D01*
X193705852Y-62189349D01*
X193664925Y-62111490D01*
X193637710Y-62056462D01*
X193627833Y-62031238D01*
X193638729Y-62023976D01*
X193688924Y-62017186D01*
X193778334Y-62014276D01*
X193905246Y-62015344D01*
G36*
X193905246Y-62015344D02*
G01*
X194182658Y-62021250D01*
X194347613Y-62434000D01*
X194512567Y-62846750D01*
X194316575Y-62857333D01*
X194120583Y-62867917D01*
X194278422Y-63196000D01*
X194315523Y-63273336D01*
X194369288Y-63386162D01*
X194416972Y-63487085D01*
X194454454Y-63567373D01*
X194477615Y-63618289D01*
X194498198Y-63665748D01*
X194508356Y-63694531D01*
X194501378Y-63695500D01*
X194477223Y-63674714D01*
X194473609Y-63671263D01*
X194442765Y-63638472D01*
X194390719Y-63580612D01*
X194321565Y-63502426D01*
X194239393Y-63408656D01*
X194148298Y-63304044D01*
X194052369Y-63193331D01*
X193955701Y-63081259D01*
X193862385Y-62972570D01*
X193776513Y-62872006D01*
X193702177Y-62784308D01*
X193643470Y-62714220D01*
X193604483Y-62666482D01*
X193589310Y-62645836D01*
X193591281Y-62642005D01*
X193621960Y-62632714D01*
X193682033Y-62624938D01*
X193762259Y-62620054D01*
X193941981Y-62613917D01*
X193784907Y-62333477D01*
X193756866Y-62283063D01*
X193705852Y-62189349D01*
X193664925Y-62111490D01*
X193637710Y-62056462D01*
X193627833Y-62031238D01*
X193638729Y-62023976D01*
X193688924Y-62017186D01*
X193778334Y-62014276D01*
X193905246Y-62015344D01*
G37*
X193316870Y-60261954D02*
X193331500Y-60295623D01*
X193325914Y-60315945D01*
X193287551Y-60356409D01*
X193219674Y-60394775D01*
X193130417Y-60425779D01*
X193061926Y-60436333D01*
X192969415Y-60435459D01*
X192872977Y-60422445D01*
X192781865Y-60399687D01*
X192705330Y-60369582D01*
X192652625Y-60334527D01*
X192633000Y-60296919D01*
X192633957Y-60285227D01*
X192655483Y-60258052D01*
X192706487Y-60258208D01*
X192788485Y-60285583D01*
X192820633Y-60296180D01*
X192899449Y-60311367D01*
X192982250Y-60317333D01*
X193025937Y-60315504D01*
X193109672Y-60304055D01*
X193176015Y-60285583D01*
X193196722Y-60277264D01*
X193272290Y-60255857D01*
X193316870Y-60261954D01*
G36*
X193316870Y-60261954D02*
G01*
X193331500Y-60295623D01*
X193325914Y-60315945D01*
X193287551Y-60356409D01*
X193219674Y-60394775D01*
X193130417Y-60425779D01*
X193061926Y-60436333D01*
X192969415Y-60435459D01*
X192872977Y-60422445D01*
X192781865Y-60399687D01*
X192705330Y-60369582D01*
X192652625Y-60334527D01*
X192633000Y-60296919D01*
X192633957Y-60285227D01*
X192655483Y-60258052D01*
X192706487Y-60258208D01*
X192788485Y-60285583D01*
X192820633Y-60296180D01*
X192899449Y-60311367D01*
X192982250Y-60317333D01*
X193025937Y-60315504D01*
X193109672Y-60304055D01*
X193176015Y-60285583D01*
X193196722Y-60277264D01*
X193272290Y-60255857D01*
X193316870Y-60261954D01*
G37*
%TD*%
%LPC*%
D13*
%TO.C,U1*%
X161190000Y-103690000D03*
D14*
X161190000Y-106230000D03*
X161190000Y-108770000D03*
X161190000Y-111310000D03*
X168810000Y-111310000D03*
X168810000Y-108770000D03*
X168810000Y-106230000D03*
X168810000Y-103690000D03*
%TD*%
D13*
%TO.C,U4*%
X146190000Y-103690000D03*
D14*
X146190000Y-106230000D03*
X146190000Y-108770000D03*
X146190000Y-111310000D03*
X153810000Y-111310000D03*
X153810000Y-108770000D03*
X153810000Y-106230000D03*
X153810000Y-103690000D03*
%TD*%
D13*
%TO.C,U3*%
X131190000Y-118690000D03*
D14*
X131190000Y-121230000D03*
X131190000Y-123770000D03*
X131190000Y-126310000D03*
X138810000Y-126310000D03*
X138810000Y-123770000D03*
X138810000Y-121230000D03*
X138810000Y-118690000D03*
%TD*%
D15*
%TO.C,R3*%
X172500000Y-103690000D03*
D16*
X172500000Y-111310000D03*
%TD*%
D17*
%TO.C,RV2*%
X160600000Y-122500000D03*
X169400000Y-122500000D03*
D18*
X167500001Y-129500000D03*
X165000000Y-129500000D03*
X162499999Y-129500000D03*
%TD*%
D15*
%TO.C,R19*%
X145940000Y-100750000D03*
D16*
X153560000Y-100750000D03*
%TD*%
D15*
%TO.C,R16*%
X127500000Y-88690000D03*
D16*
X127500000Y-96310000D03*
%TD*%
D19*
%TO.C,D2*%
X160940001Y-100750000D03*
D15*
X168560001Y-100750000D03*
%TD*%
D20*
%TO.C,D1*%
X168809999Y-84500000D03*
D15*
X161189999Y-84500000D03*
%TD*%
D21*
%TO.C,HARD/SOFT1*%
X165000000Y-87800000D03*
X165000000Y-92500000D03*
X165000000Y-97200000D03*
%TD*%
D15*
%TO.C,R17*%
X172500000Y-73690000D03*
D16*
X172500000Y-81310000D03*
%TD*%
D15*
%TO.C,R26*%
X142500000Y-96310000D03*
D16*
X142500000Y-88690000D03*
%TD*%
D17*
%TO.C,RV4*%
X145600000Y-137500000D03*
X154400000Y-137500000D03*
D18*
X152500001Y-144500000D03*
X150000000Y-144500000D03*
X147499999Y-144500000D03*
%TD*%
D15*
%TO.C,R24*%
X131190000Y-132250000D03*
D16*
X138810000Y-132250000D03*
%TD*%
D15*
%TO.C,R7*%
X127500000Y-103750000D03*
D16*
X127500000Y-111370000D03*
%TD*%
D22*
%TO.C,J1*%
X135000000Y-71020000D03*
D23*
X135000000Y-74120000D03*
X135000000Y-82420000D03*
%TD*%
D24*
%TO.C,J5*%
X130000000Y-143550000D03*
D25*
X132000000Y-143550000D03*
X134000000Y-143550000D03*
%TD*%
D15*
%TO.C,R2*%
X157500000Y-81310000D03*
D16*
X157500000Y-73690000D03*
%TD*%
D26*
%TO.C,Q1*%
X136730000Y-92500000D03*
X135000000Y-92500000D03*
D27*
X133230000Y-92500000D03*
%TD*%
D15*
%TO.C,C2*%
X157600000Y-105000000D03*
X157600000Y-110000000D03*
%TD*%
D28*
%TO.C,RV1*%
X152530000Y-77505000D03*
X149990000Y-74965000D03*
X147450000Y-77505000D03*
%TD*%
D13*
%TO.C,U5*%
X146190000Y-118690000D03*
D14*
X146190000Y-121230000D03*
X146190000Y-123770000D03*
X146190000Y-126310000D03*
X153810000Y-126310000D03*
X153810000Y-123770000D03*
X153810000Y-121230000D03*
X153810000Y-118690000D03*
%TD*%
D15*
%TO.C,R11*%
X146130000Y-83500000D03*
D16*
X153750000Y-83500000D03*
%TD*%
D15*
%TO.C,R20*%
X161190000Y-115000000D03*
D16*
X168810000Y-115000000D03*
%TD*%
D15*
%TO.C,C1*%
X142500000Y-125000000D03*
X142500000Y-120000000D03*
%TD*%
%TO.C,R9*%
X161190000Y-139250000D03*
D16*
X168810000Y-139250000D03*
%TD*%
D15*
%TO.C,R14*%
X127500000Y-81310000D03*
D16*
X127500000Y-73690000D03*
%TD*%
D13*
%TO.C,U2*%
X161190000Y-73690000D03*
D14*
X161190000Y-76230000D03*
X161190000Y-78770000D03*
X161190000Y-81310000D03*
X168810000Y-81310000D03*
X168810000Y-78770000D03*
X168810000Y-76230000D03*
X168810000Y-73690000D03*
%TD*%
D15*
%TO.C,R15*%
X138810000Y-139250000D03*
D16*
X131190000Y-139250000D03*
%TD*%
D15*
%TO.C,R8*%
X157500000Y-66310000D03*
D16*
X157500000Y-58690000D03*
%TD*%
D24*
%TO.C,J6*%
X166000000Y-143550000D03*
D25*
X168000000Y-143550000D03*
X170000000Y-143550000D03*
%TD*%
D15*
%TO.C,R22*%
X138810000Y-135750000D03*
D16*
X131190000Y-135750000D03*
%TD*%
D15*
%TO.C,R4*%
X127500000Y-118690000D03*
D16*
X127500000Y-126310000D03*
%TD*%
D15*
%TO.C,R12*%
X157500000Y-96310000D03*
D16*
X157500000Y-88690000D03*
%TD*%
D15*
%TO.C,R1*%
X142500000Y-81310000D03*
D16*
X142500000Y-73690000D03*
%TD*%
D17*
%TO.C,RV3*%
X130600000Y-107500000D03*
X139400000Y-107500000D03*
D18*
X137500001Y-114500000D03*
X135000000Y-114500000D03*
X132499999Y-114500000D03*
%TD*%
D15*
%TO.C,R5*%
X142500000Y-58690000D03*
D16*
X142500000Y-66310000D03*
%TD*%
D15*
%TO.C,R6*%
X146190000Y-129750000D03*
D16*
X153810000Y-129750000D03*
%TD*%
D15*
%TO.C,R13*%
X146190000Y-71000000D03*
D16*
X153810000Y-71000000D03*
%TD*%
D15*
%TO.C,R21*%
X161190000Y-135750000D03*
D16*
X168810000Y-135750000D03*
%TD*%
D15*
%TO.C,R23*%
X146190000Y-115000000D03*
D16*
X153810000Y-115000000D03*
%TD*%
D21*
%TO.C,LP/BP1*%
X150000000Y-87800000D03*
X150000000Y-92500000D03*
X150000000Y-97200000D03*
%TD*%
D15*
%TO.C,R27*%
X142500000Y-111310000D03*
D16*
X142500000Y-103690000D03*
%TD*%
D15*
%TO.C,R25*%
X157500000Y-118940000D03*
D16*
X157500000Y-126560000D03*
%TD*%
D15*
%TO.C,R18*%
X172500000Y-66310000D03*
D16*
X172500000Y-58690000D03*
%TD*%
D15*
%TO.C,R10*%
X127500000Y-58690000D03*
D16*
X127500000Y-66310000D03*
%TD*%
D22*
%TO.C,J3*%
X135000000Y-56020000D03*
D23*
X135000000Y-59120000D03*
X135000000Y-67420000D03*
%TD*%
D22*
%TO.C,J4*%
X165000000Y-56020000D03*
D23*
X165000000Y-59120000D03*
X165000000Y-67420000D03*
%TD*%
D22*
%TO.C,J2*%
X150000000Y-56020000D03*
D23*
X150000000Y-59120000D03*
X150000000Y-67420000D03*
%TD*%
%LPD*%
M02*
