M48
; DRILL file {KiCad 9.0.2} date 2025-06-21T00:54:02+1000
; FORMAT={-:-/ absolute / metric / decimal}
; #@! TF.CreationDate,2025-06-21T00:54:02+10:00
; #@! TF.GenerationSoftware,Kicad,Pcbnew,9.0.2
; #@! TF.FileFunction,Plated,1,2,PTH
FMAT,2
METRIC
; #@! TA.AperFunction,Plated,PTH,ViaDrill
T1C0.300
; #@! TA.AperFunction,Plated,PTH,ComponentDrill
T2C0.750
; #@! TA.AperFunction,Plated,PTH,ComponentDrill
T3C0.800
; #@! TA.AperFunction,Plated,PTH,ComponentDrill
T4C0.900
; #@! TA.AperFunction,Plated,PTH,ComponentDrill
T5C1.000
; #@! TA.AperFunction,Plated,PTH,ComponentDrill
T6C1.200
%
G90
G05
T1
X127.3Y-128.3
X135.0Y-116.8
X135.03Y-119.93
X138.81Y-112.4
X139.5Y-81.3
X140.0Y-129.5
X140.5Y-91.25
X142.52Y-106.23
X143.3Y-83.7
X144.75Y-88.6
X148.4Y-126.2
X150.8Y-105.0
X151.0Y-99.166
X151.25Y-122.5
X153.5Y-80.0
X155.25Y-94.25
X155.75Y-99.3
X156.5Y-98.567
X157.5Y-115.0
X160.0Y-86.2
X160.53Y-93.28
X164.25Y-100.0
X164.799Y-108.3
T2
X130.0Y-143.55
X132.0Y-143.55
X133.23Y-92.5
X134.0Y-143.55
X135.0Y-92.5
X136.73Y-92.5
X166.0Y-143.55
X168.0Y-143.55
X170.0Y-143.55
T3
X127.5Y-58.69
X127.5Y-66.31
X127.5Y-73.69
X127.5Y-81.31
X127.5Y-88.69
X127.5Y-96.31
X127.5Y-103.75
X127.5Y-111.37
X127.5Y-118.69
X127.5Y-126.31
X131.19Y-118.69
X131.19Y-121.23
X131.19Y-123.77
X131.19Y-126.31
X131.19Y-132.25
X131.19Y-135.75
X131.19Y-139.25
X138.81Y-118.69
X138.81Y-121.23
X138.81Y-123.77
X138.81Y-126.31
X138.81Y-132.25
X138.81Y-135.75
X138.81Y-139.25
X142.5Y-58.69
X142.5Y-66.31
X142.5Y-73.69
X142.5Y-81.31
X142.5Y-88.69
X142.5Y-96.31
X142.5Y-103.69
X142.5Y-111.31
X142.5Y-120.0
X142.5Y-125.0
X145.94Y-100.75
X146.13Y-83.5
X146.19Y-71.0
X146.19Y-103.69
X146.19Y-106.23
X146.19Y-108.77
X146.19Y-111.31
X146.19Y-115.0
X146.19Y-118.69
X146.19Y-121.23
X146.19Y-123.77
X146.19Y-126.31
X146.19Y-129.75
X147.45Y-77.505
X149.99Y-74.965
X152.53Y-77.505
X153.56Y-100.75
X153.75Y-83.5
X153.81Y-71.0
X153.81Y-103.69
X153.81Y-106.23
X153.81Y-108.77
X153.81Y-111.31
X153.81Y-115.0
X153.81Y-118.69
X153.81Y-121.23
X153.81Y-123.77
X153.81Y-126.31
X153.81Y-129.75
X157.5Y-58.69
X157.5Y-66.31
X157.5Y-73.69
X157.5Y-81.31
X157.5Y-88.69
X157.5Y-96.31
X157.5Y-118.94
X157.5Y-126.56
X157.6Y-105.0
X157.6Y-110.0
X160.94Y-100.75
X161.19Y-84.5
X161.19Y-73.69
X161.19Y-76.23
X161.19Y-78.77
X161.19Y-81.31
X161.19Y-103.69
X161.19Y-106.23
X161.19Y-108.77
X161.19Y-111.31
X161.19Y-115.0
X161.19Y-135.75
X161.19Y-139.25
X168.56Y-100.75
X168.81Y-84.5
X168.81Y-73.69
X168.81Y-76.23
X168.81Y-78.77
X168.81Y-81.31
X168.81Y-103.69
X168.81Y-106.23
X168.81Y-108.77
X168.81Y-111.31
X168.81Y-115.0
X168.81Y-135.75
X168.81Y-139.25
X172.5Y-58.69
X172.5Y-66.31
X172.5Y-73.69
X172.5Y-81.31
X172.5Y-103.69
X172.5Y-111.31
T5
X132.5Y-114.5
X135.0Y-114.5
X137.5Y-114.5
X147.5Y-144.5
X150.0Y-144.5
X152.5Y-144.5
X162.5Y-129.5
X165.0Y-129.5
X167.5Y-129.5
T6
X135.0Y-56.02
X135.0Y-59.12
X135.0Y-67.42
X135.0Y-71.02
X135.0Y-74.12
X135.0Y-82.42
X150.0Y-56.02
X150.0Y-59.12
X150.0Y-67.42
X165.0Y-56.02
X165.0Y-59.12
X165.0Y-67.42
T4
G00X149.1Y-87.8
M15
G01X150.9Y-87.8
M16
G05
G00X149.1Y-92.5
M15
G01X150.9Y-92.5
M16
G05
G00X149.1Y-97.2
M15
G01X150.9Y-97.2
M16
G05
G00X164.1Y-87.8
M15
G01X165.9Y-87.8
M16
G05
G00X164.1Y-92.5
M15
G01X165.9Y-92.5
M16
G05
G00X164.1Y-97.2
M15
G01X165.9Y-97.2
M16
G05
M30
