%TF.GenerationSoftware,KiCad,Pcbnew,9.0.4*%
%TF.CreationDate,2026-02-02T18:08:19+11:00*%
%TF.ProjectId,LFO,4c464f2e-6b69-4636-9164-5f7063625858,rev?*%
%TF.SameCoordinates,Original*%
%TF.FileFunction,Legend,Top*%
%TF.FilePolarity,Positive*%
%FSLAX46Y46*%
G04 Gerber Fmt 4.6, Leading zero omitted, Abs format (unit mm)*
G04 Created by KiCad (PCBNEW 9.0.4) date 2026-02-02 18:08:19*
%MOMM*%
%LPD*%
G01*
G04 APERTURE LIST*
%ADD10C,0.500000*%
%ADD11C,0.300000*%
%ADD12C,0.150000*%
%ADD13C,0.120000*%
%ADD14C,0.100000*%
G04 APERTURE END LIST*
D10*
X154000000Y-69299999D02*
G75*
G02*
X155500001Y-70799999I0J-1500001D01*
G01*
D11*
X140500000Y-113000000D02*
X140500000Y-115000000D01*
X142500000Y-113000000D02*
X144500000Y-113000000D01*
D10*
X145999999Y-75299999D02*
X154000001Y-75300000D01*
X144499999Y-70799998D02*
X144499999Y-73799998D01*
X145999999Y-75300000D02*
G75*
G02*
X144500000Y-73800000I1J1500000D01*
G01*
D11*
X140500000Y-101500000D02*
X142500000Y-99500000D01*
D10*
X155500000Y-70799999D02*
X155500000Y-73799999D01*
D11*
X155500000Y-115000000D02*
X157500000Y-115000000D01*
X144500000Y-113000000D02*
X144500000Y-115000000D01*
X140500000Y-115000000D02*
X142500000Y-115000000D01*
D10*
X144499999Y-70799998D02*
G75*
G02*
X145999999Y-69299999I1500001J-2D01*
G01*
D11*
X142500000Y-99500000D02*
X144500000Y-101500000D01*
D10*
X146000000Y-69299998D02*
X154000000Y-69299999D01*
D11*
X157500000Y-99500000D02*
X159500000Y-101500000D01*
X157500000Y-113000000D02*
X157500000Y-115000000D01*
X142500000Y-113000000D02*
X142500000Y-115000000D01*
X159500000Y-113000000D02*
X159500000Y-115000000D01*
X155500000Y-101500000D02*
X157500000Y-99500000D01*
X157500000Y-113000000D02*
X159500000Y-113000000D01*
X155500000Y-113000000D02*
X155500000Y-115000000D01*
D10*
X155500001Y-73800000D02*
G75*
G02*
X154000001Y-75300001I-1500001J0D01*
G01*
D11*
X155595237Y-127909638D02*
X154928570Y-126957257D01*
X154452380Y-127909638D02*
X154452380Y-125909638D01*
X154452380Y-125909638D02*
X155214285Y-125909638D01*
X155214285Y-125909638D02*
X155404761Y-126004876D01*
X155404761Y-126004876D02*
X155499999Y-126100114D01*
X155499999Y-126100114D02*
X155595237Y-126290590D01*
X155595237Y-126290590D02*
X155595237Y-126576304D01*
X155595237Y-126576304D02*
X155499999Y-126766780D01*
X155499999Y-126766780D02*
X155404761Y-126862019D01*
X155404761Y-126862019D02*
X155214285Y-126957257D01*
X155214285Y-126957257D02*
X154452380Y-126957257D01*
X156357142Y-127338209D02*
X157309523Y-127338209D01*
X156166666Y-127909638D02*
X156833332Y-125909638D01*
X156833332Y-125909638D02*
X157499999Y-127909638D01*
X157880952Y-125909638D02*
X159023809Y-125909638D01*
X158452380Y-127909638D02*
X158452380Y-125909638D01*
X159690476Y-126862019D02*
X160357143Y-126862019D01*
X160642857Y-127909638D02*
X159690476Y-127909638D01*
X159690476Y-127909638D02*
X159690476Y-125909638D01*
X159690476Y-125909638D02*
X160642857Y-125909638D01*
X155499999Y-51909638D02*
X155880952Y-51909638D01*
X155880952Y-51909638D02*
X156071428Y-52004876D01*
X156071428Y-52004876D02*
X156261904Y-52195352D01*
X156261904Y-52195352D02*
X156357142Y-52576304D01*
X156357142Y-52576304D02*
X156357142Y-53242971D01*
X156357142Y-53242971D02*
X156261904Y-53623923D01*
X156261904Y-53623923D02*
X156071428Y-53814400D01*
X156071428Y-53814400D02*
X155880952Y-53909638D01*
X155880952Y-53909638D02*
X155499999Y-53909638D01*
X155499999Y-53909638D02*
X155309523Y-53814400D01*
X155309523Y-53814400D02*
X155119047Y-53623923D01*
X155119047Y-53623923D02*
X155023809Y-53242971D01*
X155023809Y-53242971D02*
X155023809Y-52576304D01*
X155023809Y-52576304D02*
X155119047Y-52195352D01*
X155119047Y-52195352D02*
X155309523Y-52004876D01*
X155309523Y-52004876D02*
X155499999Y-51909638D01*
X157214285Y-51909638D02*
X157214285Y-53528685D01*
X157214285Y-53528685D02*
X157309523Y-53719161D01*
X157309523Y-53719161D02*
X157404761Y-53814400D01*
X157404761Y-53814400D02*
X157595237Y-53909638D01*
X157595237Y-53909638D02*
X157976190Y-53909638D01*
X157976190Y-53909638D02*
X158166666Y-53814400D01*
X158166666Y-53814400D02*
X158261904Y-53719161D01*
X158261904Y-53719161D02*
X158357142Y-53528685D01*
X158357142Y-53528685D02*
X158357142Y-51909638D01*
X159023809Y-51909638D02*
X160166666Y-51909638D01*
X159595237Y-53909638D02*
X159595237Y-51909638D01*
X140595237Y-127909638D02*
X139928570Y-126957257D01*
X139452380Y-127909638D02*
X139452380Y-125909638D01*
X139452380Y-125909638D02*
X140214285Y-125909638D01*
X140214285Y-125909638D02*
X140404761Y-126004876D01*
X140404761Y-126004876D02*
X140499999Y-126100114D01*
X140499999Y-126100114D02*
X140595237Y-126290590D01*
X140595237Y-126290590D02*
X140595237Y-126576304D01*
X140595237Y-126576304D02*
X140499999Y-126766780D01*
X140499999Y-126766780D02*
X140404761Y-126862019D01*
X140404761Y-126862019D02*
X140214285Y-126957257D01*
X140214285Y-126957257D02*
X139452380Y-126957257D01*
X141357142Y-127338209D02*
X142309523Y-127338209D01*
X141166666Y-127909638D02*
X141833332Y-125909638D01*
X141833332Y-125909638D02*
X142499999Y-127909638D01*
X142880952Y-125909638D02*
X144023809Y-125909638D01*
X143452380Y-127909638D02*
X143452380Y-125909638D01*
X144690476Y-126862019D02*
X145357143Y-126862019D01*
X145642857Y-127909638D02*
X144690476Y-127909638D01*
X144690476Y-127909638D02*
X144690476Y-125909638D01*
X144690476Y-125909638D02*
X145642857Y-125909638D01*
D10*
X148071429Y-73861857D02*
X146642857Y-73861857D01*
X146642857Y-73861857D02*
X146642857Y-70861857D01*
X150071428Y-72290428D02*
X149071428Y-72290428D01*
X149071428Y-73861857D02*
X149071428Y-70861857D01*
X149071428Y-70861857D02*
X150500000Y-70861857D01*
X152214286Y-70861857D02*
X152785714Y-70861857D01*
X152785714Y-70861857D02*
X153071429Y-71004714D01*
X153071429Y-71004714D02*
X153357143Y-71290428D01*
X153357143Y-71290428D02*
X153500000Y-71861857D01*
X153500000Y-71861857D02*
X153500000Y-72861857D01*
X153500000Y-72861857D02*
X153357143Y-73433285D01*
X153357143Y-73433285D02*
X153071429Y-73719000D01*
X153071429Y-73719000D02*
X152785714Y-73861857D01*
X152785714Y-73861857D02*
X152214286Y-73861857D01*
X152214286Y-73861857D02*
X151928572Y-73719000D01*
X151928572Y-73719000D02*
X151642857Y-73433285D01*
X151642857Y-73433285D02*
X151500000Y-72861857D01*
X151500000Y-72861857D02*
X151500000Y-71861857D01*
X151500000Y-71861857D02*
X151642857Y-71290428D01*
X151642857Y-71290428D02*
X151928572Y-71004714D01*
X151928572Y-71004714D02*
X152214286Y-70861857D01*
D11*
X140499999Y-51909638D02*
X140880952Y-51909638D01*
X140880952Y-51909638D02*
X141071428Y-52004876D01*
X141071428Y-52004876D02*
X141261904Y-52195352D01*
X141261904Y-52195352D02*
X141357142Y-52576304D01*
X141357142Y-52576304D02*
X141357142Y-53242971D01*
X141357142Y-53242971D02*
X141261904Y-53623923D01*
X141261904Y-53623923D02*
X141071428Y-53814400D01*
X141071428Y-53814400D02*
X140880952Y-53909638D01*
X140880952Y-53909638D02*
X140499999Y-53909638D01*
X140499999Y-53909638D02*
X140309523Y-53814400D01*
X140309523Y-53814400D02*
X140119047Y-53623923D01*
X140119047Y-53623923D02*
X140023809Y-53242971D01*
X140023809Y-53242971D02*
X140023809Y-52576304D01*
X140023809Y-52576304D02*
X140119047Y-52195352D01*
X140119047Y-52195352D02*
X140309523Y-52004876D01*
X140309523Y-52004876D02*
X140499999Y-51909638D01*
X142214285Y-51909638D02*
X142214285Y-53528685D01*
X142214285Y-53528685D02*
X142309523Y-53719161D01*
X142309523Y-53719161D02*
X142404761Y-53814400D01*
X142404761Y-53814400D02*
X142595237Y-53909638D01*
X142595237Y-53909638D02*
X142976190Y-53909638D01*
X142976190Y-53909638D02*
X143166666Y-53814400D01*
X143166666Y-53814400D02*
X143261904Y-53719161D01*
X143261904Y-53719161D02*
X143357142Y-53528685D01*
X143357142Y-53528685D02*
X143357142Y-51909638D01*
X144023809Y-51909638D02*
X145166666Y-51909638D01*
X144595237Y-53909638D02*
X144595237Y-51909638D01*
D12*
X142333333Y-85359581D02*
X142285714Y-85407201D01*
X142285714Y-85407201D02*
X142142857Y-85454820D01*
X142142857Y-85454820D02*
X142047619Y-85454820D01*
X142047619Y-85454820D02*
X141904762Y-85407201D01*
X141904762Y-85407201D02*
X141809524Y-85311962D01*
X141809524Y-85311962D02*
X141761905Y-85216724D01*
X141761905Y-85216724D02*
X141714286Y-85026248D01*
X141714286Y-85026248D02*
X141714286Y-84883391D01*
X141714286Y-84883391D02*
X141761905Y-84692915D01*
X141761905Y-84692915D02*
X141809524Y-84597677D01*
X141809524Y-84597677D02*
X141904762Y-84502439D01*
X141904762Y-84502439D02*
X142047619Y-84454820D01*
X142047619Y-84454820D02*
X142142857Y-84454820D01*
X142142857Y-84454820D02*
X142285714Y-84502439D01*
X142285714Y-84502439D02*
X142333333Y-84550058D01*
X143285714Y-85454820D02*
X142714286Y-85454820D01*
X143000000Y-85454820D02*
X143000000Y-84454820D01*
X143000000Y-84454820D02*
X142904762Y-84597677D01*
X142904762Y-84597677D02*
X142809524Y-84692915D01*
X142809524Y-84692915D02*
X142714286Y-84740534D01*
X156803095Y-92024819D02*
X156803095Y-92834342D01*
X156803095Y-92834342D02*
X156850714Y-92929580D01*
X156850714Y-92929580D02*
X156898333Y-92977200D01*
X156898333Y-92977200D02*
X156993571Y-93024819D01*
X156993571Y-93024819D02*
X157184047Y-93024819D01*
X157184047Y-93024819D02*
X157279285Y-92977200D01*
X157279285Y-92977200D02*
X157326904Y-92929580D01*
X157326904Y-92929580D02*
X157374523Y-92834342D01*
X157374523Y-92834342D02*
X157374523Y-92024819D01*
X157803095Y-92120057D02*
X157850714Y-92072438D01*
X157850714Y-92072438D02*
X157945952Y-92024819D01*
X157945952Y-92024819D02*
X158184047Y-92024819D01*
X158184047Y-92024819D02*
X158279285Y-92072438D01*
X158279285Y-92072438D02*
X158326904Y-92120057D01*
X158326904Y-92120057D02*
X158374523Y-92215295D01*
X158374523Y-92215295D02*
X158374523Y-92310533D01*
X158374523Y-92310533D02*
X158326904Y-92453390D01*
X158326904Y-92453390D02*
X157755476Y-93024819D01*
X157755476Y-93024819D02*
X158374523Y-93024819D01*
X136333333Y-119454819D02*
X136000000Y-118978628D01*
X135761905Y-119454819D02*
X135761905Y-118454819D01*
X135761905Y-118454819D02*
X136142857Y-118454819D01*
X136142857Y-118454819D02*
X136238095Y-118502438D01*
X136238095Y-118502438D02*
X136285714Y-118550057D01*
X136285714Y-118550057D02*
X136333333Y-118645295D01*
X136333333Y-118645295D02*
X136333333Y-118788152D01*
X136333333Y-118788152D02*
X136285714Y-118883390D01*
X136285714Y-118883390D02*
X136238095Y-118931009D01*
X136238095Y-118931009D02*
X136142857Y-118978628D01*
X136142857Y-118978628D02*
X135761905Y-118978628D01*
X136714286Y-118550057D02*
X136761905Y-118502438D01*
X136761905Y-118502438D02*
X136857143Y-118454819D01*
X136857143Y-118454819D02*
X137095238Y-118454819D01*
X137095238Y-118454819D02*
X137190476Y-118502438D01*
X137190476Y-118502438D02*
X137238095Y-118550057D01*
X137238095Y-118550057D02*
X137285714Y-118645295D01*
X137285714Y-118645295D02*
X137285714Y-118740533D01*
X137285714Y-118740533D02*
X137238095Y-118883390D01*
X137238095Y-118883390D02*
X136666667Y-119454819D01*
X136666667Y-119454819D02*
X137285714Y-119454819D01*
X157333333Y-85359581D02*
X157285714Y-85407201D01*
X157285714Y-85407201D02*
X157142857Y-85454820D01*
X157142857Y-85454820D02*
X157047619Y-85454820D01*
X157047619Y-85454820D02*
X156904762Y-85407201D01*
X156904762Y-85407201D02*
X156809524Y-85311962D01*
X156809524Y-85311962D02*
X156761905Y-85216724D01*
X156761905Y-85216724D02*
X156714286Y-85026248D01*
X156714286Y-85026248D02*
X156714286Y-84883391D01*
X156714286Y-84883391D02*
X156761905Y-84692915D01*
X156761905Y-84692915D02*
X156809524Y-84597677D01*
X156809524Y-84597677D02*
X156904762Y-84502439D01*
X156904762Y-84502439D02*
X157047619Y-84454820D01*
X157047619Y-84454820D02*
X157142857Y-84454820D01*
X157142857Y-84454820D02*
X157285714Y-84502439D01*
X157285714Y-84502439D02*
X157333333Y-84550058D01*
X157714286Y-84550058D02*
X157761905Y-84502439D01*
X157761905Y-84502439D02*
X157857143Y-84454820D01*
X157857143Y-84454820D02*
X158095238Y-84454820D01*
X158095238Y-84454820D02*
X158190476Y-84502439D01*
X158190476Y-84502439D02*
X158238095Y-84550058D01*
X158238095Y-84550058D02*
X158285714Y-84645296D01*
X158285714Y-84645296D02*
X158285714Y-84740534D01*
X158285714Y-84740534D02*
X158238095Y-84883391D01*
X158238095Y-84883391D02*
X157666667Y-85454820D01*
X157666667Y-85454820D02*
X158285714Y-85454820D01*
X163333333Y-122954819D02*
X163000000Y-122478628D01*
X162761905Y-122954819D02*
X162761905Y-121954819D01*
X162761905Y-121954819D02*
X163142857Y-121954819D01*
X163142857Y-121954819D02*
X163238095Y-122002438D01*
X163238095Y-122002438D02*
X163285714Y-122050057D01*
X163285714Y-122050057D02*
X163333333Y-122145295D01*
X163333333Y-122145295D02*
X163333333Y-122288152D01*
X163333333Y-122288152D02*
X163285714Y-122383390D01*
X163285714Y-122383390D02*
X163238095Y-122431009D01*
X163238095Y-122431009D02*
X163142857Y-122478628D01*
X163142857Y-122478628D02*
X162761905Y-122478628D01*
X164238095Y-121954819D02*
X163761905Y-121954819D01*
X163761905Y-121954819D02*
X163714286Y-122431009D01*
X163714286Y-122431009D02*
X163761905Y-122383390D01*
X163761905Y-122383390D02*
X163857143Y-122335771D01*
X163857143Y-122335771D02*
X164095238Y-122335771D01*
X164095238Y-122335771D02*
X164190476Y-122383390D01*
X164190476Y-122383390D02*
X164238095Y-122431009D01*
X164238095Y-122431009D02*
X164285714Y-122526247D01*
X164285714Y-122526247D02*
X164285714Y-122764342D01*
X164285714Y-122764342D02*
X164238095Y-122859580D01*
X164238095Y-122859580D02*
X164190476Y-122907200D01*
X164190476Y-122907200D02*
X164095238Y-122954819D01*
X164095238Y-122954819D02*
X163857143Y-122954819D01*
X163857143Y-122954819D02*
X163761905Y-122907200D01*
X163761905Y-122907200D02*
X163714286Y-122859580D01*
X136954819Y-134095238D02*
X136478628Y-134428571D01*
X136954819Y-134666666D02*
X135954819Y-134666666D01*
X135954819Y-134666666D02*
X135954819Y-134285714D01*
X135954819Y-134285714D02*
X136002438Y-134190476D01*
X136002438Y-134190476D02*
X136050057Y-134142857D01*
X136050057Y-134142857D02*
X136145295Y-134095238D01*
X136145295Y-134095238D02*
X136288152Y-134095238D01*
X136288152Y-134095238D02*
X136383390Y-134142857D01*
X136383390Y-134142857D02*
X136431009Y-134190476D01*
X136431009Y-134190476D02*
X136478628Y-134285714D01*
X136478628Y-134285714D02*
X136478628Y-134666666D01*
X135954819Y-133809523D02*
X136954819Y-133476190D01*
X136954819Y-133476190D02*
X135954819Y-133142857D01*
X136954819Y-132285714D02*
X136954819Y-132857142D01*
X136954819Y-132571428D02*
X135954819Y-132571428D01*
X135954819Y-132571428D02*
X136097676Y-132666666D01*
X136097676Y-132666666D02*
X136192914Y-132761904D01*
X136192914Y-132761904D02*
X136240533Y-132857142D01*
X151954819Y-134095238D02*
X151478628Y-134428571D01*
X151954819Y-134666666D02*
X150954819Y-134666666D01*
X150954819Y-134666666D02*
X150954819Y-134285714D01*
X150954819Y-134285714D02*
X151002438Y-134190476D01*
X151002438Y-134190476D02*
X151050057Y-134142857D01*
X151050057Y-134142857D02*
X151145295Y-134095238D01*
X151145295Y-134095238D02*
X151288152Y-134095238D01*
X151288152Y-134095238D02*
X151383390Y-134142857D01*
X151383390Y-134142857D02*
X151431009Y-134190476D01*
X151431009Y-134190476D02*
X151478628Y-134285714D01*
X151478628Y-134285714D02*
X151478628Y-134666666D01*
X150954819Y-133809523D02*
X151954819Y-133476190D01*
X151954819Y-133476190D02*
X150954819Y-133142857D01*
X151050057Y-132857142D02*
X151002438Y-132809523D01*
X151002438Y-132809523D02*
X150954819Y-132714285D01*
X150954819Y-132714285D02*
X150954819Y-132476190D01*
X150954819Y-132476190D02*
X151002438Y-132380952D01*
X151002438Y-132380952D02*
X151050057Y-132333333D01*
X151050057Y-132333333D02*
X151145295Y-132285714D01*
X151145295Y-132285714D02*
X151240533Y-132285714D01*
X151240533Y-132285714D02*
X151383390Y-132333333D01*
X151383390Y-132333333D02*
X151954819Y-132904761D01*
X151954819Y-132904761D02*
X151954819Y-132285714D01*
X141666666Y-143954819D02*
X141666666Y-144669104D01*
X141666666Y-144669104D02*
X141619047Y-144811961D01*
X141619047Y-144811961D02*
X141523809Y-144907200D01*
X141523809Y-144907200D02*
X141380952Y-144954819D01*
X141380952Y-144954819D02*
X141285714Y-144954819D01*
X142047619Y-143954819D02*
X142666666Y-143954819D01*
X142666666Y-143954819D02*
X142333333Y-144335771D01*
X142333333Y-144335771D02*
X142476190Y-144335771D01*
X142476190Y-144335771D02*
X142571428Y-144383390D01*
X142571428Y-144383390D02*
X142619047Y-144431009D01*
X142619047Y-144431009D02*
X142666666Y-144526247D01*
X142666666Y-144526247D02*
X142666666Y-144764342D01*
X142666666Y-144764342D02*
X142619047Y-144859580D01*
X142619047Y-144859580D02*
X142571428Y-144907200D01*
X142571428Y-144907200D02*
X142476190Y-144954819D01*
X142476190Y-144954819D02*
X142190476Y-144954819D01*
X142190476Y-144954819D02*
X142095238Y-144907200D01*
X142095238Y-144907200D02*
X142047619Y-144859580D01*
X163333333Y-119454819D02*
X163000000Y-118978628D01*
X162761905Y-119454819D02*
X162761905Y-118454819D01*
X162761905Y-118454819D02*
X163142857Y-118454819D01*
X163142857Y-118454819D02*
X163238095Y-118502438D01*
X163238095Y-118502438D02*
X163285714Y-118550057D01*
X163285714Y-118550057D02*
X163333333Y-118645295D01*
X163333333Y-118645295D02*
X163333333Y-118788152D01*
X163333333Y-118788152D02*
X163285714Y-118883390D01*
X163285714Y-118883390D02*
X163238095Y-118931009D01*
X163238095Y-118931009D02*
X163142857Y-118978628D01*
X163142857Y-118978628D02*
X162761905Y-118978628D01*
X164190476Y-118454819D02*
X164000000Y-118454819D01*
X164000000Y-118454819D02*
X163904762Y-118502438D01*
X163904762Y-118502438D02*
X163857143Y-118550057D01*
X163857143Y-118550057D02*
X163761905Y-118692914D01*
X163761905Y-118692914D02*
X163714286Y-118883390D01*
X163714286Y-118883390D02*
X163714286Y-119264342D01*
X163714286Y-119264342D02*
X163761905Y-119359580D01*
X163761905Y-119359580D02*
X163809524Y-119407200D01*
X163809524Y-119407200D02*
X163904762Y-119454819D01*
X163904762Y-119454819D02*
X164095238Y-119454819D01*
X164095238Y-119454819D02*
X164190476Y-119407200D01*
X164190476Y-119407200D02*
X164238095Y-119359580D01*
X164238095Y-119359580D02*
X164285714Y-119264342D01*
X164285714Y-119264342D02*
X164285714Y-119026247D01*
X164285714Y-119026247D02*
X164238095Y-118931009D01*
X164238095Y-118931009D02*
X164190476Y-118883390D01*
X164190476Y-118883390D02*
X164095238Y-118835771D01*
X164095238Y-118835771D02*
X163904762Y-118835771D01*
X163904762Y-118835771D02*
X163809524Y-118883390D01*
X163809524Y-118883390D02*
X163761905Y-118931009D01*
X163761905Y-118931009D02*
X163714286Y-119026247D01*
X157666666Y-143954819D02*
X157666666Y-144669104D01*
X157666666Y-144669104D02*
X157619047Y-144811961D01*
X157619047Y-144811961D02*
X157523809Y-144907200D01*
X157523809Y-144907200D02*
X157380952Y-144954819D01*
X157380952Y-144954819D02*
X157285714Y-144954819D01*
X158571428Y-144288152D02*
X158571428Y-144954819D01*
X158333333Y-143907200D02*
X158095238Y-144621485D01*
X158095238Y-144621485D02*
X158714285Y-144621485D01*
X136333333Y-81454819D02*
X136000000Y-80978628D01*
X135761905Y-81454819D02*
X135761905Y-80454819D01*
X135761905Y-80454819D02*
X136142857Y-80454819D01*
X136142857Y-80454819D02*
X136238095Y-80502438D01*
X136238095Y-80502438D02*
X136285714Y-80550057D01*
X136285714Y-80550057D02*
X136333333Y-80645295D01*
X136333333Y-80645295D02*
X136333333Y-80788152D01*
X136333333Y-80788152D02*
X136285714Y-80883390D01*
X136285714Y-80883390D02*
X136238095Y-80931009D01*
X136238095Y-80931009D02*
X136142857Y-80978628D01*
X136142857Y-80978628D02*
X135761905Y-80978628D01*
X136666667Y-80454819D02*
X137285714Y-80454819D01*
X137285714Y-80454819D02*
X136952381Y-80835771D01*
X136952381Y-80835771D02*
X137095238Y-80835771D01*
X137095238Y-80835771D02*
X137190476Y-80883390D01*
X137190476Y-80883390D02*
X137238095Y-80931009D01*
X137238095Y-80931009D02*
X137285714Y-81026247D01*
X137285714Y-81026247D02*
X137285714Y-81264342D01*
X137285714Y-81264342D02*
X137238095Y-81359580D01*
X137238095Y-81359580D02*
X137190476Y-81407200D01*
X137190476Y-81407200D02*
X137095238Y-81454819D01*
X137095238Y-81454819D02*
X136809524Y-81454819D01*
X136809524Y-81454819D02*
X136714286Y-81407200D01*
X136714286Y-81407200D02*
X136666667Y-81359580D01*
X136333333Y-77954819D02*
X136000000Y-77478628D01*
X135761905Y-77954819D02*
X135761905Y-76954819D01*
X135761905Y-76954819D02*
X136142857Y-76954819D01*
X136142857Y-76954819D02*
X136238095Y-77002438D01*
X136238095Y-77002438D02*
X136285714Y-77050057D01*
X136285714Y-77050057D02*
X136333333Y-77145295D01*
X136333333Y-77145295D02*
X136333333Y-77288152D01*
X136333333Y-77288152D02*
X136285714Y-77383390D01*
X136285714Y-77383390D02*
X136238095Y-77431009D01*
X136238095Y-77431009D02*
X136142857Y-77478628D01*
X136142857Y-77478628D02*
X135761905Y-77478628D01*
X137190476Y-77288152D02*
X137190476Y-77954819D01*
X136952381Y-76907200D02*
X136714286Y-77621485D01*
X136714286Y-77621485D02*
X137333333Y-77621485D01*
X153907200Y-108833332D02*
X153954819Y-108690475D01*
X153954819Y-108690475D02*
X153954819Y-108452380D01*
X153954819Y-108452380D02*
X153907200Y-108357142D01*
X153907200Y-108357142D02*
X153859580Y-108309523D01*
X153859580Y-108309523D02*
X153764342Y-108261904D01*
X153764342Y-108261904D02*
X153669104Y-108261904D01*
X153669104Y-108261904D02*
X153573866Y-108309523D01*
X153573866Y-108309523D02*
X153526247Y-108357142D01*
X153526247Y-108357142D02*
X153478628Y-108452380D01*
X153478628Y-108452380D02*
X153431009Y-108642856D01*
X153431009Y-108642856D02*
X153383390Y-108738094D01*
X153383390Y-108738094D02*
X153335771Y-108785713D01*
X153335771Y-108785713D02*
X153240533Y-108833332D01*
X153240533Y-108833332D02*
X153145295Y-108833332D01*
X153145295Y-108833332D02*
X153050057Y-108785713D01*
X153050057Y-108785713D02*
X153002438Y-108738094D01*
X153002438Y-108738094D02*
X152954819Y-108642856D01*
X152954819Y-108642856D02*
X152954819Y-108404761D01*
X152954819Y-108404761D02*
X153002438Y-108261904D01*
X152954819Y-107928570D02*
X153954819Y-107690475D01*
X153954819Y-107690475D02*
X153240533Y-107499999D01*
X153240533Y-107499999D02*
X153954819Y-107309523D01*
X153954819Y-107309523D02*
X152954819Y-107071428D01*
X153050057Y-106738094D02*
X153002438Y-106690475D01*
X153002438Y-106690475D02*
X152954819Y-106595237D01*
X152954819Y-106595237D02*
X152954819Y-106357142D01*
X152954819Y-106357142D02*
X153002438Y-106261904D01*
X153002438Y-106261904D02*
X153050057Y-106214285D01*
X153050057Y-106214285D02*
X153145295Y-106166666D01*
X153145295Y-106166666D02*
X153240533Y-106166666D01*
X153240533Y-106166666D02*
X153383390Y-106214285D01*
X153383390Y-106214285D02*
X153954819Y-106785713D01*
X153954819Y-106785713D02*
X153954819Y-106166666D01*
X138136666Y-56554819D02*
X138136666Y-57269104D01*
X138136666Y-57269104D02*
X138089047Y-57411961D01*
X138089047Y-57411961D02*
X137993809Y-57507200D01*
X137993809Y-57507200D02*
X137850952Y-57554819D01*
X137850952Y-57554819D02*
X137755714Y-57554819D01*
X139136666Y-57554819D02*
X138565238Y-57554819D01*
X138850952Y-57554819D02*
X138850952Y-56554819D01*
X138850952Y-56554819D02*
X138755714Y-56697676D01*
X138755714Y-56697676D02*
X138660476Y-56792914D01*
X138660476Y-56792914D02*
X138565238Y-56840533D01*
X136333333Y-122954819D02*
X136000000Y-122478628D01*
X135761905Y-122954819D02*
X135761905Y-121954819D01*
X135761905Y-121954819D02*
X136142857Y-121954819D01*
X136142857Y-121954819D02*
X136238095Y-122002438D01*
X136238095Y-122002438D02*
X136285714Y-122050057D01*
X136285714Y-122050057D02*
X136333333Y-122145295D01*
X136333333Y-122145295D02*
X136333333Y-122288152D01*
X136333333Y-122288152D02*
X136285714Y-122383390D01*
X136285714Y-122383390D02*
X136238095Y-122431009D01*
X136238095Y-122431009D02*
X136142857Y-122478628D01*
X136142857Y-122478628D02*
X135761905Y-122478628D01*
X137285714Y-122954819D02*
X136714286Y-122954819D01*
X137000000Y-122954819D02*
X137000000Y-121954819D01*
X137000000Y-121954819D02*
X136904762Y-122097676D01*
X136904762Y-122097676D02*
X136809524Y-122192914D01*
X136809524Y-122192914D02*
X136714286Y-122240533D01*
X153136666Y-56554819D02*
X153136666Y-57269104D01*
X153136666Y-57269104D02*
X153089047Y-57411961D01*
X153089047Y-57411961D02*
X152993809Y-57507200D01*
X152993809Y-57507200D02*
X152850952Y-57554819D01*
X152850952Y-57554819D02*
X152755714Y-57554819D01*
X153565238Y-56650057D02*
X153612857Y-56602438D01*
X153612857Y-56602438D02*
X153708095Y-56554819D01*
X153708095Y-56554819D02*
X153946190Y-56554819D01*
X153946190Y-56554819D02*
X154041428Y-56602438D01*
X154041428Y-56602438D02*
X154089047Y-56650057D01*
X154089047Y-56650057D02*
X154136666Y-56745295D01*
X154136666Y-56745295D02*
X154136666Y-56840533D01*
X154136666Y-56840533D02*
X154089047Y-56983390D01*
X154089047Y-56983390D02*
X153517619Y-57554819D01*
X153517619Y-57554819D02*
X154136666Y-57554819D01*
X138907200Y-108833332D02*
X138954819Y-108690475D01*
X138954819Y-108690475D02*
X138954819Y-108452380D01*
X138954819Y-108452380D02*
X138907200Y-108357142D01*
X138907200Y-108357142D02*
X138859580Y-108309523D01*
X138859580Y-108309523D02*
X138764342Y-108261904D01*
X138764342Y-108261904D02*
X138669104Y-108261904D01*
X138669104Y-108261904D02*
X138573866Y-108309523D01*
X138573866Y-108309523D02*
X138526247Y-108357142D01*
X138526247Y-108357142D02*
X138478628Y-108452380D01*
X138478628Y-108452380D02*
X138431009Y-108642856D01*
X138431009Y-108642856D02*
X138383390Y-108738094D01*
X138383390Y-108738094D02*
X138335771Y-108785713D01*
X138335771Y-108785713D02*
X138240533Y-108833332D01*
X138240533Y-108833332D02*
X138145295Y-108833332D01*
X138145295Y-108833332D02*
X138050057Y-108785713D01*
X138050057Y-108785713D02*
X138002438Y-108738094D01*
X138002438Y-108738094D02*
X137954819Y-108642856D01*
X137954819Y-108642856D02*
X137954819Y-108404761D01*
X137954819Y-108404761D02*
X138002438Y-108261904D01*
X137954819Y-107928570D02*
X138954819Y-107690475D01*
X138954819Y-107690475D02*
X138240533Y-107499999D01*
X138240533Y-107499999D02*
X138954819Y-107309523D01*
X138954819Y-107309523D02*
X137954819Y-107071428D01*
X138954819Y-106166666D02*
X138954819Y-106738094D01*
X138954819Y-106452380D02*
X137954819Y-106452380D01*
X137954819Y-106452380D02*
X138097676Y-106547618D01*
X138097676Y-106547618D02*
X138192914Y-106642856D01*
X138192914Y-106642856D02*
X138240533Y-106738094D01*
X141803095Y-92024819D02*
X141803095Y-92834342D01*
X141803095Y-92834342D02*
X141850714Y-92929580D01*
X141850714Y-92929580D02*
X141898333Y-92977200D01*
X141898333Y-92977200D02*
X141993571Y-93024819D01*
X141993571Y-93024819D02*
X142184047Y-93024819D01*
X142184047Y-93024819D02*
X142279285Y-92977200D01*
X142279285Y-92977200D02*
X142326904Y-92929580D01*
X142326904Y-92929580D02*
X142374523Y-92834342D01*
X142374523Y-92834342D02*
X142374523Y-92024819D01*
X143374523Y-93024819D02*
X142803095Y-93024819D01*
X143088809Y-93024819D02*
X143088809Y-92024819D01*
X143088809Y-92024819D02*
X142993571Y-92167676D01*
X142993571Y-92167676D02*
X142898333Y-92262914D01*
X142898333Y-92262914D02*
X142803095Y-92310533D01*
X163333333Y-81454819D02*
X163000000Y-80978628D01*
X162761905Y-81454819D02*
X162761905Y-80454819D01*
X162761905Y-80454819D02*
X163142857Y-80454819D01*
X163142857Y-80454819D02*
X163238095Y-80502438D01*
X163238095Y-80502438D02*
X163285714Y-80550057D01*
X163285714Y-80550057D02*
X163333333Y-80645295D01*
X163333333Y-80645295D02*
X163333333Y-80788152D01*
X163333333Y-80788152D02*
X163285714Y-80883390D01*
X163285714Y-80883390D02*
X163238095Y-80931009D01*
X163238095Y-80931009D02*
X163142857Y-80978628D01*
X163142857Y-80978628D02*
X162761905Y-80978628D01*
X163666667Y-80454819D02*
X164333333Y-80454819D01*
X164333333Y-80454819D02*
X163904762Y-81454819D01*
X163333334Y-77954819D02*
X163000001Y-77478628D01*
X162761906Y-77954819D02*
X162761906Y-76954819D01*
X162761906Y-76954819D02*
X163142858Y-76954819D01*
X163142858Y-76954819D02*
X163238096Y-77002438D01*
X163238096Y-77002438D02*
X163285715Y-77050057D01*
X163285715Y-77050057D02*
X163333334Y-77145295D01*
X163333334Y-77145295D02*
X163333334Y-77288152D01*
X163333334Y-77288152D02*
X163285715Y-77383390D01*
X163285715Y-77383390D02*
X163238096Y-77431009D01*
X163238096Y-77431009D02*
X163142858Y-77478628D01*
X163142858Y-77478628D02*
X162761906Y-77478628D01*
X163904763Y-77383390D02*
X163809525Y-77335771D01*
X163809525Y-77335771D02*
X163761906Y-77288152D01*
X163761906Y-77288152D02*
X163714287Y-77192914D01*
X163714287Y-77192914D02*
X163714287Y-77145295D01*
X163714287Y-77145295D02*
X163761906Y-77050057D01*
X163761906Y-77050057D02*
X163809525Y-77002438D01*
X163809525Y-77002438D02*
X163904763Y-76954819D01*
X163904763Y-76954819D02*
X164095239Y-76954819D01*
X164095239Y-76954819D02*
X164190477Y-77002438D01*
X164190477Y-77002438D02*
X164238096Y-77050057D01*
X164238096Y-77050057D02*
X164285715Y-77145295D01*
X164285715Y-77145295D02*
X164285715Y-77192914D01*
X164285715Y-77192914D02*
X164238096Y-77288152D01*
X164238096Y-77288152D02*
X164190477Y-77335771D01*
X164190477Y-77335771D02*
X164095239Y-77383390D01*
X164095239Y-77383390D02*
X163904763Y-77383390D01*
X163904763Y-77383390D02*
X163809525Y-77431009D01*
X163809525Y-77431009D02*
X163761906Y-77478628D01*
X163761906Y-77478628D02*
X163714287Y-77573866D01*
X163714287Y-77573866D02*
X163714287Y-77764342D01*
X163714287Y-77764342D02*
X163761906Y-77859580D01*
X163761906Y-77859580D02*
X163809525Y-77907200D01*
X163809525Y-77907200D02*
X163904763Y-77954819D01*
X163904763Y-77954819D02*
X164095239Y-77954819D01*
X164095239Y-77954819D02*
X164190477Y-77907200D01*
X164190477Y-77907200D02*
X164238096Y-77859580D01*
X164238096Y-77859580D02*
X164285715Y-77764342D01*
X164285715Y-77764342D02*
X164285715Y-77573866D01*
X164285715Y-77573866D02*
X164238096Y-77478628D01*
X164238096Y-77478628D02*
X164190477Y-77431009D01*
X164190477Y-77431009D02*
X164095239Y-77383390D01*
D13*
%TO.C,C1*%
X140000000Y-83600000D02*
X145000000Y-83600000D01*
X140000000Y-84000000D02*
X140000000Y-83600000D01*
X140000000Y-86000000D02*
X140000000Y-86400000D01*
X140000000Y-86400000D02*
X145000000Y-86400000D01*
X145000000Y-83600000D02*
X145000000Y-84000000D01*
X145000000Y-86400000D02*
X145000000Y-86000000D01*
%TO.C,U2*%
X155250000Y-87860000D02*
X155250000Y-97090000D01*
X155250000Y-97090000D02*
X159750000Y-97090000D01*
X156500000Y-87860000D02*
X155250000Y-87860000D01*
X159750000Y-87860000D02*
X158500000Y-87860000D01*
X159750000Y-97090000D02*
X159750000Y-87860000D01*
X158500000Y-87860000D02*
G75*
G02*
X156500000Y-87860000I-1000000J0D01*
G01*
%TO.C,R2*%
X139230000Y-117630000D02*
X145770000Y-117630000D01*
X139230000Y-117960000D02*
X139230000Y-117630000D01*
X139230000Y-120040000D02*
X139230000Y-120370000D01*
X139230000Y-120370000D02*
X145770000Y-120370000D01*
X145770000Y-117630000D02*
X145770000Y-117960000D01*
X145770000Y-120370000D02*
X145770000Y-120040000D01*
%TO.C,C2*%
X155000000Y-83600000D02*
X160000000Y-83600000D01*
X155000000Y-84000000D02*
X155000000Y-83600000D01*
X155000000Y-86000000D02*
X155000000Y-86400000D01*
X155000000Y-86400000D02*
X160000000Y-86400000D01*
X160000000Y-83600000D02*
X160000000Y-84000000D01*
X160000000Y-86400000D02*
X160000000Y-86000000D01*
%TO.C,R5*%
X154230000Y-121130000D02*
X160770000Y-121130000D01*
X154230000Y-121460000D02*
X154230000Y-121130000D01*
X154230000Y-123540000D02*
X154230000Y-123870000D01*
X154230000Y-123870000D02*
X160770000Y-123870000D01*
X160770000Y-121130000D02*
X160770000Y-121460000D01*
X160770000Y-123870000D02*
X160770000Y-123540000D01*
%TO.C,RV1*%
X137600001Y-132000000D02*
X137600000Y-135400001D01*
X137600001Y-139600000D02*
X137600001Y-143000000D01*
X137600001Y-143000000D02*
X147399999Y-143000000D01*
X147399999Y-132000000D02*
X137600001Y-132000000D01*
X147399999Y-132000000D02*
X147399999Y-135400000D01*
X147400000Y-139599999D02*
X147399999Y-143000000D01*
X139779707Y-136139853D02*
G75*
G02*
X145199999Y-136100001I2720293J-1360147D01*
G01*
X145220293Y-138860147D02*
G75*
G02*
X139800001Y-138899999I-2720293J1360147D01*
G01*
%TO.C,RV2*%
X152600001Y-132000000D02*
X152600000Y-135400001D01*
X152600001Y-139600000D02*
X152600001Y-143000000D01*
X152600001Y-143000000D02*
X162399999Y-143000000D01*
X162399999Y-132000000D02*
X152600001Y-132000000D01*
X162399999Y-132000000D02*
X162399999Y-135400000D01*
X162400000Y-139599999D02*
X162399999Y-143000000D01*
X154779707Y-136139853D02*
G75*
G02*
X160199999Y-136100001I2720293J-1360147D01*
G01*
X160220293Y-138860147D02*
G75*
G02*
X154800001Y-138899999I-2720293J1360147D01*
G01*
%TO.C,J3*%
X137940000Y-145590000D02*
X137940000Y-153410000D01*
X137940000Y-147190000D02*
X138860000Y-147190000D01*
X137940000Y-153410000D02*
X146060000Y-153410000D01*
X138700000Y-149550000D02*
X138700000Y-151150000D01*
X138700000Y-151150000D02*
X139700000Y-151150000D01*
X138860000Y-145590000D02*
X137940000Y-145590000D01*
X138860000Y-147190000D02*
X138860000Y-145590000D01*
X139140000Y-147190000D02*
X138860000Y-147190000D01*
X139140000Y-147190000D02*
X139140000Y-145975000D01*
X139200000Y-151150000D02*
X139200000Y-153410000D01*
X139700000Y-149550000D02*
X138700000Y-149550000D01*
X139700000Y-151150000D02*
X139700000Y-149550000D01*
X139700000Y-151150000D02*
X139700000Y-153410000D01*
X140500000Y-149050000D02*
X143500000Y-149050000D01*
X140500000Y-153410000D02*
X140500000Y-149050000D01*
X143500000Y-149050000D02*
X143500000Y-153410000D01*
X144300000Y-149550000D02*
X145300000Y-149550000D01*
X144300000Y-151150000D02*
X144300000Y-149550000D01*
X145140000Y-145590000D02*
X145140000Y-147190000D01*
X145140000Y-147190000D02*
X144860000Y-147190000D01*
X145300000Y-149550000D02*
X145300000Y-151150000D01*
X145300000Y-151150000D02*
X144300000Y-151150000D01*
X146060000Y-145590000D02*
X145140000Y-145590000D01*
X146060000Y-147190000D02*
X145140000Y-147190000D01*
X146060000Y-153410000D02*
X146060000Y-145590000D01*
%TO.C,R6*%
X154290000Y-117630000D02*
X160830000Y-117630000D01*
X154290000Y-117960000D02*
X154290000Y-117630000D01*
X154290000Y-120040000D02*
X154290000Y-120370000D01*
X154290000Y-120370000D02*
X160830000Y-120370000D01*
X160830000Y-117630000D02*
X160830000Y-117960000D01*
X160830000Y-120370000D02*
X160830000Y-120040000D01*
%TO.C,J4*%
X153940000Y-145590000D02*
X153940000Y-153410000D01*
X153940000Y-147190000D02*
X154860000Y-147190000D01*
X153940000Y-153410000D02*
X162060000Y-153410000D01*
X154700000Y-149550000D02*
X154700000Y-151150000D01*
X154700000Y-151150000D02*
X155700000Y-151150000D01*
X154860000Y-145590000D02*
X153940000Y-145590000D01*
X154860000Y-147190000D02*
X154860000Y-145590000D01*
X155140000Y-147190000D02*
X154860000Y-147190000D01*
X155140000Y-147190000D02*
X155140000Y-145975000D01*
X155200000Y-151150000D02*
X155200000Y-153410000D01*
X155700000Y-149550000D02*
X154700000Y-149550000D01*
X155700000Y-151150000D02*
X155700000Y-149550000D01*
X155700000Y-151150000D02*
X155700000Y-153410000D01*
X156500000Y-149050000D02*
X159500000Y-149050000D01*
X156500000Y-153410000D02*
X156500000Y-149050000D01*
X159500000Y-149050000D02*
X159500000Y-153410000D01*
X160300000Y-149550000D02*
X161300000Y-149550000D01*
X160300000Y-151150000D02*
X160300000Y-149550000D01*
X161140000Y-145590000D02*
X161140000Y-147190000D01*
X161140000Y-147190000D02*
X160860000Y-147190000D01*
X161300000Y-149550000D02*
X161300000Y-151150000D01*
X161300000Y-151150000D02*
X160300000Y-151150000D01*
X162060000Y-145590000D02*
X161140000Y-145590000D01*
X162060000Y-147190000D02*
X161140000Y-147190000D01*
X162060000Y-153410000D02*
X162060000Y-145590000D01*
%TO.C,R3*%
X139230000Y-79630000D02*
X139230000Y-79960000D01*
X139230000Y-82370000D02*
X139230000Y-82040000D01*
X145770000Y-79630000D02*
X139230000Y-79630000D01*
X145770000Y-79960000D02*
X145770000Y-79630000D01*
X145770000Y-82040000D02*
X145770000Y-82370000D01*
X145770000Y-82370000D02*
X139230000Y-82370000D01*
%TO.C,R4*%
X139230000Y-76130000D02*
X145770000Y-76130000D01*
X139230000Y-76460000D02*
X139230000Y-76130000D01*
X139230000Y-78540000D02*
X139230000Y-78870000D01*
X139230000Y-78870000D02*
X145770000Y-78870000D01*
X145770000Y-76130000D02*
X145770000Y-76460000D01*
X145770000Y-78870000D02*
X145770000Y-78540000D01*
%TO.C,SW2*%
D14*
X154900000Y-103400000D02*
X160100000Y-103400000D01*
X160100000Y-111600000D01*
X154900000Y-111600000D01*
X154900000Y-103400000D01*
D13*
%TO.C,J1*%
X138000000Y-58000000D02*
X138000000Y-68500000D01*
X141270000Y-54850000D02*
X141270000Y-55650000D01*
X141270000Y-54850000D02*
X142130000Y-54850000D01*
X141700000Y-68500000D02*
X138000000Y-68500000D01*
X141780000Y-58000000D02*
X138000000Y-58000000D01*
X147000000Y-58000000D02*
X143220000Y-58000000D01*
X147000000Y-58000000D02*
X147000000Y-68500000D01*
X147000000Y-68500000D02*
X143300000Y-68500000D01*
X144300000Y-62500000D02*
G75*
G02*
X140700000Y-62500000I-1800000J0D01*
G01*
X140700000Y-62500000D02*
G75*
G02*
X144300000Y-62500000I1800000J0D01*
G01*
%TO.C,R1*%
X139230000Y-121130000D02*
X145770000Y-121130000D01*
X139230000Y-121460000D02*
X139230000Y-121130000D01*
X139230000Y-123540000D02*
X139230000Y-123870000D01*
X139230000Y-123870000D02*
X145770000Y-123870000D01*
X145770000Y-121130000D02*
X145770000Y-121460000D01*
X145770000Y-123870000D02*
X145770000Y-123540000D01*
%TO.C,J2*%
X153000000Y-58000000D02*
X153000000Y-68500000D01*
X156270000Y-54850000D02*
X156270000Y-55650000D01*
X156270000Y-54850000D02*
X157130000Y-54850000D01*
X156700000Y-68500000D02*
X153000000Y-68500000D01*
X156780000Y-58000000D02*
X153000000Y-58000000D01*
X162000000Y-58000000D02*
X158220000Y-58000000D01*
X162000000Y-58000000D02*
X162000000Y-68500000D01*
X162000000Y-68500000D02*
X158300000Y-68500000D01*
X159300000Y-62500000D02*
G75*
G02*
X155700000Y-62500000I-1800000J0D01*
G01*
X155700000Y-62500000D02*
G75*
G02*
X159300000Y-62500000I1800000J0D01*
G01*
%TO.C,SW1*%
D14*
X139900000Y-103400000D02*
X145100000Y-103400000D01*
X145100000Y-111600000D01*
X139900000Y-111600000D01*
X139900000Y-103400000D01*
D13*
%TO.C,U1*%
X140250000Y-87860000D02*
X140250000Y-97090000D01*
X140250000Y-97090000D02*
X144750000Y-97090000D01*
X141500000Y-87860000D02*
X140250000Y-87860000D01*
X144750000Y-87860000D02*
X143500000Y-87860000D01*
X144750000Y-97090000D02*
X144750000Y-87860000D01*
X143500000Y-87860000D02*
G75*
G02*
X141500000Y-87860000I-1000000J0D01*
G01*
%TO.C,R7*%
X154230000Y-79630000D02*
X154230000Y-79960000D01*
X154230000Y-82370000D02*
X154230000Y-82040000D01*
X160770000Y-79630000D02*
X154230000Y-79630000D01*
X160770000Y-79960000D02*
X160770000Y-79630000D01*
X160770000Y-82040000D02*
X160770000Y-82370000D01*
X160770000Y-82370000D02*
X154230000Y-82370000D01*
%TO.C,R8*%
X154230000Y-76130000D02*
X160770000Y-76130000D01*
X154230000Y-76460000D02*
X154230000Y-76130000D01*
X154230000Y-78540000D02*
X154230000Y-78870000D01*
X154230000Y-78870000D02*
X160770000Y-78870000D01*
X160770000Y-76130000D02*
X160770000Y-76460000D01*
X160770000Y-78870000D02*
X160770000Y-78540000D01*
%TD*%
M02*
