%TF.GenerationSoftware,KiCad,Pcbnew,9.0.4*%
%TF.CreationDate,2026-02-02T18:08:19+11:00*%
%TF.ProjectId,LFO,4c464f2e-6b69-4636-9164-5f7063625858,rev?*%
%TF.SameCoordinates,Original*%
%TF.FileFunction,Legend,Bot*%
%TF.FilePolarity,Positive*%
%FSLAX46Y46*%
G04 Gerber Fmt 4.6, Leading zero omitted, Abs format (unit mm)*
G04 Created by KiCad (PCBNEW 9.0.4) date 2026-02-02 18:08:19*
%MOMM*%
%LPD*%
G01*
G04 APERTURE LIST*
%ADD10C,0.150000*%
%ADD11C,0.200000*%
%ADD12C,0.000000*%
G04 APERTURE END LIST*
D10*
X153571428Y-116047342D02*
X154142856Y-116047342D01*
X154142856Y-116047342D02*
X154142856Y-114847342D01*
X152771427Y-115418771D02*
X153171427Y-115418771D01*
X153171427Y-116047342D02*
X153171427Y-114847342D01*
X153171427Y-114847342D02*
X152599999Y-114847342D01*
X151914285Y-114847342D02*
X151685713Y-114847342D01*
X151685713Y-114847342D02*
X151571428Y-114904485D01*
X151571428Y-114904485D02*
X151457142Y-115018771D01*
X151457142Y-115018771D02*
X151399999Y-115247342D01*
X151399999Y-115247342D02*
X151399999Y-115647342D01*
X151399999Y-115647342D02*
X151457142Y-115875914D01*
X151457142Y-115875914D02*
X151571428Y-115990200D01*
X151571428Y-115990200D02*
X151685713Y-116047342D01*
X151685713Y-116047342D02*
X151914285Y-116047342D01*
X151914285Y-116047342D02*
X152028571Y-115990200D01*
X152028571Y-115990200D02*
X152142856Y-115875914D01*
X152142856Y-115875914D02*
X152199999Y-115647342D01*
X152199999Y-115647342D02*
X152199999Y-115247342D01*
X152199999Y-115247342D02*
X152142856Y-115018771D01*
X152142856Y-115018771D02*
X152028571Y-114904485D01*
X152028571Y-114904485D02*
X151914285Y-114847342D01*
X150085713Y-115247342D02*
X149799999Y-116047342D01*
X149799999Y-116047342D02*
X149514284Y-115247342D01*
X148428570Y-116047342D02*
X149114284Y-116047342D01*
X148771427Y-116047342D02*
X148771427Y-114847342D01*
X148771427Y-114847342D02*
X148885713Y-115018771D01*
X148885713Y-115018771D02*
X148999998Y-115133057D01*
X148999998Y-115133057D02*
X149114284Y-115190200D01*
X147914284Y-115590200D02*
X146999999Y-115590200D01*
X145799999Y-116047342D02*
X146485713Y-116047342D01*
X146142856Y-116047342D02*
X146142856Y-114847342D01*
X146142856Y-114847342D02*
X146257142Y-115018771D01*
X146257142Y-115018771D02*
X146371427Y-115133057D01*
X146371427Y-115133057D02*
X146485713Y-115190200D01*
X159342855Y-114047342D02*
X159342855Y-112847342D01*
X159342855Y-112847342D02*
X158885712Y-112847342D01*
X158885712Y-112847342D02*
X158771427Y-112904485D01*
X158771427Y-112904485D02*
X158714284Y-112961628D01*
X158714284Y-112961628D02*
X158657141Y-113075914D01*
X158657141Y-113075914D02*
X158657141Y-113247342D01*
X158657141Y-113247342D02*
X158714284Y-113361628D01*
X158714284Y-113361628D02*
X158771427Y-113418771D01*
X158771427Y-113418771D02*
X158885712Y-113475914D01*
X158885712Y-113475914D02*
X159342855Y-113475914D01*
X157628570Y-114047342D02*
X157628570Y-113418771D01*
X157628570Y-113418771D02*
X157685712Y-113304485D01*
X157685712Y-113304485D02*
X157799998Y-113247342D01*
X157799998Y-113247342D02*
X158028570Y-113247342D01*
X158028570Y-113247342D02*
X158142855Y-113304485D01*
X157628570Y-113990200D02*
X157742855Y-114047342D01*
X157742855Y-114047342D02*
X158028570Y-114047342D01*
X158028570Y-114047342D02*
X158142855Y-113990200D01*
X158142855Y-113990200D02*
X158199998Y-113875914D01*
X158199998Y-113875914D02*
X158199998Y-113761628D01*
X158199998Y-113761628D02*
X158142855Y-113647342D01*
X158142855Y-113647342D02*
X158028570Y-113590200D01*
X158028570Y-113590200D02*
X157742855Y-113590200D01*
X157742855Y-113590200D02*
X157628570Y-113533057D01*
X157057141Y-113247342D02*
X157057141Y-114047342D01*
X157057141Y-113361628D02*
X156999998Y-113304485D01*
X156999998Y-113304485D02*
X156885713Y-113247342D01*
X156885713Y-113247342D02*
X156714284Y-113247342D01*
X156714284Y-113247342D02*
X156599998Y-113304485D01*
X156599998Y-113304485D02*
X156542856Y-113418771D01*
X156542856Y-113418771D02*
X156542856Y-114047342D01*
X155457142Y-113990200D02*
X155571427Y-114047342D01*
X155571427Y-114047342D02*
X155799999Y-114047342D01*
X155799999Y-114047342D02*
X155914284Y-113990200D01*
X155914284Y-113990200D02*
X155971427Y-113933057D01*
X155971427Y-113933057D02*
X156028570Y-113818771D01*
X156028570Y-113818771D02*
X156028570Y-113475914D01*
X156028570Y-113475914D02*
X155971427Y-113361628D01*
X155971427Y-113361628D02*
X155914284Y-113304485D01*
X155914284Y-113304485D02*
X155799999Y-113247342D01*
X155799999Y-113247342D02*
X155571427Y-113247342D01*
X155571427Y-113247342D02*
X155457142Y-113304485D01*
X154428571Y-114047342D02*
X154428571Y-113418771D01*
X154428571Y-113418771D02*
X154485713Y-113304485D01*
X154485713Y-113304485D02*
X154599999Y-113247342D01*
X154599999Y-113247342D02*
X154828571Y-113247342D01*
X154828571Y-113247342D02*
X154942856Y-113304485D01*
X154428571Y-113990200D02*
X154542856Y-114047342D01*
X154542856Y-114047342D02*
X154828571Y-114047342D01*
X154828571Y-114047342D02*
X154942856Y-113990200D01*
X154942856Y-113990200D02*
X154999999Y-113875914D01*
X154999999Y-113875914D02*
X154999999Y-113761628D01*
X154999999Y-113761628D02*
X154942856Y-113647342D01*
X154942856Y-113647342D02*
X154828571Y-113590200D01*
X154828571Y-113590200D02*
X154542856Y-113590200D01*
X154542856Y-113590200D02*
X154428571Y-113533057D01*
X153857142Y-114047342D02*
X153857142Y-112847342D01*
X153742857Y-113590200D02*
X153399999Y-114047342D01*
X153399999Y-113247342D02*
X153857142Y-113704485D01*
X152428570Y-113990200D02*
X152542856Y-114047342D01*
X152542856Y-114047342D02*
X152771428Y-114047342D01*
X152771428Y-114047342D02*
X152885713Y-113990200D01*
X152885713Y-113990200D02*
X152942856Y-113875914D01*
X152942856Y-113875914D02*
X152942856Y-113418771D01*
X152942856Y-113418771D02*
X152885713Y-113304485D01*
X152885713Y-113304485D02*
X152771428Y-113247342D01*
X152771428Y-113247342D02*
X152542856Y-113247342D01*
X152542856Y-113247342D02*
X152428570Y-113304485D01*
X152428570Y-113304485D02*
X152371428Y-113418771D01*
X152371428Y-113418771D02*
X152371428Y-113533057D01*
X152371428Y-113533057D02*
X152942856Y-113647342D01*
X151285714Y-114047342D02*
X151857142Y-114047342D01*
X151857142Y-114047342D02*
X151857142Y-112847342D01*
X150428570Y-113990200D02*
X150542856Y-114047342D01*
X150542856Y-114047342D02*
X150771428Y-114047342D01*
X150771428Y-114047342D02*
X150885713Y-113990200D01*
X150885713Y-113990200D02*
X150942856Y-113875914D01*
X150942856Y-113875914D02*
X150942856Y-113418771D01*
X150942856Y-113418771D02*
X150885713Y-113304485D01*
X150885713Y-113304485D02*
X150771428Y-113247342D01*
X150771428Y-113247342D02*
X150542856Y-113247342D01*
X150542856Y-113247342D02*
X150428570Y-113304485D01*
X150428570Y-113304485D02*
X150371428Y-113418771D01*
X150371428Y-113418771D02*
X150371428Y-113533057D01*
X150371428Y-113533057D02*
X150942856Y-113647342D01*
X149342857Y-113247342D02*
X149342857Y-114218771D01*
X149342857Y-114218771D02*
X149399999Y-114333057D01*
X149399999Y-114333057D02*
X149457142Y-114390200D01*
X149457142Y-114390200D02*
X149571428Y-114447342D01*
X149571428Y-114447342D02*
X149742857Y-114447342D01*
X149742857Y-114447342D02*
X149857142Y-114390200D01*
X149342857Y-113990200D02*
X149457142Y-114047342D01*
X149457142Y-114047342D02*
X149685714Y-114047342D01*
X149685714Y-114047342D02*
X149799999Y-113990200D01*
X149799999Y-113990200D02*
X149857142Y-113933057D01*
X149857142Y-113933057D02*
X149914285Y-113818771D01*
X149914285Y-113818771D02*
X149914285Y-113475914D01*
X149914285Y-113475914D02*
X149857142Y-113361628D01*
X149857142Y-113361628D02*
X149799999Y-113304485D01*
X149799999Y-113304485D02*
X149685714Y-113247342D01*
X149685714Y-113247342D02*
X149457142Y-113247342D01*
X149457142Y-113247342D02*
X149342857Y-113304485D01*
X148314285Y-113990200D02*
X148428571Y-114047342D01*
X148428571Y-114047342D02*
X148657143Y-114047342D01*
X148657143Y-114047342D02*
X148771428Y-113990200D01*
X148771428Y-113990200D02*
X148828571Y-113875914D01*
X148828571Y-113875914D02*
X148828571Y-113418771D01*
X148828571Y-113418771D02*
X148771428Y-113304485D01*
X148771428Y-113304485D02*
X148657143Y-113247342D01*
X148657143Y-113247342D02*
X148428571Y-113247342D01*
X148428571Y-113247342D02*
X148314285Y-113304485D01*
X148314285Y-113304485D02*
X148257143Y-113418771D01*
X148257143Y-113418771D02*
X148257143Y-113533057D01*
X148257143Y-113533057D02*
X148828571Y-113647342D01*
X147742857Y-113247342D02*
X147742857Y-114047342D01*
X147742857Y-113361628D02*
X147685714Y-113304485D01*
X147685714Y-113304485D02*
X147571429Y-113247342D01*
X147571429Y-113247342D02*
X147400000Y-113247342D01*
X147400000Y-113247342D02*
X147285714Y-113304485D01*
X147285714Y-113304485D02*
X147228572Y-113418771D01*
X147228572Y-113418771D02*
X147228572Y-114047342D01*
X146142858Y-114047342D02*
X146142858Y-112847342D01*
X146142858Y-113990200D02*
X146257143Y-114047342D01*
X146257143Y-114047342D02*
X146485715Y-114047342D01*
X146485715Y-114047342D02*
X146600000Y-113990200D01*
X146600000Y-113990200D02*
X146657143Y-113933057D01*
X146657143Y-113933057D02*
X146714286Y-113818771D01*
X146714286Y-113818771D02*
X146714286Y-113475914D01*
X146714286Y-113475914D02*
X146657143Y-113361628D01*
X146657143Y-113361628D02*
X146600000Y-113304485D01*
X146600000Y-113304485D02*
X146485715Y-113247342D01*
X146485715Y-113247342D02*
X146257143Y-113247342D01*
X146257143Y-113247342D02*
X146142858Y-113304485D01*
X144714286Y-112961628D02*
X144657143Y-112904485D01*
X144657143Y-112904485D02*
X144542858Y-112847342D01*
X144542858Y-112847342D02*
X144257143Y-112847342D01*
X144257143Y-112847342D02*
X144142858Y-112904485D01*
X144142858Y-112904485D02*
X144085715Y-112961628D01*
X144085715Y-112961628D02*
X144028572Y-113075914D01*
X144028572Y-113075914D02*
X144028572Y-113190200D01*
X144028572Y-113190200D02*
X144085715Y-113361628D01*
X144085715Y-113361628D02*
X144771429Y-114047342D01*
X144771429Y-114047342D02*
X144028572Y-114047342D01*
X143285715Y-112847342D02*
X143171429Y-112847342D01*
X143171429Y-112847342D02*
X143057143Y-112904485D01*
X143057143Y-112904485D02*
X143000001Y-112961628D01*
X143000001Y-112961628D02*
X142942858Y-113075914D01*
X142942858Y-113075914D02*
X142885715Y-113304485D01*
X142885715Y-113304485D02*
X142885715Y-113590200D01*
X142885715Y-113590200D02*
X142942858Y-113818771D01*
X142942858Y-113818771D02*
X143000001Y-113933057D01*
X143000001Y-113933057D02*
X143057143Y-113990200D01*
X143057143Y-113990200D02*
X143171429Y-114047342D01*
X143171429Y-114047342D02*
X143285715Y-114047342D01*
X143285715Y-114047342D02*
X143400001Y-113990200D01*
X143400001Y-113990200D02*
X143457143Y-113933057D01*
X143457143Y-113933057D02*
X143514286Y-113818771D01*
X143514286Y-113818771D02*
X143571429Y-113590200D01*
X143571429Y-113590200D02*
X143571429Y-113304485D01*
X143571429Y-113304485D02*
X143514286Y-113075914D01*
X143514286Y-113075914D02*
X143457143Y-112961628D01*
X143457143Y-112961628D02*
X143400001Y-112904485D01*
X143400001Y-112904485D02*
X143285715Y-112847342D01*
X142428572Y-112961628D02*
X142371429Y-112904485D01*
X142371429Y-112904485D02*
X142257144Y-112847342D01*
X142257144Y-112847342D02*
X141971429Y-112847342D01*
X141971429Y-112847342D02*
X141857144Y-112904485D01*
X141857144Y-112904485D02*
X141800001Y-112961628D01*
X141800001Y-112961628D02*
X141742858Y-113075914D01*
X141742858Y-113075914D02*
X141742858Y-113190200D01*
X141742858Y-113190200D02*
X141800001Y-113361628D01*
X141800001Y-113361628D02*
X142485715Y-114047342D01*
X142485715Y-114047342D02*
X141742858Y-114047342D01*
X140657144Y-112847342D02*
X141228572Y-112847342D01*
X141228572Y-112847342D02*
X141285715Y-113418771D01*
X141285715Y-113418771D02*
X141228572Y-113361628D01*
X141228572Y-113361628D02*
X141114287Y-113304485D01*
X141114287Y-113304485D02*
X140828572Y-113304485D01*
X140828572Y-113304485D02*
X140714287Y-113361628D01*
X140714287Y-113361628D02*
X140657144Y-113418771D01*
X140657144Y-113418771D02*
X140600001Y-113533057D01*
X140600001Y-113533057D02*
X140600001Y-113818771D01*
X140600001Y-113818771D02*
X140657144Y-113933057D01*
X140657144Y-113933057D02*
X140714287Y-113990200D01*
X140714287Y-113990200D02*
X140828572Y-114047342D01*
X140828572Y-114047342D02*
X141114287Y-114047342D01*
X141114287Y-114047342D02*
X141228572Y-113990200D01*
X141228572Y-113990200D02*
X141285715Y-113933057D01*
D11*
X144093316Y-141933958D02*
X144093316Y-142901578D01*
X143307126Y-143324911D02*
X144577126Y-143748244D01*
X144577126Y-143748244D02*
X143307126Y-144171578D01*
X142093316Y-141933958D02*
X142093316Y-142901578D01*
X142577126Y-142417768D02*
X141609507Y-142417768D01*
X141307126Y-143324911D02*
X142577126Y-143748244D01*
X142577126Y-143748244D02*
X141307126Y-144171578D01*
X139367602Y-142599197D02*
X139307126Y-142478244D01*
X139307126Y-142478244D02*
X139307126Y-142296816D01*
X139307126Y-142296816D02*
X139367602Y-142115387D01*
X139367602Y-142115387D02*
X139488554Y-141994435D01*
X139488554Y-141994435D02*
X139609507Y-141933958D01*
X139609507Y-141933958D02*
X139851411Y-141873482D01*
X139851411Y-141873482D02*
X140032840Y-141873482D01*
X140032840Y-141873482D02*
X140274745Y-141933958D01*
X140274745Y-141933958D02*
X140395697Y-141994435D01*
X140395697Y-141994435D02*
X140516650Y-142115387D01*
X140516650Y-142115387D02*
X140577126Y-142296816D01*
X140577126Y-142296816D02*
X140577126Y-142417768D01*
X140577126Y-142417768D02*
X140516650Y-142599197D01*
X140516650Y-142599197D02*
X140456173Y-142659673D01*
X140456173Y-142659673D02*
X140032840Y-142659673D01*
X140032840Y-142659673D02*
X140032840Y-142417768D01*
X140577126Y-143203958D02*
X139307126Y-143203958D01*
X139307126Y-143203958D02*
X140577126Y-143929673D01*
X140577126Y-143929673D02*
X139307126Y-143929673D01*
X140577126Y-144534434D02*
X139307126Y-144534434D01*
X139307126Y-144534434D02*
X139307126Y-144836815D01*
X139307126Y-144836815D02*
X139367602Y-145018244D01*
X139367602Y-145018244D02*
X139488554Y-145139196D01*
X139488554Y-145139196D02*
X139609507Y-145199673D01*
X139609507Y-145199673D02*
X139851411Y-145260149D01*
X139851411Y-145260149D02*
X140032840Y-145260149D01*
X140032840Y-145260149D02*
X140274745Y-145199673D01*
X140274745Y-145199673D02*
X140395697Y-145139196D01*
X140395697Y-145139196D02*
X140516650Y-145018244D01*
X140516650Y-145018244D02*
X140577126Y-144836815D01*
X140577126Y-144836815D02*
X140577126Y-144534434D01*
X155367602Y-142599197D02*
X155307126Y-142478244D01*
X155307126Y-142478244D02*
X155307126Y-142296816D01*
X155307126Y-142296816D02*
X155367602Y-142115387D01*
X155367602Y-142115387D02*
X155488554Y-141994435D01*
X155488554Y-141994435D02*
X155609507Y-141933958D01*
X155609507Y-141933958D02*
X155851411Y-141873482D01*
X155851411Y-141873482D02*
X156032840Y-141873482D01*
X156032840Y-141873482D02*
X156274745Y-141933958D01*
X156274745Y-141933958D02*
X156395697Y-141994435D01*
X156395697Y-141994435D02*
X156516650Y-142115387D01*
X156516650Y-142115387D02*
X156577126Y-142296816D01*
X156577126Y-142296816D02*
X156577126Y-142417768D01*
X156577126Y-142417768D02*
X156516650Y-142599197D01*
X156516650Y-142599197D02*
X156456173Y-142659673D01*
X156456173Y-142659673D02*
X156032840Y-142659673D01*
X156032840Y-142659673D02*
X156032840Y-142417768D01*
X156577126Y-143203958D02*
X155307126Y-143203958D01*
X155307126Y-143203958D02*
X156577126Y-143929673D01*
X156577126Y-143929673D02*
X155307126Y-143929673D01*
X156577126Y-144534434D02*
X155307126Y-144534434D01*
X155307126Y-144534434D02*
X155307126Y-144836815D01*
X155307126Y-144836815D02*
X155367602Y-145018244D01*
X155367602Y-145018244D02*
X155488554Y-145139196D01*
X155488554Y-145139196D02*
X155609507Y-145199673D01*
X155609507Y-145199673D02*
X155851411Y-145260149D01*
X155851411Y-145260149D02*
X156032840Y-145260149D01*
X156032840Y-145260149D02*
X156274745Y-145199673D01*
X156274745Y-145199673D02*
X156395697Y-145139196D01*
X156395697Y-145139196D02*
X156516650Y-145018244D01*
X156516650Y-145018244D02*
X156577126Y-144836815D01*
X156577126Y-144836815D02*
X156577126Y-144534434D01*
X158093316Y-141933958D02*
X158093316Y-142901578D01*
X158577126Y-142417768D02*
X157609507Y-142417768D01*
X157307126Y-143324911D02*
X158577126Y-143748244D01*
X158577126Y-143748244D02*
X157307126Y-144171578D01*
X160093316Y-141933958D02*
X160093316Y-142901578D01*
X159307126Y-143324911D02*
X160577126Y-143748244D01*
X160577126Y-143748244D02*
X159307126Y-144171578D01*
D12*
%TO.C,G\u002A\u002A\u002A*%
G36*
X158619635Y-70599107D02*
G01*
X158677435Y-70599647D01*
X158719024Y-70600954D01*
X158746337Y-70603162D01*
X158761310Y-70606406D01*
X158765878Y-70610821D01*
X158765878Y-70610840D01*
X158766933Y-70622262D01*
X158769906Y-70650408D01*
X158774579Y-70693342D01*
X158780733Y-70749134D01*
X158788149Y-70815848D01*
X158796609Y-70891553D01*
X158805894Y-70974316D01*
X158815785Y-71062202D01*
X158826063Y-71153279D01*
X158836511Y-71245614D01*
X158846908Y-71337274D01*
X158857037Y-71426326D01*
X158866678Y-71510836D01*
X158875613Y-71588871D01*
X158883623Y-71658499D01*
X158890490Y-71717787D01*
X158895995Y-71764800D01*
X158899918Y-71797607D01*
X158902042Y-71814273D01*
X158907235Y-71850153D01*
X158875808Y-71826182D01*
X158850206Y-71809137D01*
X158802731Y-71783775D01*
X158746986Y-71758955D01*
X158688874Y-71737242D01*
X158634296Y-71721202D01*
X158627454Y-71719523D01*
X158594008Y-71710791D01*
X158568866Y-71703380D01*
X158557032Y-71698745D01*
X158556898Y-71698527D01*
X158554600Y-71686685D01*
X158550435Y-71658423D01*
X158544644Y-71615759D01*
X158537471Y-71560712D01*
X158529158Y-71495300D01*
X158519946Y-71421542D01*
X158510079Y-71341456D01*
X158499799Y-71257062D01*
X158489347Y-71170377D01*
X158478967Y-71083421D01*
X158468900Y-70998211D01*
X158459389Y-70916767D01*
X158450677Y-70841107D01*
X158443004Y-70773249D01*
X158436615Y-70715213D01*
X158431751Y-70669016D01*
X158428654Y-70636679D01*
X158427567Y-70620218D01*
X158427563Y-70599074D01*
X158596708Y-70599074D01*
X158619635Y-70599107D01*
G37*
G36*
X161684784Y-71705567D02*
G01*
X161683811Y-71712001D01*
X161680707Y-71736612D01*
X161675986Y-71776632D01*
X161669880Y-71829992D01*
X161662622Y-71894625D01*
X161654447Y-71968462D01*
X161645587Y-72049436D01*
X161636275Y-72135478D01*
X161630535Y-72188620D01*
X161621576Y-72270797D01*
X161613259Y-72346147D01*
X161605809Y-72412692D01*
X161599450Y-72468457D01*
X161594406Y-72511463D01*
X161590901Y-72539734D01*
X161589160Y-72551294D01*
X161586402Y-72552775D01*
X161576386Y-72554421D01*
X161558286Y-72555893D01*
X161531277Y-72557200D01*
X161494535Y-72558350D01*
X161447238Y-72559352D01*
X161388561Y-72560214D01*
X161317680Y-72560943D01*
X161233772Y-72561549D01*
X161136013Y-72562039D01*
X161023579Y-72562421D01*
X160895646Y-72562704D01*
X160751391Y-72562897D01*
X160589989Y-72563006D01*
X160410617Y-72563040D01*
X160264831Y-72562979D01*
X160123146Y-72562796D01*
X159987879Y-72562501D01*
X159860154Y-72562100D01*
X159741097Y-72561602D01*
X159631834Y-72561014D01*
X159533488Y-72560343D01*
X159447186Y-72559599D01*
X159374052Y-72558787D01*
X159315211Y-72557916D01*
X159271789Y-72556993D01*
X159244911Y-72556027D01*
X159235702Y-72555025D01*
X159235075Y-72548104D01*
X159232568Y-72524075D01*
X159228340Y-72484776D01*
X159222601Y-72432118D01*
X159215560Y-72368009D01*
X159207426Y-72294360D01*
X159198409Y-72213081D01*
X159188717Y-72126081D01*
X159181149Y-72058119D01*
X159171952Y-71975042D01*
X159163593Y-71899014D01*
X159156283Y-71831974D01*
X159150232Y-71775858D01*
X159145650Y-71732605D01*
X159142747Y-71704153D01*
X159141732Y-71692440D01*
X159142387Y-71691453D01*
X159147588Y-71689711D01*
X159158699Y-71688144D01*
X159176578Y-71686743D01*
X159202085Y-71685499D01*
X159236078Y-71684404D01*
X159279417Y-71683449D01*
X159332960Y-71682626D01*
X159397566Y-71681926D01*
X159474094Y-71681340D01*
X159563404Y-71680860D01*
X159666353Y-71680478D01*
X159783802Y-71680184D01*
X159916609Y-71679971D01*
X160065633Y-71679829D01*
X160231733Y-71679750D01*
X160415768Y-71679726D01*
X161689803Y-71679726D01*
X161684784Y-71705567D01*
G37*
G36*
X160517841Y-72732188D02*
G01*
X160678268Y-72732207D01*
X160821448Y-72732259D01*
X160948362Y-72732358D01*
X161059988Y-72732520D01*
X161157306Y-72732759D01*
X161241297Y-72733090D01*
X161312938Y-72733529D01*
X161373210Y-72734090D01*
X161423093Y-72734788D01*
X161463567Y-72735638D01*
X161495609Y-72736655D01*
X161520202Y-72737854D01*
X161538323Y-72739250D01*
X161550953Y-72740858D01*
X161559071Y-72742692D01*
X161563656Y-72744768D01*
X161565689Y-72747101D01*
X161566149Y-72749705D01*
X161566135Y-72750255D01*
X161564902Y-72764879D01*
X161561858Y-72795519D01*
X161557266Y-72839789D01*
X161551387Y-72895305D01*
X161544483Y-72959681D01*
X161536815Y-73030534D01*
X161528645Y-73105479D01*
X161520235Y-73182130D01*
X161511846Y-73258104D01*
X161503739Y-73331015D01*
X161496176Y-73398479D01*
X161489419Y-73458111D01*
X161483729Y-73507526D01*
X161479368Y-73544339D01*
X161476598Y-73566167D01*
X161471028Y-73606104D01*
X160414445Y-73606104D01*
X160369478Y-73606102D01*
X160231822Y-73606068D01*
X160099894Y-73605997D01*
X159974883Y-73605889D01*
X159857977Y-73605749D01*
X159750362Y-73605579D01*
X159653228Y-73605380D01*
X159567761Y-73605157D01*
X159495150Y-73604911D01*
X159436581Y-73604645D01*
X159393243Y-73604362D01*
X159366324Y-73604064D01*
X159357011Y-73603754D01*
X159356323Y-73600350D01*
X159353591Y-73580741D01*
X159349296Y-73546046D01*
X159343683Y-73498517D01*
X159336998Y-73440405D01*
X159329485Y-73373959D01*
X159321392Y-73301431D01*
X159312962Y-73225070D01*
X159304442Y-73147129D01*
X159296076Y-73069857D01*
X159288111Y-72995504D01*
X159280792Y-72926323D01*
X159274363Y-72864562D01*
X159269071Y-72812473D01*
X159265161Y-72772307D01*
X159262878Y-72746313D01*
X159262468Y-72736743D01*
X159269564Y-72736255D01*
X159294352Y-72735696D01*
X159335824Y-72735162D01*
X159392836Y-72734657D01*
X159464246Y-72734187D01*
X159548908Y-72733755D01*
X159645681Y-72733366D01*
X159753419Y-72733024D01*
X159870981Y-72732734D01*
X159997222Y-72732501D01*
X160130999Y-72732329D01*
X160271169Y-72732222D01*
X160416587Y-72732186D01*
X160517841Y-72732188D01*
G37*
G36*
X162397574Y-70634100D02*
G01*
X162396472Y-70642493D01*
X162393165Y-70669570D01*
X162388076Y-70712306D01*
X162381417Y-70768884D01*
X162373402Y-70837486D01*
X162364243Y-70916295D01*
X162354151Y-71003492D01*
X162343338Y-71097260D01*
X162332017Y-71195782D01*
X162314680Y-71346917D01*
X162281401Y-71636965D01*
X162250192Y-71908899D01*
X162221009Y-72163089D01*
X162193810Y-72399908D01*
X162168552Y-72619727D01*
X162145192Y-72822920D01*
X162123686Y-73009857D01*
X162103992Y-73180910D01*
X162086068Y-73336452D01*
X162069869Y-73476856D01*
X162055354Y-73602491D01*
X162042479Y-73713732D01*
X162031201Y-73810949D01*
X162021477Y-73894515D01*
X162013265Y-73964802D01*
X162006521Y-74022182D01*
X162001203Y-74067026D01*
X161997267Y-74099707D01*
X161994672Y-74120597D01*
X161993372Y-74130068D01*
X161988130Y-74160692D01*
X161498616Y-74158259D01*
X161009102Y-74155826D01*
X160997717Y-74117264D01*
X160993915Y-74105713D01*
X160967853Y-74053833D01*
X160925659Y-73998046D01*
X160866766Y-73937680D01*
X160790605Y-73872063D01*
X160753312Y-73842017D01*
X161225509Y-73841522D01*
X161259538Y-73841479D01*
X161365019Y-73841220D01*
X161453342Y-73840763D01*
X161525775Y-73840076D01*
X161583584Y-73839126D01*
X161628038Y-73837880D01*
X161660403Y-73836306D01*
X161681948Y-73834370D01*
X161693938Y-73832039D01*
X161697643Y-73829282D01*
X161697942Y-73825769D01*
X161700051Y-73805506D01*
X161704072Y-73768374D01*
X161709873Y-73715548D01*
X161717323Y-73648199D01*
X161726291Y-73567504D01*
X161736646Y-73474634D01*
X161748258Y-73370764D01*
X161760995Y-73257067D01*
X161774726Y-73134717D01*
X161789320Y-73004888D01*
X161804647Y-72868754D01*
X161820575Y-72727487D01*
X161835712Y-72593332D01*
X161853393Y-72436620D01*
X161871241Y-72278427D01*
X161889027Y-72120768D01*
X161906525Y-71965658D01*
X161923507Y-71815114D01*
X161939745Y-71671151D01*
X161955013Y-71535786D01*
X161969083Y-71411033D01*
X161981728Y-71298908D01*
X161992719Y-71201427D01*
X162001831Y-71120606D01*
X162060091Y-70603773D01*
X162231430Y-70601211D01*
X162402770Y-70598649D01*
X162397574Y-70634100D01*
G37*
G36*
X160100588Y-73870904D02*
G01*
X160177822Y-73876907D01*
X160246735Y-73886835D01*
X160302257Y-73900494D01*
X160331416Y-73910784D01*
X160407395Y-73946482D01*
X160466613Y-73989464D01*
X160508787Y-74039491D01*
X160533634Y-74096324D01*
X160535311Y-74102716D01*
X160540392Y-74128861D01*
X160538379Y-74146968D01*
X160528689Y-74165161D01*
X160524094Y-74171137D01*
X160501233Y-74191268D01*
X160472922Y-74207806D01*
X160437815Y-74219232D01*
X160388389Y-74229497D01*
X160330096Y-74237696D01*
X160267938Y-74243130D01*
X160206914Y-74245097D01*
X160139268Y-74245097D01*
X160127851Y-74280336D01*
X160125076Y-74288634D01*
X160091229Y-74367261D01*
X160044259Y-74447981D01*
X159987639Y-74525422D01*
X159924845Y-74594213D01*
X159870331Y-74641841D01*
X159778641Y-74702156D01*
X159678894Y-74745530D01*
X159571445Y-74771784D01*
X159522877Y-74777071D01*
X159449686Y-74779195D01*
X159370952Y-74776328D01*
X159293668Y-74768773D01*
X159224824Y-74756832D01*
X159196701Y-74750620D01*
X159170423Y-74745930D01*
X159153393Y-74745748D01*
X159140380Y-74750214D01*
X159126156Y-74759467D01*
X159110681Y-74769882D01*
X159043798Y-74807148D01*
X158961658Y-74843267D01*
X158867026Y-74877308D01*
X158762672Y-74908343D01*
X158651364Y-74935441D01*
X158535868Y-74957673D01*
X158432741Y-74974901D01*
X158392816Y-74904843D01*
X158391044Y-74901749D01*
X158365700Y-74859977D01*
X158337669Y-74817208D01*
X158312702Y-74782241D01*
X158291156Y-74753988D01*
X158272425Y-74729275D01*
X158261035Y-74714069D01*
X158257783Y-74708464D01*
X158259202Y-74702093D01*
X158270412Y-74696559D01*
X158294340Y-74690613D01*
X158333910Y-74683009D01*
X158350263Y-74679845D01*
X158407973Y-74666421D01*
X158469544Y-74649180D01*
X158532536Y-74629104D01*
X158594508Y-74607178D01*
X158653019Y-74584385D01*
X158705627Y-74561709D01*
X158749892Y-74540134D01*
X158783373Y-74520643D01*
X158803629Y-74504220D01*
X158808220Y-74491849D01*
X158773095Y-74395604D01*
X158747944Y-74305234D01*
X158733323Y-74223442D01*
X158729123Y-74151295D01*
X158735237Y-74089862D01*
X158751557Y-74040211D01*
X158777974Y-74003408D01*
X158814382Y-73980522D01*
X158860671Y-73972620D01*
X158872080Y-73973352D01*
X158914507Y-73985070D01*
X158963500Y-74009366D01*
X159015948Y-74044023D01*
X159068740Y-74086824D01*
X159118765Y-74135552D01*
X159162912Y-74187991D01*
X159187039Y-74220157D01*
X159237212Y-74175045D01*
X159307012Y-74117298D01*
X159427141Y-74036950D01*
X159557933Y-73970313D01*
X159696964Y-73918560D01*
X159841806Y-73882863D01*
X159869635Y-73878384D01*
X159941426Y-73871449D01*
X160020100Y-73869020D01*
X160100588Y-73870904D01*
G37*
G36*
X161062445Y-69639598D02*
G01*
X161040731Y-69745601D01*
X161001040Y-69847317D01*
X160952337Y-69927898D01*
X160886552Y-70003667D01*
X160808607Y-70067659D01*
X160721056Y-70117797D01*
X160626453Y-70152004D01*
X160618665Y-70153869D01*
X160573232Y-70160723D01*
X160516272Y-70164741D01*
X160453575Y-70165916D01*
X160390935Y-70164244D01*
X160334143Y-70159719D01*
X160288991Y-70152334D01*
X160279948Y-70150120D01*
X160188340Y-70117789D01*
X160106143Y-70070509D01*
X160034981Y-70009918D01*
X159976477Y-69937651D01*
X159939857Y-69869488D01*
X160338977Y-69869488D01*
X160348682Y-69894163D01*
X160370260Y-69925192D01*
X160397383Y-69952487D01*
X160424205Y-69969207D01*
X160455228Y-69978140D01*
X160518401Y-69982137D01*
X160582971Y-69968641D01*
X160647008Y-69938181D01*
X160708581Y-69891285D01*
X160760465Y-69834502D01*
X160797147Y-69771468D01*
X160818169Y-69700839D01*
X160824773Y-69619712D01*
X160824207Y-69598916D01*
X160814667Y-69533360D01*
X160794375Y-69478442D01*
X160764656Y-69435702D01*
X160726833Y-69406678D01*
X160682232Y-69392910D01*
X160632178Y-69395937D01*
X160626346Y-69397391D01*
X160599935Y-69406832D01*
X160582429Y-69417465D01*
X160577901Y-69424702D01*
X160568360Y-69448280D01*
X160557312Y-69482641D01*
X160546338Y-69523147D01*
X160534754Y-69566135D01*
X160516781Y-69616205D01*
X160494516Y-69656761D01*
X160464749Y-69693273D01*
X160424272Y-69731209D01*
X160423172Y-69732160D01*
X160380073Y-69772986D01*
X160352578Y-69808017D01*
X160339331Y-69839452D01*
X160338977Y-69869488D01*
X159939857Y-69869488D01*
X159932258Y-69855343D01*
X159903946Y-69764631D01*
X159901015Y-69748568D01*
X159895126Y-69688968D01*
X159894165Y-69620913D01*
X159898058Y-69551721D01*
X159906732Y-69488710D01*
X159913147Y-69457724D01*
X159924153Y-69414154D01*
X159938183Y-69369821D01*
X159956453Y-69321591D01*
X159980179Y-69266326D01*
X160010576Y-69200892D01*
X160048860Y-69122151D01*
X160083252Y-69051629D01*
X160150622Y-68907482D01*
X160208531Y-68773815D01*
X160258122Y-68647430D01*
X160300539Y-68525130D01*
X160336925Y-68403716D01*
X160368423Y-68279991D01*
X160396177Y-68150758D01*
X160406174Y-68102197D01*
X160417598Y-68051299D01*
X160428197Y-68008592D01*
X160437115Y-67977508D01*
X160443493Y-67961478D01*
X160454007Y-67949907D01*
X160478812Y-67939764D01*
X160506021Y-67942967D01*
X160530095Y-67958269D01*
X160545496Y-67984424D01*
X160548604Y-67997708D01*
X160554434Y-68026095D01*
X160561936Y-68064616D01*
X160570234Y-68108878D01*
X160576747Y-68143309D01*
X160605173Y-68274992D01*
X160639136Y-68404525D01*
X160679635Y-68534742D01*
X160727671Y-68668472D01*
X160784244Y-68808546D01*
X160850353Y-68957796D01*
X160926998Y-69119052D01*
X160936572Y-69138721D01*
X160963957Y-69195949D01*
X160988845Y-69249331D01*
X161009763Y-69295624D01*
X161025236Y-69331587D01*
X161033790Y-69353976D01*
X161051541Y-69420788D01*
X161066082Y-69530822D01*
X161063110Y-69619712D01*
X161062445Y-69639598D01*
G37*
G36*
X157399653Y-71403487D02*
G01*
X157395568Y-71411219D01*
X157401171Y-71414164D01*
X157420765Y-71423879D01*
X157450881Y-71438578D01*
X157487866Y-71456471D01*
X157524700Y-71475707D01*
X157594267Y-71521894D01*
X157650684Y-71573513D01*
X157693456Y-71628915D01*
X157722086Y-71686450D01*
X157736080Y-71744469D01*
X157734941Y-71801324D01*
X157718173Y-71855364D01*
X157685280Y-71904940D01*
X157635767Y-71948404D01*
X157587265Y-71976763D01*
X157510729Y-72008563D01*
X157422087Y-72033409D01*
X157397331Y-72037394D01*
X157351653Y-72042021D01*
X157288061Y-72046659D01*
X157207027Y-72051277D01*
X157109021Y-72055845D01*
X156994516Y-72060334D01*
X156993118Y-72060385D01*
X156906682Y-72063683D01*
X156821718Y-72067228D01*
X156741111Y-72070878D01*
X156667748Y-72074491D01*
X156604513Y-72077925D01*
X156554291Y-72081038D01*
X156519969Y-72083688D01*
X156356994Y-72102736D01*
X156204531Y-72129233D01*
X156068718Y-72162831D01*
X155949069Y-72203799D01*
X155845096Y-72252403D01*
X155756314Y-72308910D01*
X155682236Y-72373586D01*
X155622375Y-72446698D01*
X155576245Y-72528514D01*
X155543359Y-72619300D01*
X155541579Y-72626013D01*
X155530554Y-72686318D01*
X155524616Y-72756060D01*
X155523869Y-72828388D01*
X155528416Y-72896448D01*
X155538358Y-72953389D01*
X155550607Y-72994497D01*
X155588461Y-73081113D01*
X155638679Y-73156839D01*
X155699520Y-73220547D01*
X155769246Y-73271108D01*
X155846115Y-73307392D01*
X155928389Y-73328270D01*
X156014326Y-73332614D01*
X156102188Y-73319293D01*
X156102756Y-73319148D01*
X156174602Y-73296134D01*
X156238187Y-73264852D01*
X156298631Y-73222257D01*
X156361053Y-73165305D01*
X156418197Y-73103375D01*
X156465298Y-73040482D01*
X156505927Y-72971003D01*
X156544104Y-72888867D01*
X156545421Y-72885766D01*
X156572667Y-72828004D01*
X156599635Y-72784957D01*
X156629041Y-72752979D01*
X156663601Y-72728422D01*
X156682259Y-72718598D01*
X156745974Y-72697416D01*
X156813450Y-72691000D01*
X156881653Y-72698228D01*
X156947551Y-72717981D01*
X157008109Y-72749135D01*
X157060294Y-72790572D01*
X157101072Y-72841170D01*
X157127410Y-72899807D01*
X157135909Y-72939551D01*
X157136794Y-72997869D01*
X157123331Y-73057700D01*
X157094886Y-73120728D01*
X157050825Y-73188638D01*
X156990513Y-73263114D01*
X156942335Y-73315208D01*
X156851094Y-73402766D01*
X156748307Y-73490066D01*
X156638070Y-73573888D01*
X156524479Y-73651010D01*
X156411630Y-73718214D01*
X156399991Y-73724576D01*
X156359775Y-73746321D01*
X156332640Y-73762854D01*
X156317116Y-73778095D01*
X156311730Y-73795963D01*
X156315013Y-73820379D01*
X156325493Y-73855261D01*
X156341697Y-73904530D01*
X156355240Y-73944139D01*
X156366864Y-73970819D01*
X156377798Y-73985991D01*
X156389924Y-73993112D01*
X156396462Y-73994710D01*
X156421695Y-73999342D01*
X156461379Y-74005728D01*
X156512761Y-74013473D01*
X156573091Y-74022184D01*
X156639619Y-74031467D01*
X156709592Y-74040929D01*
X156780260Y-74050174D01*
X156848872Y-74058810D01*
X156854133Y-74059425D01*
X156896866Y-74063087D01*
X156952969Y-74066274D01*
X157017765Y-74068797D01*
X157086578Y-74070468D01*
X157154729Y-74071100D01*
X157361918Y-74071253D01*
X157431940Y-74036535D01*
X157501882Y-73995596D01*
X157576207Y-73937600D01*
X157650343Y-73864241D01*
X157725355Y-73774457D01*
X157802310Y-73667184D01*
X157829295Y-73625872D01*
X157862040Y-73573175D01*
X157892237Y-73522107D01*
X157915739Y-73479528D01*
X157923885Y-73463926D01*
X157938720Y-73434600D01*
X157948496Y-73410793D01*
X157953430Y-73388515D01*
X157953740Y-73363779D01*
X157949646Y-73332594D01*
X157941364Y-73290972D01*
X157929114Y-73234923D01*
X157914990Y-73151605D01*
X157908048Y-73046984D01*
X157908705Y-73008512D01*
X157919654Y-72910649D01*
X157944579Y-72824782D01*
X157984199Y-72749752D01*
X158039230Y-72684400D01*
X158110390Y-72627567D01*
X158198397Y-72578095D01*
X158226202Y-72564798D01*
X158269199Y-72544183D01*
X158306949Y-72526025D01*
X158333593Y-72513138D01*
X158358388Y-72498956D01*
X158380699Y-72478685D01*
X158396345Y-72451836D01*
X158406491Y-72415380D01*
X158412300Y-72366291D01*
X158414935Y-72301543D01*
X158415360Y-72284456D01*
X158419329Y-72220705D01*
X158427449Y-72172057D01*
X158440658Y-72135705D01*
X158459893Y-72108843D01*
X158486094Y-72088665D01*
X158523932Y-72074349D01*
X158573425Y-72072057D01*
X158626927Y-72083343D01*
X158681418Y-72106864D01*
X158733876Y-72141275D01*
X158781280Y-72185235D01*
X158820608Y-72237399D01*
X158822067Y-72239785D01*
X158842265Y-72277302D01*
X158853208Y-72311295D01*
X158858122Y-72351582D01*
X158858698Y-72379323D01*
X158856336Y-72416174D01*
X158851025Y-72443762D01*
X158849168Y-72448467D01*
X158836745Y-72471942D01*
X158816217Y-72505535D01*
X158789952Y-72545475D01*
X158760322Y-72587996D01*
X158749064Y-72603805D01*
X158692465Y-72688046D01*
X158649449Y-72762019D01*
X158619477Y-72827445D01*
X158602011Y-72886046D01*
X158596508Y-72939545D01*
X158602431Y-72989664D01*
X158619238Y-73038125D01*
X158626225Y-73052047D01*
X158662245Y-73104368D01*
X158712706Y-73157342D01*
X158774591Y-73208085D01*
X158844884Y-73253717D01*
X158866126Y-73266021D01*
X158902304Y-73287561D01*
X158931892Y-73305898D01*
X158949991Y-73318035D01*
X158980619Y-73351207D01*
X159001270Y-73396150D01*
X159009722Y-73446850D01*
X159005172Y-73498337D01*
X158986815Y-73545644D01*
X158968483Y-73570698D01*
X158927374Y-73602930D01*
X158874978Y-73622217D01*
X158812846Y-73628474D01*
X158742530Y-73621612D01*
X158665582Y-73601545D01*
X158583555Y-73568187D01*
X158583515Y-73568168D01*
X158554850Y-73554849D01*
X158534118Y-73545850D01*
X158525803Y-73543116D01*
X158522062Y-73550133D01*
X158511164Y-73570716D01*
X158494909Y-73601469D01*
X158475096Y-73638993D01*
X158416619Y-73742282D01*
X158338335Y-73864050D01*
X158251524Y-73984493D01*
X158158893Y-74100253D01*
X158063148Y-74207971D01*
X157966995Y-74304291D01*
X157873142Y-74385853D01*
X157847311Y-74405932D01*
X157806097Y-74436581D01*
X157762717Y-74467573D01*
X157720595Y-74496564D01*
X157683158Y-74521210D01*
X157653830Y-74539168D01*
X157636037Y-74548093D01*
X157634730Y-74551255D01*
X157641624Y-74566493D01*
X157659243Y-74592236D01*
X157686250Y-74626397D01*
X157754775Y-74711194D01*
X157844247Y-74829076D01*
X157926609Y-74946057D01*
X158000886Y-75060465D01*
X158066101Y-75170628D01*
X158121278Y-75274874D01*
X158165443Y-75371532D01*
X158197618Y-75458929D01*
X158216829Y-75535394D01*
X158220415Y-75551899D01*
X158227496Y-75565133D01*
X158238426Y-75565194D01*
X158243499Y-75563501D01*
X158266616Y-75557053D01*
X158303560Y-75547498D01*
X158351232Y-75535581D01*
X158406533Y-75522045D01*
X158466365Y-75507632D01*
X158527630Y-75493087D01*
X158587228Y-75479152D01*
X158642062Y-75466572D01*
X158689034Y-75456089D01*
X158725043Y-75448446D01*
X158756052Y-75442821D01*
X158826214Y-75434029D01*
X158898001Y-75429615D01*
X158966457Y-75429652D01*
X159026623Y-75434211D01*
X159073543Y-75443365D01*
X159081269Y-75445849D01*
X159117590Y-75462801D01*
X159143428Y-75483642D01*
X159152603Y-75493013D01*
X159180327Y-75509783D01*
X159221658Y-75522212D01*
X159238592Y-75526093D01*
X159299378Y-75541185D01*
X159372035Y-75560549D01*
X159452105Y-75582923D01*
X159535128Y-75607044D01*
X159616645Y-75631649D01*
X159692198Y-75655475D01*
X159727073Y-75666579D01*
X159772247Y-75680342D01*
X159808822Y-75690740D01*
X159833723Y-75696912D01*
X159843873Y-75697994D01*
X159845381Y-75695673D01*
X159853231Y-75679475D01*
X159865375Y-75651875D01*
X159879891Y-75617187D01*
X159889493Y-75594233D01*
X159947440Y-75473066D01*
X160012962Y-75362055D01*
X160084802Y-75262639D01*
X160161703Y-75176259D01*
X160242408Y-75104353D01*
X160325661Y-75048362D01*
X160410204Y-75009725D01*
X160451810Y-74996932D01*
X160541462Y-74981160D01*
X160626828Y-74982526D01*
X160706560Y-75000934D01*
X160779312Y-75036288D01*
X160786467Y-75040944D01*
X160856123Y-75098116D01*
X160916711Y-75169974D01*
X160967121Y-75254338D01*
X161006244Y-75349028D01*
X161032972Y-75451866D01*
X161046194Y-75560673D01*
X161046641Y-75569723D01*
X161042805Y-75691897D01*
X161020911Y-75811441D01*
X160981577Y-75927439D01*
X160925419Y-76038975D01*
X160853057Y-76145134D01*
X160765107Y-76245001D01*
X160662188Y-76337659D01*
X160544917Y-76422194D01*
X160413913Y-76497689D01*
X160402832Y-76503471D01*
X160373115Y-76520029D01*
X160352384Y-76533190D01*
X160344584Y-76540516D01*
X160347945Y-76547268D01*
X160361095Y-76564730D01*
X160380798Y-76587501D01*
X160406550Y-76617357D01*
X160426052Y-76646275D01*
X160435834Y-76672840D01*
X160438513Y-76702253D01*
X160436212Y-76728769D01*
X160427647Y-76754315D01*
X160410689Y-76781376D01*
X160383214Y-76813322D01*
X160343096Y-76853523D01*
X160337380Y-76858994D01*
X160271103Y-76915888D01*
X160207765Y-76956643D01*
X160144068Y-76982635D01*
X160076717Y-76995243D01*
X160002413Y-76995843D01*
X159984936Y-76994528D01*
X159897601Y-76979997D01*
X159822867Y-76952521D01*
X159759239Y-76911396D01*
X159705222Y-76855919D01*
X159695966Y-76843694D01*
X159659035Y-76779437D01*
X159634827Y-76705225D01*
X159622399Y-76618358D01*
X159616279Y-76534311D01*
X159527008Y-76518550D01*
X159401221Y-76491887D01*
X159277400Y-76457015D01*
X159158924Y-76415214D01*
X159048477Y-76367639D01*
X158948741Y-76315448D01*
X158862399Y-76259795D01*
X158792133Y-76201837D01*
X158757332Y-76168516D01*
X158702862Y-76192627D01*
X158667471Y-76207779D01*
X158587293Y-76237590D01*
X158508006Y-76259809D01*
X158424775Y-76275435D01*
X158332767Y-76285467D01*
X158227147Y-76290903D01*
X158059621Y-76296002D01*
X158015715Y-76343005D01*
X157972712Y-76384214D01*
X157888863Y-76444872D01*
X157790646Y-76495359D01*
X157679097Y-76535450D01*
X157555255Y-76564919D01*
X157420156Y-76583543D01*
X157274839Y-76591097D01*
X157120340Y-76587355D01*
X156957698Y-76572094D01*
X156933446Y-76569119D01*
X156899576Y-76565368D01*
X156876312Y-76563328D01*
X156867666Y-76563387D01*
X156872237Y-76570576D01*
X156885929Y-76590002D01*
X156906552Y-76618524D01*
X156931885Y-76653044D01*
X156983190Y-76723834D01*
X157077884Y-76862533D01*
X157161488Y-76996369D01*
X157233518Y-77124327D01*
X157293490Y-77245389D01*
X157340917Y-77358541D01*
X157375316Y-77462765D01*
X157396201Y-77557045D01*
X157403087Y-77640366D01*
X157402484Y-77659576D01*
X157392273Y-77716172D01*
X157367787Y-77765731D01*
X157326868Y-77813146D01*
X157320727Y-77818910D01*
X157276933Y-77852536D01*
X157225899Y-77878876D01*
X157165419Y-77898505D01*
X157093289Y-77911995D01*
X157007303Y-77919923D01*
X156905254Y-77922861D01*
X156881578Y-77922930D01*
X156813827Y-77922070D01*
X156759007Y-77919298D01*
X156712660Y-77914311D01*
X156670330Y-77906804D01*
X156663477Y-77905298D01*
X156616884Y-77892690D01*
X156569759Y-77876466D01*
X156525846Y-77858299D01*
X156488889Y-77839858D01*
X156462632Y-77822815D01*
X156450818Y-77808840D01*
X156445783Y-77788414D01*
X156440032Y-77761788D01*
X156433858Y-77731125D01*
X156374380Y-77785281D01*
X156343818Y-77811746D01*
X156246653Y-77881985D01*
X156138601Y-77942466D01*
X156024726Y-77990588D01*
X155910093Y-78023752D01*
X155878849Y-78029970D01*
X155841255Y-78035236D01*
X155800414Y-78038024D01*
X155751166Y-78038653D01*
X155688347Y-78037442D01*
X155672209Y-78036927D01*
X155617020Y-78034403D01*
X155564939Y-78030964D01*
X155521193Y-78026995D01*
X155491011Y-78022884D01*
X155465381Y-78017740D01*
X155363538Y-77989443D01*
X155275749Y-77951536D01*
X155202624Y-77904578D01*
X155144775Y-77849127D01*
X155102813Y-77785742D01*
X155077350Y-77714981D01*
X155068996Y-77637402D01*
X155069525Y-77622505D01*
X155083022Y-77555268D01*
X155113761Y-77489502D01*
X155160472Y-77426472D01*
X155221883Y-77367441D01*
X155296725Y-77313675D01*
X155383725Y-77266437D01*
X155481614Y-77226990D01*
X155499806Y-77220980D01*
X155577003Y-77200174D01*
X155657820Y-77186483D01*
X155747072Y-77179264D01*
X155849573Y-77177875D01*
X155904125Y-77178309D01*
X155944924Y-77177882D01*
X155973784Y-77176224D01*
X155994174Y-77172986D01*
X156009563Y-77167820D01*
X156023417Y-77160375D01*
X156058572Y-77142942D01*
X156110291Y-77126761D01*
X156159247Y-77120621D01*
X156188489Y-77120569D01*
X156165668Y-77057140D01*
X156157624Y-77035140D01*
X156146521Y-77010113D01*
X156133586Y-76993963D01*
X156113771Y-76981209D01*
X156082024Y-76966369D01*
X156072080Y-76961823D01*
X155976754Y-76910147D01*
X155889962Y-76848464D01*
X155813757Y-76778873D01*
X155750188Y-76703474D01*
X155701306Y-76624365D01*
X155669161Y-76543647D01*
X155662246Y-76513368D01*
X155655801Y-76449277D01*
X155657709Y-76382033D01*
X155667579Y-76318476D01*
X155685022Y-76265445D01*
X155729496Y-76190405D01*
X155791038Y-76121960D01*
X155867715Y-76063030D01*
X155958691Y-76014147D01*
X156063130Y-75975848D01*
X156180196Y-75948666D01*
X156204695Y-75944132D01*
X156240061Y-75936511D01*
X156265489Y-75929633D01*
X156276663Y-75924577D01*
X156277801Y-75921677D01*
X156281191Y-75903136D01*
X156284728Y-75872558D01*
X156287811Y-75834804D01*
X156288522Y-75825500D01*
X156297398Y-75762472D01*
X156312616Y-75697371D01*
X156332692Y-75634365D01*
X156356141Y-75577621D01*
X156381479Y-75531305D01*
X156407222Y-75499586D01*
X156409462Y-75497529D01*
X156417041Y-75488413D01*
X156419085Y-75476948D01*
X156415528Y-75457949D01*
X156406307Y-75426235D01*
X156387322Y-75355795D01*
X156368651Y-75269171D01*
X156354085Y-75182099D01*
X156345297Y-75103432D01*
X156338870Y-75017372D01*
X156099814Y-74826850D01*
X156058501Y-74793838D01*
X155983748Y-74733380D01*
X155922167Y-74682119D01*
X155872517Y-74638638D01*
X155833555Y-74601519D01*
X155804040Y-74569344D01*
X155782728Y-74540698D01*
X155768377Y-74514161D01*
X155759746Y-74488317D01*
X155755592Y-74461748D01*
X155754673Y-74433037D01*
X155756833Y-74400622D01*
X155765095Y-74366166D01*
X155781414Y-74331316D01*
X155807757Y-74292009D01*
X155846092Y-74244180D01*
X155854281Y-74234388D01*
X155879451Y-74202630D01*
X155894445Y-74179365D01*
X155901522Y-74160534D01*
X155902940Y-74142081D01*
X155902919Y-74141513D01*
X155896569Y-74103493D01*
X155881594Y-74056690D01*
X155860367Y-74007418D01*
X155835260Y-73961991D01*
X155808266Y-73919424D01*
X155706020Y-73944954D01*
X155680942Y-73951029D01*
X155577133Y-73972423D01*
X155464491Y-73989692D01*
X155339765Y-74003279D01*
X155199705Y-74013625D01*
X155021162Y-74024269D01*
X154961878Y-74064932D01*
X154900202Y-74103421D01*
X154795513Y-74154199D01*
X154688292Y-74189686D01*
X154675874Y-74192611D01*
X154607071Y-74203082D01*
X154531245Y-74206854D01*
X154454601Y-74204097D01*
X154383349Y-74194982D01*
X154323693Y-74179680D01*
X154317269Y-74177355D01*
X154231591Y-74136537D01*
X154153488Y-74081269D01*
X154086380Y-74014391D01*
X154033687Y-73938745D01*
X154008434Y-73885836D01*
X153981086Y-73797669D01*
X153966566Y-73702284D01*
X153965436Y-73604076D01*
X153978262Y-73507439D01*
X153978860Y-73504610D01*
X153985601Y-73471973D01*
X153990379Y-73447477D01*
X153992195Y-73436237D01*
X153991445Y-73434953D01*
X153980460Y-73423948D01*
X153958400Y-73404097D01*
X153927880Y-73377715D01*
X153891514Y-73347117D01*
X153823752Y-73288841D01*
X153737884Y-73209208D01*
X153657955Y-73128568D01*
X153585950Y-73049136D01*
X153523856Y-72973129D01*
X153473658Y-72902762D01*
X153437342Y-72840251D01*
X153416801Y-72790366D01*
X153395521Y-72717992D01*
X153376950Y-72631784D01*
X153361430Y-72534331D01*
X153349306Y-72428219D01*
X153340921Y-72316034D01*
X153336621Y-72200364D01*
X153336749Y-72083795D01*
X153338824Y-72007599D01*
X153342284Y-71940792D01*
X153347950Y-71884929D01*
X153356756Y-71835960D01*
X153369639Y-71789836D01*
X153387534Y-71742508D01*
X153411379Y-71689926D01*
X153442109Y-71628042D01*
X153469913Y-71574850D01*
X153530510Y-71467330D01*
X153597108Y-71358725D01*
X153668160Y-71251050D01*
X153678329Y-71236650D01*
X155453455Y-71236650D01*
X155468735Y-71311963D01*
X155500863Y-71387590D01*
X155523461Y-71424329D01*
X155580989Y-71492786D01*
X155653242Y-71553483D01*
X155738084Y-71605013D01*
X155833384Y-71645971D01*
X155937010Y-71674952D01*
X155963608Y-71679948D01*
X156052307Y-71688163D01*
X156137321Y-71683513D01*
X156214964Y-71666404D01*
X156281548Y-71637237D01*
X156303753Y-71622674D01*
X156353639Y-71576443D01*
X156392265Y-71520228D01*
X156417170Y-71458164D01*
X156425897Y-71394388D01*
X156424995Y-71373945D01*
X156412158Y-71306390D01*
X156385680Y-71235547D01*
X156347553Y-71166025D01*
X156299769Y-71102434D01*
X156259007Y-71056072D01*
X156239965Y-71093038D01*
X156203127Y-71147139D01*
X156155082Y-71187053D01*
X156096982Y-71211160D01*
X156029289Y-71219182D01*
X155988602Y-71216104D01*
X155928627Y-71199460D01*
X155877092Y-71170409D01*
X155835715Y-71131255D01*
X155806212Y-71084301D01*
X155790299Y-71031851D01*
X155789694Y-70976209D01*
X155806112Y-70919679D01*
X155824796Y-70878499D01*
X155756058Y-70882911D01*
X155733915Y-70884982D01*
X155659366Y-70902519D01*
X155594638Y-70934265D01*
X155540736Y-70978234D01*
X155498663Y-71032443D01*
X155469422Y-71094905D01*
X155454018Y-71163635D01*
X155453455Y-71236650D01*
X153678329Y-71236650D01*
X153742119Y-71146319D01*
X153817439Y-71046546D01*
X153892573Y-70953745D01*
X153965976Y-70869932D01*
X154036100Y-70797120D01*
X154101398Y-70737323D01*
X154160325Y-70692557D01*
X154208672Y-70665579D01*
X154282710Y-70635672D01*
X154372486Y-70608994D01*
X154476422Y-70585940D01*
X154592939Y-70566907D01*
X154720459Y-70552288D01*
X154792750Y-70547060D01*
X154880214Y-70543543D01*
X154974317Y-70542107D01*
X155071433Y-70542659D01*
X155167936Y-70545102D01*
X155260200Y-70549344D01*
X155344602Y-70555290D01*
X155417514Y-70562845D01*
X155475311Y-70571916D01*
X155495566Y-70575611D01*
X155518534Y-70578668D01*
X155528908Y-70578405D01*
X155529950Y-70575491D01*
X155533340Y-70557749D01*
X155537829Y-70527838D01*
X155542731Y-70490138D01*
X155546116Y-70455573D01*
X155546014Y-70371456D01*
X155532316Y-70290232D01*
X155504101Y-70205097D01*
X155502461Y-70200957D01*
X155485258Y-70146358D01*
X155481364Y-70102220D01*
X155490943Y-70065750D01*
X155514159Y-70034155D01*
X155515118Y-70033202D01*
X155529860Y-70020292D01*
X155546625Y-70009889D01*
X155567507Y-70001721D01*
X155594603Y-69995515D01*
X155630009Y-69990998D01*
X155675822Y-69987896D01*
X155734137Y-69985938D01*
X155807051Y-69984850D01*
X155896660Y-69984359D01*
X155971659Y-69984191D01*
X156035123Y-69984250D01*
X156084080Y-69984689D01*
X156120736Y-69985644D01*
X156147301Y-69987252D01*
X156165980Y-69989649D01*
X156178982Y-69992973D01*
X156188513Y-69997361D01*
X156196782Y-70002948D01*
X156219814Y-70023242D01*
X156242187Y-70048364D01*
X156242744Y-70049126D01*
X156256224Y-70082367D01*
X156260270Y-70130082D01*
X156255233Y-70190752D01*
X156241466Y-70262859D01*
X156219320Y-70344884D01*
X156189148Y-70435308D01*
X156151302Y-70532614D01*
X156106134Y-70635282D01*
X156094461Y-70660924D01*
X156080672Y-70692971D01*
X156071961Y-70715566D01*
X156069846Y-70724959D01*
X156069897Y-70725003D01*
X156079927Y-70730804D01*
X156102007Y-70742421D01*
X156131455Y-70757391D01*
X156165601Y-70776049D01*
X156213920Y-70805197D01*
X156268642Y-70840211D01*
X156325312Y-70878106D01*
X156379474Y-70915895D01*
X156426670Y-70950592D01*
X156462446Y-70979209D01*
X156464944Y-70981351D01*
X156489664Y-71001827D01*
X156507864Y-71015636D01*
X156515761Y-71019891D01*
X156520425Y-71011617D01*
X156531823Y-70989749D01*
X156548148Y-70957749D01*
X156567638Y-70919041D01*
X156572168Y-70910049D01*
X156598439Y-70861341D01*
X156623970Y-70822157D01*
X156653774Y-70785506D01*
X156692865Y-70744394D01*
X156695250Y-70742003D01*
X156761730Y-70682730D01*
X156827972Y-70639586D01*
X156898123Y-70610858D01*
X156976330Y-70594830D01*
X157066737Y-70589789D01*
X157138097Y-70592365D01*
X157233072Y-70606353D01*
X157316216Y-70633038D01*
X157389265Y-70673034D01*
X157453955Y-70726955D01*
X157485340Y-70761559D01*
X157533442Y-70833819D01*
X157564359Y-70911662D01*
X157577562Y-70993523D01*
X157572521Y-71077834D01*
X157556786Y-71139243D01*
X157527279Y-71211859D01*
X157487797Y-71283878D01*
X157441209Y-71349371D01*
X157433530Y-71358853D01*
X157413175Y-71384855D01*
X157406257Y-71394388D01*
X157399653Y-71403487D01*
G37*
%TD*%
M02*
