%TF.GenerationSoftware,KiCad,Pcbnew,9.0.4*%
%TF.CreationDate,2026-02-02T18:08:19+11:00*%
%TF.ProjectId,LFO,4c464f2e-6b69-4636-9164-5f7063625858,rev?*%
%TF.SameCoordinates,Original*%
%TF.FileFunction,Copper,L2,Bot*%
%TF.FilePolarity,Positive*%
%FSLAX46Y46*%
G04 Gerber Fmt 4.6, Leading zero omitted, Abs format (unit mm)*
G04 Created by KiCad (PCBNEW 9.0.4) date 2026-02-02 18:08:19*
%MOMM*%
%LPD*%
G01*
G04 APERTURE LIST*
G04 Aperture macros list*
%AMRoundRect*
0 Rectangle with rounded corners*
0 $1 Rounding radius*
0 $2 $3 $4 $5 $6 $7 $8 $9 X,Y pos of 4 corners*
0 Add a 4 corners polygon primitive as box body*
4,1,4,$2,$3,$4,$5,$6,$7,$8,$9,$2,$3,0*
0 Add four circle primitives for the rounded corners*
1,1,$1+$1,$2,$3*
1,1,$1+$1,$4,$5*
1,1,$1+$1,$6,$7*
1,1,$1+$1,$8,$9*
0 Add four rect primitives between the rounded corners*
20,1,$1+$1,$2,$3,$4,$5,0*
20,1,$1+$1,$4,$5,$6,$7,0*
20,1,$1+$1,$6,$7,$8,$9,0*
20,1,$1+$1,$8,$9,$2,$3,0*%
G04 Aperture macros list end*
%TA.AperFunction,ComponentPad*%
%ADD10C,1.600000*%
%TD*%
%TA.AperFunction,ComponentPad*%
%ADD11R,2.400000X1.600000*%
%TD*%
%TA.AperFunction,ComponentPad*%
%ADD12O,2.400000X1.600000*%
%TD*%
%TA.AperFunction,ComponentPad*%
%ADD13O,1.600000X1.600000*%
%TD*%
%TA.AperFunction,WasherPad*%
%ADD14C,4.000000*%
%TD*%
%TA.AperFunction,ComponentPad*%
%ADD15O,1.600000X2.400000*%
%TD*%
%TA.AperFunction,ComponentPad*%
%ADD16RoundRect,0.291666X-0.408334X-0.708334X0.408334X-0.708334X0.408334X0.708334X-0.408334X0.708334X0*%
%TD*%
%TA.AperFunction,ComponentPad*%
%ADD17O,1.400000X2.000000*%
%TD*%
%TA.AperFunction,ComponentPad*%
%ADD18O,2.500000X1.700000*%
%TD*%
%TA.AperFunction,ComponentPad*%
%ADD19R,2.000000X2.000000*%
%TD*%
%TA.AperFunction,ComponentPad*%
%ADD20C,2.200000*%
%TD*%
%TA.AperFunction,Conductor*%
%ADD21C,0.200000*%
%TD*%
%TA.AperFunction,Conductor*%
%ADD22C,0.500000*%
%TD*%
G04 APERTURE END LIST*
D10*
%TO.P,C1,1*%
%TO.N,Net-(SW1-A)*%
X140000000Y-85000000D03*
%TO.P,C1,2*%
%TO.N,GND*%
X145000000Y-85000000D03*
%TD*%
D11*
%TO.P,U2,1*%
%TO.N,Net-(R6-Pad2)*%
X153690000Y-88690000D03*
D12*
%TO.P,U2,2,-*%
%TO.N,Net-(SW2-A)*%
X153690000Y-91230000D03*
%TO.P,U2,3,+*%
%TO.N,Net-(SW2-C)*%
X153690000Y-93770000D03*
%TO.P,U2,4,V-*%
%TO.N,VSS*%
X153690000Y-96310000D03*
%TO.P,U2,5,+*%
%TO.N,Net-(SW2-B)*%
X161310000Y-96310000D03*
%TO.P,U2,6,-*%
%TO.N,Net-(U2B--)*%
X161310000Y-93770000D03*
%TO.P,U2,7*%
X161310000Y-91230000D03*
%TO.P,U2,8,V+*%
%TO.N,VDD*%
X161310000Y-88690000D03*
%TD*%
D10*
%TO.P,R2,1*%
%TO.N,Net-(SW1-C)*%
X138690000Y-119000000D03*
D13*
%TO.P,R2,2*%
%TO.N,Net-(R2-Pad2)*%
X146310000Y-119000000D03*
%TD*%
D10*
%TO.P,C2,1*%
%TO.N,Net-(SW2-A)*%
X155000000Y-85000000D03*
%TO.P,C2,2*%
%TO.N,GND*%
X160000000Y-85000000D03*
%TD*%
%TO.P,R5,1*%
%TO.N,Net-(R5-Pad1)*%
X153690000Y-122500000D03*
D13*
%TO.P,R5,2*%
%TO.N,Net-(SW2-A)*%
X161310000Y-122500000D03*
%TD*%
D14*
%TO.P,RV1,*%
%TO.N,*%
X146900000Y-137500000D03*
X138100000Y-137500000D03*
D15*
%TO.P,RV1,1,1*%
%TO.N,Net-(R1-Pad1)*%
X139999999Y-130500000D03*
%TO.P,RV1,2,2*%
X142500000Y-130500000D03*
%TO.P,RV1,3,3*%
%TO.N,Net-(R2-Pad2)*%
X145000001Y-130500000D03*
%TD*%
D14*
%TO.P,RV2,*%
%TO.N,*%
X161900000Y-137500000D03*
X153100000Y-137500000D03*
D15*
%TO.P,RV2,1,1*%
%TO.N,Net-(R5-Pad1)*%
X154999999Y-130500000D03*
%TO.P,RV2,2,2*%
X157500000Y-130500000D03*
%TO.P,RV2,3,3*%
%TO.N,Net-(R6-Pad2)*%
X160000001Y-130500000D03*
%TD*%
D16*
%TO.P,J3,1,Pin_1*%
%TO.N,GND*%
X140000000Y-147050000D03*
D17*
%TO.P,J3,2,Pin_2*%
%TO.N,VDD*%
X142000000Y-147050000D03*
%TO.P,J3,3,Pin_3*%
%TO.N,VSS*%
X144000000Y-147050000D03*
%TD*%
D10*
%TO.P,R6,1*%
%TO.N,Net-(SW2-C)*%
X153750000Y-119000000D03*
D13*
%TO.P,R6,2*%
%TO.N,Net-(R6-Pad2)*%
X161370000Y-119000000D03*
%TD*%
D16*
%TO.P,J4,1,Pin_1*%
%TO.N,GND*%
X156000000Y-147050000D03*
D17*
%TO.P,J4,2,Pin_2*%
%TO.N,VDD*%
X158000000Y-147050000D03*
%TO.P,J4,3,Pin_3*%
%TO.N,VSS*%
X160000000Y-147050000D03*
%TD*%
D10*
%TO.P,R3,1*%
%TO.N,GND*%
X146310000Y-81000000D03*
D13*
%TO.P,R3,2*%
%TO.N,Net-(SW1-C)*%
X138690000Y-81000000D03*
%TD*%
D10*
%TO.P,R4,1*%
%TO.N,Net-(J1-PadT)*%
X138690000Y-77500000D03*
D13*
%TO.P,R4,2*%
%TO.N,Net-(U1B--)*%
X146310000Y-77500000D03*
%TD*%
D18*
%TO.P,SW2,1,A*%
%TO.N,Net-(SW2-A)*%
X157500000Y-105000000D03*
%TO.P,SW2,2,B*%
%TO.N,Net-(SW2-B)*%
X157500000Y-107500000D03*
%TO.P,SW2,3,C*%
%TO.N,Net-(SW2-C)*%
X157500000Y-110000000D03*
%TD*%
D19*
%TO.P,J1,G*%
%TO.N,GND*%
X142500000Y-56020000D03*
D20*
%TO.P,J1,S*%
X142500000Y-59120000D03*
%TO.P,J1,T*%
%TO.N,Net-(J1-PadT)*%
X142500000Y-67420000D03*
%TD*%
D10*
%TO.P,R1,1*%
%TO.N,Net-(R1-Pad1)*%
X138690000Y-122500000D03*
D13*
%TO.P,R1,2*%
%TO.N,Net-(SW1-A)*%
X146310000Y-122500000D03*
%TD*%
D19*
%TO.P,J2,G*%
%TO.N,GND*%
X157500000Y-56020000D03*
D20*
%TO.P,J2,S*%
X157500000Y-59120000D03*
%TO.P,J2,T*%
%TO.N,Net-(J2-PadT)*%
X157500000Y-67420000D03*
%TD*%
D18*
%TO.P,SW1,1,A*%
%TO.N,Net-(SW1-A)*%
X142500000Y-105000000D03*
%TO.P,SW1,2,B*%
%TO.N,Net-(SW1-B)*%
X142500000Y-107500000D03*
%TO.P,SW1,3,C*%
%TO.N,Net-(SW1-C)*%
X142500000Y-110000000D03*
%TD*%
D11*
%TO.P,U1,1*%
%TO.N,Net-(R2-Pad2)*%
X138690000Y-88690000D03*
D12*
%TO.P,U1,2,-*%
%TO.N,Net-(SW1-A)*%
X138690000Y-91230000D03*
%TO.P,U1,3,+*%
%TO.N,Net-(SW1-C)*%
X138690000Y-93770000D03*
%TO.P,U1,4,V-*%
%TO.N,VSS*%
X138690000Y-96310000D03*
%TO.P,U1,5,+*%
%TO.N,Net-(SW1-B)*%
X146310000Y-96310000D03*
%TO.P,U1,6,-*%
%TO.N,Net-(U1B--)*%
X146310000Y-93770000D03*
%TO.P,U1,7*%
X146310000Y-91230000D03*
%TO.P,U1,8,V+*%
%TO.N,VDD*%
X146310000Y-88690000D03*
%TD*%
D10*
%TO.P,R7,1*%
%TO.N,GND*%
X161310000Y-81000000D03*
D13*
%TO.P,R7,2*%
%TO.N,Net-(SW2-C)*%
X153690000Y-81000000D03*
%TD*%
D10*
%TO.P,R8,1*%
%TO.N,Net-(J2-PadT)*%
X153690000Y-77500000D03*
D13*
%TO.P,R8,2*%
%TO.N,Net-(U2B--)*%
X161310000Y-77500000D03*
%TD*%
D21*
%TO.N,Net-(R1-Pad1)*%
X142500000Y-130500000D02*
X139999999Y-130500000D01*
D22*
%TO.N,VSS*%
X140630000Y-98250000D02*
X151750000Y-98250000D01*
X151750000Y-98250000D02*
X153690000Y-96310000D01*
X138690000Y-96310000D02*
X140630000Y-98250000D01*
D21*
%TO.N,Net-(SW1-A)*%
X140500000Y-89750000D02*
X139020000Y-91230000D01*
X140000000Y-85000000D02*
X140000000Y-86750000D01*
X140500000Y-87250000D02*
X140500000Y-89750000D01*
X144500000Y-120690000D02*
X146310000Y-122500000D01*
X142500000Y-105000000D02*
X144500000Y-107000000D01*
X144500000Y-107000000D02*
X144500000Y-120690000D01*
X140000000Y-86750000D02*
X140500000Y-87250000D01*
X139020000Y-91230000D02*
X138690000Y-91230000D01*
%TO.N,Net-(SW1-C)*%
X136750000Y-104250000D02*
X136750000Y-95710000D01*
X142500000Y-110000000D02*
X136750000Y-104250000D01*
X138690000Y-113810000D02*
X142500000Y-110000000D01*
X138690000Y-119000000D02*
X138690000Y-113810000D01*
X136750000Y-95710000D02*
X138690000Y-93770000D01*
%TO.N,Net-(R5-Pad1)*%
X157500000Y-130500000D02*
X154999999Y-130500000D01*
%TO.N,Net-(SW2-A)*%
X155500000Y-89750000D02*
X154020000Y-91230000D01*
X159500000Y-107000000D02*
X157500000Y-105000000D01*
X161310000Y-122500000D02*
X159500000Y-120690000D01*
X155000000Y-85000000D02*
X155000000Y-86750000D01*
X155500000Y-87250000D02*
X155500000Y-89750000D01*
X159500000Y-120690000D02*
X159500000Y-107000000D01*
X154020000Y-91230000D02*
X153690000Y-91230000D01*
X155000000Y-86750000D02*
X155500000Y-87250000D01*
%TO.N,Net-(SW2-C)*%
X153690000Y-81000000D02*
X151750000Y-82940000D01*
X153750000Y-119000000D02*
X153750000Y-113750000D01*
X151750000Y-82940000D02*
X151750000Y-91830000D01*
X151750000Y-91830000D02*
X153690000Y-93770000D01*
X153750000Y-113750000D02*
X157500000Y-110000000D01*
%TD*%
%TA.AperFunction,Conductor*%
%TO.N,VDD*%
G36*
X162003736Y-50500726D02*
G01*
X162293796Y-50518271D01*
X162308659Y-50520076D01*
X162590798Y-50571780D01*
X162605335Y-50575363D01*
X162879172Y-50660695D01*
X162893163Y-50666000D01*
X163154743Y-50783727D01*
X163167989Y-50790680D01*
X163413465Y-50939075D01*
X163425776Y-50947573D01*
X163651573Y-51124473D01*
X163662781Y-51134403D01*
X163865596Y-51337218D01*
X163875526Y-51348426D01*
X163995481Y-51501538D01*
X164052422Y-51574217D01*
X164060928Y-51586540D01*
X164209316Y-51832004D01*
X164216275Y-51845263D01*
X164333997Y-52106831D01*
X164339306Y-52120832D01*
X164424635Y-52394663D01*
X164428219Y-52409201D01*
X164479923Y-52691340D01*
X164481728Y-52706205D01*
X164499274Y-52996263D01*
X164499500Y-53003750D01*
X164499500Y-136628261D01*
X164479815Y-136695300D01*
X164427011Y-136741055D01*
X164357853Y-136750999D01*
X164294297Y-136721974D01*
X164258459Y-136669216D01*
X164239762Y-136615784D01*
X164213801Y-136541592D01*
X164091945Y-136288555D01*
X163942523Y-136050752D01*
X163767416Y-135831175D01*
X163568825Y-135632584D01*
X163349248Y-135457477D01*
X163111445Y-135308055D01*
X163111442Y-135308053D01*
X162858411Y-135186200D01*
X162593329Y-135093443D01*
X162593317Y-135093439D01*
X162319512Y-135030945D01*
X162319494Y-135030942D01*
X162040431Y-134999500D01*
X162040425Y-134999500D01*
X161759575Y-134999500D01*
X161759568Y-134999500D01*
X161480505Y-135030942D01*
X161480487Y-135030945D01*
X161206682Y-135093439D01*
X161206670Y-135093443D01*
X160941588Y-135186200D01*
X160688557Y-135308053D01*
X160450753Y-135457476D01*
X160231175Y-135632583D01*
X160032583Y-135831175D01*
X159857476Y-136050753D01*
X159708053Y-136288557D01*
X159586200Y-136541588D01*
X159493443Y-136806670D01*
X159493439Y-136806682D01*
X159430945Y-137080487D01*
X159430942Y-137080505D01*
X159399500Y-137359568D01*
X159399500Y-137640431D01*
X159430942Y-137919494D01*
X159430945Y-137919512D01*
X159493439Y-138193317D01*
X159493443Y-138193329D01*
X159586200Y-138458411D01*
X159708053Y-138711442D01*
X159708055Y-138711445D01*
X159857477Y-138949248D01*
X160032584Y-139168825D01*
X160231175Y-139367416D01*
X160450752Y-139542523D01*
X160688555Y-139691945D01*
X160941592Y-139813801D01*
X161140680Y-139883465D01*
X161206670Y-139906556D01*
X161206682Y-139906560D01*
X161480491Y-139969055D01*
X161480497Y-139969055D01*
X161480505Y-139969057D01*
X161666547Y-139990018D01*
X161759569Y-140000499D01*
X161759572Y-140000500D01*
X161759575Y-140000500D01*
X162040428Y-140000500D01*
X162040429Y-140000499D01*
X162183055Y-139984429D01*
X162319494Y-139969057D01*
X162319499Y-139969056D01*
X162319509Y-139969055D01*
X162593318Y-139906560D01*
X162858408Y-139813801D01*
X163111445Y-139691945D01*
X163349248Y-139542523D01*
X163568825Y-139367416D01*
X163767416Y-139168825D01*
X163942523Y-138949248D01*
X164091945Y-138711445D01*
X164213801Y-138458408D01*
X164258459Y-138330783D01*
X164299180Y-138274007D01*
X164364133Y-138248260D01*
X164432695Y-138261716D01*
X164483097Y-138310104D01*
X164499500Y-138371738D01*
X164499500Y-146996249D01*
X164499274Y-147003736D01*
X164481728Y-147293794D01*
X164479923Y-147308659D01*
X164428219Y-147590798D01*
X164424635Y-147605336D01*
X164339306Y-147879167D01*
X164333997Y-147893168D01*
X164216275Y-148154736D01*
X164209316Y-148167995D01*
X164060928Y-148413459D01*
X164052422Y-148425782D01*
X163875526Y-148651573D01*
X163865596Y-148662781D01*
X163662781Y-148865596D01*
X163651573Y-148875526D01*
X163425782Y-149052422D01*
X163413459Y-149060928D01*
X163167995Y-149209316D01*
X163154736Y-149216275D01*
X162893168Y-149333997D01*
X162879167Y-149339306D01*
X162605336Y-149424635D01*
X162590798Y-149428219D01*
X162308659Y-149479923D01*
X162293794Y-149481728D01*
X162014454Y-149498624D01*
X162003735Y-149499273D01*
X161996250Y-149499499D01*
X138003734Y-149499499D01*
X137996247Y-149499273D01*
X137706205Y-149481728D01*
X137691340Y-149479923D01*
X137409201Y-149428219D01*
X137394663Y-149424635D01*
X137120832Y-149339306D01*
X137106831Y-149333997D01*
X136845263Y-149216275D01*
X136832004Y-149209316D01*
X136586540Y-149060928D01*
X136574217Y-149052422D01*
X136348426Y-148875526D01*
X136337218Y-148865596D01*
X136134403Y-148662781D01*
X136124473Y-148651573D01*
X135947573Y-148425776D01*
X135939075Y-148413465D01*
X135790680Y-148167989D01*
X135783727Y-148154743D01*
X135666000Y-147893163D01*
X135660693Y-147879167D01*
X135639400Y-147810836D01*
X135575363Y-147605335D01*
X135571780Y-147590798D01*
X135520076Y-147308659D01*
X135518271Y-147293794D01*
X135500726Y-147003736D01*
X135500500Y-146996249D01*
X135500500Y-146297176D01*
X138799500Y-146297176D01*
X138799500Y-147802818D01*
X138799501Y-147802822D01*
X138814474Y-147935720D01*
X138873433Y-148104218D01*
X138968406Y-148255365D01*
X138968407Y-148255366D01*
X139094634Y-148381593D01*
X139245783Y-148476567D01*
X139308356Y-148498462D01*
X139414279Y-148535526D01*
X139499271Y-148545101D01*
X139547183Y-148550500D01*
X140452816Y-148550499D01*
X140452818Y-148550499D01*
X140452819Y-148550498D01*
X140585723Y-148535525D01*
X140754217Y-148476567D01*
X140905366Y-148381593D01*
X141031593Y-148255366D01*
X141031593Y-148255365D01*
X141032270Y-148254689D01*
X141093593Y-148221204D01*
X141163285Y-148226188D01*
X141207632Y-148254689D01*
X141218253Y-148265310D01*
X141218258Y-148265314D01*
X141371059Y-148376329D01*
X141539362Y-148462085D01*
X141718997Y-148520451D01*
X141750000Y-148525362D01*
X141750000Y-147330330D01*
X141769745Y-147350075D01*
X141855255Y-147399444D01*
X141950630Y-147425000D01*
X142049370Y-147425000D01*
X142144745Y-147399444D01*
X142230255Y-147350075D01*
X142250000Y-147330330D01*
X142250000Y-148525361D01*
X142281002Y-148520451D01*
X142460637Y-148462085D01*
X142628940Y-148376329D01*
X142781741Y-148265314D01*
X142781746Y-148265310D01*
X142911966Y-148135091D01*
X142973289Y-148101606D01*
X143042981Y-148106590D01*
X143087328Y-148135091D01*
X143217927Y-148265690D01*
X143370801Y-148376760D01*
X143442827Y-148413459D01*
X143539163Y-148462545D01*
X143539165Y-148462545D01*
X143539168Y-148462547D01*
X143582314Y-148476566D01*
X143718881Y-148520940D01*
X143905514Y-148550500D01*
X143905519Y-148550500D01*
X144094486Y-148550500D01*
X144281118Y-148520940D01*
X144282623Y-148520451D01*
X144460832Y-148462547D01*
X144629199Y-148376760D01*
X144782073Y-148265690D01*
X144915690Y-148132073D01*
X145026760Y-147979199D01*
X145112547Y-147810832D01*
X145170940Y-147631118D01*
X145200500Y-147444486D01*
X145200500Y-146655513D01*
X145170940Y-146468881D01*
X145153931Y-146416536D01*
X145115149Y-146297176D01*
X154799500Y-146297176D01*
X154799500Y-147802818D01*
X154799501Y-147802822D01*
X154814474Y-147935720D01*
X154873433Y-148104218D01*
X154968406Y-148255365D01*
X154968407Y-148255366D01*
X155094634Y-148381593D01*
X155245783Y-148476567D01*
X155308356Y-148498462D01*
X155414279Y-148535526D01*
X155499271Y-148545101D01*
X155547183Y-148550500D01*
X156452816Y-148550499D01*
X156452818Y-148550499D01*
X156452819Y-148550498D01*
X156585723Y-148535525D01*
X156754217Y-148476567D01*
X156905366Y-148381593D01*
X157031593Y-148255366D01*
X157031593Y-148255365D01*
X157032270Y-148254689D01*
X157093593Y-148221204D01*
X157163285Y-148226188D01*
X157207632Y-148254689D01*
X157218253Y-148265310D01*
X157218258Y-148265314D01*
X157371059Y-148376329D01*
X157539362Y-148462085D01*
X157718997Y-148520451D01*
X157750000Y-148525362D01*
X157750000Y-147330330D01*
X157769745Y-147350075D01*
X157855255Y-147399444D01*
X157950630Y-147425000D01*
X158049370Y-147425000D01*
X158144745Y-147399444D01*
X158230255Y-147350075D01*
X158250000Y-147330330D01*
X158250000Y-148525361D01*
X158281002Y-148520451D01*
X158460637Y-148462085D01*
X158628940Y-148376329D01*
X158781741Y-148265314D01*
X158781746Y-148265310D01*
X158911966Y-148135091D01*
X158973289Y-148101606D01*
X159042981Y-148106590D01*
X159087328Y-148135091D01*
X159217927Y-148265690D01*
X159370801Y-148376760D01*
X159442827Y-148413459D01*
X159539163Y-148462545D01*
X159539165Y-148462545D01*
X159539168Y-148462547D01*
X159582314Y-148476566D01*
X159718881Y-148520940D01*
X159905514Y-148550500D01*
X159905519Y-148550500D01*
X160094486Y-148550500D01*
X160281118Y-148520940D01*
X160282623Y-148520451D01*
X160460832Y-148462547D01*
X160629199Y-148376760D01*
X160782073Y-148265690D01*
X160915690Y-148132073D01*
X161026760Y-147979199D01*
X161112547Y-147810832D01*
X161170940Y-147631118D01*
X161200500Y-147444486D01*
X161200500Y-146655513D01*
X161170940Y-146468881D01*
X161143846Y-146385497D01*
X161112547Y-146289168D01*
X161112545Y-146289165D01*
X161112545Y-146289163D01*
X161026759Y-146120800D01*
X160915690Y-145967927D01*
X160782073Y-145834310D01*
X160629199Y-145723240D01*
X160619712Y-145718406D01*
X160460836Y-145637454D01*
X160281118Y-145579059D01*
X160094486Y-145549500D01*
X160094481Y-145549500D01*
X159905519Y-145549500D01*
X159905514Y-145549500D01*
X159718881Y-145579059D01*
X159539163Y-145637454D01*
X159370800Y-145723240D01*
X159283579Y-145786610D01*
X159217927Y-145834310D01*
X159217925Y-145834312D01*
X159217924Y-145834312D01*
X159087328Y-145964909D01*
X159026005Y-145998394D01*
X158956313Y-145993410D01*
X158911966Y-145964909D01*
X158781746Y-145834689D01*
X158781741Y-145834685D01*
X158628940Y-145723670D01*
X158460635Y-145637913D01*
X158281004Y-145579549D01*
X158280995Y-145579547D01*
X158250000Y-145574637D01*
X158250000Y-146769670D01*
X158230255Y-146749925D01*
X158144745Y-146700556D01*
X158049370Y-146675000D01*
X157950630Y-146675000D01*
X157855255Y-146700556D01*
X157769745Y-146749925D01*
X157750000Y-146769670D01*
X157750000Y-145574637D01*
X157749999Y-145574637D01*
X157719004Y-145579547D01*
X157718995Y-145579549D01*
X157539364Y-145637913D01*
X157371059Y-145723670D01*
X157218255Y-145834687D01*
X157218247Y-145834694D01*
X157207628Y-145845313D01*
X157146304Y-145878796D01*
X157076612Y-145873809D01*
X157032269Y-145845310D01*
X156905365Y-145718406D01*
X156754218Y-145623433D01*
X156585720Y-145564473D01*
X156452821Y-145549500D01*
X155547181Y-145549500D01*
X155547177Y-145549501D01*
X155414279Y-145564474D01*
X155245781Y-145623433D01*
X155094634Y-145718406D01*
X154968406Y-145844634D01*
X154873433Y-145995781D01*
X154814473Y-146164279D01*
X154799500Y-146297176D01*
X145115149Y-146297176D01*
X145112547Y-146289168D01*
X145112545Y-146289165D01*
X145112545Y-146289163D01*
X145026759Y-146120800D01*
X144915690Y-145967927D01*
X144782073Y-145834310D01*
X144629199Y-145723240D01*
X144619712Y-145718406D01*
X144460836Y-145637454D01*
X144281118Y-145579059D01*
X144094486Y-145549500D01*
X144094481Y-145549500D01*
X143905519Y-145549500D01*
X143905514Y-145549500D01*
X143718881Y-145579059D01*
X143539163Y-145637454D01*
X143370800Y-145723240D01*
X143283579Y-145786610D01*
X143217927Y-145834310D01*
X143217925Y-145834312D01*
X143217924Y-145834312D01*
X143087328Y-145964909D01*
X143026005Y-145998394D01*
X142956313Y-145993410D01*
X142911966Y-145964909D01*
X142781746Y-145834689D01*
X142781741Y-145834685D01*
X142628940Y-145723670D01*
X142460635Y-145637913D01*
X142281004Y-145579549D01*
X142280995Y-145579547D01*
X142250000Y-145574637D01*
X142250000Y-146769670D01*
X142230255Y-146749925D01*
X142144745Y-146700556D01*
X142049370Y-146675000D01*
X141950630Y-146675000D01*
X141855255Y-146700556D01*
X141769745Y-146749925D01*
X141750000Y-146769670D01*
X141750000Y-145574637D01*
X141749999Y-145574637D01*
X141719004Y-145579547D01*
X141718995Y-145579549D01*
X141539364Y-145637913D01*
X141371059Y-145723670D01*
X141218255Y-145834687D01*
X141218247Y-145834694D01*
X141207628Y-145845313D01*
X141146304Y-145878796D01*
X141076612Y-145873809D01*
X141032269Y-145845310D01*
X140905365Y-145718406D01*
X140754218Y-145623433D01*
X140585720Y-145564473D01*
X140452821Y-145549500D01*
X139547181Y-145549500D01*
X139547177Y-145549501D01*
X139414279Y-145564474D01*
X139245781Y-145623433D01*
X139094634Y-145718406D01*
X138968406Y-145844634D01*
X138873433Y-145995781D01*
X138814473Y-146164279D01*
X138799500Y-146297176D01*
X135500500Y-146297176D01*
X135500500Y-138371738D01*
X135520185Y-138304699D01*
X135572989Y-138258944D01*
X135642147Y-138249000D01*
X135705703Y-138278025D01*
X135741541Y-138330783D01*
X135786200Y-138458411D01*
X135908053Y-138711442D01*
X135908055Y-138711445D01*
X136057477Y-138949248D01*
X136232584Y-139168825D01*
X136431175Y-139367416D01*
X136650752Y-139542523D01*
X136888555Y-139691945D01*
X137141592Y-139813801D01*
X137340680Y-139883465D01*
X137406670Y-139906556D01*
X137406682Y-139906560D01*
X137680491Y-139969055D01*
X137680497Y-139969055D01*
X137680505Y-139969057D01*
X137866547Y-139990018D01*
X137959569Y-140000499D01*
X137959572Y-140000500D01*
X137959575Y-140000500D01*
X138240428Y-140000500D01*
X138240429Y-140000499D01*
X138383055Y-139984429D01*
X138519494Y-139969057D01*
X138519499Y-139969056D01*
X138519509Y-139969055D01*
X138793318Y-139906560D01*
X139058408Y-139813801D01*
X139311445Y-139691945D01*
X139549248Y-139542523D01*
X139768825Y-139367416D01*
X139967416Y-139168825D01*
X140142523Y-138949248D01*
X140291945Y-138711445D01*
X140413801Y-138458408D01*
X140506560Y-138193318D01*
X140569055Y-137919509D01*
X140600500Y-137640425D01*
X140600500Y-137359575D01*
X140600499Y-137359568D01*
X144399500Y-137359568D01*
X144399500Y-137640431D01*
X144430942Y-137919494D01*
X144430945Y-137919512D01*
X144493439Y-138193317D01*
X144493443Y-138193329D01*
X144586200Y-138458411D01*
X144708053Y-138711442D01*
X144708055Y-138711445D01*
X144857477Y-138949248D01*
X145032584Y-139168825D01*
X145231175Y-139367416D01*
X145450752Y-139542523D01*
X145688555Y-139691945D01*
X145941592Y-139813801D01*
X146140680Y-139883465D01*
X146206670Y-139906556D01*
X146206682Y-139906560D01*
X146480491Y-139969055D01*
X146480497Y-139969055D01*
X146480505Y-139969057D01*
X146666547Y-139990018D01*
X146759569Y-140000499D01*
X146759572Y-140000500D01*
X146759575Y-140000500D01*
X147040428Y-140000500D01*
X147040429Y-140000499D01*
X147183055Y-139984429D01*
X147319494Y-139969057D01*
X147319499Y-139969056D01*
X147319509Y-139969055D01*
X147593318Y-139906560D01*
X147858408Y-139813801D01*
X148111445Y-139691945D01*
X148349248Y-139542523D01*
X148568825Y-139367416D01*
X148767416Y-139168825D01*
X148942523Y-138949248D01*
X149091945Y-138711445D01*
X149213801Y-138458408D01*
X149306560Y-138193318D01*
X149369055Y-137919509D01*
X149400500Y-137640425D01*
X149400500Y-137359575D01*
X149400499Y-137359568D01*
X150599500Y-137359568D01*
X150599500Y-137640431D01*
X150630942Y-137919494D01*
X150630945Y-137919512D01*
X150693439Y-138193317D01*
X150693443Y-138193329D01*
X150786200Y-138458411D01*
X150908053Y-138711442D01*
X150908055Y-138711445D01*
X151057477Y-138949248D01*
X151232584Y-139168825D01*
X151431175Y-139367416D01*
X151650752Y-139542523D01*
X151888555Y-139691945D01*
X152141592Y-139813801D01*
X152340680Y-139883465D01*
X152406670Y-139906556D01*
X152406682Y-139906560D01*
X152680491Y-139969055D01*
X152680497Y-139969055D01*
X152680505Y-139969057D01*
X152866547Y-139990018D01*
X152959569Y-140000499D01*
X152959572Y-140000500D01*
X152959575Y-140000500D01*
X153240428Y-140000500D01*
X153240429Y-140000499D01*
X153383055Y-139984429D01*
X153519494Y-139969057D01*
X153519499Y-139969056D01*
X153519509Y-139969055D01*
X153793318Y-139906560D01*
X154058408Y-139813801D01*
X154311445Y-139691945D01*
X154549248Y-139542523D01*
X154768825Y-139367416D01*
X154967416Y-139168825D01*
X155142523Y-138949248D01*
X155291945Y-138711445D01*
X155413801Y-138458408D01*
X155506560Y-138193318D01*
X155569055Y-137919509D01*
X155600500Y-137640425D01*
X155600500Y-137359575D01*
X155569055Y-137080491D01*
X155506560Y-136806682D01*
X155413801Y-136541592D01*
X155291945Y-136288555D01*
X155142523Y-136050752D01*
X154967416Y-135831175D01*
X154768825Y-135632584D01*
X154549248Y-135457477D01*
X154311445Y-135308055D01*
X154311442Y-135308053D01*
X154058411Y-135186200D01*
X153793329Y-135093443D01*
X153793317Y-135093439D01*
X153519512Y-135030945D01*
X153519494Y-135030942D01*
X153240431Y-134999500D01*
X153240425Y-134999500D01*
X152959575Y-134999500D01*
X152959568Y-134999500D01*
X152680505Y-135030942D01*
X152680487Y-135030945D01*
X152406682Y-135093439D01*
X152406670Y-135093443D01*
X152141588Y-135186200D01*
X151888557Y-135308053D01*
X151650753Y-135457476D01*
X151431175Y-135632583D01*
X151232583Y-135831175D01*
X151057476Y-136050753D01*
X150908053Y-136288557D01*
X150786200Y-136541588D01*
X150693443Y-136806670D01*
X150693439Y-136806682D01*
X150630945Y-137080487D01*
X150630942Y-137080505D01*
X150599500Y-137359568D01*
X149400499Y-137359568D01*
X149369055Y-137080491D01*
X149306560Y-136806682D01*
X149213801Y-136541592D01*
X149091945Y-136288555D01*
X148942523Y-136050752D01*
X148767416Y-135831175D01*
X148568825Y-135632584D01*
X148349248Y-135457477D01*
X148111445Y-135308055D01*
X148111442Y-135308053D01*
X147858411Y-135186200D01*
X147593329Y-135093443D01*
X147593317Y-135093439D01*
X147319512Y-135030945D01*
X147319494Y-135030942D01*
X147040431Y-134999500D01*
X147040425Y-134999500D01*
X146759575Y-134999500D01*
X146759568Y-134999500D01*
X146480505Y-135030942D01*
X146480487Y-135030945D01*
X146206682Y-135093439D01*
X146206670Y-135093443D01*
X145941588Y-135186200D01*
X145688557Y-135308053D01*
X145450753Y-135457476D01*
X145231175Y-135632583D01*
X145032583Y-135831175D01*
X144857476Y-136050753D01*
X144708053Y-136288557D01*
X144586200Y-136541588D01*
X144493443Y-136806670D01*
X144493439Y-136806682D01*
X144430945Y-137080487D01*
X144430942Y-137080505D01*
X144399500Y-137359568D01*
X140600499Y-137359568D01*
X140569055Y-137080491D01*
X140506560Y-136806682D01*
X140413801Y-136541592D01*
X140291945Y-136288555D01*
X140142523Y-136050752D01*
X139967416Y-135831175D01*
X139768825Y-135632584D01*
X139549248Y-135457477D01*
X139311445Y-135308055D01*
X139311442Y-135308053D01*
X139058411Y-135186200D01*
X138793329Y-135093443D01*
X138793317Y-135093439D01*
X138519512Y-135030945D01*
X138519494Y-135030942D01*
X138240431Y-134999500D01*
X138240425Y-134999500D01*
X137959575Y-134999500D01*
X137959568Y-134999500D01*
X137680505Y-135030942D01*
X137680487Y-135030945D01*
X137406682Y-135093439D01*
X137406670Y-135093443D01*
X137141588Y-135186200D01*
X136888557Y-135308053D01*
X136650753Y-135457476D01*
X136431175Y-135632583D01*
X136232583Y-135831175D01*
X136057476Y-136050753D01*
X135908053Y-136288557D01*
X135786200Y-136541588D01*
X135741541Y-136669216D01*
X135700819Y-136725992D01*
X135635867Y-136751739D01*
X135567305Y-136738283D01*
X135516902Y-136689895D01*
X135500500Y-136628261D01*
X135500500Y-129997648D01*
X138699499Y-129997648D01*
X138699499Y-131002351D01*
X138731521Y-131204534D01*
X138794780Y-131399223D01*
X138887714Y-131581613D01*
X139008027Y-131747213D01*
X139152785Y-131891971D01*
X139307748Y-132004556D01*
X139318389Y-132012287D01*
X139434606Y-132071503D01*
X139500775Y-132105218D01*
X139500777Y-132105218D01*
X139500780Y-132105220D01*
X139605136Y-132139127D01*
X139695464Y-132168477D01*
X139796556Y-132184488D01*
X139897647Y-132200500D01*
X139897648Y-132200500D01*
X140102350Y-132200500D01*
X140102351Y-132200500D01*
X140304533Y-132168477D01*
X140499218Y-132105220D01*
X140681609Y-132012287D01*
X140774589Y-131944732D01*
X140847212Y-131891971D01*
X140847214Y-131891968D01*
X140847218Y-131891966D01*
X140991965Y-131747219D01*
X140991967Y-131747215D01*
X140991970Y-131747213D01*
X141112285Y-131581611D01*
X141139514Y-131528172D01*
X141187488Y-131477376D01*
X141255309Y-131460580D01*
X141321444Y-131483117D01*
X141360483Y-131528170D01*
X141387713Y-131581611D01*
X141508028Y-131747213D01*
X141652786Y-131891971D01*
X141807749Y-132004556D01*
X141818390Y-132012287D01*
X141934607Y-132071503D01*
X142000776Y-132105218D01*
X142000778Y-132105218D01*
X142000781Y-132105220D01*
X142105137Y-132139127D01*
X142195465Y-132168477D01*
X142296557Y-132184488D01*
X142397648Y-132200500D01*
X142397649Y-132200500D01*
X142602351Y-132200500D01*
X142602352Y-132200500D01*
X142804534Y-132168477D01*
X142999219Y-132105220D01*
X143181610Y-132012287D01*
X143274590Y-131944732D01*
X143347213Y-131891971D01*
X143347215Y-131891968D01*
X143347219Y-131891966D01*
X143491966Y-131747219D01*
X143491968Y-131747215D01*
X143491971Y-131747213D01*
X143612286Y-131581611D01*
X143639515Y-131528172D01*
X143687489Y-131477376D01*
X143755310Y-131460580D01*
X143821445Y-131483117D01*
X143860484Y-131528170D01*
X143887714Y-131581611D01*
X144008029Y-131747213D01*
X144152787Y-131891971D01*
X144307750Y-132004556D01*
X144318391Y-132012287D01*
X144434608Y-132071503D01*
X144500777Y-132105218D01*
X144500779Y-132105218D01*
X144500782Y-132105220D01*
X144605138Y-132139127D01*
X144695466Y-132168477D01*
X144796558Y-132184488D01*
X144897649Y-132200500D01*
X144897650Y-132200500D01*
X145102352Y-132200500D01*
X145102353Y-132200500D01*
X145304535Y-132168477D01*
X145499220Y-132105220D01*
X145681611Y-132012287D01*
X145774591Y-131944732D01*
X145847214Y-131891971D01*
X145847216Y-131891968D01*
X145847220Y-131891966D01*
X145991967Y-131747219D01*
X145991969Y-131747215D01*
X145991972Y-131747213D01*
X146044733Y-131674590D01*
X146112288Y-131581610D01*
X146205221Y-131399219D01*
X146268478Y-131204534D01*
X146300501Y-131002352D01*
X146300501Y-129997648D01*
X153699499Y-129997648D01*
X153699499Y-131002351D01*
X153731521Y-131204534D01*
X153794780Y-131399223D01*
X153887714Y-131581613D01*
X154008027Y-131747213D01*
X154152785Y-131891971D01*
X154307748Y-132004556D01*
X154318389Y-132012287D01*
X154434606Y-132071503D01*
X154500775Y-132105218D01*
X154500777Y-132105218D01*
X154500780Y-132105220D01*
X154605136Y-132139127D01*
X154695464Y-132168477D01*
X154796556Y-132184488D01*
X154897647Y-132200500D01*
X154897648Y-132200500D01*
X155102350Y-132200500D01*
X155102351Y-132200500D01*
X155304533Y-132168477D01*
X155499218Y-132105220D01*
X155681609Y-132012287D01*
X155774589Y-131944732D01*
X155847212Y-131891971D01*
X155847214Y-131891968D01*
X155847218Y-131891966D01*
X155991965Y-131747219D01*
X155991967Y-131747215D01*
X155991970Y-131747213D01*
X156112285Y-131581611D01*
X156139514Y-131528172D01*
X156187488Y-131477376D01*
X156255309Y-131460580D01*
X156321444Y-131483117D01*
X156360483Y-131528170D01*
X156387713Y-131581611D01*
X156508028Y-131747213D01*
X156652786Y-131891971D01*
X156807749Y-132004556D01*
X156818390Y-132012287D01*
X156934607Y-132071503D01*
X157000776Y-132105218D01*
X157000778Y-132105218D01*
X157000781Y-132105220D01*
X157105137Y-132139127D01*
X157195465Y-132168477D01*
X157296557Y-132184488D01*
X157397648Y-132200500D01*
X157397649Y-132200500D01*
X157602351Y-132200500D01*
X157602352Y-132200500D01*
X157804534Y-132168477D01*
X157999219Y-132105220D01*
X158181610Y-132012287D01*
X158274590Y-131944732D01*
X158347213Y-131891971D01*
X158347215Y-131891968D01*
X158347219Y-131891966D01*
X158491966Y-131747219D01*
X158491968Y-131747215D01*
X158491971Y-131747213D01*
X158612286Y-131581611D01*
X158639515Y-131528172D01*
X158687489Y-131477376D01*
X158755310Y-131460580D01*
X158821445Y-131483117D01*
X158860484Y-131528170D01*
X158887714Y-131581611D01*
X159008029Y-131747213D01*
X159152787Y-131891971D01*
X159307750Y-132004556D01*
X159318391Y-132012287D01*
X159434608Y-132071503D01*
X159500777Y-132105218D01*
X159500779Y-132105218D01*
X159500782Y-132105220D01*
X159605138Y-132139127D01*
X159695466Y-132168477D01*
X159796558Y-132184488D01*
X159897649Y-132200500D01*
X159897650Y-132200500D01*
X160102352Y-132200500D01*
X160102353Y-132200500D01*
X160304535Y-132168477D01*
X160499220Y-132105220D01*
X160681611Y-132012287D01*
X160774591Y-131944732D01*
X160847214Y-131891971D01*
X160847216Y-131891968D01*
X160847220Y-131891966D01*
X160991967Y-131747219D01*
X160991969Y-131747215D01*
X160991972Y-131747213D01*
X161044733Y-131674590D01*
X161112288Y-131581610D01*
X161205221Y-131399219D01*
X161268478Y-131204534D01*
X161300501Y-131002352D01*
X161300501Y-129997648D01*
X161268478Y-129795466D01*
X161250001Y-129738601D01*
X161205219Y-129600776D01*
X161139516Y-129471828D01*
X161112288Y-129418390D01*
X161104557Y-129407749D01*
X160991972Y-129252786D01*
X160847214Y-129108028D01*
X160681614Y-128987715D01*
X160681613Y-128987714D01*
X160681611Y-128987713D01*
X160624654Y-128958691D01*
X160499224Y-128894781D01*
X160304535Y-128831522D01*
X160129996Y-128803878D01*
X160102353Y-128799500D01*
X159897649Y-128799500D01*
X159873330Y-128803351D01*
X159695466Y-128831522D01*
X159500777Y-128894781D01*
X159318387Y-128987715D01*
X159152787Y-129108028D01*
X159008029Y-129252786D01*
X158887715Y-129418386D01*
X158860484Y-129471830D01*
X158812509Y-129522625D01*
X158744688Y-129539419D01*
X158678553Y-129516881D01*
X158639515Y-129471828D01*
X158612287Y-129418390D01*
X158604556Y-129407749D01*
X158491971Y-129252786D01*
X158347213Y-129108028D01*
X158181613Y-128987715D01*
X158181612Y-128987714D01*
X158181610Y-128987713D01*
X158124653Y-128958691D01*
X157999223Y-128894781D01*
X157804534Y-128831522D01*
X157629995Y-128803878D01*
X157602352Y-128799500D01*
X157397648Y-128799500D01*
X157373329Y-128803351D01*
X157195465Y-128831522D01*
X157000776Y-128894781D01*
X156818386Y-128987715D01*
X156652786Y-129108028D01*
X156508028Y-129252786D01*
X156387714Y-129418386D01*
X156360483Y-129471830D01*
X156312508Y-129522625D01*
X156244687Y-129539419D01*
X156178552Y-129516881D01*
X156139514Y-129471828D01*
X156112286Y-129418390D01*
X156104555Y-129407749D01*
X155991970Y-129252786D01*
X155847212Y-129108028D01*
X155681612Y-128987715D01*
X155681611Y-128987714D01*
X155681609Y-128987713D01*
X155624652Y-128958691D01*
X155499222Y-128894781D01*
X155304533Y-128831522D01*
X155129994Y-128803878D01*
X155102351Y-128799500D01*
X154897647Y-128799500D01*
X154873328Y-128803351D01*
X154695464Y-128831522D01*
X154500775Y-128894781D01*
X154318385Y-128987715D01*
X154152785Y-129108028D01*
X154008027Y-129252786D01*
X153887714Y-129418386D01*
X153794780Y-129600776D01*
X153731521Y-129795465D01*
X153699499Y-129997648D01*
X146300501Y-129997648D01*
X146268478Y-129795466D01*
X146250001Y-129738601D01*
X146205219Y-129600776D01*
X146139516Y-129471828D01*
X146112288Y-129418390D01*
X146104557Y-129407749D01*
X145991972Y-129252786D01*
X145847214Y-129108028D01*
X145681614Y-128987715D01*
X145681613Y-128987714D01*
X145681611Y-128987713D01*
X145624654Y-128958691D01*
X145499224Y-128894781D01*
X145304535Y-128831522D01*
X145129996Y-128803878D01*
X145102353Y-128799500D01*
X144897649Y-128799500D01*
X144873330Y-128803351D01*
X144695466Y-128831522D01*
X144500777Y-128894781D01*
X144318387Y-128987715D01*
X144152787Y-129108028D01*
X144008029Y-129252786D01*
X143887715Y-129418386D01*
X143860484Y-129471830D01*
X143812509Y-129522625D01*
X143744688Y-129539419D01*
X143678553Y-129516881D01*
X143639515Y-129471828D01*
X143612287Y-129418390D01*
X143604556Y-129407749D01*
X143491971Y-129252786D01*
X143347213Y-129108028D01*
X143181613Y-128987715D01*
X143181612Y-128987714D01*
X143181610Y-128987713D01*
X143124653Y-128958691D01*
X142999223Y-128894781D01*
X142804534Y-128831522D01*
X142629995Y-128803878D01*
X142602352Y-128799500D01*
X142397648Y-128799500D01*
X142373329Y-128803351D01*
X142195465Y-128831522D01*
X142000776Y-128894781D01*
X141818386Y-128987715D01*
X141652786Y-129108028D01*
X141508028Y-129252786D01*
X141387714Y-129418386D01*
X141360483Y-129471830D01*
X141312508Y-129522625D01*
X141244687Y-129539419D01*
X141178552Y-129516881D01*
X141139514Y-129471828D01*
X141112286Y-129418390D01*
X141104555Y-129407749D01*
X140991970Y-129252786D01*
X140847212Y-129108028D01*
X140681612Y-128987715D01*
X140681611Y-128987714D01*
X140681609Y-128987713D01*
X140624652Y-128958691D01*
X140499222Y-128894781D01*
X140304533Y-128831522D01*
X140129994Y-128803878D01*
X140102351Y-128799500D01*
X139897647Y-128799500D01*
X139873328Y-128803351D01*
X139695464Y-128831522D01*
X139500775Y-128894781D01*
X139318385Y-128987715D01*
X139152785Y-129108028D01*
X139008027Y-129252786D01*
X138887714Y-129418386D01*
X138794780Y-129600776D01*
X138731521Y-129795465D01*
X138699499Y-129997648D01*
X135500500Y-129997648D01*
X135500500Y-122397648D01*
X137389500Y-122397648D01*
X137389500Y-122602351D01*
X137421522Y-122804534D01*
X137484781Y-122999223D01*
X137577715Y-123181613D01*
X137698028Y-123347213D01*
X137842786Y-123491971D01*
X137997749Y-123604556D01*
X138008390Y-123612287D01*
X138124607Y-123671503D01*
X138190776Y-123705218D01*
X138190778Y-123705218D01*
X138190781Y-123705220D01*
X138295137Y-123739127D01*
X138385465Y-123768477D01*
X138486557Y-123784488D01*
X138587648Y-123800500D01*
X138587649Y-123800500D01*
X138792351Y-123800500D01*
X138792352Y-123800500D01*
X138994534Y-123768477D01*
X139189219Y-123705220D01*
X139371610Y-123612287D01*
X139464590Y-123544732D01*
X139537213Y-123491971D01*
X139537215Y-123491968D01*
X139537219Y-123491966D01*
X139681966Y-123347219D01*
X139681968Y-123347215D01*
X139681971Y-123347213D01*
X139734732Y-123274590D01*
X139802287Y-123181610D01*
X139895220Y-122999219D01*
X139958477Y-122804534D01*
X139990500Y-122602352D01*
X139990500Y-122397648D01*
X139958477Y-122195466D01*
X139895220Y-122000781D01*
X139895218Y-122000778D01*
X139895218Y-122000776D01*
X139861503Y-121934607D01*
X139802287Y-121818390D01*
X139794556Y-121807749D01*
X139681971Y-121652786D01*
X139537213Y-121508028D01*
X139371613Y-121387715D01*
X139371612Y-121387714D01*
X139371610Y-121387713D01*
X139314653Y-121358691D01*
X139189223Y-121294781D01*
X138994534Y-121231522D01*
X138819995Y-121203878D01*
X138792352Y-121199500D01*
X138587648Y-121199500D01*
X138563329Y-121203351D01*
X138385465Y-121231522D01*
X138190776Y-121294781D01*
X138008386Y-121387715D01*
X137842786Y-121508028D01*
X137698028Y-121652786D01*
X137577715Y-121818386D01*
X137484781Y-122000776D01*
X137421522Y-122195465D01*
X137389500Y-122397648D01*
X135500500Y-122397648D01*
X135500500Y-104329054D01*
X136149498Y-104329054D01*
X136190424Y-104481789D01*
X136190425Y-104481790D01*
X136212186Y-104519480D01*
X136212187Y-104519482D01*
X136269475Y-104618709D01*
X136269481Y-104618717D01*
X136388349Y-104737585D01*
X136388355Y-104737590D01*
X140880569Y-109229804D01*
X140914054Y-109291127D01*
X140909070Y-109360819D01*
X140903373Y-109373779D01*
X140848441Y-109481590D01*
X140848441Y-109481591D01*
X140782753Y-109683759D01*
X140749500Y-109893713D01*
X140749500Y-110106286D01*
X140782753Y-110316239D01*
X140848445Y-110518417D01*
X140903372Y-110626219D01*
X140916268Y-110694888D01*
X140889991Y-110759628D01*
X140880568Y-110770194D01*
X138321286Y-113329478D01*
X138209481Y-113441282D01*
X138209475Y-113441290D01*
X138165064Y-113518214D01*
X138165064Y-113518215D01*
X138130423Y-113578215D01*
X138089499Y-113730943D01*
X138089499Y-113730945D01*
X138089499Y-113899046D01*
X138089500Y-113899059D01*
X138089500Y-117770397D01*
X138069815Y-117837436D01*
X138021800Y-117880879D01*
X138008389Y-117887712D01*
X137842786Y-118008028D01*
X137698028Y-118152786D01*
X137577715Y-118318386D01*
X137484781Y-118500776D01*
X137421522Y-118695465D01*
X137389500Y-118897648D01*
X137389500Y-119102351D01*
X137421522Y-119304534D01*
X137484781Y-119499223D01*
X137577715Y-119681613D01*
X137698028Y-119847213D01*
X137842786Y-119991971D01*
X137997749Y-120104556D01*
X138008390Y-120112287D01*
X138124607Y-120171503D01*
X138190776Y-120205218D01*
X138190778Y-120205218D01*
X138190781Y-120205220D01*
X138295137Y-120239127D01*
X138385465Y-120268477D01*
X138486557Y-120284488D01*
X138587648Y-120300500D01*
X138587649Y-120300500D01*
X138792351Y-120300500D01*
X138792352Y-120300500D01*
X138994534Y-120268477D01*
X139189219Y-120205220D01*
X139371610Y-120112287D01*
X139464590Y-120044732D01*
X139537213Y-119991971D01*
X139537215Y-119991968D01*
X139537219Y-119991966D01*
X139681966Y-119847219D01*
X139681968Y-119847215D01*
X139681971Y-119847213D01*
X139750313Y-119753146D01*
X139802287Y-119681610D01*
X139895220Y-119499219D01*
X139958477Y-119304534D01*
X139990500Y-119102352D01*
X139990500Y-118897648D01*
X139958477Y-118695466D01*
X139895220Y-118500781D01*
X139895218Y-118500778D01*
X139895218Y-118500776D01*
X139861503Y-118434607D01*
X139802287Y-118318390D01*
X139766179Y-118268691D01*
X139681971Y-118152786D01*
X139537213Y-118008028D01*
X139371610Y-117887712D01*
X139358200Y-117880879D01*
X139307406Y-117832903D01*
X139290500Y-117770397D01*
X139290500Y-114110097D01*
X139310185Y-114043058D01*
X139326819Y-114022416D01*
X141962417Y-111386819D01*
X142023740Y-111353334D01*
X142050098Y-111350500D01*
X143006286Y-111350500D01*
X143006287Y-111350500D01*
X143216243Y-111317246D01*
X143418412Y-111251557D01*
X143607816Y-111155051D01*
X143702615Y-111086176D01*
X143768421Y-111062696D01*
X143836475Y-111078521D01*
X143885170Y-111128627D01*
X143899500Y-111186494D01*
X143899500Y-120603330D01*
X143899499Y-120603348D01*
X143899499Y-120769054D01*
X143899498Y-120769054D01*
X143940423Y-120921785D01*
X143969358Y-120971900D01*
X143969359Y-120971904D01*
X143969360Y-120971904D01*
X144019479Y-121058714D01*
X144019481Y-121058717D01*
X144138349Y-121177585D01*
X144138355Y-121177590D01*
X145015921Y-122055157D01*
X145049406Y-122116480D01*
X145046173Y-122181149D01*
X145041523Y-122195460D01*
X145041523Y-122195462D01*
X145009500Y-122397648D01*
X145009500Y-122602351D01*
X145041522Y-122804534D01*
X145104781Y-122999223D01*
X145197715Y-123181613D01*
X145318028Y-123347213D01*
X145462786Y-123491971D01*
X145617749Y-123604556D01*
X145628390Y-123612287D01*
X145744607Y-123671503D01*
X145810776Y-123705218D01*
X145810778Y-123705218D01*
X145810781Y-123705220D01*
X145915137Y-123739127D01*
X146005465Y-123768477D01*
X146106557Y-123784488D01*
X146207648Y-123800500D01*
X146207649Y-123800500D01*
X146412351Y-123800500D01*
X146412352Y-123800500D01*
X146614534Y-123768477D01*
X146809219Y-123705220D01*
X146991610Y-123612287D01*
X147084590Y-123544732D01*
X147157213Y-123491971D01*
X147157215Y-123491968D01*
X147157219Y-123491966D01*
X147301966Y-123347219D01*
X147301968Y-123347215D01*
X147301971Y-123347213D01*
X147354732Y-123274590D01*
X147422287Y-123181610D01*
X147515220Y-122999219D01*
X147578477Y-122804534D01*
X147610500Y-122602352D01*
X147610500Y-122397648D01*
X152389500Y-122397648D01*
X152389500Y-122602351D01*
X152421522Y-122804534D01*
X152484781Y-122999223D01*
X152577715Y-123181613D01*
X152698028Y-123347213D01*
X152842786Y-123491971D01*
X152997749Y-123604556D01*
X153008390Y-123612287D01*
X153124607Y-123671503D01*
X153190776Y-123705218D01*
X153190778Y-123705218D01*
X153190781Y-123705220D01*
X153295137Y-123739127D01*
X153385465Y-123768477D01*
X153486557Y-123784488D01*
X153587648Y-123800500D01*
X153587649Y-123800500D01*
X153792351Y-123800500D01*
X153792352Y-123800500D01*
X153994534Y-123768477D01*
X154189219Y-123705220D01*
X154371610Y-123612287D01*
X154464590Y-123544732D01*
X154537213Y-123491971D01*
X154537215Y-123491968D01*
X154537219Y-123491966D01*
X154681966Y-123347219D01*
X154681968Y-123347215D01*
X154681971Y-123347213D01*
X154734732Y-123274590D01*
X154802287Y-123181610D01*
X154895220Y-122999219D01*
X154958477Y-122804534D01*
X154990500Y-122602352D01*
X154990500Y-122397648D01*
X154958477Y-122195466D01*
X154895220Y-122000781D01*
X154895218Y-122000778D01*
X154895218Y-122000776D01*
X154861503Y-121934607D01*
X154802287Y-121818390D01*
X154794556Y-121807749D01*
X154681971Y-121652786D01*
X154537213Y-121508028D01*
X154371613Y-121387715D01*
X154371612Y-121387714D01*
X154371610Y-121387713D01*
X154314653Y-121358691D01*
X154189223Y-121294781D01*
X153994534Y-121231522D01*
X153819995Y-121203878D01*
X153792352Y-121199500D01*
X153587648Y-121199500D01*
X153563329Y-121203351D01*
X153385465Y-121231522D01*
X153190776Y-121294781D01*
X153008386Y-121387715D01*
X152842786Y-121508028D01*
X152698028Y-121652786D01*
X152577715Y-121818386D01*
X152484781Y-122000776D01*
X152421522Y-122195465D01*
X152389500Y-122397648D01*
X147610500Y-122397648D01*
X147578477Y-122195466D01*
X147515220Y-122000781D01*
X147515218Y-122000778D01*
X147515218Y-122000776D01*
X147481503Y-121934607D01*
X147422287Y-121818390D01*
X147414556Y-121807749D01*
X147301971Y-121652786D01*
X147157213Y-121508028D01*
X146991613Y-121387715D01*
X146991612Y-121387714D01*
X146991610Y-121387713D01*
X146934653Y-121358691D01*
X146809223Y-121294781D01*
X146614534Y-121231522D01*
X146439995Y-121203878D01*
X146412352Y-121199500D01*
X146207648Y-121199500D01*
X146167211Y-121205904D01*
X146005462Y-121231523D01*
X146005460Y-121231523D01*
X145991149Y-121236173D01*
X145921308Y-121238164D01*
X145865157Y-121205921D01*
X145136819Y-120477583D01*
X145103334Y-120416260D01*
X145100500Y-120389902D01*
X145100500Y-119928636D01*
X145120185Y-119861597D01*
X145172989Y-119815842D01*
X145242147Y-119805898D01*
X145305703Y-119834923D01*
X145314540Y-119843822D01*
X145314589Y-119843774D01*
X145462786Y-119991971D01*
X145617749Y-120104556D01*
X145628390Y-120112287D01*
X145744607Y-120171503D01*
X145810776Y-120205218D01*
X145810778Y-120205218D01*
X145810781Y-120205220D01*
X145915137Y-120239127D01*
X146005465Y-120268477D01*
X146106557Y-120284488D01*
X146207648Y-120300500D01*
X146207649Y-120300500D01*
X146412351Y-120300500D01*
X146412352Y-120300500D01*
X146614534Y-120268477D01*
X146809219Y-120205220D01*
X146991610Y-120112287D01*
X147084590Y-120044732D01*
X147157213Y-119991971D01*
X147157215Y-119991968D01*
X147157219Y-119991966D01*
X147301966Y-119847219D01*
X147301968Y-119847215D01*
X147301971Y-119847213D01*
X147370313Y-119753146D01*
X147422287Y-119681610D01*
X147515220Y-119499219D01*
X147578477Y-119304534D01*
X147610500Y-119102352D01*
X147610500Y-118897648D01*
X152449500Y-118897648D01*
X152449500Y-119102351D01*
X152481522Y-119304534D01*
X152544781Y-119499223D01*
X152637715Y-119681613D01*
X152758028Y-119847213D01*
X152902786Y-119991971D01*
X153057749Y-120104556D01*
X153068390Y-120112287D01*
X153184607Y-120171503D01*
X153250776Y-120205218D01*
X153250778Y-120205218D01*
X153250781Y-120205220D01*
X153355137Y-120239127D01*
X153445465Y-120268477D01*
X153546557Y-120284488D01*
X153647648Y-120300500D01*
X153647649Y-120300500D01*
X153852351Y-120300500D01*
X153852352Y-120300500D01*
X154054534Y-120268477D01*
X154249219Y-120205220D01*
X154431610Y-120112287D01*
X154524590Y-120044732D01*
X154597213Y-119991971D01*
X154597215Y-119991968D01*
X154597219Y-119991966D01*
X154741966Y-119847219D01*
X154741968Y-119847215D01*
X154741971Y-119847213D01*
X154810313Y-119753146D01*
X154862287Y-119681610D01*
X154955220Y-119499219D01*
X155018477Y-119304534D01*
X155050500Y-119102352D01*
X155050500Y-118897648D01*
X155018477Y-118695466D01*
X154955220Y-118500781D01*
X154955218Y-118500778D01*
X154955218Y-118500776D01*
X154921503Y-118434607D01*
X154862287Y-118318390D01*
X154826179Y-118268691D01*
X154741971Y-118152786D01*
X154597213Y-118008028D01*
X154431610Y-117887712D01*
X154418200Y-117880879D01*
X154367406Y-117832903D01*
X154350500Y-117770397D01*
X154350500Y-114050097D01*
X154370185Y-113983058D01*
X154386819Y-113962416D01*
X156962416Y-111386819D01*
X157023739Y-111353334D01*
X157050097Y-111350500D01*
X158006286Y-111350500D01*
X158006287Y-111350500D01*
X158216243Y-111317246D01*
X158418412Y-111251557D01*
X158607816Y-111155051D01*
X158702615Y-111086176D01*
X158768421Y-111062696D01*
X158836475Y-111078521D01*
X158885170Y-111128627D01*
X158899500Y-111186494D01*
X158899500Y-120603330D01*
X158899499Y-120603348D01*
X158899499Y-120769054D01*
X158899498Y-120769054D01*
X158940423Y-120921785D01*
X158969358Y-120971900D01*
X158969359Y-120971904D01*
X158969360Y-120971904D01*
X159019479Y-121058714D01*
X159019481Y-121058717D01*
X159138349Y-121177585D01*
X159138355Y-121177590D01*
X160015921Y-122055157D01*
X160049406Y-122116480D01*
X160046173Y-122181149D01*
X160041523Y-122195460D01*
X160041523Y-122195462D01*
X160009500Y-122397648D01*
X160009500Y-122602351D01*
X160041522Y-122804534D01*
X160104781Y-122999223D01*
X160197715Y-123181613D01*
X160318028Y-123347213D01*
X160462786Y-123491971D01*
X160617749Y-123604556D01*
X160628390Y-123612287D01*
X160744607Y-123671503D01*
X160810776Y-123705218D01*
X160810778Y-123705218D01*
X160810781Y-123705220D01*
X160915137Y-123739127D01*
X161005465Y-123768477D01*
X161106557Y-123784488D01*
X161207648Y-123800500D01*
X161207649Y-123800500D01*
X161412351Y-123800500D01*
X161412352Y-123800500D01*
X161614534Y-123768477D01*
X161809219Y-123705220D01*
X161991610Y-123612287D01*
X162084590Y-123544732D01*
X162157213Y-123491971D01*
X162157215Y-123491968D01*
X162157219Y-123491966D01*
X162301966Y-123347219D01*
X162301968Y-123347215D01*
X162301971Y-123347213D01*
X162354732Y-123274590D01*
X162422287Y-123181610D01*
X162515220Y-122999219D01*
X162578477Y-122804534D01*
X162610500Y-122602352D01*
X162610500Y-122397648D01*
X162578477Y-122195466D01*
X162515220Y-122000781D01*
X162515218Y-122000778D01*
X162515218Y-122000776D01*
X162481503Y-121934607D01*
X162422287Y-121818390D01*
X162414556Y-121807749D01*
X162301971Y-121652786D01*
X162157213Y-121508028D01*
X161991613Y-121387715D01*
X161991612Y-121387714D01*
X161991610Y-121387713D01*
X161934653Y-121358691D01*
X161809223Y-121294781D01*
X161614534Y-121231522D01*
X161439995Y-121203878D01*
X161412352Y-121199500D01*
X161207648Y-121199500D01*
X161167211Y-121205904D01*
X161005462Y-121231523D01*
X161005460Y-121231523D01*
X160991149Y-121236173D01*
X160921308Y-121238164D01*
X160865157Y-121205921D01*
X160136819Y-120477583D01*
X160103334Y-120416260D01*
X160100500Y-120389902D01*
X160100500Y-119846859D01*
X160120185Y-119779820D01*
X160172989Y-119734065D01*
X160242147Y-119724121D01*
X160305703Y-119753146D01*
X160324818Y-119773973D01*
X160369101Y-119834923D01*
X160378034Y-119847219D01*
X160522786Y-119991971D01*
X160677749Y-120104556D01*
X160688390Y-120112287D01*
X160804607Y-120171503D01*
X160870776Y-120205218D01*
X160870778Y-120205218D01*
X160870781Y-120205220D01*
X160975137Y-120239127D01*
X161065465Y-120268477D01*
X161166557Y-120284488D01*
X161267648Y-120300500D01*
X161267649Y-120300500D01*
X161472351Y-120300500D01*
X161472352Y-120300500D01*
X161674534Y-120268477D01*
X161869219Y-120205220D01*
X162051610Y-120112287D01*
X162144590Y-120044732D01*
X162217213Y-119991971D01*
X162217215Y-119991968D01*
X162217219Y-119991966D01*
X162361966Y-119847219D01*
X162361968Y-119847215D01*
X162361971Y-119847213D01*
X162430313Y-119753146D01*
X162482287Y-119681610D01*
X162575220Y-119499219D01*
X162638477Y-119304534D01*
X162670500Y-119102352D01*
X162670500Y-118897648D01*
X162638477Y-118695466D01*
X162575220Y-118500781D01*
X162575218Y-118500778D01*
X162575218Y-118500776D01*
X162541503Y-118434607D01*
X162482287Y-118318390D01*
X162446179Y-118268691D01*
X162361971Y-118152786D01*
X162217213Y-118008028D01*
X162051613Y-117887715D01*
X162051612Y-117887714D01*
X162051610Y-117887713D01*
X161994653Y-117858691D01*
X161869223Y-117794781D01*
X161674534Y-117731522D01*
X161499995Y-117703878D01*
X161472352Y-117699500D01*
X161267648Y-117699500D01*
X161243329Y-117703351D01*
X161065465Y-117731522D01*
X160870776Y-117794781D01*
X160688386Y-117887715D01*
X160522786Y-118008028D01*
X160378032Y-118152782D01*
X160378028Y-118152787D01*
X160324818Y-118226025D01*
X160269488Y-118268691D01*
X160199875Y-118274670D01*
X160138080Y-118242064D01*
X160103723Y-118181226D01*
X160100500Y-118153140D01*
X160100500Y-106920945D01*
X160100500Y-106920943D01*
X160065999Y-106792184D01*
X160059577Y-106768215D01*
X160019904Y-106699500D01*
X159980520Y-106631284D01*
X159868716Y-106519480D01*
X159864385Y-106515149D01*
X159864374Y-106515139D01*
X159119430Y-105770195D01*
X159085945Y-105708872D01*
X159090929Y-105639180D01*
X159096622Y-105626227D01*
X159151557Y-105518412D01*
X159217246Y-105316243D01*
X159250500Y-105106287D01*
X159250500Y-104893713D01*
X159217246Y-104683757D01*
X159151557Y-104481588D01*
X159055051Y-104292184D01*
X159055049Y-104292181D01*
X159055048Y-104292179D01*
X158930109Y-104120213D01*
X158779786Y-103969890D01*
X158607820Y-103844951D01*
X158418414Y-103748444D01*
X158418413Y-103748443D01*
X158418412Y-103748443D01*
X158216243Y-103682754D01*
X158216241Y-103682753D01*
X158216240Y-103682753D01*
X158054957Y-103657208D01*
X158006287Y-103649500D01*
X156993713Y-103649500D01*
X156945042Y-103657208D01*
X156783760Y-103682753D01*
X156581585Y-103748444D01*
X156392179Y-103844951D01*
X156220213Y-103969890D01*
X156069890Y-104120213D01*
X155944951Y-104292179D01*
X155848444Y-104481585D01*
X155782753Y-104683760D01*
X155749500Y-104893713D01*
X155749500Y-105106286D01*
X155782753Y-105316239D01*
X155848444Y-105518414D01*
X155944951Y-105707820D01*
X156069890Y-105879786D01*
X156220209Y-106030105D01*
X156220214Y-106030109D01*
X156384793Y-106149682D01*
X156427459Y-106205011D01*
X156433438Y-106274625D01*
X156400833Y-106336420D01*
X156384793Y-106350318D01*
X156220214Y-106469890D01*
X156220209Y-106469894D01*
X156069890Y-106620213D01*
X155944951Y-106792179D01*
X155848444Y-106981585D01*
X155782753Y-107183760D01*
X155749500Y-107393713D01*
X155749500Y-107606286D01*
X155782753Y-107816239D01*
X155848444Y-108018414D01*
X155944951Y-108207820D01*
X156069890Y-108379786D01*
X156220209Y-108530105D01*
X156220214Y-108530109D01*
X156384793Y-108649682D01*
X156427459Y-108705011D01*
X156433438Y-108774625D01*
X156400833Y-108836420D01*
X156384793Y-108850318D01*
X156220214Y-108969890D01*
X156220209Y-108969894D01*
X156069890Y-109120213D01*
X155944951Y-109292179D01*
X155848444Y-109481585D01*
X155782753Y-109683760D01*
X155749500Y-109893713D01*
X155749500Y-110106287D01*
X155782754Y-110316243D01*
X155848443Y-110518412D01*
X155903373Y-110626219D01*
X155916269Y-110694887D01*
X155889993Y-110759628D01*
X155880569Y-110770194D01*
X153381286Y-113269478D01*
X153269481Y-113381282D01*
X153269480Y-113381284D01*
X153234841Y-113441282D01*
X153219361Y-113468094D01*
X153219359Y-113468096D01*
X153190425Y-113518209D01*
X153190424Y-113518210D01*
X153174544Y-113577472D01*
X153149499Y-113670943D01*
X153149499Y-113670945D01*
X153149499Y-113839046D01*
X153149500Y-113839059D01*
X153149500Y-117770397D01*
X153129815Y-117837436D01*
X153081800Y-117880879D01*
X153068389Y-117887712D01*
X152902786Y-118008028D01*
X152758028Y-118152786D01*
X152637715Y-118318386D01*
X152544781Y-118500776D01*
X152481522Y-118695465D01*
X152449500Y-118897648D01*
X147610500Y-118897648D01*
X147578477Y-118695466D01*
X147515220Y-118500781D01*
X147515218Y-118500778D01*
X147515218Y-118500776D01*
X147481503Y-118434607D01*
X147422287Y-118318390D01*
X147386179Y-118268691D01*
X147301971Y-118152786D01*
X147157213Y-118008028D01*
X146991613Y-117887715D01*
X146991612Y-117887714D01*
X146991610Y-117887713D01*
X146934653Y-117858691D01*
X146809223Y-117794781D01*
X146614534Y-117731522D01*
X146439995Y-117703878D01*
X146412352Y-117699500D01*
X146207648Y-117699500D01*
X146183329Y-117703351D01*
X146005465Y-117731522D01*
X145810776Y-117794781D01*
X145628386Y-117887715D01*
X145462786Y-118008028D01*
X145462782Y-118008032D01*
X145314589Y-118156226D01*
X145313633Y-118155270D01*
X145260254Y-118190096D01*
X145190386Y-118190578D01*
X145131349Y-118153210D01*
X145101887Y-118089856D01*
X145100500Y-118071363D01*
X145100500Y-106920945D01*
X145100500Y-106920943D01*
X145065999Y-106792184D01*
X145059577Y-106768215D01*
X145019904Y-106699500D01*
X144980520Y-106631284D01*
X144868716Y-106519480D01*
X144864385Y-106515149D01*
X144864374Y-106515139D01*
X144119430Y-105770195D01*
X144085945Y-105708872D01*
X144090929Y-105639180D01*
X144096622Y-105626227D01*
X144151557Y-105518412D01*
X144217246Y-105316243D01*
X144250500Y-105106287D01*
X144250500Y-104893713D01*
X144217246Y-104683757D01*
X144151557Y-104481588D01*
X144055051Y-104292184D01*
X144055049Y-104292181D01*
X144055048Y-104292179D01*
X143930109Y-104120213D01*
X143779786Y-103969890D01*
X143607820Y-103844951D01*
X143418414Y-103748444D01*
X143418413Y-103748443D01*
X143418412Y-103748443D01*
X143216243Y-103682754D01*
X143216241Y-103682753D01*
X143216240Y-103682753D01*
X143054957Y-103657208D01*
X143006287Y-103649500D01*
X141993713Y-103649500D01*
X141945042Y-103657208D01*
X141783760Y-103682753D01*
X141581585Y-103748444D01*
X141392179Y-103844951D01*
X141220213Y-103969890D01*
X141069890Y-104120213D01*
X140944951Y-104292179D01*
X140848444Y-104481585D01*
X140782753Y-104683760D01*
X140749500Y-104893713D01*
X140749500Y-105106286D01*
X140782753Y-105316239D01*
X140848444Y-105518414D01*
X140944951Y-105707820D01*
X141069890Y-105879786D01*
X141220209Y-106030105D01*
X141220214Y-106030109D01*
X141384793Y-106149682D01*
X141427459Y-106205011D01*
X141433438Y-106274625D01*
X141400833Y-106336420D01*
X141384793Y-106350318D01*
X141220214Y-106469890D01*
X141220209Y-106469894D01*
X141069890Y-106620213D01*
X140944951Y-106792179D01*
X140848444Y-106981583D01*
X140784032Y-107179823D01*
X140744594Y-107237498D01*
X140680235Y-107264696D01*
X140611389Y-107252781D01*
X140578420Y-107229185D01*
X137386819Y-104037584D01*
X137353334Y-103976261D01*
X137350500Y-103949903D01*
X137350500Y-97478283D01*
X137370185Y-97411244D01*
X137422989Y-97365489D01*
X137492147Y-97355545D01*
X137547385Y-97377965D01*
X137593190Y-97411244D01*
X137608390Y-97422287D01*
X137688649Y-97463181D01*
X137790776Y-97515218D01*
X137790778Y-97515218D01*
X137790781Y-97515220D01*
X137895137Y-97549127D01*
X137985465Y-97578477D01*
X138086557Y-97594488D01*
X138187648Y-97610500D01*
X138877770Y-97610500D01*
X138944809Y-97630185D01*
X138965451Y-97646819D01*
X140151580Y-98832948D01*
X140151584Y-98832951D01*
X140274498Y-98915080D01*
X140274511Y-98915087D01*
X140411082Y-98971656D01*
X140411087Y-98971658D01*
X140411091Y-98971658D01*
X140411092Y-98971659D01*
X140556079Y-99000500D01*
X140556082Y-99000500D01*
X151823920Y-99000500D01*
X151921462Y-98981096D01*
X151968913Y-98971658D01*
X152105495Y-98915084D01*
X152154729Y-98882186D01*
X152228416Y-98832952D01*
X153414548Y-97646818D01*
X153475871Y-97613334D01*
X153502229Y-97610500D01*
X154192351Y-97610500D01*
X154192352Y-97610500D01*
X154394534Y-97578477D01*
X154589219Y-97515220D01*
X154771610Y-97422287D01*
X154872286Y-97349142D01*
X154937213Y-97301971D01*
X154937215Y-97301968D01*
X154937219Y-97301966D01*
X155081966Y-97157219D01*
X155081968Y-97157215D01*
X155081971Y-97157213D01*
X155134732Y-97084590D01*
X155202287Y-96991610D01*
X155295220Y-96809219D01*
X155358477Y-96614534D01*
X155390500Y-96412352D01*
X155390500Y-96207648D01*
X155358477Y-96005466D01*
X155295220Y-95810781D01*
X155295218Y-95810778D01*
X155295218Y-95810776D01*
X155261503Y-95744607D01*
X155202287Y-95628390D01*
X155194556Y-95617749D01*
X155081971Y-95462786D01*
X154937213Y-95318028D01*
X154771614Y-95197715D01*
X154765006Y-95194348D01*
X154678917Y-95150483D01*
X154628123Y-95102511D01*
X154611328Y-95034690D01*
X154633865Y-94968555D01*
X154678917Y-94929516D01*
X154771610Y-94882287D01*
X154792770Y-94866913D01*
X154937213Y-94761971D01*
X154937215Y-94761968D01*
X154937219Y-94761966D01*
X155081966Y-94617219D01*
X155081968Y-94617215D01*
X155081971Y-94617213D01*
X155134732Y-94544590D01*
X155202287Y-94451610D01*
X155295220Y-94269219D01*
X155358477Y-94074534D01*
X155390500Y-93872352D01*
X155390500Y-93667648D01*
X155358477Y-93465466D01*
X155358476Y-93465464D01*
X155295218Y-93270776D01*
X155242847Y-93167994D01*
X155202287Y-93088390D01*
X155164935Y-93036979D01*
X155081971Y-92922786D01*
X154937213Y-92778028D01*
X154771614Y-92657715D01*
X154765006Y-92654348D01*
X154678917Y-92610483D01*
X154628123Y-92562511D01*
X154611328Y-92494690D01*
X154633865Y-92428555D01*
X154678917Y-92389516D01*
X154771610Y-92342287D01*
X154815334Y-92310520D01*
X154937213Y-92221971D01*
X154937215Y-92221968D01*
X154937219Y-92221966D01*
X155081966Y-92077219D01*
X155081968Y-92077215D01*
X155081971Y-92077213D01*
X155134732Y-92004590D01*
X155202287Y-91911610D01*
X155295220Y-91729219D01*
X155358477Y-91534534D01*
X155390500Y-91332352D01*
X155390500Y-91127648D01*
X159609500Y-91127648D01*
X159609500Y-91332351D01*
X159641522Y-91534534D01*
X159704781Y-91729223D01*
X159768691Y-91854653D01*
X159796412Y-91909057D01*
X159797715Y-91911613D01*
X159918028Y-92077213D01*
X160062786Y-92221971D01*
X160184666Y-92310520D01*
X160228390Y-92342287D01*
X160319840Y-92388883D01*
X160321080Y-92389515D01*
X160371876Y-92437490D01*
X160388671Y-92505311D01*
X160366134Y-92571446D01*
X160321080Y-92610485D01*
X160228386Y-92657715D01*
X160062786Y-92778028D01*
X159918028Y-92922786D01*
X159797715Y-93088386D01*
X159704781Y-93270776D01*
X159641522Y-93465465D01*
X159609500Y-93667648D01*
X159609500Y-93872351D01*
X159641522Y-94074534D01*
X159704781Y-94269223D01*
X159768691Y-94394653D01*
X159785537Y-94427714D01*
X159797715Y-94451613D01*
X159918028Y-94617213D01*
X160062786Y-94761971D01*
X160217749Y-94874556D01*
X160228390Y-94882287D01*
X160319840Y-94928883D01*
X160321080Y-94929515D01*
X160371876Y-94977490D01*
X160388671Y-95045311D01*
X160366134Y-95111446D01*
X160321080Y-95150485D01*
X160228386Y-95197715D01*
X160062786Y-95318028D01*
X159918028Y-95462786D01*
X159797715Y-95628386D01*
X159704781Y-95810776D01*
X159641522Y-96005465D01*
X159609500Y-96207648D01*
X159609500Y-96412351D01*
X159641522Y-96614534D01*
X159704781Y-96809223D01*
X159797715Y-96991613D01*
X159918028Y-97157213D01*
X160062786Y-97301971D01*
X160213190Y-97411244D01*
X160228390Y-97422287D01*
X160308649Y-97463181D01*
X160410776Y-97515218D01*
X160410778Y-97515218D01*
X160410781Y-97515220D01*
X160515137Y-97549127D01*
X160605465Y-97578477D01*
X160706557Y-97594488D01*
X160807648Y-97610500D01*
X160807649Y-97610500D01*
X161812351Y-97610500D01*
X161812352Y-97610500D01*
X162014534Y-97578477D01*
X162209219Y-97515220D01*
X162391610Y-97422287D01*
X162492286Y-97349142D01*
X162557213Y-97301971D01*
X162557215Y-97301968D01*
X162557219Y-97301966D01*
X162701966Y-97157219D01*
X162701968Y-97157215D01*
X162701971Y-97157213D01*
X162754732Y-97084590D01*
X162822287Y-96991610D01*
X162915220Y-96809219D01*
X162978477Y-96614534D01*
X163010500Y-96412352D01*
X163010500Y-96207648D01*
X162978477Y-96005466D01*
X162915220Y-95810781D01*
X162915218Y-95810778D01*
X162915218Y-95810776D01*
X162881503Y-95744607D01*
X162822287Y-95628390D01*
X162814556Y-95617749D01*
X162701971Y-95462786D01*
X162557213Y-95318028D01*
X162391614Y-95197715D01*
X162385006Y-95194348D01*
X162298917Y-95150483D01*
X162248123Y-95102511D01*
X162231328Y-95034690D01*
X162253865Y-94968555D01*
X162298917Y-94929516D01*
X162391610Y-94882287D01*
X162412770Y-94866913D01*
X162557213Y-94761971D01*
X162557215Y-94761968D01*
X162557219Y-94761966D01*
X162701966Y-94617219D01*
X162701968Y-94617215D01*
X162701971Y-94617213D01*
X162754732Y-94544590D01*
X162822287Y-94451610D01*
X162915220Y-94269219D01*
X162978477Y-94074534D01*
X163010500Y-93872352D01*
X163010500Y-93667648D01*
X162978477Y-93465466D01*
X162978476Y-93465464D01*
X162915218Y-93270776D01*
X162862847Y-93167994D01*
X162822287Y-93088390D01*
X162784935Y-93036979D01*
X162701971Y-92922786D01*
X162557213Y-92778028D01*
X162391614Y-92657715D01*
X162385006Y-92654348D01*
X162298917Y-92610483D01*
X162248123Y-92562511D01*
X162231328Y-92494690D01*
X162253865Y-92428555D01*
X162298917Y-92389516D01*
X162391610Y-92342287D01*
X162435334Y-92310520D01*
X162557213Y-92221971D01*
X162557215Y-92221968D01*
X162557219Y-92221966D01*
X162701966Y-92077219D01*
X162701968Y-92077215D01*
X162701971Y-92077213D01*
X162754732Y-92004590D01*
X162822287Y-91911610D01*
X162915220Y-91729219D01*
X162978477Y-91534534D01*
X163010500Y-91332352D01*
X163010500Y-91127648D01*
X162978477Y-90925465D01*
X162933968Y-90788481D01*
X162915220Y-90730781D01*
X162915218Y-90730778D01*
X162915218Y-90730776D01*
X162881503Y-90664607D01*
X162822287Y-90548390D01*
X162814556Y-90537749D01*
X162701971Y-90382786D01*
X162557213Y-90238028D01*
X162391611Y-90117713D01*
X162298369Y-90070203D01*
X162247574Y-90022229D01*
X162230779Y-89954407D01*
X162253317Y-89888273D01*
X162298371Y-89849234D01*
X162391347Y-89801861D01*
X162556894Y-89681582D01*
X162556895Y-89681582D01*
X162701582Y-89536895D01*
X162701582Y-89536894D01*
X162821859Y-89371349D01*
X162914755Y-89189029D01*
X162977990Y-88994413D01*
X162986609Y-88940000D01*
X161625686Y-88940000D01*
X161630080Y-88935606D01*
X161682741Y-88844394D01*
X161710000Y-88742661D01*
X161710000Y-88637339D01*
X161682741Y-88535606D01*
X161630080Y-88444394D01*
X161625686Y-88440000D01*
X162986609Y-88440000D01*
X162977990Y-88385586D01*
X162914755Y-88190970D01*
X162821859Y-88008650D01*
X162701582Y-87843105D01*
X162701582Y-87843104D01*
X162556895Y-87698417D01*
X162391349Y-87578140D01*
X162209031Y-87485244D01*
X162014417Y-87422009D01*
X161812317Y-87390000D01*
X161560000Y-87390000D01*
X161560000Y-88374314D01*
X161555606Y-88369920D01*
X161464394Y-88317259D01*
X161362661Y-88290000D01*
X161257339Y-88290000D01*
X161155606Y-88317259D01*
X161064394Y-88369920D01*
X161060000Y-88374314D01*
X161060000Y-87390000D01*
X160807683Y-87390000D01*
X160605582Y-87422009D01*
X160410968Y-87485244D01*
X160228650Y-87578140D01*
X160063105Y-87698417D01*
X160063104Y-87698417D01*
X159918417Y-87843104D01*
X159918417Y-87843105D01*
X159798140Y-88008650D01*
X159705244Y-88190970D01*
X159642009Y-88385586D01*
X159633391Y-88440000D01*
X160994314Y-88440000D01*
X160989920Y-88444394D01*
X160937259Y-88535606D01*
X160910000Y-88637339D01*
X160910000Y-88742661D01*
X160937259Y-88844394D01*
X160989920Y-88935606D01*
X160994314Y-88940000D01*
X159633391Y-88940000D01*
X159642009Y-88994413D01*
X159705244Y-89189029D01*
X159798140Y-89371349D01*
X159918417Y-89536894D01*
X159918417Y-89536895D01*
X160063104Y-89681582D01*
X160228652Y-89801861D01*
X160321628Y-89849234D01*
X160372425Y-89897208D01*
X160389220Y-89965029D01*
X160366683Y-90031164D01*
X160321630Y-90070203D01*
X160228388Y-90117713D01*
X160062786Y-90238028D01*
X159918028Y-90382786D01*
X159797715Y-90548386D01*
X159704781Y-90730776D01*
X159641522Y-90925465D01*
X159609500Y-91127648D01*
X155390500Y-91127648D01*
X155358477Y-90925466D01*
X155336659Y-90858321D01*
X155334665Y-90788481D01*
X155366908Y-90732325D01*
X155868713Y-90230521D01*
X155868716Y-90230520D01*
X155980520Y-90118716D01*
X156030639Y-90031904D01*
X156059577Y-89981785D01*
X156100500Y-89829057D01*
X156100500Y-89670943D01*
X156100500Y-87339060D01*
X156100501Y-87339047D01*
X156100501Y-87170944D01*
X156100501Y-87170943D01*
X156059577Y-87018216D01*
X156038544Y-86981785D01*
X155980524Y-86881290D01*
X155980518Y-86881282D01*
X155636819Y-86537583D01*
X155622115Y-86510655D01*
X155605523Y-86484837D01*
X155604631Y-86478636D01*
X155603334Y-86476260D01*
X155600500Y-86449902D01*
X155600500Y-86229601D01*
X155620185Y-86162562D01*
X155668206Y-86119116D01*
X155681610Y-86112287D01*
X155847219Y-85991966D01*
X155991966Y-85847219D01*
X155991968Y-85847215D01*
X155991971Y-85847213D01*
X156044732Y-85774590D01*
X156112287Y-85681610D01*
X156205220Y-85499219D01*
X156268477Y-85304534D01*
X156300500Y-85102352D01*
X156300500Y-84897648D01*
X158699500Y-84897648D01*
X158699500Y-85102351D01*
X158731522Y-85304534D01*
X158794781Y-85499223D01*
X158887715Y-85681613D01*
X159008028Y-85847213D01*
X159152786Y-85991971D01*
X159307749Y-86104556D01*
X159318390Y-86112287D01*
X159399499Y-86153614D01*
X159500776Y-86205218D01*
X159500778Y-86205218D01*
X159500781Y-86205220D01*
X159575818Y-86229601D01*
X159695465Y-86268477D01*
X159796557Y-86284488D01*
X159897648Y-86300500D01*
X159897649Y-86300500D01*
X160102351Y-86300500D01*
X160102352Y-86300500D01*
X160304534Y-86268477D01*
X160499219Y-86205220D01*
X160681610Y-86112287D01*
X160774590Y-86044732D01*
X160847213Y-85991971D01*
X160847215Y-85991968D01*
X160847219Y-85991966D01*
X160991966Y-85847219D01*
X160991968Y-85847215D01*
X160991971Y-85847213D01*
X161044732Y-85774590D01*
X161112287Y-85681610D01*
X161205220Y-85499219D01*
X161268477Y-85304534D01*
X161300500Y-85102352D01*
X161300500Y-84897648D01*
X161268477Y-84695466D01*
X161205220Y-84500781D01*
X161205218Y-84500778D01*
X161205218Y-84500776D01*
X161171503Y-84434607D01*
X161112287Y-84318390D01*
X161104556Y-84307749D01*
X160991971Y-84152786D01*
X160847213Y-84008028D01*
X160681613Y-83887715D01*
X160681612Y-83887714D01*
X160681610Y-83887713D01*
X160624653Y-83858691D01*
X160499223Y-83794781D01*
X160304534Y-83731522D01*
X160129995Y-83703878D01*
X160102352Y-83699500D01*
X159897648Y-83699500D01*
X159873329Y-83703351D01*
X159695465Y-83731522D01*
X159500776Y-83794781D01*
X159318386Y-83887715D01*
X159152786Y-84008028D01*
X159008028Y-84152786D01*
X158887715Y-84318386D01*
X158794781Y-84500776D01*
X158731522Y-84695465D01*
X158699500Y-84897648D01*
X156300500Y-84897648D01*
X156268477Y-84695466D01*
X156205220Y-84500781D01*
X156205218Y-84500778D01*
X156205218Y-84500776D01*
X156171503Y-84434607D01*
X156112287Y-84318390D01*
X156104556Y-84307749D01*
X155991971Y-84152786D01*
X155847213Y-84008028D01*
X155681613Y-83887715D01*
X155681612Y-83887714D01*
X155681610Y-83887713D01*
X155624653Y-83858691D01*
X155499223Y-83794781D01*
X155304534Y-83731522D01*
X155129995Y-83703878D01*
X155102352Y-83699500D01*
X154897648Y-83699500D01*
X154873329Y-83703351D01*
X154695465Y-83731522D01*
X154500776Y-83794781D01*
X154318386Y-83887715D01*
X154152786Y-84008028D01*
X154008028Y-84152786D01*
X153887715Y-84318386D01*
X153794781Y-84500776D01*
X153731522Y-84695465D01*
X153699500Y-84897648D01*
X153699500Y-85102351D01*
X153731522Y-85304534D01*
X153794781Y-85499223D01*
X153887715Y-85681613D01*
X154008028Y-85847213D01*
X154008034Y-85847219D01*
X154152781Y-85991966D01*
X154318390Y-86112287D01*
X154331793Y-86119116D01*
X154382589Y-86167088D01*
X154399500Y-86229601D01*
X154399500Y-86663330D01*
X154399499Y-86663348D01*
X154399499Y-86829054D01*
X154399498Y-86829054D01*
X154399499Y-86829057D01*
X154440423Y-86981785D01*
X154461457Y-87018216D01*
X154519480Y-87118716D01*
X154585143Y-87184379D01*
X154590650Y-87191836D01*
X154599591Y-87216292D01*
X154612068Y-87239142D01*
X154611393Y-87248574D01*
X154614641Y-87257458D01*
X154608941Y-87282863D01*
X154607084Y-87308834D01*
X154601416Y-87316404D01*
X154599346Y-87325633D01*
X154580814Y-87343924D01*
X154565212Y-87364767D01*
X154556351Y-87368071D01*
X154549620Y-87374716D01*
X154524142Y-87380085D01*
X154499748Y-87389184D01*
X154490902Y-87389500D01*
X152474500Y-87389500D01*
X152407461Y-87369815D01*
X152361706Y-87317011D01*
X152350500Y-87265500D01*
X152350500Y-83240096D01*
X152370185Y-83173057D01*
X152386815Y-83152419D01*
X153245158Y-82294075D01*
X153306479Y-82260592D01*
X153371151Y-82263825D01*
X153385466Y-82268477D01*
X153587648Y-82300500D01*
X153587649Y-82300500D01*
X153792351Y-82300500D01*
X153792352Y-82300500D01*
X153994534Y-82268477D01*
X154189219Y-82205220D01*
X154371610Y-82112287D01*
X154464590Y-82044732D01*
X154537213Y-81991971D01*
X154537215Y-81991968D01*
X154537219Y-81991966D01*
X154681966Y-81847219D01*
X154681968Y-81847215D01*
X154681971Y-81847213D01*
X154734732Y-81774590D01*
X154802287Y-81681610D01*
X154895220Y-81499219D01*
X154958477Y-81304534D01*
X154990500Y-81102352D01*
X154990500Y-80897648D01*
X160009500Y-80897648D01*
X160009500Y-81102351D01*
X160041522Y-81304534D01*
X160104781Y-81499223D01*
X160197715Y-81681613D01*
X160318028Y-81847213D01*
X160462786Y-81991971D01*
X160617749Y-82104556D01*
X160628390Y-82112287D01*
X160744607Y-82171503D01*
X160810776Y-82205218D01*
X160810778Y-82205218D01*
X160810781Y-82205220D01*
X160915137Y-82239127D01*
X161005465Y-82268477D01*
X161106557Y-82284488D01*
X161207648Y-82300500D01*
X161207649Y-82300500D01*
X161412351Y-82300500D01*
X161412352Y-82300500D01*
X161614534Y-82268477D01*
X161809219Y-82205220D01*
X161991610Y-82112287D01*
X162084590Y-82044732D01*
X162157213Y-81991971D01*
X162157215Y-81991968D01*
X162157219Y-81991966D01*
X162301966Y-81847219D01*
X162301968Y-81847215D01*
X162301971Y-81847213D01*
X162354732Y-81774590D01*
X162422287Y-81681610D01*
X162515220Y-81499219D01*
X162578477Y-81304534D01*
X162610500Y-81102352D01*
X162610500Y-80897648D01*
X162578477Y-80695466D01*
X162515220Y-80500781D01*
X162515218Y-80500778D01*
X162515218Y-80500776D01*
X162481503Y-80434607D01*
X162422287Y-80318390D01*
X162414556Y-80307749D01*
X162301971Y-80152786D01*
X162157213Y-80008028D01*
X161991613Y-79887715D01*
X161991612Y-79887714D01*
X161991610Y-79887713D01*
X161934653Y-79858691D01*
X161809223Y-79794781D01*
X161614534Y-79731522D01*
X161439995Y-79703878D01*
X161412352Y-79699500D01*
X161207648Y-79699500D01*
X161183329Y-79703351D01*
X161005465Y-79731522D01*
X160810776Y-79794781D01*
X160628386Y-79887715D01*
X160462786Y-80008028D01*
X160318028Y-80152786D01*
X160197715Y-80318386D01*
X160104781Y-80500776D01*
X160041522Y-80695465D01*
X160009500Y-80897648D01*
X154990500Y-80897648D01*
X154958477Y-80695466D01*
X154895220Y-80500781D01*
X154895218Y-80500778D01*
X154895218Y-80500776D01*
X154861503Y-80434607D01*
X154802287Y-80318390D01*
X154794556Y-80307749D01*
X154681971Y-80152786D01*
X154537213Y-80008028D01*
X154371613Y-79887715D01*
X154371612Y-79887714D01*
X154371610Y-79887713D01*
X154314653Y-79858691D01*
X154189223Y-79794781D01*
X153994534Y-79731522D01*
X153819995Y-79703878D01*
X153792352Y-79699500D01*
X153587648Y-79699500D01*
X153563329Y-79703351D01*
X153385465Y-79731522D01*
X153190776Y-79794781D01*
X153008386Y-79887715D01*
X152842786Y-80008028D01*
X152698028Y-80152786D01*
X152577715Y-80318386D01*
X152484781Y-80500776D01*
X152421522Y-80695465D01*
X152389500Y-80897648D01*
X152389500Y-81102351D01*
X152421522Y-81304534D01*
X152426173Y-81318848D01*
X152428165Y-81388690D01*
X152395921Y-81444842D01*
X151381286Y-82459478D01*
X151269481Y-82571282D01*
X151269479Y-82571285D01*
X151219361Y-82658094D01*
X151219359Y-82658096D01*
X151190425Y-82708209D01*
X151190424Y-82708210D01*
X151190423Y-82708215D01*
X151149499Y-82860943D01*
X151149499Y-82860945D01*
X151149499Y-83029046D01*
X151149500Y-83029059D01*
X151149500Y-91743330D01*
X151149499Y-91743348D01*
X151149499Y-91909054D01*
X151149498Y-91909054D01*
X151149499Y-91909057D01*
X151190423Y-92061785D01*
X151194038Y-92068047D01*
X151199332Y-92077217D01*
X151199334Y-92077219D01*
X151269477Y-92198712D01*
X151269481Y-92198717D01*
X151388349Y-92317585D01*
X151388355Y-92317590D01*
X152107744Y-93036979D01*
X152141229Y-93098302D01*
X152136245Y-93167994D01*
X152130548Y-93180954D01*
X152084779Y-93270781D01*
X152084779Y-93270782D01*
X152021523Y-93465461D01*
X152021523Y-93465464D01*
X151989500Y-93667648D01*
X151989500Y-93872351D01*
X152021522Y-94074534D01*
X152084781Y-94269223D01*
X152148691Y-94394653D01*
X152165537Y-94427714D01*
X152177715Y-94451613D01*
X152298028Y-94617213D01*
X152442786Y-94761971D01*
X152597749Y-94874556D01*
X152608390Y-94882287D01*
X152699840Y-94928883D01*
X152701080Y-94929515D01*
X152751876Y-94977490D01*
X152768671Y-95045311D01*
X152746134Y-95111446D01*
X152701080Y-95150485D01*
X152608386Y-95197715D01*
X152442786Y-95318028D01*
X152298028Y-95462786D01*
X152177715Y-95628386D01*
X152084781Y-95810776D01*
X152021522Y-96005465D01*
X151989500Y-96207648D01*
X151989500Y-96412351D01*
X152021523Y-96614535D01*
X152021523Y-96614538D01*
X152072243Y-96770638D01*
X152074238Y-96840479D01*
X152041993Y-96896637D01*
X151475451Y-97463181D01*
X151414128Y-97496666D01*
X151387770Y-97499500D01*
X147659047Y-97499500D01*
X147592008Y-97479815D01*
X147546253Y-97427011D01*
X147536309Y-97357853D01*
X147565334Y-97294297D01*
X147571366Y-97287819D01*
X147701966Y-97157219D01*
X147701968Y-97157215D01*
X147701971Y-97157213D01*
X147754732Y-97084590D01*
X147822287Y-96991610D01*
X147915220Y-96809219D01*
X147978477Y-96614534D01*
X148010500Y-96412352D01*
X148010500Y-96207648D01*
X147978477Y-96005466D01*
X147915220Y-95810781D01*
X147915218Y-95810778D01*
X147915218Y-95810776D01*
X147881503Y-95744607D01*
X147822287Y-95628390D01*
X147814556Y-95617749D01*
X147701971Y-95462786D01*
X147557213Y-95318028D01*
X147391614Y-95197715D01*
X147385006Y-95194348D01*
X147298917Y-95150483D01*
X147248123Y-95102511D01*
X147231328Y-95034690D01*
X147253865Y-94968555D01*
X147298917Y-94929516D01*
X147391610Y-94882287D01*
X147412770Y-94866913D01*
X147557213Y-94761971D01*
X147557215Y-94761968D01*
X147557219Y-94761966D01*
X147701966Y-94617219D01*
X147701968Y-94617215D01*
X147701971Y-94617213D01*
X147754732Y-94544590D01*
X147822287Y-94451610D01*
X147915220Y-94269219D01*
X147978477Y-94074534D01*
X148010500Y-93872352D01*
X148010500Y-93667648D01*
X147978477Y-93465466D01*
X147978476Y-93465464D01*
X147915218Y-93270776D01*
X147862847Y-93167994D01*
X147822287Y-93088390D01*
X147784935Y-93036979D01*
X147701971Y-92922786D01*
X147557213Y-92778028D01*
X147391614Y-92657715D01*
X147385006Y-92654348D01*
X147298917Y-92610483D01*
X147248123Y-92562511D01*
X147231328Y-92494690D01*
X147253865Y-92428555D01*
X147298917Y-92389516D01*
X147391610Y-92342287D01*
X147435334Y-92310520D01*
X147557213Y-92221971D01*
X147557215Y-92221968D01*
X147557219Y-92221966D01*
X147701966Y-92077219D01*
X147701968Y-92077215D01*
X147701971Y-92077213D01*
X147754732Y-92004590D01*
X147822287Y-91911610D01*
X147915220Y-91729219D01*
X147978477Y-91534534D01*
X148010500Y-91332352D01*
X148010500Y-91127648D01*
X147978477Y-90925465D01*
X147933968Y-90788481D01*
X147915220Y-90730781D01*
X147915218Y-90730778D01*
X147915218Y-90730776D01*
X147881503Y-90664607D01*
X147822287Y-90548390D01*
X147814556Y-90537749D01*
X147701971Y-90382786D01*
X147557213Y-90238028D01*
X147391611Y-90117713D01*
X147298369Y-90070203D01*
X147247574Y-90022229D01*
X147230779Y-89954407D01*
X147253317Y-89888273D01*
X147298371Y-89849234D01*
X147391347Y-89801861D01*
X147556894Y-89681582D01*
X147556895Y-89681582D01*
X147701582Y-89536895D01*
X147701582Y-89536894D01*
X147821859Y-89371349D01*
X147914755Y-89189029D01*
X147977990Y-88994413D01*
X147986609Y-88940000D01*
X146625686Y-88940000D01*
X146630080Y-88935606D01*
X146682741Y-88844394D01*
X146710000Y-88742661D01*
X146710000Y-88637339D01*
X146682741Y-88535606D01*
X146630080Y-88444394D01*
X146625686Y-88440000D01*
X147986609Y-88440000D01*
X147977990Y-88385586D01*
X147914755Y-88190970D01*
X147821859Y-88008650D01*
X147701582Y-87843105D01*
X147701582Y-87843104D01*
X147556895Y-87698417D01*
X147391349Y-87578140D01*
X147209031Y-87485244D01*
X147014417Y-87422009D01*
X146812317Y-87390000D01*
X146560000Y-87390000D01*
X146560000Y-88374314D01*
X146555606Y-88369920D01*
X146464394Y-88317259D01*
X146362661Y-88290000D01*
X146257339Y-88290000D01*
X146155606Y-88317259D01*
X146064394Y-88369920D01*
X146060000Y-88374314D01*
X146060000Y-87390000D01*
X145807683Y-87390000D01*
X145605582Y-87422009D01*
X145410968Y-87485244D01*
X145228650Y-87578140D01*
X145063105Y-87698417D01*
X145063104Y-87698417D01*
X144918417Y-87843104D01*
X144918417Y-87843105D01*
X144798140Y-88008650D01*
X144705244Y-88190970D01*
X144642009Y-88385586D01*
X144633391Y-88440000D01*
X145994314Y-88440000D01*
X145989920Y-88444394D01*
X145937259Y-88535606D01*
X145910000Y-88637339D01*
X145910000Y-88742661D01*
X145937259Y-88844394D01*
X145989920Y-88935606D01*
X145994314Y-88940000D01*
X144633391Y-88940000D01*
X144642009Y-88994413D01*
X144705244Y-89189029D01*
X144798140Y-89371349D01*
X144918417Y-89536894D01*
X144918417Y-89536895D01*
X145063104Y-89681582D01*
X145228652Y-89801861D01*
X145321628Y-89849234D01*
X145372425Y-89897208D01*
X145389220Y-89965029D01*
X145366683Y-90031164D01*
X145321630Y-90070203D01*
X145228388Y-90117713D01*
X145062786Y-90238028D01*
X144918028Y-90382786D01*
X144797715Y-90548386D01*
X144704781Y-90730776D01*
X144641522Y-90925465D01*
X144609500Y-91127648D01*
X144609500Y-91332351D01*
X144641522Y-91534534D01*
X144704781Y-91729223D01*
X144768691Y-91854653D01*
X144796412Y-91909057D01*
X144797715Y-91911613D01*
X144918028Y-92077213D01*
X145062786Y-92221971D01*
X145184666Y-92310520D01*
X145228390Y-92342287D01*
X145319840Y-92388883D01*
X145321080Y-92389515D01*
X145371876Y-92437490D01*
X145388671Y-92505311D01*
X145366134Y-92571446D01*
X145321080Y-92610485D01*
X145228386Y-92657715D01*
X145062786Y-92778028D01*
X144918028Y-92922786D01*
X144797715Y-93088386D01*
X144704781Y-93270776D01*
X144641522Y-93465465D01*
X144609500Y-93667648D01*
X144609500Y-93872351D01*
X144641522Y-94074534D01*
X144704781Y-94269223D01*
X144768691Y-94394653D01*
X144785537Y-94427714D01*
X144797715Y-94451613D01*
X144918028Y-94617213D01*
X145062786Y-94761971D01*
X145217749Y-94874556D01*
X145228390Y-94882287D01*
X145319840Y-94928883D01*
X145321080Y-94929515D01*
X145371876Y-94977490D01*
X145388671Y-95045311D01*
X145366134Y-95111446D01*
X145321080Y-95150485D01*
X145228386Y-95197715D01*
X145062786Y-95318028D01*
X144918028Y-95462786D01*
X144797715Y-95628386D01*
X144704781Y-95810776D01*
X144641522Y-96005465D01*
X144609500Y-96207648D01*
X144609500Y-96412351D01*
X144641522Y-96614534D01*
X144704781Y-96809223D01*
X144797715Y-96991613D01*
X144918028Y-97157213D01*
X145048634Y-97287819D01*
X145082119Y-97349142D01*
X145077135Y-97418834D01*
X145035263Y-97474767D01*
X144969799Y-97499184D01*
X144960953Y-97499500D01*
X140992229Y-97499500D01*
X140925190Y-97479815D01*
X140904548Y-97463181D01*
X140338005Y-96896637D01*
X140304520Y-96835314D01*
X140307754Y-96770640D01*
X140358477Y-96614534D01*
X140390500Y-96412352D01*
X140390500Y-96207648D01*
X140358477Y-96005466D01*
X140295220Y-95810781D01*
X140295218Y-95810778D01*
X140295218Y-95810776D01*
X140261503Y-95744607D01*
X140202287Y-95628390D01*
X140194556Y-95617749D01*
X140081971Y-95462786D01*
X139937213Y-95318028D01*
X139771614Y-95197715D01*
X139765006Y-95194348D01*
X139678917Y-95150483D01*
X139628123Y-95102511D01*
X139611328Y-95034690D01*
X139633865Y-94968555D01*
X139678917Y-94929516D01*
X139771610Y-94882287D01*
X139792770Y-94866913D01*
X139937213Y-94761971D01*
X139937215Y-94761968D01*
X139937219Y-94761966D01*
X140081966Y-94617219D01*
X140081968Y-94617215D01*
X140081971Y-94617213D01*
X140134732Y-94544590D01*
X140202287Y-94451610D01*
X140295220Y-94269219D01*
X140358477Y-94074534D01*
X140390500Y-93872352D01*
X140390500Y-93667648D01*
X140358477Y-93465466D01*
X140358476Y-93465464D01*
X140295218Y-93270776D01*
X140242847Y-93167994D01*
X140202287Y-93088390D01*
X140164935Y-93036979D01*
X140081971Y-92922786D01*
X139937213Y-92778028D01*
X139771614Y-92657715D01*
X139765006Y-92654348D01*
X139678917Y-92610483D01*
X139628123Y-92562511D01*
X139611328Y-92494690D01*
X139633865Y-92428555D01*
X139678917Y-92389516D01*
X139771610Y-92342287D01*
X139815334Y-92310520D01*
X139937213Y-92221971D01*
X139937215Y-92221968D01*
X139937219Y-92221966D01*
X140081966Y-92077219D01*
X140081968Y-92077215D01*
X140081971Y-92077213D01*
X140134732Y-92004590D01*
X140202287Y-91911610D01*
X140295220Y-91729219D01*
X140358477Y-91534534D01*
X140390500Y-91332352D01*
X140390500Y-91127648D01*
X140358477Y-90925466D01*
X140336659Y-90858321D01*
X140334665Y-90788481D01*
X140366908Y-90732325D01*
X140868713Y-90230521D01*
X140868716Y-90230520D01*
X140980520Y-90118716D01*
X141030639Y-90031904D01*
X141059577Y-89981785D01*
X141100500Y-89829057D01*
X141100500Y-89670943D01*
X141100500Y-87339060D01*
X141100501Y-87339047D01*
X141100501Y-87170944D01*
X141100501Y-87170943D01*
X141059577Y-87018216D01*
X141038544Y-86981785D01*
X140980524Y-86881290D01*
X140980518Y-86881282D01*
X140636819Y-86537583D01*
X140622115Y-86510655D01*
X140605523Y-86484837D01*
X140604631Y-86478636D01*
X140603334Y-86476260D01*
X140600500Y-86449902D01*
X140600500Y-86229601D01*
X140620185Y-86162562D01*
X140668206Y-86119116D01*
X140681610Y-86112287D01*
X140847219Y-85991966D01*
X140991966Y-85847219D01*
X140991968Y-85847215D01*
X140991971Y-85847213D01*
X141044732Y-85774590D01*
X141112287Y-85681610D01*
X141205220Y-85499219D01*
X141268477Y-85304534D01*
X141300500Y-85102352D01*
X141300500Y-84897648D01*
X143699500Y-84897648D01*
X143699500Y-85102351D01*
X143731522Y-85304534D01*
X143794781Y-85499223D01*
X143887715Y-85681613D01*
X144008028Y-85847213D01*
X144152786Y-85991971D01*
X144307749Y-86104556D01*
X144318390Y-86112287D01*
X144399499Y-86153614D01*
X144500776Y-86205218D01*
X144500778Y-86205218D01*
X144500781Y-86205220D01*
X144575818Y-86229601D01*
X144695465Y-86268477D01*
X144796557Y-86284488D01*
X144897648Y-86300500D01*
X144897649Y-86300500D01*
X145102351Y-86300500D01*
X145102352Y-86300500D01*
X145304534Y-86268477D01*
X145499219Y-86205220D01*
X145681610Y-86112287D01*
X145774590Y-86044732D01*
X145847213Y-85991971D01*
X145847215Y-85991968D01*
X145847219Y-85991966D01*
X145991966Y-85847219D01*
X145991968Y-85847215D01*
X145991971Y-85847213D01*
X146044732Y-85774590D01*
X146112287Y-85681610D01*
X146205220Y-85499219D01*
X146268477Y-85304534D01*
X146300500Y-85102352D01*
X146300500Y-84897648D01*
X146268477Y-84695466D01*
X146205220Y-84500781D01*
X146205218Y-84500778D01*
X146205218Y-84500776D01*
X146171503Y-84434607D01*
X146112287Y-84318390D01*
X146104556Y-84307749D01*
X145991971Y-84152786D01*
X145847213Y-84008028D01*
X145681613Y-83887715D01*
X145681612Y-83887714D01*
X145681610Y-83887713D01*
X145624653Y-83858691D01*
X145499223Y-83794781D01*
X145304534Y-83731522D01*
X145129995Y-83703878D01*
X145102352Y-83699500D01*
X144897648Y-83699500D01*
X144873329Y-83703351D01*
X144695465Y-83731522D01*
X144500776Y-83794781D01*
X144318386Y-83887715D01*
X144152786Y-84008028D01*
X144008028Y-84152786D01*
X143887715Y-84318386D01*
X143794781Y-84500776D01*
X143731522Y-84695465D01*
X143699500Y-84897648D01*
X141300500Y-84897648D01*
X141268477Y-84695466D01*
X141205220Y-84500781D01*
X141205218Y-84500778D01*
X141205218Y-84500776D01*
X141171503Y-84434607D01*
X141112287Y-84318390D01*
X141104556Y-84307749D01*
X140991971Y-84152786D01*
X140847213Y-84008028D01*
X140681613Y-83887715D01*
X140681612Y-83887714D01*
X140681610Y-83887713D01*
X140624653Y-83858691D01*
X140499223Y-83794781D01*
X140304534Y-83731522D01*
X140129995Y-83703878D01*
X140102352Y-83699500D01*
X139897648Y-83699500D01*
X139873329Y-83703351D01*
X139695465Y-83731522D01*
X139500776Y-83794781D01*
X139318386Y-83887715D01*
X139152786Y-84008028D01*
X139008028Y-84152786D01*
X138887715Y-84318386D01*
X138794781Y-84500776D01*
X138731522Y-84695465D01*
X138699500Y-84897648D01*
X138699500Y-85102351D01*
X138731522Y-85304534D01*
X138794781Y-85499223D01*
X138887715Y-85681613D01*
X139008028Y-85847213D01*
X139008034Y-85847219D01*
X139152781Y-85991966D01*
X139318390Y-86112287D01*
X139331793Y-86119116D01*
X139382589Y-86167088D01*
X139399500Y-86229601D01*
X139399500Y-86663330D01*
X139399499Y-86663348D01*
X139399499Y-86829054D01*
X139399498Y-86829054D01*
X139399499Y-86829057D01*
X139440423Y-86981785D01*
X139461457Y-87018216D01*
X139519480Y-87118716D01*
X139585143Y-87184379D01*
X139590650Y-87191836D01*
X139599591Y-87216292D01*
X139612068Y-87239142D01*
X139611393Y-87248574D01*
X139614641Y-87257458D01*
X139608941Y-87282863D01*
X139607084Y-87308834D01*
X139601416Y-87316404D01*
X139599346Y-87325633D01*
X139580814Y-87343924D01*
X139565212Y-87364767D01*
X139556351Y-87368071D01*
X139549620Y-87374716D01*
X139524142Y-87380085D01*
X139499748Y-87389184D01*
X139490902Y-87389500D01*
X137442129Y-87389500D01*
X137442123Y-87389501D01*
X137382516Y-87395908D01*
X137247671Y-87446202D01*
X137247664Y-87446206D01*
X137132455Y-87532452D01*
X137132452Y-87532455D01*
X137046206Y-87647664D01*
X137046202Y-87647671D01*
X136995908Y-87782517D01*
X136989501Y-87842116D01*
X136989500Y-87842135D01*
X136989500Y-89537870D01*
X136989501Y-89537876D01*
X136995908Y-89597483D01*
X137046202Y-89732328D01*
X137046206Y-89732335D01*
X137132452Y-89847544D01*
X137132455Y-89847547D01*
X137247664Y-89933793D01*
X137247671Y-89933797D01*
X137292618Y-89950561D01*
X137382517Y-89984091D01*
X137419441Y-89988060D01*
X137483989Y-90014796D01*
X137523838Y-90072188D01*
X137526333Y-90142013D01*
X137490681Y-90202102D01*
X137479071Y-90211666D01*
X137442784Y-90238030D01*
X137298028Y-90382786D01*
X137177715Y-90548386D01*
X137084781Y-90730776D01*
X137021522Y-90925465D01*
X136989500Y-91127648D01*
X136989500Y-91332351D01*
X137021522Y-91534534D01*
X137084781Y-91729223D01*
X137148691Y-91854653D01*
X137176412Y-91909057D01*
X137177715Y-91911613D01*
X137298028Y-92077213D01*
X137442786Y-92221971D01*
X137564666Y-92310520D01*
X137608390Y-92342287D01*
X137699840Y-92388883D01*
X137701080Y-92389515D01*
X137751876Y-92437490D01*
X137768671Y-92505311D01*
X137746134Y-92571446D01*
X137701080Y-92610485D01*
X137608386Y-92657715D01*
X137442786Y-92778028D01*
X137298028Y-92922786D01*
X137177715Y-93088386D01*
X137084781Y-93270776D01*
X137021522Y-93465465D01*
X136989500Y-93667648D01*
X136989500Y-93872351D01*
X137021523Y-94074535D01*
X137021523Y-94074538D01*
X137084779Y-94269218D01*
X137084779Y-94269219D01*
X137130547Y-94359045D01*
X137143443Y-94427714D01*
X137117166Y-94492455D01*
X137107743Y-94503020D01*
X136381286Y-95229478D01*
X136269481Y-95341282D01*
X136269479Y-95341284D01*
X136241797Y-95389232D01*
X136230096Y-95409500D01*
X136190423Y-95478215D01*
X136149499Y-95630943D01*
X136149499Y-95789057D01*
X136149499Y-95789059D01*
X136149500Y-95799053D01*
X136149500Y-104163330D01*
X136149499Y-104163348D01*
X136149499Y-104329054D01*
X136149498Y-104329054D01*
X135500500Y-104329054D01*
X135500500Y-80897648D01*
X137389500Y-80897648D01*
X137389500Y-81102351D01*
X137421522Y-81304534D01*
X137484781Y-81499223D01*
X137577715Y-81681613D01*
X137698028Y-81847213D01*
X137842786Y-81991971D01*
X137997749Y-82104556D01*
X138008390Y-82112287D01*
X138124607Y-82171503D01*
X138190776Y-82205218D01*
X138190778Y-82205218D01*
X138190781Y-82205220D01*
X138295137Y-82239127D01*
X138385465Y-82268477D01*
X138486557Y-82284488D01*
X138587648Y-82300500D01*
X138587649Y-82300500D01*
X138792351Y-82300500D01*
X138792352Y-82300500D01*
X138994534Y-82268477D01*
X139189219Y-82205220D01*
X139371610Y-82112287D01*
X139464590Y-82044732D01*
X139537213Y-81991971D01*
X139537215Y-81991968D01*
X139537219Y-81991966D01*
X139681966Y-81847219D01*
X139681968Y-81847215D01*
X139681971Y-81847213D01*
X139734732Y-81774590D01*
X139802287Y-81681610D01*
X139895220Y-81499219D01*
X139958477Y-81304534D01*
X139990500Y-81102352D01*
X139990500Y-80897648D01*
X145009500Y-80897648D01*
X145009500Y-81102351D01*
X145041522Y-81304534D01*
X145104781Y-81499223D01*
X145197715Y-81681613D01*
X145318028Y-81847213D01*
X145462786Y-81991971D01*
X145617749Y-82104556D01*
X145628390Y-82112287D01*
X145744607Y-82171503D01*
X145810776Y-82205218D01*
X145810778Y-82205218D01*
X145810781Y-82205220D01*
X145915137Y-82239127D01*
X146005465Y-82268477D01*
X146106557Y-82284488D01*
X146207648Y-82300500D01*
X146207649Y-82300500D01*
X146412351Y-82300500D01*
X146412352Y-82300500D01*
X146614534Y-82268477D01*
X146809219Y-82205220D01*
X146991610Y-82112287D01*
X147084590Y-82044732D01*
X147157213Y-81991971D01*
X147157215Y-81991968D01*
X147157219Y-81991966D01*
X147301966Y-81847219D01*
X147301968Y-81847215D01*
X147301971Y-81847213D01*
X147354732Y-81774590D01*
X147422287Y-81681610D01*
X147515220Y-81499219D01*
X147578477Y-81304534D01*
X147610500Y-81102352D01*
X147610500Y-80897648D01*
X147578477Y-80695466D01*
X147515220Y-80500781D01*
X147515218Y-80500778D01*
X147515218Y-80500776D01*
X147481503Y-80434607D01*
X147422287Y-80318390D01*
X147414556Y-80307749D01*
X147301971Y-80152786D01*
X147157213Y-80008028D01*
X146991613Y-79887715D01*
X146991612Y-79887714D01*
X146991610Y-79887713D01*
X146934653Y-79858691D01*
X146809223Y-79794781D01*
X146614534Y-79731522D01*
X146439995Y-79703878D01*
X146412352Y-79699500D01*
X146207648Y-79699500D01*
X146183329Y-79703351D01*
X146005465Y-79731522D01*
X145810776Y-79794781D01*
X145628386Y-79887715D01*
X145462786Y-80008028D01*
X145318028Y-80152786D01*
X145197715Y-80318386D01*
X145104781Y-80500776D01*
X145041522Y-80695465D01*
X145009500Y-80897648D01*
X139990500Y-80897648D01*
X139958477Y-80695466D01*
X139895220Y-80500781D01*
X139895218Y-80500778D01*
X139895218Y-80500776D01*
X139861503Y-80434607D01*
X139802287Y-80318390D01*
X139794556Y-80307749D01*
X139681971Y-80152786D01*
X139537213Y-80008028D01*
X139371613Y-79887715D01*
X139371612Y-79887714D01*
X139371610Y-79887713D01*
X139314653Y-79858691D01*
X139189223Y-79794781D01*
X138994534Y-79731522D01*
X138819995Y-79703878D01*
X138792352Y-79699500D01*
X138587648Y-79699500D01*
X138563329Y-79703351D01*
X138385465Y-79731522D01*
X138190776Y-79794781D01*
X138008386Y-79887715D01*
X137842786Y-80008028D01*
X137698028Y-80152786D01*
X137577715Y-80318386D01*
X137484781Y-80500776D01*
X137421522Y-80695465D01*
X137389500Y-80897648D01*
X135500500Y-80897648D01*
X135500500Y-77397648D01*
X137389500Y-77397648D01*
X137389500Y-77602351D01*
X137421522Y-77804534D01*
X137484781Y-77999223D01*
X137577715Y-78181613D01*
X137698028Y-78347213D01*
X137842786Y-78491971D01*
X137997749Y-78604556D01*
X138008390Y-78612287D01*
X138124607Y-78671503D01*
X138190776Y-78705218D01*
X138190778Y-78705218D01*
X138190781Y-78705220D01*
X138295137Y-78739127D01*
X138385465Y-78768477D01*
X138486557Y-78784488D01*
X138587648Y-78800500D01*
X138587649Y-78800500D01*
X138792351Y-78800500D01*
X138792352Y-78800500D01*
X138994534Y-78768477D01*
X139189219Y-78705220D01*
X139371610Y-78612287D01*
X139464590Y-78544732D01*
X139537213Y-78491971D01*
X139537215Y-78491968D01*
X139537219Y-78491966D01*
X139681966Y-78347219D01*
X139681968Y-78347215D01*
X139681971Y-78347213D01*
X139734732Y-78274590D01*
X139802287Y-78181610D01*
X139895220Y-77999219D01*
X139958477Y-77804534D01*
X139990500Y-77602352D01*
X139990500Y-77397648D01*
X145009500Y-77397648D01*
X145009500Y-77602351D01*
X145041522Y-77804534D01*
X145104781Y-77999223D01*
X145197715Y-78181613D01*
X145318028Y-78347213D01*
X145462786Y-78491971D01*
X145617749Y-78604556D01*
X145628390Y-78612287D01*
X145744607Y-78671503D01*
X145810776Y-78705218D01*
X145810778Y-78705218D01*
X145810781Y-78705220D01*
X145915137Y-78739127D01*
X146005465Y-78768477D01*
X146106557Y-78784488D01*
X146207648Y-78800500D01*
X146207649Y-78800500D01*
X146412351Y-78800500D01*
X146412352Y-78800500D01*
X146614534Y-78768477D01*
X146809219Y-78705220D01*
X146991610Y-78612287D01*
X147084590Y-78544732D01*
X147157213Y-78491971D01*
X147157215Y-78491968D01*
X147157219Y-78491966D01*
X147301966Y-78347219D01*
X147301968Y-78347215D01*
X147301971Y-78347213D01*
X147354732Y-78274590D01*
X147422287Y-78181610D01*
X147515220Y-77999219D01*
X147578477Y-77804534D01*
X147610500Y-77602352D01*
X147610500Y-77397648D01*
X152389500Y-77397648D01*
X152389500Y-77602351D01*
X152421522Y-77804534D01*
X152484781Y-77999223D01*
X152577715Y-78181613D01*
X152698028Y-78347213D01*
X152842786Y-78491971D01*
X152997749Y-78604556D01*
X153008390Y-78612287D01*
X153124607Y-78671503D01*
X153190776Y-78705218D01*
X153190778Y-78705218D01*
X153190781Y-78705220D01*
X153295137Y-78739127D01*
X153385465Y-78768477D01*
X153486557Y-78784488D01*
X153587648Y-78800500D01*
X153587649Y-78800500D01*
X153792351Y-78800500D01*
X153792352Y-78800500D01*
X153994534Y-78768477D01*
X154189219Y-78705220D01*
X154371610Y-78612287D01*
X154464590Y-78544732D01*
X154537213Y-78491971D01*
X154537215Y-78491968D01*
X154537219Y-78491966D01*
X154681966Y-78347219D01*
X154681968Y-78347215D01*
X154681971Y-78347213D01*
X154734732Y-78274590D01*
X154802287Y-78181610D01*
X154895220Y-77999219D01*
X154958477Y-77804534D01*
X154990500Y-77602352D01*
X154990500Y-77397648D01*
X160009500Y-77397648D01*
X160009500Y-77602351D01*
X160041522Y-77804534D01*
X160104781Y-77999223D01*
X160197715Y-78181613D01*
X160318028Y-78347213D01*
X160462786Y-78491971D01*
X160617749Y-78604556D01*
X160628390Y-78612287D01*
X160744607Y-78671503D01*
X160810776Y-78705218D01*
X160810778Y-78705218D01*
X160810781Y-78705220D01*
X160915137Y-78739127D01*
X161005465Y-78768477D01*
X161106557Y-78784488D01*
X161207648Y-78800500D01*
X161207649Y-78800500D01*
X161412351Y-78800500D01*
X161412352Y-78800500D01*
X161614534Y-78768477D01*
X161809219Y-78705220D01*
X161991610Y-78612287D01*
X162084590Y-78544732D01*
X162157213Y-78491971D01*
X162157215Y-78491968D01*
X162157219Y-78491966D01*
X162301966Y-78347219D01*
X162301968Y-78347215D01*
X162301971Y-78347213D01*
X162354732Y-78274590D01*
X162422287Y-78181610D01*
X162515220Y-77999219D01*
X162578477Y-77804534D01*
X162610500Y-77602352D01*
X162610500Y-77397648D01*
X162578477Y-77195466D01*
X162515220Y-77000781D01*
X162515218Y-77000778D01*
X162515218Y-77000776D01*
X162481503Y-76934607D01*
X162422287Y-76818390D01*
X162414556Y-76807749D01*
X162301971Y-76652786D01*
X162157213Y-76508028D01*
X161991613Y-76387715D01*
X161991612Y-76387714D01*
X161991610Y-76387713D01*
X161934653Y-76358691D01*
X161809223Y-76294781D01*
X161614534Y-76231522D01*
X161439995Y-76203878D01*
X161412352Y-76199500D01*
X161207648Y-76199500D01*
X161183329Y-76203351D01*
X161005465Y-76231522D01*
X160810776Y-76294781D01*
X160628386Y-76387715D01*
X160462786Y-76508028D01*
X160318028Y-76652786D01*
X160197715Y-76818386D01*
X160104781Y-77000776D01*
X160041522Y-77195465D01*
X160009500Y-77397648D01*
X154990500Y-77397648D01*
X154958477Y-77195466D01*
X154895220Y-77000781D01*
X154895218Y-77000778D01*
X154895218Y-77000776D01*
X154861503Y-76934607D01*
X154802287Y-76818390D01*
X154794556Y-76807749D01*
X154681971Y-76652786D01*
X154537213Y-76508028D01*
X154371613Y-76387715D01*
X154371612Y-76387714D01*
X154371610Y-76387713D01*
X154314653Y-76358691D01*
X154189223Y-76294781D01*
X153994534Y-76231522D01*
X153819995Y-76203878D01*
X153792352Y-76199500D01*
X153587648Y-76199500D01*
X153563329Y-76203351D01*
X153385465Y-76231522D01*
X153190776Y-76294781D01*
X153008386Y-76387715D01*
X152842786Y-76508028D01*
X152698028Y-76652786D01*
X152577715Y-76818386D01*
X152484781Y-77000776D01*
X152421522Y-77195465D01*
X152389500Y-77397648D01*
X147610500Y-77397648D01*
X147578477Y-77195466D01*
X147515220Y-77000781D01*
X147515218Y-77000778D01*
X147515218Y-77000776D01*
X147481503Y-76934607D01*
X147422287Y-76818390D01*
X147414556Y-76807749D01*
X147301971Y-76652786D01*
X147157213Y-76508028D01*
X146991613Y-76387715D01*
X146991612Y-76387714D01*
X146991610Y-76387713D01*
X146934653Y-76358691D01*
X146809223Y-76294781D01*
X146614534Y-76231522D01*
X146439995Y-76203878D01*
X146412352Y-76199500D01*
X146207648Y-76199500D01*
X146183329Y-76203351D01*
X146005465Y-76231522D01*
X145810776Y-76294781D01*
X145628386Y-76387715D01*
X145462786Y-76508028D01*
X145318028Y-76652786D01*
X145197715Y-76818386D01*
X145104781Y-77000776D01*
X145041522Y-77195465D01*
X145009500Y-77397648D01*
X139990500Y-77397648D01*
X139958477Y-77195466D01*
X139895220Y-77000781D01*
X139895218Y-77000778D01*
X139895218Y-77000776D01*
X139861503Y-76934607D01*
X139802287Y-76818390D01*
X139794556Y-76807749D01*
X139681971Y-76652786D01*
X139537213Y-76508028D01*
X139371613Y-76387715D01*
X139371612Y-76387714D01*
X139371610Y-76387713D01*
X139314653Y-76358691D01*
X139189223Y-76294781D01*
X138994534Y-76231522D01*
X138819995Y-76203878D01*
X138792352Y-76199500D01*
X138587648Y-76199500D01*
X138563329Y-76203351D01*
X138385465Y-76231522D01*
X138190776Y-76294781D01*
X138008386Y-76387715D01*
X137842786Y-76508028D01*
X137698028Y-76652786D01*
X137577715Y-76818386D01*
X137484781Y-77000776D01*
X137421522Y-77195465D01*
X137389500Y-77397648D01*
X135500500Y-77397648D01*
X135500500Y-67294038D01*
X140899500Y-67294038D01*
X140899500Y-67545961D01*
X140938910Y-67794785D01*
X141016760Y-68034383D01*
X141131132Y-68258848D01*
X141279201Y-68462649D01*
X141279205Y-68462654D01*
X141457345Y-68640794D01*
X141457350Y-68640798D01*
X141635117Y-68769952D01*
X141661155Y-68788870D01*
X141804184Y-68861747D01*
X141885616Y-68903239D01*
X141885618Y-68903239D01*
X141885621Y-68903241D01*
X142125215Y-68981090D01*
X142374038Y-69020500D01*
X142374039Y-69020500D01*
X142625961Y-69020500D01*
X142625962Y-69020500D01*
X142874785Y-68981090D01*
X143114379Y-68903241D01*
X143338845Y-68788870D01*
X143542656Y-68640793D01*
X143720793Y-68462656D01*
X143868870Y-68258845D01*
X143983241Y-68034379D01*
X144061090Y-67794785D01*
X144100500Y-67545962D01*
X144100500Y-67294038D01*
X155899500Y-67294038D01*
X155899500Y-67545961D01*
X155938910Y-67794785D01*
X156016760Y-68034383D01*
X156131132Y-68258848D01*
X156279201Y-68462649D01*
X156279205Y-68462654D01*
X156457345Y-68640794D01*
X156457350Y-68640798D01*
X156635117Y-68769952D01*
X156661155Y-68788870D01*
X156804184Y-68861747D01*
X156885616Y-68903239D01*
X156885618Y-68903239D01*
X156885621Y-68903241D01*
X157125215Y-68981090D01*
X157374038Y-69020500D01*
X157374039Y-69020500D01*
X157625961Y-69020500D01*
X157625962Y-69020500D01*
X157874785Y-68981090D01*
X158114379Y-68903241D01*
X158338845Y-68788870D01*
X158542656Y-68640793D01*
X158720793Y-68462656D01*
X158868870Y-68258845D01*
X158983241Y-68034379D01*
X159061090Y-67794785D01*
X159100500Y-67545962D01*
X159100500Y-67294038D01*
X159061090Y-67045215D01*
X158983241Y-66805621D01*
X158983239Y-66805618D01*
X158983239Y-66805616D01*
X158941747Y-66724184D01*
X158868870Y-66581155D01*
X158849952Y-66555117D01*
X158720798Y-66377350D01*
X158720794Y-66377345D01*
X158542654Y-66199205D01*
X158542649Y-66199201D01*
X158338848Y-66051132D01*
X158338847Y-66051131D01*
X158338845Y-66051130D01*
X158268747Y-66015413D01*
X158114383Y-65936760D01*
X157874785Y-65858910D01*
X157625962Y-65819500D01*
X157374038Y-65819500D01*
X157249626Y-65839205D01*
X157125214Y-65858910D01*
X156885616Y-65936760D01*
X156661151Y-66051132D01*
X156457350Y-66199201D01*
X156457345Y-66199205D01*
X156279205Y-66377345D01*
X156279201Y-66377350D01*
X156131132Y-66581151D01*
X156016760Y-66805616D01*
X155938910Y-67045214D01*
X155899500Y-67294038D01*
X144100500Y-67294038D01*
X144061090Y-67045215D01*
X143983241Y-66805621D01*
X143983239Y-66805618D01*
X143983239Y-66805616D01*
X143941747Y-66724184D01*
X143868870Y-66581155D01*
X143849952Y-66555117D01*
X143720798Y-66377350D01*
X143720794Y-66377345D01*
X143542654Y-66199205D01*
X143542649Y-66199201D01*
X143338848Y-66051132D01*
X143338847Y-66051131D01*
X143338845Y-66051130D01*
X143268747Y-66015413D01*
X143114383Y-65936760D01*
X142874785Y-65858910D01*
X142625962Y-65819500D01*
X142374038Y-65819500D01*
X142249626Y-65839205D01*
X142125214Y-65858910D01*
X141885616Y-65936760D01*
X141661151Y-66051132D01*
X141457350Y-66199201D01*
X141457345Y-66199205D01*
X141279205Y-66377345D01*
X141279201Y-66377350D01*
X141131132Y-66581151D01*
X141016760Y-66805616D01*
X140938910Y-67045214D01*
X140899500Y-67294038D01*
X135500500Y-67294038D01*
X135500500Y-58994038D01*
X140899500Y-58994038D01*
X140899500Y-59245961D01*
X140938910Y-59494785D01*
X141016760Y-59734383D01*
X141131132Y-59958848D01*
X141279201Y-60162649D01*
X141279205Y-60162654D01*
X141457345Y-60340794D01*
X141457350Y-60340798D01*
X141635117Y-60469952D01*
X141661155Y-60488870D01*
X141804184Y-60561747D01*
X141885616Y-60603239D01*
X141885618Y-60603239D01*
X141885621Y-60603241D01*
X142125215Y-60681090D01*
X142374038Y-60720500D01*
X142374039Y-60720500D01*
X142625961Y-60720500D01*
X142625962Y-60720500D01*
X142874785Y-60681090D01*
X143114379Y-60603241D01*
X143338845Y-60488870D01*
X143542656Y-60340793D01*
X143720793Y-60162656D01*
X143868870Y-59958845D01*
X143983241Y-59734379D01*
X144061090Y-59494785D01*
X144100500Y-59245962D01*
X144100500Y-58994038D01*
X155899500Y-58994038D01*
X155899500Y-59245961D01*
X155938910Y-59494785D01*
X156016760Y-59734383D01*
X156131132Y-59958848D01*
X156279201Y-60162649D01*
X156279205Y-60162654D01*
X156457345Y-60340794D01*
X156457350Y-60340798D01*
X156635117Y-60469952D01*
X156661155Y-60488870D01*
X156804184Y-60561747D01*
X156885616Y-60603239D01*
X156885618Y-60603239D01*
X156885621Y-60603241D01*
X157125215Y-60681090D01*
X157374038Y-60720500D01*
X157374039Y-60720500D01*
X157625961Y-60720500D01*
X157625962Y-60720500D01*
X157874785Y-60681090D01*
X158114379Y-60603241D01*
X158338845Y-60488870D01*
X158542656Y-60340793D01*
X158720793Y-60162656D01*
X158868870Y-59958845D01*
X158983241Y-59734379D01*
X159061090Y-59494785D01*
X159100500Y-59245962D01*
X159100500Y-58994038D01*
X159061090Y-58745215D01*
X158983241Y-58505621D01*
X158983239Y-58505618D01*
X158983239Y-58505616D01*
X158941747Y-58424184D01*
X158868870Y-58281155D01*
X158849952Y-58255117D01*
X158720798Y-58077350D01*
X158720794Y-58077345D01*
X158542654Y-57899205D01*
X158542649Y-57899201D01*
X158338847Y-57751130D01*
X158337369Y-57750225D01*
X158336925Y-57749734D01*
X158334904Y-57748266D01*
X158335212Y-57747841D01*
X158290495Y-57698412D01*
X158279074Y-57629482D01*
X158306732Y-57565320D01*
X158364688Y-57526297D01*
X158402161Y-57520499D01*
X158547871Y-57520499D01*
X158547872Y-57520499D01*
X158607483Y-57514091D01*
X158742331Y-57463796D01*
X158857546Y-57377546D01*
X158943796Y-57262331D01*
X158994091Y-57127483D01*
X159000500Y-57067873D01*
X159000499Y-54972128D01*
X158994091Y-54912517D01*
X158943796Y-54777669D01*
X158943795Y-54777668D01*
X158943793Y-54777664D01*
X158857547Y-54662455D01*
X158857544Y-54662452D01*
X158742335Y-54576206D01*
X158742328Y-54576202D01*
X158607482Y-54525908D01*
X158607483Y-54525908D01*
X158547883Y-54519501D01*
X158547881Y-54519500D01*
X158547873Y-54519500D01*
X158547864Y-54519500D01*
X156452129Y-54519500D01*
X156452123Y-54519501D01*
X156392516Y-54525908D01*
X156257671Y-54576202D01*
X156257664Y-54576206D01*
X156142455Y-54662452D01*
X156142452Y-54662455D01*
X156056206Y-54777664D01*
X156056202Y-54777671D01*
X156005908Y-54912517D01*
X155999501Y-54972116D01*
X155999501Y-54972123D01*
X155999500Y-54972135D01*
X155999500Y-57067870D01*
X155999501Y-57067876D01*
X156005908Y-57127483D01*
X156056202Y-57262328D01*
X156056206Y-57262335D01*
X156142452Y-57377544D01*
X156142455Y-57377547D01*
X156257664Y-57463793D01*
X156257671Y-57463797D01*
X156392517Y-57514091D01*
X156392516Y-57514091D01*
X156399444Y-57514835D01*
X156452127Y-57520500D01*
X156597839Y-57520499D01*
X156664877Y-57540183D01*
X156710632Y-57592987D01*
X156720576Y-57662145D01*
X156691551Y-57725701D01*
X156665037Y-57748185D01*
X156665096Y-57748266D01*
X156664022Y-57749046D01*
X156662638Y-57750220D01*
X156661157Y-57751127D01*
X156457350Y-57899201D01*
X156457345Y-57899205D01*
X156279205Y-58077345D01*
X156279201Y-58077350D01*
X156131132Y-58281151D01*
X156016760Y-58505616D01*
X155938910Y-58745214D01*
X155899500Y-58994038D01*
X144100500Y-58994038D01*
X144061090Y-58745215D01*
X143983241Y-58505621D01*
X143983239Y-58505618D01*
X143983239Y-58505616D01*
X143941747Y-58424184D01*
X143868870Y-58281155D01*
X143849952Y-58255117D01*
X143720798Y-58077350D01*
X143720794Y-58077345D01*
X143542654Y-57899205D01*
X143542649Y-57899201D01*
X143338847Y-57751130D01*
X143337369Y-57750225D01*
X143336925Y-57749734D01*
X143334904Y-57748266D01*
X143335212Y-57747841D01*
X143290495Y-57698412D01*
X143279074Y-57629482D01*
X143306732Y-57565320D01*
X143364688Y-57526297D01*
X143402161Y-57520499D01*
X143547871Y-57520499D01*
X143547872Y-57520499D01*
X143607483Y-57514091D01*
X143742331Y-57463796D01*
X143857546Y-57377546D01*
X143943796Y-57262331D01*
X143994091Y-57127483D01*
X144000500Y-57067873D01*
X144000499Y-54972128D01*
X143994091Y-54912517D01*
X143943796Y-54777669D01*
X143943795Y-54777668D01*
X143943793Y-54777664D01*
X143857547Y-54662455D01*
X143857544Y-54662452D01*
X143742335Y-54576206D01*
X143742328Y-54576202D01*
X143607482Y-54525908D01*
X143607483Y-54525908D01*
X143547883Y-54519501D01*
X143547881Y-54519500D01*
X143547873Y-54519500D01*
X143547864Y-54519500D01*
X141452129Y-54519500D01*
X141452123Y-54519501D01*
X141392516Y-54525908D01*
X141257671Y-54576202D01*
X141257664Y-54576206D01*
X141142455Y-54662452D01*
X141142452Y-54662455D01*
X141056206Y-54777664D01*
X141056202Y-54777671D01*
X141005908Y-54912517D01*
X140999501Y-54972116D01*
X140999501Y-54972123D01*
X140999500Y-54972135D01*
X140999500Y-57067870D01*
X140999501Y-57067876D01*
X141005908Y-57127483D01*
X141056202Y-57262328D01*
X141056206Y-57262335D01*
X141142452Y-57377544D01*
X141142455Y-57377547D01*
X141257664Y-57463793D01*
X141257671Y-57463797D01*
X141392517Y-57514091D01*
X141392516Y-57514091D01*
X141399444Y-57514835D01*
X141452127Y-57520500D01*
X141597839Y-57520499D01*
X141664877Y-57540183D01*
X141710632Y-57592987D01*
X141720576Y-57662145D01*
X141691551Y-57725701D01*
X141665037Y-57748185D01*
X141665096Y-57748266D01*
X141664022Y-57749046D01*
X141662638Y-57750220D01*
X141661157Y-57751127D01*
X141457350Y-57899201D01*
X141457345Y-57899205D01*
X141279205Y-58077345D01*
X141279201Y-58077350D01*
X141131132Y-58281151D01*
X141016760Y-58505616D01*
X140938910Y-58745214D01*
X140899500Y-58994038D01*
X135500500Y-58994038D01*
X135500500Y-53003733D01*
X135500726Y-52996246D01*
X135518271Y-52706205D01*
X135520076Y-52691340D01*
X135571780Y-52409201D01*
X135575364Y-52394663D01*
X135652096Y-52148422D01*
X135660696Y-52120822D01*
X135665998Y-52106841D01*
X135783731Y-51845249D01*
X135790676Y-51832016D01*
X135939080Y-51586526D01*
X135947567Y-51574230D01*
X136124480Y-51348417D01*
X136134395Y-51337226D01*
X136337226Y-51134395D01*
X136348417Y-51124480D01*
X136574230Y-50947567D01*
X136586526Y-50939080D01*
X136832016Y-50790676D01*
X136845249Y-50783731D01*
X137106841Y-50665998D01*
X137120822Y-50660696D01*
X137394668Y-50575362D01*
X137409197Y-50571780D01*
X137691344Y-50520075D01*
X137706201Y-50518271D01*
X137996264Y-50500726D01*
X138003751Y-50500500D01*
X138065892Y-50500500D01*
X161934108Y-50500500D01*
X161996249Y-50500500D01*
X162003736Y-50500726D01*
G37*
%TD.AperFunction*%
%TD*%
M02*
