%TF.GenerationSoftware,KiCad,Pcbnew,9.0.1*%
%TF.CreationDate,2025-05-31T19:51:22+10:00*%
%TF.ProjectId,VCA,5643412e-6b69-4636-9164-5f7063625858,rev?*%
%TF.SameCoordinates,Original*%
%TF.FileFunction,Copper,L1,Top*%
%TF.FilePolarity,Positive*%
%FSLAX46Y46*%
G04 Gerber Fmt 4.6, Leading zero omitted, Abs format (unit mm)*
G04 Created by KiCad (PCBNEW 9.0.1) date 2025-05-31 19:51:22*
%MOMM*%
%LPD*%
G01*
G04 APERTURE LIST*
G04 Aperture macros list*
%AMRoundRect*
0 Rectangle with rounded corners*
0 $1 Rounding radius*
0 $2 $3 $4 $5 $6 $7 $8 $9 X,Y pos of 4 corners*
0 Add a 4 corners polygon primitive as box body*
4,1,4,$2,$3,$4,$5,$6,$7,$8,$9,$2,$3,0*
0 Add four circle primitives for the rounded corners*
1,1,$1+$1,$2,$3*
1,1,$1+$1,$4,$5*
1,1,$1+$1,$6,$7*
1,1,$1+$1,$8,$9*
0 Add four rect primitives between the rounded corners*
20,1,$1+$1,$2,$3,$4,$5,0*
20,1,$1+$1,$4,$5,$6,$7,0*
20,1,$1+$1,$6,$7,$8,$9,0*
20,1,$1+$1,$8,$9,$2,$3,0*%
G04 Aperture macros list end*
%TA.AperFunction,ComponentPad*%
%ADD10O,1.350000X1.900000*%
%TD*%
%TA.AperFunction,ComponentPad*%
%ADD11R,1.350000X1.900000*%
%TD*%
%TA.AperFunction,ComponentPad*%
%ADD12RoundRect,0.250000X-0.550000X-0.550000X0.550000X-0.550000X0.550000X0.550000X-0.550000X0.550000X0*%
%TD*%
%TA.AperFunction,ComponentPad*%
%ADD13C,1.600000*%
%TD*%
%TA.AperFunction,ComponentPad*%
%ADD14R,2.000000X2.000000*%
%TD*%
%TA.AperFunction,ComponentPad*%
%ADD15C,2.200000*%
%TD*%
%TA.AperFunction,ComponentPad*%
%ADD16RoundRect,0.291666X-0.408334X-0.708334X0.408334X-0.708334X0.408334X0.708334X-0.408334X0.708334X0*%
%TD*%
%TA.AperFunction,ComponentPad*%
%ADD17O,1.400000X2.000000*%
%TD*%
%TA.AperFunction,ComponentPad*%
%ADD18C,1.440000*%
%TD*%
%TA.AperFunction,ComponentPad*%
%ADD19O,1.600000X1.600000*%
%TD*%
%TA.AperFunction,Conductor*%
%ADD20C,0.200000*%
%TD*%
G04 APERTURE END LIST*
D10*
%TO.P,Q1,1,D*%
%TO.N,Net-(Q1-D)*%
X128230000Y-110000000D03*
%TO.P,Q1,2,G*%
%TO.N,Net-(Q1-G)*%
X126500000Y-110000000D03*
D11*
%TO.P,Q1,3,S*%
%TO.N,GND*%
X124730000Y-110000000D03*
%TD*%
D12*
%TO.P,U1,1,NC*%
%TO.N,unconnected-(U1-NC-Pad1)*%
X126195000Y-94190001D03*
D13*
%TO.P,U1,2,-*%
%TO.N,Net-(Q1-D)*%
X126195000Y-96730001D03*
%TO.P,U1,3,+*%
%TO.N,Net-(Q2-D)*%
X126195000Y-99270001D03*
%TO.P,U1,4,V-*%
%TO.N,VSS*%
X126195000Y-101810001D03*
%TO.P,U1,5,NC*%
%TO.N,unconnected-(U1-NC-Pad5)*%
X133815000Y-101810001D03*
%TO.P,U1,6*%
%TO.N,Net-(J3-PadT)*%
X133815000Y-99270001D03*
%TO.P,U1,7,V+*%
%TO.N,VDD*%
X133815000Y-96730001D03*
%TO.P,U1,8,NC*%
%TO.N,unconnected-(U1-NC-Pad8)*%
X133815000Y-94190001D03*
%TD*%
D14*
%TO.P,J1,G*%
%TO.N,GND*%
X122500000Y-71480000D03*
D15*
%TO.P,J1,S*%
X122500000Y-68380000D03*
%TO.P,J1,T*%
%TO.N,Net-(J1-PadT)*%
X122500000Y-60080000D03*
%TD*%
D16*
%TO.P,J4,1,Pin_1*%
%TO.N,GND*%
X135500000Y-143550000D03*
D17*
%TO.P,J4,2,Pin_2*%
%TO.N,VDD*%
X137500000Y-143550000D03*
%TO.P,J4,3,Pin_3*%
%TO.N,VSS*%
X139500000Y-143550000D03*
%TD*%
D13*
%TO.P,C1,1*%
%TO.N,VDD*%
X132500000Y-89000001D03*
%TO.P,C1,2*%
%TO.N,VSS*%
X127500000Y-89000001D03*
%TD*%
D14*
%TO.P,J2,G*%
%TO.N,GND*%
X122500000Y-129770000D03*
D15*
%TO.P,J2,S*%
X122500000Y-132870000D03*
%TO.P,J2,T*%
%TO.N,Net-(J2-PadT)*%
X122500000Y-141170000D03*
%TD*%
D18*
%TO.P,RV1,1,1*%
%TO.N,Net-(J1-PadT)*%
X125040000Y-77430000D03*
%TO.P,RV1,2,2*%
%TO.N,Net-(R2-Pad1)*%
X122500000Y-74890000D03*
%TO.P,RV1,3,3*%
%TO.N,unconnected-(RV1-Pad3)*%
X119960000Y-77430000D03*
%TD*%
D10*
%TO.P,Q2,1,D*%
%TO.N,Net-(Q2-D)*%
X135230000Y-110000001D03*
%TO.P,Q2,2,G*%
%TO.N,GND*%
X133500000Y-110000001D03*
D11*
%TO.P,Q2,3,S*%
X131730000Y-110000001D03*
%TD*%
D13*
%TO.P,R5,1*%
%TO.N,Net-(J2-PadT)*%
X130000000Y-132940000D03*
D19*
%TO.P,R5,2*%
%TO.N,Net-(R5-Pad2)*%
X130000000Y-140560000D03*
%TD*%
D13*
%TO.P,R3,1*%
%TO.N,Net-(Q1-D)*%
X137500000Y-101870000D03*
D19*
%TO.P,R3,2*%
%TO.N,Net-(J3-PadT)*%
X137500000Y-94250000D03*
%TD*%
D18*
%TO.P,RV2,1,1*%
%TO.N,Net-(R5-Pad2)*%
X125040000Y-123180000D03*
%TO.P,RV2,2,2*%
%TO.N,Net-(Q1-G)*%
X122500000Y-120640000D03*
%TO.P,RV2,3,3*%
%TO.N,GND*%
X119960000Y-123180000D03*
%TD*%
D13*
%TO.P,R2,1*%
%TO.N,Net-(R2-Pad1)*%
X122500000Y-94190000D03*
D19*
%TO.P,R2,2*%
%TO.N,Net-(Q2-D)*%
X122500000Y-101810000D03*
%TD*%
D14*
%TO.P,J3,G*%
%TO.N,GND*%
X137500000Y-71480000D03*
D15*
%TO.P,J3,S*%
X137500000Y-68380000D03*
%TO.P,J3,T*%
%TO.N,Net-(J3-PadT)*%
X137500000Y-60080000D03*
%TD*%
D13*
%TO.P,R1,1*%
%TO.N,Net-(J1-PadT)*%
X118750000Y-94190000D03*
D19*
%TO.P,R1,2*%
%TO.N,Net-(Q1-D)*%
X118750000Y-101810000D03*
%TD*%
D13*
%TO.P,R4,1*%
%TO.N,Net-(Q2-D)*%
X141250000Y-101870000D03*
D19*
%TO.P,R4,2*%
%TO.N,GND*%
X141250000Y-94250000D03*
%TD*%
D20*
%TO.N,Net-(J1-PadT)*%
X125040000Y-62620000D02*
X125040000Y-77430000D01*
X122500000Y-60080000D02*
X125040000Y-62620000D01*
%TO.N,Net-(J3-PadT)*%
X135000000Y-62580000D02*
X135000000Y-87750000D01*
X137500000Y-90250000D02*
X137500000Y-94250000D01*
X137500000Y-60080000D02*
X135000000Y-62580000D01*
X135000000Y-87750000D02*
X137500000Y-90250000D01*
%TO.N,Net-(Q1-G)*%
X126500000Y-116640000D02*
X122500000Y-120640000D01*
X126500000Y-116640000D02*
X126500000Y-110000000D01*
%TO.N,Net-(Q1-D)*%
X128230000Y-105250000D02*
X128230000Y-108270000D01*
X126195000Y-96730001D02*
X128230000Y-98765001D01*
X128230000Y-98765001D02*
X128230000Y-105250000D01*
X128230000Y-110000000D02*
X128230000Y-108270000D01*
X134370000Y-105250000D02*
X128230000Y-105250000D01*
X137750000Y-101870000D02*
X134370000Y-105250000D01*
%TO.N,Net-(Q2-D)*%
X135230000Y-110000001D02*
X136999999Y-110000001D01*
X136999999Y-110000001D02*
X141750000Y-105250000D01*
X141750000Y-105250000D02*
X141750000Y-101870000D01*
%TO.N,Net-(R2-Pad1)*%
X122500000Y-74890000D02*
X122500000Y-94190000D01*
%TO.N,Net-(R5-Pad2)*%
X125040000Y-135600000D02*
X130000000Y-140560000D01*
X125040000Y-123180000D02*
X125040000Y-135600000D01*
%TD*%
%TA.AperFunction,Conductor*%
%TO.N,GND*%
G36*
X133199925Y-109769746D02*
G01*
X133150556Y-109855256D01*
X133125000Y-109950631D01*
X133125000Y-110049371D01*
X133150556Y-110144746D01*
X133199925Y-110230256D01*
X133219670Y-110250001D01*
X132010330Y-110250001D01*
X132030075Y-110230256D01*
X132079444Y-110144746D01*
X132105000Y-110049371D01*
X132105000Y-109950631D01*
X132079444Y-109855256D01*
X132030075Y-109769746D01*
X132010330Y-109750001D01*
X133219670Y-109750001D01*
X133199925Y-109769746D01*
G37*
%TD.AperFunction*%
%TA.AperFunction,Conductor*%
G36*
X142003736Y-50500726D02*
G01*
X142293796Y-50518271D01*
X142308657Y-50520075D01*
X142590798Y-50571780D01*
X142605335Y-50575363D01*
X142879172Y-50660695D01*
X142893163Y-50666000D01*
X143154743Y-50783727D01*
X143167989Y-50790680D01*
X143413465Y-50939075D01*
X143425776Y-50947573D01*
X143651573Y-51124473D01*
X143662781Y-51134403D01*
X143865596Y-51337218D01*
X143875525Y-51348425D01*
X143995481Y-51501538D01*
X144052422Y-51574217D01*
X144060928Y-51586540D01*
X144209316Y-51832004D01*
X144216275Y-51845263D01*
X144333997Y-52106831D01*
X144339306Y-52120832D01*
X144424635Y-52394663D01*
X144428219Y-52409201D01*
X144479923Y-52691340D01*
X144481728Y-52706205D01*
X144499273Y-52996261D01*
X144499499Y-53003748D01*
X144499499Y-146996249D01*
X144499273Y-147003736D01*
X144481727Y-147293794D01*
X144479922Y-147308659D01*
X144428218Y-147590797D01*
X144424634Y-147605335D01*
X144339303Y-147879174D01*
X144333993Y-147893176D01*
X144216276Y-148154730D01*
X144209318Y-148167987D01*
X144060927Y-148413458D01*
X144052421Y-148425782D01*
X143875525Y-148651573D01*
X143865595Y-148662781D01*
X143662780Y-148865595D01*
X143651572Y-148875525D01*
X143425781Y-149052422D01*
X143413458Y-149060928D01*
X143167995Y-149209315D01*
X143154736Y-149216274D01*
X142893167Y-149333996D01*
X142879166Y-149339305D01*
X142605335Y-149424634D01*
X142590797Y-149428218D01*
X142308659Y-149479922D01*
X142293794Y-149481727D01*
X142100701Y-149493407D01*
X142003711Y-149499274D01*
X141996239Y-149499500D01*
X118073502Y-149499500D01*
X118065895Y-149499499D01*
X118065892Y-149499499D01*
X118003749Y-149499499D01*
X118003748Y-149499498D01*
X117996264Y-149499273D01*
X117706205Y-149481727D01*
X117691340Y-149479922D01*
X117409202Y-149428218D01*
X117394664Y-149424634D01*
X117120825Y-149339303D01*
X117106827Y-149333994D01*
X116954096Y-149265255D01*
X116845269Y-149216276D01*
X116832012Y-149209318D01*
X116586541Y-149060927D01*
X116574219Y-149052422D01*
X116348426Y-148875525D01*
X116337218Y-148865595D01*
X116134404Y-148662780D01*
X116124474Y-148651572D01*
X115947573Y-148425775D01*
X115939075Y-148413464D01*
X115790683Y-148167994D01*
X115783725Y-148154736D01*
X115666003Y-147893167D01*
X115660694Y-147879166D01*
X115652097Y-147851578D01*
X115575364Y-147605334D01*
X115571781Y-147590797D01*
X115520077Y-147308659D01*
X115518272Y-147293794D01*
X115504487Y-147065894D01*
X115500725Y-147003712D01*
X115500500Y-146996238D01*
X115500500Y-142797202D01*
X134300000Y-142797202D01*
X134300000Y-143300000D01*
X135219670Y-143300000D01*
X135199925Y-143319745D01*
X135150556Y-143405255D01*
X135125000Y-143500630D01*
X135125000Y-143599370D01*
X135150556Y-143694745D01*
X135199925Y-143780255D01*
X135219670Y-143800000D01*
X134300001Y-143800000D01*
X134300001Y-144302798D01*
X134314963Y-144435602D01*
X134314965Y-144435612D01*
X134373887Y-144603999D01*
X134468797Y-144755050D01*
X134594949Y-144881202D01*
X134746001Y-144976112D01*
X134746000Y-144976112D01*
X134914387Y-145035034D01*
X134914397Y-145035036D01*
X135047204Y-145049999D01*
X135249999Y-145049999D01*
X135250000Y-145049998D01*
X135250000Y-143830330D01*
X135269745Y-143850075D01*
X135355255Y-143899444D01*
X135450630Y-143925000D01*
X135549370Y-143925000D01*
X135644745Y-143899444D01*
X135730255Y-143850075D01*
X135750000Y-143830330D01*
X135750000Y-145049999D01*
X135952791Y-145049999D01*
X135952798Y-145049998D01*
X136085602Y-145035036D01*
X136085612Y-145035034D01*
X136253999Y-144976112D01*
X136405050Y-144881202D01*
X136405053Y-144881199D01*
X136531564Y-144754689D01*
X136592887Y-144721204D01*
X136662579Y-144726188D01*
X136706926Y-144754689D01*
X136717927Y-144765690D01*
X136870801Y-144876760D01*
X136950347Y-144917290D01*
X137039163Y-144962545D01*
X137039165Y-144962545D01*
X137039168Y-144962547D01*
X137080917Y-144976112D01*
X137218881Y-145020940D01*
X137405514Y-145050500D01*
X137405519Y-145050500D01*
X137594486Y-145050500D01*
X137781118Y-145020940D01*
X137960832Y-144962547D01*
X138129199Y-144876760D01*
X138282073Y-144765690D01*
X138412319Y-144635444D01*
X138473642Y-144601959D01*
X138543334Y-144606943D01*
X138587681Y-144635444D01*
X138717927Y-144765690D01*
X138870801Y-144876760D01*
X138950347Y-144917290D01*
X139039163Y-144962545D01*
X139039165Y-144962545D01*
X139039168Y-144962547D01*
X139080917Y-144976112D01*
X139218881Y-145020940D01*
X139405514Y-145050500D01*
X139405519Y-145050500D01*
X139594486Y-145050500D01*
X139781118Y-145020940D01*
X139960832Y-144962547D01*
X140129199Y-144876760D01*
X140282073Y-144765690D01*
X140415690Y-144632073D01*
X140526760Y-144479199D01*
X140612547Y-144310832D01*
X140670940Y-144131118D01*
X140700500Y-143944486D01*
X140700500Y-143155513D01*
X140670940Y-142968881D01*
X140612545Y-142789163D01*
X140526759Y-142620800D01*
X140415690Y-142467927D01*
X140282073Y-142334310D01*
X140129199Y-142223240D01*
X140108413Y-142212649D01*
X139960836Y-142137454D01*
X139781118Y-142079059D01*
X139594486Y-142049500D01*
X139594481Y-142049500D01*
X139405519Y-142049500D01*
X139405514Y-142049500D01*
X139218881Y-142079059D01*
X139039163Y-142137454D01*
X138870800Y-142223240D01*
X138783579Y-142286610D01*
X138717927Y-142334310D01*
X138717925Y-142334312D01*
X138717924Y-142334312D01*
X138587681Y-142464556D01*
X138526358Y-142498041D01*
X138456666Y-142493057D01*
X138412319Y-142464556D01*
X138282075Y-142334312D01*
X138282073Y-142334310D01*
X138129199Y-142223240D01*
X138108413Y-142212649D01*
X137960836Y-142137454D01*
X137781118Y-142079059D01*
X137594486Y-142049500D01*
X137594481Y-142049500D01*
X137405519Y-142049500D01*
X137405514Y-142049500D01*
X137218881Y-142079059D01*
X137039163Y-142137454D01*
X136870800Y-142223240D01*
X136783579Y-142286610D01*
X136717927Y-142334310D01*
X136717925Y-142334312D01*
X136717922Y-142334314D01*
X136706923Y-142345313D01*
X136645599Y-142378796D01*
X136575907Y-142373809D01*
X136531564Y-142345311D01*
X136405049Y-142218797D01*
X136405050Y-142218797D01*
X136253998Y-142123887D01*
X136253999Y-142123887D01*
X136085612Y-142064965D01*
X136085602Y-142064963D01*
X135952797Y-142050000D01*
X135750000Y-142050000D01*
X135750000Y-143269670D01*
X135730255Y-143249925D01*
X135644745Y-143200556D01*
X135549370Y-143175000D01*
X135450630Y-143175000D01*
X135355255Y-143200556D01*
X135269745Y-143249925D01*
X135250000Y-143269670D01*
X135250000Y-142050000D01*
X135047207Y-142050000D01*
X135047201Y-142050001D01*
X134914397Y-142064963D01*
X134914387Y-142064965D01*
X134746000Y-142123887D01*
X134594949Y-142218797D01*
X134468797Y-142344949D01*
X134373887Y-142496000D01*
X134314965Y-142664387D01*
X134314963Y-142664397D01*
X134300000Y-142797202D01*
X115500500Y-142797202D01*
X115500500Y-141044038D01*
X120899500Y-141044038D01*
X120899500Y-141295961D01*
X120938910Y-141544785D01*
X121016760Y-141784383D01*
X121131132Y-142008848D01*
X121279201Y-142212649D01*
X121279205Y-142212654D01*
X121457345Y-142390794D01*
X121457350Y-142390798D01*
X121635117Y-142519952D01*
X121661155Y-142538870D01*
X121804184Y-142611747D01*
X121885616Y-142653239D01*
X121885618Y-142653239D01*
X121885621Y-142653241D01*
X122125215Y-142731090D01*
X122374038Y-142770500D01*
X122374039Y-142770500D01*
X122625961Y-142770500D01*
X122625962Y-142770500D01*
X122874785Y-142731090D01*
X123114379Y-142653241D01*
X123338845Y-142538870D01*
X123542656Y-142390793D01*
X123720793Y-142212656D01*
X123868870Y-142008845D01*
X123983241Y-141784379D01*
X124061090Y-141544785D01*
X124100500Y-141295962D01*
X124100500Y-141044038D01*
X124061090Y-140795215D01*
X123983241Y-140555621D01*
X123983239Y-140555618D01*
X123983239Y-140555616D01*
X123933321Y-140457648D01*
X123868870Y-140331155D01*
X123813878Y-140255465D01*
X123720798Y-140127350D01*
X123720794Y-140127345D01*
X123542654Y-139949205D01*
X123542649Y-139949201D01*
X123338848Y-139801132D01*
X123338847Y-139801131D01*
X123338845Y-139801130D01*
X123268747Y-139765413D01*
X123114383Y-139686760D01*
X122874785Y-139608910D01*
X122625962Y-139569500D01*
X122374038Y-139569500D01*
X122249626Y-139589205D01*
X122125214Y-139608910D01*
X121885616Y-139686760D01*
X121661151Y-139801132D01*
X121457350Y-139949201D01*
X121457345Y-139949205D01*
X121279205Y-140127345D01*
X121279201Y-140127350D01*
X121131132Y-140331151D01*
X121016760Y-140555616D01*
X120938910Y-140795214D01*
X120899500Y-141044038D01*
X115500500Y-141044038D01*
X115500500Y-136213225D01*
X120995307Y-136213225D01*
X121009507Y-136459474D01*
X121009507Y-136459479D01*
X121063731Y-136700092D01*
X121156533Y-136928636D01*
X121285412Y-137138947D01*
X121360393Y-137225507D01*
X121446908Y-137325382D01*
X121636687Y-137482939D01*
X121636690Y-137482941D01*
X121636696Y-137482945D01*
X121849650Y-137607385D01*
X122080072Y-137695375D01*
X122080075Y-137695375D01*
X122080079Y-137695377D01*
X122321785Y-137744553D01*
X122568278Y-137753592D01*
X122812936Y-137722250D01*
X123049191Y-137651370D01*
X123270697Y-137542856D01*
X123471505Y-137399621D01*
X123646223Y-137225512D01*
X123790158Y-137025205D01*
X123899445Y-136804079D01*
X123971149Y-136568074D01*
X124003344Y-136323526D01*
X124005141Y-136250000D01*
X123984930Y-136004171D01*
X123924841Y-135764945D01*
X123826486Y-135538744D01*
X123692508Y-135331645D01*
X123526504Y-135149210D01*
X123332932Y-134996336D01*
X123116991Y-134877130D01*
X123116982Y-134877126D01*
X122884491Y-134794796D01*
X122884471Y-134794791D01*
X122641644Y-134751538D01*
X122641652Y-134751538D01*
X122400496Y-134748592D01*
X122395007Y-134748525D01*
X122395006Y-134748525D01*
X122395005Y-134748525D01*
X122395004Y-134748525D01*
X122151190Y-134785834D01*
X122151180Y-134785837D01*
X121916732Y-134862466D01*
X121697951Y-134976356D01*
X121697948Y-134976358D01*
X121500698Y-135124456D01*
X121330289Y-135302779D01*
X121330279Y-135302792D01*
X121191287Y-135506547D01*
X121191285Y-135506552D01*
X121087439Y-135730268D01*
X121087436Y-135730276D01*
X121021520Y-135967960D01*
X121021519Y-135967967D01*
X120995307Y-136213225D01*
X115500500Y-136213225D01*
X115500500Y-132744071D01*
X120900000Y-132744071D01*
X120900000Y-132995928D01*
X120939397Y-133244669D01*
X121017219Y-133484184D01*
X121131557Y-133708583D01*
X121205748Y-133810697D01*
X121205748Y-133810698D01*
X121935387Y-133081059D01*
X121940889Y-133101591D01*
X122019881Y-133238408D01*
X122131592Y-133350119D01*
X122268409Y-133429111D01*
X122288940Y-133434612D01*
X121559300Y-134164250D01*
X121661416Y-134238442D01*
X121885815Y-134352780D01*
X122125330Y-134430602D01*
X122374072Y-134470000D01*
X122625928Y-134470000D01*
X122874669Y-134430602D01*
X123114184Y-134352780D01*
X123338575Y-134238446D01*
X123338581Y-134238442D01*
X123440697Y-134164250D01*
X123440698Y-134164250D01*
X122711059Y-133434612D01*
X122731591Y-133429111D01*
X122868408Y-133350119D01*
X122980119Y-133238408D01*
X123059111Y-133101591D01*
X123064612Y-133081060D01*
X123794250Y-133810698D01*
X123794250Y-133810697D01*
X123868442Y-133708581D01*
X123868446Y-133708575D01*
X123982780Y-133484184D01*
X124060602Y-133244669D01*
X124100000Y-132995928D01*
X124100000Y-132744071D01*
X124060602Y-132495330D01*
X123982780Y-132255815D01*
X123868442Y-132031416D01*
X123794250Y-131929301D01*
X123794250Y-131929300D01*
X123064612Y-132658939D01*
X123059111Y-132638409D01*
X122980119Y-132501592D01*
X122868408Y-132389881D01*
X122731591Y-132310889D01*
X122711058Y-132305387D01*
X123440698Y-131575748D01*
X123338584Y-131501558D01*
X123335601Y-131499730D01*
X123334704Y-131498739D01*
X123334641Y-131498693D01*
X123334650Y-131498679D01*
X123288724Y-131447920D01*
X123277299Y-131378991D01*
X123304953Y-131314827D01*
X123362907Y-131275800D01*
X123400387Y-131270000D01*
X123547828Y-131270000D01*
X123547844Y-131269999D01*
X123607372Y-131263598D01*
X123607379Y-131263596D01*
X123742086Y-131213354D01*
X123742093Y-131213350D01*
X123857187Y-131127190D01*
X123857190Y-131127187D01*
X123943350Y-131012093D01*
X123943354Y-131012086D01*
X123993596Y-130877379D01*
X123993598Y-130877372D01*
X123999999Y-130817844D01*
X124000000Y-130817827D01*
X124000000Y-130020000D01*
X123048482Y-130020000D01*
X123059111Y-130001591D01*
X123100000Y-129848991D01*
X123100000Y-129691009D01*
X123059111Y-129538409D01*
X123048482Y-129520000D01*
X124000000Y-129520000D01*
X124000000Y-128722172D01*
X123999999Y-128722155D01*
X123993598Y-128662627D01*
X123993596Y-128662620D01*
X123943354Y-128527913D01*
X123943350Y-128527906D01*
X123857190Y-128412812D01*
X123857187Y-128412809D01*
X123742093Y-128326649D01*
X123742086Y-128326645D01*
X123607379Y-128276403D01*
X123607372Y-128276401D01*
X123547844Y-128270000D01*
X122750000Y-128270000D01*
X122750000Y-129221517D01*
X122731591Y-129210889D01*
X122578991Y-129170000D01*
X122421009Y-129170000D01*
X122268409Y-129210889D01*
X122250000Y-129221517D01*
X122250000Y-128270000D01*
X121452155Y-128270000D01*
X121392627Y-128276401D01*
X121392620Y-128276403D01*
X121257913Y-128326645D01*
X121257906Y-128326649D01*
X121142812Y-128412809D01*
X121142809Y-128412812D01*
X121056649Y-128527906D01*
X121056645Y-128527913D01*
X121006403Y-128662620D01*
X121006401Y-128662627D01*
X121000000Y-128722155D01*
X121000000Y-129520000D01*
X121951518Y-129520000D01*
X121940889Y-129538409D01*
X121900000Y-129691009D01*
X121900000Y-129848991D01*
X121940889Y-130001591D01*
X121951518Y-130020000D01*
X121000000Y-130020000D01*
X121000000Y-130817844D01*
X121006401Y-130877372D01*
X121006403Y-130877379D01*
X121056645Y-131012086D01*
X121056649Y-131012093D01*
X121142809Y-131127187D01*
X121142812Y-131127190D01*
X121257906Y-131213350D01*
X121257913Y-131213354D01*
X121392620Y-131263596D01*
X121392627Y-131263598D01*
X121452155Y-131269999D01*
X121452172Y-131270000D01*
X121599613Y-131270000D01*
X121666652Y-131289685D01*
X121712407Y-131342489D01*
X121722351Y-131411647D01*
X121693326Y-131475203D01*
X121664399Y-131499730D01*
X121661408Y-131501562D01*
X121559301Y-131575747D01*
X121559300Y-131575748D01*
X122288940Y-132305387D01*
X122268409Y-132310889D01*
X122131592Y-132389881D01*
X122019881Y-132501592D01*
X121940889Y-132638409D01*
X121935387Y-132658940D01*
X121205748Y-131929300D01*
X121205747Y-131929301D01*
X121131559Y-132031413D01*
X121017219Y-132255815D01*
X120939397Y-132495330D01*
X120900000Y-132744071D01*
X115500500Y-132744071D01*
X115500500Y-123083984D01*
X118740000Y-123083984D01*
X118740000Y-123276015D01*
X118770040Y-123465684D01*
X118829383Y-123648321D01*
X118916561Y-123819415D01*
X118937798Y-123848646D01*
X119560000Y-123226445D01*
X119560000Y-123232661D01*
X119587259Y-123334394D01*
X119639920Y-123425606D01*
X119714394Y-123500080D01*
X119805606Y-123552741D01*
X119907339Y-123580000D01*
X119913554Y-123580000D01*
X119291351Y-124202200D01*
X119291352Y-124202201D01*
X119320577Y-124223434D01*
X119491678Y-124310616D01*
X119674315Y-124369959D01*
X119863985Y-124400000D01*
X120056015Y-124400000D01*
X120245684Y-124369959D01*
X120428321Y-124310616D01*
X120599419Y-124223436D01*
X120628646Y-124202201D01*
X120628646Y-124202200D01*
X120006447Y-123580000D01*
X120012661Y-123580000D01*
X120114394Y-123552741D01*
X120205606Y-123500080D01*
X120280080Y-123425606D01*
X120332741Y-123334394D01*
X120360000Y-123232661D01*
X120360000Y-123226446D01*
X120982200Y-123848646D01*
X120982201Y-123848646D01*
X121003436Y-123819419D01*
X121090616Y-123648321D01*
X121149959Y-123465684D01*
X121180000Y-123276015D01*
X121180000Y-123083984D01*
X121179994Y-123083945D01*
X123819500Y-123083945D01*
X123819500Y-123276054D01*
X123849553Y-123465802D01*
X123908916Y-123648506D01*
X123908918Y-123648509D01*
X123996135Y-123819681D01*
X124109055Y-123975102D01*
X124244898Y-124110945D01*
X124370500Y-124202200D01*
X124388386Y-124215195D01*
X124431051Y-124270525D01*
X124439500Y-124315513D01*
X124439500Y-135513330D01*
X124439499Y-135513348D01*
X124439499Y-135679054D01*
X124439498Y-135679054D01*
X124480423Y-135831785D01*
X124509358Y-135881900D01*
X124509359Y-135881904D01*
X124509360Y-135881904D01*
X124559046Y-135967965D01*
X124559479Y-135968714D01*
X124559481Y-135968717D01*
X124678349Y-136087585D01*
X124678355Y-136087590D01*
X128705922Y-140115157D01*
X128739407Y-140176480D01*
X128736173Y-140241155D01*
X128731522Y-140255468D01*
X128699500Y-140457648D01*
X128699500Y-140662351D01*
X128731522Y-140864534D01*
X128794781Y-141059223D01*
X128887715Y-141241613D01*
X129008028Y-141407213D01*
X129152786Y-141551971D01*
X129307749Y-141664556D01*
X129318390Y-141672287D01*
X129434607Y-141731503D01*
X129500776Y-141765218D01*
X129500778Y-141765218D01*
X129500781Y-141765220D01*
X129559759Y-141784383D01*
X129695465Y-141828477D01*
X129796557Y-141844488D01*
X129897648Y-141860500D01*
X129897649Y-141860500D01*
X130102351Y-141860500D01*
X130102352Y-141860500D01*
X130304534Y-141828477D01*
X130499219Y-141765220D01*
X130681610Y-141672287D01*
X130774590Y-141604732D01*
X130847213Y-141551971D01*
X130847215Y-141551968D01*
X130847219Y-141551966D01*
X130991966Y-141407219D01*
X130991968Y-141407215D01*
X130991971Y-141407213D01*
X131072799Y-141295961D01*
X131112287Y-141241610D01*
X131205220Y-141059219D01*
X131268477Y-140864534D01*
X131300500Y-140662352D01*
X131300500Y-140457648D01*
X131268477Y-140255466D01*
X131205220Y-140060781D01*
X131205218Y-140060778D01*
X131205218Y-140060776D01*
X131148367Y-139949201D01*
X131112287Y-139878390D01*
X131104556Y-139867749D01*
X130991971Y-139712786D01*
X130847213Y-139568028D01*
X130681613Y-139447715D01*
X130681612Y-139447714D01*
X130681610Y-139447713D01*
X130624653Y-139418691D01*
X130499223Y-139354781D01*
X130304534Y-139291522D01*
X130129995Y-139263878D01*
X130102352Y-139259500D01*
X129897648Y-139259500D01*
X129859599Y-139265526D01*
X129695468Y-139291522D01*
X129686717Y-139294365D01*
X129681154Y-139296173D01*
X129611313Y-139298167D01*
X129555157Y-139265922D01*
X125676819Y-135387584D01*
X125643334Y-135326261D01*
X125640500Y-135299903D01*
X125640500Y-132837648D01*
X128699500Y-132837648D01*
X128699500Y-133042351D01*
X128731522Y-133244534D01*
X128794781Y-133439223D01*
X128887715Y-133621613D01*
X129008028Y-133787213D01*
X129152786Y-133931971D01*
X129307749Y-134044556D01*
X129318390Y-134052287D01*
X129434607Y-134111503D01*
X129500776Y-134145218D01*
X129500778Y-134145218D01*
X129500781Y-134145220D01*
X129605137Y-134179127D01*
X129695465Y-134208477D01*
X129796557Y-134224488D01*
X129897648Y-134240500D01*
X129897649Y-134240500D01*
X130102351Y-134240500D01*
X130102352Y-134240500D01*
X130304534Y-134208477D01*
X130499219Y-134145220D01*
X130681610Y-134052287D01*
X130774590Y-133984732D01*
X130847213Y-133931971D01*
X130847215Y-133931968D01*
X130847219Y-133931966D01*
X130991966Y-133787219D01*
X130991968Y-133787215D01*
X130991971Y-133787213D01*
X131049104Y-133708575D01*
X131112287Y-133621610D01*
X131205220Y-133439219D01*
X131268477Y-133244534D01*
X131300500Y-133042352D01*
X131300500Y-132837648D01*
X131268477Y-132635466D01*
X131205220Y-132440781D01*
X131205218Y-132440778D01*
X131205218Y-132440776D01*
X131171503Y-132374607D01*
X131112287Y-132258390D01*
X131104556Y-132247749D01*
X130991971Y-132092786D01*
X130847213Y-131948028D01*
X130681613Y-131827715D01*
X130681612Y-131827714D01*
X130681610Y-131827713D01*
X130624653Y-131798691D01*
X130499223Y-131734781D01*
X130304534Y-131671522D01*
X130129995Y-131643878D01*
X130102352Y-131639500D01*
X129897648Y-131639500D01*
X129873329Y-131643351D01*
X129695465Y-131671522D01*
X129500776Y-131734781D01*
X129318386Y-131827715D01*
X129152786Y-131948028D01*
X129008028Y-132092786D01*
X128887715Y-132258386D01*
X128794781Y-132440776D01*
X128731522Y-132635465D01*
X128699500Y-132837648D01*
X125640500Y-132837648D01*
X125640500Y-124315513D01*
X125660185Y-124248474D01*
X125691614Y-124215195D01*
X125835102Y-124110945D01*
X125970945Y-123975102D01*
X126083865Y-123819681D01*
X126171082Y-123648509D01*
X126230447Y-123465801D01*
X126260500Y-123276055D01*
X126260500Y-123083945D01*
X126230447Y-122894199D01*
X126171082Y-122711491D01*
X126083865Y-122540319D01*
X125970945Y-122384898D01*
X125835102Y-122249055D01*
X125679681Y-122136135D01*
X125508506Y-122048916D01*
X125325802Y-121989553D01*
X125230928Y-121974526D01*
X125136055Y-121959500D01*
X124943945Y-121959500D01*
X124880696Y-121969517D01*
X124754197Y-121989553D01*
X124571493Y-122048916D01*
X124400318Y-122136135D01*
X124370502Y-122157798D01*
X124244898Y-122249055D01*
X124244896Y-122249057D01*
X124244895Y-122249057D01*
X124109057Y-122384895D01*
X124109057Y-122384896D01*
X124109055Y-122384898D01*
X124060560Y-122451645D01*
X123996135Y-122540318D01*
X123908916Y-122711493D01*
X123849553Y-122894197D01*
X123819500Y-123083945D01*
X121179994Y-123083945D01*
X121149959Y-122894315D01*
X121090616Y-122711678D01*
X121003434Y-122540577D01*
X120982201Y-122511352D01*
X120982200Y-122511351D01*
X120360000Y-123133552D01*
X120360000Y-123127339D01*
X120332741Y-123025606D01*
X120280080Y-122934394D01*
X120205606Y-122859920D01*
X120114394Y-122807259D01*
X120012661Y-122780000D01*
X120006447Y-122780000D01*
X120628646Y-122157798D01*
X120599415Y-122136561D01*
X120428321Y-122049383D01*
X120245684Y-121990040D01*
X120056015Y-121960000D01*
X119863985Y-121960000D01*
X119674315Y-121990040D01*
X119491678Y-122049383D01*
X119320578Y-122136564D01*
X119291352Y-122157798D01*
X119291351Y-122157798D01*
X119913554Y-122780000D01*
X119907339Y-122780000D01*
X119805606Y-122807259D01*
X119714394Y-122859920D01*
X119639920Y-122934394D01*
X119587259Y-123025606D01*
X119560000Y-123127339D01*
X119560000Y-123133553D01*
X118937798Y-122511351D01*
X118937798Y-122511352D01*
X118916564Y-122540578D01*
X118829383Y-122711678D01*
X118770040Y-122894315D01*
X118740000Y-123083984D01*
X115500500Y-123083984D01*
X115500500Y-120543945D01*
X121279500Y-120543945D01*
X121279500Y-120736054D01*
X121309553Y-120925802D01*
X121368916Y-121108506D01*
X121368918Y-121108509D01*
X121456135Y-121279681D01*
X121569055Y-121435102D01*
X121704898Y-121570945D01*
X121860319Y-121683865D01*
X122031491Y-121771082D01*
X122031493Y-121771083D01*
X122122845Y-121800764D01*
X122214199Y-121830447D01*
X122403945Y-121860500D01*
X122403946Y-121860500D01*
X122596054Y-121860500D01*
X122596055Y-121860500D01*
X122785801Y-121830447D01*
X122968509Y-121771082D01*
X123139681Y-121683865D01*
X123295102Y-121570945D01*
X123430945Y-121435102D01*
X123543865Y-121279681D01*
X123631082Y-121108509D01*
X123690447Y-120925801D01*
X123720500Y-120736055D01*
X123720500Y-120543945D01*
X123692754Y-120368765D01*
X123701709Y-120299473D01*
X123727543Y-120261690D01*
X126868713Y-117120521D01*
X126868716Y-117120520D01*
X126980520Y-117008716D01*
X127030639Y-116921904D01*
X127059577Y-116871785D01*
X127100500Y-116719058D01*
X127100500Y-116560943D01*
X127100500Y-111354889D01*
X127101629Y-111351041D01*
X127100743Y-111347132D01*
X127111392Y-111317793D01*
X127120185Y-111287850D01*
X127123608Y-111284140D01*
X127124583Y-111281455D01*
X127142871Y-111263266D01*
X127149319Y-111256280D01*
X127150432Y-111255430D01*
X127265787Y-111171621D01*
X127283202Y-111154205D01*
X127289819Y-111149161D01*
X127314986Y-111139520D01*
X127338642Y-111126604D01*
X127347125Y-111127210D01*
X127355066Y-111124169D01*
X127381448Y-111129665D01*
X127408334Y-111131588D01*
X127416802Y-111137030D01*
X127423467Y-111138419D01*
X127431983Y-111146787D01*
X127452681Y-111160089D01*
X127464213Y-111171621D01*
X127613904Y-111280378D01*
X127687335Y-111317793D01*
X127778764Y-111364379D01*
X127778767Y-111364380D01*
X127865904Y-111392692D01*
X127954736Y-111421555D01*
X128137486Y-111450500D01*
X128137487Y-111450500D01*
X128322513Y-111450500D01*
X128322514Y-111450500D01*
X128505264Y-111421555D01*
X128681235Y-111364379D01*
X128846096Y-111280378D01*
X128995787Y-111171621D01*
X129126621Y-111040787D01*
X129235378Y-110891096D01*
X129319379Y-110726235D01*
X129376555Y-110550264D01*
X129405500Y-110367514D01*
X129405500Y-109632486D01*
X129376555Y-109449736D01*
X129319379Y-109273766D01*
X129319379Y-109273764D01*
X129276577Y-109189763D01*
X129235378Y-109108904D01*
X129157821Y-109002156D01*
X130555000Y-109002156D01*
X130555000Y-109750001D01*
X131449670Y-109750001D01*
X131429925Y-109769746D01*
X131380556Y-109855256D01*
X131355000Y-109950631D01*
X131355000Y-110049371D01*
X131380556Y-110144746D01*
X131429925Y-110230256D01*
X131449670Y-110250001D01*
X130555000Y-110250001D01*
X130555000Y-110997845D01*
X130561401Y-111057373D01*
X130561403Y-111057380D01*
X130611645Y-111192087D01*
X130611649Y-111192094D01*
X130697809Y-111307188D01*
X130697812Y-111307191D01*
X130812906Y-111393351D01*
X130812913Y-111393355D01*
X130947620Y-111443597D01*
X130947627Y-111443599D01*
X131007155Y-111450000D01*
X131007172Y-111450001D01*
X131480000Y-111450001D01*
X131480000Y-110280331D01*
X131499745Y-110300076D01*
X131585255Y-110349445D01*
X131680630Y-110375001D01*
X131779370Y-110375001D01*
X131874745Y-110349445D01*
X131960255Y-110300076D01*
X131980000Y-110280331D01*
X131980000Y-111450001D01*
X132452828Y-111450001D01*
X132452844Y-111450000D01*
X132512372Y-111443599D01*
X132512379Y-111443597D01*
X132647086Y-111393355D01*
X132647088Y-111393353D01*
X132769289Y-111301875D01*
X132771138Y-111304345D01*
X132818991Y-111278199D01*
X132888684Y-111283164D01*
X132901678Y-111288873D01*
X133048956Y-111363916D01*
X133048959Y-111363917D01*
X133224845Y-111421065D01*
X133224858Y-111421068D01*
X133250000Y-111425050D01*
X133250000Y-110280331D01*
X133269745Y-110300076D01*
X133355255Y-110349445D01*
X133450630Y-110375001D01*
X133549370Y-110375001D01*
X133644745Y-110349445D01*
X133730255Y-110300076D01*
X133750000Y-110280331D01*
X133750000Y-111425049D01*
X133775141Y-111421068D01*
X133775154Y-111421065D01*
X133951040Y-111363917D01*
X133951043Y-111363916D01*
X134115837Y-111279948D01*
X134265461Y-111171240D01*
X134276959Y-111159742D01*
X134338280Y-111126253D01*
X134407972Y-111131232D01*
X134452327Y-111159736D01*
X134464213Y-111171622D01*
X134613904Y-111280379D01*
X134687333Y-111317793D01*
X134778764Y-111364380D01*
X134778767Y-111364381D01*
X134865901Y-111392692D01*
X134954736Y-111421556D01*
X135137486Y-111450501D01*
X135137487Y-111450501D01*
X135322513Y-111450501D01*
X135322514Y-111450501D01*
X135505264Y-111421556D01*
X135681235Y-111364380D01*
X135846096Y-111280379D01*
X135995787Y-111171622D01*
X136126621Y-111040788D01*
X136235378Y-110891097D01*
X136319379Y-110726236D01*
X136319381Y-110726230D01*
X136332393Y-110686184D01*
X136371830Y-110628508D01*
X136436188Y-110601309D01*
X136450324Y-110600501D01*
X136913330Y-110600501D01*
X136913346Y-110600502D01*
X136920942Y-110600502D01*
X137079053Y-110600502D01*
X137079056Y-110600502D01*
X137231784Y-110559578D01*
X137281903Y-110530640D01*
X137368715Y-110480521D01*
X137480519Y-110368717D01*
X137480519Y-110368715D01*
X137490727Y-110358508D01*
X137490729Y-110358505D01*
X142118713Y-105730521D01*
X142118716Y-105730520D01*
X142230520Y-105618716D01*
X142280639Y-105531904D01*
X142309577Y-105481785D01*
X142350501Y-105329057D01*
X142350501Y-105170943D01*
X142350501Y-105163348D01*
X142350500Y-105163330D01*
X142350500Y-102604513D01*
X142364015Y-102548218D01*
X142392857Y-102491614D01*
X142445319Y-102388649D01*
X142455218Y-102369223D01*
X142455218Y-102369222D01*
X142455220Y-102369219D01*
X142518477Y-102174534D01*
X142550500Y-101972352D01*
X142550500Y-101767648D01*
X142518477Y-101565466D01*
X142498981Y-101505465D01*
X142455218Y-101370776D01*
X142419444Y-101300566D01*
X142362287Y-101188390D01*
X142318692Y-101128386D01*
X142241971Y-101022786D01*
X142097213Y-100878028D01*
X141931613Y-100757715D01*
X141931612Y-100757714D01*
X141931610Y-100757713D01*
X141874653Y-100728691D01*
X141749223Y-100664781D01*
X141554534Y-100601522D01*
X141379995Y-100573878D01*
X141352352Y-100569500D01*
X141147648Y-100569500D01*
X141123329Y-100573351D01*
X140945465Y-100601522D01*
X140750776Y-100664781D01*
X140568386Y-100757715D01*
X140402786Y-100878028D01*
X140258028Y-101022786D01*
X140137715Y-101188386D01*
X140044781Y-101370776D01*
X139981522Y-101565465D01*
X139949500Y-101767648D01*
X139949500Y-101972351D01*
X139981522Y-102174534D01*
X140044781Y-102369223D01*
X140137715Y-102551613D01*
X140258028Y-102717213D01*
X140402786Y-102861971D01*
X140557749Y-102974556D01*
X140568390Y-102982287D01*
X140633021Y-103015218D01*
X140750776Y-103075218D01*
X140750778Y-103075218D01*
X140750781Y-103075220D01*
X140855137Y-103109127D01*
X140945465Y-103138477D01*
X140966863Y-103141866D01*
X141044898Y-103154225D01*
X141108032Y-103184154D01*
X141144964Y-103243465D01*
X141149500Y-103276698D01*
X141149500Y-104949903D01*
X141129815Y-105016942D01*
X141113181Y-105037584D01*
X136787583Y-109363182D01*
X136760655Y-109377885D01*
X136734837Y-109394478D01*
X136728636Y-109395369D01*
X136726260Y-109396667D01*
X136699902Y-109399501D01*
X136450324Y-109399501D01*
X136383285Y-109379816D01*
X136337530Y-109327012D01*
X136332393Y-109313818D01*
X136319381Y-109273771D01*
X136319379Y-109273765D01*
X136235377Y-109108904D01*
X136126621Y-108959214D01*
X135995787Y-108828380D01*
X135846096Y-108719623D01*
X135838707Y-108715858D01*
X135681235Y-108635621D01*
X135681232Y-108635620D01*
X135505265Y-108578446D01*
X135366091Y-108556403D01*
X135322514Y-108549501D01*
X135137486Y-108549501D01*
X135093915Y-108556402D01*
X134954734Y-108578446D01*
X134778767Y-108635620D01*
X134778764Y-108635621D01*
X134613903Y-108719623D01*
X134464208Y-108828383D01*
X134452321Y-108840270D01*
X134390995Y-108873751D01*
X134321304Y-108868762D01*
X134276964Y-108840264D01*
X134265459Y-108828759D01*
X134265454Y-108828755D01*
X134115837Y-108720053D01*
X133951043Y-108636085D01*
X133951037Y-108636083D01*
X133775144Y-108578933D01*
X133750000Y-108574951D01*
X133750000Y-109719671D01*
X133730255Y-109699926D01*
X133644745Y-109650557D01*
X133549370Y-109625001D01*
X133450630Y-109625001D01*
X133355255Y-109650557D01*
X133269745Y-109699926D01*
X133250000Y-109719671D01*
X133250000Y-108574951D01*
X133249999Y-108574951D01*
X133224855Y-108578933D01*
X133048962Y-108636083D01*
X133048951Y-108636088D01*
X132901676Y-108711128D01*
X132833007Y-108724024D01*
X132768267Y-108697747D01*
X132765576Y-108695347D01*
X132647093Y-108606650D01*
X132647086Y-108606646D01*
X132512379Y-108556404D01*
X132512372Y-108556402D01*
X132452844Y-108550001D01*
X131980000Y-108550001D01*
X131980000Y-109719671D01*
X131960255Y-109699926D01*
X131874745Y-109650557D01*
X131779370Y-109625001D01*
X131680630Y-109625001D01*
X131585255Y-109650557D01*
X131499745Y-109699926D01*
X131480000Y-109719671D01*
X131480000Y-108550001D01*
X131007155Y-108550001D01*
X130947627Y-108556402D01*
X130947620Y-108556404D01*
X130812913Y-108606646D01*
X130812906Y-108606650D01*
X130697812Y-108692810D01*
X130697809Y-108692813D01*
X130611649Y-108807907D01*
X130611645Y-108807914D01*
X130561403Y-108942621D01*
X130561401Y-108942628D01*
X130555000Y-109002156D01*
X129157821Y-109002156D01*
X129126621Y-108959213D01*
X128995787Y-108828379D01*
X128967619Y-108807914D01*
X128881615Y-108745428D01*
X128838949Y-108690098D01*
X128830500Y-108645110D01*
X128830500Y-105974500D01*
X128850185Y-105907461D01*
X128902989Y-105861706D01*
X128954500Y-105850500D01*
X134283331Y-105850500D01*
X134283347Y-105850501D01*
X134290943Y-105850501D01*
X134449054Y-105850501D01*
X134449057Y-105850501D01*
X134601785Y-105809577D01*
X134651904Y-105780639D01*
X134738716Y-105730520D01*
X134850520Y-105618716D01*
X134850520Y-105618714D01*
X134860728Y-105608507D01*
X134860730Y-105608504D01*
X137267584Y-103201649D01*
X137328905Y-103168166D01*
X137374661Y-103166859D01*
X137397648Y-103170500D01*
X137397649Y-103170500D01*
X137602351Y-103170500D01*
X137602352Y-103170500D01*
X137804534Y-103138477D01*
X137999219Y-103075220D01*
X138181610Y-102982287D01*
X138274590Y-102914732D01*
X138347213Y-102861971D01*
X138347215Y-102861968D01*
X138347219Y-102861966D01*
X138491966Y-102717219D01*
X138491968Y-102717215D01*
X138491971Y-102717213D01*
X138600500Y-102567833D01*
X138612287Y-102551610D01*
X138705220Y-102369219D01*
X138768477Y-102174534D01*
X138800500Y-101972352D01*
X138800500Y-101767648D01*
X138768477Y-101565466D01*
X138748981Y-101505465D01*
X138705218Y-101370776D01*
X138669444Y-101300566D01*
X138612287Y-101188390D01*
X138568692Y-101128386D01*
X138491971Y-101022786D01*
X138347213Y-100878028D01*
X138181613Y-100757715D01*
X138181612Y-100757714D01*
X138181610Y-100757713D01*
X138124653Y-100728691D01*
X137999223Y-100664781D01*
X137804534Y-100601522D01*
X137629995Y-100573878D01*
X137602352Y-100569500D01*
X137397648Y-100569500D01*
X137373329Y-100573351D01*
X137195465Y-100601522D01*
X137000776Y-100664781D01*
X136818386Y-100757715D01*
X136652786Y-100878028D01*
X136508028Y-101022786D01*
X136387715Y-101188386D01*
X136294781Y-101370776D01*
X136231522Y-101565465D01*
X136199500Y-101767648D01*
X136199500Y-101972351D01*
X136231523Y-102174535D01*
X136231523Y-102174538D01*
X136296285Y-102373852D01*
X136295003Y-102374268D01*
X136301808Y-102437654D01*
X136270524Y-102500129D01*
X136267463Y-102503300D01*
X134157584Y-104613181D01*
X134096261Y-104646666D01*
X134069903Y-104649500D01*
X128954500Y-104649500D01*
X128887461Y-104629815D01*
X128841706Y-104577011D01*
X128830500Y-104525500D01*
X128830500Y-98854061D01*
X128830501Y-98854048D01*
X128830501Y-98685945D01*
X128789576Y-98533215D01*
X128789573Y-98533210D01*
X128710524Y-98396291D01*
X128710518Y-98396283D01*
X127489077Y-97174843D01*
X127455592Y-97113520D01*
X127458828Y-97048842D01*
X127463477Y-97034535D01*
X127495500Y-96832353D01*
X127495500Y-96627649D01*
X127463477Y-96425467D01*
X127400220Y-96230782D01*
X127400218Y-96230779D01*
X127400218Y-96230777D01*
X127366503Y-96164608D01*
X127307287Y-96048391D01*
X127299556Y-96037750D01*
X127186971Y-95882787D01*
X127042219Y-95738035D01*
X127042211Y-95738029D01*
X126948547Y-95669979D01*
X126905882Y-95614650D01*
X126899903Y-95545037D01*
X126932508Y-95483241D01*
X126982426Y-95451956D01*
X127064334Y-95424815D01*
X127213656Y-95332713D01*
X127337712Y-95208657D01*
X127429814Y-95059335D01*
X127484999Y-94892798D01*
X127495500Y-94790010D01*
X127495499Y-94087649D01*
X132514500Y-94087649D01*
X132514500Y-94292352D01*
X132546522Y-94494535D01*
X132609781Y-94689224D01*
X132661135Y-94790010D01*
X132702712Y-94871610D01*
X132702715Y-94871614D01*
X132823028Y-95037214D01*
X132967786Y-95181972D01*
X133122749Y-95294557D01*
X133133390Y-95302288D01*
X133224840Y-95348884D01*
X133226080Y-95349516D01*
X133276876Y-95397491D01*
X133293671Y-95465312D01*
X133271134Y-95531447D01*
X133226080Y-95570486D01*
X133133386Y-95617716D01*
X132967786Y-95738029D01*
X132823028Y-95882787D01*
X132702715Y-96048387D01*
X132609781Y-96230777D01*
X132546522Y-96425466D01*
X132514500Y-96627649D01*
X132514500Y-96832352D01*
X132546522Y-97034535D01*
X132609781Y-97229224D01*
X132702715Y-97411614D01*
X132823028Y-97577214D01*
X132967786Y-97721972D01*
X133122749Y-97834557D01*
X133133390Y-97842288D01*
X133224840Y-97888884D01*
X133226080Y-97889516D01*
X133276876Y-97937491D01*
X133293671Y-98005312D01*
X133271134Y-98071447D01*
X133226080Y-98110486D01*
X133133386Y-98157716D01*
X132967786Y-98278029D01*
X132823028Y-98422787D01*
X132702715Y-98588387D01*
X132609781Y-98770777D01*
X132546522Y-98965466D01*
X132514500Y-99167649D01*
X132514500Y-99372352D01*
X132546522Y-99574535D01*
X132609781Y-99769224D01*
X132702715Y-99951614D01*
X132823028Y-100117214D01*
X132967786Y-100261972D01*
X133122749Y-100374557D01*
X133133390Y-100382288D01*
X133224840Y-100428884D01*
X133226080Y-100429516D01*
X133276876Y-100477491D01*
X133293671Y-100545312D01*
X133271134Y-100611447D01*
X133226080Y-100650486D01*
X133133386Y-100697716D01*
X132967786Y-100818029D01*
X132823028Y-100962787D01*
X132702715Y-101128387D01*
X132609781Y-101310777D01*
X132546522Y-101505466D01*
X132514500Y-101707649D01*
X132514500Y-101912352D01*
X132546522Y-102114535D01*
X132609781Y-102309224D01*
X132673691Y-102434654D01*
X132702712Y-102491610D01*
X132702715Y-102491614D01*
X132823028Y-102657214D01*
X132967786Y-102801972D01*
X133122749Y-102914557D01*
X133133390Y-102922288D01*
X133249607Y-102981504D01*
X133315776Y-103015219D01*
X133315778Y-103015219D01*
X133315781Y-103015221D01*
X133420137Y-103049128D01*
X133510465Y-103078478D01*
X133611557Y-103094489D01*
X133712648Y-103110501D01*
X133712649Y-103110501D01*
X133917351Y-103110501D01*
X133917352Y-103110501D01*
X134119534Y-103078478D01*
X134314219Y-103015221D01*
X134496610Y-102922288D01*
X134589590Y-102854733D01*
X134662213Y-102801972D01*
X134662215Y-102801969D01*
X134662219Y-102801967D01*
X134806966Y-102657220D01*
X134806968Y-102657216D01*
X134806971Y-102657214D01*
X134883693Y-102551613D01*
X134927287Y-102491611D01*
X135020220Y-102309220D01*
X135083477Y-102114535D01*
X135115500Y-101912353D01*
X135115500Y-101707649D01*
X135083477Y-101505467D01*
X135083476Y-101505465D01*
X135029058Y-101337984D01*
X135020220Y-101310782D01*
X135020218Y-101310779D01*
X135020218Y-101310777D01*
X134957856Y-101188386D01*
X134927287Y-101128391D01*
X134919556Y-101117750D01*
X134806971Y-100962787D01*
X134662213Y-100818029D01*
X134496614Y-100697716D01*
X134431973Y-100664780D01*
X134403917Y-100650484D01*
X134353123Y-100602512D01*
X134336328Y-100534691D01*
X134358865Y-100468556D01*
X134403917Y-100429517D01*
X134496610Y-100382288D01*
X134517770Y-100366914D01*
X134662213Y-100261972D01*
X134662215Y-100261969D01*
X134662219Y-100261967D01*
X134806966Y-100117220D01*
X134806968Y-100117216D01*
X134806971Y-100117214D01*
X134859732Y-100044591D01*
X134927287Y-99951611D01*
X135020220Y-99769220D01*
X135083477Y-99574535D01*
X135115500Y-99372353D01*
X135115500Y-99167649D01*
X135083477Y-98965467D01*
X135020220Y-98770782D01*
X135020218Y-98770779D01*
X135020218Y-98770777D01*
X134976993Y-98685944D01*
X134927287Y-98588391D01*
X134887196Y-98533210D01*
X134806971Y-98422787D01*
X134662213Y-98278029D01*
X134496614Y-98157716D01*
X134490006Y-98154349D01*
X134403917Y-98110484D01*
X134353123Y-98062512D01*
X134336328Y-97994691D01*
X134358865Y-97928556D01*
X134403917Y-97889517D01*
X134496610Y-97842288D01*
X134517770Y-97826914D01*
X134662213Y-97721972D01*
X134662215Y-97721969D01*
X134662219Y-97721967D01*
X134806966Y-97577220D01*
X134806968Y-97577216D01*
X134806971Y-97577214D01*
X134859732Y-97504591D01*
X134927287Y-97411611D01*
X135020220Y-97229220D01*
X135083477Y-97034535D01*
X135115500Y-96832353D01*
X135115500Y-96627649D01*
X135083477Y-96425467D01*
X135020220Y-96230782D01*
X135020218Y-96230779D01*
X135020218Y-96230777D01*
X134986503Y-96164608D01*
X134927287Y-96048391D01*
X134919556Y-96037750D01*
X134806971Y-95882787D01*
X134662213Y-95738029D01*
X134496614Y-95617716D01*
X134490006Y-95614349D01*
X134403917Y-95570484D01*
X134353123Y-95522512D01*
X134336328Y-95454691D01*
X134358865Y-95388556D01*
X134403917Y-95349517D01*
X134496610Y-95302288D01*
X134579637Y-95241966D01*
X134662213Y-95181972D01*
X134662215Y-95181969D01*
X134662219Y-95181967D01*
X134806966Y-95037220D01*
X134806968Y-95037216D01*
X134806971Y-95037214D01*
X134883693Y-94931613D01*
X134927287Y-94871611D01*
X135020220Y-94689220D01*
X135083477Y-94494535D01*
X135115500Y-94292353D01*
X135115500Y-94087649D01*
X135110560Y-94056461D01*
X135083477Y-93885466D01*
X135020218Y-93690777D01*
X134968865Y-93589992D01*
X134927287Y-93508391D01*
X134911892Y-93487201D01*
X134806971Y-93342787D01*
X134662213Y-93198029D01*
X134496613Y-93077716D01*
X134496612Y-93077715D01*
X134496610Y-93077714D01*
X134432884Y-93045244D01*
X134314223Y-92984782D01*
X134119534Y-92921523D01*
X133944995Y-92893879D01*
X133917352Y-92889501D01*
X133712648Y-92889501D01*
X133688329Y-92893352D01*
X133510465Y-92921523D01*
X133315776Y-92984782D01*
X133133386Y-93077716D01*
X132967786Y-93198029D01*
X132823028Y-93342787D01*
X132702715Y-93508387D01*
X132609781Y-93690777D01*
X132546522Y-93885466D01*
X132514500Y-94087649D01*
X127495499Y-94087649D01*
X127495499Y-93589993D01*
X127484999Y-93487204D01*
X127429814Y-93320667D01*
X127337712Y-93171345D01*
X127213656Y-93047289D01*
X127064334Y-92955187D01*
X126897797Y-92900002D01*
X126897795Y-92900001D01*
X126795010Y-92889501D01*
X125594998Y-92889501D01*
X125594981Y-92889502D01*
X125492203Y-92900001D01*
X125492200Y-92900002D01*
X125325668Y-92955186D01*
X125325663Y-92955188D01*
X125176342Y-93047290D01*
X125052289Y-93171343D01*
X124960187Y-93320664D01*
X124960186Y-93320667D01*
X124905001Y-93487204D01*
X124905001Y-93487205D01*
X124905000Y-93487205D01*
X124894500Y-93589984D01*
X124894500Y-94790002D01*
X124894501Y-94790019D01*
X124905000Y-94892797D01*
X124905001Y-94892800D01*
X124917862Y-94931610D01*
X124960186Y-95059335D01*
X125052288Y-95208657D01*
X125176344Y-95332713D01*
X125325666Y-95424815D01*
X125407570Y-95451955D01*
X125465015Y-95491728D01*
X125491838Y-95556244D01*
X125479523Y-95625019D01*
X125441451Y-95669979D01*
X125347787Y-95738029D01*
X125347782Y-95738033D01*
X125203028Y-95882787D01*
X125082715Y-96048387D01*
X124989781Y-96230777D01*
X124926522Y-96425466D01*
X124894500Y-96627649D01*
X124894500Y-96832352D01*
X124926522Y-97034535D01*
X124989781Y-97229224D01*
X125082715Y-97411614D01*
X125203028Y-97577214D01*
X125347786Y-97721972D01*
X125502749Y-97834557D01*
X125513390Y-97842288D01*
X125604840Y-97888884D01*
X125606080Y-97889516D01*
X125656876Y-97937491D01*
X125673671Y-98005312D01*
X125651134Y-98071447D01*
X125606080Y-98110486D01*
X125513386Y-98157716D01*
X125347786Y-98278029D01*
X125203028Y-98422787D01*
X125082715Y-98588387D01*
X124989781Y-98770777D01*
X124926522Y-98965466D01*
X124894500Y-99167649D01*
X124894500Y-99372352D01*
X124926522Y-99574535D01*
X124989781Y-99769224D01*
X125082715Y-99951614D01*
X125203028Y-100117214D01*
X125347786Y-100261972D01*
X125502749Y-100374557D01*
X125513390Y-100382288D01*
X125604840Y-100428884D01*
X125606080Y-100429516D01*
X125656876Y-100477491D01*
X125673671Y-100545312D01*
X125651134Y-100611447D01*
X125606080Y-100650486D01*
X125513386Y-100697716D01*
X125347786Y-100818029D01*
X125203028Y-100962787D01*
X125082715Y-101128387D01*
X124989781Y-101310777D01*
X124926522Y-101505466D01*
X124894500Y-101707649D01*
X124894500Y-101912352D01*
X124926522Y-102114535D01*
X124989781Y-102309224D01*
X125053691Y-102434654D01*
X125082712Y-102491610D01*
X125082715Y-102491614D01*
X125203028Y-102657214D01*
X125347786Y-102801972D01*
X125502749Y-102914557D01*
X125513390Y-102922288D01*
X125629607Y-102981504D01*
X125695776Y-103015219D01*
X125695778Y-103015219D01*
X125695781Y-103015221D01*
X125800137Y-103049128D01*
X125890465Y-103078478D01*
X125991557Y-103094489D01*
X126092648Y-103110501D01*
X126092649Y-103110501D01*
X126297351Y-103110501D01*
X126297352Y-103110501D01*
X126499534Y-103078478D01*
X126694219Y-103015221D01*
X126876610Y-102922288D01*
X126969590Y-102854733D01*
X127042213Y-102801972D01*
X127042215Y-102801969D01*
X127042219Y-102801967D01*
X127186966Y-102657220D01*
X127186968Y-102657216D01*
X127186971Y-102657214D01*
X127291913Y-102512771D01*
X127307287Y-102491611D01*
X127395015Y-102319434D01*
X127442990Y-102268639D01*
X127510811Y-102251844D01*
X127576945Y-102274381D01*
X127620397Y-102329096D01*
X127629500Y-102375730D01*
X127629500Y-108645110D01*
X127628370Y-108648957D01*
X127629257Y-108652867D01*
X127618607Y-108682205D01*
X127609815Y-108712149D01*
X127606391Y-108715858D01*
X127605417Y-108718544D01*
X127587128Y-108736732D01*
X127580681Y-108743719D01*
X127579539Y-108744589D01*
X127464213Y-108828379D01*
X127446797Y-108845794D01*
X127440181Y-108850839D01*
X127415012Y-108860479D01*
X127391358Y-108873396D01*
X127382875Y-108872789D01*
X127374935Y-108875831D01*
X127348552Y-108870334D01*
X127321666Y-108868412D01*
X127313196Y-108862969D01*
X127306534Y-108861581D01*
X127298018Y-108853213D01*
X127277319Y-108839911D01*
X127265789Y-108828381D01*
X127265788Y-108828380D01*
X127265787Y-108828379D01*
X127116096Y-108719622D01*
X127108709Y-108715858D01*
X126951235Y-108635620D01*
X126951232Y-108635619D01*
X126775265Y-108578445D01*
X126683889Y-108563972D01*
X126592514Y-108549500D01*
X126407486Y-108549500D01*
X126346569Y-108559148D01*
X126224734Y-108578445D01*
X126048767Y-108635619D01*
X126048764Y-108635620D01*
X125901306Y-108710755D01*
X125832637Y-108723651D01*
X125769395Y-108697983D01*
X125769289Y-108698126D01*
X125768747Y-108697720D01*
X125767896Y-108697375D01*
X125765859Y-108695559D01*
X125647088Y-108606647D01*
X125647086Y-108606645D01*
X125512379Y-108556403D01*
X125512372Y-108556401D01*
X125452844Y-108550000D01*
X124980000Y-108550000D01*
X124980000Y-109719670D01*
X124960255Y-109699925D01*
X124874745Y-109650556D01*
X124779370Y-109625000D01*
X124680630Y-109625000D01*
X124585255Y-109650556D01*
X124499745Y-109699925D01*
X124480000Y-109719670D01*
X124480000Y-108550000D01*
X124007155Y-108550000D01*
X123947627Y-108556401D01*
X123947620Y-108556403D01*
X123812913Y-108606645D01*
X123812906Y-108606649D01*
X123697812Y-108692809D01*
X123697809Y-108692812D01*
X123611649Y-108807906D01*
X123611645Y-108807913D01*
X123561403Y-108942620D01*
X123561401Y-108942627D01*
X123555000Y-109002155D01*
X123555000Y-109750000D01*
X124449670Y-109750000D01*
X124429925Y-109769745D01*
X124380556Y-109855255D01*
X124355000Y-109950630D01*
X124355000Y-110049370D01*
X124380556Y-110144745D01*
X124429925Y-110230255D01*
X124449670Y-110250000D01*
X123555000Y-110250000D01*
X123555000Y-110997844D01*
X123561401Y-111057372D01*
X123561403Y-111057379D01*
X123611645Y-111192086D01*
X123611649Y-111192093D01*
X123697809Y-111307187D01*
X123697812Y-111307190D01*
X123812906Y-111393350D01*
X123812913Y-111393354D01*
X123947620Y-111443596D01*
X123947627Y-111443598D01*
X124007155Y-111449999D01*
X124007172Y-111450000D01*
X124480000Y-111450000D01*
X124480000Y-110280330D01*
X124499745Y-110300075D01*
X124585255Y-110349444D01*
X124680630Y-110375000D01*
X124779370Y-110375000D01*
X124874745Y-110349444D01*
X124960255Y-110300075D01*
X124980000Y-110280330D01*
X124980000Y-111450000D01*
X125452828Y-111450000D01*
X125452844Y-111449999D01*
X125512372Y-111443598D01*
X125512379Y-111443596D01*
X125647086Y-111393354D01*
X125647089Y-111393352D01*
X125701188Y-111352854D01*
X125766652Y-111328436D01*
X125834925Y-111343287D01*
X125884331Y-111392692D01*
X125899500Y-111452120D01*
X125899500Y-116339902D01*
X125879815Y-116406941D01*
X125863181Y-116427583D01*
X122878310Y-119412453D01*
X122816987Y-119445938D01*
X122771231Y-119447245D01*
X122653520Y-119428601D01*
X122596055Y-119419500D01*
X122403945Y-119419500D01*
X122340696Y-119429517D01*
X122214197Y-119449553D01*
X122031493Y-119508916D01*
X121860318Y-119596135D01*
X121771645Y-119660560D01*
X121704898Y-119709055D01*
X121704896Y-119709057D01*
X121704895Y-119709057D01*
X121569057Y-119844895D01*
X121569057Y-119844896D01*
X121569055Y-119844898D01*
X121520560Y-119911645D01*
X121456135Y-120000318D01*
X121368916Y-120171493D01*
X121309553Y-120354197D01*
X121279500Y-120543945D01*
X115500500Y-120543945D01*
X115500500Y-101707648D01*
X117449500Y-101707648D01*
X117449500Y-101912351D01*
X117481522Y-102114534D01*
X117544781Y-102309223D01*
X117637715Y-102491613D01*
X117758028Y-102657213D01*
X117902786Y-102801971D01*
X117985371Y-102861971D01*
X118068390Y-102922287D01*
X118184607Y-102981503D01*
X118250776Y-103015218D01*
X118250778Y-103015218D01*
X118250781Y-103015220D01*
X118355137Y-103049127D01*
X118445465Y-103078477D01*
X118546557Y-103094488D01*
X118647648Y-103110500D01*
X118647649Y-103110500D01*
X118852351Y-103110500D01*
X118852352Y-103110500D01*
X119054534Y-103078477D01*
X119249219Y-103015220D01*
X119431610Y-102922287D01*
X119524590Y-102854732D01*
X119597213Y-102801971D01*
X119597215Y-102801968D01*
X119597219Y-102801966D01*
X119741966Y-102657219D01*
X119741970Y-102657214D01*
X119741971Y-102657213D01*
X119806908Y-102567833D01*
X119862287Y-102491610D01*
X119955220Y-102309219D01*
X120018477Y-102114534D01*
X120050500Y-101912352D01*
X120050500Y-101707648D01*
X121199500Y-101707648D01*
X121199500Y-101912351D01*
X121231522Y-102114534D01*
X121294781Y-102309223D01*
X121387715Y-102491613D01*
X121508028Y-102657213D01*
X121652786Y-102801971D01*
X121735371Y-102861971D01*
X121818390Y-102922287D01*
X121934607Y-102981503D01*
X122000776Y-103015218D01*
X122000778Y-103015218D01*
X122000781Y-103015220D01*
X122105137Y-103049127D01*
X122195465Y-103078477D01*
X122296557Y-103094488D01*
X122397648Y-103110500D01*
X122397649Y-103110500D01*
X122602351Y-103110500D01*
X122602352Y-103110500D01*
X122804534Y-103078477D01*
X122999219Y-103015220D01*
X123181610Y-102922287D01*
X123274590Y-102854732D01*
X123347213Y-102801971D01*
X123347215Y-102801968D01*
X123347219Y-102801966D01*
X123491966Y-102657219D01*
X123491970Y-102657214D01*
X123491971Y-102657213D01*
X123556908Y-102567833D01*
X123612287Y-102491610D01*
X123705220Y-102309219D01*
X123768477Y-102114534D01*
X123800500Y-101912352D01*
X123800500Y-101707648D01*
X123768477Y-101505466D01*
X123705220Y-101310781D01*
X123705218Y-101310777D01*
X123705218Y-101310776D01*
X123671331Y-101244271D01*
X123612287Y-101128390D01*
X123604556Y-101117749D01*
X123491971Y-100962786D01*
X123347213Y-100818028D01*
X123181613Y-100697715D01*
X123181612Y-100697714D01*
X123181610Y-100697713D01*
X123124653Y-100668691D01*
X122999223Y-100604781D01*
X122804534Y-100541522D01*
X122629995Y-100513878D01*
X122602352Y-100509500D01*
X122397648Y-100509500D01*
X122373329Y-100513351D01*
X122195465Y-100541522D01*
X122000776Y-100604781D01*
X121818386Y-100697715D01*
X121652786Y-100818028D01*
X121508028Y-100962786D01*
X121387715Y-101128386D01*
X121294781Y-101310776D01*
X121231522Y-101505465D01*
X121199500Y-101707648D01*
X120050500Y-101707648D01*
X120018477Y-101505466D01*
X119955220Y-101310781D01*
X119955218Y-101310777D01*
X119955218Y-101310776D01*
X119921331Y-101244271D01*
X119862287Y-101128390D01*
X119854556Y-101117749D01*
X119741971Y-100962786D01*
X119597213Y-100818028D01*
X119431613Y-100697715D01*
X119431612Y-100697714D01*
X119431610Y-100697713D01*
X119374653Y-100668691D01*
X119249223Y-100604781D01*
X119054534Y-100541522D01*
X118879995Y-100513878D01*
X118852352Y-100509500D01*
X118647648Y-100509500D01*
X118623329Y-100513351D01*
X118445465Y-100541522D01*
X118250776Y-100604781D01*
X118068386Y-100697715D01*
X117902786Y-100818028D01*
X117758028Y-100962786D01*
X117637715Y-101128386D01*
X117544781Y-101310776D01*
X117481522Y-101505465D01*
X117449500Y-101707648D01*
X115500500Y-101707648D01*
X115500500Y-94087648D01*
X117449500Y-94087648D01*
X117449500Y-94292351D01*
X117481522Y-94494534D01*
X117544781Y-94689223D01*
X117637715Y-94871613D01*
X117758028Y-95037213D01*
X117902786Y-95181971D01*
X117985371Y-95241971D01*
X118068390Y-95302287D01*
X118161082Y-95349516D01*
X118250776Y-95395218D01*
X118250778Y-95395218D01*
X118250781Y-95395220D01*
X118341859Y-95424813D01*
X118445465Y-95458477D01*
X118546557Y-95474488D01*
X118647648Y-95490500D01*
X118647649Y-95490500D01*
X118852351Y-95490500D01*
X118852352Y-95490500D01*
X119054534Y-95458477D01*
X119249219Y-95395220D01*
X119431610Y-95302287D01*
X119524590Y-95234732D01*
X119597213Y-95181971D01*
X119597215Y-95181968D01*
X119597219Y-95181966D01*
X119741966Y-95037219D01*
X119741970Y-95037214D01*
X119741971Y-95037213D01*
X119794732Y-94964590D01*
X119862287Y-94871610D01*
X119955220Y-94689219D01*
X120018477Y-94494534D01*
X120050500Y-94292352D01*
X120050500Y-94087648D01*
X121199500Y-94087648D01*
X121199500Y-94292351D01*
X121231522Y-94494534D01*
X121294781Y-94689223D01*
X121387715Y-94871613D01*
X121508028Y-95037213D01*
X121652786Y-95181971D01*
X121735371Y-95241971D01*
X121818390Y-95302287D01*
X121911082Y-95349516D01*
X122000776Y-95395218D01*
X122000778Y-95395218D01*
X122000781Y-95395220D01*
X122091859Y-95424813D01*
X122195465Y-95458477D01*
X122296557Y-95474488D01*
X122397648Y-95490500D01*
X122397649Y-95490500D01*
X122602351Y-95490500D01*
X122602352Y-95490500D01*
X122804534Y-95458477D01*
X122999219Y-95395220D01*
X123181610Y-95302287D01*
X123274590Y-95234732D01*
X123347213Y-95181971D01*
X123347215Y-95181968D01*
X123347219Y-95181966D01*
X123491966Y-95037219D01*
X123491970Y-95037214D01*
X123491971Y-95037213D01*
X123544732Y-94964590D01*
X123612287Y-94871610D01*
X123705220Y-94689219D01*
X123768477Y-94494534D01*
X123800500Y-94292352D01*
X123800500Y-94087648D01*
X123768477Y-93885466D01*
X123765810Y-93877259D01*
X123739127Y-93795137D01*
X123705220Y-93690781D01*
X123705218Y-93690777D01*
X123705218Y-93690776D01*
X123642991Y-93568650D01*
X123612287Y-93508390D01*
X123596895Y-93487204D01*
X123491971Y-93342786D01*
X123347213Y-93198028D01*
X123181610Y-93077712D01*
X123168200Y-93070879D01*
X123117406Y-93022903D01*
X123100500Y-92960397D01*
X123100500Y-88897649D01*
X126199500Y-88897649D01*
X126199500Y-89102352D01*
X126231522Y-89304535D01*
X126294781Y-89499224D01*
X126387715Y-89681614D01*
X126508028Y-89847214D01*
X126652786Y-89991972D01*
X126807749Y-90104557D01*
X126818390Y-90112288D01*
X126933507Y-90170943D01*
X127000776Y-90205219D01*
X127000778Y-90205219D01*
X127000781Y-90205221D01*
X127105137Y-90239128D01*
X127195465Y-90268478D01*
X127296557Y-90284489D01*
X127397648Y-90300501D01*
X127397649Y-90300501D01*
X127602351Y-90300501D01*
X127602352Y-90300501D01*
X127804534Y-90268478D01*
X127999219Y-90205221D01*
X128181610Y-90112288D01*
X128274590Y-90044733D01*
X128347213Y-89991972D01*
X128347215Y-89991969D01*
X128347219Y-89991967D01*
X128491966Y-89847220D01*
X128491968Y-89847216D01*
X128491971Y-89847214D01*
X128551601Y-89765139D01*
X128612287Y-89681611D01*
X128705220Y-89499220D01*
X128768477Y-89304535D01*
X128800500Y-89102353D01*
X128800500Y-88897649D01*
X131199500Y-88897649D01*
X131199500Y-89102352D01*
X131231522Y-89304535D01*
X131294781Y-89499224D01*
X131387715Y-89681614D01*
X131508028Y-89847214D01*
X131652786Y-89991972D01*
X131807749Y-90104557D01*
X131818390Y-90112288D01*
X131933507Y-90170943D01*
X132000776Y-90205219D01*
X132000778Y-90205219D01*
X132000781Y-90205221D01*
X132105137Y-90239128D01*
X132195465Y-90268478D01*
X132296557Y-90284489D01*
X132397648Y-90300501D01*
X132397649Y-90300501D01*
X132602351Y-90300501D01*
X132602352Y-90300501D01*
X132804534Y-90268478D01*
X132999219Y-90205221D01*
X133181610Y-90112288D01*
X133274590Y-90044733D01*
X133347213Y-89991972D01*
X133347215Y-89991969D01*
X133347219Y-89991967D01*
X133491966Y-89847220D01*
X133491968Y-89847216D01*
X133491971Y-89847214D01*
X133551601Y-89765139D01*
X133612287Y-89681611D01*
X133705220Y-89499220D01*
X133768477Y-89304535D01*
X133800500Y-89102353D01*
X133800500Y-88897649D01*
X133768477Y-88695467D01*
X133705220Y-88500782D01*
X133705218Y-88500779D01*
X133705218Y-88500777D01*
X133671503Y-88434608D01*
X133612287Y-88318391D01*
X133604556Y-88307750D01*
X133491971Y-88152787D01*
X133347213Y-88008029D01*
X133181613Y-87887716D01*
X133181612Y-87887715D01*
X133181610Y-87887714D01*
X133124653Y-87858692D01*
X133066485Y-87829054D01*
X134399498Y-87829054D01*
X134399499Y-87829057D01*
X134440423Y-87981785D01*
X134440424Y-87981787D01*
X134440423Y-87981787D01*
X134455576Y-88008031D01*
X134455578Y-88008033D01*
X134455579Y-88008035D01*
X134498179Y-88081822D01*
X134519479Y-88118715D01*
X134638349Y-88237585D01*
X134638355Y-88237590D01*
X136863181Y-90462416D01*
X136896666Y-90523739D01*
X136899500Y-90550097D01*
X136899500Y-93020397D01*
X136879815Y-93087436D01*
X136831800Y-93130879D01*
X136818389Y-93137712D01*
X136652786Y-93258028D01*
X136508028Y-93402786D01*
X136387715Y-93568386D01*
X136294781Y-93750776D01*
X136231522Y-93945465D01*
X136199500Y-94147648D01*
X136199500Y-94352351D01*
X136231522Y-94554534D01*
X136294781Y-94749223D01*
X136387715Y-94931613D01*
X136508028Y-95097213D01*
X136652786Y-95241971D01*
X136800812Y-95349516D01*
X136818390Y-95362287D01*
X136883021Y-95395218D01*
X137000776Y-95455218D01*
X137000778Y-95455218D01*
X137000781Y-95455220D01*
X137077046Y-95480000D01*
X137195465Y-95518477D01*
X137277354Y-95531447D01*
X137397648Y-95550500D01*
X137397649Y-95550500D01*
X137602351Y-95550500D01*
X137602352Y-95550500D01*
X137804534Y-95518477D01*
X137999219Y-95455220D01*
X138181610Y-95362287D01*
X138274590Y-95294732D01*
X138347213Y-95241971D01*
X138347215Y-95241968D01*
X138347219Y-95241966D01*
X138491966Y-95097219D01*
X138491968Y-95097215D01*
X138491971Y-95097213D01*
X138544732Y-95024590D01*
X138612287Y-94931610D01*
X138705220Y-94749219D01*
X138768477Y-94554534D01*
X138800500Y-94352352D01*
X138800500Y-94147648D01*
X138777114Y-94000000D01*
X139973391Y-94000000D01*
X140934314Y-94000000D01*
X140929920Y-94004394D01*
X140877259Y-94095606D01*
X140850000Y-94197339D01*
X140850000Y-94302661D01*
X140877259Y-94404394D01*
X140929920Y-94495606D01*
X140934314Y-94500000D01*
X139973391Y-94500000D01*
X139982009Y-94554413D01*
X140045244Y-94749029D01*
X140138140Y-94931349D01*
X140258417Y-95096894D01*
X140258417Y-95096895D01*
X140403104Y-95241582D01*
X140568650Y-95361859D01*
X140750968Y-95454754D01*
X140945578Y-95517988D01*
X141000000Y-95526607D01*
X141000000Y-94565686D01*
X141004394Y-94570080D01*
X141095606Y-94622741D01*
X141197339Y-94650000D01*
X141302661Y-94650000D01*
X141404394Y-94622741D01*
X141495606Y-94570080D01*
X141500000Y-94565686D01*
X141500000Y-95526606D01*
X141554421Y-95517988D01*
X141749031Y-95454754D01*
X141931349Y-95361859D01*
X142096894Y-95241582D01*
X142096895Y-95241582D01*
X142241582Y-95096895D01*
X142241582Y-95096894D01*
X142361859Y-94931349D01*
X142454755Y-94749029D01*
X142517990Y-94554413D01*
X142526609Y-94500000D01*
X141565686Y-94500000D01*
X141570080Y-94495606D01*
X141622741Y-94404394D01*
X141650000Y-94302661D01*
X141650000Y-94197339D01*
X141622741Y-94095606D01*
X141570080Y-94004394D01*
X141565686Y-94000000D01*
X142526609Y-94000000D01*
X142517990Y-93945586D01*
X142454755Y-93750970D01*
X142361859Y-93568650D01*
X142241582Y-93403105D01*
X142241582Y-93403104D01*
X142096895Y-93258417D01*
X141931349Y-93138140D01*
X141749029Y-93045244D01*
X141554413Y-92982009D01*
X141500000Y-92973390D01*
X141500000Y-93934314D01*
X141495606Y-93929920D01*
X141404394Y-93877259D01*
X141302661Y-93850000D01*
X141197339Y-93850000D01*
X141095606Y-93877259D01*
X141004394Y-93929920D01*
X141000000Y-93934314D01*
X141000000Y-92973390D01*
X140945586Y-92982009D01*
X140750970Y-93045244D01*
X140568650Y-93138140D01*
X140403105Y-93258417D01*
X140403104Y-93258417D01*
X140258417Y-93403104D01*
X140258417Y-93403105D01*
X140138140Y-93568650D01*
X140045244Y-93750970D01*
X139982009Y-93945586D01*
X139973391Y-94000000D01*
X138777114Y-94000000D01*
X138768477Y-93945466D01*
X138705220Y-93750781D01*
X138705218Y-93750778D01*
X138705218Y-93750776D01*
X138623294Y-93589993D01*
X138612287Y-93568390D01*
X138568692Y-93508386D01*
X138491971Y-93402786D01*
X138347213Y-93258028D01*
X138181610Y-93137712D01*
X138168200Y-93130879D01*
X138117406Y-93082903D01*
X138100500Y-93020397D01*
X138100500Y-90339059D01*
X138100501Y-90339046D01*
X138100501Y-90170945D01*
X138100501Y-90170943D01*
X138059577Y-90018215D01*
X138030639Y-89968095D01*
X137980520Y-89881284D01*
X137868716Y-89769480D01*
X137868715Y-89769479D01*
X137864385Y-89765149D01*
X137864374Y-89765139D01*
X135636819Y-87537584D01*
X135603334Y-87476261D01*
X135600500Y-87449903D01*
X135600500Y-68254071D01*
X135900000Y-68254071D01*
X135900000Y-68505928D01*
X135939397Y-68754669D01*
X136017219Y-68994184D01*
X136131557Y-69218583D01*
X136205748Y-69320697D01*
X136205748Y-69320698D01*
X136935387Y-68591059D01*
X136940889Y-68611591D01*
X137019881Y-68748408D01*
X137131592Y-68860119D01*
X137268409Y-68939111D01*
X137288940Y-68944612D01*
X136559300Y-69674250D01*
X136661415Y-69748441D01*
X136664399Y-69750270D01*
X136665295Y-69751260D01*
X136665359Y-69751307D01*
X136665349Y-69751320D01*
X136711276Y-69802080D01*
X136722701Y-69871009D01*
X136695047Y-69935173D01*
X136637093Y-69974200D01*
X136599613Y-69980000D01*
X136452155Y-69980000D01*
X136392627Y-69986401D01*
X136392620Y-69986403D01*
X136257913Y-70036645D01*
X136257906Y-70036649D01*
X136142812Y-70122809D01*
X136142809Y-70122812D01*
X136056649Y-70237906D01*
X136056645Y-70237913D01*
X136006403Y-70372620D01*
X136006401Y-70372627D01*
X136000000Y-70432155D01*
X136000000Y-71230000D01*
X136951518Y-71230000D01*
X136940889Y-71248409D01*
X136900000Y-71401009D01*
X136900000Y-71558991D01*
X136940889Y-71711591D01*
X136951518Y-71730000D01*
X136000000Y-71730000D01*
X136000000Y-72527844D01*
X136006401Y-72587372D01*
X136006403Y-72587379D01*
X136056645Y-72722086D01*
X136056649Y-72722093D01*
X136142809Y-72837187D01*
X136142812Y-72837190D01*
X136257906Y-72923350D01*
X136257913Y-72923354D01*
X136392620Y-72973596D01*
X136392627Y-72973598D01*
X136452155Y-72979999D01*
X136452172Y-72980000D01*
X137250000Y-72980000D01*
X137250000Y-72028482D01*
X137268409Y-72039111D01*
X137421009Y-72080000D01*
X137578991Y-72080000D01*
X137731591Y-72039111D01*
X137750000Y-72028482D01*
X137750000Y-72980000D01*
X138547828Y-72980000D01*
X138547844Y-72979999D01*
X138607372Y-72973598D01*
X138607379Y-72973596D01*
X138742086Y-72923354D01*
X138742093Y-72923350D01*
X138857187Y-72837190D01*
X138857190Y-72837187D01*
X138943350Y-72722093D01*
X138943354Y-72722086D01*
X138993596Y-72587379D01*
X138993598Y-72587372D01*
X138999999Y-72527844D01*
X139000000Y-72527827D01*
X139000000Y-71730000D01*
X138048482Y-71730000D01*
X138059111Y-71711591D01*
X138100000Y-71558991D01*
X138100000Y-71401009D01*
X138059111Y-71248409D01*
X138048482Y-71230000D01*
X139000000Y-71230000D01*
X139000000Y-70432172D01*
X138999999Y-70432155D01*
X138993598Y-70372627D01*
X138993596Y-70372620D01*
X138943354Y-70237913D01*
X138943350Y-70237906D01*
X138857190Y-70122812D01*
X138857187Y-70122809D01*
X138742093Y-70036649D01*
X138742086Y-70036645D01*
X138607379Y-69986403D01*
X138607372Y-69986401D01*
X138547844Y-69980000D01*
X138400387Y-69980000D01*
X138333348Y-69960315D01*
X138287593Y-69907511D01*
X138277649Y-69838353D01*
X138306674Y-69774797D01*
X138335591Y-69750277D01*
X138338571Y-69748450D01*
X138440697Y-69674250D01*
X138440698Y-69674250D01*
X137711059Y-68944612D01*
X137731591Y-68939111D01*
X137868408Y-68860119D01*
X137980119Y-68748408D01*
X138059111Y-68611591D01*
X138064612Y-68591059D01*
X138794250Y-69320698D01*
X138794250Y-69320697D01*
X138868442Y-69218581D01*
X138868446Y-69218575D01*
X138982780Y-68994184D01*
X139060602Y-68754669D01*
X139100000Y-68505928D01*
X139100000Y-68254071D01*
X139060602Y-68005330D01*
X138982780Y-67765815D01*
X138868442Y-67541416D01*
X138794250Y-67439301D01*
X138794250Y-67439300D01*
X138064612Y-68168939D01*
X138059111Y-68148409D01*
X137980119Y-68011592D01*
X137868408Y-67899881D01*
X137731591Y-67820889D01*
X137711058Y-67815387D01*
X138440698Y-67085748D01*
X138338583Y-67011557D01*
X138114184Y-66897219D01*
X137874669Y-66819397D01*
X137625928Y-66780000D01*
X137374072Y-66780000D01*
X137125330Y-66819397D01*
X136885815Y-66897219D01*
X136661413Y-67011559D01*
X136559301Y-67085747D01*
X136559300Y-67085748D01*
X137288940Y-67815387D01*
X137268409Y-67820889D01*
X137131592Y-67899881D01*
X137019881Y-68011592D01*
X136940889Y-68148409D01*
X136935387Y-68168940D01*
X136205748Y-67439300D01*
X136205747Y-67439301D01*
X136131559Y-67541413D01*
X136017219Y-67765815D01*
X135939397Y-68005330D01*
X135900000Y-68254071D01*
X135600500Y-68254071D01*
X135600500Y-64999995D01*
X135994858Y-64999995D01*
X135994859Y-65000007D01*
X136015070Y-65245831D01*
X136075159Y-65485055D01*
X136075162Y-65485063D01*
X136173512Y-65711253D01*
X136173514Y-65711256D01*
X136307492Y-65918355D01*
X136473496Y-66100790D01*
X136667068Y-66253664D01*
X136883008Y-66372869D01*
X136883017Y-66372873D01*
X137115508Y-66455203D01*
X137115513Y-66455204D01*
X137115518Y-66455206D01*
X137115524Y-66455207D01*
X137115528Y-66455208D01*
X137165797Y-66464162D01*
X137358354Y-66498461D01*
X137358347Y-66498461D01*
X137377566Y-66498695D01*
X137604993Y-66501475D01*
X137848813Y-66464165D01*
X138083266Y-66387534D01*
X138302054Y-66273640D01*
X138499303Y-66125542D01*
X138669714Y-65947216D01*
X138808712Y-65743452D01*
X138912564Y-65519722D01*
X138978481Y-65282035D01*
X139004692Y-65036774D01*
X138990493Y-64790525D01*
X138966020Y-64681928D01*
X138936268Y-64549907D01*
X138894044Y-64445921D01*
X138843468Y-64321366D01*
X138714589Y-64111055D01*
X138714588Y-64111054D01*
X138714587Y-64111052D01*
X138639601Y-64024487D01*
X138553092Y-63924618D01*
X138363313Y-63767061D01*
X138363311Y-63767059D01*
X138363303Y-63767054D01*
X138150349Y-63642614D01*
X137919927Y-63554624D01*
X137855731Y-63541563D01*
X137678215Y-63505447D01*
X137678216Y-63505447D01*
X137637132Y-63503940D01*
X137431722Y-63496408D01*
X137431720Y-63496408D01*
X137431717Y-63496408D01*
X137187062Y-63527750D01*
X136950815Y-63598627D01*
X136950813Y-63598628D01*
X136729302Y-63707144D01*
X136528500Y-63850374D01*
X136528493Y-63850380D01*
X136353777Y-64024487D01*
X136353773Y-64024492D01*
X136209843Y-64224791D01*
X136209840Y-64224797D01*
X136100555Y-64445918D01*
X136100554Y-64445923D01*
X136028850Y-64681928D01*
X135996657Y-64926459D01*
X135996656Y-64926480D01*
X135994858Y-64999995D01*
X135600500Y-64999995D01*
X135600500Y-62880096D01*
X135620185Y-62813057D01*
X135636814Y-62792420D01*
X136817076Y-61612157D01*
X136878397Y-61578674D01*
X136943073Y-61581909D01*
X137118580Y-61638934D01*
X137125215Y-61641090D01*
X137374038Y-61680500D01*
X137374039Y-61680500D01*
X137625961Y-61680500D01*
X137625962Y-61680500D01*
X137874785Y-61641090D01*
X138114379Y-61563241D01*
X138338845Y-61448870D01*
X138542656Y-61300793D01*
X138720793Y-61122656D01*
X138868870Y-60918845D01*
X138983241Y-60694379D01*
X139061090Y-60454785D01*
X139100500Y-60205962D01*
X139100500Y-59954038D01*
X139061090Y-59705215D01*
X138983241Y-59465621D01*
X138983239Y-59465618D01*
X138983239Y-59465616D01*
X138941747Y-59384184D01*
X138868870Y-59241155D01*
X138849952Y-59215117D01*
X138720798Y-59037350D01*
X138720794Y-59037345D01*
X138542654Y-58859205D01*
X138542649Y-58859201D01*
X138338848Y-58711132D01*
X138338847Y-58711131D01*
X138338845Y-58711130D01*
X138268747Y-58675413D01*
X138114383Y-58596760D01*
X137874785Y-58518910D01*
X137625962Y-58479500D01*
X137374038Y-58479500D01*
X137249626Y-58499205D01*
X137125214Y-58518910D01*
X136885616Y-58596760D01*
X136661151Y-58711132D01*
X136457350Y-58859201D01*
X136457345Y-58859205D01*
X136279205Y-59037345D01*
X136279201Y-59037350D01*
X136131132Y-59241151D01*
X136016760Y-59465616D01*
X135938910Y-59705214D01*
X135899500Y-59954038D01*
X135899500Y-60205961D01*
X135938910Y-60454786D01*
X135938910Y-60454789D01*
X135998090Y-60636924D01*
X136000085Y-60706765D01*
X135967840Y-60762923D01*
X134631286Y-62099478D01*
X134519481Y-62211282D01*
X134519479Y-62211285D01*
X134469361Y-62298094D01*
X134469359Y-62298096D01*
X134440425Y-62348209D01*
X134440424Y-62348210D01*
X134424544Y-62407472D01*
X134399499Y-62500943D01*
X134399499Y-62659057D01*
X134399499Y-62659059D01*
X134399500Y-62669053D01*
X134399500Y-87663330D01*
X134399499Y-87663348D01*
X134399499Y-87829054D01*
X134399498Y-87829054D01*
X133066485Y-87829054D01*
X132999223Y-87794782D01*
X132804534Y-87731523D01*
X132629995Y-87703879D01*
X132602352Y-87699501D01*
X132397648Y-87699501D01*
X132373329Y-87703352D01*
X132195465Y-87731523D01*
X132000776Y-87794782D01*
X131818386Y-87887716D01*
X131652786Y-88008029D01*
X131508028Y-88152787D01*
X131387715Y-88318387D01*
X131294781Y-88500777D01*
X131231522Y-88695466D01*
X131199500Y-88897649D01*
X128800500Y-88897649D01*
X128768477Y-88695467D01*
X128705220Y-88500782D01*
X128705218Y-88500779D01*
X128705218Y-88500777D01*
X128671503Y-88434608D01*
X128612287Y-88318391D01*
X128604556Y-88307750D01*
X128491971Y-88152787D01*
X128347213Y-88008029D01*
X128181613Y-87887716D01*
X128181612Y-87887715D01*
X128181610Y-87887714D01*
X128124653Y-87858692D01*
X127999223Y-87794782D01*
X127804534Y-87731523D01*
X127629995Y-87703879D01*
X127602352Y-87699501D01*
X127397648Y-87699501D01*
X127373329Y-87703352D01*
X127195465Y-87731523D01*
X127000776Y-87794782D01*
X126818386Y-87887716D01*
X126652786Y-88008029D01*
X126508028Y-88152787D01*
X126387715Y-88318387D01*
X126294781Y-88500777D01*
X126231522Y-88695466D01*
X126199500Y-88897649D01*
X123100500Y-88897649D01*
X123100500Y-76025513D01*
X123120185Y-75958474D01*
X123151614Y-75925195D01*
X123295102Y-75820945D01*
X123430945Y-75685102D01*
X123543865Y-75529681D01*
X123631082Y-75358509D01*
X123690447Y-75175801D01*
X123720500Y-74986055D01*
X123720500Y-74793945D01*
X123690447Y-74604199D01*
X123631082Y-74421491D01*
X123543865Y-74250319D01*
X123430945Y-74094898D01*
X123295102Y-73959055D01*
X123139681Y-73846135D01*
X122968506Y-73758916D01*
X122785802Y-73699553D01*
X122690928Y-73684526D01*
X122596055Y-73669500D01*
X122403945Y-73669500D01*
X122340696Y-73679517D01*
X122214197Y-73699553D01*
X122031493Y-73758916D01*
X121860318Y-73846135D01*
X121771645Y-73910560D01*
X121704898Y-73959055D01*
X121704896Y-73959057D01*
X121704895Y-73959057D01*
X121569057Y-74094895D01*
X121569057Y-74094896D01*
X121569055Y-74094898D01*
X121520560Y-74161645D01*
X121456135Y-74250318D01*
X121368916Y-74421493D01*
X121309553Y-74604197D01*
X121279500Y-74793945D01*
X121279500Y-74986054D01*
X121309553Y-75175802D01*
X121368916Y-75358506D01*
X121368918Y-75358509D01*
X121456135Y-75529681D01*
X121569055Y-75685102D01*
X121704898Y-75820945D01*
X121848386Y-75925195D01*
X121891051Y-75980525D01*
X121899500Y-76025513D01*
X121899500Y-92960397D01*
X121879815Y-93027436D01*
X121831800Y-93070879D01*
X121818389Y-93077712D01*
X121652786Y-93198028D01*
X121508028Y-93342786D01*
X121387715Y-93508386D01*
X121294781Y-93690776D01*
X121231522Y-93885465D01*
X121199500Y-94087648D01*
X120050500Y-94087648D01*
X120018477Y-93885466D01*
X120015810Y-93877259D01*
X119989127Y-93795137D01*
X119955220Y-93690781D01*
X119955218Y-93690777D01*
X119955218Y-93690776D01*
X119892991Y-93568650D01*
X119862287Y-93508390D01*
X119846895Y-93487204D01*
X119741971Y-93342786D01*
X119597213Y-93198028D01*
X119431613Y-93077715D01*
X119431612Y-93077714D01*
X119431610Y-93077713D01*
X119367886Y-93045244D01*
X119249223Y-92984781D01*
X119054534Y-92921522D01*
X118879995Y-92893878D01*
X118852352Y-92889500D01*
X118647648Y-92889500D01*
X118623329Y-92893351D01*
X118445465Y-92921522D01*
X118250776Y-92984781D01*
X118068386Y-93077715D01*
X117902786Y-93198028D01*
X117758028Y-93342786D01*
X117637715Y-93508386D01*
X117544781Y-93690776D01*
X117481522Y-93885465D01*
X117449500Y-94087648D01*
X115500500Y-94087648D01*
X115500500Y-77333945D01*
X118739500Y-77333945D01*
X118739500Y-77526054D01*
X118769553Y-77715802D01*
X118828916Y-77898506D01*
X118828918Y-77898509D01*
X118916135Y-78069681D01*
X119029055Y-78225102D01*
X119164898Y-78360945D01*
X119320319Y-78473865D01*
X119491491Y-78561082D01*
X119491493Y-78561083D01*
X119582845Y-78590764D01*
X119674199Y-78620447D01*
X119863945Y-78650500D01*
X119863946Y-78650500D01*
X120056054Y-78650500D01*
X120056055Y-78650500D01*
X120245801Y-78620447D01*
X120428509Y-78561082D01*
X120599681Y-78473865D01*
X120755102Y-78360945D01*
X120890945Y-78225102D01*
X121003865Y-78069681D01*
X121091082Y-77898509D01*
X121150447Y-77715801D01*
X121180500Y-77526055D01*
X121180500Y-77333945D01*
X121150447Y-77144199D01*
X121091082Y-76961491D01*
X121003865Y-76790319D01*
X120890945Y-76634898D01*
X120755102Y-76499055D01*
X120599681Y-76386135D01*
X120560500Y-76366171D01*
X120428506Y-76298916D01*
X120245802Y-76239553D01*
X120150928Y-76224526D01*
X120056055Y-76209500D01*
X119863945Y-76209500D01*
X119800696Y-76219517D01*
X119674197Y-76239553D01*
X119491493Y-76298916D01*
X119320318Y-76386135D01*
X119231645Y-76450560D01*
X119164898Y-76499055D01*
X119164896Y-76499057D01*
X119164895Y-76499057D01*
X119029057Y-76634895D01*
X119029057Y-76634896D01*
X119029055Y-76634898D01*
X118980560Y-76701645D01*
X118916135Y-76790318D01*
X118828916Y-76961493D01*
X118769553Y-77144197D01*
X118739500Y-77333945D01*
X115500500Y-77333945D01*
X115500500Y-68254071D01*
X120900000Y-68254071D01*
X120900000Y-68505928D01*
X120939397Y-68754669D01*
X121017219Y-68994184D01*
X121131557Y-69218583D01*
X121205748Y-69320697D01*
X121205748Y-69320698D01*
X121935387Y-68591059D01*
X121940889Y-68611591D01*
X122019881Y-68748408D01*
X122131592Y-68860119D01*
X122268409Y-68939111D01*
X122288940Y-68944612D01*
X121559300Y-69674250D01*
X121661415Y-69748441D01*
X121664399Y-69750270D01*
X121665295Y-69751260D01*
X121665359Y-69751307D01*
X121665349Y-69751320D01*
X121711276Y-69802080D01*
X121722701Y-69871009D01*
X121695047Y-69935173D01*
X121637093Y-69974200D01*
X121599613Y-69980000D01*
X121452155Y-69980000D01*
X121392627Y-69986401D01*
X121392620Y-69986403D01*
X121257913Y-70036645D01*
X121257906Y-70036649D01*
X121142812Y-70122809D01*
X121142809Y-70122812D01*
X121056649Y-70237906D01*
X121056645Y-70237913D01*
X121006403Y-70372620D01*
X121006401Y-70372627D01*
X121000000Y-70432155D01*
X121000000Y-71230000D01*
X121951518Y-71230000D01*
X121940889Y-71248409D01*
X121900000Y-71401009D01*
X121900000Y-71558991D01*
X121940889Y-71711591D01*
X121951518Y-71730000D01*
X121000000Y-71730000D01*
X121000000Y-72527844D01*
X121006401Y-72587372D01*
X121006403Y-72587379D01*
X121056645Y-72722086D01*
X121056649Y-72722093D01*
X121142809Y-72837187D01*
X121142812Y-72837190D01*
X121257906Y-72923350D01*
X121257913Y-72923354D01*
X121392620Y-72973596D01*
X121392627Y-72973598D01*
X121452155Y-72979999D01*
X121452172Y-72980000D01*
X122250000Y-72980000D01*
X122250000Y-72028482D01*
X122268409Y-72039111D01*
X122421009Y-72080000D01*
X122578991Y-72080000D01*
X122731591Y-72039111D01*
X122750000Y-72028482D01*
X122750000Y-72980000D01*
X123547828Y-72980000D01*
X123547844Y-72979999D01*
X123607372Y-72973598D01*
X123607379Y-72973596D01*
X123742086Y-72923354D01*
X123742093Y-72923350D01*
X123857187Y-72837190D01*
X123857190Y-72837187D01*
X123943350Y-72722093D01*
X123943354Y-72722086D01*
X123993596Y-72587379D01*
X123993598Y-72587372D01*
X123999999Y-72527844D01*
X124000000Y-72527827D01*
X124000000Y-71730000D01*
X123048482Y-71730000D01*
X123059111Y-71711591D01*
X123100000Y-71558991D01*
X123100000Y-71401009D01*
X123059111Y-71248409D01*
X123048482Y-71230000D01*
X124000000Y-71230000D01*
X124000000Y-70432172D01*
X123999999Y-70432155D01*
X123993598Y-70372627D01*
X123993596Y-70372620D01*
X123943354Y-70237913D01*
X123943350Y-70237906D01*
X123857190Y-70122812D01*
X123857187Y-70122809D01*
X123742093Y-70036649D01*
X123742086Y-70036645D01*
X123607379Y-69986403D01*
X123607372Y-69986401D01*
X123547844Y-69980000D01*
X123400387Y-69980000D01*
X123333348Y-69960315D01*
X123287593Y-69907511D01*
X123277649Y-69838353D01*
X123306674Y-69774797D01*
X123335591Y-69750277D01*
X123338571Y-69748450D01*
X123440697Y-69674250D01*
X123440698Y-69674250D01*
X122711059Y-68944612D01*
X122731591Y-68939111D01*
X122868408Y-68860119D01*
X122980119Y-68748408D01*
X123059111Y-68611591D01*
X123064612Y-68591060D01*
X123794250Y-69320698D01*
X123794250Y-69320697D01*
X123868442Y-69218581D01*
X123868446Y-69218575D01*
X123982780Y-68994184D01*
X124060602Y-68754669D01*
X124100000Y-68505928D01*
X124100000Y-68254071D01*
X124060602Y-68005330D01*
X123982780Y-67765815D01*
X123868442Y-67541416D01*
X123794250Y-67439301D01*
X123794250Y-67439300D01*
X123064612Y-68168939D01*
X123059111Y-68148409D01*
X122980119Y-68011592D01*
X122868408Y-67899881D01*
X122731591Y-67820889D01*
X122711058Y-67815387D01*
X123440698Y-67085748D01*
X123338583Y-67011557D01*
X123114184Y-66897219D01*
X122874669Y-66819397D01*
X122625928Y-66780000D01*
X122374072Y-66780000D01*
X122125330Y-66819397D01*
X121885815Y-66897219D01*
X121661413Y-67011559D01*
X121559301Y-67085747D01*
X121559300Y-67085748D01*
X122288940Y-67815387D01*
X122268409Y-67820889D01*
X122131592Y-67899881D01*
X122019881Y-68011592D01*
X121940889Y-68148409D01*
X121935387Y-68168940D01*
X121205748Y-67439300D01*
X121205747Y-67439301D01*
X121131559Y-67541413D01*
X121017219Y-67765815D01*
X120939397Y-68005330D01*
X120900000Y-68254071D01*
X115500500Y-68254071D01*
X115500500Y-64999995D01*
X120994858Y-64999995D01*
X120994859Y-65000007D01*
X121015070Y-65245831D01*
X121075159Y-65485055D01*
X121075162Y-65485063D01*
X121173512Y-65711253D01*
X121173514Y-65711256D01*
X121307492Y-65918355D01*
X121473496Y-66100790D01*
X121667068Y-66253664D01*
X121883008Y-66372869D01*
X121883017Y-66372873D01*
X122115508Y-66455203D01*
X122115513Y-66455204D01*
X122115518Y-66455206D01*
X122115524Y-66455207D01*
X122115528Y-66455208D01*
X122165797Y-66464162D01*
X122358354Y-66498461D01*
X122358347Y-66498461D01*
X122377566Y-66498695D01*
X122604993Y-66501475D01*
X122848813Y-66464165D01*
X123083266Y-66387534D01*
X123302054Y-66273640D01*
X123499303Y-66125542D01*
X123669714Y-65947216D01*
X123808712Y-65743452D01*
X123912564Y-65519722D01*
X123978481Y-65282035D01*
X124004692Y-65036774D01*
X123990493Y-64790525D01*
X123966020Y-64681928D01*
X123936268Y-64549907D01*
X123894044Y-64445921D01*
X123843468Y-64321366D01*
X123714589Y-64111055D01*
X123714588Y-64111054D01*
X123714587Y-64111052D01*
X123639601Y-64024487D01*
X123553092Y-63924618D01*
X123363313Y-63767061D01*
X123363311Y-63767059D01*
X123363303Y-63767054D01*
X123150349Y-63642614D01*
X122919927Y-63554624D01*
X122855731Y-63541563D01*
X122678215Y-63505447D01*
X122678216Y-63505447D01*
X122637132Y-63503940D01*
X122431722Y-63496408D01*
X122431720Y-63496408D01*
X122431717Y-63496408D01*
X122187062Y-63527750D01*
X121950815Y-63598627D01*
X121950813Y-63598628D01*
X121729302Y-63707144D01*
X121528500Y-63850374D01*
X121528493Y-63850380D01*
X121353777Y-64024487D01*
X121353773Y-64024492D01*
X121209843Y-64224791D01*
X121209840Y-64224797D01*
X121100555Y-64445918D01*
X121100554Y-64445923D01*
X121028850Y-64681928D01*
X120996657Y-64926459D01*
X120996656Y-64926480D01*
X120994858Y-64999995D01*
X115500500Y-64999995D01*
X115500500Y-59954038D01*
X120899500Y-59954038D01*
X120899500Y-60205961D01*
X120938910Y-60454785D01*
X121016760Y-60694383D01*
X121131132Y-60918848D01*
X121279201Y-61122649D01*
X121279205Y-61122654D01*
X121457345Y-61300794D01*
X121457350Y-61300798D01*
X121635117Y-61429952D01*
X121661155Y-61448870D01*
X121804184Y-61521747D01*
X121885616Y-61563239D01*
X121885618Y-61563239D01*
X121885621Y-61563241D01*
X122125215Y-61641090D01*
X122374038Y-61680500D01*
X122374039Y-61680500D01*
X122625961Y-61680500D01*
X122625962Y-61680500D01*
X122874785Y-61641090D01*
X123056928Y-61581907D01*
X123126764Y-61579912D01*
X123182923Y-61612158D01*
X124403181Y-62832416D01*
X124436666Y-62893739D01*
X124439500Y-62920097D01*
X124439500Y-76294486D01*
X124419815Y-76361525D01*
X124388386Y-76394804D01*
X124244896Y-76499056D01*
X124109057Y-76634895D01*
X124109057Y-76634896D01*
X124109055Y-76634898D01*
X124060560Y-76701645D01*
X123996135Y-76790318D01*
X123908916Y-76961493D01*
X123849553Y-77144197D01*
X123819500Y-77333945D01*
X123819500Y-77526054D01*
X123849553Y-77715802D01*
X123908916Y-77898506D01*
X123908918Y-77898509D01*
X123996135Y-78069681D01*
X124109055Y-78225102D01*
X124244898Y-78360945D01*
X124400319Y-78473865D01*
X124571491Y-78561082D01*
X124571493Y-78561083D01*
X124662845Y-78590764D01*
X124754199Y-78620447D01*
X124943945Y-78650500D01*
X124943946Y-78650500D01*
X125136054Y-78650500D01*
X125136055Y-78650500D01*
X125325801Y-78620447D01*
X125508509Y-78561082D01*
X125679681Y-78473865D01*
X125835102Y-78360945D01*
X125970945Y-78225102D01*
X126083865Y-78069681D01*
X126171082Y-77898509D01*
X126230447Y-77715801D01*
X126260500Y-77526055D01*
X126260500Y-77333945D01*
X126230447Y-77144199D01*
X126171082Y-76961491D01*
X126083865Y-76790319D01*
X125970945Y-76634898D01*
X125835102Y-76499055D01*
X125799690Y-76473327D01*
X125691614Y-76394804D01*
X125648949Y-76339473D01*
X125640500Y-76294486D01*
X125640500Y-62540945D01*
X125640500Y-62540943D01*
X125599577Y-62388216D01*
X125547546Y-62298094D01*
X125520524Y-62251290D01*
X125520521Y-62251286D01*
X125520520Y-62251284D01*
X125408716Y-62139480D01*
X125408715Y-62139479D01*
X125404385Y-62135149D01*
X125404374Y-62135139D01*
X124032158Y-60762923D01*
X123998673Y-60701600D01*
X124001907Y-60636928D01*
X124061090Y-60454785D01*
X124100500Y-60205962D01*
X124100500Y-59954038D01*
X124061090Y-59705215D01*
X123983241Y-59465621D01*
X123983239Y-59465618D01*
X123983239Y-59465616D01*
X123941747Y-59384184D01*
X123868870Y-59241155D01*
X123849952Y-59215117D01*
X123720798Y-59037350D01*
X123720794Y-59037345D01*
X123542654Y-58859205D01*
X123542649Y-58859201D01*
X123338848Y-58711132D01*
X123338847Y-58711131D01*
X123338845Y-58711130D01*
X123268747Y-58675413D01*
X123114383Y-58596760D01*
X122874785Y-58518910D01*
X122625962Y-58479500D01*
X122374038Y-58479500D01*
X122249626Y-58499205D01*
X122125214Y-58518910D01*
X121885616Y-58596760D01*
X121661151Y-58711132D01*
X121457350Y-58859201D01*
X121457345Y-58859205D01*
X121279205Y-59037345D01*
X121279201Y-59037350D01*
X121131132Y-59241151D01*
X121016760Y-59465616D01*
X120938910Y-59705214D01*
X120899500Y-59954038D01*
X115500500Y-59954038D01*
X115500500Y-53003732D01*
X115500726Y-52996245D01*
X115518270Y-52706204D01*
X115520075Y-52691339D01*
X115571779Y-52409201D01*
X115575363Y-52394663D01*
X115660698Y-52120811D01*
X115666001Y-52106831D01*
X115783726Y-51845257D01*
X115790679Y-51832011D01*
X115830958Y-51765380D01*
X115939074Y-51586533D01*
X115947566Y-51574229D01*
X116124480Y-51348416D01*
X116134395Y-51337225D01*
X116337225Y-51134395D01*
X116348416Y-51124480D01*
X116574229Y-50947566D01*
X116586539Y-50939071D01*
X116832011Y-50790679D01*
X116845257Y-50783726D01*
X117106841Y-50665996D01*
X117120811Y-50660698D01*
X117394667Y-50575361D01*
X117409197Y-50571779D01*
X117691343Y-50520074D01*
X117706200Y-50518270D01*
X117996246Y-50500726D01*
X118003733Y-50500500D01*
X141934108Y-50500500D01*
X141996249Y-50500500D01*
X142003736Y-50500726D01*
G37*
%TD.AperFunction*%
%TD*%
M02*
