%TF.GenerationSoftware,KiCad,Pcbnew,9.0.1*%
%TF.CreationDate,2025-05-31T19:51:22+10:00*%
%TF.ProjectId,VCA,5643412e-6b69-4636-9164-5f7063625858,rev?*%
%TF.SameCoordinates,Original*%
%TF.FileFunction,Legend,Top*%
%TF.FilePolarity,Positive*%
%FSLAX46Y46*%
G04 Gerber Fmt 4.6, Leading zero omitted, Abs format (unit mm)*
G04 Created by KiCad (PCBNEW 9.0.1) date 2025-05-31 19:51:22*
%MOMM*%
%LPD*%
G01*
G04 APERTURE LIST*
%ADD10C,0.500000*%
%ADD11C,0.300000*%
%ADD12C,0.150000*%
%ADD13C,0.120000*%
G04 APERTURE END LIST*
D10*
X141500000Y-119750000D02*
G75*
G02*
X143000000Y-121250000I0J-1500000D01*
G01*
X143000001Y-124250001D02*
G75*
G02*
X141500001Y-125750001I-1500001J1D01*
G01*
X143000000Y-121250000D02*
X143000000Y-124250000D01*
X133500000Y-119749999D02*
X141500000Y-119750000D01*
X131999999Y-121249999D02*
G75*
G02*
X133499999Y-119749999I1500001J-1D01*
G01*
X133499999Y-125750001D02*
G75*
G02*
X131999999Y-124250001I1J1500001D01*
G01*
X131999999Y-121249999D02*
X131999999Y-124249999D01*
X133499999Y-125750000D02*
X141500001Y-125750001D01*
D11*
X121452381Y-55909638D02*
X121452381Y-53909638D01*
X122404762Y-55909638D02*
X122404762Y-53909638D01*
X122404762Y-53909638D02*
X123547619Y-55909638D01*
X123547619Y-55909638D02*
X123547619Y-53909638D01*
D10*
X133714661Y-121356857D02*
X134714661Y-124356857D01*
X134714661Y-124356857D02*
X135714661Y-121356857D01*
X138428947Y-124071142D02*
X138286090Y-124214000D01*
X138286090Y-124214000D02*
X137857518Y-124356857D01*
X137857518Y-124356857D02*
X137571804Y-124356857D01*
X137571804Y-124356857D02*
X137143233Y-124214000D01*
X137143233Y-124214000D02*
X136857518Y-123928285D01*
X136857518Y-123928285D02*
X136714661Y-123642571D01*
X136714661Y-123642571D02*
X136571804Y-123071142D01*
X136571804Y-123071142D02*
X136571804Y-122642571D01*
X136571804Y-122642571D02*
X136714661Y-122071142D01*
X136714661Y-122071142D02*
X136857518Y-121785428D01*
X136857518Y-121785428D02*
X137143233Y-121499714D01*
X137143233Y-121499714D02*
X137571804Y-121356857D01*
X137571804Y-121356857D02*
X137857518Y-121356857D01*
X137857518Y-121356857D02*
X138286090Y-121499714D01*
X138286090Y-121499714D02*
X138428947Y-121642571D01*
X139571804Y-123499714D02*
X141000376Y-123499714D01*
X139286090Y-124356857D02*
X140286090Y-121356857D01*
X140286090Y-121356857D02*
X141286090Y-124356857D01*
D11*
X122261904Y-146719161D02*
X122166666Y-146814400D01*
X122166666Y-146814400D02*
X121880952Y-146909638D01*
X121880952Y-146909638D02*
X121690476Y-146909638D01*
X121690476Y-146909638D02*
X121404761Y-146814400D01*
X121404761Y-146814400D02*
X121214285Y-146623923D01*
X121214285Y-146623923D02*
X121119047Y-146433447D01*
X121119047Y-146433447D02*
X121023809Y-146052495D01*
X121023809Y-146052495D02*
X121023809Y-145766780D01*
X121023809Y-145766780D02*
X121119047Y-145385828D01*
X121119047Y-145385828D02*
X121214285Y-145195352D01*
X121214285Y-145195352D02*
X121404761Y-145004876D01*
X121404761Y-145004876D02*
X121690476Y-144909638D01*
X121690476Y-144909638D02*
X121880952Y-144909638D01*
X121880952Y-144909638D02*
X122166666Y-145004876D01*
X122166666Y-145004876D02*
X122261904Y-145100114D01*
X122833333Y-144909638D02*
X123499999Y-146909638D01*
X123499999Y-146909638D02*
X124166666Y-144909638D01*
X135499999Y-53909638D02*
X135880952Y-53909638D01*
X135880952Y-53909638D02*
X136071428Y-54004876D01*
X136071428Y-54004876D02*
X136261904Y-54195352D01*
X136261904Y-54195352D02*
X136357142Y-54576304D01*
X136357142Y-54576304D02*
X136357142Y-55242971D01*
X136357142Y-55242971D02*
X136261904Y-55623923D01*
X136261904Y-55623923D02*
X136071428Y-55814400D01*
X136071428Y-55814400D02*
X135880952Y-55909638D01*
X135880952Y-55909638D02*
X135499999Y-55909638D01*
X135499999Y-55909638D02*
X135309523Y-55814400D01*
X135309523Y-55814400D02*
X135119047Y-55623923D01*
X135119047Y-55623923D02*
X135023809Y-55242971D01*
X135023809Y-55242971D02*
X135023809Y-54576304D01*
X135023809Y-54576304D02*
X135119047Y-54195352D01*
X135119047Y-54195352D02*
X135309523Y-54004876D01*
X135309523Y-54004876D02*
X135499999Y-53909638D01*
X137214285Y-53909638D02*
X137214285Y-55528685D01*
X137214285Y-55528685D02*
X137309523Y-55719161D01*
X137309523Y-55719161D02*
X137404761Y-55814400D01*
X137404761Y-55814400D02*
X137595237Y-55909638D01*
X137595237Y-55909638D02*
X137976190Y-55909638D01*
X137976190Y-55909638D02*
X138166666Y-55814400D01*
X138166666Y-55814400D02*
X138261904Y-55719161D01*
X138261904Y-55719161D02*
X138357142Y-55528685D01*
X138357142Y-55528685D02*
X138357142Y-53909638D01*
X139023809Y-53909638D02*
X140166666Y-53909638D01*
X139595237Y-55909638D02*
X139595237Y-53909638D01*
D12*
X126404761Y-113550057D02*
X126309523Y-113502438D01*
X126309523Y-113502438D02*
X126214285Y-113407200D01*
X126214285Y-113407200D02*
X126071428Y-113264342D01*
X126071428Y-113264342D02*
X125976190Y-113216723D01*
X125976190Y-113216723D02*
X125880952Y-113216723D01*
X125928571Y-113454819D02*
X125833333Y-113407200D01*
X125833333Y-113407200D02*
X125738095Y-113311961D01*
X125738095Y-113311961D02*
X125690476Y-113121485D01*
X125690476Y-113121485D02*
X125690476Y-112788152D01*
X125690476Y-112788152D02*
X125738095Y-112597676D01*
X125738095Y-112597676D02*
X125833333Y-112502438D01*
X125833333Y-112502438D02*
X125928571Y-112454819D01*
X125928571Y-112454819D02*
X126119047Y-112454819D01*
X126119047Y-112454819D02*
X126214285Y-112502438D01*
X126214285Y-112502438D02*
X126309523Y-112597676D01*
X126309523Y-112597676D02*
X126357142Y-112788152D01*
X126357142Y-112788152D02*
X126357142Y-113121485D01*
X126357142Y-113121485D02*
X126309523Y-113311961D01*
X126309523Y-113311961D02*
X126214285Y-113407200D01*
X126214285Y-113407200D02*
X126119047Y-113454819D01*
X126119047Y-113454819D02*
X125928571Y-113454819D01*
X127309523Y-113454819D02*
X126738095Y-113454819D01*
X127023809Y-113454819D02*
X127023809Y-112454819D01*
X127023809Y-112454819D02*
X126928571Y-112597676D01*
X126928571Y-112597676D02*
X126833333Y-112692914D01*
X126833333Y-112692914D02*
X126738095Y-112740533D01*
X129243095Y-91314820D02*
X129243095Y-92124343D01*
X129243095Y-92124343D02*
X129290714Y-92219581D01*
X129290714Y-92219581D02*
X129338333Y-92267201D01*
X129338333Y-92267201D02*
X129433571Y-92314820D01*
X129433571Y-92314820D02*
X129624047Y-92314820D01*
X129624047Y-92314820D02*
X129719285Y-92267201D01*
X129719285Y-92267201D02*
X129766904Y-92219581D01*
X129766904Y-92219581D02*
X129814523Y-92124343D01*
X129814523Y-92124343D02*
X129814523Y-91314820D01*
X130814523Y-92314820D02*
X130243095Y-92314820D01*
X130528809Y-92314820D02*
X130528809Y-91314820D01*
X130528809Y-91314820D02*
X130433571Y-91457677D01*
X130433571Y-91457677D02*
X130338333Y-91552915D01*
X130338333Y-91552915D02*
X130243095Y-91600534D01*
X126196666Y-69854819D02*
X126196666Y-70569104D01*
X126196666Y-70569104D02*
X126149047Y-70711961D01*
X126149047Y-70711961D02*
X126053809Y-70807200D01*
X126053809Y-70807200D02*
X125910952Y-70854819D01*
X125910952Y-70854819D02*
X125815714Y-70854819D01*
X127196666Y-70854819D02*
X126625238Y-70854819D01*
X126910952Y-70854819D02*
X126910952Y-69854819D01*
X126910952Y-69854819D02*
X126815714Y-69997676D01*
X126815714Y-69997676D02*
X126720476Y-70092914D01*
X126720476Y-70092914D02*
X126625238Y-70140533D01*
X137166666Y-140454819D02*
X137166666Y-141169104D01*
X137166666Y-141169104D02*
X137119047Y-141311961D01*
X137119047Y-141311961D02*
X137023809Y-141407200D01*
X137023809Y-141407200D02*
X136880952Y-141454819D01*
X136880952Y-141454819D02*
X136785714Y-141454819D01*
X138071428Y-140788152D02*
X138071428Y-141454819D01*
X137833333Y-140407200D02*
X137595238Y-141121485D01*
X137595238Y-141121485D02*
X138214285Y-141121485D01*
X124833333Y-89359581D02*
X124785714Y-89407201D01*
X124785714Y-89407201D02*
X124642857Y-89454820D01*
X124642857Y-89454820D02*
X124547619Y-89454820D01*
X124547619Y-89454820D02*
X124404762Y-89407201D01*
X124404762Y-89407201D02*
X124309524Y-89311962D01*
X124309524Y-89311962D02*
X124261905Y-89216724D01*
X124261905Y-89216724D02*
X124214286Y-89026248D01*
X124214286Y-89026248D02*
X124214286Y-88883391D01*
X124214286Y-88883391D02*
X124261905Y-88692915D01*
X124261905Y-88692915D02*
X124309524Y-88597677D01*
X124309524Y-88597677D02*
X124404762Y-88502439D01*
X124404762Y-88502439D02*
X124547619Y-88454820D01*
X124547619Y-88454820D02*
X124642857Y-88454820D01*
X124642857Y-88454820D02*
X124785714Y-88502439D01*
X124785714Y-88502439D02*
X124833333Y-88550058D01*
X125785714Y-89454820D02*
X125214286Y-89454820D01*
X125500000Y-89454820D02*
X125500000Y-88454820D01*
X125500000Y-88454820D02*
X125404762Y-88597677D01*
X125404762Y-88597677D02*
X125309524Y-88692915D01*
X125309524Y-88692915D02*
X125214286Y-88740534D01*
X118136666Y-130304819D02*
X118136666Y-131019104D01*
X118136666Y-131019104D02*
X118089047Y-131161961D01*
X118089047Y-131161961D02*
X117993809Y-131257200D01*
X117993809Y-131257200D02*
X117850952Y-131304819D01*
X117850952Y-131304819D02*
X117755714Y-131304819D01*
X118565238Y-130400057D02*
X118612857Y-130352438D01*
X118612857Y-130352438D02*
X118708095Y-130304819D01*
X118708095Y-130304819D02*
X118946190Y-130304819D01*
X118946190Y-130304819D02*
X119041428Y-130352438D01*
X119041428Y-130352438D02*
X119089047Y-130400057D01*
X119089047Y-130400057D02*
X119136666Y-130495295D01*
X119136666Y-130495295D02*
X119136666Y-130590533D01*
X119136666Y-130590533D02*
X119089047Y-130733390D01*
X119089047Y-130733390D02*
X118517619Y-131304819D01*
X118517619Y-131304819D02*
X119136666Y-131304819D01*
X128269819Y-78025238D02*
X127793628Y-78358571D01*
X128269819Y-78596666D02*
X127269819Y-78596666D01*
X127269819Y-78596666D02*
X127269819Y-78215714D01*
X127269819Y-78215714D02*
X127317438Y-78120476D01*
X127317438Y-78120476D02*
X127365057Y-78072857D01*
X127365057Y-78072857D02*
X127460295Y-78025238D01*
X127460295Y-78025238D02*
X127603152Y-78025238D01*
X127603152Y-78025238D02*
X127698390Y-78072857D01*
X127698390Y-78072857D02*
X127746009Y-78120476D01*
X127746009Y-78120476D02*
X127793628Y-78215714D01*
X127793628Y-78215714D02*
X127793628Y-78596666D01*
X127269819Y-77739523D02*
X128269819Y-77406190D01*
X128269819Y-77406190D02*
X127269819Y-77072857D01*
X128269819Y-76215714D02*
X128269819Y-76787142D01*
X128269819Y-76501428D02*
X127269819Y-76501428D01*
X127269819Y-76501428D02*
X127412676Y-76596666D01*
X127412676Y-76596666D02*
X127507914Y-76691904D01*
X127507914Y-76691904D02*
X127555533Y-76787142D01*
X133404761Y-113550057D02*
X133309523Y-113502438D01*
X133309523Y-113502438D02*
X133214285Y-113407200D01*
X133214285Y-113407200D02*
X133071428Y-113264342D01*
X133071428Y-113264342D02*
X132976190Y-113216723D01*
X132976190Y-113216723D02*
X132880952Y-113216723D01*
X132928571Y-113454819D02*
X132833333Y-113407200D01*
X132833333Y-113407200D02*
X132738095Y-113311961D01*
X132738095Y-113311961D02*
X132690476Y-113121485D01*
X132690476Y-113121485D02*
X132690476Y-112788152D01*
X132690476Y-112788152D02*
X132738095Y-112597676D01*
X132738095Y-112597676D02*
X132833333Y-112502438D01*
X132833333Y-112502438D02*
X132928571Y-112454819D01*
X132928571Y-112454819D02*
X133119047Y-112454819D01*
X133119047Y-112454819D02*
X133214285Y-112502438D01*
X133214285Y-112502438D02*
X133309523Y-112597676D01*
X133309523Y-112597676D02*
X133357142Y-112788152D01*
X133357142Y-112788152D02*
X133357142Y-113121485D01*
X133357142Y-113121485D02*
X133309523Y-113311961D01*
X133309523Y-113311961D02*
X133214285Y-113407200D01*
X133214285Y-113407200D02*
X133119047Y-113454819D01*
X133119047Y-113454819D02*
X132928571Y-113454819D01*
X133738095Y-112550057D02*
X133785714Y-112502438D01*
X133785714Y-112502438D02*
X133880952Y-112454819D01*
X133880952Y-112454819D02*
X134119047Y-112454819D01*
X134119047Y-112454819D02*
X134214285Y-112502438D01*
X134214285Y-112502438D02*
X134261904Y-112550057D01*
X134261904Y-112550057D02*
X134309523Y-112645295D01*
X134309523Y-112645295D02*
X134309523Y-112740533D01*
X134309523Y-112740533D02*
X134261904Y-112883390D01*
X134261904Y-112883390D02*
X133690476Y-113454819D01*
X133690476Y-113454819D02*
X134309523Y-113454819D01*
X132824819Y-136916666D02*
X132348628Y-137249999D01*
X132824819Y-137488094D02*
X131824819Y-137488094D01*
X131824819Y-137488094D02*
X131824819Y-137107142D01*
X131824819Y-137107142D02*
X131872438Y-137011904D01*
X131872438Y-137011904D02*
X131920057Y-136964285D01*
X131920057Y-136964285D02*
X132015295Y-136916666D01*
X132015295Y-136916666D02*
X132158152Y-136916666D01*
X132158152Y-136916666D02*
X132253390Y-136964285D01*
X132253390Y-136964285D02*
X132301009Y-137011904D01*
X132301009Y-137011904D02*
X132348628Y-137107142D01*
X132348628Y-137107142D02*
X132348628Y-137488094D01*
X131824819Y-136011904D02*
X131824819Y-136488094D01*
X131824819Y-136488094D02*
X132301009Y-136535713D01*
X132301009Y-136535713D02*
X132253390Y-136488094D01*
X132253390Y-136488094D02*
X132205771Y-136392856D01*
X132205771Y-136392856D02*
X132205771Y-136154761D01*
X132205771Y-136154761D02*
X132253390Y-136059523D01*
X132253390Y-136059523D02*
X132301009Y-136011904D01*
X132301009Y-136011904D02*
X132396247Y-135964285D01*
X132396247Y-135964285D02*
X132634342Y-135964285D01*
X132634342Y-135964285D02*
X132729580Y-136011904D01*
X132729580Y-136011904D02*
X132777200Y-136059523D01*
X132777200Y-136059523D02*
X132824819Y-136154761D01*
X132824819Y-136154761D02*
X132824819Y-136392856D01*
X132824819Y-136392856D02*
X132777200Y-136488094D01*
X132777200Y-136488094D02*
X132729580Y-136535713D01*
X137954819Y-104226666D02*
X137478628Y-104559999D01*
X137954819Y-104798094D02*
X136954819Y-104798094D01*
X136954819Y-104798094D02*
X136954819Y-104417142D01*
X136954819Y-104417142D02*
X137002438Y-104321904D01*
X137002438Y-104321904D02*
X137050057Y-104274285D01*
X137050057Y-104274285D02*
X137145295Y-104226666D01*
X137145295Y-104226666D02*
X137288152Y-104226666D01*
X137288152Y-104226666D02*
X137383390Y-104274285D01*
X137383390Y-104274285D02*
X137431009Y-104321904D01*
X137431009Y-104321904D02*
X137478628Y-104417142D01*
X137478628Y-104417142D02*
X137478628Y-104798094D01*
X136954819Y-103893332D02*
X136954819Y-103274285D01*
X136954819Y-103274285D02*
X137335771Y-103607618D01*
X137335771Y-103607618D02*
X137335771Y-103464761D01*
X137335771Y-103464761D02*
X137383390Y-103369523D01*
X137383390Y-103369523D02*
X137431009Y-103321904D01*
X137431009Y-103321904D02*
X137526247Y-103274285D01*
X137526247Y-103274285D02*
X137764342Y-103274285D01*
X137764342Y-103274285D02*
X137859580Y-103321904D01*
X137859580Y-103321904D02*
X137907200Y-103369523D01*
X137907200Y-103369523D02*
X137954819Y-103464761D01*
X137954819Y-103464761D02*
X137954819Y-103750475D01*
X137954819Y-103750475D02*
X137907200Y-103845713D01*
X137907200Y-103845713D02*
X137859580Y-103893332D01*
X128269819Y-123775238D02*
X127793628Y-124108571D01*
X128269819Y-124346666D02*
X127269819Y-124346666D01*
X127269819Y-124346666D02*
X127269819Y-123965714D01*
X127269819Y-123965714D02*
X127317438Y-123870476D01*
X127317438Y-123870476D02*
X127365057Y-123822857D01*
X127365057Y-123822857D02*
X127460295Y-123775238D01*
X127460295Y-123775238D02*
X127603152Y-123775238D01*
X127603152Y-123775238D02*
X127698390Y-123822857D01*
X127698390Y-123822857D02*
X127746009Y-123870476D01*
X127746009Y-123870476D02*
X127793628Y-123965714D01*
X127793628Y-123965714D02*
X127793628Y-124346666D01*
X127269819Y-123489523D02*
X128269819Y-123156190D01*
X128269819Y-123156190D02*
X127269819Y-122822857D01*
X127365057Y-122537142D02*
X127317438Y-122489523D01*
X127317438Y-122489523D02*
X127269819Y-122394285D01*
X127269819Y-122394285D02*
X127269819Y-122156190D01*
X127269819Y-122156190D02*
X127317438Y-122060952D01*
X127317438Y-122060952D02*
X127365057Y-122013333D01*
X127365057Y-122013333D02*
X127460295Y-121965714D01*
X127460295Y-121965714D02*
X127555533Y-121965714D01*
X127555533Y-121965714D02*
X127698390Y-122013333D01*
X127698390Y-122013333D02*
X128269819Y-122584761D01*
X128269819Y-122584761D02*
X128269819Y-121965714D01*
X122954819Y-104166666D02*
X122478628Y-104499999D01*
X122954819Y-104738094D02*
X121954819Y-104738094D01*
X121954819Y-104738094D02*
X121954819Y-104357142D01*
X121954819Y-104357142D02*
X122002438Y-104261904D01*
X122002438Y-104261904D02*
X122050057Y-104214285D01*
X122050057Y-104214285D02*
X122145295Y-104166666D01*
X122145295Y-104166666D02*
X122288152Y-104166666D01*
X122288152Y-104166666D02*
X122383390Y-104214285D01*
X122383390Y-104214285D02*
X122431009Y-104261904D01*
X122431009Y-104261904D02*
X122478628Y-104357142D01*
X122478628Y-104357142D02*
X122478628Y-104738094D01*
X122050057Y-103785713D02*
X122002438Y-103738094D01*
X122002438Y-103738094D02*
X121954819Y-103642856D01*
X121954819Y-103642856D02*
X121954819Y-103404761D01*
X121954819Y-103404761D02*
X122002438Y-103309523D01*
X122002438Y-103309523D02*
X122050057Y-103261904D01*
X122050057Y-103261904D02*
X122145295Y-103214285D01*
X122145295Y-103214285D02*
X122240533Y-103214285D01*
X122240533Y-103214285D02*
X122383390Y-103261904D01*
X122383390Y-103261904D02*
X122954819Y-103833332D01*
X122954819Y-103833332D02*
X122954819Y-103214285D01*
X141196666Y-69854819D02*
X141196666Y-70569104D01*
X141196666Y-70569104D02*
X141149047Y-70711961D01*
X141149047Y-70711961D02*
X141053809Y-70807200D01*
X141053809Y-70807200D02*
X140910952Y-70854819D01*
X140910952Y-70854819D02*
X140815714Y-70854819D01*
X141577619Y-69854819D02*
X142196666Y-69854819D01*
X142196666Y-69854819D02*
X141863333Y-70235771D01*
X141863333Y-70235771D02*
X142006190Y-70235771D01*
X142006190Y-70235771D02*
X142101428Y-70283390D01*
X142101428Y-70283390D02*
X142149047Y-70331009D01*
X142149047Y-70331009D02*
X142196666Y-70426247D01*
X142196666Y-70426247D02*
X142196666Y-70664342D01*
X142196666Y-70664342D02*
X142149047Y-70759580D01*
X142149047Y-70759580D02*
X142101428Y-70807200D01*
X142101428Y-70807200D02*
X142006190Y-70854819D01*
X142006190Y-70854819D02*
X141720476Y-70854819D01*
X141720476Y-70854819D02*
X141625238Y-70807200D01*
X141625238Y-70807200D02*
X141577619Y-70759580D01*
X119204819Y-104166667D02*
X118728628Y-104500000D01*
X119204819Y-104738095D02*
X118204819Y-104738095D01*
X118204819Y-104738095D02*
X118204819Y-104357143D01*
X118204819Y-104357143D02*
X118252438Y-104261905D01*
X118252438Y-104261905D02*
X118300057Y-104214286D01*
X118300057Y-104214286D02*
X118395295Y-104166667D01*
X118395295Y-104166667D02*
X118538152Y-104166667D01*
X118538152Y-104166667D02*
X118633390Y-104214286D01*
X118633390Y-104214286D02*
X118681009Y-104261905D01*
X118681009Y-104261905D02*
X118728628Y-104357143D01*
X118728628Y-104357143D02*
X118728628Y-104738095D01*
X119204819Y-103214286D02*
X119204819Y-103785714D01*
X119204819Y-103500000D02*
X118204819Y-103500000D01*
X118204819Y-103500000D02*
X118347676Y-103595238D01*
X118347676Y-103595238D02*
X118442914Y-103690476D01*
X118442914Y-103690476D02*
X118490533Y-103785714D01*
X141704819Y-104226666D02*
X141228628Y-104559999D01*
X141704819Y-104798094D02*
X140704819Y-104798094D01*
X140704819Y-104798094D02*
X140704819Y-104417142D01*
X140704819Y-104417142D02*
X140752438Y-104321904D01*
X140752438Y-104321904D02*
X140800057Y-104274285D01*
X140800057Y-104274285D02*
X140895295Y-104226666D01*
X140895295Y-104226666D02*
X141038152Y-104226666D01*
X141038152Y-104226666D02*
X141133390Y-104274285D01*
X141133390Y-104274285D02*
X141181009Y-104321904D01*
X141181009Y-104321904D02*
X141228628Y-104417142D01*
X141228628Y-104417142D02*
X141228628Y-104798094D01*
X141038152Y-103369523D02*
X141704819Y-103369523D01*
X140657200Y-103607618D02*
X141371485Y-103845713D01*
X141371485Y-103845713D02*
X141371485Y-103226666D01*
D13*
%TO.C,Q1*%
X124700000Y-111850000D02*
X128300000Y-111850000D01*
X124661522Y-111838478D02*
G75*
G02*
X126500000Y-107399999I1838478J1838478D01*
G01*
X126500000Y-107400000D02*
G75*
G02*
X128338478Y-111838478I0J-2600000D01*
G01*
%TO.C,U1*%
X127355000Y-92860001D02*
X127355000Y-103140001D01*
X127355000Y-103140001D02*
X132655000Y-103140001D01*
X129005000Y-92860001D02*
X127355000Y-92860001D01*
X132655000Y-92860001D02*
X131005000Y-92860001D01*
X132655000Y-103140001D02*
X132655000Y-92860001D01*
X131005000Y-92860001D02*
G75*
G02*
X129005000Y-92860001I-1000000J0D01*
G01*
%TO.C,J1*%
X118000000Y-59000000D02*
X121700000Y-59000000D01*
X118000000Y-69500000D02*
X118000000Y-59000000D01*
X118000000Y-69500000D02*
X121780000Y-69500000D01*
X123220000Y-69500000D02*
X127000000Y-69500000D01*
X123300000Y-59000000D02*
X127000000Y-59000000D01*
X123730000Y-72650000D02*
X122870000Y-72650000D01*
X123730000Y-72650000D02*
X123730000Y-71850000D01*
X127000000Y-69500000D02*
X127000000Y-59000000D01*
X124300000Y-65000000D02*
G75*
G02*
X120700000Y-65000000I-1800000J0D01*
G01*
X120700000Y-65000000D02*
G75*
G02*
X124300000Y-65000000I1800000J0D01*
G01*
%TO.C,J4*%
X133440000Y-142090000D02*
X133440000Y-149910000D01*
X133440000Y-143690000D02*
X134360000Y-143690000D01*
X133440000Y-149910000D02*
X141560000Y-149910000D01*
X134200000Y-146050000D02*
X134200000Y-147650000D01*
X134200000Y-147650000D02*
X135200000Y-147650000D01*
X134360000Y-142090000D02*
X133440000Y-142090000D01*
X134360000Y-143690000D02*
X134360000Y-142090000D01*
X134640000Y-143690000D02*
X134360000Y-143690000D01*
X134640000Y-143690000D02*
X134640000Y-142475000D01*
X134700000Y-147650000D02*
X134700000Y-149910000D01*
X135200000Y-146050000D02*
X134200000Y-146050000D01*
X135200000Y-147650000D02*
X135200000Y-146050000D01*
X135200000Y-147650000D02*
X135200000Y-149910000D01*
X136000000Y-145550000D02*
X139000000Y-145550000D01*
X136000000Y-149910000D02*
X136000000Y-145550000D01*
X139000000Y-145550000D02*
X139000000Y-149910000D01*
X139800000Y-146050000D02*
X140800000Y-146050000D01*
X139800000Y-147650000D02*
X139800000Y-146050000D01*
X140640000Y-142090000D02*
X140640000Y-143690000D01*
X140640000Y-143690000D02*
X140360000Y-143690000D01*
X140800000Y-146050000D02*
X140800000Y-147650000D01*
X140800000Y-147650000D02*
X139800000Y-147650000D01*
X141560000Y-142090000D02*
X140640000Y-142090000D01*
X141560000Y-143690000D02*
X140640000Y-143690000D01*
X141560000Y-149910000D02*
X141560000Y-142090000D01*
%TO.C,C1*%
X132620000Y-90370001D02*
X132620000Y-90033001D01*
X132620000Y-90370001D02*
X127380000Y-90370001D01*
X132620000Y-87967001D02*
X132620000Y-87630001D01*
X132620000Y-87630001D02*
X127380000Y-87630001D01*
X127380000Y-90370001D02*
X127380000Y-90033001D01*
X127380000Y-87967001D02*
X127380000Y-87630001D01*
%TO.C,J2*%
X127000000Y-142250000D02*
X123300000Y-142250000D01*
X127000000Y-131750000D02*
X127000000Y-142250000D01*
X127000000Y-131750000D02*
X123220000Y-131750000D01*
X121780000Y-131750000D02*
X118000000Y-131750000D01*
X121700000Y-142250000D02*
X118000000Y-142250000D01*
X121270000Y-128600000D02*
X122130000Y-128600000D01*
X121270000Y-128600000D02*
X121270000Y-129400000D01*
X118000000Y-131750000D02*
X118000000Y-142250000D01*
X124300000Y-136250000D02*
G75*
G02*
X120700000Y-136250000I-1800000J0D01*
G01*
X120700000Y-136250000D02*
G75*
G02*
X124300000Y-136250000I1800000J0D01*
G01*
%TO.C,RV1*%
X126675000Y-73890000D02*
X118325000Y-73890000D01*
X126675000Y-73890000D02*
X126675000Y-80080000D01*
X118325000Y-73890000D02*
X118325000Y-80080000D01*
X126675000Y-80080000D02*
X118325000Y-80080000D01*
X126420000Y-80080000D02*
X118580000Y-80080000D01*
X126420000Y-80080000D02*
X126420000Y-82110000D01*
X118580000Y-80080000D02*
X118580000Y-82110000D01*
X126420000Y-82110000D02*
X118580000Y-82110000D01*
%TO.C,Q2*%
X131700000Y-111850001D02*
X135300000Y-111850001D01*
X131661522Y-111838479D02*
G75*
G02*
X133500000Y-107400000I1838478J1838478D01*
G01*
X133500000Y-107400001D02*
G75*
G02*
X135338478Y-111838479I0J-2600000D01*
G01*
%TO.C,R5*%
X131370000Y-133480000D02*
X131370000Y-140020000D01*
X131040000Y-133480000D02*
X131370000Y-133480000D01*
X128960000Y-133480000D02*
X128630000Y-133480000D01*
X128630000Y-133480000D02*
X128630000Y-140020000D01*
X131370000Y-140020000D02*
X131040000Y-140020000D01*
X128630000Y-140020000D02*
X128960000Y-140020000D01*
%TO.C,R3*%
X136130000Y-101330000D02*
X136130000Y-94790000D01*
X136460000Y-101330000D02*
X136130000Y-101330000D01*
X138540000Y-101330000D02*
X138870000Y-101330000D01*
X138870000Y-101330000D02*
X138870000Y-94790000D01*
X136130000Y-94790000D02*
X136460000Y-94790000D01*
X138870000Y-94790000D02*
X138540000Y-94790000D01*
%TO.C,RV2*%
X126675000Y-119640000D02*
X118325000Y-119640000D01*
X126675000Y-119640000D02*
X126675000Y-125830000D01*
X118325000Y-119640000D02*
X118325000Y-125830000D01*
X126675000Y-125830000D02*
X118325000Y-125830000D01*
X126420000Y-125830000D02*
X118580000Y-125830000D01*
X126420000Y-125830000D02*
X126420000Y-127860000D01*
X118580000Y-125830000D02*
X118580000Y-127860000D01*
X126420000Y-127860000D02*
X118580000Y-127860000D01*
%TO.C,R2*%
X123870000Y-94730000D02*
X123870000Y-101270000D01*
X123540000Y-94730000D02*
X123870000Y-94730000D01*
X121460000Y-94730000D02*
X121130000Y-94730000D01*
X121130000Y-94730000D02*
X121130000Y-101270000D01*
X123870000Y-101270000D02*
X123540000Y-101270000D01*
X121130000Y-101270000D02*
X121460000Y-101270000D01*
%TO.C,J3*%
X133000000Y-59000000D02*
X136700000Y-59000000D01*
X133000000Y-69500000D02*
X133000000Y-59000000D01*
X133000000Y-69500000D02*
X136780000Y-69500000D01*
X138220000Y-69500000D02*
X142000000Y-69500000D01*
X138300000Y-59000000D02*
X142000000Y-59000000D01*
X138730000Y-72650000D02*
X137870000Y-72650000D01*
X138730000Y-72650000D02*
X138730000Y-71850000D01*
X142000000Y-69500000D02*
X142000000Y-59000000D01*
X139300000Y-65000000D02*
G75*
G02*
X135700000Y-65000000I-1800000J0D01*
G01*
X135700000Y-65000000D02*
G75*
G02*
X139300000Y-65000000I1800000J0D01*
G01*
%TO.C,R1*%
X120120000Y-94730000D02*
X120120000Y-101270000D01*
X119790000Y-94730000D02*
X120120000Y-94730000D01*
X117710000Y-94730000D02*
X117380000Y-94730000D01*
X117380000Y-94730000D02*
X117380000Y-101270000D01*
X120120000Y-101270000D02*
X119790000Y-101270000D01*
X117380000Y-101270000D02*
X117710000Y-101270000D01*
%TO.C,R4*%
X139880000Y-101330000D02*
X139880000Y-94790000D01*
X140210000Y-101330000D02*
X139880000Y-101330000D01*
X142290000Y-101330000D02*
X142620000Y-101330000D01*
X142620000Y-101330000D02*
X142620000Y-94790000D01*
X139880000Y-94790000D02*
X140210000Y-94790000D01*
X142620000Y-94790000D02*
X142290000Y-94790000D01*
%TD*%
M02*
