%TF.GenerationSoftware,KiCad,Pcbnew,9.0.1*%
%TF.CreationDate,2025-05-31T19:51:22+10:00*%
%TF.ProjectId,VCA,5643412e-6b69-4636-9164-5f7063625858,rev?*%
%TF.SameCoordinates,Original*%
%TF.FileFunction,Soldermask,Bot*%
%TF.FilePolarity,Negative*%
%FSLAX46Y46*%
G04 Gerber Fmt 4.6, Leading zero omitted, Abs format (unit mm)*
G04 Created by KiCad (PCBNEW 9.0.1) date 2025-05-31 19:51:22*
%MOMM*%
%LPD*%
G01*
G04 APERTURE LIST*
G04 Aperture macros list*
%AMRoundRect*
0 Rectangle with rounded corners*
0 $1 Rounding radius*
0 $2 $3 $4 $5 $6 $7 $8 $9 X,Y pos of 4 corners*
0 Add a 4 corners polygon primitive as box body*
4,1,4,$2,$3,$4,$5,$6,$7,$8,$9,$2,$3,0*
0 Add four circle primitives for the rounded corners*
1,1,$1+$1,$2,$3*
1,1,$1+$1,$4,$5*
1,1,$1+$1,$6,$7*
1,1,$1+$1,$8,$9*
0 Add four rect primitives between the rounded corners*
20,1,$1+$1,$2,$3,$4,$5,0*
20,1,$1+$1,$4,$5,$6,$7,0*
20,1,$1+$1,$6,$7,$8,$9,0*
20,1,$1+$1,$8,$9,$2,$3,0*%
G04 Aperture macros list end*
%ADD10O,1.350000X1.900000*%
%ADD11R,1.350000X1.900000*%
%ADD12RoundRect,0.250000X-0.550000X-0.550000X0.550000X-0.550000X0.550000X0.550000X-0.550000X0.550000X0*%
%ADD13C,1.600000*%
%ADD14R,2.000000X2.000000*%
%ADD15C,2.200000*%
%ADD16RoundRect,0.291666X-0.408334X-0.708334X0.408334X-0.708334X0.408334X0.708334X-0.408334X0.708334X0*%
%ADD17O,1.400000X2.000000*%
%ADD18C,1.440000*%
%ADD19O,1.600000X1.600000*%
G04 APERTURE END LIST*
D10*
%TO.C,Q1*%
X128230000Y-110000000D03*
X126500000Y-110000000D03*
D11*
X124730000Y-110000000D03*
%TD*%
D12*
%TO.C,U1*%
X126195000Y-94190001D03*
D13*
X126195000Y-96730001D03*
X126195000Y-99270001D03*
X126195000Y-101810001D03*
X133815000Y-101810001D03*
X133815000Y-99270001D03*
X133815000Y-96730001D03*
X133815000Y-94190001D03*
%TD*%
D14*
%TO.C,J1*%
X122500000Y-71480000D03*
D15*
X122500000Y-68380000D03*
X122500000Y-60080000D03*
%TD*%
D16*
%TO.C,J4*%
X135500000Y-143550000D03*
D17*
X137500000Y-143550000D03*
X139500000Y-143550000D03*
%TD*%
D13*
%TO.C,C1*%
X132500000Y-89000001D03*
X127500000Y-89000001D03*
%TD*%
D14*
%TO.C,J2*%
X122500000Y-129770000D03*
D15*
X122500000Y-132870000D03*
X122500000Y-141170000D03*
%TD*%
D18*
%TO.C,RV1*%
X125040000Y-77430000D03*
X122500000Y-74890000D03*
X119960000Y-77430000D03*
%TD*%
D10*
%TO.C,Q2*%
X135230000Y-110000001D03*
X133500000Y-110000001D03*
D11*
X131730000Y-110000001D03*
%TD*%
D13*
%TO.C,R5*%
X130000000Y-132940000D03*
D19*
X130000000Y-140560000D03*
%TD*%
D13*
%TO.C,R3*%
X137500000Y-101870000D03*
D19*
X137500000Y-94250000D03*
%TD*%
D18*
%TO.C,RV2*%
X125040000Y-123180000D03*
X122500000Y-120640000D03*
X119960000Y-123180000D03*
%TD*%
D13*
%TO.C,R2*%
X122500000Y-94190000D03*
D19*
X122500000Y-101810000D03*
%TD*%
D14*
%TO.C,J3*%
X137500000Y-71480000D03*
D15*
X137500000Y-68380000D03*
X137500000Y-60080000D03*
%TD*%
D13*
%TO.C,R1*%
X118750000Y-94190000D03*
D19*
X118750000Y-101810000D03*
%TD*%
D13*
%TO.C,R4*%
X141250000Y-101870000D03*
D19*
X141250000Y-94250000D03*
%TD*%
M02*
