%TF.GenerationSoftware,KiCad,Pcbnew,9.0.1*%
%TF.CreationDate,2025-05-31T19:51:22+10:00*%
%TF.ProjectId,VCA,5643412e-6b69-4636-9164-5f7063625858,rev?*%
%TF.SameCoordinates,Original*%
%TF.FileFunction,Legend,Bot*%
%TF.FilePolarity,Positive*%
%FSLAX46Y46*%
G04 Gerber Fmt 4.6, Leading zero omitted, Abs format (unit mm)*
G04 Created by KiCad (PCBNEW 9.0.1) date 2025-05-31 19:51:22*
%MOMM*%
%LPD*%
G01*
G04 APERTURE LIST*
%ADD10C,0.150000*%
%ADD11C,0.200000*%
%ADD12C,0.010000*%
G04 APERTURE END LIST*
D10*
X143104657Y-88037030D02*
X141904657Y-87637030D01*
X141904657Y-87637030D02*
X143104657Y-87237030D01*
X142018942Y-86151316D02*
X141961800Y-86208459D01*
X141961800Y-86208459D02*
X141904657Y-86379887D01*
X141904657Y-86379887D02*
X141904657Y-86494173D01*
X141904657Y-86494173D02*
X141961800Y-86665602D01*
X141961800Y-86665602D02*
X142076085Y-86779887D01*
X142076085Y-86779887D02*
X142190371Y-86837030D01*
X142190371Y-86837030D02*
X142418942Y-86894173D01*
X142418942Y-86894173D02*
X142590371Y-86894173D01*
X142590371Y-86894173D02*
X142818942Y-86837030D01*
X142818942Y-86837030D02*
X142933228Y-86779887D01*
X142933228Y-86779887D02*
X143047514Y-86665602D01*
X143047514Y-86665602D02*
X143104657Y-86494173D01*
X143104657Y-86494173D02*
X143104657Y-86379887D01*
X143104657Y-86379887D02*
X143047514Y-86208459D01*
X143047514Y-86208459D02*
X142990371Y-86151316D01*
X142247514Y-85694173D02*
X142247514Y-85122745D01*
X141904657Y-85808459D02*
X143104657Y-85408459D01*
X143104657Y-85408459D02*
X141904657Y-85008459D01*
X142704657Y-83808459D02*
X141904657Y-83522745D01*
X141904657Y-83522745D02*
X142704657Y-83237030D01*
X141904657Y-82151316D02*
X141904657Y-82837030D01*
X141904657Y-82494173D02*
X143104657Y-82494173D01*
X143104657Y-82494173D02*
X142933228Y-82608459D01*
X142933228Y-82608459D02*
X142818942Y-82722744D01*
X142818942Y-82722744D02*
X142761800Y-82837030D01*
X142361800Y-81637030D02*
X142361800Y-80722745D01*
X143104657Y-79922745D02*
X143104657Y-79808459D01*
X143104657Y-79808459D02*
X143047514Y-79694173D01*
X143047514Y-79694173D02*
X142990371Y-79637031D01*
X142990371Y-79637031D02*
X142876085Y-79579888D01*
X142876085Y-79579888D02*
X142647514Y-79522745D01*
X142647514Y-79522745D02*
X142361800Y-79522745D01*
X142361800Y-79522745D02*
X142133228Y-79579888D01*
X142133228Y-79579888D02*
X142018942Y-79637031D01*
X142018942Y-79637031D02*
X141961800Y-79694173D01*
X141961800Y-79694173D02*
X141904657Y-79808459D01*
X141904657Y-79808459D02*
X141904657Y-79922745D01*
X141904657Y-79922745D02*
X141961800Y-80037031D01*
X141961800Y-80037031D02*
X142018942Y-80094173D01*
X142018942Y-80094173D02*
X142133228Y-80151316D01*
X142133228Y-80151316D02*
X142361800Y-80208459D01*
X142361800Y-80208459D02*
X142647514Y-80208459D01*
X142647514Y-80208459D02*
X142876085Y-80151316D01*
X142876085Y-80151316D02*
X142990371Y-80094173D01*
X142990371Y-80094173D02*
X143047514Y-80037031D01*
X143047514Y-80037031D02*
X143104657Y-79922745D01*
X142361800Y-78094173D02*
X142361800Y-77179888D01*
X141904657Y-75694173D02*
X143104657Y-75694173D01*
X143104657Y-75694173D02*
X143104657Y-75237030D01*
X143104657Y-75237030D02*
X143047514Y-75122745D01*
X143047514Y-75122745D02*
X142990371Y-75065602D01*
X142990371Y-75065602D02*
X142876085Y-75008459D01*
X142876085Y-75008459D02*
X142704657Y-75008459D01*
X142704657Y-75008459D02*
X142590371Y-75065602D01*
X142590371Y-75065602D02*
X142533228Y-75122745D01*
X142533228Y-75122745D02*
X142476085Y-75237030D01*
X142476085Y-75237030D02*
X142476085Y-75694173D01*
X141904657Y-73979888D02*
X142533228Y-73979888D01*
X142533228Y-73979888D02*
X142647514Y-74037030D01*
X142647514Y-74037030D02*
X142704657Y-74151316D01*
X142704657Y-74151316D02*
X142704657Y-74379888D01*
X142704657Y-74379888D02*
X142647514Y-74494173D01*
X141961800Y-73979888D02*
X141904657Y-74094173D01*
X141904657Y-74094173D02*
X141904657Y-74379888D01*
X141904657Y-74379888D02*
X141961800Y-74494173D01*
X141961800Y-74494173D02*
X142076085Y-74551316D01*
X142076085Y-74551316D02*
X142190371Y-74551316D01*
X142190371Y-74551316D02*
X142304657Y-74494173D01*
X142304657Y-74494173D02*
X142361800Y-74379888D01*
X142361800Y-74379888D02*
X142361800Y-74094173D01*
X142361800Y-74094173D02*
X142418942Y-73979888D01*
X142704657Y-73408459D02*
X141904657Y-73408459D01*
X142590371Y-73408459D02*
X142647514Y-73351316D01*
X142647514Y-73351316D02*
X142704657Y-73237031D01*
X142704657Y-73237031D02*
X142704657Y-73065602D01*
X142704657Y-73065602D02*
X142647514Y-72951316D01*
X142647514Y-72951316D02*
X142533228Y-72894174D01*
X142533228Y-72894174D02*
X141904657Y-72894174D01*
X141961800Y-71808460D02*
X141904657Y-71922745D01*
X141904657Y-71922745D02*
X141904657Y-72151317D01*
X141904657Y-72151317D02*
X141961800Y-72265602D01*
X141961800Y-72265602D02*
X142018942Y-72322745D01*
X142018942Y-72322745D02*
X142133228Y-72379888D01*
X142133228Y-72379888D02*
X142476085Y-72379888D01*
X142476085Y-72379888D02*
X142590371Y-72322745D01*
X142590371Y-72322745D02*
X142647514Y-72265602D01*
X142647514Y-72265602D02*
X142704657Y-72151317D01*
X142704657Y-72151317D02*
X142704657Y-71922745D01*
X142704657Y-71922745D02*
X142647514Y-71808460D01*
X141904657Y-70779889D02*
X142533228Y-70779889D01*
X142533228Y-70779889D02*
X142647514Y-70837031D01*
X142647514Y-70837031D02*
X142704657Y-70951317D01*
X142704657Y-70951317D02*
X142704657Y-71179889D01*
X142704657Y-71179889D02*
X142647514Y-71294174D01*
X141961800Y-70779889D02*
X141904657Y-70894174D01*
X141904657Y-70894174D02*
X141904657Y-71179889D01*
X141904657Y-71179889D02*
X141961800Y-71294174D01*
X141961800Y-71294174D02*
X142076085Y-71351317D01*
X142076085Y-71351317D02*
X142190371Y-71351317D01*
X142190371Y-71351317D02*
X142304657Y-71294174D01*
X142304657Y-71294174D02*
X142361800Y-71179889D01*
X142361800Y-71179889D02*
X142361800Y-70894174D01*
X142361800Y-70894174D02*
X142418942Y-70779889D01*
X141904657Y-70208460D02*
X143104657Y-70208460D01*
X142361800Y-70094175D02*
X141904657Y-69751317D01*
X142704657Y-69751317D02*
X142247514Y-70208460D01*
X141961800Y-68779888D02*
X141904657Y-68894174D01*
X141904657Y-68894174D02*
X141904657Y-69122746D01*
X141904657Y-69122746D02*
X141961800Y-69237031D01*
X141961800Y-69237031D02*
X142076085Y-69294174D01*
X142076085Y-69294174D02*
X142533228Y-69294174D01*
X142533228Y-69294174D02*
X142647514Y-69237031D01*
X142647514Y-69237031D02*
X142704657Y-69122746D01*
X142704657Y-69122746D02*
X142704657Y-68894174D01*
X142704657Y-68894174D02*
X142647514Y-68779888D01*
X142647514Y-68779888D02*
X142533228Y-68722746D01*
X142533228Y-68722746D02*
X142418942Y-68722746D01*
X142418942Y-68722746D02*
X142304657Y-69294174D01*
X141904657Y-67637032D02*
X141904657Y-68208460D01*
X141904657Y-68208460D02*
X143104657Y-68208460D01*
X141961800Y-66779888D02*
X141904657Y-66894174D01*
X141904657Y-66894174D02*
X141904657Y-67122746D01*
X141904657Y-67122746D02*
X141961800Y-67237031D01*
X141961800Y-67237031D02*
X142076085Y-67294174D01*
X142076085Y-67294174D02*
X142533228Y-67294174D01*
X142533228Y-67294174D02*
X142647514Y-67237031D01*
X142647514Y-67237031D02*
X142704657Y-67122746D01*
X142704657Y-67122746D02*
X142704657Y-66894174D01*
X142704657Y-66894174D02*
X142647514Y-66779888D01*
X142647514Y-66779888D02*
X142533228Y-66722746D01*
X142533228Y-66722746D02*
X142418942Y-66722746D01*
X142418942Y-66722746D02*
X142304657Y-67294174D01*
X142704657Y-65694175D02*
X141733228Y-65694175D01*
X141733228Y-65694175D02*
X141618942Y-65751317D01*
X141618942Y-65751317D02*
X141561800Y-65808460D01*
X141561800Y-65808460D02*
X141504657Y-65922746D01*
X141504657Y-65922746D02*
X141504657Y-66094175D01*
X141504657Y-66094175D02*
X141561800Y-66208460D01*
X141961800Y-65694175D02*
X141904657Y-65808460D01*
X141904657Y-65808460D02*
X141904657Y-66037032D01*
X141904657Y-66037032D02*
X141961800Y-66151317D01*
X141961800Y-66151317D02*
X142018942Y-66208460D01*
X142018942Y-66208460D02*
X142133228Y-66265603D01*
X142133228Y-66265603D02*
X142476085Y-66265603D01*
X142476085Y-66265603D02*
X142590371Y-66208460D01*
X142590371Y-66208460D02*
X142647514Y-66151317D01*
X142647514Y-66151317D02*
X142704657Y-66037032D01*
X142704657Y-66037032D02*
X142704657Y-65808460D01*
X142704657Y-65808460D02*
X142647514Y-65694175D01*
X141961800Y-64665603D02*
X141904657Y-64779889D01*
X141904657Y-64779889D02*
X141904657Y-65008461D01*
X141904657Y-65008461D02*
X141961800Y-65122746D01*
X141961800Y-65122746D02*
X142076085Y-65179889D01*
X142076085Y-65179889D02*
X142533228Y-65179889D01*
X142533228Y-65179889D02*
X142647514Y-65122746D01*
X142647514Y-65122746D02*
X142704657Y-65008461D01*
X142704657Y-65008461D02*
X142704657Y-64779889D01*
X142704657Y-64779889D02*
X142647514Y-64665603D01*
X142647514Y-64665603D02*
X142533228Y-64608461D01*
X142533228Y-64608461D02*
X142418942Y-64608461D01*
X142418942Y-64608461D02*
X142304657Y-65179889D01*
X142704657Y-64094175D02*
X141904657Y-64094175D01*
X142590371Y-64094175D02*
X142647514Y-64037032D01*
X142647514Y-64037032D02*
X142704657Y-63922747D01*
X142704657Y-63922747D02*
X142704657Y-63751318D01*
X142704657Y-63751318D02*
X142647514Y-63637032D01*
X142647514Y-63637032D02*
X142533228Y-63579890D01*
X142533228Y-63579890D02*
X141904657Y-63579890D01*
X141904657Y-62494176D02*
X143104657Y-62494176D01*
X141961800Y-62494176D02*
X141904657Y-62608461D01*
X141904657Y-62608461D02*
X141904657Y-62837033D01*
X141904657Y-62837033D02*
X141961800Y-62951318D01*
X141961800Y-62951318D02*
X142018942Y-63008461D01*
X142018942Y-63008461D02*
X142133228Y-63065604D01*
X142133228Y-63065604D02*
X142476085Y-63065604D01*
X142476085Y-63065604D02*
X142590371Y-63008461D01*
X142590371Y-63008461D02*
X142647514Y-62951318D01*
X142647514Y-62951318D02*
X142704657Y-62837033D01*
X142704657Y-62837033D02*
X142704657Y-62608461D01*
X142704657Y-62608461D02*
X142647514Y-62494176D01*
X142990371Y-61065604D02*
X143047514Y-61008461D01*
X143047514Y-61008461D02*
X143104657Y-60894176D01*
X143104657Y-60894176D02*
X143104657Y-60608461D01*
X143104657Y-60608461D02*
X143047514Y-60494176D01*
X143047514Y-60494176D02*
X142990371Y-60437033D01*
X142990371Y-60437033D02*
X142876085Y-60379890D01*
X142876085Y-60379890D02*
X142761800Y-60379890D01*
X142761800Y-60379890D02*
X142590371Y-60437033D01*
X142590371Y-60437033D02*
X141904657Y-61122747D01*
X141904657Y-61122747D02*
X141904657Y-60379890D01*
X143104657Y-59637033D02*
X143104657Y-59522747D01*
X143104657Y-59522747D02*
X143047514Y-59408461D01*
X143047514Y-59408461D02*
X142990371Y-59351319D01*
X142990371Y-59351319D02*
X142876085Y-59294176D01*
X142876085Y-59294176D02*
X142647514Y-59237033D01*
X142647514Y-59237033D02*
X142361800Y-59237033D01*
X142361800Y-59237033D02*
X142133228Y-59294176D01*
X142133228Y-59294176D02*
X142018942Y-59351319D01*
X142018942Y-59351319D02*
X141961800Y-59408461D01*
X141961800Y-59408461D02*
X141904657Y-59522747D01*
X141904657Y-59522747D02*
X141904657Y-59637033D01*
X141904657Y-59637033D02*
X141961800Y-59751319D01*
X141961800Y-59751319D02*
X142018942Y-59808461D01*
X142018942Y-59808461D02*
X142133228Y-59865604D01*
X142133228Y-59865604D02*
X142361800Y-59922747D01*
X142361800Y-59922747D02*
X142647514Y-59922747D01*
X142647514Y-59922747D02*
X142876085Y-59865604D01*
X142876085Y-59865604D02*
X142990371Y-59808461D01*
X142990371Y-59808461D02*
X143047514Y-59751319D01*
X143047514Y-59751319D02*
X143104657Y-59637033D01*
X142990371Y-58779890D02*
X143047514Y-58722747D01*
X143047514Y-58722747D02*
X143104657Y-58608462D01*
X143104657Y-58608462D02*
X143104657Y-58322747D01*
X143104657Y-58322747D02*
X143047514Y-58208462D01*
X143047514Y-58208462D02*
X142990371Y-58151319D01*
X142990371Y-58151319D02*
X142876085Y-58094176D01*
X142876085Y-58094176D02*
X142761800Y-58094176D01*
X142761800Y-58094176D02*
X142590371Y-58151319D01*
X142590371Y-58151319D02*
X141904657Y-58837033D01*
X141904657Y-58837033D02*
X141904657Y-58094176D01*
X143104657Y-57008462D02*
X143104657Y-57579890D01*
X143104657Y-57579890D02*
X142533228Y-57637033D01*
X142533228Y-57637033D02*
X142590371Y-57579890D01*
X142590371Y-57579890D02*
X142647514Y-57465605D01*
X142647514Y-57465605D02*
X142647514Y-57179890D01*
X142647514Y-57179890D02*
X142590371Y-57065605D01*
X142590371Y-57065605D02*
X142533228Y-57008462D01*
X142533228Y-57008462D02*
X142418942Y-56951319D01*
X142418942Y-56951319D02*
X142133228Y-56951319D01*
X142133228Y-56951319D02*
X142018942Y-57008462D01*
X142018942Y-57008462D02*
X141961800Y-57065605D01*
X141961800Y-57065605D02*
X141904657Y-57179890D01*
X141904657Y-57179890D02*
X141904657Y-57465605D01*
X141904657Y-57465605D02*
X141961800Y-57579890D01*
X141961800Y-57579890D02*
X142018942Y-57637033D01*
D11*
X137593316Y-145483958D02*
X137593316Y-146451578D01*
X138077126Y-145967768D02*
X137109507Y-145967768D01*
X136807126Y-146874911D02*
X138077126Y-147298244D01*
X138077126Y-147298244D02*
X136807126Y-147721578D01*
X134867602Y-146149197D02*
X134807126Y-146028244D01*
X134807126Y-146028244D02*
X134807126Y-145846816D01*
X134807126Y-145846816D02*
X134867602Y-145665387D01*
X134867602Y-145665387D02*
X134988554Y-145544435D01*
X134988554Y-145544435D02*
X135109507Y-145483958D01*
X135109507Y-145483958D02*
X135351411Y-145423482D01*
X135351411Y-145423482D02*
X135532840Y-145423482D01*
X135532840Y-145423482D02*
X135774745Y-145483958D01*
X135774745Y-145483958D02*
X135895697Y-145544435D01*
X135895697Y-145544435D02*
X136016650Y-145665387D01*
X136016650Y-145665387D02*
X136077126Y-145846816D01*
X136077126Y-145846816D02*
X136077126Y-145967768D01*
X136077126Y-145967768D02*
X136016650Y-146149197D01*
X136016650Y-146149197D02*
X135956173Y-146209673D01*
X135956173Y-146209673D02*
X135532840Y-146209673D01*
X135532840Y-146209673D02*
X135532840Y-145967768D01*
X136077126Y-146753958D02*
X134807126Y-146753958D01*
X134807126Y-146753958D02*
X136077126Y-147479673D01*
X136077126Y-147479673D02*
X134807126Y-147479673D01*
X136077126Y-148084434D02*
X134807126Y-148084434D01*
X134807126Y-148084434D02*
X134807126Y-148386815D01*
X134807126Y-148386815D02*
X134867602Y-148568244D01*
X134867602Y-148568244D02*
X134988554Y-148689196D01*
X134988554Y-148689196D02*
X135109507Y-148749673D01*
X135109507Y-148749673D02*
X135351411Y-148810149D01*
X135351411Y-148810149D02*
X135532840Y-148810149D01*
X135532840Y-148810149D02*
X135774745Y-148749673D01*
X135774745Y-148749673D02*
X135895697Y-148689196D01*
X135895697Y-148689196D02*
X136016650Y-148568244D01*
X136016650Y-148568244D02*
X136077126Y-148386815D01*
X136077126Y-148386815D02*
X136077126Y-148084434D01*
X139593316Y-145483958D02*
X139593316Y-146451578D01*
X138807126Y-146874911D02*
X140077126Y-147298244D01*
X140077126Y-147298244D02*
X138807126Y-147721578D01*
D12*
%TO.C,Ref\u002A\u002A*%
X141754634Y-129396087D02*
X141963316Y-129776199D01*
X142068416Y-130000053D01*
X142078802Y-130026208D01*
X142221359Y-130385234D01*
X142337292Y-130770354D01*
X142417953Y-131162877D01*
X142465076Y-131570270D01*
X142480397Y-132000000D01*
X142476097Y-132231247D01*
X142443676Y-132651213D01*
X142378099Y-133052793D01*
X142277721Y-133443071D01*
X142140901Y-133829127D01*
X141992550Y-134159000D01*
X141965996Y-134218046D01*
X141881678Y-134380766D01*
X141647772Y-134769419D01*
X141382166Y-135131717D01*
X141086934Y-135466251D01*
X140764152Y-135771612D01*
X140415897Y-136046390D01*
X140044244Y-136289175D01*
X139651269Y-136498558D01*
X139239047Y-136673130D01*
X138809655Y-136811480D01*
X138365168Y-136912200D01*
X137907662Y-136973879D01*
X137889016Y-136975418D01*
X137782290Y-136981126D01*
X137651386Y-136984455D01*
X137511163Y-136985152D01*
X137376480Y-136982962D01*
X137314857Y-136980858D01*
X136888191Y-136948276D01*
X136482349Y-136883579D01*
X136089279Y-136784798D01*
X135700930Y-136649962D01*
X135309250Y-136477100D01*
X134988275Y-136306969D01*
X134607153Y-136063387D01*
X134253180Y-135787569D01*
X133925739Y-135478977D01*
X133624216Y-135137071D01*
X133347994Y-134761313D01*
X133281584Y-134659675D01*
X133059342Y-134271670D01*
X132874992Y-133868401D01*
X132728533Y-133452713D01*
X132619966Y-133027451D01*
X132549291Y-132595459D01*
X132516508Y-132159583D01*
X132521616Y-131722669D01*
X132564616Y-131287560D01*
X132579282Y-131209517D01*
X133610909Y-131209517D01*
X133611232Y-131340150D01*
X133619204Y-131479502D01*
X133634197Y-131614068D01*
X133655584Y-131730342D01*
X133657506Y-131738264D01*
X133684768Y-131823841D01*
X133725130Y-131904146D01*
X133783884Y-131986712D01*
X133866323Y-132079069D01*
X133977739Y-132188747D01*
X134152192Y-132353881D01*
X134140419Y-132483722D01*
X134138234Y-132515985D01*
X134149509Y-132654948D01*
X134197211Y-132773861D01*
X134282405Y-132875662D01*
X134370887Y-132938834D01*
X134495717Y-132984331D01*
X134631190Y-132991343D01*
X134773206Y-132959781D01*
X134917667Y-132889556D01*
X134943784Y-132874026D01*
X134993072Y-132850711D01*
X135048190Y-132835628D01*
X135121304Y-132825980D01*
X135224583Y-132818967D01*
X135271310Y-132815977D01*
X135378727Y-132806202D01*
X135477131Y-132793735D01*
X135549871Y-132780542D01*
X135599641Y-132769365D01*
X135645354Y-132763663D01*
X135672024Y-132771233D01*
X135692477Y-132793216D01*
X135716550Y-132841087D01*
X135734563Y-132902692D01*
X135737721Y-132951630D01*
X135722154Y-133000122D01*
X135681916Y-133061935D01*
X135658238Y-133096062D01*
X135627995Y-133147553D01*
X135616167Y-133179971D01*
X135618646Y-133202492D01*
X135641894Y-133255967D01*
X135692240Y-133319416D01*
X135772897Y-133396528D01*
X135887077Y-133490990D01*
X136098321Y-133657997D01*
X136124113Y-133817884D01*
X136125563Y-133826775D01*
X136140619Y-133910383D01*
X136155662Y-133981094D01*
X136167639Y-134024412D01*
X136174576Y-134058323D01*
X136154836Y-134096397D01*
X136137433Y-134119471D01*
X136110872Y-134177564D01*
X136086102Y-134252308D01*
X136067806Y-134328966D01*
X136060667Y-134392798D01*
X136060391Y-134405613D01*
X136052258Y-134435654D01*
X136024396Y-134451901D01*
X135965548Y-134462617D01*
X135931406Y-134469149D01*
X135846861Y-134494501D01*
X135766552Y-134528292D01*
X135694558Y-134571970D01*
X135607089Y-134656501D01*
X135556007Y-134753351D01*
X135540868Y-134857528D01*
X135561226Y-134964042D01*
X135616635Y-135067904D01*
X135706649Y-135164122D01*
X135830822Y-135247708D01*
X135883136Y-135275759D01*
X135928858Y-135300322D01*
X135947821Y-135310578D01*
X135959410Y-135332747D01*
X135966465Y-135373109D01*
X135966755Y-135411749D01*
X135958506Y-135429000D01*
X135926431Y-135435884D01*
X135876836Y-135453477D01*
X135829439Y-135465725D01*
X135753719Y-135476062D01*
X135669083Y-135481262D01*
X135543153Y-135492266D01*
X135389166Y-135530045D01*
X135255309Y-135591307D01*
X135148216Y-135672816D01*
X135074519Y-135771336D01*
X135069650Y-135781493D01*
X135054080Y-135864053D01*
X135074406Y-135948343D01*
X135126003Y-136026988D01*
X135204244Y-136092617D01*
X135304501Y-136137855D01*
X135308224Y-136138931D01*
X135385952Y-136154394D01*
X135484318Y-136165120D01*
X135582967Y-136168843D01*
X135680650Y-136164499D01*
X135817299Y-136139421D01*
X135941978Y-136087375D01*
X136070364Y-136003026D01*
X136129646Y-135959689D01*
X136165750Y-135938797D01*
X136184462Y-135938977D01*
X136193583Y-135957337D01*
X136196897Y-135966703D01*
X136236203Y-136009181D01*
X136307327Y-136043434D01*
X136401896Y-136067815D01*
X136511536Y-136080679D01*
X136627876Y-136080378D01*
X136742542Y-136065268D01*
X136806124Y-136047147D01*
X136894537Y-135998290D01*
X136950986Y-135931131D01*
X136970833Y-135850041D01*
X136963915Y-135786981D01*
X136932807Y-135676335D01*
X136879577Y-135545237D01*
X136807398Y-135400475D01*
X136719446Y-135248841D01*
X136618893Y-135097124D01*
X136610143Y-135084729D01*
X136567597Y-135023490D01*
X136537658Y-134978778D01*
X136526346Y-134959540D01*
X136532270Y-134958246D01*
X136571979Y-134956070D01*
X136642864Y-134954327D01*
X136737669Y-134953170D01*
X136849137Y-134952750D01*
X136887436Y-134952727D01*
X137002858Y-134951967D01*
X137087135Y-134949309D01*
X137149045Y-134943652D01*
X137197363Y-134933897D01*
X137240867Y-134918942D01*
X137288333Y-134897687D01*
X137338876Y-134871473D01*
X137408673Y-134828303D01*
X137457667Y-134789621D01*
X137490037Y-134762610D01*
X137530693Y-134744441D01*
X137590047Y-134733103D01*
X137679917Y-134725170D01*
X137782367Y-134713385D01*
X137891850Y-134692968D01*
X137982948Y-134668496D01*
X138116645Y-134623269D01*
X138184031Y-134680154D01*
X138256914Y-134731938D01*
X138379118Y-134796250D01*
X138520905Y-134852262D01*
X138669458Y-134894321D01*
X138734662Y-134909334D01*
X138790624Y-134925167D01*
X138820103Y-134941238D01*
X138831579Y-134962747D01*
X138833533Y-134994891D01*
X138840667Y-135058275D01*
X138881604Y-135154526D01*
X138952562Y-135231843D01*
X139046286Y-135283307D01*
X139155522Y-135302000D01*
X139200198Y-135300733D01*
X139278228Y-135286960D01*
X139346186Y-135252249D01*
X139420875Y-135189474D01*
X139432462Y-135178060D01*
X139479327Y-135111290D01*
X139484281Y-135050321D01*
X139447333Y-134995083D01*
X139418988Y-134966155D01*
X139405050Y-134944178D01*
X139418815Y-134931094D01*
X139461164Y-134904141D01*
X139522125Y-134870436D01*
X139621281Y-134808180D01*
X139743113Y-134704583D01*
X139848995Y-134585182D01*
X139926294Y-134462718D01*
X139928050Y-134459132D01*
X139958804Y-134389790D01*
X139976636Y-134327632D01*
X139984818Y-134256192D01*
X139986619Y-134159000D01*
X139978089Y-134022419D01*
X139950249Y-133913789D01*
X139898803Y-133823241D01*
X139819450Y-133739998D01*
X139731524Y-133682038D01*
X139627722Y-133657597D01*
X139510405Y-133672282D01*
X139502789Y-133674498D01*
X139417667Y-133716987D01*
X139325428Y-133789749D01*
X139234043Y-133884607D01*
X139151486Y-133993382D01*
X139085729Y-134107897D01*
X139014528Y-134257143D01*
X138738806Y-134176583D01*
X138719760Y-134170982D01*
X138613904Y-134138544D01*
X138520090Y-134107737D01*
X138447897Y-134081810D01*
X138406901Y-134064012D01*
X138341013Y-134041263D01*
X138229851Y-134034077D01*
X138084506Y-134048653D01*
X137906110Y-134084944D01*
X137836066Y-134101713D01*
X137755697Y-134120382D01*
X137697864Y-134133121D01*
X137671851Y-134137833D01*
X137662290Y-134128148D01*
X137642704Y-134087785D01*
X137620733Y-134026708D01*
X137598785Y-133966440D01*
X137529573Y-133824824D01*
X137427848Y-133659813D01*
X137292981Y-133470340D01*
X137254651Y-133418485D01*
X137713613Y-133418485D01*
X137779304Y-133524159D01*
X137810236Y-133570005D01*
X137845455Y-133612502D01*
X137868289Y-133628301D01*
X137902110Y-133623714D01*
X137979340Y-133606676D01*
X138073551Y-133581224D01*
X138170913Y-133551437D01*
X138257597Y-133521393D01*
X138319772Y-133495170D01*
X138352945Y-133479075D01*
X138401173Y-133461025D01*
X138452328Y-133452199D01*
X138519483Y-133450829D01*
X138615714Y-133455147D01*
X138689567Y-133458837D01*
X138762796Y-133459216D01*
X138817643Y-133452443D01*
X138867798Y-133436506D01*
X138926951Y-133409391D01*
X138956674Y-133394079D01*
X139054563Y-133327259D01*
X139133560Y-133239984D01*
X139204167Y-133121340D01*
X139254988Y-133021049D01*
X139393435Y-133012233D01*
X139423030Y-133010070D01*
X139506576Y-132998083D01*
X139554366Y-132977121D01*
X139571376Y-132943715D01*
X139562583Y-132894400D01*
X139554437Y-132876000D01*
X139502126Y-132818806D01*
X139418114Y-132773850D01*
X139310048Y-132744390D01*
X139185574Y-132733686D01*
X139018033Y-132747252D01*
X138841857Y-132794909D01*
X138666388Y-132879016D01*
X138485817Y-133001800D01*
X138466554Y-133001285D01*
X138422118Y-132974357D01*
X138360898Y-132921207D01*
X138329906Y-132892184D01*
X138277358Y-132850136D01*
X138235212Y-132831348D01*
X138191947Y-132829573D01*
X138150226Y-132838673D01*
X138115583Y-132864494D01*
X138098600Y-132910882D01*
X138098754Y-132982539D01*
X138115520Y-133084163D01*
X138148375Y-133220455D01*
X138149205Y-133223799D01*
X138148390Y-133253911D01*
X138123769Y-133278831D01*
X138067036Y-133307446D01*
X137984617Y-133341312D01*
X137770848Y-133405841D01*
X137713613Y-133418485D01*
X137254651Y-133418485D01*
X137248118Y-133409646D01*
X137202625Y-133345663D01*
X137173053Y-133301000D01*
X137164306Y-133282805D01*
X137175939Y-133274619D01*
X137214642Y-133248135D01*
X137269529Y-133210929D01*
X137381331Y-133123302D01*
X137513593Y-132993473D01*
X137647132Y-132837369D01*
X137732849Y-132720683D01*
X139824326Y-132720683D01*
X139900413Y-132804903D01*
X139928782Y-132838601D01*
X139963105Y-132888082D01*
X139976500Y-132920811D01*
X139977045Y-132924970D01*
X139986541Y-132935119D01*
X140011939Y-132942488D01*
X140023361Y-132943715D01*
X140058526Y-132947493D01*
X140131586Y-132950553D01*
X140236403Y-132952082D01*
X140378264Y-132952500D01*
X140453506Y-132952482D01*
X140573883Y-132952091D01*
X140660576Y-132950672D01*
X140719337Y-132947560D01*
X140755916Y-132942089D01*
X140776065Y-132933595D01*
X140785535Y-132921412D01*
X140790078Y-132904875D01*
X140793057Y-132883637D01*
X140800493Y-132823660D01*
X140811755Y-132729700D01*
X140826358Y-132605982D01*
X140843820Y-132456730D01*
X140863655Y-132286168D01*
X140885381Y-132098519D01*
X140908514Y-131898009D01*
X140932570Y-131688860D01*
X140957065Y-131475298D01*
X140981516Y-131261546D01*
X141005438Y-131051828D01*
X141028348Y-130850369D01*
X141049763Y-130661392D01*
X141069198Y-130489121D01*
X141086169Y-130337781D01*
X141100194Y-130211596D01*
X141110788Y-130114789D01*
X141117467Y-130051585D01*
X141119749Y-130026208D01*
X141101560Y-130019758D01*
X141054846Y-130014305D01*
X140993690Y-130010582D01*
X140932184Y-130009171D01*
X140884421Y-130010657D01*
X140864493Y-130015625D01*
X140864251Y-130017579D01*
X140860473Y-130050274D01*
X140852444Y-130120486D01*
X140840566Y-130224673D01*
X140825243Y-130359295D01*
X140806877Y-130520811D01*
X140785870Y-130705681D01*
X140763878Y-130899333D01*
X140762626Y-130910362D01*
X140737546Y-131131316D01*
X140711035Y-131365000D01*
X140663018Y-131788333D01*
X140558583Y-132709083D01*
X140191455Y-132714883D01*
X139824326Y-132720683D01*
X137732849Y-132720683D01*
X137775683Y-132662374D01*
X137892984Y-132475873D01*
X137901590Y-132462011D01*
X137919285Y-132448128D01*
X137949141Y-132451729D01*
X138004538Y-132472395D01*
X138073631Y-132494528D01*
X138165648Y-132504425D01*
X138238733Y-132488042D01*
X138286943Y-132447142D01*
X138304333Y-132383489D01*
X138301236Y-132356340D01*
X138275367Y-132305068D01*
X138219120Y-132251709D01*
X138127528Y-132190850D01*
X138105737Y-132176868D01*
X138023561Y-132099300D01*
X137976993Y-132007326D01*
X137968179Y-131907387D01*
X137996549Y-131814792D01*
X138538359Y-131814792D01*
X138539091Y-131823962D01*
X138543769Y-131870477D01*
X138551983Y-131947162D01*
X138562860Y-132045944D01*
X138575526Y-132158750D01*
X138611501Y-132476250D01*
X139484500Y-132481776D01*
X139599109Y-132482444D01*
X139803027Y-132483224D01*
X139969395Y-132483156D01*
X140101418Y-132482164D01*
X140202303Y-132480169D01*
X140275255Y-132477093D01*
X140323480Y-132472860D01*
X140350184Y-132467391D01*
X140358573Y-132460610D01*
X140359393Y-132450319D01*
X140364255Y-132402475D01*
X140372695Y-132324664D01*
X140383839Y-132224881D01*
X140396811Y-132111125D01*
X140433975Y-131788333D01*
X139485571Y-131788333D01*
X139302058Y-131788470D01*
X139098176Y-131789102D01*
X138931297Y-131790325D01*
X138798410Y-131792223D01*
X138696499Y-131794881D01*
X138622552Y-131798383D01*
X138573556Y-131802812D01*
X138546496Y-131808254D01*
X138538359Y-131814792D01*
X137996549Y-131814792D01*
X137999266Y-131805923D01*
X138016829Y-131774748D01*
X138058243Y-131708849D01*
X138105100Y-131640405D01*
X138113291Y-131628812D01*
X138163397Y-131539980D01*
X138177246Y-131464362D01*
X138154583Y-131393811D01*
X138095157Y-131320176D01*
X138085277Y-131310562D01*
X138008432Y-131254511D01*
X137941007Y-131237140D01*
X137887195Y-131257093D01*
X137851189Y-131313016D01*
X137837179Y-131403553D01*
X137834557Y-131465157D01*
X137822585Y-131524351D01*
X137794112Y-131569214D01*
X137741743Y-131610251D01*
X137658082Y-131657969D01*
X137605314Y-131687399D01*
X137540306Y-131731103D01*
X137496654Y-131775497D01*
X137462958Y-131830673D01*
X137427564Y-131933464D01*
X137416331Y-132072797D01*
X137437201Y-132227883D01*
X137441307Y-132246711D01*
X137447184Y-132302262D01*
X137436591Y-132353442D01*
X137406317Y-132420241D01*
X137405611Y-132421632D01*
X137305120Y-132591180D01*
X137194037Y-132726882D01*
X137074892Y-132826618D01*
X136950216Y-132888264D01*
X136822537Y-132909702D01*
X136817484Y-132909683D01*
X136758429Y-132906849D01*
X136672413Y-132900007D01*
X136569312Y-132890238D01*
X136459005Y-132878623D01*
X136351370Y-132866245D01*
X136256284Y-132854184D01*
X136183625Y-132843522D01*
X136143272Y-132835341D01*
X136133775Y-132829680D01*
X136106335Y-132792570D01*
X136082756Y-132735565D01*
X136079411Y-132724266D01*
X136067026Y-132671956D01*
X136070759Y-132643394D01*
X136091722Y-132624841D01*
X136201347Y-132555188D01*
X136349162Y-132450294D01*
X136481323Y-132343685D01*
X136592189Y-132240340D01*
X136676119Y-132145243D01*
X136727474Y-132063374D01*
X136737597Y-132040482D01*
X136754031Y-131992012D01*
X136751915Y-131953678D01*
X136731811Y-131905025D01*
X136679641Y-131829760D01*
X136596704Y-131775260D01*
X136492445Y-131756583D01*
X136466842Y-131757590D01*
X136387225Y-131779619D01*
X136324360Y-131834118D01*
X136271961Y-131925917D01*
X136200034Y-132056142D01*
X136109687Y-132161922D01*
X136008508Y-132232467D01*
X135895766Y-132270984D01*
X135770394Y-132277984D01*
X135653399Y-132248081D01*
X135551450Y-132183107D01*
X135471216Y-132084894D01*
X135456039Y-132055565D01*
X135422274Y-131943429D01*
X135411865Y-131816829D01*
X135425102Y-131691861D01*
X135462271Y-131584621D01*
X135511177Y-131507153D01*
X135580890Y-131432455D01*
X135669199Y-131371004D01*
X135780007Y-131321444D01*
X135917220Y-131282420D01*
X136084742Y-131252574D01*
X136286478Y-131230550D01*
X136526333Y-131214992D01*
X136623798Y-131210027D01*
X136774562Y-131201047D01*
X136891951Y-131191453D01*
X136981773Y-131180209D01*
X137049835Y-131166276D01*
X137101945Y-131148618D01*
X137143910Y-131126198D01*
X137181538Y-131097978D01*
X137206194Y-131073014D01*
X137238818Y-131004265D01*
X137236290Y-130928393D01*
X137201184Y-130852316D01*
X137136076Y-130782949D01*
X137043538Y-130727209D01*
X136952900Y-130687116D01*
X137024590Y-130580585D01*
X137035847Y-130563458D01*
X137092924Y-130452695D01*
X137113448Y-130352691D01*
X137098902Y-130256988D01*
X137098126Y-130254662D01*
X137042380Y-130151692D01*
X136955680Y-130074903D01*
X136842194Y-130026912D01*
X136706087Y-130010333D01*
X137838167Y-130010333D01*
X137849448Y-130089708D01*
X137853681Y-130121734D01*
X137862747Y-130194720D01*
X137874768Y-130294376D01*
X137888689Y-130411921D01*
X137903452Y-130538574D01*
X137915715Y-130643097D01*
X137928570Y-130749103D01*
X137939247Y-130833278D01*
X137946886Y-130888876D01*
X137950630Y-130909154D01*
X137957374Y-130911393D01*
X137993830Y-130924136D01*
X138050333Y-130944163D01*
X138077845Y-130954063D01*
X138141701Y-130977763D01*
X138185793Y-130995105D01*
X138201227Y-131000891D01*
X138218343Y-130996733D01*
X138214129Y-130961022D01*
X138212812Y-130954313D01*
X138205862Y-130907184D01*
X138204854Y-130899333D01*
X138429415Y-130899333D01*
X138440595Y-130968125D01*
X138444032Y-130991612D01*
X138444683Y-130996733D01*
X138452712Y-131059955D01*
X138463176Y-131150008D01*
X138473858Y-131248583D01*
X138479470Y-131301369D01*
X138490433Y-131399685D01*
X138500429Y-131483749D01*
X138507831Y-131539625D01*
X138519721Y-131619000D01*
X140455729Y-131619000D01*
X140482387Y-131359708D01*
X140492774Y-131259660D01*
X140504140Y-131152221D01*
X140513966Y-131061371D01*
X140520887Y-130999875D01*
X140532730Y-130899333D01*
X138429415Y-130899333D01*
X138204854Y-130899333D01*
X138195584Y-130827147D01*
X138182835Y-130721255D01*
X138168469Y-130596562D01*
X138153344Y-130460125D01*
X138104433Y-130010333D01*
X137838167Y-130010333D01*
X136706087Y-130010333D01*
X136687070Y-130010622D01*
X136561479Y-130030654D01*
X136455114Y-130084161D01*
X136364026Y-130173881D01*
X136284264Y-130302550D01*
X136248864Y-130372517D01*
X136149474Y-130296709D01*
X136111263Y-130268900D01*
X136027012Y-130213297D01*
X135949257Y-130168033D01*
X135848431Y-130115165D01*
X135883105Y-130048113D01*
X135890896Y-130032477D01*
X135925731Y-129951175D01*
X135960033Y-129856072D01*
X135989661Y-129760300D01*
X136010475Y-129676990D01*
X136018333Y-129619276D01*
X136015832Y-129577629D01*
X136003135Y-129543777D01*
X135973799Y-129521851D01*
X135921409Y-129509322D01*
X135839551Y-129503659D01*
X135721812Y-129502333D01*
X135600573Y-129503967D01*
X135509934Y-129510587D01*
X135451175Y-129524406D01*
X135419000Y-129547637D01*
X135408112Y-129582490D01*
X135413215Y-129631176D01*
X135420687Y-129676284D01*
X135430841Y-129755709D01*
X135439381Y-129841000D01*
X135451014Y-129978583D01*
X135052049Y-129978583D01*
X134950655Y-129979079D01*
X134778325Y-129983372D01*
X134638835Y-129992912D01*
X134525984Y-130008711D01*
X134433571Y-130031782D01*
X134355395Y-130063136D01*
X134285256Y-130103787D01*
X134252100Y-130128396D01*
X134165465Y-130209286D01*
X134070122Y-130316648D01*
X133971598Y-130442430D01*
X133875422Y-130578582D01*
X133787120Y-130717053D01*
X133712219Y-130849793D01*
X133656248Y-130968749D01*
X133624734Y-131065872D01*
X133618862Y-131101110D01*
X133610909Y-131209517D01*
X132579282Y-131209517D01*
X132645508Y-130857103D01*
X132764292Y-130434142D01*
X132920968Y-130021522D01*
X133115535Y-129622089D01*
X133347994Y-129238687D01*
X133376659Y-129198743D01*
X139076917Y-129198743D01*
X139077159Y-129247745D01*
X139080331Y-129319430D01*
X139089892Y-129368688D01*
X139109208Y-129408723D01*
X139141644Y-129452743D01*
X139158117Y-129471748D01*
X139226589Y-129533635D01*
X139299587Y-129581708D01*
X139368789Y-129608476D01*
X139492204Y-129628457D01*
X139619957Y-129622206D01*
X139734265Y-129589410D01*
X139817706Y-129538485D01*
X139908850Y-129444646D01*
X139974772Y-129329054D01*
X140010196Y-129201612D01*
X140009844Y-129072222D01*
X140009474Y-129070017D01*
X139994125Y-129014945D01*
X139964372Y-128933232D01*
X139924349Y-128835541D01*
X139878187Y-128732535D01*
X139814116Y-128590444D01*
X139726847Y-128374107D01*
X139660266Y-128176897D01*
X139616962Y-128006007D01*
X139601416Y-127929591D01*
X139586333Y-127865312D01*
X139573443Y-127828908D01*
X139559850Y-127812697D01*
X139542658Y-127809000D01*
X139531380Y-127814499D01*
X139509826Y-127854899D01*
X139490395Y-127930708D01*
X139453443Y-128088678D01*
X139388738Y-128299599D01*
X139305648Y-128522714D01*
X139208209Y-128746358D01*
X139187527Y-128790501D01*
X139142143Y-128889377D01*
X139111246Y-128963143D01*
X139092056Y-129021381D01*
X139081791Y-129073673D01*
X139077672Y-129129600D01*
X139076917Y-129198743D01*
X133376659Y-129198743D01*
X133551326Y-128955350D01*
X133844056Y-128606828D01*
X134162011Y-128291803D01*
X134506665Y-128008976D01*
X134879488Y-127757050D01*
X135281954Y-127534728D01*
X135484828Y-127438588D01*
X135870831Y-127283534D01*
X136258536Y-127165690D01*
X136654758Y-127083476D01*
X137066308Y-127035307D01*
X137500000Y-127019603D01*
X137803301Y-127026909D01*
X138203391Y-127062279D01*
X138586360Y-127128752D01*
X138960642Y-127228287D01*
X139334671Y-127362843D01*
X139716881Y-127534378D01*
X140007735Y-127688840D01*
X140365307Y-127916392D01*
X140702559Y-128176864D01*
X141025457Y-128474543D01*
X141244280Y-128706512D01*
X141516397Y-129041527D01*
X141623962Y-129201612D01*
X141754634Y-129396087D01*
G36*
X141754634Y-129396087D02*
G01*
X141963316Y-129776199D01*
X142068416Y-130000053D01*
X142078802Y-130026208D01*
X142221359Y-130385234D01*
X142337292Y-130770354D01*
X142417953Y-131162877D01*
X142465076Y-131570270D01*
X142480397Y-132000000D01*
X142476097Y-132231247D01*
X142443676Y-132651213D01*
X142378099Y-133052793D01*
X142277721Y-133443071D01*
X142140901Y-133829127D01*
X141992550Y-134159000D01*
X141965996Y-134218046D01*
X141881678Y-134380766D01*
X141647772Y-134769419D01*
X141382166Y-135131717D01*
X141086934Y-135466251D01*
X140764152Y-135771612D01*
X140415897Y-136046390D01*
X140044244Y-136289175D01*
X139651269Y-136498558D01*
X139239047Y-136673130D01*
X138809655Y-136811480D01*
X138365168Y-136912200D01*
X137907662Y-136973879D01*
X137889016Y-136975418D01*
X137782290Y-136981126D01*
X137651386Y-136984455D01*
X137511163Y-136985152D01*
X137376480Y-136982962D01*
X137314857Y-136980858D01*
X136888191Y-136948276D01*
X136482349Y-136883579D01*
X136089279Y-136784798D01*
X135700930Y-136649962D01*
X135309250Y-136477100D01*
X134988275Y-136306969D01*
X134607153Y-136063387D01*
X134253180Y-135787569D01*
X133925739Y-135478977D01*
X133624216Y-135137071D01*
X133347994Y-134761313D01*
X133281584Y-134659675D01*
X133059342Y-134271670D01*
X132874992Y-133868401D01*
X132728533Y-133452713D01*
X132619966Y-133027451D01*
X132549291Y-132595459D01*
X132516508Y-132159583D01*
X132521616Y-131722669D01*
X132564616Y-131287560D01*
X132579282Y-131209517D01*
X133610909Y-131209517D01*
X133611232Y-131340150D01*
X133619204Y-131479502D01*
X133634197Y-131614068D01*
X133655584Y-131730342D01*
X133657506Y-131738264D01*
X133684768Y-131823841D01*
X133725130Y-131904146D01*
X133783884Y-131986712D01*
X133866323Y-132079069D01*
X133977739Y-132188747D01*
X134152192Y-132353881D01*
X134140419Y-132483722D01*
X134138234Y-132515985D01*
X134149509Y-132654948D01*
X134197211Y-132773861D01*
X134282405Y-132875662D01*
X134370887Y-132938834D01*
X134495717Y-132984331D01*
X134631190Y-132991343D01*
X134773206Y-132959781D01*
X134917667Y-132889556D01*
X134943784Y-132874026D01*
X134993072Y-132850711D01*
X135048190Y-132835628D01*
X135121304Y-132825980D01*
X135224583Y-132818967D01*
X135271310Y-132815977D01*
X135378727Y-132806202D01*
X135477131Y-132793735D01*
X135549871Y-132780542D01*
X135599641Y-132769365D01*
X135645354Y-132763663D01*
X135672024Y-132771233D01*
X135692477Y-132793216D01*
X135716550Y-132841087D01*
X135734563Y-132902692D01*
X135737721Y-132951630D01*
X135722154Y-133000122D01*
X135681916Y-133061935D01*
X135658238Y-133096062D01*
X135627995Y-133147553D01*
X135616167Y-133179971D01*
X135618646Y-133202492D01*
X135641894Y-133255967D01*
X135692240Y-133319416D01*
X135772897Y-133396528D01*
X135887077Y-133490990D01*
X136098321Y-133657997D01*
X136124113Y-133817884D01*
X136125563Y-133826775D01*
X136140619Y-133910383D01*
X136155662Y-133981094D01*
X136167639Y-134024412D01*
X136174576Y-134058323D01*
X136154836Y-134096397D01*
X136137433Y-134119471D01*
X136110872Y-134177564D01*
X136086102Y-134252308D01*
X136067806Y-134328966D01*
X136060667Y-134392798D01*
X136060391Y-134405613D01*
X136052258Y-134435654D01*
X136024396Y-134451901D01*
X135965548Y-134462617D01*
X135931406Y-134469149D01*
X135846861Y-134494501D01*
X135766552Y-134528292D01*
X135694558Y-134571970D01*
X135607089Y-134656501D01*
X135556007Y-134753351D01*
X135540868Y-134857528D01*
X135561226Y-134964042D01*
X135616635Y-135067904D01*
X135706649Y-135164122D01*
X135830822Y-135247708D01*
X135883136Y-135275759D01*
X135928858Y-135300322D01*
X135947821Y-135310578D01*
X135959410Y-135332747D01*
X135966465Y-135373109D01*
X135966755Y-135411749D01*
X135958506Y-135429000D01*
X135926431Y-135435884D01*
X135876836Y-135453477D01*
X135829439Y-135465725D01*
X135753719Y-135476062D01*
X135669083Y-135481262D01*
X135543153Y-135492266D01*
X135389166Y-135530045D01*
X135255309Y-135591307D01*
X135148216Y-135672816D01*
X135074519Y-135771336D01*
X135069650Y-135781493D01*
X135054080Y-135864053D01*
X135074406Y-135948343D01*
X135126003Y-136026988D01*
X135204244Y-136092617D01*
X135304501Y-136137855D01*
X135308224Y-136138931D01*
X135385952Y-136154394D01*
X135484318Y-136165120D01*
X135582967Y-136168843D01*
X135680650Y-136164499D01*
X135817299Y-136139421D01*
X135941978Y-136087375D01*
X136070364Y-136003026D01*
X136129646Y-135959689D01*
X136165750Y-135938797D01*
X136184462Y-135938977D01*
X136193583Y-135957337D01*
X136196897Y-135966703D01*
X136236203Y-136009181D01*
X136307327Y-136043434D01*
X136401896Y-136067815D01*
X136511536Y-136080679D01*
X136627876Y-136080378D01*
X136742542Y-136065268D01*
X136806124Y-136047147D01*
X136894537Y-135998290D01*
X136950986Y-135931131D01*
X136970833Y-135850041D01*
X136963915Y-135786981D01*
X136932807Y-135676335D01*
X136879577Y-135545237D01*
X136807398Y-135400475D01*
X136719446Y-135248841D01*
X136618893Y-135097124D01*
X136610143Y-135084729D01*
X136567597Y-135023490D01*
X136537658Y-134978778D01*
X136526346Y-134959540D01*
X136532270Y-134958246D01*
X136571979Y-134956070D01*
X136642864Y-134954327D01*
X136737669Y-134953170D01*
X136849137Y-134952750D01*
X136887436Y-134952727D01*
X137002858Y-134951967D01*
X137087135Y-134949309D01*
X137149045Y-134943652D01*
X137197363Y-134933897D01*
X137240867Y-134918942D01*
X137288333Y-134897687D01*
X137338876Y-134871473D01*
X137408673Y-134828303D01*
X137457667Y-134789621D01*
X137490037Y-134762610D01*
X137530693Y-134744441D01*
X137590047Y-134733103D01*
X137679917Y-134725170D01*
X137782367Y-134713385D01*
X137891850Y-134692968D01*
X137982948Y-134668496D01*
X138116645Y-134623269D01*
X138184031Y-134680154D01*
X138256914Y-134731938D01*
X138379118Y-134796250D01*
X138520905Y-134852262D01*
X138669458Y-134894321D01*
X138734662Y-134909334D01*
X138790624Y-134925167D01*
X138820103Y-134941238D01*
X138831579Y-134962747D01*
X138833533Y-134994891D01*
X138840667Y-135058275D01*
X138881604Y-135154526D01*
X138952562Y-135231843D01*
X139046286Y-135283307D01*
X139155522Y-135302000D01*
X139200198Y-135300733D01*
X139278228Y-135286960D01*
X139346186Y-135252249D01*
X139420875Y-135189474D01*
X139432462Y-135178060D01*
X139479327Y-135111290D01*
X139484281Y-135050321D01*
X139447333Y-134995083D01*
X139418988Y-134966155D01*
X139405050Y-134944178D01*
X139418815Y-134931094D01*
X139461164Y-134904141D01*
X139522125Y-134870436D01*
X139621281Y-134808180D01*
X139743113Y-134704583D01*
X139848995Y-134585182D01*
X139926294Y-134462718D01*
X139928050Y-134459132D01*
X139958804Y-134389790D01*
X139976636Y-134327632D01*
X139984818Y-134256192D01*
X139986619Y-134159000D01*
X139978089Y-134022419D01*
X139950249Y-133913789D01*
X139898803Y-133823241D01*
X139819450Y-133739998D01*
X139731524Y-133682038D01*
X139627722Y-133657597D01*
X139510405Y-133672282D01*
X139502789Y-133674498D01*
X139417667Y-133716987D01*
X139325428Y-133789749D01*
X139234043Y-133884607D01*
X139151486Y-133993382D01*
X139085729Y-134107897D01*
X139014528Y-134257143D01*
X138738806Y-134176583D01*
X138719760Y-134170982D01*
X138613904Y-134138544D01*
X138520090Y-134107737D01*
X138447897Y-134081810D01*
X138406901Y-134064012D01*
X138341013Y-134041263D01*
X138229851Y-134034077D01*
X138084506Y-134048653D01*
X137906110Y-134084944D01*
X137836066Y-134101713D01*
X137755697Y-134120382D01*
X137697864Y-134133121D01*
X137671851Y-134137833D01*
X137662290Y-134128148D01*
X137642704Y-134087785D01*
X137620733Y-134026708D01*
X137598785Y-133966440D01*
X137529573Y-133824824D01*
X137427848Y-133659813D01*
X137292981Y-133470340D01*
X137254651Y-133418485D01*
X137713613Y-133418485D01*
X137779304Y-133524159D01*
X137810236Y-133570005D01*
X137845455Y-133612502D01*
X137868289Y-133628301D01*
X137902110Y-133623714D01*
X137979340Y-133606676D01*
X138073551Y-133581224D01*
X138170913Y-133551437D01*
X138257597Y-133521393D01*
X138319772Y-133495170D01*
X138352945Y-133479075D01*
X138401173Y-133461025D01*
X138452328Y-133452199D01*
X138519483Y-133450829D01*
X138615714Y-133455147D01*
X138689567Y-133458837D01*
X138762796Y-133459216D01*
X138817643Y-133452443D01*
X138867798Y-133436506D01*
X138926951Y-133409391D01*
X138956674Y-133394079D01*
X139054563Y-133327259D01*
X139133560Y-133239984D01*
X139204167Y-133121340D01*
X139254988Y-133021049D01*
X139393435Y-133012233D01*
X139423030Y-133010070D01*
X139506576Y-132998083D01*
X139554366Y-132977121D01*
X139571376Y-132943715D01*
X139562583Y-132894400D01*
X139554437Y-132876000D01*
X139502126Y-132818806D01*
X139418114Y-132773850D01*
X139310048Y-132744390D01*
X139185574Y-132733686D01*
X139018033Y-132747252D01*
X138841857Y-132794909D01*
X138666388Y-132879016D01*
X138485817Y-133001800D01*
X138466554Y-133001285D01*
X138422118Y-132974357D01*
X138360898Y-132921207D01*
X138329906Y-132892184D01*
X138277358Y-132850136D01*
X138235212Y-132831348D01*
X138191947Y-132829573D01*
X138150226Y-132838673D01*
X138115583Y-132864494D01*
X138098600Y-132910882D01*
X138098754Y-132982539D01*
X138115520Y-133084163D01*
X138148375Y-133220455D01*
X138149205Y-133223799D01*
X138148390Y-133253911D01*
X138123769Y-133278831D01*
X138067036Y-133307446D01*
X137984617Y-133341312D01*
X137770848Y-133405841D01*
X137713613Y-133418485D01*
X137254651Y-133418485D01*
X137248118Y-133409646D01*
X137202625Y-133345663D01*
X137173053Y-133301000D01*
X137164306Y-133282805D01*
X137175939Y-133274619D01*
X137214642Y-133248135D01*
X137269529Y-133210929D01*
X137381331Y-133123302D01*
X137513593Y-132993473D01*
X137647132Y-132837369D01*
X137732849Y-132720683D01*
X139824326Y-132720683D01*
X139900413Y-132804903D01*
X139928782Y-132838601D01*
X139963105Y-132888082D01*
X139976500Y-132920811D01*
X139977045Y-132924970D01*
X139986541Y-132935119D01*
X140011939Y-132942488D01*
X140023361Y-132943715D01*
X140058526Y-132947493D01*
X140131586Y-132950553D01*
X140236403Y-132952082D01*
X140378264Y-132952500D01*
X140453506Y-132952482D01*
X140573883Y-132952091D01*
X140660576Y-132950672D01*
X140719337Y-132947560D01*
X140755916Y-132942089D01*
X140776065Y-132933595D01*
X140785535Y-132921412D01*
X140790078Y-132904875D01*
X140793057Y-132883637D01*
X140800493Y-132823660D01*
X140811755Y-132729700D01*
X140826358Y-132605982D01*
X140843820Y-132456730D01*
X140863655Y-132286168D01*
X140885381Y-132098519D01*
X140908514Y-131898009D01*
X140932570Y-131688860D01*
X140957065Y-131475298D01*
X140981516Y-131261546D01*
X141005438Y-131051828D01*
X141028348Y-130850369D01*
X141049763Y-130661392D01*
X141069198Y-130489121D01*
X141086169Y-130337781D01*
X141100194Y-130211596D01*
X141110788Y-130114789D01*
X141117467Y-130051585D01*
X141119749Y-130026208D01*
X141101560Y-130019758D01*
X141054846Y-130014305D01*
X140993690Y-130010582D01*
X140932184Y-130009171D01*
X140884421Y-130010657D01*
X140864493Y-130015625D01*
X140864251Y-130017579D01*
X140860473Y-130050274D01*
X140852444Y-130120486D01*
X140840566Y-130224673D01*
X140825243Y-130359295D01*
X140806877Y-130520811D01*
X140785870Y-130705681D01*
X140763878Y-130899333D01*
X140762626Y-130910362D01*
X140737546Y-131131316D01*
X140711035Y-131365000D01*
X140663018Y-131788333D01*
X140558583Y-132709083D01*
X140191455Y-132714883D01*
X139824326Y-132720683D01*
X137732849Y-132720683D01*
X137775683Y-132662374D01*
X137892984Y-132475873D01*
X137901590Y-132462011D01*
X137919285Y-132448128D01*
X137949141Y-132451729D01*
X138004538Y-132472395D01*
X138073631Y-132494528D01*
X138165648Y-132504425D01*
X138238733Y-132488042D01*
X138286943Y-132447142D01*
X138304333Y-132383489D01*
X138301236Y-132356340D01*
X138275367Y-132305068D01*
X138219120Y-132251709D01*
X138127528Y-132190850D01*
X138105737Y-132176868D01*
X138023561Y-132099300D01*
X137976993Y-132007326D01*
X137968179Y-131907387D01*
X137996549Y-131814792D01*
X138538359Y-131814792D01*
X138539091Y-131823962D01*
X138543769Y-131870477D01*
X138551983Y-131947162D01*
X138562860Y-132045944D01*
X138575526Y-132158750D01*
X138611501Y-132476250D01*
X139484500Y-132481776D01*
X139599109Y-132482444D01*
X139803027Y-132483224D01*
X139969395Y-132483156D01*
X140101418Y-132482164D01*
X140202303Y-132480169D01*
X140275255Y-132477093D01*
X140323480Y-132472860D01*
X140350184Y-132467391D01*
X140358573Y-132460610D01*
X140359393Y-132450319D01*
X140364255Y-132402475D01*
X140372695Y-132324664D01*
X140383839Y-132224881D01*
X140396811Y-132111125D01*
X140433975Y-131788333D01*
X139485571Y-131788333D01*
X139302058Y-131788470D01*
X139098176Y-131789102D01*
X138931297Y-131790325D01*
X138798410Y-131792223D01*
X138696499Y-131794881D01*
X138622552Y-131798383D01*
X138573556Y-131802812D01*
X138546496Y-131808254D01*
X138538359Y-131814792D01*
X137996549Y-131814792D01*
X137999266Y-131805923D01*
X138016829Y-131774748D01*
X138058243Y-131708849D01*
X138105100Y-131640405D01*
X138113291Y-131628812D01*
X138163397Y-131539980D01*
X138177246Y-131464362D01*
X138154583Y-131393811D01*
X138095157Y-131320176D01*
X138085277Y-131310562D01*
X138008432Y-131254511D01*
X137941007Y-131237140D01*
X137887195Y-131257093D01*
X137851189Y-131313016D01*
X137837179Y-131403553D01*
X137834557Y-131465157D01*
X137822585Y-131524351D01*
X137794112Y-131569214D01*
X137741743Y-131610251D01*
X137658082Y-131657969D01*
X137605314Y-131687399D01*
X137540306Y-131731103D01*
X137496654Y-131775497D01*
X137462958Y-131830673D01*
X137427564Y-131933464D01*
X137416331Y-132072797D01*
X137437201Y-132227883D01*
X137441307Y-132246711D01*
X137447184Y-132302262D01*
X137436591Y-132353442D01*
X137406317Y-132420241D01*
X137405611Y-132421632D01*
X137305120Y-132591180D01*
X137194037Y-132726882D01*
X137074892Y-132826618D01*
X136950216Y-132888264D01*
X136822537Y-132909702D01*
X136817484Y-132909683D01*
X136758429Y-132906849D01*
X136672413Y-132900007D01*
X136569312Y-132890238D01*
X136459005Y-132878623D01*
X136351370Y-132866245D01*
X136256284Y-132854184D01*
X136183625Y-132843522D01*
X136143272Y-132835341D01*
X136133775Y-132829680D01*
X136106335Y-132792570D01*
X136082756Y-132735565D01*
X136079411Y-132724266D01*
X136067026Y-132671956D01*
X136070759Y-132643394D01*
X136091722Y-132624841D01*
X136201347Y-132555188D01*
X136349162Y-132450294D01*
X136481323Y-132343685D01*
X136592189Y-132240340D01*
X136676119Y-132145243D01*
X136727474Y-132063374D01*
X136737597Y-132040482D01*
X136754031Y-131992012D01*
X136751915Y-131953678D01*
X136731811Y-131905025D01*
X136679641Y-131829760D01*
X136596704Y-131775260D01*
X136492445Y-131756583D01*
X136466842Y-131757590D01*
X136387225Y-131779619D01*
X136324360Y-131834118D01*
X136271961Y-131925917D01*
X136200034Y-132056142D01*
X136109687Y-132161922D01*
X136008508Y-132232467D01*
X135895766Y-132270984D01*
X135770394Y-132277984D01*
X135653399Y-132248081D01*
X135551450Y-132183107D01*
X135471216Y-132084894D01*
X135456039Y-132055565D01*
X135422274Y-131943429D01*
X135411865Y-131816829D01*
X135425102Y-131691861D01*
X135462271Y-131584621D01*
X135511177Y-131507153D01*
X135580890Y-131432455D01*
X135669199Y-131371004D01*
X135780007Y-131321444D01*
X135917220Y-131282420D01*
X136084742Y-131252574D01*
X136286478Y-131230550D01*
X136526333Y-131214992D01*
X136623798Y-131210027D01*
X136774562Y-131201047D01*
X136891951Y-131191453D01*
X136981773Y-131180209D01*
X137049835Y-131166276D01*
X137101945Y-131148618D01*
X137143910Y-131126198D01*
X137181538Y-131097978D01*
X137206194Y-131073014D01*
X137238818Y-131004265D01*
X137236290Y-130928393D01*
X137201184Y-130852316D01*
X137136076Y-130782949D01*
X137043538Y-130727209D01*
X136952900Y-130687116D01*
X137024590Y-130580585D01*
X137035847Y-130563458D01*
X137092924Y-130452695D01*
X137113448Y-130352691D01*
X137098902Y-130256988D01*
X137098126Y-130254662D01*
X137042380Y-130151692D01*
X136955680Y-130074903D01*
X136842194Y-130026912D01*
X136706087Y-130010333D01*
X137838167Y-130010333D01*
X137849448Y-130089708D01*
X137853681Y-130121734D01*
X137862747Y-130194720D01*
X137874768Y-130294376D01*
X137888689Y-130411921D01*
X137903452Y-130538574D01*
X137915715Y-130643097D01*
X137928570Y-130749103D01*
X137939247Y-130833278D01*
X137946886Y-130888876D01*
X137950630Y-130909154D01*
X137957374Y-130911393D01*
X137993830Y-130924136D01*
X138050333Y-130944163D01*
X138077845Y-130954063D01*
X138141701Y-130977763D01*
X138185793Y-130995105D01*
X138201227Y-131000891D01*
X138218343Y-130996733D01*
X138214129Y-130961022D01*
X138212812Y-130954313D01*
X138205862Y-130907184D01*
X138204854Y-130899333D01*
X138429415Y-130899333D01*
X138440595Y-130968125D01*
X138444032Y-130991612D01*
X138444683Y-130996733D01*
X138452712Y-131059955D01*
X138463176Y-131150008D01*
X138473858Y-131248583D01*
X138479470Y-131301369D01*
X138490433Y-131399685D01*
X138500429Y-131483749D01*
X138507831Y-131539625D01*
X138519721Y-131619000D01*
X140455729Y-131619000D01*
X140482387Y-131359708D01*
X140492774Y-131259660D01*
X140504140Y-131152221D01*
X140513966Y-131061371D01*
X140520887Y-130999875D01*
X140532730Y-130899333D01*
X138429415Y-130899333D01*
X138204854Y-130899333D01*
X138195584Y-130827147D01*
X138182835Y-130721255D01*
X138168469Y-130596562D01*
X138153344Y-130460125D01*
X138104433Y-130010333D01*
X137838167Y-130010333D01*
X136706087Y-130010333D01*
X136687070Y-130010622D01*
X136561479Y-130030654D01*
X136455114Y-130084161D01*
X136364026Y-130173881D01*
X136284264Y-130302550D01*
X136248864Y-130372517D01*
X136149474Y-130296709D01*
X136111263Y-130268900D01*
X136027012Y-130213297D01*
X135949257Y-130168033D01*
X135848431Y-130115165D01*
X135883105Y-130048113D01*
X135890896Y-130032477D01*
X135925731Y-129951175D01*
X135960033Y-129856072D01*
X135989661Y-129760300D01*
X136010475Y-129676990D01*
X136018333Y-129619276D01*
X136015832Y-129577629D01*
X136003135Y-129543777D01*
X135973799Y-129521851D01*
X135921409Y-129509322D01*
X135839551Y-129503659D01*
X135721812Y-129502333D01*
X135600573Y-129503967D01*
X135509934Y-129510587D01*
X135451175Y-129524406D01*
X135419000Y-129547637D01*
X135408112Y-129582490D01*
X135413215Y-129631176D01*
X135420687Y-129676284D01*
X135430841Y-129755709D01*
X135439381Y-129841000D01*
X135451014Y-129978583D01*
X135052049Y-129978583D01*
X134950655Y-129979079D01*
X134778325Y-129983372D01*
X134638835Y-129992912D01*
X134525984Y-130008711D01*
X134433571Y-130031782D01*
X134355395Y-130063136D01*
X134285256Y-130103787D01*
X134252100Y-130128396D01*
X134165465Y-130209286D01*
X134070122Y-130316648D01*
X133971598Y-130442430D01*
X133875422Y-130578582D01*
X133787120Y-130717053D01*
X133712219Y-130849793D01*
X133656248Y-130968749D01*
X133624734Y-131065872D01*
X133618862Y-131101110D01*
X133610909Y-131209517D01*
X132579282Y-131209517D01*
X132645508Y-130857103D01*
X132764292Y-130434142D01*
X132920968Y-130021522D01*
X133115535Y-129622089D01*
X133347994Y-129238687D01*
X133376659Y-129198743D01*
X139076917Y-129198743D01*
X139077159Y-129247745D01*
X139080331Y-129319430D01*
X139089892Y-129368688D01*
X139109208Y-129408723D01*
X139141644Y-129452743D01*
X139158117Y-129471748D01*
X139226589Y-129533635D01*
X139299587Y-129581708D01*
X139368789Y-129608476D01*
X139492204Y-129628457D01*
X139619957Y-129622206D01*
X139734265Y-129589410D01*
X139817706Y-129538485D01*
X139908850Y-129444646D01*
X139974772Y-129329054D01*
X140010196Y-129201612D01*
X140009844Y-129072222D01*
X140009474Y-129070017D01*
X139994125Y-129014945D01*
X139964372Y-128933232D01*
X139924349Y-128835541D01*
X139878187Y-128732535D01*
X139814116Y-128590444D01*
X139726847Y-128374107D01*
X139660266Y-128176897D01*
X139616962Y-128006007D01*
X139601416Y-127929591D01*
X139586333Y-127865312D01*
X139573443Y-127828908D01*
X139559850Y-127812697D01*
X139542658Y-127809000D01*
X139531380Y-127814499D01*
X139509826Y-127854899D01*
X139490395Y-127930708D01*
X139453443Y-128088678D01*
X139388738Y-128299599D01*
X139305648Y-128522714D01*
X139208209Y-128746358D01*
X139187527Y-128790501D01*
X139142143Y-128889377D01*
X139111246Y-128963143D01*
X139092056Y-129021381D01*
X139081791Y-129073673D01*
X139077672Y-129129600D01*
X139076917Y-129198743D01*
X133376659Y-129198743D01*
X133551326Y-128955350D01*
X133844056Y-128606828D01*
X134162011Y-128291803D01*
X134506665Y-128008976D01*
X134879488Y-127757050D01*
X135281954Y-127534728D01*
X135484828Y-127438588D01*
X135870831Y-127283534D01*
X136258536Y-127165690D01*
X136654758Y-127083476D01*
X137066308Y-127035307D01*
X137500000Y-127019603D01*
X137803301Y-127026909D01*
X138203391Y-127062279D01*
X138586360Y-127128752D01*
X138960642Y-127228287D01*
X139334671Y-127362843D01*
X139716881Y-127534378D01*
X140007735Y-127688840D01*
X140365307Y-127916392D01*
X140702559Y-128176864D01*
X141025457Y-128474543D01*
X141244280Y-128706512D01*
X141516397Y-129041527D01*
X141623962Y-129201612D01*
X141754634Y-129396087D01*
G37*
X135636830Y-130222027D02*
X135660284Y-130228797D01*
X135668257Y-130255103D01*
X135664472Y-130311958D01*
X135661464Y-130364175D01*
X135672345Y-130409864D01*
X135705132Y-130449216D01*
X135757054Y-130484910D01*
X135820505Y-130509459D01*
X135860763Y-130512942D01*
X135905425Y-130498319D01*
X135959865Y-130456868D01*
X135983683Y-130436494D01*
X136024989Y-130404107D01*
X136046823Y-130391333D01*
X136052711Y-130394741D01*
X136078133Y-130422932D01*
X136112820Y-130470330D01*
X136124694Y-130488746D01*
X136157077Y-130564630D01*
X136166030Y-130655538D01*
X136165292Y-130681566D01*
X136146912Y-130772730D01*
X136099757Y-130838353D01*
X136018333Y-130887042D01*
X136017598Y-130887357D01*
X135924671Y-130914472D01*
X135826067Y-130914973D01*
X135708096Y-130888946D01*
X135663704Y-130874444D01*
X135533301Y-130811157D01*
X135438902Y-130728155D01*
X135381519Y-130626555D01*
X135362167Y-130507474D01*
X135362956Y-130474436D01*
X135375866Y-130397439D01*
X135408054Y-130338706D01*
X135413201Y-130332452D01*
X135477717Y-130277942D01*
X135557969Y-130237698D01*
X135634054Y-130222000D01*
X135636830Y-130222027D01*
G36*
X135636830Y-130222027D02*
G01*
X135660284Y-130228797D01*
X135668257Y-130255103D01*
X135664472Y-130311958D01*
X135661464Y-130364175D01*
X135672345Y-130409864D01*
X135705132Y-130449216D01*
X135757054Y-130484910D01*
X135820505Y-130509459D01*
X135860763Y-130512942D01*
X135905425Y-130498319D01*
X135959865Y-130456868D01*
X135983683Y-130436494D01*
X136024989Y-130404107D01*
X136046823Y-130391333D01*
X136052711Y-130394741D01*
X136078133Y-130422932D01*
X136112820Y-130470330D01*
X136124694Y-130488746D01*
X136157077Y-130564630D01*
X136166030Y-130655538D01*
X136165292Y-130681566D01*
X136146912Y-130772730D01*
X136099757Y-130838353D01*
X136018333Y-130887042D01*
X136017598Y-130887357D01*
X135924671Y-130914472D01*
X135826067Y-130914973D01*
X135708096Y-130888946D01*
X135663704Y-130874444D01*
X135533301Y-130811157D01*
X135438902Y-130728155D01*
X135381519Y-130626555D01*
X135362167Y-130507474D01*
X135362956Y-130474436D01*
X135375866Y-130397439D01*
X135408054Y-130338706D01*
X135413201Y-130332452D01*
X135477717Y-130277942D01*
X135557969Y-130237698D01*
X135634054Y-130222000D01*
X135636830Y-130222027D01*
G37*
X139728238Y-128996758D02*
X139783574Y-129028118D01*
X139817076Y-129095176D01*
X139828333Y-129197272D01*
X139828151Y-129210527D01*
X139810195Y-129311675D01*
X139759541Y-129392940D01*
X139671461Y-129462308D01*
X139667865Y-129464455D01*
X139608059Y-129491192D01*
X139554531Y-129502254D01*
X139516336Y-129493330D01*
X139464657Y-129463723D01*
X139422458Y-129424546D01*
X139405000Y-129387509D01*
X139412950Y-129369125D01*
X139443172Y-129326622D01*
X139488226Y-129273683D01*
X139521188Y-129233652D01*
X139563407Y-129168645D01*
X139585921Y-129114942D01*
X139586753Y-129111105D01*
X139610258Y-129040967D01*
X139646366Y-129004675D01*
X139702725Y-128994333D01*
X139728238Y-128996758D01*
G36*
X139728238Y-128996758D02*
G01*
X139783574Y-129028118D01*
X139817076Y-129095176D01*
X139828333Y-129197272D01*
X139828151Y-129210527D01*
X139810195Y-129311675D01*
X139759541Y-129392940D01*
X139671461Y-129462308D01*
X139667865Y-129464455D01*
X139608059Y-129491192D01*
X139554531Y-129502254D01*
X139516336Y-129493330D01*
X139464657Y-129463723D01*
X139422458Y-129424546D01*
X139405000Y-129387509D01*
X139412950Y-129369125D01*
X139443172Y-129326622D01*
X139488226Y-129273683D01*
X139521188Y-129233652D01*
X139563407Y-129168645D01*
X139585921Y-129114942D01*
X139586753Y-129111105D01*
X139610258Y-129040967D01*
X139646366Y-129004675D01*
X139702725Y-128994333D01*
X139728238Y-128996758D01*
G37*
X142484737Y-117141985D02*
X142483501Y-117242784D01*
X142478763Y-117315197D01*
X142468421Y-117371359D01*
X142450376Y-117423408D01*
X142422528Y-117483480D01*
X142388865Y-117543091D01*
X142325170Y-117634561D01*
X142258694Y-117711822D01*
X142238973Y-117730408D01*
X142165209Y-117788475D01*
X142078686Y-117844704D01*
X141990693Y-117892740D01*
X141912517Y-117926228D01*
X141855445Y-117938816D01*
X141837573Y-117941987D01*
X141820973Y-117958540D01*
X141818685Y-117965262D01*
X141808297Y-117995786D01*
X141797291Y-118060906D01*
X141785701Y-118161083D01*
X141765591Y-118324233D01*
X141718115Y-118614609D01*
X141654613Y-118925321D01*
X141610275Y-119109618D01*
X141577509Y-119245816D01*
X141524256Y-119438678D01*
X141489227Y-119565543D01*
X141392191Y-119873950D01*
X141391660Y-119875530D01*
X141352145Y-119996409D01*
X141318767Y-120104847D01*
X141293479Y-120193963D01*
X141278236Y-120256874D01*
X141274992Y-120286700D01*
X141278206Y-120296656D01*
X141294180Y-120344138D01*
X141318661Y-120415674D01*
X141347805Y-120500000D01*
X141393065Y-120641226D01*
X141437519Y-120819979D01*
X141466870Y-121003041D01*
X141482967Y-121202722D01*
X141487224Y-121410167D01*
X141487658Y-121431333D01*
X141483058Y-121652896D01*
X141469159Y-121845101D01*
X141445861Y-121997957D01*
X141413052Y-122112473D01*
X141392505Y-122147213D01*
X141349865Y-122183502D01*
X141281986Y-122217338D01*
X141183294Y-122251410D01*
X141048215Y-122288404D01*
X140966014Y-122308384D01*
X140952854Y-122310931D01*
X140734367Y-122353218D01*
X140510788Y-122376981D01*
X140275313Y-122382093D01*
X140034377Y-122378785D01*
X139856374Y-122593832D01*
X139633399Y-122849601D01*
X139363951Y-123130949D01*
X139077840Y-123404540D01*
X138786032Y-123659928D01*
X138499492Y-123886667D01*
X138451333Y-123922752D01*
X138377832Y-123979626D01*
X138331153Y-124020158D01*
X138306164Y-124049810D01*
X138297734Y-124074047D01*
X138300734Y-124098333D01*
X138304331Y-124118816D01*
X138309676Y-124181092D01*
X138313261Y-124266526D01*
X138314298Y-124350199D01*
X138314455Y-124362917D01*
X138313816Y-124433436D01*
X138309897Y-124516123D01*
X138300277Y-124578685D01*
X138282531Y-124634587D01*
X138254234Y-124697296D01*
X138225158Y-124751155D01*
X138119431Y-124891996D01*
X137985608Y-125010928D01*
X137832363Y-125101160D01*
X137668375Y-125155900D01*
X137505036Y-125172143D01*
X137331279Y-125152192D01*
X137165723Y-125096816D01*
X137014362Y-125009531D01*
X136883190Y-124893852D01*
X136778204Y-124753291D01*
X136705399Y-124591365D01*
X136691309Y-124524767D01*
X136681855Y-124430995D01*
X136679285Y-124360191D01*
X137036316Y-124360191D01*
X137054529Y-124474941D01*
X137102516Y-124583367D01*
X137181713Y-124679366D01*
X137293557Y-124756834D01*
X137420664Y-124801606D01*
X137552194Y-124806950D01*
X137679398Y-124771486D01*
X137797338Y-124695812D01*
X137807941Y-124686493D01*
X137895050Y-124583460D01*
X137946547Y-124469292D01*
X137964695Y-124350199D01*
X137951758Y-124232390D01*
X137909998Y-124122076D01*
X137841679Y-124025467D01*
X137749065Y-123948771D01*
X137634417Y-123898200D01*
X137500000Y-123879963D01*
X137471804Y-123880694D01*
X137341554Y-123905210D01*
X137232456Y-123960025D01*
X137145946Y-124039034D01*
X137083461Y-124136134D01*
X137046439Y-124245221D01*
X137036316Y-124360191D01*
X136679285Y-124360191D01*
X136678047Y-124326091D01*
X136679987Y-124223313D01*
X136687775Y-124135919D01*
X136701510Y-124077167D01*
X136701766Y-124076499D01*
X136694672Y-124052518D01*
X136659559Y-124013523D01*
X136593810Y-123957024D01*
X136494808Y-123880531D01*
X136424496Y-123827077D01*
X136087411Y-123550752D01*
X135754035Y-123245631D01*
X135435187Y-122922032D01*
X135141685Y-122590271D01*
X134965433Y-122378935D01*
X134714008Y-122381775D01*
X134631219Y-122381427D01*
X134456941Y-122373095D01*
X134283685Y-122355590D01*
X134117353Y-122330229D01*
X134037599Y-122313658D01*
X135406766Y-122313658D01*
X135408042Y-122318505D01*
X135428760Y-122348372D01*
X135469069Y-122398863D01*
X135523183Y-122462577D01*
X135698706Y-122657752D01*
X136017604Y-122983695D01*
X136348065Y-123287645D01*
X136679867Y-123559903D01*
X136911908Y-123738434D01*
X136992605Y-123674521D01*
X137062450Y-123624080D01*
X137180160Y-123563076D01*
X137311077Y-123526789D01*
X137468250Y-123510727D01*
X137537976Y-123508658D01*
X137629677Y-123511323D01*
X137705792Y-123523190D01*
X137782717Y-123546106D01*
X137833506Y-123566373D01*
X137927422Y-123612759D01*
X138007663Y-123662153D01*
X138108642Y-123734700D01*
X138338779Y-123556008D01*
X138583667Y-123356869D01*
X138861098Y-123111496D01*
X139128751Y-122854812D01*
X139371904Y-122600435D01*
X139634993Y-122310931D01*
X139463833Y-122255317D01*
X139402200Y-122234266D01*
X139322804Y-122199919D01*
X139271002Y-122162025D01*
X139237946Y-122113140D01*
X139214786Y-122045821D01*
X139207606Y-122016228D01*
X139188192Y-121906586D01*
X139171965Y-121772592D01*
X139160102Y-121627613D01*
X139153781Y-121485016D01*
X139154160Y-121364467D01*
X139332189Y-121364467D01*
X139334700Y-121572968D01*
X139351031Y-121777805D01*
X139380232Y-121960500D01*
X139383159Y-121972830D01*
X139396709Y-122006244D01*
X139421459Y-122033214D01*
X139463498Y-122056547D01*
X139528917Y-122079046D01*
X139623804Y-122103517D01*
X139754250Y-122132765D01*
X139849139Y-122150072D01*
X140020587Y-122170341D01*
X140208112Y-122182057D01*
X140397428Y-122184794D01*
X140574246Y-122178127D01*
X140724279Y-122161632D01*
X140830666Y-122142454D01*
X140950730Y-122117026D01*
X141060591Y-122090102D01*
X141149696Y-122064289D01*
X141207494Y-122042196D01*
X141227398Y-122020795D01*
X141251327Y-121958210D01*
X141270830Y-121861301D01*
X141285267Y-121734622D01*
X141293998Y-121582726D01*
X141296382Y-121410167D01*
X141295611Y-121348789D01*
X141283982Y-121129093D01*
X141256545Y-120926351D01*
X141210575Y-120728113D01*
X141143342Y-120521934D01*
X141052121Y-120295363D01*
X140968249Y-120101310D01*
X140849270Y-120184656D01*
X140685436Y-120275516D01*
X140504758Y-120331538D01*
X140317210Y-120350508D01*
X140129623Y-120332422D01*
X139948830Y-120277278D01*
X139781661Y-120185074D01*
X139663279Y-120102147D01*
X139598929Y-120242865D01*
X139569531Y-120308479D01*
X139481127Y-120530337D01*
X139416517Y-120742437D01*
X139371342Y-120961003D01*
X139341245Y-121202261D01*
X139332189Y-121364467D01*
X139154160Y-121364467D01*
X139154180Y-121358166D01*
X139154805Y-121340745D01*
X139157316Y-121252881D01*
X139156351Y-121198778D01*
X139150574Y-121171068D01*
X139138652Y-121162384D01*
X139119250Y-121165360D01*
X139080599Y-121172497D01*
X139020050Y-121177044D01*
X138963183Y-121177333D01*
X138956550Y-121701208D01*
X138954348Y-121859788D01*
X138951837Y-121988274D01*
X138948610Y-122085757D01*
X138944170Y-122158006D01*
X138938026Y-122210788D01*
X138929682Y-122249873D01*
X138918644Y-122281030D01*
X138904420Y-122310027D01*
X138884552Y-122344505D01*
X138784010Y-122467593D01*
X138653861Y-122560586D01*
X138640724Y-122567436D01*
X138619593Y-122576857D01*
X138594737Y-122584658D01*
X138562293Y-122591022D01*
X138518403Y-122596132D01*
X138459204Y-122600171D01*
X138380837Y-122603322D01*
X138279441Y-122605768D01*
X138151154Y-122607692D01*
X137992117Y-122609278D01*
X137798468Y-122610708D01*
X137566347Y-122612166D01*
X137474195Y-122612714D01*
X137238739Y-122613864D01*
X137040467Y-122614120D01*
X136875566Y-122613113D01*
X136740225Y-122610477D01*
X136630633Y-122605843D01*
X136542978Y-122598844D01*
X136473450Y-122589112D01*
X136418237Y-122576280D01*
X136373528Y-122559981D01*
X136335512Y-122539847D01*
X136300376Y-122515509D01*
X136264311Y-122486602D01*
X136236155Y-122459963D01*
X136177721Y-122387889D01*
X136132226Y-122311250D01*
X136130809Y-122308200D01*
X136115311Y-122272841D01*
X136103511Y-122238209D01*
X136094903Y-122198153D01*
X136088982Y-122146521D01*
X136085241Y-122077162D01*
X136083175Y-121983925D01*
X136082277Y-121860657D01*
X136082040Y-121701208D01*
X136081718Y-121606641D01*
X136080242Y-121475137D01*
X136077742Y-121362650D01*
X136074404Y-121275008D01*
X136070414Y-121218041D01*
X136065958Y-121197578D01*
X136059631Y-121196865D01*
X136019991Y-121190361D01*
X135961624Y-121179528D01*
X135873165Y-121162399D01*
X135872508Y-121450324D01*
X135870415Y-121565251D01*
X135870241Y-121574845D01*
X135860353Y-121743356D01*
X135843458Y-121892479D01*
X135820455Y-122016512D01*
X135792240Y-122109753D01*
X135759713Y-122166501D01*
X135758836Y-122167415D01*
X135715150Y-122197814D01*
X135645624Y-122231446D01*
X135564896Y-122261197D01*
X135553780Y-122264677D01*
X135482153Y-122287536D01*
X135429580Y-122305047D01*
X135406766Y-122313658D01*
X134037599Y-122313658D01*
X133963847Y-122298334D01*
X133829067Y-122261224D01*
X133718916Y-122220219D01*
X133639295Y-122176638D01*
X133596105Y-122131800D01*
X133571321Y-122066725D01*
X133545797Y-121950952D01*
X133527018Y-121801597D01*
X133515535Y-121623312D01*
X133511899Y-121420750D01*
X133512009Y-121401091D01*
X133693801Y-121401091D01*
X133694408Y-121499156D01*
X133702084Y-121605937D01*
X133717155Y-121737887D01*
X133717291Y-121738968D01*
X133735002Y-121866089D01*
X133751625Y-121955309D01*
X133768154Y-122010977D01*
X133785584Y-122037444D01*
X133791096Y-122040913D01*
X133838781Y-122060241D01*
X133916497Y-122083704D01*
X134014640Y-122108953D01*
X134123605Y-122133639D01*
X134233787Y-122155414D01*
X134335583Y-122171929D01*
X134479215Y-122186038D01*
X134709959Y-122190164D01*
X134952326Y-122175722D01*
X135191195Y-122143789D01*
X135411446Y-122095437D01*
X135453882Y-122083800D01*
X135529865Y-122060376D01*
X135577223Y-122036074D01*
X135604510Y-122002247D01*
X135620283Y-121950247D01*
X135633099Y-121871427D01*
X135664695Y-121565251D01*
X135663788Y-121252813D01*
X135626084Y-120948386D01*
X135550617Y-120644401D01*
X135436417Y-120333289D01*
X135338366Y-120100995D01*
X135219162Y-120184498D01*
X135203212Y-120195381D01*
X135044281Y-120279039D01*
X134869470Y-120332819D01*
X134694126Y-120351833D01*
X134559711Y-120351833D01*
X134591206Y-120441098D01*
X134599856Y-120464002D01*
X134635906Y-120545075D01*
X134676300Y-120621823D01*
X134679905Y-120628062D01*
X134716692Y-120714530D01*
X134716886Y-120780353D01*
X134680480Y-120825221D01*
X134675576Y-120827912D01*
X134621511Y-120833181D01*
X134545398Y-120812702D01*
X134453770Y-120770663D01*
X134353157Y-120711249D01*
X134250091Y-120638647D01*
X134151104Y-120557045D01*
X134062727Y-120470628D01*
X133991491Y-120383583D01*
X133946808Y-120320083D01*
X133890156Y-120447083D01*
X133878576Y-120474002D01*
X133822856Y-120631548D01*
X133773720Y-120816495D01*
X133734103Y-121016476D01*
X133706940Y-121219124D01*
X133699941Y-121295288D01*
X133693801Y-121401091D01*
X133512009Y-121401091D01*
X133512160Y-121374270D01*
X133518099Y-121177901D01*
X133533556Y-121005226D01*
X133560891Y-120841320D01*
X133602464Y-120671261D01*
X133660635Y-120480125D01*
X133735394Y-120250425D01*
X133617760Y-119904254D01*
X133528616Y-119625034D01*
X133519318Y-119592115D01*
X133846386Y-119592115D01*
X133860421Y-119754212D01*
X133894599Y-119919750D01*
X133945865Y-120070433D01*
X133950301Y-120080545D01*
X134014541Y-120199212D01*
X134099862Y-120322633D01*
X134194916Y-120435791D01*
X134288353Y-120523667D01*
X134345256Y-120565416D01*
X134413682Y-120610334D01*
X134482139Y-120651278D01*
X134541875Y-120683281D01*
X134584135Y-120701376D01*
X134600167Y-120700596D01*
X134599080Y-120695727D01*
X134585140Y-120661817D01*
X134560275Y-120610282D01*
X134553880Y-120597028D01*
X134525999Y-120531010D01*
X134493097Y-120444217D01*
X134461005Y-120351833D01*
X134454635Y-120332432D01*
X134437609Y-120277877D01*
X134424528Y-120227592D01*
X134414757Y-120174920D01*
X134407659Y-120113203D01*
X134402599Y-120035785D01*
X134398941Y-119936008D01*
X134396049Y-119807216D01*
X134393287Y-119642750D01*
X134391885Y-119553810D01*
X134472877Y-119553810D01*
X134473428Y-119680839D01*
X134476006Y-119805436D01*
X134480633Y-119919991D01*
X134487326Y-120016888D01*
X134496107Y-120088517D01*
X134496537Y-120090980D01*
X134510606Y-120162405D01*
X134525496Y-120202815D01*
X134547627Y-120222844D01*
X134583420Y-120233125D01*
X134678749Y-120242326D01*
X134820800Y-120229655D01*
X134965962Y-120191081D01*
X135099544Y-120129553D01*
X135219344Y-120041886D01*
X135244126Y-120014535D01*
X135519018Y-120014535D01*
X135588441Y-120156726D01*
X135609680Y-120202073D01*
X135670121Y-120348593D01*
X135728095Y-120511674D01*
X135777544Y-120673476D01*
X135812409Y-120816160D01*
X135824239Y-120870631D01*
X135841199Y-120924099D01*
X135861987Y-120952535D01*
X135892016Y-120966139D01*
X135946577Y-120979243D01*
X136013042Y-120993409D01*
X136081833Y-121006942D01*
X136081833Y-120583457D01*
X136081994Y-120496758D01*
X136083699Y-120355154D01*
X136088261Y-120245582D01*
X136092933Y-120199926D01*
X136431083Y-120199926D01*
X136431083Y-122175907D01*
X136481053Y-122216370D01*
X136482692Y-122217681D01*
X136496464Y-122226990D01*
X136514582Y-122234697D01*
X136540844Y-122240952D01*
X136579050Y-122245906D01*
X136632998Y-122249710D01*
X136706487Y-122252515D01*
X136803315Y-122254472D01*
X136927282Y-122255731D01*
X137082186Y-122256444D01*
X137271826Y-122256761D01*
X137500000Y-122256833D01*
X137531404Y-122256832D01*
X137754448Y-122256737D01*
X137939442Y-122256378D01*
X138090186Y-122255604D01*
X138210477Y-122254264D01*
X138304115Y-122252208D01*
X138374898Y-122249283D01*
X138426625Y-122245341D01*
X138463094Y-122240229D01*
X138488105Y-122233797D01*
X138505457Y-122225895D01*
X138518947Y-122216370D01*
X138568917Y-122175907D01*
X138568917Y-120199926D01*
X138518947Y-120159463D01*
X138517308Y-120158152D01*
X138503536Y-120148843D01*
X138485419Y-120141136D01*
X138459156Y-120134881D01*
X138420951Y-120129927D01*
X138367003Y-120126123D01*
X138293514Y-120123318D01*
X138196685Y-120121361D01*
X138072718Y-120120102D01*
X137917814Y-120119389D01*
X137728174Y-120119072D01*
X137500000Y-120119000D01*
X137468596Y-120119001D01*
X137245552Y-120119096D01*
X137060558Y-120119455D01*
X136909815Y-120120229D01*
X136789524Y-120121569D01*
X136695886Y-120123625D01*
X136625103Y-120126550D01*
X136573376Y-120130492D01*
X136536906Y-120135604D01*
X136511895Y-120142036D01*
X136494544Y-120149938D01*
X136481053Y-120159463D01*
X136431083Y-120199926D01*
X136092933Y-120199926D01*
X136096893Y-120161227D01*
X136110806Y-120095274D01*
X136131213Y-120040909D01*
X136159327Y-119991316D01*
X136196360Y-119939680D01*
X136225548Y-119908556D01*
X136288396Y-119857454D01*
X136359747Y-119811649D01*
X136473417Y-119748800D01*
X136933792Y-119741327D01*
X136991608Y-119740288D01*
X137120327Y-119737203D01*
X137231018Y-119733479D01*
X137317606Y-119729384D01*
X137374014Y-119725184D01*
X137394167Y-119721144D01*
X137393842Y-119719201D01*
X137627000Y-119719201D01*
X137627134Y-119721144D01*
X137627542Y-119727097D01*
X137633322Y-119738421D01*
X137649773Y-119746722D01*
X137682173Y-119752471D01*
X137735797Y-119756139D01*
X137815924Y-119758198D01*
X137927830Y-119759119D01*
X138076792Y-119759373D01*
X138164794Y-119759469D01*
X138294392Y-119760145D01*
X138391983Y-119761982D01*
X138464213Y-119765582D01*
X138517726Y-119771543D01*
X138559168Y-119780469D01*
X138595183Y-119792958D01*
X138632417Y-119809613D01*
X138725114Y-119862965D01*
X138822468Y-119954638D01*
X138895288Y-120076667D01*
X138906948Y-120104422D01*
X138918987Y-120142751D01*
X138927558Y-120188921D01*
X138928586Y-120199926D01*
X138933246Y-120249828D01*
X138936637Y-120332371D01*
X138938316Y-120443449D01*
X138938869Y-120589958D01*
X138939237Y-120692011D01*
X138940888Y-120816975D01*
X138944095Y-120906597D01*
X138949132Y-120965110D01*
X138956273Y-120996745D01*
X138965792Y-121005733D01*
X138974549Y-121004633D01*
X139020456Y-120996350D01*
X139082113Y-120983340D01*
X139131410Y-120969459D01*
X139167815Y-120945560D01*
X139184448Y-120906231D01*
X139189616Y-120882891D01*
X139264135Y-120594190D01*
X139350948Y-120337229D01*
X139448450Y-120116811D01*
X139490851Y-120033699D01*
X139371516Y-119788275D01*
X139356541Y-119756504D01*
X139570367Y-119756504D01*
X139609392Y-119825907D01*
X139624790Y-119851750D01*
X139725852Y-119977522D01*
X139793222Y-120033699D01*
X139856083Y-120086117D01*
X140005158Y-120170142D01*
X140162750Y-120222200D01*
X140198569Y-120229369D01*
X140308520Y-120242791D01*
X140410195Y-120237235D01*
X140526320Y-120212068D01*
X140678684Y-120154478D01*
X140831416Y-120055484D01*
X140960355Y-119923032D01*
X141062470Y-119759679D01*
X141073780Y-119736429D01*
X141103607Y-119667493D01*
X141120606Y-119605918D01*
X141128259Y-119535160D01*
X141130050Y-119438678D01*
X141129842Y-119403579D01*
X141127655Y-119325118D01*
X141123590Y-119268078D01*
X141118276Y-119242914D01*
X141105382Y-119242471D01*
X141059054Y-119252036D01*
X140988028Y-119271536D01*
X140901317Y-119298654D01*
X140696167Y-119366229D01*
X140696167Y-119423961D01*
X140696167Y-119439598D01*
X140695571Y-119460422D01*
X140670966Y-119570056D01*
X140615581Y-119661627D01*
X140536743Y-119732423D01*
X140441774Y-119779732D01*
X140337999Y-119800845D01*
X140232743Y-119793048D01*
X140133330Y-119753631D01*
X140047085Y-119679882D01*
X140001253Y-119625386D01*
X139936498Y-119679874D01*
X139854228Y-119734016D01*
X139747969Y-119769818D01*
X139645054Y-119770516D01*
X139570367Y-119756504D01*
X139356541Y-119756504D01*
X139318186Y-119675128D01*
X139274664Y-119569926D01*
X139249500Y-119485101D01*
X139241752Y-119418787D01*
X139447333Y-119418787D01*
X139449910Y-119461632D01*
X139469515Y-119519288D01*
X139516125Y-119578055D01*
X139598536Y-119641466D01*
X139686263Y-119664037D01*
X139777212Y-119644667D01*
X139788656Y-119639343D01*
X139867783Y-119581170D01*
X139917787Y-119504283D01*
X139931681Y-119439999D01*
X140059746Y-119439999D01*
X140084392Y-119532389D01*
X140139989Y-119611347D01*
X140222791Y-119666481D01*
X140251341Y-119677958D01*
X140307356Y-119692958D01*
X140356291Y-119686788D01*
X140419496Y-119658592D01*
X140498944Y-119603422D01*
X140555095Y-119522467D01*
X140573037Y-119423961D01*
X140568550Y-119377437D01*
X140535187Y-119290340D01*
X140476301Y-119224846D01*
X140400199Y-119183130D01*
X140315191Y-119167365D01*
X140229583Y-119179725D01*
X140151684Y-119222384D01*
X140089802Y-119297516D01*
X140069797Y-119344571D01*
X140062063Y-119417997D01*
X140059746Y-119439999D01*
X139931681Y-119439999D01*
X139936436Y-119417997D01*
X139921496Y-119331628D01*
X139870736Y-119254492D01*
X139801025Y-119201367D01*
X139707745Y-119173673D01*
X139606513Y-119187525D01*
X139597700Y-119190623D01*
X139517519Y-119241495D01*
X139465719Y-119319987D01*
X139447333Y-119418787D01*
X139241752Y-119418787D01*
X139240961Y-119412021D01*
X139247316Y-119342052D01*
X139266831Y-119266562D01*
X139267771Y-119263570D01*
X139286983Y-119197738D01*
X139292067Y-119153553D01*
X139282108Y-119113075D01*
X139256188Y-119058367D01*
X139249268Y-119044792D01*
X139596030Y-119044792D01*
X139600586Y-119049681D01*
X139634977Y-119057558D01*
X139692142Y-119060667D01*
X139696934Y-119060681D01*
X139787735Y-119069937D01*
X139862520Y-119101371D01*
X139939458Y-119162463D01*
X139997667Y-119216753D01*
X140055875Y-119161223D01*
X140073847Y-119145193D01*
X140174764Y-119085668D01*
X140286981Y-119060285D01*
X140400879Y-119068624D01*
X140506840Y-119110265D01*
X140595247Y-119184788D01*
X140607746Y-119198834D01*
X140648782Y-119235340D01*
X140678925Y-119248836D01*
X140704145Y-119245137D01*
X140767527Y-119229540D01*
X140843135Y-119205933D01*
X140920377Y-119178228D01*
X140988662Y-119150333D01*
X141037401Y-119126160D01*
X141056000Y-119109618D01*
X141055205Y-119098949D01*
X141031499Y-119037296D01*
X140980189Y-118962901D01*
X140908491Y-118883170D01*
X140823624Y-118805510D01*
X140732805Y-118737329D01*
X140643250Y-118686032D01*
X140616113Y-118673661D01*
X140552901Y-118649158D01*
X140491459Y-118634941D01*
X140417107Y-118628355D01*
X140315167Y-118626750D01*
X140276674Y-118626903D01*
X140185423Y-118629936D01*
X140117002Y-118638841D01*
X140056879Y-118656211D01*
X139990523Y-118684635D01*
X139932776Y-118713873D01*
X139856587Y-118758202D01*
X139800023Y-118797656D01*
X139792827Y-118803757D01*
X139745236Y-118849907D01*
X139693202Y-118907453D01*
X139645284Y-118966029D01*
X139610041Y-119015264D01*
X139596030Y-119044792D01*
X139249268Y-119044792D01*
X139239922Y-119026458D01*
X139215270Y-118979626D01*
X139202705Y-118957987D01*
X139198603Y-118957908D01*
X139170008Y-118973103D01*
X139125039Y-119004770D01*
X139086454Y-119031927D01*
X138960063Y-119101060D01*
X138819444Y-119155828D01*
X138685117Y-119187697D01*
X138595450Y-119195348D01*
X138425734Y-119185731D01*
X138259496Y-119148017D01*
X138108201Y-119085263D01*
X137983311Y-119000527D01*
X137907975Y-118934381D01*
X137821440Y-119120629D01*
X137808923Y-119148270D01*
X137766694Y-119250400D01*
X137724953Y-119362899D01*
X137686908Y-119475898D01*
X137655763Y-119579527D01*
X137634725Y-119663918D01*
X137627000Y-119719201D01*
X137393842Y-119719201D01*
X137388623Y-119688027D01*
X137369772Y-119620637D01*
X137340718Y-119531335D01*
X137304753Y-119429401D01*
X137265166Y-119324113D01*
X137225248Y-119224749D01*
X137188289Y-119140588D01*
X137091961Y-118934760D01*
X137015522Y-118994813D01*
X136999040Y-119007417D01*
X136933517Y-119052950D01*
X136875583Y-119087483D01*
X136857780Y-119098018D01*
X136849139Y-119107081D01*
X136811634Y-119146419D01*
X136774806Y-119226179D01*
X136753546Y-119274567D01*
X136704469Y-119357328D01*
X136647806Y-119430801D01*
X136607132Y-119473749D01*
X136563317Y-119509917D01*
X136521015Y-119526187D01*
X136465972Y-119530364D01*
X136396995Y-119523819D01*
X136317805Y-119489789D01*
X136294224Y-119470153D01*
X136226389Y-119393565D01*
X136165136Y-119298569D01*
X136121978Y-119202084D01*
X136093434Y-119143457D01*
X136030340Y-119088059D01*
X136016877Y-119080811D01*
X136000474Y-119070593D01*
X136193875Y-119070593D01*
X136210138Y-119137345D01*
X136239805Y-119214531D01*
X136277839Y-119289187D01*
X136319202Y-119348348D01*
X136334430Y-119364647D01*
X136404327Y-119413509D01*
X136473600Y-119420890D01*
X136540666Y-119387470D01*
X136603940Y-119313932D01*
X136661836Y-119200957D01*
X136690837Y-119107081D01*
X136689045Y-119038767D01*
X136655559Y-118998358D01*
X136628239Y-118986481D01*
X136552194Y-118968768D01*
X136463094Y-118961969D01*
X136371891Y-118965352D01*
X136289539Y-118978181D01*
X136226990Y-118999722D01*
X136195198Y-119029239D01*
X136193875Y-119070593D01*
X136000474Y-119070593D01*
X135953406Y-119041273D01*
X135889846Y-118995501D01*
X135814275Y-118936135D01*
X135784821Y-118995457D01*
X135754460Y-119056609D01*
X135734056Y-119099319D01*
X135713235Y-119153892D01*
X135702018Y-119209367D01*
X135698022Y-119279529D01*
X135698862Y-119378167D01*
X135695909Y-119436716D01*
X135688936Y-119575011D01*
X135645427Y-119767179D01*
X135567913Y-119934476D01*
X135519018Y-120014535D01*
X135244126Y-120014535D01*
X135334719Y-119914553D01*
X135423117Y-119766067D01*
X135480994Y-119604198D01*
X135504806Y-119436716D01*
X135491009Y-119271389D01*
X135472593Y-119189541D01*
X135453839Y-119138693D01*
X135428526Y-119118642D01*
X135389318Y-119123838D01*
X135328877Y-119148731D01*
X135299801Y-119160566D01*
X135167511Y-119194217D01*
X135018202Y-119207147D01*
X134868023Y-119198815D01*
X134733126Y-119168680D01*
X134732877Y-119168596D01*
X134637776Y-119139118D01*
X134572672Y-119126580D01*
X134529093Y-119130293D01*
X134498567Y-119149566D01*
X134490550Y-119173639D01*
X134483190Y-119234264D01*
X134477778Y-119322910D01*
X134474333Y-119431962D01*
X134472877Y-119553810D01*
X134391885Y-119553810D01*
X134384948Y-119113583D01*
X134437145Y-119064613D01*
X134486126Y-119030775D01*
X134550334Y-119016558D01*
X134633157Y-119026449D01*
X134742766Y-119060333D01*
X134758884Y-119065930D01*
X134894515Y-119095508D01*
X135038842Y-119101077D01*
X135177020Y-119083129D01*
X135294208Y-119042152D01*
X135384999Y-118995457D01*
X135340795Y-118933378D01*
X135309665Y-118894789D01*
X135223276Y-118812421D01*
X135118792Y-118735156D01*
X135011231Y-118674780D01*
X135002127Y-118670647D01*
X134943733Y-118648504D01*
X134881735Y-118635113D01*
X134803255Y-118628514D01*
X134695417Y-118626750D01*
X134638171Y-118627069D01*
X134550187Y-118630439D01*
X134484115Y-118639365D01*
X134426435Y-118656141D01*
X134363626Y-118683062D01*
X134343622Y-118692731D01*
X134185192Y-118794232D01*
X134056129Y-118925899D01*
X133956896Y-119087000D01*
X133887954Y-119276805D01*
X133849766Y-119494583D01*
X133846386Y-119592115D01*
X133519318Y-119592115D01*
X133442256Y-119319285D01*
X133365226Y-119009566D01*
X133299945Y-118706326D01*
X133248829Y-118420015D01*
X133214300Y-118161083D01*
X133208143Y-118103290D01*
X133197996Y-118026949D01*
X133185506Y-117981167D01*
X133542737Y-117981167D01*
X133546094Y-118012494D01*
X133556608Y-118079910D01*
X133572915Y-118174572D01*
X133593616Y-118289012D01*
X133617315Y-118415767D01*
X133642613Y-118547371D01*
X133668112Y-118676359D01*
X133692416Y-118795265D01*
X133714126Y-118896625D01*
X133731674Y-118965492D01*
X133750395Y-119008981D01*
X133767847Y-119012336D01*
X133785032Y-118976687D01*
X133817793Y-118910158D01*
X133876398Y-118827628D01*
X133951217Y-118741161D01*
X134033083Y-118661328D01*
X134112830Y-118598698D01*
X134279543Y-118508645D01*
X134464825Y-118449830D01*
X134655199Y-118426518D01*
X134844854Y-118437807D01*
X135027978Y-118482795D01*
X135198761Y-118560580D01*
X135351390Y-118670259D01*
X135480053Y-118810931D01*
X135486854Y-118820149D01*
X135532263Y-118879205D01*
X135560867Y-118908444D01*
X135578846Y-118912557D01*
X135592376Y-118896237D01*
X135596055Y-118887678D01*
X135597441Y-118851994D01*
X135580517Y-118798165D01*
X135542887Y-118717528D01*
X135523635Y-118677199D01*
X135458612Y-118485575D01*
X135432952Y-118291462D01*
X135434490Y-118266917D01*
X135647917Y-118266917D01*
X135648236Y-118324162D01*
X135651606Y-118412146D01*
X135660532Y-118478219D01*
X135677308Y-118535899D01*
X135704229Y-118598707D01*
X135741409Y-118667481D01*
X135821977Y-118780989D01*
X135915885Y-118882181D01*
X136010914Y-118956789D01*
X136083028Y-119001357D01*
X136124611Y-118948493D01*
X136124729Y-118948343D01*
X136185094Y-118901978D01*
X136276925Y-118869701D01*
X136391096Y-118853654D01*
X136518483Y-118855981D01*
X136583239Y-118864120D01*
X136654585Y-118878034D01*
X136700842Y-118893003D01*
X136735157Y-118915119D01*
X136780333Y-118957145D01*
X136786679Y-118964989D01*
X136808356Y-118984577D01*
X136833498Y-118981799D01*
X136878281Y-118956557D01*
X136941171Y-118912849D01*
X137056984Y-118799618D01*
X137151345Y-118662321D01*
X137219566Y-118510288D01*
X137256958Y-118352848D01*
X137258833Y-118199330D01*
X137245737Y-118115184D01*
X137200713Y-117965848D01*
X137125793Y-117832788D01*
X137015103Y-117704064D01*
X136949617Y-117643082D01*
X136820471Y-117551431D01*
X136680891Y-117492452D01*
X136518808Y-117460213D01*
X136373211Y-117459366D01*
X136210129Y-117494361D01*
X136054617Y-117563402D01*
X135913838Y-117662323D01*
X135794955Y-117786962D01*
X135705131Y-117933155D01*
X135689081Y-117968710D01*
X135667577Y-118027398D01*
X135655102Y-118087602D01*
X135649325Y-118162912D01*
X135647917Y-118266917D01*
X135434490Y-118266917D01*
X135444959Y-118099814D01*
X135492936Y-117915587D01*
X135575184Y-117743738D01*
X135690007Y-117589221D01*
X135835708Y-117456993D01*
X136010588Y-117352009D01*
X136060116Y-117328999D01*
X136134347Y-117298875D01*
X136201842Y-117280710D01*
X136278958Y-117270670D01*
X136382049Y-117264922D01*
X136464860Y-117262750D01*
X136561657Y-117265825D01*
X136644937Y-117277849D01*
X136731545Y-117300538D01*
X136748070Y-117305718D01*
X136936043Y-117387790D01*
X137100237Y-117504316D01*
X137238396Y-117653349D01*
X137348264Y-117832942D01*
X137349676Y-117835830D01*
X137381508Y-117902481D01*
X137402959Y-117955611D01*
X137416076Y-118006390D01*
X137422909Y-118065990D01*
X137425506Y-118145580D01*
X137425706Y-118199330D01*
X137425917Y-118256333D01*
X137425917Y-118263824D01*
X137425439Y-118372417D01*
X137422616Y-118450779D01*
X137415328Y-118510345D01*
X137401459Y-118562551D01*
X137378892Y-118618835D01*
X137345508Y-118690631D01*
X137265100Y-118860346D01*
X137337004Y-119018714D01*
X137339852Y-119025012D01*
X137380227Y-119118463D01*
X137418085Y-119212693D01*
X137445572Y-119288208D01*
X137461136Y-119334021D01*
X137478487Y-119381089D01*
X137487252Y-119399333D01*
X137493599Y-119386366D01*
X137509339Y-119342749D01*
X137530194Y-119279021D01*
X137530275Y-119278764D01*
X137559007Y-119197070D01*
X137597810Y-119098627D01*
X137638309Y-119004689D01*
X137708498Y-118850668D01*
X137647537Y-118738115D01*
X137612046Y-118666302D01*
X137548298Y-118476405D01*
X137528625Y-118322063D01*
X137741860Y-118322063D01*
X137772031Y-118489338D01*
X137837672Y-118647198D01*
X137935436Y-118789470D01*
X138061977Y-118909979D01*
X138213949Y-119002550D01*
X138248406Y-119018177D01*
X138334353Y-119050028D01*
X138419634Y-119067341D01*
X138525623Y-119075090D01*
X138594348Y-119075850D01*
X138703104Y-119068844D01*
X138785112Y-119052360D01*
X138928579Y-118989356D01*
X139075676Y-118886783D01*
X139198726Y-118757972D01*
X139289401Y-118610224D01*
X139340100Y-118500795D01*
X139219092Y-118467278D01*
X139166623Y-118451705D01*
X139097845Y-118428193D01*
X139052326Y-118408802D01*
X139041578Y-118402392D01*
X138978647Y-118348736D01*
X138914519Y-118273134D01*
X138860609Y-118190519D01*
X138828333Y-118115821D01*
X138804817Y-118028226D01*
X138712397Y-118067842D01*
X138690851Y-118076764D01*
X138502564Y-118129933D01*
X138309739Y-118142484D01*
X138118391Y-118114581D01*
X137934533Y-118046391D01*
X137868214Y-118016846D01*
X137816447Y-117999950D01*
X137790711Y-117999489D01*
X137780355Y-118022616D01*
X137765635Y-118076859D01*
X137751051Y-118148397D01*
X137750504Y-118151548D01*
X137741860Y-118322063D01*
X137528625Y-118322063D01*
X137523818Y-118284347D01*
X137537042Y-118094801D01*
X137586400Y-117912437D01*
X137617907Y-117848424D01*
X137863776Y-117848424D01*
X137883103Y-117874231D01*
X137930877Y-117910829D01*
X137996044Y-117948821D01*
X138053191Y-117976580D01*
X138106192Y-117996152D01*
X138162442Y-118007099D01*
X138234961Y-118011870D01*
X138336773Y-118012917D01*
X138421775Y-118012219D01*
X138500774Y-118008059D01*
X138561724Y-117997972D01*
X138618116Y-117979518D01*
X138683444Y-117950260D01*
X138751898Y-117920082D01*
X138815207Y-117904770D01*
X138859644Y-117919275D01*
X138894421Y-117967464D01*
X138928750Y-118053202D01*
X138986189Y-118172873D01*
X139067598Y-118270430D01*
X139165549Y-118333438D01*
X139232774Y-118353517D01*
X139301207Y-118362167D01*
X139368106Y-118362167D01*
X139358440Y-118195190D01*
X139339428Y-118060636D01*
X139280669Y-117894859D01*
X139185845Y-117748645D01*
X139057206Y-117625246D01*
X138897000Y-117527915D01*
X138841882Y-117502791D01*
X138782839Y-117481275D01*
X138723463Y-117469147D01*
X138649764Y-117463790D01*
X138547750Y-117462587D01*
X138468589Y-117463201D01*
X138389189Y-117467215D01*
X138328495Y-117477160D01*
X138272972Y-117495522D01*
X138209083Y-117524787D01*
X138201587Y-117528540D01*
X138125481Y-117574218D01*
X138047229Y-117632387D01*
X137974382Y-117695969D01*
X137914490Y-117757887D01*
X137875104Y-117811064D01*
X137863776Y-117848424D01*
X137617907Y-117848424D01*
X137670325Y-117741928D01*
X137787251Y-117587946D01*
X137935610Y-117455162D01*
X137955467Y-117443250D01*
X139028713Y-117443250D01*
X139028992Y-117444133D01*
X139049255Y-117469687D01*
X139093373Y-117511938D01*
X139152334Y-117562214D01*
X139270085Y-117657706D01*
X139327043Y-117608713D01*
X139350541Y-117590724D01*
X139445185Y-117549177D01*
X139551738Y-117539056D01*
X139660601Y-117557818D01*
X139762173Y-117602917D01*
X139846855Y-117671807D01*
X139905046Y-117761945D01*
X139906276Y-117764943D01*
X139929212Y-117859155D01*
X139931852Y-117963161D01*
X139913524Y-118053872D01*
X139901806Y-118093364D01*
X139909317Y-118104422D01*
X139939148Y-118083199D01*
X139993131Y-118029125D01*
X140001341Y-118020292D01*
X140084053Y-117907633D01*
X140130489Y-117785527D01*
X140145162Y-117642500D01*
X140141752Y-117578144D01*
X140107767Y-117435699D01*
X140041802Y-117309274D01*
X139949376Y-117203252D01*
X139836009Y-117122016D01*
X139707217Y-117069948D01*
X139568520Y-117051433D01*
X139425436Y-117070853D01*
X139388203Y-117083051D01*
X139272065Y-117142208D01*
X139166200Y-117224837D01*
X139086637Y-117319187D01*
X139061191Y-117362158D01*
X139036063Y-117413669D01*
X139028713Y-117443250D01*
X137955467Y-117443250D01*
X138113833Y-117348248D01*
X138148158Y-117331916D01*
X138212425Y-117303679D01*
X138267372Y-117286088D01*
X138325912Y-117276633D01*
X138400956Y-117272802D01*
X138505417Y-117272083D01*
X138581653Y-117272885D01*
X138675603Y-117276129D01*
X138750210Y-117281289D01*
X138793981Y-117287740D01*
X138823335Y-117293729D01*
X138852451Y-117283331D01*
X138875590Y-117240922D01*
X138901077Y-117196460D01*
X138963173Y-117123419D01*
X139045844Y-117048026D01*
X139138626Y-116979519D01*
X139231051Y-116927137D01*
X139231560Y-116926900D01*
X139300571Y-116898160D01*
X139365015Y-116881057D01*
X139440487Y-116872754D01*
X139542583Y-116870409D01*
X139558730Y-116870461D01*
X139724045Y-116884938D01*
X139865018Y-116927855D01*
X139991407Y-117003408D01*
X140112967Y-117115796D01*
X140166850Y-117178804D01*
X140253170Y-117316680D01*
X140302570Y-117465846D01*
X140318704Y-117635530D01*
X140318660Y-117642500D01*
X140318584Y-117654673D01*
X140296130Y-117836021D01*
X140235545Y-117999354D01*
X140137544Y-118143246D01*
X140002839Y-118266273D01*
X139982756Y-118280269D01*
X139885919Y-118327589D01*
X139798079Y-118340648D01*
X139724560Y-118323360D01*
X139670686Y-118279640D01*
X139641780Y-118213402D01*
X139643166Y-118128560D01*
X139680167Y-118029028D01*
X139698959Y-117992395D01*
X139718611Y-117937564D01*
X139716035Y-117891293D01*
X139692338Y-117836070D01*
X139649333Y-117782244D01*
X139584171Y-117742699D01*
X139513644Y-117728617D01*
X139451625Y-117745233D01*
X139442028Y-117756500D01*
X139439890Y-117786025D01*
X139451519Y-117838996D01*
X139478084Y-117923266D01*
X139490163Y-117961605D01*
X139529087Y-118165206D01*
X139527502Y-118362167D01*
X139527445Y-118369299D01*
X139499880Y-118500795D01*
X139485731Y-118568298D01*
X139404440Y-118756619D01*
X139392594Y-118778229D01*
X139365203Y-118835963D01*
X139358363Y-118872952D01*
X139369384Y-118900209D01*
X139382386Y-118913738D01*
X139401105Y-118913150D01*
X139428629Y-118887333D01*
X139472363Y-118831332D01*
X139558721Y-118730075D01*
X139704483Y-118607547D01*
X139882451Y-118506624D01*
X139888370Y-118503862D01*
X139968965Y-118469533D01*
X140040991Y-118448176D01*
X140121407Y-118435978D01*
X140227170Y-118429128D01*
X140329865Y-118427887D01*
X140509187Y-118446148D01*
X140668973Y-118493616D01*
X140818486Y-118572536D01*
X140917556Y-118646679D01*
X141023401Y-118746666D01*
X141114211Y-118853644D01*
X141178311Y-118955193D01*
X141220755Y-119040980D01*
X141254651Y-118886782D01*
X141279517Y-118766489D01*
X141307350Y-118617631D01*
X141334043Y-118461911D01*
X141357625Y-118311385D01*
X141376123Y-118178108D01*
X141387567Y-118074135D01*
X141391779Y-118022981D01*
X141394337Y-117965262D01*
X141388991Y-117933770D01*
X141373103Y-117918525D01*
X141344032Y-117909547D01*
X141282083Y-117888439D01*
X141164932Y-117821560D01*
X141051706Y-117725083D01*
X140950732Y-117606662D01*
X140870334Y-117473955D01*
X140847551Y-117424627D01*
X140829216Y-117371653D01*
X140818700Y-117313677D01*
X140813901Y-117238266D01*
X140812718Y-117132983D01*
X140812710Y-117118954D01*
X141205022Y-117118954D01*
X141220050Y-117242792D01*
X141267909Y-117358343D01*
X141347611Y-117458368D01*
X141458167Y-117535629D01*
X141458229Y-117535660D01*
X141589817Y-117580308D01*
X141723124Y-117585210D01*
X141850922Y-117551172D01*
X141965980Y-117478999D01*
X142051108Y-117385595D01*
X142111245Y-117267231D01*
X142134847Y-117140466D01*
X142121724Y-117012410D01*
X142071687Y-116890171D01*
X141984548Y-116780858D01*
X141961248Y-116760684D01*
X141869425Y-116703253D01*
X141765958Y-116662902D01*
X141669833Y-116647667D01*
X141641738Y-116649244D01*
X141541280Y-116673189D01*
X141439412Y-116719739D01*
X141355119Y-116780858D01*
X141277412Y-116875365D01*
X141223813Y-116994066D01*
X141205022Y-117118954D01*
X140812710Y-117118954D01*
X140812583Y-116909216D01*
X140622083Y-116828561D01*
X140347547Y-116718684D01*
X139814572Y-116539241D01*
X139263167Y-116396209D01*
X138696685Y-116290398D01*
X138118482Y-116222622D01*
X138097292Y-116220955D01*
X137951456Y-116213076D01*
X137776826Y-116208456D01*
X137582289Y-116206927D01*
X137376729Y-116208322D01*
X137169033Y-116212471D01*
X136968085Y-116219209D01*
X136782770Y-116228366D01*
X136621974Y-116239776D01*
X136494583Y-116253271D01*
X135945546Y-116342836D01*
X135404875Y-116465154D01*
X134881171Y-116619982D01*
X134367333Y-116809176D01*
X134123917Y-116907727D01*
X134123917Y-117124844D01*
X134123917Y-117132238D01*
X134122939Y-117235439D01*
X134118479Y-117310642D01*
X134108301Y-117368656D01*
X134090171Y-117422139D01*
X134061854Y-117483750D01*
X134005181Y-117579580D01*
X133904268Y-117701402D01*
X133785907Y-117804235D01*
X133661773Y-117876614D01*
X133627150Y-117892106D01*
X133574318Y-117921096D01*
X133549105Y-117948214D01*
X133542737Y-117981167D01*
X133185506Y-117981167D01*
X133184970Y-117979201D01*
X133164224Y-117951369D01*
X133130917Y-117934777D01*
X133080207Y-117920747D01*
X133025840Y-117903716D01*
X132887839Y-117833585D01*
X132759193Y-117731466D01*
X132648231Y-117604767D01*
X132563280Y-117460897D01*
X132549918Y-117430139D01*
X132532263Y-117376270D01*
X132521706Y-117315035D01*
X132516588Y-117234797D01*
X132515250Y-117123917D01*
X132515259Y-117122318D01*
X132869631Y-117122318D01*
X132887355Y-117256945D01*
X132891093Y-117269152D01*
X132939269Y-117364327D01*
X133013938Y-117455112D01*
X133103171Y-117529202D01*
X133195039Y-117574294D01*
X133203483Y-117576754D01*
X133321482Y-117597931D01*
X133429118Y-117586853D01*
X133543199Y-117541958D01*
X133567361Y-117528946D01*
X133673697Y-117447858D01*
X133747335Y-117349412D01*
X133789733Y-117239708D01*
X133802349Y-117124844D01*
X133786643Y-117010919D01*
X133744074Y-116904032D01*
X133676100Y-116810281D01*
X133584180Y-116735765D01*
X133469774Y-116686582D01*
X133334339Y-116668833D01*
X133256507Y-116675092D01*
X133130904Y-116714455D01*
X133024863Y-116784848D01*
X132942936Y-116880281D01*
X132889675Y-116994768D01*
X132869631Y-117122318D01*
X132515259Y-117122318D01*
X132515618Y-117058346D01*
X132518833Y-116965786D01*
X132526743Y-116897456D01*
X132541005Y-116841719D01*
X132563280Y-116786936D01*
X132632068Y-116663431D01*
X132751486Y-116521473D01*
X132900260Y-116409936D01*
X133077922Y-116329236D01*
X133235370Y-116293810D01*
X133411587Y-116291805D01*
X133584466Y-116326262D01*
X133745582Y-116395426D01*
X133886511Y-116497545D01*
X133980358Y-116584050D01*
X134205881Y-116489564D01*
X134407752Y-116408123D01*
X134963828Y-116214674D01*
X135533101Y-116060280D01*
X136112532Y-115945264D01*
X136699085Y-115869951D01*
X137289721Y-115834664D01*
X137881403Y-115839728D01*
X138471092Y-115885467D01*
X139055750Y-115972206D01*
X139073386Y-115975489D01*
X139413604Y-116047990D01*
X139769802Y-116139723D01*
X140127414Y-116246360D01*
X140471872Y-116363574D01*
X140788607Y-116487035D01*
X141018631Y-116583626D01*
X141123006Y-116489784D01*
X141124700Y-116488266D01*
X141267578Y-116387010D01*
X141424464Y-116321871D01*
X141589572Y-116291598D01*
X141757119Y-116294941D01*
X141921319Y-116330650D01*
X142076389Y-116397473D01*
X142216544Y-116494161D01*
X142336000Y-116619462D01*
X142428973Y-116772126D01*
X142452042Y-116824824D01*
X142469229Y-116878483D01*
X142479131Y-116938153D01*
X142483665Y-117015931D01*
X142484750Y-117123917D01*
X142484738Y-117140466D01*
X142484737Y-117141985D01*
G36*
X142484737Y-117141985D02*
G01*
X142483501Y-117242784D01*
X142478763Y-117315197D01*
X142468421Y-117371359D01*
X142450376Y-117423408D01*
X142422528Y-117483480D01*
X142388865Y-117543091D01*
X142325170Y-117634561D01*
X142258694Y-117711822D01*
X142238973Y-117730408D01*
X142165209Y-117788475D01*
X142078686Y-117844704D01*
X141990693Y-117892740D01*
X141912517Y-117926228D01*
X141855445Y-117938816D01*
X141837573Y-117941987D01*
X141820973Y-117958540D01*
X141818685Y-117965262D01*
X141808297Y-117995786D01*
X141797291Y-118060906D01*
X141785701Y-118161083D01*
X141765591Y-118324233D01*
X141718115Y-118614609D01*
X141654613Y-118925321D01*
X141610275Y-119109618D01*
X141577509Y-119245816D01*
X141524256Y-119438678D01*
X141489227Y-119565543D01*
X141392191Y-119873950D01*
X141391660Y-119875530D01*
X141352145Y-119996409D01*
X141318767Y-120104847D01*
X141293479Y-120193963D01*
X141278236Y-120256874D01*
X141274992Y-120286700D01*
X141278206Y-120296656D01*
X141294180Y-120344138D01*
X141318661Y-120415674D01*
X141347805Y-120500000D01*
X141393065Y-120641226D01*
X141437519Y-120819979D01*
X141466870Y-121003041D01*
X141482967Y-121202722D01*
X141487224Y-121410167D01*
X141487658Y-121431333D01*
X141483058Y-121652896D01*
X141469159Y-121845101D01*
X141445861Y-121997957D01*
X141413052Y-122112473D01*
X141392505Y-122147213D01*
X141349865Y-122183502D01*
X141281986Y-122217338D01*
X141183294Y-122251410D01*
X141048215Y-122288404D01*
X140966014Y-122308384D01*
X140952854Y-122310931D01*
X140734367Y-122353218D01*
X140510788Y-122376981D01*
X140275313Y-122382093D01*
X140034377Y-122378785D01*
X139856374Y-122593832D01*
X139633399Y-122849601D01*
X139363951Y-123130949D01*
X139077840Y-123404540D01*
X138786032Y-123659928D01*
X138499492Y-123886667D01*
X138451333Y-123922752D01*
X138377832Y-123979626D01*
X138331153Y-124020158D01*
X138306164Y-124049810D01*
X138297734Y-124074047D01*
X138300734Y-124098333D01*
X138304331Y-124118816D01*
X138309676Y-124181092D01*
X138313261Y-124266526D01*
X138314298Y-124350199D01*
X138314455Y-124362917D01*
X138313816Y-124433436D01*
X138309897Y-124516123D01*
X138300277Y-124578685D01*
X138282531Y-124634587D01*
X138254234Y-124697296D01*
X138225158Y-124751155D01*
X138119431Y-124891996D01*
X137985608Y-125010928D01*
X137832363Y-125101160D01*
X137668375Y-125155900D01*
X137505036Y-125172143D01*
X137331279Y-125152192D01*
X137165723Y-125096816D01*
X137014362Y-125009531D01*
X136883190Y-124893852D01*
X136778204Y-124753291D01*
X136705399Y-124591365D01*
X136691309Y-124524767D01*
X136681855Y-124430995D01*
X136679285Y-124360191D01*
X137036316Y-124360191D01*
X137054529Y-124474941D01*
X137102516Y-124583367D01*
X137181713Y-124679366D01*
X137293557Y-124756834D01*
X137420664Y-124801606D01*
X137552194Y-124806950D01*
X137679398Y-124771486D01*
X137797338Y-124695812D01*
X137807941Y-124686493D01*
X137895050Y-124583460D01*
X137946547Y-124469292D01*
X137964695Y-124350199D01*
X137951758Y-124232390D01*
X137909998Y-124122076D01*
X137841679Y-124025467D01*
X137749065Y-123948771D01*
X137634417Y-123898200D01*
X137500000Y-123879963D01*
X137471804Y-123880694D01*
X137341554Y-123905210D01*
X137232456Y-123960025D01*
X137145946Y-124039034D01*
X137083461Y-124136134D01*
X137046439Y-124245221D01*
X137036316Y-124360191D01*
X136679285Y-124360191D01*
X136678047Y-124326091D01*
X136679987Y-124223313D01*
X136687775Y-124135919D01*
X136701510Y-124077167D01*
X136701766Y-124076499D01*
X136694672Y-124052518D01*
X136659559Y-124013523D01*
X136593810Y-123957024D01*
X136494808Y-123880531D01*
X136424496Y-123827077D01*
X136087411Y-123550752D01*
X135754035Y-123245631D01*
X135435187Y-122922032D01*
X135141685Y-122590271D01*
X134965433Y-122378935D01*
X134714008Y-122381775D01*
X134631219Y-122381427D01*
X134456941Y-122373095D01*
X134283685Y-122355590D01*
X134117353Y-122330229D01*
X134037599Y-122313658D01*
X135406766Y-122313658D01*
X135408042Y-122318505D01*
X135428760Y-122348372D01*
X135469069Y-122398863D01*
X135523183Y-122462577D01*
X135698706Y-122657752D01*
X136017604Y-122983695D01*
X136348065Y-123287645D01*
X136679867Y-123559903D01*
X136911908Y-123738434D01*
X136992605Y-123674521D01*
X137062450Y-123624080D01*
X137180160Y-123563076D01*
X137311077Y-123526789D01*
X137468250Y-123510727D01*
X137537976Y-123508658D01*
X137629677Y-123511323D01*
X137705792Y-123523190D01*
X137782717Y-123546106D01*
X137833506Y-123566373D01*
X137927422Y-123612759D01*
X138007663Y-123662153D01*
X138108642Y-123734700D01*
X138338779Y-123556008D01*
X138583667Y-123356869D01*
X138861098Y-123111496D01*
X139128751Y-122854812D01*
X139371904Y-122600435D01*
X139634993Y-122310931D01*
X139463833Y-122255317D01*
X139402200Y-122234266D01*
X139322804Y-122199919D01*
X139271002Y-122162025D01*
X139237946Y-122113140D01*
X139214786Y-122045821D01*
X139207606Y-122016228D01*
X139188192Y-121906586D01*
X139171965Y-121772592D01*
X139160102Y-121627613D01*
X139153781Y-121485016D01*
X139154160Y-121364467D01*
X139332189Y-121364467D01*
X139334700Y-121572968D01*
X139351031Y-121777805D01*
X139380232Y-121960500D01*
X139383159Y-121972830D01*
X139396709Y-122006244D01*
X139421459Y-122033214D01*
X139463498Y-122056547D01*
X139528917Y-122079046D01*
X139623804Y-122103517D01*
X139754250Y-122132765D01*
X139849139Y-122150072D01*
X140020587Y-122170341D01*
X140208112Y-122182057D01*
X140397428Y-122184794D01*
X140574246Y-122178127D01*
X140724279Y-122161632D01*
X140830666Y-122142454D01*
X140950730Y-122117026D01*
X141060591Y-122090102D01*
X141149696Y-122064289D01*
X141207494Y-122042196D01*
X141227398Y-122020795D01*
X141251327Y-121958210D01*
X141270830Y-121861301D01*
X141285267Y-121734622D01*
X141293998Y-121582726D01*
X141296382Y-121410167D01*
X141295611Y-121348789D01*
X141283982Y-121129093D01*
X141256545Y-120926351D01*
X141210575Y-120728113D01*
X141143342Y-120521934D01*
X141052121Y-120295363D01*
X140968249Y-120101310D01*
X140849270Y-120184656D01*
X140685436Y-120275516D01*
X140504758Y-120331538D01*
X140317210Y-120350508D01*
X140129623Y-120332422D01*
X139948830Y-120277278D01*
X139781661Y-120185074D01*
X139663279Y-120102147D01*
X139598929Y-120242865D01*
X139569531Y-120308479D01*
X139481127Y-120530337D01*
X139416517Y-120742437D01*
X139371342Y-120961003D01*
X139341245Y-121202261D01*
X139332189Y-121364467D01*
X139154160Y-121364467D01*
X139154180Y-121358166D01*
X139154805Y-121340745D01*
X139157316Y-121252881D01*
X139156351Y-121198778D01*
X139150574Y-121171068D01*
X139138652Y-121162384D01*
X139119250Y-121165360D01*
X139080599Y-121172497D01*
X139020050Y-121177044D01*
X138963183Y-121177333D01*
X138956550Y-121701208D01*
X138954348Y-121859788D01*
X138951837Y-121988274D01*
X138948610Y-122085757D01*
X138944170Y-122158006D01*
X138938026Y-122210788D01*
X138929682Y-122249873D01*
X138918644Y-122281030D01*
X138904420Y-122310027D01*
X138884552Y-122344505D01*
X138784010Y-122467593D01*
X138653861Y-122560586D01*
X138640724Y-122567436D01*
X138619593Y-122576857D01*
X138594737Y-122584658D01*
X138562293Y-122591022D01*
X138518403Y-122596132D01*
X138459204Y-122600171D01*
X138380837Y-122603322D01*
X138279441Y-122605768D01*
X138151154Y-122607692D01*
X137992117Y-122609278D01*
X137798468Y-122610708D01*
X137566347Y-122612166D01*
X137474195Y-122612714D01*
X137238739Y-122613864D01*
X137040467Y-122614120D01*
X136875566Y-122613113D01*
X136740225Y-122610477D01*
X136630633Y-122605843D01*
X136542978Y-122598844D01*
X136473450Y-122589112D01*
X136418237Y-122576280D01*
X136373528Y-122559981D01*
X136335512Y-122539847D01*
X136300376Y-122515509D01*
X136264311Y-122486602D01*
X136236155Y-122459963D01*
X136177721Y-122387889D01*
X136132226Y-122311250D01*
X136130809Y-122308200D01*
X136115311Y-122272841D01*
X136103511Y-122238209D01*
X136094903Y-122198153D01*
X136088982Y-122146521D01*
X136085241Y-122077162D01*
X136083175Y-121983925D01*
X136082277Y-121860657D01*
X136082040Y-121701208D01*
X136081718Y-121606641D01*
X136080242Y-121475137D01*
X136077742Y-121362650D01*
X136074404Y-121275008D01*
X136070414Y-121218041D01*
X136065958Y-121197578D01*
X136059631Y-121196865D01*
X136019991Y-121190361D01*
X135961624Y-121179528D01*
X135873165Y-121162399D01*
X135872508Y-121450324D01*
X135870415Y-121565251D01*
X135870241Y-121574845D01*
X135860353Y-121743356D01*
X135843458Y-121892479D01*
X135820455Y-122016512D01*
X135792240Y-122109753D01*
X135759713Y-122166501D01*
X135758836Y-122167415D01*
X135715150Y-122197814D01*
X135645624Y-122231446D01*
X135564896Y-122261197D01*
X135553780Y-122264677D01*
X135482153Y-122287536D01*
X135429580Y-122305047D01*
X135406766Y-122313658D01*
X134037599Y-122313658D01*
X133963847Y-122298334D01*
X133829067Y-122261224D01*
X133718916Y-122220219D01*
X133639295Y-122176638D01*
X133596105Y-122131800D01*
X133571321Y-122066725D01*
X133545797Y-121950952D01*
X133527018Y-121801597D01*
X133515535Y-121623312D01*
X133511899Y-121420750D01*
X133512009Y-121401091D01*
X133693801Y-121401091D01*
X133694408Y-121499156D01*
X133702084Y-121605937D01*
X133717155Y-121737887D01*
X133717291Y-121738968D01*
X133735002Y-121866089D01*
X133751625Y-121955309D01*
X133768154Y-122010977D01*
X133785584Y-122037444D01*
X133791096Y-122040913D01*
X133838781Y-122060241D01*
X133916497Y-122083704D01*
X134014640Y-122108953D01*
X134123605Y-122133639D01*
X134233787Y-122155414D01*
X134335583Y-122171929D01*
X134479215Y-122186038D01*
X134709959Y-122190164D01*
X134952326Y-122175722D01*
X135191195Y-122143789D01*
X135411446Y-122095437D01*
X135453882Y-122083800D01*
X135529865Y-122060376D01*
X135577223Y-122036074D01*
X135604510Y-122002247D01*
X135620283Y-121950247D01*
X135633099Y-121871427D01*
X135664695Y-121565251D01*
X135663788Y-121252813D01*
X135626084Y-120948386D01*
X135550617Y-120644401D01*
X135436417Y-120333289D01*
X135338366Y-120100995D01*
X135219162Y-120184498D01*
X135203212Y-120195381D01*
X135044281Y-120279039D01*
X134869470Y-120332819D01*
X134694126Y-120351833D01*
X134559711Y-120351833D01*
X134591206Y-120441098D01*
X134599856Y-120464002D01*
X134635906Y-120545075D01*
X134676300Y-120621823D01*
X134679905Y-120628062D01*
X134716692Y-120714530D01*
X134716886Y-120780353D01*
X134680480Y-120825221D01*
X134675576Y-120827912D01*
X134621511Y-120833181D01*
X134545398Y-120812702D01*
X134453770Y-120770663D01*
X134353157Y-120711249D01*
X134250091Y-120638647D01*
X134151104Y-120557045D01*
X134062727Y-120470628D01*
X133991491Y-120383583D01*
X133946808Y-120320083D01*
X133890156Y-120447083D01*
X133878576Y-120474002D01*
X133822856Y-120631548D01*
X133773720Y-120816495D01*
X133734103Y-121016476D01*
X133706940Y-121219124D01*
X133699941Y-121295288D01*
X133693801Y-121401091D01*
X133512009Y-121401091D01*
X133512160Y-121374270D01*
X133518099Y-121177901D01*
X133533556Y-121005226D01*
X133560891Y-120841320D01*
X133602464Y-120671261D01*
X133660635Y-120480125D01*
X133735394Y-120250425D01*
X133617760Y-119904254D01*
X133528616Y-119625034D01*
X133519318Y-119592115D01*
X133846386Y-119592115D01*
X133860421Y-119754212D01*
X133894599Y-119919750D01*
X133945865Y-120070433D01*
X133950301Y-120080545D01*
X134014541Y-120199212D01*
X134099862Y-120322633D01*
X134194916Y-120435791D01*
X134288353Y-120523667D01*
X134345256Y-120565416D01*
X134413682Y-120610334D01*
X134482139Y-120651278D01*
X134541875Y-120683281D01*
X134584135Y-120701376D01*
X134600167Y-120700596D01*
X134599080Y-120695727D01*
X134585140Y-120661817D01*
X134560275Y-120610282D01*
X134553880Y-120597028D01*
X134525999Y-120531010D01*
X134493097Y-120444217D01*
X134461005Y-120351833D01*
X134454635Y-120332432D01*
X134437609Y-120277877D01*
X134424528Y-120227592D01*
X134414757Y-120174920D01*
X134407659Y-120113203D01*
X134402599Y-120035785D01*
X134398941Y-119936008D01*
X134396049Y-119807216D01*
X134393287Y-119642750D01*
X134391885Y-119553810D01*
X134472877Y-119553810D01*
X134473428Y-119680839D01*
X134476006Y-119805436D01*
X134480633Y-119919991D01*
X134487326Y-120016888D01*
X134496107Y-120088517D01*
X134496537Y-120090980D01*
X134510606Y-120162405D01*
X134525496Y-120202815D01*
X134547627Y-120222844D01*
X134583420Y-120233125D01*
X134678749Y-120242326D01*
X134820800Y-120229655D01*
X134965962Y-120191081D01*
X135099544Y-120129553D01*
X135219344Y-120041886D01*
X135244126Y-120014535D01*
X135519018Y-120014535D01*
X135588441Y-120156726D01*
X135609680Y-120202073D01*
X135670121Y-120348593D01*
X135728095Y-120511674D01*
X135777544Y-120673476D01*
X135812409Y-120816160D01*
X135824239Y-120870631D01*
X135841199Y-120924099D01*
X135861987Y-120952535D01*
X135892016Y-120966139D01*
X135946577Y-120979243D01*
X136013042Y-120993409D01*
X136081833Y-121006942D01*
X136081833Y-120583457D01*
X136081994Y-120496758D01*
X136083699Y-120355154D01*
X136088261Y-120245582D01*
X136092933Y-120199926D01*
X136431083Y-120199926D01*
X136431083Y-122175907D01*
X136481053Y-122216370D01*
X136482692Y-122217681D01*
X136496464Y-122226990D01*
X136514582Y-122234697D01*
X136540844Y-122240952D01*
X136579050Y-122245906D01*
X136632998Y-122249710D01*
X136706487Y-122252515D01*
X136803315Y-122254472D01*
X136927282Y-122255731D01*
X137082186Y-122256444D01*
X137271826Y-122256761D01*
X137500000Y-122256833D01*
X137531404Y-122256832D01*
X137754448Y-122256737D01*
X137939442Y-122256378D01*
X138090186Y-122255604D01*
X138210477Y-122254264D01*
X138304115Y-122252208D01*
X138374898Y-122249283D01*
X138426625Y-122245341D01*
X138463094Y-122240229D01*
X138488105Y-122233797D01*
X138505457Y-122225895D01*
X138518947Y-122216370D01*
X138568917Y-122175907D01*
X138568917Y-120199926D01*
X138518947Y-120159463D01*
X138517308Y-120158152D01*
X138503536Y-120148843D01*
X138485419Y-120141136D01*
X138459156Y-120134881D01*
X138420951Y-120129927D01*
X138367003Y-120126123D01*
X138293514Y-120123318D01*
X138196685Y-120121361D01*
X138072718Y-120120102D01*
X137917814Y-120119389D01*
X137728174Y-120119072D01*
X137500000Y-120119000D01*
X137468596Y-120119001D01*
X137245552Y-120119096D01*
X137060558Y-120119455D01*
X136909815Y-120120229D01*
X136789524Y-120121569D01*
X136695886Y-120123625D01*
X136625103Y-120126550D01*
X136573376Y-120130492D01*
X136536906Y-120135604D01*
X136511895Y-120142036D01*
X136494544Y-120149938D01*
X136481053Y-120159463D01*
X136431083Y-120199926D01*
X136092933Y-120199926D01*
X136096893Y-120161227D01*
X136110806Y-120095274D01*
X136131213Y-120040909D01*
X136159327Y-119991316D01*
X136196360Y-119939680D01*
X136225548Y-119908556D01*
X136288396Y-119857454D01*
X136359747Y-119811649D01*
X136473417Y-119748800D01*
X136933792Y-119741327D01*
X136991608Y-119740288D01*
X137120327Y-119737203D01*
X137231018Y-119733479D01*
X137317606Y-119729384D01*
X137374014Y-119725184D01*
X137394167Y-119721144D01*
X137393842Y-119719201D01*
X137627000Y-119719201D01*
X137627134Y-119721144D01*
X137627542Y-119727097D01*
X137633322Y-119738421D01*
X137649773Y-119746722D01*
X137682173Y-119752471D01*
X137735797Y-119756139D01*
X137815924Y-119758198D01*
X137927830Y-119759119D01*
X138076792Y-119759373D01*
X138164794Y-119759469D01*
X138294392Y-119760145D01*
X138391983Y-119761982D01*
X138464213Y-119765582D01*
X138517726Y-119771543D01*
X138559168Y-119780469D01*
X138595183Y-119792958D01*
X138632417Y-119809613D01*
X138725114Y-119862965D01*
X138822468Y-119954638D01*
X138895288Y-120076667D01*
X138906948Y-120104422D01*
X138918987Y-120142751D01*
X138927558Y-120188921D01*
X138928586Y-120199926D01*
X138933246Y-120249828D01*
X138936637Y-120332371D01*
X138938316Y-120443449D01*
X138938869Y-120589958D01*
X138939237Y-120692011D01*
X138940888Y-120816975D01*
X138944095Y-120906597D01*
X138949132Y-120965110D01*
X138956273Y-120996745D01*
X138965792Y-121005733D01*
X138974549Y-121004633D01*
X139020456Y-120996350D01*
X139082113Y-120983340D01*
X139131410Y-120969459D01*
X139167815Y-120945560D01*
X139184448Y-120906231D01*
X139189616Y-120882891D01*
X139264135Y-120594190D01*
X139350948Y-120337229D01*
X139448450Y-120116811D01*
X139490851Y-120033699D01*
X139371516Y-119788275D01*
X139356541Y-119756504D01*
X139570367Y-119756504D01*
X139609392Y-119825907D01*
X139624790Y-119851750D01*
X139725852Y-119977522D01*
X139793222Y-120033699D01*
X139856083Y-120086117D01*
X140005158Y-120170142D01*
X140162750Y-120222200D01*
X140198569Y-120229369D01*
X140308520Y-120242791D01*
X140410195Y-120237235D01*
X140526320Y-120212068D01*
X140678684Y-120154478D01*
X140831416Y-120055484D01*
X140960355Y-119923032D01*
X141062470Y-119759679D01*
X141073780Y-119736429D01*
X141103607Y-119667493D01*
X141120606Y-119605918D01*
X141128259Y-119535160D01*
X141130050Y-119438678D01*
X141129842Y-119403579D01*
X141127655Y-119325118D01*
X141123590Y-119268078D01*
X141118276Y-119242914D01*
X141105382Y-119242471D01*
X141059054Y-119252036D01*
X140988028Y-119271536D01*
X140901317Y-119298654D01*
X140696167Y-119366229D01*
X140696167Y-119423961D01*
X140696167Y-119439598D01*
X140695571Y-119460422D01*
X140670966Y-119570056D01*
X140615581Y-119661627D01*
X140536743Y-119732423D01*
X140441774Y-119779732D01*
X140337999Y-119800845D01*
X140232743Y-119793048D01*
X140133330Y-119753631D01*
X140047085Y-119679882D01*
X140001253Y-119625386D01*
X139936498Y-119679874D01*
X139854228Y-119734016D01*
X139747969Y-119769818D01*
X139645054Y-119770516D01*
X139570367Y-119756504D01*
X139356541Y-119756504D01*
X139318186Y-119675128D01*
X139274664Y-119569926D01*
X139249500Y-119485101D01*
X139241752Y-119418787D01*
X139447333Y-119418787D01*
X139449910Y-119461632D01*
X139469515Y-119519288D01*
X139516125Y-119578055D01*
X139598536Y-119641466D01*
X139686263Y-119664037D01*
X139777212Y-119644667D01*
X139788656Y-119639343D01*
X139867783Y-119581170D01*
X139917787Y-119504283D01*
X139931681Y-119439999D01*
X140059746Y-119439999D01*
X140084392Y-119532389D01*
X140139989Y-119611347D01*
X140222791Y-119666481D01*
X140251341Y-119677958D01*
X140307356Y-119692958D01*
X140356291Y-119686788D01*
X140419496Y-119658592D01*
X140498944Y-119603422D01*
X140555095Y-119522467D01*
X140573037Y-119423961D01*
X140568550Y-119377437D01*
X140535187Y-119290340D01*
X140476301Y-119224846D01*
X140400199Y-119183130D01*
X140315191Y-119167365D01*
X140229583Y-119179725D01*
X140151684Y-119222384D01*
X140089802Y-119297516D01*
X140069797Y-119344571D01*
X140062063Y-119417997D01*
X140059746Y-119439999D01*
X139931681Y-119439999D01*
X139936436Y-119417997D01*
X139921496Y-119331628D01*
X139870736Y-119254492D01*
X139801025Y-119201367D01*
X139707745Y-119173673D01*
X139606513Y-119187525D01*
X139597700Y-119190623D01*
X139517519Y-119241495D01*
X139465719Y-119319987D01*
X139447333Y-119418787D01*
X139241752Y-119418787D01*
X139240961Y-119412021D01*
X139247316Y-119342052D01*
X139266831Y-119266562D01*
X139267771Y-119263570D01*
X139286983Y-119197738D01*
X139292067Y-119153553D01*
X139282108Y-119113075D01*
X139256188Y-119058367D01*
X139249268Y-119044792D01*
X139596030Y-119044792D01*
X139600586Y-119049681D01*
X139634977Y-119057558D01*
X139692142Y-119060667D01*
X139696934Y-119060681D01*
X139787735Y-119069937D01*
X139862520Y-119101371D01*
X139939458Y-119162463D01*
X139997667Y-119216753D01*
X140055875Y-119161223D01*
X140073847Y-119145193D01*
X140174764Y-119085668D01*
X140286981Y-119060285D01*
X140400879Y-119068624D01*
X140506840Y-119110265D01*
X140595247Y-119184788D01*
X140607746Y-119198834D01*
X140648782Y-119235340D01*
X140678925Y-119248836D01*
X140704145Y-119245137D01*
X140767527Y-119229540D01*
X140843135Y-119205933D01*
X140920377Y-119178228D01*
X140988662Y-119150333D01*
X141037401Y-119126160D01*
X141056000Y-119109618D01*
X141055205Y-119098949D01*
X141031499Y-119037296D01*
X140980189Y-118962901D01*
X140908491Y-118883170D01*
X140823624Y-118805510D01*
X140732805Y-118737329D01*
X140643250Y-118686032D01*
X140616113Y-118673661D01*
X140552901Y-118649158D01*
X140491459Y-118634941D01*
X140417107Y-118628355D01*
X140315167Y-118626750D01*
X140276674Y-118626903D01*
X140185423Y-118629936D01*
X140117002Y-118638841D01*
X140056879Y-118656211D01*
X139990523Y-118684635D01*
X139932776Y-118713873D01*
X139856587Y-118758202D01*
X139800023Y-118797656D01*
X139792827Y-118803757D01*
X139745236Y-118849907D01*
X139693202Y-118907453D01*
X139645284Y-118966029D01*
X139610041Y-119015264D01*
X139596030Y-119044792D01*
X139249268Y-119044792D01*
X139239922Y-119026458D01*
X139215270Y-118979626D01*
X139202705Y-118957987D01*
X139198603Y-118957908D01*
X139170008Y-118973103D01*
X139125039Y-119004770D01*
X139086454Y-119031927D01*
X138960063Y-119101060D01*
X138819444Y-119155828D01*
X138685117Y-119187697D01*
X138595450Y-119195348D01*
X138425734Y-119185731D01*
X138259496Y-119148017D01*
X138108201Y-119085263D01*
X137983311Y-119000527D01*
X137907975Y-118934381D01*
X137821440Y-119120629D01*
X137808923Y-119148270D01*
X137766694Y-119250400D01*
X137724953Y-119362899D01*
X137686908Y-119475898D01*
X137655763Y-119579527D01*
X137634725Y-119663918D01*
X137627000Y-119719201D01*
X137393842Y-119719201D01*
X137388623Y-119688027D01*
X137369772Y-119620637D01*
X137340718Y-119531335D01*
X137304753Y-119429401D01*
X137265166Y-119324113D01*
X137225248Y-119224749D01*
X137188289Y-119140588D01*
X137091961Y-118934760D01*
X137015522Y-118994813D01*
X136999040Y-119007417D01*
X136933517Y-119052950D01*
X136875583Y-119087483D01*
X136857780Y-119098018D01*
X136849139Y-119107081D01*
X136811634Y-119146419D01*
X136774806Y-119226179D01*
X136753546Y-119274567D01*
X136704469Y-119357328D01*
X136647806Y-119430801D01*
X136607132Y-119473749D01*
X136563317Y-119509917D01*
X136521015Y-119526187D01*
X136465972Y-119530364D01*
X136396995Y-119523819D01*
X136317805Y-119489789D01*
X136294224Y-119470153D01*
X136226389Y-119393565D01*
X136165136Y-119298569D01*
X136121978Y-119202084D01*
X136093434Y-119143457D01*
X136030340Y-119088059D01*
X136016877Y-119080811D01*
X136000474Y-119070593D01*
X136193875Y-119070593D01*
X136210138Y-119137345D01*
X136239805Y-119214531D01*
X136277839Y-119289187D01*
X136319202Y-119348348D01*
X136334430Y-119364647D01*
X136404327Y-119413509D01*
X136473600Y-119420890D01*
X136540666Y-119387470D01*
X136603940Y-119313932D01*
X136661836Y-119200957D01*
X136690837Y-119107081D01*
X136689045Y-119038767D01*
X136655559Y-118998358D01*
X136628239Y-118986481D01*
X136552194Y-118968768D01*
X136463094Y-118961969D01*
X136371891Y-118965352D01*
X136289539Y-118978181D01*
X136226990Y-118999722D01*
X136195198Y-119029239D01*
X136193875Y-119070593D01*
X136000474Y-119070593D01*
X135953406Y-119041273D01*
X135889846Y-118995501D01*
X135814275Y-118936135D01*
X135784821Y-118995457D01*
X135754460Y-119056609D01*
X135734056Y-119099319D01*
X135713235Y-119153892D01*
X135702018Y-119209367D01*
X135698022Y-119279529D01*
X135698862Y-119378167D01*
X135695909Y-119436716D01*
X135688936Y-119575011D01*
X135645427Y-119767179D01*
X135567913Y-119934476D01*
X135519018Y-120014535D01*
X135244126Y-120014535D01*
X135334719Y-119914553D01*
X135423117Y-119766067D01*
X135480994Y-119604198D01*
X135504806Y-119436716D01*
X135491009Y-119271389D01*
X135472593Y-119189541D01*
X135453839Y-119138693D01*
X135428526Y-119118642D01*
X135389318Y-119123838D01*
X135328877Y-119148731D01*
X135299801Y-119160566D01*
X135167511Y-119194217D01*
X135018202Y-119207147D01*
X134868023Y-119198815D01*
X134733126Y-119168680D01*
X134732877Y-119168596D01*
X134637776Y-119139118D01*
X134572672Y-119126580D01*
X134529093Y-119130293D01*
X134498567Y-119149566D01*
X134490550Y-119173639D01*
X134483190Y-119234264D01*
X134477778Y-119322910D01*
X134474333Y-119431962D01*
X134472877Y-119553810D01*
X134391885Y-119553810D01*
X134384948Y-119113583D01*
X134437145Y-119064613D01*
X134486126Y-119030775D01*
X134550334Y-119016558D01*
X134633157Y-119026449D01*
X134742766Y-119060333D01*
X134758884Y-119065930D01*
X134894515Y-119095508D01*
X135038842Y-119101077D01*
X135177020Y-119083129D01*
X135294208Y-119042152D01*
X135384999Y-118995457D01*
X135340795Y-118933378D01*
X135309665Y-118894789D01*
X135223276Y-118812421D01*
X135118792Y-118735156D01*
X135011231Y-118674780D01*
X135002127Y-118670647D01*
X134943733Y-118648504D01*
X134881735Y-118635113D01*
X134803255Y-118628514D01*
X134695417Y-118626750D01*
X134638171Y-118627069D01*
X134550187Y-118630439D01*
X134484115Y-118639365D01*
X134426435Y-118656141D01*
X134363626Y-118683062D01*
X134343622Y-118692731D01*
X134185192Y-118794232D01*
X134056129Y-118925899D01*
X133956896Y-119087000D01*
X133887954Y-119276805D01*
X133849766Y-119494583D01*
X133846386Y-119592115D01*
X133519318Y-119592115D01*
X133442256Y-119319285D01*
X133365226Y-119009566D01*
X133299945Y-118706326D01*
X133248829Y-118420015D01*
X133214300Y-118161083D01*
X133208143Y-118103290D01*
X133197996Y-118026949D01*
X133185506Y-117981167D01*
X133542737Y-117981167D01*
X133546094Y-118012494D01*
X133556608Y-118079910D01*
X133572915Y-118174572D01*
X133593616Y-118289012D01*
X133617315Y-118415767D01*
X133642613Y-118547371D01*
X133668112Y-118676359D01*
X133692416Y-118795265D01*
X133714126Y-118896625D01*
X133731674Y-118965492D01*
X133750395Y-119008981D01*
X133767847Y-119012336D01*
X133785032Y-118976687D01*
X133817793Y-118910158D01*
X133876398Y-118827628D01*
X133951217Y-118741161D01*
X134033083Y-118661328D01*
X134112830Y-118598698D01*
X134279543Y-118508645D01*
X134464825Y-118449830D01*
X134655199Y-118426518D01*
X134844854Y-118437807D01*
X135027978Y-118482795D01*
X135198761Y-118560580D01*
X135351390Y-118670259D01*
X135480053Y-118810931D01*
X135486854Y-118820149D01*
X135532263Y-118879205D01*
X135560867Y-118908444D01*
X135578846Y-118912557D01*
X135592376Y-118896237D01*
X135596055Y-118887678D01*
X135597441Y-118851994D01*
X135580517Y-118798165D01*
X135542887Y-118717528D01*
X135523635Y-118677199D01*
X135458612Y-118485575D01*
X135432952Y-118291462D01*
X135434490Y-118266917D01*
X135647917Y-118266917D01*
X135648236Y-118324162D01*
X135651606Y-118412146D01*
X135660532Y-118478219D01*
X135677308Y-118535899D01*
X135704229Y-118598707D01*
X135741409Y-118667481D01*
X135821977Y-118780989D01*
X135915885Y-118882181D01*
X136010914Y-118956789D01*
X136083028Y-119001357D01*
X136124611Y-118948493D01*
X136124729Y-118948343D01*
X136185094Y-118901978D01*
X136276925Y-118869701D01*
X136391096Y-118853654D01*
X136518483Y-118855981D01*
X136583239Y-118864120D01*
X136654585Y-118878034D01*
X136700842Y-118893003D01*
X136735157Y-118915119D01*
X136780333Y-118957145D01*
X136786679Y-118964989D01*
X136808356Y-118984577D01*
X136833498Y-118981799D01*
X136878281Y-118956557D01*
X136941171Y-118912849D01*
X137056984Y-118799618D01*
X137151345Y-118662321D01*
X137219566Y-118510288D01*
X137256958Y-118352848D01*
X137258833Y-118199330D01*
X137245737Y-118115184D01*
X137200713Y-117965848D01*
X137125793Y-117832788D01*
X137015103Y-117704064D01*
X136949617Y-117643082D01*
X136820471Y-117551431D01*
X136680891Y-117492452D01*
X136518808Y-117460213D01*
X136373211Y-117459366D01*
X136210129Y-117494361D01*
X136054617Y-117563402D01*
X135913838Y-117662323D01*
X135794955Y-117786962D01*
X135705131Y-117933155D01*
X135689081Y-117968710D01*
X135667577Y-118027398D01*
X135655102Y-118087602D01*
X135649325Y-118162912D01*
X135647917Y-118266917D01*
X135434490Y-118266917D01*
X135444959Y-118099814D01*
X135492936Y-117915587D01*
X135575184Y-117743738D01*
X135690007Y-117589221D01*
X135835708Y-117456993D01*
X136010588Y-117352009D01*
X136060116Y-117328999D01*
X136134347Y-117298875D01*
X136201842Y-117280710D01*
X136278958Y-117270670D01*
X136382049Y-117264922D01*
X136464860Y-117262750D01*
X136561657Y-117265825D01*
X136644937Y-117277849D01*
X136731545Y-117300538D01*
X136748070Y-117305718D01*
X136936043Y-117387790D01*
X137100237Y-117504316D01*
X137238396Y-117653349D01*
X137348264Y-117832942D01*
X137349676Y-117835830D01*
X137381508Y-117902481D01*
X137402959Y-117955611D01*
X137416076Y-118006390D01*
X137422909Y-118065990D01*
X137425506Y-118145580D01*
X137425706Y-118199330D01*
X137425917Y-118256333D01*
X137425917Y-118263824D01*
X137425439Y-118372417D01*
X137422616Y-118450779D01*
X137415328Y-118510345D01*
X137401459Y-118562551D01*
X137378892Y-118618835D01*
X137345508Y-118690631D01*
X137265100Y-118860346D01*
X137337004Y-119018714D01*
X137339852Y-119025012D01*
X137380227Y-119118463D01*
X137418085Y-119212693D01*
X137445572Y-119288208D01*
X137461136Y-119334021D01*
X137478487Y-119381089D01*
X137487252Y-119399333D01*
X137493599Y-119386366D01*
X137509339Y-119342749D01*
X137530194Y-119279021D01*
X137530275Y-119278764D01*
X137559007Y-119197070D01*
X137597810Y-119098627D01*
X137638309Y-119004689D01*
X137708498Y-118850668D01*
X137647537Y-118738115D01*
X137612046Y-118666302D01*
X137548298Y-118476405D01*
X137528625Y-118322063D01*
X137741860Y-118322063D01*
X137772031Y-118489338D01*
X137837672Y-118647198D01*
X137935436Y-118789470D01*
X138061977Y-118909979D01*
X138213949Y-119002550D01*
X138248406Y-119018177D01*
X138334353Y-119050028D01*
X138419634Y-119067341D01*
X138525623Y-119075090D01*
X138594348Y-119075850D01*
X138703104Y-119068844D01*
X138785112Y-119052360D01*
X138928579Y-118989356D01*
X139075676Y-118886783D01*
X139198726Y-118757972D01*
X139289401Y-118610224D01*
X139340100Y-118500795D01*
X139219092Y-118467278D01*
X139166623Y-118451705D01*
X139097845Y-118428193D01*
X139052326Y-118408802D01*
X139041578Y-118402392D01*
X138978647Y-118348736D01*
X138914519Y-118273134D01*
X138860609Y-118190519D01*
X138828333Y-118115821D01*
X138804817Y-118028226D01*
X138712397Y-118067842D01*
X138690851Y-118076764D01*
X138502564Y-118129933D01*
X138309739Y-118142484D01*
X138118391Y-118114581D01*
X137934533Y-118046391D01*
X137868214Y-118016846D01*
X137816447Y-117999950D01*
X137790711Y-117999489D01*
X137780355Y-118022616D01*
X137765635Y-118076859D01*
X137751051Y-118148397D01*
X137750504Y-118151548D01*
X137741860Y-118322063D01*
X137528625Y-118322063D01*
X137523818Y-118284347D01*
X137537042Y-118094801D01*
X137586400Y-117912437D01*
X137617907Y-117848424D01*
X137863776Y-117848424D01*
X137883103Y-117874231D01*
X137930877Y-117910829D01*
X137996044Y-117948821D01*
X138053191Y-117976580D01*
X138106192Y-117996152D01*
X138162442Y-118007099D01*
X138234961Y-118011870D01*
X138336773Y-118012917D01*
X138421775Y-118012219D01*
X138500774Y-118008059D01*
X138561724Y-117997972D01*
X138618116Y-117979518D01*
X138683444Y-117950260D01*
X138751898Y-117920082D01*
X138815207Y-117904770D01*
X138859644Y-117919275D01*
X138894421Y-117967464D01*
X138928750Y-118053202D01*
X138986189Y-118172873D01*
X139067598Y-118270430D01*
X139165549Y-118333438D01*
X139232774Y-118353517D01*
X139301207Y-118362167D01*
X139368106Y-118362167D01*
X139358440Y-118195190D01*
X139339428Y-118060636D01*
X139280669Y-117894859D01*
X139185845Y-117748645D01*
X139057206Y-117625246D01*
X138897000Y-117527915D01*
X138841882Y-117502791D01*
X138782839Y-117481275D01*
X138723463Y-117469147D01*
X138649764Y-117463790D01*
X138547750Y-117462587D01*
X138468589Y-117463201D01*
X138389189Y-117467215D01*
X138328495Y-117477160D01*
X138272972Y-117495522D01*
X138209083Y-117524787D01*
X138201587Y-117528540D01*
X138125481Y-117574218D01*
X138047229Y-117632387D01*
X137974382Y-117695969D01*
X137914490Y-117757887D01*
X137875104Y-117811064D01*
X137863776Y-117848424D01*
X137617907Y-117848424D01*
X137670325Y-117741928D01*
X137787251Y-117587946D01*
X137935610Y-117455162D01*
X137955467Y-117443250D01*
X139028713Y-117443250D01*
X139028992Y-117444133D01*
X139049255Y-117469687D01*
X139093373Y-117511938D01*
X139152334Y-117562214D01*
X139270085Y-117657706D01*
X139327043Y-117608713D01*
X139350541Y-117590724D01*
X139445185Y-117549177D01*
X139551738Y-117539056D01*
X139660601Y-117557818D01*
X139762173Y-117602917D01*
X139846855Y-117671807D01*
X139905046Y-117761945D01*
X139906276Y-117764943D01*
X139929212Y-117859155D01*
X139931852Y-117963161D01*
X139913524Y-118053872D01*
X139901806Y-118093364D01*
X139909317Y-118104422D01*
X139939148Y-118083199D01*
X139993131Y-118029125D01*
X140001341Y-118020292D01*
X140084053Y-117907633D01*
X140130489Y-117785527D01*
X140145162Y-117642500D01*
X140141752Y-117578144D01*
X140107767Y-117435699D01*
X140041802Y-117309274D01*
X139949376Y-117203252D01*
X139836009Y-117122016D01*
X139707217Y-117069948D01*
X139568520Y-117051433D01*
X139425436Y-117070853D01*
X139388203Y-117083051D01*
X139272065Y-117142208D01*
X139166200Y-117224837D01*
X139086637Y-117319187D01*
X139061191Y-117362158D01*
X139036063Y-117413669D01*
X139028713Y-117443250D01*
X137955467Y-117443250D01*
X138113833Y-117348248D01*
X138148158Y-117331916D01*
X138212425Y-117303679D01*
X138267372Y-117286088D01*
X138325912Y-117276633D01*
X138400956Y-117272802D01*
X138505417Y-117272083D01*
X138581653Y-117272885D01*
X138675603Y-117276129D01*
X138750210Y-117281289D01*
X138793981Y-117287740D01*
X138823335Y-117293729D01*
X138852451Y-117283331D01*
X138875590Y-117240922D01*
X138901077Y-117196460D01*
X138963173Y-117123419D01*
X139045844Y-117048026D01*
X139138626Y-116979519D01*
X139231051Y-116927137D01*
X139231560Y-116926900D01*
X139300571Y-116898160D01*
X139365015Y-116881057D01*
X139440487Y-116872754D01*
X139542583Y-116870409D01*
X139558730Y-116870461D01*
X139724045Y-116884938D01*
X139865018Y-116927855D01*
X139991407Y-117003408D01*
X140112967Y-117115796D01*
X140166850Y-117178804D01*
X140253170Y-117316680D01*
X140302570Y-117465846D01*
X140318704Y-117635530D01*
X140318660Y-117642500D01*
X140318584Y-117654673D01*
X140296130Y-117836021D01*
X140235545Y-117999354D01*
X140137544Y-118143246D01*
X140002839Y-118266273D01*
X139982756Y-118280269D01*
X139885919Y-118327589D01*
X139798079Y-118340648D01*
X139724560Y-118323360D01*
X139670686Y-118279640D01*
X139641780Y-118213402D01*
X139643166Y-118128560D01*
X139680167Y-118029028D01*
X139698959Y-117992395D01*
X139718611Y-117937564D01*
X139716035Y-117891293D01*
X139692338Y-117836070D01*
X139649333Y-117782244D01*
X139584171Y-117742699D01*
X139513644Y-117728617D01*
X139451625Y-117745233D01*
X139442028Y-117756500D01*
X139439890Y-117786025D01*
X139451519Y-117838996D01*
X139478084Y-117923266D01*
X139490163Y-117961605D01*
X139529087Y-118165206D01*
X139527502Y-118362167D01*
X139527445Y-118369299D01*
X139499880Y-118500795D01*
X139485731Y-118568298D01*
X139404440Y-118756619D01*
X139392594Y-118778229D01*
X139365203Y-118835963D01*
X139358363Y-118872952D01*
X139369384Y-118900209D01*
X139382386Y-118913738D01*
X139401105Y-118913150D01*
X139428629Y-118887333D01*
X139472363Y-118831332D01*
X139558721Y-118730075D01*
X139704483Y-118607547D01*
X139882451Y-118506624D01*
X139888370Y-118503862D01*
X139968965Y-118469533D01*
X140040991Y-118448176D01*
X140121407Y-118435978D01*
X140227170Y-118429128D01*
X140329865Y-118427887D01*
X140509187Y-118446148D01*
X140668973Y-118493616D01*
X140818486Y-118572536D01*
X140917556Y-118646679D01*
X141023401Y-118746666D01*
X141114211Y-118853644D01*
X141178311Y-118955193D01*
X141220755Y-119040980D01*
X141254651Y-118886782D01*
X141279517Y-118766489D01*
X141307350Y-118617631D01*
X141334043Y-118461911D01*
X141357625Y-118311385D01*
X141376123Y-118178108D01*
X141387567Y-118074135D01*
X141391779Y-118022981D01*
X141394337Y-117965262D01*
X141388991Y-117933770D01*
X141373103Y-117918525D01*
X141344032Y-117909547D01*
X141282083Y-117888439D01*
X141164932Y-117821560D01*
X141051706Y-117725083D01*
X140950732Y-117606662D01*
X140870334Y-117473955D01*
X140847551Y-117424627D01*
X140829216Y-117371653D01*
X140818700Y-117313677D01*
X140813901Y-117238266D01*
X140812718Y-117132983D01*
X140812710Y-117118954D01*
X141205022Y-117118954D01*
X141220050Y-117242792D01*
X141267909Y-117358343D01*
X141347611Y-117458368D01*
X141458167Y-117535629D01*
X141458229Y-117535660D01*
X141589817Y-117580308D01*
X141723124Y-117585210D01*
X141850922Y-117551172D01*
X141965980Y-117478999D01*
X142051108Y-117385595D01*
X142111245Y-117267231D01*
X142134847Y-117140466D01*
X142121724Y-117012410D01*
X142071687Y-116890171D01*
X141984548Y-116780858D01*
X141961248Y-116760684D01*
X141869425Y-116703253D01*
X141765958Y-116662902D01*
X141669833Y-116647667D01*
X141641738Y-116649244D01*
X141541280Y-116673189D01*
X141439412Y-116719739D01*
X141355119Y-116780858D01*
X141277412Y-116875365D01*
X141223813Y-116994066D01*
X141205022Y-117118954D01*
X140812710Y-117118954D01*
X140812583Y-116909216D01*
X140622083Y-116828561D01*
X140347547Y-116718684D01*
X139814572Y-116539241D01*
X139263167Y-116396209D01*
X138696685Y-116290398D01*
X138118482Y-116222622D01*
X138097292Y-116220955D01*
X137951456Y-116213076D01*
X137776826Y-116208456D01*
X137582289Y-116206927D01*
X137376729Y-116208322D01*
X137169033Y-116212471D01*
X136968085Y-116219209D01*
X136782770Y-116228366D01*
X136621974Y-116239776D01*
X136494583Y-116253271D01*
X135945546Y-116342836D01*
X135404875Y-116465154D01*
X134881171Y-116619982D01*
X134367333Y-116809176D01*
X134123917Y-116907727D01*
X134123917Y-117124844D01*
X134123917Y-117132238D01*
X134122939Y-117235439D01*
X134118479Y-117310642D01*
X134108301Y-117368656D01*
X134090171Y-117422139D01*
X134061854Y-117483750D01*
X134005181Y-117579580D01*
X133904268Y-117701402D01*
X133785907Y-117804235D01*
X133661773Y-117876614D01*
X133627150Y-117892106D01*
X133574318Y-117921096D01*
X133549105Y-117948214D01*
X133542737Y-117981167D01*
X133185506Y-117981167D01*
X133184970Y-117979201D01*
X133164224Y-117951369D01*
X133130917Y-117934777D01*
X133080207Y-117920747D01*
X133025840Y-117903716D01*
X132887839Y-117833585D01*
X132759193Y-117731466D01*
X132648231Y-117604767D01*
X132563280Y-117460897D01*
X132549918Y-117430139D01*
X132532263Y-117376270D01*
X132521706Y-117315035D01*
X132516588Y-117234797D01*
X132515250Y-117123917D01*
X132515259Y-117122318D01*
X132869631Y-117122318D01*
X132887355Y-117256945D01*
X132891093Y-117269152D01*
X132939269Y-117364327D01*
X133013938Y-117455112D01*
X133103171Y-117529202D01*
X133195039Y-117574294D01*
X133203483Y-117576754D01*
X133321482Y-117597931D01*
X133429118Y-117586853D01*
X133543199Y-117541958D01*
X133567361Y-117528946D01*
X133673697Y-117447858D01*
X133747335Y-117349412D01*
X133789733Y-117239708D01*
X133802349Y-117124844D01*
X133786643Y-117010919D01*
X133744074Y-116904032D01*
X133676100Y-116810281D01*
X133584180Y-116735765D01*
X133469774Y-116686582D01*
X133334339Y-116668833D01*
X133256507Y-116675092D01*
X133130904Y-116714455D01*
X133024863Y-116784848D01*
X132942936Y-116880281D01*
X132889675Y-116994768D01*
X132869631Y-117122318D01*
X132515259Y-117122318D01*
X132515618Y-117058346D01*
X132518833Y-116965786D01*
X132526743Y-116897456D01*
X132541005Y-116841719D01*
X132563280Y-116786936D01*
X132632068Y-116663431D01*
X132751486Y-116521473D01*
X132900260Y-116409936D01*
X133077922Y-116329236D01*
X133235370Y-116293810D01*
X133411587Y-116291805D01*
X133584466Y-116326262D01*
X133745582Y-116395426D01*
X133886511Y-116497545D01*
X133980358Y-116584050D01*
X134205881Y-116489564D01*
X134407752Y-116408123D01*
X134963828Y-116214674D01*
X135533101Y-116060280D01*
X136112532Y-115945264D01*
X136699085Y-115869951D01*
X137289721Y-115834664D01*
X137881403Y-115839728D01*
X138471092Y-115885467D01*
X139055750Y-115972206D01*
X139073386Y-115975489D01*
X139413604Y-116047990D01*
X139769802Y-116139723D01*
X140127414Y-116246360D01*
X140471872Y-116363574D01*
X140788607Y-116487035D01*
X141018631Y-116583626D01*
X141123006Y-116489784D01*
X141124700Y-116488266D01*
X141267578Y-116387010D01*
X141424464Y-116321871D01*
X141589572Y-116291598D01*
X141757119Y-116294941D01*
X141921319Y-116330650D01*
X142076389Y-116397473D01*
X142216544Y-116494161D01*
X142336000Y-116619462D01*
X142428973Y-116772126D01*
X142452042Y-116824824D01*
X142469229Y-116878483D01*
X142479131Y-116938153D01*
X142483665Y-117015931D01*
X142484750Y-117123917D01*
X142484738Y-117140466D01*
X142484737Y-117141985D01*
G37*
X137375246Y-120335344D02*
X137652658Y-120341250D01*
X137817613Y-120754000D01*
X137982567Y-121166750D01*
X137786575Y-121177333D01*
X137590583Y-121187917D01*
X137748422Y-121516000D01*
X137785523Y-121593336D01*
X137839288Y-121706162D01*
X137886972Y-121807085D01*
X137924454Y-121887373D01*
X137947615Y-121938289D01*
X137968198Y-121985748D01*
X137978356Y-122014531D01*
X137971378Y-122015500D01*
X137947223Y-121994714D01*
X137943609Y-121991263D01*
X137912765Y-121958472D01*
X137860719Y-121900612D01*
X137791565Y-121822426D01*
X137709393Y-121728656D01*
X137618298Y-121624044D01*
X137522369Y-121513331D01*
X137425701Y-121401259D01*
X137332385Y-121292570D01*
X137246513Y-121192006D01*
X137172177Y-121104308D01*
X137113470Y-121034220D01*
X137074483Y-120986482D01*
X137059310Y-120965836D01*
X137061281Y-120962005D01*
X137091960Y-120952714D01*
X137152033Y-120944938D01*
X137232259Y-120940054D01*
X137411981Y-120933917D01*
X137254907Y-120653477D01*
X137226866Y-120603063D01*
X137175852Y-120509349D01*
X137134925Y-120431490D01*
X137107710Y-120376462D01*
X137097833Y-120351238D01*
X137108729Y-120343976D01*
X137158924Y-120337186D01*
X137248334Y-120334276D01*
X137375246Y-120335344D01*
G36*
X137375246Y-120335344D02*
G01*
X137652658Y-120341250D01*
X137817613Y-120754000D01*
X137982567Y-121166750D01*
X137786575Y-121177333D01*
X137590583Y-121187917D01*
X137748422Y-121516000D01*
X137785523Y-121593336D01*
X137839288Y-121706162D01*
X137886972Y-121807085D01*
X137924454Y-121887373D01*
X137947615Y-121938289D01*
X137968198Y-121985748D01*
X137978356Y-122014531D01*
X137971378Y-122015500D01*
X137947223Y-121994714D01*
X137943609Y-121991263D01*
X137912765Y-121958472D01*
X137860719Y-121900612D01*
X137791565Y-121822426D01*
X137709393Y-121728656D01*
X137618298Y-121624044D01*
X137522369Y-121513331D01*
X137425701Y-121401259D01*
X137332385Y-121292570D01*
X137246513Y-121192006D01*
X137172177Y-121104308D01*
X137113470Y-121034220D01*
X137074483Y-120986482D01*
X137059310Y-120965836D01*
X137061281Y-120962005D01*
X137091960Y-120952714D01*
X137152033Y-120944938D01*
X137232259Y-120940054D01*
X137411981Y-120933917D01*
X137254907Y-120653477D01*
X137226866Y-120603063D01*
X137175852Y-120509349D01*
X137134925Y-120431490D01*
X137107710Y-120376462D01*
X137097833Y-120351238D01*
X137108729Y-120343976D01*
X137158924Y-120337186D01*
X137248334Y-120334276D01*
X137375246Y-120335344D01*
G37*
X136786870Y-118581954D02*
X136801500Y-118615623D01*
X136795914Y-118635945D01*
X136757551Y-118676409D01*
X136689674Y-118714775D01*
X136600417Y-118745779D01*
X136531926Y-118756333D01*
X136439415Y-118755459D01*
X136342977Y-118742445D01*
X136251865Y-118719687D01*
X136175330Y-118689582D01*
X136122625Y-118654527D01*
X136103000Y-118616919D01*
X136103957Y-118605227D01*
X136125483Y-118578052D01*
X136176487Y-118578208D01*
X136258485Y-118605583D01*
X136290633Y-118616180D01*
X136369449Y-118631367D01*
X136452250Y-118637333D01*
X136495937Y-118635504D01*
X136579672Y-118624055D01*
X136646015Y-118605583D01*
X136666722Y-118597264D01*
X136742290Y-118575857D01*
X136786870Y-118581954D01*
G36*
X136786870Y-118581954D02*
G01*
X136801500Y-118615623D01*
X136795914Y-118635945D01*
X136757551Y-118676409D01*
X136689674Y-118714775D01*
X136600417Y-118745779D01*
X136531926Y-118756333D01*
X136439415Y-118755459D01*
X136342977Y-118742445D01*
X136251865Y-118719687D01*
X136175330Y-118689582D01*
X136122625Y-118654527D01*
X136103000Y-118616919D01*
X136103957Y-118605227D01*
X136125483Y-118578052D01*
X136176487Y-118578208D01*
X136258485Y-118605583D01*
X136290633Y-118616180D01*
X136369449Y-118631367D01*
X136452250Y-118637333D01*
X136495937Y-118635504D01*
X136579672Y-118624055D01*
X136646015Y-118605583D01*
X136666722Y-118597264D01*
X136742290Y-118575857D01*
X136786870Y-118581954D01*
G37*
%TD*%
M02*
