%TF.GenerationSoftware,KiCad,Pcbnew,9.0.1*%
%TF.CreationDate,2025-05-31T19:51:22+10:00*%
%TF.ProjectId,VCA,5643412e-6b69-4636-9164-5f7063625858,rev?*%
%TF.SameCoordinates,Original*%
%TF.FileFunction,Copper,L4,Bot*%
%TF.FilePolarity,Positive*%
%FSLAX46Y46*%
G04 Gerber Fmt 4.6, Leading zero omitted, Abs format (unit mm)*
G04 Created by KiCad (PCBNEW 9.0.1) date 2025-05-31 19:51:22*
%MOMM*%
%LPD*%
G01*
G04 APERTURE LIST*
G04 Aperture macros list*
%AMRoundRect*
0 Rectangle with rounded corners*
0 $1 Rounding radius*
0 $2 $3 $4 $5 $6 $7 $8 $9 X,Y pos of 4 corners*
0 Add a 4 corners polygon primitive as box body*
4,1,4,$2,$3,$4,$5,$6,$7,$8,$9,$2,$3,0*
0 Add four circle primitives for the rounded corners*
1,1,$1+$1,$2,$3*
1,1,$1+$1,$4,$5*
1,1,$1+$1,$6,$7*
1,1,$1+$1,$8,$9*
0 Add four rect primitives between the rounded corners*
20,1,$1+$1,$2,$3,$4,$5,0*
20,1,$1+$1,$4,$5,$6,$7,0*
20,1,$1+$1,$6,$7,$8,$9,0*
20,1,$1+$1,$8,$9,$2,$3,0*%
G04 Aperture macros list end*
%TA.AperFunction,ComponentPad*%
%ADD10O,1.350000X1.900000*%
%TD*%
%TA.AperFunction,ComponentPad*%
%ADD11R,1.350000X1.900000*%
%TD*%
%TA.AperFunction,ComponentPad*%
%ADD12RoundRect,0.250000X-0.550000X-0.550000X0.550000X-0.550000X0.550000X0.550000X-0.550000X0.550000X0*%
%TD*%
%TA.AperFunction,ComponentPad*%
%ADD13C,1.600000*%
%TD*%
%TA.AperFunction,ComponentPad*%
%ADD14R,2.000000X2.000000*%
%TD*%
%TA.AperFunction,ComponentPad*%
%ADD15C,2.200000*%
%TD*%
%TA.AperFunction,ComponentPad*%
%ADD16RoundRect,0.291666X-0.408334X-0.708334X0.408334X-0.708334X0.408334X0.708334X-0.408334X0.708334X0*%
%TD*%
%TA.AperFunction,ComponentPad*%
%ADD17O,1.400000X2.000000*%
%TD*%
%TA.AperFunction,ComponentPad*%
%ADD18C,1.440000*%
%TD*%
%TA.AperFunction,ComponentPad*%
%ADD19O,1.600000X1.600000*%
%TD*%
%TA.AperFunction,Conductor*%
%ADD20C,0.200000*%
%TD*%
G04 APERTURE END LIST*
D10*
%TO.P,Q1,1,D*%
%TO.N,Net-(Q1-D)*%
X128230000Y-110000000D03*
%TO.P,Q1,2,G*%
%TO.N,Net-(Q1-G)*%
X126500000Y-110000000D03*
D11*
%TO.P,Q1,3,S*%
%TO.N,GND*%
X124730000Y-110000000D03*
%TD*%
D12*
%TO.P,U1,1,NC*%
%TO.N,unconnected-(U1-NC-Pad1)*%
X126195000Y-94190001D03*
D13*
%TO.P,U1,2,-*%
%TO.N,Net-(Q1-D)*%
X126195000Y-96730001D03*
%TO.P,U1,3,+*%
%TO.N,Net-(Q2-D)*%
X126195000Y-99270001D03*
%TO.P,U1,4,V-*%
%TO.N,VSS*%
X126195000Y-101810001D03*
%TO.P,U1,5,NC*%
%TO.N,unconnected-(U1-NC-Pad5)*%
X133815000Y-101810001D03*
%TO.P,U1,6*%
%TO.N,Net-(J3-PadT)*%
X133815000Y-99270001D03*
%TO.P,U1,7,V+*%
%TO.N,VDD*%
X133815000Y-96730001D03*
%TO.P,U1,8,NC*%
%TO.N,unconnected-(U1-NC-Pad8)*%
X133815000Y-94190001D03*
%TD*%
D14*
%TO.P,J1,G*%
%TO.N,GND*%
X122500000Y-71480000D03*
D15*
%TO.P,J1,S*%
X122500000Y-68380000D03*
%TO.P,J1,T*%
%TO.N,Net-(J1-PadT)*%
X122500000Y-60080000D03*
%TD*%
D16*
%TO.P,J4,1,Pin_1*%
%TO.N,GND*%
X135500000Y-143550000D03*
D17*
%TO.P,J4,2,Pin_2*%
%TO.N,VDD*%
X137500000Y-143550000D03*
%TO.P,J4,3,Pin_3*%
%TO.N,VSS*%
X139500000Y-143550000D03*
%TD*%
D13*
%TO.P,C1,1*%
%TO.N,VDD*%
X132500000Y-89000001D03*
%TO.P,C1,2*%
%TO.N,VSS*%
X127500000Y-89000001D03*
%TD*%
D14*
%TO.P,J2,G*%
%TO.N,GND*%
X122500000Y-129770000D03*
D15*
%TO.P,J2,S*%
X122500000Y-132870000D03*
%TO.P,J2,T*%
%TO.N,Net-(J2-PadT)*%
X122500000Y-141170000D03*
%TD*%
D18*
%TO.P,RV1,1,1*%
%TO.N,Net-(J1-PadT)*%
X125040000Y-77430000D03*
%TO.P,RV1,2,2*%
%TO.N,Net-(R2-Pad1)*%
X122500000Y-74890000D03*
%TO.P,RV1,3,3*%
%TO.N,unconnected-(RV1-Pad3)*%
X119960000Y-77430000D03*
%TD*%
D10*
%TO.P,Q2,1,D*%
%TO.N,Net-(Q2-D)*%
X135230000Y-110000001D03*
%TO.P,Q2,2,G*%
%TO.N,GND*%
X133500000Y-110000001D03*
D11*
%TO.P,Q2,3,S*%
X131730000Y-110000001D03*
%TD*%
D13*
%TO.P,R5,1*%
%TO.N,Net-(J2-PadT)*%
X130000000Y-132940000D03*
D19*
%TO.P,R5,2*%
%TO.N,Net-(R5-Pad2)*%
X130000000Y-140560000D03*
%TD*%
D13*
%TO.P,R3,1*%
%TO.N,Net-(Q1-D)*%
X137500000Y-101870000D03*
D19*
%TO.P,R3,2*%
%TO.N,Net-(J3-PadT)*%
X137500000Y-94250000D03*
%TD*%
D18*
%TO.P,RV2,1,1*%
%TO.N,Net-(R5-Pad2)*%
X125040000Y-123180000D03*
%TO.P,RV2,2,2*%
%TO.N,Net-(Q1-G)*%
X122500000Y-120640000D03*
%TO.P,RV2,3,3*%
%TO.N,GND*%
X119960000Y-123180000D03*
%TD*%
D13*
%TO.P,R2,1*%
%TO.N,Net-(R2-Pad1)*%
X122500000Y-94190000D03*
D19*
%TO.P,R2,2*%
%TO.N,Net-(Q2-D)*%
X122500000Y-101810000D03*
%TD*%
D14*
%TO.P,J3,G*%
%TO.N,GND*%
X137500000Y-71480000D03*
D15*
%TO.P,J3,S*%
X137500000Y-68380000D03*
%TO.P,J3,T*%
%TO.N,Net-(J3-PadT)*%
X137500000Y-60080000D03*
%TD*%
D13*
%TO.P,R1,1*%
%TO.N,Net-(J1-PadT)*%
X118750000Y-94190000D03*
D19*
%TO.P,R1,2*%
%TO.N,Net-(Q1-D)*%
X118750000Y-101810000D03*
%TD*%
D13*
%TO.P,R4,1*%
%TO.N,Net-(Q2-D)*%
X141250000Y-101870000D03*
D19*
%TO.P,R4,2*%
%TO.N,GND*%
X141250000Y-94250000D03*
%TD*%
D20*
%TO.N,Net-(J1-PadT)*%
X118750000Y-94190000D02*
X118750000Y-88750000D01*
X125040000Y-82460000D02*
X118750000Y-88750000D01*
X125040000Y-77430000D02*
X125040000Y-82460000D01*
%TO.N,Net-(J2-PadT)*%
X130000000Y-136000000D02*
X130000000Y-132940000D01*
X122500000Y-141169999D02*
X124830001Y-141169999D01*
X124830001Y-141169999D02*
X130000000Y-136000000D01*
X130500000Y-133169999D02*
X130500000Y-132940000D01*
%TO.N,Net-(J3-PadT)*%
X133815000Y-99270001D02*
X135729999Y-99270001D01*
X137500000Y-97500000D02*
X137500000Y-94250000D01*
X135729999Y-99270001D02*
X137500000Y-97500000D01*
%TO.N,Net-(Q1-D)*%
X122269999Y-96730001D02*
X126195000Y-96730001D01*
X118750000Y-100250000D02*
X122269999Y-96730001D01*
X118750000Y-101810000D02*
X118750000Y-100250000D01*
%TO.N,Net-(Q2-D)*%
X122500000Y-101810000D02*
X122500000Y-100250000D01*
X135230000Y-110000001D02*
X135230000Y-108480000D01*
X122500000Y-100250000D02*
X123480000Y-99270000D01*
X130000000Y-101250000D02*
X130000000Y-103250000D01*
X135230000Y-108480000D02*
X130000000Y-103250000D01*
X128020000Y-99270000D02*
X130000000Y-101250000D01*
X126195000Y-99270000D02*
X128020000Y-99270000D01*
X123480000Y-99270000D02*
X126195000Y-99270000D01*
%TD*%
%TA.AperFunction,Conductor*%
%TO.N,GND*%
G36*
X133199925Y-109769746D02*
G01*
X133150556Y-109855256D01*
X133125000Y-109950631D01*
X133125000Y-110049371D01*
X133150556Y-110144746D01*
X133199925Y-110230256D01*
X133219670Y-110250001D01*
X132010330Y-110250001D01*
X132030075Y-110230256D01*
X132079444Y-110144746D01*
X132105000Y-110049371D01*
X132105000Y-109950631D01*
X132079444Y-109855256D01*
X132030075Y-109769746D01*
X132010330Y-109750001D01*
X133219670Y-109750001D01*
X133199925Y-109769746D01*
G37*
%TD.AperFunction*%
%TA.AperFunction,Conductor*%
G36*
X142003736Y-50500726D02*
G01*
X142293796Y-50518271D01*
X142308657Y-50520075D01*
X142590798Y-50571780D01*
X142605335Y-50575363D01*
X142879172Y-50660695D01*
X142893163Y-50666000D01*
X143154743Y-50783727D01*
X143167989Y-50790680D01*
X143413465Y-50939075D01*
X143425776Y-50947573D01*
X143651573Y-51124473D01*
X143662781Y-51134403D01*
X143865596Y-51337218D01*
X143875525Y-51348425D01*
X143995481Y-51501538D01*
X144052422Y-51574217D01*
X144060928Y-51586540D01*
X144209316Y-51832004D01*
X144216275Y-51845263D01*
X144333997Y-52106831D01*
X144339306Y-52120832D01*
X144424635Y-52394663D01*
X144428219Y-52409201D01*
X144479923Y-52691340D01*
X144481728Y-52706205D01*
X144499273Y-52996261D01*
X144499499Y-53003748D01*
X144499499Y-146996249D01*
X144499273Y-147003736D01*
X144481727Y-147293794D01*
X144479922Y-147308659D01*
X144428218Y-147590797D01*
X144424634Y-147605335D01*
X144339303Y-147879174D01*
X144333993Y-147893176D01*
X144216276Y-148154730D01*
X144209318Y-148167987D01*
X144060927Y-148413458D01*
X144052421Y-148425782D01*
X143875525Y-148651573D01*
X143865595Y-148662781D01*
X143662780Y-148865595D01*
X143651572Y-148875525D01*
X143425781Y-149052422D01*
X143413458Y-149060928D01*
X143167995Y-149209315D01*
X143154736Y-149216274D01*
X142893167Y-149333996D01*
X142879166Y-149339305D01*
X142605335Y-149424634D01*
X142590797Y-149428218D01*
X142308659Y-149479922D01*
X142293794Y-149481727D01*
X142100701Y-149493407D01*
X142003711Y-149499274D01*
X141996239Y-149499500D01*
X118073502Y-149499500D01*
X118065895Y-149499499D01*
X118065892Y-149499499D01*
X118003749Y-149499499D01*
X118003748Y-149499498D01*
X117996264Y-149499273D01*
X117706205Y-149481727D01*
X117691340Y-149479922D01*
X117409202Y-149428218D01*
X117394664Y-149424634D01*
X117120825Y-149339303D01*
X117106827Y-149333994D01*
X116954096Y-149265255D01*
X116845269Y-149216276D01*
X116832012Y-149209318D01*
X116586541Y-149060927D01*
X116574219Y-149052422D01*
X116348426Y-148875525D01*
X116337218Y-148865595D01*
X116134404Y-148662780D01*
X116124474Y-148651572D01*
X115947573Y-148425775D01*
X115939075Y-148413464D01*
X115790683Y-148167994D01*
X115783725Y-148154736D01*
X115666003Y-147893167D01*
X115660694Y-147879166D01*
X115652097Y-147851578D01*
X115575364Y-147605334D01*
X115571781Y-147590797D01*
X115520077Y-147308659D01*
X115518272Y-147293794D01*
X115504487Y-147065894D01*
X115500725Y-147003712D01*
X115500500Y-146996238D01*
X115500500Y-142797202D01*
X134300000Y-142797202D01*
X134300000Y-143300000D01*
X135219670Y-143300000D01*
X135199925Y-143319745D01*
X135150556Y-143405255D01*
X135125000Y-143500630D01*
X135125000Y-143599370D01*
X135150556Y-143694745D01*
X135199925Y-143780255D01*
X135219670Y-143800000D01*
X134300001Y-143800000D01*
X134300001Y-144302798D01*
X134314963Y-144435602D01*
X134314965Y-144435612D01*
X134373887Y-144603999D01*
X134468797Y-144755050D01*
X134594949Y-144881202D01*
X134746001Y-144976112D01*
X134746000Y-144976112D01*
X134914387Y-145035034D01*
X134914397Y-145035036D01*
X135047204Y-145049999D01*
X135249999Y-145049999D01*
X135250000Y-145049998D01*
X135250000Y-143830330D01*
X135269745Y-143850075D01*
X135355255Y-143899444D01*
X135450630Y-143925000D01*
X135549370Y-143925000D01*
X135644745Y-143899444D01*
X135730255Y-143850075D01*
X135750000Y-143830330D01*
X135750000Y-145049999D01*
X135952791Y-145049999D01*
X135952798Y-145049998D01*
X136085602Y-145035036D01*
X136085612Y-145035034D01*
X136253999Y-144976112D01*
X136405050Y-144881202D01*
X136405053Y-144881199D01*
X136531564Y-144754689D01*
X136592887Y-144721204D01*
X136662579Y-144726188D01*
X136706926Y-144754689D01*
X136717927Y-144765690D01*
X136870801Y-144876760D01*
X136950347Y-144917290D01*
X137039163Y-144962545D01*
X137039165Y-144962545D01*
X137039168Y-144962547D01*
X137080917Y-144976112D01*
X137218881Y-145020940D01*
X137405514Y-145050500D01*
X137405519Y-145050500D01*
X137594486Y-145050500D01*
X137781118Y-145020940D01*
X137960832Y-144962547D01*
X138129199Y-144876760D01*
X138282073Y-144765690D01*
X138412319Y-144635444D01*
X138473642Y-144601959D01*
X138543334Y-144606943D01*
X138587681Y-144635444D01*
X138717927Y-144765690D01*
X138870801Y-144876760D01*
X138950347Y-144917290D01*
X139039163Y-144962545D01*
X139039165Y-144962545D01*
X139039168Y-144962547D01*
X139080917Y-144976112D01*
X139218881Y-145020940D01*
X139405514Y-145050500D01*
X139405519Y-145050500D01*
X139594486Y-145050500D01*
X139781118Y-145020940D01*
X139960832Y-144962547D01*
X140129199Y-144876760D01*
X140282073Y-144765690D01*
X140415690Y-144632073D01*
X140526760Y-144479199D01*
X140612547Y-144310832D01*
X140670940Y-144131118D01*
X140700500Y-143944486D01*
X140700500Y-143155513D01*
X140670940Y-142968881D01*
X140612545Y-142789163D01*
X140526759Y-142620800D01*
X140415690Y-142467927D01*
X140282073Y-142334310D01*
X140129199Y-142223240D01*
X140108413Y-142212649D01*
X139960836Y-142137454D01*
X139781118Y-142079059D01*
X139594486Y-142049500D01*
X139594481Y-142049500D01*
X139405519Y-142049500D01*
X139405514Y-142049500D01*
X139218881Y-142079059D01*
X139039163Y-142137454D01*
X138870800Y-142223240D01*
X138783579Y-142286610D01*
X138717927Y-142334310D01*
X138717925Y-142334312D01*
X138717924Y-142334312D01*
X138587681Y-142464556D01*
X138526358Y-142498041D01*
X138456666Y-142493057D01*
X138412319Y-142464556D01*
X138282075Y-142334312D01*
X138282073Y-142334310D01*
X138129199Y-142223240D01*
X138108413Y-142212649D01*
X137960836Y-142137454D01*
X137781118Y-142079059D01*
X137594486Y-142049500D01*
X137594481Y-142049500D01*
X137405519Y-142049500D01*
X137405514Y-142049500D01*
X137218881Y-142079059D01*
X137039163Y-142137454D01*
X136870800Y-142223240D01*
X136783579Y-142286610D01*
X136717927Y-142334310D01*
X136717925Y-142334312D01*
X136717922Y-142334314D01*
X136706923Y-142345313D01*
X136645599Y-142378796D01*
X136575907Y-142373809D01*
X136531564Y-142345311D01*
X136405049Y-142218797D01*
X136405050Y-142218797D01*
X136253998Y-142123887D01*
X136253999Y-142123887D01*
X136085612Y-142064965D01*
X136085602Y-142064963D01*
X135952797Y-142050000D01*
X135750000Y-142050000D01*
X135750000Y-143269670D01*
X135730255Y-143249925D01*
X135644745Y-143200556D01*
X135549370Y-143175000D01*
X135450630Y-143175000D01*
X135355255Y-143200556D01*
X135269745Y-143249925D01*
X135250000Y-143269670D01*
X135250000Y-142050000D01*
X135047207Y-142050000D01*
X135047201Y-142050001D01*
X134914397Y-142064963D01*
X134914387Y-142064965D01*
X134746000Y-142123887D01*
X134594949Y-142218797D01*
X134468797Y-142344949D01*
X134373887Y-142496000D01*
X134314965Y-142664387D01*
X134314963Y-142664397D01*
X134300000Y-142797202D01*
X115500500Y-142797202D01*
X115500500Y-141044038D01*
X120899500Y-141044038D01*
X120899500Y-141295961D01*
X120938910Y-141544785D01*
X121016760Y-141784383D01*
X121131132Y-142008848D01*
X121279201Y-142212649D01*
X121279205Y-142212654D01*
X121457345Y-142390794D01*
X121457350Y-142390798D01*
X121635117Y-142519952D01*
X121661155Y-142538870D01*
X121804184Y-142611747D01*
X121885616Y-142653239D01*
X121885618Y-142653239D01*
X121885621Y-142653241D01*
X122125215Y-142731090D01*
X122374038Y-142770500D01*
X122374039Y-142770500D01*
X122625961Y-142770500D01*
X122625962Y-142770500D01*
X122874785Y-142731090D01*
X123114379Y-142653241D01*
X123338845Y-142538870D01*
X123542656Y-142390793D01*
X123720793Y-142212656D01*
X123868870Y-142008845D01*
X123955816Y-141838204D01*
X124003791Y-141787408D01*
X124066301Y-141770499D01*
X124743332Y-141770499D01*
X124743348Y-141770500D01*
X124750944Y-141770500D01*
X124909055Y-141770500D01*
X124909058Y-141770500D01*
X125061786Y-141729576D01*
X125111905Y-141700638D01*
X125198717Y-141650519D01*
X125310521Y-141538715D01*
X125310521Y-141538713D01*
X125320729Y-141528506D01*
X125320730Y-141528503D01*
X126391586Y-140457648D01*
X128699500Y-140457648D01*
X128699500Y-140662351D01*
X128731522Y-140864534D01*
X128794781Y-141059223D01*
X128887715Y-141241613D01*
X129008028Y-141407213D01*
X129152786Y-141551971D01*
X129307749Y-141664556D01*
X129318390Y-141672287D01*
X129430824Y-141729575D01*
X129500776Y-141765218D01*
X129500778Y-141765218D01*
X129500781Y-141765220D01*
X129559759Y-141784383D01*
X129695465Y-141828477D01*
X129796557Y-141844488D01*
X129897648Y-141860500D01*
X129897649Y-141860500D01*
X130102351Y-141860500D01*
X130102352Y-141860500D01*
X130304534Y-141828477D01*
X130499219Y-141765220D01*
X130681610Y-141672287D01*
X130774590Y-141604732D01*
X130847213Y-141551971D01*
X130847215Y-141551968D01*
X130847219Y-141551966D01*
X130991966Y-141407219D01*
X130991968Y-141407215D01*
X130991971Y-141407213D01*
X131072799Y-141295961D01*
X131112287Y-141241610D01*
X131205220Y-141059219D01*
X131268477Y-140864534D01*
X131300500Y-140662352D01*
X131300500Y-140457648D01*
X131268477Y-140255466D01*
X131205220Y-140060781D01*
X131205218Y-140060778D01*
X131205218Y-140060776D01*
X131148367Y-139949201D01*
X131112287Y-139878390D01*
X131104556Y-139867749D01*
X130991971Y-139712786D01*
X130847213Y-139568028D01*
X130681613Y-139447715D01*
X130681612Y-139447714D01*
X130681610Y-139447713D01*
X130624653Y-139418691D01*
X130499223Y-139354781D01*
X130304534Y-139291522D01*
X130129995Y-139263878D01*
X130102352Y-139259500D01*
X129897648Y-139259500D01*
X129873329Y-139263351D01*
X129695465Y-139291522D01*
X129500776Y-139354781D01*
X129318386Y-139447715D01*
X129152786Y-139568028D01*
X129008028Y-139712786D01*
X128887715Y-139878386D01*
X128794781Y-140060776D01*
X128731522Y-140255465D01*
X128699500Y-140457648D01*
X126391586Y-140457648D01*
X130480520Y-136368716D01*
X130559577Y-136231784D01*
X130600501Y-136079057D01*
X130600501Y-135920942D01*
X130600501Y-135913347D01*
X130600500Y-135913329D01*
X130600500Y-134169601D01*
X130620185Y-134102562D01*
X130668206Y-134059116D01*
X130681610Y-134052287D01*
X130847219Y-133931966D01*
X130991966Y-133787219D01*
X130991968Y-133787215D01*
X130991971Y-133787213D01*
X131049104Y-133708575D01*
X131112287Y-133621610D01*
X131205220Y-133439219D01*
X131268477Y-133244534D01*
X131300500Y-133042352D01*
X131300500Y-132837648D01*
X131268477Y-132635466D01*
X131205220Y-132440781D01*
X131205218Y-132440778D01*
X131205218Y-132440776D01*
X131171503Y-132374607D01*
X131112287Y-132258390D01*
X131104556Y-132247749D01*
X130991971Y-132092786D01*
X130847213Y-131948028D01*
X130681613Y-131827715D01*
X130681612Y-131827714D01*
X130681610Y-131827713D01*
X130624653Y-131798691D01*
X130499223Y-131734781D01*
X130304534Y-131671522D01*
X130129995Y-131643878D01*
X130102352Y-131639500D01*
X129897648Y-131639500D01*
X129873329Y-131643351D01*
X129695465Y-131671522D01*
X129500776Y-131734781D01*
X129318386Y-131827715D01*
X129152786Y-131948028D01*
X129008028Y-132092786D01*
X128887715Y-132258386D01*
X128794781Y-132440776D01*
X128731522Y-132635465D01*
X128699500Y-132837648D01*
X128699500Y-133042351D01*
X128731522Y-133244534D01*
X128794781Y-133439223D01*
X128887715Y-133621613D01*
X129008028Y-133787213D01*
X129008034Y-133787219D01*
X129152781Y-133931966D01*
X129318390Y-134052287D01*
X129331793Y-134059116D01*
X129382589Y-134107088D01*
X129399500Y-134169601D01*
X129399500Y-135699902D01*
X129379815Y-135766941D01*
X129363181Y-135787583D01*
X124617585Y-140533180D01*
X124556262Y-140566665D01*
X124529904Y-140569499D01*
X124066300Y-140569499D01*
X123999261Y-140549814D01*
X123955815Y-140501794D01*
X123886163Y-140365095D01*
X123868870Y-140331155D01*
X123813878Y-140255465D01*
X123720798Y-140127350D01*
X123720794Y-140127345D01*
X123542654Y-139949205D01*
X123542649Y-139949201D01*
X123338848Y-139801132D01*
X123338847Y-139801131D01*
X123338845Y-139801130D01*
X123268747Y-139765413D01*
X123114383Y-139686760D01*
X122874785Y-139608910D01*
X122625962Y-139569500D01*
X122374038Y-139569500D01*
X122249626Y-139589205D01*
X122125214Y-139608910D01*
X121885616Y-139686760D01*
X121661151Y-139801132D01*
X121457350Y-139949201D01*
X121457345Y-139949205D01*
X121279205Y-140127345D01*
X121279201Y-140127350D01*
X121131132Y-140331151D01*
X121016760Y-140555616D01*
X120938910Y-140795214D01*
X120899500Y-141044038D01*
X115500500Y-141044038D01*
X115500500Y-132744071D01*
X120900000Y-132744071D01*
X120900000Y-132995928D01*
X120939397Y-133244669D01*
X121017219Y-133484184D01*
X121131557Y-133708583D01*
X121205748Y-133810697D01*
X121205748Y-133810698D01*
X121935387Y-133081059D01*
X121940889Y-133101591D01*
X122019881Y-133238408D01*
X122131592Y-133350119D01*
X122268409Y-133429111D01*
X122288940Y-133434612D01*
X121559300Y-134164250D01*
X121661416Y-134238442D01*
X121885815Y-134352780D01*
X122125330Y-134430602D01*
X122374072Y-134470000D01*
X122625928Y-134470000D01*
X122874669Y-134430602D01*
X123114184Y-134352780D01*
X123338575Y-134238446D01*
X123338581Y-134238442D01*
X123440697Y-134164250D01*
X123440698Y-134164250D01*
X122711059Y-133434612D01*
X122731591Y-133429111D01*
X122868408Y-133350119D01*
X122980119Y-133238408D01*
X123059111Y-133101591D01*
X123064612Y-133081060D01*
X123794250Y-133810698D01*
X123794250Y-133810697D01*
X123868442Y-133708581D01*
X123868446Y-133708575D01*
X123982780Y-133484184D01*
X124060602Y-133244669D01*
X124100000Y-132995928D01*
X124100000Y-132744071D01*
X124060602Y-132495330D01*
X123982780Y-132255815D01*
X123868442Y-132031416D01*
X123794250Y-131929301D01*
X123794250Y-131929300D01*
X123064612Y-132658939D01*
X123059111Y-132638409D01*
X122980119Y-132501592D01*
X122868408Y-132389881D01*
X122731591Y-132310889D01*
X122711058Y-132305387D01*
X123440698Y-131575748D01*
X123338584Y-131501558D01*
X123335601Y-131499730D01*
X123334704Y-131498739D01*
X123334641Y-131498693D01*
X123334650Y-131498679D01*
X123288724Y-131447920D01*
X123277299Y-131378991D01*
X123304953Y-131314827D01*
X123362907Y-131275800D01*
X123400387Y-131270000D01*
X123547828Y-131270000D01*
X123547844Y-131269999D01*
X123607372Y-131263598D01*
X123607379Y-131263596D01*
X123742086Y-131213354D01*
X123742093Y-131213350D01*
X123857187Y-131127190D01*
X123857190Y-131127187D01*
X123943350Y-131012093D01*
X123943354Y-131012086D01*
X123993596Y-130877379D01*
X123993598Y-130877372D01*
X123999999Y-130817844D01*
X124000000Y-130817827D01*
X124000000Y-130020000D01*
X123048482Y-130020000D01*
X123059111Y-130001591D01*
X123100000Y-129848991D01*
X123100000Y-129691009D01*
X123059111Y-129538409D01*
X123048482Y-129520000D01*
X124000000Y-129520000D01*
X124000000Y-128722172D01*
X123999999Y-128722155D01*
X123993598Y-128662627D01*
X123993596Y-128662620D01*
X123943354Y-128527913D01*
X123943350Y-128527906D01*
X123857190Y-128412812D01*
X123857187Y-128412809D01*
X123742093Y-128326649D01*
X123742086Y-128326645D01*
X123607379Y-128276403D01*
X123607372Y-128276401D01*
X123547844Y-128270000D01*
X122750000Y-128270000D01*
X122750000Y-129221517D01*
X122731591Y-129210889D01*
X122578991Y-129170000D01*
X122421009Y-129170000D01*
X122268409Y-129210889D01*
X122250000Y-129221517D01*
X122250000Y-128270000D01*
X121452155Y-128270000D01*
X121392627Y-128276401D01*
X121392620Y-128276403D01*
X121257913Y-128326645D01*
X121257906Y-128326649D01*
X121142812Y-128412809D01*
X121142809Y-128412812D01*
X121056649Y-128527906D01*
X121056645Y-128527913D01*
X121006403Y-128662620D01*
X121006401Y-128662627D01*
X121000000Y-128722155D01*
X121000000Y-129520000D01*
X121951518Y-129520000D01*
X121940889Y-129538409D01*
X121900000Y-129691009D01*
X121900000Y-129848991D01*
X121940889Y-130001591D01*
X121951518Y-130020000D01*
X121000000Y-130020000D01*
X121000000Y-130817844D01*
X121006401Y-130877372D01*
X121006403Y-130877379D01*
X121056645Y-131012086D01*
X121056649Y-131012093D01*
X121142809Y-131127187D01*
X121142812Y-131127190D01*
X121257906Y-131213350D01*
X121257913Y-131213354D01*
X121392620Y-131263596D01*
X121392627Y-131263598D01*
X121452155Y-131269999D01*
X121452172Y-131270000D01*
X121599613Y-131270000D01*
X121666652Y-131289685D01*
X121712407Y-131342489D01*
X121722351Y-131411647D01*
X121693326Y-131475203D01*
X121664399Y-131499730D01*
X121661408Y-131501562D01*
X121559301Y-131575747D01*
X121559300Y-131575748D01*
X122288940Y-132305387D01*
X122268409Y-132310889D01*
X122131592Y-132389881D01*
X122019881Y-132501592D01*
X121940889Y-132638409D01*
X121935387Y-132658940D01*
X121205748Y-131929300D01*
X121205747Y-131929301D01*
X121131559Y-132031413D01*
X121017219Y-132255815D01*
X120939397Y-132495330D01*
X120900000Y-132744071D01*
X115500500Y-132744071D01*
X115500500Y-123083984D01*
X118740000Y-123083984D01*
X118740000Y-123276015D01*
X118770040Y-123465684D01*
X118829383Y-123648321D01*
X118916561Y-123819415D01*
X118937798Y-123848646D01*
X119560000Y-123226445D01*
X119560000Y-123232661D01*
X119587259Y-123334394D01*
X119639920Y-123425606D01*
X119714394Y-123500080D01*
X119805606Y-123552741D01*
X119907339Y-123580000D01*
X119913554Y-123580000D01*
X119291351Y-124202200D01*
X119291352Y-124202201D01*
X119320577Y-124223434D01*
X119491678Y-124310616D01*
X119674315Y-124369959D01*
X119863985Y-124400000D01*
X120056015Y-124400000D01*
X120245684Y-124369959D01*
X120428321Y-124310616D01*
X120599419Y-124223436D01*
X120628646Y-124202201D01*
X120628646Y-124202200D01*
X120006447Y-123580000D01*
X120012661Y-123580000D01*
X120114394Y-123552741D01*
X120205606Y-123500080D01*
X120280080Y-123425606D01*
X120332741Y-123334394D01*
X120360000Y-123232661D01*
X120360000Y-123226446D01*
X120982200Y-123848646D01*
X120982201Y-123848646D01*
X121003436Y-123819419D01*
X121090616Y-123648321D01*
X121149959Y-123465684D01*
X121180000Y-123276015D01*
X121180000Y-123083984D01*
X121179994Y-123083945D01*
X123819500Y-123083945D01*
X123819500Y-123276054D01*
X123849553Y-123465802D01*
X123908916Y-123648506D01*
X123908918Y-123648509D01*
X123996135Y-123819681D01*
X124109055Y-123975102D01*
X124244898Y-124110945D01*
X124400319Y-124223865D01*
X124570576Y-124310616D01*
X124571493Y-124311083D01*
X124662845Y-124340764D01*
X124754199Y-124370447D01*
X124943945Y-124400500D01*
X124943946Y-124400500D01*
X125136054Y-124400500D01*
X125136055Y-124400500D01*
X125325801Y-124370447D01*
X125508509Y-124311082D01*
X125679681Y-124223865D01*
X125835102Y-124110945D01*
X125970945Y-123975102D01*
X126083865Y-123819681D01*
X126171082Y-123648509D01*
X126230447Y-123465801D01*
X126260500Y-123276055D01*
X126260500Y-123083945D01*
X126230447Y-122894199D01*
X126171082Y-122711491D01*
X126083865Y-122540319D01*
X125970945Y-122384898D01*
X125835102Y-122249055D01*
X125679681Y-122136135D01*
X125508506Y-122048916D01*
X125325802Y-121989553D01*
X125230928Y-121974526D01*
X125136055Y-121959500D01*
X124943945Y-121959500D01*
X124880696Y-121969517D01*
X124754197Y-121989553D01*
X124571493Y-122048916D01*
X124400318Y-122136135D01*
X124370502Y-122157798D01*
X124244898Y-122249055D01*
X124244896Y-122249057D01*
X124244895Y-122249057D01*
X124109057Y-122384895D01*
X124109057Y-122384896D01*
X124109055Y-122384898D01*
X124060560Y-122451645D01*
X123996135Y-122540318D01*
X123908916Y-122711493D01*
X123849553Y-122894197D01*
X123819500Y-123083945D01*
X121179994Y-123083945D01*
X121149959Y-122894315D01*
X121090616Y-122711678D01*
X121003434Y-122540577D01*
X120982201Y-122511352D01*
X120982200Y-122511351D01*
X120360000Y-123133552D01*
X120360000Y-123127339D01*
X120332741Y-123025606D01*
X120280080Y-122934394D01*
X120205606Y-122859920D01*
X120114394Y-122807259D01*
X120012661Y-122780000D01*
X120006447Y-122780000D01*
X120628646Y-122157798D01*
X120599415Y-122136561D01*
X120428321Y-122049383D01*
X120245684Y-121990040D01*
X120056015Y-121960000D01*
X119863985Y-121960000D01*
X119674315Y-121990040D01*
X119491678Y-122049383D01*
X119320578Y-122136564D01*
X119291352Y-122157798D01*
X119291351Y-122157798D01*
X119913554Y-122780000D01*
X119907339Y-122780000D01*
X119805606Y-122807259D01*
X119714394Y-122859920D01*
X119639920Y-122934394D01*
X119587259Y-123025606D01*
X119560000Y-123127339D01*
X119560000Y-123133553D01*
X118937798Y-122511351D01*
X118937798Y-122511352D01*
X118916564Y-122540578D01*
X118829383Y-122711678D01*
X118770040Y-122894315D01*
X118740000Y-123083984D01*
X115500500Y-123083984D01*
X115500500Y-120543945D01*
X121279500Y-120543945D01*
X121279500Y-120736054D01*
X121309553Y-120925802D01*
X121368916Y-121108506D01*
X121368918Y-121108509D01*
X121456135Y-121279681D01*
X121569055Y-121435102D01*
X121704898Y-121570945D01*
X121860319Y-121683865D01*
X122031491Y-121771082D01*
X122031493Y-121771083D01*
X122122845Y-121800764D01*
X122214199Y-121830447D01*
X122403945Y-121860500D01*
X122403946Y-121860500D01*
X122596054Y-121860500D01*
X122596055Y-121860500D01*
X122785801Y-121830447D01*
X122968509Y-121771082D01*
X123139681Y-121683865D01*
X123295102Y-121570945D01*
X123430945Y-121435102D01*
X123543865Y-121279681D01*
X123631082Y-121108509D01*
X123690447Y-120925801D01*
X123720500Y-120736055D01*
X123720500Y-120543945D01*
X123690447Y-120354199D01*
X123631082Y-120171491D01*
X123543865Y-120000319D01*
X123430945Y-119844898D01*
X123295102Y-119709055D01*
X123139681Y-119596135D01*
X122968506Y-119508916D01*
X122785802Y-119449553D01*
X122690928Y-119434526D01*
X122596055Y-119419500D01*
X122403945Y-119419500D01*
X122340696Y-119429517D01*
X122214197Y-119449553D01*
X122031493Y-119508916D01*
X121860318Y-119596135D01*
X121771645Y-119660560D01*
X121704898Y-119709055D01*
X121704896Y-119709057D01*
X121704895Y-119709057D01*
X121569057Y-119844895D01*
X121569057Y-119844896D01*
X121569055Y-119844898D01*
X121520560Y-119911645D01*
X121456135Y-120000318D01*
X121368916Y-120171493D01*
X121309553Y-120354197D01*
X121279500Y-120543945D01*
X115500500Y-120543945D01*
X115500500Y-109002155D01*
X123555000Y-109002155D01*
X123555000Y-109750000D01*
X124449670Y-109750000D01*
X124429925Y-109769745D01*
X124380556Y-109855255D01*
X124355000Y-109950630D01*
X124355000Y-110049370D01*
X124380556Y-110144745D01*
X124429925Y-110230255D01*
X124449670Y-110250000D01*
X123555000Y-110250000D01*
X123555000Y-110997844D01*
X123561401Y-111057372D01*
X123561403Y-111057379D01*
X123611645Y-111192086D01*
X123611649Y-111192093D01*
X123697809Y-111307187D01*
X123697812Y-111307190D01*
X123812906Y-111393350D01*
X123812913Y-111393354D01*
X123947620Y-111443596D01*
X123947627Y-111443598D01*
X124007155Y-111449999D01*
X124007172Y-111450000D01*
X124480000Y-111450000D01*
X124480000Y-110280330D01*
X124499745Y-110300075D01*
X124585255Y-110349444D01*
X124680630Y-110375000D01*
X124779370Y-110375000D01*
X124874745Y-110349444D01*
X124960255Y-110300075D01*
X124980000Y-110280330D01*
X124980000Y-111450000D01*
X125452828Y-111450000D01*
X125452844Y-111449999D01*
X125512372Y-111443598D01*
X125512379Y-111443596D01*
X125647086Y-111393354D01*
X125647088Y-111393352D01*
X125769289Y-111301874D01*
X125771229Y-111304465D01*
X125818610Y-111278572D01*
X125888303Y-111283532D01*
X125901294Y-111289239D01*
X126047856Y-111363916D01*
X126048765Y-111364379D01*
X126048767Y-111364380D01*
X126136750Y-111392967D01*
X126224736Y-111421555D01*
X126407486Y-111450500D01*
X126407487Y-111450500D01*
X126592513Y-111450500D01*
X126592514Y-111450500D01*
X126775264Y-111421555D01*
X126951235Y-111364379D01*
X127116096Y-111280378D01*
X127265787Y-111171621D01*
X127277319Y-111160089D01*
X127338642Y-111126604D01*
X127408334Y-111131588D01*
X127452681Y-111160089D01*
X127464213Y-111171621D01*
X127613904Y-111280378D01*
X127694763Y-111321577D01*
X127778764Y-111364379D01*
X127778767Y-111364380D01*
X127866750Y-111392967D01*
X127954736Y-111421555D01*
X128137486Y-111450500D01*
X128137487Y-111450500D01*
X128322513Y-111450500D01*
X128322514Y-111450500D01*
X128505264Y-111421555D01*
X128681235Y-111364379D01*
X128846096Y-111280378D01*
X128995787Y-111171621D01*
X129126621Y-111040787D01*
X129235378Y-110891096D01*
X129319379Y-110726235D01*
X129376555Y-110550264D01*
X129405500Y-110367514D01*
X129405500Y-109632486D01*
X129376555Y-109449736D01*
X129319379Y-109273766D01*
X129319379Y-109273764D01*
X129276577Y-109189763D01*
X129235378Y-109108904D01*
X129126621Y-108959213D01*
X128995787Y-108828379D01*
X128846096Y-108719622D01*
X128803908Y-108698126D01*
X128681235Y-108635620D01*
X128681232Y-108635619D01*
X128505265Y-108578445D01*
X128382854Y-108559057D01*
X128322514Y-108549500D01*
X128137486Y-108549500D01*
X128077146Y-108559057D01*
X127954734Y-108578445D01*
X127778767Y-108635619D01*
X127778764Y-108635620D01*
X127613903Y-108719622D01*
X127541162Y-108772472D01*
X127464213Y-108828379D01*
X127464211Y-108828381D01*
X127464210Y-108828381D01*
X127452681Y-108839911D01*
X127391358Y-108873396D01*
X127321666Y-108868412D01*
X127277319Y-108839911D01*
X127265789Y-108828381D01*
X127265788Y-108828380D01*
X127265787Y-108828379D01*
X127116096Y-108719622D01*
X127073908Y-108698126D01*
X126951235Y-108635620D01*
X126951232Y-108635619D01*
X126775265Y-108578445D01*
X126652854Y-108559057D01*
X126592514Y-108549500D01*
X126407486Y-108549500D01*
X126347146Y-108559057D01*
X126224734Y-108578445D01*
X126048767Y-108635619D01*
X126048764Y-108635620D01*
X125901306Y-108710755D01*
X125832637Y-108723651D01*
X125769395Y-108697983D01*
X125769289Y-108698126D01*
X125768747Y-108697720D01*
X125767896Y-108697375D01*
X125765859Y-108695559D01*
X125647088Y-108606647D01*
X125647086Y-108606645D01*
X125512379Y-108556403D01*
X125512372Y-108556401D01*
X125452844Y-108550000D01*
X124980000Y-108550000D01*
X124980000Y-109719670D01*
X124960255Y-109699925D01*
X124874745Y-109650556D01*
X124779370Y-109625000D01*
X124680630Y-109625000D01*
X124585255Y-109650556D01*
X124499745Y-109699925D01*
X124480000Y-109719670D01*
X124480000Y-108550000D01*
X124007155Y-108550000D01*
X123947627Y-108556401D01*
X123947620Y-108556403D01*
X123812913Y-108606645D01*
X123812906Y-108606649D01*
X123697812Y-108692809D01*
X123697809Y-108692812D01*
X123611649Y-108807906D01*
X123611645Y-108807913D01*
X123561403Y-108942620D01*
X123561401Y-108942627D01*
X123555000Y-109002155D01*
X115500500Y-109002155D01*
X115500500Y-101707648D01*
X117449500Y-101707648D01*
X117449500Y-101912351D01*
X117481522Y-102114534D01*
X117544781Y-102309223D01*
X117637715Y-102491613D01*
X117758028Y-102657213D01*
X117902786Y-102801971D01*
X117985371Y-102861971D01*
X118068390Y-102922287D01*
X118174320Y-102976261D01*
X118250776Y-103015218D01*
X118250778Y-103015218D01*
X118250781Y-103015220D01*
X118355137Y-103049127D01*
X118445465Y-103078477D01*
X118546557Y-103094488D01*
X118647648Y-103110500D01*
X118647649Y-103110500D01*
X118852351Y-103110500D01*
X118852352Y-103110500D01*
X119054534Y-103078477D01*
X119249219Y-103015220D01*
X119431610Y-102922287D01*
X119524590Y-102854732D01*
X119597213Y-102801971D01*
X119597215Y-102801968D01*
X119597219Y-102801966D01*
X119741966Y-102657219D01*
X119741970Y-102657214D01*
X119741971Y-102657213D01*
X119794732Y-102584590D01*
X119862287Y-102491610D01*
X119955220Y-102309219D01*
X120018477Y-102114534D01*
X120050500Y-101912352D01*
X120050500Y-101707648D01*
X120018477Y-101505466D01*
X119955220Y-101310781D01*
X119955218Y-101310777D01*
X119955218Y-101310776D01*
X119921503Y-101244607D01*
X119862287Y-101128390D01*
X119854556Y-101117749D01*
X119741971Y-100962786D01*
X119597213Y-100818028D01*
X119431610Y-100697712D01*
X119418200Y-100690879D01*
X119407138Y-100680431D01*
X119393297Y-100674110D01*
X119382255Y-100656928D01*
X119367406Y-100642903D01*
X119363165Y-100627223D01*
X119355523Y-100615332D01*
X119350500Y-100580397D01*
X119350500Y-100550097D01*
X119370185Y-100483058D01*
X119386819Y-100462416D01*
X122482415Y-97366820D01*
X122543738Y-97333335D01*
X122570096Y-97330501D01*
X124965398Y-97330501D01*
X125032437Y-97350186D01*
X125075883Y-97398206D01*
X125082715Y-97411615D01*
X125203028Y-97577214D01*
X125347786Y-97721972D01*
X125502749Y-97834557D01*
X125513390Y-97842288D01*
X125604840Y-97888884D01*
X125606080Y-97889516D01*
X125656876Y-97937491D01*
X125673671Y-98005312D01*
X125651134Y-98071447D01*
X125606080Y-98110486D01*
X125513386Y-98157716D01*
X125347786Y-98278029D01*
X125203028Y-98422787D01*
X125082714Y-98588387D01*
X125075882Y-98601797D01*
X125027906Y-98652592D01*
X124965398Y-98669500D01*
X123559057Y-98669500D01*
X123400942Y-98669500D01*
X123248215Y-98710423D01*
X123248214Y-98710423D01*
X123248212Y-98710424D01*
X123248209Y-98710425D01*
X123198096Y-98739359D01*
X123198095Y-98739360D01*
X123154689Y-98764420D01*
X123111285Y-98789479D01*
X123111282Y-98789481D01*
X122019481Y-99881282D01*
X122019480Y-99881284D01*
X121978877Y-99951611D01*
X121940423Y-100018215D01*
X121899499Y-100170943D01*
X121899499Y-100170945D01*
X121899499Y-100339046D01*
X121899500Y-100339059D01*
X121899500Y-100580397D01*
X121879815Y-100647436D01*
X121831800Y-100690879D01*
X121818389Y-100697712D01*
X121652786Y-100818028D01*
X121652782Y-100818032D01*
X121508035Y-100962780D01*
X121508028Y-100962786D01*
X121387715Y-101128386D01*
X121294781Y-101310776D01*
X121231522Y-101505465D01*
X121199500Y-101707648D01*
X121199500Y-101912351D01*
X121231522Y-102114534D01*
X121294781Y-102309223D01*
X121387715Y-102491613D01*
X121508028Y-102657213D01*
X121652786Y-102801971D01*
X121735371Y-102861971D01*
X121818390Y-102922287D01*
X121924320Y-102976261D01*
X122000776Y-103015218D01*
X122000778Y-103015218D01*
X122000781Y-103015220D01*
X122105137Y-103049127D01*
X122195465Y-103078477D01*
X122296557Y-103094488D01*
X122397648Y-103110500D01*
X122397649Y-103110500D01*
X122602351Y-103110500D01*
X122602352Y-103110500D01*
X122804534Y-103078477D01*
X122999219Y-103015220D01*
X123181610Y-102922287D01*
X123274590Y-102854732D01*
X123347213Y-102801971D01*
X123347215Y-102801968D01*
X123347219Y-102801966D01*
X123491966Y-102657219D01*
X123491970Y-102657214D01*
X123491971Y-102657213D01*
X123544732Y-102584590D01*
X123612287Y-102491610D01*
X123705220Y-102309219D01*
X123768477Y-102114534D01*
X123800500Y-101912352D01*
X123800500Y-101707648D01*
X123768477Y-101505466D01*
X123705220Y-101310781D01*
X123705218Y-101310777D01*
X123705218Y-101310776D01*
X123671503Y-101244607D01*
X123612287Y-101128390D01*
X123604556Y-101117749D01*
X123491971Y-100962786D01*
X123347213Y-100818028D01*
X123181610Y-100697712D01*
X123168200Y-100690879D01*
X123157138Y-100680431D01*
X123143297Y-100674110D01*
X123132255Y-100656928D01*
X123117406Y-100642903D01*
X123113165Y-100627223D01*
X123105523Y-100615332D01*
X123100500Y-100580397D01*
X123100500Y-100550097D01*
X123120185Y-100483058D01*
X123136819Y-100462416D01*
X123692416Y-99906819D01*
X123753739Y-99873334D01*
X123780097Y-99870500D01*
X124965397Y-99870500D01*
X125032436Y-99890185D01*
X125075881Y-99938203D01*
X125082714Y-99951614D01*
X125203028Y-100117214D01*
X125347786Y-100261972D01*
X125502749Y-100374557D01*
X125513390Y-100382288D01*
X125604840Y-100428884D01*
X125606080Y-100429516D01*
X125656876Y-100477491D01*
X125673671Y-100545312D01*
X125651134Y-100611447D01*
X125606080Y-100650486D01*
X125513386Y-100697716D01*
X125347786Y-100818029D01*
X125347782Y-100818033D01*
X125203034Y-100962782D01*
X125203028Y-100962787D01*
X125082715Y-101128387D01*
X124989781Y-101310777D01*
X124926522Y-101505466D01*
X124894500Y-101707649D01*
X124894500Y-101912352D01*
X124926522Y-102114535D01*
X124989781Y-102309224D01*
X125020351Y-102369219D01*
X125082712Y-102491610D01*
X125082715Y-102491614D01*
X125203028Y-102657214D01*
X125347786Y-102801972D01*
X125502749Y-102914557D01*
X125513390Y-102922288D01*
X125619318Y-102976261D01*
X125695776Y-103015219D01*
X125695778Y-103015219D01*
X125695781Y-103015221D01*
X125800137Y-103049128D01*
X125890465Y-103078478D01*
X125991557Y-103094489D01*
X126092648Y-103110501D01*
X126092649Y-103110501D01*
X126297351Y-103110501D01*
X126297352Y-103110501D01*
X126499534Y-103078478D01*
X126694219Y-103015221D01*
X126876610Y-102922288D01*
X126969590Y-102854733D01*
X127042213Y-102801972D01*
X127042215Y-102801969D01*
X127042219Y-102801967D01*
X127186966Y-102657220D01*
X127186968Y-102657216D01*
X127186971Y-102657214D01*
X127263693Y-102551613D01*
X127307287Y-102491611D01*
X127400220Y-102309220D01*
X127463477Y-102114535D01*
X127495500Y-101912353D01*
X127495500Y-101707649D01*
X127463477Y-101505467D01*
X127463476Y-101505465D01*
X127419713Y-101370776D01*
X127400220Y-101310782D01*
X127400218Y-101310779D01*
X127400218Y-101310777D01*
X127328968Y-101170943D01*
X127307287Y-101128391D01*
X127299556Y-101117750D01*
X127186971Y-100962787D01*
X127042213Y-100818029D01*
X126876614Y-100697716D01*
X126842690Y-100680431D01*
X126783917Y-100650484D01*
X126733123Y-100602512D01*
X126716328Y-100534691D01*
X126738865Y-100468556D01*
X126783917Y-100429517D01*
X126876610Y-100382288D01*
X126949877Y-100329057D01*
X127042213Y-100261972D01*
X127042215Y-100261969D01*
X127042219Y-100261967D01*
X127186966Y-100117220D01*
X127186968Y-100117216D01*
X127186971Y-100117214D01*
X127307285Y-99951614D01*
X127307288Y-99951610D01*
X127314119Y-99938203D01*
X127362095Y-99887408D01*
X127424603Y-99870500D01*
X127719903Y-99870500D01*
X127786942Y-99890185D01*
X127807584Y-99906819D01*
X129363181Y-101462416D01*
X129396666Y-101523739D01*
X129399500Y-101550097D01*
X129399500Y-103163330D01*
X129399499Y-103163348D01*
X129399499Y-103329054D01*
X129399498Y-103329054D01*
X129440423Y-103481785D01*
X129469358Y-103531900D01*
X129469359Y-103531904D01*
X129469360Y-103531904D01*
X129519479Y-103618714D01*
X129519481Y-103618717D01*
X129638349Y-103737585D01*
X129638355Y-103737590D01*
X134514998Y-108614233D01*
X134522453Y-108627887D01*
X134533858Y-108638471D01*
X134538856Y-108657927D01*
X134548483Y-108675556D01*
X134547373Y-108691073D01*
X134551245Y-108706143D01*
X134544931Y-108725212D01*
X134543499Y-108745248D01*
X134533871Y-108758621D01*
X134529286Y-108772472D01*
X134508836Y-108793397D01*
X134505277Y-108798342D01*
X134502796Y-108800347D01*
X134464213Y-108828380D01*
X134447706Y-108844886D01*
X134442605Y-108849011D01*
X134416146Y-108860019D01*
X134390995Y-108873751D01*
X134384295Y-108873271D01*
X134378096Y-108875851D01*
X134349889Y-108870808D01*
X134321304Y-108868762D01*
X134314699Y-108864517D01*
X134309317Y-108863555D01*
X134300565Y-108855433D01*
X134276964Y-108840264D01*
X134265459Y-108828759D01*
X134265454Y-108828755D01*
X134115837Y-108720053D01*
X133951043Y-108636085D01*
X133951037Y-108636083D01*
X133775144Y-108578933D01*
X133750000Y-108574951D01*
X133750000Y-109719671D01*
X133730255Y-109699926D01*
X133644745Y-109650557D01*
X133549370Y-109625001D01*
X133450630Y-109625001D01*
X133355255Y-109650557D01*
X133269745Y-109699926D01*
X133250000Y-109719671D01*
X133250000Y-108574951D01*
X133249999Y-108574951D01*
X133224855Y-108578933D01*
X133048962Y-108636083D01*
X133048951Y-108636088D01*
X132901676Y-108711128D01*
X132833007Y-108724024D01*
X132768267Y-108697747D01*
X132765576Y-108695347D01*
X132647093Y-108606650D01*
X132647086Y-108606646D01*
X132512379Y-108556404D01*
X132512372Y-108556402D01*
X132452844Y-108550001D01*
X131980000Y-108550001D01*
X131980000Y-109719671D01*
X131960255Y-109699926D01*
X131874745Y-109650557D01*
X131779370Y-109625001D01*
X131680630Y-109625001D01*
X131585255Y-109650557D01*
X131499745Y-109699926D01*
X131480000Y-109719671D01*
X131480000Y-108550001D01*
X131007155Y-108550001D01*
X130947627Y-108556402D01*
X130947620Y-108556404D01*
X130812913Y-108606646D01*
X130812906Y-108606650D01*
X130697812Y-108692810D01*
X130697809Y-108692813D01*
X130611649Y-108807907D01*
X130611645Y-108807914D01*
X130561403Y-108942621D01*
X130561401Y-108942628D01*
X130555000Y-109002156D01*
X130555000Y-109750001D01*
X131449670Y-109750001D01*
X131429925Y-109769746D01*
X131380556Y-109855256D01*
X131355000Y-109950631D01*
X131355000Y-110049371D01*
X131380556Y-110144746D01*
X131429925Y-110230256D01*
X131449670Y-110250001D01*
X130555000Y-110250001D01*
X130555000Y-110997845D01*
X130561401Y-111057373D01*
X130561403Y-111057380D01*
X130611645Y-111192087D01*
X130611649Y-111192094D01*
X130697809Y-111307188D01*
X130697812Y-111307191D01*
X130812906Y-111393351D01*
X130812913Y-111393355D01*
X130947620Y-111443597D01*
X130947627Y-111443599D01*
X131007155Y-111450000D01*
X131007172Y-111450001D01*
X131480000Y-111450001D01*
X131480000Y-110280331D01*
X131499745Y-110300076D01*
X131585255Y-110349445D01*
X131680630Y-110375001D01*
X131779370Y-110375001D01*
X131874745Y-110349445D01*
X131960255Y-110300076D01*
X131980000Y-110280331D01*
X131980000Y-111450001D01*
X132452828Y-111450001D01*
X132452844Y-111450000D01*
X132512372Y-111443599D01*
X132512379Y-111443597D01*
X132647086Y-111393355D01*
X132647088Y-111393353D01*
X132769289Y-111301875D01*
X132771138Y-111304345D01*
X132818991Y-111278199D01*
X132888684Y-111283164D01*
X132901678Y-111288873D01*
X133048956Y-111363916D01*
X133048959Y-111363917D01*
X133224845Y-111421065D01*
X133224858Y-111421068D01*
X133250000Y-111425050D01*
X133250000Y-110280331D01*
X133269745Y-110300076D01*
X133355255Y-110349445D01*
X133450630Y-110375001D01*
X133549370Y-110375001D01*
X133644745Y-110349445D01*
X133730255Y-110300076D01*
X133750000Y-110280331D01*
X133750000Y-111425049D01*
X133775141Y-111421068D01*
X133775154Y-111421065D01*
X133951040Y-111363917D01*
X133951043Y-111363916D01*
X134115837Y-111279948D01*
X134265461Y-111171240D01*
X134276959Y-111159742D01*
X134338280Y-111126253D01*
X134407972Y-111131232D01*
X134452327Y-111159736D01*
X134464213Y-111171622D01*
X134613904Y-111280379D01*
X134694763Y-111321578D01*
X134778764Y-111364380D01*
X134778767Y-111364381D01*
X134866750Y-111392968D01*
X134954736Y-111421556D01*
X135137486Y-111450501D01*
X135137487Y-111450501D01*
X135322513Y-111450501D01*
X135322514Y-111450501D01*
X135505264Y-111421556D01*
X135681235Y-111364380D01*
X135846096Y-111280379D01*
X135995787Y-111171622D01*
X136126621Y-111040788D01*
X136235378Y-110891097D01*
X136319379Y-110726236D01*
X136376555Y-110550265D01*
X136405500Y-110367515D01*
X136405500Y-109632487D01*
X136376555Y-109449737D01*
X136319379Y-109273767D01*
X136319379Y-109273765D01*
X136235377Y-109108904D01*
X136126621Y-108959214D01*
X135995787Y-108828380D01*
X135881615Y-108745429D01*
X135878274Y-108741097D01*
X135873297Y-108738824D01*
X135857164Y-108713721D01*
X135838949Y-108690099D01*
X135837696Y-108683427D01*
X135835523Y-108680046D01*
X135830500Y-108645111D01*
X135830500Y-108569059D01*
X135830501Y-108569046D01*
X135830501Y-108400945D01*
X135830501Y-108400943D01*
X135789577Y-108248215D01*
X135760639Y-108198095D01*
X135710520Y-108111284D01*
X135598716Y-107999480D01*
X135598715Y-107999479D01*
X135594385Y-107995149D01*
X135594374Y-107995139D01*
X130636819Y-103037584D01*
X130603334Y-102976261D01*
X130600500Y-102949903D01*
X130600500Y-101339059D01*
X130600501Y-101339046D01*
X130600501Y-101170945D01*
X130600501Y-101170943D01*
X130559577Y-101018215D01*
X130527572Y-100962781D01*
X130480520Y-100881284D01*
X130368716Y-100769480D01*
X130368715Y-100769479D01*
X130364385Y-100765149D01*
X130364374Y-100765139D01*
X128507590Y-98908355D01*
X128507588Y-98908352D01*
X128388717Y-98789481D01*
X128388716Y-98789480D01*
X128301904Y-98739360D01*
X128301904Y-98739359D01*
X128301900Y-98739358D01*
X128251785Y-98710423D01*
X128099057Y-98669499D01*
X127940943Y-98669499D01*
X127933347Y-98669499D01*
X127933331Y-98669500D01*
X127424602Y-98669500D01*
X127357563Y-98649815D01*
X127314118Y-98601797D01*
X127307285Y-98588387D01*
X127186971Y-98422787D01*
X127042213Y-98278029D01*
X126876614Y-98157716D01*
X126870006Y-98154349D01*
X126783917Y-98110484D01*
X126733123Y-98062512D01*
X126716328Y-97994691D01*
X126738865Y-97928556D01*
X126783917Y-97889517D01*
X126876610Y-97842288D01*
X127028699Y-97731790D01*
X127042213Y-97721972D01*
X127042215Y-97721969D01*
X127042219Y-97721967D01*
X127186966Y-97577220D01*
X127186968Y-97577216D01*
X127186971Y-97577214D01*
X127239732Y-97504591D01*
X127307287Y-97411611D01*
X127400220Y-97229220D01*
X127463477Y-97034535D01*
X127495500Y-96832353D01*
X127495500Y-96627649D01*
X127463477Y-96425467D01*
X127400220Y-96230782D01*
X127400218Y-96230779D01*
X127400218Y-96230777D01*
X127366503Y-96164608D01*
X127307287Y-96048391D01*
X127299556Y-96037750D01*
X127186971Y-95882787D01*
X127042219Y-95738035D01*
X127042211Y-95738029D01*
X126948547Y-95669979D01*
X126905882Y-95614650D01*
X126899903Y-95545037D01*
X126932508Y-95483241D01*
X126982426Y-95451956D01*
X127064334Y-95424815D01*
X127213656Y-95332713D01*
X127337712Y-95208657D01*
X127429814Y-95059335D01*
X127484999Y-94892798D01*
X127495500Y-94790010D01*
X127495499Y-94087649D01*
X132514500Y-94087649D01*
X132514500Y-94292352D01*
X132546522Y-94494535D01*
X132609781Y-94689224D01*
X132661135Y-94790010D01*
X132702712Y-94871610D01*
X132702715Y-94871614D01*
X132823028Y-95037214D01*
X132967786Y-95181972D01*
X133122749Y-95294557D01*
X133133390Y-95302288D01*
X133224840Y-95348884D01*
X133226080Y-95349516D01*
X133276876Y-95397491D01*
X133293671Y-95465312D01*
X133271134Y-95531447D01*
X133226080Y-95570486D01*
X133133386Y-95617716D01*
X132967786Y-95738029D01*
X132823028Y-95882787D01*
X132702715Y-96048387D01*
X132609781Y-96230777D01*
X132546522Y-96425466D01*
X132514500Y-96627649D01*
X132514500Y-96832352D01*
X132546522Y-97034535D01*
X132609781Y-97229224D01*
X132702715Y-97411614D01*
X132823028Y-97577214D01*
X132967786Y-97721972D01*
X133122749Y-97834557D01*
X133133390Y-97842288D01*
X133224840Y-97888884D01*
X133226080Y-97889516D01*
X133276876Y-97937491D01*
X133293671Y-98005312D01*
X133271134Y-98071447D01*
X133226080Y-98110486D01*
X133133386Y-98157716D01*
X132967786Y-98278029D01*
X132823028Y-98422787D01*
X132702715Y-98588387D01*
X132609781Y-98770777D01*
X132546522Y-98965466D01*
X132514500Y-99167649D01*
X132514500Y-99372352D01*
X132546522Y-99574535D01*
X132609781Y-99769224D01*
X132666880Y-99881285D01*
X132702712Y-99951610D01*
X132702715Y-99951614D01*
X132823028Y-100117214D01*
X132967786Y-100261972D01*
X133122749Y-100374557D01*
X133133390Y-100382288D01*
X133224840Y-100428884D01*
X133226080Y-100429516D01*
X133276876Y-100477491D01*
X133293671Y-100545312D01*
X133271134Y-100611447D01*
X133226080Y-100650486D01*
X133133386Y-100697716D01*
X132967786Y-100818029D01*
X132967782Y-100818033D01*
X132823034Y-100962782D01*
X132823028Y-100962787D01*
X132702715Y-101128387D01*
X132609781Y-101310777D01*
X132546522Y-101505466D01*
X132514500Y-101707649D01*
X132514500Y-101912352D01*
X132546522Y-102114535D01*
X132609781Y-102309224D01*
X132640351Y-102369219D01*
X132702712Y-102491610D01*
X132702715Y-102491614D01*
X132823028Y-102657214D01*
X132967786Y-102801972D01*
X133122749Y-102914557D01*
X133133390Y-102922288D01*
X133239318Y-102976261D01*
X133315776Y-103015219D01*
X133315778Y-103015219D01*
X133315781Y-103015221D01*
X133420137Y-103049128D01*
X133510465Y-103078478D01*
X133611557Y-103094489D01*
X133712648Y-103110501D01*
X133712649Y-103110501D01*
X133917351Y-103110501D01*
X133917352Y-103110501D01*
X134119534Y-103078478D01*
X134314219Y-103015221D01*
X134496610Y-102922288D01*
X134589590Y-102854733D01*
X134662213Y-102801972D01*
X134662215Y-102801969D01*
X134662219Y-102801967D01*
X134806966Y-102657220D01*
X134806968Y-102657216D01*
X134806971Y-102657214D01*
X134883693Y-102551613D01*
X134927287Y-102491611D01*
X135020220Y-102309220D01*
X135083477Y-102114535D01*
X135115500Y-101912353D01*
X135115500Y-101767648D01*
X136199500Y-101767648D01*
X136199500Y-101972351D01*
X136231522Y-102174534D01*
X136294781Y-102369223D01*
X136387715Y-102551613D01*
X136508028Y-102717213D01*
X136652786Y-102861971D01*
X136807749Y-102974556D01*
X136818390Y-102982287D01*
X136883021Y-103015218D01*
X137000776Y-103075218D01*
X137000778Y-103075218D01*
X137000781Y-103075220D01*
X137105137Y-103109127D01*
X137195465Y-103138477D01*
X137296557Y-103154488D01*
X137397648Y-103170500D01*
X137397649Y-103170500D01*
X137602351Y-103170500D01*
X137602352Y-103170500D01*
X137804534Y-103138477D01*
X137999219Y-103075220D01*
X138181610Y-102982287D01*
X138274590Y-102914732D01*
X138347213Y-102861971D01*
X138347215Y-102861968D01*
X138347219Y-102861966D01*
X138491966Y-102717219D01*
X138491968Y-102717215D01*
X138491971Y-102717213D01*
X138544732Y-102644590D01*
X138612287Y-102551610D01*
X138705220Y-102369219D01*
X138768477Y-102174534D01*
X138800500Y-101972352D01*
X138800500Y-101767648D01*
X139949500Y-101767648D01*
X139949500Y-101972351D01*
X139981522Y-102174534D01*
X140044781Y-102369223D01*
X140137715Y-102551613D01*
X140258028Y-102717213D01*
X140402786Y-102861971D01*
X140557749Y-102974556D01*
X140568390Y-102982287D01*
X140633021Y-103015218D01*
X140750776Y-103075218D01*
X140750778Y-103075218D01*
X140750781Y-103075220D01*
X140855137Y-103109127D01*
X140945465Y-103138477D01*
X141046557Y-103154488D01*
X141147648Y-103170500D01*
X141147649Y-103170500D01*
X141352351Y-103170500D01*
X141352352Y-103170500D01*
X141554534Y-103138477D01*
X141749219Y-103075220D01*
X141931610Y-102982287D01*
X142024590Y-102914732D01*
X142097213Y-102861971D01*
X142097215Y-102861968D01*
X142097219Y-102861966D01*
X142241966Y-102717219D01*
X142241968Y-102717215D01*
X142241971Y-102717213D01*
X142294732Y-102644590D01*
X142362287Y-102551610D01*
X142455220Y-102369219D01*
X142518477Y-102174534D01*
X142550500Y-101972352D01*
X142550500Y-101767648D01*
X142518477Y-101565466D01*
X142513483Y-101550097D01*
X142455218Y-101370776D01*
X142421503Y-101304607D01*
X142362287Y-101188390D01*
X142318692Y-101128386D01*
X142241971Y-101022786D01*
X142097213Y-100878028D01*
X141931613Y-100757715D01*
X141931612Y-100757714D01*
X141931610Y-100757713D01*
X141874653Y-100728691D01*
X141749223Y-100664781D01*
X141554534Y-100601522D01*
X141379995Y-100573878D01*
X141352352Y-100569500D01*
X141147648Y-100569500D01*
X141123329Y-100573351D01*
X140945465Y-100601522D01*
X140750776Y-100664781D01*
X140568386Y-100757715D01*
X140402786Y-100878028D01*
X140258028Y-101022786D01*
X140137715Y-101188386D01*
X140044781Y-101370776D01*
X139981522Y-101565465D01*
X139949500Y-101767648D01*
X138800500Y-101767648D01*
X138768477Y-101565466D01*
X138763483Y-101550097D01*
X138705218Y-101370776D01*
X138671503Y-101304607D01*
X138612287Y-101188390D01*
X138568692Y-101128386D01*
X138491971Y-101022786D01*
X138347213Y-100878028D01*
X138181613Y-100757715D01*
X138181612Y-100757714D01*
X138181610Y-100757713D01*
X138124653Y-100728691D01*
X137999223Y-100664781D01*
X137804534Y-100601522D01*
X137629995Y-100573878D01*
X137602352Y-100569500D01*
X137397648Y-100569500D01*
X137373329Y-100573351D01*
X137195465Y-100601522D01*
X137000776Y-100664781D01*
X136818386Y-100757715D01*
X136652786Y-100878028D01*
X136508028Y-101022786D01*
X136387715Y-101188386D01*
X136294781Y-101370776D01*
X136231522Y-101565465D01*
X136199500Y-101767648D01*
X135115500Y-101767648D01*
X135115500Y-101707649D01*
X135083477Y-101505467D01*
X135083476Y-101505465D01*
X135039713Y-101370776D01*
X135020220Y-101310782D01*
X135020218Y-101310779D01*
X135020218Y-101310777D01*
X134948968Y-101170943D01*
X134927287Y-101128391D01*
X134919556Y-101117750D01*
X134806971Y-100962787D01*
X134662213Y-100818029D01*
X134496614Y-100697716D01*
X134462690Y-100680431D01*
X134403917Y-100650484D01*
X134353123Y-100602512D01*
X134336328Y-100534691D01*
X134358865Y-100468556D01*
X134403917Y-100429517D01*
X134496610Y-100382288D01*
X134569877Y-100329057D01*
X134662213Y-100261972D01*
X134662215Y-100261969D01*
X134662219Y-100261967D01*
X134806966Y-100117220D01*
X134806968Y-100117216D01*
X134806971Y-100117214D01*
X134927284Y-99951615D01*
X134927286Y-99951612D01*
X134927287Y-99951611D01*
X134934117Y-99938205D01*
X134982091Y-99887410D01*
X135044602Y-99870501D01*
X135643330Y-99870501D01*
X135643346Y-99870502D01*
X135650942Y-99870502D01*
X135809053Y-99870502D01*
X135809056Y-99870502D01*
X135961784Y-99829578D01*
X136011903Y-99800640D01*
X136098715Y-99750521D01*
X136210519Y-99638717D01*
X136210519Y-99638715D01*
X136220727Y-99628508D01*
X136220729Y-99628505D01*
X137858506Y-97990728D01*
X137858511Y-97990724D01*
X137868714Y-97980520D01*
X137868716Y-97980520D01*
X137980520Y-97868716D01*
X138059577Y-97731784D01*
X138100500Y-97579057D01*
X138100500Y-95479601D01*
X138120185Y-95412562D01*
X138168206Y-95369116D01*
X138181610Y-95362287D01*
X138347219Y-95241966D01*
X138491966Y-95097219D01*
X138491968Y-95097215D01*
X138491971Y-95097213D01*
X138544732Y-95024590D01*
X138612287Y-94931610D01*
X138705220Y-94749219D01*
X138768477Y-94554534D01*
X138800500Y-94352352D01*
X138800500Y-94147648D01*
X138777114Y-94000000D01*
X139973391Y-94000000D01*
X140934314Y-94000000D01*
X140929920Y-94004394D01*
X140877259Y-94095606D01*
X140850000Y-94197339D01*
X140850000Y-94302661D01*
X140877259Y-94404394D01*
X140929920Y-94495606D01*
X140934314Y-94500000D01*
X139973391Y-94500000D01*
X139982009Y-94554413D01*
X140045244Y-94749029D01*
X140138140Y-94931349D01*
X140258417Y-95096894D01*
X140258417Y-95096895D01*
X140403104Y-95241582D01*
X140568650Y-95361859D01*
X140750968Y-95454754D01*
X140945578Y-95517988D01*
X141000000Y-95526607D01*
X141000000Y-94565686D01*
X141004394Y-94570080D01*
X141095606Y-94622741D01*
X141197339Y-94650000D01*
X141302661Y-94650000D01*
X141404394Y-94622741D01*
X141495606Y-94570080D01*
X141500000Y-94565686D01*
X141500000Y-95526606D01*
X141554421Y-95517988D01*
X141749031Y-95454754D01*
X141931349Y-95361859D01*
X142096894Y-95241582D01*
X142096895Y-95241582D01*
X142241582Y-95096895D01*
X142241582Y-95096894D01*
X142361859Y-94931349D01*
X142454755Y-94749029D01*
X142517990Y-94554413D01*
X142526609Y-94500000D01*
X141565686Y-94500000D01*
X141570080Y-94495606D01*
X141622741Y-94404394D01*
X141650000Y-94302661D01*
X141650000Y-94197339D01*
X141622741Y-94095606D01*
X141570080Y-94004394D01*
X141565686Y-94000000D01*
X142526609Y-94000000D01*
X142517990Y-93945586D01*
X142454755Y-93750970D01*
X142361859Y-93568650D01*
X142241582Y-93403105D01*
X142241582Y-93403104D01*
X142096895Y-93258417D01*
X141931349Y-93138140D01*
X141749029Y-93045244D01*
X141554413Y-92982009D01*
X141500000Y-92973390D01*
X141500000Y-93934314D01*
X141495606Y-93929920D01*
X141404394Y-93877259D01*
X141302661Y-93850000D01*
X141197339Y-93850000D01*
X141095606Y-93877259D01*
X141004394Y-93929920D01*
X141000000Y-93934314D01*
X141000000Y-92973390D01*
X140945586Y-92982009D01*
X140750970Y-93045244D01*
X140568650Y-93138140D01*
X140403105Y-93258417D01*
X140403104Y-93258417D01*
X140258417Y-93403104D01*
X140258417Y-93403105D01*
X140138140Y-93568650D01*
X140045244Y-93750970D01*
X139982009Y-93945586D01*
X139973391Y-94000000D01*
X138777114Y-94000000D01*
X138768477Y-93945466D01*
X138705220Y-93750781D01*
X138705218Y-93750778D01*
X138705218Y-93750776D01*
X138623294Y-93589993D01*
X138612287Y-93568390D01*
X138568692Y-93508386D01*
X138491971Y-93402786D01*
X138347213Y-93258028D01*
X138181613Y-93137715D01*
X138181612Y-93137714D01*
X138181610Y-93137713D01*
X138124653Y-93108691D01*
X137999223Y-93044781D01*
X137804534Y-92981522D01*
X137629995Y-92953878D01*
X137602352Y-92949500D01*
X137397648Y-92949500D01*
X137373329Y-92953351D01*
X137195465Y-92981522D01*
X137000776Y-93044781D01*
X136818386Y-93137715D01*
X136652786Y-93258028D01*
X136508028Y-93402786D01*
X136387715Y-93568386D01*
X136294781Y-93750776D01*
X136231522Y-93945465D01*
X136199500Y-94147648D01*
X136199500Y-94352351D01*
X136231522Y-94554534D01*
X136294781Y-94749223D01*
X136387715Y-94931613D01*
X136508028Y-95097213D01*
X136508034Y-95097219D01*
X136652781Y-95241966D01*
X136818390Y-95362287D01*
X136831793Y-95369116D01*
X136882589Y-95417088D01*
X136899500Y-95479601D01*
X136899500Y-97199903D01*
X136879815Y-97266942D01*
X136863181Y-97287584D01*
X135517583Y-98633182D01*
X135456260Y-98666667D01*
X135429902Y-98669501D01*
X135044602Y-98669501D01*
X134977563Y-98649816D01*
X134934117Y-98601796D01*
X134927284Y-98588386D01*
X134806971Y-98422787D01*
X134662213Y-98278029D01*
X134496614Y-98157716D01*
X134490006Y-98154349D01*
X134403917Y-98110484D01*
X134353123Y-98062512D01*
X134336328Y-97994691D01*
X134358865Y-97928556D01*
X134403917Y-97889517D01*
X134496610Y-97842288D01*
X134648699Y-97731790D01*
X134662213Y-97721972D01*
X134662215Y-97721969D01*
X134662219Y-97721967D01*
X134806966Y-97577220D01*
X134806968Y-97577216D01*
X134806971Y-97577214D01*
X134859732Y-97504591D01*
X134927287Y-97411611D01*
X135020220Y-97229220D01*
X135083477Y-97034535D01*
X135115500Y-96832353D01*
X135115500Y-96627649D01*
X135083477Y-96425467D01*
X135020220Y-96230782D01*
X135020218Y-96230779D01*
X135020218Y-96230777D01*
X134986503Y-96164608D01*
X134927287Y-96048391D01*
X134919556Y-96037750D01*
X134806971Y-95882787D01*
X134662213Y-95738029D01*
X134496614Y-95617716D01*
X134490006Y-95614349D01*
X134403917Y-95570484D01*
X134353123Y-95522512D01*
X134336328Y-95454691D01*
X134358865Y-95388556D01*
X134403917Y-95349517D01*
X134496610Y-95302288D01*
X134579637Y-95241966D01*
X134662213Y-95181972D01*
X134662215Y-95181969D01*
X134662219Y-95181967D01*
X134806966Y-95037220D01*
X134806968Y-95037216D01*
X134806971Y-95037214D01*
X134883693Y-94931613D01*
X134927287Y-94871611D01*
X135020220Y-94689220D01*
X135083477Y-94494535D01*
X135115500Y-94292353D01*
X135115500Y-94087649D01*
X135110560Y-94056461D01*
X135083477Y-93885466D01*
X135020218Y-93690777D01*
X134968865Y-93589992D01*
X134927287Y-93508391D01*
X134911892Y-93487201D01*
X134806971Y-93342787D01*
X134662213Y-93198029D01*
X134496613Y-93077716D01*
X134496612Y-93077715D01*
X134496610Y-93077714D01*
X134432884Y-93045244D01*
X134314223Y-92984782D01*
X134119534Y-92921523D01*
X133944995Y-92893879D01*
X133917352Y-92889501D01*
X133712648Y-92889501D01*
X133688329Y-92893352D01*
X133510465Y-92921523D01*
X133315776Y-92984782D01*
X133133386Y-93077716D01*
X132967786Y-93198029D01*
X132823028Y-93342787D01*
X132702715Y-93508387D01*
X132609781Y-93690777D01*
X132546522Y-93885466D01*
X132514500Y-94087649D01*
X127495499Y-94087649D01*
X127495499Y-93589993D01*
X127484999Y-93487204D01*
X127429814Y-93320667D01*
X127337712Y-93171345D01*
X127213656Y-93047289D01*
X127064334Y-92955187D01*
X126897797Y-92900002D01*
X126897795Y-92900001D01*
X126795010Y-92889501D01*
X125594998Y-92889501D01*
X125594981Y-92889502D01*
X125492203Y-92900001D01*
X125492200Y-92900002D01*
X125325668Y-92955186D01*
X125325663Y-92955188D01*
X125176342Y-93047290D01*
X125052289Y-93171343D01*
X124960187Y-93320664D01*
X124960186Y-93320667D01*
X124905001Y-93487204D01*
X124905001Y-93487205D01*
X124905000Y-93487205D01*
X124894500Y-93589984D01*
X124894500Y-94790002D01*
X124894501Y-94790019D01*
X124905000Y-94892797D01*
X124905001Y-94892800D01*
X124917862Y-94931610D01*
X124960186Y-95059335D01*
X125052288Y-95208657D01*
X125176344Y-95332713D01*
X125325666Y-95424815D01*
X125407570Y-95451955D01*
X125465015Y-95491728D01*
X125491838Y-95556244D01*
X125479523Y-95625019D01*
X125441451Y-95669979D01*
X125347787Y-95738029D01*
X125347782Y-95738033D01*
X125203028Y-95882787D01*
X125082715Y-96048386D01*
X125075883Y-96061796D01*
X125027909Y-96112592D01*
X124965398Y-96129501D01*
X122190939Y-96129501D01*
X122150018Y-96140465D01*
X122150018Y-96140466D01*
X122112750Y-96150452D01*
X122038213Y-96170424D01*
X122038208Y-96170427D01*
X121901289Y-96249476D01*
X121901281Y-96249482D01*
X118269481Y-99881282D01*
X118269480Y-99881284D01*
X118228877Y-99951611D01*
X118190423Y-100018215D01*
X118149499Y-100170943D01*
X118149499Y-100170945D01*
X118149499Y-100339046D01*
X118149500Y-100339059D01*
X118149500Y-100580397D01*
X118129815Y-100647436D01*
X118081800Y-100690879D01*
X118068389Y-100697712D01*
X117902786Y-100818028D01*
X117902782Y-100818032D01*
X117758035Y-100962780D01*
X117758028Y-100962786D01*
X117637715Y-101128386D01*
X117544781Y-101310776D01*
X117481522Y-101505465D01*
X117449500Y-101707648D01*
X115500500Y-101707648D01*
X115500500Y-94087648D01*
X117449500Y-94087648D01*
X117449500Y-94292351D01*
X117481522Y-94494534D01*
X117544781Y-94689223D01*
X117637715Y-94871613D01*
X117758028Y-95037213D01*
X117902786Y-95181971D01*
X118057749Y-95294556D01*
X118068390Y-95302287D01*
X118161082Y-95349516D01*
X118250776Y-95395218D01*
X118250778Y-95395218D01*
X118250781Y-95395220D01*
X118318084Y-95417088D01*
X118445465Y-95458477D01*
X118546557Y-95474488D01*
X118647648Y-95490500D01*
X118647649Y-95490500D01*
X118852351Y-95490500D01*
X118852352Y-95490500D01*
X119054534Y-95458477D01*
X119249219Y-95395220D01*
X119431610Y-95302287D01*
X119524590Y-95234732D01*
X119597213Y-95181971D01*
X119597215Y-95181968D01*
X119597219Y-95181966D01*
X119741966Y-95037219D01*
X119741970Y-95037214D01*
X119741971Y-95037213D01*
X119794732Y-94964590D01*
X119862287Y-94871610D01*
X119955220Y-94689219D01*
X120018477Y-94494534D01*
X120050500Y-94292352D01*
X120050500Y-94087648D01*
X121199500Y-94087648D01*
X121199500Y-94292351D01*
X121231522Y-94494534D01*
X121294781Y-94689223D01*
X121387715Y-94871613D01*
X121508028Y-95037213D01*
X121652786Y-95181971D01*
X121807749Y-95294556D01*
X121818390Y-95302287D01*
X121911082Y-95349516D01*
X122000776Y-95395218D01*
X122000778Y-95395218D01*
X122000781Y-95395220D01*
X122068084Y-95417088D01*
X122195465Y-95458477D01*
X122296557Y-95474488D01*
X122397648Y-95490500D01*
X122397649Y-95490500D01*
X122602351Y-95490500D01*
X122602352Y-95490500D01*
X122804534Y-95458477D01*
X122999219Y-95395220D01*
X123181610Y-95302287D01*
X123274590Y-95234732D01*
X123347213Y-95181971D01*
X123347215Y-95181968D01*
X123347219Y-95181966D01*
X123491966Y-95037219D01*
X123491970Y-95037214D01*
X123491971Y-95037213D01*
X123544732Y-94964590D01*
X123612287Y-94871610D01*
X123705220Y-94689219D01*
X123768477Y-94494534D01*
X123800500Y-94292352D01*
X123800500Y-94087648D01*
X123768477Y-93885466D01*
X123765810Y-93877259D01*
X123739127Y-93795137D01*
X123705220Y-93690781D01*
X123705218Y-93690777D01*
X123705218Y-93690776D01*
X123642991Y-93568650D01*
X123612287Y-93508390D01*
X123596895Y-93487204D01*
X123491971Y-93342786D01*
X123347213Y-93198028D01*
X123181613Y-93077715D01*
X123181612Y-93077714D01*
X123181610Y-93077713D01*
X123117886Y-93045244D01*
X122999223Y-92984781D01*
X122804534Y-92921522D01*
X122629995Y-92893878D01*
X122602352Y-92889500D01*
X122397648Y-92889500D01*
X122373329Y-92893351D01*
X122195465Y-92921522D01*
X122000776Y-92984781D01*
X121818386Y-93077715D01*
X121652786Y-93198028D01*
X121508028Y-93342786D01*
X121387715Y-93508386D01*
X121294781Y-93690776D01*
X121231522Y-93885465D01*
X121199500Y-94087648D01*
X120050500Y-94087648D01*
X120018477Y-93885466D01*
X120015810Y-93877259D01*
X119989127Y-93795137D01*
X119955220Y-93690781D01*
X119955218Y-93690777D01*
X119955218Y-93690776D01*
X119892991Y-93568650D01*
X119862287Y-93508390D01*
X119846895Y-93487204D01*
X119741971Y-93342786D01*
X119597213Y-93198028D01*
X119431610Y-93077712D01*
X119418200Y-93070879D01*
X119367406Y-93022903D01*
X119350500Y-92960397D01*
X119350500Y-89050096D01*
X119359144Y-89020655D01*
X119365668Y-88990669D01*
X119369422Y-88985653D01*
X119370185Y-88983057D01*
X119386814Y-88962420D01*
X119451585Y-88897649D01*
X126199500Y-88897649D01*
X126199500Y-89102352D01*
X126231522Y-89304535D01*
X126294781Y-89499224D01*
X126387715Y-89681614D01*
X126508028Y-89847214D01*
X126652786Y-89991972D01*
X126807749Y-90104557D01*
X126818390Y-90112288D01*
X126934607Y-90171504D01*
X127000776Y-90205219D01*
X127000778Y-90205219D01*
X127000781Y-90205221D01*
X127105137Y-90239128D01*
X127195465Y-90268478D01*
X127296557Y-90284489D01*
X127397648Y-90300501D01*
X127397649Y-90300501D01*
X127602351Y-90300501D01*
X127602352Y-90300501D01*
X127804534Y-90268478D01*
X127999219Y-90205221D01*
X128181610Y-90112288D01*
X128274590Y-90044733D01*
X128347213Y-89991972D01*
X128347215Y-89991969D01*
X128347219Y-89991967D01*
X128491966Y-89847220D01*
X128491968Y-89847216D01*
X128491971Y-89847214D01*
X128544732Y-89774591D01*
X128612287Y-89681611D01*
X128705220Y-89499220D01*
X128768477Y-89304535D01*
X128800500Y-89102353D01*
X128800500Y-88897649D01*
X131199500Y-88897649D01*
X131199500Y-89102352D01*
X131231522Y-89304535D01*
X131294781Y-89499224D01*
X131387715Y-89681614D01*
X131508028Y-89847214D01*
X131652786Y-89991972D01*
X131807749Y-90104557D01*
X131818390Y-90112288D01*
X131934607Y-90171504D01*
X132000776Y-90205219D01*
X132000778Y-90205219D01*
X132000781Y-90205221D01*
X132105137Y-90239128D01*
X132195465Y-90268478D01*
X132296557Y-90284489D01*
X132397648Y-90300501D01*
X132397649Y-90300501D01*
X132602351Y-90300501D01*
X132602352Y-90300501D01*
X132804534Y-90268478D01*
X132999219Y-90205221D01*
X133181610Y-90112288D01*
X133274590Y-90044733D01*
X133347213Y-89991972D01*
X133347215Y-89991969D01*
X133347219Y-89991967D01*
X133491966Y-89847220D01*
X133491968Y-89847216D01*
X133491971Y-89847214D01*
X133544732Y-89774591D01*
X133612287Y-89681611D01*
X133705220Y-89499220D01*
X133768477Y-89304535D01*
X133800500Y-89102353D01*
X133800500Y-88897649D01*
X133768477Y-88695467D01*
X133760509Y-88670945D01*
X133710884Y-88518215D01*
X133705220Y-88500782D01*
X133705218Y-88500779D01*
X133705218Y-88500777D01*
X133644333Y-88381285D01*
X133612287Y-88318391D01*
X133604556Y-88307750D01*
X133491971Y-88152787D01*
X133347213Y-88008029D01*
X133181613Y-87887716D01*
X133181612Y-87887715D01*
X133181610Y-87887714D01*
X133124653Y-87858692D01*
X132999223Y-87794782D01*
X132804534Y-87731523D01*
X132629995Y-87703879D01*
X132602352Y-87699501D01*
X132397648Y-87699501D01*
X132373329Y-87703352D01*
X132195465Y-87731523D01*
X132000776Y-87794782D01*
X131818386Y-87887716D01*
X131652786Y-88008029D01*
X131508028Y-88152787D01*
X131387715Y-88318387D01*
X131294781Y-88500777D01*
X131231522Y-88695466D01*
X131199500Y-88897649D01*
X128800500Y-88897649D01*
X128768477Y-88695467D01*
X128760509Y-88670945D01*
X128710884Y-88518215D01*
X128705220Y-88500782D01*
X128705218Y-88500779D01*
X128705218Y-88500777D01*
X128644333Y-88381285D01*
X128612287Y-88318391D01*
X128604556Y-88307750D01*
X128491971Y-88152787D01*
X128347213Y-88008029D01*
X128181613Y-87887716D01*
X128181612Y-87887715D01*
X128181610Y-87887714D01*
X128124653Y-87858692D01*
X127999223Y-87794782D01*
X127804534Y-87731523D01*
X127629995Y-87703879D01*
X127602352Y-87699501D01*
X127397648Y-87699501D01*
X127373329Y-87703352D01*
X127195465Y-87731523D01*
X127000776Y-87794782D01*
X126818386Y-87887716D01*
X126652786Y-88008029D01*
X126508028Y-88152787D01*
X126387715Y-88318387D01*
X126294781Y-88500777D01*
X126231522Y-88695466D01*
X126199500Y-88897649D01*
X119451585Y-88897649D01*
X125408713Y-82940521D01*
X125408716Y-82940520D01*
X125520520Y-82828716D01*
X125570639Y-82741904D01*
X125599577Y-82691785D01*
X125640500Y-82539058D01*
X125640500Y-82380943D01*
X125640500Y-78565513D01*
X125660185Y-78498474D01*
X125691614Y-78465195D01*
X125835102Y-78360945D01*
X125970945Y-78225102D01*
X126083865Y-78069681D01*
X126171082Y-77898509D01*
X126230447Y-77715801D01*
X126260500Y-77526055D01*
X126260500Y-77333945D01*
X126230447Y-77144199D01*
X126171082Y-76961491D01*
X126083865Y-76790319D01*
X125970945Y-76634898D01*
X125835102Y-76499055D01*
X125679681Y-76386135D01*
X125508506Y-76298916D01*
X125325802Y-76239553D01*
X125230928Y-76224526D01*
X125136055Y-76209500D01*
X124943945Y-76209500D01*
X124880696Y-76219517D01*
X124754197Y-76239553D01*
X124571493Y-76298916D01*
X124400318Y-76386135D01*
X124311645Y-76450560D01*
X124244898Y-76499055D01*
X124244896Y-76499057D01*
X124244895Y-76499057D01*
X124109057Y-76634895D01*
X124109057Y-76634896D01*
X124109055Y-76634898D01*
X124060560Y-76701645D01*
X123996135Y-76790318D01*
X123908916Y-76961493D01*
X123849553Y-77144197D01*
X123819500Y-77333945D01*
X123819500Y-77526054D01*
X123849553Y-77715802D01*
X123908916Y-77898506D01*
X123908918Y-77898509D01*
X123996135Y-78069681D01*
X124109055Y-78225102D01*
X124244898Y-78360945D01*
X124388386Y-78465195D01*
X124431051Y-78520525D01*
X124439500Y-78565513D01*
X124439500Y-82159902D01*
X124419815Y-82226941D01*
X124403181Y-82247583D01*
X118269481Y-88381282D01*
X118269479Y-88381285D01*
X118219361Y-88468094D01*
X118219359Y-88468096D01*
X118190425Y-88518209D01*
X118190424Y-88518210D01*
X118190423Y-88518215D01*
X118149499Y-88670943D01*
X118149499Y-88670945D01*
X118149499Y-88839046D01*
X118149500Y-88839059D01*
X118149500Y-92960397D01*
X118129815Y-93027436D01*
X118081800Y-93070879D01*
X118068389Y-93077712D01*
X117902786Y-93198028D01*
X117758028Y-93342786D01*
X117637715Y-93508386D01*
X117544781Y-93690776D01*
X117481522Y-93885465D01*
X117449500Y-94087648D01*
X115500500Y-94087648D01*
X115500500Y-77333945D01*
X118739500Y-77333945D01*
X118739500Y-77526054D01*
X118769553Y-77715802D01*
X118828916Y-77898506D01*
X118828918Y-77898509D01*
X118916135Y-78069681D01*
X119029055Y-78225102D01*
X119164898Y-78360945D01*
X119320319Y-78473865D01*
X119368617Y-78498474D01*
X119491493Y-78561083D01*
X119582845Y-78590764D01*
X119674199Y-78620447D01*
X119863945Y-78650500D01*
X119863946Y-78650500D01*
X120056054Y-78650500D01*
X120056055Y-78650500D01*
X120245801Y-78620447D01*
X120428509Y-78561082D01*
X120599681Y-78473865D01*
X120755102Y-78360945D01*
X120890945Y-78225102D01*
X121003865Y-78069681D01*
X121091082Y-77898509D01*
X121150447Y-77715801D01*
X121180500Y-77526055D01*
X121180500Y-77333945D01*
X121150447Y-77144199D01*
X121091082Y-76961491D01*
X121003865Y-76790319D01*
X120890945Y-76634898D01*
X120755102Y-76499055D01*
X120599681Y-76386135D01*
X120428506Y-76298916D01*
X120245802Y-76239553D01*
X120150928Y-76224526D01*
X120056055Y-76209500D01*
X119863945Y-76209500D01*
X119800696Y-76219517D01*
X119674197Y-76239553D01*
X119491493Y-76298916D01*
X119320318Y-76386135D01*
X119231645Y-76450560D01*
X119164898Y-76499055D01*
X119164896Y-76499057D01*
X119164895Y-76499057D01*
X119029057Y-76634895D01*
X119029057Y-76634896D01*
X119029055Y-76634898D01*
X118980560Y-76701645D01*
X118916135Y-76790318D01*
X118828916Y-76961493D01*
X118769553Y-77144197D01*
X118739500Y-77333945D01*
X115500500Y-77333945D01*
X115500500Y-74793945D01*
X121279500Y-74793945D01*
X121279500Y-74986054D01*
X121309553Y-75175802D01*
X121368916Y-75358506D01*
X121368918Y-75358509D01*
X121456135Y-75529681D01*
X121569055Y-75685102D01*
X121704898Y-75820945D01*
X121860319Y-75933865D01*
X122031491Y-76021082D01*
X122031493Y-76021083D01*
X122122845Y-76050764D01*
X122214199Y-76080447D01*
X122403945Y-76110500D01*
X122403946Y-76110500D01*
X122596054Y-76110500D01*
X122596055Y-76110500D01*
X122785801Y-76080447D01*
X122968509Y-76021082D01*
X123139681Y-75933865D01*
X123295102Y-75820945D01*
X123430945Y-75685102D01*
X123543865Y-75529681D01*
X123631082Y-75358509D01*
X123690447Y-75175801D01*
X123720500Y-74986055D01*
X123720500Y-74793945D01*
X123690447Y-74604199D01*
X123631082Y-74421491D01*
X123543865Y-74250319D01*
X123430945Y-74094898D01*
X123295102Y-73959055D01*
X123139681Y-73846135D01*
X122968506Y-73758916D01*
X122785802Y-73699553D01*
X122690928Y-73684526D01*
X122596055Y-73669500D01*
X122403945Y-73669500D01*
X122340696Y-73679517D01*
X122214197Y-73699553D01*
X122031493Y-73758916D01*
X121860318Y-73846135D01*
X121771645Y-73910560D01*
X121704898Y-73959055D01*
X121704896Y-73959057D01*
X121704895Y-73959057D01*
X121569057Y-74094895D01*
X121569057Y-74094896D01*
X121569055Y-74094898D01*
X121520560Y-74161645D01*
X121456135Y-74250318D01*
X121368916Y-74421493D01*
X121309553Y-74604197D01*
X121279500Y-74793945D01*
X115500500Y-74793945D01*
X115500500Y-68254071D01*
X120900000Y-68254071D01*
X120900000Y-68505928D01*
X120939397Y-68754669D01*
X121017219Y-68994184D01*
X121131557Y-69218583D01*
X121205748Y-69320697D01*
X121205748Y-69320698D01*
X121935387Y-68591059D01*
X121940889Y-68611591D01*
X122019881Y-68748408D01*
X122131592Y-68860119D01*
X122268409Y-68939111D01*
X122288940Y-68944612D01*
X121559300Y-69674250D01*
X121661415Y-69748441D01*
X121664399Y-69750270D01*
X121665295Y-69751260D01*
X121665359Y-69751307D01*
X121665349Y-69751320D01*
X121711276Y-69802080D01*
X121722701Y-69871009D01*
X121695047Y-69935173D01*
X121637093Y-69974200D01*
X121599613Y-69980000D01*
X121452155Y-69980000D01*
X121392627Y-69986401D01*
X121392620Y-69986403D01*
X121257913Y-70036645D01*
X121257906Y-70036649D01*
X121142812Y-70122809D01*
X121142809Y-70122812D01*
X121056649Y-70237906D01*
X121056645Y-70237913D01*
X121006403Y-70372620D01*
X121006401Y-70372627D01*
X121000000Y-70432155D01*
X121000000Y-71230000D01*
X121951518Y-71230000D01*
X121940889Y-71248409D01*
X121900000Y-71401009D01*
X121900000Y-71558991D01*
X121940889Y-71711591D01*
X121951518Y-71730000D01*
X121000000Y-71730000D01*
X121000000Y-72527844D01*
X121006401Y-72587372D01*
X121006403Y-72587379D01*
X121056645Y-72722086D01*
X121056649Y-72722093D01*
X121142809Y-72837187D01*
X121142812Y-72837190D01*
X121257906Y-72923350D01*
X121257913Y-72923354D01*
X121392620Y-72973596D01*
X121392627Y-72973598D01*
X121452155Y-72979999D01*
X121452172Y-72980000D01*
X122250000Y-72980000D01*
X122250000Y-72028482D01*
X122268409Y-72039111D01*
X122421009Y-72080000D01*
X122578991Y-72080000D01*
X122731591Y-72039111D01*
X122750000Y-72028482D01*
X122750000Y-72980000D01*
X123547828Y-72980000D01*
X123547844Y-72979999D01*
X123607372Y-72973598D01*
X123607379Y-72973596D01*
X123742086Y-72923354D01*
X123742093Y-72923350D01*
X123857187Y-72837190D01*
X123857190Y-72837187D01*
X123943350Y-72722093D01*
X123943354Y-72722086D01*
X123993596Y-72587379D01*
X123993598Y-72587372D01*
X123999999Y-72527844D01*
X124000000Y-72527827D01*
X124000000Y-71730000D01*
X123048482Y-71730000D01*
X123059111Y-71711591D01*
X123100000Y-71558991D01*
X123100000Y-71401009D01*
X123059111Y-71248409D01*
X123048482Y-71230000D01*
X124000000Y-71230000D01*
X124000000Y-70432172D01*
X123999999Y-70432155D01*
X123993598Y-70372627D01*
X123993596Y-70372620D01*
X123943354Y-70237913D01*
X123943350Y-70237906D01*
X123857190Y-70122812D01*
X123857187Y-70122809D01*
X123742093Y-70036649D01*
X123742086Y-70036645D01*
X123607379Y-69986403D01*
X123607372Y-69986401D01*
X123547844Y-69980000D01*
X123400387Y-69980000D01*
X123333348Y-69960315D01*
X123287593Y-69907511D01*
X123277649Y-69838353D01*
X123306674Y-69774797D01*
X123335591Y-69750277D01*
X123338571Y-69748450D01*
X123440697Y-69674250D01*
X123440698Y-69674250D01*
X122711059Y-68944612D01*
X122731591Y-68939111D01*
X122868408Y-68860119D01*
X122980119Y-68748408D01*
X123059111Y-68611591D01*
X123064612Y-68591060D01*
X123794250Y-69320698D01*
X123794250Y-69320697D01*
X123868442Y-69218581D01*
X123868446Y-69218575D01*
X123982780Y-68994184D01*
X124060602Y-68754669D01*
X124100000Y-68505928D01*
X124100000Y-68254071D01*
X135900000Y-68254071D01*
X135900000Y-68505928D01*
X135939397Y-68754669D01*
X136017219Y-68994184D01*
X136131557Y-69218583D01*
X136205748Y-69320697D01*
X136205748Y-69320698D01*
X136935387Y-68591059D01*
X136940889Y-68611591D01*
X137019881Y-68748408D01*
X137131592Y-68860119D01*
X137268409Y-68939111D01*
X137288940Y-68944612D01*
X136559300Y-69674250D01*
X136661415Y-69748441D01*
X136664399Y-69750270D01*
X136665295Y-69751260D01*
X136665359Y-69751307D01*
X136665349Y-69751320D01*
X136711276Y-69802080D01*
X136722701Y-69871009D01*
X136695047Y-69935173D01*
X136637093Y-69974200D01*
X136599613Y-69980000D01*
X136452155Y-69980000D01*
X136392627Y-69986401D01*
X136392620Y-69986403D01*
X136257913Y-70036645D01*
X136257906Y-70036649D01*
X136142812Y-70122809D01*
X136142809Y-70122812D01*
X136056649Y-70237906D01*
X136056645Y-70237913D01*
X136006403Y-70372620D01*
X136006401Y-70372627D01*
X136000000Y-70432155D01*
X136000000Y-71230000D01*
X136951518Y-71230000D01*
X136940889Y-71248409D01*
X136900000Y-71401009D01*
X136900000Y-71558991D01*
X136940889Y-71711591D01*
X136951518Y-71730000D01*
X136000000Y-71730000D01*
X136000000Y-72527844D01*
X136006401Y-72587372D01*
X136006403Y-72587379D01*
X136056645Y-72722086D01*
X136056649Y-72722093D01*
X136142809Y-72837187D01*
X136142812Y-72837190D01*
X136257906Y-72923350D01*
X136257913Y-72923354D01*
X136392620Y-72973596D01*
X136392627Y-72973598D01*
X136452155Y-72979999D01*
X136452172Y-72980000D01*
X137250000Y-72980000D01*
X137250000Y-72028482D01*
X137268409Y-72039111D01*
X137421009Y-72080000D01*
X137578991Y-72080000D01*
X137731591Y-72039111D01*
X137750000Y-72028482D01*
X137750000Y-72980000D01*
X138547828Y-72980000D01*
X138547844Y-72979999D01*
X138607372Y-72973598D01*
X138607379Y-72973596D01*
X138742086Y-72923354D01*
X138742093Y-72923350D01*
X138857187Y-72837190D01*
X138857190Y-72837187D01*
X138943350Y-72722093D01*
X138943354Y-72722086D01*
X138993596Y-72587379D01*
X138993598Y-72587372D01*
X138999999Y-72527844D01*
X139000000Y-72527827D01*
X139000000Y-71730000D01*
X138048482Y-71730000D01*
X138059111Y-71711591D01*
X138100000Y-71558991D01*
X138100000Y-71401009D01*
X138059111Y-71248409D01*
X138048482Y-71230000D01*
X139000000Y-71230000D01*
X139000000Y-70432172D01*
X138999999Y-70432155D01*
X138993598Y-70372627D01*
X138993596Y-70372620D01*
X138943354Y-70237913D01*
X138943350Y-70237906D01*
X138857190Y-70122812D01*
X138857187Y-70122809D01*
X138742093Y-70036649D01*
X138742086Y-70036645D01*
X138607379Y-69986403D01*
X138607372Y-69986401D01*
X138547844Y-69980000D01*
X138400387Y-69980000D01*
X138333348Y-69960315D01*
X138287593Y-69907511D01*
X138277649Y-69838353D01*
X138306674Y-69774797D01*
X138335591Y-69750277D01*
X138338571Y-69748450D01*
X138440697Y-69674250D01*
X138440698Y-69674250D01*
X137711059Y-68944612D01*
X137731591Y-68939111D01*
X137868408Y-68860119D01*
X137980119Y-68748408D01*
X138059111Y-68611591D01*
X138064612Y-68591059D01*
X138794250Y-69320698D01*
X138794250Y-69320697D01*
X138868442Y-69218581D01*
X138868446Y-69218575D01*
X138982780Y-68994184D01*
X139060602Y-68754669D01*
X139100000Y-68505928D01*
X139100000Y-68254071D01*
X139060602Y-68005330D01*
X138982780Y-67765815D01*
X138868442Y-67541416D01*
X138794250Y-67439301D01*
X138794250Y-67439300D01*
X138064612Y-68168939D01*
X138059111Y-68148409D01*
X137980119Y-68011592D01*
X137868408Y-67899881D01*
X137731591Y-67820889D01*
X137711058Y-67815387D01*
X138440698Y-67085748D01*
X138338583Y-67011557D01*
X138114184Y-66897219D01*
X137874669Y-66819397D01*
X137625928Y-66780000D01*
X137374072Y-66780000D01*
X137125330Y-66819397D01*
X136885815Y-66897219D01*
X136661413Y-67011559D01*
X136559301Y-67085747D01*
X136559300Y-67085748D01*
X137288940Y-67815387D01*
X137268409Y-67820889D01*
X137131592Y-67899881D01*
X137019881Y-68011592D01*
X136940889Y-68148409D01*
X136935387Y-68168940D01*
X136205748Y-67439300D01*
X136205747Y-67439301D01*
X136131559Y-67541413D01*
X136017219Y-67765815D01*
X135939397Y-68005330D01*
X135900000Y-68254071D01*
X124100000Y-68254071D01*
X124060602Y-68005330D01*
X123982780Y-67765815D01*
X123868442Y-67541416D01*
X123794250Y-67439301D01*
X123794250Y-67439300D01*
X123064612Y-68168939D01*
X123059111Y-68148409D01*
X122980119Y-68011592D01*
X122868408Y-67899881D01*
X122731591Y-67820889D01*
X122711058Y-67815387D01*
X123440698Y-67085748D01*
X123338583Y-67011557D01*
X123114184Y-66897219D01*
X122874669Y-66819397D01*
X122625928Y-66780000D01*
X122374072Y-66780000D01*
X122125330Y-66819397D01*
X121885815Y-66897219D01*
X121661413Y-67011559D01*
X121559301Y-67085747D01*
X121559300Y-67085748D01*
X122288940Y-67815387D01*
X122268409Y-67820889D01*
X122131592Y-67899881D01*
X122019881Y-68011592D01*
X121940889Y-68148409D01*
X121935387Y-68168940D01*
X121205748Y-67439300D01*
X121205747Y-67439301D01*
X121131559Y-67541413D01*
X121017219Y-67765815D01*
X120939397Y-68005330D01*
X120900000Y-68254071D01*
X115500500Y-68254071D01*
X115500500Y-59954038D01*
X120899500Y-59954038D01*
X120899500Y-60205961D01*
X120938910Y-60454785D01*
X121016760Y-60694383D01*
X121131132Y-60918848D01*
X121279201Y-61122649D01*
X121279205Y-61122654D01*
X121457345Y-61300794D01*
X121457350Y-61300798D01*
X121635117Y-61429952D01*
X121661155Y-61448870D01*
X121804184Y-61521747D01*
X121885616Y-61563239D01*
X121885618Y-61563239D01*
X121885621Y-61563241D01*
X122125215Y-61641090D01*
X122374038Y-61680500D01*
X122374039Y-61680500D01*
X122625961Y-61680500D01*
X122625962Y-61680500D01*
X122874785Y-61641090D01*
X123114379Y-61563241D01*
X123338845Y-61448870D01*
X123542656Y-61300793D01*
X123720793Y-61122656D01*
X123868870Y-60918845D01*
X123983241Y-60694379D01*
X124061090Y-60454785D01*
X124100500Y-60205962D01*
X124100500Y-59954038D01*
X135899500Y-59954038D01*
X135899500Y-60205961D01*
X135938910Y-60454785D01*
X136016760Y-60694383D01*
X136131132Y-60918848D01*
X136279201Y-61122649D01*
X136279205Y-61122654D01*
X136457345Y-61300794D01*
X136457350Y-61300798D01*
X136635117Y-61429952D01*
X136661155Y-61448870D01*
X136804184Y-61521747D01*
X136885616Y-61563239D01*
X136885618Y-61563239D01*
X136885621Y-61563241D01*
X137125215Y-61641090D01*
X137374038Y-61680500D01*
X137374039Y-61680500D01*
X137625961Y-61680500D01*
X137625962Y-61680500D01*
X137874785Y-61641090D01*
X138114379Y-61563241D01*
X138338845Y-61448870D01*
X138542656Y-61300793D01*
X138720793Y-61122656D01*
X138868870Y-60918845D01*
X138983241Y-60694379D01*
X139061090Y-60454785D01*
X139100500Y-60205962D01*
X139100500Y-59954038D01*
X139061090Y-59705215D01*
X138983241Y-59465621D01*
X138983239Y-59465618D01*
X138983239Y-59465616D01*
X138941747Y-59384184D01*
X138868870Y-59241155D01*
X138849952Y-59215117D01*
X138720798Y-59037350D01*
X138720794Y-59037345D01*
X138542654Y-58859205D01*
X138542649Y-58859201D01*
X138338848Y-58711132D01*
X138338847Y-58711131D01*
X138338845Y-58711130D01*
X138268747Y-58675413D01*
X138114383Y-58596760D01*
X137874785Y-58518910D01*
X137625962Y-58479500D01*
X137374038Y-58479500D01*
X137249626Y-58499205D01*
X137125214Y-58518910D01*
X136885616Y-58596760D01*
X136661151Y-58711132D01*
X136457350Y-58859201D01*
X136457345Y-58859205D01*
X136279205Y-59037345D01*
X136279201Y-59037350D01*
X136131132Y-59241151D01*
X136016760Y-59465616D01*
X135938910Y-59705214D01*
X135899500Y-59954038D01*
X124100500Y-59954038D01*
X124061090Y-59705215D01*
X123983241Y-59465621D01*
X123983239Y-59465618D01*
X123983239Y-59465616D01*
X123941747Y-59384184D01*
X123868870Y-59241155D01*
X123849952Y-59215117D01*
X123720798Y-59037350D01*
X123720794Y-59037345D01*
X123542654Y-58859205D01*
X123542649Y-58859201D01*
X123338848Y-58711132D01*
X123338847Y-58711131D01*
X123338845Y-58711130D01*
X123268747Y-58675413D01*
X123114383Y-58596760D01*
X122874785Y-58518910D01*
X122625962Y-58479500D01*
X122374038Y-58479500D01*
X122249626Y-58499205D01*
X122125214Y-58518910D01*
X121885616Y-58596760D01*
X121661151Y-58711132D01*
X121457350Y-58859201D01*
X121457345Y-58859205D01*
X121279205Y-59037345D01*
X121279201Y-59037350D01*
X121131132Y-59241151D01*
X121016760Y-59465616D01*
X120938910Y-59705214D01*
X120899500Y-59954038D01*
X115500500Y-59954038D01*
X115500500Y-53003732D01*
X115500726Y-52996245D01*
X115518270Y-52706204D01*
X115520075Y-52691339D01*
X115571779Y-52409201D01*
X115575363Y-52394663D01*
X115660698Y-52120811D01*
X115666001Y-52106831D01*
X115783726Y-51845257D01*
X115790679Y-51832011D01*
X115830958Y-51765380D01*
X115939074Y-51586533D01*
X115947566Y-51574229D01*
X116124480Y-51348416D01*
X116134395Y-51337225D01*
X116337225Y-51134395D01*
X116348416Y-51124480D01*
X116574229Y-50947566D01*
X116586539Y-50939071D01*
X116832011Y-50790679D01*
X116845257Y-50783726D01*
X117106841Y-50665996D01*
X117120811Y-50660698D01*
X117394667Y-50575361D01*
X117409197Y-50571779D01*
X117691343Y-50520074D01*
X117706200Y-50518270D01*
X117996246Y-50500726D01*
X118003733Y-50500500D01*
X141934108Y-50500500D01*
X141996249Y-50500500D01*
X142003736Y-50500726D01*
G37*
%TD.AperFunction*%
%TD*%
M02*
