%TF.GenerationSoftware,KiCad,Pcbnew,9.0.4*%
%TF.CreationDate,2026-02-02T18:41:13+11:00*%
%TF.ProjectId,VCO,56434f2e-6b69-4636-9164-5f7063625858,rev?*%
%TF.SameCoordinates,Original*%
%TF.FileFunction,Legend,Bot*%
%TF.FilePolarity,Positive*%
%FSLAX46Y46*%
G04 Gerber Fmt 4.6, Leading zero omitted, Abs format (unit mm)*
G04 Created by KiCad (PCBNEW 9.0.4) date 2026-02-02 18:41:13*
%MOMM*%
%LPD*%
G01*
G04 APERTURE LIST*
G04 Aperture macros list*
%AMRoundRect*
0 Rectangle with rounded corners*
0 $1 Rounding radius*
0 $2 $3 $4 $5 $6 $7 $8 $9 X,Y pos of 4 corners*
0 Add a 4 corners polygon primitive as box body*
4,1,4,$2,$3,$4,$5,$6,$7,$8,$9,$2,$3,0*
0 Add four circle primitives for the rounded corners*
1,1,$1+$1,$2,$3*
1,1,$1+$1,$4,$5*
1,1,$1+$1,$6,$7*
1,1,$1+$1,$8,$9*
0 Add four rect primitives between the rounded corners*
20,1,$1+$1,$2,$3,$4,$5,0*
20,1,$1+$1,$4,$5,$6,$7,0*
20,1,$1+$1,$6,$7,$8,$9,0*
20,1,$1+$1,$8,$9,$2,$3,0*%
G04 Aperture macros list end*
%ADD10C,0.500000*%
%ADD11C,0.150000*%
%ADD12C,0.200000*%
%ADD13C,0.010000*%
%ADD14C,4.000000*%
%ADD15O,1.600000X2.400000*%
%ADD16R,1.350000X1.900000*%
%ADD17O,1.350000X1.900000*%
%ADD18C,1.600000*%
%ADD19R,2.000000X2.000000*%
%ADD20C,2.200000*%
%ADD21RoundRect,0.291666X-0.408334X-0.708334X0.408334X-0.708334X0.408334X0.708334X-0.408334X0.708334X0*%
%ADD22O,1.400000X2.000000*%
%ADD23RoundRect,0.250000X-0.950000X-0.550000X0.950000X-0.550000X0.950000X0.550000X-0.950000X0.550000X0*%
%ADD24O,2.400000X1.600000*%
%ADD25RoundRect,0.250000X0.650000X-0.650000X0.650000X0.650000X-0.650000X0.650000X-0.650000X-0.650000X0*%
%ADD26C,1.800000*%
%ADD27R,1.900000X1.350000*%
%ADD28O,1.900000X1.350000*%
G04 APERTURE END LIST*
D10*
X70999998Y-73200000D02*
G75*
G02*
X69500000Y-71700000I2J1500000D01*
G01*
X79000002Y-67199997D02*
G75*
G02*
X80500003Y-68699998I-2J-1500003D01*
G01*
X78999999Y-67199998D02*
X71000000Y-67199999D01*
X69500001Y-68700000D02*
X69500001Y-71699999D01*
X80500001Y-71700000D02*
G75*
G02*
X79000002Y-73200001I-1500002J1D01*
G01*
X80500001Y-68699998D02*
X80500001Y-71699997D01*
X79000001Y-73200000D02*
X70999998Y-73200000D01*
X79071428Y-68761857D02*
X78071428Y-71761857D01*
X78071428Y-71761857D02*
X77071428Y-68761857D01*
X74357142Y-71476142D02*
X74499999Y-71619000D01*
X74499999Y-71619000D02*
X74928571Y-71761857D01*
X74928571Y-71761857D02*
X75214285Y-71761857D01*
X75214285Y-71761857D02*
X75642856Y-71619000D01*
X75642856Y-71619000D02*
X75928571Y-71333285D01*
X75928571Y-71333285D02*
X76071428Y-71047571D01*
X76071428Y-71047571D02*
X76214285Y-70476142D01*
X76214285Y-70476142D02*
X76214285Y-70047571D01*
X76214285Y-70047571D02*
X76071428Y-69476142D01*
X76071428Y-69476142D02*
X75928571Y-69190428D01*
X75928571Y-69190428D02*
X75642856Y-68904714D01*
X75642856Y-68904714D02*
X75214285Y-68761857D01*
X75214285Y-68761857D02*
X74928571Y-68761857D01*
X74928571Y-68761857D02*
X74499999Y-68904714D01*
X74499999Y-68904714D02*
X74357142Y-69047571D01*
X72499999Y-68761857D02*
X71928571Y-68761857D01*
X71928571Y-68761857D02*
X71642856Y-68904714D01*
X71642856Y-68904714D02*
X71357142Y-69190428D01*
X71357142Y-69190428D02*
X71214285Y-69761857D01*
X71214285Y-69761857D02*
X71214285Y-70761857D01*
X71214285Y-70761857D02*
X71357142Y-71333285D01*
X71357142Y-71333285D02*
X71642856Y-71619000D01*
X71642856Y-71619000D02*
X71928571Y-71761857D01*
X71928571Y-71761857D02*
X72499999Y-71761857D01*
X72499999Y-71761857D02*
X72785714Y-71619000D01*
X72785714Y-71619000D02*
X73071428Y-71333285D01*
X73071428Y-71333285D02*
X73214285Y-70761857D01*
X73214285Y-70761857D02*
X73214285Y-69761857D01*
X73214285Y-69761857D02*
X73071428Y-69190428D01*
X73071428Y-69190428D02*
X72785714Y-68904714D01*
X72785714Y-68904714D02*
X72499999Y-68761857D01*
X69500001Y-68700000D02*
G75*
G02*
X71000000Y-67200002I1499998J0D01*
G01*
D11*
X96299998Y-130597342D02*
X95899998Y-131797342D01*
X95899998Y-131797342D02*
X95499998Y-130597342D01*
X94414284Y-131683057D02*
X94471427Y-131740200D01*
X94471427Y-131740200D02*
X94642855Y-131797342D01*
X94642855Y-131797342D02*
X94757141Y-131797342D01*
X94757141Y-131797342D02*
X94928570Y-131740200D01*
X94928570Y-131740200D02*
X95042855Y-131625914D01*
X95042855Y-131625914D02*
X95099998Y-131511628D01*
X95099998Y-131511628D02*
X95157141Y-131283057D01*
X95157141Y-131283057D02*
X95157141Y-131111628D01*
X95157141Y-131111628D02*
X95099998Y-130883057D01*
X95099998Y-130883057D02*
X95042855Y-130768771D01*
X95042855Y-130768771D02*
X94928570Y-130654485D01*
X94928570Y-130654485D02*
X94757141Y-130597342D01*
X94757141Y-130597342D02*
X94642855Y-130597342D01*
X94642855Y-130597342D02*
X94471427Y-130654485D01*
X94471427Y-130654485D02*
X94414284Y-130711628D01*
X93671427Y-130597342D02*
X93442855Y-130597342D01*
X93442855Y-130597342D02*
X93328570Y-130654485D01*
X93328570Y-130654485D02*
X93214284Y-130768771D01*
X93214284Y-130768771D02*
X93157141Y-130997342D01*
X93157141Y-130997342D02*
X93157141Y-131397342D01*
X93157141Y-131397342D02*
X93214284Y-131625914D01*
X93214284Y-131625914D02*
X93328570Y-131740200D01*
X93328570Y-131740200D02*
X93442855Y-131797342D01*
X93442855Y-131797342D02*
X93671427Y-131797342D01*
X93671427Y-131797342D02*
X93785713Y-131740200D01*
X93785713Y-131740200D02*
X93899998Y-131625914D01*
X93899998Y-131625914D02*
X93957141Y-131397342D01*
X93957141Y-131397342D02*
X93957141Y-130997342D01*
X93957141Y-130997342D02*
X93899998Y-130768771D01*
X93899998Y-130768771D02*
X93785713Y-130654485D01*
X93785713Y-130654485D02*
X93671427Y-130597342D01*
X91842855Y-130997342D02*
X91557141Y-131797342D01*
X91557141Y-131797342D02*
X91271426Y-130997342D01*
X90185712Y-131797342D02*
X90871426Y-131797342D01*
X90528569Y-131797342D02*
X90528569Y-130597342D01*
X90528569Y-130597342D02*
X90642855Y-130768771D01*
X90642855Y-130768771D02*
X90757140Y-130883057D01*
X90757140Y-130883057D02*
X90871426Y-130940200D01*
X89671426Y-131340200D02*
X88757141Y-131340200D01*
X87557141Y-131797342D02*
X88242855Y-131797342D01*
X87899998Y-131797342D02*
X87899998Y-130597342D01*
X87899998Y-130597342D02*
X88014284Y-130768771D01*
X88014284Y-130768771D02*
X88128569Y-130883057D01*
X88128569Y-130883057D02*
X88242855Y-130940200D01*
X86128569Y-131340200D02*
X85214284Y-131340200D01*
X83728569Y-131797342D02*
X83728569Y-130597342D01*
X83728569Y-130597342D02*
X83442855Y-130597342D01*
X83442855Y-130597342D02*
X83271426Y-130654485D01*
X83271426Y-130654485D02*
X83157141Y-130768771D01*
X83157141Y-130768771D02*
X83099998Y-130883057D01*
X83099998Y-130883057D02*
X83042855Y-131111628D01*
X83042855Y-131111628D02*
X83042855Y-131283057D01*
X83042855Y-131283057D02*
X83099998Y-131511628D01*
X83099998Y-131511628D02*
X83157141Y-131625914D01*
X83157141Y-131625914D02*
X83271426Y-131740200D01*
X83271426Y-131740200D02*
X83442855Y-131797342D01*
X83442855Y-131797342D02*
X83728569Y-131797342D01*
X82699998Y-130997342D02*
X82242855Y-130997342D01*
X82528569Y-131797342D02*
X82528569Y-130768771D01*
X82528569Y-130768771D02*
X82471426Y-130654485D01*
X82471426Y-130654485D02*
X82357141Y-130597342D01*
X82357141Y-130597342D02*
X82242855Y-130597342D01*
X81328570Y-131797342D02*
X81328570Y-131168771D01*
X81328570Y-131168771D02*
X81385712Y-131054485D01*
X81385712Y-131054485D02*
X81499998Y-130997342D01*
X81499998Y-130997342D02*
X81728570Y-130997342D01*
X81728570Y-130997342D02*
X81842855Y-131054485D01*
X81328570Y-131740200D02*
X81442855Y-131797342D01*
X81442855Y-131797342D02*
X81728570Y-131797342D01*
X81728570Y-131797342D02*
X81842855Y-131740200D01*
X81842855Y-131740200D02*
X81899998Y-131625914D01*
X81899998Y-131625914D02*
X81899998Y-131511628D01*
X81899998Y-131511628D02*
X81842855Y-131397342D01*
X81842855Y-131397342D02*
X81728570Y-131340200D01*
X81728570Y-131340200D02*
X81442855Y-131340200D01*
X81442855Y-131340200D02*
X81328570Y-131283057D01*
X80928570Y-130997342D02*
X80471427Y-130997342D01*
X80757141Y-130597342D02*
X80757141Y-131625914D01*
X80757141Y-131625914D02*
X80699998Y-131740200D01*
X80699998Y-131740200D02*
X80585713Y-131797342D01*
X80585713Y-131797342D02*
X80471427Y-131797342D01*
X80071427Y-130997342D02*
X80071427Y-132197342D01*
X80071427Y-131054485D02*
X79957142Y-130997342D01*
X79957142Y-130997342D02*
X79728570Y-130997342D01*
X79728570Y-130997342D02*
X79614284Y-131054485D01*
X79614284Y-131054485D02*
X79557142Y-131111628D01*
X79557142Y-131111628D02*
X79499999Y-131225914D01*
X79499999Y-131225914D02*
X79499999Y-131568771D01*
X79499999Y-131568771D02*
X79557142Y-131683057D01*
X79557142Y-131683057D02*
X79614284Y-131740200D01*
X79614284Y-131740200D02*
X79728570Y-131797342D01*
X79728570Y-131797342D02*
X79957142Y-131797342D01*
X79957142Y-131797342D02*
X80071427Y-131740200D01*
X78985713Y-130997342D02*
X78985713Y-131797342D01*
X78985713Y-131111628D02*
X78928570Y-131054485D01*
X78928570Y-131054485D02*
X78814285Y-130997342D01*
X78814285Y-130997342D02*
X78642856Y-130997342D01*
X78642856Y-130997342D02*
X78528570Y-131054485D01*
X78528570Y-131054485D02*
X78471428Y-131168771D01*
X78471428Y-131168771D02*
X78471428Y-131797342D01*
X77385714Y-130997342D02*
X77385714Y-131797342D01*
X77899999Y-130997342D02*
X77899999Y-131625914D01*
X77899999Y-131625914D02*
X77842856Y-131740200D01*
X77842856Y-131740200D02*
X77728571Y-131797342D01*
X77728571Y-131797342D02*
X77557142Y-131797342D01*
X77557142Y-131797342D02*
X77442856Y-131740200D01*
X77442856Y-131740200D02*
X77385714Y-131683057D01*
X76814285Y-131797342D02*
X76814285Y-130597342D01*
X76700000Y-131340200D02*
X76357142Y-131797342D01*
X76357142Y-130997342D02*
X76814285Y-131454485D01*
X74071427Y-130540200D02*
X75099999Y-132083057D01*
X72757141Y-131797342D02*
X72757141Y-130597342D01*
X72757141Y-130597342D02*
X72299998Y-130597342D01*
X72299998Y-130597342D02*
X72185713Y-130654485D01*
X72185713Y-130654485D02*
X72128570Y-130711628D01*
X72128570Y-130711628D02*
X72071427Y-130825914D01*
X72071427Y-130825914D02*
X72071427Y-130997342D01*
X72071427Y-130997342D02*
X72128570Y-131111628D01*
X72128570Y-131111628D02*
X72185713Y-131168771D01*
X72185713Y-131168771D02*
X72299998Y-131225914D01*
X72299998Y-131225914D02*
X72757141Y-131225914D01*
X71042856Y-131797342D02*
X71042856Y-131168771D01*
X71042856Y-131168771D02*
X71099998Y-131054485D01*
X71099998Y-131054485D02*
X71214284Y-130997342D01*
X71214284Y-130997342D02*
X71442856Y-130997342D01*
X71442856Y-130997342D02*
X71557141Y-131054485D01*
X71042856Y-131740200D02*
X71157141Y-131797342D01*
X71157141Y-131797342D02*
X71442856Y-131797342D01*
X71442856Y-131797342D02*
X71557141Y-131740200D01*
X71557141Y-131740200D02*
X71614284Y-131625914D01*
X71614284Y-131625914D02*
X71614284Y-131511628D01*
X71614284Y-131511628D02*
X71557141Y-131397342D01*
X71557141Y-131397342D02*
X71442856Y-131340200D01*
X71442856Y-131340200D02*
X71157141Y-131340200D01*
X71157141Y-131340200D02*
X71042856Y-131283057D01*
X70471427Y-130997342D02*
X70471427Y-131797342D01*
X70471427Y-131111628D02*
X70414284Y-131054485D01*
X70414284Y-131054485D02*
X70299999Y-130997342D01*
X70299999Y-130997342D02*
X70128570Y-130997342D01*
X70128570Y-130997342D02*
X70014284Y-131054485D01*
X70014284Y-131054485D02*
X69957142Y-131168771D01*
X69957142Y-131168771D02*
X69957142Y-131797342D01*
X68871428Y-131740200D02*
X68985713Y-131797342D01*
X68985713Y-131797342D02*
X69214285Y-131797342D01*
X69214285Y-131797342D02*
X69328570Y-131740200D01*
X69328570Y-131740200D02*
X69385713Y-131683057D01*
X69385713Y-131683057D02*
X69442856Y-131568771D01*
X69442856Y-131568771D02*
X69442856Y-131225914D01*
X69442856Y-131225914D02*
X69385713Y-131111628D01*
X69385713Y-131111628D02*
X69328570Y-131054485D01*
X69328570Y-131054485D02*
X69214285Y-130997342D01*
X69214285Y-130997342D02*
X68985713Y-130997342D01*
X68985713Y-130997342D02*
X68871428Y-131054485D01*
X67842857Y-131797342D02*
X67842857Y-131168771D01*
X67842857Y-131168771D02*
X67899999Y-131054485D01*
X67899999Y-131054485D02*
X68014285Y-130997342D01*
X68014285Y-130997342D02*
X68242857Y-130997342D01*
X68242857Y-130997342D02*
X68357142Y-131054485D01*
X67842857Y-131740200D02*
X67957142Y-131797342D01*
X67957142Y-131797342D02*
X68242857Y-131797342D01*
X68242857Y-131797342D02*
X68357142Y-131740200D01*
X68357142Y-131740200D02*
X68414285Y-131625914D01*
X68414285Y-131625914D02*
X68414285Y-131511628D01*
X68414285Y-131511628D02*
X68357142Y-131397342D01*
X68357142Y-131397342D02*
X68242857Y-131340200D01*
X68242857Y-131340200D02*
X67957142Y-131340200D01*
X67957142Y-131340200D02*
X67842857Y-131283057D01*
X67271428Y-131797342D02*
X67271428Y-130597342D01*
X67157143Y-131340200D02*
X66814285Y-131797342D01*
X66814285Y-130997342D02*
X67271428Y-131454485D01*
X65842856Y-131740200D02*
X65957142Y-131797342D01*
X65957142Y-131797342D02*
X66185714Y-131797342D01*
X66185714Y-131797342D02*
X66299999Y-131740200D01*
X66299999Y-131740200D02*
X66357142Y-131625914D01*
X66357142Y-131625914D02*
X66357142Y-131168771D01*
X66357142Y-131168771D02*
X66299999Y-131054485D01*
X66299999Y-131054485D02*
X66185714Y-130997342D01*
X66185714Y-130997342D02*
X65957142Y-130997342D01*
X65957142Y-130997342D02*
X65842856Y-131054485D01*
X65842856Y-131054485D02*
X65785714Y-131168771D01*
X65785714Y-131168771D02*
X65785714Y-131283057D01*
X65785714Y-131283057D02*
X66357142Y-131397342D01*
X64700000Y-131797342D02*
X65271428Y-131797342D01*
X65271428Y-131797342D02*
X65271428Y-130597342D01*
X63842856Y-131740200D02*
X63957142Y-131797342D01*
X63957142Y-131797342D02*
X64185714Y-131797342D01*
X64185714Y-131797342D02*
X64299999Y-131740200D01*
X64299999Y-131740200D02*
X64357142Y-131625914D01*
X64357142Y-131625914D02*
X64357142Y-131168771D01*
X64357142Y-131168771D02*
X64299999Y-131054485D01*
X64299999Y-131054485D02*
X64185714Y-130997342D01*
X64185714Y-130997342D02*
X63957142Y-130997342D01*
X63957142Y-130997342D02*
X63842856Y-131054485D01*
X63842856Y-131054485D02*
X63785714Y-131168771D01*
X63785714Y-131168771D02*
X63785714Y-131283057D01*
X63785714Y-131283057D02*
X64357142Y-131397342D01*
X62757143Y-130997342D02*
X62757143Y-131968771D01*
X62757143Y-131968771D02*
X62814285Y-132083057D01*
X62814285Y-132083057D02*
X62871428Y-132140200D01*
X62871428Y-132140200D02*
X62985714Y-132197342D01*
X62985714Y-132197342D02*
X63157143Y-132197342D01*
X63157143Y-132197342D02*
X63271428Y-132140200D01*
X62757143Y-131740200D02*
X62871428Y-131797342D01*
X62871428Y-131797342D02*
X63100000Y-131797342D01*
X63100000Y-131797342D02*
X63214285Y-131740200D01*
X63214285Y-131740200D02*
X63271428Y-131683057D01*
X63271428Y-131683057D02*
X63328571Y-131568771D01*
X63328571Y-131568771D02*
X63328571Y-131225914D01*
X63328571Y-131225914D02*
X63271428Y-131111628D01*
X63271428Y-131111628D02*
X63214285Y-131054485D01*
X63214285Y-131054485D02*
X63100000Y-130997342D01*
X63100000Y-130997342D02*
X62871428Y-130997342D01*
X62871428Y-130997342D02*
X62757143Y-131054485D01*
X61728571Y-131740200D02*
X61842857Y-131797342D01*
X61842857Y-131797342D02*
X62071429Y-131797342D01*
X62071429Y-131797342D02*
X62185714Y-131740200D01*
X62185714Y-131740200D02*
X62242857Y-131625914D01*
X62242857Y-131625914D02*
X62242857Y-131168771D01*
X62242857Y-131168771D02*
X62185714Y-131054485D01*
X62185714Y-131054485D02*
X62071429Y-130997342D01*
X62071429Y-130997342D02*
X61842857Y-130997342D01*
X61842857Y-130997342D02*
X61728571Y-131054485D01*
X61728571Y-131054485D02*
X61671429Y-131168771D01*
X61671429Y-131168771D02*
X61671429Y-131283057D01*
X61671429Y-131283057D02*
X62242857Y-131397342D01*
X61157143Y-130997342D02*
X61157143Y-131797342D01*
X61157143Y-131111628D02*
X61100000Y-131054485D01*
X61100000Y-131054485D02*
X60985715Y-130997342D01*
X60985715Y-130997342D02*
X60814286Y-130997342D01*
X60814286Y-130997342D02*
X60700000Y-131054485D01*
X60700000Y-131054485D02*
X60642858Y-131168771D01*
X60642858Y-131168771D02*
X60642858Y-131797342D01*
X59557144Y-131797342D02*
X59557144Y-130597342D01*
X59557144Y-131740200D02*
X59671429Y-131797342D01*
X59671429Y-131797342D02*
X59900001Y-131797342D01*
X59900001Y-131797342D02*
X60014286Y-131740200D01*
X60014286Y-131740200D02*
X60071429Y-131683057D01*
X60071429Y-131683057D02*
X60128572Y-131568771D01*
X60128572Y-131568771D02*
X60128572Y-131225914D01*
X60128572Y-131225914D02*
X60071429Y-131111628D01*
X60071429Y-131111628D02*
X60014286Y-131054485D01*
X60014286Y-131054485D02*
X59900001Y-130997342D01*
X59900001Y-130997342D02*
X59671429Y-130997342D01*
X59671429Y-130997342D02*
X59557144Y-131054485D01*
X58128572Y-130711628D02*
X58071429Y-130654485D01*
X58071429Y-130654485D02*
X57957144Y-130597342D01*
X57957144Y-130597342D02*
X57671429Y-130597342D01*
X57671429Y-130597342D02*
X57557144Y-130654485D01*
X57557144Y-130654485D02*
X57500001Y-130711628D01*
X57500001Y-130711628D02*
X57442858Y-130825914D01*
X57442858Y-130825914D02*
X57442858Y-130940200D01*
X57442858Y-130940200D02*
X57500001Y-131111628D01*
X57500001Y-131111628D02*
X58185715Y-131797342D01*
X58185715Y-131797342D02*
X57442858Y-131797342D01*
X56700001Y-130597342D02*
X56585715Y-130597342D01*
X56585715Y-130597342D02*
X56471429Y-130654485D01*
X56471429Y-130654485D02*
X56414287Y-130711628D01*
X56414287Y-130711628D02*
X56357144Y-130825914D01*
X56357144Y-130825914D02*
X56300001Y-131054485D01*
X56300001Y-131054485D02*
X56300001Y-131340200D01*
X56300001Y-131340200D02*
X56357144Y-131568771D01*
X56357144Y-131568771D02*
X56414287Y-131683057D01*
X56414287Y-131683057D02*
X56471429Y-131740200D01*
X56471429Y-131740200D02*
X56585715Y-131797342D01*
X56585715Y-131797342D02*
X56700001Y-131797342D01*
X56700001Y-131797342D02*
X56814287Y-131740200D01*
X56814287Y-131740200D02*
X56871429Y-131683057D01*
X56871429Y-131683057D02*
X56928572Y-131568771D01*
X56928572Y-131568771D02*
X56985715Y-131340200D01*
X56985715Y-131340200D02*
X56985715Y-131054485D01*
X56985715Y-131054485D02*
X56928572Y-130825914D01*
X56928572Y-130825914D02*
X56871429Y-130711628D01*
X56871429Y-130711628D02*
X56814287Y-130654485D01*
X56814287Y-130654485D02*
X56700001Y-130597342D01*
X55842858Y-130711628D02*
X55785715Y-130654485D01*
X55785715Y-130654485D02*
X55671430Y-130597342D01*
X55671430Y-130597342D02*
X55385715Y-130597342D01*
X55385715Y-130597342D02*
X55271430Y-130654485D01*
X55271430Y-130654485D02*
X55214287Y-130711628D01*
X55214287Y-130711628D02*
X55157144Y-130825914D01*
X55157144Y-130825914D02*
X55157144Y-130940200D01*
X55157144Y-130940200D02*
X55214287Y-131111628D01*
X55214287Y-131111628D02*
X55900001Y-131797342D01*
X55900001Y-131797342D02*
X55157144Y-131797342D01*
X54128573Y-130597342D02*
X54357144Y-130597342D01*
X54357144Y-130597342D02*
X54471430Y-130654485D01*
X54471430Y-130654485D02*
X54528573Y-130711628D01*
X54528573Y-130711628D02*
X54642858Y-130883057D01*
X54642858Y-130883057D02*
X54700001Y-131111628D01*
X54700001Y-131111628D02*
X54700001Y-131568771D01*
X54700001Y-131568771D02*
X54642858Y-131683057D01*
X54642858Y-131683057D02*
X54585715Y-131740200D01*
X54585715Y-131740200D02*
X54471430Y-131797342D01*
X54471430Y-131797342D02*
X54242858Y-131797342D01*
X54242858Y-131797342D02*
X54128573Y-131740200D01*
X54128573Y-131740200D02*
X54071430Y-131683057D01*
X54071430Y-131683057D02*
X54014287Y-131568771D01*
X54014287Y-131568771D02*
X54014287Y-131283057D01*
X54014287Y-131283057D02*
X54071430Y-131168771D01*
X54071430Y-131168771D02*
X54128573Y-131111628D01*
X54128573Y-131111628D02*
X54242858Y-131054485D01*
X54242858Y-131054485D02*
X54471430Y-131054485D01*
X54471430Y-131054485D02*
X54585715Y-131111628D01*
X54585715Y-131111628D02*
X54642858Y-131168771D01*
X54642858Y-131168771D02*
X54700001Y-131283057D01*
D12*
X68167602Y-139049197D02*
X68107126Y-138928244D01*
X68107126Y-138928244D02*
X68107126Y-138746816D01*
X68107126Y-138746816D02*
X68167602Y-138565387D01*
X68167602Y-138565387D02*
X68288554Y-138444435D01*
X68288554Y-138444435D02*
X68409507Y-138383958D01*
X68409507Y-138383958D02*
X68651411Y-138323482D01*
X68651411Y-138323482D02*
X68832840Y-138323482D01*
X68832840Y-138323482D02*
X69074745Y-138383958D01*
X69074745Y-138383958D02*
X69195697Y-138444435D01*
X69195697Y-138444435D02*
X69316650Y-138565387D01*
X69316650Y-138565387D02*
X69377126Y-138746816D01*
X69377126Y-138746816D02*
X69377126Y-138867768D01*
X69377126Y-138867768D02*
X69316650Y-139049197D01*
X69316650Y-139049197D02*
X69256173Y-139109673D01*
X69256173Y-139109673D02*
X68832840Y-139109673D01*
X68832840Y-139109673D02*
X68832840Y-138867768D01*
X69377126Y-139653958D02*
X68107126Y-139653958D01*
X68107126Y-139653958D02*
X69377126Y-140379673D01*
X69377126Y-140379673D02*
X68107126Y-140379673D01*
X69377126Y-140984434D02*
X68107126Y-140984434D01*
X68107126Y-140984434D02*
X68107126Y-141286815D01*
X68107126Y-141286815D02*
X68167602Y-141468244D01*
X68167602Y-141468244D02*
X68288554Y-141589196D01*
X68288554Y-141589196D02*
X68409507Y-141649673D01*
X68409507Y-141649673D02*
X68651411Y-141710149D01*
X68651411Y-141710149D02*
X68832840Y-141710149D01*
X68832840Y-141710149D02*
X69074745Y-141649673D01*
X69074745Y-141649673D02*
X69195697Y-141589196D01*
X69195697Y-141589196D02*
X69316650Y-141468244D01*
X69316650Y-141468244D02*
X69377126Y-141286815D01*
X69377126Y-141286815D02*
X69377126Y-140984434D01*
X70893316Y-139483958D02*
X70893316Y-140451578D01*
X71377126Y-139967768D02*
X70409507Y-139967768D01*
X70107126Y-140874911D02*
X71377126Y-141298244D01*
X71377126Y-141298244D02*
X70107126Y-141721578D01*
X72818316Y-139458958D02*
X72818316Y-140426578D01*
X72032126Y-140849911D02*
X73302126Y-141273244D01*
X73302126Y-141273244D02*
X72032126Y-141696578D01*
X81243316Y-139433958D02*
X81243316Y-140401578D01*
X80457126Y-140824911D02*
X81727126Y-141248244D01*
X81727126Y-141248244D02*
X80457126Y-141671578D01*
X76592602Y-139024197D02*
X76532126Y-138903244D01*
X76532126Y-138903244D02*
X76532126Y-138721816D01*
X76532126Y-138721816D02*
X76592602Y-138540387D01*
X76592602Y-138540387D02*
X76713554Y-138419435D01*
X76713554Y-138419435D02*
X76834507Y-138358958D01*
X76834507Y-138358958D02*
X77076411Y-138298482D01*
X77076411Y-138298482D02*
X77257840Y-138298482D01*
X77257840Y-138298482D02*
X77499745Y-138358958D01*
X77499745Y-138358958D02*
X77620697Y-138419435D01*
X77620697Y-138419435D02*
X77741650Y-138540387D01*
X77741650Y-138540387D02*
X77802126Y-138721816D01*
X77802126Y-138721816D02*
X77802126Y-138842768D01*
X77802126Y-138842768D02*
X77741650Y-139024197D01*
X77741650Y-139024197D02*
X77681173Y-139084673D01*
X77681173Y-139084673D02*
X77257840Y-139084673D01*
X77257840Y-139084673D02*
X77257840Y-138842768D01*
X77802126Y-139628958D02*
X76532126Y-139628958D01*
X76532126Y-139628958D02*
X77802126Y-140354673D01*
X77802126Y-140354673D02*
X76532126Y-140354673D01*
X77802126Y-140959434D02*
X76532126Y-140959434D01*
X76532126Y-140959434D02*
X76532126Y-141261815D01*
X76532126Y-141261815D02*
X76592602Y-141443244D01*
X76592602Y-141443244D02*
X76713554Y-141564196D01*
X76713554Y-141564196D02*
X76834507Y-141624673D01*
X76834507Y-141624673D02*
X77076411Y-141685149D01*
X77076411Y-141685149D02*
X77257840Y-141685149D01*
X77257840Y-141685149D02*
X77499745Y-141624673D01*
X77499745Y-141624673D02*
X77620697Y-141564196D01*
X77620697Y-141564196D02*
X77741650Y-141443244D01*
X77741650Y-141443244D02*
X77802126Y-141261815D01*
X77802126Y-141261815D02*
X77802126Y-140959434D01*
X79343316Y-139483958D02*
X79343316Y-140451578D01*
X79827126Y-139967768D02*
X78859507Y-139967768D01*
X78557126Y-140874911D02*
X79827126Y-141298244D01*
X79827126Y-141298244D02*
X78557126Y-141721578D01*
D13*
%TO.C,Ref\u002A\u002A*%
X89086870Y-68081954D02*
X89101500Y-68115623D01*
X89095914Y-68135945D01*
X89057551Y-68176409D01*
X88989674Y-68214775D01*
X88900417Y-68245779D01*
X88831926Y-68256333D01*
X88739415Y-68255459D01*
X88642977Y-68242445D01*
X88551865Y-68219687D01*
X88475330Y-68189582D01*
X88422625Y-68154527D01*
X88403000Y-68116919D01*
X88403957Y-68105227D01*
X88425483Y-68078052D01*
X88476487Y-68078208D01*
X88558485Y-68105583D01*
X88590633Y-68116180D01*
X88669449Y-68131367D01*
X88752250Y-68137333D01*
X88795937Y-68135504D01*
X88879672Y-68124055D01*
X88946015Y-68105583D01*
X88966722Y-68097264D01*
X89042290Y-68075857D01*
X89086870Y-68081954D01*
G36*
X89086870Y-68081954D02*
G01*
X89101500Y-68115623D01*
X89095914Y-68135945D01*
X89057551Y-68176409D01*
X88989674Y-68214775D01*
X88900417Y-68245779D01*
X88831926Y-68256333D01*
X88739415Y-68255459D01*
X88642977Y-68242445D01*
X88551865Y-68219687D01*
X88475330Y-68189582D01*
X88422625Y-68154527D01*
X88403000Y-68116919D01*
X88403957Y-68105227D01*
X88425483Y-68078052D01*
X88476487Y-68078208D01*
X88558485Y-68105583D01*
X88590633Y-68116180D01*
X88669449Y-68131367D01*
X88752250Y-68137333D01*
X88795937Y-68135504D01*
X88879672Y-68124055D01*
X88946015Y-68105583D01*
X88966722Y-68097264D01*
X89042290Y-68075857D01*
X89086870Y-68081954D01*
G37*
X89675246Y-69835344D02*
X89952658Y-69841250D01*
X90117613Y-70254000D01*
X90282567Y-70666750D01*
X90086575Y-70677333D01*
X89890583Y-70687917D01*
X90048422Y-71016000D01*
X90085523Y-71093336D01*
X90139288Y-71206162D01*
X90186972Y-71307085D01*
X90224454Y-71387373D01*
X90247615Y-71438289D01*
X90268198Y-71485748D01*
X90278356Y-71514531D01*
X90271378Y-71515500D01*
X90247223Y-71494714D01*
X90243609Y-71491263D01*
X90212765Y-71458472D01*
X90160719Y-71400612D01*
X90091565Y-71322426D01*
X90009393Y-71228656D01*
X89918298Y-71124044D01*
X89822369Y-71013331D01*
X89725701Y-70901259D01*
X89632385Y-70792570D01*
X89546513Y-70692006D01*
X89472177Y-70604308D01*
X89413470Y-70534220D01*
X89374483Y-70486482D01*
X89359310Y-70465836D01*
X89361281Y-70462005D01*
X89391960Y-70452714D01*
X89452033Y-70444938D01*
X89532259Y-70440054D01*
X89711981Y-70433917D01*
X89554907Y-70153477D01*
X89526866Y-70103063D01*
X89475852Y-70009349D01*
X89434925Y-69931490D01*
X89407710Y-69876462D01*
X89397833Y-69851238D01*
X89408729Y-69843976D01*
X89458924Y-69837186D01*
X89548334Y-69834276D01*
X89675246Y-69835344D01*
G36*
X89675246Y-69835344D02*
G01*
X89952658Y-69841250D01*
X90117613Y-70254000D01*
X90282567Y-70666750D01*
X90086575Y-70677333D01*
X89890583Y-70687917D01*
X90048422Y-71016000D01*
X90085523Y-71093336D01*
X90139288Y-71206162D01*
X90186972Y-71307085D01*
X90224454Y-71387373D01*
X90247615Y-71438289D01*
X90268198Y-71485748D01*
X90278356Y-71514531D01*
X90271378Y-71515500D01*
X90247223Y-71494714D01*
X90243609Y-71491263D01*
X90212765Y-71458472D01*
X90160719Y-71400612D01*
X90091565Y-71322426D01*
X90009393Y-71228656D01*
X89918298Y-71124044D01*
X89822369Y-71013331D01*
X89725701Y-70901259D01*
X89632385Y-70792570D01*
X89546513Y-70692006D01*
X89472177Y-70604308D01*
X89413470Y-70534220D01*
X89374483Y-70486482D01*
X89359310Y-70465836D01*
X89361281Y-70462005D01*
X89391960Y-70452714D01*
X89452033Y-70444938D01*
X89532259Y-70440054D01*
X89711981Y-70433917D01*
X89554907Y-70153477D01*
X89526866Y-70103063D01*
X89475852Y-70009349D01*
X89434925Y-69931490D01*
X89407710Y-69876462D01*
X89397833Y-69851238D01*
X89408729Y-69843976D01*
X89458924Y-69837186D01*
X89548334Y-69834276D01*
X89675246Y-69835344D01*
G37*
X94784737Y-66641985D02*
X94783501Y-66742784D01*
X94778763Y-66815197D01*
X94768421Y-66871359D01*
X94750376Y-66923408D01*
X94722528Y-66983480D01*
X94688865Y-67043091D01*
X94625170Y-67134561D01*
X94558694Y-67211822D01*
X94538973Y-67230408D01*
X94465209Y-67288475D01*
X94378686Y-67344704D01*
X94290693Y-67392740D01*
X94212517Y-67426228D01*
X94155445Y-67438816D01*
X94137573Y-67441987D01*
X94120973Y-67458540D01*
X94118685Y-67465262D01*
X94108297Y-67495786D01*
X94097291Y-67560906D01*
X94085701Y-67661083D01*
X94065591Y-67824233D01*
X94018115Y-68114609D01*
X93954613Y-68425321D01*
X93910275Y-68609618D01*
X93877509Y-68745816D01*
X93824256Y-68938678D01*
X93789227Y-69065543D01*
X93692191Y-69373950D01*
X93691660Y-69375530D01*
X93652145Y-69496409D01*
X93618767Y-69604847D01*
X93593479Y-69693963D01*
X93578236Y-69756874D01*
X93574992Y-69786700D01*
X93578206Y-69796656D01*
X93594180Y-69844138D01*
X93618661Y-69915674D01*
X93647805Y-70000000D01*
X93693065Y-70141226D01*
X93737519Y-70319979D01*
X93766870Y-70503041D01*
X93782967Y-70702722D01*
X93787224Y-70910167D01*
X93787658Y-70931333D01*
X93783058Y-71152896D01*
X93769159Y-71345101D01*
X93745861Y-71497957D01*
X93713052Y-71612473D01*
X93692505Y-71647213D01*
X93649865Y-71683502D01*
X93581986Y-71717338D01*
X93483294Y-71751410D01*
X93348215Y-71788404D01*
X93266014Y-71808384D01*
X93252854Y-71810931D01*
X93034367Y-71853218D01*
X92810788Y-71876981D01*
X92575313Y-71882093D01*
X92334377Y-71878785D01*
X92156374Y-72093832D01*
X91933399Y-72349601D01*
X91663951Y-72630949D01*
X91377840Y-72904540D01*
X91086032Y-73159928D01*
X90799492Y-73386667D01*
X90751333Y-73422752D01*
X90677832Y-73479626D01*
X90631153Y-73520158D01*
X90606164Y-73549810D01*
X90597734Y-73574047D01*
X90600734Y-73598333D01*
X90604331Y-73618816D01*
X90609676Y-73681092D01*
X90613261Y-73766526D01*
X90614298Y-73850199D01*
X90614455Y-73862917D01*
X90613816Y-73933436D01*
X90609897Y-74016123D01*
X90600277Y-74078685D01*
X90582531Y-74134587D01*
X90554234Y-74197296D01*
X90525158Y-74251155D01*
X90419431Y-74391996D01*
X90285608Y-74510928D01*
X90132363Y-74601160D01*
X89968375Y-74655900D01*
X89805036Y-74672143D01*
X89631279Y-74652192D01*
X89465723Y-74596816D01*
X89314362Y-74509531D01*
X89183190Y-74393852D01*
X89078204Y-74253291D01*
X89005399Y-74091365D01*
X88991309Y-74024767D01*
X88981855Y-73930995D01*
X88979285Y-73860191D01*
X89336316Y-73860191D01*
X89354529Y-73974941D01*
X89402516Y-74083367D01*
X89481713Y-74179366D01*
X89593557Y-74256834D01*
X89720664Y-74301606D01*
X89852194Y-74306950D01*
X89979398Y-74271486D01*
X90097338Y-74195812D01*
X90107941Y-74186493D01*
X90195050Y-74083460D01*
X90246547Y-73969292D01*
X90264695Y-73850199D01*
X90251758Y-73732390D01*
X90209998Y-73622076D01*
X90141679Y-73525467D01*
X90049065Y-73448771D01*
X89934417Y-73398200D01*
X89800000Y-73379963D01*
X89771804Y-73380694D01*
X89641554Y-73405210D01*
X89532456Y-73460025D01*
X89445946Y-73539034D01*
X89383461Y-73636134D01*
X89346439Y-73745221D01*
X89336316Y-73860191D01*
X88979285Y-73860191D01*
X88978047Y-73826091D01*
X88979987Y-73723313D01*
X88987775Y-73635919D01*
X89001510Y-73577167D01*
X89001766Y-73576499D01*
X88994672Y-73552518D01*
X88959559Y-73513523D01*
X88893810Y-73457024D01*
X88794808Y-73380531D01*
X88724496Y-73327077D01*
X88387411Y-73050752D01*
X88054035Y-72745631D01*
X87735187Y-72422032D01*
X87441685Y-72090271D01*
X87265433Y-71878935D01*
X87014008Y-71881775D01*
X86931219Y-71881427D01*
X86756941Y-71873095D01*
X86583685Y-71855590D01*
X86417353Y-71830229D01*
X86337599Y-71813658D01*
X87706766Y-71813658D01*
X87708042Y-71818505D01*
X87728760Y-71848372D01*
X87769069Y-71898863D01*
X87823183Y-71962577D01*
X87998706Y-72157752D01*
X88317604Y-72483695D01*
X88648065Y-72787645D01*
X88979867Y-73059903D01*
X89211908Y-73238434D01*
X89292605Y-73174521D01*
X89362450Y-73124080D01*
X89480160Y-73063076D01*
X89611077Y-73026789D01*
X89768250Y-73010727D01*
X89837976Y-73008658D01*
X89929677Y-73011323D01*
X90005792Y-73023190D01*
X90082717Y-73046106D01*
X90133506Y-73066373D01*
X90227422Y-73112759D01*
X90307663Y-73162153D01*
X90408642Y-73234700D01*
X90638779Y-73056008D01*
X90883667Y-72856869D01*
X91161098Y-72611496D01*
X91428751Y-72354812D01*
X91671904Y-72100435D01*
X91934993Y-71810931D01*
X91763833Y-71755317D01*
X91702200Y-71734266D01*
X91622804Y-71699919D01*
X91571002Y-71662025D01*
X91537946Y-71613140D01*
X91514786Y-71545821D01*
X91507606Y-71516228D01*
X91488192Y-71406586D01*
X91471965Y-71272592D01*
X91460102Y-71127613D01*
X91453781Y-70985016D01*
X91454160Y-70864467D01*
X91632189Y-70864467D01*
X91634700Y-71072968D01*
X91651031Y-71277805D01*
X91680232Y-71460500D01*
X91683159Y-71472830D01*
X91696709Y-71506244D01*
X91721459Y-71533214D01*
X91763498Y-71556547D01*
X91828917Y-71579046D01*
X91923804Y-71603517D01*
X92054250Y-71632765D01*
X92149139Y-71650072D01*
X92320587Y-71670341D01*
X92508112Y-71682057D01*
X92697428Y-71684794D01*
X92874246Y-71678127D01*
X93024279Y-71661632D01*
X93130666Y-71642454D01*
X93250730Y-71617026D01*
X93360591Y-71590102D01*
X93449696Y-71564289D01*
X93507494Y-71542196D01*
X93527398Y-71520795D01*
X93551327Y-71458210D01*
X93570830Y-71361301D01*
X93585267Y-71234622D01*
X93593998Y-71082726D01*
X93596382Y-70910167D01*
X93595611Y-70848789D01*
X93583982Y-70629093D01*
X93556545Y-70426351D01*
X93510575Y-70228113D01*
X93443342Y-70021934D01*
X93352121Y-69795363D01*
X93268249Y-69601310D01*
X93149270Y-69684656D01*
X92985436Y-69775516D01*
X92804758Y-69831538D01*
X92617210Y-69850508D01*
X92429623Y-69832422D01*
X92248830Y-69777278D01*
X92081661Y-69685074D01*
X91963279Y-69602147D01*
X91898929Y-69742865D01*
X91869531Y-69808479D01*
X91781127Y-70030337D01*
X91716517Y-70242437D01*
X91671342Y-70461003D01*
X91641245Y-70702261D01*
X91632189Y-70864467D01*
X91454160Y-70864467D01*
X91454180Y-70858166D01*
X91454805Y-70840745D01*
X91457316Y-70752881D01*
X91456351Y-70698778D01*
X91450574Y-70671068D01*
X91438652Y-70662384D01*
X91419250Y-70665360D01*
X91380599Y-70672497D01*
X91320050Y-70677044D01*
X91263183Y-70677333D01*
X91256550Y-71201208D01*
X91254348Y-71359788D01*
X91251837Y-71488274D01*
X91248610Y-71585757D01*
X91244170Y-71658006D01*
X91238026Y-71710788D01*
X91229682Y-71749873D01*
X91218644Y-71781030D01*
X91204420Y-71810027D01*
X91184552Y-71844505D01*
X91084010Y-71967593D01*
X90953861Y-72060586D01*
X90940724Y-72067436D01*
X90919593Y-72076857D01*
X90894737Y-72084658D01*
X90862293Y-72091022D01*
X90818403Y-72096132D01*
X90759204Y-72100171D01*
X90680837Y-72103322D01*
X90579441Y-72105768D01*
X90451154Y-72107692D01*
X90292117Y-72109278D01*
X90098468Y-72110708D01*
X89866347Y-72112166D01*
X89774195Y-72112714D01*
X89538739Y-72113864D01*
X89340467Y-72114120D01*
X89175566Y-72113113D01*
X89040225Y-72110477D01*
X88930633Y-72105843D01*
X88842978Y-72098844D01*
X88773450Y-72089112D01*
X88718237Y-72076280D01*
X88673528Y-72059981D01*
X88635512Y-72039847D01*
X88600376Y-72015509D01*
X88564311Y-71986602D01*
X88536155Y-71959963D01*
X88477721Y-71887889D01*
X88432226Y-71811250D01*
X88430809Y-71808200D01*
X88415311Y-71772841D01*
X88403511Y-71738209D01*
X88394903Y-71698153D01*
X88388982Y-71646521D01*
X88385241Y-71577162D01*
X88383175Y-71483925D01*
X88382277Y-71360657D01*
X88382040Y-71201208D01*
X88381718Y-71106641D01*
X88380242Y-70975137D01*
X88377742Y-70862650D01*
X88374404Y-70775008D01*
X88370414Y-70718041D01*
X88365958Y-70697578D01*
X88359631Y-70696865D01*
X88319991Y-70690361D01*
X88261624Y-70679528D01*
X88173165Y-70662399D01*
X88172508Y-70950324D01*
X88170415Y-71065251D01*
X88170241Y-71074845D01*
X88160353Y-71243356D01*
X88143458Y-71392479D01*
X88120455Y-71516512D01*
X88092240Y-71609753D01*
X88059713Y-71666501D01*
X88058836Y-71667415D01*
X88015150Y-71697814D01*
X87945624Y-71731446D01*
X87864896Y-71761197D01*
X87853780Y-71764677D01*
X87782153Y-71787536D01*
X87729580Y-71805047D01*
X87706766Y-71813658D01*
X86337599Y-71813658D01*
X86263847Y-71798334D01*
X86129067Y-71761224D01*
X86018916Y-71720219D01*
X85939295Y-71676638D01*
X85896105Y-71631800D01*
X85871321Y-71566725D01*
X85845797Y-71450952D01*
X85827018Y-71301597D01*
X85815535Y-71123312D01*
X85811899Y-70920750D01*
X85812009Y-70901091D01*
X85993801Y-70901091D01*
X85994408Y-70999156D01*
X86002084Y-71105937D01*
X86017155Y-71237887D01*
X86017291Y-71238968D01*
X86035002Y-71366089D01*
X86051625Y-71455309D01*
X86068154Y-71510977D01*
X86085584Y-71537444D01*
X86091096Y-71540913D01*
X86138781Y-71560241D01*
X86216497Y-71583704D01*
X86314640Y-71608953D01*
X86423605Y-71633639D01*
X86533787Y-71655414D01*
X86635583Y-71671929D01*
X86779215Y-71686038D01*
X87009959Y-71690164D01*
X87252326Y-71675722D01*
X87491195Y-71643789D01*
X87711446Y-71595437D01*
X87753882Y-71583800D01*
X87829865Y-71560376D01*
X87877223Y-71536074D01*
X87904510Y-71502247D01*
X87920283Y-71450247D01*
X87933099Y-71371427D01*
X87964695Y-71065251D01*
X87963788Y-70752813D01*
X87926084Y-70448386D01*
X87850617Y-70144401D01*
X87736417Y-69833289D01*
X87638366Y-69600995D01*
X87519162Y-69684498D01*
X87503212Y-69695381D01*
X87344281Y-69779039D01*
X87169470Y-69832819D01*
X86994126Y-69851833D01*
X86859711Y-69851833D01*
X86891206Y-69941098D01*
X86899856Y-69964002D01*
X86935906Y-70045075D01*
X86976300Y-70121823D01*
X86979905Y-70128062D01*
X87016692Y-70214530D01*
X87016886Y-70280353D01*
X86980480Y-70325221D01*
X86975576Y-70327912D01*
X86921511Y-70333181D01*
X86845398Y-70312702D01*
X86753770Y-70270663D01*
X86653157Y-70211249D01*
X86550091Y-70138647D01*
X86451104Y-70057045D01*
X86362727Y-69970628D01*
X86291491Y-69883583D01*
X86246808Y-69820083D01*
X86190156Y-69947083D01*
X86178576Y-69974002D01*
X86122856Y-70131548D01*
X86073720Y-70316495D01*
X86034103Y-70516476D01*
X86006940Y-70719124D01*
X85999941Y-70795288D01*
X85993801Y-70901091D01*
X85812009Y-70901091D01*
X85812160Y-70874270D01*
X85818099Y-70677901D01*
X85833556Y-70505226D01*
X85860891Y-70341320D01*
X85902464Y-70171261D01*
X85960635Y-69980125D01*
X86035394Y-69750425D01*
X85917760Y-69404254D01*
X85828616Y-69125034D01*
X85819318Y-69092115D01*
X86146386Y-69092115D01*
X86160421Y-69254212D01*
X86194599Y-69419750D01*
X86245865Y-69570433D01*
X86250301Y-69580545D01*
X86314541Y-69699212D01*
X86399862Y-69822633D01*
X86494916Y-69935791D01*
X86588353Y-70023667D01*
X86645256Y-70065416D01*
X86713682Y-70110334D01*
X86782139Y-70151278D01*
X86841875Y-70183281D01*
X86884135Y-70201376D01*
X86900167Y-70200596D01*
X86899080Y-70195727D01*
X86885140Y-70161817D01*
X86860275Y-70110282D01*
X86853880Y-70097028D01*
X86825999Y-70031010D01*
X86793097Y-69944217D01*
X86761005Y-69851833D01*
X86754635Y-69832432D01*
X86737609Y-69777877D01*
X86724528Y-69727592D01*
X86714757Y-69674920D01*
X86707659Y-69613203D01*
X86702599Y-69535785D01*
X86698941Y-69436008D01*
X86696049Y-69307216D01*
X86693287Y-69142750D01*
X86691885Y-69053810D01*
X86772877Y-69053810D01*
X86773428Y-69180839D01*
X86776006Y-69305436D01*
X86780633Y-69419991D01*
X86787326Y-69516888D01*
X86796107Y-69588517D01*
X86796537Y-69590980D01*
X86810606Y-69662405D01*
X86825496Y-69702815D01*
X86847627Y-69722844D01*
X86883420Y-69733125D01*
X86978749Y-69742326D01*
X87120800Y-69729655D01*
X87265962Y-69691081D01*
X87399544Y-69629553D01*
X87519344Y-69541886D01*
X87544126Y-69514535D01*
X87819018Y-69514535D01*
X87888441Y-69656726D01*
X87909680Y-69702073D01*
X87970121Y-69848593D01*
X88028095Y-70011674D01*
X88077544Y-70173476D01*
X88112409Y-70316160D01*
X88124239Y-70370631D01*
X88141199Y-70424099D01*
X88161987Y-70452535D01*
X88192016Y-70466139D01*
X88246577Y-70479243D01*
X88313042Y-70493409D01*
X88381833Y-70506942D01*
X88381833Y-70083457D01*
X88381994Y-69996758D01*
X88383699Y-69855154D01*
X88388261Y-69745582D01*
X88392933Y-69699926D01*
X88731083Y-69699926D01*
X88731083Y-71675907D01*
X88781053Y-71716370D01*
X88782692Y-71717681D01*
X88796464Y-71726990D01*
X88814582Y-71734697D01*
X88840844Y-71740952D01*
X88879050Y-71745906D01*
X88932998Y-71749710D01*
X89006487Y-71752515D01*
X89103315Y-71754472D01*
X89227282Y-71755731D01*
X89382186Y-71756444D01*
X89571826Y-71756761D01*
X89800000Y-71756833D01*
X89831404Y-71756832D01*
X90054448Y-71756737D01*
X90239442Y-71756378D01*
X90390186Y-71755604D01*
X90510477Y-71754264D01*
X90604115Y-71752208D01*
X90674898Y-71749283D01*
X90726625Y-71745341D01*
X90763094Y-71740229D01*
X90788105Y-71733797D01*
X90805457Y-71725895D01*
X90818947Y-71716370D01*
X90868917Y-71675907D01*
X90868917Y-69699926D01*
X90818947Y-69659463D01*
X90817308Y-69658152D01*
X90803536Y-69648843D01*
X90785419Y-69641136D01*
X90759156Y-69634881D01*
X90720951Y-69629927D01*
X90667003Y-69626123D01*
X90593514Y-69623318D01*
X90496685Y-69621361D01*
X90372718Y-69620102D01*
X90217814Y-69619389D01*
X90028174Y-69619072D01*
X89800000Y-69619000D01*
X89768596Y-69619001D01*
X89545552Y-69619096D01*
X89360558Y-69619455D01*
X89209815Y-69620229D01*
X89089524Y-69621569D01*
X88995886Y-69623625D01*
X88925103Y-69626550D01*
X88873376Y-69630492D01*
X88836906Y-69635604D01*
X88811895Y-69642036D01*
X88794544Y-69649938D01*
X88781053Y-69659463D01*
X88731083Y-69699926D01*
X88392933Y-69699926D01*
X88396893Y-69661227D01*
X88410806Y-69595274D01*
X88431213Y-69540909D01*
X88459327Y-69491316D01*
X88496360Y-69439680D01*
X88525548Y-69408556D01*
X88588396Y-69357454D01*
X88659747Y-69311649D01*
X88773417Y-69248800D01*
X89233792Y-69241327D01*
X89291608Y-69240288D01*
X89420327Y-69237203D01*
X89531018Y-69233479D01*
X89617606Y-69229384D01*
X89674014Y-69225184D01*
X89694167Y-69221144D01*
X89693842Y-69219201D01*
X89927000Y-69219201D01*
X89927134Y-69221144D01*
X89927542Y-69227097D01*
X89933322Y-69238421D01*
X89949773Y-69246722D01*
X89982173Y-69252471D01*
X90035797Y-69256139D01*
X90115924Y-69258198D01*
X90227830Y-69259119D01*
X90376792Y-69259373D01*
X90464794Y-69259469D01*
X90594392Y-69260145D01*
X90691983Y-69261982D01*
X90764213Y-69265582D01*
X90817726Y-69271543D01*
X90859168Y-69280469D01*
X90895183Y-69292958D01*
X90932417Y-69309613D01*
X91025114Y-69362965D01*
X91122468Y-69454638D01*
X91195288Y-69576667D01*
X91206948Y-69604422D01*
X91218987Y-69642751D01*
X91227558Y-69688921D01*
X91228586Y-69699926D01*
X91233246Y-69749828D01*
X91236637Y-69832371D01*
X91238316Y-69943449D01*
X91238869Y-70089958D01*
X91239237Y-70192011D01*
X91240888Y-70316975D01*
X91244095Y-70406597D01*
X91249132Y-70465110D01*
X91256273Y-70496745D01*
X91265792Y-70505733D01*
X91274549Y-70504633D01*
X91320456Y-70496350D01*
X91382113Y-70483340D01*
X91431410Y-70469459D01*
X91467815Y-70445560D01*
X91484448Y-70406231D01*
X91489616Y-70382891D01*
X91564135Y-70094190D01*
X91650948Y-69837229D01*
X91748450Y-69616811D01*
X91790851Y-69533699D01*
X91671516Y-69288275D01*
X91656541Y-69256504D01*
X91870367Y-69256504D01*
X91909392Y-69325907D01*
X91924790Y-69351750D01*
X92025852Y-69477522D01*
X92093222Y-69533699D01*
X92156083Y-69586117D01*
X92305158Y-69670142D01*
X92462750Y-69722200D01*
X92498569Y-69729369D01*
X92608520Y-69742791D01*
X92710195Y-69737235D01*
X92826320Y-69712068D01*
X92978684Y-69654478D01*
X93131416Y-69555484D01*
X93260355Y-69423032D01*
X93362470Y-69259679D01*
X93373780Y-69236429D01*
X93403607Y-69167493D01*
X93420606Y-69105918D01*
X93428259Y-69035160D01*
X93430050Y-68938678D01*
X93429842Y-68903579D01*
X93427655Y-68825118D01*
X93423590Y-68768078D01*
X93418276Y-68742914D01*
X93405382Y-68742471D01*
X93359054Y-68752036D01*
X93288028Y-68771536D01*
X93201317Y-68798654D01*
X92996167Y-68866229D01*
X92996167Y-68923961D01*
X92996167Y-68939598D01*
X92995571Y-68960422D01*
X92970966Y-69070056D01*
X92915581Y-69161627D01*
X92836743Y-69232423D01*
X92741774Y-69279732D01*
X92637999Y-69300845D01*
X92532743Y-69293048D01*
X92433330Y-69253631D01*
X92347085Y-69179882D01*
X92301253Y-69125386D01*
X92236498Y-69179874D01*
X92154228Y-69234016D01*
X92047969Y-69269818D01*
X91945054Y-69270516D01*
X91870367Y-69256504D01*
X91656541Y-69256504D01*
X91618186Y-69175128D01*
X91574664Y-69069926D01*
X91549500Y-68985101D01*
X91541752Y-68918787D01*
X91747333Y-68918787D01*
X91749910Y-68961632D01*
X91769515Y-69019288D01*
X91816125Y-69078055D01*
X91898536Y-69141466D01*
X91986263Y-69164037D01*
X92077212Y-69144667D01*
X92088656Y-69139343D01*
X92167783Y-69081170D01*
X92217787Y-69004283D01*
X92231681Y-68939999D01*
X92359746Y-68939999D01*
X92384392Y-69032389D01*
X92439989Y-69111347D01*
X92522791Y-69166481D01*
X92551341Y-69177958D01*
X92607356Y-69192958D01*
X92656291Y-69186788D01*
X92719496Y-69158592D01*
X92798944Y-69103422D01*
X92855095Y-69022467D01*
X92873037Y-68923961D01*
X92868550Y-68877437D01*
X92835187Y-68790340D01*
X92776301Y-68724846D01*
X92700199Y-68683130D01*
X92615191Y-68667365D01*
X92529583Y-68679725D01*
X92451684Y-68722384D01*
X92389802Y-68797516D01*
X92369797Y-68844571D01*
X92362063Y-68917997D01*
X92359746Y-68939999D01*
X92231681Y-68939999D01*
X92236436Y-68917997D01*
X92221496Y-68831628D01*
X92170736Y-68754492D01*
X92101025Y-68701367D01*
X92007745Y-68673673D01*
X91906513Y-68687525D01*
X91897700Y-68690623D01*
X91817519Y-68741495D01*
X91765719Y-68819987D01*
X91747333Y-68918787D01*
X91541752Y-68918787D01*
X91540961Y-68912021D01*
X91547316Y-68842052D01*
X91566831Y-68766562D01*
X91567771Y-68763570D01*
X91586983Y-68697738D01*
X91592067Y-68653553D01*
X91582108Y-68613075D01*
X91556188Y-68558367D01*
X91549268Y-68544792D01*
X91896030Y-68544792D01*
X91900586Y-68549681D01*
X91934977Y-68557558D01*
X91992142Y-68560667D01*
X91996934Y-68560681D01*
X92087735Y-68569937D01*
X92162520Y-68601371D01*
X92239458Y-68662463D01*
X92297667Y-68716753D01*
X92355875Y-68661223D01*
X92373847Y-68645193D01*
X92474764Y-68585668D01*
X92586981Y-68560285D01*
X92700879Y-68568624D01*
X92806840Y-68610265D01*
X92895247Y-68684788D01*
X92907746Y-68698834D01*
X92948782Y-68735340D01*
X92978925Y-68748836D01*
X93004145Y-68745137D01*
X93067527Y-68729540D01*
X93143135Y-68705933D01*
X93220377Y-68678228D01*
X93288662Y-68650333D01*
X93337401Y-68626160D01*
X93356000Y-68609618D01*
X93355205Y-68598949D01*
X93331499Y-68537296D01*
X93280189Y-68462901D01*
X93208491Y-68383170D01*
X93123624Y-68305510D01*
X93032805Y-68237329D01*
X92943250Y-68186032D01*
X92916113Y-68173661D01*
X92852901Y-68149158D01*
X92791459Y-68134941D01*
X92717107Y-68128355D01*
X92615167Y-68126750D01*
X92576674Y-68126903D01*
X92485423Y-68129936D01*
X92417002Y-68138841D01*
X92356879Y-68156211D01*
X92290523Y-68184635D01*
X92232776Y-68213873D01*
X92156587Y-68258202D01*
X92100023Y-68297656D01*
X92092827Y-68303757D01*
X92045236Y-68349907D01*
X91993202Y-68407453D01*
X91945284Y-68466029D01*
X91910041Y-68515264D01*
X91896030Y-68544792D01*
X91549268Y-68544792D01*
X91539922Y-68526458D01*
X91515270Y-68479626D01*
X91502705Y-68457987D01*
X91498603Y-68457908D01*
X91470008Y-68473103D01*
X91425039Y-68504770D01*
X91386454Y-68531927D01*
X91260063Y-68601060D01*
X91119444Y-68655828D01*
X90985117Y-68687697D01*
X90895450Y-68695348D01*
X90725734Y-68685731D01*
X90559496Y-68648017D01*
X90408201Y-68585263D01*
X90283311Y-68500527D01*
X90207975Y-68434381D01*
X90121440Y-68620629D01*
X90108923Y-68648270D01*
X90066694Y-68750400D01*
X90024953Y-68862899D01*
X89986908Y-68975898D01*
X89955763Y-69079527D01*
X89934725Y-69163918D01*
X89927000Y-69219201D01*
X89693842Y-69219201D01*
X89688623Y-69188027D01*
X89669772Y-69120637D01*
X89640718Y-69031335D01*
X89604753Y-68929401D01*
X89565166Y-68824113D01*
X89525248Y-68724749D01*
X89488289Y-68640588D01*
X89391961Y-68434760D01*
X89315522Y-68494813D01*
X89299040Y-68507417D01*
X89233517Y-68552950D01*
X89175583Y-68587483D01*
X89157780Y-68598018D01*
X89149139Y-68607081D01*
X89111634Y-68646419D01*
X89074806Y-68726179D01*
X89053546Y-68774567D01*
X89004469Y-68857328D01*
X88947806Y-68930801D01*
X88907132Y-68973749D01*
X88863317Y-69009917D01*
X88821015Y-69026187D01*
X88765972Y-69030364D01*
X88696995Y-69023819D01*
X88617805Y-68989789D01*
X88594224Y-68970153D01*
X88526389Y-68893565D01*
X88465136Y-68798569D01*
X88421978Y-68702084D01*
X88393434Y-68643457D01*
X88330340Y-68588059D01*
X88316877Y-68580811D01*
X88300474Y-68570593D01*
X88493875Y-68570593D01*
X88510138Y-68637345D01*
X88539805Y-68714531D01*
X88577839Y-68789187D01*
X88619202Y-68848348D01*
X88634430Y-68864647D01*
X88704327Y-68913509D01*
X88773600Y-68920890D01*
X88840666Y-68887470D01*
X88903940Y-68813932D01*
X88961836Y-68700957D01*
X88990837Y-68607081D01*
X88989045Y-68538767D01*
X88955559Y-68498358D01*
X88928239Y-68486481D01*
X88852194Y-68468768D01*
X88763094Y-68461969D01*
X88671891Y-68465352D01*
X88589539Y-68478181D01*
X88526990Y-68499722D01*
X88495198Y-68529239D01*
X88493875Y-68570593D01*
X88300474Y-68570593D01*
X88253406Y-68541273D01*
X88189846Y-68495501D01*
X88114275Y-68436135D01*
X88084821Y-68495457D01*
X88054460Y-68556609D01*
X88034056Y-68599319D01*
X88013235Y-68653892D01*
X88002018Y-68709367D01*
X87998022Y-68779529D01*
X87998862Y-68878167D01*
X87995909Y-68936716D01*
X87988936Y-69075011D01*
X87945427Y-69267179D01*
X87867913Y-69434476D01*
X87819018Y-69514535D01*
X87544126Y-69514535D01*
X87634719Y-69414553D01*
X87723117Y-69266067D01*
X87780994Y-69104198D01*
X87804806Y-68936716D01*
X87791009Y-68771389D01*
X87772593Y-68689541D01*
X87753839Y-68638693D01*
X87728526Y-68618642D01*
X87689318Y-68623838D01*
X87628877Y-68648731D01*
X87599801Y-68660566D01*
X87467511Y-68694217D01*
X87318202Y-68707147D01*
X87168023Y-68698815D01*
X87033126Y-68668680D01*
X87032877Y-68668596D01*
X86937776Y-68639118D01*
X86872672Y-68626580D01*
X86829093Y-68630293D01*
X86798567Y-68649566D01*
X86790550Y-68673639D01*
X86783190Y-68734264D01*
X86777778Y-68822910D01*
X86774333Y-68931962D01*
X86772877Y-69053810D01*
X86691885Y-69053810D01*
X86684948Y-68613583D01*
X86737145Y-68564613D01*
X86786126Y-68530775D01*
X86850334Y-68516558D01*
X86933157Y-68526449D01*
X87042766Y-68560333D01*
X87058884Y-68565930D01*
X87194515Y-68595508D01*
X87338842Y-68601077D01*
X87477020Y-68583129D01*
X87594208Y-68542152D01*
X87684999Y-68495457D01*
X87640795Y-68433378D01*
X87609665Y-68394789D01*
X87523276Y-68312421D01*
X87418792Y-68235156D01*
X87311231Y-68174780D01*
X87302127Y-68170647D01*
X87243733Y-68148504D01*
X87181735Y-68135113D01*
X87103255Y-68128514D01*
X86995417Y-68126750D01*
X86938171Y-68127069D01*
X86850187Y-68130439D01*
X86784115Y-68139365D01*
X86726435Y-68156141D01*
X86663626Y-68183062D01*
X86643622Y-68192731D01*
X86485192Y-68294232D01*
X86356129Y-68425899D01*
X86256896Y-68587000D01*
X86187954Y-68776805D01*
X86149766Y-68994583D01*
X86146386Y-69092115D01*
X85819318Y-69092115D01*
X85742256Y-68819285D01*
X85665226Y-68509566D01*
X85599945Y-68206326D01*
X85548829Y-67920015D01*
X85514300Y-67661083D01*
X85508143Y-67603290D01*
X85497996Y-67526949D01*
X85485506Y-67481167D01*
X85842737Y-67481167D01*
X85846094Y-67512494D01*
X85856608Y-67579910D01*
X85872915Y-67674572D01*
X85893616Y-67789012D01*
X85917315Y-67915767D01*
X85942613Y-68047371D01*
X85968112Y-68176359D01*
X85992416Y-68295265D01*
X86014126Y-68396625D01*
X86031674Y-68465492D01*
X86050395Y-68508981D01*
X86067847Y-68512336D01*
X86085032Y-68476687D01*
X86117793Y-68410158D01*
X86176398Y-68327628D01*
X86251217Y-68241161D01*
X86333083Y-68161328D01*
X86412830Y-68098698D01*
X86579543Y-68008645D01*
X86764825Y-67949830D01*
X86955199Y-67926518D01*
X87144854Y-67937807D01*
X87327978Y-67982795D01*
X87498761Y-68060580D01*
X87651390Y-68170259D01*
X87780053Y-68310931D01*
X87786854Y-68320149D01*
X87832263Y-68379205D01*
X87860867Y-68408444D01*
X87878846Y-68412557D01*
X87892376Y-68396237D01*
X87896055Y-68387678D01*
X87897441Y-68351994D01*
X87880517Y-68298165D01*
X87842887Y-68217528D01*
X87823635Y-68177199D01*
X87758612Y-67985575D01*
X87732952Y-67791462D01*
X87734490Y-67766917D01*
X87947917Y-67766917D01*
X87948236Y-67824162D01*
X87951606Y-67912146D01*
X87960532Y-67978219D01*
X87977308Y-68035899D01*
X88004229Y-68098707D01*
X88041409Y-68167481D01*
X88121977Y-68280989D01*
X88215885Y-68382181D01*
X88310914Y-68456789D01*
X88383028Y-68501357D01*
X88424611Y-68448493D01*
X88424729Y-68448343D01*
X88485094Y-68401978D01*
X88576925Y-68369701D01*
X88691096Y-68353654D01*
X88818483Y-68355981D01*
X88883239Y-68364120D01*
X88954585Y-68378034D01*
X89000842Y-68393003D01*
X89035157Y-68415119D01*
X89080333Y-68457145D01*
X89086679Y-68464989D01*
X89108356Y-68484577D01*
X89133498Y-68481799D01*
X89178281Y-68456557D01*
X89241171Y-68412849D01*
X89356984Y-68299618D01*
X89451345Y-68162321D01*
X89519566Y-68010288D01*
X89556958Y-67852848D01*
X89558833Y-67699330D01*
X89545737Y-67615184D01*
X89500713Y-67465848D01*
X89425793Y-67332788D01*
X89315103Y-67204064D01*
X89249617Y-67143082D01*
X89120471Y-67051431D01*
X88980891Y-66992452D01*
X88818808Y-66960213D01*
X88673211Y-66959366D01*
X88510129Y-66994361D01*
X88354617Y-67063402D01*
X88213838Y-67162323D01*
X88094955Y-67286962D01*
X88005131Y-67433155D01*
X87989081Y-67468710D01*
X87967577Y-67527398D01*
X87955102Y-67587602D01*
X87949325Y-67662912D01*
X87947917Y-67766917D01*
X87734490Y-67766917D01*
X87744959Y-67599814D01*
X87792936Y-67415587D01*
X87875184Y-67243738D01*
X87990007Y-67089221D01*
X88135708Y-66956993D01*
X88310588Y-66852009D01*
X88360116Y-66828999D01*
X88434347Y-66798875D01*
X88501842Y-66780710D01*
X88578958Y-66770670D01*
X88682049Y-66764922D01*
X88764860Y-66762750D01*
X88861657Y-66765825D01*
X88944937Y-66777849D01*
X89031545Y-66800538D01*
X89048070Y-66805718D01*
X89236043Y-66887790D01*
X89400237Y-67004316D01*
X89538396Y-67153349D01*
X89648264Y-67332942D01*
X89649676Y-67335830D01*
X89681508Y-67402481D01*
X89702959Y-67455611D01*
X89716076Y-67506390D01*
X89722909Y-67565990D01*
X89725506Y-67645580D01*
X89725706Y-67699330D01*
X89725917Y-67756333D01*
X89725917Y-67763824D01*
X89725439Y-67872417D01*
X89722616Y-67950779D01*
X89715328Y-68010345D01*
X89701459Y-68062551D01*
X89678892Y-68118835D01*
X89645508Y-68190631D01*
X89565100Y-68360346D01*
X89637004Y-68518714D01*
X89639852Y-68525012D01*
X89680227Y-68618463D01*
X89718085Y-68712693D01*
X89745572Y-68788208D01*
X89761136Y-68834021D01*
X89778487Y-68881089D01*
X89787252Y-68899333D01*
X89793599Y-68886366D01*
X89809339Y-68842749D01*
X89830194Y-68779021D01*
X89830275Y-68778764D01*
X89859007Y-68697070D01*
X89897810Y-68598627D01*
X89938309Y-68504689D01*
X90008498Y-68350668D01*
X89947537Y-68238115D01*
X89912046Y-68166302D01*
X89848298Y-67976405D01*
X89828625Y-67822063D01*
X90041860Y-67822063D01*
X90072031Y-67989338D01*
X90137672Y-68147198D01*
X90235436Y-68289470D01*
X90361977Y-68409979D01*
X90513949Y-68502550D01*
X90548406Y-68518177D01*
X90634353Y-68550028D01*
X90719634Y-68567341D01*
X90825623Y-68575090D01*
X90894348Y-68575850D01*
X91003104Y-68568844D01*
X91085112Y-68552360D01*
X91228579Y-68489356D01*
X91375676Y-68386783D01*
X91498726Y-68257972D01*
X91589401Y-68110224D01*
X91640100Y-68000795D01*
X91519092Y-67967278D01*
X91466623Y-67951705D01*
X91397845Y-67928193D01*
X91352326Y-67908802D01*
X91341578Y-67902392D01*
X91278647Y-67848736D01*
X91214519Y-67773134D01*
X91160609Y-67690519D01*
X91128333Y-67615821D01*
X91104817Y-67528226D01*
X91012397Y-67567842D01*
X90990851Y-67576764D01*
X90802564Y-67629933D01*
X90609739Y-67642484D01*
X90418391Y-67614581D01*
X90234533Y-67546391D01*
X90168214Y-67516846D01*
X90116447Y-67499950D01*
X90090711Y-67499489D01*
X90080355Y-67522616D01*
X90065635Y-67576859D01*
X90051051Y-67648397D01*
X90050504Y-67651548D01*
X90041860Y-67822063D01*
X89828625Y-67822063D01*
X89823818Y-67784347D01*
X89837042Y-67594801D01*
X89886400Y-67412437D01*
X89917907Y-67348424D01*
X90163776Y-67348424D01*
X90183103Y-67374231D01*
X90230877Y-67410829D01*
X90296044Y-67448821D01*
X90353191Y-67476580D01*
X90406192Y-67496152D01*
X90462442Y-67507099D01*
X90534961Y-67511870D01*
X90636773Y-67512917D01*
X90721775Y-67512219D01*
X90800774Y-67508059D01*
X90861724Y-67497972D01*
X90918116Y-67479518D01*
X90983444Y-67450260D01*
X91051898Y-67420082D01*
X91115207Y-67404770D01*
X91159644Y-67419275D01*
X91194421Y-67467464D01*
X91228750Y-67553202D01*
X91286189Y-67672873D01*
X91367598Y-67770430D01*
X91465549Y-67833438D01*
X91532774Y-67853517D01*
X91601207Y-67862167D01*
X91668106Y-67862167D01*
X91658440Y-67695190D01*
X91639428Y-67560636D01*
X91580669Y-67394859D01*
X91485845Y-67248645D01*
X91357206Y-67125246D01*
X91197000Y-67027915D01*
X91141882Y-67002791D01*
X91082839Y-66981275D01*
X91023463Y-66969147D01*
X90949764Y-66963790D01*
X90847750Y-66962587D01*
X90768589Y-66963201D01*
X90689189Y-66967215D01*
X90628495Y-66977160D01*
X90572972Y-66995522D01*
X90509083Y-67024787D01*
X90501587Y-67028540D01*
X90425481Y-67074218D01*
X90347229Y-67132387D01*
X90274382Y-67195969D01*
X90214490Y-67257887D01*
X90175104Y-67311064D01*
X90163776Y-67348424D01*
X89917907Y-67348424D01*
X89970325Y-67241928D01*
X90087251Y-67087946D01*
X90235610Y-66955162D01*
X90255467Y-66943250D01*
X91328713Y-66943250D01*
X91328992Y-66944133D01*
X91349255Y-66969687D01*
X91393373Y-67011938D01*
X91452334Y-67062214D01*
X91570085Y-67157706D01*
X91627043Y-67108713D01*
X91650541Y-67090724D01*
X91745185Y-67049177D01*
X91851738Y-67039056D01*
X91960601Y-67057818D01*
X92062173Y-67102917D01*
X92146855Y-67171807D01*
X92205046Y-67261945D01*
X92206276Y-67264943D01*
X92229212Y-67359155D01*
X92231852Y-67463161D01*
X92213524Y-67553872D01*
X92201806Y-67593364D01*
X92209317Y-67604422D01*
X92239148Y-67583199D01*
X92293131Y-67529125D01*
X92301341Y-67520292D01*
X92384053Y-67407633D01*
X92430489Y-67285527D01*
X92445162Y-67142500D01*
X92441752Y-67078144D01*
X92407767Y-66935699D01*
X92341802Y-66809274D01*
X92249376Y-66703252D01*
X92136009Y-66622016D01*
X92007217Y-66569948D01*
X91868520Y-66551433D01*
X91725436Y-66570853D01*
X91688203Y-66583051D01*
X91572065Y-66642208D01*
X91466200Y-66724837D01*
X91386637Y-66819187D01*
X91361191Y-66862158D01*
X91336063Y-66913669D01*
X91328713Y-66943250D01*
X90255467Y-66943250D01*
X90413833Y-66848248D01*
X90448158Y-66831916D01*
X90512425Y-66803679D01*
X90567372Y-66786088D01*
X90625912Y-66776633D01*
X90700956Y-66772802D01*
X90805417Y-66772083D01*
X90881653Y-66772885D01*
X90975603Y-66776129D01*
X91050210Y-66781289D01*
X91093981Y-66787740D01*
X91123335Y-66793729D01*
X91152451Y-66783331D01*
X91175590Y-66740922D01*
X91201077Y-66696460D01*
X91263173Y-66623419D01*
X91345844Y-66548026D01*
X91438626Y-66479519D01*
X91531051Y-66427137D01*
X91531560Y-66426900D01*
X91600571Y-66398160D01*
X91665015Y-66381057D01*
X91740487Y-66372754D01*
X91842583Y-66370409D01*
X91858730Y-66370461D01*
X92024045Y-66384938D01*
X92165018Y-66427855D01*
X92291407Y-66503408D01*
X92412967Y-66615796D01*
X92466850Y-66678804D01*
X92553170Y-66816680D01*
X92602570Y-66965846D01*
X92618704Y-67135530D01*
X92618660Y-67142500D01*
X92618584Y-67154673D01*
X92596130Y-67336021D01*
X92535545Y-67499354D01*
X92437544Y-67643246D01*
X92302839Y-67766273D01*
X92282756Y-67780269D01*
X92185919Y-67827589D01*
X92098079Y-67840648D01*
X92024560Y-67823360D01*
X91970686Y-67779640D01*
X91941780Y-67713402D01*
X91943166Y-67628560D01*
X91980167Y-67529028D01*
X91998959Y-67492395D01*
X92018611Y-67437564D01*
X92016035Y-67391293D01*
X91992338Y-67336070D01*
X91949333Y-67282244D01*
X91884171Y-67242699D01*
X91813644Y-67228617D01*
X91751625Y-67245233D01*
X91742028Y-67256500D01*
X91739890Y-67286025D01*
X91751519Y-67338996D01*
X91778084Y-67423266D01*
X91790163Y-67461605D01*
X91829087Y-67665206D01*
X91827502Y-67862167D01*
X91827445Y-67869299D01*
X91799880Y-68000795D01*
X91785731Y-68068298D01*
X91704440Y-68256619D01*
X91692594Y-68278229D01*
X91665203Y-68335963D01*
X91658363Y-68372952D01*
X91669384Y-68400209D01*
X91682386Y-68413738D01*
X91701105Y-68413150D01*
X91728629Y-68387333D01*
X91772363Y-68331332D01*
X91858721Y-68230075D01*
X92004483Y-68107547D01*
X92182451Y-68006624D01*
X92188370Y-68003862D01*
X92268965Y-67969533D01*
X92340991Y-67948176D01*
X92421407Y-67935978D01*
X92527170Y-67929128D01*
X92629865Y-67927887D01*
X92809187Y-67946148D01*
X92968973Y-67993616D01*
X93118486Y-68072536D01*
X93217556Y-68146679D01*
X93323401Y-68246666D01*
X93414211Y-68353644D01*
X93478311Y-68455193D01*
X93520755Y-68540980D01*
X93554651Y-68386782D01*
X93579517Y-68266489D01*
X93607350Y-68117631D01*
X93634043Y-67961911D01*
X93657625Y-67811385D01*
X93676123Y-67678108D01*
X93687567Y-67574135D01*
X93691779Y-67522981D01*
X93694337Y-67465262D01*
X93688991Y-67433770D01*
X93673103Y-67418525D01*
X93644032Y-67409547D01*
X93582083Y-67388439D01*
X93464932Y-67321560D01*
X93351706Y-67225083D01*
X93250732Y-67106662D01*
X93170334Y-66973955D01*
X93147551Y-66924627D01*
X93129216Y-66871653D01*
X93118700Y-66813677D01*
X93113901Y-66738266D01*
X93112718Y-66632983D01*
X93112710Y-66618954D01*
X93505022Y-66618954D01*
X93520050Y-66742792D01*
X93567909Y-66858343D01*
X93647611Y-66958368D01*
X93758167Y-67035629D01*
X93758229Y-67035660D01*
X93889817Y-67080308D01*
X94023124Y-67085210D01*
X94150922Y-67051172D01*
X94265980Y-66978999D01*
X94351108Y-66885595D01*
X94411245Y-66767231D01*
X94434847Y-66640466D01*
X94421724Y-66512410D01*
X94371687Y-66390171D01*
X94284548Y-66280858D01*
X94261248Y-66260684D01*
X94169425Y-66203253D01*
X94065958Y-66162902D01*
X93969833Y-66147667D01*
X93941738Y-66149244D01*
X93841280Y-66173189D01*
X93739412Y-66219739D01*
X93655119Y-66280858D01*
X93577412Y-66375365D01*
X93523813Y-66494066D01*
X93505022Y-66618954D01*
X93112710Y-66618954D01*
X93112583Y-66409216D01*
X92922083Y-66328561D01*
X92647547Y-66218684D01*
X92114572Y-66039241D01*
X91563167Y-65896209D01*
X90996685Y-65790398D01*
X90418482Y-65722622D01*
X90397292Y-65720955D01*
X90251456Y-65713076D01*
X90076826Y-65708456D01*
X89882289Y-65706927D01*
X89676729Y-65708322D01*
X89469033Y-65712471D01*
X89268085Y-65719209D01*
X89082770Y-65728366D01*
X88921974Y-65739776D01*
X88794583Y-65753271D01*
X88245546Y-65842836D01*
X87704875Y-65965154D01*
X87181171Y-66119982D01*
X86667333Y-66309176D01*
X86423917Y-66407727D01*
X86423917Y-66624844D01*
X86423917Y-66632238D01*
X86422939Y-66735439D01*
X86418479Y-66810642D01*
X86408301Y-66868656D01*
X86390171Y-66922139D01*
X86361854Y-66983750D01*
X86305181Y-67079580D01*
X86204268Y-67201402D01*
X86085907Y-67304235D01*
X85961773Y-67376614D01*
X85927150Y-67392106D01*
X85874318Y-67421096D01*
X85849105Y-67448214D01*
X85842737Y-67481167D01*
X85485506Y-67481167D01*
X85484970Y-67479201D01*
X85464224Y-67451369D01*
X85430917Y-67434777D01*
X85380207Y-67420747D01*
X85325840Y-67403716D01*
X85187839Y-67333585D01*
X85059193Y-67231466D01*
X84948231Y-67104767D01*
X84863280Y-66960897D01*
X84849918Y-66930139D01*
X84832263Y-66876270D01*
X84821706Y-66815035D01*
X84816588Y-66734797D01*
X84815250Y-66623917D01*
X84815259Y-66622318D01*
X85169631Y-66622318D01*
X85187355Y-66756945D01*
X85191093Y-66769152D01*
X85239269Y-66864327D01*
X85313938Y-66955112D01*
X85403171Y-67029202D01*
X85495039Y-67074294D01*
X85503483Y-67076754D01*
X85621482Y-67097931D01*
X85729118Y-67086853D01*
X85843199Y-67041958D01*
X85867361Y-67028946D01*
X85973697Y-66947858D01*
X86047335Y-66849412D01*
X86089733Y-66739708D01*
X86102349Y-66624844D01*
X86086643Y-66510919D01*
X86044074Y-66404032D01*
X85976100Y-66310281D01*
X85884180Y-66235765D01*
X85769774Y-66186582D01*
X85634339Y-66168833D01*
X85556507Y-66175092D01*
X85430904Y-66214455D01*
X85324863Y-66284848D01*
X85242936Y-66380281D01*
X85189675Y-66494768D01*
X85169631Y-66622318D01*
X84815259Y-66622318D01*
X84815618Y-66558346D01*
X84818833Y-66465786D01*
X84826743Y-66397456D01*
X84841005Y-66341719D01*
X84863280Y-66286936D01*
X84932068Y-66163431D01*
X85051486Y-66021473D01*
X85200260Y-65909936D01*
X85377922Y-65829236D01*
X85535370Y-65793810D01*
X85711587Y-65791805D01*
X85884466Y-65826262D01*
X86045582Y-65895426D01*
X86186511Y-65997545D01*
X86280358Y-66084050D01*
X86505881Y-65989564D01*
X86707752Y-65908123D01*
X87263828Y-65714674D01*
X87833101Y-65560280D01*
X88412532Y-65445264D01*
X88999085Y-65369951D01*
X89589721Y-65334664D01*
X90181403Y-65339728D01*
X90771092Y-65385467D01*
X91355750Y-65472206D01*
X91373386Y-65475489D01*
X91713604Y-65547990D01*
X92069802Y-65639723D01*
X92427414Y-65746360D01*
X92771872Y-65863574D01*
X93088607Y-65987035D01*
X93318631Y-66083626D01*
X93423006Y-65989784D01*
X93424700Y-65988266D01*
X93567578Y-65887010D01*
X93724464Y-65821871D01*
X93889572Y-65791598D01*
X94057119Y-65794941D01*
X94221319Y-65830650D01*
X94376389Y-65897473D01*
X94516544Y-65994161D01*
X94636000Y-66119462D01*
X94728973Y-66272126D01*
X94752042Y-66324824D01*
X94769229Y-66378483D01*
X94779131Y-66438153D01*
X94783665Y-66515931D01*
X94784750Y-66623917D01*
X94784738Y-66640466D01*
X94784737Y-66641985D01*
G36*
X94784737Y-66641985D02*
G01*
X94783501Y-66742784D01*
X94778763Y-66815197D01*
X94768421Y-66871359D01*
X94750376Y-66923408D01*
X94722528Y-66983480D01*
X94688865Y-67043091D01*
X94625170Y-67134561D01*
X94558694Y-67211822D01*
X94538973Y-67230408D01*
X94465209Y-67288475D01*
X94378686Y-67344704D01*
X94290693Y-67392740D01*
X94212517Y-67426228D01*
X94155445Y-67438816D01*
X94137573Y-67441987D01*
X94120973Y-67458540D01*
X94118685Y-67465262D01*
X94108297Y-67495786D01*
X94097291Y-67560906D01*
X94085701Y-67661083D01*
X94065591Y-67824233D01*
X94018115Y-68114609D01*
X93954613Y-68425321D01*
X93910275Y-68609618D01*
X93877509Y-68745816D01*
X93824256Y-68938678D01*
X93789227Y-69065543D01*
X93692191Y-69373950D01*
X93691660Y-69375530D01*
X93652145Y-69496409D01*
X93618767Y-69604847D01*
X93593479Y-69693963D01*
X93578236Y-69756874D01*
X93574992Y-69786700D01*
X93578206Y-69796656D01*
X93594180Y-69844138D01*
X93618661Y-69915674D01*
X93647805Y-70000000D01*
X93693065Y-70141226D01*
X93737519Y-70319979D01*
X93766870Y-70503041D01*
X93782967Y-70702722D01*
X93787224Y-70910167D01*
X93787658Y-70931333D01*
X93783058Y-71152896D01*
X93769159Y-71345101D01*
X93745861Y-71497957D01*
X93713052Y-71612473D01*
X93692505Y-71647213D01*
X93649865Y-71683502D01*
X93581986Y-71717338D01*
X93483294Y-71751410D01*
X93348215Y-71788404D01*
X93266014Y-71808384D01*
X93252854Y-71810931D01*
X93034367Y-71853218D01*
X92810788Y-71876981D01*
X92575313Y-71882093D01*
X92334377Y-71878785D01*
X92156374Y-72093832D01*
X91933399Y-72349601D01*
X91663951Y-72630949D01*
X91377840Y-72904540D01*
X91086032Y-73159928D01*
X90799492Y-73386667D01*
X90751333Y-73422752D01*
X90677832Y-73479626D01*
X90631153Y-73520158D01*
X90606164Y-73549810D01*
X90597734Y-73574047D01*
X90600734Y-73598333D01*
X90604331Y-73618816D01*
X90609676Y-73681092D01*
X90613261Y-73766526D01*
X90614298Y-73850199D01*
X90614455Y-73862917D01*
X90613816Y-73933436D01*
X90609897Y-74016123D01*
X90600277Y-74078685D01*
X90582531Y-74134587D01*
X90554234Y-74197296D01*
X90525158Y-74251155D01*
X90419431Y-74391996D01*
X90285608Y-74510928D01*
X90132363Y-74601160D01*
X89968375Y-74655900D01*
X89805036Y-74672143D01*
X89631279Y-74652192D01*
X89465723Y-74596816D01*
X89314362Y-74509531D01*
X89183190Y-74393852D01*
X89078204Y-74253291D01*
X89005399Y-74091365D01*
X88991309Y-74024767D01*
X88981855Y-73930995D01*
X88979285Y-73860191D01*
X89336316Y-73860191D01*
X89354529Y-73974941D01*
X89402516Y-74083367D01*
X89481713Y-74179366D01*
X89593557Y-74256834D01*
X89720664Y-74301606D01*
X89852194Y-74306950D01*
X89979398Y-74271486D01*
X90097338Y-74195812D01*
X90107941Y-74186493D01*
X90195050Y-74083460D01*
X90246547Y-73969292D01*
X90264695Y-73850199D01*
X90251758Y-73732390D01*
X90209998Y-73622076D01*
X90141679Y-73525467D01*
X90049065Y-73448771D01*
X89934417Y-73398200D01*
X89800000Y-73379963D01*
X89771804Y-73380694D01*
X89641554Y-73405210D01*
X89532456Y-73460025D01*
X89445946Y-73539034D01*
X89383461Y-73636134D01*
X89346439Y-73745221D01*
X89336316Y-73860191D01*
X88979285Y-73860191D01*
X88978047Y-73826091D01*
X88979987Y-73723313D01*
X88987775Y-73635919D01*
X89001510Y-73577167D01*
X89001766Y-73576499D01*
X88994672Y-73552518D01*
X88959559Y-73513523D01*
X88893810Y-73457024D01*
X88794808Y-73380531D01*
X88724496Y-73327077D01*
X88387411Y-73050752D01*
X88054035Y-72745631D01*
X87735187Y-72422032D01*
X87441685Y-72090271D01*
X87265433Y-71878935D01*
X87014008Y-71881775D01*
X86931219Y-71881427D01*
X86756941Y-71873095D01*
X86583685Y-71855590D01*
X86417353Y-71830229D01*
X86337599Y-71813658D01*
X87706766Y-71813658D01*
X87708042Y-71818505D01*
X87728760Y-71848372D01*
X87769069Y-71898863D01*
X87823183Y-71962577D01*
X87998706Y-72157752D01*
X88317604Y-72483695D01*
X88648065Y-72787645D01*
X88979867Y-73059903D01*
X89211908Y-73238434D01*
X89292605Y-73174521D01*
X89362450Y-73124080D01*
X89480160Y-73063076D01*
X89611077Y-73026789D01*
X89768250Y-73010727D01*
X89837976Y-73008658D01*
X89929677Y-73011323D01*
X90005792Y-73023190D01*
X90082717Y-73046106D01*
X90133506Y-73066373D01*
X90227422Y-73112759D01*
X90307663Y-73162153D01*
X90408642Y-73234700D01*
X90638779Y-73056008D01*
X90883667Y-72856869D01*
X91161098Y-72611496D01*
X91428751Y-72354812D01*
X91671904Y-72100435D01*
X91934993Y-71810931D01*
X91763833Y-71755317D01*
X91702200Y-71734266D01*
X91622804Y-71699919D01*
X91571002Y-71662025D01*
X91537946Y-71613140D01*
X91514786Y-71545821D01*
X91507606Y-71516228D01*
X91488192Y-71406586D01*
X91471965Y-71272592D01*
X91460102Y-71127613D01*
X91453781Y-70985016D01*
X91454160Y-70864467D01*
X91632189Y-70864467D01*
X91634700Y-71072968D01*
X91651031Y-71277805D01*
X91680232Y-71460500D01*
X91683159Y-71472830D01*
X91696709Y-71506244D01*
X91721459Y-71533214D01*
X91763498Y-71556547D01*
X91828917Y-71579046D01*
X91923804Y-71603517D01*
X92054250Y-71632765D01*
X92149139Y-71650072D01*
X92320587Y-71670341D01*
X92508112Y-71682057D01*
X92697428Y-71684794D01*
X92874246Y-71678127D01*
X93024279Y-71661632D01*
X93130666Y-71642454D01*
X93250730Y-71617026D01*
X93360591Y-71590102D01*
X93449696Y-71564289D01*
X93507494Y-71542196D01*
X93527398Y-71520795D01*
X93551327Y-71458210D01*
X93570830Y-71361301D01*
X93585267Y-71234622D01*
X93593998Y-71082726D01*
X93596382Y-70910167D01*
X93595611Y-70848789D01*
X93583982Y-70629093D01*
X93556545Y-70426351D01*
X93510575Y-70228113D01*
X93443342Y-70021934D01*
X93352121Y-69795363D01*
X93268249Y-69601310D01*
X93149270Y-69684656D01*
X92985436Y-69775516D01*
X92804758Y-69831538D01*
X92617210Y-69850508D01*
X92429623Y-69832422D01*
X92248830Y-69777278D01*
X92081661Y-69685074D01*
X91963279Y-69602147D01*
X91898929Y-69742865D01*
X91869531Y-69808479D01*
X91781127Y-70030337D01*
X91716517Y-70242437D01*
X91671342Y-70461003D01*
X91641245Y-70702261D01*
X91632189Y-70864467D01*
X91454160Y-70864467D01*
X91454180Y-70858166D01*
X91454805Y-70840745D01*
X91457316Y-70752881D01*
X91456351Y-70698778D01*
X91450574Y-70671068D01*
X91438652Y-70662384D01*
X91419250Y-70665360D01*
X91380599Y-70672497D01*
X91320050Y-70677044D01*
X91263183Y-70677333D01*
X91256550Y-71201208D01*
X91254348Y-71359788D01*
X91251837Y-71488274D01*
X91248610Y-71585757D01*
X91244170Y-71658006D01*
X91238026Y-71710788D01*
X91229682Y-71749873D01*
X91218644Y-71781030D01*
X91204420Y-71810027D01*
X91184552Y-71844505D01*
X91084010Y-71967593D01*
X90953861Y-72060586D01*
X90940724Y-72067436D01*
X90919593Y-72076857D01*
X90894737Y-72084658D01*
X90862293Y-72091022D01*
X90818403Y-72096132D01*
X90759204Y-72100171D01*
X90680837Y-72103322D01*
X90579441Y-72105768D01*
X90451154Y-72107692D01*
X90292117Y-72109278D01*
X90098468Y-72110708D01*
X89866347Y-72112166D01*
X89774195Y-72112714D01*
X89538739Y-72113864D01*
X89340467Y-72114120D01*
X89175566Y-72113113D01*
X89040225Y-72110477D01*
X88930633Y-72105843D01*
X88842978Y-72098844D01*
X88773450Y-72089112D01*
X88718237Y-72076280D01*
X88673528Y-72059981D01*
X88635512Y-72039847D01*
X88600376Y-72015509D01*
X88564311Y-71986602D01*
X88536155Y-71959963D01*
X88477721Y-71887889D01*
X88432226Y-71811250D01*
X88430809Y-71808200D01*
X88415311Y-71772841D01*
X88403511Y-71738209D01*
X88394903Y-71698153D01*
X88388982Y-71646521D01*
X88385241Y-71577162D01*
X88383175Y-71483925D01*
X88382277Y-71360657D01*
X88382040Y-71201208D01*
X88381718Y-71106641D01*
X88380242Y-70975137D01*
X88377742Y-70862650D01*
X88374404Y-70775008D01*
X88370414Y-70718041D01*
X88365958Y-70697578D01*
X88359631Y-70696865D01*
X88319991Y-70690361D01*
X88261624Y-70679528D01*
X88173165Y-70662399D01*
X88172508Y-70950324D01*
X88170415Y-71065251D01*
X88170241Y-71074845D01*
X88160353Y-71243356D01*
X88143458Y-71392479D01*
X88120455Y-71516512D01*
X88092240Y-71609753D01*
X88059713Y-71666501D01*
X88058836Y-71667415D01*
X88015150Y-71697814D01*
X87945624Y-71731446D01*
X87864896Y-71761197D01*
X87853780Y-71764677D01*
X87782153Y-71787536D01*
X87729580Y-71805047D01*
X87706766Y-71813658D01*
X86337599Y-71813658D01*
X86263847Y-71798334D01*
X86129067Y-71761224D01*
X86018916Y-71720219D01*
X85939295Y-71676638D01*
X85896105Y-71631800D01*
X85871321Y-71566725D01*
X85845797Y-71450952D01*
X85827018Y-71301597D01*
X85815535Y-71123312D01*
X85811899Y-70920750D01*
X85812009Y-70901091D01*
X85993801Y-70901091D01*
X85994408Y-70999156D01*
X86002084Y-71105937D01*
X86017155Y-71237887D01*
X86017291Y-71238968D01*
X86035002Y-71366089D01*
X86051625Y-71455309D01*
X86068154Y-71510977D01*
X86085584Y-71537444D01*
X86091096Y-71540913D01*
X86138781Y-71560241D01*
X86216497Y-71583704D01*
X86314640Y-71608953D01*
X86423605Y-71633639D01*
X86533787Y-71655414D01*
X86635583Y-71671929D01*
X86779215Y-71686038D01*
X87009959Y-71690164D01*
X87252326Y-71675722D01*
X87491195Y-71643789D01*
X87711446Y-71595437D01*
X87753882Y-71583800D01*
X87829865Y-71560376D01*
X87877223Y-71536074D01*
X87904510Y-71502247D01*
X87920283Y-71450247D01*
X87933099Y-71371427D01*
X87964695Y-71065251D01*
X87963788Y-70752813D01*
X87926084Y-70448386D01*
X87850617Y-70144401D01*
X87736417Y-69833289D01*
X87638366Y-69600995D01*
X87519162Y-69684498D01*
X87503212Y-69695381D01*
X87344281Y-69779039D01*
X87169470Y-69832819D01*
X86994126Y-69851833D01*
X86859711Y-69851833D01*
X86891206Y-69941098D01*
X86899856Y-69964002D01*
X86935906Y-70045075D01*
X86976300Y-70121823D01*
X86979905Y-70128062D01*
X87016692Y-70214530D01*
X87016886Y-70280353D01*
X86980480Y-70325221D01*
X86975576Y-70327912D01*
X86921511Y-70333181D01*
X86845398Y-70312702D01*
X86753770Y-70270663D01*
X86653157Y-70211249D01*
X86550091Y-70138647D01*
X86451104Y-70057045D01*
X86362727Y-69970628D01*
X86291491Y-69883583D01*
X86246808Y-69820083D01*
X86190156Y-69947083D01*
X86178576Y-69974002D01*
X86122856Y-70131548D01*
X86073720Y-70316495D01*
X86034103Y-70516476D01*
X86006940Y-70719124D01*
X85999941Y-70795288D01*
X85993801Y-70901091D01*
X85812009Y-70901091D01*
X85812160Y-70874270D01*
X85818099Y-70677901D01*
X85833556Y-70505226D01*
X85860891Y-70341320D01*
X85902464Y-70171261D01*
X85960635Y-69980125D01*
X86035394Y-69750425D01*
X85917760Y-69404254D01*
X85828616Y-69125034D01*
X85819318Y-69092115D01*
X86146386Y-69092115D01*
X86160421Y-69254212D01*
X86194599Y-69419750D01*
X86245865Y-69570433D01*
X86250301Y-69580545D01*
X86314541Y-69699212D01*
X86399862Y-69822633D01*
X86494916Y-69935791D01*
X86588353Y-70023667D01*
X86645256Y-70065416D01*
X86713682Y-70110334D01*
X86782139Y-70151278D01*
X86841875Y-70183281D01*
X86884135Y-70201376D01*
X86900167Y-70200596D01*
X86899080Y-70195727D01*
X86885140Y-70161817D01*
X86860275Y-70110282D01*
X86853880Y-70097028D01*
X86825999Y-70031010D01*
X86793097Y-69944217D01*
X86761005Y-69851833D01*
X86754635Y-69832432D01*
X86737609Y-69777877D01*
X86724528Y-69727592D01*
X86714757Y-69674920D01*
X86707659Y-69613203D01*
X86702599Y-69535785D01*
X86698941Y-69436008D01*
X86696049Y-69307216D01*
X86693287Y-69142750D01*
X86691885Y-69053810D01*
X86772877Y-69053810D01*
X86773428Y-69180839D01*
X86776006Y-69305436D01*
X86780633Y-69419991D01*
X86787326Y-69516888D01*
X86796107Y-69588517D01*
X86796537Y-69590980D01*
X86810606Y-69662405D01*
X86825496Y-69702815D01*
X86847627Y-69722844D01*
X86883420Y-69733125D01*
X86978749Y-69742326D01*
X87120800Y-69729655D01*
X87265962Y-69691081D01*
X87399544Y-69629553D01*
X87519344Y-69541886D01*
X87544126Y-69514535D01*
X87819018Y-69514535D01*
X87888441Y-69656726D01*
X87909680Y-69702073D01*
X87970121Y-69848593D01*
X88028095Y-70011674D01*
X88077544Y-70173476D01*
X88112409Y-70316160D01*
X88124239Y-70370631D01*
X88141199Y-70424099D01*
X88161987Y-70452535D01*
X88192016Y-70466139D01*
X88246577Y-70479243D01*
X88313042Y-70493409D01*
X88381833Y-70506942D01*
X88381833Y-70083457D01*
X88381994Y-69996758D01*
X88383699Y-69855154D01*
X88388261Y-69745582D01*
X88392933Y-69699926D01*
X88731083Y-69699926D01*
X88731083Y-71675907D01*
X88781053Y-71716370D01*
X88782692Y-71717681D01*
X88796464Y-71726990D01*
X88814582Y-71734697D01*
X88840844Y-71740952D01*
X88879050Y-71745906D01*
X88932998Y-71749710D01*
X89006487Y-71752515D01*
X89103315Y-71754472D01*
X89227282Y-71755731D01*
X89382186Y-71756444D01*
X89571826Y-71756761D01*
X89800000Y-71756833D01*
X89831404Y-71756832D01*
X90054448Y-71756737D01*
X90239442Y-71756378D01*
X90390186Y-71755604D01*
X90510477Y-71754264D01*
X90604115Y-71752208D01*
X90674898Y-71749283D01*
X90726625Y-71745341D01*
X90763094Y-71740229D01*
X90788105Y-71733797D01*
X90805457Y-71725895D01*
X90818947Y-71716370D01*
X90868917Y-71675907D01*
X90868917Y-69699926D01*
X90818947Y-69659463D01*
X90817308Y-69658152D01*
X90803536Y-69648843D01*
X90785419Y-69641136D01*
X90759156Y-69634881D01*
X90720951Y-69629927D01*
X90667003Y-69626123D01*
X90593514Y-69623318D01*
X90496685Y-69621361D01*
X90372718Y-69620102D01*
X90217814Y-69619389D01*
X90028174Y-69619072D01*
X89800000Y-69619000D01*
X89768596Y-69619001D01*
X89545552Y-69619096D01*
X89360558Y-69619455D01*
X89209815Y-69620229D01*
X89089524Y-69621569D01*
X88995886Y-69623625D01*
X88925103Y-69626550D01*
X88873376Y-69630492D01*
X88836906Y-69635604D01*
X88811895Y-69642036D01*
X88794544Y-69649938D01*
X88781053Y-69659463D01*
X88731083Y-69699926D01*
X88392933Y-69699926D01*
X88396893Y-69661227D01*
X88410806Y-69595274D01*
X88431213Y-69540909D01*
X88459327Y-69491316D01*
X88496360Y-69439680D01*
X88525548Y-69408556D01*
X88588396Y-69357454D01*
X88659747Y-69311649D01*
X88773417Y-69248800D01*
X89233792Y-69241327D01*
X89291608Y-69240288D01*
X89420327Y-69237203D01*
X89531018Y-69233479D01*
X89617606Y-69229384D01*
X89674014Y-69225184D01*
X89694167Y-69221144D01*
X89693842Y-69219201D01*
X89927000Y-69219201D01*
X89927134Y-69221144D01*
X89927542Y-69227097D01*
X89933322Y-69238421D01*
X89949773Y-69246722D01*
X89982173Y-69252471D01*
X90035797Y-69256139D01*
X90115924Y-69258198D01*
X90227830Y-69259119D01*
X90376792Y-69259373D01*
X90464794Y-69259469D01*
X90594392Y-69260145D01*
X90691983Y-69261982D01*
X90764213Y-69265582D01*
X90817726Y-69271543D01*
X90859168Y-69280469D01*
X90895183Y-69292958D01*
X90932417Y-69309613D01*
X91025114Y-69362965D01*
X91122468Y-69454638D01*
X91195288Y-69576667D01*
X91206948Y-69604422D01*
X91218987Y-69642751D01*
X91227558Y-69688921D01*
X91228586Y-69699926D01*
X91233246Y-69749828D01*
X91236637Y-69832371D01*
X91238316Y-69943449D01*
X91238869Y-70089958D01*
X91239237Y-70192011D01*
X91240888Y-70316975D01*
X91244095Y-70406597D01*
X91249132Y-70465110D01*
X91256273Y-70496745D01*
X91265792Y-70505733D01*
X91274549Y-70504633D01*
X91320456Y-70496350D01*
X91382113Y-70483340D01*
X91431410Y-70469459D01*
X91467815Y-70445560D01*
X91484448Y-70406231D01*
X91489616Y-70382891D01*
X91564135Y-70094190D01*
X91650948Y-69837229D01*
X91748450Y-69616811D01*
X91790851Y-69533699D01*
X91671516Y-69288275D01*
X91656541Y-69256504D01*
X91870367Y-69256504D01*
X91909392Y-69325907D01*
X91924790Y-69351750D01*
X92025852Y-69477522D01*
X92093222Y-69533699D01*
X92156083Y-69586117D01*
X92305158Y-69670142D01*
X92462750Y-69722200D01*
X92498569Y-69729369D01*
X92608520Y-69742791D01*
X92710195Y-69737235D01*
X92826320Y-69712068D01*
X92978684Y-69654478D01*
X93131416Y-69555484D01*
X93260355Y-69423032D01*
X93362470Y-69259679D01*
X93373780Y-69236429D01*
X93403607Y-69167493D01*
X93420606Y-69105918D01*
X93428259Y-69035160D01*
X93430050Y-68938678D01*
X93429842Y-68903579D01*
X93427655Y-68825118D01*
X93423590Y-68768078D01*
X93418276Y-68742914D01*
X93405382Y-68742471D01*
X93359054Y-68752036D01*
X93288028Y-68771536D01*
X93201317Y-68798654D01*
X92996167Y-68866229D01*
X92996167Y-68923961D01*
X92996167Y-68939598D01*
X92995571Y-68960422D01*
X92970966Y-69070056D01*
X92915581Y-69161627D01*
X92836743Y-69232423D01*
X92741774Y-69279732D01*
X92637999Y-69300845D01*
X92532743Y-69293048D01*
X92433330Y-69253631D01*
X92347085Y-69179882D01*
X92301253Y-69125386D01*
X92236498Y-69179874D01*
X92154228Y-69234016D01*
X92047969Y-69269818D01*
X91945054Y-69270516D01*
X91870367Y-69256504D01*
X91656541Y-69256504D01*
X91618186Y-69175128D01*
X91574664Y-69069926D01*
X91549500Y-68985101D01*
X91541752Y-68918787D01*
X91747333Y-68918787D01*
X91749910Y-68961632D01*
X91769515Y-69019288D01*
X91816125Y-69078055D01*
X91898536Y-69141466D01*
X91986263Y-69164037D01*
X92077212Y-69144667D01*
X92088656Y-69139343D01*
X92167783Y-69081170D01*
X92217787Y-69004283D01*
X92231681Y-68939999D01*
X92359746Y-68939999D01*
X92384392Y-69032389D01*
X92439989Y-69111347D01*
X92522791Y-69166481D01*
X92551341Y-69177958D01*
X92607356Y-69192958D01*
X92656291Y-69186788D01*
X92719496Y-69158592D01*
X92798944Y-69103422D01*
X92855095Y-69022467D01*
X92873037Y-68923961D01*
X92868550Y-68877437D01*
X92835187Y-68790340D01*
X92776301Y-68724846D01*
X92700199Y-68683130D01*
X92615191Y-68667365D01*
X92529583Y-68679725D01*
X92451684Y-68722384D01*
X92389802Y-68797516D01*
X92369797Y-68844571D01*
X92362063Y-68917997D01*
X92359746Y-68939999D01*
X92231681Y-68939999D01*
X92236436Y-68917997D01*
X92221496Y-68831628D01*
X92170736Y-68754492D01*
X92101025Y-68701367D01*
X92007745Y-68673673D01*
X91906513Y-68687525D01*
X91897700Y-68690623D01*
X91817519Y-68741495D01*
X91765719Y-68819987D01*
X91747333Y-68918787D01*
X91541752Y-68918787D01*
X91540961Y-68912021D01*
X91547316Y-68842052D01*
X91566831Y-68766562D01*
X91567771Y-68763570D01*
X91586983Y-68697738D01*
X91592067Y-68653553D01*
X91582108Y-68613075D01*
X91556188Y-68558367D01*
X91549268Y-68544792D01*
X91896030Y-68544792D01*
X91900586Y-68549681D01*
X91934977Y-68557558D01*
X91992142Y-68560667D01*
X91996934Y-68560681D01*
X92087735Y-68569937D01*
X92162520Y-68601371D01*
X92239458Y-68662463D01*
X92297667Y-68716753D01*
X92355875Y-68661223D01*
X92373847Y-68645193D01*
X92474764Y-68585668D01*
X92586981Y-68560285D01*
X92700879Y-68568624D01*
X92806840Y-68610265D01*
X92895247Y-68684788D01*
X92907746Y-68698834D01*
X92948782Y-68735340D01*
X92978925Y-68748836D01*
X93004145Y-68745137D01*
X93067527Y-68729540D01*
X93143135Y-68705933D01*
X93220377Y-68678228D01*
X93288662Y-68650333D01*
X93337401Y-68626160D01*
X93356000Y-68609618D01*
X93355205Y-68598949D01*
X93331499Y-68537296D01*
X93280189Y-68462901D01*
X93208491Y-68383170D01*
X93123624Y-68305510D01*
X93032805Y-68237329D01*
X92943250Y-68186032D01*
X92916113Y-68173661D01*
X92852901Y-68149158D01*
X92791459Y-68134941D01*
X92717107Y-68128355D01*
X92615167Y-68126750D01*
X92576674Y-68126903D01*
X92485423Y-68129936D01*
X92417002Y-68138841D01*
X92356879Y-68156211D01*
X92290523Y-68184635D01*
X92232776Y-68213873D01*
X92156587Y-68258202D01*
X92100023Y-68297656D01*
X92092827Y-68303757D01*
X92045236Y-68349907D01*
X91993202Y-68407453D01*
X91945284Y-68466029D01*
X91910041Y-68515264D01*
X91896030Y-68544792D01*
X91549268Y-68544792D01*
X91539922Y-68526458D01*
X91515270Y-68479626D01*
X91502705Y-68457987D01*
X91498603Y-68457908D01*
X91470008Y-68473103D01*
X91425039Y-68504770D01*
X91386454Y-68531927D01*
X91260063Y-68601060D01*
X91119444Y-68655828D01*
X90985117Y-68687697D01*
X90895450Y-68695348D01*
X90725734Y-68685731D01*
X90559496Y-68648017D01*
X90408201Y-68585263D01*
X90283311Y-68500527D01*
X90207975Y-68434381D01*
X90121440Y-68620629D01*
X90108923Y-68648270D01*
X90066694Y-68750400D01*
X90024953Y-68862899D01*
X89986908Y-68975898D01*
X89955763Y-69079527D01*
X89934725Y-69163918D01*
X89927000Y-69219201D01*
X89693842Y-69219201D01*
X89688623Y-69188027D01*
X89669772Y-69120637D01*
X89640718Y-69031335D01*
X89604753Y-68929401D01*
X89565166Y-68824113D01*
X89525248Y-68724749D01*
X89488289Y-68640588D01*
X89391961Y-68434760D01*
X89315522Y-68494813D01*
X89299040Y-68507417D01*
X89233517Y-68552950D01*
X89175583Y-68587483D01*
X89157780Y-68598018D01*
X89149139Y-68607081D01*
X89111634Y-68646419D01*
X89074806Y-68726179D01*
X89053546Y-68774567D01*
X89004469Y-68857328D01*
X88947806Y-68930801D01*
X88907132Y-68973749D01*
X88863317Y-69009917D01*
X88821015Y-69026187D01*
X88765972Y-69030364D01*
X88696995Y-69023819D01*
X88617805Y-68989789D01*
X88594224Y-68970153D01*
X88526389Y-68893565D01*
X88465136Y-68798569D01*
X88421978Y-68702084D01*
X88393434Y-68643457D01*
X88330340Y-68588059D01*
X88316877Y-68580811D01*
X88300474Y-68570593D01*
X88493875Y-68570593D01*
X88510138Y-68637345D01*
X88539805Y-68714531D01*
X88577839Y-68789187D01*
X88619202Y-68848348D01*
X88634430Y-68864647D01*
X88704327Y-68913509D01*
X88773600Y-68920890D01*
X88840666Y-68887470D01*
X88903940Y-68813932D01*
X88961836Y-68700957D01*
X88990837Y-68607081D01*
X88989045Y-68538767D01*
X88955559Y-68498358D01*
X88928239Y-68486481D01*
X88852194Y-68468768D01*
X88763094Y-68461969D01*
X88671891Y-68465352D01*
X88589539Y-68478181D01*
X88526990Y-68499722D01*
X88495198Y-68529239D01*
X88493875Y-68570593D01*
X88300474Y-68570593D01*
X88253406Y-68541273D01*
X88189846Y-68495501D01*
X88114275Y-68436135D01*
X88084821Y-68495457D01*
X88054460Y-68556609D01*
X88034056Y-68599319D01*
X88013235Y-68653892D01*
X88002018Y-68709367D01*
X87998022Y-68779529D01*
X87998862Y-68878167D01*
X87995909Y-68936716D01*
X87988936Y-69075011D01*
X87945427Y-69267179D01*
X87867913Y-69434476D01*
X87819018Y-69514535D01*
X87544126Y-69514535D01*
X87634719Y-69414553D01*
X87723117Y-69266067D01*
X87780994Y-69104198D01*
X87804806Y-68936716D01*
X87791009Y-68771389D01*
X87772593Y-68689541D01*
X87753839Y-68638693D01*
X87728526Y-68618642D01*
X87689318Y-68623838D01*
X87628877Y-68648731D01*
X87599801Y-68660566D01*
X87467511Y-68694217D01*
X87318202Y-68707147D01*
X87168023Y-68698815D01*
X87033126Y-68668680D01*
X87032877Y-68668596D01*
X86937776Y-68639118D01*
X86872672Y-68626580D01*
X86829093Y-68630293D01*
X86798567Y-68649566D01*
X86790550Y-68673639D01*
X86783190Y-68734264D01*
X86777778Y-68822910D01*
X86774333Y-68931962D01*
X86772877Y-69053810D01*
X86691885Y-69053810D01*
X86684948Y-68613583D01*
X86737145Y-68564613D01*
X86786126Y-68530775D01*
X86850334Y-68516558D01*
X86933157Y-68526449D01*
X87042766Y-68560333D01*
X87058884Y-68565930D01*
X87194515Y-68595508D01*
X87338842Y-68601077D01*
X87477020Y-68583129D01*
X87594208Y-68542152D01*
X87684999Y-68495457D01*
X87640795Y-68433378D01*
X87609665Y-68394789D01*
X87523276Y-68312421D01*
X87418792Y-68235156D01*
X87311231Y-68174780D01*
X87302127Y-68170647D01*
X87243733Y-68148504D01*
X87181735Y-68135113D01*
X87103255Y-68128514D01*
X86995417Y-68126750D01*
X86938171Y-68127069D01*
X86850187Y-68130439D01*
X86784115Y-68139365D01*
X86726435Y-68156141D01*
X86663626Y-68183062D01*
X86643622Y-68192731D01*
X86485192Y-68294232D01*
X86356129Y-68425899D01*
X86256896Y-68587000D01*
X86187954Y-68776805D01*
X86149766Y-68994583D01*
X86146386Y-69092115D01*
X85819318Y-69092115D01*
X85742256Y-68819285D01*
X85665226Y-68509566D01*
X85599945Y-68206326D01*
X85548829Y-67920015D01*
X85514300Y-67661083D01*
X85508143Y-67603290D01*
X85497996Y-67526949D01*
X85485506Y-67481167D01*
X85842737Y-67481167D01*
X85846094Y-67512494D01*
X85856608Y-67579910D01*
X85872915Y-67674572D01*
X85893616Y-67789012D01*
X85917315Y-67915767D01*
X85942613Y-68047371D01*
X85968112Y-68176359D01*
X85992416Y-68295265D01*
X86014126Y-68396625D01*
X86031674Y-68465492D01*
X86050395Y-68508981D01*
X86067847Y-68512336D01*
X86085032Y-68476687D01*
X86117793Y-68410158D01*
X86176398Y-68327628D01*
X86251217Y-68241161D01*
X86333083Y-68161328D01*
X86412830Y-68098698D01*
X86579543Y-68008645D01*
X86764825Y-67949830D01*
X86955199Y-67926518D01*
X87144854Y-67937807D01*
X87327978Y-67982795D01*
X87498761Y-68060580D01*
X87651390Y-68170259D01*
X87780053Y-68310931D01*
X87786854Y-68320149D01*
X87832263Y-68379205D01*
X87860867Y-68408444D01*
X87878846Y-68412557D01*
X87892376Y-68396237D01*
X87896055Y-68387678D01*
X87897441Y-68351994D01*
X87880517Y-68298165D01*
X87842887Y-68217528D01*
X87823635Y-68177199D01*
X87758612Y-67985575D01*
X87732952Y-67791462D01*
X87734490Y-67766917D01*
X87947917Y-67766917D01*
X87948236Y-67824162D01*
X87951606Y-67912146D01*
X87960532Y-67978219D01*
X87977308Y-68035899D01*
X88004229Y-68098707D01*
X88041409Y-68167481D01*
X88121977Y-68280989D01*
X88215885Y-68382181D01*
X88310914Y-68456789D01*
X88383028Y-68501357D01*
X88424611Y-68448493D01*
X88424729Y-68448343D01*
X88485094Y-68401978D01*
X88576925Y-68369701D01*
X88691096Y-68353654D01*
X88818483Y-68355981D01*
X88883239Y-68364120D01*
X88954585Y-68378034D01*
X89000842Y-68393003D01*
X89035157Y-68415119D01*
X89080333Y-68457145D01*
X89086679Y-68464989D01*
X89108356Y-68484577D01*
X89133498Y-68481799D01*
X89178281Y-68456557D01*
X89241171Y-68412849D01*
X89356984Y-68299618D01*
X89451345Y-68162321D01*
X89519566Y-68010288D01*
X89556958Y-67852848D01*
X89558833Y-67699330D01*
X89545737Y-67615184D01*
X89500713Y-67465848D01*
X89425793Y-67332788D01*
X89315103Y-67204064D01*
X89249617Y-67143082D01*
X89120471Y-67051431D01*
X88980891Y-66992452D01*
X88818808Y-66960213D01*
X88673211Y-66959366D01*
X88510129Y-66994361D01*
X88354617Y-67063402D01*
X88213838Y-67162323D01*
X88094955Y-67286962D01*
X88005131Y-67433155D01*
X87989081Y-67468710D01*
X87967577Y-67527398D01*
X87955102Y-67587602D01*
X87949325Y-67662912D01*
X87947917Y-67766917D01*
X87734490Y-67766917D01*
X87744959Y-67599814D01*
X87792936Y-67415587D01*
X87875184Y-67243738D01*
X87990007Y-67089221D01*
X88135708Y-66956993D01*
X88310588Y-66852009D01*
X88360116Y-66828999D01*
X88434347Y-66798875D01*
X88501842Y-66780710D01*
X88578958Y-66770670D01*
X88682049Y-66764922D01*
X88764860Y-66762750D01*
X88861657Y-66765825D01*
X88944937Y-66777849D01*
X89031545Y-66800538D01*
X89048070Y-66805718D01*
X89236043Y-66887790D01*
X89400237Y-67004316D01*
X89538396Y-67153349D01*
X89648264Y-67332942D01*
X89649676Y-67335830D01*
X89681508Y-67402481D01*
X89702959Y-67455611D01*
X89716076Y-67506390D01*
X89722909Y-67565990D01*
X89725506Y-67645580D01*
X89725706Y-67699330D01*
X89725917Y-67756333D01*
X89725917Y-67763824D01*
X89725439Y-67872417D01*
X89722616Y-67950779D01*
X89715328Y-68010345D01*
X89701459Y-68062551D01*
X89678892Y-68118835D01*
X89645508Y-68190631D01*
X89565100Y-68360346D01*
X89637004Y-68518714D01*
X89639852Y-68525012D01*
X89680227Y-68618463D01*
X89718085Y-68712693D01*
X89745572Y-68788208D01*
X89761136Y-68834021D01*
X89778487Y-68881089D01*
X89787252Y-68899333D01*
X89793599Y-68886366D01*
X89809339Y-68842749D01*
X89830194Y-68779021D01*
X89830275Y-68778764D01*
X89859007Y-68697070D01*
X89897810Y-68598627D01*
X89938309Y-68504689D01*
X90008498Y-68350668D01*
X89947537Y-68238115D01*
X89912046Y-68166302D01*
X89848298Y-67976405D01*
X89828625Y-67822063D01*
X90041860Y-67822063D01*
X90072031Y-67989338D01*
X90137672Y-68147198D01*
X90235436Y-68289470D01*
X90361977Y-68409979D01*
X90513949Y-68502550D01*
X90548406Y-68518177D01*
X90634353Y-68550028D01*
X90719634Y-68567341D01*
X90825623Y-68575090D01*
X90894348Y-68575850D01*
X91003104Y-68568844D01*
X91085112Y-68552360D01*
X91228579Y-68489356D01*
X91375676Y-68386783D01*
X91498726Y-68257972D01*
X91589401Y-68110224D01*
X91640100Y-68000795D01*
X91519092Y-67967278D01*
X91466623Y-67951705D01*
X91397845Y-67928193D01*
X91352326Y-67908802D01*
X91341578Y-67902392D01*
X91278647Y-67848736D01*
X91214519Y-67773134D01*
X91160609Y-67690519D01*
X91128333Y-67615821D01*
X91104817Y-67528226D01*
X91012397Y-67567842D01*
X90990851Y-67576764D01*
X90802564Y-67629933D01*
X90609739Y-67642484D01*
X90418391Y-67614581D01*
X90234533Y-67546391D01*
X90168214Y-67516846D01*
X90116447Y-67499950D01*
X90090711Y-67499489D01*
X90080355Y-67522616D01*
X90065635Y-67576859D01*
X90051051Y-67648397D01*
X90050504Y-67651548D01*
X90041860Y-67822063D01*
X89828625Y-67822063D01*
X89823818Y-67784347D01*
X89837042Y-67594801D01*
X89886400Y-67412437D01*
X89917907Y-67348424D01*
X90163776Y-67348424D01*
X90183103Y-67374231D01*
X90230877Y-67410829D01*
X90296044Y-67448821D01*
X90353191Y-67476580D01*
X90406192Y-67496152D01*
X90462442Y-67507099D01*
X90534961Y-67511870D01*
X90636773Y-67512917D01*
X90721775Y-67512219D01*
X90800774Y-67508059D01*
X90861724Y-67497972D01*
X90918116Y-67479518D01*
X90983444Y-67450260D01*
X91051898Y-67420082D01*
X91115207Y-67404770D01*
X91159644Y-67419275D01*
X91194421Y-67467464D01*
X91228750Y-67553202D01*
X91286189Y-67672873D01*
X91367598Y-67770430D01*
X91465549Y-67833438D01*
X91532774Y-67853517D01*
X91601207Y-67862167D01*
X91668106Y-67862167D01*
X91658440Y-67695190D01*
X91639428Y-67560636D01*
X91580669Y-67394859D01*
X91485845Y-67248645D01*
X91357206Y-67125246D01*
X91197000Y-67027915D01*
X91141882Y-67002791D01*
X91082839Y-66981275D01*
X91023463Y-66969147D01*
X90949764Y-66963790D01*
X90847750Y-66962587D01*
X90768589Y-66963201D01*
X90689189Y-66967215D01*
X90628495Y-66977160D01*
X90572972Y-66995522D01*
X90509083Y-67024787D01*
X90501587Y-67028540D01*
X90425481Y-67074218D01*
X90347229Y-67132387D01*
X90274382Y-67195969D01*
X90214490Y-67257887D01*
X90175104Y-67311064D01*
X90163776Y-67348424D01*
X89917907Y-67348424D01*
X89970325Y-67241928D01*
X90087251Y-67087946D01*
X90235610Y-66955162D01*
X90255467Y-66943250D01*
X91328713Y-66943250D01*
X91328992Y-66944133D01*
X91349255Y-66969687D01*
X91393373Y-67011938D01*
X91452334Y-67062214D01*
X91570085Y-67157706D01*
X91627043Y-67108713D01*
X91650541Y-67090724D01*
X91745185Y-67049177D01*
X91851738Y-67039056D01*
X91960601Y-67057818D01*
X92062173Y-67102917D01*
X92146855Y-67171807D01*
X92205046Y-67261945D01*
X92206276Y-67264943D01*
X92229212Y-67359155D01*
X92231852Y-67463161D01*
X92213524Y-67553872D01*
X92201806Y-67593364D01*
X92209317Y-67604422D01*
X92239148Y-67583199D01*
X92293131Y-67529125D01*
X92301341Y-67520292D01*
X92384053Y-67407633D01*
X92430489Y-67285527D01*
X92445162Y-67142500D01*
X92441752Y-67078144D01*
X92407767Y-66935699D01*
X92341802Y-66809274D01*
X92249376Y-66703252D01*
X92136009Y-66622016D01*
X92007217Y-66569948D01*
X91868520Y-66551433D01*
X91725436Y-66570853D01*
X91688203Y-66583051D01*
X91572065Y-66642208D01*
X91466200Y-66724837D01*
X91386637Y-66819187D01*
X91361191Y-66862158D01*
X91336063Y-66913669D01*
X91328713Y-66943250D01*
X90255467Y-66943250D01*
X90413833Y-66848248D01*
X90448158Y-66831916D01*
X90512425Y-66803679D01*
X90567372Y-66786088D01*
X90625912Y-66776633D01*
X90700956Y-66772802D01*
X90805417Y-66772083D01*
X90881653Y-66772885D01*
X90975603Y-66776129D01*
X91050210Y-66781289D01*
X91093981Y-66787740D01*
X91123335Y-66793729D01*
X91152451Y-66783331D01*
X91175590Y-66740922D01*
X91201077Y-66696460D01*
X91263173Y-66623419D01*
X91345844Y-66548026D01*
X91438626Y-66479519D01*
X91531051Y-66427137D01*
X91531560Y-66426900D01*
X91600571Y-66398160D01*
X91665015Y-66381057D01*
X91740487Y-66372754D01*
X91842583Y-66370409D01*
X91858730Y-66370461D01*
X92024045Y-66384938D01*
X92165018Y-66427855D01*
X92291407Y-66503408D01*
X92412967Y-66615796D01*
X92466850Y-66678804D01*
X92553170Y-66816680D01*
X92602570Y-66965846D01*
X92618704Y-67135530D01*
X92618660Y-67142500D01*
X92618584Y-67154673D01*
X92596130Y-67336021D01*
X92535545Y-67499354D01*
X92437544Y-67643246D01*
X92302839Y-67766273D01*
X92282756Y-67780269D01*
X92185919Y-67827589D01*
X92098079Y-67840648D01*
X92024560Y-67823360D01*
X91970686Y-67779640D01*
X91941780Y-67713402D01*
X91943166Y-67628560D01*
X91980167Y-67529028D01*
X91998959Y-67492395D01*
X92018611Y-67437564D01*
X92016035Y-67391293D01*
X91992338Y-67336070D01*
X91949333Y-67282244D01*
X91884171Y-67242699D01*
X91813644Y-67228617D01*
X91751625Y-67245233D01*
X91742028Y-67256500D01*
X91739890Y-67286025D01*
X91751519Y-67338996D01*
X91778084Y-67423266D01*
X91790163Y-67461605D01*
X91829087Y-67665206D01*
X91827502Y-67862167D01*
X91827445Y-67869299D01*
X91799880Y-68000795D01*
X91785731Y-68068298D01*
X91704440Y-68256619D01*
X91692594Y-68278229D01*
X91665203Y-68335963D01*
X91658363Y-68372952D01*
X91669384Y-68400209D01*
X91682386Y-68413738D01*
X91701105Y-68413150D01*
X91728629Y-68387333D01*
X91772363Y-68331332D01*
X91858721Y-68230075D01*
X92004483Y-68107547D01*
X92182451Y-68006624D01*
X92188370Y-68003862D01*
X92268965Y-67969533D01*
X92340991Y-67948176D01*
X92421407Y-67935978D01*
X92527170Y-67929128D01*
X92629865Y-67927887D01*
X92809187Y-67946148D01*
X92968973Y-67993616D01*
X93118486Y-68072536D01*
X93217556Y-68146679D01*
X93323401Y-68246666D01*
X93414211Y-68353644D01*
X93478311Y-68455193D01*
X93520755Y-68540980D01*
X93554651Y-68386782D01*
X93579517Y-68266489D01*
X93607350Y-68117631D01*
X93634043Y-67961911D01*
X93657625Y-67811385D01*
X93676123Y-67678108D01*
X93687567Y-67574135D01*
X93691779Y-67522981D01*
X93694337Y-67465262D01*
X93688991Y-67433770D01*
X93673103Y-67418525D01*
X93644032Y-67409547D01*
X93582083Y-67388439D01*
X93464932Y-67321560D01*
X93351706Y-67225083D01*
X93250732Y-67106662D01*
X93170334Y-66973955D01*
X93147551Y-66924627D01*
X93129216Y-66871653D01*
X93118700Y-66813677D01*
X93113901Y-66738266D01*
X93112718Y-66632983D01*
X93112710Y-66618954D01*
X93505022Y-66618954D01*
X93520050Y-66742792D01*
X93567909Y-66858343D01*
X93647611Y-66958368D01*
X93758167Y-67035629D01*
X93758229Y-67035660D01*
X93889817Y-67080308D01*
X94023124Y-67085210D01*
X94150922Y-67051172D01*
X94265980Y-66978999D01*
X94351108Y-66885595D01*
X94411245Y-66767231D01*
X94434847Y-66640466D01*
X94421724Y-66512410D01*
X94371687Y-66390171D01*
X94284548Y-66280858D01*
X94261248Y-66260684D01*
X94169425Y-66203253D01*
X94065958Y-66162902D01*
X93969833Y-66147667D01*
X93941738Y-66149244D01*
X93841280Y-66173189D01*
X93739412Y-66219739D01*
X93655119Y-66280858D01*
X93577412Y-66375365D01*
X93523813Y-66494066D01*
X93505022Y-66618954D01*
X93112710Y-66618954D01*
X93112583Y-66409216D01*
X92922083Y-66328561D01*
X92647547Y-66218684D01*
X92114572Y-66039241D01*
X91563167Y-65896209D01*
X90996685Y-65790398D01*
X90418482Y-65722622D01*
X90397292Y-65720955D01*
X90251456Y-65713076D01*
X90076826Y-65708456D01*
X89882289Y-65706927D01*
X89676729Y-65708322D01*
X89469033Y-65712471D01*
X89268085Y-65719209D01*
X89082770Y-65728366D01*
X88921974Y-65739776D01*
X88794583Y-65753271D01*
X88245546Y-65842836D01*
X87704875Y-65965154D01*
X87181171Y-66119982D01*
X86667333Y-66309176D01*
X86423917Y-66407727D01*
X86423917Y-66624844D01*
X86423917Y-66632238D01*
X86422939Y-66735439D01*
X86418479Y-66810642D01*
X86408301Y-66868656D01*
X86390171Y-66922139D01*
X86361854Y-66983750D01*
X86305181Y-67079580D01*
X86204268Y-67201402D01*
X86085907Y-67304235D01*
X85961773Y-67376614D01*
X85927150Y-67392106D01*
X85874318Y-67421096D01*
X85849105Y-67448214D01*
X85842737Y-67481167D01*
X85485506Y-67481167D01*
X85484970Y-67479201D01*
X85464224Y-67451369D01*
X85430917Y-67434777D01*
X85380207Y-67420747D01*
X85325840Y-67403716D01*
X85187839Y-67333585D01*
X85059193Y-67231466D01*
X84948231Y-67104767D01*
X84863280Y-66960897D01*
X84849918Y-66930139D01*
X84832263Y-66876270D01*
X84821706Y-66815035D01*
X84816588Y-66734797D01*
X84815250Y-66623917D01*
X84815259Y-66622318D01*
X85169631Y-66622318D01*
X85187355Y-66756945D01*
X85191093Y-66769152D01*
X85239269Y-66864327D01*
X85313938Y-66955112D01*
X85403171Y-67029202D01*
X85495039Y-67074294D01*
X85503483Y-67076754D01*
X85621482Y-67097931D01*
X85729118Y-67086853D01*
X85843199Y-67041958D01*
X85867361Y-67028946D01*
X85973697Y-66947858D01*
X86047335Y-66849412D01*
X86089733Y-66739708D01*
X86102349Y-66624844D01*
X86086643Y-66510919D01*
X86044074Y-66404032D01*
X85976100Y-66310281D01*
X85884180Y-66235765D01*
X85769774Y-66186582D01*
X85634339Y-66168833D01*
X85556507Y-66175092D01*
X85430904Y-66214455D01*
X85324863Y-66284848D01*
X85242936Y-66380281D01*
X85189675Y-66494768D01*
X85169631Y-66622318D01*
X84815259Y-66622318D01*
X84815618Y-66558346D01*
X84818833Y-66465786D01*
X84826743Y-66397456D01*
X84841005Y-66341719D01*
X84863280Y-66286936D01*
X84932068Y-66163431D01*
X85051486Y-66021473D01*
X85200260Y-65909936D01*
X85377922Y-65829236D01*
X85535370Y-65793810D01*
X85711587Y-65791805D01*
X85884466Y-65826262D01*
X86045582Y-65895426D01*
X86186511Y-65997545D01*
X86280358Y-66084050D01*
X86505881Y-65989564D01*
X86707752Y-65908123D01*
X87263828Y-65714674D01*
X87833101Y-65560280D01*
X88412532Y-65445264D01*
X88999085Y-65369951D01*
X89589721Y-65334664D01*
X90181403Y-65339728D01*
X90771092Y-65385467D01*
X91355750Y-65472206D01*
X91373386Y-65475489D01*
X91713604Y-65547990D01*
X92069802Y-65639723D01*
X92427414Y-65746360D01*
X92771872Y-65863574D01*
X93088607Y-65987035D01*
X93318631Y-66083626D01*
X93423006Y-65989784D01*
X93424700Y-65988266D01*
X93567578Y-65887010D01*
X93724464Y-65821871D01*
X93889572Y-65791598D01*
X94057119Y-65794941D01*
X94221319Y-65830650D01*
X94376389Y-65897473D01*
X94516544Y-65994161D01*
X94636000Y-66119462D01*
X94728973Y-66272126D01*
X94752042Y-66324824D01*
X94769229Y-66378483D01*
X94779131Y-66438153D01*
X94783665Y-66515931D01*
X94784750Y-66623917D01*
X94784738Y-66640466D01*
X94784737Y-66641985D01*
G37*
X62228238Y-67096758D02*
X62283574Y-67128118D01*
X62317076Y-67195176D01*
X62328333Y-67297272D01*
X62328151Y-67310527D01*
X62310195Y-67411675D01*
X62259541Y-67492940D01*
X62171461Y-67562308D01*
X62167865Y-67564455D01*
X62108059Y-67591192D01*
X62054531Y-67602254D01*
X62016336Y-67593330D01*
X61964657Y-67563723D01*
X61922458Y-67524546D01*
X61905000Y-67487509D01*
X61912950Y-67469125D01*
X61943172Y-67426622D01*
X61988226Y-67373683D01*
X62021188Y-67333652D01*
X62063407Y-67268645D01*
X62085921Y-67214942D01*
X62086753Y-67211105D01*
X62110258Y-67140967D01*
X62146366Y-67104675D01*
X62202725Y-67094333D01*
X62228238Y-67096758D01*
G36*
X62228238Y-67096758D02*
G01*
X62283574Y-67128118D01*
X62317076Y-67195176D01*
X62328333Y-67297272D01*
X62328151Y-67310527D01*
X62310195Y-67411675D01*
X62259541Y-67492940D01*
X62171461Y-67562308D01*
X62167865Y-67564455D01*
X62108059Y-67591192D01*
X62054531Y-67602254D01*
X62016336Y-67593330D01*
X61964657Y-67563723D01*
X61922458Y-67524546D01*
X61905000Y-67487509D01*
X61912950Y-67469125D01*
X61943172Y-67426622D01*
X61988226Y-67373683D01*
X62021188Y-67333652D01*
X62063407Y-67268645D01*
X62085921Y-67214942D01*
X62086753Y-67211105D01*
X62110258Y-67140967D01*
X62146366Y-67104675D01*
X62202725Y-67094333D01*
X62228238Y-67096758D01*
G37*
X58136830Y-68322027D02*
X58160284Y-68328797D01*
X58168257Y-68355103D01*
X58164472Y-68411958D01*
X58161464Y-68464175D01*
X58172345Y-68509864D01*
X58205132Y-68549216D01*
X58257054Y-68584910D01*
X58320505Y-68609459D01*
X58360763Y-68612942D01*
X58405425Y-68598319D01*
X58459865Y-68556868D01*
X58483683Y-68536494D01*
X58524989Y-68504107D01*
X58546823Y-68491333D01*
X58552711Y-68494741D01*
X58578133Y-68522932D01*
X58612820Y-68570330D01*
X58624694Y-68588746D01*
X58657077Y-68664630D01*
X58666030Y-68755538D01*
X58665292Y-68781566D01*
X58646912Y-68872730D01*
X58599757Y-68938353D01*
X58518333Y-68987042D01*
X58517598Y-68987357D01*
X58424671Y-69014472D01*
X58326067Y-69014973D01*
X58208096Y-68988946D01*
X58163704Y-68974444D01*
X58033301Y-68911157D01*
X57938902Y-68828155D01*
X57881519Y-68726555D01*
X57862167Y-68607474D01*
X57862956Y-68574436D01*
X57875866Y-68497439D01*
X57908054Y-68438706D01*
X57913201Y-68432452D01*
X57977717Y-68377942D01*
X58057969Y-68337698D01*
X58134054Y-68322000D01*
X58136830Y-68322027D01*
G36*
X58136830Y-68322027D02*
G01*
X58160284Y-68328797D01*
X58168257Y-68355103D01*
X58164472Y-68411958D01*
X58161464Y-68464175D01*
X58172345Y-68509864D01*
X58205132Y-68549216D01*
X58257054Y-68584910D01*
X58320505Y-68609459D01*
X58360763Y-68612942D01*
X58405425Y-68598319D01*
X58459865Y-68556868D01*
X58483683Y-68536494D01*
X58524989Y-68504107D01*
X58546823Y-68491333D01*
X58552711Y-68494741D01*
X58578133Y-68522932D01*
X58612820Y-68570330D01*
X58624694Y-68588746D01*
X58657077Y-68664630D01*
X58666030Y-68755538D01*
X58665292Y-68781566D01*
X58646912Y-68872730D01*
X58599757Y-68938353D01*
X58518333Y-68987042D01*
X58517598Y-68987357D01*
X58424671Y-69014472D01*
X58326067Y-69014973D01*
X58208096Y-68988946D01*
X58163704Y-68974444D01*
X58033301Y-68911157D01*
X57938902Y-68828155D01*
X57881519Y-68726555D01*
X57862167Y-68607474D01*
X57862956Y-68574436D01*
X57875866Y-68497439D01*
X57908054Y-68438706D01*
X57913201Y-68432452D01*
X57977717Y-68377942D01*
X58057969Y-68337698D01*
X58134054Y-68322000D01*
X58136830Y-68322027D01*
G37*
X64254634Y-67496087D02*
X64463316Y-67876199D01*
X64568416Y-68100053D01*
X64578802Y-68126208D01*
X64721359Y-68485234D01*
X64837292Y-68870354D01*
X64917953Y-69262877D01*
X64965076Y-69670270D01*
X64980397Y-70100000D01*
X64976097Y-70331247D01*
X64943676Y-70751213D01*
X64878099Y-71152793D01*
X64777721Y-71543071D01*
X64640901Y-71929127D01*
X64492550Y-72259000D01*
X64465996Y-72318046D01*
X64381678Y-72480766D01*
X64147772Y-72869419D01*
X63882166Y-73231717D01*
X63586934Y-73566251D01*
X63264152Y-73871612D01*
X62915897Y-74146390D01*
X62544244Y-74389175D01*
X62151269Y-74598558D01*
X61739047Y-74773130D01*
X61309655Y-74911480D01*
X60865168Y-75012200D01*
X60407662Y-75073879D01*
X60389016Y-75075418D01*
X60282290Y-75081126D01*
X60151386Y-75084455D01*
X60011163Y-75085152D01*
X59876480Y-75082962D01*
X59814857Y-75080858D01*
X59388191Y-75048276D01*
X58982349Y-74983579D01*
X58589279Y-74884798D01*
X58200930Y-74749962D01*
X57809250Y-74577100D01*
X57488275Y-74406969D01*
X57107153Y-74163387D01*
X56753180Y-73887569D01*
X56425739Y-73578977D01*
X56124216Y-73237071D01*
X55847994Y-72861313D01*
X55781584Y-72759675D01*
X55559342Y-72371670D01*
X55374992Y-71968401D01*
X55228533Y-71552713D01*
X55119966Y-71127451D01*
X55049291Y-70695459D01*
X55016508Y-70259583D01*
X55021616Y-69822669D01*
X55064616Y-69387560D01*
X55079282Y-69309517D01*
X56110909Y-69309517D01*
X56111232Y-69440150D01*
X56119204Y-69579502D01*
X56134197Y-69714068D01*
X56155584Y-69830342D01*
X56157506Y-69838264D01*
X56184768Y-69923841D01*
X56225130Y-70004146D01*
X56283884Y-70086712D01*
X56366323Y-70179069D01*
X56477739Y-70288747D01*
X56652192Y-70453881D01*
X56640419Y-70583722D01*
X56638234Y-70615985D01*
X56649509Y-70754948D01*
X56697211Y-70873861D01*
X56782405Y-70975662D01*
X56870887Y-71038834D01*
X56995717Y-71084331D01*
X57131190Y-71091343D01*
X57273206Y-71059781D01*
X57417667Y-70989556D01*
X57443784Y-70974026D01*
X57493072Y-70950711D01*
X57548190Y-70935628D01*
X57621304Y-70925980D01*
X57724583Y-70918967D01*
X57771310Y-70915977D01*
X57878727Y-70906202D01*
X57977131Y-70893735D01*
X58049871Y-70880542D01*
X58099641Y-70869365D01*
X58145354Y-70863663D01*
X58172024Y-70871233D01*
X58192477Y-70893216D01*
X58216550Y-70941087D01*
X58234563Y-71002692D01*
X58237721Y-71051630D01*
X58222154Y-71100122D01*
X58181916Y-71161935D01*
X58158238Y-71196062D01*
X58127995Y-71247553D01*
X58116167Y-71279971D01*
X58118646Y-71302492D01*
X58141894Y-71355967D01*
X58192240Y-71419416D01*
X58272897Y-71496528D01*
X58387077Y-71590990D01*
X58598321Y-71757997D01*
X58624113Y-71917884D01*
X58625563Y-71926775D01*
X58640619Y-72010383D01*
X58655662Y-72081094D01*
X58667639Y-72124412D01*
X58674576Y-72158323D01*
X58654836Y-72196397D01*
X58637433Y-72219471D01*
X58610872Y-72277564D01*
X58586102Y-72352308D01*
X58567806Y-72428966D01*
X58560667Y-72492798D01*
X58560391Y-72505613D01*
X58552258Y-72535654D01*
X58524396Y-72551901D01*
X58465548Y-72562617D01*
X58431406Y-72569149D01*
X58346861Y-72594501D01*
X58266552Y-72628292D01*
X58194558Y-72671970D01*
X58107089Y-72756501D01*
X58056007Y-72853351D01*
X58040868Y-72957528D01*
X58061226Y-73064042D01*
X58116635Y-73167904D01*
X58206649Y-73264122D01*
X58330822Y-73347708D01*
X58383136Y-73375759D01*
X58428858Y-73400322D01*
X58447821Y-73410578D01*
X58459410Y-73432747D01*
X58466465Y-73473109D01*
X58466755Y-73511749D01*
X58458506Y-73529000D01*
X58426431Y-73535884D01*
X58376836Y-73553477D01*
X58329439Y-73565725D01*
X58253719Y-73576062D01*
X58169083Y-73581262D01*
X58043153Y-73592266D01*
X57889166Y-73630045D01*
X57755309Y-73691307D01*
X57648216Y-73772816D01*
X57574519Y-73871336D01*
X57569650Y-73881493D01*
X57554080Y-73964053D01*
X57574406Y-74048343D01*
X57626003Y-74126988D01*
X57704244Y-74192617D01*
X57804501Y-74237855D01*
X57808224Y-74238931D01*
X57885952Y-74254394D01*
X57984318Y-74265120D01*
X58082967Y-74268843D01*
X58180650Y-74264499D01*
X58317299Y-74239421D01*
X58441978Y-74187375D01*
X58570364Y-74103026D01*
X58629646Y-74059689D01*
X58665750Y-74038797D01*
X58684462Y-74038977D01*
X58693583Y-74057337D01*
X58696897Y-74066703D01*
X58736203Y-74109181D01*
X58807327Y-74143434D01*
X58901896Y-74167815D01*
X59011536Y-74180679D01*
X59127876Y-74180378D01*
X59242542Y-74165268D01*
X59306124Y-74147147D01*
X59394537Y-74098290D01*
X59450986Y-74031131D01*
X59470833Y-73950041D01*
X59463915Y-73886981D01*
X59432807Y-73776335D01*
X59379577Y-73645237D01*
X59307398Y-73500475D01*
X59219446Y-73348841D01*
X59118893Y-73197124D01*
X59110143Y-73184729D01*
X59067597Y-73123490D01*
X59037658Y-73078778D01*
X59026346Y-73059540D01*
X59032270Y-73058246D01*
X59071979Y-73056070D01*
X59142864Y-73054327D01*
X59237669Y-73053170D01*
X59349137Y-73052750D01*
X59387436Y-73052727D01*
X59502858Y-73051967D01*
X59587135Y-73049309D01*
X59649045Y-73043652D01*
X59697363Y-73033897D01*
X59740867Y-73018942D01*
X59788333Y-72997687D01*
X59838876Y-72971473D01*
X59908673Y-72928303D01*
X59957667Y-72889621D01*
X59990037Y-72862610D01*
X60030693Y-72844441D01*
X60090047Y-72833103D01*
X60179917Y-72825170D01*
X60282367Y-72813385D01*
X60391850Y-72792968D01*
X60482948Y-72768496D01*
X60616645Y-72723269D01*
X60684031Y-72780154D01*
X60756914Y-72831938D01*
X60879118Y-72896250D01*
X61020905Y-72952262D01*
X61169458Y-72994321D01*
X61234662Y-73009334D01*
X61290624Y-73025167D01*
X61320103Y-73041238D01*
X61331579Y-73062747D01*
X61333533Y-73094891D01*
X61340667Y-73158275D01*
X61381604Y-73254526D01*
X61452562Y-73331843D01*
X61546286Y-73383307D01*
X61655522Y-73402000D01*
X61700198Y-73400733D01*
X61778228Y-73386960D01*
X61846186Y-73352249D01*
X61920875Y-73289474D01*
X61932462Y-73278060D01*
X61979327Y-73211290D01*
X61984281Y-73150321D01*
X61947333Y-73095083D01*
X61918988Y-73066155D01*
X61905050Y-73044178D01*
X61918815Y-73031094D01*
X61961164Y-73004141D01*
X62022125Y-72970436D01*
X62121281Y-72908180D01*
X62243113Y-72804583D01*
X62348995Y-72685182D01*
X62426294Y-72562718D01*
X62428050Y-72559132D01*
X62458804Y-72489790D01*
X62476636Y-72427632D01*
X62484818Y-72356192D01*
X62486619Y-72259000D01*
X62478089Y-72122419D01*
X62450249Y-72013789D01*
X62398803Y-71923241D01*
X62319450Y-71839998D01*
X62231524Y-71782038D01*
X62127722Y-71757597D01*
X62010405Y-71772282D01*
X62002789Y-71774498D01*
X61917667Y-71816987D01*
X61825428Y-71889749D01*
X61734043Y-71984607D01*
X61651486Y-72093382D01*
X61585729Y-72207897D01*
X61514528Y-72357143D01*
X61238806Y-72276583D01*
X61219760Y-72270982D01*
X61113904Y-72238544D01*
X61020090Y-72207737D01*
X60947897Y-72181810D01*
X60906901Y-72164012D01*
X60841013Y-72141263D01*
X60729851Y-72134077D01*
X60584506Y-72148653D01*
X60406110Y-72184944D01*
X60336066Y-72201713D01*
X60255697Y-72220382D01*
X60197864Y-72233121D01*
X60171851Y-72237833D01*
X60162290Y-72228148D01*
X60142704Y-72187785D01*
X60120733Y-72126708D01*
X60098785Y-72066440D01*
X60029573Y-71924824D01*
X59927848Y-71759813D01*
X59792981Y-71570340D01*
X59754651Y-71518485D01*
X60213613Y-71518485D01*
X60279304Y-71624159D01*
X60310236Y-71670005D01*
X60345455Y-71712502D01*
X60368289Y-71728301D01*
X60402110Y-71723714D01*
X60479340Y-71706676D01*
X60573551Y-71681224D01*
X60670913Y-71651437D01*
X60757597Y-71621393D01*
X60819772Y-71595170D01*
X60852945Y-71579075D01*
X60901173Y-71561025D01*
X60952328Y-71552199D01*
X61019483Y-71550829D01*
X61115714Y-71555147D01*
X61189567Y-71558837D01*
X61262796Y-71559216D01*
X61317643Y-71552443D01*
X61367798Y-71536506D01*
X61426951Y-71509391D01*
X61456674Y-71494079D01*
X61554563Y-71427259D01*
X61633560Y-71339984D01*
X61704167Y-71221340D01*
X61754988Y-71121049D01*
X61893435Y-71112233D01*
X61923030Y-71110070D01*
X62006576Y-71098083D01*
X62054366Y-71077121D01*
X62071376Y-71043715D01*
X62062583Y-70994400D01*
X62054437Y-70976000D01*
X62002126Y-70918806D01*
X61918114Y-70873850D01*
X61810048Y-70844390D01*
X61685574Y-70833686D01*
X61518033Y-70847252D01*
X61341857Y-70894909D01*
X61166388Y-70979016D01*
X60985817Y-71101800D01*
X60966554Y-71101285D01*
X60922118Y-71074357D01*
X60860898Y-71021207D01*
X60829906Y-70992184D01*
X60777358Y-70950136D01*
X60735212Y-70931348D01*
X60691947Y-70929573D01*
X60650226Y-70938673D01*
X60615583Y-70964494D01*
X60598600Y-71010882D01*
X60598754Y-71082539D01*
X60615520Y-71184163D01*
X60648375Y-71320455D01*
X60649205Y-71323799D01*
X60648390Y-71353911D01*
X60623769Y-71378831D01*
X60567036Y-71407446D01*
X60484617Y-71441312D01*
X60270848Y-71505841D01*
X60213613Y-71518485D01*
X59754651Y-71518485D01*
X59748118Y-71509646D01*
X59702625Y-71445663D01*
X59673053Y-71401000D01*
X59664306Y-71382805D01*
X59675939Y-71374619D01*
X59714642Y-71348135D01*
X59769529Y-71310929D01*
X59881331Y-71223302D01*
X60013593Y-71093473D01*
X60147132Y-70937369D01*
X60232849Y-70820683D01*
X62324326Y-70820683D01*
X62400413Y-70904903D01*
X62428782Y-70938601D01*
X62463105Y-70988082D01*
X62476500Y-71020811D01*
X62477045Y-71024970D01*
X62486541Y-71035119D01*
X62511939Y-71042488D01*
X62523361Y-71043715D01*
X62558526Y-71047493D01*
X62631586Y-71050553D01*
X62736403Y-71052082D01*
X62878264Y-71052500D01*
X62953506Y-71052482D01*
X63073883Y-71052091D01*
X63160576Y-71050672D01*
X63219337Y-71047560D01*
X63255916Y-71042089D01*
X63276065Y-71033595D01*
X63285535Y-71021412D01*
X63290078Y-71004875D01*
X63293057Y-70983637D01*
X63300493Y-70923660D01*
X63311755Y-70829700D01*
X63326358Y-70705982D01*
X63343820Y-70556730D01*
X63363655Y-70386168D01*
X63385381Y-70198519D01*
X63408514Y-69998009D01*
X63432570Y-69788860D01*
X63457065Y-69575298D01*
X63481516Y-69361546D01*
X63505438Y-69151828D01*
X63528348Y-68950369D01*
X63549763Y-68761392D01*
X63569198Y-68589121D01*
X63586169Y-68437781D01*
X63600194Y-68311596D01*
X63610788Y-68214789D01*
X63617467Y-68151585D01*
X63619749Y-68126208D01*
X63601560Y-68119758D01*
X63554846Y-68114305D01*
X63493690Y-68110582D01*
X63432184Y-68109171D01*
X63384421Y-68110657D01*
X63364493Y-68115625D01*
X63364251Y-68117579D01*
X63360473Y-68150274D01*
X63352444Y-68220486D01*
X63340566Y-68324673D01*
X63325243Y-68459295D01*
X63306877Y-68620811D01*
X63285870Y-68805681D01*
X63263878Y-68999333D01*
X63262626Y-69010362D01*
X63237546Y-69231316D01*
X63211035Y-69465000D01*
X63163018Y-69888333D01*
X63058583Y-70809083D01*
X62691455Y-70814883D01*
X62324326Y-70820683D01*
X60232849Y-70820683D01*
X60275683Y-70762374D01*
X60392984Y-70575873D01*
X60401590Y-70562011D01*
X60419285Y-70548128D01*
X60449141Y-70551729D01*
X60504538Y-70572395D01*
X60573631Y-70594528D01*
X60665648Y-70604425D01*
X60738733Y-70588042D01*
X60786943Y-70547142D01*
X60804333Y-70483489D01*
X60801236Y-70456340D01*
X60775367Y-70405068D01*
X60719120Y-70351709D01*
X60627528Y-70290850D01*
X60605737Y-70276868D01*
X60523561Y-70199300D01*
X60476993Y-70107326D01*
X60468179Y-70007387D01*
X60496549Y-69914792D01*
X61038359Y-69914792D01*
X61039091Y-69923962D01*
X61043769Y-69970477D01*
X61051983Y-70047162D01*
X61062860Y-70145944D01*
X61075526Y-70258750D01*
X61111501Y-70576250D01*
X61984500Y-70581776D01*
X62099109Y-70582444D01*
X62303027Y-70583224D01*
X62469395Y-70583156D01*
X62601418Y-70582164D01*
X62702303Y-70580169D01*
X62775255Y-70577093D01*
X62823480Y-70572860D01*
X62850184Y-70567391D01*
X62858573Y-70560610D01*
X62859393Y-70550319D01*
X62864255Y-70502475D01*
X62872695Y-70424664D01*
X62883839Y-70324881D01*
X62896811Y-70211125D01*
X62933975Y-69888333D01*
X61985571Y-69888333D01*
X61802058Y-69888470D01*
X61598176Y-69889102D01*
X61431297Y-69890325D01*
X61298410Y-69892223D01*
X61196499Y-69894881D01*
X61122552Y-69898383D01*
X61073556Y-69902812D01*
X61046496Y-69908254D01*
X61038359Y-69914792D01*
X60496549Y-69914792D01*
X60499266Y-69905923D01*
X60516829Y-69874748D01*
X60558243Y-69808849D01*
X60605100Y-69740405D01*
X60613291Y-69728812D01*
X60663397Y-69639980D01*
X60677246Y-69564362D01*
X60654583Y-69493811D01*
X60595157Y-69420176D01*
X60585277Y-69410562D01*
X60508432Y-69354511D01*
X60441007Y-69337140D01*
X60387195Y-69357093D01*
X60351189Y-69413016D01*
X60337179Y-69503553D01*
X60334557Y-69565157D01*
X60322585Y-69624351D01*
X60294112Y-69669214D01*
X60241743Y-69710251D01*
X60158082Y-69757969D01*
X60105314Y-69787399D01*
X60040306Y-69831103D01*
X59996654Y-69875497D01*
X59962958Y-69930673D01*
X59927564Y-70033464D01*
X59916331Y-70172797D01*
X59937201Y-70327883D01*
X59941307Y-70346711D01*
X59947184Y-70402262D01*
X59936591Y-70453442D01*
X59906317Y-70520241D01*
X59905611Y-70521632D01*
X59805120Y-70691180D01*
X59694037Y-70826882D01*
X59574892Y-70926618D01*
X59450216Y-70988264D01*
X59322537Y-71009702D01*
X59317484Y-71009683D01*
X59258429Y-71006849D01*
X59172413Y-71000007D01*
X59069312Y-70990238D01*
X58959005Y-70978623D01*
X58851370Y-70966245D01*
X58756284Y-70954184D01*
X58683625Y-70943522D01*
X58643272Y-70935341D01*
X58633775Y-70929680D01*
X58606335Y-70892570D01*
X58582756Y-70835565D01*
X58579411Y-70824266D01*
X58567026Y-70771956D01*
X58570759Y-70743394D01*
X58591722Y-70724841D01*
X58701347Y-70655188D01*
X58849162Y-70550294D01*
X58981323Y-70443685D01*
X59092189Y-70340340D01*
X59176119Y-70245243D01*
X59227474Y-70163374D01*
X59237597Y-70140482D01*
X59254031Y-70092012D01*
X59251915Y-70053678D01*
X59231811Y-70005025D01*
X59179641Y-69929760D01*
X59096704Y-69875260D01*
X58992445Y-69856583D01*
X58966842Y-69857590D01*
X58887225Y-69879619D01*
X58824360Y-69934118D01*
X58771961Y-70025917D01*
X58700034Y-70156142D01*
X58609687Y-70261922D01*
X58508508Y-70332467D01*
X58395766Y-70370984D01*
X58270394Y-70377984D01*
X58153399Y-70348081D01*
X58051450Y-70283107D01*
X57971216Y-70184894D01*
X57956039Y-70155565D01*
X57922274Y-70043429D01*
X57911865Y-69916829D01*
X57925102Y-69791861D01*
X57962271Y-69684621D01*
X58011177Y-69607153D01*
X58080890Y-69532455D01*
X58169199Y-69471004D01*
X58280007Y-69421444D01*
X58417220Y-69382420D01*
X58584742Y-69352574D01*
X58786478Y-69330550D01*
X59026333Y-69314992D01*
X59123798Y-69310027D01*
X59274562Y-69301047D01*
X59391951Y-69291453D01*
X59481773Y-69280209D01*
X59549835Y-69266276D01*
X59601945Y-69248618D01*
X59643910Y-69226198D01*
X59681538Y-69197978D01*
X59706194Y-69173014D01*
X59738818Y-69104265D01*
X59736290Y-69028393D01*
X59701184Y-68952316D01*
X59636076Y-68882949D01*
X59543538Y-68827209D01*
X59452900Y-68787116D01*
X59524590Y-68680585D01*
X59535847Y-68663458D01*
X59592924Y-68552695D01*
X59613448Y-68452691D01*
X59598902Y-68356988D01*
X59598126Y-68354662D01*
X59542380Y-68251692D01*
X59455680Y-68174903D01*
X59342194Y-68126912D01*
X59206087Y-68110333D01*
X60338167Y-68110333D01*
X60349448Y-68189708D01*
X60353681Y-68221734D01*
X60362747Y-68294720D01*
X60374768Y-68394376D01*
X60388689Y-68511921D01*
X60403452Y-68638574D01*
X60415715Y-68743097D01*
X60428570Y-68849103D01*
X60439247Y-68933278D01*
X60446886Y-68988876D01*
X60450630Y-69009154D01*
X60457374Y-69011393D01*
X60493830Y-69024136D01*
X60550333Y-69044163D01*
X60577845Y-69054063D01*
X60641701Y-69077763D01*
X60685793Y-69095105D01*
X60701227Y-69100891D01*
X60718343Y-69096733D01*
X60714129Y-69061022D01*
X60712812Y-69054313D01*
X60705862Y-69007184D01*
X60704854Y-68999333D01*
X60929415Y-68999333D01*
X60940595Y-69068125D01*
X60944032Y-69091612D01*
X60944683Y-69096733D01*
X60952712Y-69159955D01*
X60963176Y-69250008D01*
X60973858Y-69348583D01*
X60979470Y-69401369D01*
X60990433Y-69499685D01*
X61000429Y-69583749D01*
X61007831Y-69639625D01*
X61019721Y-69719000D01*
X62955729Y-69719000D01*
X62982387Y-69459708D01*
X62992774Y-69359660D01*
X63004140Y-69252221D01*
X63013966Y-69161371D01*
X63020887Y-69099875D01*
X63032730Y-68999333D01*
X60929415Y-68999333D01*
X60704854Y-68999333D01*
X60695584Y-68927147D01*
X60682835Y-68821255D01*
X60668469Y-68696562D01*
X60653344Y-68560125D01*
X60604433Y-68110333D01*
X60338167Y-68110333D01*
X59206087Y-68110333D01*
X59187070Y-68110622D01*
X59061479Y-68130654D01*
X58955114Y-68184161D01*
X58864026Y-68273881D01*
X58784264Y-68402550D01*
X58748864Y-68472517D01*
X58649474Y-68396709D01*
X58611263Y-68368900D01*
X58527012Y-68313297D01*
X58449257Y-68268033D01*
X58348431Y-68215165D01*
X58383105Y-68148113D01*
X58390896Y-68132477D01*
X58425731Y-68051175D01*
X58460033Y-67956072D01*
X58489661Y-67860300D01*
X58510475Y-67776990D01*
X58518333Y-67719276D01*
X58515832Y-67677629D01*
X58503135Y-67643777D01*
X58473799Y-67621851D01*
X58421409Y-67609322D01*
X58339551Y-67603659D01*
X58221812Y-67602333D01*
X58100573Y-67603967D01*
X58009934Y-67610587D01*
X57951175Y-67624406D01*
X57919000Y-67647637D01*
X57908112Y-67682490D01*
X57913215Y-67731176D01*
X57920687Y-67776284D01*
X57930841Y-67855709D01*
X57939381Y-67941000D01*
X57951014Y-68078583D01*
X57552049Y-68078583D01*
X57450655Y-68079079D01*
X57278325Y-68083372D01*
X57138835Y-68092912D01*
X57025984Y-68108711D01*
X56933571Y-68131782D01*
X56855395Y-68163136D01*
X56785256Y-68203787D01*
X56752100Y-68228396D01*
X56665465Y-68309286D01*
X56570122Y-68416648D01*
X56471598Y-68542430D01*
X56375422Y-68678582D01*
X56287120Y-68817053D01*
X56212219Y-68949793D01*
X56156248Y-69068749D01*
X56124734Y-69165872D01*
X56118862Y-69201110D01*
X56110909Y-69309517D01*
X55079282Y-69309517D01*
X55145508Y-68957103D01*
X55264292Y-68534142D01*
X55420968Y-68121522D01*
X55615535Y-67722089D01*
X55847994Y-67338687D01*
X55876659Y-67298743D01*
X61576917Y-67298743D01*
X61577159Y-67347745D01*
X61580331Y-67419430D01*
X61589892Y-67468688D01*
X61609208Y-67508723D01*
X61641644Y-67552743D01*
X61658117Y-67571748D01*
X61726589Y-67633635D01*
X61799587Y-67681708D01*
X61868789Y-67708476D01*
X61992204Y-67728457D01*
X62119957Y-67722206D01*
X62234265Y-67689410D01*
X62317706Y-67638485D01*
X62408850Y-67544646D01*
X62474772Y-67429054D01*
X62510196Y-67301612D01*
X62509844Y-67172222D01*
X62509474Y-67170017D01*
X62494125Y-67114945D01*
X62464372Y-67033232D01*
X62424349Y-66935541D01*
X62378187Y-66832535D01*
X62314116Y-66690444D01*
X62226847Y-66474107D01*
X62160266Y-66276897D01*
X62116962Y-66106007D01*
X62101416Y-66029591D01*
X62086333Y-65965312D01*
X62073443Y-65928908D01*
X62059850Y-65912697D01*
X62042658Y-65909000D01*
X62031380Y-65914499D01*
X62009826Y-65954899D01*
X61990395Y-66030708D01*
X61953443Y-66188678D01*
X61888738Y-66399599D01*
X61805648Y-66622714D01*
X61708209Y-66846358D01*
X61687527Y-66890501D01*
X61642143Y-66989377D01*
X61611246Y-67063143D01*
X61592056Y-67121381D01*
X61581791Y-67173673D01*
X61577672Y-67229600D01*
X61576917Y-67298743D01*
X55876659Y-67298743D01*
X56051326Y-67055350D01*
X56344056Y-66706828D01*
X56662011Y-66391803D01*
X57006665Y-66108976D01*
X57379488Y-65857050D01*
X57781954Y-65634728D01*
X57984828Y-65538588D01*
X58370831Y-65383534D01*
X58758536Y-65265690D01*
X59154758Y-65183476D01*
X59566308Y-65135307D01*
X60000000Y-65119603D01*
X60303301Y-65126909D01*
X60703391Y-65162279D01*
X61086360Y-65228752D01*
X61460642Y-65328287D01*
X61834671Y-65462843D01*
X62216881Y-65634378D01*
X62507735Y-65788840D01*
X62865307Y-66016392D01*
X63202559Y-66276864D01*
X63525457Y-66574543D01*
X63744280Y-66806512D01*
X64016397Y-67141527D01*
X64123962Y-67301612D01*
X64254634Y-67496087D01*
G36*
X64254634Y-67496087D02*
G01*
X64463316Y-67876199D01*
X64568416Y-68100053D01*
X64578802Y-68126208D01*
X64721359Y-68485234D01*
X64837292Y-68870354D01*
X64917953Y-69262877D01*
X64965076Y-69670270D01*
X64980397Y-70100000D01*
X64976097Y-70331247D01*
X64943676Y-70751213D01*
X64878099Y-71152793D01*
X64777721Y-71543071D01*
X64640901Y-71929127D01*
X64492550Y-72259000D01*
X64465996Y-72318046D01*
X64381678Y-72480766D01*
X64147772Y-72869419D01*
X63882166Y-73231717D01*
X63586934Y-73566251D01*
X63264152Y-73871612D01*
X62915897Y-74146390D01*
X62544244Y-74389175D01*
X62151269Y-74598558D01*
X61739047Y-74773130D01*
X61309655Y-74911480D01*
X60865168Y-75012200D01*
X60407662Y-75073879D01*
X60389016Y-75075418D01*
X60282290Y-75081126D01*
X60151386Y-75084455D01*
X60011163Y-75085152D01*
X59876480Y-75082962D01*
X59814857Y-75080858D01*
X59388191Y-75048276D01*
X58982349Y-74983579D01*
X58589279Y-74884798D01*
X58200930Y-74749962D01*
X57809250Y-74577100D01*
X57488275Y-74406969D01*
X57107153Y-74163387D01*
X56753180Y-73887569D01*
X56425739Y-73578977D01*
X56124216Y-73237071D01*
X55847994Y-72861313D01*
X55781584Y-72759675D01*
X55559342Y-72371670D01*
X55374992Y-71968401D01*
X55228533Y-71552713D01*
X55119966Y-71127451D01*
X55049291Y-70695459D01*
X55016508Y-70259583D01*
X55021616Y-69822669D01*
X55064616Y-69387560D01*
X55079282Y-69309517D01*
X56110909Y-69309517D01*
X56111232Y-69440150D01*
X56119204Y-69579502D01*
X56134197Y-69714068D01*
X56155584Y-69830342D01*
X56157506Y-69838264D01*
X56184768Y-69923841D01*
X56225130Y-70004146D01*
X56283884Y-70086712D01*
X56366323Y-70179069D01*
X56477739Y-70288747D01*
X56652192Y-70453881D01*
X56640419Y-70583722D01*
X56638234Y-70615985D01*
X56649509Y-70754948D01*
X56697211Y-70873861D01*
X56782405Y-70975662D01*
X56870887Y-71038834D01*
X56995717Y-71084331D01*
X57131190Y-71091343D01*
X57273206Y-71059781D01*
X57417667Y-70989556D01*
X57443784Y-70974026D01*
X57493072Y-70950711D01*
X57548190Y-70935628D01*
X57621304Y-70925980D01*
X57724583Y-70918967D01*
X57771310Y-70915977D01*
X57878727Y-70906202D01*
X57977131Y-70893735D01*
X58049871Y-70880542D01*
X58099641Y-70869365D01*
X58145354Y-70863663D01*
X58172024Y-70871233D01*
X58192477Y-70893216D01*
X58216550Y-70941087D01*
X58234563Y-71002692D01*
X58237721Y-71051630D01*
X58222154Y-71100122D01*
X58181916Y-71161935D01*
X58158238Y-71196062D01*
X58127995Y-71247553D01*
X58116167Y-71279971D01*
X58118646Y-71302492D01*
X58141894Y-71355967D01*
X58192240Y-71419416D01*
X58272897Y-71496528D01*
X58387077Y-71590990D01*
X58598321Y-71757997D01*
X58624113Y-71917884D01*
X58625563Y-71926775D01*
X58640619Y-72010383D01*
X58655662Y-72081094D01*
X58667639Y-72124412D01*
X58674576Y-72158323D01*
X58654836Y-72196397D01*
X58637433Y-72219471D01*
X58610872Y-72277564D01*
X58586102Y-72352308D01*
X58567806Y-72428966D01*
X58560667Y-72492798D01*
X58560391Y-72505613D01*
X58552258Y-72535654D01*
X58524396Y-72551901D01*
X58465548Y-72562617D01*
X58431406Y-72569149D01*
X58346861Y-72594501D01*
X58266552Y-72628292D01*
X58194558Y-72671970D01*
X58107089Y-72756501D01*
X58056007Y-72853351D01*
X58040868Y-72957528D01*
X58061226Y-73064042D01*
X58116635Y-73167904D01*
X58206649Y-73264122D01*
X58330822Y-73347708D01*
X58383136Y-73375759D01*
X58428858Y-73400322D01*
X58447821Y-73410578D01*
X58459410Y-73432747D01*
X58466465Y-73473109D01*
X58466755Y-73511749D01*
X58458506Y-73529000D01*
X58426431Y-73535884D01*
X58376836Y-73553477D01*
X58329439Y-73565725D01*
X58253719Y-73576062D01*
X58169083Y-73581262D01*
X58043153Y-73592266D01*
X57889166Y-73630045D01*
X57755309Y-73691307D01*
X57648216Y-73772816D01*
X57574519Y-73871336D01*
X57569650Y-73881493D01*
X57554080Y-73964053D01*
X57574406Y-74048343D01*
X57626003Y-74126988D01*
X57704244Y-74192617D01*
X57804501Y-74237855D01*
X57808224Y-74238931D01*
X57885952Y-74254394D01*
X57984318Y-74265120D01*
X58082967Y-74268843D01*
X58180650Y-74264499D01*
X58317299Y-74239421D01*
X58441978Y-74187375D01*
X58570364Y-74103026D01*
X58629646Y-74059689D01*
X58665750Y-74038797D01*
X58684462Y-74038977D01*
X58693583Y-74057337D01*
X58696897Y-74066703D01*
X58736203Y-74109181D01*
X58807327Y-74143434D01*
X58901896Y-74167815D01*
X59011536Y-74180679D01*
X59127876Y-74180378D01*
X59242542Y-74165268D01*
X59306124Y-74147147D01*
X59394537Y-74098290D01*
X59450986Y-74031131D01*
X59470833Y-73950041D01*
X59463915Y-73886981D01*
X59432807Y-73776335D01*
X59379577Y-73645237D01*
X59307398Y-73500475D01*
X59219446Y-73348841D01*
X59118893Y-73197124D01*
X59110143Y-73184729D01*
X59067597Y-73123490D01*
X59037658Y-73078778D01*
X59026346Y-73059540D01*
X59032270Y-73058246D01*
X59071979Y-73056070D01*
X59142864Y-73054327D01*
X59237669Y-73053170D01*
X59349137Y-73052750D01*
X59387436Y-73052727D01*
X59502858Y-73051967D01*
X59587135Y-73049309D01*
X59649045Y-73043652D01*
X59697363Y-73033897D01*
X59740867Y-73018942D01*
X59788333Y-72997687D01*
X59838876Y-72971473D01*
X59908673Y-72928303D01*
X59957667Y-72889621D01*
X59990037Y-72862610D01*
X60030693Y-72844441D01*
X60090047Y-72833103D01*
X60179917Y-72825170D01*
X60282367Y-72813385D01*
X60391850Y-72792968D01*
X60482948Y-72768496D01*
X60616645Y-72723269D01*
X60684031Y-72780154D01*
X60756914Y-72831938D01*
X60879118Y-72896250D01*
X61020905Y-72952262D01*
X61169458Y-72994321D01*
X61234662Y-73009334D01*
X61290624Y-73025167D01*
X61320103Y-73041238D01*
X61331579Y-73062747D01*
X61333533Y-73094891D01*
X61340667Y-73158275D01*
X61381604Y-73254526D01*
X61452562Y-73331843D01*
X61546286Y-73383307D01*
X61655522Y-73402000D01*
X61700198Y-73400733D01*
X61778228Y-73386960D01*
X61846186Y-73352249D01*
X61920875Y-73289474D01*
X61932462Y-73278060D01*
X61979327Y-73211290D01*
X61984281Y-73150321D01*
X61947333Y-73095083D01*
X61918988Y-73066155D01*
X61905050Y-73044178D01*
X61918815Y-73031094D01*
X61961164Y-73004141D01*
X62022125Y-72970436D01*
X62121281Y-72908180D01*
X62243113Y-72804583D01*
X62348995Y-72685182D01*
X62426294Y-72562718D01*
X62428050Y-72559132D01*
X62458804Y-72489790D01*
X62476636Y-72427632D01*
X62484818Y-72356192D01*
X62486619Y-72259000D01*
X62478089Y-72122419D01*
X62450249Y-72013789D01*
X62398803Y-71923241D01*
X62319450Y-71839998D01*
X62231524Y-71782038D01*
X62127722Y-71757597D01*
X62010405Y-71772282D01*
X62002789Y-71774498D01*
X61917667Y-71816987D01*
X61825428Y-71889749D01*
X61734043Y-71984607D01*
X61651486Y-72093382D01*
X61585729Y-72207897D01*
X61514528Y-72357143D01*
X61238806Y-72276583D01*
X61219760Y-72270982D01*
X61113904Y-72238544D01*
X61020090Y-72207737D01*
X60947897Y-72181810D01*
X60906901Y-72164012D01*
X60841013Y-72141263D01*
X60729851Y-72134077D01*
X60584506Y-72148653D01*
X60406110Y-72184944D01*
X60336066Y-72201713D01*
X60255697Y-72220382D01*
X60197864Y-72233121D01*
X60171851Y-72237833D01*
X60162290Y-72228148D01*
X60142704Y-72187785D01*
X60120733Y-72126708D01*
X60098785Y-72066440D01*
X60029573Y-71924824D01*
X59927848Y-71759813D01*
X59792981Y-71570340D01*
X59754651Y-71518485D01*
X60213613Y-71518485D01*
X60279304Y-71624159D01*
X60310236Y-71670005D01*
X60345455Y-71712502D01*
X60368289Y-71728301D01*
X60402110Y-71723714D01*
X60479340Y-71706676D01*
X60573551Y-71681224D01*
X60670913Y-71651437D01*
X60757597Y-71621393D01*
X60819772Y-71595170D01*
X60852945Y-71579075D01*
X60901173Y-71561025D01*
X60952328Y-71552199D01*
X61019483Y-71550829D01*
X61115714Y-71555147D01*
X61189567Y-71558837D01*
X61262796Y-71559216D01*
X61317643Y-71552443D01*
X61367798Y-71536506D01*
X61426951Y-71509391D01*
X61456674Y-71494079D01*
X61554563Y-71427259D01*
X61633560Y-71339984D01*
X61704167Y-71221340D01*
X61754988Y-71121049D01*
X61893435Y-71112233D01*
X61923030Y-71110070D01*
X62006576Y-71098083D01*
X62054366Y-71077121D01*
X62071376Y-71043715D01*
X62062583Y-70994400D01*
X62054437Y-70976000D01*
X62002126Y-70918806D01*
X61918114Y-70873850D01*
X61810048Y-70844390D01*
X61685574Y-70833686D01*
X61518033Y-70847252D01*
X61341857Y-70894909D01*
X61166388Y-70979016D01*
X60985817Y-71101800D01*
X60966554Y-71101285D01*
X60922118Y-71074357D01*
X60860898Y-71021207D01*
X60829906Y-70992184D01*
X60777358Y-70950136D01*
X60735212Y-70931348D01*
X60691947Y-70929573D01*
X60650226Y-70938673D01*
X60615583Y-70964494D01*
X60598600Y-71010882D01*
X60598754Y-71082539D01*
X60615520Y-71184163D01*
X60648375Y-71320455D01*
X60649205Y-71323799D01*
X60648390Y-71353911D01*
X60623769Y-71378831D01*
X60567036Y-71407446D01*
X60484617Y-71441312D01*
X60270848Y-71505841D01*
X60213613Y-71518485D01*
X59754651Y-71518485D01*
X59748118Y-71509646D01*
X59702625Y-71445663D01*
X59673053Y-71401000D01*
X59664306Y-71382805D01*
X59675939Y-71374619D01*
X59714642Y-71348135D01*
X59769529Y-71310929D01*
X59881331Y-71223302D01*
X60013593Y-71093473D01*
X60147132Y-70937369D01*
X60232849Y-70820683D01*
X62324326Y-70820683D01*
X62400413Y-70904903D01*
X62428782Y-70938601D01*
X62463105Y-70988082D01*
X62476500Y-71020811D01*
X62477045Y-71024970D01*
X62486541Y-71035119D01*
X62511939Y-71042488D01*
X62523361Y-71043715D01*
X62558526Y-71047493D01*
X62631586Y-71050553D01*
X62736403Y-71052082D01*
X62878264Y-71052500D01*
X62953506Y-71052482D01*
X63073883Y-71052091D01*
X63160576Y-71050672D01*
X63219337Y-71047560D01*
X63255916Y-71042089D01*
X63276065Y-71033595D01*
X63285535Y-71021412D01*
X63290078Y-71004875D01*
X63293057Y-70983637D01*
X63300493Y-70923660D01*
X63311755Y-70829700D01*
X63326358Y-70705982D01*
X63343820Y-70556730D01*
X63363655Y-70386168D01*
X63385381Y-70198519D01*
X63408514Y-69998009D01*
X63432570Y-69788860D01*
X63457065Y-69575298D01*
X63481516Y-69361546D01*
X63505438Y-69151828D01*
X63528348Y-68950369D01*
X63549763Y-68761392D01*
X63569198Y-68589121D01*
X63586169Y-68437781D01*
X63600194Y-68311596D01*
X63610788Y-68214789D01*
X63617467Y-68151585D01*
X63619749Y-68126208D01*
X63601560Y-68119758D01*
X63554846Y-68114305D01*
X63493690Y-68110582D01*
X63432184Y-68109171D01*
X63384421Y-68110657D01*
X63364493Y-68115625D01*
X63364251Y-68117579D01*
X63360473Y-68150274D01*
X63352444Y-68220486D01*
X63340566Y-68324673D01*
X63325243Y-68459295D01*
X63306877Y-68620811D01*
X63285870Y-68805681D01*
X63263878Y-68999333D01*
X63262626Y-69010362D01*
X63237546Y-69231316D01*
X63211035Y-69465000D01*
X63163018Y-69888333D01*
X63058583Y-70809083D01*
X62691455Y-70814883D01*
X62324326Y-70820683D01*
X60232849Y-70820683D01*
X60275683Y-70762374D01*
X60392984Y-70575873D01*
X60401590Y-70562011D01*
X60419285Y-70548128D01*
X60449141Y-70551729D01*
X60504538Y-70572395D01*
X60573631Y-70594528D01*
X60665648Y-70604425D01*
X60738733Y-70588042D01*
X60786943Y-70547142D01*
X60804333Y-70483489D01*
X60801236Y-70456340D01*
X60775367Y-70405068D01*
X60719120Y-70351709D01*
X60627528Y-70290850D01*
X60605737Y-70276868D01*
X60523561Y-70199300D01*
X60476993Y-70107326D01*
X60468179Y-70007387D01*
X60496549Y-69914792D01*
X61038359Y-69914792D01*
X61039091Y-69923962D01*
X61043769Y-69970477D01*
X61051983Y-70047162D01*
X61062860Y-70145944D01*
X61075526Y-70258750D01*
X61111501Y-70576250D01*
X61984500Y-70581776D01*
X62099109Y-70582444D01*
X62303027Y-70583224D01*
X62469395Y-70583156D01*
X62601418Y-70582164D01*
X62702303Y-70580169D01*
X62775255Y-70577093D01*
X62823480Y-70572860D01*
X62850184Y-70567391D01*
X62858573Y-70560610D01*
X62859393Y-70550319D01*
X62864255Y-70502475D01*
X62872695Y-70424664D01*
X62883839Y-70324881D01*
X62896811Y-70211125D01*
X62933975Y-69888333D01*
X61985571Y-69888333D01*
X61802058Y-69888470D01*
X61598176Y-69889102D01*
X61431297Y-69890325D01*
X61298410Y-69892223D01*
X61196499Y-69894881D01*
X61122552Y-69898383D01*
X61073556Y-69902812D01*
X61046496Y-69908254D01*
X61038359Y-69914792D01*
X60496549Y-69914792D01*
X60499266Y-69905923D01*
X60516829Y-69874748D01*
X60558243Y-69808849D01*
X60605100Y-69740405D01*
X60613291Y-69728812D01*
X60663397Y-69639980D01*
X60677246Y-69564362D01*
X60654583Y-69493811D01*
X60595157Y-69420176D01*
X60585277Y-69410562D01*
X60508432Y-69354511D01*
X60441007Y-69337140D01*
X60387195Y-69357093D01*
X60351189Y-69413016D01*
X60337179Y-69503553D01*
X60334557Y-69565157D01*
X60322585Y-69624351D01*
X60294112Y-69669214D01*
X60241743Y-69710251D01*
X60158082Y-69757969D01*
X60105314Y-69787399D01*
X60040306Y-69831103D01*
X59996654Y-69875497D01*
X59962958Y-69930673D01*
X59927564Y-70033464D01*
X59916331Y-70172797D01*
X59937201Y-70327883D01*
X59941307Y-70346711D01*
X59947184Y-70402262D01*
X59936591Y-70453442D01*
X59906317Y-70520241D01*
X59905611Y-70521632D01*
X59805120Y-70691180D01*
X59694037Y-70826882D01*
X59574892Y-70926618D01*
X59450216Y-70988264D01*
X59322537Y-71009702D01*
X59317484Y-71009683D01*
X59258429Y-71006849D01*
X59172413Y-71000007D01*
X59069312Y-70990238D01*
X58959005Y-70978623D01*
X58851370Y-70966245D01*
X58756284Y-70954184D01*
X58683625Y-70943522D01*
X58643272Y-70935341D01*
X58633775Y-70929680D01*
X58606335Y-70892570D01*
X58582756Y-70835565D01*
X58579411Y-70824266D01*
X58567026Y-70771956D01*
X58570759Y-70743394D01*
X58591722Y-70724841D01*
X58701347Y-70655188D01*
X58849162Y-70550294D01*
X58981323Y-70443685D01*
X59092189Y-70340340D01*
X59176119Y-70245243D01*
X59227474Y-70163374D01*
X59237597Y-70140482D01*
X59254031Y-70092012D01*
X59251915Y-70053678D01*
X59231811Y-70005025D01*
X59179641Y-69929760D01*
X59096704Y-69875260D01*
X58992445Y-69856583D01*
X58966842Y-69857590D01*
X58887225Y-69879619D01*
X58824360Y-69934118D01*
X58771961Y-70025917D01*
X58700034Y-70156142D01*
X58609687Y-70261922D01*
X58508508Y-70332467D01*
X58395766Y-70370984D01*
X58270394Y-70377984D01*
X58153399Y-70348081D01*
X58051450Y-70283107D01*
X57971216Y-70184894D01*
X57956039Y-70155565D01*
X57922274Y-70043429D01*
X57911865Y-69916829D01*
X57925102Y-69791861D01*
X57962271Y-69684621D01*
X58011177Y-69607153D01*
X58080890Y-69532455D01*
X58169199Y-69471004D01*
X58280007Y-69421444D01*
X58417220Y-69382420D01*
X58584742Y-69352574D01*
X58786478Y-69330550D01*
X59026333Y-69314992D01*
X59123798Y-69310027D01*
X59274562Y-69301047D01*
X59391951Y-69291453D01*
X59481773Y-69280209D01*
X59549835Y-69266276D01*
X59601945Y-69248618D01*
X59643910Y-69226198D01*
X59681538Y-69197978D01*
X59706194Y-69173014D01*
X59738818Y-69104265D01*
X59736290Y-69028393D01*
X59701184Y-68952316D01*
X59636076Y-68882949D01*
X59543538Y-68827209D01*
X59452900Y-68787116D01*
X59524590Y-68680585D01*
X59535847Y-68663458D01*
X59592924Y-68552695D01*
X59613448Y-68452691D01*
X59598902Y-68356988D01*
X59598126Y-68354662D01*
X59542380Y-68251692D01*
X59455680Y-68174903D01*
X59342194Y-68126912D01*
X59206087Y-68110333D01*
X60338167Y-68110333D01*
X60349448Y-68189708D01*
X60353681Y-68221734D01*
X60362747Y-68294720D01*
X60374768Y-68394376D01*
X60388689Y-68511921D01*
X60403452Y-68638574D01*
X60415715Y-68743097D01*
X60428570Y-68849103D01*
X60439247Y-68933278D01*
X60446886Y-68988876D01*
X60450630Y-69009154D01*
X60457374Y-69011393D01*
X60493830Y-69024136D01*
X60550333Y-69044163D01*
X60577845Y-69054063D01*
X60641701Y-69077763D01*
X60685793Y-69095105D01*
X60701227Y-69100891D01*
X60718343Y-69096733D01*
X60714129Y-69061022D01*
X60712812Y-69054313D01*
X60705862Y-69007184D01*
X60704854Y-68999333D01*
X60929415Y-68999333D01*
X60940595Y-69068125D01*
X60944032Y-69091612D01*
X60944683Y-69096733D01*
X60952712Y-69159955D01*
X60963176Y-69250008D01*
X60973858Y-69348583D01*
X60979470Y-69401369D01*
X60990433Y-69499685D01*
X61000429Y-69583749D01*
X61007831Y-69639625D01*
X61019721Y-69719000D01*
X62955729Y-69719000D01*
X62982387Y-69459708D01*
X62992774Y-69359660D01*
X63004140Y-69252221D01*
X63013966Y-69161371D01*
X63020887Y-69099875D01*
X63032730Y-68999333D01*
X60929415Y-68999333D01*
X60704854Y-68999333D01*
X60695584Y-68927147D01*
X60682835Y-68821255D01*
X60668469Y-68696562D01*
X60653344Y-68560125D01*
X60604433Y-68110333D01*
X60338167Y-68110333D01*
X59206087Y-68110333D01*
X59187070Y-68110622D01*
X59061479Y-68130654D01*
X58955114Y-68184161D01*
X58864026Y-68273881D01*
X58784264Y-68402550D01*
X58748864Y-68472517D01*
X58649474Y-68396709D01*
X58611263Y-68368900D01*
X58527012Y-68313297D01*
X58449257Y-68268033D01*
X58348431Y-68215165D01*
X58383105Y-68148113D01*
X58390896Y-68132477D01*
X58425731Y-68051175D01*
X58460033Y-67956072D01*
X58489661Y-67860300D01*
X58510475Y-67776990D01*
X58518333Y-67719276D01*
X58515832Y-67677629D01*
X58503135Y-67643777D01*
X58473799Y-67621851D01*
X58421409Y-67609322D01*
X58339551Y-67603659D01*
X58221812Y-67602333D01*
X58100573Y-67603967D01*
X58009934Y-67610587D01*
X57951175Y-67624406D01*
X57919000Y-67647637D01*
X57908112Y-67682490D01*
X57913215Y-67731176D01*
X57920687Y-67776284D01*
X57930841Y-67855709D01*
X57939381Y-67941000D01*
X57951014Y-68078583D01*
X57552049Y-68078583D01*
X57450655Y-68079079D01*
X57278325Y-68083372D01*
X57138835Y-68092912D01*
X57025984Y-68108711D01*
X56933571Y-68131782D01*
X56855395Y-68163136D01*
X56785256Y-68203787D01*
X56752100Y-68228396D01*
X56665465Y-68309286D01*
X56570122Y-68416648D01*
X56471598Y-68542430D01*
X56375422Y-68678582D01*
X56287120Y-68817053D01*
X56212219Y-68949793D01*
X56156248Y-69068749D01*
X56124734Y-69165872D01*
X56118862Y-69201110D01*
X56110909Y-69309517D01*
X55079282Y-69309517D01*
X55145508Y-68957103D01*
X55264292Y-68534142D01*
X55420968Y-68121522D01*
X55615535Y-67722089D01*
X55847994Y-67338687D01*
X55876659Y-67298743D01*
X61576917Y-67298743D01*
X61577159Y-67347745D01*
X61580331Y-67419430D01*
X61589892Y-67468688D01*
X61609208Y-67508723D01*
X61641644Y-67552743D01*
X61658117Y-67571748D01*
X61726589Y-67633635D01*
X61799587Y-67681708D01*
X61868789Y-67708476D01*
X61992204Y-67728457D01*
X62119957Y-67722206D01*
X62234265Y-67689410D01*
X62317706Y-67638485D01*
X62408850Y-67544646D01*
X62474772Y-67429054D01*
X62510196Y-67301612D01*
X62509844Y-67172222D01*
X62509474Y-67170017D01*
X62494125Y-67114945D01*
X62464372Y-67033232D01*
X62424349Y-66935541D01*
X62378187Y-66832535D01*
X62314116Y-66690444D01*
X62226847Y-66474107D01*
X62160266Y-66276897D01*
X62116962Y-66106007D01*
X62101416Y-66029591D01*
X62086333Y-65965312D01*
X62073443Y-65928908D01*
X62059850Y-65912697D01*
X62042658Y-65909000D01*
X62031380Y-65914499D01*
X62009826Y-65954899D01*
X61990395Y-66030708D01*
X61953443Y-66188678D01*
X61888738Y-66399599D01*
X61805648Y-66622714D01*
X61708209Y-66846358D01*
X61687527Y-66890501D01*
X61642143Y-66989377D01*
X61611246Y-67063143D01*
X61592056Y-67121381D01*
X61581791Y-67173673D01*
X61577672Y-67229600D01*
X61576917Y-67298743D01*
X55876659Y-67298743D01*
X56051326Y-67055350D01*
X56344056Y-66706828D01*
X56662011Y-66391803D01*
X57006665Y-66108976D01*
X57379488Y-65857050D01*
X57781954Y-65634728D01*
X57984828Y-65538588D01*
X58370831Y-65383534D01*
X58758536Y-65265690D01*
X59154758Y-65183476D01*
X59566308Y-65135307D01*
X60000000Y-65119603D01*
X60303301Y-65126909D01*
X60703391Y-65162279D01*
X61086360Y-65228752D01*
X61460642Y-65328287D01*
X61834671Y-65462843D01*
X62216881Y-65634378D01*
X62507735Y-65788840D01*
X62865307Y-66016392D01*
X63202559Y-66276864D01*
X63525457Y-66574543D01*
X63744280Y-66806512D01*
X64016397Y-67141527D01*
X64123962Y-67301612D01*
X64254634Y-67496087D01*
G37*
%TD*%
%LPC*%
D14*
%TO.C,RV3*%
X85600000Y-137500000D03*
X94400000Y-137500000D03*
D15*
X92500001Y-144500000D03*
X90000000Y-144500000D03*
X87499999Y-144500000D03*
%TD*%
D16*
%TO.C,Q1*%
X73230000Y-93360000D03*
D17*
X75000000Y-93360000D03*
X76730000Y-93360000D03*
%TD*%
D18*
%TO.C,R7*%
X56190000Y-89750000D03*
X63810000Y-89750000D03*
%TD*%
%TO.C,R5*%
X56190000Y-97500000D03*
X63810000Y-97500000D03*
%TD*%
D19*
%TO.C,J3*%
X81480000Y-62500000D03*
D20*
X78380000Y-62500000D03*
X70080000Y-62500000D03*
%TD*%
D21*
%TO.C,J6*%
X68750000Y-143000000D03*
D22*
X70750000Y-143000000D03*
X72750000Y-143000000D03*
%TD*%
D18*
%TO.C,R21*%
X86190000Y-107500000D03*
X93810000Y-107500000D03*
%TD*%
%TO.C,C3*%
X82750000Y-112500000D03*
X82750000Y-110000000D03*
%TD*%
%TO.C,R3*%
X79874997Y-91892500D03*
X77675292Y-90622500D03*
%TD*%
D19*
%TO.C,J1*%
X66480000Y-62500000D03*
D20*
X63380000Y-62500000D03*
X55080000Y-62500000D03*
%TD*%
D18*
%TO.C,R20*%
X86193333Y-89750000D03*
X93813333Y-89750000D03*
%TD*%
%TO.C,R11*%
X56190000Y-122000000D03*
X63810000Y-122000000D03*
%TD*%
%TO.C,R12*%
X86190000Y-125750000D03*
X93810000Y-125750000D03*
%TD*%
%TO.C,C1*%
X62500000Y-85250000D03*
X65000000Y-85250000D03*
%TD*%
%TO.C,R16*%
X86210000Y-93410000D03*
X93830000Y-93410000D03*
%TD*%
%TO.C,R8*%
X63710000Y-107750000D03*
X56090000Y-107750000D03*
%TD*%
D23*
%TO.C,U1*%
X71250000Y-107630000D03*
D24*
X71250000Y-110170000D03*
X71250000Y-112710000D03*
X71250000Y-115250000D03*
X71250000Y-117790000D03*
X71250000Y-120330000D03*
X71250000Y-122870000D03*
X78870000Y-122870000D03*
X78870000Y-120330000D03*
X78870000Y-117790000D03*
X78870000Y-115250000D03*
X78870000Y-112710000D03*
X78870000Y-110170000D03*
X78870000Y-107630000D03*
%TD*%
D25*
%TO.C,D1*%
X71200000Y-135010000D03*
D26*
X71200000Y-127390000D03*
%TD*%
D14*
%TO.C,RV1*%
X55600000Y-137500000D03*
X64400000Y-137500000D03*
D15*
X62500001Y-144500000D03*
X60000000Y-144500000D03*
X57499999Y-144500000D03*
%TD*%
D18*
%TO.C,R19*%
X86193333Y-118250000D03*
X93813333Y-118250000D03*
%TD*%
%TO.C,C4*%
X82750000Y-120000000D03*
X82750000Y-117500000D03*
%TD*%
%TO.C,R13*%
X93810000Y-121870000D03*
X86190000Y-121870000D03*
%TD*%
%TO.C,C2*%
X83000000Y-85250000D03*
X85500000Y-85250000D03*
%TD*%
D27*
%TO.C,T2*%
X77000000Y-97500000D03*
D28*
X77000000Y-99270000D03*
X77000000Y-101000000D03*
%TD*%
D19*
%TO.C,J4*%
X96480000Y-77500000D03*
D20*
X93380000Y-77500000D03*
X85080000Y-77500000D03*
%TD*%
D27*
%TO.C,T1*%
X73000000Y-101020000D03*
D28*
X73000000Y-99250000D03*
X73000000Y-97520000D03*
%TD*%
D25*
%TO.C,D2*%
X78750000Y-135060000D03*
D26*
X78750000Y-127440000D03*
%TD*%
D18*
%TO.C,RV2*%
X77530000Y-77505000D03*
X74990000Y-74965000D03*
X72450000Y-77505000D03*
%TD*%
%TO.C,R14*%
X86190000Y-100750000D03*
X93810000Y-100750000D03*
%TD*%
%TO.C,R4*%
X56190000Y-93750000D03*
X63810000Y-93750000D03*
%TD*%
%TO.C,R18*%
X93813333Y-114500000D03*
X86193333Y-114500000D03*
%TD*%
%TO.C,R9*%
X63800000Y-118540000D03*
X56180000Y-118540000D03*
%TD*%
%TO.C,R17*%
X63810000Y-125750000D03*
X56190000Y-125750000D03*
%TD*%
%TO.C,R2*%
X69985004Y-91842500D03*
X72184709Y-90572500D03*
%TD*%
%TO.C,R6*%
X56190000Y-101250000D03*
X63810000Y-101250000D03*
%TD*%
%TO.C,R10*%
X56150000Y-114550000D03*
X63770000Y-114550000D03*
%TD*%
D19*
%TO.C,J2*%
X66530000Y-77500000D03*
D20*
X63430000Y-77500000D03*
X55130000Y-77500000D03*
%TD*%
D18*
%TO.C,R1*%
X75000000Y-86955000D03*
X75000000Y-89495000D03*
%TD*%
D19*
%TO.C,J5*%
X96480000Y-62500000D03*
D20*
X93380000Y-62500000D03*
X85080000Y-62500000D03*
%TD*%
D18*
%TO.C,R15*%
X86193333Y-97250000D03*
X93813333Y-97250000D03*
%TD*%
D21*
%TO.C,J7*%
X77250000Y-143000000D03*
D22*
X79250000Y-143000000D03*
X81250000Y-143000000D03*
%TD*%
%LPD*%
M02*
