M48
; DRILL file {KiCad 9.0.4} date 2026-02-02T18:41:10+1100
; FORMAT={-:-/ absolute / metric / decimal}
; #@! TF.CreationDate,2026-02-02T18:41:10+11:00
; #@! TF.GenerationSoftware,Kicad,Pcbnew,9.0.4
; #@! TF.FileFunction,Plated,1,2,PTH
FMAT,2
METRIC
; #@! TA.AperFunction,Plated,PTH,ViaDrill
T1C0.300
; #@! TA.AperFunction,Plated,PTH,ComponentDrill
T2C0.750
; #@! TA.AperFunction,Plated,PTH,ComponentDrill
T3C0.800
; #@! TA.AperFunction,Plated,PTH,ComponentDrill
T4C0.900
; #@! TA.AperFunction,Plated,PTH,ComponentDrill
T5C1.000
; #@! TA.AperFunction,Plated,PTH,ComponentDrill
T6C1.200
%
G90
G05
T1
X64.0Y-96.0
X66.0Y-87.2
X66.75Y-119.0
X67.0Y-94.9
X67.75Y-115.0
X69.0Y-99.4
X69.985Y-97.585
X70.0Y-94.9
X74.25Y-121.431
X74.75Y-114.25
X74.75Y-117.25
X75.0Y-104.0
X76.0Y-125.5
X80.75Y-99.0
X82.0Y-93.36
X82.5Y-100.75
X95.0Y-103.5
T2
X68.75Y-143.0
X70.75Y-143.0
X72.75Y-143.0
X73.0Y-97.52
X73.0Y-99.25
X73.0Y-101.02
X73.23Y-93.36
X75.0Y-93.36
X76.73Y-93.36
X77.0Y-97.5
X77.0Y-99.27
X77.0Y-101.0
X77.25Y-143.0
X79.25Y-143.0
X81.25Y-143.0
T3
X56.09Y-107.75
X56.15Y-114.55
X56.18Y-118.54
X56.19Y-89.75
X56.19Y-93.75
X56.19Y-97.5
X56.19Y-101.25
X56.19Y-122.0
X56.19Y-125.75
X62.5Y-85.25
X63.71Y-107.75
X63.77Y-114.55
X63.8Y-118.54
X63.81Y-89.75
X63.81Y-93.75
X63.81Y-97.5
X63.81Y-101.25
X63.81Y-122.0
X63.81Y-125.75
X65.0Y-85.25
X69.985Y-91.843
X71.25Y-107.63
X71.25Y-110.17
X71.25Y-112.71
X71.25Y-115.25
X71.25Y-117.79
X71.25Y-120.33
X71.25Y-122.87
X72.185Y-90.572
X72.45Y-77.505
X74.99Y-74.965
X75.0Y-86.955
X75.0Y-89.495
X77.53Y-77.505
X77.675Y-90.623
X78.87Y-107.63
X78.87Y-110.17
X78.87Y-112.71
X78.87Y-115.25
X78.87Y-117.79
X78.87Y-120.33
X78.87Y-122.87
X79.875Y-91.892
X82.75Y-110.0
X82.75Y-112.5
X82.75Y-117.5
X82.75Y-120.0
X83.0Y-85.25
X85.5Y-85.25
X86.19Y-100.75
X86.19Y-107.5
X86.19Y-121.87
X86.19Y-125.75
X86.193Y-89.75
X86.193Y-97.25
X86.193Y-114.5
X86.193Y-118.25
X86.21Y-93.41
X93.81Y-100.75
X93.81Y-107.5
X93.81Y-121.87
X93.81Y-125.75
X93.813Y-89.75
X93.813Y-97.25
X93.813Y-114.5
X93.813Y-118.25
X93.83Y-93.41
T4
X71.2Y-127.39
X71.2Y-135.01
X78.75Y-127.44
X78.75Y-135.06
T5
X57.5Y-144.5
X60.0Y-144.5
X62.5Y-144.5
X87.5Y-144.5
X90.0Y-144.5
X92.5Y-144.5
T6
X55.08Y-62.5
X55.13Y-77.5
X63.38Y-62.5
X63.43Y-77.5
X66.48Y-62.5
X66.53Y-77.5
X70.08Y-62.5
X78.38Y-62.5
X81.48Y-62.5
X85.08Y-62.5
X85.08Y-77.5
X93.38Y-62.5
X93.38Y-77.5
X96.48Y-62.5
X96.48Y-77.5
M30
