%TF.GenerationSoftware,KiCad,Pcbnew,9.0.4*%
%TF.CreationDate,2026-02-02T18:02:09+11:00*%
%TF.ProjectId,VCO,56434f2e-6b69-4636-9164-5f7063625858,rev?*%
%TF.SameCoordinates,Original*%
%TF.FileFunction,Legend,Bot*%
%TF.FilePolarity,Positive*%
%FSLAX46Y46*%
G04 Gerber Fmt 4.6, Leading zero omitted, Abs format (unit mm)*
G04 Created by KiCad (PCBNEW 9.0.4) date 2026-02-02 18:02:09*
%MOMM*%
%LPD*%
G01*
G04 APERTURE LIST*
G04 Aperture macros list*
%AMRoundRect*
0 Rectangle with rounded corners*
0 $1 Rounding radius*
0 $2 $3 $4 $5 $6 $7 $8 $9 X,Y pos of 4 corners*
0 Add a 4 corners polygon primitive as box body*
4,1,4,$2,$3,$4,$5,$6,$7,$8,$9,$2,$3,0*
0 Add four circle primitives for the rounded corners*
1,1,$1+$1,$2,$3*
1,1,$1+$1,$4,$5*
1,1,$1+$1,$6,$7*
1,1,$1+$1,$8,$9*
0 Add four rect primitives between the rounded corners*
20,1,$1+$1,$2,$3,$4,$5,0*
20,1,$1+$1,$4,$5,$6,$7,0*
20,1,$1+$1,$6,$7,$8,$9,0*
20,1,$1+$1,$8,$9,$2,$3,0*%
G04 Aperture macros list end*
%ADD10C,0.150000*%
%ADD11C,0.200000*%
%ADD12C,0.010000*%
%ADD13C,4.000000*%
%ADD14O,1.600000X2.400000*%
%ADD15R,1.350000X1.900000*%
%ADD16O,1.350000X1.900000*%
%ADD17C,1.600000*%
%ADD18R,2.000000X2.000000*%
%ADD19C,2.200000*%
%ADD20RoundRect,0.291666X-0.408334X-0.708334X0.408334X-0.708334X0.408334X0.708334X-0.408334X0.708334X0*%
%ADD21O,1.400000X2.000000*%
%ADD22RoundRect,0.250000X-0.950000X-0.550000X0.950000X-0.550000X0.950000X0.550000X-0.950000X0.550000X0*%
%ADD23O,2.400000X1.600000*%
%ADD24RoundRect,0.250000X0.650000X-0.650000X0.650000X0.650000X-0.650000X0.650000X-0.650000X-0.650000X0*%
%ADD25C,1.800000*%
%ADD26R,1.900000X1.350000*%
%ADD27O,1.900000X1.350000*%
G04 APERTURE END LIST*
D10*
X95787030Y-52045342D02*
X95387030Y-53245342D01*
X95387030Y-53245342D02*
X94987030Y-52045342D01*
X93901316Y-53131057D02*
X93958459Y-53188200D01*
X93958459Y-53188200D02*
X94129887Y-53245342D01*
X94129887Y-53245342D02*
X94244173Y-53245342D01*
X94244173Y-53245342D02*
X94415602Y-53188200D01*
X94415602Y-53188200D02*
X94529887Y-53073914D01*
X94529887Y-53073914D02*
X94587030Y-52959628D01*
X94587030Y-52959628D02*
X94644173Y-52731057D01*
X94644173Y-52731057D02*
X94644173Y-52559628D01*
X94644173Y-52559628D02*
X94587030Y-52331057D01*
X94587030Y-52331057D02*
X94529887Y-52216771D01*
X94529887Y-52216771D02*
X94415602Y-52102485D01*
X94415602Y-52102485D02*
X94244173Y-52045342D01*
X94244173Y-52045342D02*
X94129887Y-52045342D01*
X94129887Y-52045342D02*
X93958459Y-52102485D01*
X93958459Y-52102485D02*
X93901316Y-52159628D01*
X93158459Y-52045342D02*
X92929887Y-52045342D01*
X92929887Y-52045342D02*
X92815602Y-52102485D01*
X92815602Y-52102485D02*
X92701316Y-52216771D01*
X92701316Y-52216771D02*
X92644173Y-52445342D01*
X92644173Y-52445342D02*
X92644173Y-52845342D01*
X92644173Y-52845342D02*
X92701316Y-53073914D01*
X92701316Y-53073914D02*
X92815602Y-53188200D01*
X92815602Y-53188200D02*
X92929887Y-53245342D01*
X92929887Y-53245342D02*
X93158459Y-53245342D01*
X93158459Y-53245342D02*
X93272745Y-53188200D01*
X93272745Y-53188200D02*
X93387030Y-53073914D01*
X93387030Y-53073914D02*
X93444173Y-52845342D01*
X93444173Y-52845342D02*
X93444173Y-52445342D01*
X93444173Y-52445342D02*
X93387030Y-52216771D01*
X93387030Y-52216771D02*
X93272745Y-52102485D01*
X93272745Y-52102485D02*
X93158459Y-52045342D01*
X91329887Y-52445342D02*
X91044173Y-53245342D01*
X91044173Y-53245342D02*
X90758458Y-52445342D01*
X89672744Y-53245342D02*
X90358458Y-53245342D01*
X90015601Y-53245342D02*
X90015601Y-52045342D01*
X90015601Y-52045342D02*
X90129887Y-52216771D01*
X90129887Y-52216771D02*
X90244172Y-52331057D01*
X90244172Y-52331057D02*
X90358458Y-52388200D01*
X89158458Y-52788200D02*
X88244173Y-52788200D01*
X87044173Y-53245342D02*
X87729887Y-53245342D01*
X87387030Y-53245342D02*
X87387030Y-52045342D01*
X87387030Y-52045342D02*
X87501316Y-52216771D01*
X87501316Y-52216771D02*
X87615601Y-52331057D01*
X87615601Y-52331057D02*
X87729887Y-52388200D01*
X85615601Y-52788200D02*
X84701316Y-52788200D01*
X83215601Y-53245342D02*
X83215601Y-52045342D01*
X83215601Y-52045342D02*
X82929887Y-52045342D01*
X82929887Y-52045342D02*
X82758458Y-52102485D01*
X82758458Y-52102485D02*
X82644173Y-52216771D01*
X82644173Y-52216771D02*
X82587030Y-52331057D01*
X82587030Y-52331057D02*
X82529887Y-52559628D01*
X82529887Y-52559628D02*
X82529887Y-52731057D01*
X82529887Y-52731057D02*
X82587030Y-52959628D01*
X82587030Y-52959628D02*
X82644173Y-53073914D01*
X82644173Y-53073914D02*
X82758458Y-53188200D01*
X82758458Y-53188200D02*
X82929887Y-53245342D01*
X82929887Y-53245342D02*
X83215601Y-53245342D01*
X82187030Y-52445342D02*
X81729887Y-52445342D01*
X82015601Y-53245342D02*
X82015601Y-52216771D01*
X82015601Y-52216771D02*
X81958458Y-52102485D01*
X81958458Y-52102485D02*
X81844173Y-52045342D01*
X81844173Y-52045342D02*
X81729887Y-52045342D01*
X80815602Y-53245342D02*
X80815602Y-52616771D01*
X80815602Y-52616771D02*
X80872744Y-52502485D01*
X80872744Y-52502485D02*
X80987030Y-52445342D01*
X80987030Y-52445342D02*
X81215602Y-52445342D01*
X81215602Y-52445342D02*
X81329887Y-52502485D01*
X80815602Y-53188200D02*
X80929887Y-53245342D01*
X80929887Y-53245342D02*
X81215602Y-53245342D01*
X81215602Y-53245342D02*
X81329887Y-53188200D01*
X81329887Y-53188200D02*
X81387030Y-53073914D01*
X81387030Y-53073914D02*
X81387030Y-52959628D01*
X81387030Y-52959628D02*
X81329887Y-52845342D01*
X81329887Y-52845342D02*
X81215602Y-52788200D01*
X81215602Y-52788200D02*
X80929887Y-52788200D01*
X80929887Y-52788200D02*
X80815602Y-52731057D01*
X80415602Y-52445342D02*
X79958459Y-52445342D01*
X80244173Y-52045342D02*
X80244173Y-53073914D01*
X80244173Y-53073914D02*
X80187030Y-53188200D01*
X80187030Y-53188200D02*
X80072745Y-53245342D01*
X80072745Y-53245342D02*
X79958459Y-53245342D01*
X79558459Y-52445342D02*
X79558459Y-53645342D01*
X79558459Y-52502485D02*
X79444174Y-52445342D01*
X79444174Y-52445342D02*
X79215602Y-52445342D01*
X79215602Y-52445342D02*
X79101316Y-52502485D01*
X79101316Y-52502485D02*
X79044174Y-52559628D01*
X79044174Y-52559628D02*
X78987031Y-52673914D01*
X78987031Y-52673914D02*
X78987031Y-53016771D01*
X78987031Y-53016771D02*
X79044174Y-53131057D01*
X79044174Y-53131057D02*
X79101316Y-53188200D01*
X79101316Y-53188200D02*
X79215602Y-53245342D01*
X79215602Y-53245342D02*
X79444174Y-53245342D01*
X79444174Y-53245342D02*
X79558459Y-53188200D01*
X78472745Y-52445342D02*
X78472745Y-53245342D01*
X78472745Y-52559628D02*
X78415602Y-52502485D01*
X78415602Y-52502485D02*
X78301317Y-52445342D01*
X78301317Y-52445342D02*
X78129888Y-52445342D01*
X78129888Y-52445342D02*
X78015602Y-52502485D01*
X78015602Y-52502485D02*
X77958460Y-52616771D01*
X77958460Y-52616771D02*
X77958460Y-53245342D01*
X76872746Y-52445342D02*
X76872746Y-53245342D01*
X77387031Y-52445342D02*
X77387031Y-53073914D01*
X77387031Y-53073914D02*
X77329888Y-53188200D01*
X77329888Y-53188200D02*
X77215603Y-53245342D01*
X77215603Y-53245342D02*
X77044174Y-53245342D01*
X77044174Y-53245342D02*
X76929888Y-53188200D01*
X76929888Y-53188200D02*
X76872746Y-53131057D01*
X76301317Y-53245342D02*
X76301317Y-52045342D01*
X76187032Y-52788200D02*
X75844174Y-53245342D01*
X75844174Y-52445342D02*
X76301317Y-52902485D01*
X73558459Y-51988200D02*
X74587031Y-53531057D01*
X72244173Y-53245342D02*
X72244173Y-52045342D01*
X72244173Y-52045342D02*
X71787030Y-52045342D01*
X71787030Y-52045342D02*
X71672745Y-52102485D01*
X71672745Y-52102485D02*
X71615602Y-52159628D01*
X71615602Y-52159628D02*
X71558459Y-52273914D01*
X71558459Y-52273914D02*
X71558459Y-52445342D01*
X71558459Y-52445342D02*
X71615602Y-52559628D01*
X71615602Y-52559628D02*
X71672745Y-52616771D01*
X71672745Y-52616771D02*
X71787030Y-52673914D01*
X71787030Y-52673914D02*
X72244173Y-52673914D01*
X70529888Y-53245342D02*
X70529888Y-52616771D01*
X70529888Y-52616771D02*
X70587030Y-52502485D01*
X70587030Y-52502485D02*
X70701316Y-52445342D01*
X70701316Y-52445342D02*
X70929888Y-52445342D01*
X70929888Y-52445342D02*
X71044173Y-52502485D01*
X70529888Y-53188200D02*
X70644173Y-53245342D01*
X70644173Y-53245342D02*
X70929888Y-53245342D01*
X70929888Y-53245342D02*
X71044173Y-53188200D01*
X71044173Y-53188200D02*
X71101316Y-53073914D01*
X71101316Y-53073914D02*
X71101316Y-52959628D01*
X71101316Y-52959628D02*
X71044173Y-52845342D01*
X71044173Y-52845342D02*
X70929888Y-52788200D01*
X70929888Y-52788200D02*
X70644173Y-52788200D01*
X70644173Y-52788200D02*
X70529888Y-52731057D01*
X69958459Y-52445342D02*
X69958459Y-53245342D01*
X69958459Y-52559628D02*
X69901316Y-52502485D01*
X69901316Y-52502485D02*
X69787031Y-52445342D01*
X69787031Y-52445342D02*
X69615602Y-52445342D01*
X69615602Y-52445342D02*
X69501316Y-52502485D01*
X69501316Y-52502485D02*
X69444174Y-52616771D01*
X69444174Y-52616771D02*
X69444174Y-53245342D01*
X68358460Y-53188200D02*
X68472745Y-53245342D01*
X68472745Y-53245342D02*
X68701317Y-53245342D01*
X68701317Y-53245342D02*
X68815602Y-53188200D01*
X68815602Y-53188200D02*
X68872745Y-53131057D01*
X68872745Y-53131057D02*
X68929888Y-53016771D01*
X68929888Y-53016771D02*
X68929888Y-52673914D01*
X68929888Y-52673914D02*
X68872745Y-52559628D01*
X68872745Y-52559628D02*
X68815602Y-52502485D01*
X68815602Y-52502485D02*
X68701317Y-52445342D01*
X68701317Y-52445342D02*
X68472745Y-52445342D01*
X68472745Y-52445342D02*
X68358460Y-52502485D01*
X67329889Y-53245342D02*
X67329889Y-52616771D01*
X67329889Y-52616771D02*
X67387031Y-52502485D01*
X67387031Y-52502485D02*
X67501317Y-52445342D01*
X67501317Y-52445342D02*
X67729889Y-52445342D01*
X67729889Y-52445342D02*
X67844174Y-52502485D01*
X67329889Y-53188200D02*
X67444174Y-53245342D01*
X67444174Y-53245342D02*
X67729889Y-53245342D01*
X67729889Y-53245342D02*
X67844174Y-53188200D01*
X67844174Y-53188200D02*
X67901317Y-53073914D01*
X67901317Y-53073914D02*
X67901317Y-52959628D01*
X67901317Y-52959628D02*
X67844174Y-52845342D01*
X67844174Y-52845342D02*
X67729889Y-52788200D01*
X67729889Y-52788200D02*
X67444174Y-52788200D01*
X67444174Y-52788200D02*
X67329889Y-52731057D01*
X66758460Y-53245342D02*
X66758460Y-52045342D01*
X66644175Y-52788200D02*
X66301317Y-53245342D01*
X66301317Y-52445342D02*
X66758460Y-52902485D01*
X65329888Y-53188200D02*
X65444174Y-53245342D01*
X65444174Y-53245342D02*
X65672746Y-53245342D01*
X65672746Y-53245342D02*
X65787031Y-53188200D01*
X65787031Y-53188200D02*
X65844174Y-53073914D01*
X65844174Y-53073914D02*
X65844174Y-52616771D01*
X65844174Y-52616771D02*
X65787031Y-52502485D01*
X65787031Y-52502485D02*
X65672746Y-52445342D01*
X65672746Y-52445342D02*
X65444174Y-52445342D01*
X65444174Y-52445342D02*
X65329888Y-52502485D01*
X65329888Y-52502485D02*
X65272746Y-52616771D01*
X65272746Y-52616771D02*
X65272746Y-52731057D01*
X65272746Y-52731057D02*
X65844174Y-52845342D01*
X64187032Y-53245342D02*
X64758460Y-53245342D01*
X64758460Y-53245342D02*
X64758460Y-52045342D01*
X63329888Y-53188200D02*
X63444174Y-53245342D01*
X63444174Y-53245342D02*
X63672746Y-53245342D01*
X63672746Y-53245342D02*
X63787031Y-53188200D01*
X63787031Y-53188200D02*
X63844174Y-53073914D01*
X63844174Y-53073914D02*
X63844174Y-52616771D01*
X63844174Y-52616771D02*
X63787031Y-52502485D01*
X63787031Y-52502485D02*
X63672746Y-52445342D01*
X63672746Y-52445342D02*
X63444174Y-52445342D01*
X63444174Y-52445342D02*
X63329888Y-52502485D01*
X63329888Y-52502485D02*
X63272746Y-52616771D01*
X63272746Y-52616771D02*
X63272746Y-52731057D01*
X63272746Y-52731057D02*
X63844174Y-52845342D01*
X62244175Y-52445342D02*
X62244175Y-53416771D01*
X62244175Y-53416771D02*
X62301317Y-53531057D01*
X62301317Y-53531057D02*
X62358460Y-53588200D01*
X62358460Y-53588200D02*
X62472746Y-53645342D01*
X62472746Y-53645342D02*
X62644175Y-53645342D01*
X62644175Y-53645342D02*
X62758460Y-53588200D01*
X62244175Y-53188200D02*
X62358460Y-53245342D01*
X62358460Y-53245342D02*
X62587032Y-53245342D01*
X62587032Y-53245342D02*
X62701317Y-53188200D01*
X62701317Y-53188200D02*
X62758460Y-53131057D01*
X62758460Y-53131057D02*
X62815603Y-53016771D01*
X62815603Y-53016771D02*
X62815603Y-52673914D01*
X62815603Y-52673914D02*
X62758460Y-52559628D01*
X62758460Y-52559628D02*
X62701317Y-52502485D01*
X62701317Y-52502485D02*
X62587032Y-52445342D01*
X62587032Y-52445342D02*
X62358460Y-52445342D01*
X62358460Y-52445342D02*
X62244175Y-52502485D01*
X61215603Y-53188200D02*
X61329889Y-53245342D01*
X61329889Y-53245342D02*
X61558461Y-53245342D01*
X61558461Y-53245342D02*
X61672746Y-53188200D01*
X61672746Y-53188200D02*
X61729889Y-53073914D01*
X61729889Y-53073914D02*
X61729889Y-52616771D01*
X61729889Y-52616771D02*
X61672746Y-52502485D01*
X61672746Y-52502485D02*
X61558461Y-52445342D01*
X61558461Y-52445342D02*
X61329889Y-52445342D01*
X61329889Y-52445342D02*
X61215603Y-52502485D01*
X61215603Y-52502485D02*
X61158461Y-52616771D01*
X61158461Y-52616771D02*
X61158461Y-52731057D01*
X61158461Y-52731057D02*
X61729889Y-52845342D01*
X60644175Y-52445342D02*
X60644175Y-53245342D01*
X60644175Y-52559628D02*
X60587032Y-52502485D01*
X60587032Y-52502485D02*
X60472747Y-52445342D01*
X60472747Y-52445342D02*
X60301318Y-52445342D01*
X60301318Y-52445342D02*
X60187032Y-52502485D01*
X60187032Y-52502485D02*
X60129890Y-52616771D01*
X60129890Y-52616771D02*
X60129890Y-53245342D01*
X59044176Y-53245342D02*
X59044176Y-52045342D01*
X59044176Y-53188200D02*
X59158461Y-53245342D01*
X59158461Y-53245342D02*
X59387033Y-53245342D01*
X59387033Y-53245342D02*
X59501318Y-53188200D01*
X59501318Y-53188200D02*
X59558461Y-53131057D01*
X59558461Y-53131057D02*
X59615604Y-53016771D01*
X59615604Y-53016771D02*
X59615604Y-52673914D01*
X59615604Y-52673914D02*
X59558461Y-52559628D01*
X59558461Y-52559628D02*
X59501318Y-52502485D01*
X59501318Y-52502485D02*
X59387033Y-52445342D01*
X59387033Y-52445342D02*
X59158461Y-52445342D01*
X59158461Y-52445342D02*
X59044176Y-52502485D01*
X57615604Y-52159628D02*
X57558461Y-52102485D01*
X57558461Y-52102485D02*
X57444176Y-52045342D01*
X57444176Y-52045342D02*
X57158461Y-52045342D01*
X57158461Y-52045342D02*
X57044176Y-52102485D01*
X57044176Y-52102485D02*
X56987033Y-52159628D01*
X56987033Y-52159628D02*
X56929890Y-52273914D01*
X56929890Y-52273914D02*
X56929890Y-52388200D01*
X56929890Y-52388200D02*
X56987033Y-52559628D01*
X56987033Y-52559628D02*
X57672747Y-53245342D01*
X57672747Y-53245342D02*
X56929890Y-53245342D01*
X56187033Y-52045342D02*
X56072747Y-52045342D01*
X56072747Y-52045342D02*
X55958461Y-52102485D01*
X55958461Y-52102485D02*
X55901319Y-52159628D01*
X55901319Y-52159628D02*
X55844176Y-52273914D01*
X55844176Y-52273914D02*
X55787033Y-52502485D01*
X55787033Y-52502485D02*
X55787033Y-52788200D01*
X55787033Y-52788200D02*
X55844176Y-53016771D01*
X55844176Y-53016771D02*
X55901319Y-53131057D01*
X55901319Y-53131057D02*
X55958461Y-53188200D01*
X55958461Y-53188200D02*
X56072747Y-53245342D01*
X56072747Y-53245342D02*
X56187033Y-53245342D01*
X56187033Y-53245342D02*
X56301319Y-53188200D01*
X56301319Y-53188200D02*
X56358461Y-53131057D01*
X56358461Y-53131057D02*
X56415604Y-53016771D01*
X56415604Y-53016771D02*
X56472747Y-52788200D01*
X56472747Y-52788200D02*
X56472747Y-52502485D01*
X56472747Y-52502485D02*
X56415604Y-52273914D01*
X56415604Y-52273914D02*
X56358461Y-52159628D01*
X56358461Y-52159628D02*
X56301319Y-52102485D01*
X56301319Y-52102485D02*
X56187033Y-52045342D01*
X55329890Y-52159628D02*
X55272747Y-52102485D01*
X55272747Y-52102485D02*
X55158462Y-52045342D01*
X55158462Y-52045342D02*
X54872747Y-52045342D01*
X54872747Y-52045342D02*
X54758462Y-52102485D01*
X54758462Y-52102485D02*
X54701319Y-52159628D01*
X54701319Y-52159628D02*
X54644176Y-52273914D01*
X54644176Y-52273914D02*
X54644176Y-52388200D01*
X54644176Y-52388200D02*
X54701319Y-52559628D01*
X54701319Y-52559628D02*
X55387033Y-53245342D01*
X55387033Y-53245342D02*
X54644176Y-53245342D01*
X53615605Y-52045342D02*
X53844176Y-52045342D01*
X53844176Y-52045342D02*
X53958462Y-52102485D01*
X53958462Y-52102485D02*
X54015605Y-52159628D01*
X54015605Y-52159628D02*
X54129890Y-52331057D01*
X54129890Y-52331057D02*
X54187033Y-52559628D01*
X54187033Y-52559628D02*
X54187033Y-53016771D01*
X54187033Y-53016771D02*
X54129890Y-53131057D01*
X54129890Y-53131057D02*
X54072747Y-53188200D01*
X54072747Y-53188200D02*
X53958462Y-53245342D01*
X53958462Y-53245342D02*
X53729890Y-53245342D01*
X53729890Y-53245342D02*
X53615605Y-53188200D01*
X53615605Y-53188200D02*
X53558462Y-53131057D01*
X53558462Y-53131057D02*
X53501319Y-53016771D01*
X53501319Y-53016771D02*
X53501319Y-52731057D01*
X53501319Y-52731057D02*
X53558462Y-52616771D01*
X53558462Y-52616771D02*
X53615605Y-52559628D01*
X53615605Y-52559628D02*
X53729890Y-52502485D01*
X53729890Y-52502485D02*
X53958462Y-52502485D01*
X53958462Y-52502485D02*
X54072747Y-52559628D01*
X54072747Y-52559628D02*
X54129890Y-52616771D01*
X54129890Y-52616771D02*
X54187033Y-52731057D01*
D11*
X68167602Y-139049197D02*
X68107126Y-138928244D01*
X68107126Y-138928244D02*
X68107126Y-138746816D01*
X68107126Y-138746816D02*
X68167602Y-138565387D01*
X68167602Y-138565387D02*
X68288554Y-138444435D01*
X68288554Y-138444435D02*
X68409507Y-138383958D01*
X68409507Y-138383958D02*
X68651411Y-138323482D01*
X68651411Y-138323482D02*
X68832840Y-138323482D01*
X68832840Y-138323482D02*
X69074745Y-138383958D01*
X69074745Y-138383958D02*
X69195697Y-138444435D01*
X69195697Y-138444435D02*
X69316650Y-138565387D01*
X69316650Y-138565387D02*
X69377126Y-138746816D01*
X69377126Y-138746816D02*
X69377126Y-138867768D01*
X69377126Y-138867768D02*
X69316650Y-139049197D01*
X69316650Y-139049197D02*
X69256173Y-139109673D01*
X69256173Y-139109673D02*
X68832840Y-139109673D01*
X68832840Y-139109673D02*
X68832840Y-138867768D01*
X69377126Y-139653958D02*
X68107126Y-139653958D01*
X68107126Y-139653958D02*
X69377126Y-140379673D01*
X69377126Y-140379673D02*
X68107126Y-140379673D01*
X69377126Y-140984434D02*
X68107126Y-140984434D01*
X68107126Y-140984434D02*
X68107126Y-141286815D01*
X68107126Y-141286815D02*
X68167602Y-141468244D01*
X68167602Y-141468244D02*
X68288554Y-141589196D01*
X68288554Y-141589196D02*
X68409507Y-141649673D01*
X68409507Y-141649673D02*
X68651411Y-141710149D01*
X68651411Y-141710149D02*
X68832840Y-141710149D01*
X68832840Y-141710149D02*
X69074745Y-141649673D01*
X69074745Y-141649673D02*
X69195697Y-141589196D01*
X69195697Y-141589196D02*
X69316650Y-141468244D01*
X69316650Y-141468244D02*
X69377126Y-141286815D01*
X69377126Y-141286815D02*
X69377126Y-140984434D01*
X70893316Y-139483958D02*
X70893316Y-140451578D01*
X71377126Y-139967768D02*
X70409507Y-139967768D01*
X70107126Y-140874911D02*
X71377126Y-141298244D01*
X71377126Y-141298244D02*
X70107126Y-141721578D01*
X72818316Y-139458958D02*
X72818316Y-140426578D01*
X72032126Y-140849911D02*
X73302126Y-141273244D01*
X73302126Y-141273244D02*
X72032126Y-141696578D01*
X81243316Y-139433958D02*
X81243316Y-140401578D01*
X80457126Y-140824911D02*
X81727126Y-141248244D01*
X81727126Y-141248244D02*
X80457126Y-141671578D01*
X76592602Y-139024197D02*
X76532126Y-138903244D01*
X76532126Y-138903244D02*
X76532126Y-138721816D01*
X76532126Y-138721816D02*
X76592602Y-138540387D01*
X76592602Y-138540387D02*
X76713554Y-138419435D01*
X76713554Y-138419435D02*
X76834507Y-138358958D01*
X76834507Y-138358958D02*
X77076411Y-138298482D01*
X77076411Y-138298482D02*
X77257840Y-138298482D01*
X77257840Y-138298482D02*
X77499745Y-138358958D01*
X77499745Y-138358958D02*
X77620697Y-138419435D01*
X77620697Y-138419435D02*
X77741650Y-138540387D01*
X77741650Y-138540387D02*
X77802126Y-138721816D01*
X77802126Y-138721816D02*
X77802126Y-138842768D01*
X77802126Y-138842768D02*
X77741650Y-139024197D01*
X77741650Y-139024197D02*
X77681173Y-139084673D01*
X77681173Y-139084673D02*
X77257840Y-139084673D01*
X77257840Y-139084673D02*
X77257840Y-138842768D01*
X77802126Y-139628958D02*
X76532126Y-139628958D01*
X76532126Y-139628958D02*
X77802126Y-140354673D01*
X77802126Y-140354673D02*
X76532126Y-140354673D01*
X77802126Y-140959434D02*
X76532126Y-140959434D01*
X76532126Y-140959434D02*
X76532126Y-141261815D01*
X76532126Y-141261815D02*
X76592602Y-141443244D01*
X76592602Y-141443244D02*
X76713554Y-141564196D01*
X76713554Y-141564196D02*
X76834507Y-141624673D01*
X76834507Y-141624673D02*
X77076411Y-141685149D01*
X77076411Y-141685149D02*
X77257840Y-141685149D01*
X77257840Y-141685149D02*
X77499745Y-141624673D01*
X77499745Y-141624673D02*
X77620697Y-141564196D01*
X77620697Y-141564196D02*
X77741650Y-141443244D01*
X77741650Y-141443244D02*
X77802126Y-141261815D01*
X77802126Y-141261815D02*
X77802126Y-140959434D01*
X79343316Y-139483958D02*
X79343316Y-140451578D01*
X79827126Y-139967768D02*
X78859507Y-139967768D01*
X78557126Y-140874911D02*
X79827126Y-141298244D01*
X79827126Y-141298244D02*
X78557126Y-141721578D01*
D12*
%TO.C,Ref\u002A\u002A*%
X89086870Y-68381954D02*
X89101500Y-68415623D01*
X89095914Y-68435945D01*
X89057551Y-68476409D01*
X88989674Y-68514775D01*
X88900417Y-68545779D01*
X88831926Y-68556333D01*
X88739415Y-68555459D01*
X88642977Y-68542445D01*
X88551865Y-68519687D01*
X88475330Y-68489582D01*
X88422625Y-68454527D01*
X88403000Y-68416919D01*
X88403957Y-68405227D01*
X88425483Y-68378052D01*
X88476487Y-68378208D01*
X88558485Y-68405583D01*
X88590633Y-68416180D01*
X88669449Y-68431367D01*
X88752250Y-68437333D01*
X88795937Y-68435504D01*
X88879672Y-68424055D01*
X88946015Y-68405583D01*
X88966722Y-68397264D01*
X89042290Y-68375857D01*
X89086870Y-68381954D01*
G36*
X89086870Y-68381954D02*
G01*
X89101500Y-68415623D01*
X89095914Y-68435945D01*
X89057551Y-68476409D01*
X88989674Y-68514775D01*
X88900417Y-68545779D01*
X88831926Y-68556333D01*
X88739415Y-68555459D01*
X88642977Y-68542445D01*
X88551865Y-68519687D01*
X88475330Y-68489582D01*
X88422625Y-68454527D01*
X88403000Y-68416919D01*
X88403957Y-68405227D01*
X88425483Y-68378052D01*
X88476487Y-68378208D01*
X88558485Y-68405583D01*
X88590633Y-68416180D01*
X88669449Y-68431367D01*
X88752250Y-68437333D01*
X88795937Y-68435504D01*
X88879672Y-68424055D01*
X88946015Y-68405583D01*
X88966722Y-68397264D01*
X89042290Y-68375857D01*
X89086870Y-68381954D01*
G37*
X89675246Y-70135344D02*
X89952658Y-70141250D01*
X90117613Y-70554000D01*
X90282567Y-70966750D01*
X90086575Y-70977333D01*
X89890583Y-70987917D01*
X90048422Y-71316000D01*
X90085523Y-71393336D01*
X90139288Y-71506162D01*
X90186972Y-71607085D01*
X90224454Y-71687373D01*
X90247615Y-71738289D01*
X90268198Y-71785748D01*
X90278356Y-71814531D01*
X90271378Y-71815500D01*
X90247223Y-71794714D01*
X90243609Y-71791263D01*
X90212765Y-71758472D01*
X90160719Y-71700612D01*
X90091565Y-71622426D01*
X90009393Y-71528656D01*
X89918298Y-71424044D01*
X89822369Y-71313331D01*
X89725701Y-71201259D01*
X89632385Y-71092570D01*
X89546513Y-70992006D01*
X89472177Y-70904308D01*
X89413470Y-70834220D01*
X89374483Y-70786482D01*
X89359310Y-70765836D01*
X89361281Y-70762005D01*
X89391960Y-70752714D01*
X89452033Y-70744938D01*
X89532259Y-70740054D01*
X89711981Y-70733917D01*
X89554907Y-70453477D01*
X89526866Y-70403063D01*
X89475852Y-70309349D01*
X89434925Y-70231490D01*
X89407710Y-70176462D01*
X89397833Y-70151238D01*
X89408729Y-70143976D01*
X89458924Y-70137186D01*
X89548334Y-70134276D01*
X89675246Y-70135344D01*
G36*
X89675246Y-70135344D02*
G01*
X89952658Y-70141250D01*
X90117613Y-70554000D01*
X90282567Y-70966750D01*
X90086575Y-70977333D01*
X89890583Y-70987917D01*
X90048422Y-71316000D01*
X90085523Y-71393336D01*
X90139288Y-71506162D01*
X90186972Y-71607085D01*
X90224454Y-71687373D01*
X90247615Y-71738289D01*
X90268198Y-71785748D01*
X90278356Y-71814531D01*
X90271378Y-71815500D01*
X90247223Y-71794714D01*
X90243609Y-71791263D01*
X90212765Y-71758472D01*
X90160719Y-71700612D01*
X90091565Y-71622426D01*
X90009393Y-71528656D01*
X89918298Y-71424044D01*
X89822369Y-71313331D01*
X89725701Y-71201259D01*
X89632385Y-71092570D01*
X89546513Y-70992006D01*
X89472177Y-70904308D01*
X89413470Y-70834220D01*
X89374483Y-70786482D01*
X89359310Y-70765836D01*
X89361281Y-70762005D01*
X89391960Y-70752714D01*
X89452033Y-70744938D01*
X89532259Y-70740054D01*
X89711981Y-70733917D01*
X89554907Y-70453477D01*
X89526866Y-70403063D01*
X89475852Y-70309349D01*
X89434925Y-70231490D01*
X89407710Y-70176462D01*
X89397833Y-70151238D01*
X89408729Y-70143976D01*
X89458924Y-70137186D01*
X89548334Y-70134276D01*
X89675246Y-70135344D01*
G37*
X94784737Y-66941985D02*
X94783501Y-67042784D01*
X94778763Y-67115197D01*
X94768421Y-67171359D01*
X94750376Y-67223408D01*
X94722528Y-67283480D01*
X94688865Y-67343091D01*
X94625170Y-67434561D01*
X94558694Y-67511822D01*
X94538973Y-67530408D01*
X94465209Y-67588475D01*
X94378686Y-67644704D01*
X94290693Y-67692740D01*
X94212517Y-67726228D01*
X94155445Y-67738816D01*
X94137573Y-67741987D01*
X94120973Y-67758540D01*
X94118685Y-67765262D01*
X94108297Y-67795786D01*
X94097291Y-67860906D01*
X94085701Y-67961083D01*
X94065591Y-68124233D01*
X94018115Y-68414609D01*
X93954613Y-68725321D01*
X93910275Y-68909618D01*
X93877509Y-69045816D01*
X93824256Y-69238678D01*
X93789227Y-69365543D01*
X93692191Y-69673950D01*
X93691660Y-69675530D01*
X93652145Y-69796409D01*
X93618767Y-69904847D01*
X93593479Y-69993963D01*
X93578236Y-70056874D01*
X93574992Y-70086700D01*
X93578206Y-70096656D01*
X93594180Y-70144138D01*
X93618661Y-70215674D01*
X93647805Y-70300000D01*
X93693065Y-70441226D01*
X93737519Y-70619979D01*
X93766870Y-70803041D01*
X93782967Y-71002722D01*
X93787224Y-71210167D01*
X93787658Y-71231333D01*
X93783058Y-71452896D01*
X93769159Y-71645101D01*
X93745861Y-71797957D01*
X93713052Y-71912473D01*
X93692505Y-71947213D01*
X93649865Y-71983502D01*
X93581986Y-72017338D01*
X93483294Y-72051410D01*
X93348215Y-72088404D01*
X93266014Y-72108384D01*
X93252854Y-72110931D01*
X93034367Y-72153218D01*
X92810788Y-72176981D01*
X92575313Y-72182093D01*
X92334377Y-72178785D01*
X92156374Y-72393832D01*
X91933399Y-72649601D01*
X91663951Y-72930949D01*
X91377840Y-73204540D01*
X91086032Y-73459928D01*
X90799492Y-73686667D01*
X90751333Y-73722752D01*
X90677832Y-73779626D01*
X90631153Y-73820158D01*
X90606164Y-73849810D01*
X90597734Y-73874047D01*
X90600734Y-73898333D01*
X90604331Y-73918816D01*
X90609676Y-73981092D01*
X90613261Y-74066526D01*
X90614298Y-74150199D01*
X90614455Y-74162917D01*
X90613816Y-74233436D01*
X90609897Y-74316123D01*
X90600277Y-74378685D01*
X90582531Y-74434587D01*
X90554234Y-74497296D01*
X90525158Y-74551155D01*
X90419431Y-74691996D01*
X90285608Y-74810928D01*
X90132363Y-74901160D01*
X89968375Y-74955900D01*
X89805036Y-74972143D01*
X89631279Y-74952192D01*
X89465723Y-74896816D01*
X89314362Y-74809531D01*
X89183190Y-74693852D01*
X89078204Y-74553291D01*
X89005399Y-74391365D01*
X88991309Y-74324767D01*
X88981855Y-74230995D01*
X88979285Y-74160191D01*
X89336316Y-74160191D01*
X89354529Y-74274941D01*
X89402516Y-74383367D01*
X89481713Y-74479366D01*
X89593557Y-74556834D01*
X89720664Y-74601606D01*
X89852194Y-74606950D01*
X89979398Y-74571486D01*
X90097338Y-74495812D01*
X90107941Y-74486493D01*
X90195050Y-74383460D01*
X90246547Y-74269292D01*
X90264695Y-74150199D01*
X90251758Y-74032390D01*
X90209998Y-73922076D01*
X90141679Y-73825467D01*
X90049065Y-73748771D01*
X89934417Y-73698200D01*
X89800000Y-73679963D01*
X89771804Y-73680694D01*
X89641554Y-73705210D01*
X89532456Y-73760025D01*
X89445946Y-73839034D01*
X89383461Y-73936134D01*
X89346439Y-74045221D01*
X89336316Y-74160191D01*
X88979285Y-74160191D01*
X88978047Y-74126091D01*
X88979987Y-74023313D01*
X88987775Y-73935919D01*
X89001510Y-73877167D01*
X89001766Y-73876499D01*
X88994672Y-73852518D01*
X88959559Y-73813523D01*
X88893810Y-73757024D01*
X88794808Y-73680531D01*
X88724496Y-73627077D01*
X88387411Y-73350752D01*
X88054035Y-73045631D01*
X87735187Y-72722032D01*
X87441685Y-72390271D01*
X87265433Y-72178935D01*
X87014008Y-72181775D01*
X86931219Y-72181427D01*
X86756941Y-72173095D01*
X86583685Y-72155590D01*
X86417353Y-72130229D01*
X86337599Y-72113658D01*
X87706766Y-72113658D01*
X87708042Y-72118505D01*
X87728760Y-72148372D01*
X87769069Y-72198863D01*
X87823183Y-72262577D01*
X87998706Y-72457752D01*
X88317604Y-72783695D01*
X88648065Y-73087645D01*
X88979867Y-73359903D01*
X89211908Y-73538434D01*
X89292605Y-73474521D01*
X89362450Y-73424080D01*
X89480160Y-73363076D01*
X89611077Y-73326789D01*
X89768250Y-73310727D01*
X89837976Y-73308658D01*
X89929677Y-73311323D01*
X90005792Y-73323190D01*
X90082717Y-73346106D01*
X90133506Y-73366373D01*
X90227422Y-73412759D01*
X90307663Y-73462153D01*
X90408642Y-73534700D01*
X90638779Y-73356008D01*
X90883667Y-73156869D01*
X91161098Y-72911496D01*
X91428751Y-72654812D01*
X91671904Y-72400435D01*
X91934993Y-72110931D01*
X91763833Y-72055317D01*
X91702200Y-72034266D01*
X91622804Y-71999919D01*
X91571002Y-71962025D01*
X91537946Y-71913140D01*
X91514786Y-71845821D01*
X91507606Y-71816228D01*
X91488192Y-71706586D01*
X91471965Y-71572592D01*
X91460102Y-71427613D01*
X91453781Y-71285016D01*
X91454160Y-71164467D01*
X91632189Y-71164467D01*
X91634700Y-71372968D01*
X91651031Y-71577805D01*
X91680232Y-71760500D01*
X91683159Y-71772830D01*
X91696709Y-71806244D01*
X91721459Y-71833214D01*
X91763498Y-71856547D01*
X91828917Y-71879046D01*
X91923804Y-71903517D01*
X92054250Y-71932765D01*
X92149139Y-71950072D01*
X92320587Y-71970341D01*
X92508112Y-71982057D01*
X92697428Y-71984794D01*
X92874246Y-71978127D01*
X93024279Y-71961632D01*
X93130666Y-71942454D01*
X93250730Y-71917026D01*
X93360591Y-71890102D01*
X93449696Y-71864289D01*
X93507494Y-71842196D01*
X93527398Y-71820795D01*
X93551327Y-71758210D01*
X93570830Y-71661301D01*
X93585267Y-71534622D01*
X93593998Y-71382726D01*
X93596382Y-71210167D01*
X93595611Y-71148789D01*
X93583982Y-70929093D01*
X93556545Y-70726351D01*
X93510575Y-70528113D01*
X93443342Y-70321934D01*
X93352121Y-70095363D01*
X93268249Y-69901310D01*
X93149270Y-69984656D01*
X92985436Y-70075516D01*
X92804758Y-70131538D01*
X92617210Y-70150508D01*
X92429623Y-70132422D01*
X92248830Y-70077278D01*
X92081661Y-69985074D01*
X91963279Y-69902147D01*
X91898929Y-70042865D01*
X91869531Y-70108479D01*
X91781127Y-70330337D01*
X91716517Y-70542437D01*
X91671342Y-70761003D01*
X91641245Y-71002261D01*
X91632189Y-71164467D01*
X91454160Y-71164467D01*
X91454180Y-71158166D01*
X91454805Y-71140745D01*
X91457316Y-71052881D01*
X91456351Y-70998778D01*
X91450574Y-70971068D01*
X91438652Y-70962384D01*
X91419250Y-70965360D01*
X91380599Y-70972497D01*
X91320050Y-70977044D01*
X91263183Y-70977333D01*
X91256550Y-71501208D01*
X91254348Y-71659788D01*
X91251837Y-71788274D01*
X91248610Y-71885757D01*
X91244170Y-71958006D01*
X91238026Y-72010788D01*
X91229682Y-72049873D01*
X91218644Y-72081030D01*
X91204420Y-72110027D01*
X91184552Y-72144505D01*
X91084010Y-72267593D01*
X90953861Y-72360586D01*
X90940724Y-72367436D01*
X90919593Y-72376857D01*
X90894737Y-72384658D01*
X90862293Y-72391022D01*
X90818403Y-72396132D01*
X90759204Y-72400171D01*
X90680837Y-72403322D01*
X90579441Y-72405768D01*
X90451154Y-72407692D01*
X90292117Y-72409278D01*
X90098468Y-72410708D01*
X89866347Y-72412166D01*
X89774195Y-72412714D01*
X89538739Y-72413864D01*
X89340467Y-72414120D01*
X89175566Y-72413113D01*
X89040225Y-72410477D01*
X88930633Y-72405843D01*
X88842978Y-72398844D01*
X88773450Y-72389112D01*
X88718237Y-72376280D01*
X88673528Y-72359981D01*
X88635512Y-72339847D01*
X88600376Y-72315509D01*
X88564311Y-72286602D01*
X88536155Y-72259963D01*
X88477721Y-72187889D01*
X88432226Y-72111250D01*
X88430809Y-72108200D01*
X88415311Y-72072841D01*
X88403511Y-72038209D01*
X88394903Y-71998153D01*
X88388982Y-71946521D01*
X88385241Y-71877162D01*
X88383175Y-71783925D01*
X88382277Y-71660657D01*
X88382040Y-71501208D01*
X88381718Y-71406641D01*
X88380242Y-71275137D01*
X88377742Y-71162650D01*
X88374404Y-71075008D01*
X88370414Y-71018041D01*
X88365958Y-70997578D01*
X88359631Y-70996865D01*
X88319991Y-70990361D01*
X88261624Y-70979528D01*
X88173165Y-70962399D01*
X88172508Y-71250324D01*
X88170415Y-71365251D01*
X88170241Y-71374845D01*
X88160353Y-71543356D01*
X88143458Y-71692479D01*
X88120455Y-71816512D01*
X88092240Y-71909753D01*
X88059713Y-71966501D01*
X88058836Y-71967415D01*
X88015150Y-71997814D01*
X87945624Y-72031446D01*
X87864896Y-72061197D01*
X87853780Y-72064677D01*
X87782153Y-72087536D01*
X87729580Y-72105047D01*
X87706766Y-72113658D01*
X86337599Y-72113658D01*
X86263847Y-72098334D01*
X86129067Y-72061224D01*
X86018916Y-72020219D01*
X85939295Y-71976638D01*
X85896105Y-71931800D01*
X85871321Y-71866725D01*
X85845797Y-71750952D01*
X85827018Y-71601597D01*
X85815535Y-71423312D01*
X85811899Y-71220750D01*
X85812009Y-71201091D01*
X85993801Y-71201091D01*
X85994408Y-71299156D01*
X86002084Y-71405937D01*
X86017155Y-71537887D01*
X86017291Y-71538968D01*
X86035002Y-71666089D01*
X86051625Y-71755309D01*
X86068154Y-71810977D01*
X86085584Y-71837444D01*
X86091096Y-71840913D01*
X86138781Y-71860241D01*
X86216497Y-71883704D01*
X86314640Y-71908953D01*
X86423605Y-71933639D01*
X86533787Y-71955414D01*
X86635583Y-71971929D01*
X86779215Y-71986038D01*
X87009959Y-71990164D01*
X87252326Y-71975722D01*
X87491195Y-71943789D01*
X87711446Y-71895437D01*
X87753882Y-71883800D01*
X87829865Y-71860376D01*
X87877223Y-71836074D01*
X87904510Y-71802247D01*
X87920283Y-71750247D01*
X87933099Y-71671427D01*
X87964695Y-71365251D01*
X87963788Y-71052813D01*
X87926084Y-70748386D01*
X87850617Y-70444401D01*
X87736417Y-70133289D01*
X87638366Y-69900995D01*
X87519162Y-69984498D01*
X87503212Y-69995381D01*
X87344281Y-70079039D01*
X87169470Y-70132819D01*
X86994126Y-70151833D01*
X86859711Y-70151833D01*
X86891206Y-70241098D01*
X86899856Y-70264002D01*
X86935906Y-70345075D01*
X86976300Y-70421823D01*
X86979905Y-70428062D01*
X87016692Y-70514530D01*
X87016886Y-70580353D01*
X86980480Y-70625221D01*
X86975576Y-70627912D01*
X86921511Y-70633181D01*
X86845398Y-70612702D01*
X86753770Y-70570663D01*
X86653157Y-70511249D01*
X86550091Y-70438647D01*
X86451104Y-70357045D01*
X86362727Y-70270628D01*
X86291491Y-70183583D01*
X86246808Y-70120083D01*
X86190156Y-70247083D01*
X86178576Y-70274002D01*
X86122856Y-70431548D01*
X86073720Y-70616495D01*
X86034103Y-70816476D01*
X86006940Y-71019124D01*
X85999941Y-71095288D01*
X85993801Y-71201091D01*
X85812009Y-71201091D01*
X85812160Y-71174270D01*
X85818099Y-70977901D01*
X85833556Y-70805226D01*
X85860891Y-70641320D01*
X85902464Y-70471261D01*
X85960635Y-70280125D01*
X86035394Y-70050425D01*
X85917760Y-69704254D01*
X85828616Y-69425034D01*
X85819318Y-69392115D01*
X86146386Y-69392115D01*
X86160421Y-69554212D01*
X86194599Y-69719750D01*
X86245865Y-69870433D01*
X86250301Y-69880545D01*
X86314541Y-69999212D01*
X86399862Y-70122633D01*
X86494916Y-70235791D01*
X86588353Y-70323667D01*
X86645256Y-70365416D01*
X86713682Y-70410334D01*
X86782139Y-70451278D01*
X86841875Y-70483281D01*
X86884135Y-70501376D01*
X86900167Y-70500596D01*
X86899080Y-70495727D01*
X86885140Y-70461817D01*
X86860275Y-70410282D01*
X86853880Y-70397028D01*
X86825999Y-70331010D01*
X86793097Y-70244217D01*
X86761005Y-70151833D01*
X86754635Y-70132432D01*
X86737609Y-70077877D01*
X86724528Y-70027592D01*
X86714757Y-69974920D01*
X86707659Y-69913203D01*
X86702599Y-69835785D01*
X86698941Y-69736008D01*
X86696049Y-69607216D01*
X86693287Y-69442750D01*
X86691885Y-69353810D01*
X86772877Y-69353810D01*
X86773428Y-69480839D01*
X86776006Y-69605436D01*
X86780633Y-69719991D01*
X86787326Y-69816888D01*
X86796107Y-69888517D01*
X86796537Y-69890980D01*
X86810606Y-69962405D01*
X86825496Y-70002815D01*
X86847627Y-70022844D01*
X86883420Y-70033125D01*
X86978749Y-70042326D01*
X87120800Y-70029655D01*
X87265962Y-69991081D01*
X87399544Y-69929553D01*
X87519344Y-69841886D01*
X87544126Y-69814535D01*
X87819018Y-69814535D01*
X87888441Y-69956726D01*
X87909680Y-70002073D01*
X87970121Y-70148593D01*
X88028095Y-70311674D01*
X88077544Y-70473476D01*
X88112409Y-70616160D01*
X88124239Y-70670631D01*
X88141199Y-70724099D01*
X88161987Y-70752535D01*
X88192016Y-70766139D01*
X88246577Y-70779243D01*
X88313042Y-70793409D01*
X88381833Y-70806942D01*
X88381833Y-70383457D01*
X88381994Y-70296758D01*
X88383699Y-70155154D01*
X88388261Y-70045582D01*
X88392933Y-69999926D01*
X88731083Y-69999926D01*
X88731083Y-71975907D01*
X88781053Y-72016370D01*
X88782692Y-72017681D01*
X88796464Y-72026990D01*
X88814582Y-72034697D01*
X88840844Y-72040952D01*
X88879050Y-72045906D01*
X88932998Y-72049710D01*
X89006487Y-72052515D01*
X89103315Y-72054472D01*
X89227282Y-72055731D01*
X89382186Y-72056444D01*
X89571826Y-72056761D01*
X89800000Y-72056833D01*
X89831404Y-72056832D01*
X90054448Y-72056737D01*
X90239442Y-72056378D01*
X90390186Y-72055604D01*
X90510477Y-72054264D01*
X90604115Y-72052208D01*
X90674898Y-72049283D01*
X90726625Y-72045341D01*
X90763094Y-72040229D01*
X90788105Y-72033797D01*
X90805457Y-72025895D01*
X90818947Y-72016370D01*
X90868917Y-71975907D01*
X90868917Y-69999926D01*
X90818947Y-69959463D01*
X90817308Y-69958152D01*
X90803536Y-69948843D01*
X90785419Y-69941136D01*
X90759156Y-69934881D01*
X90720951Y-69929927D01*
X90667003Y-69926123D01*
X90593514Y-69923318D01*
X90496685Y-69921361D01*
X90372718Y-69920102D01*
X90217814Y-69919389D01*
X90028174Y-69919072D01*
X89800000Y-69919000D01*
X89768596Y-69919001D01*
X89545552Y-69919096D01*
X89360558Y-69919455D01*
X89209815Y-69920229D01*
X89089524Y-69921569D01*
X88995886Y-69923625D01*
X88925103Y-69926550D01*
X88873376Y-69930492D01*
X88836906Y-69935604D01*
X88811895Y-69942036D01*
X88794544Y-69949938D01*
X88781053Y-69959463D01*
X88731083Y-69999926D01*
X88392933Y-69999926D01*
X88396893Y-69961227D01*
X88410806Y-69895274D01*
X88431213Y-69840909D01*
X88459327Y-69791316D01*
X88496360Y-69739680D01*
X88525548Y-69708556D01*
X88588396Y-69657454D01*
X88659747Y-69611649D01*
X88773417Y-69548800D01*
X89233792Y-69541327D01*
X89291608Y-69540288D01*
X89420327Y-69537203D01*
X89531018Y-69533479D01*
X89617606Y-69529384D01*
X89674014Y-69525184D01*
X89694167Y-69521144D01*
X89693842Y-69519201D01*
X89927000Y-69519201D01*
X89927134Y-69521144D01*
X89927542Y-69527097D01*
X89933322Y-69538421D01*
X89949773Y-69546722D01*
X89982173Y-69552471D01*
X90035797Y-69556139D01*
X90115924Y-69558198D01*
X90227830Y-69559119D01*
X90376792Y-69559373D01*
X90464794Y-69559469D01*
X90594392Y-69560145D01*
X90691983Y-69561982D01*
X90764213Y-69565582D01*
X90817726Y-69571543D01*
X90859168Y-69580469D01*
X90895183Y-69592958D01*
X90932417Y-69609613D01*
X91025114Y-69662965D01*
X91122468Y-69754638D01*
X91195288Y-69876667D01*
X91206948Y-69904422D01*
X91218987Y-69942751D01*
X91227558Y-69988921D01*
X91228586Y-69999926D01*
X91233246Y-70049828D01*
X91236637Y-70132371D01*
X91238316Y-70243449D01*
X91238869Y-70389958D01*
X91239237Y-70492011D01*
X91240888Y-70616975D01*
X91244095Y-70706597D01*
X91249132Y-70765110D01*
X91256273Y-70796745D01*
X91265792Y-70805733D01*
X91274549Y-70804633D01*
X91320456Y-70796350D01*
X91382113Y-70783340D01*
X91431410Y-70769459D01*
X91467815Y-70745560D01*
X91484448Y-70706231D01*
X91489616Y-70682891D01*
X91564135Y-70394190D01*
X91650948Y-70137229D01*
X91748450Y-69916811D01*
X91790851Y-69833699D01*
X91671516Y-69588275D01*
X91656541Y-69556504D01*
X91870367Y-69556504D01*
X91909392Y-69625907D01*
X91924790Y-69651750D01*
X92025852Y-69777522D01*
X92093222Y-69833699D01*
X92156083Y-69886117D01*
X92305158Y-69970142D01*
X92462750Y-70022200D01*
X92498569Y-70029369D01*
X92608520Y-70042791D01*
X92710195Y-70037235D01*
X92826320Y-70012068D01*
X92978684Y-69954478D01*
X93131416Y-69855484D01*
X93260355Y-69723032D01*
X93362470Y-69559679D01*
X93373780Y-69536429D01*
X93403607Y-69467493D01*
X93420606Y-69405918D01*
X93428259Y-69335160D01*
X93430050Y-69238678D01*
X93429842Y-69203579D01*
X93427655Y-69125118D01*
X93423590Y-69068078D01*
X93418276Y-69042914D01*
X93405382Y-69042471D01*
X93359054Y-69052036D01*
X93288028Y-69071536D01*
X93201317Y-69098654D01*
X92996167Y-69166229D01*
X92996167Y-69223961D01*
X92996167Y-69239598D01*
X92995571Y-69260422D01*
X92970966Y-69370056D01*
X92915581Y-69461627D01*
X92836743Y-69532423D01*
X92741774Y-69579732D01*
X92637999Y-69600845D01*
X92532743Y-69593048D01*
X92433330Y-69553631D01*
X92347085Y-69479882D01*
X92301253Y-69425386D01*
X92236498Y-69479874D01*
X92154228Y-69534016D01*
X92047969Y-69569818D01*
X91945054Y-69570516D01*
X91870367Y-69556504D01*
X91656541Y-69556504D01*
X91618186Y-69475128D01*
X91574664Y-69369926D01*
X91549500Y-69285101D01*
X91541752Y-69218787D01*
X91747333Y-69218787D01*
X91749910Y-69261632D01*
X91769515Y-69319288D01*
X91816125Y-69378055D01*
X91898536Y-69441466D01*
X91986263Y-69464037D01*
X92077212Y-69444667D01*
X92088656Y-69439343D01*
X92167783Y-69381170D01*
X92217787Y-69304283D01*
X92231681Y-69239999D01*
X92359746Y-69239999D01*
X92384392Y-69332389D01*
X92439989Y-69411347D01*
X92522791Y-69466481D01*
X92551341Y-69477958D01*
X92607356Y-69492958D01*
X92656291Y-69486788D01*
X92719496Y-69458592D01*
X92798944Y-69403422D01*
X92855095Y-69322467D01*
X92873037Y-69223961D01*
X92868550Y-69177437D01*
X92835187Y-69090340D01*
X92776301Y-69024846D01*
X92700199Y-68983130D01*
X92615191Y-68967365D01*
X92529583Y-68979725D01*
X92451684Y-69022384D01*
X92389802Y-69097516D01*
X92369797Y-69144571D01*
X92362063Y-69217997D01*
X92359746Y-69239999D01*
X92231681Y-69239999D01*
X92236436Y-69217997D01*
X92221496Y-69131628D01*
X92170736Y-69054492D01*
X92101025Y-69001367D01*
X92007745Y-68973673D01*
X91906513Y-68987525D01*
X91897700Y-68990623D01*
X91817519Y-69041495D01*
X91765719Y-69119987D01*
X91747333Y-69218787D01*
X91541752Y-69218787D01*
X91540961Y-69212021D01*
X91547316Y-69142052D01*
X91566831Y-69066562D01*
X91567771Y-69063570D01*
X91586983Y-68997738D01*
X91592067Y-68953553D01*
X91582108Y-68913075D01*
X91556188Y-68858367D01*
X91549268Y-68844792D01*
X91896030Y-68844792D01*
X91900586Y-68849681D01*
X91934977Y-68857558D01*
X91992142Y-68860667D01*
X91996934Y-68860681D01*
X92087735Y-68869937D01*
X92162520Y-68901371D01*
X92239458Y-68962463D01*
X92297667Y-69016753D01*
X92355875Y-68961223D01*
X92373847Y-68945193D01*
X92474764Y-68885668D01*
X92586981Y-68860285D01*
X92700879Y-68868624D01*
X92806840Y-68910265D01*
X92895247Y-68984788D01*
X92907746Y-68998834D01*
X92948782Y-69035340D01*
X92978925Y-69048836D01*
X93004145Y-69045137D01*
X93067527Y-69029540D01*
X93143135Y-69005933D01*
X93220377Y-68978228D01*
X93288662Y-68950333D01*
X93337401Y-68926160D01*
X93356000Y-68909618D01*
X93355205Y-68898949D01*
X93331499Y-68837296D01*
X93280189Y-68762901D01*
X93208491Y-68683170D01*
X93123624Y-68605510D01*
X93032805Y-68537329D01*
X92943250Y-68486032D01*
X92916113Y-68473661D01*
X92852901Y-68449158D01*
X92791459Y-68434941D01*
X92717107Y-68428355D01*
X92615167Y-68426750D01*
X92576674Y-68426903D01*
X92485423Y-68429936D01*
X92417002Y-68438841D01*
X92356879Y-68456211D01*
X92290523Y-68484635D01*
X92232776Y-68513873D01*
X92156587Y-68558202D01*
X92100023Y-68597656D01*
X92092827Y-68603757D01*
X92045236Y-68649907D01*
X91993202Y-68707453D01*
X91945284Y-68766029D01*
X91910041Y-68815264D01*
X91896030Y-68844792D01*
X91549268Y-68844792D01*
X91539922Y-68826458D01*
X91515270Y-68779626D01*
X91502705Y-68757987D01*
X91498603Y-68757908D01*
X91470008Y-68773103D01*
X91425039Y-68804770D01*
X91386454Y-68831927D01*
X91260063Y-68901060D01*
X91119444Y-68955828D01*
X90985117Y-68987697D01*
X90895450Y-68995348D01*
X90725734Y-68985731D01*
X90559496Y-68948017D01*
X90408201Y-68885263D01*
X90283311Y-68800527D01*
X90207975Y-68734381D01*
X90121440Y-68920629D01*
X90108923Y-68948270D01*
X90066694Y-69050400D01*
X90024953Y-69162899D01*
X89986908Y-69275898D01*
X89955763Y-69379527D01*
X89934725Y-69463918D01*
X89927000Y-69519201D01*
X89693842Y-69519201D01*
X89688623Y-69488027D01*
X89669772Y-69420637D01*
X89640718Y-69331335D01*
X89604753Y-69229401D01*
X89565166Y-69124113D01*
X89525248Y-69024749D01*
X89488289Y-68940588D01*
X89391961Y-68734760D01*
X89315522Y-68794813D01*
X89299040Y-68807417D01*
X89233517Y-68852950D01*
X89175583Y-68887483D01*
X89157780Y-68898018D01*
X89149139Y-68907081D01*
X89111634Y-68946419D01*
X89074806Y-69026179D01*
X89053546Y-69074567D01*
X89004469Y-69157328D01*
X88947806Y-69230801D01*
X88907132Y-69273749D01*
X88863317Y-69309917D01*
X88821015Y-69326187D01*
X88765972Y-69330364D01*
X88696995Y-69323819D01*
X88617805Y-69289789D01*
X88594224Y-69270153D01*
X88526389Y-69193565D01*
X88465136Y-69098569D01*
X88421978Y-69002084D01*
X88393434Y-68943457D01*
X88330340Y-68888059D01*
X88316877Y-68880811D01*
X88300474Y-68870593D01*
X88493875Y-68870593D01*
X88510138Y-68937345D01*
X88539805Y-69014531D01*
X88577839Y-69089187D01*
X88619202Y-69148348D01*
X88634430Y-69164647D01*
X88704327Y-69213509D01*
X88773600Y-69220890D01*
X88840666Y-69187470D01*
X88903940Y-69113932D01*
X88961836Y-69000957D01*
X88990837Y-68907081D01*
X88989045Y-68838767D01*
X88955559Y-68798358D01*
X88928239Y-68786481D01*
X88852194Y-68768768D01*
X88763094Y-68761969D01*
X88671891Y-68765352D01*
X88589539Y-68778181D01*
X88526990Y-68799722D01*
X88495198Y-68829239D01*
X88493875Y-68870593D01*
X88300474Y-68870593D01*
X88253406Y-68841273D01*
X88189846Y-68795501D01*
X88114275Y-68736135D01*
X88084821Y-68795457D01*
X88054460Y-68856609D01*
X88034056Y-68899319D01*
X88013235Y-68953892D01*
X88002018Y-69009367D01*
X87998022Y-69079529D01*
X87998862Y-69178167D01*
X87995909Y-69236716D01*
X87988936Y-69375011D01*
X87945427Y-69567179D01*
X87867913Y-69734476D01*
X87819018Y-69814535D01*
X87544126Y-69814535D01*
X87634719Y-69714553D01*
X87723117Y-69566067D01*
X87780994Y-69404198D01*
X87804806Y-69236716D01*
X87791009Y-69071389D01*
X87772593Y-68989541D01*
X87753839Y-68938693D01*
X87728526Y-68918642D01*
X87689318Y-68923838D01*
X87628877Y-68948731D01*
X87599801Y-68960566D01*
X87467511Y-68994217D01*
X87318202Y-69007147D01*
X87168023Y-68998815D01*
X87033126Y-68968680D01*
X87032877Y-68968596D01*
X86937776Y-68939118D01*
X86872672Y-68926580D01*
X86829093Y-68930293D01*
X86798567Y-68949566D01*
X86790550Y-68973639D01*
X86783190Y-69034264D01*
X86777778Y-69122910D01*
X86774333Y-69231962D01*
X86772877Y-69353810D01*
X86691885Y-69353810D01*
X86684948Y-68913583D01*
X86737145Y-68864613D01*
X86786126Y-68830775D01*
X86850334Y-68816558D01*
X86933157Y-68826449D01*
X87042766Y-68860333D01*
X87058884Y-68865930D01*
X87194515Y-68895508D01*
X87338842Y-68901077D01*
X87477020Y-68883129D01*
X87594208Y-68842152D01*
X87684999Y-68795457D01*
X87640795Y-68733378D01*
X87609665Y-68694789D01*
X87523276Y-68612421D01*
X87418792Y-68535156D01*
X87311231Y-68474780D01*
X87302127Y-68470647D01*
X87243733Y-68448504D01*
X87181735Y-68435113D01*
X87103255Y-68428514D01*
X86995417Y-68426750D01*
X86938171Y-68427069D01*
X86850187Y-68430439D01*
X86784115Y-68439365D01*
X86726435Y-68456141D01*
X86663626Y-68483062D01*
X86643622Y-68492731D01*
X86485192Y-68594232D01*
X86356129Y-68725899D01*
X86256896Y-68887000D01*
X86187954Y-69076805D01*
X86149766Y-69294583D01*
X86146386Y-69392115D01*
X85819318Y-69392115D01*
X85742256Y-69119285D01*
X85665226Y-68809566D01*
X85599945Y-68506326D01*
X85548829Y-68220015D01*
X85514300Y-67961083D01*
X85508143Y-67903290D01*
X85497996Y-67826949D01*
X85485506Y-67781167D01*
X85842737Y-67781167D01*
X85846094Y-67812494D01*
X85856608Y-67879910D01*
X85872915Y-67974572D01*
X85893616Y-68089012D01*
X85917315Y-68215767D01*
X85942613Y-68347371D01*
X85968112Y-68476359D01*
X85992416Y-68595265D01*
X86014126Y-68696625D01*
X86031674Y-68765492D01*
X86050395Y-68808981D01*
X86067847Y-68812336D01*
X86085032Y-68776687D01*
X86117793Y-68710158D01*
X86176398Y-68627628D01*
X86251217Y-68541161D01*
X86333083Y-68461328D01*
X86412830Y-68398698D01*
X86579543Y-68308645D01*
X86764825Y-68249830D01*
X86955199Y-68226518D01*
X87144854Y-68237807D01*
X87327978Y-68282795D01*
X87498761Y-68360580D01*
X87651390Y-68470259D01*
X87780053Y-68610931D01*
X87786854Y-68620149D01*
X87832263Y-68679205D01*
X87860867Y-68708444D01*
X87878846Y-68712557D01*
X87892376Y-68696237D01*
X87896055Y-68687678D01*
X87897441Y-68651994D01*
X87880517Y-68598165D01*
X87842887Y-68517528D01*
X87823635Y-68477199D01*
X87758612Y-68285575D01*
X87732952Y-68091462D01*
X87734490Y-68066917D01*
X87947917Y-68066917D01*
X87948236Y-68124162D01*
X87951606Y-68212146D01*
X87960532Y-68278219D01*
X87977308Y-68335899D01*
X88004229Y-68398707D01*
X88041409Y-68467481D01*
X88121977Y-68580989D01*
X88215885Y-68682181D01*
X88310914Y-68756789D01*
X88383028Y-68801357D01*
X88424611Y-68748493D01*
X88424729Y-68748343D01*
X88485094Y-68701978D01*
X88576925Y-68669701D01*
X88691096Y-68653654D01*
X88818483Y-68655981D01*
X88883239Y-68664120D01*
X88954585Y-68678034D01*
X89000842Y-68693003D01*
X89035157Y-68715119D01*
X89080333Y-68757145D01*
X89086679Y-68764989D01*
X89108356Y-68784577D01*
X89133498Y-68781799D01*
X89178281Y-68756557D01*
X89241171Y-68712849D01*
X89356984Y-68599618D01*
X89451345Y-68462321D01*
X89519566Y-68310288D01*
X89556958Y-68152848D01*
X89558833Y-67999330D01*
X89545737Y-67915184D01*
X89500713Y-67765848D01*
X89425793Y-67632788D01*
X89315103Y-67504064D01*
X89249617Y-67443082D01*
X89120471Y-67351431D01*
X88980891Y-67292452D01*
X88818808Y-67260213D01*
X88673211Y-67259366D01*
X88510129Y-67294361D01*
X88354617Y-67363402D01*
X88213838Y-67462323D01*
X88094955Y-67586962D01*
X88005131Y-67733155D01*
X87989081Y-67768710D01*
X87967577Y-67827398D01*
X87955102Y-67887602D01*
X87949325Y-67962912D01*
X87947917Y-68066917D01*
X87734490Y-68066917D01*
X87744959Y-67899814D01*
X87792936Y-67715587D01*
X87875184Y-67543738D01*
X87990007Y-67389221D01*
X88135708Y-67256993D01*
X88310588Y-67152009D01*
X88360116Y-67128999D01*
X88434347Y-67098875D01*
X88501842Y-67080710D01*
X88578958Y-67070670D01*
X88682049Y-67064922D01*
X88764860Y-67062750D01*
X88861657Y-67065825D01*
X88944937Y-67077849D01*
X89031545Y-67100538D01*
X89048070Y-67105718D01*
X89236043Y-67187790D01*
X89400237Y-67304316D01*
X89538396Y-67453349D01*
X89648264Y-67632942D01*
X89649676Y-67635830D01*
X89681508Y-67702481D01*
X89702959Y-67755611D01*
X89716076Y-67806390D01*
X89722909Y-67865990D01*
X89725506Y-67945580D01*
X89725706Y-67999330D01*
X89725917Y-68056333D01*
X89725917Y-68063824D01*
X89725439Y-68172417D01*
X89722616Y-68250779D01*
X89715328Y-68310345D01*
X89701459Y-68362551D01*
X89678892Y-68418835D01*
X89645508Y-68490631D01*
X89565100Y-68660346D01*
X89637004Y-68818714D01*
X89639852Y-68825012D01*
X89680227Y-68918463D01*
X89718085Y-69012693D01*
X89745572Y-69088208D01*
X89761136Y-69134021D01*
X89778487Y-69181089D01*
X89787252Y-69199333D01*
X89793599Y-69186366D01*
X89809339Y-69142749D01*
X89830194Y-69079021D01*
X89830275Y-69078764D01*
X89859007Y-68997070D01*
X89897810Y-68898627D01*
X89938309Y-68804689D01*
X90008498Y-68650668D01*
X89947537Y-68538115D01*
X89912046Y-68466302D01*
X89848298Y-68276405D01*
X89828625Y-68122063D01*
X90041860Y-68122063D01*
X90072031Y-68289338D01*
X90137672Y-68447198D01*
X90235436Y-68589470D01*
X90361977Y-68709979D01*
X90513949Y-68802550D01*
X90548406Y-68818177D01*
X90634353Y-68850028D01*
X90719634Y-68867341D01*
X90825623Y-68875090D01*
X90894348Y-68875850D01*
X91003104Y-68868844D01*
X91085112Y-68852360D01*
X91228579Y-68789356D01*
X91375676Y-68686783D01*
X91498726Y-68557972D01*
X91589401Y-68410224D01*
X91640100Y-68300795D01*
X91519092Y-68267278D01*
X91466623Y-68251705D01*
X91397845Y-68228193D01*
X91352326Y-68208802D01*
X91341578Y-68202392D01*
X91278647Y-68148736D01*
X91214519Y-68073134D01*
X91160609Y-67990519D01*
X91128333Y-67915821D01*
X91104817Y-67828226D01*
X91012397Y-67867842D01*
X90990851Y-67876764D01*
X90802564Y-67929933D01*
X90609739Y-67942484D01*
X90418391Y-67914581D01*
X90234533Y-67846391D01*
X90168214Y-67816846D01*
X90116447Y-67799950D01*
X90090711Y-67799489D01*
X90080355Y-67822616D01*
X90065635Y-67876859D01*
X90051051Y-67948397D01*
X90050504Y-67951548D01*
X90041860Y-68122063D01*
X89828625Y-68122063D01*
X89823818Y-68084347D01*
X89837042Y-67894801D01*
X89886400Y-67712437D01*
X89917907Y-67648424D01*
X90163776Y-67648424D01*
X90183103Y-67674231D01*
X90230877Y-67710829D01*
X90296044Y-67748821D01*
X90353191Y-67776580D01*
X90406192Y-67796152D01*
X90462442Y-67807099D01*
X90534961Y-67811870D01*
X90636773Y-67812917D01*
X90721775Y-67812219D01*
X90800774Y-67808059D01*
X90861724Y-67797972D01*
X90918116Y-67779518D01*
X90983444Y-67750260D01*
X91051898Y-67720082D01*
X91115207Y-67704770D01*
X91159644Y-67719275D01*
X91194421Y-67767464D01*
X91228750Y-67853202D01*
X91286189Y-67972873D01*
X91367598Y-68070430D01*
X91465549Y-68133438D01*
X91532774Y-68153517D01*
X91601207Y-68162167D01*
X91668106Y-68162167D01*
X91658440Y-67995190D01*
X91639428Y-67860636D01*
X91580669Y-67694859D01*
X91485845Y-67548645D01*
X91357206Y-67425246D01*
X91197000Y-67327915D01*
X91141882Y-67302791D01*
X91082839Y-67281275D01*
X91023463Y-67269147D01*
X90949764Y-67263790D01*
X90847750Y-67262587D01*
X90768589Y-67263201D01*
X90689189Y-67267215D01*
X90628495Y-67277160D01*
X90572972Y-67295522D01*
X90509083Y-67324787D01*
X90501587Y-67328540D01*
X90425481Y-67374218D01*
X90347229Y-67432387D01*
X90274382Y-67495969D01*
X90214490Y-67557887D01*
X90175104Y-67611064D01*
X90163776Y-67648424D01*
X89917907Y-67648424D01*
X89970325Y-67541928D01*
X90087251Y-67387946D01*
X90235610Y-67255162D01*
X90255467Y-67243250D01*
X91328713Y-67243250D01*
X91328992Y-67244133D01*
X91349255Y-67269687D01*
X91393373Y-67311938D01*
X91452334Y-67362214D01*
X91570085Y-67457706D01*
X91627043Y-67408713D01*
X91650541Y-67390724D01*
X91745185Y-67349177D01*
X91851738Y-67339056D01*
X91960601Y-67357818D01*
X92062173Y-67402917D01*
X92146855Y-67471807D01*
X92205046Y-67561945D01*
X92206276Y-67564943D01*
X92229212Y-67659155D01*
X92231852Y-67763161D01*
X92213524Y-67853872D01*
X92201806Y-67893364D01*
X92209317Y-67904422D01*
X92239148Y-67883199D01*
X92293131Y-67829125D01*
X92301341Y-67820292D01*
X92384053Y-67707633D01*
X92430489Y-67585527D01*
X92445162Y-67442500D01*
X92441752Y-67378144D01*
X92407767Y-67235699D01*
X92341802Y-67109274D01*
X92249376Y-67003252D01*
X92136009Y-66922016D01*
X92007217Y-66869948D01*
X91868520Y-66851433D01*
X91725436Y-66870853D01*
X91688203Y-66883051D01*
X91572065Y-66942208D01*
X91466200Y-67024837D01*
X91386637Y-67119187D01*
X91361191Y-67162158D01*
X91336063Y-67213669D01*
X91328713Y-67243250D01*
X90255467Y-67243250D01*
X90413833Y-67148248D01*
X90448158Y-67131916D01*
X90512425Y-67103679D01*
X90567372Y-67086088D01*
X90625912Y-67076633D01*
X90700956Y-67072802D01*
X90805417Y-67072083D01*
X90881653Y-67072885D01*
X90975603Y-67076129D01*
X91050210Y-67081289D01*
X91093981Y-67087740D01*
X91123335Y-67093729D01*
X91152451Y-67083331D01*
X91175590Y-67040922D01*
X91201077Y-66996460D01*
X91263173Y-66923419D01*
X91345844Y-66848026D01*
X91438626Y-66779519D01*
X91531051Y-66727137D01*
X91531560Y-66726900D01*
X91600571Y-66698160D01*
X91665015Y-66681057D01*
X91740487Y-66672754D01*
X91842583Y-66670409D01*
X91858730Y-66670461D01*
X92024045Y-66684938D01*
X92165018Y-66727855D01*
X92291407Y-66803408D01*
X92412967Y-66915796D01*
X92466850Y-66978804D01*
X92553170Y-67116680D01*
X92602570Y-67265846D01*
X92618704Y-67435530D01*
X92618660Y-67442500D01*
X92618584Y-67454673D01*
X92596130Y-67636021D01*
X92535545Y-67799354D01*
X92437544Y-67943246D01*
X92302839Y-68066273D01*
X92282756Y-68080269D01*
X92185919Y-68127589D01*
X92098079Y-68140648D01*
X92024560Y-68123360D01*
X91970686Y-68079640D01*
X91941780Y-68013402D01*
X91943166Y-67928560D01*
X91980167Y-67829028D01*
X91998959Y-67792395D01*
X92018611Y-67737564D01*
X92016035Y-67691293D01*
X91992338Y-67636070D01*
X91949333Y-67582244D01*
X91884171Y-67542699D01*
X91813644Y-67528617D01*
X91751625Y-67545233D01*
X91742028Y-67556500D01*
X91739890Y-67586025D01*
X91751519Y-67638996D01*
X91778084Y-67723266D01*
X91790163Y-67761605D01*
X91829087Y-67965206D01*
X91827502Y-68162167D01*
X91827445Y-68169299D01*
X91799880Y-68300795D01*
X91785731Y-68368298D01*
X91704440Y-68556619D01*
X91692594Y-68578229D01*
X91665203Y-68635963D01*
X91658363Y-68672952D01*
X91669384Y-68700209D01*
X91682386Y-68713738D01*
X91701105Y-68713150D01*
X91728629Y-68687333D01*
X91772363Y-68631332D01*
X91858721Y-68530075D01*
X92004483Y-68407547D01*
X92182451Y-68306624D01*
X92188370Y-68303862D01*
X92268965Y-68269533D01*
X92340991Y-68248176D01*
X92421407Y-68235978D01*
X92527170Y-68229128D01*
X92629865Y-68227887D01*
X92809187Y-68246148D01*
X92968973Y-68293616D01*
X93118486Y-68372536D01*
X93217556Y-68446679D01*
X93323401Y-68546666D01*
X93414211Y-68653644D01*
X93478311Y-68755193D01*
X93520755Y-68840980D01*
X93554651Y-68686782D01*
X93579517Y-68566489D01*
X93607350Y-68417631D01*
X93634043Y-68261911D01*
X93657625Y-68111385D01*
X93676123Y-67978108D01*
X93687567Y-67874135D01*
X93691779Y-67822981D01*
X93694337Y-67765262D01*
X93688991Y-67733770D01*
X93673103Y-67718525D01*
X93644032Y-67709547D01*
X93582083Y-67688439D01*
X93464932Y-67621560D01*
X93351706Y-67525083D01*
X93250732Y-67406662D01*
X93170334Y-67273955D01*
X93147551Y-67224627D01*
X93129216Y-67171653D01*
X93118700Y-67113677D01*
X93113901Y-67038266D01*
X93112718Y-66932983D01*
X93112710Y-66918954D01*
X93505022Y-66918954D01*
X93520050Y-67042792D01*
X93567909Y-67158343D01*
X93647611Y-67258368D01*
X93758167Y-67335629D01*
X93758229Y-67335660D01*
X93889817Y-67380308D01*
X94023124Y-67385210D01*
X94150922Y-67351172D01*
X94265980Y-67278999D01*
X94351108Y-67185595D01*
X94411245Y-67067231D01*
X94434847Y-66940466D01*
X94421724Y-66812410D01*
X94371687Y-66690171D01*
X94284548Y-66580858D01*
X94261248Y-66560684D01*
X94169425Y-66503253D01*
X94065958Y-66462902D01*
X93969833Y-66447667D01*
X93941738Y-66449244D01*
X93841280Y-66473189D01*
X93739412Y-66519739D01*
X93655119Y-66580858D01*
X93577412Y-66675365D01*
X93523813Y-66794066D01*
X93505022Y-66918954D01*
X93112710Y-66918954D01*
X93112583Y-66709216D01*
X92922083Y-66628561D01*
X92647547Y-66518684D01*
X92114572Y-66339241D01*
X91563167Y-66196209D01*
X90996685Y-66090398D01*
X90418482Y-66022622D01*
X90397292Y-66020955D01*
X90251456Y-66013076D01*
X90076826Y-66008456D01*
X89882289Y-66006927D01*
X89676729Y-66008322D01*
X89469033Y-66012471D01*
X89268085Y-66019209D01*
X89082770Y-66028366D01*
X88921974Y-66039776D01*
X88794583Y-66053271D01*
X88245546Y-66142836D01*
X87704875Y-66265154D01*
X87181171Y-66419982D01*
X86667333Y-66609176D01*
X86423917Y-66707727D01*
X86423917Y-66924844D01*
X86423917Y-66932238D01*
X86422939Y-67035439D01*
X86418479Y-67110642D01*
X86408301Y-67168656D01*
X86390171Y-67222139D01*
X86361854Y-67283750D01*
X86305181Y-67379580D01*
X86204268Y-67501402D01*
X86085907Y-67604235D01*
X85961773Y-67676614D01*
X85927150Y-67692106D01*
X85874318Y-67721096D01*
X85849105Y-67748214D01*
X85842737Y-67781167D01*
X85485506Y-67781167D01*
X85484970Y-67779201D01*
X85464224Y-67751369D01*
X85430917Y-67734777D01*
X85380207Y-67720747D01*
X85325840Y-67703716D01*
X85187839Y-67633585D01*
X85059193Y-67531466D01*
X84948231Y-67404767D01*
X84863280Y-67260897D01*
X84849918Y-67230139D01*
X84832263Y-67176270D01*
X84821706Y-67115035D01*
X84816588Y-67034797D01*
X84815250Y-66923917D01*
X84815259Y-66922318D01*
X85169631Y-66922318D01*
X85187355Y-67056945D01*
X85191093Y-67069152D01*
X85239269Y-67164327D01*
X85313938Y-67255112D01*
X85403171Y-67329202D01*
X85495039Y-67374294D01*
X85503483Y-67376754D01*
X85621482Y-67397931D01*
X85729118Y-67386853D01*
X85843199Y-67341958D01*
X85867361Y-67328946D01*
X85973697Y-67247858D01*
X86047335Y-67149412D01*
X86089733Y-67039708D01*
X86102349Y-66924844D01*
X86086643Y-66810919D01*
X86044074Y-66704032D01*
X85976100Y-66610281D01*
X85884180Y-66535765D01*
X85769774Y-66486582D01*
X85634339Y-66468833D01*
X85556507Y-66475092D01*
X85430904Y-66514455D01*
X85324863Y-66584848D01*
X85242936Y-66680281D01*
X85189675Y-66794768D01*
X85169631Y-66922318D01*
X84815259Y-66922318D01*
X84815618Y-66858346D01*
X84818833Y-66765786D01*
X84826743Y-66697456D01*
X84841005Y-66641719D01*
X84863280Y-66586936D01*
X84932068Y-66463431D01*
X85051486Y-66321473D01*
X85200260Y-66209936D01*
X85377922Y-66129236D01*
X85535370Y-66093810D01*
X85711587Y-66091805D01*
X85884466Y-66126262D01*
X86045582Y-66195426D01*
X86186511Y-66297545D01*
X86280358Y-66384050D01*
X86505881Y-66289564D01*
X86707752Y-66208123D01*
X87263828Y-66014674D01*
X87833101Y-65860280D01*
X88412532Y-65745264D01*
X88999085Y-65669951D01*
X89589721Y-65634664D01*
X90181403Y-65639728D01*
X90771092Y-65685467D01*
X91355750Y-65772206D01*
X91373386Y-65775489D01*
X91713604Y-65847990D01*
X92069802Y-65939723D01*
X92427414Y-66046360D01*
X92771872Y-66163574D01*
X93088607Y-66287035D01*
X93318631Y-66383626D01*
X93423006Y-66289784D01*
X93424700Y-66288266D01*
X93567578Y-66187010D01*
X93724464Y-66121871D01*
X93889572Y-66091598D01*
X94057119Y-66094941D01*
X94221319Y-66130650D01*
X94376389Y-66197473D01*
X94516544Y-66294161D01*
X94636000Y-66419462D01*
X94728973Y-66572126D01*
X94752042Y-66624824D01*
X94769229Y-66678483D01*
X94779131Y-66738153D01*
X94783665Y-66815931D01*
X94784750Y-66923917D01*
X94784738Y-66940466D01*
X94784737Y-66941985D01*
G36*
X94784737Y-66941985D02*
G01*
X94783501Y-67042784D01*
X94778763Y-67115197D01*
X94768421Y-67171359D01*
X94750376Y-67223408D01*
X94722528Y-67283480D01*
X94688865Y-67343091D01*
X94625170Y-67434561D01*
X94558694Y-67511822D01*
X94538973Y-67530408D01*
X94465209Y-67588475D01*
X94378686Y-67644704D01*
X94290693Y-67692740D01*
X94212517Y-67726228D01*
X94155445Y-67738816D01*
X94137573Y-67741987D01*
X94120973Y-67758540D01*
X94118685Y-67765262D01*
X94108297Y-67795786D01*
X94097291Y-67860906D01*
X94085701Y-67961083D01*
X94065591Y-68124233D01*
X94018115Y-68414609D01*
X93954613Y-68725321D01*
X93910275Y-68909618D01*
X93877509Y-69045816D01*
X93824256Y-69238678D01*
X93789227Y-69365543D01*
X93692191Y-69673950D01*
X93691660Y-69675530D01*
X93652145Y-69796409D01*
X93618767Y-69904847D01*
X93593479Y-69993963D01*
X93578236Y-70056874D01*
X93574992Y-70086700D01*
X93578206Y-70096656D01*
X93594180Y-70144138D01*
X93618661Y-70215674D01*
X93647805Y-70300000D01*
X93693065Y-70441226D01*
X93737519Y-70619979D01*
X93766870Y-70803041D01*
X93782967Y-71002722D01*
X93787224Y-71210167D01*
X93787658Y-71231333D01*
X93783058Y-71452896D01*
X93769159Y-71645101D01*
X93745861Y-71797957D01*
X93713052Y-71912473D01*
X93692505Y-71947213D01*
X93649865Y-71983502D01*
X93581986Y-72017338D01*
X93483294Y-72051410D01*
X93348215Y-72088404D01*
X93266014Y-72108384D01*
X93252854Y-72110931D01*
X93034367Y-72153218D01*
X92810788Y-72176981D01*
X92575313Y-72182093D01*
X92334377Y-72178785D01*
X92156374Y-72393832D01*
X91933399Y-72649601D01*
X91663951Y-72930949D01*
X91377840Y-73204540D01*
X91086032Y-73459928D01*
X90799492Y-73686667D01*
X90751333Y-73722752D01*
X90677832Y-73779626D01*
X90631153Y-73820158D01*
X90606164Y-73849810D01*
X90597734Y-73874047D01*
X90600734Y-73898333D01*
X90604331Y-73918816D01*
X90609676Y-73981092D01*
X90613261Y-74066526D01*
X90614298Y-74150199D01*
X90614455Y-74162917D01*
X90613816Y-74233436D01*
X90609897Y-74316123D01*
X90600277Y-74378685D01*
X90582531Y-74434587D01*
X90554234Y-74497296D01*
X90525158Y-74551155D01*
X90419431Y-74691996D01*
X90285608Y-74810928D01*
X90132363Y-74901160D01*
X89968375Y-74955900D01*
X89805036Y-74972143D01*
X89631279Y-74952192D01*
X89465723Y-74896816D01*
X89314362Y-74809531D01*
X89183190Y-74693852D01*
X89078204Y-74553291D01*
X89005399Y-74391365D01*
X88991309Y-74324767D01*
X88981855Y-74230995D01*
X88979285Y-74160191D01*
X89336316Y-74160191D01*
X89354529Y-74274941D01*
X89402516Y-74383367D01*
X89481713Y-74479366D01*
X89593557Y-74556834D01*
X89720664Y-74601606D01*
X89852194Y-74606950D01*
X89979398Y-74571486D01*
X90097338Y-74495812D01*
X90107941Y-74486493D01*
X90195050Y-74383460D01*
X90246547Y-74269292D01*
X90264695Y-74150199D01*
X90251758Y-74032390D01*
X90209998Y-73922076D01*
X90141679Y-73825467D01*
X90049065Y-73748771D01*
X89934417Y-73698200D01*
X89800000Y-73679963D01*
X89771804Y-73680694D01*
X89641554Y-73705210D01*
X89532456Y-73760025D01*
X89445946Y-73839034D01*
X89383461Y-73936134D01*
X89346439Y-74045221D01*
X89336316Y-74160191D01*
X88979285Y-74160191D01*
X88978047Y-74126091D01*
X88979987Y-74023313D01*
X88987775Y-73935919D01*
X89001510Y-73877167D01*
X89001766Y-73876499D01*
X88994672Y-73852518D01*
X88959559Y-73813523D01*
X88893810Y-73757024D01*
X88794808Y-73680531D01*
X88724496Y-73627077D01*
X88387411Y-73350752D01*
X88054035Y-73045631D01*
X87735187Y-72722032D01*
X87441685Y-72390271D01*
X87265433Y-72178935D01*
X87014008Y-72181775D01*
X86931219Y-72181427D01*
X86756941Y-72173095D01*
X86583685Y-72155590D01*
X86417353Y-72130229D01*
X86337599Y-72113658D01*
X87706766Y-72113658D01*
X87708042Y-72118505D01*
X87728760Y-72148372D01*
X87769069Y-72198863D01*
X87823183Y-72262577D01*
X87998706Y-72457752D01*
X88317604Y-72783695D01*
X88648065Y-73087645D01*
X88979867Y-73359903D01*
X89211908Y-73538434D01*
X89292605Y-73474521D01*
X89362450Y-73424080D01*
X89480160Y-73363076D01*
X89611077Y-73326789D01*
X89768250Y-73310727D01*
X89837976Y-73308658D01*
X89929677Y-73311323D01*
X90005792Y-73323190D01*
X90082717Y-73346106D01*
X90133506Y-73366373D01*
X90227422Y-73412759D01*
X90307663Y-73462153D01*
X90408642Y-73534700D01*
X90638779Y-73356008D01*
X90883667Y-73156869D01*
X91161098Y-72911496D01*
X91428751Y-72654812D01*
X91671904Y-72400435D01*
X91934993Y-72110931D01*
X91763833Y-72055317D01*
X91702200Y-72034266D01*
X91622804Y-71999919D01*
X91571002Y-71962025D01*
X91537946Y-71913140D01*
X91514786Y-71845821D01*
X91507606Y-71816228D01*
X91488192Y-71706586D01*
X91471965Y-71572592D01*
X91460102Y-71427613D01*
X91453781Y-71285016D01*
X91454160Y-71164467D01*
X91632189Y-71164467D01*
X91634700Y-71372968D01*
X91651031Y-71577805D01*
X91680232Y-71760500D01*
X91683159Y-71772830D01*
X91696709Y-71806244D01*
X91721459Y-71833214D01*
X91763498Y-71856547D01*
X91828917Y-71879046D01*
X91923804Y-71903517D01*
X92054250Y-71932765D01*
X92149139Y-71950072D01*
X92320587Y-71970341D01*
X92508112Y-71982057D01*
X92697428Y-71984794D01*
X92874246Y-71978127D01*
X93024279Y-71961632D01*
X93130666Y-71942454D01*
X93250730Y-71917026D01*
X93360591Y-71890102D01*
X93449696Y-71864289D01*
X93507494Y-71842196D01*
X93527398Y-71820795D01*
X93551327Y-71758210D01*
X93570830Y-71661301D01*
X93585267Y-71534622D01*
X93593998Y-71382726D01*
X93596382Y-71210167D01*
X93595611Y-71148789D01*
X93583982Y-70929093D01*
X93556545Y-70726351D01*
X93510575Y-70528113D01*
X93443342Y-70321934D01*
X93352121Y-70095363D01*
X93268249Y-69901310D01*
X93149270Y-69984656D01*
X92985436Y-70075516D01*
X92804758Y-70131538D01*
X92617210Y-70150508D01*
X92429623Y-70132422D01*
X92248830Y-70077278D01*
X92081661Y-69985074D01*
X91963279Y-69902147D01*
X91898929Y-70042865D01*
X91869531Y-70108479D01*
X91781127Y-70330337D01*
X91716517Y-70542437D01*
X91671342Y-70761003D01*
X91641245Y-71002261D01*
X91632189Y-71164467D01*
X91454160Y-71164467D01*
X91454180Y-71158166D01*
X91454805Y-71140745D01*
X91457316Y-71052881D01*
X91456351Y-70998778D01*
X91450574Y-70971068D01*
X91438652Y-70962384D01*
X91419250Y-70965360D01*
X91380599Y-70972497D01*
X91320050Y-70977044D01*
X91263183Y-70977333D01*
X91256550Y-71501208D01*
X91254348Y-71659788D01*
X91251837Y-71788274D01*
X91248610Y-71885757D01*
X91244170Y-71958006D01*
X91238026Y-72010788D01*
X91229682Y-72049873D01*
X91218644Y-72081030D01*
X91204420Y-72110027D01*
X91184552Y-72144505D01*
X91084010Y-72267593D01*
X90953861Y-72360586D01*
X90940724Y-72367436D01*
X90919593Y-72376857D01*
X90894737Y-72384658D01*
X90862293Y-72391022D01*
X90818403Y-72396132D01*
X90759204Y-72400171D01*
X90680837Y-72403322D01*
X90579441Y-72405768D01*
X90451154Y-72407692D01*
X90292117Y-72409278D01*
X90098468Y-72410708D01*
X89866347Y-72412166D01*
X89774195Y-72412714D01*
X89538739Y-72413864D01*
X89340467Y-72414120D01*
X89175566Y-72413113D01*
X89040225Y-72410477D01*
X88930633Y-72405843D01*
X88842978Y-72398844D01*
X88773450Y-72389112D01*
X88718237Y-72376280D01*
X88673528Y-72359981D01*
X88635512Y-72339847D01*
X88600376Y-72315509D01*
X88564311Y-72286602D01*
X88536155Y-72259963D01*
X88477721Y-72187889D01*
X88432226Y-72111250D01*
X88430809Y-72108200D01*
X88415311Y-72072841D01*
X88403511Y-72038209D01*
X88394903Y-71998153D01*
X88388982Y-71946521D01*
X88385241Y-71877162D01*
X88383175Y-71783925D01*
X88382277Y-71660657D01*
X88382040Y-71501208D01*
X88381718Y-71406641D01*
X88380242Y-71275137D01*
X88377742Y-71162650D01*
X88374404Y-71075008D01*
X88370414Y-71018041D01*
X88365958Y-70997578D01*
X88359631Y-70996865D01*
X88319991Y-70990361D01*
X88261624Y-70979528D01*
X88173165Y-70962399D01*
X88172508Y-71250324D01*
X88170415Y-71365251D01*
X88170241Y-71374845D01*
X88160353Y-71543356D01*
X88143458Y-71692479D01*
X88120455Y-71816512D01*
X88092240Y-71909753D01*
X88059713Y-71966501D01*
X88058836Y-71967415D01*
X88015150Y-71997814D01*
X87945624Y-72031446D01*
X87864896Y-72061197D01*
X87853780Y-72064677D01*
X87782153Y-72087536D01*
X87729580Y-72105047D01*
X87706766Y-72113658D01*
X86337599Y-72113658D01*
X86263847Y-72098334D01*
X86129067Y-72061224D01*
X86018916Y-72020219D01*
X85939295Y-71976638D01*
X85896105Y-71931800D01*
X85871321Y-71866725D01*
X85845797Y-71750952D01*
X85827018Y-71601597D01*
X85815535Y-71423312D01*
X85811899Y-71220750D01*
X85812009Y-71201091D01*
X85993801Y-71201091D01*
X85994408Y-71299156D01*
X86002084Y-71405937D01*
X86017155Y-71537887D01*
X86017291Y-71538968D01*
X86035002Y-71666089D01*
X86051625Y-71755309D01*
X86068154Y-71810977D01*
X86085584Y-71837444D01*
X86091096Y-71840913D01*
X86138781Y-71860241D01*
X86216497Y-71883704D01*
X86314640Y-71908953D01*
X86423605Y-71933639D01*
X86533787Y-71955414D01*
X86635583Y-71971929D01*
X86779215Y-71986038D01*
X87009959Y-71990164D01*
X87252326Y-71975722D01*
X87491195Y-71943789D01*
X87711446Y-71895437D01*
X87753882Y-71883800D01*
X87829865Y-71860376D01*
X87877223Y-71836074D01*
X87904510Y-71802247D01*
X87920283Y-71750247D01*
X87933099Y-71671427D01*
X87964695Y-71365251D01*
X87963788Y-71052813D01*
X87926084Y-70748386D01*
X87850617Y-70444401D01*
X87736417Y-70133289D01*
X87638366Y-69900995D01*
X87519162Y-69984498D01*
X87503212Y-69995381D01*
X87344281Y-70079039D01*
X87169470Y-70132819D01*
X86994126Y-70151833D01*
X86859711Y-70151833D01*
X86891206Y-70241098D01*
X86899856Y-70264002D01*
X86935906Y-70345075D01*
X86976300Y-70421823D01*
X86979905Y-70428062D01*
X87016692Y-70514530D01*
X87016886Y-70580353D01*
X86980480Y-70625221D01*
X86975576Y-70627912D01*
X86921511Y-70633181D01*
X86845398Y-70612702D01*
X86753770Y-70570663D01*
X86653157Y-70511249D01*
X86550091Y-70438647D01*
X86451104Y-70357045D01*
X86362727Y-70270628D01*
X86291491Y-70183583D01*
X86246808Y-70120083D01*
X86190156Y-70247083D01*
X86178576Y-70274002D01*
X86122856Y-70431548D01*
X86073720Y-70616495D01*
X86034103Y-70816476D01*
X86006940Y-71019124D01*
X85999941Y-71095288D01*
X85993801Y-71201091D01*
X85812009Y-71201091D01*
X85812160Y-71174270D01*
X85818099Y-70977901D01*
X85833556Y-70805226D01*
X85860891Y-70641320D01*
X85902464Y-70471261D01*
X85960635Y-70280125D01*
X86035394Y-70050425D01*
X85917760Y-69704254D01*
X85828616Y-69425034D01*
X85819318Y-69392115D01*
X86146386Y-69392115D01*
X86160421Y-69554212D01*
X86194599Y-69719750D01*
X86245865Y-69870433D01*
X86250301Y-69880545D01*
X86314541Y-69999212D01*
X86399862Y-70122633D01*
X86494916Y-70235791D01*
X86588353Y-70323667D01*
X86645256Y-70365416D01*
X86713682Y-70410334D01*
X86782139Y-70451278D01*
X86841875Y-70483281D01*
X86884135Y-70501376D01*
X86900167Y-70500596D01*
X86899080Y-70495727D01*
X86885140Y-70461817D01*
X86860275Y-70410282D01*
X86853880Y-70397028D01*
X86825999Y-70331010D01*
X86793097Y-70244217D01*
X86761005Y-70151833D01*
X86754635Y-70132432D01*
X86737609Y-70077877D01*
X86724528Y-70027592D01*
X86714757Y-69974920D01*
X86707659Y-69913203D01*
X86702599Y-69835785D01*
X86698941Y-69736008D01*
X86696049Y-69607216D01*
X86693287Y-69442750D01*
X86691885Y-69353810D01*
X86772877Y-69353810D01*
X86773428Y-69480839D01*
X86776006Y-69605436D01*
X86780633Y-69719991D01*
X86787326Y-69816888D01*
X86796107Y-69888517D01*
X86796537Y-69890980D01*
X86810606Y-69962405D01*
X86825496Y-70002815D01*
X86847627Y-70022844D01*
X86883420Y-70033125D01*
X86978749Y-70042326D01*
X87120800Y-70029655D01*
X87265962Y-69991081D01*
X87399544Y-69929553D01*
X87519344Y-69841886D01*
X87544126Y-69814535D01*
X87819018Y-69814535D01*
X87888441Y-69956726D01*
X87909680Y-70002073D01*
X87970121Y-70148593D01*
X88028095Y-70311674D01*
X88077544Y-70473476D01*
X88112409Y-70616160D01*
X88124239Y-70670631D01*
X88141199Y-70724099D01*
X88161987Y-70752535D01*
X88192016Y-70766139D01*
X88246577Y-70779243D01*
X88313042Y-70793409D01*
X88381833Y-70806942D01*
X88381833Y-70383457D01*
X88381994Y-70296758D01*
X88383699Y-70155154D01*
X88388261Y-70045582D01*
X88392933Y-69999926D01*
X88731083Y-69999926D01*
X88731083Y-71975907D01*
X88781053Y-72016370D01*
X88782692Y-72017681D01*
X88796464Y-72026990D01*
X88814582Y-72034697D01*
X88840844Y-72040952D01*
X88879050Y-72045906D01*
X88932998Y-72049710D01*
X89006487Y-72052515D01*
X89103315Y-72054472D01*
X89227282Y-72055731D01*
X89382186Y-72056444D01*
X89571826Y-72056761D01*
X89800000Y-72056833D01*
X89831404Y-72056832D01*
X90054448Y-72056737D01*
X90239442Y-72056378D01*
X90390186Y-72055604D01*
X90510477Y-72054264D01*
X90604115Y-72052208D01*
X90674898Y-72049283D01*
X90726625Y-72045341D01*
X90763094Y-72040229D01*
X90788105Y-72033797D01*
X90805457Y-72025895D01*
X90818947Y-72016370D01*
X90868917Y-71975907D01*
X90868917Y-69999926D01*
X90818947Y-69959463D01*
X90817308Y-69958152D01*
X90803536Y-69948843D01*
X90785419Y-69941136D01*
X90759156Y-69934881D01*
X90720951Y-69929927D01*
X90667003Y-69926123D01*
X90593514Y-69923318D01*
X90496685Y-69921361D01*
X90372718Y-69920102D01*
X90217814Y-69919389D01*
X90028174Y-69919072D01*
X89800000Y-69919000D01*
X89768596Y-69919001D01*
X89545552Y-69919096D01*
X89360558Y-69919455D01*
X89209815Y-69920229D01*
X89089524Y-69921569D01*
X88995886Y-69923625D01*
X88925103Y-69926550D01*
X88873376Y-69930492D01*
X88836906Y-69935604D01*
X88811895Y-69942036D01*
X88794544Y-69949938D01*
X88781053Y-69959463D01*
X88731083Y-69999926D01*
X88392933Y-69999926D01*
X88396893Y-69961227D01*
X88410806Y-69895274D01*
X88431213Y-69840909D01*
X88459327Y-69791316D01*
X88496360Y-69739680D01*
X88525548Y-69708556D01*
X88588396Y-69657454D01*
X88659747Y-69611649D01*
X88773417Y-69548800D01*
X89233792Y-69541327D01*
X89291608Y-69540288D01*
X89420327Y-69537203D01*
X89531018Y-69533479D01*
X89617606Y-69529384D01*
X89674014Y-69525184D01*
X89694167Y-69521144D01*
X89693842Y-69519201D01*
X89927000Y-69519201D01*
X89927134Y-69521144D01*
X89927542Y-69527097D01*
X89933322Y-69538421D01*
X89949773Y-69546722D01*
X89982173Y-69552471D01*
X90035797Y-69556139D01*
X90115924Y-69558198D01*
X90227830Y-69559119D01*
X90376792Y-69559373D01*
X90464794Y-69559469D01*
X90594392Y-69560145D01*
X90691983Y-69561982D01*
X90764213Y-69565582D01*
X90817726Y-69571543D01*
X90859168Y-69580469D01*
X90895183Y-69592958D01*
X90932417Y-69609613D01*
X91025114Y-69662965D01*
X91122468Y-69754638D01*
X91195288Y-69876667D01*
X91206948Y-69904422D01*
X91218987Y-69942751D01*
X91227558Y-69988921D01*
X91228586Y-69999926D01*
X91233246Y-70049828D01*
X91236637Y-70132371D01*
X91238316Y-70243449D01*
X91238869Y-70389958D01*
X91239237Y-70492011D01*
X91240888Y-70616975D01*
X91244095Y-70706597D01*
X91249132Y-70765110D01*
X91256273Y-70796745D01*
X91265792Y-70805733D01*
X91274549Y-70804633D01*
X91320456Y-70796350D01*
X91382113Y-70783340D01*
X91431410Y-70769459D01*
X91467815Y-70745560D01*
X91484448Y-70706231D01*
X91489616Y-70682891D01*
X91564135Y-70394190D01*
X91650948Y-70137229D01*
X91748450Y-69916811D01*
X91790851Y-69833699D01*
X91671516Y-69588275D01*
X91656541Y-69556504D01*
X91870367Y-69556504D01*
X91909392Y-69625907D01*
X91924790Y-69651750D01*
X92025852Y-69777522D01*
X92093222Y-69833699D01*
X92156083Y-69886117D01*
X92305158Y-69970142D01*
X92462750Y-70022200D01*
X92498569Y-70029369D01*
X92608520Y-70042791D01*
X92710195Y-70037235D01*
X92826320Y-70012068D01*
X92978684Y-69954478D01*
X93131416Y-69855484D01*
X93260355Y-69723032D01*
X93362470Y-69559679D01*
X93373780Y-69536429D01*
X93403607Y-69467493D01*
X93420606Y-69405918D01*
X93428259Y-69335160D01*
X93430050Y-69238678D01*
X93429842Y-69203579D01*
X93427655Y-69125118D01*
X93423590Y-69068078D01*
X93418276Y-69042914D01*
X93405382Y-69042471D01*
X93359054Y-69052036D01*
X93288028Y-69071536D01*
X93201317Y-69098654D01*
X92996167Y-69166229D01*
X92996167Y-69223961D01*
X92996167Y-69239598D01*
X92995571Y-69260422D01*
X92970966Y-69370056D01*
X92915581Y-69461627D01*
X92836743Y-69532423D01*
X92741774Y-69579732D01*
X92637999Y-69600845D01*
X92532743Y-69593048D01*
X92433330Y-69553631D01*
X92347085Y-69479882D01*
X92301253Y-69425386D01*
X92236498Y-69479874D01*
X92154228Y-69534016D01*
X92047969Y-69569818D01*
X91945054Y-69570516D01*
X91870367Y-69556504D01*
X91656541Y-69556504D01*
X91618186Y-69475128D01*
X91574664Y-69369926D01*
X91549500Y-69285101D01*
X91541752Y-69218787D01*
X91747333Y-69218787D01*
X91749910Y-69261632D01*
X91769515Y-69319288D01*
X91816125Y-69378055D01*
X91898536Y-69441466D01*
X91986263Y-69464037D01*
X92077212Y-69444667D01*
X92088656Y-69439343D01*
X92167783Y-69381170D01*
X92217787Y-69304283D01*
X92231681Y-69239999D01*
X92359746Y-69239999D01*
X92384392Y-69332389D01*
X92439989Y-69411347D01*
X92522791Y-69466481D01*
X92551341Y-69477958D01*
X92607356Y-69492958D01*
X92656291Y-69486788D01*
X92719496Y-69458592D01*
X92798944Y-69403422D01*
X92855095Y-69322467D01*
X92873037Y-69223961D01*
X92868550Y-69177437D01*
X92835187Y-69090340D01*
X92776301Y-69024846D01*
X92700199Y-68983130D01*
X92615191Y-68967365D01*
X92529583Y-68979725D01*
X92451684Y-69022384D01*
X92389802Y-69097516D01*
X92369797Y-69144571D01*
X92362063Y-69217997D01*
X92359746Y-69239999D01*
X92231681Y-69239999D01*
X92236436Y-69217997D01*
X92221496Y-69131628D01*
X92170736Y-69054492D01*
X92101025Y-69001367D01*
X92007745Y-68973673D01*
X91906513Y-68987525D01*
X91897700Y-68990623D01*
X91817519Y-69041495D01*
X91765719Y-69119987D01*
X91747333Y-69218787D01*
X91541752Y-69218787D01*
X91540961Y-69212021D01*
X91547316Y-69142052D01*
X91566831Y-69066562D01*
X91567771Y-69063570D01*
X91586983Y-68997738D01*
X91592067Y-68953553D01*
X91582108Y-68913075D01*
X91556188Y-68858367D01*
X91549268Y-68844792D01*
X91896030Y-68844792D01*
X91900586Y-68849681D01*
X91934977Y-68857558D01*
X91992142Y-68860667D01*
X91996934Y-68860681D01*
X92087735Y-68869937D01*
X92162520Y-68901371D01*
X92239458Y-68962463D01*
X92297667Y-69016753D01*
X92355875Y-68961223D01*
X92373847Y-68945193D01*
X92474764Y-68885668D01*
X92586981Y-68860285D01*
X92700879Y-68868624D01*
X92806840Y-68910265D01*
X92895247Y-68984788D01*
X92907746Y-68998834D01*
X92948782Y-69035340D01*
X92978925Y-69048836D01*
X93004145Y-69045137D01*
X93067527Y-69029540D01*
X93143135Y-69005933D01*
X93220377Y-68978228D01*
X93288662Y-68950333D01*
X93337401Y-68926160D01*
X93356000Y-68909618D01*
X93355205Y-68898949D01*
X93331499Y-68837296D01*
X93280189Y-68762901D01*
X93208491Y-68683170D01*
X93123624Y-68605510D01*
X93032805Y-68537329D01*
X92943250Y-68486032D01*
X92916113Y-68473661D01*
X92852901Y-68449158D01*
X92791459Y-68434941D01*
X92717107Y-68428355D01*
X92615167Y-68426750D01*
X92576674Y-68426903D01*
X92485423Y-68429936D01*
X92417002Y-68438841D01*
X92356879Y-68456211D01*
X92290523Y-68484635D01*
X92232776Y-68513873D01*
X92156587Y-68558202D01*
X92100023Y-68597656D01*
X92092827Y-68603757D01*
X92045236Y-68649907D01*
X91993202Y-68707453D01*
X91945284Y-68766029D01*
X91910041Y-68815264D01*
X91896030Y-68844792D01*
X91549268Y-68844792D01*
X91539922Y-68826458D01*
X91515270Y-68779626D01*
X91502705Y-68757987D01*
X91498603Y-68757908D01*
X91470008Y-68773103D01*
X91425039Y-68804770D01*
X91386454Y-68831927D01*
X91260063Y-68901060D01*
X91119444Y-68955828D01*
X90985117Y-68987697D01*
X90895450Y-68995348D01*
X90725734Y-68985731D01*
X90559496Y-68948017D01*
X90408201Y-68885263D01*
X90283311Y-68800527D01*
X90207975Y-68734381D01*
X90121440Y-68920629D01*
X90108923Y-68948270D01*
X90066694Y-69050400D01*
X90024953Y-69162899D01*
X89986908Y-69275898D01*
X89955763Y-69379527D01*
X89934725Y-69463918D01*
X89927000Y-69519201D01*
X89693842Y-69519201D01*
X89688623Y-69488027D01*
X89669772Y-69420637D01*
X89640718Y-69331335D01*
X89604753Y-69229401D01*
X89565166Y-69124113D01*
X89525248Y-69024749D01*
X89488289Y-68940588D01*
X89391961Y-68734760D01*
X89315522Y-68794813D01*
X89299040Y-68807417D01*
X89233517Y-68852950D01*
X89175583Y-68887483D01*
X89157780Y-68898018D01*
X89149139Y-68907081D01*
X89111634Y-68946419D01*
X89074806Y-69026179D01*
X89053546Y-69074567D01*
X89004469Y-69157328D01*
X88947806Y-69230801D01*
X88907132Y-69273749D01*
X88863317Y-69309917D01*
X88821015Y-69326187D01*
X88765972Y-69330364D01*
X88696995Y-69323819D01*
X88617805Y-69289789D01*
X88594224Y-69270153D01*
X88526389Y-69193565D01*
X88465136Y-69098569D01*
X88421978Y-69002084D01*
X88393434Y-68943457D01*
X88330340Y-68888059D01*
X88316877Y-68880811D01*
X88300474Y-68870593D01*
X88493875Y-68870593D01*
X88510138Y-68937345D01*
X88539805Y-69014531D01*
X88577839Y-69089187D01*
X88619202Y-69148348D01*
X88634430Y-69164647D01*
X88704327Y-69213509D01*
X88773600Y-69220890D01*
X88840666Y-69187470D01*
X88903940Y-69113932D01*
X88961836Y-69000957D01*
X88990837Y-68907081D01*
X88989045Y-68838767D01*
X88955559Y-68798358D01*
X88928239Y-68786481D01*
X88852194Y-68768768D01*
X88763094Y-68761969D01*
X88671891Y-68765352D01*
X88589539Y-68778181D01*
X88526990Y-68799722D01*
X88495198Y-68829239D01*
X88493875Y-68870593D01*
X88300474Y-68870593D01*
X88253406Y-68841273D01*
X88189846Y-68795501D01*
X88114275Y-68736135D01*
X88084821Y-68795457D01*
X88054460Y-68856609D01*
X88034056Y-68899319D01*
X88013235Y-68953892D01*
X88002018Y-69009367D01*
X87998022Y-69079529D01*
X87998862Y-69178167D01*
X87995909Y-69236716D01*
X87988936Y-69375011D01*
X87945427Y-69567179D01*
X87867913Y-69734476D01*
X87819018Y-69814535D01*
X87544126Y-69814535D01*
X87634719Y-69714553D01*
X87723117Y-69566067D01*
X87780994Y-69404198D01*
X87804806Y-69236716D01*
X87791009Y-69071389D01*
X87772593Y-68989541D01*
X87753839Y-68938693D01*
X87728526Y-68918642D01*
X87689318Y-68923838D01*
X87628877Y-68948731D01*
X87599801Y-68960566D01*
X87467511Y-68994217D01*
X87318202Y-69007147D01*
X87168023Y-68998815D01*
X87033126Y-68968680D01*
X87032877Y-68968596D01*
X86937776Y-68939118D01*
X86872672Y-68926580D01*
X86829093Y-68930293D01*
X86798567Y-68949566D01*
X86790550Y-68973639D01*
X86783190Y-69034264D01*
X86777778Y-69122910D01*
X86774333Y-69231962D01*
X86772877Y-69353810D01*
X86691885Y-69353810D01*
X86684948Y-68913583D01*
X86737145Y-68864613D01*
X86786126Y-68830775D01*
X86850334Y-68816558D01*
X86933157Y-68826449D01*
X87042766Y-68860333D01*
X87058884Y-68865930D01*
X87194515Y-68895508D01*
X87338842Y-68901077D01*
X87477020Y-68883129D01*
X87594208Y-68842152D01*
X87684999Y-68795457D01*
X87640795Y-68733378D01*
X87609665Y-68694789D01*
X87523276Y-68612421D01*
X87418792Y-68535156D01*
X87311231Y-68474780D01*
X87302127Y-68470647D01*
X87243733Y-68448504D01*
X87181735Y-68435113D01*
X87103255Y-68428514D01*
X86995417Y-68426750D01*
X86938171Y-68427069D01*
X86850187Y-68430439D01*
X86784115Y-68439365D01*
X86726435Y-68456141D01*
X86663626Y-68483062D01*
X86643622Y-68492731D01*
X86485192Y-68594232D01*
X86356129Y-68725899D01*
X86256896Y-68887000D01*
X86187954Y-69076805D01*
X86149766Y-69294583D01*
X86146386Y-69392115D01*
X85819318Y-69392115D01*
X85742256Y-69119285D01*
X85665226Y-68809566D01*
X85599945Y-68506326D01*
X85548829Y-68220015D01*
X85514300Y-67961083D01*
X85508143Y-67903290D01*
X85497996Y-67826949D01*
X85485506Y-67781167D01*
X85842737Y-67781167D01*
X85846094Y-67812494D01*
X85856608Y-67879910D01*
X85872915Y-67974572D01*
X85893616Y-68089012D01*
X85917315Y-68215767D01*
X85942613Y-68347371D01*
X85968112Y-68476359D01*
X85992416Y-68595265D01*
X86014126Y-68696625D01*
X86031674Y-68765492D01*
X86050395Y-68808981D01*
X86067847Y-68812336D01*
X86085032Y-68776687D01*
X86117793Y-68710158D01*
X86176398Y-68627628D01*
X86251217Y-68541161D01*
X86333083Y-68461328D01*
X86412830Y-68398698D01*
X86579543Y-68308645D01*
X86764825Y-68249830D01*
X86955199Y-68226518D01*
X87144854Y-68237807D01*
X87327978Y-68282795D01*
X87498761Y-68360580D01*
X87651390Y-68470259D01*
X87780053Y-68610931D01*
X87786854Y-68620149D01*
X87832263Y-68679205D01*
X87860867Y-68708444D01*
X87878846Y-68712557D01*
X87892376Y-68696237D01*
X87896055Y-68687678D01*
X87897441Y-68651994D01*
X87880517Y-68598165D01*
X87842887Y-68517528D01*
X87823635Y-68477199D01*
X87758612Y-68285575D01*
X87732952Y-68091462D01*
X87734490Y-68066917D01*
X87947917Y-68066917D01*
X87948236Y-68124162D01*
X87951606Y-68212146D01*
X87960532Y-68278219D01*
X87977308Y-68335899D01*
X88004229Y-68398707D01*
X88041409Y-68467481D01*
X88121977Y-68580989D01*
X88215885Y-68682181D01*
X88310914Y-68756789D01*
X88383028Y-68801357D01*
X88424611Y-68748493D01*
X88424729Y-68748343D01*
X88485094Y-68701978D01*
X88576925Y-68669701D01*
X88691096Y-68653654D01*
X88818483Y-68655981D01*
X88883239Y-68664120D01*
X88954585Y-68678034D01*
X89000842Y-68693003D01*
X89035157Y-68715119D01*
X89080333Y-68757145D01*
X89086679Y-68764989D01*
X89108356Y-68784577D01*
X89133498Y-68781799D01*
X89178281Y-68756557D01*
X89241171Y-68712849D01*
X89356984Y-68599618D01*
X89451345Y-68462321D01*
X89519566Y-68310288D01*
X89556958Y-68152848D01*
X89558833Y-67999330D01*
X89545737Y-67915184D01*
X89500713Y-67765848D01*
X89425793Y-67632788D01*
X89315103Y-67504064D01*
X89249617Y-67443082D01*
X89120471Y-67351431D01*
X88980891Y-67292452D01*
X88818808Y-67260213D01*
X88673211Y-67259366D01*
X88510129Y-67294361D01*
X88354617Y-67363402D01*
X88213838Y-67462323D01*
X88094955Y-67586962D01*
X88005131Y-67733155D01*
X87989081Y-67768710D01*
X87967577Y-67827398D01*
X87955102Y-67887602D01*
X87949325Y-67962912D01*
X87947917Y-68066917D01*
X87734490Y-68066917D01*
X87744959Y-67899814D01*
X87792936Y-67715587D01*
X87875184Y-67543738D01*
X87990007Y-67389221D01*
X88135708Y-67256993D01*
X88310588Y-67152009D01*
X88360116Y-67128999D01*
X88434347Y-67098875D01*
X88501842Y-67080710D01*
X88578958Y-67070670D01*
X88682049Y-67064922D01*
X88764860Y-67062750D01*
X88861657Y-67065825D01*
X88944937Y-67077849D01*
X89031545Y-67100538D01*
X89048070Y-67105718D01*
X89236043Y-67187790D01*
X89400237Y-67304316D01*
X89538396Y-67453349D01*
X89648264Y-67632942D01*
X89649676Y-67635830D01*
X89681508Y-67702481D01*
X89702959Y-67755611D01*
X89716076Y-67806390D01*
X89722909Y-67865990D01*
X89725506Y-67945580D01*
X89725706Y-67999330D01*
X89725917Y-68056333D01*
X89725917Y-68063824D01*
X89725439Y-68172417D01*
X89722616Y-68250779D01*
X89715328Y-68310345D01*
X89701459Y-68362551D01*
X89678892Y-68418835D01*
X89645508Y-68490631D01*
X89565100Y-68660346D01*
X89637004Y-68818714D01*
X89639852Y-68825012D01*
X89680227Y-68918463D01*
X89718085Y-69012693D01*
X89745572Y-69088208D01*
X89761136Y-69134021D01*
X89778487Y-69181089D01*
X89787252Y-69199333D01*
X89793599Y-69186366D01*
X89809339Y-69142749D01*
X89830194Y-69079021D01*
X89830275Y-69078764D01*
X89859007Y-68997070D01*
X89897810Y-68898627D01*
X89938309Y-68804689D01*
X90008498Y-68650668D01*
X89947537Y-68538115D01*
X89912046Y-68466302D01*
X89848298Y-68276405D01*
X89828625Y-68122063D01*
X90041860Y-68122063D01*
X90072031Y-68289338D01*
X90137672Y-68447198D01*
X90235436Y-68589470D01*
X90361977Y-68709979D01*
X90513949Y-68802550D01*
X90548406Y-68818177D01*
X90634353Y-68850028D01*
X90719634Y-68867341D01*
X90825623Y-68875090D01*
X90894348Y-68875850D01*
X91003104Y-68868844D01*
X91085112Y-68852360D01*
X91228579Y-68789356D01*
X91375676Y-68686783D01*
X91498726Y-68557972D01*
X91589401Y-68410224D01*
X91640100Y-68300795D01*
X91519092Y-68267278D01*
X91466623Y-68251705D01*
X91397845Y-68228193D01*
X91352326Y-68208802D01*
X91341578Y-68202392D01*
X91278647Y-68148736D01*
X91214519Y-68073134D01*
X91160609Y-67990519D01*
X91128333Y-67915821D01*
X91104817Y-67828226D01*
X91012397Y-67867842D01*
X90990851Y-67876764D01*
X90802564Y-67929933D01*
X90609739Y-67942484D01*
X90418391Y-67914581D01*
X90234533Y-67846391D01*
X90168214Y-67816846D01*
X90116447Y-67799950D01*
X90090711Y-67799489D01*
X90080355Y-67822616D01*
X90065635Y-67876859D01*
X90051051Y-67948397D01*
X90050504Y-67951548D01*
X90041860Y-68122063D01*
X89828625Y-68122063D01*
X89823818Y-68084347D01*
X89837042Y-67894801D01*
X89886400Y-67712437D01*
X89917907Y-67648424D01*
X90163776Y-67648424D01*
X90183103Y-67674231D01*
X90230877Y-67710829D01*
X90296044Y-67748821D01*
X90353191Y-67776580D01*
X90406192Y-67796152D01*
X90462442Y-67807099D01*
X90534961Y-67811870D01*
X90636773Y-67812917D01*
X90721775Y-67812219D01*
X90800774Y-67808059D01*
X90861724Y-67797972D01*
X90918116Y-67779518D01*
X90983444Y-67750260D01*
X91051898Y-67720082D01*
X91115207Y-67704770D01*
X91159644Y-67719275D01*
X91194421Y-67767464D01*
X91228750Y-67853202D01*
X91286189Y-67972873D01*
X91367598Y-68070430D01*
X91465549Y-68133438D01*
X91532774Y-68153517D01*
X91601207Y-68162167D01*
X91668106Y-68162167D01*
X91658440Y-67995190D01*
X91639428Y-67860636D01*
X91580669Y-67694859D01*
X91485845Y-67548645D01*
X91357206Y-67425246D01*
X91197000Y-67327915D01*
X91141882Y-67302791D01*
X91082839Y-67281275D01*
X91023463Y-67269147D01*
X90949764Y-67263790D01*
X90847750Y-67262587D01*
X90768589Y-67263201D01*
X90689189Y-67267215D01*
X90628495Y-67277160D01*
X90572972Y-67295522D01*
X90509083Y-67324787D01*
X90501587Y-67328540D01*
X90425481Y-67374218D01*
X90347229Y-67432387D01*
X90274382Y-67495969D01*
X90214490Y-67557887D01*
X90175104Y-67611064D01*
X90163776Y-67648424D01*
X89917907Y-67648424D01*
X89970325Y-67541928D01*
X90087251Y-67387946D01*
X90235610Y-67255162D01*
X90255467Y-67243250D01*
X91328713Y-67243250D01*
X91328992Y-67244133D01*
X91349255Y-67269687D01*
X91393373Y-67311938D01*
X91452334Y-67362214D01*
X91570085Y-67457706D01*
X91627043Y-67408713D01*
X91650541Y-67390724D01*
X91745185Y-67349177D01*
X91851738Y-67339056D01*
X91960601Y-67357818D01*
X92062173Y-67402917D01*
X92146855Y-67471807D01*
X92205046Y-67561945D01*
X92206276Y-67564943D01*
X92229212Y-67659155D01*
X92231852Y-67763161D01*
X92213524Y-67853872D01*
X92201806Y-67893364D01*
X92209317Y-67904422D01*
X92239148Y-67883199D01*
X92293131Y-67829125D01*
X92301341Y-67820292D01*
X92384053Y-67707633D01*
X92430489Y-67585527D01*
X92445162Y-67442500D01*
X92441752Y-67378144D01*
X92407767Y-67235699D01*
X92341802Y-67109274D01*
X92249376Y-67003252D01*
X92136009Y-66922016D01*
X92007217Y-66869948D01*
X91868520Y-66851433D01*
X91725436Y-66870853D01*
X91688203Y-66883051D01*
X91572065Y-66942208D01*
X91466200Y-67024837D01*
X91386637Y-67119187D01*
X91361191Y-67162158D01*
X91336063Y-67213669D01*
X91328713Y-67243250D01*
X90255467Y-67243250D01*
X90413833Y-67148248D01*
X90448158Y-67131916D01*
X90512425Y-67103679D01*
X90567372Y-67086088D01*
X90625912Y-67076633D01*
X90700956Y-67072802D01*
X90805417Y-67072083D01*
X90881653Y-67072885D01*
X90975603Y-67076129D01*
X91050210Y-67081289D01*
X91093981Y-67087740D01*
X91123335Y-67093729D01*
X91152451Y-67083331D01*
X91175590Y-67040922D01*
X91201077Y-66996460D01*
X91263173Y-66923419D01*
X91345844Y-66848026D01*
X91438626Y-66779519D01*
X91531051Y-66727137D01*
X91531560Y-66726900D01*
X91600571Y-66698160D01*
X91665015Y-66681057D01*
X91740487Y-66672754D01*
X91842583Y-66670409D01*
X91858730Y-66670461D01*
X92024045Y-66684938D01*
X92165018Y-66727855D01*
X92291407Y-66803408D01*
X92412967Y-66915796D01*
X92466850Y-66978804D01*
X92553170Y-67116680D01*
X92602570Y-67265846D01*
X92618704Y-67435530D01*
X92618660Y-67442500D01*
X92618584Y-67454673D01*
X92596130Y-67636021D01*
X92535545Y-67799354D01*
X92437544Y-67943246D01*
X92302839Y-68066273D01*
X92282756Y-68080269D01*
X92185919Y-68127589D01*
X92098079Y-68140648D01*
X92024560Y-68123360D01*
X91970686Y-68079640D01*
X91941780Y-68013402D01*
X91943166Y-67928560D01*
X91980167Y-67829028D01*
X91998959Y-67792395D01*
X92018611Y-67737564D01*
X92016035Y-67691293D01*
X91992338Y-67636070D01*
X91949333Y-67582244D01*
X91884171Y-67542699D01*
X91813644Y-67528617D01*
X91751625Y-67545233D01*
X91742028Y-67556500D01*
X91739890Y-67586025D01*
X91751519Y-67638996D01*
X91778084Y-67723266D01*
X91790163Y-67761605D01*
X91829087Y-67965206D01*
X91827502Y-68162167D01*
X91827445Y-68169299D01*
X91799880Y-68300795D01*
X91785731Y-68368298D01*
X91704440Y-68556619D01*
X91692594Y-68578229D01*
X91665203Y-68635963D01*
X91658363Y-68672952D01*
X91669384Y-68700209D01*
X91682386Y-68713738D01*
X91701105Y-68713150D01*
X91728629Y-68687333D01*
X91772363Y-68631332D01*
X91858721Y-68530075D01*
X92004483Y-68407547D01*
X92182451Y-68306624D01*
X92188370Y-68303862D01*
X92268965Y-68269533D01*
X92340991Y-68248176D01*
X92421407Y-68235978D01*
X92527170Y-68229128D01*
X92629865Y-68227887D01*
X92809187Y-68246148D01*
X92968973Y-68293616D01*
X93118486Y-68372536D01*
X93217556Y-68446679D01*
X93323401Y-68546666D01*
X93414211Y-68653644D01*
X93478311Y-68755193D01*
X93520755Y-68840980D01*
X93554651Y-68686782D01*
X93579517Y-68566489D01*
X93607350Y-68417631D01*
X93634043Y-68261911D01*
X93657625Y-68111385D01*
X93676123Y-67978108D01*
X93687567Y-67874135D01*
X93691779Y-67822981D01*
X93694337Y-67765262D01*
X93688991Y-67733770D01*
X93673103Y-67718525D01*
X93644032Y-67709547D01*
X93582083Y-67688439D01*
X93464932Y-67621560D01*
X93351706Y-67525083D01*
X93250732Y-67406662D01*
X93170334Y-67273955D01*
X93147551Y-67224627D01*
X93129216Y-67171653D01*
X93118700Y-67113677D01*
X93113901Y-67038266D01*
X93112718Y-66932983D01*
X93112710Y-66918954D01*
X93505022Y-66918954D01*
X93520050Y-67042792D01*
X93567909Y-67158343D01*
X93647611Y-67258368D01*
X93758167Y-67335629D01*
X93758229Y-67335660D01*
X93889817Y-67380308D01*
X94023124Y-67385210D01*
X94150922Y-67351172D01*
X94265980Y-67278999D01*
X94351108Y-67185595D01*
X94411245Y-67067231D01*
X94434847Y-66940466D01*
X94421724Y-66812410D01*
X94371687Y-66690171D01*
X94284548Y-66580858D01*
X94261248Y-66560684D01*
X94169425Y-66503253D01*
X94065958Y-66462902D01*
X93969833Y-66447667D01*
X93941738Y-66449244D01*
X93841280Y-66473189D01*
X93739412Y-66519739D01*
X93655119Y-66580858D01*
X93577412Y-66675365D01*
X93523813Y-66794066D01*
X93505022Y-66918954D01*
X93112710Y-66918954D01*
X93112583Y-66709216D01*
X92922083Y-66628561D01*
X92647547Y-66518684D01*
X92114572Y-66339241D01*
X91563167Y-66196209D01*
X90996685Y-66090398D01*
X90418482Y-66022622D01*
X90397292Y-66020955D01*
X90251456Y-66013076D01*
X90076826Y-66008456D01*
X89882289Y-66006927D01*
X89676729Y-66008322D01*
X89469033Y-66012471D01*
X89268085Y-66019209D01*
X89082770Y-66028366D01*
X88921974Y-66039776D01*
X88794583Y-66053271D01*
X88245546Y-66142836D01*
X87704875Y-66265154D01*
X87181171Y-66419982D01*
X86667333Y-66609176D01*
X86423917Y-66707727D01*
X86423917Y-66924844D01*
X86423917Y-66932238D01*
X86422939Y-67035439D01*
X86418479Y-67110642D01*
X86408301Y-67168656D01*
X86390171Y-67222139D01*
X86361854Y-67283750D01*
X86305181Y-67379580D01*
X86204268Y-67501402D01*
X86085907Y-67604235D01*
X85961773Y-67676614D01*
X85927150Y-67692106D01*
X85874318Y-67721096D01*
X85849105Y-67748214D01*
X85842737Y-67781167D01*
X85485506Y-67781167D01*
X85484970Y-67779201D01*
X85464224Y-67751369D01*
X85430917Y-67734777D01*
X85380207Y-67720747D01*
X85325840Y-67703716D01*
X85187839Y-67633585D01*
X85059193Y-67531466D01*
X84948231Y-67404767D01*
X84863280Y-67260897D01*
X84849918Y-67230139D01*
X84832263Y-67176270D01*
X84821706Y-67115035D01*
X84816588Y-67034797D01*
X84815250Y-66923917D01*
X84815259Y-66922318D01*
X85169631Y-66922318D01*
X85187355Y-67056945D01*
X85191093Y-67069152D01*
X85239269Y-67164327D01*
X85313938Y-67255112D01*
X85403171Y-67329202D01*
X85495039Y-67374294D01*
X85503483Y-67376754D01*
X85621482Y-67397931D01*
X85729118Y-67386853D01*
X85843199Y-67341958D01*
X85867361Y-67328946D01*
X85973697Y-67247858D01*
X86047335Y-67149412D01*
X86089733Y-67039708D01*
X86102349Y-66924844D01*
X86086643Y-66810919D01*
X86044074Y-66704032D01*
X85976100Y-66610281D01*
X85884180Y-66535765D01*
X85769774Y-66486582D01*
X85634339Y-66468833D01*
X85556507Y-66475092D01*
X85430904Y-66514455D01*
X85324863Y-66584848D01*
X85242936Y-66680281D01*
X85189675Y-66794768D01*
X85169631Y-66922318D01*
X84815259Y-66922318D01*
X84815618Y-66858346D01*
X84818833Y-66765786D01*
X84826743Y-66697456D01*
X84841005Y-66641719D01*
X84863280Y-66586936D01*
X84932068Y-66463431D01*
X85051486Y-66321473D01*
X85200260Y-66209936D01*
X85377922Y-66129236D01*
X85535370Y-66093810D01*
X85711587Y-66091805D01*
X85884466Y-66126262D01*
X86045582Y-66195426D01*
X86186511Y-66297545D01*
X86280358Y-66384050D01*
X86505881Y-66289564D01*
X86707752Y-66208123D01*
X87263828Y-66014674D01*
X87833101Y-65860280D01*
X88412532Y-65745264D01*
X88999085Y-65669951D01*
X89589721Y-65634664D01*
X90181403Y-65639728D01*
X90771092Y-65685467D01*
X91355750Y-65772206D01*
X91373386Y-65775489D01*
X91713604Y-65847990D01*
X92069802Y-65939723D01*
X92427414Y-66046360D01*
X92771872Y-66163574D01*
X93088607Y-66287035D01*
X93318631Y-66383626D01*
X93423006Y-66289784D01*
X93424700Y-66288266D01*
X93567578Y-66187010D01*
X93724464Y-66121871D01*
X93889572Y-66091598D01*
X94057119Y-66094941D01*
X94221319Y-66130650D01*
X94376389Y-66197473D01*
X94516544Y-66294161D01*
X94636000Y-66419462D01*
X94728973Y-66572126D01*
X94752042Y-66624824D01*
X94769229Y-66678483D01*
X94779131Y-66738153D01*
X94783665Y-66815931D01*
X94784750Y-66923917D01*
X94784738Y-66940466D01*
X94784737Y-66941985D01*
G37*
X62228238Y-67396758D02*
X62283574Y-67428118D01*
X62317076Y-67495176D01*
X62328333Y-67597272D01*
X62328151Y-67610527D01*
X62310195Y-67711675D01*
X62259541Y-67792940D01*
X62171461Y-67862308D01*
X62167865Y-67864455D01*
X62108059Y-67891192D01*
X62054531Y-67902254D01*
X62016336Y-67893330D01*
X61964657Y-67863723D01*
X61922458Y-67824546D01*
X61905000Y-67787509D01*
X61912950Y-67769125D01*
X61943172Y-67726622D01*
X61988226Y-67673683D01*
X62021188Y-67633652D01*
X62063407Y-67568645D01*
X62085921Y-67514942D01*
X62086753Y-67511105D01*
X62110258Y-67440967D01*
X62146366Y-67404675D01*
X62202725Y-67394333D01*
X62228238Y-67396758D01*
G36*
X62228238Y-67396758D02*
G01*
X62283574Y-67428118D01*
X62317076Y-67495176D01*
X62328333Y-67597272D01*
X62328151Y-67610527D01*
X62310195Y-67711675D01*
X62259541Y-67792940D01*
X62171461Y-67862308D01*
X62167865Y-67864455D01*
X62108059Y-67891192D01*
X62054531Y-67902254D01*
X62016336Y-67893330D01*
X61964657Y-67863723D01*
X61922458Y-67824546D01*
X61905000Y-67787509D01*
X61912950Y-67769125D01*
X61943172Y-67726622D01*
X61988226Y-67673683D01*
X62021188Y-67633652D01*
X62063407Y-67568645D01*
X62085921Y-67514942D01*
X62086753Y-67511105D01*
X62110258Y-67440967D01*
X62146366Y-67404675D01*
X62202725Y-67394333D01*
X62228238Y-67396758D01*
G37*
X58136830Y-68622027D02*
X58160284Y-68628797D01*
X58168257Y-68655103D01*
X58164472Y-68711958D01*
X58161464Y-68764175D01*
X58172345Y-68809864D01*
X58205132Y-68849216D01*
X58257054Y-68884910D01*
X58320505Y-68909459D01*
X58360763Y-68912942D01*
X58405425Y-68898319D01*
X58459865Y-68856868D01*
X58483683Y-68836494D01*
X58524989Y-68804107D01*
X58546823Y-68791333D01*
X58552711Y-68794741D01*
X58578133Y-68822932D01*
X58612820Y-68870330D01*
X58624694Y-68888746D01*
X58657077Y-68964630D01*
X58666030Y-69055538D01*
X58665292Y-69081566D01*
X58646912Y-69172730D01*
X58599757Y-69238353D01*
X58518333Y-69287042D01*
X58517598Y-69287357D01*
X58424671Y-69314472D01*
X58326067Y-69314973D01*
X58208096Y-69288946D01*
X58163704Y-69274444D01*
X58033301Y-69211157D01*
X57938902Y-69128155D01*
X57881519Y-69026555D01*
X57862167Y-68907474D01*
X57862956Y-68874436D01*
X57875866Y-68797439D01*
X57908054Y-68738706D01*
X57913201Y-68732452D01*
X57977717Y-68677942D01*
X58057969Y-68637698D01*
X58134054Y-68622000D01*
X58136830Y-68622027D01*
G36*
X58136830Y-68622027D02*
G01*
X58160284Y-68628797D01*
X58168257Y-68655103D01*
X58164472Y-68711958D01*
X58161464Y-68764175D01*
X58172345Y-68809864D01*
X58205132Y-68849216D01*
X58257054Y-68884910D01*
X58320505Y-68909459D01*
X58360763Y-68912942D01*
X58405425Y-68898319D01*
X58459865Y-68856868D01*
X58483683Y-68836494D01*
X58524989Y-68804107D01*
X58546823Y-68791333D01*
X58552711Y-68794741D01*
X58578133Y-68822932D01*
X58612820Y-68870330D01*
X58624694Y-68888746D01*
X58657077Y-68964630D01*
X58666030Y-69055538D01*
X58665292Y-69081566D01*
X58646912Y-69172730D01*
X58599757Y-69238353D01*
X58518333Y-69287042D01*
X58517598Y-69287357D01*
X58424671Y-69314472D01*
X58326067Y-69314973D01*
X58208096Y-69288946D01*
X58163704Y-69274444D01*
X58033301Y-69211157D01*
X57938902Y-69128155D01*
X57881519Y-69026555D01*
X57862167Y-68907474D01*
X57862956Y-68874436D01*
X57875866Y-68797439D01*
X57908054Y-68738706D01*
X57913201Y-68732452D01*
X57977717Y-68677942D01*
X58057969Y-68637698D01*
X58134054Y-68622000D01*
X58136830Y-68622027D01*
G37*
X64254634Y-67796087D02*
X64463316Y-68176199D01*
X64568416Y-68400053D01*
X64578802Y-68426208D01*
X64721359Y-68785234D01*
X64837292Y-69170354D01*
X64917953Y-69562877D01*
X64965076Y-69970270D01*
X64980397Y-70400000D01*
X64976097Y-70631247D01*
X64943676Y-71051213D01*
X64878099Y-71452793D01*
X64777721Y-71843071D01*
X64640901Y-72229127D01*
X64492550Y-72559000D01*
X64465996Y-72618046D01*
X64381678Y-72780766D01*
X64147772Y-73169419D01*
X63882166Y-73531717D01*
X63586934Y-73866251D01*
X63264152Y-74171612D01*
X62915897Y-74446390D01*
X62544244Y-74689175D01*
X62151269Y-74898558D01*
X61739047Y-75073130D01*
X61309655Y-75211480D01*
X60865168Y-75312200D01*
X60407662Y-75373879D01*
X60389016Y-75375418D01*
X60282290Y-75381126D01*
X60151386Y-75384455D01*
X60011163Y-75385152D01*
X59876480Y-75382962D01*
X59814857Y-75380858D01*
X59388191Y-75348276D01*
X58982349Y-75283579D01*
X58589279Y-75184798D01*
X58200930Y-75049962D01*
X57809250Y-74877100D01*
X57488275Y-74706969D01*
X57107153Y-74463387D01*
X56753180Y-74187569D01*
X56425739Y-73878977D01*
X56124216Y-73537071D01*
X55847994Y-73161313D01*
X55781584Y-73059675D01*
X55559342Y-72671670D01*
X55374992Y-72268401D01*
X55228533Y-71852713D01*
X55119966Y-71427451D01*
X55049291Y-70995459D01*
X55016508Y-70559583D01*
X55021616Y-70122669D01*
X55064616Y-69687560D01*
X55079282Y-69609517D01*
X56110909Y-69609517D01*
X56111232Y-69740150D01*
X56119204Y-69879502D01*
X56134197Y-70014068D01*
X56155584Y-70130342D01*
X56157506Y-70138264D01*
X56184768Y-70223841D01*
X56225130Y-70304146D01*
X56283884Y-70386712D01*
X56366323Y-70479069D01*
X56477739Y-70588747D01*
X56652192Y-70753881D01*
X56640419Y-70883722D01*
X56638234Y-70915985D01*
X56649509Y-71054948D01*
X56697211Y-71173861D01*
X56782405Y-71275662D01*
X56870887Y-71338834D01*
X56995717Y-71384331D01*
X57131190Y-71391343D01*
X57273206Y-71359781D01*
X57417667Y-71289556D01*
X57443784Y-71274026D01*
X57493072Y-71250711D01*
X57548190Y-71235628D01*
X57621304Y-71225980D01*
X57724583Y-71218967D01*
X57771310Y-71215977D01*
X57878727Y-71206202D01*
X57977131Y-71193735D01*
X58049871Y-71180542D01*
X58099641Y-71169365D01*
X58145354Y-71163663D01*
X58172024Y-71171233D01*
X58192477Y-71193216D01*
X58216550Y-71241087D01*
X58234563Y-71302692D01*
X58237721Y-71351630D01*
X58222154Y-71400122D01*
X58181916Y-71461935D01*
X58158238Y-71496062D01*
X58127995Y-71547553D01*
X58116167Y-71579971D01*
X58118646Y-71602492D01*
X58141894Y-71655967D01*
X58192240Y-71719416D01*
X58272897Y-71796528D01*
X58387077Y-71890990D01*
X58598321Y-72057997D01*
X58624113Y-72217884D01*
X58625563Y-72226775D01*
X58640619Y-72310383D01*
X58655662Y-72381094D01*
X58667639Y-72424412D01*
X58674576Y-72458323D01*
X58654836Y-72496397D01*
X58637433Y-72519471D01*
X58610872Y-72577564D01*
X58586102Y-72652308D01*
X58567806Y-72728966D01*
X58560667Y-72792798D01*
X58560391Y-72805613D01*
X58552258Y-72835654D01*
X58524396Y-72851901D01*
X58465548Y-72862617D01*
X58431406Y-72869149D01*
X58346861Y-72894501D01*
X58266552Y-72928292D01*
X58194558Y-72971970D01*
X58107089Y-73056501D01*
X58056007Y-73153351D01*
X58040868Y-73257528D01*
X58061226Y-73364042D01*
X58116635Y-73467904D01*
X58206649Y-73564122D01*
X58330822Y-73647708D01*
X58383136Y-73675759D01*
X58428858Y-73700322D01*
X58447821Y-73710578D01*
X58459410Y-73732747D01*
X58466465Y-73773109D01*
X58466755Y-73811749D01*
X58458506Y-73829000D01*
X58426431Y-73835884D01*
X58376836Y-73853477D01*
X58329439Y-73865725D01*
X58253719Y-73876062D01*
X58169083Y-73881262D01*
X58043153Y-73892266D01*
X57889166Y-73930045D01*
X57755309Y-73991307D01*
X57648216Y-74072816D01*
X57574519Y-74171336D01*
X57569650Y-74181493D01*
X57554080Y-74264053D01*
X57574406Y-74348343D01*
X57626003Y-74426988D01*
X57704244Y-74492617D01*
X57804501Y-74537855D01*
X57808224Y-74538931D01*
X57885952Y-74554394D01*
X57984318Y-74565120D01*
X58082967Y-74568843D01*
X58180650Y-74564499D01*
X58317299Y-74539421D01*
X58441978Y-74487375D01*
X58570364Y-74403026D01*
X58629646Y-74359689D01*
X58665750Y-74338797D01*
X58684462Y-74338977D01*
X58693583Y-74357337D01*
X58696897Y-74366703D01*
X58736203Y-74409181D01*
X58807327Y-74443434D01*
X58901896Y-74467815D01*
X59011536Y-74480679D01*
X59127876Y-74480378D01*
X59242542Y-74465268D01*
X59306124Y-74447147D01*
X59394537Y-74398290D01*
X59450986Y-74331131D01*
X59470833Y-74250041D01*
X59463915Y-74186981D01*
X59432807Y-74076335D01*
X59379577Y-73945237D01*
X59307398Y-73800475D01*
X59219446Y-73648841D01*
X59118893Y-73497124D01*
X59110143Y-73484729D01*
X59067597Y-73423490D01*
X59037658Y-73378778D01*
X59026346Y-73359540D01*
X59032270Y-73358246D01*
X59071979Y-73356070D01*
X59142864Y-73354327D01*
X59237669Y-73353170D01*
X59349137Y-73352750D01*
X59387436Y-73352727D01*
X59502858Y-73351967D01*
X59587135Y-73349309D01*
X59649045Y-73343652D01*
X59697363Y-73333897D01*
X59740867Y-73318942D01*
X59788333Y-73297687D01*
X59838876Y-73271473D01*
X59908673Y-73228303D01*
X59957667Y-73189621D01*
X59990037Y-73162610D01*
X60030693Y-73144441D01*
X60090047Y-73133103D01*
X60179917Y-73125170D01*
X60282367Y-73113385D01*
X60391850Y-73092968D01*
X60482948Y-73068496D01*
X60616645Y-73023269D01*
X60684031Y-73080154D01*
X60756914Y-73131938D01*
X60879118Y-73196250D01*
X61020905Y-73252262D01*
X61169458Y-73294321D01*
X61234662Y-73309334D01*
X61290624Y-73325167D01*
X61320103Y-73341238D01*
X61331579Y-73362747D01*
X61333533Y-73394891D01*
X61340667Y-73458275D01*
X61381604Y-73554526D01*
X61452562Y-73631843D01*
X61546286Y-73683307D01*
X61655522Y-73702000D01*
X61700198Y-73700733D01*
X61778228Y-73686960D01*
X61846186Y-73652249D01*
X61920875Y-73589474D01*
X61932462Y-73578060D01*
X61979327Y-73511290D01*
X61984281Y-73450321D01*
X61947333Y-73395083D01*
X61918988Y-73366155D01*
X61905050Y-73344178D01*
X61918815Y-73331094D01*
X61961164Y-73304141D01*
X62022125Y-73270436D01*
X62121281Y-73208180D01*
X62243113Y-73104583D01*
X62348995Y-72985182D01*
X62426294Y-72862718D01*
X62428050Y-72859132D01*
X62458804Y-72789790D01*
X62476636Y-72727632D01*
X62484818Y-72656192D01*
X62486619Y-72559000D01*
X62478089Y-72422419D01*
X62450249Y-72313789D01*
X62398803Y-72223241D01*
X62319450Y-72139998D01*
X62231524Y-72082038D01*
X62127722Y-72057597D01*
X62010405Y-72072282D01*
X62002789Y-72074498D01*
X61917667Y-72116987D01*
X61825428Y-72189749D01*
X61734043Y-72284607D01*
X61651486Y-72393382D01*
X61585729Y-72507897D01*
X61514528Y-72657143D01*
X61238806Y-72576583D01*
X61219760Y-72570982D01*
X61113904Y-72538544D01*
X61020090Y-72507737D01*
X60947897Y-72481810D01*
X60906901Y-72464012D01*
X60841013Y-72441263D01*
X60729851Y-72434077D01*
X60584506Y-72448653D01*
X60406110Y-72484944D01*
X60336066Y-72501713D01*
X60255697Y-72520382D01*
X60197864Y-72533121D01*
X60171851Y-72537833D01*
X60162290Y-72528148D01*
X60142704Y-72487785D01*
X60120733Y-72426708D01*
X60098785Y-72366440D01*
X60029573Y-72224824D01*
X59927848Y-72059813D01*
X59792981Y-71870340D01*
X59754651Y-71818485D01*
X60213613Y-71818485D01*
X60279304Y-71924159D01*
X60310236Y-71970005D01*
X60345455Y-72012502D01*
X60368289Y-72028301D01*
X60402110Y-72023714D01*
X60479340Y-72006676D01*
X60573551Y-71981224D01*
X60670913Y-71951437D01*
X60757597Y-71921393D01*
X60819772Y-71895170D01*
X60852945Y-71879075D01*
X60901173Y-71861025D01*
X60952328Y-71852199D01*
X61019483Y-71850829D01*
X61115714Y-71855147D01*
X61189567Y-71858837D01*
X61262796Y-71859216D01*
X61317643Y-71852443D01*
X61367798Y-71836506D01*
X61426951Y-71809391D01*
X61456674Y-71794079D01*
X61554563Y-71727259D01*
X61633560Y-71639984D01*
X61704167Y-71521340D01*
X61754988Y-71421049D01*
X61893435Y-71412233D01*
X61923030Y-71410070D01*
X62006576Y-71398083D01*
X62054366Y-71377121D01*
X62071376Y-71343715D01*
X62062583Y-71294400D01*
X62054437Y-71276000D01*
X62002126Y-71218806D01*
X61918114Y-71173850D01*
X61810048Y-71144390D01*
X61685574Y-71133686D01*
X61518033Y-71147252D01*
X61341857Y-71194909D01*
X61166388Y-71279016D01*
X60985817Y-71401800D01*
X60966554Y-71401285D01*
X60922118Y-71374357D01*
X60860898Y-71321207D01*
X60829906Y-71292184D01*
X60777358Y-71250136D01*
X60735212Y-71231348D01*
X60691947Y-71229573D01*
X60650226Y-71238673D01*
X60615583Y-71264494D01*
X60598600Y-71310882D01*
X60598754Y-71382539D01*
X60615520Y-71484163D01*
X60648375Y-71620455D01*
X60649205Y-71623799D01*
X60648390Y-71653911D01*
X60623769Y-71678831D01*
X60567036Y-71707446D01*
X60484617Y-71741312D01*
X60270848Y-71805841D01*
X60213613Y-71818485D01*
X59754651Y-71818485D01*
X59748118Y-71809646D01*
X59702625Y-71745663D01*
X59673053Y-71701000D01*
X59664306Y-71682805D01*
X59675939Y-71674619D01*
X59714642Y-71648135D01*
X59769529Y-71610929D01*
X59881331Y-71523302D01*
X60013593Y-71393473D01*
X60147132Y-71237369D01*
X60232849Y-71120683D01*
X62324326Y-71120683D01*
X62400413Y-71204903D01*
X62428782Y-71238601D01*
X62463105Y-71288082D01*
X62476500Y-71320811D01*
X62477045Y-71324970D01*
X62486541Y-71335119D01*
X62511939Y-71342488D01*
X62523361Y-71343715D01*
X62558526Y-71347493D01*
X62631586Y-71350553D01*
X62736403Y-71352082D01*
X62878264Y-71352500D01*
X62953506Y-71352482D01*
X63073883Y-71352091D01*
X63160576Y-71350672D01*
X63219337Y-71347560D01*
X63255916Y-71342089D01*
X63276065Y-71333595D01*
X63285535Y-71321412D01*
X63290078Y-71304875D01*
X63293057Y-71283637D01*
X63300493Y-71223660D01*
X63311755Y-71129700D01*
X63326358Y-71005982D01*
X63343820Y-70856730D01*
X63363655Y-70686168D01*
X63385381Y-70498519D01*
X63408514Y-70298009D01*
X63432570Y-70088860D01*
X63457065Y-69875298D01*
X63481516Y-69661546D01*
X63505438Y-69451828D01*
X63528348Y-69250369D01*
X63549763Y-69061392D01*
X63569198Y-68889121D01*
X63586169Y-68737781D01*
X63600194Y-68611596D01*
X63610788Y-68514789D01*
X63617467Y-68451585D01*
X63619749Y-68426208D01*
X63601560Y-68419758D01*
X63554846Y-68414305D01*
X63493690Y-68410582D01*
X63432184Y-68409171D01*
X63384421Y-68410657D01*
X63364493Y-68415625D01*
X63364251Y-68417579D01*
X63360473Y-68450274D01*
X63352444Y-68520486D01*
X63340566Y-68624673D01*
X63325243Y-68759295D01*
X63306877Y-68920811D01*
X63285870Y-69105681D01*
X63263878Y-69299333D01*
X63262626Y-69310362D01*
X63237546Y-69531316D01*
X63211035Y-69765000D01*
X63163018Y-70188333D01*
X63058583Y-71109083D01*
X62691455Y-71114883D01*
X62324326Y-71120683D01*
X60232849Y-71120683D01*
X60275683Y-71062374D01*
X60392984Y-70875873D01*
X60401590Y-70862011D01*
X60419285Y-70848128D01*
X60449141Y-70851729D01*
X60504538Y-70872395D01*
X60573631Y-70894528D01*
X60665648Y-70904425D01*
X60738733Y-70888042D01*
X60786943Y-70847142D01*
X60804333Y-70783489D01*
X60801236Y-70756340D01*
X60775367Y-70705068D01*
X60719120Y-70651709D01*
X60627528Y-70590850D01*
X60605737Y-70576868D01*
X60523561Y-70499300D01*
X60476993Y-70407326D01*
X60468179Y-70307387D01*
X60496549Y-70214792D01*
X61038359Y-70214792D01*
X61039091Y-70223962D01*
X61043769Y-70270477D01*
X61051983Y-70347162D01*
X61062860Y-70445944D01*
X61075526Y-70558750D01*
X61111501Y-70876250D01*
X61984500Y-70881776D01*
X62099109Y-70882444D01*
X62303027Y-70883224D01*
X62469395Y-70883156D01*
X62601418Y-70882164D01*
X62702303Y-70880169D01*
X62775255Y-70877093D01*
X62823480Y-70872860D01*
X62850184Y-70867391D01*
X62858573Y-70860610D01*
X62859393Y-70850319D01*
X62864255Y-70802475D01*
X62872695Y-70724664D01*
X62883839Y-70624881D01*
X62896811Y-70511125D01*
X62933975Y-70188333D01*
X61985571Y-70188333D01*
X61802058Y-70188470D01*
X61598176Y-70189102D01*
X61431297Y-70190325D01*
X61298410Y-70192223D01*
X61196499Y-70194881D01*
X61122552Y-70198383D01*
X61073556Y-70202812D01*
X61046496Y-70208254D01*
X61038359Y-70214792D01*
X60496549Y-70214792D01*
X60499266Y-70205923D01*
X60516829Y-70174748D01*
X60558243Y-70108849D01*
X60605100Y-70040405D01*
X60613291Y-70028812D01*
X60663397Y-69939980D01*
X60677246Y-69864362D01*
X60654583Y-69793811D01*
X60595157Y-69720176D01*
X60585277Y-69710562D01*
X60508432Y-69654511D01*
X60441007Y-69637140D01*
X60387195Y-69657093D01*
X60351189Y-69713016D01*
X60337179Y-69803553D01*
X60334557Y-69865157D01*
X60322585Y-69924351D01*
X60294112Y-69969214D01*
X60241743Y-70010251D01*
X60158082Y-70057969D01*
X60105314Y-70087399D01*
X60040306Y-70131103D01*
X59996654Y-70175497D01*
X59962958Y-70230673D01*
X59927564Y-70333464D01*
X59916331Y-70472797D01*
X59937201Y-70627883D01*
X59941307Y-70646711D01*
X59947184Y-70702262D01*
X59936591Y-70753442D01*
X59906317Y-70820241D01*
X59905611Y-70821632D01*
X59805120Y-70991180D01*
X59694037Y-71126882D01*
X59574892Y-71226618D01*
X59450216Y-71288264D01*
X59322537Y-71309702D01*
X59317484Y-71309683D01*
X59258429Y-71306849D01*
X59172413Y-71300007D01*
X59069312Y-71290238D01*
X58959005Y-71278623D01*
X58851370Y-71266245D01*
X58756284Y-71254184D01*
X58683625Y-71243522D01*
X58643272Y-71235341D01*
X58633775Y-71229680D01*
X58606335Y-71192570D01*
X58582756Y-71135565D01*
X58579411Y-71124266D01*
X58567026Y-71071956D01*
X58570759Y-71043394D01*
X58591722Y-71024841D01*
X58701347Y-70955188D01*
X58849162Y-70850294D01*
X58981323Y-70743685D01*
X59092189Y-70640340D01*
X59176119Y-70545243D01*
X59227474Y-70463374D01*
X59237597Y-70440482D01*
X59254031Y-70392012D01*
X59251915Y-70353678D01*
X59231811Y-70305025D01*
X59179641Y-70229760D01*
X59096704Y-70175260D01*
X58992445Y-70156583D01*
X58966842Y-70157590D01*
X58887225Y-70179619D01*
X58824360Y-70234118D01*
X58771961Y-70325917D01*
X58700034Y-70456142D01*
X58609687Y-70561922D01*
X58508508Y-70632467D01*
X58395766Y-70670984D01*
X58270394Y-70677984D01*
X58153399Y-70648081D01*
X58051450Y-70583107D01*
X57971216Y-70484894D01*
X57956039Y-70455565D01*
X57922274Y-70343429D01*
X57911865Y-70216829D01*
X57925102Y-70091861D01*
X57962271Y-69984621D01*
X58011177Y-69907153D01*
X58080890Y-69832455D01*
X58169199Y-69771004D01*
X58280007Y-69721444D01*
X58417220Y-69682420D01*
X58584742Y-69652574D01*
X58786478Y-69630550D01*
X59026333Y-69614992D01*
X59123798Y-69610027D01*
X59274562Y-69601047D01*
X59391951Y-69591453D01*
X59481773Y-69580209D01*
X59549835Y-69566276D01*
X59601945Y-69548618D01*
X59643910Y-69526198D01*
X59681538Y-69497978D01*
X59706194Y-69473014D01*
X59738818Y-69404265D01*
X59736290Y-69328393D01*
X59701184Y-69252316D01*
X59636076Y-69182949D01*
X59543538Y-69127209D01*
X59452900Y-69087116D01*
X59524590Y-68980585D01*
X59535847Y-68963458D01*
X59592924Y-68852695D01*
X59613448Y-68752691D01*
X59598902Y-68656988D01*
X59598126Y-68654662D01*
X59542380Y-68551692D01*
X59455680Y-68474903D01*
X59342194Y-68426912D01*
X59206087Y-68410333D01*
X60338167Y-68410333D01*
X60349448Y-68489708D01*
X60353681Y-68521734D01*
X60362747Y-68594720D01*
X60374768Y-68694376D01*
X60388689Y-68811921D01*
X60403452Y-68938574D01*
X60415715Y-69043097D01*
X60428570Y-69149103D01*
X60439247Y-69233278D01*
X60446886Y-69288876D01*
X60450630Y-69309154D01*
X60457374Y-69311393D01*
X60493830Y-69324136D01*
X60550333Y-69344163D01*
X60577845Y-69354063D01*
X60641701Y-69377763D01*
X60685793Y-69395105D01*
X60701227Y-69400891D01*
X60718343Y-69396733D01*
X60714129Y-69361022D01*
X60712812Y-69354313D01*
X60705862Y-69307184D01*
X60704854Y-69299333D01*
X60929415Y-69299333D01*
X60940595Y-69368125D01*
X60944032Y-69391612D01*
X60944683Y-69396733D01*
X60952712Y-69459955D01*
X60963176Y-69550008D01*
X60973858Y-69648583D01*
X60979470Y-69701369D01*
X60990433Y-69799685D01*
X61000429Y-69883749D01*
X61007831Y-69939625D01*
X61019721Y-70019000D01*
X62955729Y-70019000D01*
X62982387Y-69759708D01*
X62992774Y-69659660D01*
X63004140Y-69552221D01*
X63013966Y-69461371D01*
X63020887Y-69399875D01*
X63032730Y-69299333D01*
X60929415Y-69299333D01*
X60704854Y-69299333D01*
X60695584Y-69227147D01*
X60682835Y-69121255D01*
X60668469Y-68996562D01*
X60653344Y-68860125D01*
X60604433Y-68410333D01*
X60338167Y-68410333D01*
X59206087Y-68410333D01*
X59187070Y-68410622D01*
X59061479Y-68430654D01*
X58955114Y-68484161D01*
X58864026Y-68573881D01*
X58784264Y-68702550D01*
X58748864Y-68772517D01*
X58649474Y-68696709D01*
X58611263Y-68668900D01*
X58527012Y-68613297D01*
X58449257Y-68568033D01*
X58348431Y-68515165D01*
X58383105Y-68448113D01*
X58390896Y-68432477D01*
X58425731Y-68351175D01*
X58460033Y-68256072D01*
X58489661Y-68160300D01*
X58510475Y-68076990D01*
X58518333Y-68019276D01*
X58515832Y-67977629D01*
X58503135Y-67943777D01*
X58473799Y-67921851D01*
X58421409Y-67909322D01*
X58339551Y-67903659D01*
X58221812Y-67902333D01*
X58100573Y-67903967D01*
X58009934Y-67910587D01*
X57951175Y-67924406D01*
X57919000Y-67947637D01*
X57908112Y-67982490D01*
X57913215Y-68031176D01*
X57920687Y-68076284D01*
X57930841Y-68155709D01*
X57939381Y-68241000D01*
X57951014Y-68378583D01*
X57552049Y-68378583D01*
X57450655Y-68379079D01*
X57278325Y-68383372D01*
X57138835Y-68392912D01*
X57025984Y-68408711D01*
X56933571Y-68431782D01*
X56855395Y-68463136D01*
X56785256Y-68503787D01*
X56752100Y-68528396D01*
X56665465Y-68609286D01*
X56570122Y-68716648D01*
X56471598Y-68842430D01*
X56375422Y-68978582D01*
X56287120Y-69117053D01*
X56212219Y-69249793D01*
X56156248Y-69368749D01*
X56124734Y-69465872D01*
X56118862Y-69501110D01*
X56110909Y-69609517D01*
X55079282Y-69609517D01*
X55145508Y-69257103D01*
X55264292Y-68834142D01*
X55420968Y-68421522D01*
X55615535Y-68022089D01*
X55847994Y-67638687D01*
X55876659Y-67598743D01*
X61576917Y-67598743D01*
X61577159Y-67647745D01*
X61580331Y-67719430D01*
X61589892Y-67768688D01*
X61609208Y-67808723D01*
X61641644Y-67852743D01*
X61658117Y-67871748D01*
X61726589Y-67933635D01*
X61799587Y-67981708D01*
X61868789Y-68008476D01*
X61992204Y-68028457D01*
X62119957Y-68022206D01*
X62234265Y-67989410D01*
X62317706Y-67938485D01*
X62408850Y-67844646D01*
X62474772Y-67729054D01*
X62510196Y-67601612D01*
X62509844Y-67472222D01*
X62509474Y-67470017D01*
X62494125Y-67414945D01*
X62464372Y-67333232D01*
X62424349Y-67235541D01*
X62378187Y-67132535D01*
X62314116Y-66990444D01*
X62226847Y-66774107D01*
X62160266Y-66576897D01*
X62116962Y-66406007D01*
X62101416Y-66329591D01*
X62086333Y-66265312D01*
X62073443Y-66228908D01*
X62059850Y-66212697D01*
X62042658Y-66209000D01*
X62031380Y-66214499D01*
X62009826Y-66254899D01*
X61990395Y-66330708D01*
X61953443Y-66488678D01*
X61888738Y-66699599D01*
X61805648Y-66922714D01*
X61708209Y-67146358D01*
X61687527Y-67190501D01*
X61642143Y-67289377D01*
X61611246Y-67363143D01*
X61592056Y-67421381D01*
X61581791Y-67473673D01*
X61577672Y-67529600D01*
X61576917Y-67598743D01*
X55876659Y-67598743D01*
X56051326Y-67355350D01*
X56344056Y-67006828D01*
X56662011Y-66691803D01*
X57006665Y-66408976D01*
X57379488Y-66157050D01*
X57781954Y-65934728D01*
X57984828Y-65838588D01*
X58370831Y-65683534D01*
X58758536Y-65565690D01*
X59154758Y-65483476D01*
X59566308Y-65435307D01*
X60000000Y-65419603D01*
X60303301Y-65426909D01*
X60703391Y-65462279D01*
X61086360Y-65528752D01*
X61460642Y-65628287D01*
X61834671Y-65762843D01*
X62216881Y-65934378D01*
X62507735Y-66088840D01*
X62865307Y-66316392D01*
X63202559Y-66576864D01*
X63525457Y-66874543D01*
X63744280Y-67106512D01*
X64016397Y-67441527D01*
X64123962Y-67601612D01*
X64254634Y-67796087D01*
G36*
X64254634Y-67796087D02*
G01*
X64463316Y-68176199D01*
X64568416Y-68400053D01*
X64578802Y-68426208D01*
X64721359Y-68785234D01*
X64837292Y-69170354D01*
X64917953Y-69562877D01*
X64965076Y-69970270D01*
X64980397Y-70400000D01*
X64976097Y-70631247D01*
X64943676Y-71051213D01*
X64878099Y-71452793D01*
X64777721Y-71843071D01*
X64640901Y-72229127D01*
X64492550Y-72559000D01*
X64465996Y-72618046D01*
X64381678Y-72780766D01*
X64147772Y-73169419D01*
X63882166Y-73531717D01*
X63586934Y-73866251D01*
X63264152Y-74171612D01*
X62915897Y-74446390D01*
X62544244Y-74689175D01*
X62151269Y-74898558D01*
X61739047Y-75073130D01*
X61309655Y-75211480D01*
X60865168Y-75312200D01*
X60407662Y-75373879D01*
X60389016Y-75375418D01*
X60282290Y-75381126D01*
X60151386Y-75384455D01*
X60011163Y-75385152D01*
X59876480Y-75382962D01*
X59814857Y-75380858D01*
X59388191Y-75348276D01*
X58982349Y-75283579D01*
X58589279Y-75184798D01*
X58200930Y-75049962D01*
X57809250Y-74877100D01*
X57488275Y-74706969D01*
X57107153Y-74463387D01*
X56753180Y-74187569D01*
X56425739Y-73878977D01*
X56124216Y-73537071D01*
X55847994Y-73161313D01*
X55781584Y-73059675D01*
X55559342Y-72671670D01*
X55374992Y-72268401D01*
X55228533Y-71852713D01*
X55119966Y-71427451D01*
X55049291Y-70995459D01*
X55016508Y-70559583D01*
X55021616Y-70122669D01*
X55064616Y-69687560D01*
X55079282Y-69609517D01*
X56110909Y-69609517D01*
X56111232Y-69740150D01*
X56119204Y-69879502D01*
X56134197Y-70014068D01*
X56155584Y-70130342D01*
X56157506Y-70138264D01*
X56184768Y-70223841D01*
X56225130Y-70304146D01*
X56283884Y-70386712D01*
X56366323Y-70479069D01*
X56477739Y-70588747D01*
X56652192Y-70753881D01*
X56640419Y-70883722D01*
X56638234Y-70915985D01*
X56649509Y-71054948D01*
X56697211Y-71173861D01*
X56782405Y-71275662D01*
X56870887Y-71338834D01*
X56995717Y-71384331D01*
X57131190Y-71391343D01*
X57273206Y-71359781D01*
X57417667Y-71289556D01*
X57443784Y-71274026D01*
X57493072Y-71250711D01*
X57548190Y-71235628D01*
X57621304Y-71225980D01*
X57724583Y-71218967D01*
X57771310Y-71215977D01*
X57878727Y-71206202D01*
X57977131Y-71193735D01*
X58049871Y-71180542D01*
X58099641Y-71169365D01*
X58145354Y-71163663D01*
X58172024Y-71171233D01*
X58192477Y-71193216D01*
X58216550Y-71241087D01*
X58234563Y-71302692D01*
X58237721Y-71351630D01*
X58222154Y-71400122D01*
X58181916Y-71461935D01*
X58158238Y-71496062D01*
X58127995Y-71547553D01*
X58116167Y-71579971D01*
X58118646Y-71602492D01*
X58141894Y-71655967D01*
X58192240Y-71719416D01*
X58272897Y-71796528D01*
X58387077Y-71890990D01*
X58598321Y-72057997D01*
X58624113Y-72217884D01*
X58625563Y-72226775D01*
X58640619Y-72310383D01*
X58655662Y-72381094D01*
X58667639Y-72424412D01*
X58674576Y-72458323D01*
X58654836Y-72496397D01*
X58637433Y-72519471D01*
X58610872Y-72577564D01*
X58586102Y-72652308D01*
X58567806Y-72728966D01*
X58560667Y-72792798D01*
X58560391Y-72805613D01*
X58552258Y-72835654D01*
X58524396Y-72851901D01*
X58465548Y-72862617D01*
X58431406Y-72869149D01*
X58346861Y-72894501D01*
X58266552Y-72928292D01*
X58194558Y-72971970D01*
X58107089Y-73056501D01*
X58056007Y-73153351D01*
X58040868Y-73257528D01*
X58061226Y-73364042D01*
X58116635Y-73467904D01*
X58206649Y-73564122D01*
X58330822Y-73647708D01*
X58383136Y-73675759D01*
X58428858Y-73700322D01*
X58447821Y-73710578D01*
X58459410Y-73732747D01*
X58466465Y-73773109D01*
X58466755Y-73811749D01*
X58458506Y-73829000D01*
X58426431Y-73835884D01*
X58376836Y-73853477D01*
X58329439Y-73865725D01*
X58253719Y-73876062D01*
X58169083Y-73881262D01*
X58043153Y-73892266D01*
X57889166Y-73930045D01*
X57755309Y-73991307D01*
X57648216Y-74072816D01*
X57574519Y-74171336D01*
X57569650Y-74181493D01*
X57554080Y-74264053D01*
X57574406Y-74348343D01*
X57626003Y-74426988D01*
X57704244Y-74492617D01*
X57804501Y-74537855D01*
X57808224Y-74538931D01*
X57885952Y-74554394D01*
X57984318Y-74565120D01*
X58082967Y-74568843D01*
X58180650Y-74564499D01*
X58317299Y-74539421D01*
X58441978Y-74487375D01*
X58570364Y-74403026D01*
X58629646Y-74359689D01*
X58665750Y-74338797D01*
X58684462Y-74338977D01*
X58693583Y-74357337D01*
X58696897Y-74366703D01*
X58736203Y-74409181D01*
X58807327Y-74443434D01*
X58901896Y-74467815D01*
X59011536Y-74480679D01*
X59127876Y-74480378D01*
X59242542Y-74465268D01*
X59306124Y-74447147D01*
X59394537Y-74398290D01*
X59450986Y-74331131D01*
X59470833Y-74250041D01*
X59463915Y-74186981D01*
X59432807Y-74076335D01*
X59379577Y-73945237D01*
X59307398Y-73800475D01*
X59219446Y-73648841D01*
X59118893Y-73497124D01*
X59110143Y-73484729D01*
X59067597Y-73423490D01*
X59037658Y-73378778D01*
X59026346Y-73359540D01*
X59032270Y-73358246D01*
X59071979Y-73356070D01*
X59142864Y-73354327D01*
X59237669Y-73353170D01*
X59349137Y-73352750D01*
X59387436Y-73352727D01*
X59502858Y-73351967D01*
X59587135Y-73349309D01*
X59649045Y-73343652D01*
X59697363Y-73333897D01*
X59740867Y-73318942D01*
X59788333Y-73297687D01*
X59838876Y-73271473D01*
X59908673Y-73228303D01*
X59957667Y-73189621D01*
X59990037Y-73162610D01*
X60030693Y-73144441D01*
X60090047Y-73133103D01*
X60179917Y-73125170D01*
X60282367Y-73113385D01*
X60391850Y-73092968D01*
X60482948Y-73068496D01*
X60616645Y-73023269D01*
X60684031Y-73080154D01*
X60756914Y-73131938D01*
X60879118Y-73196250D01*
X61020905Y-73252262D01*
X61169458Y-73294321D01*
X61234662Y-73309334D01*
X61290624Y-73325167D01*
X61320103Y-73341238D01*
X61331579Y-73362747D01*
X61333533Y-73394891D01*
X61340667Y-73458275D01*
X61381604Y-73554526D01*
X61452562Y-73631843D01*
X61546286Y-73683307D01*
X61655522Y-73702000D01*
X61700198Y-73700733D01*
X61778228Y-73686960D01*
X61846186Y-73652249D01*
X61920875Y-73589474D01*
X61932462Y-73578060D01*
X61979327Y-73511290D01*
X61984281Y-73450321D01*
X61947333Y-73395083D01*
X61918988Y-73366155D01*
X61905050Y-73344178D01*
X61918815Y-73331094D01*
X61961164Y-73304141D01*
X62022125Y-73270436D01*
X62121281Y-73208180D01*
X62243113Y-73104583D01*
X62348995Y-72985182D01*
X62426294Y-72862718D01*
X62428050Y-72859132D01*
X62458804Y-72789790D01*
X62476636Y-72727632D01*
X62484818Y-72656192D01*
X62486619Y-72559000D01*
X62478089Y-72422419D01*
X62450249Y-72313789D01*
X62398803Y-72223241D01*
X62319450Y-72139998D01*
X62231524Y-72082038D01*
X62127722Y-72057597D01*
X62010405Y-72072282D01*
X62002789Y-72074498D01*
X61917667Y-72116987D01*
X61825428Y-72189749D01*
X61734043Y-72284607D01*
X61651486Y-72393382D01*
X61585729Y-72507897D01*
X61514528Y-72657143D01*
X61238806Y-72576583D01*
X61219760Y-72570982D01*
X61113904Y-72538544D01*
X61020090Y-72507737D01*
X60947897Y-72481810D01*
X60906901Y-72464012D01*
X60841013Y-72441263D01*
X60729851Y-72434077D01*
X60584506Y-72448653D01*
X60406110Y-72484944D01*
X60336066Y-72501713D01*
X60255697Y-72520382D01*
X60197864Y-72533121D01*
X60171851Y-72537833D01*
X60162290Y-72528148D01*
X60142704Y-72487785D01*
X60120733Y-72426708D01*
X60098785Y-72366440D01*
X60029573Y-72224824D01*
X59927848Y-72059813D01*
X59792981Y-71870340D01*
X59754651Y-71818485D01*
X60213613Y-71818485D01*
X60279304Y-71924159D01*
X60310236Y-71970005D01*
X60345455Y-72012502D01*
X60368289Y-72028301D01*
X60402110Y-72023714D01*
X60479340Y-72006676D01*
X60573551Y-71981224D01*
X60670913Y-71951437D01*
X60757597Y-71921393D01*
X60819772Y-71895170D01*
X60852945Y-71879075D01*
X60901173Y-71861025D01*
X60952328Y-71852199D01*
X61019483Y-71850829D01*
X61115714Y-71855147D01*
X61189567Y-71858837D01*
X61262796Y-71859216D01*
X61317643Y-71852443D01*
X61367798Y-71836506D01*
X61426951Y-71809391D01*
X61456674Y-71794079D01*
X61554563Y-71727259D01*
X61633560Y-71639984D01*
X61704167Y-71521340D01*
X61754988Y-71421049D01*
X61893435Y-71412233D01*
X61923030Y-71410070D01*
X62006576Y-71398083D01*
X62054366Y-71377121D01*
X62071376Y-71343715D01*
X62062583Y-71294400D01*
X62054437Y-71276000D01*
X62002126Y-71218806D01*
X61918114Y-71173850D01*
X61810048Y-71144390D01*
X61685574Y-71133686D01*
X61518033Y-71147252D01*
X61341857Y-71194909D01*
X61166388Y-71279016D01*
X60985817Y-71401800D01*
X60966554Y-71401285D01*
X60922118Y-71374357D01*
X60860898Y-71321207D01*
X60829906Y-71292184D01*
X60777358Y-71250136D01*
X60735212Y-71231348D01*
X60691947Y-71229573D01*
X60650226Y-71238673D01*
X60615583Y-71264494D01*
X60598600Y-71310882D01*
X60598754Y-71382539D01*
X60615520Y-71484163D01*
X60648375Y-71620455D01*
X60649205Y-71623799D01*
X60648390Y-71653911D01*
X60623769Y-71678831D01*
X60567036Y-71707446D01*
X60484617Y-71741312D01*
X60270848Y-71805841D01*
X60213613Y-71818485D01*
X59754651Y-71818485D01*
X59748118Y-71809646D01*
X59702625Y-71745663D01*
X59673053Y-71701000D01*
X59664306Y-71682805D01*
X59675939Y-71674619D01*
X59714642Y-71648135D01*
X59769529Y-71610929D01*
X59881331Y-71523302D01*
X60013593Y-71393473D01*
X60147132Y-71237369D01*
X60232849Y-71120683D01*
X62324326Y-71120683D01*
X62400413Y-71204903D01*
X62428782Y-71238601D01*
X62463105Y-71288082D01*
X62476500Y-71320811D01*
X62477045Y-71324970D01*
X62486541Y-71335119D01*
X62511939Y-71342488D01*
X62523361Y-71343715D01*
X62558526Y-71347493D01*
X62631586Y-71350553D01*
X62736403Y-71352082D01*
X62878264Y-71352500D01*
X62953506Y-71352482D01*
X63073883Y-71352091D01*
X63160576Y-71350672D01*
X63219337Y-71347560D01*
X63255916Y-71342089D01*
X63276065Y-71333595D01*
X63285535Y-71321412D01*
X63290078Y-71304875D01*
X63293057Y-71283637D01*
X63300493Y-71223660D01*
X63311755Y-71129700D01*
X63326358Y-71005982D01*
X63343820Y-70856730D01*
X63363655Y-70686168D01*
X63385381Y-70498519D01*
X63408514Y-70298009D01*
X63432570Y-70088860D01*
X63457065Y-69875298D01*
X63481516Y-69661546D01*
X63505438Y-69451828D01*
X63528348Y-69250369D01*
X63549763Y-69061392D01*
X63569198Y-68889121D01*
X63586169Y-68737781D01*
X63600194Y-68611596D01*
X63610788Y-68514789D01*
X63617467Y-68451585D01*
X63619749Y-68426208D01*
X63601560Y-68419758D01*
X63554846Y-68414305D01*
X63493690Y-68410582D01*
X63432184Y-68409171D01*
X63384421Y-68410657D01*
X63364493Y-68415625D01*
X63364251Y-68417579D01*
X63360473Y-68450274D01*
X63352444Y-68520486D01*
X63340566Y-68624673D01*
X63325243Y-68759295D01*
X63306877Y-68920811D01*
X63285870Y-69105681D01*
X63263878Y-69299333D01*
X63262626Y-69310362D01*
X63237546Y-69531316D01*
X63211035Y-69765000D01*
X63163018Y-70188333D01*
X63058583Y-71109083D01*
X62691455Y-71114883D01*
X62324326Y-71120683D01*
X60232849Y-71120683D01*
X60275683Y-71062374D01*
X60392984Y-70875873D01*
X60401590Y-70862011D01*
X60419285Y-70848128D01*
X60449141Y-70851729D01*
X60504538Y-70872395D01*
X60573631Y-70894528D01*
X60665648Y-70904425D01*
X60738733Y-70888042D01*
X60786943Y-70847142D01*
X60804333Y-70783489D01*
X60801236Y-70756340D01*
X60775367Y-70705068D01*
X60719120Y-70651709D01*
X60627528Y-70590850D01*
X60605737Y-70576868D01*
X60523561Y-70499300D01*
X60476993Y-70407326D01*
X60468179Y-70307387D01*
X60496549Y-70214792D01*
X61038359Y-70214792D01*
X61039091Y-70223962D01*
X61043769Y-70270477D01*
X61051983Y-70347162D01*
X61062860Y-70445944D01*
X61075526Y-70558750D01*
X61111501Y-70876250D01*
X61984500Y-70881776D01*
X62099109Y-70882444D01*
X62303027Y-70883224D01*
X62469395Y-70883156D01*
X62601418Y-70882164D01*
X62702303Y-70880169D01*
X62775255Y-70877093D01*
X62823480Y-70872860D01*
X62850184Y-70867391D01*
X62858573Y-70860610D01*
X62859393Y-70850319D01*
X62864255Y-70802475D01*
X62872695Y-70724664D01*
X62883839Y-70624881D01*
X62896811Y-70511125D01*
X62933975Y-70188333D01*
X61985571Y-70188333D01*
X61802058Y-70188470D01*
X61598176Y-70189102D01*
X61431297Y-70190325D01*
X61298410Y-70192223D01*
X61196499Y-70194881D01*
X61122552Y-70198383D01*
X61073556Y-70202812D01*
X61046496Y-70208254D01*
X61038359Y-70214792D01*
X60496549Y-70214792D01*
X60499266Y-70205923D01*
X60516829Y-70174748D01*
X60558243Y-70108849D01*
X60605100Y-70040405D01*
X60613291Y-70028812D01*
X60663397Y-69939980D01*
X60677246Y-69864362D01*
X60654583Y-69793811D01*
X60595157Y-69720176D01*
X60585277Y-69710562D01*
X60508432Y-69654511D01*
X60441007Y-69637140D01*
X60387195Y-69657093D01*
X60351189Y-69713016D01*
X60337179Y-69803553D01*
X60334557Y-69865157D01*
X60322585Y-69924351D01*
X60294112Y-69969214D01*
X60241743Y-70010251D01*
X60158082Y-70057969D01*
X60105314Y-70087399D01*
X60040306Y-70131103D01*
X59996654Y-70175497D01*
X59962958Y-70230673D01*
X59927564Y-70333464D01*
X59916331Y-70472797D01*
X59937201Y-70627883D01*
X59941307Y-70646711D01*
X59947184Y-70702262D01*
X59936591Y-70753442D01*
X59906317Y-70820241D01*
X59905611Y-70821632D01*
X59805120Y-70991180D01*
X59694037Y-71126882D01*
X59574892Y-71226618D01*
X59450216Y-71288264D01*
X59322537Y-71309702D01*
X59317484Y-71309683D01*
X59258429Y-71306849D01*
X59172413Y-71300007D01*
X59069312Y-71290238D01*
X58959005Y-71278623D01*
X58851370Y-71266245D01*
X58756284Y-71254184D01*
X58683625Y-71243522D01*
X58643272Y-71235341D01*
X58633775Y-71229680D01*
X58606335Y-71192570D01*
X58582756Y-71135565D01*
X58579411Y-71124266D01*
X58567026Y-71071956D01*
X58570759Y-71043394D01*
X58591722Y-71024841D01*
X58701347Y-70955188D01*
X58849162Y-70850294D01*
X58981323Y-70743685D01*
X59092189Y-70640340D01*
X59176119Y-70545243D01*
X59227474Y-70463374D01*
X59237597Y-70440482D01*
X59254031Y-70392012D01*
X59251915Y-70353678D01*
X59231811Y-70305025D01*
X59179641Y-70229760D01*
X59096704Y-70175260D01*
X58992445Y-70156583D01*
X58966842Y-70157590D01*
X58887225Y-70179619D01*
X58824360Y-70234118D01*
X58771961Y-70325917D01*
X58700034Y-70456142D01*
X58609687Y-70561922D01*
X58508508Y-70632467D01*
X58395766Y-70670984D01*
X58270394Y-70677984D01*
X58153399Y-70648081D01*
X58051450Y-70583107D01*
X57971216Y-70484894D01*
X57956039Y-70455565D01*
X57922274Y-70343429D01*
X57911865Y-70216829D01*
X57925102Y-70091861D01*
X57962271Y-69984621D01*
X58011177Y-69907153D01*
X58080890Y-69832455D01*
X58169199Y-69771004D01*
X58280007Y-69721444D01*
X58417220Y-69682420D01*
X58584742Y-69652574D01*
X58786478Y-69630550D01*
X59026333Y-69614992D01*
X59123798Y-69610027D01*
X59274562Y-69601047D01*
X59391951Y-69591453D01*
X59481773Y-69580209D01*
X59549835Y-69566276D01*
X59601945Y-69548618D01*
X59643910Y-69526198D01*
X59681538Y-69497978D01*
X59706194Y-69473014D01*
X59738818Y-69404265D01*
X59736290Y-69328393D01*
X59701184Y-69252316D01*
X59636076Y-69182949D01*
X59543538Y-69127209D01*
X59452900Y-69087116D01*
X59524590Y-68980585D01*
X59535847Y-68963458D01*
X59592924Y-68852695D01*
X59613448Y-68752691D01*
X59598902Y-68656988D01*
X59598126Y-68654662D01*
X59542380Y-68551692D01*
X59455680Y-68474903D01*
X59342194Y-68426912D01*
X59206087Y-68410333D01*
X60338167Y-68410333D01*
X60349448Y-68489708D01*
X60353681Y-68521734D01*
X60362747Y-68594720D01*
X60374768Y-68694376D01*
X60388689Y-68811921D01*
X60403452Y-68938574D01*
X60415715Y-69043097D01*
X60428570Y-69149103D01*
X60439247Y-69233278D01*
X60446886Y-69288876D01*
X60450630Y-69309154D01*
X60457374Y-69311393D01*
X60493830Y-69324136D01*
X60550333Y-69344163D01*
X60577845Y-69354063D01*
X60641701Y-69377763D01*
X60685793Y-69395105D01*
X60701227Y-69400891D01*
X60718343Y-69396733D01*
X60714129Y-69361022D01*
X60712812Y-69354313D01*
X60705862Y-69307184D01*
X60704854Y-69299333D01*
X60929415Y-69299333D01*
X60940595Y-69368125D01*
X60944032Y-69391612D01*
X60944683Y-69396733D01*
X60952712Y-69459955D01*
X60963176Y-69550008D01*
X60973858Y-69648583D01*
X60979470Y-69701369D01*
X60990433Y-69799685D01*
X61000429Y-69883749D01*
X61007831Y-69939625D01*
X61019721Y-70019000D01*
X62955729Y-70019000D01*
X62982387Y-69759708D01*
X62992774Y-69659660D01*
X63004140Y-69552221D01*
X63013966Y-69461371D01*
X63020887Y-69399875D01*
X63032730Y-69299333D01*
X60929415Y-69299333D01*
X60704854Y-69299333D01*
X60695584Y-69227147D01*
X60682835Y-69121255D01*
X60668469Y-68996562D01*
X60653344Y-68860125D01*
X60604433Y-68410333D01*
X60338167Y-68410333D01*
X59206087Y-68410333D01*
X59187070Y-68410622D01*
X59061479Y-68430654D01*
X58955114Y-68484161D01*
X58864026Y-68573881D01*
X58784264Y-68702550D01*
X58748864Y-68772517D01*
X58649474Y-68696709D01*
X58611263Y-68668900D01*
X58527012Y-68613297D01*
X58449257Y-68568033D01*
X58348431Y-68515165D01*
X58383105Y-68448113D01*
X58390896Y-68432477D01*
X58425731Y-68351175D01*
X58460033Y-68256072D01*
X58489661Y-68160300D01*
X58510475Y-68076990D01*
X58518333Y-68019276D01*
X58515832Y-67977629D01*
X58503135Y-67943777D01*
X58473799Y-67921851D01*
X58421409Y-67909322D01*
X58339551Y-67903659D01*
X58221812Y-67902333D01*
X58100573Y-67903967D01*
X58009934Y-67910587D01*
X57951175Y-67924406D01*
X57919000Y-67947637D01*
X57908112Y-67982490D01*
X57913215Y-68031176D01*
X57920687Y-68076284D01*
X57930841Y-68155709D01*
X57939381Y-68241000D01*
X57951014Y-68378583D01*
X57552049Y-68378583D01*
X57450655Y-68379079D01*
X57278325Y-68383372D01*
X57138835Y-68392912D01*
X57025984Y-68408711D01*
X56933571Y-68431782D01*
X56855395Y-68463136D01*
X56785256Y-68503787D01*
X56752100Y-68528396D01*
X56665465Y-68609286D01*
X56570122Y-68716648D01*
X56471598Y-68842430D01*
X56375422Y-68978582D01*
X56287120Y-69117053D01*
X56212219Y-69249793D01*
X56156248Y-69368749D01*
X56124734Y-69465872D01*
X56118862Y-69501110D01*
X56110909Y-69609517D01*
X55079282Y-69609517D01*
X55145508Y-69257103D01*
X55264292Y-68834142D01*
X55420968Y-68421522D01*
X55615535Y-68022089D01*
X55847994Y-67638687D01*
X55876659Y-67598743D01*
X61576917Y-67598743D01*
X61577159Y-67647745D01*
X61580331Y-67719430D01*
X61589892Y-67768688D01*
X61609208Y-67808723D01*
X61641644Y-67852743D01*
X61658117Y-67871748D01*
X61726589Y-67933635D01*
X61799587Y-67981708D01*
X61868789Y-68008476D01*
X61992204Y-68028457D01*
X62119957Y-68022206D01*
X62234265Y-67989410D01*
X62317706Y-67938485D01*
X62408850Y-67844646D01*
X62474772Y-67729054D01*
X62510196Y-67601612D01*
X62509844Y-67472222D01*
X62509474Y-67470017D01*
X62494125Y-67414945D01*
X62464372Y-67333232D01*
X62424349Y-67235541D01*
X62378187Y-67132535D01*
X62314116Y-66990444D01*
X62226847Y-66774107D01*
X62160266Y-66576897D01*
X62116962Y-66406007D01*
X62101416Y-66329591D01*
X62086333Y-66265312D01*
X62073443Y-66228908D01*
X62059850Y-66212697D01*
X62042658Y-66209000D01*
X62031380Y-66214499D01*
X62009826Y-66254899D01*
X61990395Y-66330708D01*
X61953443Y-66488678D01*
X61888738Y-66699599D01*
X61805648Y-66922714D01*
X61708209Y-67146358D01*
X61687527Y-67190501D01*
X61642143Y-67289377D01*
X61611246Y-67363143D01*
X61592056Y-67421381D01*
X61581791Y-67473673D01*
X61577672Y-67529600D01*
X61576917Y-67598743D01*
X55876659Y-67598743D01*
X56051326Y-67355350D01*
X56344056Y-67006828D01*
X56662011Y-66691803D01*
X57006665Y-66408976D01*
X57379488Y-66157050D01*
X57781954Y-65934728D01*
X57984828Y-65838588D01*
X58370831Y-65683534D01*
X58758536Y-65565690D01*
X59154758Y-65483476D01*
X59566308Y-65435307D01*
X60000000Y-65419603D01*
X60303301Y-65426909D01*
X60703391Y-65462279D01*
X61086360Y-65528752D01*
X61460642Y-65628287D01*
X61834671Y-65762843D01*
X62216881Y-65934378D01*
X62507735Y-66088840D01*
X62865307Y-66316392D01*
X63202559Y-66576864D01*
X63525457Y-66874543D01*
X63744280Y-67106512D01*
X64016397Y-67441527D01*
X64123962Y-67601612D01*
X64254634Y-67796087D01*
G37*
%TD*%
%LPC*%
D13*
%TO.C,RV3*%
X85600000Y-137500000D03*
X94400000Y-137500000D03*
D14*
X92500001Y-144500000D03*
X90000000Y-144500000D03*
X87499999Y-144500000D03*
%TD*%
D15*
%TO.C,Q1*%
X73230000Y-93360000D03*
D16*
X75000000Y-93360000D03*
X76730000Y-93360000D03*
%TD*%
D17*
%TO.C,R7*%
X56190000Y-89750000D03*
X63810000Y-89750000D03*
%TD*%
%TO.C,R5*%
X56190000Y-97500000D03*
X63810000Y-97500000D03*
%TD*%
D18*
%TO.C,J3*%
X81480000Y-62500000D03*
D19*
X78380000Y-62500000D03*
X70080000Y-62500000D03*
%TD*%
D20*
%TO.C,J6*%
X68750000Y-143000000D03*
D21*
X70750000Y-143000000D03*
X72750000Y-143000000D03*
%TD*%
D17*
%TO.C,R21*%
X86190000Y-107500000D03*
X93810000Y-107500000D03*
%TD*%
%TO.C,C3*%
X82750000Y-112500000D03*
X82750000Y-110000000D03*
%TD*%
%TO.C,R3*%
X79874997Y-91892500D03*
X77675292Y-90622500D03*
%TD*%
D18*
%TO.C,J1*%
X66480000Y-62500000D03*
D19*
X63380000Y-62500000D03*
X55080000Y-62500000D03*
%TD*%
D17*
%TO.C,R20*%
X86193333Y-89750000D03*
X93813333Y-89750000D03*
%TD*%
%TO.C,R11*%
X56190000Y-122000000D03*
X63810000Y-122000000D03*
%TD*%
%TO.C,R12*%
X86190000Y-125750000D03*
X93810000Y-125750000D03*
%TD*%
%TO.C,C1*%
X62500000Y-85250000D03*
X65000000Y-85250000D03*
%TD*%
%TO.C,R16*%
X86210000Y-93410000D03*
X93830000Y-93410000D03*
%TD*%
%TO.C,R8*%
X63710000Y-107750000D03*
X56090000Y-107750000D03*
%TD*%
D22*
%TO.C,U1*%
X71250000Y-107630000D03*
D23*
X71250000Y-110170000D03*
X71250000Y-112710000D03*
X71250000Y-115250000D03*
X71250000Y-117790000D03*
X71250000Y-120330000D03*
X71250000Y-122870000D03*
X78870000Y-122870000D03*
X78870000Y-120330000D03*
X78870000Y-117790000D03*
X78870000Y-115250000D03*
X78870000Y-112710000D03*
X78870000Y-110170000D03*
X78870000Y-107630000D03*
%TD*%
D24*
%TO.C,D1*%
X71200000Y-135010000D03*
D25*
X71200000Y-127390000D03*
%TD*%
D13*
%TO.C,RV1*%
X55600000Y-137500000D03*
X64400000Y-137500000D03*
D14*
X62500001Y-144500000D03*
X60000000Y-144500000D03*
X57499999Y-144500000D03*
%TD*%
D17*
%TO.C,R19*%
X86193333Y-118250000D03*
X93813333Y-118250000D03*
%TD*%
%TO.C,C4*%
X82750000Y-120000000D03*
X82750000Y-117500000D03*
%TD*%
%TO.C,R13*%
X93810000Y-121870000D03*
X86190000Y-121870000D03*
%TD*%
%TO.C,C2*%
X83000000Y-85250000D03*
X85500000Y-85250000D03*
%TD*%
D26*
%TO.C,T2*%
X77000000Y-97500000D03*
D27*
X77000000Y-99270000D03*
X77000000Y-101000000D03*
%TD*%
D18*
%TO.C,J4*%
X96480000Y-77500000D03*
D19*
X93380000Y-77500000D03*
X85080000Y-77500000D03*
%TD*%
D26*
%TO.C,T1*%
X73000000Y-101020000D03*
D27*
X73000000Y-99250000D03*
X73000000Y-97520000D03*
%TD*%
D24*
%TO.C,D2*%
X78750000Y-135060000D03*
D25*
X78750000Y-127440000D03*
%TD*%
D17*
%TO.C,RV2*%
X77530000Y-77505000D03*
X74990000Y-74965000D03*
X72450000Y-77505000D03*
%TD*%
%TO.C,R14*%
X86190000Y-100750000D03*
X93810000Y-100750000D03*
%TD*%
%TO.C,R4*%
X56190000Y-93750000D03*
X63810000Y-93750000D03*
%TD*%
%TO.C,R18*%
X93813333Y-114500000D03*
X86193333Y-114500000D03*
%TD*%
%TO.C,R9*%
X63800000Y-118540000D03*
X56180000Y-118540000D03*
%TD*%
%TO.C,R17*%
X63810000Y-125750000D03*
X56190000Y-125750000D03*
%TD*%
%TO.C,R2*%
X69985004Y-91842500D03*
X72184709Y-90572500D03*
%TD*%
%TO.C,R6*%
X56190000Y-101250000D03*
X63810000Y-101250000D03*
%TD*%
%TO.C,R10*%
X56150000Y-114550000D03*
X63770000Y-114550000D03*
%TD*%
D18*
%TO.C,J2*%
X66530000Y-77500000D03*
D19*
X63430000Y-77500000D03*
X55130000Y-77500000D03*
%TD*%
D17*
%TO.C,R1*%
X75000000Y-86955000D03*
X75000000Y-89495000D03*
%TD*%
D18*
%TO.C,J5*%
X96480000Y-62500000D03*
D19*
X93380000Y-62500000D03*
X85080000Y-62500000D03*
%TD*%
D17*
%TO.C,R15*%
X86193333Y-97250000D03*
X93813333Y-97250000D03*
%TD*%
D20*
%TO.C,J7*%
X77250000Y-143000000D03*
D21*
X79250000Y-143000000D03*
X81250000Y-143000000D03*
%TD*%
%LPD*%
M02*
