%TF.GenerationSoftware,KiCad,Pcbnew,9.0.4*%
%TF.CreationDate,2026-02-02T18:02:09+11:00*%
%TF.ProjectId,VCO,56434f2e-6b69-4636-9164-5f7063625858,rev?*%
%TF.SameCoordinates,Original*%
%TF.FileFunction,Copper,L1,Top*%
%TF.FilePolarity,Positive*%
%FSLAX46Y46*%
G04 Gerber Fmt 4.6, Leading zero omitted, Abs format (unit mm)*
G04 Created by KiCad (PCBNEW 9.0.4) date 2026-02-02 18:02:09*
%MOMM*%
%LPD*%
G01*
G04 APERTURE LIST*
G04 Aperture macros list*
%AMRoundRect*
0 Rectangle with rounded corners*
0 $1 Rounding radius*
0 $2 $3 $4 $5 $6 $7 $8 $9 X,Y pos of 4 corners*
0 Add a 4 corners polygon primitive as box body*
4,1,4,$2,$3,$4,$5,$6,$7,$8,$9,$2,$3,0*
0 Add four circle primitives for the rounded corners*
1,1,$1+$1,$2,$3*
1,1,$1+$1,$4,$5*
1,1,$1+$1,$6,$7*
1,1,$1+$1,$8,$9*
0 Add four rect primitives between the rounded corners*
20,1,$1+$1,$2,$3,$4,$5,0*
20,1,$1+$1,$4,$5,$6,$7,0*
20,1,$1+$1,$6,$7,$8,$9,0*
20,1,$1+$1,$8,$9,$2,$3,0*%
G04 Aperture macros list end*
%TA.AperFunction,WasherPad*%
%ADD10C,4.000000*%
%TD*%
%TA.AperFunction,ComponentPad*%
%ADD11O,1.600000X2.400000*%
%TD*%
%TA.AperFunction,ComponentPad*%
%ADD12R,1.350000X1.900000*%
%TD*%
%TA.AperFunction,ComponentPad*%
%ADD13O,1.350000X1.900000*%
%TD*%
%TA.AperFunction,ComponentPad*%
%ADD14C,1.600000*%
%TD*%
%TA.AperFunction,ComponentPad*%
%ADD15R,2.000000X2.000000*%
%TD*%
%TA.AperFunction,ComponentPad*%
%ADD16C,2.200000*%
%TD*%
%TA.AperFunction,ComponentPad*%
%ADD17RoundRect,0.291666X-0.408334X-0.708334X0.408334X-0.708334X0.408334X0.708334X-0.408334X0.708334X0*%
%TD*%
%TA.AperFunction,ComponentPad*%
%ADD18O,1.400000X2.000000*%
%TD*%
%TA.AperFunction,ComponentPad*%
%ADD19RoundRect,0.250000X-0.950000X-0.550000X0.950000X-0.550000X0.950000X0.550000X-0.950000X0.550000X0*%
%TD*%
%TA.AperFunction,ComponentPad*%
%ADD20O,2.400000X1.600000*%
%TD*%
%TA.AperFunction,ComponentPad*%
%ADD21RoundRect,0.250000X0.650000X-0.650000X0.650000X0.650000X-0.650000X0.650000X-0.650000X-0.650000X0*%
%TD*%
%TA.AperFunction,ComponentPad*%
%ADD22C,1.800000*%
%TD*%
%TA.AperFunction,ComponentPad*%
%ADD23R,1.900000X1.350000*%
%TD*%
%TA.AperFunction,ComponentPad*%
%ADD24O,1.900000X1.350000*%
%TD*%
%TA.AperFunction,ViaPad*%
%ADD25C,0.600000*%
%TD*%
%TA.AperFunction,Conductor*%
%ADD26C,0.200000*%
%TD*%
%TA.AperFunction,Conductor*%
%ADD27C,0.500000*%
%TD*%
G04 APERTURE END LIST*
D10*
%TO.P,RV3,*%
%TO.N,*%
X85600000Y-137500000D03*
X94400000Y-137500000D03*
D11*
%TO.P,RV3,1,1*%
%TO.N,VDD*%
X92500001Y-144500000D03*
%TO.P,RV3,2,2*%
%TO.N,Net-(R12-Pad1)*%
X90000000Y-144500000D03*
%TO.P,RV3,3,3*%
%TO.N,GND*%
X87499999Y-144500000D03*
%TD*%
D12*
%TO.P,Q1,1,C*%
%TO.N,VDD*%
X73230000Y-93360000D03*
D13*
%TO.P,Q1,2,B*%
%TO.N,Net-(Q1-B)*%
X75000000Y-93360000D03*
%TO.P,Q1,3,E*%
%TO.N,Net-(Q1-E)*%
X76730000Y-93360000D03*
%TD*%
D14*
%TO.P,R7,1*%
%TO.N,Net-(R7-Pad1)*%
X56190000Y-89750000D03*
%TO.P,R7,2*%
%TO.N,GND*%
X63810000Y-89750000D03*
%TD*%
%TO.P,R5,1*%
%TO.N,Net-(J2-PadT)*%
X56190000Y-97500000D03*
%TO.P,R5,2*%
%TO.N,Net-(R1-Pad1)*%
X63810000Y-97500000D03*
%TD*%
D15*
%TO.P,J3,G*%
%TO.N,GND*%
X81480000Y-62500000D03*
D16*
%TO.P,J3,S*%
%TO.N,unconnected-(J3-PadS)*%
X78380000Y-62500000D03*
%TO.P,J3,T*%
%TO.N,Net-(J3-PadT)*%
X70080000Y-62500000D03*
%TD*%
D17*
%TO.P,J6,1,Pin_1*%
%TO.N,GND*%
X68750000Y-143000000D03*
D18*
%TO.P,J6,2,Pin_2*%
%TO.N,VDD*%
X70750000Y-143000000D03*
%TO.P,J6,3,Pin_3*%
%TO.N,VSS*%
X72750000Y-143000000D03*
%TD*%
D14*
%TO.P,R21,1*%
%TO.N,Net-(C3-Pad2)*%
X86190000Y-107500000D03*
%TO.P,R21,2*%
%TO.N,GND*%
X93810000Y-107500000D03*
%TD*%
%TO.P,C3,1*%
%TO.N,Net-(C3-Pad1)*%
X82750000Y-112500000D03*
%TO.P,C3,2*%
%TO.N,Net-(C3-Pad2)*%
X82750000Y-110000000D03*
%TD*%
%TO.P,R3,1*%
%TO.N,Net-(T1-B)*%
X79874997Y-91892500D03*
%TO.P,R3,2*%
%TO.N,Net-(R3-Pad2)*%
X77675292Y-90622500D03*
%TD*%
D15*
%TO.P,J1,G*%
%TO.N,GND*%
X66480000Y-62500000D03*
D16*
%TO.P,J1,S*%
%TO.N,unconnected-(J1-PadS)*%
X63380000Y-62500000D03*
%TO.P,J1,T*%
%TO.N,Net-(J1-PadT)*%
X55080000Y-62500000D03*
%TD*%
D14*
%TO.P,R20,1*%
%TO.N,Net-(C2-Pad2)*%
X86193333Y-89750000D03*
%TO.P,R20,2*%
%TO.N,GND*%
X93813333Y-89750000D03*
%TD*%
%TO.P,R11,1*%
%TO.N,Net-(Q1-E)*%
X56190000Y-122000000D03*
%TO.P,R11,2*%
%TO.N,VSS*%
X63810000Y-122000000D03*
%TD*%
%TO.P,R12,1*%
%TO.N,Net-(R12-Pad1)*%
X86190000Y-125750000D03*
%TO.P,R12,2*%
%TO.N,Net-(R12-Pad2)*%
X93810000Y-125750000D03*
%TD*%
%TO.P,C1,1*%
%TO.N,Net-(D2-K)*%
X62500000Y-85250000D03*
%TO.P,C1,2*%
%TO.N,Net-(D1-A)*%
X65000000Y-85250000D03*
%TD*%
%TO.P,R16,1*%
%TO.N,Net-(D1-K)*%
X86210000Y-93410000D03*
%TO.P,R16,2*%
%TO.N,Net-(R12-Pad2)*%
X93830000Y-93410000D03*
%TD*%
%TO.P,R8,1*%
%TO.N,Net-(J3-PadT)*%
X63710000Y-107750000D03*
%TO.P,R8,2*%
%TO.N,Net-(Q1-B)*%
X56090000Y-107750000D03*
%TD*%
D19*
%TO.P,U1,1*%
%TO.N,Net-(D2-K)*%
X71250000Y-107630000D03*
D20*
%TO.P,U1,2*%
%TO.N,Net-(D1-K)*%
X71250000Y-110170000D03*
%TO.P,U1,3*%
%TO.N,Net-(R17-Pad2)*%
X71250000Y-112710000D03*
%TO.P,U1,4*%
%TO.N,Net-(U1-Pad4)*%
X71250000Y-115250000D03*
%TO.P,U1,5*%
X71250000Y-117790000D03*
%TO.P,U1,6*%
%TO.N,Net-(D2-A)*%
X71250000Y-120330000D03*
%TO.P,U1,7,VSS*%
%TO.N,GND*%
X71250000Y-122870000D03*
%TO.P,U1,8*%
%TO.N,Net-(R18-Pad2)*%
X78870000Y-122870000D03*
%TO.P,U1,9*%
%TO.N,Net-(R12-Pad2)*%
X78870000Y-120330000D03*
%TO.P,U1,10*%
%TO.N,Net-(C4-Pad2)*%
X78870000Y-117790000D03*
%TO.P,U1,11*%
%TO.N,Net-(R18-Pad2)*%
X78870000Y-115250000D03*
%TO.P,U1,12*%
%TO.N,Net-(C3-Pad1)*%
X78870000Y-112710000D03*
%TO.P,U1,13*%
%TO.N,Net-(C4-Pad2)*%
X78870000Y-110170000D03*
%TO.P,U1,14,VDD*%
%TO.N,VDD*%
X78870000Y-107630000D03*
%TD*%
D21*
%TO.P,D1,1,K*%
%TO.N,Net-(D1-K)*%
X71200000Y-135010000D03*
D22*
%TO.P,D1,2,A*%
%TO.N,Net-(D1-A)*%
X71200000Y-127390000D03*
%TD*%
D10*
%TO.P,RV1,*%
%TO.N,*%
X55600000Y-137500000D03*
X64400000Y-137500000D03*
D11*
%TO.P,RV1,1,1*%
%TO.N,GND*%
X62500001Y-144500000D03*
%TO.P,RV1,2,2*%
%TO.N,Net-(R6-Pad1)*%
X60000000Y-144500000D03*
%TO.P,RV1,3,3*%
%TO.N,VSS*%
X57499999Y-144500000D03*
%TD*%
D14*
%TO.P,R19,1*%
%TO.N,Net-(R17-Pad2)*%
X86193333Y-118250000D03*
%TO.P,R19,2*%
%TO.N,Net-(D2-A)*%
X93813333Y-118250000D03*
%TD*%
%TO.P,C4,1*%
%TO.N,GND*%
X82750000Y-120000000D03*
%TO.P,C4,2*%
%TO.N,Net-(C4-Pad2)*%
X82750000Y-117500000D03*
%TD*%
%TO.P,R13,1*%
%TO.N,VDD*%
X93810000Y-121870000D03*
%TO.P,R13,2*%
%TO.N,Net-(R12-Pad2)*%
X86190000Y-121870000D03*
%TD*%
%TO.P,C2,1*%
%TO.N,Net-(D1-K)*%
X83000000Y-85250000D03*
%TO.P,C2,2*%
%TO.N,Net-(C2-Pad2)*%
X85500000Y-85250000D03*
%TD*%
D23*
%TO.P,T2,1,C*%
%TO.N,Net-(D2-K)*%
X77000000Y-97500000D03*
D24*
%TO.P,T2,2,B*%
%TO.N,Net-(T1-E)*%
X77000000Y-99270000D03*
%TO.P,T2,3,E*%
%TO.N,GND*%
X77000000Y-101000000D03*
%TD*%
D15*
%TO.P,J4,G*%
%TO.N,GND*%
X96480000Y-77500000D03*
D16*
%TO.P,J4,S*%
%TO.N,unconnected-(J4-PadS)*%
X93380000Y-77500000D03*
%TO.P,J4,T*%
%TO.N,Net-(C2-Pad2)*%
X85080000Y-77500000D03*
%TD*%
D23*
%TO.P,T1,1,C*%
%TO.N,VSS*%
X73000000Y-101020000D03*
D24*
%TO.P,T1,2,B*%
%TO.N,Net-(T1-B)*%
X73000000Y-99250000D03*
%TO.P,T1,3,E*%
%TO.N,Net-(T1-E)*%
X73000000Y-97520000D03*
%TD*%
D21*
%TO.P,D2,1,K*%
%TO.N,Net-(D2-K)*%
X78750000Y-135060000D03*
D22*
%TO.P,D2,2,A*%
%TO.N,Net-(D2-A)*%
X78750000Y-127440000D03*
%TD*%
D14*
%TO.P,RV2,1,1*%
%TO.N,Net-(T1-B)*%
X77530000Y-77505000D03*
%TO.P,RV2,2,2*%
%TO.N,Net-(R7-Pad1)*%
X74990000Y-74965000D03*
%TO.P,RV2,3,3*%
X72450000Y-77505000D03*
%TD*%
%TO.P,R14,1*%
%TO.N,Net-(Q1-E)*%
X86190000Y-100750000D03*
%TO.P,R14,2*%
%TO.N,Net-(R12-Pad2)*%
X93810000Y-100750000D03*
%TD*%
%TO.P,R4,1*%
%TO.N,Net-(J1-PadT)*%
X56190000Y-93750000D03*
%TO.P,R4,2*%
%TO.N,Net-(R3-Pad2)*%
X63810000Y-93750000D03*
%TD*%
%TO.P,R18,1*%
%TO.N,Net-(R12-Pad2)*%
X93813333Y-114500000D03*
%TO.P,R18,2*%
%TO.N,Net-(R18-Pad2)*%
X86193333Y-114500000D03*
%TD*%
%TO.P,R9,1*%
%TO.N,Net-(Q1-B)*%
X63800000Y-118540000D03*
%TO.P,R9,2*%
%TO.N,GND*%
X56180000Y-118540000D03*
%TD*%
%TO.P,R17,1*%
%TO.N,Net-(D1-K)*%
X63810000Y-125750000D03*
%TO.P,R17,2*%
%TO.N,Net-(R17-Pad2)*%
X56190000Y-125750000D03*
%TD*%
%TO.P,R2,1*%
%TO.N,Net-(T1-B)*%
X69985004Y-91842500D03*
%TO.P,R2,2*%
%TO.N,Net-(R2-Pad2)*%
X72184709Y-90572500D03*
%TD*%
%TO.P,R6,1*%
%TO.N,Net-(R6-Pad1)*%
X56190000Y-101250000D03*
%TO.P,R6,2*%
%TO.N,Net-(R2-Pad2)*%
X63810000Y-101250000D03*
%TD*%
%TO.P,R10,1*%
%TO.N,VDD*%
X56150000Y-114550000D03*
%TO.P,R10,2*%
%TO.N,Net-(T1-E)*%
X63770000Y-114550000D03*
%TD*%
D15*
%TO.P,J2,G*%
%TO.N,GND*%
X66530000Y-77500000D03*
D16*
%TO.P,J2,S*%
%TO.N,unconnected-(J2-PadS)*%
X63430000Y-77500000D03*
%TO.P,J2,T*%
%TO.N,Net-(J2-PadT)*%
X55130000Y-77500000D03*
%TD*%
D14*
%TO.P,R1,1*%
%TO.N,Net-(R1-Pad1)*%
X75000000Y-86955000D03*
%TO.P,R1,2*%
%TO.N,Net-(T1-B)*%
X75000000Y-89495000D03*
%TD*%
D15*
%TO.P,J5,G*%
%TO.N,GND*%
X96480000Y-62500000D03*
D16*
%TO.P,J5,S*%
%TO.N,unconnected-(J5-PadS)*%
X93380000Y-62500000D03*
%TO.P,J5,T*%
%TO.N,Net-(C3-Pad2)*%
X85080000Y-62500000D03*
%TD*%
D14*
%TO.P,R15,1*%
%TO.N,Net-(D1-A)*%
X86193333Y-97250000D03*
%TO.P,R15,2*%
%TO.N,Net-(D1-K)*%
X93813333Y-97250000D03*
%TD*%
D17*
%TO.P,J7,1,Pin_1*%
%TO.N,GND*%
X77250000Y-143000000D03*
D18*
%TO.P,J7,2,Pin_2*%
%TO.N,VDD*%
X79250000Y-143000000D03*
%TO.P,J7,3,Pin_3*%
%TO.N,VSS*%
X81250000Y-143000000D03*
%TD*%
D25*
%TO.N,Net-(R1-Pad1)*%
X66000000Y-87200000D03*
%TO.N,Net-(D1-A)*%
X76000000Y-125500000D03*
%TO.N,Net-(D2-K)*%
X64000000Y-96000000D03*
%TO.N,Net-(D1-K)*%
X67750000Y-115000000D03*
%TO.N,Net-(C3-Pad2)*%
X95000000Y-103500000D03*
%TO.N,GND*%
X70000000Y-94900000D03*
X67000000Y-94900000D03*
%TO.N,VDD*%
X74750000Y-114250000D03*
X82500000Y-100750000D03*
X80750000Y-99000000D03*
X74750000Y-117250000D03*
%TO.N,Net-(Q1-B)*%
X75000000Y-104000000D03*
%TO.N,Net-(Q1-E)*%
X82000000Y-93360000D03*
X74250000Y-121431000D03*
%TO.N,Net-(R2-Pad2)*%
X69000000Y-99400000D03*
%TO.N,Net-(T1-B)*%
X69985004Y-97585004D03*
%TO.N,Net-(R17-Pad2)*%
X66750000Y-119000000D03*
%TD*%
D26*
%TO.N,Net-(T1-B)*%
X68901000Y-92926504D02*
X69985004Y-91842500D01*
X68901000Y-96501000D02*
X68901000Y-92926504D01*
X69985004Y-97585004D02*
X68901000Y-96501000D01*
%TO.N,Net-(R1-Pad1)*%
X65500000Y-87700000D02*
X65500000Y-95810000D01*
X66000000Y-87200000D02*
X65500000Y-87700000D01*
X65500000Y-95810000D02*
X63810000Y-97500000D01*
%TO.N,Net-(J3-PadT)*%
X68099000Y-89151000D02*
X68099000Y-101133900D01*
X70080000Y-87170000D02*
X68099000Y-89151000D01*
X70080000Y-62500000D02*
X70080000Y-87170000D01*
X63710000Y-105522900D02*
X63710000Y-105800000D01*
X63710000Y-107750000D02*
X63710000Y-105800000D01*
X68099000Y-101133900D02*
X63710000Y-105522900D01*
%TO.N,Net-(R2-Pad2)*%
X68500000Y-98900000D02*
X68500000Y-98800000D01*
X69000000Y-99400000D02*
X68500000Y-98900000D01*
X68500000Y-91500000D02*
X68500000Y-98800000D01*
X69427500Y-90572500D02*
X68500000Y-91500000D01*
X72184709Y-90572500D02*
X69427500Y-90572500D01*
%TO.N,Net-(D1-A)*%
X87294333Y-119205667D02*
X81250000Y-125250000D01*
X76250000Y-125250000D02*
X76000000Y-125500000D01*
X81250000Y-125250000D02*
X76250000Y-125250000D01*
X87294333Y-98351000D02*
X87294333Y-119205667D01*
X86193333Y-97250000D02*
X87294333Y-98351000D01*
%TO.N,Net-(D2-K)*%
X65099000Y-87849000D02*
X62500000Y-85250000D01*
X65099000Y-94901000D02*
X65099000Y-87849000D01*
X71250000Y-107630000D02*
X73649000Y-110029000D01*
X73649000Y-129959000D02*
X78750000Y-135060000D01*
X64000000Y-96000000D02*
X65099000Y-94901000D01*
X73649000Y-110029000D02*
X73649000Y-129959000D01*
%TO.N,Net-(D1-K)*%
X86210000Y-93410000D02*
X86410000Y-93410000D01*
X67750000Y-121810000D02*
X63810000Y-125750000D01*
X83000000Y-85250000D02*
X83000000Y-90200000D01*
X63810000Y-125750000D02*
X63810000Y-127620000D01*
X86410000Y-93410000D02*
X90250000Y-97250000D01*
X63810000Y-127620000D02*
X71200000Y-135010000D01*
X83000000Y-90200000D02*
X86210000Y-93410000D01*
X90250000Y-97250000D02*
X93813333Y-97250000D01*
X67750000Y-115000000D02*
X67750000Y-121810000D01*
%TO.N,Net-(C2-Pad2)*%
X85500000Y-77920000D02*
X85080000Y-77500000D01*
X85500000Y-85250000D02*
X85500000Y-77920000D01*
X86193333Y-85943333D02*
X85500000Y-85250000D01*
X86193333Y-89750000D02*
X86193333Y-85943333D01*
%TO.N,Net-(C3-Pad2)*%
X97781000Y-75201000D02*
X85080000Y-62500000D01*
X95000000Y-103500000D02*
X97781000Y-100719000D01*
X97781000Y-100719000D02*
X97781000Y-75201000D01*
%TO.N,Net-(D2-A)*%
X84279000Y-122971000D02*
X79810000Y-127440000D01*
X79810000Y-127440000D02*
X78750000Y-127440000D01*
X93813333Y-118250000D02*
X89092333Y-122971000D01*
X89092333Y-122971000D02*
X84279000Y-122971000D01*
%TO.N,Net-(J1-PadT)*%
X57291000Y-64711000D02*
X55080000Y-62500000D01*
X56190000Y-93750000D02*
X57291000Y-92649000D01*
X57291000Y-92649000D02*
X57291000Y-64711000D01*
%TO.N,Net-(J2-PadT)*%
X55130000Y-77500000D02*
X54030001Y-78599999D01*
X54030001Y-95340001D02*
X56190000Y-97500000D01*
X54030001Y-78599999D02*
X54030001Y-95340001D01*
D27*
%TO.N,VDD*%
X74750000Y-114250000D02*
X74750000Y-117250000D01*
X82500000Y-100750000D02*
X80750000Y-99000000D01*
D26*
%TO.N,Net-(Q1-B)*%
X56090000Y-110830000D02*
X63800000Y-118540000D01*
X56090000Y-107750000D02*
X56090000Y-110830000D01*
X75000000Y-93360000D02*
X75000000Y-104000000D01*
%TO.N,Net-(Q1-E)*%
X82000000Y-93360000D02*
X83110000Y-93360000D01*
X84250000Y-98810000D02*
X86190000Y-100750000D01*
X83110000Y-93360000D02*
X84250000Y-94500000D01*
X84540000Y-102400000D02*
X86190000Y-100750000D01*
X74250000Y-121431000D02*
X75600000Y-120081000D01*
X75600000Y-120081000D02*
X75600000Y-107600000D01*
X75600000Y-107600000D02*
X80800000Y-102400000D01*
X80800000Y-102400000D02*
X84540000Y-102400000D01*
X84250000Y-94500000D02*
X84250000Y-98810000D01*
%TO.N,Net-(R6-Pad1)*%
X56190000Y-101250000D02*
X53299000Y-104141000D01*
X58499000Y-142999000D02*
X60000000Y-144500000D01*
X53299000Y-104141000D02*
X53299000Y-138453106D01*
X57844894Y-142999000D02*
X58499000Y-142999000D01*
X53299000Y-138453106D02*
X57844894Y-142999000D01*
%TO.N,Net-(T1-B)*%
X77530000Y-86965000D02*
X77530000Y-77505000D01*
X75000000Y-89495000D02*
X77530000Y-86965000D01*
%TO.N,Net-(T1-E)*%
X66500000Y-111820000D02*
X63770000Y-114550000D01*
X72280000Y-97520000D02*
X66500000Y-103300000D01*
D27*
X73000000Y-97520000D02*
X73137404Y-97520000D01*
D26*
X66500000Y-103300000D02*
X66500000Y-111820000D01*
X73000000Y-97520000D02*
X72280000Y-97520000D01*
D27*
%TO.N,VSS*%
X65600000Y-120210000D02*
X65600000Y-113499232D01*
X69559232Y-101020000D02*
X73000000Y-101020000D01*
D26*
X73000000Y-101020000D02*
X72980000Y-101020000D01*
D27*
X65600000Y-113499232D02*
X67051000Y-112048232D01*
X67051000Y-103528232D02*
X69559232Y-101020000D01*
X67051000Y-112048232D02*
X67051000Y-103528232D01*
X63810000Y-122000000D02*
X65600000Y-120210000D01*
D26*
%TO.N,Net-(R12-Pad1)*%
X90000000Y-129560000D02*
X90000000Y-144500000D01*
X86190000Y-125750000D02*
X90000000Y-129560000D01*
%TO.N,Net-(R12-Pad2)*%
X94914333Y-94494333D02*
X94914333Y-99645667D01*
X94911000Y-113402333D02*
X93813333Y-114500000D01*
X93810000Y-100750000D02*
X93810000Y-105942950D01*
X93830000Y-93410000D02*
X94914333Y-94494333D01*
X93810000Y-105942950D02*
X94911000Y-107043950D01*
X94914333Y-99645667D02*
X93810000Y-100750000D01*
X94911000Y-107043950D02*
X94911000Y-113402333D01*
%TO.N,Net-(R17-Pad2)*%
X66750000Y-119000000D02*
X66750000Y-122242900D01*
X56250000Y-125750000D02*
X56190000Y-125750000D01*
X65192900Y-123800000D02*
X58200000Y-123800000D01*
X66750000Y-122242900D02*
X65192900Y-123800000D01*
X58200000Y-123800000D02*
X56250000Y-125750000D01*
%TO.N,Net-(R18-Pad2)*%
X78870000Y-115250000D02*
X77369000Y-116751000D01*
X77369000Y-116751000D02*
X77369000Y-121369000D01*
X77369000Y-121369000D02*
X78870000Y-122870000D01*
%TO.N,Net-(U1-Pad4)*%
X71250000Y-115250000D02*
X71250000Y-117790000D01*
%TO.N,Net-(C4-Pad2)*%
X78870000Y-117790000D02*
X80371000Y-116289000D01*
X80371000Y-116289000D02*
X80371000Y-111671000D01*
X80371000Y-111671000D02*
X78870000Y-110170000D01*
%TD*%
%TA.AperFunction,Conductor*%
%TO.N,GND*%
G36*
X71440272Y-91652646D02*
G01*
X71451174Y-91653270D01*
X71482389Y-91669741D01*
X71485949Y-91672327D01*
X71503099Y-91684787D01*
X71611751Y-91740148D01*
X71685485Y-91777718D01*
X71685487Y-91777718D01*
X71685490Y-91777720D01*
X71789846Y-91811627D01*
X71880174Y-91840977D01*
X71981266Y-91856988D01*
X72082357Y-91873000D01*
X72082358Y-91873000D01*
X72084071Y-91873000D01*
X72084699Y-91873184D01*
X72087220Y-91873383D01*
X72087178Y-91873912D01*
X72151110Y-91892685D01*
X72196865Y-91945489D01*
X72206809Y-92014647D01*
X72183338Y-92071309D01*
X72164300Y-92096741D01*
X72111203Y-92167669D01*
X72111202Y-92167671D01*
X72060908Y-92302517D01*
X72054501Y-92362116D01*
X72054500Y-92362135D01*
X72054500Y-94357870D01*
X72054501Y-94357876D01*
X72060908Y-94417483D01*
X72111202Y-94552328D01*
X72111206Y-94552335D01*
X72197452Y-94667544D01*
X72197455Y-94667547D01*
X72312664Y-94753793D01*
X72312671Y-94753797D01*
X72447517Y-94804091D01*
X72447516Y-94804091D01*
X72454444Y-94804835D01*
X72507127Y-94810500D01*
X73952872Y-94810499D01*
X74012483Y-94804091D01*
X74147331Y-94753796D01*
X74201189Y-94713477D01*
X74266652Y-94689060D01*
X74334925Y-94703911D01*
X74384331Y-94753316D01*
X74399500Y-94812744D01*
X74399500Y-96686229D01*
X74379815Y-96753268D01*
X74327011Y-96799023D01*
X74257853Y-96808967D01*
X74194297Y-96779942D01*
X74175183Y-96759116D01*
X74171621Y-96754213D01*
X74040789Y-96623381D01*
X74040787Y-96623379D01*
X73891096Y-96514622D01*
X73872084Y-96504935D01*
X73726235Y-96430620D01*
X73726232Y-96430619D01*
X73550265Y-96373445D01*
X73389580Y-96347995D01*
X73367514Y-96344500D01*
X72632486Y-96344500D01*
X72610420Y-96347995D01*
X72449734Y-96373445D01*
X72273767Y-96430619D01*
X72273764Y-96430620D01*
X72108903Y-96514622D01*
X72029937Y-96571995D01*
X71959213Y-96623379D01*
X71959211Y-96623381D01*
X71959210Y-96623381D01*
X71828381Y-96754210D01*
X71828381Y-96754211D01*
X71828379Y-96754213D01*
X71795823Y-96799023D01*
X71719622Y-96903903D01*
X71635620Y-97068764D01*
X71635619Y-97068767D01*
X71578445Y-97244731D01*
X71578445Y-97244733D01*
X71560736Y-97356537D01*
X71530806Y-97419672D01*
X71525944Y-97424819D01*
X70928595Y-98022168D01*
X70867272Y-98055653D01*
X70797580Y-98050669D01*
X70741647Y-98008797D01*
X70717230Y-97943333D01*
X70726352Y-97887037D01*
X70754741Y-97818501D01*
X70785504Y-97663846D01*
X70785504Y-97506162D01*
X70785504Y-97506159D01*
X70785503Y-97506157D01*
X70763657Y-97396330D01*
X70754741Y-97351507D01*
X70754739Y-97351502D01*
X70694401Y-97205831D01*
X70694394Y-97205818D01*
X70606793Y-97074715D01*
X70606790Y-97074711D01*
X70495296Y-96963217D01*
X70495292Y-96963214D01*
X70364189Y-96875613D01*
X70364176Y-96875606D01*
X70218505Y-96815268D01*
X70218495Y-96815265D01*
X70063153Y-96784365D01*
X70001242Y-96751980D01*
X69999664Y-96750429D01*
X69537819Y-96288584D01*
X69504334Y-96227261D01*
X69501500Y-96200903D01*
X69501500Y-93226601D01*
X69510144Y-93197160D01*
X69516668Y-93167174D01*
X69520422Y-93162158D01*
X69521185Y-93159562D01*
X69537819Y-93138920D01*
X69540162Y-93136577D01*
X69601485Y-93103092D01*
X69666161Y-93106327D01*
X69680470Y-93110977D01*
X69882652Y-93143000D01*
X69882653Y-93143000D01*
X70087355Y-93143000D01*
X70087356Y-93143000D01*
X70289538Y-93110977D01*
X70484223Y-93047720D01*
X70666614Y-92954787D01*
X70759594Y-92887232D01*
X70832217Y-92834471D01*
X70832219Y-92834468D01*
X70832223Y-92834466D01*
X70976970Y-92689719D01*
X70976972Y-92689715D01*
X70976975Y-92689713D01*
X71029736Y-92617090D01*
X71097291Y-92524110D01*
X71190224Y-92341719D01*
X71253481Y-92147034D01*
X71285504Y-91944852D01*
X71285504Y-91770059D01*
X71289051Y-91757978D01*
X71287974Y-91745434D01*
X71298708Y-91725089D01*
X71305189Y-91703020D01*
X71314704Y-91694775D01*
X71320580Y-91683639D01*
X71340610Y-91672327D01*
X71357993Y-91657265D01*
X71370454Y-91655473D01*
X71381418Y-91649282D01*
X71404382Y-91650594D01*
X71427151Y-91647321D01*
X71440272Y-91652646D01*
G37*
%TD.AperFunction*%
%TA.AperFunction,Conductor*%
G36*
X97003736Y-50500726D02*
G01*
X97293796Y-50518271D01*
X97308659Y-50520076D01*
X97590798Y-50571780D01*
X97605335Y-50575363D01*
X97879172Y-50660695D01*
X97893163Y-50666000D01*
X98154743Y-50783727D01*
X98167989Y-50790680D01*
X98413465Y-50939075D01*
X98425776Y-50947573D01*
X98651573Y-51124473D01*
X98662781Y-51134403D01*
X98865596Y-51337218D01*
X98875526Y-51348426D01*
X98995481Y-51501538D01*
X99052422Y-51574217D01*
X99060928Y-51586540D01*
X99209316Y-51832004D01*
X99216275Y-51845263D01*
X99333997Y-52106831D01*
X99339306Y-52120832D01*
X99424635Y-52394663D01*
X99428219Y-52409201D01*
X99479923Y-52691340D01*
X99481728Y-52706205D01*
X99499274Y-52996263D01*
X99499500Y-53003750D01*
X99499500Y-146996249D01*
X99499274Y-147003736D01*
X99481728Y-147293794D01*
X99479923Y-147308659D01*
X99428219Y-147590798D01*
X99424635Y-147605336D01*
X99339306Y-147879167D01*
X99333997Y-147893168D01*
X99216275Y-148154736D01*
X99209316Y-148167995D01*
X99060928Y-148413459D01*
X99052422Y-148425782D01*
X98875526Y-148651573D01*
X98865596Y-148662781D01*
X98662781Y-148865596D01*
X98651573Y-148875526D01*
X98425782Y-149052422D01*
X98413459Y-149060928D01*
X98167995Y-149209316D01*
X98154736Y-149216275D01*
X97893168Y-149333997D01*
X97879167Y-149339306D01*
X97605336Y-149424635D01*
X97590798Y-149428219D01*
X97308659Y-149479923D01*
X97293794Y-149481728D01*
X97014454Y-149498624D01*
X97003735Y-149499273D01*
X96996250Y-149499499D01*
X53003734Y-149499499D01*
X52996247Y-149499273D01*
X52706205Y-149481728D01*
X52691340Y-149479923D01*
X52409201Y-149428219D01*
X52394663Y-149424635D01*
X52120832Y-149339306D01*
X52106831Y-149333997D01*
X51845263Y-149216275D01*
X51832004Y-149209316D01*
X51586540Y-149060928D01*
X51574217Y-149052422D01*
X51348426Y-148875526D01*
X51337218Y-148865596D01*
X51134403Y-148662781D01*
X51124473Y-148651573D01*
X50947573Y-148425776D01*
X50939075Y-148413465D01*
X50790680Y-148167989D01*
X50783727Y-148154743D01*
X50666000Y-147893163D01*
X50660693Y-147879167D01*
X50575364Y-147605336D01*
X50571780Y-147590798D01*
X50520076Y-147308659D01*
X50518271Y-147293794D01*
X50500726Y-147003736D01*
X50500500Y-146996249D01*
X50500500Y-138532160D01*
X52698498Y-138532160D01*
X52739424Y-138684893D01*
X52751159Y-138705218D01*
X52751160Y-138705220D01*
X52818477Y-138821818D01*
X52818481Y-138821823D01*
X52937349Y-138940691D01*
X52937355Y-138940696D01*
X56811863Y-142815204D01*
X56845348Y-142876527D01*
X56840364Y-142946219D01*
X56798492Y-143002152D01*
X56797067Y-143003203D01*
X56652786Y-143108028D01*
X56652781Y-143108032D01*
X56508027Y-143252786D01*
X56387714Y-143418386D01*
X56294780Y-143600776D01*
X56231521Y-143795465D01*
X56199499Y-143997648D01*
X56199499Y-145002351D01*
X56231521Y-145204534D01*
X56294780Y-145399223D01*
X56387714Y-145581613D01*
X56508027Y-145747213D01*
X56652785Y-145891971D01*
X56807748Y-146004556D01*
X56818389Y-146012287D01*
X56934606Y-146071503D01*
X57000775Y-146105218D01*
X57000777Y-146105218D01*
X57000780Y-146105220D01*
X57105136Y-146139127D01*
X57195464Y-146168477D01*
X57296556Y-146184488D01*
X57397647Y-146200500D01*
X57397648Y-146200500D01*
X57602350Y-146200500D01*
X57602351Y-146200500D01*
X57804533Y-146168477D01*
X57999218Y-146105220D01*
X58181609Y-146012287D01*
X58274589Y-145944732D01*
X58347212Y-145891971D01*
X58347214Y-145891968D01*
X58347218Y-145891966D01*
X58491965Y-145747219D01*
X58491967Y-145747215D01*
X58491970Y-145747213D01*
X58612285Y-145581611D01*
X58612419Y-145581349D01*
X58639514Y-145528171D01*
X58687488Y-145477376D01*
X58755309Y-145460580D01*
X58821444Y-145483117D01*
X58860483Y-145528170D01*
X58887713Y-145581611D01*
X59008028Y-145747213D01*
X59152786Y-145891971D01*
X59307749Y-146004556D01*
X59318390Y-146012287D01*
X59434607Y-146071503D01*
X59500776Y-146105218D01*
X59500778Y-146105218D01*
X59500781Y-146105220D01*
X59605137Y-146139127D01*
X59695465Y-146168477D01*
X59796557Y-146184488D01*
X59897648Y-146200500D01*
X59897649Y-146200500D01*
X60102351Y-146200500D01*
X60102352Y-146200500D01*
X60304534Y-146168477D01*
X60499219Y-146105220D01*
X60681610Y-146012287D01*
X60774590Y-145944732D01*
X60847213Y-145891971D01*
X60847215Y-145891968D01*
X60847219Y-145891966D01*
X60991966Y-145747219D01*
X60991968Y-145747215D01*
X60991971Y-145747213D01*
X61112286Y-145581611D01*
X61112420Y-145581349D01*
X61139795Y-145527621D01*
X61187769Y-145476826D01*
X61255589Y-145460030D01*
X61321725Y-145482567D01*
X61360765Y-145527621D01*
X61388141Y-145581349D01*
X61508418Y-145746894D01*
X61508418Y-145746895D01*
X61653105Y-145891582D01*
X61818651Y-146011859D01*
X62000969Y-146104754D01*
X62195579Y-146167988D01*
X62250001Y-146176607D01*
X62250001Y-144933012D01*
X62307008Y-144965925D01*
X62434175Y-145000000D01*
X62565827Y-145000000D01*
X62692994Y-144965925D01*
X62750001Y-144933012D01*
X62750001Y-146176606D01*
X62804422Y-146167988D01*
X62999032Y-146104754D01*
X63181350Y-146011859D01*
X63346895Y-145891582D01*
X63346896Y-145891582D01*
X63491583Y-145746895D01*
X63491583Y-145746894D01*
X63611860Y-145581349D01*
X63704756Y-145399031D01*
X63767991Y-145204417D01*
X63800001Y-145002317D01*
X63800001Y-144750000D01*
X62933013Y-144750000D01*
X62965926Y-144692993D01*
X63000001Y-144565826D01*
X63000001Y-144434174D01*
X62965926Y-144307007D01*
X62933013Y-144250000D01*
X63800001Y-144250000D01*
X63800001Y-143997682D01*
X63767991Y-143795582D01*
X63704756Y-143600968D01*
X63611860Y-143418650D01*
X63504966Y-143271524D01*
X63504965Y-143271522D01*
X63491588Y-143253110D01*
X63491583Y-143253104D01*
X63346896Y-143108417D01*
X63181350Y-142988140D01*
X62999030Y-142895244D01*
X62804414Y-142832009D01*
X62750001Y-142823390D01*
X62750001Y-144066988D01*
X62692994Y-144034075D01*
X62565827Y-144000000D01*
X62434175Y-144000000D01*
X62307008Y-144034075D01*
X62250001Y-144066988D01*
X62250001Y-142823390D01*
X62195587Y-142832009D01*
X62000971Y-142895244D01*
X61818651Y-142988140D01*
X61653106Y-143108417D01*
X61653105Y-143108417D01*
X61508418Y-143253104D01*
X61508418Y-143253105D01*
X61388139Y-143418653D01*
X61360764Y-143472379D01*
X61312789Y-143523175D01*
X61244968Y-143539969D01*
X61178833Y-143517431D01*
X61139795Y-143472378D01*
X61112284Y-143418385D01*
X60991971Y-143252786D01*
X60847213Y-143108028D01*
X60681613Y-142987715D01*
X60681612Y-142987714D01*
X60681610Y-142987713D01*
X60624653Y-142958691D01*
X60499223Y-142894781D01*
X60304534Y-142831522D01*
X60129995Y-142803878D01*
X60102352Y-142799500D01*
X59897648Y-142799500D01*
X59830254Y-142810174D01*
X59695464Y-142831523D01*
X59695461Y-142831523D01*
X59500781Y-142894779D01*
X59500780Y-142894779D01*
X59410954Y-142940548D01*
X59342285Y-142953444D01*
X59277545Y-142927167D01*
X59266986Y-142917750D01*
X58986589Y-142637354D01*
X58986588Y-142637352D01*
X58867717Y-142518481D01*
X58867716Y-142518480D01*
X58780904Y-142468360D01*
X58780904Y-142468359D01*
X58780900Y-142468358D01*
X58730785Y-142439423D01*
X58578057Y-142398499D01*
X58419943Y-142398499D01*
X58412347Y-142398499D01*
X58412331Y-142398500D01*
X58144991Y-142398500D01*
X58115550Y-142389855D01*
X58085564Y-142383332D01*
X58080548Y-142379577D01*
X58077952Y-142378815D01*
X58057310Y-142362181D01*
X57942331Y-142247202D01*
X67550000Y-142247202D01*
X67550000Y-142750000D01*
X68469670Y-142750000D01*
X68449925Y-142769745D01*
X68400556Y-142855255D01*
X68375000Y-142950630D01*
X68375000Y-143049370D01*
X68400556Y-143144745D01*
X68449925Y-143230255D01*
X68469670Y-143250000D01*
X67550001Y-143250000D01*
X67550001Y-143752798D01*
X67564963Y-143885602D01*
X67564965Y-143885612D01*
X67623887Y-144053999D01*
X67718797Y-144205050D01*
X67844949Y-144331202D01*
X67996001Y-144426112D01*
X67996000Y-144426112D01*
X68164387Y-144485034D01*
X68164397Y-144485036D01*
X68297204Y-144499999D01*
X68499999Y-144499999D01*
X68500000Y-144499998D01*
X68500000Y-143280330D01*
X68519745Y-143300075D01*
X68605255Y-143349444D01*
X68700630Y-143375000D01*
X68799370Y-143375000D01*
X68894745Y-143349444D01*
X68980255Y-143300075D01*
X69000000Y-143280330D01*
X69000000Y-144499999D01*
X69202791Y-144499999D01*
X69202798Y-144499998D01*
X69335602Y-144485036D01*
X69335612Y-144485034D01*
X69503999Y-144426112D01*
X69655050Y-144331202D01*
X69655053Y-144331199D01*
X69781564Y-144204689D01*
X69842887Y-144171204D01*
X69912579Y-144176188D01*
X69956926Y-144204689D01*
X69967927Y-144215690D01*
X70120801Y-144326760D01*
X70200347Y-144367290D01*
X70289163Y-144412545D01*
X70289165Y-144412545D01*
X70289168Y-144412547D01*
X70330917Y-144426112D01*
X70468881Y-144470940D01*
X70655514Y-144500500D01*
X70655519Y-144500500D01*
X70844486Y-144500500D01*
X71031118Y-144470940D01*
X71210832Y-144412547D01*
X71379199Y-144326760D01*
X71532073Y-144215690D01*
X71662319Y-144085444D01*
X71723642Y-144051959D01*
X71793334Y-144056943D01*
X71837681Y-144085444D01*
X71967927Y-144215690D01*
X72120801Y-144326760D01*
X72200347Y-144367290D01*
X72289163Y-144412545D01*
X72289165Y-144412545D01*
X72289168Y-144412547D01*
X72330917Y-144426112D01*
X72468881Y-144470940D01*
X72655514Y-144500500D01*
X72655519Y-144500500D01*
X72844486Y-144500500D01*
X73031118Y-144470940D01*
X73210832Y-144412547D01*
X73379199Y-144326760D01*
X73532073Y-144215690D01*
X73665690Y-144082073D01*
X73776760Y-143929199D01*
X73862547Y-143760832D01*
X73920940Y-143581118D01*
X73927457Y-143539969D01*
X73950500Y-143394486D01*
X73950500Y-142605513D01*
X73920940Y-142418881D01*
X73876480Y-142282049D01*
X73876479Y-142282046D01*
X73865158Y-142247202D01*
X76050000Y-142247202D01*
X76050000Y-142750000D01*
X76969670Y-142750000D01*
X76949925Y-142769745D01*
X76900556Y-142855255D01*
X76875000Y-142950630D01*
X76875000Y-143049370D01*
X76900556Y-143144745D01*
X76949925Y-143230255D01*
X76969670Y-143250000D01*
X76050001Y-143250000D01*
X76050001Y-143752798D01*
X76064963Y-143885602D01*
X76064965Y-143885612D01*
X76123887Y-144053999D01*
X76218797Y-144205050D01*
X76344949Y-144331202D01*
X76496001Y-144426112D01*
X76496000Y-144426112D01*
X76664387Y-144485034D01*
X76664397Y-144485036D01*
X76797204Y-144499999D01*
X76999999Y-144499999D01*
X77000000Y-144499998D01*
X77000000Y-143280330D01*
X77019745Y-143300075D01*
X77105255Y-143349444D01*
X77200630Y-143375000D01*
X77299370Y-143375000D01*
X77394745Y-143349444D01*
X77480255Y-143300075D01*
X77500000Y-143280330D01*
X77500000Y-144499999D01*
X77702791Y-144499999D01*
X77702798Y-144499998D01*
X77835602Y-144485036D01*
X77835612Y-144485034D01*
X78003999Y-144426112D01*
X78155050Y-144331202D01*
X78155053Y-144331199D01*
X78281564Y-144204689D01*
X78342887Y-144171204D01*
X78412579Y-144176188D01*
X78456926Y-144204689D01*
X78467927Y-144215690D01*
X78620801Y-144326760D01*
X78700347Y-144367290D01*
X78789163Y-144412545D01*
X78789165Y-144412545D01*
X78789168Y-144412547D01*
X78830917Y-144426112D01*
X78968881Y-144470940D01*
X79155514Y-144500500D01*
X79155519Y-144500500D01*
X79344486Y-144500500D01*
X79531118Y-144470940D01*
X79710832Y-144412547D01*
X79879199Y-144326760D01*
X80032073Y-144215690D01*
X80162319Y-144085444D01*
X80223642Y-144051959D01*
X80293334Y-144056943D01*
X80337681Y-144085444D01*
X80467927Y-144215690D01*
X80620801Y-144326760D01*
X80700347Y-144367290D01*
X80789163Y-144412545D01*
X80789165Y-144412545D01*
X80789168Y-144412547D01*
X80830917Y-144426112D01*
X80968881Y-144470940D01*
X81155514Y-144500500D01*
X81155519Y-144500500D01*
X81344486Y-144500500D01*
X81531118Y-144470940D01*
X81710832Y-144412547D01*
X81879199Y-144326760D01*
X82032073Y-144215690D01*
X82165690Y-144082073D01*
X82276760Y-143929199D01*
X82362547Y-143760832D01*
X82420940Y-143581118D01*
X82427457Y-143539969D01*
X82450500Y-143394486D01*
X82450500Y-142605513D01*
X82420940Y-142418881D01*
X82362545Y-142239163D01*
X82276759Y-142070800D01*
X82165690Y-141917927D01*
X82032073Y-141784310D01*
X81879199Y-141673240D01*
X81870479Y-141668797D01*
X81710836Y-141587454D01*
X81531118Y-141529059D01*
X81344486Y-141499500D01*
X81344481Y-141499500D01*
X81155519Y-141499500D01*
X81155514Y-141499500D01*
X80968881Y-141529059D01*
X80789163Y-141587454D01*
X80620800Y-141673240D01*
X80533579Y-141736610D01*
X80467927Y-141784310D01*
X80467925Y-141784312D01*
X80467924Y-141784312D01*
X80337681Y-141914556D01*
X80276358Y-141948041D01*
X80206666Y-141943057D01*
X80162319Y-141914556D01*
X80032075Y-141784312D01*
X80032073Y-141784310D01*
X79879199Y-141673240D01*
X79870479Y-141668797D01*
X79710836Y-141587454D01*
X79531118Y-141529059D01*
X79344486Y-141499500D01*
X79344481Y-141499500D01*
X79155519Y-141499500D01*
X79155514Y-141499500D01*
X78968881Y-141529059D01*
X78789163Y-141587454D01*
X78620800Y-141673240D01*
X78533579Y-141736610D01*
X78467927Y-141784310D01*
X78467925Y-141784312D01*
X78467922Y-141784314D01*
X78456923Y-141795313D01*
X78395599Y-141828796D01*
X78325907Y-141823809D01*
X78281564Y-141795311D01*
X78155049Y-141668797D01*
X78155050Y-141668797D01*
X78003998Y-141573887D01*
X78003999Y-141573887D01*
X77835612Y-141514965D01*
X77835602Y-141514963D01*
X77702797Y-141500000D01*
X77500000Y-141500000D01*
X77500000Y-142719670D01*
X77480255Y-142699925D01*
X77394745Y-142650556D01*
X77299370Y-142625000D01*
X77200630Y-142625000D01*
X77105255Y-142650556D01*
X77019745Y-142699925D01*
X77000000Y-142719670D01*
X77000000Y-141500000D01*
X76797207Y-141500000D01*
X76797201Y-141500001D01*
X76664397Y-141514963D01*
X76664387Y-141514965D01*
X76496000Y-141573887D01*
X76344949Y-141668797D01*
X76218797Y-141794949D01*
X76123887Y-141946000D01*
X76064965Y-142114387D01*
X76064963Y-142114397D01*
X76050000Y-142247202D01*
X73865158Y-142247202D01*
X73862547Y-142239167D01*
X73776759Y-142070800D01*
X73665690Y-141917927D01*
X73532073Y-141784310D01*
X73379199Y-141673240D01*
X73370479Y-141668797D01*
X73210836Y-141587454D01*
X73031118Y-141529059D01*
X72844486Y-141499500D01*
X72844481Y-141499500D01*
X72655519Y-141499500D01*
X72655514Y-141499500D01*
X72468881Y-141529059D01*
X72289163Y-141587454D01*
X72120800Y-141673240D01*
X72033579Y-141736610D01*
X71967927Y-141784310D01*
X71967925Y-141784312D01*
X71967924Y-141784312D01*
X71837681Y-141914556D01*
X71776358Y-141948041D01*
X71706666Y-141943057D01*
X71662319Y-141914556D01*
X71532075Y-141784312D01*
X71532073Y-141784310D01*
X71379199Y-141673240D01*
X71370479Y-141668797D01*
X71210836Y-141587454D01*
X71031118Y-141529059D01*
X70844486Y-141499500D01*
X70844481Y-141499500D01*
X70655519Y-141499500D01*
X70655514Y-141499500D01*
X70468881Y-141529059D01*
X70289163Y-141587454D01*
X70120800Y-141673240D01*
X70033579Y-141736610D01*
X69967927Y-141784310D01*
X69967925Y-141784312D01*
X69967922Y-141784314D01*
X69956923Y-141795313D01*
X69895599Y-141828796D01*
X69825907Y-141823809D01*
X69781564Y-141795311D01*
X69655049Y-141668797D01*
X69655050Y-141668797D01*
X69503998Y-141573887D01*
X69503999Y-141573887D01*
X69335612Y-141514965D01*
X69335602Y-141514963D01*
X69202797Y-141500000D01*
X69000000Y-141500000D01*
X69000000Y-142719670D01*
X68980255Y-142699925D01*
X68894745Y-142650556D01*
X68799370Y-142625000D01*
X68700630Y-142625000D01*
X68605255Y-142650556D01*
X68519745Y-142699925D01*
X68500000Y-142719670D01*
X68500000Y-141500000D01*
X68297207Y-141500000D01*
X68297201Y-141500001D01*
X68164397Y-141514963D01*
X68164387Y-141514965D01*
X67996000Y-141573887D01*
X67844949Y-141668797D01*
X67718797Y-141794949D01*
X67623887Y-141946000D01*
X67564965Y-142114387D01*
X67564963Y-142114397D01*
X67550000Y-142247202D01*
X57942331Y-142247202D01*
X55882237Y-140187108D01*
X55848752Y-140125785D01*
X55853736Y-140056093D01*
X55895608Y-140000160D01*
X55956035Y-139976207D01*
X56019495Y-139969057D01*
X56019501Y-139969055D01*
X56019509Y-139969055D01*
X56293318Y-139906560D01*
X56558408Y-139813801D01*
X56811445Y-139691945D01*
X57049248Y-139542523D01*
X57268825Y-139367416D01*
X57467416Y-139168825D01*
X57642523Y-138949248D01*
X57791945Y-138711445D01*
X57913801Y-138458408D01*
X58006560Y-138193318D01*
X58069055Y-137919509D01*
X58100500Y-137640425D01*
X58100500Y-137359575D01*
X58100499Y-137359568D01*
X61899500Y-137359568D01*
X61899500Y-137640431D01*
X61930942Y-137919494D01*
X61930945Y-137919512D01*
X61993439Y-138193317D01*
X61993443Y-138193329D01*
X62086200Y-138458411D01*
X62208053Y-138711442D01*
X62208055Y-138711445D01*
X62357477Y-138949248D01*
X62532584Y-139168825D01*
X62731175Y-139367416D01*
X62950752Y-139542523D01*
X63188555Y-139691945D01*
X63441592Y-139813801D01*
X63640680Y-139883465D01*
X63706670Y-139906556D01*
X63706682Y-139906560D01*
X63980491Y-139969055D01*
X63980497Y-139969055D01*
X63980505Y-139969057D01*
X64166547Y-139990018D01*
X64259569Y-140000499D01*
X64259572Y-140000500D01*
X64259575Y-140000500D01*
X64540428Y-140000500D01*
X64540429Y-140000499D01*
X64683055Y-139984429D01*
X64819494Y-139969057D01*
X64819499Y-139969056D01*
X64819509Y-139969055D01*
X65093318Y-139906560D01*
X65358408Y-139813801D01*
X65611445Y-139691945D01*
X65849248Y-139542523D01*
X66068825Y-139367416D01*
X66267416Y-139168825D01*
X66442523Y-138949248D01*
X66591945Y-138711445D01*
X66713801Y-138458408D01*
X66806560Y-138193318D01*
X66869055Y-137919509D01*
X66900500Y-137640425D01*
X66900500Y-137359575D01*
X66900499Y-137359568D01*
X83099500Y-137359568D01*
X83099500Y-137640431D01*
X83130942Y-137919494D01*
X83130945Y-137919512D01*
X83193439Y-138193317D01*
X83193443Y-138193329D01*
X83286200Y-138458411D01*
X83408053Y-138711442D01*
X83408055Y-138711445D01*
X83557477Y-138949248D01*
X83732584Y-139168825D01*
X83931175Y-139367416D01*
X84150752Y-139542523D01*
X84388555Y-139691945D01*
X84641592Y-139813801D01*
X84840680Y-139883465D01*
X84906670Y-139906556D01*
X84906682Y-139906560D01*
X85180491Y-139969055D01*
X85180497Y-139969055D01*
X85180505Y-139969057D01*
X85366547Y-139990018D01*
X85459569Y-140000499D01*
X85459572Y-140000500D01*
X85459575Y-140000500D01*
X85740428Y-140000500D01*
X85740429Y-140000499D01*
X85883055Y-139984429D01*
X86019494Y-139969057D01*
X86019499Y-139969056D01*
X86019509Y-139969055D01*
X86293318Y-139906560D01*
X86558408Y-139813801D01*
X86811445Y-139691945D01*
X87049248Y-139542523D01*
X87268825Y-139367416D01*
X87467416Y-139168825D01*
X87642523Y-138949248D01*
X87791945Y-138711445D01*
X87913801Y-138458408D01*
X88006560Y-138193318D01*
X88069055Y-137919509D01*
X88100500Y-137640425D01*
X88100500Y-137359575D01*
X88069055Y-137080491D01*
X88006560Y-136806682D01*
X87913801Y-136541592D01*
X87791945Y-136288555D01*
X87642523Y-136050752D01*
X87467416Y-135831175D01*
X87268825Y-135632584D01*
X87049248Y-135457477D01*
X86811445Y-135308055D01*
X86811442Y-135308053D01*
X86558411Y-135186200D01*
X86293329Y-135093443D01*
X86293317Y-135093439D01*
X86019512Y-135030945D01*
X86019494Y-135030942D01*
X85740431Y-134999500D01*
X85740425Y-134999500D01*
X85459575Y-134999500D01*
X85459568Y-134999500D01*
X85180505Y-135030942D01*
X85180487Y-135030945D01*
X84906682Y-135093439D01*
X84906670Y-135093443D01*
X84641588Y-135186200D01*
X84388557Y-135308053D01*
X84150753Y-135457476D01*
X83931175Y-135632583D01*
X83732583Y-135831175D01*
X83557476Y-136050753D01*
X83408053Y-136288557D01*
X83286200Y-136541588D01*
X83193443Y-136806670D01*
X83193439Y-136806682D01*
X83130945Y-137080487D01*
X83130942Y-137080505D01*
X83099500Y-137359568D01*
X66900499Y-137359568D01*
X66869055Y-137080491D01*
X66806560Y-136806682D01*
X66713801Y-136541592D01*
X66591945Y-136288555D01*
X66442523Y-136050752D01*
X66267416Y-135831175D01*
X66068825Y-135632584D01*
X65849248Y-135457477D01*
X65611445Y-135308055D01*
X65611442Y-135308053D01*
X65358411Y-135186200D01*
X65093329Y-135093443D01*
X65093317Y-135093439D01*
X64819512Y-135030945D01*
X64819494Y-135030942D01*
X64540431Y-134999500D01*
X64540425Y-134999500D01*
X64259575Y-134999500D01*
X64259568Y-134999500D01*
X63980505Y-135030942D01*
X63980487Y-135030945D01*
X63706682Y-135093439D01*
X63706670Y-135093443D01*
X63441588Y-135186200D01*
X63188557Y-135308053D01*
X62950753Y-135457476D01*
X62731175Y-135632583D01*
X62532583Y-135831175D01*
X62357476Y-136050753D01*
X62208053Y-136288557D01*
X62086200Y-136541588D01*
X61993443Y-136806670D01*
X61993439Y-136806682D01*
X61930945Y-137080487D01*
X61930942Y-137080505D01*
X61899500Y-137359568D01*
X58100499Y-137359568D01*
X58069055Y-137080491D01*
X58006560Y-136806682D01*
X57913801Y-136541592D01*
X57791945Y-136288555D01*
X57642523Y-136050752D01*
X57467416Y-135831175D01*
X57268825Y-135632584D01*
X57049248Y-135457477D01*
X56811445Y-135308055D01*
X56811442Y-135308053D01*
X56558411Y-135186200D01*
X56293329Y-135093443D01*
X56293317Y-135093439D01*
X56019512Y-135030945D01*
X56019494Y-135030942D01*
X55740431Y-134999500D01*
X55740425Y-134999500D01*
X55459575Y-134999500D01*
X55459568Y-134999500D01*
X55180505Y-135030942D01*
X55180487Y-135030945D01*
X54906682Y-135093439D01*
X54906670Y-135093443D01*
X54641588Y-135186200D01*
X54388557Y-135308053D01*
X54150753Y-135457476D01*
X54100813Y-135497302D01*
X54036126Y-135523711D01*
X53967430Y-135510954D01*
X53916537Y-135463084D01*
X53899500Y-135400355D01*
X53899500Y-121897648D01*
X54889500Y-121897648D01*
X54889500Y-122102351D01*
X54921522Y-122304534D01*
X54984781Y-122499223D01*
X55077715Y-122681613D01*
X55198028Y-122847213D01*
X55342786Y-122991971D01*
X55433467Y-123057853D01*
X55508390Y-123112287D01*
X55608275Y-123163181D01*
X55690776Y-123205218D01*
X55690778Y-123205218D01*
X55690781Y-123205220D01*
X55795137Y-123239127D01*
X55885465Y-123268477D01*
X55986557Y-123284488D01*
X56087648Y-123300500D01*
X56087649Y-123300500D01*
X56292351Y-123300500D01*
X56292352Y-123300500D01*
X56494534Y-123268477D01*
X56689219Y-123205220D01*
X56871610Y-123112287D01*
X56964590Y-123044732D01*
X57037213Y-122991971D01*
X57037215Y-122991968D01*
X57037219Y-122991966D01*
X57181966Y-122847219D01*
X57181968Y-122847215D01*
X57181971Y-122847213D01*
X57256958Y-122744000D01*
X57302287Y-122681610D01*
X57395220Y-122499219D01*
X57458477Y-122304534D01*
X57490500Y-122102352D01*
X57490500Y-121897648D01*
X57468404Y-121758140D01*
X57458477Y-121695465D01*
X57395218Y-121500776D01*
X57361503Y-121434607D01*
X57302287Y-121318390D01*
X57265670Y-121267990D01*
X57181971Y-121152786D01*
X57037213Y-121008028D01*
X56871613Y-120887715D01*
X56871612Y-120887714D01*
X56871610Y-120887713D01*
X56782869Y-120842497D01*
X56689223Y-120794781D01*
X56494534Y-120731522D01*
X56319995Y-120703878D01*
X56292352Y-120699500D01*
X56087648Y-120699500D01*
X56063329Y-120703351D01*
X55885465Y-120731522D01*
X55690776Y-120794781D01*
X55508386Y-120887715D01*
X55342786Y-121008028D01*
X55198028Y-121152786D01*
X55077715Y-121318386D01*
X54984781Y-121500776D01*
X54921522Y-121695465D01*
X54889500Y-121897648D01*
X53899500Y-121897648D01*
X53899500Y-118437682D01*
X54880000Y-118437682D01*
X54880000Y-118642317D01*
X54912009Y-118844417D01*
X54975244Y-119039031D01*
X55068141Y-119221350D01*
X55068147Y-119221359D01*
X55100523Y-119265921D01*
X55100524Y-119265922D01*
X55780000Y-118586446D01*
X55780000Y-118592661D01*
X55807259Y-118694394D01*
X55859920Y-118785606D01*
X55934394Y-118860080D01*
X56025606Y-118912741D01*
X56127339Y-118940000D01*
X56133553Y-118940000D01*
X55454076Y-119619474D01*
X55498650Y-119651859D01*
X55680968Y-119744755D01*
X55875582Y-119807990D01*
X56077683Y-119840000D01*
X56282317Y-119840000D01*
X56484417Y-119807990D01*
X56679031Y-119744755D01*
X56861349Y-119651859D01*
X56905921Y-119619474D01*
X56226447Y-118940000D01*
X56232661Y-118940000D01*
X56334394Y-118912741D01*
X56425606Y-118860080D01*
X56500080Y-118785606D01*
X56552741Y-118694394D01*
X56580000Y-118592661D01*
X56580000Y-118586447D01*
X57259474Y-119265921D01*
X57291859Y-119221349D01*
X57384755Y-119039031D01*
X57447990Y-118844417D01*
X57480000Y-118642317D01*
X57480000Y-118437682D01*
X57447990Y-118235582D01*
X57384755Y-118040968D01*
X57291859Y-117858650D01*
X57259474Y-117814077D01*
X57259474Y-117814076D01*
X56580000Y-118493551D01*
X56580000Y-118487339D01*
X56552741Y-118385606D01*
X56500080Y-118294394D01*
X56425606Y-118219920D01*
X56334394Y-118167259D01*
X56232661Y-118140000D01*
X56226446Y-118140000D01*
X56905922Y-117460524D01*
X56905921Y-117460523D01*
X56861359Y-117428147D01*
X56861350Y-117428141D01*
X56679031Y-117335244D01*
X56484417Y-117272009D01*
X56282317Y-117240000D01*
X56077683Y-117240000D01*
X55875582Y-117272009D01*
X55680968Y-117335244D01*
X55498644Y-117428143D01*
X55454077Y-117460523D01*
X55454077Y-117460524D01*
X56133554Y-118140000D01*
X56127339Y-118140000D01*
X56025606Y-118167259D01*
X55934394Y-118219920D01*
X55859920Y-118294394D01*
X55807259Y-118385606D01*
X55780000Y-118487339D01*
X55780000Y-118493553D01*
X55100524Y-117814077D01*
X55100523Y-117814077D01*
X55068143Y-117858644D01*
X54975244Y-118040968D01*
X54912009Y-118235582D01*
X54880000Y-118437682D01*
X53899500Y-118437682D01*
X53899500Y-114447648D01*
X54849500Y-114447648D01*
X54849500Y-114652351D01*
X54881522Y-114854534D01*
X54944781Y-115049223D01*
X55037715Y-115231613D01*
X55158028Y-115397213D01*
X55302786Y-115541971D01*
X55399566Y-115612284D01*
X55468390Y-115662287D01*
X55552647Y-115705218D01*
X55650776Y-115755218D01*
X55650778Y-115755218D01*
X55650781Y-115755220D01*
X55724867Y-115779292D01*
X55845465Y-115818477D01*
X55918774Y-115830088D01*
X56047648Y-115850500D01*
X56047649Y-115850500D01*
X56252351Y-115850500D01*
X56252352Y-115850500D01*
X56454534Y-115818477D01*
X56649219Y-115755220D01*
X56831610Y-115662287D01*
X56948240Y-115577551D01*
X56997213Y-115541971D01*
X56997215Y-115541968D01*
X56997219Y-115541966D01*
X57141966Y-115397219D01*
X57141968Y-115397215D01*
X57141971Y-115397213D01*
X57194732Y-115324590D01*
X57262287Y-115231610D01*
X57355220Y-115049219D01*
X57418477Y-114854534D01*
X57450500Y-114652352D01*
X57450500Y-114447648D01*
X57418477Y-114245466D01*
X57413537Y-114230263D01*
X57374100Y-114108889D01*
X57355220Y-114050781D01*
X57355218Y-114050778D01*
X57355218Y-114050776D01*
X57316450Y-113974690D01*
X57262287Y-113868390D01*
X57254556Y-113857749D01*
X57141971Y-113702786D01*
X56997213Y-113558028D01*
X56831613Y-113437715D01*
X56831612Y-113437714D01*
X56831610Y-113437713D01*
X56733480Y-113387713D01*
X56649223Y-113344781D01*
X56454534Y-113281522D01*
X56279995Y-113253878D01*
X56252352Y-113249500D01*
X56047648Y-113249500D01*
X56023329Y-113253351D01*
X55845465Y-113281522D01*
X55650776Y-113344781D01*
X55468386Y-113437715D01*
X55302786Y-113558028D01*
X55158028Y-113702786D01*
X55037715Y-113868386D01*
X54944781Y-114050776D01*
X54881522Y-114245465D01*
X54849500Y-114447648D01*
X53899500Y-114447648D01*
X53899500Y-107647648D01*
X54789500Y-107647648D01*
X54789500Y-107852351D01*
X54821522Y-108054534D01*
X54884781Y-108249223D01*
X54977715Y-108431613D01*
X55098028Y-108597213D01*
X55098034Y-108597219D01*
X55242781Y-108741966D01*
X55408390Y-108862287D01*
X55421793Y-108869116D01*
X55472589Y-108917088D01*
X55489500Y-108979601D01*
X55489500Y-110743330D01*
X55489499Y-110743348D01*
X55489499Y-110909054D01*
X55489498Y-110909054D01*
X55489499Y-110909057D01*
X55530423Y-111061785D01*
X55530424Y-111061786D01*
X55535457Y-111070504D01*
X55609477Y-111198712D01*
X55609481Y-111198717D01*
X55728349Y-111317585D01*
X55728355Y-111317590D01*
X62505921Y-118095157D01*
X62539406Y-118156480D01*
X62536173Y-118221149D01*
X62531523Y-118235460D01*
X62531523Y-118235462D01*
X62499500Y-118437648D01*
X62499500Y-118642351D01*
X62531522Y-118844534D01*
X62594781Y-119039223D01*
X62639305Y-119126605D01*
X62687585Y-119221359D01*
X62687715Y-119221613D01*
X62808028Y-119387213D01*
X62952786Y-119531971D01*
X63107749Y-119644556D01*
X63118390Y-119652287D01*
X63234607Y-119711503D01*
X63300776Y-119745218D01*
X63300778Y-119745218D01*
X63300781Y-119745220D01*
X63405137Y-119779127D01*
X63495465Y-119808477D01*
X63596557Y-119824488D01*
X63697648Y-119840500D01*
X63697649Y-119840500D01*
X63902351Y-119840500D01*
X63902352Y-119840500D01*
X64104534Y-119808477D01*
X64299219Y-119745220D01*
X64481610Y-119652287D01*
X64582815Y-119578758D01*
X64651161Y-119529103D01*
X64652270Y-119530629D01*
X64660822Y-119526792D01*
X64673989Y-119515384D01*
X64692035Y-119512789D01*
X64708673Y-119505325D01*
X64725901Y-119507919D01*
X64743147Y-119505440D01*
X64759733Y-119513014D01*
X64777763Y-119515730D01*
X64790853Y-119527226D01*
X64806703Y-119534465D01*
X64816560Y-119549803D01*
X64830261Y-119561836D01*
X64835168Y-119578758D01*
X64844477Y-119593243D01*
X64849500Y-119628178D01*
X64849500Y-119847770D01*
X64829815Y-119914809D01*
X64813181Y-119935451D01*
X64075105Y-120673526D01*
X64013782Y-120707011D01*
X63968026Y-120708318D01*
X63912352Y-120699500D01*
X63707648Y-120699500D01*
X63683329Y-120703351D01*
X63505465Y-120731522D01*
X63310776Y-120794781D01*
X63128386Y-120887715D01*
X62962786Y-121008028D01*
X62818028Y-121152786D01*
X62697715Y-121318386D01*
X62604781Y-121500776D01*
X62541522Y-121695465D01*
X62509500Y-121897648D01*
X62509500Y-122102351D01*
X62541522Y-122304534D01*
X62604781Y-122499223D01*
X62697715Y-122681613D01*
X62818028Y-122847213D01*
X62958634Y-122987819D01*
X62992119Y-123049142D01*
X62987135Y-123118834D01*
X62945263Y-123174767D01*
X62879799Y-123199184D01*
X62870953Y-123199500D01*
X58120940Y-123199500D01*
X58080019Y-123210464D01*
X58080019Y-123210465D01*
X58042751Y-123220451D01*
X57968214Y-123240423D01*
X57968209Y-123240426D01*
X57831290Y-123319475D01*
X57831282Y-123319481D01*
X57719478Y-123431286D01*
X56680127Y-124470636D01*
X56618804Y-124504121D01*
X56554128Y-124500886D01*
X56494535Y-124481523D01*
X56393443Y-124465511D01*
X56292352Y-124449500D01*
X56087648Y-124449500D01*
X56063329Y-124453351D01*
X55885465Y-124481522D01*
X55690776Y-124544781D01*
X55508386Y-124637715D01*
X55342786Y-124758028D01*
X55198028Y-124902786D01*
X55077715Y-125068386D01*
X54984781Y-125250776D01*
X54921522Y-125445465D01*
X54889500Y-125647648D01*
X54889500Y-125852351D01*
X54921522Y-126054534D01*
X54984781Y-126249223D01*
X55077715Y-126431613D01*
X55198028Y-126597213D01*
X55342786Y-126741971D01*
X55494772Y-126852393D01*
X55508390Y-126862287D01*
X55589499Y-126903614D01*
X55690776Y-126955218D01*
X55690778Y-126955218D01*
X55690781Y-126955220D01*
X55765818Y-126979601D01*
X55885465Y-127018477D01*
X55986557Y-127034488D01*
X56087648Y-127050500D01*
X56087649Y-127050500D01*
X56292351Y-127050500D01*
X56292352Y-127050500D01*
X56494534Y-127018477D01*
X56689219Y-126955220D01*
X56871610Y-126862287D01*
X56964590Y-126794732D01*
X57037213Y-126741971D01*
X57037215Y-126741968D01*
X57037219Y-126741966D01*
X57181966Y-126597219D01*
X57181968Y-126597215D01*
X57181971Y-126597213D01*
X57255579Y-126495898D01*
X57302287Y-126431610D01*
X57395220Y-126249219D01*
X57458477Y-126054534D01*
X57490500Y-125852352D01*
X57490500Y-125647648D01*
X57460880Y-125460638D01*
X57469834Y-125391347D01*
X57495669Y-125353564D01*
X58412416Y-124436819D01*
X58473739Y-124403334D01*
X58500097Y-124400500D01*
X63077449Y-124400500D01*
X63144488Y-124420185D01*
X63190243Y-124472989D01*
X63200187Y-124542147D01*
X63171162Y-124605703D01*
X63133745Y-124634984D01*
X63128388Y-124637713D01*
X62962786Y-124758028D01*
X62818028Y-124902786D01*
X62697715Y-125068386D01*
X62604781Y-125250776D01*
X62541522Y-125445465D01*
X62509500Y-125647648D01*
X62509500Y-125852351D01*
X62541522Y-126054534D01*
X62604781Y-126249223D01*
X62697715Y-126431613D01*
X62818028Y-126597213D01*
X62818034Y-126597219D01*
X62962781Y-126741966D01*
X63128390Y-126862287D01*
X63141793Y-126869116D01*
X63192589Y-126917088D01*
X63209500Y-126979601D01*
X63209500Y-127533330D01*
X63209499Y-127533348D01*
X63209499Y-127699054D01*
X63209498Y-127699054D01*
X63250424Y-127851789D01*
X63250425Y-127851790D01*
X63272619Y-127890230D01*
X63272620Y-127890232D01*
X63329475Y-127988709D01*
X63329481Y-127988717D01*
X63448349Y-128107585D01*
X63448355Y-128107590D01*
X69763181Y-134422416D01*
X69796666Y-134483739D01*
X69799500Y-134510097D01*
X69799500Y-135710001D01*
X69799501Y-135710018D01*
X69810000Y-135812796D01*
X69810001Y-135812799D01*
X69826569Y-135862796D01*
X69865186Y-135979334D01*
X69957288Y-136128656D01*
X70081344Y-136252712D01*
X70230666Y-136344814D01*
X70397203Y-136399999D01*
X70499991Y-136410500D01*
X71900008Y-136410499D01*
X72002797Y-136399999D01*
X72169334Y-136344814D01*
X72318656Y-136252712D01*
X72442712Y-136128656D01*
X72534814Y-135979334D01*
X72589999Y-135812797D01*
X72600500Y-135710009D01*
X72600499Y-134309992D01*
X72589999Y-134207203D01*
X72534814Y-134040666D01*
X72442712Y-133891344D01*
X72318656Y-133767288D01*
X72169334Y-133675186D01*
X72002797Y-133620001D01*
X72002795Y-133620000D01*
X71900016Y-133609500D01*
X71900009Y-133609500D01*
X70700097Y-133609500D01*
X70633058Y-133589815D01*
X70612416Y-133573181D01*
X64446819Y-127407584D01*
X64432115Y-127380656D01*
X64415523Y-127354838D01*
X64414631Y-127348637D01*
X64413334Y-127346261D01*
X64410500Y-127319903D01*
X64410500Y-127279778D01*
X69799500Y-127279778D01*
X69799500Y-127500221D01*
X69833985Y-127717952D01*
X69902103Y-127927603D01*
X69902104Y-127927606D01*
X69938776Y-127999577D01*
X69993812Y-128107590D01*
X70002187Y-128124025D01*
X70131752Y-128302358D01*
X70131756Y-128302363D01*
X70287636Y-128458243D01*
X70287641Y-128458247D01*
X70356461Y-128508247D01*
X70465978Y-128587815D01*
X70594375Y-128653237D01*
X70662393Y-128687895D01*
X70662396Y-128687896D01*
X70767221Y-128721955D01*
X70872049Y-128756015D01*
X71089778Y-128790500D01*
X71089779Y-128790500D01*
X71310221Y-128790500D01*
X71310222Y-128790500D01*
X71527951Y-128756015D01*
X71737606Y-128687895D01*
X71934022Y-128587815D01*
X72112365Y-128458242D01*
X72268242Y-128302365D01*
X72397815Y-128124022D01*
X72497895Y-127927606D01*
X72566015Y-127717951D01*
X72600500Y-127500222D01*
X72600500Y-127279778D01*
X72566015Y-127062049D01*
X72518915Y-126917088D01*
X72497896Y-126852396D01*
X72497895Y-126852393D01*
X72441631Y-126741971D01*
X72397815Y-126655978D01*
X72327666Y-126559425D01*
X72268247Y-126477641D01*
X72268243Y-126477636D01*
X72112363Y-126321756D01*
X72112358Y-126321752D01*
X71934025Y-126192187D01*
X71934024Y-126192186D01*
X71934022Y-126192185D01*
X71871096Y-126160122D01*
X71737606Y-126092104D01*
X71737603Y-126092103D01*
X71527952Y-126023985D01*
X71326934Y-125992147D01*
X71310222Y-125989500D01*
X71089778Y-125989500D01*
X71073066Y-125992147D01*
X70872047Y-126023985D01*
X70662396Y-126092103D01*
X70662393Y-126092104D01*
X70465974Y-126192187D01*
X70287641Y-126321752D01*
X70287636Y-126321756D01*
X70131756Y-126477636D01*
X70131752Y-126477641D01*
X70002187Y-126655974D01*
X69902104Y-126852393D01*
X69902103Y-126852396D01*
X69833985Y-127062047D01*
X69799500Y-127279778D01*
X64410500Y-127279778D01*
X64410500Y-126979601D01*
X64430185Y-126912562D01*
X64478206Y-126869116D01*
X64491610Y-126862287D01*
X64657219Y-126741966D01*
X64801966Y-126597219D01*
X64801968Y-126597215D01*
X64801971Y-126597213D01*
X64875579Y-126495898D01*
X64922287Y-126431610D01*
X65015220Y-126249219D01*
X65078477Y-126054534D01*
X65110500Y-125852352D01*
X65110500Y-125647648D01*
X65078477Y-125445466D01*
X65073825Y-125431151D01*
X65071832Y-125361312D01*
X65104075Y-125305158D01*
X68108506Y-122300728D01*
X68108511Y-122300724D01*
X68118714Y-122290520D01*
X68118716Y-122290520D01*
X68230520Y-122178716D01*
X68309577Y-122041784D01*
X68350500Y-121889057D01*
X68350500Y-115579765D01*
X68370185Y-115512726D01*
X68371398Y-115510874D01*
X68386762Y-115487881D01*
X68459394Y-115379179D01*
X68519737Y-115233497D01*
X68550500Y-115078842D01*
X68550500Y-114921158D01*
X68550500Y-114921155D01*
X68550499Y-114921153D01*
X68519737Y-114766503D01*
X68479728Y-114669911D01*
X68459397Y-114620827D01*
X68459390Y-114620814D01*
X68371789Y-114489711D01*
X68371786Y-114489707D01*
X68260292Y-114378213D01*
X68260288Y-114378210D01*
X68129185Y-114290609D01*
X68129172Y-114290602D01*
X67983501Y-114230264D01*
X67983489Y-114230261D01*
X67828845Y-114199500D01*
X67828842Y-114199500D01*
X67671158Y-114199500D01*
X67671155Y-114199500D01*
X67516510Y-114230261D01*
X67516498Y-114230264D01*
X67370827Y-114290602D01*
X67370814Y-114290609D01*
X67239711Y-114378210D01*
X67239707Y-114378213D01*
X67128213Y-114489707D01*
X67128210Y-114489711D01*
X67040609Y-114620814D01*
X67040602Y-114620827D01*
X66980264Y-114766498D01*
X66980261Y-114766510D01*
X66949500Y-114921153D01*
X66949500Y-115078846D01*
X66980261Y-115233489D01*
X66980264Y-115233501D01*
X67040602Y-115379172D01*
X67040609Y-115379185D01*
X67128602Y-115510874D01*
X67149480Y-115577551D01*
X67149500Y-115579765D01*
X67149500Y-118113444D01*
X67129815Y-118180483D01*
X67077011Y-118226238D01*
X67007853Y-118236182D01*
X66989575Y-118231202D01*
X66989324Y-118232031D01*
X66983500Y-118230264D01*
X66983497Y-118230263D01*
X66983492Y-118230262D01*
X66983489Y-118230261D01*
X66828845Y-118199500D01*
X66828842Y-118199500D01*
X66671158Y-118199500D01*
X66671155Y-118199500D01*
X66516510Y-118230261D01*
X66510676Y-118232031D01*
X66509873Y-118229385D01*
X66452056Y-118235396D01*
X66389687Y-118203902D01*
X66354245Y-118143689D01*
X66350500Y-118113444D01*
X66350500Y-113861462D01*
X66370185Y-113794423D01*
X66386819Y-113773781D01*
X67633950Y-112526650D01*
X67633952Y-112526648D01*
X67686947Y-112447334D01*
X67716084Y-112403727D01*
X67772658Y-112267145D01*
X67797819Y-112140655D01*
X67801500Y-112122152D01*
X67801500Y-107029983D01*
X69549500Y-107029983D01*
X69549500Y-108230001D01*
X69549501Y-108230018D01*
X69560000Y-108332796D01*
X69560001Y-108332799D01*
X69592744Y-108431610D01*
X69615186Y-108499334D01*
X69707288Y-108648656D01*
X69831344Y-108772712D01*
X69980666Y-108864814D01*
X70062570Y-108891954D01*
X70120015Y-108931727D01*
X70146838Y-108996243D01*
X70134523Y-109065018D01*
X70096451Y-109109978D01*
X70002787Y-109178028D01*
X70002782Y-109178032D01*
X69858028Y-109322786D01*
X69737715Y-109488386D01*
X69644781Y-109670776D01*
X69581522Y-109865465D01*
X69549500Y-110067648D01*
X69549500Y-110272351D01*
X69581522Y-110474534D01*
X69644781Y-110669223D01*
X69708691Y-110794653D01*
X69731448Y-110839315D01*
X69737715Y-110851613D01*
X69858028Y-111017213D01*
X70002786Y-111161971D01*
X70157749Y-111274556D01*
X70168390Y-111282287D01*
X70237676Y-111317590D01*
X70261080Y-111329515D01*
X70311876Y-111377490D01*
X70328671Y-111445311D01*
X70306134Y-111511446D01*
X70261080Y-111550485D01*
X70168386Y-111597715D01*
X70002786Y-111718028D01*
X69858028Y-111862786D01*
X69737715Y-112028386D01*
X69644781Y-112210776D01*
X69581522Y-112405465D01*
X69549500Y-112607648D01*
X69549500Y-112812351D01*
X69581522Y-113014534D01*
X69644781Y-113209223D01*
X69707519Y-113332351D01*
X69735728Y-113387715D01*
X69737715Y-113391613D01*
X69858028Y-113557213D01*
X70002786Y-113701971D01*
X70151616Y-113810100D01*
X70168390Y-113822287D01*
X70245275Y-113861462D01*
X70261080Y-113869515D01*
X70311876Y-113917490D01*
X70328671Y-113985311D01*
X70306134Y-114051446D01*
X70261080Y-114090485D01*
X70168386Y-114137715D01*
X70002786Y-114258028D01*
X69858028Y-114402786D01*
X69737715Y-114568386D01*
X69644781Y-114750776D01*
X69581522Y-114945465D01*
X69549500Y-115147648D01*
X69549500Y-115352351D01*
X69581522Y-115554534D01*
X69644781Y-115749223D01*
X69685985Y-115830088D01*
X69731448Y-115919315D01*
X69737715Y-115931613D01*
X69858028Y-116097213D01*
X70002786Y-116241971D01*
X70157749Y-116354556D01*
X70168390Y-116362287D01*
X70259840Y-116408883D01*
X70261080Y-116409515D01*
X70311876Y-116457490D01*
X70328671Y-116525311D01*
X70306134Y-116591446D01*
X70261080Y-116630485D01*
X70168386Y-116677715D01*
X70002786Y-116798028D01*
X69858028Y-116942786D01*
X69737715Y-117108386D01*
X69644781Y-117290776D01*
X69581522Y-117485465D01*
X69549500Y-117687648D01*
X69549500Y-117892351D01*
X69581522Y-118094534D01*
X69644781Y-118289223D01*
X69708691Y-118414653D01*
X69720408Y-118437648D01*
X69737715Y-118471613D01*
X69858028Y-118637213D01*
X70002786Y-118781971D01*
X70148922Y-118888143D01*
X70168390Y-118902287D01*
X70242406Y-118940000D01*
X70261080Y-118949515D01*
X70311876Y-118997490D01*
X70328671Y-119065311D01*
X70306134Y-119131446D01*
X70261080Y-119170485D01*
X70168386Y-119217715D01*
X70002786Y-119338028D01*
X69858028Y-119482786D01*
X69737715Y-119648386D01*
X69644781Y-119830776D01*
X69581522Y-120025465D01*
X69549500Y-120227648D01*
X69549500Y-120432351D01*
X69581522Y-120634534D01*
X69644781Y-120829223D01*
X69737715Y-121011613D01*
X69858028Y-121177213D01*
X70002786Y-121321971D01*
X70157749Y-121434556D01*
X70168390Y-121442287D01*
X70240424Y-121478990D01*
X70261629Y-121489795D01*
X70312425Y-121537770D01*
X70329220Y-121605591D01*
X70306682Y-121671726D01*
X70261629Y-121710765D01*
X70168650Y-121758140D01*
X70003105Y-121878417D01*
X70003104Y-121878417D01*
X69858417Y-122023104D01*
X69858417Y-122023105D01*
X69738140Y-122188650D01*
X69645244Y-122370970D01*
X69582009Y-122565586D01*
X69573391Y-122620000D01*
X70934314Y-122620000D01*
X70929920Y-122624394D01*
X70877259Y-122715606D01*
X70850000Y-122817339D01*
X70850000Y-122922661D01*
X70877259Y-123024394D01*
X70929920Y-123115606D01*
X70934314Y-123120000D01*
X69573391Y-123120000D01*
X69582009Y-123174413D01*
X69645244Y-123369029D01*
X69738140Y-123551349D01*
X69858417Y-123716894D01*
X69858417Y-123716895D01*
X70003104Y-123861582D01*
X70168650Y-123981859D01*
X70350968Y-124074755D01*
X70545582Y-124137990D01*
X70747683Y-124170000D01*
X71000000Y-124170000D01*
X71000000Y-123185686D01*
X71004394Y-123190080D01*
X71095606Y-123242741D01*
X71197339Y-123270000D01*
X71302661Y-123270000D01*
X71404394Y-123242741D01*
X71495606Y-123190080D01*
X71500000Y-123185686D01*
X71500000Y-124170000D01*
X71752317Y-124170000D01*
X71954417Y-124137990D01*
X72149031Y-124074755D01*
X72331349Y-123981859D01*
X72496894Y-123861582D01*
X72496895Y-123861582D01*
X72641582Y-123716895D01*
X72641582Y-123716894D01*
X72761859Y-123551349D01*
X72814015Y-123448988D01*
X72861989Y-123398192D01*
X72929810Y-123381397D01*
X72995945Y-123403934D01*
X73039397Y-123458649D01*
X73048500Y-123505283D01*
X73048500Y-129872330D01*
X73048499Y-129872348D01*
X73048499Y-130038054D01*
X73048498Y-130038054D01*
X73089423Y-130190785D01*
X73118358Y-130240900D01*
X73118359Y-130240904D01*
X73118360Y-130240904D01*
X73168479Y-130327714D01*
X73168481Y-130327717D01*
X73287349Y-130446585D01*
X73287355Y-130446590D01*
X77313181Y-134472416D01*
X77346666Y-134533739D01*
X77349500Y-134560097D01*
X77349500Y-135760001D01*
X77349501Y-135760018D01*
X77360000Y-135862796D01*
X77360001Y-135862799D01*
X77398618Y-135979336D01*
X77415186Y-136029334D01*
X77507288Y-136178656D01*
X77631344Y-136302712D01*
X77780666Y-136394814D01*
X77947203Y-136449999D01*
X78049991Y-136460500D01*
X79450008Y-136460499D01*
X79552797Y-136449999D01*
X79719334Y-136394814D01*
X79868656Y-136302712D01*
X79992712Y-136178656D01*
X80084814Y-136029334D01*
X80139999Y-135862797D01*
X80150500Y-135760009D01*
X80150499Y-134359992D01*
X80145391Y-134309992D01*
X80139999Y-134257203D01*
X80139998Y-134257200D01*
X80084814Y-134090666D01*
X79992712Y-133941344D01*
X79868656Y-133817288D01*
X79719334Y-133725186D01*
X79552797Y-133670001D01*
X79552795Y-133670000D01*
X79450016Y-133659500D01*
X79450009Y-133659500D01*
X78250097Y-133659500D01*
X78183058Y-133639815D01*
X78162416Y-133623181D01*
X74285819Y-129746584D01*
X74252334Y-129685261D01*
X74249500Y-129658903D01*
X74249500Y-122349046D01*
X74269185Y-122282007D01*
X74321989Y-122236252D01*
X74349309Y-122227429D01*
X74378848Y-122221552D01*
X74483497Y-122200737D01*
X74629179Y-122140394D01*
X74760289Y-122052789D01*
X74871789Y-121941289D01*
X74959394Y-121810179D01*
X75019737Y-121664497D01*
X75050500Y-121509842D01*
X75050638Y-121509150D01*
X75083023Y-121447239D01*
X75084520Y-121445714D01*
X75968713Y-120561521D01*
X75968716Y-120561520D01*
X76080520Y-120449716D01*
X76130639Y-120362904D01*
X76159577Y-120312785D01*
X76200500Y-120160058D01*
X76200500Y-120001943D01*
X76200500Y-107900097D01*
X76220185Y-107833058D01*
X76236819Y-107812416D01*
X77070960Y-106978275D01*
X77132283Y-106944790D01*
X77201975Y-106949774D01*
X77257908Y-106991646D01*
X77282325Y-107057110D01*
X77269126Y-107122250D01*
X77264782Y-107130773D01*
X77201522Y-107325465D01*
X77169500Y-107527648D01*
X77169500Y-107732351D01*
X77201522Y-107934534D01*
X77264781Y-108129223D01*
X77357715Y-108311613D01*
X77478028Y-108477213D01*
X77622786Y-108621971D01*
X77777749Y-108734556D01*
X77788390Y-108742287D01*
X77879840Y-108788883D01*
X77881080Y-108789515D01*
X77931876Y-108837490D01*
X77948671Y-108905311D01*
X77926134Y-108971446D01*
X77881080Y-109010485D01*
X77788386Y-109057715D01*
X77622786Y-109178028D01*
X77478028Y-109322786D01*
X77357715Y-109488386D01*
X77264781Y-109670776D01*
X77201522Y-109865465D01*
X77169500Y-110067648D01*
X77169500Y-110272351D01*
X77201522Y-110474534D01*
X77264781Y-110669223D01*
X77328691Y-110794653D01*
X77351448Y-110839315D01*
X77357715Y-110851613D01*
X77478028Y-111017213D01*
X77622786Y-111161971D01*
X77777749Y-111274556D01*
X77788390Y-111282287D01*
X77857676Y-111317590D01*
X77881080Y-111329515D01*
X77931876Y-111377490D01*
X77948671Y-111445311D01*
X77926134Y-111511446D01*
X77881080Y-111550485D01*
X77788386Y-111597715D01*
X77622786Y-111718028D01*
X77478028Y-111862786D01*
X77357715Y-112028386D01*
X77264781Y-112210776D01*
X77201522Y-112405465D01*
X77169500Y-112607648D01*
X77169500Y-112812351D01*
X77201522Y-113014534D01*
X77264781Y-113209223D01*
X77327519Y-113332351D01*
X77355728Y-113387715D01*
X77357715Y-113391613D01*
X77478028Y-113557213D01*
X77622786Y-113701971D01*
X77771616Y-113810100D01*
X77788390Y-113822287D01*
X77865275Y-113861462D01*
X77881080Y-113869515D01*
X77931876Y-113917490D01*
X77948671Y-113985311D01*
X77926134Y-114051446D01*
X77881080Y-114090485D01*
X77788386Y-114137715D01*
X77622786Y-114258028D01*
X77478028Y-114402786D01*
X77357715Y-114568386D01*
X77264781Y-114750776D01*
X77201522Y-114945465D01*
X77169500Y-115147648D01*
X77169500Y-115352351D01*
X77201522Y-115554534D01*
X77264782Y-115749226D01*
X77310547Y-115839044D01*
X77323443Y-115907713D01*
X77297166Y-115972453D01*
X77287744Y-115983019D01*
X77000286Y-116270478D01*
X76888481Y-116382282D01*
X76888479Y-116382285D01*
X76885344Y-116387715D01*
X76849673Y-116449500D01*
X76846371Y-116455220D01*
X76812036Y-116514690D01*
X76809423Y-116519215D01*
X76768499Y-116671943D01*
X76768499Y-116671945D01*
X76768499Y-116840046D01*
X76768500Y-116840059D01*
X76768500Y-121282330D01*
X76768499Y-121282348D01*
X76768499Y-121448054D01*
X76768498Y-121448054D01*
X76809424Y-121600789D01*
X76809425Y-121600790D01*
X76826578Y-121630499D01*
X76826579Y-121630500D01*
X76888477Y-121737712D01*
X76888481Y-121737717D01*
X77007349Y-121856585D01*
X77007354Y-121856589D01*
X77287744Y-122136980D01*
X77321229Y-122198302D01*
X77316245Y-122267994D01*
X77310548Y-122280954D01*
X77264779Y-122370780D01*
X77264779Y-122370781D01*
X77201523Y-122565461D01*
X77201523Y-122565464D01*
X77169500Y-122767648D01*
X77169500Y-122972351D01*
X77201522Y-123174534D01*
X77264781Y-123369223D01*
X77310347Y-123458649D01*
X77332251Y-123501639D01*
X77357715Y-123551613D01*
X77478028Y-123717213D01*
X77622786Y-123861971D01*
X77777749Y-123974556D01*
X77788390Y-123982287D01*
X77904607Y-124041503D01*
X77970776Y-124075218D01*
X77970778Y-124075218D01*
X77970781Y-124075220D01*
X78075137Y-124109127D01*
X78165465Y-124138477D01*
X78266557Y-124154488D01*
X78367648Y-124170500D01*
X78367649Y-124170500D01*
X79372351Y-124170500D01*
X79372352Y-124170500D01*
X79574534Y-124138477D01*
X79769219Y-124075220D01*
X79951610Y-123982287D01*
X80044590Y-123914732D01*
X80117213Y-123861971D01*
X80117215Y-123861968D01*
X80117219Y-123861966D01*
X80261966Y-123717219D01*
X80261968Y-123717215D01*
X80261971Y-123717213D01*
X80367836Y-123571500D01*
X80382287Y-123551610D01*
X80475220Y-123369219D01*
X80538477Y-123174534D01*
X80570500Y-122972352D01*
X80570500Y-122767648D01*
X80550232Y-122639685D01*
X80538477Y-122565465D01*
X80475218Y-122370776D01*
X80422847Y-122267994D01*
X80382287Y-122188390D01*
X80372220Y-122174534D01*
X80261971Y-122022786D01*
X80117213Y-121878028D01*
X79951614Y-121757715D01*
X79945006Y-121754348D01*
X79858917Y-121710483D01*
X79808123Y-121662511D01*
X79791328Y-121594690D01*
X79813865Y-121528555D01*
X79858917Y-121489516D01*
X79951610Y-121442287D01*
X79972770Y-121426913D01*
X80117213Y-121321971D01*
X80117215Y-121321968D01*
X80117219Y-121321966D01*
X80261966Y-121177219D01*
X80261968Y-121177215D01*
X80261971Y-121177213D01*
X80374167Y-121022786D01*
X80382287Y-121011610D01*
X80445416Y-120887713D01*
X80475218Y-120829223D01*
X80475218Y-120829222D01*
X80475220Y-120829219D01*
X80538477Y-120634534D01*
X80570500Y-120432352D01*
X80570500Y-120227648D01*
X80538477Y-120025466D01*
X80538476Y-120025462D01*
X80538476Y-120025461D01*
X80507827Y-119931134D01*
X80475218Y-119830776D01*
X80436299Y-119754394D01*
X80382287Y-119648390D01*
X80366935Y-119627259D01*
X80261971Y-119482786D01*
X80117213Y-119338028D01*
X79951614Y-119217715D01*
X79945006Y-119214348D01*
X79858917Y-119170483D01*
X79808123Y-119122511D01*
X79791328Y-119054690D01*
X79813865Y-118988555D01*
X79858917Y-118949516D01*
X79951610Y-118902287D01*
X80008761Y-118860765D01*
X80117213Y-118781971D01*
X80117215Y-118781968D01*
X80117219Y-118781966D01*
X80261966Y-118637219D01*
X80261968Y-118637215D01*
X80261971Y-118637213D01*
X80332600Y-118539999D01*
X80382287Y-118471610D01*
X80475220Y-118289219D01*
X80538477Y-118094534D01*
X80570500Y-117892352D01*
X80570500Y-117687648D01*
X80538477Y-117485466D01*
X80538476Y-117485462D01*
X80538476Y-117485461D01*
X80520811Y-117431094D01*
X80509943Y-117397648D01*
X81449500Y-117397648D01*
X81449500Y-117602351D01*
X81481522Y-117804534D01*
X81544781Y-117999223D01*
X81593663Y-118095157D01*
X81620408Y-118147648D01*
X81637715Y-118181613D01*
X81758028Y-118347213D01*
X81902786Y-118491971D01*
X82068385Y-118612284D01*
X82068387Y-118612285D01*
X82068390Y-118612287D01*
X82122378Y-118639795D01*
X82173174Y-118687769D01*
X82189969Y-118755590D01*
X82167432Y-118821725D01*
X82122378Y-118860765D01*
X82068644Y-118888143D01*
X82024077Y-118920523D01*
X82024077Y-118920524D01*
X82703554Y-119600000D01*
X82697339Y-119600000D01*
X82595606Y-119627259D01*
X82504394Y-119679920D01*
X82429920Y-119754394D01*
X82377259Y-119845606D01*
X82350000Y-119947339D01*
X82350000Y-119953553D01*
X81670524Y-119274077D01*
X81670523Y-119274077D01*
X81638143Y-119318644D01*
X81545244Y-119500968D01*
X81482009Y-119695582D01*
X81450000Y-119897682D01*
X81450000Y-120102317D01*
X81482009Y-120304417D01*
X81545244Y-120499031D01*
X81638141Y-120681350D01*
X81638147Y-120681359D01*
X81670523Y-120725921D01*
X81670524Y-120725922D01*
X82350000Y-120046446D01*
X82350000Y-120052661D01*
X82377259Y-120154394D01*
X82429920Y-120245606D01*
X82504394Y-120320080D01*
X82595606Y-120372741D01*
X82697339Y-120400000D01*
X82703553Y-120400000D01*
X82024076Y-121079474D01*
X82068650Y-121111859D01*
X82250968Y-121204755D01*
X82445582Y-121267990D01*
X82647683Y-121300000D01*
X82852317Y-121300000D01*
X83054417Y-121267990D01*
X83249031Y-121204755D01*
X83431349Y-121111859D01*
X83475921Y-121079474D01*
X82796447Y-120400000D01*
X82802661Y-120400000D01*
X82904394Y-120372741D01*
X82995606Y-120320080D01*
X83070080Y-120245606D01*
X83122741Y-120154394D01*
X83150000Y-120052661D01*
X83150000Y-120046447D01*
X83829474Y-120725921D01*
X83861859Y-120681349D01*
X83954755Y-120499031D01*
X84017990Y-120304417D01*
X84050000Y-120102317D01*
X84050000Y-119897682D01*
X84017990Y-119695582D01*
X83954755Y-119500968D01*
X83861859Y-119318650D01*
X83829474Y-119274077D01*
X83829474Y-119274076D01*
X83150000Y-119953551D01*
X83150000Y-119947339D01*
X83122741Y-119845606D01*
X83070080Y-119754394D01*
X82995606Y-119679920D01*
X82904394Y-119627259D01*
X82802661Y-119600000D01*
X82796446Y-119600000D01*
X83475922Y-118920524D01*
X83475921Y-118920523D01*
X83431359Y-118888147D01*
X83431350Y-118888141D01*
X83377621Y-118860765D01*
X83326825Y-118812791D01*
X83310030Y-118744970D01*
X83332567Y-118678835D01*
X83377621Y-118639795D01*
X83431610Y-118612287D01*
X83511101Y-118554534D01*
X83597213Y-118491971D01*
X83597215Y-118491968D01*
X83597219Y-118491966D01*
X83741966Y-118347219D01*
X83741968Y-118347215D01*
X83741971Y-118347213D01*
X83823074Y-118235582D01*
X83862287Y-118181610D01*
X83955220Y-117999219D01*
X84018477Y-117804534D01*
X84050500Y-117602352D01*
X84050500Y-117397648D01*
X84031260Y-117276173D01*
X84018477Y-117195465D01*
X83955218Y-117000776D01*
X83921503Y-116934607D01*
X83862287Y-116818390D01*
X83847493Y-116798028D01*
X83741971Y-116652786D01*
X83597213Y-116508028D01*
X83431613Y-116387715D01*
X83431612Y-116387714D01*
X83431610Y-116387713D01*
X83374653Y-116358691D01*
X83249223Y-116294781D01*
X83054534Y-116231522D01*
X82870213Y-116202329D01*
X82852352Y-116199500D01*
X82647648Y-116199500D01*
X82629787Y-116202329D01*
X82445465Y-116231522D01*
X82250776Y-116294781D01*
X82068386Y-116387715D01*
X81902786Y-116508028D01*
X81758028Y-116652786D01*
X81637715Y-116818386D01*
X81544781Y-117000776D01*
X81481522Y-117195465D01*
X81449500Y-117397648D01*
X80509943Y-117397648D01*
X80489516Y-117334780D01*
X80475220Y-117290781D01*
X80475218Y-117290778D01*
X80475218Y-117290776D01*
X80439489Y-117220655D01*
X80429450Y-117200954D01*
X80416555Y-117132286D01*
X80442831Y-117067546D01*
X80452245Y-117056989D01*
X80851520Y-116657716D01*
X80930577Y-116520784D01*
X80971501Y-116368057D01*
X80971501Y-116209942D01*
X80971501Y-116202347D01*
X80971500Y-116202329D01*
X80971500Y-111760060D01*
X80971501Y-111760047D01*
X80971501Y-111591944D01*
X80971501Y-111591943D01*
X80930577Y-111439216D01*
X80894940Y-111377490D01*
X80851524Y-111302290D01*
X80851518Y-111302282D01*
X80452255Y-110903019D01*
X80418770Y-110841696D01*
X80423754Y-110772004D01*
X80429452Y-110759042D01*
X80434015Y-110750088D01*
X80475220Y-110669219D01*
X80538477Y-110474534D01*
X80570500Y-110272352D01*
X80570500Y-110067648D01*
X80551857Y-109949942D01*
X80545875Y-109912174D01*
X80543574Y-109897648D01*
X81449500Y-109897648D01*
X81449500Y-110102351D01*
X81481522Y-110304534D01*
X81544781Y-110499223D01*
X81586584Y-110581264D01*
X81631401Y-110669223D01*
X81637715Y-110681613D01*
X81758028Y-110847213D01*
X81902786Y-110991971D01*
X82068388Y-111112286D01*
X82121828Y-111139516D01*
X82172623Y-111187490D01*
X82189418Y-111255312D01*
X82166880Y-111321446D01*
X82121828Y-111360484D01*
X82068388Y-111387713D01*
X81902786Y-111508028D01*
X81758028Y-111652786D01*
X81637715Y-111818386D01*
X81544781Y-112000776D01*
X81481522Y-112195465D01*
X81449500Y-112397648D01*
X81449500Y-112602351D01*
X81481522Y-112804534D01*
X81544781Y-112999223D01*
X81597268Y-113102233D01*
X81631426Y-113169272D01*
X81637715Y-113181613D01*
X81758028Y-113347213D01*
X81902786Y-113491971D01*
X82057749Y-113604556D01*
X82068390Y-113612287D01*
X82147864Y-113652781D01*
X82250776Y-113705218D01*
X82250778Y-113705218D01*
X82250781Y-113705220D01*
X82355137Y-113739127D01*
X82445465Y-113768477D01*
X82546557Y-113784488D01*
X82647648Y-113800500D01*
X82647649Y-113800500D01*
X82852351Y-113800500D01*
X82852352Y-113800500D01*
X83054534Y-113768477D01*
X83249219Y-113705220D01*
X83431610Y-113612287D01*
X83558852Y-113519841D01*
X83597213Y-113491971D01*
X83597215Y-113491968D01*
X83597219Y-113491966D01*
X83741966Y-113347219D01*
X83741968Y-113347215D01*
X83741971Y-113347213D01*
X83821813Y-113237318D01*
X83862287Y-113181610D01*
X83955220Y-112999219D01*
X84018477Y-112804534D01*
X84050500Y-112602352D01*
X84050500Y-112397648D01*
X84018477Y-112195466D01*
X83955220Y-112000781D01*
X83955218Y-112000778D01*
X83955218Y-112000776D01*
X83921503Y-111934607D01*
X83862287Y-111818390D01*
X83854556Y-111807749D01*
X83741971Y-111652786D01*
X83597213Y-111508028D01*
X83431613Y-111387715D01*
X83431612Y-111387714D01*
X83431610Y-111387713D01*
X83378171Y-111360484D01*
X83327376Y-111312510D01*
X83310581Y-111244689D01*
X83333118Y-111178554D01*
X83378172Y-111139515D01*
X83431610Y-111112287D01*
X83562461Y-111017219D01*
X83597213Y-110991971D01*
X83597215Y-110991968D01*
X83597219Y-110991966D01*
X83741966Y-110847219D01*
X83741968Y-110847215D01*
X83741971Y-110847213D01*
X83817445Y-110743330D01*
X83862287Y-110681610D01*
X83955220Y-110499219D01*
X84018477Y-110304534D01*
X84050500Y-110102352D01*
X84050500Y-109897648D01*
X84018477Y-109695466D01*
X84010456Y-109670781D01*
X83970718Y-109548480D01*
X83955220Y-109500781D01*
X83955218Y-109500778D01*
X83955218Y-109500776D01*
X83921503Y-109434607D01*
X83862287Y-109318390D01*
X83854556Y-109307749D01*
X83741971Y-109152786D01*
X83597213Y-109008028D01*
X83431613Y-108887715D01*
X83431612Y-108887714D01*
X83431610Y-108887713D01*
X83363963Y-108853245D01*
X83249223Y-108794781D01*
X83054534Y-108731522D01*
X82879995Y-108703878D01*
X82852352Y-108699500D01*
X82647648Y-108699500D01*
X82626377Y-108702869D01*
X82445465Y-108731522D01*
X82250776Y-108794781D01*
X82068386Y-108887715D01*
X81902786Y-109008028D01*
X81758028Y-109152786D01*
X81637715Y-109318386D01*
X81544781Y-109500776D01*
X81481522Y-109695465D01*
X81449500Y-109897648D01*
X80543574Y-109897648D01*
X80538477Y-109865465D01*
X80509127Y-109775137D01*
X80475220Y-109670781D01*
X80475218Y-109670778D01*
X80475218Y-109670776D01*
X80412903Y-109548478D01*
X80382287Y-109488390D01*
X80374556Y-109477749D01*
X80261971Y-109322786D01*
X80117213Y-109178028D01*
X79951614Y-109057715D01*
X79937454Y-109050500D01*
X79858917Y-109010483D01*
X79808123Y-108962511D01*
X79791328Y-108894690D01*
X79813865Y-108828555D01*
X79858917Y-108789516D01*
X79951610Y-108742287D01*
X80080482Y-108648657D01*
X80117213Y-108621971D01*
X80117215Y-108621968D01*
X80117219Y-108621966D01*
X80261966Y-108477219D01*
X80261968Y-108477215D01*
X80261971Y-108477213D01*
X80344355Y-108363819D01*
X80382287Y-108311610D01*
X80475220Y-108129219D01*
X80538477Y-107934534D01*
X80570500Y-107732352D01*
X80570500Y-107527648D01*
X80557780Y-107447339D01*
X80538477Y-107325465D01*
X80475218Y-107130776D01*
X80423865Y-107029991D01*
X80382287Y-106948390D01*
X80349154Y-106902786D01*
X80261971Y-106782786D01*
X80117213Y-106638028D01*
X79951613Y-106517715D01*
X79951612Y-106517714D01*
X79951610Y-106517713D01*
X79880583Y-106481523D01*
X79769223Y-106424781D01*
X79574534Y-106361522D01*
X79399995Y-106333878D01*
X79372352Y-106329500D01*
X78367648Y-106329500D01*
X78343329Y-106333351D01*
X78165465Y-106361522D01*
X77970774Y-106424782D01*
X77962243Y-106429129D01*
X77893573Y-106442020D01*
X77828835Y-106415739D01*
X77788581Y-106358630D01*
X77785594Y-106288824D01*
X77818273Y-106230962D01*
X81012417Y-103036819D01*
X81073740Y-103003334D01*
X81100098Y-103000500D01*
X84453331Y-103000500D01*
X84453347Y-103000501D01*
X84460943Y-103000501D01*
X84619054Y-103000501D01*
X84619057Y-103000501D01*
X84771785Y-102959577D01*
X84834211Y-102923535D01*
X84908716Y-102880520D01*
X85020520Y-102768716D01*
X85020520Y-102768714D01*
X85030724Y-102758511D01*
X85030728Y-102758506D01*
X85745158Y-102044075D01*
X85806479Y-102010592D01*
X85871151Y-102013825D01*
X85885466Y-102018477D01*
X86087648Y-102050500D01*
X86087649Y-102050500D01*
X86292351Y-102050500D01*
X86292352Y-102050500D01*
X86494534Y-102018477D01*
X86494539Y-102018475D01*
X86494541Y-102018475D01*
X86531513Y-102006462D01*
X86601354Y-102004465D01*
X86661187Y-102040545D01*
X86692017Y-102103245D01*
X86693833Y-102124392D01*
X86693833Y-106125607D01*
X86674148Y-106192646D01*
X86621344Y-106238401D01*
X86552186Y-106248345D01*
X86531515Y-106243538D01*
X86494537Y-106231523D01*
X86342897Y-106207505D01*
X86292352Y-106199500D01*
X86087648Y-106199500D01*
X86063329Y-106203351D01*
X85885465Y-106231522D01*
X85690776Y-106294781D01*
X85508386Y-106387715D01*
X85342786Y-106508028D01*
X85198028Y-106652786D01*
X85077715Y-106818386D01*
X84984781Y-107000776D01*
X84921522Y-107195465D01*
X84889500Y-107397648D01*
X84889500Y-107602351D01*
X84921522Y-107804534D01*
X84984781Y-107999223D01*
X85012964Y-108054534D01*
X85077585Y-108181359D01*
X85077715Y-108181613D01*
X85198028Y-108347213D01*
X85342786Y-108491971D01*
X85497749Y-108604556D01*
X85508390Y-108612287D01*
X85624607Y-108671503D01*
X85690776Y-108705218D01*
X85690778Y-108705218D01*
X85690781Y-108705220D01*
X85795137Y-108739127D01*
X85885465Y-108768477D01*
X85912204Y-108772712D01*
X86087648Y-108800500D01*
X86087649Y-108800500D01*
X86292351Y-108800500D01*
X86292352Y-108800500D01*
X86494534Y-108768477D01*
X86494539Y-108768475D01*
X86494541Y-108768475D01*
X86531513Y-108756462D01*
X86601354Y-108754465D01*
X86661187Y-108790545D01*
X86692017Y-108853245D01*
X86693833Y-108874392D01*
X86693833Y-113124524D01*
X86674148Y-113191563D01*
X86621344Y-113237318D01*
X86552186Y-113247262D01*
X86531516Y-113242455D01*
X86497875Y-113231524D01*
X86497868Y-113231523D01*
X86396776Y-113215511D01*
X86295685Y-113199500D01*
X86090981Y-113199500D01*
X86066662Y-113203351D01*
X85888798Y-113231522D01*
X85694109Y-113294781D01*
X85511719Y-113387715D01*
X85346119Y-113508028D01*
X85201361Y-113652786D01*
X85081048Y-113818386D01*
X84988114Y-114000776D01*
X84924855Y-114195465D01*
X84892833Y-114397648D01*
X84892833Y-114602351D01*
X84924855Y-114804534D01*
X84988114Y-114999223D01*
X85013589Y-115049219D01*
X85063741Y-115147648D01*
X85081048Y-115181613D01*
X85201361Y-115347213D01*
X85346119Y-115491971D01*
X85466960Y-115579765D01*
X85511723Y-115612287D01*
X85627940Y-115671503D01*
X85694109Y-115705218D01*
X85694111Y-115705218D01*
X85694114Y-115705220D01*
X85798470Y-115739127D01*
X85888798Y-115768477D01*
X85957081Y-115779292D01*
X86090981Y-115800500D01*
X86090982Y-115800500D01*
X86295684Y-115800500D01*
X86295685Y-115800500D01*
X86497867Y-115768477D01*
X86497872Y-115768475D01*
X86497874Y-115768475D01*
X86531513Y-115757545D01*
X86601354Y-115755548D01*
X86661187Y-115791628D01*
X86692017Y-115854328D01*
X86693833Y-115875475D01*
X86693833Y-116874524D01*
X86674148Y-116941563D01*
X86621344Y-116987318D01*
X86552186Y-116997262D01*
X86531516Y-116992455D01*
X86497875Y-116981524D01*
X86497868Y-116981523D01*
X86396776Y-116965511D01*
X86295685Y-116949500D01*
X86090981Y-116949500D01*
X86066662Y-116953351D01*
X85888798Y-116981522D01*
X85694109Y-117044781D01*
X85511719Y-117137715D01*
X85346119Y-117258028D01*
X85201361Y-117402786D01*
X85081048Y-117568386D01*
X84988114Y-117750776D01*
X84924855Y-117945465D01*
X84892833Y-118147648D01*
X84892833Y-118352351D01*
X84924855Y-118554534D01*
X84988114Y-118749223D01*
X85052024Y-118874653D01*
X85075397Y-118920524D01*
X85081048Y-118931613D01*
X85201361Y-119097213D01*
X85346119Y-119241971D01*
X85451661Y-119318650D01*
X85511723Y-119362287D01*
X85627940Y-119421503D01*
X85694109Y-119455218D01*
X85694111Y-119455218D01*
X85694114Y-119455220D01*
X85802221Y-119490346D01*
X85880129Y-119515660D01*
X85937804Y-119555098D01*
X85965002Y-119619456D01*
X85953087Y-119688303D01*
X85929491Y-119721272D01*
X81037584Y-124613181D01*
X80976261Y-124646666D01*
X80949903Y-124649500D01*
X76170940Y-124649500D01*
X76130019Y-124660464D01*
X76130019Y-124660465D01*
X76018216Y-124690423D01*
X76018214Y-124690424D01*
X76010366Y-124692527D01*
X76010180Y-124691834D01*
X75971637Y-124699500D01*
X75921155Y-124699500D01*
X75766510Y-124730261D01*
X75766498Y-124730264D01*
X75620827Y-124790602D01*
X75620814Y-124790609D01*
X75489711Y-124878210D01*
X75489707Y-124878213D01*
X75378213Y-124989707D01*
X75378210Y-124989711D01*
X75290609Y-125120814D01*
X75290602Y-125120827D01*
X75230264Y-125266498D01*
X75230261Y-125266510D01*
X75199500Y-125421153D01*
X75199500Y-125578846D01*
X75230261Y-125733489D01*
X75230264Y-125733501D01*
X75290602Y-125879172D01*
X75290609Y-125879185D01*
X75378210Y-126010288D01*
X75378213Y-126010292D01*
X75489707Y-126121786D01*
X75489711Y-126121789D01*
X75620814Y-126209390D01*
X75620827Y-126209397D01*
X75716977Y-126249223D01*
X75766503Y-126269737D01*
X75921153Y-126300499D01*
X75921156Y-126300500D01*
X75921158Y-126300500D01*
X76078844Y-126300500D01*
X76078845Y-126300499D01*
X76233497Y-126269737D01*
X76379179Y-126209394D01*
X76510289Y-126121789D01*
X76621789Y-126010289D01*
X76691734Y-125905608D01*
X76745346Y-125860804D01*
X76794836Y-125850500D01*
X78326958Y-125850500D01*
X78393997Y-125870185D01*
X78439752Y-125922989D01*
X78449696Y-125992147D01*
X78420671Y-126055703D01*
X78365276Y-126092431D01*
X78212396Y-126142103D01*
X78212393Y-126142104D01*
X78015974Y-126242187D01*
X77837641Y-126371752D01*
X77837636Y-126371756D01*
X77681756Y-126527636D01*
X77681752Y-126527641D01*
X77552187Y-126705974D01*
X77452104Y-126902393D01*
X77452103Y-126902396D01*
X77383985Y-127112047D01*
X77349500Y-127329778D01*
X77349500Y-127550221D01*
X77383985Y-127767952D01*
X77452103Y-127977603D01*
X77452104Y-127977606D01*
X77514733Y-128100520D01*
X77526708Y-128124022D01*
X77552187Y-128174025D01*
X77681752Y-128352358D01*
X77681756Y-128352363D01*
X77837636Y-128508243D01*
X77837641Y-128508247D01*
X77947154Y-128587812D01*
X78015978Y-128637815D01*
X78144375Y-128703237D01*
X78212393Y-128737895D01*
X78212396Y-128737896D01*
X78268159Y-128756014D01*
X78422049Y-128806015D01*
X78639778Y-128840500D01*
X78639779Y-128840500D01*
X78860221Y-128840500D01*
X78860222Y-128840500D01*
X79077951Y-128806015D01*
X79287606Y-128737895D01*
X79484022Y-128637815D01*
X79662365Y-128508242D01*
X79818242Y-128352365D01*
X79947815Y-128174022D01*
X80017906Y-128036460D01*
X80030344Y-128023291D01*
X80038645Y-128007189D01*
X80065492Y-127986075D01*
X80065879Y-127985666D01*
X80066123Y-127985524D01*
X80091904Y-127970639D01*
X80178716Y-127920520D01*
X80290520Y-127808716D01*
X80290520Y-127808714D01*
X80300728Y-127798507D01*
X80300729Y-127798504D01*
X82451586Y-125647648D01*
X84889500Y-125647648D01*
X84889500Y-125852351D01*
X84921522Y-126054534D01*
X84984781Y-126249223D01*
X85077715Y-126431613D01*
X85198028Y-126597213D01*
X85342786Y-126741971D01*
X85494772Y-126852393D01*
X85508390Y-126862287D01*
X85589499Y-126903614D01*
X85690776Y-126955218D01*
X85690778Y-126955218D01*
X85690781Y-126955220D01*
X85765818Y-126979601D01*
X85885465Y-127018477D01*
X85986557Y-127034488D01*
X86087648Y-127050500D01*
X86087649Y-127050500D01*
X86292351Y-127050500D01*
X86292352Y-127050500D01*
X86494534Y-127018477D01*
X86508842Y-127013827D01*
X86578682Y-127011831D01*
X86634842Y-127044077D01*
X89363181Y-129772416D01*
X89396666Y-129833739D01*
X89399500Y-129860097D01*
X89399500Y-142870397D01*
X89379815Y-142937436D01*
X89331800Y-142980879D01*
X89318389Y-142987712D01*
X89152786Y-143108028D01*
X89008028Y-143252786D01*
X88887713Y-143418388D01*
X88860203Y-143472379D01*
X88812228Y-143523175D01*
X88744407Y-143539969D01*
X88678272Y-143517431D01*
X88639234Y-143472378D01*
X88611858Y-143418650D01*
X88491581Y-143253105D01*
X88491581Y-143253104D01*
X88346894Y-143108417D01*
X88181348Y-142988140D01*
X87999028Y-142895244D01*
X87804412Y-142832009D01*
X87749999Y-142823390D01*
X87749999Y-144066988D01*
X87692992Y-144034075D01*
X87565825Y-144000000D01*
X87434173Y-144000000D01*
X87307006Y-144034075D01*
X87249999Y-144066988D01*
X87249999Y-142823390D01*
X87195585Y-142832009D01*
X87000969Y-142895244D01*
X86818649Y-142988140D01*
X86653104Y-143108417D01*
X86653103Y-143108417D01*
X86508416Y-143253104D01*
X86508416Y-143253105D01*
X86388139Y-143418650D01*
X86295243Y-143600968D01*
X86232008Y-143795582D01*
X86199999Y-143997682D01*
X86199999Y-144250000D01*
X87066987Y-144250000D01*
X87034074Y-144307007D01*
X86999999Y-144434174D01*
X86999999Y-144565826D01*
X87034074Y-144692993D01*
X87066987Y-144750000D01*
X86199999Y-144750000D01*
X86199999Y-145002317D01*
X86232008Y-145204417D01*
X86295243Y-145399031D01*
X86388139Y-145581349D01*
X86508416Y-145746894D01*
X86508416Y-145746895D01*
X86653103Y-145891582D01*
X86818649Y-146011859D01*
X87000967Y-146104754D01*
X87195577Y-146167988D01*
X87249999Y-146176607D01*
X87249999Y-144933012D01*
X87307006Y-144965925D01*
X87434173Y-145000000D01*
X87565825Y-145000000D01*
X87692992Y-144965925D01*
X87749999Y-144933012D01*
X87749999Y-146176606D01*
X87804420Y-146167988D01*
X87999030Y-146104754D01*
X88181348Y-146011859D01*
X88346893Y-145891582D01*
X88346894Y-145891582D01*
X88491581Y-145746895D01*
X88491581Y-145746894D01*
X88611860Y-145581347D01*
X88639234Y-145527622D01*
X88687208Y-145476826D01*
X88755028Y-145460030D01*
X88821164Y-145482567D01*
X88860204Y-145527621D01*
X88887715Y-145581613D01*
X89008028Y-145747213D01*
X89152786Y-145891971D01*
X89307749Y-146004556D01*
X89318390Y-146012287D01*
X89434607Y-146071503D01*
X89500776Y-146105218D01*
X89500778Y-146105218D01*
X89500781Y-146105220D01*
X89605137Y-146139127D01*
X89695465Y-146168477D01*
X89796557Y-146184488D01*
X89897648Y-146200500D01*
X89897649Y-146200500D01*
X90102351Y-146200500D01*
X90102352Y-146200500D01*
X90304534Y-146168477D01*
X90499219Y-146105220D01*
X90681610Y-146012287D01*
X90774590Y-145944732D01*
X90847213Y-145891971D01*
X90847215Y-145891968D01*
X90847219Y-145891966D01*
X90991966Y-145747219D01*
X90991968Y-145747215D01*
X90991971Y-145747213D01*
X91112286Y-145581611D01*
X91112420Y-145581349D01*
X91139515Y-145528171D01*
X91187489Y-145477376D01*
X91255310Y-145460580D01*
X91321445Y-145483117D01*
X91360484Y-145528170D01*
X91387714Y-145581611D01*
X91508029Y-145747213D01*
X91652787Y-145891971D01*
X91807750Y-146004556D01*
X91818391Y-146012287D01*
X91934608Y-146071503D01*
X92000777Y-146105218D01*
X92000779Y-146105218D01*
X92000782Y-146105220D01*
X92105138Y-146139127D01*
X92195466Y-146168477D01*
X92296558Y-146184488D01*
X92397649Y-146200500D01*
X92397650Y-146200500D01*
X92602352Y-146200500D01*
X92602353Y-146200500D01*
X92804535Y-146168477D01*
X92999220Y-146105220D01*
X93181611Y-146012287D01*
X93274591Y-145944732D01*
X93347214Y-145891971D01*
X93347216Y-145891968D01*
X93347220Y-145891966D01*
X93491967Y-145747219D01*
X93491969Y-145747215D01*
X93491972Y-145747213D01*
X93544733Y-145674590D01*
X93612288Y-145581610D01*
X93705221Y-145399219D01*
X93768478Y-145204534D01*
X93800501Y-145002352D01*
X93800501Y-143997648D01*
X93782754Y-143885602D01*
X93768478Y-143795465D01*
X93739128Y-143705137D01*
X93705221Y-143600781D01*
X93705219Y-143600778D01*
X93705219Y-143600776D01*
X93662472Y-143516881D01*
X93612288Y-143418390D01*
X93580764Y-143375000D01*
X93491972Y-143252786D01*
X93347214Y-143108028D01*
X93181614Y-142987715D01*
X93181613Y-142987714D01*
X93181611Y-142987713D01*
X93124654Y-142958691D01*
X92999224Y-142894781D01*
X92804535Y-142831522D01*
X92629996Y-142803878D01*
X92602353Y-142799500D01*
X92397649Y-142799500D01*
X92373330Y-142803351D01*
X92195466Y-142831522D01*
X92000777Y-142894781D01*
X91818387Y-142987715D01*
X91652787Y-143108028D01*
X91508029Y-143252786D01*
X91387715Y-143418386D01*
X91360484Y-143471830D01*
X91312509Y-143522625D01*
X91244688Y-143539419D01*
X91178553Y-143516881D01*
X91139515Y-143471828D01*
X91112287Y-143418390D01*
X91080763Y-143375000D01*
X90991971Y-143252786D01*
X90847213Y-143108028D01*
X90681610Y-142987712D01*
X90668200Y-142980879D01*
X90617406Y-142932903D01*
X90600500Y-142870397D01*
X90600500Y-137359568D01*
X91899500Y-137359568D01*
X91899500Y-137640431D01*
X91930942Y-137919494D01*
X91930945Y-137919512D01*
X91993439Y-138193317D01*
X91993443Y-138193329D01*
X92086200Y-138458411D01*
X92208053Y-138711442D01*
X92208055Y-138711445D01*
X92357477Y-138949248D01*
X92532584Y-139168825D01*
X92731175Y-139367416D01*
X92950752Y-139542523D01*
X93188555Y-139691945D01*
X93441592Y-139813801D01*
X93640680Y-139883465D01*
X93706670Y-139906556D01*
X93706682Y-139906560D01*
X93980491Y-139969055D01*
X93980497Y-139969055D01*
X93980505Y-139969057D01*
X94166547Y-139990018D01*
X94259569Y-140000499D01*
X94259572Y-140000500D01*
X94259575Y-140000500D01*
X94540428Y-140000500D01*
X94540429Y-140000499D01*
X94683055Y-139984429D01*
X94819494Y-139969057D01*
X94819499Y-139969056D01*
X94819509Y-139969055D01*
X95093318Y-139906560D01*
X95358408Y-139813801D01*
X95611445Y-139691945D01*
X95849248Y-139542523D01*
X96068825Y-139367416D01*
X96267416Y-139168825D01*
X96442523Y-138949248D01*
X96591945Y-138711445D01*
X96713801Y-138458408D01*
X96806560Y-138193318D01*
X96869055Y-137919509D01*
X96900500Y-137640425D01*
X96900500Y-137359575D01*
X96869055Y-137080491D01*
X96806560Y-136806682D01*
X96713801Y-136541592D01*
X96591945Y-136288555D01*
X96442523Y-136050752D01*
X96267416Y-135831175D01*
X96068825Y-135632584D01*
X95849248Y-135457477D01*
X95611445Y-135308055D01*
X95611442Y-135308053D01*
X95358411Y-135186200D01*
X95093329Y-135093443D01*
X95093317Y-135093439D01*
X94819512Y-135030945D01*
X94819494Y-135030942D01*
X94540431Y-134999500D01*
X94540425Y-134999500D01*
X94259575Y-134999500D01*
X94259568Y-134999500D01*
X93980505Y-135030942D01*
X93980487Y-135030945D01*
X93706682Y-135093439D01*
X93706670Y-135093443D01*
X93441588Y-135186200D01*
X93188557Y-135308053D01*
X92950753Y-135457476D01*
X92731175Y-135632583D01*
X92532583Y-135831175D01*
X92357476Y-136050753D01*
X92208053Y-136288557D01*
X92086200Y-136541588D01*
X91993443Y-136806670D01*
X91993439Y-136806682D01*
X91930945Y-137080487D01*
X91930942Y-137080505D01*
X91899500Y-137359568D01*
X90600500Y-137359568D01*
X90600500Y-129649060D01*
X90600501Y-129649047D01*
X90600501Y-129480944D01*
X90559576Y-129328214D01*
X90559573Y-129328209D01*
X90480524Y-129191290D01*
X90480518Y-129191282D01*
X87484077Y-126194842D01*
X87450592Y-126133519D01*
X87453828Y-126068841D01*
X87455992Y-126062181D01*
X87458477Y-126054534D01*
X87490500Y-125852352D01*
X87490500Y-125647648D01*
X92509500Y-125647648D01*
X92509500Y-125852351D01*
X92541522Y-126054534D01*
X92604781Y-126249223D01*
X92697715Y-126431613D01*
X92818028Y-126597213D01*
X92962786Y-126741971D01*
X93114772Y-126852393D01*
X93128390Y-126862287D01*
X93209499Y-126903614D01*
X93310776Y-126955218D01*
X93310778Y-126955218D01*
X93310781Y-126955220D01*
X93385818Y-126979601D01*
X93505465Y-127018477D01*
X93606557Y-127034488D01*
X93707648Y-127050500D01*
X93707649Y-127050500D01*
X93912351Y-127050500D01*
X93912352Y-127050500D01*
X94114534Y-127018477D01*
X94309219Y-126955220D01*
X94491610Y-126862287D01*
X94584590Y-126794732D01*
X94657213Y-126741971D01*
X94657215Y-126741968D01*
X94657219Y-126741966D01*
X94801966Y-126597219D01*
X94801968Y-126597215D01*
X94801971Y-126597213D01*
X94875579Y-126495898D01*
X94922287Y-126431610D01*
X95015220Y-126249219D01*
X95078477Y-126054534D01*
X95110500Y-125852352D01*
X95110500Y-125647648D01*
X95095841Y-125555095D01*
X95078477Y-125445465D01*
X95048615Y-125353561D01*
X95015220Y-125250781D01*
X95015218Y-125250778D01*
X95015218Y-125250776D01*
X94981503Y-125184607D01*
X94922287Y-125068390D01*
X94865124Y-124989711D01*
X94801971Y-124902786D01*
X94657213Y-124758028D01*
X94491613Y-124637715D01*
X94491612Y-124637714D01*
X94491610Y-124637713D01*
X94428787Y-124605703D01*
X94309223Y-124544781D01*
X94114534Y-124481522D01*
X93939995Y-124453878D01*
X93912352Y-124449500D01*
X93707648Y-124449500D01*
X93683329Y-124453351D01*
X93505465Y-124481522D01*
X93310776Y-124544781D01*
X93128386Y-124637715D01*
X92962786Y-124758028D01*
X92818028Y-124902786D01*
X92697715Y-125068386D01*
X92604781Y-125250776D01*
X92541522Y-125445465D01*
X92509500Y-125647648D01*
X87490500Y-125647648D01*
X87475841Y-125555095D01*
X87458477Y-125445465D01*
X87428615Y-125353561D01*
X87395220Y-125250781D01*
X87395218Y-125250778D01*
X87395218Y-125250776D01*
X87361503Y-125184607D01*
X87302287Y-125068390D01*
X87245124Y-124989711D01*
X87181971Y-124902786D01*
X87037213Y-124758028D01*
X86871613Y-124637715D01*
X86871612Y-124637714D01*
X86871610Y-124637713D01*
X86808787Y-124605703D01*
X86689223Y-124544781D01*
X86494534Y-124481522D01*
X86319995Y-124453878D01*
X86292352Y-124449500D01*
X86087648Y-124449500D01*
X86063329Y-124453351D01*
X85885465Y-124481522D01*
X85690776Y-124544781D01*
X85508386Y-124637715D01*
X85342786Y-124758028D01*
X85198028Y-124902786D01*
X85077715Y-125068386D01*
X84984781Y-125250776D01*
X84921522Y-125445465D01*
X84889500Y-125647648D01*
X82451586Y-125647648D01*
X84491416Y-123607819D01*
X84552739Y-123574334D01*
X84579097Y-123571500D01*
X89005664Y-123571500D01*
X89005680Y-123571501D01*
X89013276Y-123571501D01*
X89171387Y-123571501D01*
X89171390Y-123571501D01*
X89324118Y-123530577D01*
X89374237Y-123501639D01*
X89461049Y-123451520D01*
X89572853Y-123339716D01*
X89572853Y-123339714D01*
X89583061Y-123329507D01*
X89583063Y-123329504D01*
X91144919Y-121767648D01*
X92509500Y-121767648D01*
X92509500Y-121972351D01*
X92541522Y-122174534D01*
X92604781Y-122369223D01*
X92697715Y-122551613D01*
X92818028Y-122717213D01*
X92962786Y-122861971D01*
X93117749Y-122974556D01*
X93128390Y-122982287D01*
X93211030Y-123024394D01*
X93310776Y-123075218D01*
X93310778Y-123075218D01*
X93310781Y-123075220D01*
X93415137Y-123109127D01*
X93505465Y-123138477D01*
X93606557Y-123154488D01*
X93707648Y-123170500D01*
X93707649Y-123170500D01*
X93912351Y-123170500D01*
X93912352Y-123170500D01*
X94114534Y-123138477D01*
X94309219Y-123075220D01*
X94491610Y-122982287D01*
X94619067Y-122889685D01*
X94657213Y-122861971D01*
X94657215Y-122861968D01*
X94657219Y-122861966D01*
X94801966Y-122717219D01*
X94801968Y-122717215D01*
X94801971Y-122717213D01*
X94872599Y-122620000D01*
X94922287Y-122551610D01*
X95015220Y-122369219D01*
X95078477Y-122174534D01*
X95110500Y-121972352D01*
X95110500Y-121767648D01*
X95105312Y-121734892D01*
X95078477Y-121565465D01*
X95040328Y-121448057D01*
X95015220Y-121370781D01*
X95015218Y-121370778D01*
X95015218Y-121370776D01*
X94930625Y-121204755D01*
X94922287Y-121188390D01*
X94914167Y-121177213D01*
X94801971Y-121022786D01*
X94657213Y-120878028D01*
X94491613Y-120757715D01*
X94491612Y-120757714D01*
X94491610Y-120757713D01*
X94429215Y-120725921D01*
X94309223Y-120664781D01*
X94114534Y-120601522D01*
X93926406Y-120571726D01*
X93912352Y-120569500D01*
X93707648Y-120569500D01*
X93693594Y-120571726D01*
X93505465Y-120601522D01*
X93310776Y-120664781D01*
X93128386Y-120757715D01*
X92962786Y-120878028D01*
X92818028Y-121022786D01*
X92697715Y-121188386D01*
X92604781Y-121370776D01*
X92541522Y-121565465D01*
X92509500Y-121767648D01*
X91144919Y-121767648D01*
X93368491Y-119544075D01*
X93429812Y-119510592D01*
X93494484Y-119513825D01*
X93508799Y-119518477D01*
X93710981Y-119550500D01*
X93710982Y-119550500D01*
X93915684Y-119550500D01*
X93915685Y-119550500D01*
X94117867Y-119518477D01*
X94312552Y-119455220D01*
X94494943Y-119362287D01*
X94616356Y-119274076D01*
X94660546Y-119241971D01*
X94660548Y-119241968D01*
X94660552Y-119241966D01*
X94805299Y-119097219D01*
X94805301Y-119097215D01*
X94805304Y-119097213D01*
X94919524Y-118940000D01*
X94925620Y-118931610D01*
X95018553Y-118749219D01*
X95081810Y-118554534D01*
X95113833Y-118352352D01*
X95113833Y-118147648D01*
X95091431Y-118006207D01*
X95081810Y-117945465D01*
X95036018Y-117804534D01*
X95018553Y-117750781D01*
X95018551Y-117750778D01*
X95018551Y-117750776D01*
X94984836Y-117684607D01*
X94925620Y-117568390D01*
X94865373Y-117485466D01*
X94805304Y-117402786D01*
X94660546Y-117258028D01*
X94494946Y-117137715D01*
X94494945Y-117137714D01*
X94494943Y-117137713D01*
X94437386Y-117108386D01*
X94312556Y-117044781D01*
X94117867Y-116981522D01*
X93943328Y-116953878D01*
X93915685Y-116949500D01*
X93710981Y-116949500D01*
X93686662Y-116953351D01*
X93508798Y-116981522D01*
X93314109Y-117044781D01*
X93131719Y-117137715D01*
X92966119Y-117258028D01*
X92821361Y-117402786D01*
X92701048Y-117568386D01*
X92608114Y-117750776D01*
X92544855Y-117945465D01*
X92512833Y-118147648D01*
X92512833Y-118352351D01*
X92544855Y-118554534D01*
X92549506Y-118568848D01*
X92551498Y-118638690D01*
X92519254Y-118694842D01*
X88879917Y-122334181D01*
X88818594Y-122367666D01*
X88792236Y-122370500D01*
X87565476Y-122370500D01*
X87498437Y-122350815D01*
X87452682Y-122298011D01*
X87442738Y-122228853D01*
X87447545Y-122208183D01*
X87458475Y-122174542D01*
X87458475Y-122174538D01*
X87458477Y-122174534D01*
X87490500Y-121972352D01*
X87490500Y-121767648D01*
X87485312Y-121734892D01*
X87458477Y-121565465D01*
X87420328Y-121448057D01*
X87395220Y-121370781D01*
X87395218Y-121370778D01*
X87395218Y-121370776D01*
X87310625Y-121204755D01*
X87302287Y-121188390D01*
X87294167Y-121177213D01*
X87181971Y-121022786D01*
X87037213Y-120878028D01*
X86871613Y-120757714D01*
X86838129Y-120740653D01*
X86787334Y-120692678D01*
X86770540Y-120624857D01*
X86793078Y-120558722D01*
X86806738Y-120542495D01*
X87774853Y-119574383D01*
X87853910Y-119437451D01*
X87894834Y-119284724D01*
X87894834Y-119126609D01*
X87894834Y-119119014D01*
X87894833Y-119118996D01*
X87894833Y-98271945D01*
X87894832Y-98271941D01*
X87883664Y-98230261D01*
X87881685Y-98222873D01*
X87853910Y-98119215D01*
X87784630Y-97999219D01*
X87774853Y-97982284D01*
X87663049Y-97870480D01*
X87663046Y-97870478D01*
X87487410Y-97694842D01*
X87453925Y-97633519D01*
X87457161Y-97568841D01*
X87461810Y-97554534D01*
X87493833Y-97352352D01*
X87493833Y-97147648D01*
X87479184Y-97055157D01*
X87461810Y-96945465D01*
X87407114Y-96777129D01*
X87398553Y-96750781D01*
X87398551Y-96750778D01*
X87398551Y-96750776D01*
X87348619Y-96652781D01*
X87305620Y-96568390D01*
X87266556Y-96514622D01*
X87185304Y-96402786D01*
X87040546Y-96258028D01*
X86874946Y-96137715D01*
X86874945Y-96137714D01*
X86874943Y-96137713D01*
X86817986Y-96108691D01*
X86692556Y-96044781D01*
X86497867Y-95981522D01*
X86323328Y-95953878D01*
X86295685Y-95949500D01*
X86090981Y-95949500D01*
X86066662Y-95953351D01*
X85888798Y-95981522D01*
X85694109Y-96044781D01*
X85511719Y-96137715D01*
X85346119Y-96258028D01*
X85201361Y-96402786D01*
X85081045Y-96568390D01*
X85080224Y-96569730D01*
X85079779Y-96570131D01*
X85078182Y-96572331D01*
X85077719Y-96571995D01*
X85028411Y-96616603D01*
X84959480Y-96628022D01*
X84895319Y-96600362D01*
X84856297Y-96542405D01*
X84850500Y-96504935D01*
X84850500Y-94420945D01*
X84850500Y-94420943D01*
X84809577Y-94268216D01*
X84803228Y-94257219D01*
X84730524Y-94131290D01*
X84730521Y-94131286D01*
X84730520Y-94131284D01*
X84618716Y-94019480D01*
X84618715Y-94019479D01*
X84614385Y-94015149D01*
X84614374Y-94015139D01*
X83597590Y-92998355D01*
X83597588Y-92998352D01*
X83478717Y-92879481D01*
X83478709Y-92879475D01*
X83357916Y-92809736D01*
X83357913Y-92809735D01*
X83357911Y-92809734D01*
X83341785Y-92800423D01*
X83189057Y-92759499D01*
X83030943Y-92759499D01*
X83023347Y-92759499D01*
X83023331Y-92759500D01*
X82579766Y-92759500D01*
X82512727Y-92739815D01*
X82510875Y-92738602D01*
X82379185Y-92650609D01*
X82379172Y-92650602D01*
X82233501Y-92590264D01*
X82233489Y-92590261D01*
X82078845Y-92559500D01*
X82078842Y-92559500D01*
X81921158Y-92559500D01*
X81921155Y-92559500D01*
X81766510Y-92590261D01*
X81766498Y-92590264D01*
X81620827Y-92650602D01*
X81620814Y-92650609D01*
X81489711Y-92738210D01*
X81489707Y-92738213D01*
X81378213Y-92849707D01*
X81378210Y-92849711D01*
X81290609Y-92980814D01*
X81290602Y-92980827D01*
X81230264Y-93126498D01*
X81230261Y-93126510D01*
X81199500Y-93281153D01*
X81199500Y-93438846D01*
X81230261Y-93593489D01*
X81230264Y-93593501D01*
X81290602Y-93739172D01*
X81290609Y-93739185D01*
X81378210Y-93870288D01*
X81378213Y-93870292D01*
X81489707Y-93981786D01*
X81489711Y-93981789D01*
X81620814Y-94069390D01*
X81620827Y-94069397D01*
X81756556Y-94125617D01*
X81766503Y-94129737D01*
X81921153Y-94160499D01*
X81921156Y-94160500D01*
X81921158Y-94160500D01*
X82078844Y-94160500D01*
X82078845Y-94160499D01*
X82233497Y-94129737D01*
X82379179Y-94069394D01*
X82401419Y-94054534D01*
X82510875Y-93981398D01*
X82528921Y-93975747D01*
X82544831Y-93965523D01*
X82575792Y-93961071D01*
X82577553Y-93960520D01*
X82579766Y-93960500D01*
X82809903Y-93960500D01*
X82876942Y-93980185D01*
X82897584Y-93996819D01*
X83613181Y-94712416D01*
X83646666Y-94773739D01*
X83649500Y-94800097D01*
X83649500Y-98723330D01*
X83649499Y-98723348D01*
X83649499Y-98889054D01*
X83649498Y-98889054D01*
X83690423Y-99041786D01*
X83703287Y-99064065D01*
X83703288Y-99064070D01*
X83703289Y-99064070D01*
X83769475Y-99178709D01*
X83769481Y-99178717D01*
X83888349Y-99297585D01*
X83888355Y-99297590D01*
X84895922Y-100305157D01*
X84929407Y-100366480D01*
X84926173Y-100431154D01*
X84924365Y-100436717D01*
X84921522Y-100445468D01*
X84889500Y-100647648D01*
X84889500Y-100852351D01*
X84921522Y-101054534D01*
X84926173Y-101068848D01*
X84928165Y-101138690D01*
X84895921Y-101194842D01*
X84327584Y-101763181D01*
X84266261Y-101796666D01*
X84239903Y-101799500D01*
X80886670Y-101799500D01*
X80886654Y-101799499D01*
X80879058Y-101799499D01*
X80720943Y-101799499D01*
X80644579Y-101819961D01*
X80568214Y-101840423D01*
X80568209Y-101840426D01*
X80431290Y-101919475D01*
X80431282Y-101919481D01*
X75119481Y-107231282D01*
X75119479Y-107231285D01*
X75094420Y-107274689D01*
X75084031Y-107292685D01*
X75069361Y-107318094D01*
X75069359Y-107318096D01*
X75040425Y-107368209D01*
X75040424Y-107368210D01*
X75040423Y-107368215D01*
X74999499Y-107520943D01*
X74999499Y-107520945D01*
X74999499Y-107689046D01*
X74999500Y-107689059D01*
X74999500Y-113332351D01*
X74979815Y-113399390D01*
X74927011Y-113445145D01*
X74857853Y-113455089D01*
X74851310Y-113453969D01*
X74828842Y-113449500D01*
X74671158Y-113449500D01*
X74671155Y-113449500D01*
X74516510Y-113480261D01*
X74516503Y-113480263D01*
X74420951Y-113519841D01*
X74351482Y-113527309D01*
X74289003Y-113496033D01*
X74253351Y-113435944D01*
X74249500Y-113405279D01*
X74249500Y-109949942D01*
X74246357Y-109938215D01*
X74246356Y-109938211D01*
X74226864Y-109865466D01*
X74226864Y-109865465D01*
X74208577Y-109797216D01*
X74208576Y-109797213D01*
X74129524Y-109660290D01*
X74129521Y-109660286D01*
X74129520Y-109660284D01*
X74017716Y-109548480D01*
X74017715Y-109548479D01*
X74013385Y-109544149D01*
X74013374Y-109544139D01*
X72959742Y-108490507D01*
X72926257Y-108429184D01*
X72929717Y-108363823D01*
X72939999Y-108332797D01*
X72950500Y-108230009D01*
X72950499Y-107029992D01*
X72939999Y-106927203D01*
X72884814Y-106760666D01*
X72792712Y-106611344D01*
X72668656Y-106487288D01*
X72519334Y-106395186D01*
X72352797Y-106340001D01*
X72352795Y-106340000D01*
X72250010Y-106329500D01*
X70249998Y-106329500D01*
X70249981Y-106329501D01*
X70147203Y-106340000D01*
X70147200Y-106340001D01*
X69980668Y-106395185D01*
X69980663Y-106395187D01*
X69831342Y-106487289D01*
X69707289Y-106611342D01*
X69615187Y-106760663D01*
X69615185Y-106760668D01*
X69596059Y-106818386D01*
X69560001Y-106927203D01*
X69560001Y-106927204D01*
X69560000Y-106927204D01*
X69549500Y-107029983D01*
X67801500Y-107029983D01*
X67801500Y-103890462D01*
X67821185Y-103823423D01*
X67837819Y-103802781D01*
X69833781Y-101806819D01*
X69895104Y-101773334D01*
X69921462Y-101770500D01*
X71457885Y-101770500D01*
X71524924Y-101790185D01*
X71570679Y-101842989D01*
X71574067Y-101851167D01*
X71606202Y-101937328D01*
X71606206Y-101937335D01*
X71692452Y-102052544D01*
X71692455Y-102052547D01*
X71807664Y-102138793D01*
X71807671Y-102138797D01*
X71942517Y-102189091D01*
X71942516Y-102189091D01*
X71949444Y-102189835D01*
X72002127Y-102195500D01*
X73997872Y-102195499D01*
X74057483Y-102189091D01*
X74192331Y-102138796D01*
X74201186Y-102132166D01*
X74266649Y-102107747D01*
X74334923Y-102122596D01*
X74384330Y-102172000D01*
X74399500Y-102231431D01*
X74399500Y-103420234D01*
X74379815Y-103487273D01*
X74378602Y-103489125D01*
X74290609Y-103620814D01*
X74290602Y-103620827D01*
X74230264Y-103766498D01*
X74230261Y-103766510D01*
X74199500Y-103921153D01*
X74199500Y-104078846D01*
X74230261Y-104233489D01*
X74230264Y-104233501D01*
X74290602Y-104379172D01*
X74290609Y-104379185D01*
X74378210Y-104510288D01*
X74378213Y-104510292D01*
X74489707Y-104621786D01*
X74489711Y-104621789D01*
X74620814Y-104709390D01*
X74620827Y-104709397D01*
X74766498Y-104769735D01*
X74766503Y-104769737D01*
X74921153Y-104800499D01*
X74921156Y-104800500D01*
X74921158Y-104800500D01*
X75078844Y-104800500D01*
X75078845Y-104800499D01*
X75233497Y-104769737D01*
X75379179Y-104709394D01*
X75510289Y-104621789D01*
X75621789Y-104510289D01*
X75709394Y-104379179D01*
X75769737Y-104233497D01*
X75800500Y-104078842D01*
X75800500Y-103921158D01*
X75800500Y-103921155D01*
X75800499Y-103921153D01*
X75788155Y-103859095D01*
X75769737Y-103766503D01*
X75756062Y-103733489D01*
X75709397Y-103620827D01*
X75709390Y-103620814D01*
X75621398Y-103489125D01*
X75600520Y-103422447D01*
X75600500Y-103420234D01*
X75600500Y-101832921D01*
X75620185Y-101765882D01*
X75672989Y-101720127D01*
X75742147Y-101710183D01*
X75805703Y-101739208D01*
X75824821Y-101760039D01*
X75828760Y-101765461D01*
X75959540Y-101896241D01*
X75959545Y-101896245D01*
X76109162Y-102004947D01*
X76273956Y-102088915D01*
X76273959Y-102088916D01*
X76449852Y-102146066D01*
X76632527Y-102175000D01*
X76750000Y-102175000D01*
X76750000Y-101280330D01*
X76769745Y-101300075D01*
X76855255Y-101349444D01*
X76950630Y-101375000D01*
X77049370Y-101375000D01*
X77144745Y-101349444D01*
X77230255Y-101300075D01*
X77250000Y-101280330D01*
X77250000Y-102175000D01*
X77367473Y-102175000D01*
X77550147Y-102146066D01*
X77726040Y-102088916D01*
X77726043Y-102088915D01*
X77890837Y-102004947D01*
X78040454Y-101896245D01*
X78040459Y-101896241D01*
X78171241Y-101765459D01*
X78171245Y-101765454D01*
X78279947Y-101615837D01*
X78363915Y-101451043D01*
X78363917Y-101451037D01*
X78421067Y-101275144D01*
X78425049Y-101250000D01*
X77280330Y-101250000D01*
X77300075Y-101230255D01*
X77349444Y-101144745D01*
X77375000Y-101049370D01*
X77375000Y-100950630D01*
X77349444Y-100855255D01*
X77300075Y-100769745D01*
X77280330Y-100750000D01*
X78425050Y-100750000D01*
X78425049Y-100749999D01*
X78421067Y-100724855D01*
X78363917Y-100548962D01*
X78363915Y-100548956D01*
X78279947Y-100384162D01*
X78171245Y-100234545D01*
X78171241Y-100234540D01*
X78159735Y-100223034D01*
X78126250Y-100161711D01*
X78131234Y-100092019D01*
X78159736Y-100047671D01*
X78171621Y-100035787D01*
X78280378Y-99886096D01*
X78364379Y-99721235D01*
X78421555Y-99545264D01*
X78450500Y-99362514D01*
X78450500Y-99177486D01*
X78421555Y-98994736D01*
X78397647Y-98921153D01*
X79949500Y-98921153D01*
X79949500Y-99078846D01*
X79980261Y-99233489D01*
X79980264Y-99233501D01*
X80040602Y-99379172D01*
X80040609Y-99379185D01*
X80128210Y-99510288D01*
X80128213Y-99510292D01*
X80239710Y-99621789D01*
X80358606Y-99701232D01*
X80370821Y-99709394D01*
X80394475Y-99719191D01*
X80434703Y-99746071D01*
X81753927Y-101065295D01*
X81780807Y-101105523D01*
X81790604Y-101129175D01*
X81790609Y-101129185D01*
X81878210Y-101260288D01*
X81878213Y-101260292D01*
X81989707Y-101371786D01*
X81989711Y-101371789D01*
X82120814Y-101459390D01*
X82120827Y-101459397D01*
X82266498Y-101519735D01*
X82266503Y-101519737D01*
X82421153Y-101550499D01*
X82421156Y-101550500D01*
X82421158Y-101550500D01*
X82578844Y-101550500D01*
X82578845Y-101550499D01*
X82733497Y-101519737D01*
X82879179Y-101459394D01*
X83010289Y-101371789D01*
X83121789Y-101260289D01*
X83209394Y-101129179D01*
X83269737Y-100983497D01*
X83300500Y-100828842D01*
X83300500Y-100671158D01*
X83300500Y-100671155D01*
X83300499Y-100671153D01*
X83296402Y-100650556D01*
X83269737Y-100516503D01*
X83269735Y-100516498D01*
X83209397Y-100370827D01*
X83209390Y-100370814D01*
X83121789Y-100239711D01*
X83121786Y-100239707D01*
X83010292Y-100128213D01*
X83010288Y-100128210D01*
X82879185Y-100040609D01*
X82879175Y-100040604D01*
X82855523Y-100030807D01*
X82815295Y-100003927D01*
X81496071Y-98684703D01*
X81469191Y-98644475D01*
X81459394Y-98620821D01*
X81439653Y-98591276D01*
X81371789Y-98489710D01*
X81260292Y-98378213D01*
X81260288Y-98378210D01*
X81129185Y-98290609D01*
X81129172Y-98290602D01*
X80983501Y-98230264D01*
X80983489Y-98230261D01*
X80828845Y-98199500D01*
X80828842Y-98199500D01*
X80671158Y-98199500D01*
X80671155Y-98199500D01*
X80516510Y-98230261D01*
X80516498Y-98230264D01*
X80370827Y-98290602D01*
X80370814Y-98290609D01*
X80239711Y-98378210D01*
X80239707Y-98378213D01*
X80128213Y-98489707D01*
X80128210Y-98489711D01*
X80040609Y-98620814D01*
X80040602Y-98620827D01*
X79980264Y-98766498D01*
X79980261Y-98766510D01*
X79949500Y-98921153D01*
X78397647Y-98921153D01*
X78364379Y-98818765D01*
X78289484Y-98671776D01*
X78276589Y-98603110D01*
X78302320Y-98539712D01*
X78302231Y-98539646D01*
X78302484Y-98539307D01*
X78302865Y-98538370D01*
X78304862Y-98536130D01*
X78307543Y-98532547D01*
X78307546Y-98532546D01*
X78393796Y-98417331D01*
X78444091Y-98282483D01*
X78450500Y-98222873D01*
X78450499Y-96777128D01*
X78444091Y-96717517D01*
X78432421Y-96686229D01*
X78393797Y-96582671D01*
X78393793Y-96582664D01*
X78307547Y-96467455D01*
X78307544Y-96467452D01*
X78192335Y-96381206D01*
X78192328Y-96381202D01*
X78057482Y-96330908D01*
X78057483Y-96330908D01*
X77997883Y-96324501D01*
X77997881Y-96324500D01*
X77997873Y-96324500D01*
X77997864Y-96324500D01*
X76002129Y-96324500D01*
X76002123Y-96324501D01*
X75942516Y-96330908D01*
X75807671Y-96381202D01*
X75807665Y-96381206D01*
X75798810Y-96387835D01*
X75733346Y-96412252D01*
X75665073Y-96397400D01*
X75615668Y-96347995D01*
X75600500Y-96288568D01*
X75600500Y-94714889D01*
X75601629Y-94711041D01*
X75600743Y-94707132D01*
X75611392Y-94677793D01*
X75620185Y-94647850D01*
X75623608Y-94644140D01*
X75624583Y-94641455D01*
X75642871Y-94623266D01*
X75649319Y-94616280D01*
X75650432Y-94615430D01*
X75765787Y-94531621D01*
X75783202Y-94514205D01*
X75789819Y-94509161D01*
X75814986Y-94499520D01*
X75838642Y-94486604D01*
X75847125Y-94487210D01*
X75855066Y-94484169D01*
X75881448Y-94489665D01*
X75908334Y-94491588D01*
X75916802Y-94497030D01*
X75923467Y-94498419D01*
X75931983Y-94506787D01*
X75952681Y-94520089D01*
X75964213Y-94531621D01*
X76113904Y-94640378D01*
X76175634Y-94671831D01*
X76278764Y-94724379D01*
X76278767Y-94724380D01*
X76366750Y-94752967D01*
X76454736Y-94781555D01*
X76637486Y-94810500D01*
X76637487Y-94810500D01*
X76822513Y-94810500D01*
X76822514Y-94810500D01*
X77005264Y-94781555D01*
X77181235Y-94724379D01*
X77346096Y-94640378D01*
X77495787Y-94531621D01*
X77626621Y-94400787D01*
X77735378Y-94251096D01*
X77819379Y-94086235D01*
X77876555Y-93910264D01*
X77905500Y-93727514D01*
X77905500Y-92992486D01*
X77876555Y-92809736D01*
X77847967Y-92721750D01*
X77819380Y-92633767D01*
X77819379Y-92633764D01*
X77763507Y-92524110D01*
X77735378Y-92468904D01*
X77626621Y-92319213D01*
X77495787Y-92188379D01*
X77425045Y-92136982D01*
X77382381Y-92081653D01*
X77376402Y-92012039D01*
X77409008Y-91950244D01*
X77469847Y-91915887D01*
X77517329Y-91914192D01*
X77572940Y-91923000D01*
X77572941Y-91923000D01*
X77777643Y-91923000D01*
X77777644Y-91923000D01*
X77979826Y-91890977D01*
X78174511Y-91827720D01*
X78356902Y-91734787D01*
X78370250Y-91725089D01*
X78377612Y-91719741D01*
X78443418Y-91696261D01*
X78511472Y-91712086D01*
X78560167Y-91762192D01*
X78574497Y-91820059D01*
X78574497Y-91994852D01*
X78574619Y-91995620D01*
X78606519Y-92197034D01*
X78669778Y-92391723D01*
X78727961Y-92505912D01*
X78756940Y-92562786D01*
X78762712Y-92574113D01*
X78883025Y-92739713D01*
X79027783Y-92884471D01*
X79174804Y-92991286D01*
X79193387Y-93004787D01*
X79277644Y-93047718D01*
X79375773Y-93097718D01*
X79375775Y-93097718D01*
X79375778Y-93097720D01*
X79473648Y-93129520D01*
X79570462Y-93160977D01*
X79660508Y-93175239D01*
X79772645Y-93193000D01*
X79772646Y-93193000D01*
X79977348Y-93193000D01*
X79977349Y-93193000D01*
X80179531Y-93160977D01*
X80374216Y-93097720D01*
X80556607Y-93004787D01*
X80660259Y-92929480D01*
X80722210Y-92884471D01*
X80722212Y-92884468D01*
X80722216Y-92884466D01*
X80866963Y-92739719D01*
X80866965Y-92739715D01*
X80866968Y-92739713D01*
X80937438Y-92642718D01*
X80987284Y-92574110D01*
X81080217Y-92391719D01*
X81143474Y-92197034D01*
X81175497Y-91994852D01*
X81175497Y-91790148D01*
X81165193Y-91725089D01*
X81143474Y-91587965D01*
X81080215Y-91393276D01*
X81046500Y-91327107D01*
X80987284Y-91210890D01*
X80979553Y-91200249D01*
X80866968Y-91045286D01*
X80722210Y-90900528D01*
X80556610Y-90780215D01*
X80556609Y-90780214D01*
X80556607Y-90780213D01*
X80481543Y-90741966D01*
X80374220Y-90687281D01*
X80179531Y-90624022D01*
X80004992Y-90596378D01*
X79977349Y-90592000D01*
X79772645Y-90592000D01*
X79748326Y-90595851D01*
X79570462Y-90624022D01*
X79375773Y-90687281D01*
X79193384Y-90780214D01*
X79172675Y-90795260D01*
X79106868Y-90818738D01*
X79038814Y-90802911D01*
X78990121Y-90752804D01*
X78975792Y-90694940D01*
X78975792Y-90520148D01*
X78943769Y-90317965D01*
X78906669Y-90203784D01*
X78880512Y-90123281D01*
X78880510Y-90123278D01*
X78880510Y-90123276D01*
X78825063Y-90014457D01*
X78787579Y-89940890D01*
X78776950Y-89926260D01*
X78667263Y-89775286D01*
X78522505Y-89630528D01*
X78356905Y-89510215D01*
X78356904Y-89510214D01*
X78356902Y-89510213D01*
X78240879Y-89451096D01*
X78174515Y-89417281D01*
X77979826Y-89354022D01*
X77805287Y-89326378D01*
X77777644Y-89322000D01*
X77572940Y-89322000D01*
X77548621Y-89325851D01*
X77370757Y-89354022D01*
X77176068Y-89417281D01*
X76993678Y-89510215D01*
X76828078Y-89630528D01*
X76683320Y-89775286D01*
X76563007Y-89940886D01*
X76470073Y-90123276D01*
X76406814Y-90317965D01*
X76374792Y-90520148D01*
X76374792Y-90724851D01*
X76406814Y-90927034D01*
X76470073Y-91121723D01*
X76563007Y-91304113D01*
X76683320Y-91469713D01*
X76828074Y-91614467D01*
X76828079Y-91614471D01*
X76931049Y-91689283D01*
X76973715Y-91744613D01*
X76979694Y-91814226D01*
X76947089Y-91876021D01*
X76886250Y-91910378D01*
X76838770Y-91912074D01*
X76822514Y-91909500D01*
X76637486Y-91909500D01*
X76597028Y-91915908D01*
X76454734Y-91938445D01*
X76278767Y-91995619D01*
X76278764Y-91995620D01*
X76113903Y-92079622D01*
X76048472Y-92127161D01*
X75964213Y-92188379D01*
X75964211Y-92188381D01*
X75964210Y-92188381D01*
X75952681Y-92199911D01*
X75891358Y-92233396D01*
X75821666Y-92228412D01*
X75777319Y-92199911D01*
X75765789Y-92188381D01*
X75765787Y-92188379D01*
X75616096Y-92079622D01*
X75598221Y-92070514D01*
X75451235Y-91995620D01*
X75451232Y-91995619D01*
X75275265Y-91938445D01*
X75132972Y-91915908D01*
X75092514Y-91909500D01*
X74907486Y-91909500D01*
X74867028Y-91915908D01*
X74724734Y-91938445D01*
X74548767Y-91995619D01*
X74548764Y-91995620D01*
X74401779Y-92070514D01*
X74333110Y-92083410D01*
X74269713Y-92057679D01*
X74269646Y-92057769D01*
X74269305Y-92057514D01*
X74268369Y-92057134D01*
X74266129Y-92055136D01*
X74212042Y-92014647D01*
X74147331Y-91966204D01*
X74147329Y-91966203D01*
X74147328Y-91966202D01*
X74012482Y-91915908D01*
X74012483Y-91915908D01*
X73952883Y-91909501D01*
X73952881Y-91909500D01*
X73952873Y-91909500D01*
X73952865Y-91909500D01*
X72938660Y-91909500D01*
X72871621Y-91889815D01*
X72825866Y-91837011D01*
X72815922Y-91767853D01*
X72844947Y-91704297D01*
X72865775Y-91685181D01*
X72866313Y-91684789D01*
X72866319Y-91684787D01*
X73031928Y-91564466D01*
X73176675Y-91419719D01*
X73176677Y-91419715D01*
X73176680Y-91419713D01*
X73260669Y-91304110D01*
X73296996Y-91254110D01*
X73389929Y-91071719D01*
X73453186Y-90877034D01*
X73485209Y-90674852D01*
X73485209Y-90470148D01*
X73453186Y-90267966D01*
X73389929Y-90073281D01*
X73389927Y-90073278D01*
X73389927Y-90073276D01*
X73356212Y-90007107D01*
X73296996Y-89890890D01*
X73268996Y-89852351D01*
X73176680Y-89725286D01*
X73031922Y-89580528D01*
X72866322Y-89460215D01*
X72866321Y-89460214D01*
X72866319Y-89460213D01*
X72806866Y-89429920D01*
X72683932Y-89367281D01*
X72489243Y-89304022D01*
X72314704Y-89276378D01*
X72287061Y-89272000D01*
X72082357Y-89272000D01*
X72058038Y-89275851D01*
X71880174Y-89304022D01*
X71685485Y-89367281D01*
X71503095Y-89460215D01*
X71337495Y-89580528D01*
X71192737Y-89725286D01*
X71072424Y-89890885D01*
X71065592Y-89904295D01*
X71017618Y-89955091D01*
X70955107Y-89972000D01*
X69506557Y-89972000D01*
X69348443Y-89972000D01*
X69195715Y-90012923D01*
X69195714Y-90012923D01*
X69195712Y-90012924D01*
X69195709Y-90012925D01*
X69145596Y-90041859D01*
X69145595Y-90041860D01*
X69123643Y-90054534D01*
X69058785Y-90091979D01*
X69058782Y-90091981D01*
X68911181Y-90239583D01*
X68849858Y-90273068D01*
X68780166Y-90268084D01*
X68724233Y-90226212D01*
X68699816Y-90160748D01*
X68699500Y-90151902D01*
X68699500Y-89451096D01*
X68719185Y-89384057D01*
X68735814Y-89363420D01*
X70438506Y-87660727D01*
X70438511Y-87660724D01*
X70448714Y-87650520D01*
X70448716Y-87650520D01*
X70560520Y-87538716D01*
X70622257Y-87431784D01*
X70639577Y-87401785D01*
X70680500Y-87249057D01*
X70680500Y-87090943D01*
X70680500Y-86852648D01*
X73699500Y-86852648D01*
X73699500Y-87057351D01*
X73731522Y-87259534D01*
X73794781Y-87454223D01*
X73887715Y-87636613D01*
X74008028Y-87802213D01*
X74152786Y-87946971D01*
X74268329Y-88030916D01*
X74318390Y-88067287D01*
X74409840Y-88113883D01*
X74411080Y-88114515D01*
X74461876Y-88162490D01*
X74478671Y-88230311D01*
X74456134Y-88296446D01*
X74411080Y-88335485D01*
X74318386Y-88382715D01*
X74152786Y-88503028D01*
X74008028Y-88647786D01*
X73887715Y-88813386D01*
X73794781Y-88995776D01*
X73731522Y-89190465D01*
X73699500Y-89392648D01*
X73699500Y-89597351D01*
X73731522Y-89799534D01*
X73794781Y-89994223D01*
X73855470Y-90113330D01*
X73860540Y-90123281D01*
X73887715Y-90176613D01*
X74008028Y-90342213D01*
X74152786Y-90486971D01*
X74297349Y-90592000D01*
X74318390Y-90607287D01*
X74434607Y-90666503D01*
X74500776Y-90700218D01*
X74500778Y-90700218D01*
X74500781Y-90700220D01*
X74605137Y-90734127D01*
X74695465Y-90763477D01*
X74796557Y-90779488D01*
X74897648Y-90795500D01*
X74897649Y-90795500D01*
X75102351Y-90795500D01*
X75102352Y-90795500D01*
X75304534Y-90763477D01*
X75499219Y-90700220D01*
X75681610Y-90607287D01*
X75801548Y-90520148D01*
X75847213Y-90486971D01*
X75847215Y-90486968D01*
X75847219Y-90486966D01*
X75991966Y-90342219D01*
X75991968Y-90342215D01*
X75991971Y-90342213D01*
X76076249Y-90226212D01*
X76112287Y-90176610D01*
X76205220Y-89994219D01*
X76268477Y-89799534D01*
X76300500Y-89597352D01*
X76300500Y-89392648D01*
X76268477Y-89190466D01*
X76263825Y-89176151D01*
X76261832Y-89106312D01*
X76294075Y-89050158D01*
X77888506Y-87455728D01*
X77888511Y-87455724D01*
X77898714Y-87445520D01*
X77898716Y-87445520D01*
X78010520Y-87333716D01*
X78077521Y-87217666D01*
X78089577Y-87196785D01*
X78130500Y-87044058D01*
X78130500Y-86885943D01*
X78130500Y-85147648D01*
X81699500Y-85147648D01*
X81699500Y-85352351D01*
X81731522Y-85554534D01*
X81794781Y-85749223D01*
X81887715Y-85931613D01*
X82008028Y-86097213D01*
X82008034Y-86097219D01*
X82152781Y-86241966D01*
X82318390Y-86362287D01*
X82331793Y-86369116D01*
X82382589Y-86417088D01*
X82399500Y-86479601D01*
X82399500Y-90113330D01*
X82399499Y-90113348D01*
X82399499Y-90279054D01*
X82399498Y-90279054D01*
X82399499Y-90279057D01*
X82440376Y-90431610D01*
X82440424Y-90431787D01*
X82450629Y-90449462D01*
X82450630Y-90449464D01*
X82519477Y-90568712D01*
X82519481Y-90568717D01*
X82638349Y-90687585D01*
X82638355Y-90687590D01*
X84915921Y-92965157D01*
X84949406Y-93026480D01*
X84946173Y-93091149D01*
X84941523Y-93105460D01*
X84941523Y-93105462D01*
X84909500Y-93307648D01*
X84909500Y-93512351D01*
X84941522Y-93714534D01*
X85004781Y-93909223D01*
X85058072Y-94013811D01*
X85094974Y-94086235D01*
X85097715Y-94091613D01*
X85218028Y-94257213D01*
X85362786Y-94401971D01*
X85507056Y-94506787D01*
X85528390Y-94522287D01*
X85644607Y-94581503D01*
X85710776Y-94615218D01*
X85710778Y-94615218D01*
X85710781Y-94615220D01*
X85791524Y-94641455D01*
X85905465Y-94678477D01*
X85933555Y-94682926D01*
X86107648Y-94710500D01*
X86107649Y-94710500D01*
X86312351Y-94710500D01*
X86312352Y-94710500D01*
X86514534Y-94678477D01*
X86679799Y-94624778D01*
X86749635Y-94622783D01*
X86805794Y-94655029D01*
X89765139Y-97614374D01*
X89765149Y-97614385D01*
X89769479Y-97618715D01*
X89769480Y-97618716D01*
X89881284Y-97730520D01*
X89957890Y-97774748D01*
X89957891Y-97774749D01*
X90018209Y-97809574D01*
X90018210Y-97809574D01*
X90018215Y-97809577D01*
X90170943Y-97850500D01*
X92583731Y-97850500D01*
X92650770Y-97870185D01*
X92694216Y-97918205D01*
X92701048Y-97931614D01*
X92821361Y-98097213D01*
X92966119Y-98241971D01*
X93115030Y-98350159D01*
X93131723Y-98362287D01*
X93209737Y-98402037D01*
X93314109Y-98455218D01*
X93314111Y-98455218D01*
X93314114Y-98455220D01*
X93390601Y-98480072D01*
X93508798Y-98518477D01*
X93585093Y-98530561D01*
X93710981Y-98550500D01*
X93710982Y-98550500D01*
X93915684Y-98550500D01*
X93915685Y-98550500D01*
X94117867Y-98518477D01*
X94117872Y-98518475D01*
X94117874Y-98518475D01*
X94151513Y-98507545D01*
X94221354Y-98505548D01*
X94281187Y-98541628D01*
X94312017Y-98604328D01*
X94313833Y-98625475D01*
X94313833Y-99345567D01*
X94305188Y-99375008D01*
X94298664Y-99404996D01*
X94294910Y-99410010D01*
X94294148Y-99412606D01*
X94277512Y-99433250D01*
X94254838Y-99455923D01*
X94193514Y-99489407D01*
X94128843Y-99486172D01*
X94114533Y-99481522D01*
X93944374Y-99454571D01*
X93912352Y-99449500D01*
X93707648Y-99449500D01*
X93683329Y-99453351D01*
X93505465Y-99481522D01*
X93310776Y-99544781D01*
X93128386Y-99637715D01*
X92962786Y-99758028D01*
X92818028Y-99902786D01*
X92697715Y-100068386D01*
X92604781Y-100250776D01*
X92541522Y-100445465D01*
X92509500Y-100647648D01*
X92509500Y-100852351D01*
X92541522Y-101054534D01*
X92604781Y-101249223D01*
X92697715Y-101431613D01*
X92818028Y-101597213D01*
X92818034Y-101597219D01*
X92962781Y-101741966D01*
X93128390Y-101862287D01*
X93141793Y-101869116D01*
X93192589Y-101917088D01*
X93209500Y-101979601D01*
X93209500Y-105856280D01*
X93209499Y-105856298D01*
X93209499Y-106022004D01*
X93209498Y-106022004D01*
X93250423Y-106174736D01*
X93252610Y-106178523D01*
X93253483Y-106182124D01*
X93253533Y-106182243D01*
X93253514Y-106182250D01*
X93269085Y-106246422D01*
X93246235Y-106312450D01*
X93201521Y-106351010D01*
X93128648Y-106388141D01*
X93128645Y-106388143D01*
X93084077Y-106420523D01*
X93084077Y-106420524D01*
X93763553Y-107100000D01*
X93757339Y-107100000D01*
X93655606Y-107127259D01*
X93564394Y-107179920D01*
X93489920Y-107254394D01*
X93437259Y-107345606D01*
X93410000Y-107447339D01*
X93410000Y-107453553D01*
X92730524Y-106774077D01*
X92730523Y-106774077D01*
X92698143Y-106818644D01*
X92605244Y-107000968D01*
X92542009Y-107195582D01*
X92510000Y-107397682D01*
X92510000Y-107602317D01*
X92542009Y-107804417D01*
X92605244Y-107999031D01*
X92698141Y-108181350D01*
X92698147Y-108181359D01*
X92730523Y-108225921D01*
X92730524Y-108225922D01*
X93410000Y-107546446D01*
X93410000Y-107552661D01*
X93437259Y-107654394D01*
X93489920Y-107745606D01*
X93564394Y-107820080D01*
X93655606Y-107872741D01*
X93757339Y-107900000D01*
X93763552Y-107900000D01*
X93084076Y-108579474D01*
X93128650Y-108611859D01*
X93310968Y-108704755D01*
X93505582Y-108767990D01*
X93707683Y-108800000D01*
X93912317Y-108800000D01*
X94114418Y-108767989D01*
X94114424Y-108767988D01*
X94148180Y-108757020D01*
X94218021Y-108755023D01*
X94277854Y-108791103D01*
X94308684Y-108853803D01*
X94310500Y-108874950D01*
X94310500Y-113102233D01*
X94301853Y-113131678D01*
X94295330Y-113161663D01*
X94291577Y-113166675D01*
X94290815Y-113169272D01*
X94274179Y-113189917D01*
X94258171Y-113205924D01*
X94196846Y-113239407D01*
X94132176Y-113236172D01*
X94117866Y-113231522D01*
X93947707Y-113204571D01*
X93915685Y-113199500D01*
X93710981Y-113199500D01*
X93686662Y-113203351D01*
X93508798Y-113231522D01*
X93314109Y-113294781D01*
X93131719Y-113387715D01*
X92966119Y-113508028D01*
X92821361Y-113652786D01*
X92701048Y-113818386D01*
X92608114Y-114000776D01*
X92544855Y-114195465D01*
X92512833Y-114397648D01*
X92512833Y-114602351D01*
X92544855Y-114804534D01*
X92608114Y-114999223D01*
X92633589Y-115049219D01*
X92683741Y-115147648D01*
X92701048Y-115181613D01*
X92821361Y-115347213D01*
X92966119Y-115491971D01*
X93086960Y-115579765D01*
X93131723Y-115612287D01*
X93247940Y-115671503D01*
X93314109Y-115705218D01*
X93314111Y-115705218D01*
X93314114Y-115705220D01*
X93418470Y-115739127D01*
X93508798Y-115768477D01*
X93577081Y-115779292D01*
X93710981Y-115800500D01*
X93710982Y-115800500D01*
X93915684Y-115800500D01*
X93915685Y-115800500D01*
X94117867Y-115768477D01*
X94312552Y-115705220D01*
X94494943Y-115612287D01*
X94587923Y-115544732D01*
X94660546Y-115491971D01*
X94660548Y-115491968D01*
X94660552Y-115491966D01*
X94805299Y-115347219D01*
X94805301Y-115347215D01*
X94805304Y-115347213D01*
X94889293Y-115231610D01*
X94925620Y-115181610D01*
X95018553Y-114999219D01*
X95081810Y-114804534D01*
X95113833Y-114602352D01*
X95113833Y-114397648D01*
X95081810Y-114195466D01*
X95077159Y-114181154D01*
X95075165Y-114111315D01*
X95107407Y-114055161D01*
X95391520Y-113771049D01*
X95470577Y-113634117D01*
X95511501Y-113481390D01*
X95511501Y-113323275D01*
X95511501Y-113315680D01*
X95511500Y-113315662D01*
X95511500Y-106964895D01*
X95511500Y-106964893D01*
X95470577Y-106812166D01*
X95470577Y-106812165D01*
X95422850Y-106729500D01*
X95391520Y-106675234D01*
X95279716Y-106563430D01*
X95279715Y-106563429D01*
X95275385Y-106559099D01*
X95275374Y-106559089D01*
X94446819Y-105730534D01*
X94413334Y-105669211D01*
X94410500Y-105642853D01*
X94410500Y-104300850D01*
X94430185Y-104233811D01*
X94482989Y-104188056D01*
X94552147Y-104178112D01*
X94603390Y-104197747D01*
X94620821Y-104209394D01*
X94620823Y-104209395D01*
X94620827Y-104209397D01*
X94766498Y-104269735D01*
X94766503Y-104269737D01*
X94921153Y-104300499D01*
X94921156Y-104300500D01*
X94921158Y-104300500D01*
X95078844Y-104300500D01*
X95078845Y-104300499D01*
X95233497Y-104269737D01*
X95379179Y-104209394D01*
X95510289Y-104121789D01*
X95621789Y-104010289D01*
X95709394Y-103879179D01*
X95769737Y-103733497D01*
X95800500Y-103578842D01*
X95800638Y-103578150D01*
X95833023Y-103516239D01*
X95834519Y-103514715D01*
X98139506Y-101209727D01*
X98139511Y-101209724D01*
X98149714Y-101199520D01*
X98149716Y-101199520D01*
X98261520Y-101087716D01*
X98319475Y-100987334D01*
X98340577Y-100950785D01*
X98381501Y-100798057D01*
X98381501Y-100639943D01*
X98381501Y-100632348D01*
X98381500Y-100632330D01*
X98381500Y-75121945D01*
X98381500Y-75121943D01*
X98340577Y-74969216D01*
X98279051Y-74862648D01*
X98261524Y-74832290D01*
X98261521Y-74832286D01*
X98261520Y-74832284D01*
X98149716Y-74720480D01*
X98149715Y-74720479D01*
X98145385Y-74716149D01*
X98145374Y-74716139D01*
X86612158Y-63182923D01*
X86578673Y-63121600D01*
X86581907Y-63056928D01*
X86641090Y-62874785D01*
X86680500Y-62625962D01*
X86680500Y-62568282D01*
X88496408Y-62568282D01*
X88527750Y-62812937D01*
X88598627Y-63049184D01*
X88598628Y-63049186D01*
X88598630Y-63049191D01*
X88631845Y-63116991D01*
X88707144Y-63270697D01*
X88850374Y-63471499D01*
X88850380Y-63471506D01*
X89024487Y-63646222D01*
X89024492Y-63646226D01*
X89224791Y-63790156D01*
X89224797Y-63790159D01*
X89445918Y-63899444D01*
X89445919Y-63899444D01*
X89445921Y-63899445D01*
X89681926Y-63971149D01*
X89926474Y-64003344D01*
X89992914Y-64004967D01*
X89999995Y-64005141D01*
X89999996Y-64005140D01*
X90000000Y-64005141D01*
X90245829Y-63984930D01*
X90485055Y-63924841D01*
X90711256Y-63826486D01*
X90918355Y-63692508D01*
X91100790Y-63526504D01*
X91253664Y-63332932D01*
X91372869Y-63116992D01*
X91373795Y-63114379D01*
X91455203Y-62884491D01*
X91455203Y-62884489D01*
X91455206Y-62884482D01*
X91498461Y-62641646D01*
X91501475Y-62395007D01*
X91498266Y-62374038D01*
X91779500Y-62374038D01*
X91779500Y-62625962D01*
X91796230Y-62731591D01*
X91818910Y-62874785D01*
X91896760Y-63114383D01*
X91975413Y-63268747D01*
X92009965Y-63336559D01*
X92011132Y-63338848D01*
X92159201Y-63542649D01*
X92159205Y-63542654D01*
X92337345Y-63720794D01*
X92337350Y-63720798D01*
X92432814Y-63790156D01*
X92541155Y-63868870D01*
X92684184Y-63941747D01*
X92765616Y-63983239D01*
X92765618Y-63983239D01*
X92765621Y-63983241D01*
X93005215Y-64061090D01*
X93254038Y-64100500D01*
X93254039Y-64100500D01*
X93505961Y-64100500D01*
X93505962Y-64100500D01*
X93754785Y-64061090D01*
X93994379Y-63983241D01*
X94218845Y-63868870D01*
X94422656Y-63720793D01*
X94600793Y-63542656D01*
X94748870Y-63338845D01*
X94748872Y-63338839D01*
X94750271Y-63336559D01*
X94751031Y-63335870D01*
X94751734Y-63334904D01*
X94751937Y-63335051D01*
X94802081Y-63289682D01*
X94871010Y-63278258D01*
X94935174Y-63305913D01*
X94974200Y-63363867D01*
X94980000Y-63401346D01*
X94980000Y-63547844D01*
X94986401Y-63607372D01*
X94986403Y-63607379D01*
X95036645Y-63742086D01*
X95036649Y-63742093D01*
X95122809Y-63857187D01*
X95122812Y-63857190D01*
X95237906Y-63943350D01*
X95237913Y-63943354D01*
X95372620Y-63993596D01*
X95372627Y-63993598D01*
X95432155Y-63999999D01*
X95432172Y-64000000D01*
X96230000Y-64000000D01*
X96230000Y-63048482D01*
X96248409Y-63059111D01*
X96401009Y-63100000D01*
X96558991Y-63100000D01*
X96711591Y-63059111D01*
X96730000Y-63048482D01*
X96730000Y-64000000D01*
X97527828Y-64000000D01*
X97527844Y-63999999D01*
X97587372Y-63993598D01*
X97587379Y-63993596D01*
X97722086Y-63943354D01*
X97722093Y-63943350D01*
X97837187Y-63857190D01*
X97837190Y-63857187D01*
X97923350Y-63742093D01*
X97923354Y-63742086D01*
X97973596Y-63607379D01*
X97973598Y-63607372D01*
X97979999Y-63547844D01*
X97980000Y-63547827D01*
X97980000Y-62750000D01*
X97028482Y-62750000D01*
X97039111Y-62731591D01*
X97080000Y-62578991D01*
X97080000Y-62421009D01*
X97039111Y-62268409D01*
X97028482Y-62250000D01*
X97980000Y-62250000D01*
X97980000Y-61452172D01*
X97979999Y-61452155D01*
X97973598Y-61392627D01*
X97973596Y-61392620D01*
X97923354Y-61257913D01*
X97923350Y-61257906D01*
X97837190Y-61142812D01*
X97837187Y-61142809D01*
X97722093Y-61056649D01*
X97722086Y-61056645D01*
X97587379Y-61006403D01*
X97587372Y-61006401D01*
X97527844Y-61000000D01*
X96730000Y-61000000D01*
X96730000Y-61951517D01*
X96711591Y-61940889D01*
X96558991Y-61900000D01*
X96401009Y-61900000D01*
X96248409Y-61940889D01*
X96230000Y-61951517D01*
X96230000Y-61000000D01*
X95432155Y-61000000D01*
X95372627Y-61006401D01*
X95372620Y-61006403D01*
X95237913Y-61056645D01*
X95237906Y-61056649D01*
X95122812Y-61142809D01*
X95122809Y-61142812D01*
X95036649Y-61257906D01*
X95036645Y-61257913D01*
X94986403Y-61392620D01*
X94986401Y-61392627D01*
X94980000Y-61452155D01*
X94980000Y-61598653D01*
X94960315Y-61665692D01*
X94907511Y-61711447D01*
X94838353Y-61721391D01*
X94774797Y-61692366D01*
X94750275Y-61663447D01*
X94748868Y-61661151D01*
X94600798Y-61457350D01*
X94600794Y-61457345D01*
X94422654Y-61279205D01*
X94422649Y-61279201D01*
X94218848Y-61131132D01*
X94218847Y-61131131D01*
X94218845Y-61131130D01*
X94148747Y-61095413D01*
X93994383Y-61016760D01*
X93754785Y-60938910D01*
X93505962Y-60899500D01*
X93254038Y-60899500D01*
X93129626Y-60919205D01*
X93005214Y-60938910D01*
X92765616Y-61016760D01*
X92541151Y-61131132D01*
X92337350Y-61279201D01*
X92337345Y-61279205D01*
X92159205Y-61457345D01*
X92159201Y-61457350D01*
X92011132Y-61661151D01*
X91896760Y-61885616D01*
X91818910Y-62125214D01*
X91814796Y-62151187D01*
X91779500Y-62374038D01*
X91498266Y-62374038D01*
X91464165Y-62151187D01*
X91387534Y-61916734D01*
X91285845Y-61721391D01*
X91273643Y-61697951D01*
X91273641Y-61697948D01*
X91273640Y-61697946D01*
X91125542Y-61500697D01*
X91080182Y-61457350D01*
X90947220Y-61330289D01*
X90947207Y-61330279D01*
X90743452Y-61191287D01*
X90743447Y-61191285D01*
X90519731Y-61087439D01*
X90519723Y-61087436D01*
X90282039Y-61021520D01*
X90282038Y-61021519D01*
X90282035Y-61021519D01*
X90222489Y-61015155D01*
X90036774Y-60995307D01*
X89790525Y-61009507D01*
X89790520Y-61009507D01*
X89549907Y-61063731D01*
X89321363Y-61156533D01*
X89111052Y-61285412D01*
X88924619Y-61446907D01*
X88767062Y-61636685D01*
X88767054Y-61636696D01*
X88642614Y-61849650D01*
X88554624Y-62080072D01*
X88505447Y-62321785D01*
X88496408Y-62568282D01*
X86680500Y-62568282D01*
X86680500Y-62374038D01*
X86641090Y-62125215D01*
X86563241Y-61885621D01*
X86563239Y-61885618D01*
X86563239Y-61885616D01*
X86521747Y-61804184D01*
X86448870Y-61661155D01*
X86403460Y-61598653D01*
X86300798Y-61457350D01*
X86300794Y-61457345D01*
X86122654Y-61279205D01*
X86122649Y-61279201D01*
X85918848Y-61131132D01*
X85918847Y-61131131D01*
X85918845Y-61131130D01*
X85848747Y-61095413D01*
X85694383Y-61016760D01*
X85454785Y-60938910D01*
X85205962Y-60899500D01*
X84954038Y-60899500D01*
X84829626Y-60919205D01*
X84705214Y-60938910D01*
X84465616Y-61016760D01*
X84241151Y-61131132D01*
X84037350Y-61279201D01*
X84037345Y-61279205D01*
X83859205Y-61457345D01*
X83859201Y-61457350D01*
X83711132Y-61661151D01*
X83596760Y-61885616D01*
X83518910Y-62125214D01*
X83514796Y-62151187D01*
X83479500Y-62374038D01*
X83479500Y-62625962D01*
X83496230Y-62731591D01*
X83518910Y-62874785D01*
X83596760Y-63114383D01*
X83675413Y-63268747D01*
X83709965Y-63336559D01*
X83711132Y-63338848D01*
X83859201Y-63542649D01*
X83859205Y-63542654D01*
X84037345Y-63720794D01*
X84037350Y-63720798D01*
X84132814Y-63790156D01*
X84241155Y-63868870D01*
X84384184Y-63941747D01*
X84465616Y-63983239D01*
X84465618Y-63983239D01*
X84465621Y-63983241D01*
X84705215Y-64061090D01*
X84954038Y-64100500D01*
X84954039Y-64100500D01*
X85205961Y-64100500D01*
X85205962Y-64100500D01*
X85454785Y-64061090D01*
X85636928Y-64001907D01*
X85706764Y-63999912D01*
X85762923Y-64032158D01*
X97144181Y-75413416D01*
X97177666Y-75474739D01*
X97180500Y-75501097D01*
X97180500Y-75876000D01*
X97160815Y-75943039D01*
X97108011Y-75988794D01*
X97056500Y-76000000D01*
X96730000Y-76000000D01*
X96730000Y-76951517D01*
X96711591Y-76940889D01*
X96558991Y-76900000D01*
X96401009Y-76900000D01*
X96248409Y-76940889D01*
X96230000Y-76951517D01*
X96230000Y-76000000D01*
X95432155Y-76000000D01*
X95372627Y-76006401D01*
X95372620Y-76006403D01*
X95237913Y-76056645D01*
X95237906Y-76056649D01*
X95122812Y-76142809D01*
X95122809Y-76142812D01*
X95036649Y-76257906D01*
X95036645Y-76257913D01*
X94986403Y-76392620D01*
X94986401Y-76392627D01*
X94980000Y-76452155D01*
X94980000Y-76598653D01*
X94960315Y-76665692D01*
X94907511Y-76711447D01*
X94838353Y-76721391D01*
X94774797Y-76692366D01*
X94750275Y-76663447D01*
X94748868Y-76661151D01*
X94600798Y-76457350D01*
X94600794Y-76457345D01*
X94422654Y-76279205D01*
X94422649Y-76279201D01*
X94218848Y-76131132D01*
X94218847Y-76131131D01*
X94218845Y-76131130D01*
X94148747Y-76095413D01*
X93994383Y-76016760D01*
X93754785Y-75938910D01*
X93505962Y-75899500D01*
X93254038Y-75899500D01*
X93129626Y-75919205D01*
X93005214Y-75938910D01*
X92765616Y-76016760D01*
X92541151Y-76131132D01*
X92337350Y-76279201D01*
X92337345Y-76279205D01*
X92159205Y-76457345D01*
X92159201Y-76457350D01*
X92011132Y-76661151D01*
X91896760Y-76885616D01*
X91818910Y-77125214D01*
X91814796Y-77151187D01*
X91779500Y-77374038D01*
X91779500Y-77625962D01*
X91796230Y-77731591D01*
X91818910Y-77874785D01*
X91896760Y-78114383D01*
X91956324Y-78231283D01*
X92009965Y-78336559D01*
X92011132Y-78338848D01*
X92159201Y-78542649D01*
X92159205Y-78542654D01*
X92337345Y-78720794D01*
X92337350Y-78720798D01*
X92409857Y-78773477D01*
X92541155Y-78868870D01*
X92684184Y-78941747D01*
X92765616Y-78983239D01*
X92765618Y-78983239D01*
X92765621Y-78983241D01*
X93005215Y-79061090D01*
X93254038Y-79100500D01*
X93254039Y-79100500D01*
X93505961Y-79100500D01*
X93505962Y-79100500D01*
X93754785Y-79061090D01*
X93994379Y-78983241D01*
X94218845Y-78868870D01*
X94422656Y-78720793D01*
X94600793Y-78542656D01*
X94748870Y-78338845D01*
X94748872Y-78338839D01*
X94750271Y-78336559D01*
X94751031Y-78335870D01*
X94751734Y-78334904D01*
X94751937Y-78335051D01*
X94802081Y-78289682D01*
X94871010Y-78278258D01*
X94935174Y-78305913D01*
X94974200Y-78363867D01*
X94980000Y-78401346D01*
X94980000Y-78547844D01*
X94986401Y-78607372D01*
X94986403Y-78607379D01*
X95036645Y-78742086D01*
X95036649Y-78742093D01*
X95122809Y-78857187D01*
X95122812Y-78857190D01*
X95237906Y-78943350D01*
X95237913Y-78943354D01*
X95372620Y-78993596D01*
X95372627Y-78993598D01*
X95432155Y-78999999D01*
X95432172Y-79000000D01*
X96230000Y-79000000D01*
X96230000Y-78048482D01*
X96248409Y-78059111D01*
X96401009Y-78100000D01*
X96558991Y-78100000D01*
X96711591Y-78059111D01*
X96730000Y-78048482D01*
X96730000Y-79000000D01*
X97056500Y-79000000D01*
X97123539Y-79019685D01*
X97169294Y-79072489D01*
X97180500Y-79124000D01*
X97180500Y-100418903D01*
X97160815Y-100485942D01*
X97144181Y-100506584D01*
X94985339Y-102665425D01*
X94924016Y-102698910D01*
X94921850Y-102699361D01*
X94766508Y-102730261D01*
X94766498Y-102730264D01*
X94620827Y-102790602D01*
X94620818Y-102790607D01*
X94603389Y-102802253D01*
X94536711Y-102823129D01*
X94469331Y-102804643D01*
X94422642Y-102752663D01*
X94410500Y-102699149D01*
X94410500Y-101979601D01*
X94430185Y-101912562D01*
X94478206Y-101869116D01*
X94491610Y-101862287D01*
X94657219Y-101741966D01*
X94801966Y-101597219D01*
X94801968Y-101597215D01*
X94801971Y-101597213D01*
X94858259Y-101519738D01*
X94922287Y-101431610D01*
X95015220Y-101249219D01*
X95078477Y-101054534D01*
X95110500Y-100852352D01*
X95110500Y-100647648D01*
X95078477Y-100445466D01*
X95073826Y-100431154D01*
X95071832Y-100361315D01*
X95104074Y-100305161D01*
X95394853Y-100014383D01*
X95473910Y-99877451D01*
X95514834Y-99724724D01*
X95514834Y-99566609D01*
X95514834Y-99559014D01*
X95514833Y-99558996D01*
X95514833Y-94415278D01*
X95514833Y-94415276D01*
X95473910Y-94262549D01*
X95414992Y-94160499D01*
X95394857Y-94125623D01*
X95394854Y-94125619D01*
X95394853Y-94125617D01*
X95283049Y-94013813D01*
X95283048Y-94013812D01*
X95278718Y-94009482D01*
X95278707Y-94009472D01*
X95124077Y-93854842D01*
X95090592Y-93793519D01*
X95093828Y-93728841D01*
X95094259Y-93727514D01*
X95098477Y-93714534D01*
X95130500Y-93512352D01*
X95130500Y-93307648D01*
X95098477Y-93105466D01*
X95091127Y-93082846D01*
X95065763Y-93004784D01*
X95035220Y-92910781D01*
X95035218Y-92910778D01*
X95035218Y-92910776D01*
X94996338Y-92834471D01*
X94942287Y-92728390D01*
X94914187Y-92689713D01*
X94821971Y-92562786D01*
X94677213Y-92418028D01*
X94511613Y-92297715D01*
X94511612Y-92297714D01*
X94511610Y-92297713D01*
X94454653Y-92268691D01*
X94329223Y-92204781D01*
X94134534Y-92141522D01*
X93959995Y-92113878D01*
X93932352Y-92109500D01*
X93727648Y-92109500D01*
X93703329Y-92113351D01*
X93525465Y-92141522D01*
X93330776Y-92204781D01*
X93148386Y-92297715D01*
X92982786Y-92418028D01*
X92838028Y-92562786D01*
X92717715Y-92728386D01*
X92624781Y-92910776D01*
X92561522Y-93105465D01*
X92529500Y-93307648D01*
X92529500Y-93512351D01*
X92561522Y-93714534D01*
X92624781Y-93909223D01*
X92678072Y-94013811D01*
X92714974Y-94086235D01*
X92717715Y-94091613D01*
X92838028Y-94257213D01*
X92982786Y-94401971D01*
X93127056Y-94506787D01*
X93148390Y-94522287D01*
X93264607Y-94581503D01*
X93330776Y-94615218D01*
X93330778Y-94615218D01*
X93330781Y-94615220D01*
X93411524Y-94641455D01*
X93525465Y-94678477D01*
X93553555Y-94682926D01*
X93727648Y-94710500D01*
X93727649Y-94710500D01*
X93932351Y-94710500D01*
X93932352Y-94710500D01*
X94134534Y-94678477D01*
X94148842Y-94673827D01*
X94164054Y-94673392D01*
X94178315Y-94668074D01*
X94198268Y-94672414D01*
X94218682Y-94671831D01*
X94232769Y-94679920D01*
X94246588Y-94682926D01*
X94274842Y-94704077D01*
X94277514Y-94706749D01*
X94310999Y-94768072D01*
X94313833Y-94794430D01*
X94313833Y-95874524D01*
X94294148Y-95941563D01*
X94241344Y-95987318D01*
X94172186Y-95997262D01*
X94151516Y-95992455D01*
X94117875Y-95981524D01*
X94117868Y-95981523D01*
X94016776Y-95965511D01*
X93915685Y-95949500D01*
X93710981Y-95949500D01*
X93686662Y-95953351D01*
X93508798Y-95981522D01*
X93314109Y-96044781D01*
X93131719Y-96137715D01*
X92966119Y-96258028D01*
X92821361Y-96402786D01*
X92701048Y-96568385D01*
X92694216Y-96581795D01*
X92646242Y-96632591D01*
X92583731Y-96649500D01*
X90550097Y-96649500D01*
X90483058Y-96629815D01*
X90462416Y-96613181D01*
X87534814Y-93685579D01*
X87501329Y-93624256D01*
X87500022Y-93578505D01*
X87510500Y-93512352D01*
X87510500Y-93307648D01*
X87478477Y-93105466D01*
X87471127Y-93082846D01*
X87445763Y-93004784D01*
X87415220Y-92910781D01*
X87415218Y-92910778D01*
X87415218Y-92910776D01*
X87376338Y-92834471D01*
X87322287Y-92728390D01*
X87294187Y-92689713D01*
X87201971Y-92562786D01*
X87057213Y-92418028D01*
X86891613Y-92297715D01*
X86891612Y-92297714D01*
X86891610Y-92297713D01*
X86834653Y-92268691D01*
X86709223Y-92204781D01*
X86514534Y-92141522D01*
X86339995Y-92113878D01*
X86312352Y-92109500D01*
X86107648Y-92109500D01*
X86067211Y-92115904D01*
X85905462Y-92141523D01*
X85905460Y-92141523D01*
X85891149Y-92146173D01*
X85821308Y-92148164D01*
X85765157Y-92115921D01*
X83636819Y-89987583D01*
X83603334Y-89926260D01*
X83600500Y-89899902D01*
X83600500Y-86479601D01*
X83620185Y-86412562D01*
X83668206Y-86369116D01*
X83681610Y-86362287D01*
X83847219Y-86241966D01*
X83991966Y-86097219D01*
X83991968Y-86097215D01*
X83991971Y-86097213D01*
X84089456Y-85963034D01*
X84112287Y-85931610D01*
X84139515Y-85878171D01*
X84187490Y-85827376D01*
X84255311Y-85810581D01*
X84321446Y-85833118D01*
X84360485Y-85878172D01*
X84387715Y-85931613D01*
X84508028Y-86097213D01*
X84652786Y-86241971D01*
X84769836Y-86327011D01*
X84818390Y-86362287D01*
X84891425Y-86399500D01*
X85000776Y-86455218D01*
X85000778Y-86455218D01*
X85000781Y-86455220D01*
X85075818Y-86479601D01*
X85195465Y-86518477D01*
X85276716Y-86531346D01*
X85397648Y-86550500D01*
X85468833Y-86550500D01*
X85535872Y-86570185D01*
X85581627Y-86622989D01*
X85592833Y-86674500D01*
X85592833Y-88520397D01*
X85573148Y-88587436D01*
X85525133Y-88630879D01*
X85511722Y-88637712D01*
X85346119Y-88758028D01*
X85201361Y-88902786D01*
X85081048Y-89068386D01*
X84988114Y-89250776D01*
X84924855Y-89445465D01*
X84892833Y-89647648D01*
X84892833Y-89852351D01*
X84924855Y-90054534D01*
X84988114Y-90249223D01*
X85023141Y-90317966D01*
X85080918Y-90431359D01*
X85081048Y-90431613D01*
X85201361Y-90597213D01*
X85346119Y-90741971D01*
X85451782Y-90818738D01*
X85511723Y-90862287D01*
X85627940Y-90921503D01*
X85694109Y-90955218D01*
X85694111Y-90955218D01*
X85694114Y-90955220D01*
X85798470Y-90989127D01*
X85888798Y-91018477D01*
X85989890Y-91034488D01*
X86090981Y-91050500D01*
X86090982Y-91050500D01*
X86295684Y-91050500D01*
X86295685Y-91050500D01*
X86497867Y-91018477D01*
X86692552Y-90955220D01*
X86874943Y-90862287D01*
X86967923Y-90794732D01*
X87040546Y-90741971D01*
X87040548Y-90741968D01*
X87040552Y-90741966D01*
X87185299Y-90597219D01*
X87185301Y-90597215D01*
X87185304Y-90597213D01*
X87265402Y-90486966D01*
X87305620Y-90431610D01*
X87398553Y-90249219D01*
X87461810Y-90054534D01*
X87493833Y-89852352D01*
X87493833Y-89647682D01*
X92513333Y-89647682D01*
X92513333Y-89852317D01*
X92545342Y-90054417D01*
X92608577Y-90249031D01*
X92701474Y-90431350D01*
X92701480Y-90431359D01*
X92733856Y-90475921D01*
X92733857Y-90475922D01*
X93413333Y-89796446D01*
X93413333Y-89802661D01*
X93440592Y-89904394D01*
X93493253Y-89995606D01*
X93567727Y-90070080D01*
X93658939Y-90122741D01*
X93760672Y-90150000D01*
X93766886Y-90150000D01*
X93087409Y-90829474D01*
X93131983Y-90861859D01*
X93314301Y-90954755D01*
X93508915Y-91017990D01*
X93711016Y-91050000D01*
X93915650Y-91050000D01*
X94117750Y-91017990D01*
X94312364Y-90954755D01*
X94494682Y-90861859D01*
X94539254Y-90829474D01*
X93859780Y-90150000D01*
X93865994Y-90150000D01*
X93967727Y-90122741D01*
X94058939Y-90070080D01*
X94133413Y-89995606D01*
X94186074Y-89904394D01*
X94213333Y-89802661D01*
X94213333Y-89796447D01*
X94892807Y-90475921D01*
X94925192Y-90431349D01*
X95018088Y-90249031D01*
X95081323Y-90054417D01*
X95113333Y-89852317D01*
X95113333Y-89647682D01*
X95081323Y-89445582D01*
X95018088Y-89250968D01*
X94925192Y-89068650D01*
X94892807Y-89024077D01*
X94892807Y-89024076D01*
X94213333Y-89703551D01*
X94213333Y-89697339D01*
X94186074Y-89595606D01*
X94133413Y-89504394D01*
X94058939Y-89429920D01*
X93967727Y-89377259D01*
X93865994Y-89350000D01*
X93859779Y-89350000D01*
X94539255Y-88670524D01*
X94539254Y-88670523D01*
X94494692Y-88638147D01*
X94494683Y-88638141D01*
X94312364Y-88545244D01*
X94117750Y-88482009D01*
X93915650Y-88450000D01*
X93711016Y-88450000D01*
X93508915Y-88482009D01*
X93314301Y-88545244D01*
X93131977Y-88638143D01*
X93087410Y-88670523D01*
X93087410Y-88670524D01*
X93766887Y-89350000D01*
X93760672Y-89350000D01*
X93658939Y-89377259D01*
X93567727Y-89429920D01*
X93493253Y-89504394D01*
X93440592Y-89595606D01*
X93413333Y-89697339D01*
X93413333Y-89703553D01*
X92733857Y-89024077D01*
X92733856Y-89024077D01*
X92701476Y-89068644D01*
X92608577Y-89250968D01*
X92545342Y-89445582D01*
X92513333Y-89647682D01*
X87493833Y-89647682D01*
X87493833Y-89647648D01*
X87477870Y-89546865D01*
X87461810Y-89445465D01*
X87405447Y-89272000D01*
X87398553Y-89250781D01*
X87398551Y-89250778D01*
X87398551Y-89250776D01*
X87324942Y-89106312D01*
X87305620Y-89068390D01*
X87273425Y-89024077D01*
X87185304Y-88902786D01*
X87040546Y-88758028D01*
X86874943Y-88637712D01*
X86861533Y-88630879D01*
X86810739Y-88582903D01*
X86793833Y-88520397D01*
X86793833Y-86032392D01*
X86793834Y-86032379D01*
X86793834Y-85864278D01*
X86793834Y-85864276D01*
X86752910Y-85711548D01*
X86752906Y-85711541D01*
X86750550Y-85705852D01*
X86743080Y-85636383D01*
X86747180Y-85620076D01*
X86768477Y-85554534D01*
X86800500Y-85352352D01*
X86800500Y-85147648D01*
X86768477Y-84945466D01*
X86705220Y-84750781D01*
X86705218Y-84750778D01*
X86705218Y-84750776D01*
X86639515Y-84621828D01*
X86612287Y-84568390D01*
X86604556Y-84557749D01*
X86491971Y-84402786D01*
X86347213Y-84258028D01*
X86181610Y-84137712D01*
X86168200Y-84130879D01*
X86117406Y-84082903D01*
X86100500Y-84020397D01*
X86100500Y-78794311D01*
X86120185Y-78727272D01*
X86136819Y-78706630D01*
X86197227Y-78646222D01*
X86300793Y-78542656D01*
X86448870Y-78338845D01*
X86563241Y-78114379D01*
X86641090Y-77874785D01*
X86680500Y-77625962D01*
X86680500Y-77568282D01*
X88496408Y-77568282D01*
X88527750Y-77812937D01*
X88598627Y-78049184D01*
X88598628Y-78049186D01*
X88598630Y-78049191D01*
X88665952Y-78186613D01*
X88707144Y-78270697D01*
X88850374Y-78471499D01*
X88850380Y-78471506D01*
X89024487Y-78646222D01*
X89024492Y-78646226D01*
X89224791Y-78790156D01*
X89224797Y-78790159D01*
X89445918Y-78899444D01*
X89445919Y-78899444D01*
X89445921Y-78899445D01*
X89681926Y-78971149D01*
X89926474Y-79003344D01*
X89992914Y-79004967D01*
X89999995Y-79005141D01*
X89999996Y-79005140D01*
X90000000Y-79005141D01*
X90245829Y-78984930D01*
X90485055Y-78924841D01*
X90711256Y-78826486D01*
X90918355Y-78692508D01*
X91100790Y-78526504D01*
X91253664Y-78332932D01*
X91372869Y-78116992D01*
X91373795Y-78114379D01*
X91455203Y-77884491D01*
X91455203Y-77884489D01*
X91455206Y-77884482D01*
X91498461Y-77641646D01*
X91501475Y-77395007D01*
X91464165Y-77151187D01*
X91387534Y-76916734D01*
X91285845Y-76721391D01*
X91273643Y-76697951D01*
X91273641Y-76697948D01*
X91273640Y-76697946D01*
X91134805Y-76513034D01*
X91125543Y-76500698D01*
X90947220Y-76330289D01*
X90947207Y-76330279D01*
X90743452Y-76191287D01*
X90743447Y-76191285D01*
X90519731Y-76087439D01*
X90519723Y-76087436D01*
X90282039Y-76021520D01*
X90282038Y-76021519D01*
X90282035Y-76021519D01*
X90222489Y-76015155D01*
X90036774Y-75995307D01*
X89790525Y-76009507D01*
X89790520Y-76009507D01*
X89549907Y-76063731D01*
X89321363Y-76156533D01*
X89111052Y-76285412D01*
X88924619Y-76446907D01*
X88767062Y-76636685D01*
X88767054Y-76636696D01*
X88642614Y-76849650D01*
X88554624Y-77080072D01*
X88505447Y-77321785D01*
X88496408Y-77568282D01*
X86680500Y-77568282D01*
X86680500Y-77374038D01*
X86641090Y-77125215D01*
X86563241Y-76885621D01*
X86563239Y-76885618D01*
X86563239Y-76885616D01*
X86521747Y-76804184D01*
X86448870Y-76661155D01*
X86341250Y-76513028D01*
X86300798Y-76457350D01*
X86300794Y-76457345D01*
X86122654Y-76279205D01*
X86122649Y-76279201D01*
X85918848Y-76131132D01*
X85918847Y-76131131D01*
X85918845Y-76131130D01*
X85848747Y-76095413D01*
X85694383Y-76016760D01*
X85454785Y-75938910D01*
X85205962Y-75899500D01*
X84954038Y-75899500D01*
X84829626Y-75919205D01*
X84705214Y-75938910D01*
X84465616Y-76016760D01*
X84241151Y-76131132D01*
X84037350Y-76279201D01*
X84037345Y-76279205D01*
X83859205Y-76457345D01*
X83859201Y-76457350D01*
X83711132Y-76661151D01*
X83596760Y-76885616D01*
X83518910Y-77125214D01*
X83514796Y-77151187D01*
X83479500Y-77374038D01*
X83479500Y-77625962D01*
X83496230Y-77731591D01*
X83518910Y-77874785D01*
X83596760Y-78114383D01*
X83656324Y-78231283D01*
X83709965Y-78336559D01*
X83711132Y-78338848D01*
X83859201Y-78542649D01*
X83859205Y-78542654D01*
X84037345Y-78720794D01*
X84037350Y-78720798D01*
X84109857Y-78773477D01*
X84241155Y-78868870D01*
X84384184Y-78941747D01*
X84465616Y-78983239D01*
X84465618Y-78983239D01*
X84465621Y-78983241D01*
X84577784Y-79019685D01*
X84705214Y-79061090D01*
X84794897Y-79075294D01*
X84858032Y-79105223D01*
X84894964Y-79164534D01*
X84899500Y-79197767D01*
X84899500Y-84020397D01*
X84879815Y-84087436D01*
X84831800Y-84130879D01*
X84818389Y-84137712D01*
X84652786Y-84258028D01*
X84508028Y-84402786D01*
X84387713Y-84568388D01*
X84360484Y-84621828D01*
X84312510Y-84672623D01*
X84244688Y-84689418D01*
X84178554Y-84666880D01*
X84139516Y-84621828D01*
X84112286Y-84568388D01*
X83991971Y-84402786D01*
X83847213Y-84258028D01*
X83681613Y-84137715D01*
X83681612Y-84137714D01*
X83681610Y-84137713D01*
X83624653Y-84108691D01*
X83499223Y-84044781D01*
X83304534Y-83981522D01*
X83129995Y-83953878D01*
X83102352Y-83949500D01*
X82897648Y-83949500D01*
X82873329Y-83953351D01*
X82695465Y-83981522D01*
X82500776Y-84044781D01*
X82318386Y-84137715D01*
X82152786Y-84258028D01*
X82008028Y-84402786D01*
X81887715Y-84568386D01*
X81794781Y-84750776D01*
X81731522Y-84945465D01*
X81699500Y-85147648D01*
X78130500Y-85147648D01*
X78130500Y-78734601D01*
X78150185Y-78667562D01*
X78198206Y-78624116D01*
X78211610Y-78617287D01*
X78377219Y-78496966D01*
X78521966Y-78352219D01*
X78521968Y-78352215D01*
X78521971Y-78352213D01*
X78609830Y-78231283D01*
X78642287Y-78186610D01*
X78735220Y-78004219D01*
X78798477Y-77809534D01*
X78830500Y-77607352D01*
X78830500Y-77402648D01*
X78798477Y-77200466D01*
X78776098Y-77131592D01*
X78735218Y-77005776D01*
X78689847Y-76916732D01*
X78642287Y-76823390D01*
X78634556Y-76812749D01*
X78521971Y-76657786D01*
X78377213Y-76513028D01*
X78211613Y-76392715D01*
X78211612Y-76392714D01*
X78211610Y-76392713D01*
X78154653Y-76363691D01*
X78029223Y-76299781D01*
X77834534Y-76236522D01*
X77659995Y-76208878D01*
X77632352Y-76204500D01*
X77427648Y-76204500D01*
X77403329Y-76208351D01*
X77225465Y-76236522D01*
X77030776Y-76299781D01*
X76848386Y-76392715D01*
X76682786Y-76513028D01*
X76538028Y-76657786D01*
X76417715Y-76823386D01*
X76324781Y-77005776D01*
X76261522Y-77200465D01*
X76229500Y-77402648D01*
X76229500Y-77607351D01*
X76261522Y-77809534D01*
X76324781Y-78004223D01*
X76357824Y-78069072D01*
X76390861Y-78133911D01*
X76417715Y-78186613D01*
X76538028Y-78352213D01*
X76538034Y-78352219D01*
X76682781Y-78496966D01*
X76848390Y-78617287D01*
X76861793Y-78624116D01*
X76912589Y-78672088D01*
X76929500Y-78734601D01*
X76929500Y-86664902D01*
X76909815Y-86731941D01*
X76893181Y-86752583D01*
X76512181Y-87133583D01*
X76450858Y-87167068D01*
X76381166Y-87162084D01*
X76325233Y-87120212D01*
X76300816Y-87054748D01*
X76300500Y-87045902D01*
X76300500Y-86852648D01*
X76268477Y-86650465D01*
X76231198Y-86535733D01*
X76205220Y-86455781D01*
X76205218Y-86455778D01*
X76205218Y-86455776D01*
X76139608Y-86327011D01*
X76112287Y-86273390D01*
X76089456Y-86241965D01*
X75991971Y-86107786D01*
X75847213Y-85963028D01*
X75681613Y-85842715D01*
X75681612Y-85842714D01*
X75681610Y-85842713D01*
X75624653Y-85813691D01*
X75499223Y-85749781D01*
X75304534Y-85686522D01*
X75129995Y-85658878D01*
X75102352Y-85654500D01*
X74897648Y-85654500D01*
X74873329Y-85658351D01*
X74695465Y-85686522D01*
X74500776Y-85749781D01*
X74318386Y-85842715D01*
X74152786Y-85963028D01*
X74008028Y-86107786D01*
X73887715Y-86273386D01*
X73794781Y-86455776D01*
X73731522Y-86650465D01*
X73699500Y-86852648D01*
X70680500Y-86852648D01*
X70680500Y-77402648D01*
X71149500Y-77402648D01*
X71149500Y-77607351D01*
X71181522Y-77809534D01*
X71244781Y-78004223D01*
X71277824Y-78069072D01*
X71310861Y-78133911D01*
X71337715Y-78186613D01*
X71458028Y-78352213D01*
X71602786Y-78496971D01*
X71754743Y-78607372D01*
X71768390Y-78617287D01*
X71849499Y-78658614D01*
X71950776Y-78710218D01*
X71950778Y-78710218D01*
X71950781Y-78710220D01*
X72048876Y-78742093D01*
X72145465Y-78773477D01*
X72246557Y-78789488D01*
X72347648Y-78805500D01*
X72347649Y-78805500D01*
X72552351Y-78805500D01*
X72552352Y-78805500D01*
X72754534Y-78773477D01*
X72949219Y-78710220D01*
X73131610Y-78617287D01*
X73264219Y-78520942D01*
X73297213Y-78496971D01*
X73297215Y-78496968D01*
X73297219Y-78496966D01*
X73441966Y-78352219D01*
X73441968Y-78352215D01*
X73441971Y-78352213D01*
X73529830Y-78231283D01*
X73562287Y-78186610D01*
X73655220Y-78004219D01*
X73718477Y-77809534D01*
X73750500Y-77607352D01*
X73750500Y-77402648D01*
X73718477Y-77200466D01*
X73696098Y-77131592D01*
X73655218Y-77005776D01*
X73609847Y-76916732D01*
X73562287Y-76823390D01*
X73554556Y-76812749D01*
X73441971Y-76657786D01*
X73297213Y-76513028D01*
X73131613Y-76392715D01*
X73131612Y-76392714D01*
X73131610Y-76392713D01*
X73074653Y-76363691D01*
X72949223Y-76299781D01*
X72754534Y-76236522D01*
X72579995Y-76208878D01*
X72552352Y-76204500D01*
X72347648Y-76204500D01*
X72323329Y-76208351D01*
X72145465Y-76236522D01*
X71950776Y-76299781D01*
X71768386Y-76392715D01*
X71602786Y-76513028D01*
X71458028Y-76657786D01*
X71337715Y-76823386D01*
X71244781Y-77005776D01*
X71181522Y-77200465D01*
X71149500Y-77402648D01*
X70680500Y-77402648D01*
X70680500Y-74862648D01*
X73689500Y-74862648D01*
X73689500Y-75067351D01*
X73721522Y-75269534D01*
X73784781Y-75464223D01*
X73877715Y-75646613D01*
X73998028Y-75812213D01*
X74142786Y-75956971D01*
X74279978Y-76056645D01*
X74308390Y-76077287D01*
X74414063Y-76131130D01*
X74490776Y-76170218D01*
X74490778Y-76170218D01*
X74490781Y-76170220D01*
X74555619Y-76191287D01*
X74685465Y-76233477D01*
X74704697Y-76236523D01*
X74887648Y-76265500D01*
X74887649Y-76265500D01*
X75092351Y-76265500D01*
X75092352Y-76265500D01*
X75294534Y-76233477D01*
X75489219Y-76170220D01*
X75671610Y-76077287D01*
X75777987Y-76000000D01*
X75837213Y-75956971D01*
X75837215Y-75956968D01*
X75837219Y-75956966D01*
X75981966Y-75812219D01*
X75981968Y-75812215D01*
X75981971Y-75812213D01*
X76034732Y-75739590D01*
X76102287Y-75646610D01*
X76195220Y-75464219D01*
X76258477Y-75269534D01*
X76290500Y-75067352D01*
X76290500Y-74862648D01*
X76285691Y-74832284D01*
X76258477Y-74660465D01*
X76195218Y-74465776D01*
X76161503Y-74399607D01*
X76102287Y-74283390D01*
X76094556Y-74272749D01*
X75981971Y-74117786D01*
X75837213Y-73973028D01*
X75671613Y-73852715D01*
X75671612Y-73852714D01*
X75671610Y-73852713D01*
X75614653Y-73823691D01*
X75489223Y-73759781D01*
X75294534Y-73696522D01*
X75119995Y-73668878D01*
X75092352Y-73664500D01*
X74887648Y-73664500D01*
X74863329Y-73668351D01*
X74685465Y-73696522D01*
X74490776Y-73759781D01*
X74308386Y-73852715D01*
X74142786Y-73973028D01*
X73998028Y-74117786D01*
X73877715Y-74283386D01*
X73784781Y-74465776D01*
X73721522Y-74660465D01*
X73689500Y-74862648D01*
X70680500Y-74862648D01*
X70680500Y-64066300D01*
X70700185Y-63999261D01*
X70748204Y-63955815D01*
X70918845Y-63868870D01*
X71122656Y-63720793D01*
X71300793Y-63542656D01*
X71448870Y-63338845D01*
X71563241Y-63114379D01*
X71641090Y-62874785D01*
X71680500Y-62625962D01*
X71680500Y-62568282D01*
X73496408Y-62568282D01*
X73527750Y-62812937D01*
X73598627Y-63049184D01*
X73598628Y-63049186D01*
X73598630Y-63049191D01*
X73631845Y-63116991D01*
X73707144Y-63270697D01*
X73850374Y-63471499D01*
X73850380Y-63471506D01*
X74024487Y-63646222D01*
X74024492Y-63646226D01*
X74224791Y-63790156D01*
X74224797Y-63790159D01*
X74445918Y-63899444D01*
X74445919Y-63899444D01*
X74445921Y-63899445D01*
X74681926Y-63971149D01*
X74926474Y-64003344D01*
X74992914Y-64004967D01*
X74999995Y-64005141D01*
X74999996Y-64005140D01*
X75000000Y-64005141D01*
X75245829Y-63984930D01*
X75485055Y-63924841D01*
X75711256Y-63826486D01*
X75918355Y-63692508D01*
X76100790Y-63526504D01*
X76253664Y-63332932D01*
X76372869Y-63116992D01*
X76373795Y-63114379D01*
X76455203Y-62884491D01*
X76455203Y-62884489D01*
X76455206Y-62884482D01*
X76498461Y-62641646D01*
X76501475Y-62395007D01*
X76498266Y-62374038D01*
X76779500Y-62374038D01*
X76779500Y-62625962D01*
X76796230Y-62731591D01*
X76818910Y-62874785D01*
X76896760Y-63114383D01*
X76975413Y-63268747D01*
X77009965Y-63336559D01*
X77011132Y-63338848D01*
X77159201Y-63542649D01*
X77159205Y-63542654D01*
X77337345Y-63720794D01*
X77337350Y-63720798D01*
X77432814Y-63790156D01*
X77541155Y-63868870D01*
X77684184Y-63941747D01*
X77765616Y-63983239D01*
X77765618Y-63983239D01*
X77765621Y-63983241D01*
X78005215Y-64061090D01*
X78254038Y-64100500D01*
X78254039Y-64100500D01*
X78505961Y-64100500D01*
X78505962Y-64100500D01*
X78754785Y-64061090D01*
X78994379Y-63983241D01*
X79218845Y-63868870D01*
X79422656Y-63720793D01*
X79600793Y-63542656D01*
X79748870Y-63338845D01*
X79748872Y-63338839D01*
X79750271Y-63336559D01*
X79751031Y-63335870D01*
X79751734Y-63334904D01*
X79751937Y-63335051D01*
X79802081Y-63289682D01*
X79871010Y-63278258D01*
X79935174Y-63305913D01*
X79974200Y-63363867D01*
X79980000Y-63401346D01*
X79980000Y-63547844D01*
X79986401Y-63607372D01*
X79986403Y-63607379D01*
X80036645Y-63742086D01*
X80036649Y-63742093D01*
X80122809Y-63857187D01*
X80122812Y-63857190D01*
X80237906Y-63943350D01*
X80237913Y-63943354D01*
X80372620Y-63993596D01*
X80372627Y-63993598D01*
X80432155Y-63999999D01*
X80432172Y-64000000D01*
X81230000Y-64000000D01*
X81230000Y-63048482D01*
X81248409Y-63059111D01*
X81401009Y-63100000D01*
X81558991Y-63100000D01*
X81711591Y-63059111D01*
X81730000Y-63048482D01*
X81730000Y-64000000D01*
X82527828Y-64000000D01*
X82527844Y-63999999D01*
X82587372Y-63993598D01*
X82587379Y-63993596D01*
X82722086Y-63943354D01*
X82722093Y-63943350D01*
X82837187Y-63857190D01*
X82837190Y-63857187D01*
X82923350Y-63742093D01*
X82923354Y-63742086D01*
X82973596Y-63607379D01*
X82973598Y-63607372D01*
X82979999Y-63547844D01*
X82980000Y-63547827D01*
X82980000Y-62750000D01*
X82028482Y-62750000D01*
X82039111Y-62731591D01*
X82080000Y-62578991D01*
X82080000Y-62421009D01*
X82039111Y-62268409D01*
X82028482Y-62250000D01*
X82980000Y-62250000D01*
X82980000Y-61452172D01*
X82979999Y-61452155D01*
X82973598Y-61392627D01*
X82973596Y-61392620D01*
X82923354Y-61257913D01*
X82923350Y-61257906D01*
X82837190Y-61142812D01*
X82837187Y-61142809D01*
X82722093Y-61056649D01*
X82722086Y-61056645D01*
X82587379Y-61006403D01*
X82587372Y-61006401D01*
X82527844Y-61000000D01*
X81730000Y-61000000D01*
X81730000Y-61951517D01*
X81711591Y-61940889D01*
X81558991Y-61900000D01*
X81401009Y-61900000D01*
X81248409Y-61940889D01*
X81230000Y-61951517D01*
X81230000Y-61000000D01*
X80432155Y-61000000D01*
X80372627Y-61006401D01*
X80372620Y-61006403D01*
X80237913Y-61056645D01*
X80237906Y-61056649D01*
X80122812Y-61142809D01*
X80122809Y-61142812D01*
X80036649Y-61257906D01*
X80036645Y-61257913D01*
X79986403Y-61392620D01*
X79986401Y-61392627D01*
X79980000Y-61452155D01*
X79980000Y-61598653D01*
X79960315Y-61665692D01*
X79907511Y-61711447D01*
X79838353Y-61721391D01*
X79774797Y-61692366D01*
X79750275Y-61663447D01*
X79748868Y-61661151D01*
X79600798Y-61457350D01*
X79600794Y-61457345D01*
X79422654Y-61279205D01*
X79422649Y-61279201D01*
X79218848Y-61131132D01*
X79218847Y-61131131D01*
X79218845Y-61131130D01*
X79148747Y-61095413D01*
X78994383Y-61016760D01*
X78754785Y-60938910D01*
X78505962Y-60899500D01*
X78254038Y-60899500D01*
X78129626Y-60919205D01*
X78005214Y-60938910D01*
X77765616Y-61016760D01*
X77541151Y-61131132D01*
X77337350Y-61279201D01*
X77337345Y-61279205D01*
X77159205Y-61457345D01*
X77159201Y-61457350D01*
X77011132Y-61661151D01*
X76896760Y-61885616D01*
X76818910Y-62125214D01*
X76814796Y-62151187D01*
X76779500Y-62374038D01*
X76498266Y-62374038D01*
X76464165Y-62151187D01*
X76387534Y-61916734D01*
X76285845Y-61721391D01*
X76273643Y-61697951D01*
X76273641Y-61697948D01*
X76273640Y-61697946D01*
X76125542Y-61500697D01*
X76080182Y-61457350D01*
X75947220Y-61330289D01*
X75947207Y-61330279D01*
X75743452Y-61191287D01*
X75743447Y-61191285D01*
X75519731Y-61087439D01*
X75519723Y-61087436D01*
X75282039Y-61021520D01*
X75282038Y-61021519D01*
X75282035Y-61021519D01*
X75222489Y-61015155D01*
X75036774Y-60995307D01*
X74790525Y-61009507D01*
X74790520Y-61009507D01*
X74549907Y-61063731D01*
X74321363Y-61156533D01*
X74111052Y-61285412D01*
X73924619Y-61446907D01*
X73767062Y-61636685D01*
X73767054Y-61636696D01*
X73642614Y-61849650D01*
X73554624Y-62080072D01*
X73505447Y-62321785D01*
X73496408Y-62568282D01*
X71680500Y-62568282D01*
X71680500Y-62374038D01*
X71641090Y-62125215D01*
X71563241Y-61885621D01*
X71563239Y-61885618D01*
X71563239Y-61885616D01*
X71521747Y-61804184D01*
X71448870Y-61661155D01*
X71403460Y-61598653D01*
X71300798Y-61457350D01*
X71300794Y-61457345D01*
X71122654Y-61279205D01*
X71122649Y-61279201D01*
X70918848Y-61131132D01*
X70918847Y-61131131D01*
X70918845Y-61131130D01*
X70848747Y-61095413D01*
X70694383Y-61016760D01*
X70454785Y-60938910D01*
X70205962Y-60899500D01*
X69954038Y-60899500D01*
X69829626Y-60919205D01*
X69705214Y-60938910D01*
X69465616Y-61016760D01*
X69241151Y-61131132D01*
X69037350Y-61279201D01*
X69037345Y-61279205D01*
X68859205Y-61457345D01*
X68859201Y-61457350D01*
X68711132Y-61661151D01*
X68596760Y-61885616D01*
X68518910Y-62125214D01*
X68514796Y-62151187D01*
X68479500Y-62374038D01*
X68479500Y-62625962D01*
X68496230Y-62731591D01*
X68518910Y-62874785D01*
X68596760Y-63114383D01*
X68675413Y-63268747D01*
X68709965Y-63336559D01*
X68711132Y-63338848D01*
X68859201Y-63542649D01*
X68859205Y-63542654D01*
X69037345Y-63720794D01*
X69037350Y-63720798D01*
X69132814Y-63790156D01*
X69241155Y-63868870D01*
X69411795Y-63955815D01*
X69462591Y-64003789D01*
X69479500Y-64066300D01*
X69479500Y-86869902D01*
X69459815Y-86936941D01*
X69443181Y-86957583D01*
X67618481Y-88782282D01*
X67618480Y-88782284D01*
X67579673Y-88849500D01*
X67539423Y-88919215D01*
X67498499Y-89071943D01*
X67498499Y-89071945D01*
X67498499Y-89240046D01*
X67498500Y-89240059D01*
X67498500Y-100833802D01*
X67478815Y-100900841D01*
X67462181Y-100921483D01*
X63229481Y-105154182D01*
X63229477Y-105154187D01*
X63179690Y-105240423D01*
X63150423Y-105291115D01*
X63109499Y-105443843D01*
X63109499Y-105443845D01*
X63109499Y-105611946D01*
X63109500Y-105611959D01*
X63109500Y-106520397D01*
X63089815Y-106587436D01*
X63041800Y-106630879D01*
X63028389Y-106637712D01*
X62862786Y-106758028D01*
X62718028Y-106902786D01*
X62597715Y-107068386D01*
X62504781Y-107250776D01*
X62441522Y-107445465D01*
X62409500Y-107647648D01*
X62409500Y-107852351D01*
X62441522Y-108054534D01*
X62504781Y-108249223D01*
X62597715Y-108431613D01*
X62718028Y-108597213D01*
X62862786Y-108741971D01*
X63015945Y-108853245D01*
X63028390Y-108862287D01*
X63127060Y-108912562D01*
X63210776Y-108955218D01*
X63210778Y-108955218D01*
X63210781Y-108955220D01*
X63285818Y-108979601D01*
X63405465Y-109018477D01*
X63506557Y-109034488D01*
X63607648Y-109050500D01*
X63607649Y-109050500D01*
X63812351Y-109050500D01*
X63812352Y-109050500D01*
X64014534Y-109018477D01*
X64209219Y-108955220D01*
X64391610Y-108862287D01*
X64491773Y-108789515D01*
X64557213Y-108741971D01*
X64557215Y-108741968D01*
X64557219Y-108741966D01*
X64701966Y-108597219D01*
X64701968Y-108597215D01*
X64701971Y-108597213D01*
X64754732Y-108524590D01*
X64822287Y-108431610D01*
X64915220Y-108249219D01*
X64978477Y-108054534D01*
X65010500Y-107852352D01*
X65010500Y-107647648D01*
X64990432Y-107520943D01*
X64978477Y-107445465D01*
X64949127Y-107355137D01*
X64915220Y-107250781D01*
X64915218Y-107250778D01*
X64915218Y-107250776D01*
X64879114Y-107179920D01*
X64822287Y-107068390D01*
X64794394Y-107029998D01*
X64701971Y-106902786D01*
X64557213Y-106758028D01*
X64391610Y-106637712D01*
X64378200Y-106630879D01*
X64327406Y-106582903D01*
X64310500Y-106520397D01*
X64310500Y-105822997D01*
X64330185Y-105755958D01*
X64346819Y-105735316D01*
X65687819Y-104394316D01*
X65749142Y-104360831D01*
X65818834Y-104365815D01*
X65874767Y-104407687D01*
X65899184Y-104473151D01*
X65899500Y-104481997D01*
X65899500Y-111519902D01*
X65879815Y-111586941D01*
X65863181Y-111607583D01*
X64214842Y-113255921D01*
X64153519Y-113289406D01*
X64088848Y-113286173D01*
X64074534Y-113281522D01*
X63899995Y-113253878D01*
X63872352Y-113249500D01*
X63667648Y-113249500D01*
X63643329Y-113253351D01*
X63465465Y-113281522D01*
X63270776Y-113344781D01*
X63088386Y-113437715D01*
X62922786Y-113558028D01*
X62778028Y-113702786D01*
X62657715Y-113868386D01*
X62564781Y-114050776D01*
X62501522Y-114245465D01*
X62469500Y-114447648D01*
X62469500Y-114652351D01*
X62501522Y-114854534D01*
X62564781Y-115049223D01*
X62657715Y-115231613D01*
X62778028Y-115397213D01*
X62922786Y-115541971D01*
X63019566Y-115612284D01*
X63088390Y-115662287D01*
X63172647Y-115705218D01*
X63270776Y-115755218D01*
X63270778Y-115755218D01*
X63270781Y-115755220D01*
X63344867Y-115779292D01*
X63465465Y-115818477D01*
X63538774Y-115830088D01*
X63667648Y-115850500D01*
X63667649Y-115850500D01*
X63872351Y-115850500D01*
X63872352Y-115850500D01*
X64074534Y-115818477D01*
X64269219Y-115755220D01*
X64451610Y-115662287D01*
X64568240Y-115577551D01*
X64617213Y-115541971D01*
X64617215Y-115541968D01*
X64617219Y-115541966D01*
X64637819Y-115521366D01*
X64699142Y-115487881D01*
X64768834Y-115492865D01*
X64824767Y-115534737D01*
X64849184Y-115600201D01*
X64849500Y-115609047D01*
X64849500Y-117451821D01*
X64829815Y-117518860D01*
X64777011Y-117564615D01*
X64707853Y-117574559D01*
X64652247Y-117549401D01*
X64651161Y-117550897D01*
X64481613Y-117427715D01*
X64481612Y-117427714D01*
X64481610Y-117427713D01*
X64422604Y-117397648D01*
X64299223Y-117334781D01*
X64104534Y-117271522D01*
X63929995Y-117243878D01*
X63902352Y-117239500D01*
X63697648Y-117239500D01*
X63657211Y-117245904D01*
X63495462Y-117271523D01*
X63495460Y-117271523D01*
X63481149Y-117276173D01*
X63411308Y-117278164D01*
X63355157Y-117245921D01*
X56726819Y-110617583D01*
X56693334Y-110556260D01*
X56690500Y-110529902D01*
X56690500Y-108979601D01*
X56710185Y-108912562D01*
X56758206Y-108869116D01*
X56771610Y-108862287D01*
X56937219Y-108741966D01*
X57081966Y-108597219D01*
X57081968Y-108597215D01*
X57081971Y-108597213D01*
X57134732Y-108524590D01*
X57202287Y-108431610D01*
X57295220Y-108249219D01*
X57358477Y-108054534D01*
X57390500Y-107852352D01*
X57390500Y-107647648D01*
X57370432Y-107520943D01*
X57358477Y-107445465D01*
X57329127Y-107355137D01*
X57295220Y-107250781D01*
X57295218Y-107250778D01*
X57295218Y-107250776D01*
X57259114Y-107179920D01*
X57202287Y-107068390D01*
X57174394Y-107029998D01*
X57081971Y-106902786D01*
X56937213Y-106758028D01*
X56771613Y-106637715D01*
X56771612Y-106637714D01*
X56771610Y-106637713D01*
X56714653Y-106608691D01*
X56589223Y-106544781D01*
X56394534Y-106481522D01*
X56219995Y-106453878D01*
X56192352Y-106449500D01*
X55987648Y-106449500D01*
X55963329Y-106453351D01*
X55785465Y-106481522D01*
X55590776Y-106544781D01*
X55408386Y-106637715D01*
X55242786Y-106758028D01*
X55098028Y-106902786D01*
X54977715Y-107068386D01*
X54884781Y-107250776D01*
X54821522Y-107445465D01*
X54789500Y-107647648D01*
X53899500Y-107647648D01*
X53899500Y-104441096D01*
X53919185Y-104374057D01*
X53935814Y-104353420D01*
X55745158Y-102544075D01*
X55806479Y-102510592D01*
X55871151Y-102513825D01*
X55885466Y-102518477D01*
X56087648Y-102550500D01*
X56087649Y-102550500D01*
X56292351Y-102550500D01*
X56292352Y-102550500D01*
X56494534Y-102518477D01*
X56689219Y-102455220D01*
X56871610Y-102362287D01*
X56964590Y-102294732D01*
X57037213Y-102241971D01*
X57037215Y-102241968D01*
X57037219Y-102241966D01*
X57181966Y-102097219D01*
X57181968Y-102097215D01*
X57181971Y-102097213D01*
X57259613Y-101990346D01*
X57302287Y-101931610D01*
X57395220Y-101749219D01*
X57458477Y-101554534D01*
X57490500Y-101352352D01*
X57490500Y-101147648D01*
X62509500Y-101147648D01*
X62509500Y-101352351D01*
X62541522Y-101554534D01*
X62604781Y-101749223D01*
X62647428Y-101832921D01*
X62692835Y-101922037D01*
X62697715Y-101931613D01*
X62818028Y-102097213D01*
X62962786Y-102241971D01*
X63117749Y-102354556D01*
X63128390Y-102362287D01*
X63244607Y-102421503D01*
X63310776Y-102455218D01*
X63310778Y-102455218D01*
X63310781Y-102455220D01*
X63415137Y-102489127D01*
X63505465Y-102518477D01*
X63606557Y-102534488D01*
X63707648Y-102550500D01*
X63707649Y-102550500D01*
X63912351Y-102550500D01*
X63912352Y-102550500D01*
X64114534Y-102518477D01*
X64309219Y-102455220D01*
X64491610Y-102362287D01*
X64584590Y-102294732D01*
X64657213Y-102241971D01*
X64657215Y-102241968D01*
X64657219Y-102241966D01*
X64801966Y-102097219D01*
X64801968Y-102097215D01*
X64801971Y-102097213D01*
X64879613Y-101990346D01*
X64922287Y-101931610D01*
X65015220Y-101749219D01*
X65078477Y-101554534D01*
X65110500Y-101352352D01*
X65110500Y-101147648D01*
X65088889Y-101011206D01*
X65078477Y-100945465D01*
X65040584Y-100828844D01*
X65015220Y-100750781D01*
X65015218Y-100750778D01*
X65015218Y-100750776D01*
X64974647Y-100671153D01*
X64922287Y-100568390D01*
X64908172Y-100548962D01*
X64801971Y-100402786D01*
X64657213Y-100258028D01*
X64491613Y-100137715D01*
X64491612Y-100137714D01*
X64491610Y-100137713D01*
X64434653Y-100108691D01*
X64309223Y-100044781D01*
X64114534Y-99981522D01*
X63939995Y-99953878D01*
X63912352Y-99949500D01*
X63707648Y-99949500D01*
X63683329Y-99953351D01*
X63505465Y-99981522D01*
X63310776Y-100044781D01*
X63128386Y-100137715D01*
X62962786Y-100258028D01*
X62818028Y-100402786D01*
X62697715Y-100568386D01*
X62604781Y-100750776D01*
X62541522Y-100945465D01*
X62509500Y-101147648D01*
X57490500Y-101147648D01*
X57468889Y-101011206D01*
X57458477Y-100945465D01*
X57420584Y-100828844D01*
X57395220Y-100750781D01*
X57395218Y-100750778D01*
X57395218Y-100750776D01*
X57354647Y-100671153D01*
X57302287Y-100568390D01*
X57288172Y-100548962D01*
X57181971Y-100402786D01*
X57037213Y-100258028D01*
X56871613Y-100137715D01*
X56871612Y-100137714D01*
X56871610Y-100137713D01*
X56814653Y-100108691D01*
X56689223Y-100044781D01*
X56494534Y-99981522D01*
X56319995Y-99953878D01*
X56292352Y-99949500D01*
X56087648Y-99949500D01*
X56063329Y-99953351D01*
X55885465Y-99981522D01*
X55690776Y-100044781D01*
X55508386Y-100137715D01*
X55342786Y-100258028D01*
X55198028Y-100402786D01*
X55077715Y-100568386D01*
X54984781Y-100750776D01*
X54921522Y-100945465D01*
X54889500Y-101147648D01*
X54889500Y-101352351D01*
X54921522Y-101554534D01*
X54926173Y-101568848D01*
X54928165Y-101638690D01*
X54895921Y-101694842D01*
X52930286Y-103660478D01*
X52818481Y-103772282D01*
X52818479Y-103772285D01*
X52768361Y-103859094D01*
X52768359Y-103859096D01*
X52739425Y-103909209D01*
X52739424Y-103909210D01*
X52736223Y-103921158D01*
X52698499Y-104061943D01*
X52698499Y-104220057D01*
X52698499Y-104220059D01*
X52698500Y-104230053D01*
X52698500Y-138366436D01*
X52698499Y-138366454D01*
X52698499Y-138532160D01*
X52698498Y-138532160D01*
X50500500Y-138532160D01*
X50500500Y-95419055D01*
X53429499Y-95419055D01*
X53470424Y-95571785D01*
X53470424Y-95571786D01*
X53498735Y-95620822D01*
X53498735Y-95620823D01*
X53549476Y-95708710D01*
X53549482Y-95708718D01*
X53668350Y-95827586D01*
X53668356Y-95827591D01*
X54895922Y-97055157D01*
X54929407Y-97116480D01*
X54926173Y-97181155D01*
X54921522Y-97195468D01*
X54889500Y-97397648D01*
X54889500Y-97602351D01*
X54921522Y-97804534D01*
X54984781Y-97999223D01*
X55041677Y-98110886D01*
X55054522Y-98136096D01*
X55077715Y-98181613D01*
X55198028Y-98347213D01*
X55342786Y-98491971D01*
X55495759Y-98603110D01*
X55508390Y-98612287D01*
X55584559Y-98651097D01*
X55690776Y-98705218D01*
X55690778Y-98705218D01*
X55690781Y-98705220D01*
X55795137Y-98739127D01*
X55885465Y-98768477D01*
X55986557Y-98784488D01*
X56087648Y-98800500D01*
X56087649Y-98800500D01*
X56292351Y-98800500D01*
X56292352Y-98800500D01*
X56494534Y-98768477D01*
X56689219Y-98705220D01*
X56871610Y-98612287D01*
X56994606Y-98522926D01*
X57037213Y-98491971D01*
X57037215Y-98491968D01*
X57037219Y-98491966D01*
X57181966Y-98347219D01*
X57181968Y-98347215D01*
X57181971Y-98347213D01*
X57236658Y-98271941D01*
X57302287Y-98181610D01*
X57395220Y-97999219D01*
X57458477Y-97804534D01*
X57490500Y-97602352D01*
X57490500Y-97397648D01*
X57458477Y-97195466D01*
X57395220Y-97000781D01*
X57395218Y-97000778D01*
X57395218Y-97000776D01*
X57361503Y-96934607D01*
X57302287Y-96818390D01*
X57274353Y-96779942D01*
X57181971Y-96652786D01*
X57037213Y-96508028D01*
X56871613Y-96387715D01*
X56871612Y-96387714D01*
X56871610Y-96387713D01*
X56786800Y-96344500D01*
X56689223Y-96294781D01*
X56494534Y-96231522D01*
X56319995Y-96203878D01*
X56292352Y-96199500D01*
X56087648Y-96199500D01*
X56049599Y-96205526D01*
X55885468Y-96231522D01*
X55879390Y-96233497D01*
X55871154Y-96236173D01*
X55801313Y-96238167D01*
X55745157Y-96205922D01*
X54666820Y-95127585D01*
X54633335Y-95066262D01*
X54630501Y-95039904D01*
X54630501Y-79186522D01*
X54650186Y-79119483D01*
X54702990Y-79073728D01*
X54772148Y-79063784D01*
X54773859Y-79064043D01*
X55004038Y-79100500D01*
X55004039Y-79100500D01*
X55255961Y-79100500D01*
X55255962Y-79100500D01*
X55504785Y-79061090D01*
X55744379Y-78983241D01*
X55968845Y-78868870D01*
X56172656Y-78720793D01*
X56350793Y-78542656D01*
X56383989Y-78496965D01*
X56466182Y-78383837D01*
X56521511Y-78341171D01*
X56591125Y-78335192D01*
X56652920Y-78367797D01*
X56687277Y-78428636D01*
X56690500Y-78456722D01*
X56690500Y-88374524D01*
X56670815Y-88441563D01*
X56618011Y-88487318D01*
X56548853Y-88497262D01*
X56528183Y-88492455D01*
X56494542Y-88481524D01*
X56494535Y-88481523D01*
X56393443Y-88465511D01*
X56292352Y-88449500D01*
X56087648Y-88449500D01*
X56063329Y-88453351D01*
X55885465Y-88481522D01*
X55690776Y-88544781D01*
X55508386Y-88637715D01*
X55342786Y-88758028D01*
X55198028Y-88902786D01*
X55077715Y-89068386D01*
X54984781Y-89250776D01*
X54921522Y-89445465D01*
X54889500Y-89647648D01*
X54889500Y-89852351D01*
X54921522Y-90054534D01*
X54984781Y-90249223D01*
X55019808Y-90317966D01*
X55077585Y-90431359D01*
X55077715Y-90431613D01*
X55198028Y-90597213D01*
X55342786Y-90741971D01*
X55448449Y-90818738D01*
X55508390Y-90862287D01*
X55624607Y-90921503D01*
X55690776Y-90955218D01*
X55690778Y-90955218D01*
X55690781Y-90955220D01*
X55795137Y-90989127D01*
X55885465Y-91018477D01*
X55986557Y-91034488D01*
X56087648Y-91050500D01*
X56087649Y-91050500D01*
X56292351Y-91050500D01*
X56292352Y-91050500D01*
X56494534Y-91018477D01*
X56494539Y-91018475D01*
X56494541Y-91018475D01*
X56528180Y-91007545D01*
X56598021Y-91005548D01*
X56657854Y-91041628D01*
X56688684Y-91104328D01*
X56690500Y-91125475D01*
X56690500Y-92348901D01*
X56681855Y-92378340D01*
X56675331Y-92408331D01*
X56671576Y-92413345D01*
X56670815Y-92415940D01*
X56654179Y-92436585D01*
X56634839Y-92455924D01*
X56573515Y-92489407D01*
X56508845Y-92486172D01*
X56494535Y-92481523D01*
X56393443Y-92465511D01*
X56292352Y-92449500D01*
X56087648Y-92449500D01*
X56063329Y-92453351D01*
X55885465Y-92481522D01*
X55690776Y-92544781D01*
X55508386Y-92637715D01*
X55342786Y-92758028D01*
X55198028Y-92902786D01*
X55077715Y-93068386D01*
X54984781Y-93250776D01*
X54921522Y-93445465D01*
X54900452Y-93578498D01*
X54889500Y-93647648D01*
X54889500Y-93852352D01*
X54893878Y-93879995D01*
X54921522Y-94054534D01*
X54984781Y-94249223D01*
X55048691Y-94374653D01*
X55069391Y-94415278D01*
X55077715Y-94431613D01*
X55198028Y-94597213D01*
X55342786Y-94741971D01*
X55440199Y-94812744D01*
X55508390Y-94862287D01*
X55624607Y-94921503D01*
X55690776Y-94955218D01*
X55690778Y-94955218D01*
X55690781Y-94955220D01*
X55795137Y-94989127D01*
X55885465Y-95018477D01*
X55986557Y-95034488D01*
X56087648Y-95050500D01*
X56087649Y-95050500D01*
X56292351Y-95050500D01*
X56292352Y-95050500D01*
X56494534Y-95018477D01*
X56689219Y-94955220D01*
X56871610Y-94862287D01*
X56982729Y-94781555D01*
X57037213Y-94741971D01*
X57037215Y-94741968D01*
X57037219Y-94741966D01*
X57181966Y-94597219D01*
X57181968Y-94597215D01*
X57181971Y-94597213D01*
X57254757Y-94497030D01*
X57302287Y-94431610D01*
X57395220Y-94249219D01*
X57458477Y-94054534D01*
X57490500Y-93852352D01*
X57490500Y-93647648D01*
X57458477Y-93445466D01*
X57453825Y-93431151D01*
X57453391Y-93415940D01*
X57448074Y-93401683D01*
X57452414Y-93381728D01*
X57451832Y-93361312D01*
X57459920Y-93347225D01*
X57462926Y-93333410D01*
X57484074Y-93305159D01*
X57649506Y-93139728D01*
X57649511Y-93139724D01*
X57659714Y-93129520D01*
X57659716Y-93129520D01*
X57771520Y-93017716D01*
X57822463Y-92929480D01*
X57850577Y-92880785D01*
X57891500Y-92728057D01*
X57891500Y-92569943D01*
X57891500Y-85147648D01*
X61199500Y-85147648D01*
X61199500Y-85352351D01*
X61231522Y-85554534D01*
X61294781Y-85749223D01*
X61387715Y-85931613D01*
X61508028Y-86097213D01*
X61652786Y-86241971D01*
X61769836Y-86327011D01*
X61818390Y-86362287D01*
X61891425Y-86399500D01*
X62000776Y-86455218D01*
X62000778Y-86455218D01*
X62000781Y-86455220D01*
X62075818Y-86479601D01*
X62195465Y-86518477D01*
X62276716Y-86531346D01*
X62397648Y-86550500D01*
X62397649Y-86550500D01*
X62602351Y-86550500D01*
X62602352Y-86550500D01*
X62804534Y-86518477D01*
X62818842Y-86513827D01*
X62888682Y-86511831D01*
X62944842Y-86544077D01*
X64462181Y-88061416D01*
X64495666Y-88122739D01*
X64498500Y-88149097D01*
X64498500Y-88439434D01*
X64478815Y-88506473D01*
X64426011Y-88552228D01*
X64356853Y-88562172D01*
X64318207Y-88549920D01*
X64309031Y-88545245D01*
X64114417Y-88482009D01*
X63912317Y-88450000D01*
X63707683Y-88450000D01*
X63505582Y-88482009D01*
X63310968Y-88545244D01*
X63128644Y-88638143D01*
X63084077Y-88670523D01*
X63084077Y-88670524D01*
X63763553Y-89350000D01*
X63757339Y-89350000D01*
X63655606Y-89377259D01*
X63564394Y-89429920D01*
X63489920Y-89504394D01*
X63437259Y-89595606D01*
X63410000Y-89697339D01*
X63410000Y-89703553D01*
X62730524Y-89024077D01*
X62730523Y-89024077D01*
X62698143Y-89068644D01*
X62605244Y-89250968D01*
X62542009Y-89445582D01*
X62510000Y-89647682D01*
X62510000Y-89852317D01*
X62542009Y-90054417D01*
X62605244Y-90249031D01*
X62698141Y-90431350D01*
X62698147Y-90431359D01*
X62730523Y-90475921D01*
X62730524Y-90475922D01*
X63410000Y-89796446D01*
X63410000Y-89802661D01*
X63437259Y-89904394D01*
X63489920Y-89995606D01*
X63564394Y-90070080D01*
X63655606Y-90122741D01*
X63757339Y-90150000D01*
X63763552Y-90150000D01*
X63084076Y-90829474D01*
X63128650Y-90861859D01*
X63310968Y-90954755D01*
X63505582Y-91017990D01*
X63707683Y-91050000D01*
X63912317Y-91050000D01*
X64114417Y-91017990D01*
X64309032Y-90954754D01*
X64318200Y-90950083D01*
X64386869Y-90937183D01*
X64451611Y-90963457D01*
X64491870Y-91020562D01*
X64498500Y-91060565D01*
X64498500Y-92438873D01*
X64478815Y-92505912D01*
X64426011Y-92551667D01*
X64356853Y-92561611D01*
X64318208Y-92549359D01*
X64309226Y-92544783D01*
X64309222Y-92544782D01*
X64309219Y-92544780D01*
X64227362Y-92518183D01*
X64114534Y-92481522D01*
X63939995Y-92453878D01*
X63912352Y-92449500D01*
X63707648Y-92449500D01*
X63683329Y-92453351D01*
X63505465Y-92481522D01*
X63310776Y-92544781D01*
X63128386Y-92637715D01*
X62962786Y-92758028D01*
X62818028Y-92902786D01*
X62697715Y-93068386D01*
X62604781Y-93250776D01*
X62541522Y-93445465D01*
X62520452Y-93578498D01*
X62509500Y-93647648D01*
X62509500Y-93852352D01*
X62513878Y-93879995D01*
X62541522Y-94054534D01*
X62604781Y-94249223D01*
X62668691Y-94374653D01*
X62689391Y-94415278D01*
X62697715Y-94431613D01*
X62818028Y-94597213D01*
X62962786Y-94741971D01*
X63060199Y-94812744D01*
X63128390Y-94862287D01*
X63244607Y-94921503D01*
X63310776Y-94955218D01*
X63310778Y-94955218D01*
X63310781Y-94955220D01*
X63415137Y-94989127D01*
X63505465Y-95018477D01*
X63629908Y-95038187D01*
X63693043Y-95068116D01*
X63729974Y-95127428D01*
X63728976Y-95197290D01*
X63690366Y-95255523D01*
X63657963Y-95275221D01*
X63620824Y-95290604D01*
X63620814Y-95290609D01*
X63489711Y-95378210D01*
X63489707Y-95378213D01*
X63378213Y-95489707D01*
X63378210Y-95489711D01*
X63290609Y-95620814D01*
X63290605Y-95620823D01*
X63230264Y-95766498D01*
X63230261Y-95766510D01*
X63199500Y-95921153D01*
X63199500Y-96078846D01*
X63230428Y-96234329D01*
X63224201Y-96303920D01*
X63181338Y-96359097D01*
X63165107Y-96369004D01*
X63128388Y-96387713D01*
X62962786Y-96508028D01*
X62818028Y-96652786D01*
X62697715Y-96818386D01*
X62604781Y-97000776D01*
X62541522Y-97195465D01*
X62509500Y-97397648D01*
X62509500Y-97602351D01*
X62541522Y-97804534D01*
X62604781Y-97999223D01*
X62661677Y-98110886D01*
X62674522Y-98136096D01*
X62697715Y-98181613D01*
X62818028Y-98347213D01*
X62962786Y-98491971D01*
X63115759Y-98603110D01*
X63128390Y-98612287D01*
X63204559Y-98651097D01*
X63310776Y-98705218D01*
X63310778Y-98705218D01*
X63310781Y-98705220D01*
X63415137Y-98739127D01*
X63505465Y-98768477D01*
X63606557Y-98784488D01*
X63707648Y-98800500D01*
X63707649Y-98800500D01*
X63912351Y-98800500D01*
X63912352Y-98800500D01*
X64114534Y-98768477D01*
X64309219Y-98705220D01*
X64491610Y-98612287D01*
X64614606Y-98522926D01*
X64657213Y-98491971D01*
X64657215Y-98491968D01*
X64657219Y-98491966D01*
X64801966Y-98347219D01*
X64801968Y-98347215D01*
X64801971Y-98347213D01*
X64856658Y-98271941D01*
X64922287Y-98181610D01*
X65015220Y-97999219D01*
X65078477Y-97804534D01*
X65110500Y-97602352D01*
X65110500Y-97397648D01*
X65078477Y-97195466D01*
X65073825Y-97181151D01*
X65071832Y-97111312D01*
X65104075Y-97055158D01*
X65858506Y-96300728D01*
X65858511Y-96300724D01*
X65868714Y-96290520D01*
X65868716Y-96290520D01*
X65980520Y-96178716D01*
X66046711Y-96064069D01*
X66059577Y-96041785D01*
X66100501Y-95889057D01*
X66100501Y-95730943D01*
X66100501Y-95723348D01*
X66100500Y-95723330D01*
X66100500Y-88097955D01*
X66120185Y-88030916D01*
X66172989Y-87985161D01*
X66200303Y-87976339D01*
X66233497Y-87969737D01*
X66379179Y-87909394D01*
X66510289Y-87821789D01*
X66621789Y-87710289D01*
X66709394Y-87579179D01*
X66769737Y-87433497D01*
X66800500Y-87278842D01*
X66800500Y-87121158D01*
X66800500Y-87121155D01*
X66800499Y-87121153D01*
X66800312Y-87120212D01*
X66769737Y-86966503D01*
X66757492Y-86936941D01*
X66709397Y-86820827D01*
X66709390Y-86820814D01*
X66621789Y-86689711D01*
X66621786Y-86689707D01*
X66510292Y-86578213D01*
X66510288Y-86578210D01*
X66379185Y-86490609D01*
X66379172Y-86490602D01*
X66233501Y-86430264D01*
X66233489Y-86430261D01*
X66078845Y-86399500D01*
X66078842Y-86399500D01*
X65989047Y-86399500D01*
X65922008Y-86379815D01*
X65876253Y-86327011D01*
X65866309Y-86257853D01*
X65895334Y-86194297D01*
X65901366Y-86187819D01*
X65991966Y-86097219D01*
X65991968Y-86097215D01*
X65991971Y-86097213D01*
X66089456Y-85963034D01*
X66112287Y-85931610D01*
X66205220Y-85749219D01*
X66268477Y-85554534D01*
X66300500Y-85352352D01*
X66300500Y-85147648D01*
X66268477Y-84945466D01*
X66205220Y-84750781D01*
X66205218Y-84750778D01*
X66205218Y-84750776D01*
X66139515Y-84621828D01*
X66112287Y-84568390D01*
X66104556Y-84557749D01*
X65991971Y-84402786D01*
X65847213Y-84258028D01*
X65681613Y-84137715D01*
X65681612Y-84137714D01*
X65681610Y-84137713D01*
X65624653Y-84108691D01*
X65499223Y-84044781D01*
X65304534Y-83981522D01*
X65129995Y-83953878D01*
X65102352Y-83949500D01*
X64897648Y-83949500D01*
X64873329Y-83953351D01*
X64695465Y-83981522D01*
X64500776Y-84044781D01*
X64318386Y-84137715D01*
X64152786Y-84258028D01*
X64008028Y-84402786D01*
X63887713Y-84568388D01*
X63860484Y-84621828D01*
X63812510Y-84672623D01*
X63744688Y-84689418D01*
X63678554Y-84666880D01*
X63639516Y-84621828D01*
X63612286Y-84568388D01*
X63491971Y-84402786D01*
X63347213Y-84258028D01*
X63181613Y-84137715D01*
X63181612Y-84137714D01*
X63181610Y-84137713D01*
X63124653Y-84108691D01*
X62999223Y-84044781D01*
X62804534Y-83981522D01*
X62629995Y-83953878D01*
X62602352Y-83949500D01*
X62397648Y-83949500D01*
X62373329Y-83953351D01*
X62195465Y-83981522D01*
X62000776Y-84044781D01*
X61818386Y-84137715D01*
X61652786Y-84258028D01*
X61508028Y-84402786D01*
X61387715Y-84568386D01*
X61294781Y-84750776D01*
X61231522Y-84945465D01*
X61199500Y-85147648D01*
X57891500Y-85147648D01*
X57891500Y-77568282D01*
X58546408Y-77568282D01*
X58577750Y-77812937D01*
X58648627Y-78049184D01*
X58648628Y-78049186D01*
X58648630Y-78049191D01*
X58715952Y-78186613D01*
X58757144Y-78270697D01*
X58900374Y-78471499D01*
X58900380Y-78471506D01*
X59074487Y-78646222D01*
X59074492Y-78646226D01*
X59274791Y-78790156D01*
X59274797Y-78790159D01*
X59495918Y-78899444D01*
X59495919Y-78899444D01*
X59495921Y-78899445D01*
X59731926Y-78971149D01*
X59976474Y-79003344D01*
X60042914Y-79004967D01*
X60049995Y-79005141D01*
X60049996Y-79005140D01*
X60050000Y-79005141D01*
X60295829Y-78984930D01*
X60535055Y-78924841D01*
X60761256Y-78826486D01*
X60968355Y-78692508D01*
X61150790Y-78526504D01*
X61303664Y-78332932D01*
X61422869Y-78116992D01*
X61423795Y-78114379D01*
X61505203Y-77884491D01*
X61505203Y-77884489D01*
X61505206Y-77884482D01*
X61548461Y-77641646D01*
X61551475Y-77395007D01*
X61548266Y-77374038D01*
X61829500Y-77374038D01*
X61829500Y-77625962D01*
X61846230Y-77731591D01*
X61868910Y-77874785D01*
X61946760Y-78114383D01*
X62006324Y-78231283D01*
X62059965Y-78336559D01*
X62061132Y-78338848D01*
X62209201Y-78542649D01*
X62209205Y-78542654D01*
X62387345Y-78720794D01*
X62387350Y-78720798D01*
X62459857Y-78773477D01*
X62591155Y-78868870D01*
X62734184Y-78941747D01*
X62815616Y-78983239D01*
X62815618Y-78983239D01*
X62815621Y-78983241D01*
X63055215Y-79061090D01*
X63304038Y-79100500D01*
X63304039Y-79100500D01*
X63555961Y-79100500D01*
X63555962Y-79100500D01*
X63804785Y-79061090D01*
X64044379Y-78983241D01*
X64268845Y-78868870D01*
X64472656Y-78720793D01*
X64650793Y-78542656D01*
X64798870Y-78338845D01*
X64798872Y-78338839D01*
X64800271Y-78336559D01*
X64801031Y-78335870D01*
X64801734Y-78334904D01*
X64801937Y-78335051D01*
X64852081Y-78289682D01*
X64921010Y-78278258D01*
X64985174Y-78305913D01*
X65024200Y-78363867D01*
X65030000Y-78401346D01*
X65030000Y-78547844D01*
X65036401Y-78607372D01*
X65036403Y-78607379D01*
X65086645Y-78742086D01*
X65086649Y-78742093D01*
X65172809Y-78857187D01*
X65172812Y-78857190D01*
X65287906Y-78943350D01*
X65287913Y-78943354D01*
X65422620Y-78993596D01*
X65422627Y-78993598D01*
X65482155Y-78999999D01*
X65482172Y-79000000D01*
X66280000Y-79000000D01*
X66280000Y-78048482D01*
X66298409Y-78059111D01*
X66451009Y-78100000D01*
X66608991Y-78100000D01*
X66761591Y-78059111D01*
X66780000Y-78048482D01*
X66780000Y-79000000D01*
X67577828Y-79000000D01*
X67577844Y-78999999D01*
X67637372Y-78993598D01*
X67637379Y-78993596D01*
X67772086Y-78943354D01*
X67772093Y-78943350D01*
X67887187Y-78857190D01*
X67887190Y-78857187D01*
X67973350Y-78742093D01*
X67973354Y-78742086D01*
X68023596Y-78607379D01*
X68023598Y-78607372D01*
X68029999Y-78547844D01*
X68030000Y-78547827D01*
X68030000Y-77750000D01*
X67078482Y-77750000D01*
X67089111Y-77731591D01*
X67130000Y-77578991D01*
X67130000Y-77421009D01*
X67089111Y-77268409D01*
X67078482Y-77250000D01*
X68030000Y-77250000D01*
X68030000Y-76452172D01*
X68029999Y-76452155D01*
X68023598Y-76392627D01*
X68023596Y-76392620D01*
X67973354Y-76257913D01*
X67973350Y-76257906D01*
X67887190Y-76142812D01*
X67887187Y-76142809D01*
X67772093Y-76056649D01*
X67772086Y-76056645D01*
X67637379Y-76006403D01*
X67637372Y-76006401D01*
X67577844Y-76000000D01*
X66780000Y-76000000D01*
X66780000Y-76951517D01*
X66761591Y-76940889D01*
X66608991Y-76900000D01*
X66451009Y-76900000D01*
X66298409Y-76940889D01*
X66280000Y-76951517D01*
X66280000Y-76000000D01*
X65482155Y-76000000D01*
X65422627Y-76006401D01*
X65422620Y-76006403D01*
X65287913Y-76056645D01*
X65287906Y-76056649D01*
X65172812Y-76142809D01*
X65172809Y-76142812D01*
X65086649Y-76257906D01*
X65086645Y-76257913D01*
X65036403Y-76392620D01*
X65036401Y-76392627D01*
X65030000Y-76452155D01*
X65030000Y-76598653D01*
X65010315Y-76665692D01*
X64957511Y-76711447D01*
X64888353Y-76721391D01*
X64824797Y-76692366D01*
X64800275Y-76663447D01*
X64798868Y-76661151D01*
X64650798Y-76457350D01*
X64650794Y-76457345D01*
X64472654Y-76279205D01*
X64472649Y-76279201D01*
X64268848Y-76131132D01*
X64268847Y-76131131D01*
X64268845Y-76131130D01*
X64198747Y-76095413D01*
X64044383Y-76016760D01*
X63804785Y-75938910D01*
X63555962Y-75899500D01*
X63304038Y-75899500D01*
X63179626Y-75919205D01*
X63055214Y-75938910D01*
X62815616Y-76016760D01*
X62591151Y-76131132D01*
X62387350Y-76279201D01*
X62387345Y-76279205D01*
X62209205Y-76457345D01*
X62209201Y-76457350D01*
X62061132Y-76661151D01*
X61946760Y-76885616D01*
X61868910Y-77125214D01*
X61864796Y-77151187D01*
X61829500Y-77374038D01*
X61548266Y-77374038D01*
X61514165Y-77151187D01*
X61437534Y-76916734D01*
X61335845Y-76721391D01*
X61323643Y-76697951D01*
X61323641Y-76697948D01*
X61323640Y-76697946D01*
X61184805Y-76513034D01*
X61175543Y-76500698D01*
X60997220Y-76330289D01*
X60997207Y-76330279D01*
X60793452Y-76191287D01*
X60793447Y-76191285D01*
X60569731Y-76087439D01*
X60569723Y-76087436D01*
X60332039Y-76021520D01*
X60332038Y-76021519D01*
X60332035Y-76021519D01*
X60272489Y-76015155D01*
X60086774Y-75995307D01*
X59840525Y-76009507D01*
X59840520Y-76009507D01*
X59599907Y-76063731D01*
X59371363Y-76156533D01*
X59161052Y-76285412D01*
X58974619Y-76446907D01*
X58817062Y-76636685D01*
X58817054Y-76636696D01*
X58692614Y-76849650D01*
X58604624Y-77080072D01*
X58555447Y-77321785D01*
X58546408Y-77568282D01*
X57891500Y-77568282D01*
X57891500Y-64631943D01*
X57850577Y-64479216D01*
X57850577Y-64479215D01*
X57850577Y-64479214D01*
X57821639Y-64429095D01*
X57821637Y-64429092D01*
X57771520Y-64342284D01*
X57659716Y-64230480D01*
X57659715Y-64230479D01*
X57655385Y-64226149D01*
X57655374Y-64226139D01*
X56612158Y-63182923D01*
X56578673Y-63121600D01*
X56581907Y-63056928D01*
X56641090Y-62874785D01*
X56680500Y-62625962D01*
X56680500Y-62568282D01*
X58496408Y-62568282D01*
X58527750Y-62812937D01*
X58598627Y-63049184D01*
X58598628Y-63049186D01*
X58598630Y-63049191D01*
X58631845Y-63116991D01*
X58707144Y-63270697D01*
X58850374Y-63471499D01*
X58850380Y-63471506D01*
X59024487Y-63646222D01*
X59024492Y-63646226D01*
X59224791Y-63790156D01*
X59224797Y-63790159D01*
X59445918Y-63899444D01*
X59445919Y-63899444D01*
X59445921Y-63899445D01*
X59681926Y-63971149D01*
X59926474Y-64003344D01*
X59992914Y-64004967D01*
X59999995Y-64005141D01*
X59999996Y-64005140D01*
X60000000Y-64005141D01*
X60245829Y-63984930D01*
X60485055Y-63924841D01*
X60711256Y-63826486D01*
X60918355Y-63692508D01*
X61100790Y-63526504D01*
X61253664Y-63332932D01*
X61372869Y-63116992D01*
X61373795Y-63114379D01*
X61455203Y-62884491D01*
X61455203Y-62884489D01*
X61455206Y-62884482D01*
X61498461Y-62641646D01*
X61501475Y-62395007D01*
X61498266Y-62374038D01*
X61779500Y-62374038D01*
X61779500Y-62625962D01*
X61796230Y-62731591D01*
X61818910Y-62874785D01*
X61896760Y-63114383D01*
X61975413Y-63268747D01*
X62009965Y-63336559D01*
X62011132Y-63338848D01*
X62159201Y-63542649D01*
X62159205Y-63542654D01*
X62337345Y-63720794D01*
X62337350Y-63720798D01*
X62432814Y-63790156D01*
X62541155Y-63868870D01*
X62684184Y-63941747D01*
X62765616Y-63983239D01*
X62765618Y-63983239D01*
X62765621Y-63983241D01*
X63005215Y-64061090D01*
X63254038Y-64100500D01*
X63254039Y-64100500D01*
X63505961Y-64100500D01*
X63505962Y-64100500D01*
X63754785Y-64061090D01*
X63994379Y-63983241D01*
X64218845Y-63868870D01*
X64422656Y-63720793D01*
X64600793Y-63542656D01*
X64748870Y-63338845D01*
X64748872Y-63338839D01*
X64750271Y-63336559D01*
X64751031Y-63335870D01*
X64751734Y-63334904D01*
X64751937Y-63335051D01*
X64802081Y-63289682D01*
X64871010Y-63278258D01*
X64935174Y-63305913D01*
X64974200Y-63363867D01*
X64980000Y-63401346D01*
X64980000Y-63547844D01*
X64986401Y-63607372D01*
X64986403Y-63607379D01*
X65036645Y-63742086D01*
X65036649Y-63742093D01*
X65122809Y-63857187D01*
X65122812Y-63857190D01*
X65237906Y-63943350D01*
X65237913Y-63943354D01*
X65372620Y-63993596D01*
X65372627Y-63993598D01*
X65432155Y-63999999D01*
X65432172Y-64000000D01*
X66230000Y-64000000D01*
X66230000Y-63048482D01*
X66248409Y-63059111D01*
X66401009Y-63100000D01*
X66558991Y-63100000D01*
X66711591Y-63059111D01*
X66730000Y-63048482D01*
X66730000Y-64000000D01*
X67527828Y-64000000D01*
X67527844Y-63999999D01*
X67587372Y-63993598D01*
X67587379Y-63993596D01*
X67722086Y-63943354D01*
X67722093Y-63943350D01*
X67837187Y-63857190D01*
X67837190Y-63857187D01*
X67923350Y-63742093D01*
X67923354Y-63742086D01*
X67973596Y-63607379D01*
X67973598Y-63607372D01*
X67979999Y-63547844D01*
X67980000Y-63547827D01*
X67980000Y-62750000D01*
X67028482Y-62750000D01*
X67039111Y-62731591D01*
X67080000Y-62578991D01*
X67080000Y-62421009D01*
X67039111Y-62268409D01*
X67028482Y-62250000D01*
X67980000Y-62250000D01*
X67980000Y-61452172D01*
X67979999Y-61452155D01*
X67973598Y-61392627D01*
X67973596Y-61392620D01*
X67923354Y-61257913D01*
X67923350Y-61257906D01*
X67837190Y-61142812D01*
X67837187Y-61142809D01*
X67722093Y-61056649D01*
X67722086Y-61056645D01*
X67587379Y-61006403D01*
X67587372Y-61006401D01*
X67527844Y-61000000D01*
X66730000Y-61000000D01*
X66730000Y-61951517D01*
X66711591Y-61940889D01*
X66558991Y-61900000D01*
X66401009Y-61900000D01*
X66248409Y-61940889D01*
X66230000Y-61951517D01*
X66230000Y-61000000D01*
X65432155Y-61000000D01*
X65372627Y-61006401D01*
X65372620Y-61006403D01*
X65237913Y-61056645D01*
X65237906Y-61056649D01*
X65122812Y-61142809D01*
X65122809Y-61142812D01*
X65036649Y-61257906D01*
X65036645Y-61257913D01*
X64986403Y-61392620D01*
X64986401Y-61392627D01*
X64980000Y-61452155D01*
X64980000Y-61598653D01*
X64960315Y-61665692D01*
X64907511Y-61711447D01*
X64838353Y-61721391D01*
X64774797Y-61692366D01*
X64750275Y-61663447D01*
X64748868Y-61661151D01*
X64600798Y-61457350D01*
X64600794Y-61457345D01*
X64422654Y-61279205D01*
X64422649Y-61279201D01*
X64218848Y-61131132D01*
X64218847Y-61131131D01*
X64218845Y-61131130D01*
X64148747Y-61095413D01*
X63994383Y-61016760D01*
X63754785Y-60938910D01*
X63505962Y-60899500D01*
X63254038Y-60899500D01*
X63129626Y-60919205D01*
X63005214Y-60938910D01*
X62765616Y-61016760D01*
X62541151Y-61131132D01*
X62337350Y-61279201D01*
X62337345Y-61279205D01*
X62159205Y-61457345D01*
X62159201Y-61457350D01*
X62011132Y-61661151D01*
X61896760Y-61885616D01*
X61818910Y-62125214D01*
X61814796Y-62151187D01*
X61779500Y-62374038D01*
X61498266Y-62374038D01*
X61464165Y-62151187D01*
X61387534Y-61916734D01*
X61285845Y-61721391D01*
X61273643Y-61697951D01*
X61273641Y-61697948D01*
X61273640Y-61697946D01*
X61125542Y-61500697D01*
X61080182Y-61457350D01*
X60947220Y-61330289D01*
X60947207Y-61330279D01*
X60743452Y-61191287D01*
X60743447Y-61191285D01*
X60519731Y-61087439D01*
X60519723Y-61087436D01*
X60282039Y-61021520D01*
X60282038Y-61021519D01*
X60282035Y-61021519D01*
X60222489Y-61015155D01*
X60036774Y-60995307D01*
X59790525Y-61009507D01*
X59790520Y-61009507D01*
X59549907Y-61063731D01*
X59321363Y-61156533D01*
X59111052Y-61285412D01*
X58924619Y-61446907D01*
X58767062Y-61636685D01*
X58767054Y-61636696D01*
X58642614Y-61849650D01*
X58554624Y-62080072D01*
X58505447Y-62321785D01*
X58496408Y-62568282D01*
X56680500Y-62568282D01*
X56680500Y-62374038D01*
X56641090Y-62125215D01*
X56563241Y-61885621D01*
X56563239Y-61885618D01*
X56563239Y-61885616D01*
X56521747Y-61804184D01*
X56448870Y-61661155D01*
X56403460Y-61598653D01*
X56300798Y-61457350D01*
X56300794Y-61457345D01*
X56122654Y-61279205D01*
X56122649Y-61279201D01*
X55918848Y-61131132D01*
X55918847Y-61131131D01*
X55918845Y-61131130D01*
X55848747Y-61095413D01*
X55694383Y-61016760D01*
X55454785Y-60938910D01*
X55205962Y-60899500D01*
X54954038Y-60899500D01*
X54829626Y-60919205D01*
X54705214Y-60938910D01*
X54465616Y-61016760D01*
X54241151Y-61131132D01*
X54037350Y-61279201D01*
X54037345Y-61279205D01*
X53859205Y-61457345D01*
X53859201Y-61457350D01*
X53711132Y-61661151D01*
X53596760Y-61885616D01*
X53518910Y-62125214D01*
X53514796Y-62151187D01*
X53479500Y-62374038D01*
X53479500Y-62625962D01*
X53496230Y-62731591D01*
X53518910Y-62874785D01*
X53596760Y-63114383D01*
X53675413Y-63268747D01*
X53709965Y-63336559D01*
X53711132Y-63338848D01*
X53859201Y-63542649D01*
X53859205Y-63542654D01*
X54037345Y-63720794D01*
X54037350Y-63720798D01*
X54132814Y-63790156D01*
X54241155Y-63868870D01*
X54384184Y-63941747D01*
X54465616Y-63983239D01*
X54465618Y-63983239D01*
X54465621Y-63983241D01*
X54705215Y-64061090D01*
X54954038Y-64100500D01*
X54954039Y-64100500D01*
X55205961Y-64100500D01*
X55205962Y-64100500D01*
X55454785Y-64061090D01*
X55636928Y-64001907D01*
X55706764Y-63999912D01*
X55762923Y-64032158D01*
X56654181Y-64923416D01*
X56687666Y-64984739D01*
X56690500Y-65011097D01*
X56690500Y-76543277D01*
X56670815Y-76610316D01*
X56618011Y-76656071D01*
X56548853Y-76666015D01*
X56485297Y-76636990D01*
X56466182Y-76616162D01*
X56350798Y-76457350D01*
X56350794Y-76457345D01*
X56172654Y-76279205D01*
X56172649Y-76279201D01*
X55968848Y-76131132D01*
X55968847Y-76131131D01*
X55968845Y-76131130D01*
X55898747Y-76095413D01*
X55744383Y-76016760D01*
X55504785Y-75938910D01*
X55255962Y-75899500D01*
X55004038Y-75899500D01*
X54879626Y-75919205D01*
X54755214Y-75938910D01*
X54515616Y-76016760D01*
X54291151Y-76131132D01*
X54087350Y-76279201D01*
X54087345Y-76279205D01*
X53909205Y-76457345D01*
X53909201Y-76457350D01*
X53761132Y-76661151D01*
X53646760Y-76885616D01*
X53568910Y-77125214D01*
X53564796Y-77151187D01*
X53529500Y-77374038D01*
X53529500Y-77625962D01*
X53546230Y-77731591D01*
X53568910Y-77874786D01*
X53568910Y-77874789D01*
X53628090Y-78056923D01*
X53628274Y-78063389D01*
X53631366Y-78069072D01*
X53629260Y-78097885D01*
X53630085Y-78126764D01*
X53626626Y-78133911D01*
X53626273Y-78138755D01*
X53618267Y-78151190D01*
X53609310Y-78169706D01*
X53604038Y-78176724D01*
X53549481Y-78231283D01*
X53508068Y-78303013D01*
X53504330Y-78309487D01*
X53504328Y-78309490D01*
X53487378Y-78338849D01*
X53470424Y-78368214D01*
X53429500Y-78520942D01*
X53429500Y-78679056D01*
X53429500Y-78679058D01*
X53429501Y-78689052D01*
X53429501Y-95253331D01*
X53429500Y-95253349D01*
X53429500Y-95419055D01*
X53429499Y-95419055D01*
X50500500Y-95419055D01*
X50500500Y-53003733D01*
X50500726Y-52996246D01*
X50518271Y-52706205D01*
X50520076Y-52691340D01*
X50571780Y-52409201D01*
X50575364Y-52394663D01*
X50652096Y-52148422D01*
X50660696Y-52120822D01*
X50665998Y-52106841D01*
X50783731Y-51845249D01*
X50790676Y-51832016D01*
X50939080Y-51586526D01*
X50947567Y-51574230D01*
X51124480Y-51348417D01*
X51134395Y-51337226D01*
X51337226Y-51134395D01*
X51348417Y-51124480D01*
X51574230Y-50947567D01*
X51586526Y-50939080D01*
X51832016Y-50790676D01*
X51845249Y-50783731D01*
X52106841Y-50665998D01*
X52120822Y-50660696D01*
X52394668Y-50575362D01*
X52409197Y-50571780D01*
X52691344Y-50520075D01*
X52706201Y-50518271D01*
X52996264Y-50500726D01*
X53003751Y-50500500D01*
X53065892Y-50500500D01*
X96934108Y-50500500D01*
X96996249Y-50500500D01*
X97003736Y-50500726D01*
G37*
%TD.AperFunction*%
%TD*%
M02*
