%TF.GenerationSoftware,KiCad,Pcbnew,9.0.4*%
%TF.CreationDate,2026-02-02T18:02:09+11:00*%
%TF.ProjectId,VCO,56434f2e-6b69-4636-9164-5f7063625858,rev?*%
%TF.SameCoordinates,Original*%
%TF.FileFunction,Copper,L2,Bot*%
%TF.FilePolarity,Positive*%
%FSLAX46Y46*%
G04 Gerber Fmt 4.6, Leading zero omitted, Abs format (unit mm)*
G04 Created by KiCad (PCBNEW 9.0.4) date 2026-02-02 18:02:09*
%MOMM*%
%LPD*%
G01*
G04 APERTURE LIST*
G04 Aperture macros list*
%AMRoundRect*
0 Rectangle with rounded corners*
0 $1 Rounding radius*
0 $2 $3 $4 $5 $6 $7 $8 $9 X,Y pos of 4 corners*
0 Add a 4 corners polygon primitive as box body*
4,1,4,$2,$3,$4,$5,$6,$7,$8,$9,$2,$3,0*
0 Add four circle primitives for the rounded corners*
1,1,$1+$1,$2,$3*
1,1,$1+$1,$4,$5*
1,1,$1+$1,$6,$7*
1,1,$1+$1,$8,$9*
0 Add four rect primitives between the rounded corners*
20,1,$1+$1,$2,$3,$4,$5,0*
20,1,$1+$1,$4,$5,$6,$7,0*
20,1,$1+$1,$6,$7,$8,$9,0*
20,1,$1+$1,$8,$9,$2,$3,0*%
G04 Aperture macros list end*
%TA.AperFunction,WasherPad*%
%ADD10C,4.000000*%
%TD*%
%TA.AperFunction,ComponentPad*%
%ADD11O,1.600000X2.400000*%
%TD*%
%TA.AperFunction,ComponentPad*%
%ADD12R,1.350000X1.900000*%
%TD*%
%TA.AperFunction,ComponentPad*%
%ADD13O,1.350000X1.900000*%
%TD*%
%TA.AperFunction,ComponentPad*%
%ADD14C,1.600000*%
%TD*%
%TA.AperFunction,ComponentPad*%
%ADD15R,2.000000X2.000000*%
%TD*%
%TA.AperFunction,ComponentPad*%
%ADD16C,2.200000*%
%TD*%
%TA.AperFunction,ComponentPad*%
%ADD17RoundRect,0.291666X-0.408334X-0.708334X0.408334X-0.708334X0.408334X0.708334X-0.408334X0.708334X0*%
%TD*%
%TA.AperFunction,ComponentPad*%
%ADD18O,1.400000X2.000000*%
%TD*%
%TA.AperFunction,ComponentPad*%
%ADD19RoundRect,0.250000X-0.950000X-0.550000X0.950000X-0.550000X0.950000X0.550000X-0.950000X0.550000X0*%
%TD*%
%TA.AperFunction,ComponentPad*%
%ADD20O,2.400000X1.600000*%
%TD*%
%TA.AperFunction,ComponentPad*%
%ADD21RoundRect,0.250000X0.650000X-0.650000X0.650000X0.650000X-0.650000X0.650000X-0.650000X-0.650000X0*%
%TD*%
%TA.AperFunction,ComponentPad*%
%ADD22C,1.800000*%
%TD*%
%TA.AperFunction,ComponentPad*%
%ADD23R,1.900000X1.350000*%
%TD*%
%TA.AperFunction,ComponentPad*%
%ADD24O,1.900000X1.350000*%
%TD*%
%TA.AperFunction,ViaPad*%
%ADD25C,0.600000*%
%TD*%
%TA.AperFunction,Conductor*%
%ADD26C,0.500000*%
%TD*%
%TA.AperFunction,Conductor*%
%ADD27C,0.200000*%
%TD*%
G04 APERTURE END LIST*
D10*
%TO.P,RV3,*%
%TO.N,*%
X85600000Y-137500000D03*
X94400000Y-137500000D03*
D11*
%TO.P,RV3,1,1*%
%TO.N,VDD*%
X92500001Y-144500000D03*
%TO.P,RV3,2,2*%
%TO.N,Net-(R12-Pad1)*%
X90000000Y-144500000D03*
%TO.P,RV3,3,3*%
%TO.N,GND*%
X87499999Y-144500000D03*
%TD*%
D12*
%TO.P,Q1,1,C*%
%TO.N,VDD*%
X73230000Y-93360000D03*
D13*
%TO.P,Q1,2,B*%
%TO.N,Net-(Q1-B)*%
X75000000Y-93360000D03*
%TO.P,Q1,3,E*%
%TO.N,Net-(Q1-E)*%
X76730000Y-93360000D03*
%TD*%
D14*
%TO.P,R7,1*%
%TO.N,Net-(R7-Pad1)*%
X56190000Y-89750000D03*
%TO.P,R7,2*%
%TO.N,GND*%
X63810000Y-89750000D03*
%TD*%
%TO.P,R5,1*%
%TO.N,Net-(J2-PadT)*%
X56190000Y-97500000D03*
%TO.P,R5,2*%
%TO.N,Net-(R1-Pad1)*%
X63810000Y-97500000D03*
%TD*%
D15*
%TO.P,J3,G*%
%TO.N,GND*%
X81480000Y-62500000D03*
D16*
%TO.P,J3,S*%
%TO.N,unconnected-(J3-PadS)*%
X78380000Y-62500000D03*
%TO.P,J3,T*%
%TO.N,Net-(J3-PadT)*%
X70080000Y-62500000D03*
%TD*%
D17*
%TO.P,J6,1,Pin_1*%
%TO.N,GND*%
X68750000Y-143000000D03*
D18*
%TO.P,J6,2,Pin_2*%
%TO.N,VDD*%
X70750000Y-143000000D03*
%TO.P,J6,3,Pin_3*%
%TO.N,VSS*%
X72750000Y-143000000D03*
%TD*%
D14*
%TO.P,R21,1*%
%TO.N,Net-(C3-Pad2)*%
X86190000Y-107500000D03*
%TO.P,R21,2*%
%TO.N,GND*%
X93810000Y-107500000D03*
%TD*%
%TO.P,C3,1*%
%TO.N,Net-(C3-Pad1)*%
X82750000Y-112500000D03*
%TO.P,C3,2*%
%TO.N,Net-(C3-Pad2)*%
X82750000Y-110000000D03*
%TD*%
%TO.P,R3,1*%
%TO.N,Net-(T1-B)*%
X79874997Y-91892500D03*
%TO.P,R3,2*%
%TO.N,Net-(R3-Pad2)*%
X77675292Y-90622500D03*
%TD*%
D15*
%TO.P,J1,G*%
%TO.N,GND*%
X66480000Y-62500000D03*
D16*
%TO.P,J1,S*%
%TO.N,unconnected-(J1-PadS)*%
X63380000Y-62500000D03*
%TO.P,J1,T*%
%TO.N,Net-(J1-PadT)*%
X55080000Y-62500000D03*
%TD*%
D14*
%TO.P,R20,1*%
%TO.N,Net-(C2-Pad2)*%
X86193333Y-89750000D03*
%TO.P,R20,2*%
%TO.N,GND*%
X93813333Y-89750000D03*
%TD*%
%TO.P,R11,1*%
%TO.N,Net-(Q1-E)*%
X56190000Y-122000000D03*
%TO.P,R11,2*%
%TO.N,VSS*%
X63810000Y-122000000D03*
%TD*%
%TO.P,R12,1*%
%TO.N,Net-(R12-Pad1)*%
X86190000Y-125750000D03*
%TO.P,R12,2*%
%TO.N,Net-(R12-Pad2)*%
X93810000Y-125750000D03*
%TD*%
%TO.P,C1,1*%
%TO.N,Net-(D2-K)*%
X62500000Y-85250000D03*
%TO.P,C1,2*%
%TO.N,Net-(D1-A)*%
X65000000Y-85250000D03*
%TD*%
%TO.P,R16,1*%
%TO.N,Net-(D1-K)*%
X86210000Y-93410000D03*
%TO.P,R16,2*%
%TO.N,Net-(R12-Pad2)*%
X93830000Y-93410000D03*
%TD*%
%TO.P,R8,1*%
%TO.N,Net-(J3-PadT)*%
X63710000Y-107750000D03*
%TO.P,R8,2*%
%TO.N,Net-(Q1-B)*%
X56090000Y-107750000D03*
%TD*%
D19*
%TO.P,U1,1*%
%TO.N,Net-(D2-K)*%
X71250000Y-107630000D03*
D20*
%TO.P,U1,2*%
%TO.N,Net-(D1-K)*%
X71250000Y-110170000D03*
%TO.P,U1,3*%
%TO.N,Net-(R17-Pad2)*%
X71250000Y-112710000D03*
%TO.P,U1,4*%
%TO.N,Net-(U1-Pad4)*%
X71250000Y-115250000D03*
%TO.P,U1,5*%
X71250000Y-117790000D03*
%TO.P,U1,6*%
%TO.N,Net-(D2-A)*%
X71250000Y-120330000D03*
%TO.P,U1,7,VSS*%
%TO.N,GND*%
X71250000Y-122870000D03*
%TO.P,U1,8*%
%TO.N,Net-(R18-Pad2)*%
X78870000Y-122870000D03*
%TO.P,U1,9*%
%TO.N,Net-(R12-Pad2)*%
X78870000Y-120330000D03*
%TO.P,U1,10*%
%TO.N,Net-(C4-Pad2)*%
X78870000Y-117790000D03*
%TO.P,U1,11*%
%TO.N,Net-(R18-Pad2)*%
X78870000Y-115250000D03*
%TO.P,U1,12*%
%TO.N,Net-(C3-Pad1)*%
X78870000Y-112710000D03*
%TO.P,U1,13*%
%TO.N,Net-(C4-Pad2)*%
X78870000Y-110170000D03*
%TO.P,U1,14,VDD*%
%TO.N,VDD*%
X78870000Y-107630000D03*
%TD*%
D21*
%TO.P,D1,1,K*%
%TO.N,Net-(D1-K)*%
X71200000Y-135010000D03*
D22*
%TO.P,D1,2,A*%
%TO.N,Net-(D1-A)*%
X71200000Y-127390000D03*
%TD*%
D10*
%TO.P,RV1,*%
%TO.N,*%
X55600000Y-137500000D03*
X64400000Y-137500000D03*
D11*
%TO.P,RV1,1,1*%
%TO.N,GND*%
X62500001Y-144500000D03*
%TO.P,RV1,2,2*%
%TO.N,Net-(R6-Pad1)*%
X60000000Y-144500000D03*
%TO.P,RV1,3,3*%
%TO.N,VSS*%
X57499999Y-144500000D03*
%TD*%
D14*
%TO.P,R19,1*%
%TO.N,Net-(R17-Pad2)*%
X86193333Y-118250000D03*
%TO.P,R19,2*%
%TO.N,Net-(D2-A)*%
X93813333Y-118250000D03*
%TD*%
%TO.P,C4,1*%
%TO.N,GND*%
X82750000Y-120000000D03*
%TO.P,C4,2*%
%TO.N,Net-(C4-Pad2)*%
X82750000Y-117500000D03*
%TD*%
%TO.P,R13,1*%
%TO.N,VDD*%
X93810000Y-121870000D03*
%TO.P,R13,2*%
%TO.N,Net-(R12-Pad2)*%
X86190000Y-121870000D03*
%TD*%
%TO.P,C2,1*%
%TO.N,Net-(D1-K)*%
X83000000Y-85250000D03*
%TO.P,C2,2*%
%TO.N,Net-(C2-Pad2)*%
X85500000Y-85250000D03*
%TD*%
D23*
%TO.P,T2,1,C*%
%TO.N,Net-(D2-K)*%
X77000000Y-97500000D03*
D24*
%TO.P,T2,2,B*%
%TO.N,Net-(T1-E)*%
X77000000Y-99270000D03*
%TO.P,T2,3,E*%
%TO.N,GND*%
X77000000Y-101000000D03*
%TD*%
D15*
%TO.P,J4,G*%
%TO.N,GND*%
X96480000Y-77500000D03*
D16*
%TO.P,J4,S*%
%TO.N,unconnected-(J4-PadS)*%
X93380000Y-77500000D03*
%TO.P,J4,T*%
%TO.N,Net-(C2-Pad2)*%
X85080000Y-77500000D03*
%TD*%
D23*
%TO.P,T1,1,C*%
%TO.N,VSS*%
X73000000Y-101020000D03*
D24*
%TO.P,T1,2,B*%
%TO.N,Net-(T1-B)*%
X73000000Y-99250000D03*
%TO.P,T1,3,E*%
%TO.N,Net-(T1-E)*%
X73000000Y-97520000D03*
%TD*%
D21*
%TO.P,D2,1,K*%
%TO.N,Net-(D2-K)*%
X78750000Y-135060000D03*
D22*
%TO.P,D2,2,A*%
%TO.N,Net-(D2-A)*%
X78750000Y-127440000D03*
%TD*%
D14*
%TO.P,RV2,1,1*%
%TO.N,Net-(T1-B)*%
X77530000Y-77505000D03*
%TO.P,RV2,2,2*%
%TO.N,Net-(R7-Pad1)*%
X74990000Y-74965000D03*
%TO.P,RV2,3,3*%
X72450000Y-77505000D03*
%TD*%
%TO.P,R14,1*%
%TO.N,Net-(Q1-E)*%
X86190000Y-100750000D03*
%TO.P,R14,2*%
%TO.N,Net-(R12-Pad2)*%
X93810000Y-100750000D03*
%TD*%
%TO.P,R4,1*%
%TO.N,Net-(J1-PadT)*%
X56190000Y-93750000D03*
%TO.P,R4,2*%
%TO.N,Net-(R3-Pad2)*%
X63810000Y-93750000D03*
%TD*%
%TO.P,R18,1*%
%TO.N,Net-(R12-Pad2)*%
X93813333Y-114500000D03*
%TO.P,R18,2*%
%TO.N,Net-(R18-Pad2)*%
X86193333Y-114500000D03*
%TD*%
%TO.P,R9,1*%
%TO.N,Net-(Q1-B)*%
X63800000Y-118540000D03*
%TO.P,R9,2*%
%TO.N,GND*%
X56180000Y-118540000D03*
%TD*%
%TO.P,R17,1*%
%TO.N,Net-(D1-K)*%
X63810000Y-125750000D03*
%TO.P,R17,2*%
%TO.N,Net-(R17-Pad2)*%
X56190000Y-125750000D03*
%TD*%
%TO.P,R2,1*%
%TO.N,Net-(T1-B)*%
X69985004Y-91842500D03*
%TO.P,R2,2*%
%TO.N,Net-(R2-Pad2)*%
X72184709Y-90572500D03*
%TD*%
%TO.P,R6,1*%
%TO.N,Net-(R6-Pad1)*%
X56190000Y-101250000D03*
%TO.P,R6,2*%
%TO.N,Net-(R2-Pad2)*%
X63810000Y-101250000D03*
%TD*%
%TO.P,R10,1*%
%TO.N,VDD*%
X56150000Y-114550000D03*
%TO.P,R10,2*%
%TO.N,Net-(T1-E)*%
X63770000Y-114550000D03*
%TD*%
D15*
%TO.P,J2,G*%
%TO.N,GND*%
X66530000Y-77500000D03*
D16*
%TO.P,J2,S*%
%TO.N,unconnected-(J2-PadS)*%
X63430000Y-77500000D03*
%TO.P,J2,T*%
%TO.N,Net-(J2-PadT)*%
X55130000Y-77500000D03*
%TD*%
D14*
%TO.P,R1,1*%
%TO.N,Net-(R1-Pad1)*%
X75000000Y-86955000D03*
%TO.P,R1,2*%
%TO.N,Net-(T1-B)*%
X75000000Y-89495000D03*
%TD*%
D15*
%TO.P,J5,G*%
%TO.N,GND*%
X96480000Y-62500000D03*
D16*
%TO.P,J5,S*%
%TO.N,unconnected-(J5-PadS)*%
X93380000Y-62500000D03*
%TO.P,J5,T*%
%TO.N,Net-(C3-Pad2)*%
X85080000Y-62500000D03*
%TD*%
D14*
%TO.P,R15,1*%
%TO.N,Net-(D1-A)*%
X86193333Y-97250000D03*
%TO.P,R15,2*%
%TO.N,Net-(D1-K)*%
X93813333Y-97250000D03*
%TD*%
D17*
%TO.P,J7,1,Pin_1*%
%TO.N,GND*%
X77250000Y-143000000D03*
D18*
%TO.P,J7,2,Pin_2*%
%TO.N,VDD*%
X79250000Y-143000000D03*
%TO.P,J7,3,Pin_3*%
%TO.N,VSS*%
X81250000Y-143000000D03*
%TD*%
D25*
%TO.N,Net-(R1-Pad1)*%
X66000000Y-87200000D03*
%TO.N,Net-(D1-A)*%
X76000000Y-125500000D03*
%TO.N,Net-(D2-K)*%
X64000000Y-96000000D03*
%TO.N,Net-(D1-K)*%
X67750000Y-115000000D03*
%TO.N,Net-(C3-Pad2)*%
X95000000Y-103500000D03*
%TO.N,GND*%
X70000000Y-94900000D03*
X67000000Y-94900000D03*
%TO.N,VDD*%
X74750000Y-114250000D03*
X82500000Y-100750000D03*
X80750000Y-99000000D03*
X74750000Y-117250000D03*
%TO.N,Net-(Q1-B)*%
X75000000Y-104000000D03*
%TO.N,Net-(Q1-E)*%
X82000000Y-93360000D03*
X74250000Y-121431000D03*
%TO.N,Net-(R2-Pad2)*%
X69000000Y-99400000D03*
%TO.N,Net-(T1-B)*%
X69985004Y-97585004D03*
%TO.N,Net-(R17-Pad2)*%
X66750000Y-119000000D03*
%TD*%
D26*
%TO.N,GND*%
X67000000Y-94900000D02*
X70000000Y-94900000D01*
D27*
%TO.N,Net-(R3-Pad2)*%
X63810000Y-93750000D02*
X70613000Y-93750000D01*
%TO.N,Net-(R1-Pad1)*%
X67549000Y-85651000D02*
X66000000Y-87200000D01*
X73696000Y-85651000D02*
X67549000Y-85651000D01*
X75000000Y-86955000D02*
X73696000Y-85651000D01*
%TO.N,Net-(R2-Pad2)*%
X69000000Y-99400000D02*
X67150000Y-101250000D01*
X66800000Y-101250000D02*
X63810000Y-101250000D01*
X67150000Y-101250000D02*
X66800000Y-101250000D01*
%TO.N,Net-(D1-A)*%
X74110000Y-127390000D02*
X71200000Y-127390000D01*
X76000000Y-125500000D02*
X74110000Y-127390000D01*
X86193333Y-94950383D02*
X86193333Y-97250000D01*
X77250000Y-85250000D02*
X84500000Y-92500000D01*
X84500000Y-93257050D02*
X86193333Y-94950383D01*
X65000000Y-85250000D02*
X77250000Y-85250000D01*
X84500000Y-92500000D02*
X84500000Y-93257050D01*
%TO.N,Net-(D2-K)*%
X78251000Y-98751000D02*
X78251000Y-101829000D01*
X78251000Y-101829000D02*
X72450000Y-107630000D01*
X72450000Y-107630000D02*
X71250000Y-107630000D01*
X77000000Y-97500000D02*
X75500000Y-96000000D01*
X75500000Y-96000000D02*
X64000000Y-96000000D01*
X77000000Y-97500000D02*
X78251000Y-98751000D01*
%TO.N,Net-(D1-K)*%
X67750000Y-115000000D02*
X67750000Y-113670000D01*
X87294333Y-97706050D02*
X87294333Y-94494333D01*
X71250000Y-110170000D02*
X83069000Y-98351000D01*
X67750000Y-113670000D02*
X71250000Y-110170000D01*
X83069000Y-98351000D02*
X86649383Y-98351000D01*
X87294333Y-94494333D02*
X86210000Y-93410000D01*
X86649383Y-98351000D02*
X87294333Y-97706050D01*
%TO.N,Net-(C3-Pad1)*%
X78870000Y-112710000D02*
X82540000Y-112710000D01*
X82540000Y-112710000D02*
X82750000Y-112500000D01*
%TO.N,Net-(C3-Pad2)*%
X82750000Y-110000000D02*
X85250000Y-107500000D01*
X91000000Y-107500000D02*
X86190000Y-107500000D01*
X95000000Y-103500000D02*
X91000000Y-107500000D01*
X85250000Y-107500000D02*
X86190000Y-107500000D01*
%TO.N,Net-(D2-A)*%
X78750000Y-125081057D02*
X78750000Y-127440000D01*
X71250000Y-120330000D02*
X73998943Y-120330000D01*
X73998943Y-120330000D02*
X78750000Y-125081057D01*
%TO.N,Net-(Q1-B)*%
X75000000Y-104000000D02*
X73500000Y-105500000D01*
X58340000Y-105500000D02*
X56090000Y-107750000D01*
X73500000Y-105500000D02*
X58340000Y-105500000D01*
%TO.N,Net-(Q1-E)*%
X57291000Y-120899000D02*
X56190000Y-122000000D01*
X76730000Y-93360000D02*
X82000000Y-93360000D01*
X69861951Y-120899000D02*
X57291000Y-120899000D01*
X70393951Y-121431000D02*
X69861951Y-120899000D01*
X74250000Y-121431000D02*
X70393951Y-121431000D01*
%TO.N,Net-(T1-B)*%
X73000000Y-99250000D02*
X71650000Y-99250000D01*
X75000000Y-89495000D02*
X78104842Y-89495000D01*
X71650000Y-99250000D02*
X69985004Y-97585004D01*
X74976500Y-89471500D02*
X75000000Y-89495000D01*
X79874997Y-91265155D02*
X79874997Y-91892500D01*
X71224634Y-89471500D02*
X74976500Y-89471500D01*
X69985004Y-90711130D02*
X71224634Y-89471500D01*
X69985004Y-91842500D02*
X69985004Y-90711130D01*
X78104842Y-89495000D02*
X79874997Y-91265155D01*
%TO.N,Net-(R7-Pad1)*%
X69250000Y-77500000D02*
X67250000Y-79500000D01*
X72450000Y-77505000D02*
X74990000Y-74965000D01*
X72450000Y-77505000D02*
X69255000Y-77505000D01*
X56190000Y-89750000D02*
X66440000Y-79500000D01*
X66440000Y-79500000D02*
X67250000Y-79500000D01*
X69255000Y-77505000D02*
X69250000Y-77500000D01*
%TO.N,Net-(T1-E)*%
X74120000Y-97520000D02*
X73000000Y-97520000D01*
X75870000Y-99270000D02*
X74120000Y-97520000D01*
X77000000Y-99270000D02*
X75870000Y-99270000D01*
D26*
%TO.N,VSS*%
X72750000Y-143000000D02*
X72750000Y-140950000D01*
X81250000Y-143000000D02*
X81250000Y-140850000D01*
X72750000Y-145250000D02*
X70800000Y-147200000D01*
X80800000Y-140400000D02*
X75350000Y-140400000D01*
X57499999Y-144500000D02*
X57499999Y-146299999D01*
X75350000Y-140400000D02*
X72750000Y-143000000D01*
X72750000Y-140950000D02*
X68200000Y-136400000D01*
X57499999Y-146299999D02*
X58400000Y-147200000D01*
X68200000Y-136400000D02*
X68200000Y-126390000D01*
X68200000Y-126390000D02*
X63810000Y-122000000D01*
X58400000Y-147200000D02*
X70800000Y-147200000D01*
X81250000Y-140850000D02*
X80800000Y-140400000D01*
X72750000Y-143000000D02*
X72750000Y-145250000D01*
D27*
%TO.N,Net-(R12-Pad2)*%
X80410000Y-121870000D02*
X86190000Y-121870000D01*
X86190000Y-121870000D02*
X89930000Y-121870000D01*
X93560000Y-114500000D02*
X93813333Y-114500000D01*
X86190000Y-121870000D02*
X93560000Y-114500000D01*
X89930000Y-121870000D02*
X93810000Y-125750000D01*
X78870000Y-120330000D02*
X80410000Y-121870000D01*
%TO.N,Net-(R17-Pad2)*%
X74939000Y-116399000D02*
X71250000Y-112710000D01*
X84342333Y-116399000D02*
X74939000Y-116399000D01*
X66750000Y-119000000D02*
X66750000Y-117210000D01*
X86193333Y-118250000D02*
X84342333Y-116399000D01*
X66750000Y-117210000D02*
X71250000Y-112710000D01*
%TO.N,Net-(R18-Pad2)*%
X85443333Y-115250000D02*
X86193333Y-114500000D01*
X78870000Y-115500000D02*
X85193333Y-115500000D01*
X85193333Y-115500000D02*
X85443333Y-115250000D01*
%TO.N,Net-(C4-Pad2)*%
X78870000Y-117790000D02*
X82460000Y-117790000D01*
X82460000Y-117790000D02*
X82750000Y-117500000D01*
%TO.N,Net-(R3-Pad2)*%
X77675292Y-90622500D02*
X73740500Y-90622500D01*
X73740500Y-90622500D02*
X70613000Y-93750000D01*
%TD*%
%TA.AperFunction,Conductor*%
%TO.N,VDD*%
G36*
X73084193Y-115413695D02*
G01*
X73135246Y-115444481D01*
X74454139Y-116763374D01*
X74454149Y-116763385D01*
X74458479Y-116767715D01*
X74458480Y-116767716D01*
X74570284Y-116879520D01*
X74647510Y-116924106D01*
X74707215Y-116958577D01*
X74859943Y-116999501D01*
X74859946Y-116999501D01*
X75025653Y-116999501D01*
X75025669Y-116999500D01*
X77210845Y-116999500D01*
X77277884Y-117019185D01*
X77323639Y-117071989D01*
X77333583Y-117141147D01*
X77321330Y-117179795D01*
X77264781Y-117290776D01*
X77201522Y-117485465D01*
X77169500Y-117687648D01*
X77169500Y-117892351D01*
X77201522Y-118094534D01*
X77264781Y-118289223D01*
X77316385Y-118390500D01*
X77340408Y-118437648D01*
X77357715Y-118471613D01*
X77478028Y-118637213D01*
X77622786Y-118781971D01*
X77768330Y-118887713D01*
X77788390Y-118902287D01*
X77879840Y-118948883D01*
X77881080Y-118949515D01*
X77931876Y-118997490D01*
X77948671Y-119065311D01*
X77926134Y-119131446D01*
X77881080Y-119170485D01*
X77788386Y-119217715D01*
X77622786Y-119338028D01*
X77478028Y-119482786D01*
X77357715Y-119648386D01*
X77264781Y-119830776D01*
X77201522Y-120025465D01*
X77169500Y-120227648D01*
X77169500Y-120432351D01*
X77201522Y-120634534D01*
X77264781Y-120829223D01*
X77317152Y-120932005D01*
X77347703Y-120991965D01*
X77357715Y-121011613D01*
X77478028Y-121177213D01*
X77622786Y-121321971D01*
X77777749Y-121434556D01*
X77788390Y-121442287D01*
X77879840Y-121488883D01*
X77881080Y-121489515D01*
X77931876Y-121537490D01*
X77948671Y-121605311D01*
X77926134Y-121671446D01*
X77881080Y-121710485D01*
X77788386Y-121757715D01*
X77622786Y-121878028D01*
X77478028Y-122022786D01*
X77357715Y-122188386D01*
X77264781Y-122370776D01*
X77235144Y-122461992D01*
X77195706Y-122519667D01*
X77131347Y-122546865D01*
X77062501Y-122534950D01*
X77029532Y-122511354D01*
X74486533Y-119968355D01*
X74486531Y-119968352D01*
X74367660Y-119849481D01*
X74367659Y-119849480D01*
X74280847Y-119799360D01*
X74280847Y-119799359D01*
X74280843Y-119799358D01*
X74230728Y-119770423D01*
X74078000Y-119729499D01*
X73919886Y-119729499D01*
X73912290Y-119729499D01*
X73912274Y-119729500D01*
X72879602Y-119729500D01*
X72812563Y-119709815D01*
X72769117Y-119661795D01*
X72762287Y-119648390D01*
X72762285Y-119648387D01*
X72762284Y-119648385D01*
X72641971Y-119482786D01*
X72497213Y-119338028D01*
X72331614Y-119217715D01*
X72325006Y-119214348D01*
X72238917Y-119170483D01*
X72188123Y-119122511D01*
X72171328Y-119054690D01*
X72193865Y-118988555D01*
X72238917Y-118949516D01*
X72331610Y-118902287D01*
X72389146Y-118860485D01*
X72497213Y-118781971D01*
X72497215Y-118781968D01*
X72497219Y-118781966D01*
X72641966Y-118637219D01*
X72641968Y-118637215D01*
X72641971Y-118637213D01*
X72702040Y-118554534D01*
X72762287Y-118471610D01*
X72855220Y-118289219D01*
X72918477Y-118094534D01*
X72950500Y-117892352D01*
X72950500Y-117687648D01*
X72931611Y-117568390D01*
X72918477Y-117485465D01*
X72869516Y-117334780D01*
X72855220Y-117290781D01*
X72855218Y-117290778D01*
X72855218Y-117290776D01*
X72821503Y-117224607D01*
X72762287Y-117108390D01*
X72754556Y-117097749D01*
X72641971Y-116942786D01*
X72497213Y-116798028D01*
X72331614Y-116677715D01*
X72325006Y-116674348D01*
X72238917Y-116630483D01*
X72188123Y-116582511D01*
X72171328Y-116514690D01*
X72193865Y-116448555D01*
X72238917Y-116409516D01*
X72331610Y-116362287D01*
X72400574Y-116312182D01*
X72497213Y-116241971D01*
X72497215Y-116241968D01*
X72497219Y-116241966D01*
X72641966Y-116097219D01*
X72641968Y-116097215D01*
X72641971Y-116097213D01*
X72694732Y-116024590D01*
X72762287Y-115931610D01*
X72855220Y-115749219D01*
X72918477Y-115554534D01*
X72925093Y-115512761D01*
X72955020Y-115449631D01*
X73014330Y-115412699D01*
X73084193Y-115413695D01*
G37*
%TD.AperFunction*%
%TA.AperFunction,Conductor*%
G36*
X77016942Y-85870185D02*
G01*
X77037584Y-85886819D01*
X83863181Y-92712416D01*
X83896666Y-92773739D01*
X83899500Y-92800097D01*
X83899500Y-93170380D01*
X83899499Y-93170398D01*
X83899499Y-93336104D01*
X83899498Y-93336104D01*
X83940423Y-93488835D01*
X83969358Y-93538950D01*
X83969359Y-93538954D01*
X83969360Y-93538954D01*
X84019479Y-93625764D01*
X84019481Y-93625767D01*
X84138349Y-93744635D01*
X84138355Y-93744640D01*
X85556514Y-95162799D01*
X85589999Y-95224122D01*
X85592833Y-95250480D01*
X85592833Y-96020397D01*
X85573148Y-96087436D01*
X85525133Y-96130879D01*
X85511722Y-96137712D01*
X85346119Y-96258028D01*
X85201361Y-96402786D01*
X85081048Y-96568386D01*
X84988114Y-96750776D01*
X84924855Y-96945465D01*
X84892833Y-97147648D01*
X84892833Y-97352351D01*
X84924856Y-97554535D01*
X84924857Y-97554542D01*
X84935788Y-97588183D01*
X84937783Y-97658024D01*
X84901702Y-97717856D01*
X84839001Y-97748684D01*
X84817857Y-97750500D01*
X82989943Y-97750500D01*
X82837214Y-97791423D01*
X82805772Y-97809577D01*
X82805771Y-97809577D01*
X82700287Y-97870477D01*
X82700282Y-97870481D01*
X79063181Y-101507583D01*
X79001858Y-101541068D01*
X78932166Y-101536084D01*
X78876233Y-101494212D01*
X78851816Y-101428748D01*
X78851500Y-101419902D01*
X78851500Y-98671943D01*
X78850057Y-98666560D01*
X78850054Y-98666548D01*
X78832089Y-98599500D01*
X78810577Y-98519215D01*
X78794847Y-98491971D01*
X78773629Y-98455220D01*
X78773629Y-98455219D01*
X78731522Y-98382287D01*
X78731521Y-98382286D01*
X78731520Y-98382284D01*
X78619716Y-98270480D01*
X78619715Y-98270479D01*
X78615385Y-98266149D01*
X78615374Y-98266139D01*
X78486818Y-98137583D01*
X78453333Y-98076260D01*
X78450499Y-98049902D01*
X78450499Y-96777129D01*
X78450498Y-96777123D01*
X78448035Y-96754213D01*
X78444091Y-96717517D01*
X78423953Y-96663525D01*
X78393797Y-96582671D01*
X78393793Y-96582664D01*
X78307547Y-96467455D01*
X78307544Y-96467452D01*
X78192335Y-96381206D01*
X78192328Y-96381202D01*
X78057482Y-96330908D01*
X78057483Y-96330908D01*
X77997883Y-96324501D01*
X77997881Y-96324500D01*
X77997873Y-96324500D01*
X77997865Y-96324500D01*
X76725097Y-96324500D01*
X76658058Y-96304815D01*
X76637416Y-96288181D01*
X75987590Y-95638355D01*
X75987588Y-95638352D01*
X75868717Y-95519481D01*
X75868716Y-95519480D01*
X75781904Y-95469360D01*
X75781904Y-95469359D01*
X75781900Y-95469358D01*
X75731785Y-95440423D01*
X75579057Y-95399499D01*
X75420943Y-95399499D01*
X75413347Y-95399499D01*
X75413331Y-95399500D01*
X70845134Y-95399500D01*
X70778095Y-95379815D01*
X70732340Y-95327011D01*
X70722396Y-95257853D01*
X70730573Y-95228047D01*
X70769737Y-95133497D01*
X70800500Y-94978842D01*
X70800500Y-94821158D01*
X70800500Y-94821155D01*
X70800499Y-94821153D01*
X70798380Y-94810500D01*
X70769737Y-94666503D01*
X70741039Y-94597219D01*
X70709397Y-94520827D01*
X70709389Y-94520812D01*
X70706376Y-94516303D01*
X70700085Y-94496213D01*
X70689338Y-94478112D01*
X70689854Y-94463540D01*
X70685497Y-94449626D01*
X70691065Y-94429325D01*
X70691811Y-94408286D01*
X70700123Y-94396306D01*
X70703981Y-94382245D01*
X70719641Y-94368177D01*
X70731643Y-94350882D01*
X70748345Y-94342393D01*
X70755959Y-94335555D01*
X70761991Y-94332864D01*
X70769508Y-94329747D01*
X70844785Y-94309577D01*
X70905541Y-94274499D01*
X70981716Y-94230520D01*
X71093520Y-94118716D01*
X71093520Y-94118714D01*
X71103724Y-94108511D01*
X71103727Y-94108506D01*
X72065915Y-93146318D01*
X72127238Y-93112834D01*
X72153596Y-93110000D01*
X72949670Y-93110000D01*
X72929925Y-93129745D01*
X72880556Y-93215255D01*
X72855000Y-93310630D01*
X72855000Y-93409370D01*
X72880556Y-93504745D01*
X72929925Y-93590255D01*
X72949670Y-93610000D01*
X72055000Y-93610000D01*
X72055000Y-94357844D01*
X72061401Y-94417372D01*
X72061403Y-94417379D01*
X72111645Y-94552086D01*
X72111649Y-94552093D01*
X72197809Y-94667187D01*
X72197812Y-94667190D01*
X72312906Y-94753350D01*
X72312913Y-94753354D01*
X72447620Y-94803596D01*
X72447627Y-94803598D01*
X72507155Y-94809999D01*
X72507172Y-94810000D01*
X72980000Y-94810000D01*
X72980000Y-93640330D01*
X72999745Y-93660075D01*
X73085255Y-93709444D01*
X73180630Y-93735000D01*
X73279370Y-93735000D01*
X73374745Y-93709444D01*
X73460255Y-93660075D01*
X73480000Y-93640330D01*
X73480000Y-94810000D01*
X73952828Y-94810000D01*
X73952844Y-94809999D01*
X74012372Y-94803598D01*
X74012379Y-94803596D01*
X74147086Y-94753354D01*
X74147088Y-94753352D01*
X74269289Y-94661874D01*
X74271229Y-94664465D01*
X74318610Y-94638572D01*
X74388303Y-94643532D01*
X74401294Y-94649239D01*
X74521526Y-94710500D01*
X74548765Y-94724379D01*
X74548767Y-94724380D01*
X74602908Y-94741971D01*
X74724736Y-94781555D01*
X74907486Y-94810500D01*
X74907487Y-94810500D01*
X75092513Y-94810500D01*
X75092514Y-94810500D01*
X75275264Y-94781555D01*
X75451235Y-94724379D01*
X75616096Y-94640378D01*
X75765787Y-94531621D01*
X75777319Y-94520089D01*
X75838642Y-94486604D01*
X75908334Y-94491588D01*
X75952681Y-94520089D01*
X75964213Y-94531621D01*
X76113904Y-94640378D01*
X76188677Y-94678477D01*
X76278764Y-94724379D01*
X76278767Y-94724380D01*
X76332908Y-94741971D01*
X76454736Y-94781555D01*
X76637486Y-94810500D01*
X76637487Y-94810500D01*
X76822513Y-94810500D01*
X76822514Y-94810500D01*
X77005264Y-94781555D01*
X77181235Y-94724379D01*
X77346096Y-94640378D01*
X77495787Y-94531621D01*
X77626621Y-94400787D01*
X77735378Y-94251096D01*
X77819379Y-94086235D01*
X77824852Y-94069390D01*
X77832393Y-94046183D01*
X77871830Y-93988507D01*
X77936188Y-93961308D01*
X77950324Y-93960500D01*
X81420234Y-93960500D01*
X81487273Y-93980185D01*
X81489125Y-93981398D01*
X81620814Y-94069390D01*
X81620827Y-94069397D01*
X81756556Y-94125617D01*
X81766503Y-94129737D01*
X81921153Y-94160499D01*
X81921156Y-94160500D01*
X81921158Y-94160500D01*
X82078844Y-94160500D01*
X82078845Y-94160499D01*
X82233497Y-94129737D01*
X82379179Y-94069394D01*
X82510289Y-93981789D01*
X82621789Y-93870289D01*
X82709394Y-93739179D01*
X82710061Y-93737570D01*
X82756371Y-93625766D01*
X82769737Y-93593497D01*
X82800500Y-93438842D01*
X82800500Y-93281158D01*
X82800500Y-93281155D01*
X82800499Y-93281153D01*
X82778468Y-93170398D01*
X82769737Y-93126503D01*
X82761023Y-93105465D01*
X82709397Y-92980827D01*
X82709390Y-92980814D01*
X82621789Y-92849711D01*
X82621786Y-92849707D01*
X82510292Y-92738213D01*
X82510288Y-92738210D01*
X82379185Y-92650609D01*
X82379172Y-92650602D01*
X82233501Y-92590264D01*
X82233489Y-92590261D01*
X82078845Y-92559500D01*
X82078842Y-92559500D01*
X81921158Y-92559500D01*
X81921155Y-92559500D01*
X81766510Y-92590261D01*
X81766498Y-92590264D01*
X81620827Y-92650602D01*
X81620814Y-92650609D01*
X81489125Y-92738602D01*
X81422447Y-92759480D01*
X81420234Y-92759500D01*
X81095095Y-92759500D01*
X81028056Y-92739815D01*
X80982301Y-92687011D01*
X80972357Y-92617853D01*
X80986339Y-92579096D01*
X80985072Y-92578451D01*
X81034460Y-92481523D01*
X81080217Y-92391719D01*
X81143474Y-92197034D01*
X81175497Y-91994852D01*
X81175497Y-91790148D01*
X81164563Y-91721115D01*
X81143474Y-91587965D01*
X81080215Y-91393276D01*
X81027952Y-91290705D01*
X80987284Y-91210890D01*
X80979553Y-91200249D01*
X80866968Y-91045286D01*
X80722210Y-90900528D01*
X80556610Y-90780215D01*
X80556609Y-90780214D01*
X80556607Y-90780213D01*
X80374216Y-90687280D01*
X80179531Y-90624023D01*
X80179528Y-90624022D01*
X80179529Y-90624022D01*
X80104744Y-90612177D01*
X80041609Y-90582247D01*
X80036462Y-90577385D01*
X78592432Y-89133355D01*
X78592430Y-89133352D01*
X78473559Y-89014481D01*
X78473558Y-89014480D01*
X78365316Y-88951987D01*
X78365315Y-88951986D01*
X78336625Y-88935422D01*
X78280723Y-88920443D01*
X78183899Y-88894499D01*
X78025785Y-88894499D01*
X78018189Y-88894499D01*
X78018173Y-88894500D01*
X76229602Y-88894500D01*
X76162563Y-88874815D01*
X76119117Y-88826795D01*
X76112284Y-88813385D01*
X75991971Y-88647786D01*
X75847213Y-88503028D01*
X75681614Y-88382715D01*
X75675006Y-88379348D01*
X75588917Y-88335483D01*
X75538123Y-88287511D01*
X75521328Y-88219690D01*
X75543865Y-88153555D01*
X75588917Y-88114516D01*
X75681610Y-88067287D01*
X75702770Y-88051913D01*
X75847213Y-87946971D01*
X75847215Y-87946968D01*
X75847219Y-87946966D01*
X75991966Y-87802219D01*
X75991968Y-87802215D01*
X75991971Y-87802213D01*
X76058754Y-87710292D01*
X76112287Y-87636610D01*
X76205220Y-87454219D01*
X76268477Y-87259534D01*
X76300500Y-87057352D01*
X76300500Y-86852648D01*
X76268477Y-86650466D01*
X76246704Y-86583457D01*
X76205218Y-86455776D01*
X76157581Y-86362284D01*
X76112287Y-86273390D01*
X76089456Y-86241966D01*
X75991971Y-86107786D01*
X75946366Y-86062181D01*
X75912881Y-86000858D01*
X75917865Y-85931166D01*
X75959737Y-85875233D01*
X76025201Y-85850816D01*
X76034047Y-85850500D01*
X76949903Y-85850500D01*
X77016942Y-85870185D01*
G37*
%TD.AperFunction*%
%TA.AperFunction,Conductor*%
G36*
X97003736Y-50500726D02*
G01*
X97293796Y-50518271D01*
X97308659Y-50520076D01*
X97590798Y-50571780D01*
X97605335Y-50575363D01*
X97879172Y-50660695D01*
X97893163Y-50666000D01*
X98154743Y-50783727D01*
X98167989Y-50790680D01*
X98413465Y-50939075D01*
X98425776Y-50947573D01*
X98651573Y-51124473D01*
X98662781Y-51134403D01*
X98865596Y-51337218D01*
X98875526Y-51348426D01*
X98995481Y-51501538D01*
X99052422Y-51574217D01*
X99060928Y-51586540D01*
X99209316Y-51832004D01*
X99216275Y-51845263D01*
X99333997Y-52106831D01*
X99339306Y-52120832D01*
X99424635Y-52394663D01*
X99428219Y-52409201D01*
X99479923Y-52691340D01*
X99481728Y-52706205D01*
X99499274Y-52996263D01*
X99499500Y-53003750D01*
X99499500Y-146996249D01*
X99499274Y-147003736D01*
X99481728Y-147293794D01*
X99479923Y-147308659D01*
X99428219Y-147590798D01*
X99424635Y-147605336D01*
X99339306Y-147879167D01*
X99333997Y-147893168D01*
X99216275Y-148154736D01*
X99209316Y-148167995D01*
X99060928Y-148413459D01*
X99052422Y-148425782D01*
X98875526Y-148651573D01*
X98865596Y-148662781D01*
X98662781Y-148865596D01*
X98651573Y-148875526D01*
X98425782Y-149052422D01*
X98413459Y-149060928D01*
X98167995Y-149209316D01*
X98154736Y-149216275D01*
X97893168Y-149333997D01*
X97879167Y-149339306D01*
X97605336Y-149424635D01*
X97590798Y-149428219D01*
X97308659Y-149479923D01*
X97293794Y-149481728D01*
X97014454Y-149498624D01*
X97003735Y-149499273D01*
X96996250Y-149499499D01*
X53003734Y-149499499D01*
X52996247Y-149499273D01*
X52706205Y-149481728D01*
X52691340Y-149479923D01*
X52409201Y-149428219D01*
X52394663Y-149424635D01*
X52120832Y-149339306D01*
X52106831Y-149333997D01*
X51845263Y-149216275D01*
X51832004Y-149209316D01*
X51586540Y-149060928D01*
X51574217Y-149052422D01*
X51348426Y-148875526D01*
X51337218Y-148865596D01*
X51134403Y-148662781D01*
X51124473Y-148651573D01*
X50947573Y-148425776D01*
X50939075Y-148413465D01*
X50790680Y-148167989D01*
X50783727Y-148154743D01*
X50666000Y-147893163D01*
X50660693Y-147879167D01*
X50656305Y-147865086D01*
X50575363Y-147605335D01*
X50571780Y-147590798D01*
X50520076Y-147308659D01*
X50518271Y-147293794D01*
X50500726Y-147003736D01*
X50500500Y-146996249D01*
X50500500Y-137359568D01*
X53099500Y-137359568D01*
X53099500Y-137640431D01*
X53130942Y-137919494D01*
X53130945Y-137919512D01*
X53193439Y-138193317D01*
X53193443Y-138193329D01*
X53286200Y-138458411D01*
X53408053Y-138711442D01*
X53408055Y-138711445D01*
X53557477Y-138949248D01*
X53732584Y-139168825D01*
X53931175Y-139367416D01*
X54150752Y-139542523D01*
X54388555Y-139691945D01*
X54641592Y-139813801D01*
X54840680Y-139883465D01*
X54906670Y-139906556D01*
X54906682Y-139906560D01*
X55180491Y-139969055D01*
X55180497Y-139969055D01*
X55180505Y-139969057D01*
X55366547Y-139990018D01*
X55459569Y-140000499D01*
X55459572Y-140000500D01*
X55459575Y-140000500D01*
X55740428Y-140000500D01*
X55740429Y-140000499D01*
X55883055Y-139984429D01*
X56019494Y-139969057D01*
X56019499Y-139969056D01*
X56019509Y-139969055D01*
X56293318Y-139906560D01*
X56558408Y-139813801D01*
X56811445Y-139691945D01*
X57049248Y-139542523D01*
X57268825Y-139367416D01*
X57467416Y-139168825D01*
X57642523Y-138949248D01*
X57791945Y-138711445D01*
X57913801Y-138458408D01*
X58006560Y-138193318D01*
X58069055Y-137919509D01*
X58100500Y-137640425D01*
X58100500Y-137359575D01*
X58100499Y-137359568D01*
X61899500Y-137359568D01*
X61899500Y-137640431D01*
X61930942Y-137919494D01*
X61930945Y-137919512D01*
X61993439Y-138193317D01*
X61993443Y-138193329D01*
X62086200Y-138458411D01*
X62208053Y-138711442D01*
X62208055Y-138711445D01*
X62357477Y-138949248D01*
X62532584Y-139168825D01*
X62731175Y-139367416D01*
X62950752Y-139542523D01*
X63188555Y-139691945D01*
X63441592Y-139813801D01*
X63640680Y-139883465D01*
X63706670Y-139906556D01*
X63706682Y-139906560D01*
X63980491Y-139969055D01*
X63980497Y-139969055D01*
X63980505Y-139969057D01*
X64166547Y-139990018D01*
X64259569Y-140000499D01*
X64259572Y-140000500D01*
X64259575Y-140000500D01*
X64540428Y-140000500D01*
X64540429Y-140000499D01*
X64683055Y-139984429D01*
X64819494Y-139969057D01*
X64819499Y-139969056D01*
X64819509Y-139969055D01*
X65093318Y-139906560D01*
X65358408Y-139813801D01*
X65611445Y-139691945D01*
X65849248Y-139542523D01*
X66068825Y-139367416D01*
X66267416Y-139168825D01*
X66442523Y-138949248D01*
X66591945Y-138711445D01*
X66713801Y-138458408D01*
X66806560Y-138193318D01*
X66869055Y-137919509D01*
X66900500Y-137640425D01*
X66900500Y-137359575D01*
X66869055Y-137080491D01*
X66806560Y-136806682D01*
X66713801Y-136541592D01*
X66591945Y-136288555D01*
X66442523Y-136050752D01*
X66267416Y-135831175D01*
X66068825Y-135632584D01*
X65849248Y-135457477D01*
X65611445Y-135308055D01*
X65611442Y-135308053D01*
X65358411Y-135186200D01*
X65093329Y-135093443D01*
X65093317Y-135093439D01*
X64819512Y-135030945D01*
X64819494Y-135030942D01*
X64540431Y-134999500D01*
X64540425Y-134999500D01*
X64259575Y-134999500D01*
X64259568Y-134999500D01*
X63980505Y-135030942D01*
X63980487Y-135030945D01*
X63706682Y-135093439D01*
X63706670Y-135093443D01*
X63441588Y-135186200D01*
X63188557Y-135308053D01*
X62950753Y-135457476D01*
X62731175Y-135632583D01*
X62532583Y-135831175D01*
X62357476Y-136050753D01*
X62208053Y-136288557D01*
X62086200Y-136541588D01*
X61993443Y-136806670D01*
X61993439Y-136806682D01*
X61930945Y-137080487D01*
X61930942Y-137080505D01*
X61899500Y-137359568D01*
X58100499Y-137359568D01*
X58069055Y-137080491D01*
X58006560Y-136806682D01*
X57913801Y-136541592D01*
X57791945Y-136288555D01*
X57642523Y-136050752D01*
X57467416Y-135831175D01*
X57268825Y-135632584D01*
X57049248Y-135457477D01*
X56811445Y-135308055D01*
X56811442Y-135308053D01*
X56558411Y-135186200D01*
X56293329Y-135093443D01*
X56293317Y-135093439D01*
X56019512Y-135030945D01*
X56019494Y-135030942D01*
X55740431Y-134999500D01*
X55740425Y-134999500D01*
X55459575Y-134999500D01*
X55459568Y-134999500D01*
X55180505Y-135030942D01*
X55180487Y-135030945D01*
X54906682Y-135093439D01*
X54906670Y-135093443D01*
X54641588Y-135186200D01*
X54388557Y-135308053D01*
X54150753Y-135457476D01*
X53931175Y-135632583D01*
X53732583Y-135831175D01*
X53557476Y-136050753D01*
X53408053Y-136288557D01*
X53286200Y-136541588D01*
X53193443Y-136806670D01*
X53193439Y-136806682D01*
X53130945Y-137080487D01*
X53130942Y-137080505D01*
X53099500Y-137359568D01*
X50500500Y-137359568D01*
X50500500Y-125647648D01*
X54889500Y-125647648D01*
X54889500Y-125852351D01*
X54921522Y-126054534D01*
X54984781Y-126249223D01*
X55077715Y-126431613D01*
X55198028Y-126597213D01*
X55342786Y-126741971D01*
X55494772Y-126852393D01*
X55508390Y-126862287D01*
X55624607Y-126921503D01*
X55690776Y-126955218D01*
X55690778Y-126955218D01*
X55690781Y-126955220D01*
X55795137Y-126989127D01*
X55885465Y-127018477D01*
X55986557Y-127034488D01*
X56087648Y-127050500D01*
X56087649Y-127050500D01*
X56292351Y-127050500D01*
X56292352Y-127050500D01*
X56494534Y-127018477D01*
X56689219Y-126955220D01*
X56871610Y-126862287D01*
X57021783Y-126753181D01*
X57037213Y-126741971D01*
X57037215Y-126741968D01*
X57037219Y-126741966D01*
X57181966Y-126597219D01*
X57181968Y-126597215D01*
X57181971Y-126597213D01*
X57234732Y-126524590D01*
X57302287Y-126431610D01*
X57395220Y-126249219D01*
X57458477Y-126054534D01*
X57490500Y-125852352D01*
X57490500Y-125647648D01*
X62509500Y-125647648D01*
X62509500Y-125852351D01*
X62541522Y-126054534D01*
X62604781Y-126249223D01*
X62697715Y-126431613D01*
X62818028Y-126597213D01*
X62962786Y-126741971D01*
X63114772Y-126852393D01*
X63128390Y-126862287D01*
X63244607Y-126921503D01*
X63310776Y-126955218D01*
X63310778Y-126955218D01*
X63310781Y-126955220D01*
X63415137Y-126989127D01*
X63505465Y-127018477D01*
X63606557Y-127034488D01*
X63707648Y-127050500D01*
X63707649Y-127050500D01*
X63912351Y-127050500D01*
X63912352Y-127050500D01*
X64114534Y-127018477D01*
X64309219Y-126955220D01*
X64491610Y-126862287D01*
X64641783Y-126753181D01*
X64657213Y-126741971D01*
X64657215Y-126741968D01*
X64657219Y-126741966D01*
X64801966Y-126597219D01*
X64801968Y-126597215D01*
X64801971Y-126597213D01*
X64854732Y-126524590D01*
X64922287Y-126431610D01*
X65015220Y-126249219D01*
X65078477Y-126054534D01*
X65110500Y-125852352D01*
X65110500Y-125647648D01*
X65078477Y-125445466D01*
X65015220Y-125250781D01*
X65015218Y-125250778D01*
X65015218Y-125250776D01*
X64981503Y-125184607D01*
X64922287Y-125068390D01*
X64914556Y-125057749D01*
X64801971Y-124902786D01*
X64657213Y-124758028D01*
X64491613Y-124637715D01*
X64491612Y-124637714D01*
X64491610Y-124637713D01*
X64410148Y-124596206D01*
X64309223Y-124544781D01*
X64114534Y-124481522D01*
X63939995Y-124453878D01*
X63912352Y-124449500D01*
X63707648Y-124449500D01*
X63683329Y-124453351D01*
X63505465Y-124481522D01*
X63310776Y-124544781D01*
X63128386Y-124637715D01*
X62962786Y-124758028D01*
X62818028Y-124902786D01*
X62697715Y-125068386D01*
X62604781Y-125250776D01*
X62541522Y-125445465D01*
X62509500Y-125647648D01*
X57490500Y-125647648D01*
X57458477Y-125445466D01*
X57395220Y-125250781D01*
X57395218Y-125250778D01*
X57395218Y-125250776D01*
X57361503Y-125184607D01*
X57302287Y-125068390D01*
X57294556Y-125057749D01*
X57181971Y-124902786D01*
X57037213Y-124758028D01*
X56871613Y-124637715D01*
X56871612Y-124637714D01*
X56871610Y-124637713D01*
X56790148Y-124596206D01*
X56689223Y-124544781D01*
X56494534Y-124481522D01*
X56319995Y-124453878D01*
X56292352Y-124449500D01*
X56087648Y-124449500D01*
X56063329Y-124453351D01*
X55885465Y-124481522D01*
X55690776Y-124544781D01*
X55508386Y-124637715D01*
X55342786Y-124758028D01*
X55198028Y-124902786D01*
X55077715Y-125068386D01*
X54984781Y-125250776D01*
X54921522Y-125445465D01*
X54889500Y-125647648D01*
X50500500Y-125647648D01*
X50500500Y-118437648D01*
X54879500Y-118437648D01*
X54879500Y-118642351D01*
X54911522Y-118844534D01*
X54974781Y-119039223D01*
X55021772Y-119131446D01*
X55065728Y-119217715D01*
X55067715Y-119221613D01*
X55188028Y-119387213D01*
X55332786Y-119531971D01*
X55487749Y-119644556D01*
X55498390Y-119652287D01*
X55610461Y-119709390D01*
X55680776Y-119745218D01*
X55680778Y-119745218D01*
X55680781Y-119745220D01*
X55756237Y-119769737D01*
X55875465Y-119808477D01*
X55976557Y-119824488D01*
X56077648Y-119840500D01*
X56077649Y-119840500D01*
X56282351Y-119840500D01*
X56282352Y-119840500D01*
X56484534Y-119808477D01*
X56679219Y-119745220D01*
X56861610Y-119652287D01*
X56954590Y-119584732D01*
X57027213Y-119531971D01*
X57027215Y-119531968D01*
X57027219Y-119531966D01*
X57171966Y-119387219D01*
X57171968Y-119387215D01*
X57171971Y-119387213D01*
X57224732Y-119314590D01*
X57292287Y-119221610D01*
X57385220Y-119039219D01*
X57448477Y-118844534D01*
X57480500Y-118642352D01*
X57480500Y-118437648D01*
X62499500Y-118437648D01*
X62499500Y-118642351D01*
X62531522Y-118844534D01*
X62594781Y-119039223D01*
X62641772Y-119131446D01*
X62685728Y-119217715D01*
X62687715Y-119221613D01*
X62808028Y-119387213D01*
X62952786Y-119531971D01*
X63107749Y-119644556D01*
X63118390Y-119652287D01*
X63230461Y-119709390D01*
X63300776Y-119745218D01*
X63300778Y-119745218D01*
X63300781Y-119745220D01*
X63376237Y-119769737D01*
X63495465Y-119808477D01*
X63596557Y-119824488D01*
X63697648Y-119840500D01*
X63697649Y-119840500D01*
X63902351Y-119840500D01*
X63902352Y-119840500D01*
X64104534Y-119808477D01*
X64299219Y-119745220D01*
X64481610Y-119652287D01*
X64574590Y-119584732D01*
X64647213Y-119531971D01*
X64647215Y-119531968D01*
X64647219Y-119531966D01*
X64791966Y-119387219D01*
X64791968Y-119387215D01*
X64791971Y-119387213D01*
X64844732Y-119314590D01*
X64912287Y-119221610D01*
X65005220Y-119039219D01*
X65068477Y-118844534D01*
X65100500Y-118642352D01*
X65100500Y-118437648D01*
X65086176Y-118347213D01*
X65068477Y-118235465D01*
X65005218Y-118040776D01*
X64971503Y-117974607D01*
X64912287Y-117858390D01*
X64904556Y-117847749D01*
X64791971Y-117692786D01*
X64647213Y-117548028D01*
X64481613Y-117427715D01*
X64481612Y-117427714D01*
X64481610Y-117427713D01*
X64422604Y-117397648D01*
X64299223Y-117334781D01*
X64104534Y-117271522D01*
X63929995Y-117243878D01*
X63902352Y-117239500D01*
X63697648Y-117239500D01*
X63673329Y-117243351D01*
X63495465Y-117271522D01*
X63300776Y-117334781D01*
X63118386Y-117427715D01*
X62952786Y-117548028D01*
X62808028Y-117692786D01*
X62687715Y-117858386D01*
X62594781Y-118040776D01*
X62531522Y-118235465D01*
X62499500Y-118437648D01*
X57480500Y-118437648D01*
X57466176Y-118347213D01*
X57448477Y-118235465D01*
X57385218Y-118040776D01*
X57351503Y-117974607D01*
X57292287Y-117858390D01*
X57284556Y-117847749D01*
X57171971Y-117692786D01*
X57027213Y-117548028D01*
X56861613Y-117427715D01*
X56861612Y-117427714D01*
X56861610Y-117427713D01*
X56802604Y-117397648D01*
X56679223Y-117334781D01*
X56484534Y-117271522D01*
X56309995Y-117243878D01*
X56282352Y-117239500D01*
X56077648Y-117239500D01*
X56053329Y-117243351D01*
X55875465Y-117271522D01*
X55680776Y-117334781D01*
X55498386Y-117427715D01*
X55332786Y-117548028D01*
X55188028Y-117692786D01*
X55067715Y-117858386D01*
X54974781Y-118040776D01*
X54911522Y-118235465D01*
X54879500Y-118437648D01*
X50500500Y-118437648D01*
X50500500Y-114447682D01*
X54850000Y-114447682D01*
X54850000Y-114652317D01*
X54882009Y-114854417D01*
X54945244Y-115049031D01*
X55038141Y-115231350D01*
X55038147Y-115231359D01*
X55070523Y-115275921D01*
X55070524Y-115275922D01*
X55750000Y-114596446D01*
X55750000Y-114602661D01*
X55777259Y-114704394D01*
X55829920Y-114795606D01*
X55904394Y-114870080D01*
X55995606Y-114922741D01*
X56097339Y-114950000D01*
X56103553Y-114950000D01*
X55424076Y-115629474D01*
X55468650Y-115661859D01*
X55650968Y-115754755D01*
X55845582Y-115817990D01*
X56047683Y-115850000D01*
X56252317Y-115850000D01*
X56454417Y-115817990D01*
X56649031Y-115754755D01*
X56831349Y-115661859D01*
X56875921Y-115629474D01*
X56196447Y-114950000D01*
X56202661Y-114950000D01*
X56304394Y-114922741D01*
X56395606Y-114870080D01*
X56470080Y-114795606D01*
X56522741Y-114704394D01*
X56550000Y-114602661D01*
X56550000Y-114596447D01*
X57229474Y-115275921D01*
X57261859Y-115231349D01*
X57354755Y-115049031D01*
X57417990Y-114854417D01*
X57450000Y-114652317D01*
X57450000Y-114447682D01*
X57449995Y-114447648D01*
X62469500Y-114447648D01*
X62469500Y-114652351D01*
X62501522Y-114854534D01*
X62564781Y-115049223D01*
X62614932Y-115147648D01*
X62657585Y-115231359D01*
X62657715Y-115231613D01*
X62778028Y-115397213D01*
X62922786Y-115541971D01*
X63077749Y-115654556D01*
X63088390Y-115662287D01*
X63171599Y-115704684D01*
X63270776Y-115755218D01*
X63270778Y-115755218D01*
X63270781Y-115755220D01*
X63343399Y-115778815D01*
X63465465Y-115818477D01*
X63528558Y-115828470D01*
X63667648Y-115850500D01*
X63667649Y-115850500D01*
X63872351Y-115850500D01*
X63872352Y-115850500D01*
X64074534Y-115818477D01*
X64269219Y-115755220D01*
X64451610Y-115662287D01*
X64599914Y-115554539D01*
X64617213Y-115541971D01*
X64617215Y-115541968D01*
X64617219Y-115541966D01*
X64761966Y-115397219D01*
X64761968Y-115397215D01*
X64761971Y-115397213D01*
X64814732Y-115324590D01*
X64882287Y-115231610D01*
X64975220Y-115049219D01*
X65038477Y-114854534D01*
X65070500Y-114652352D01*
X65070500Y-114447648D01*
X65062257Y-114395606D01*
X65038477Y-114245465D01*
X65003466Y-114137713D01*
X64975220Y-114050781D01*
X64975218Y-114050778D01*
X64975218Y-114050776D01*
X64907939Y-113918735D01*
X64882287Y-113868390D01*
X64850092Y-113824077D01*
X64761971Y-113702786D01*
X64617213Y-113558028D01*
X64451613Y-113437715D01*
X64451612Y-113437714D01*
X64451610Y-113437713D01*
X64341673Y-113381697D01*
X64269223Y-113344781D01*
X64074534Y-113281522D01*
X63899995Y-113253878D01*
X63872352Y-113249500D01*
X63667648Y-113249500D01*
X63643329Y-113253351D01*
X63465465Y-113281522D01*
X63270776Y-113344781D01*
X63088386Y-113437715D01*
X62922786Y-113558028D01*
X62778028Y-113702786D01*
X62657715Y-113868386D01*
X62564781Y-114050776D01*
X62501522Y-114245465D01*
X62469500Y-114447648D01*
X57449995Y-114447648D01*
X57417990Y-114245582D01*
X57354755Y-114050968D01*
X57261859Y-113868650D01*
X57229474Y-113824077D01*
X57229474Y-113824076D01*
X56550000Y-114503551D01*
X56550000Y-114497339D01*
X56522741Y-114395606D01*
X56470080Y-114304394D01*
X56395606Y-114229920D01*
X56304394Y-114177259D01*
X56202661Y-114150000D01*
X56196446Y-114150000D01*
X56875922Y-113470524D01*
X56875921Y-113470523D01*
X56831359Y-113438147D01*
X56831350Y-113438141D01*
X56649031Y-113345244D01*
X56454417Y-113282009D01*
X56252317Y-113250000D01*
X56047683Y-113250000D01*
X55845582Y-113282009D01*
X55650968Y-113345244D01*
X55468644Y-113438143D01*
X55424077Y-113470523D01*
X55424077Y-113470524D01*
X56103554Y-114150000D01*
X56097339Y-114150000D01*
X55995606Y-114177259D01*
X55904394Y-114229920D01*
X55829920Y-114304394D01*
X55777259Y-114395606D01*
X55750000Y-114497339D01*
X55750000Y-114503553D01*
X55070524Y-113824077D01*
X55070523Y-113824077D01*
X55038143Y-113868644D01*
X54945244Y-114050968D01*
X54882009Y-114245582D01*
X54850000Y-114447682D01*
X50500500Y-114447682D01*
X50500500Y-107647648D01*
X54789500Y-107647648D01*
X54789500Y-107852351D01*
X54821522Y-108054534D01*
X54884781Y-108249223D01*
X54977715Y-108431613D01*
X55098028Y-108597213D01*
X55242786Y-108741971D01*
X55361573Y-108828273D01*
X55408390Y-108862287D01*
X55492276Y-108905029D01*
X55590776Y-108955218D01*
X55590778Y-108955218D01*
X55590781Y-108955220D01*
X55620204Y-108964780D01*
X55785465Y-109018477D01*
X55886557Y-109034488D01*
X55987648Y-109050500D01*
X55987649Y-109050500D01*
X56192351Y-109050500D01*
X56192352Y-109050500D01*
X56394534Y-109018477D01*
X56589219Y-108955220D01*
X56771610Y-108862287D01*
X56872160Y-108789234D01*
X56937213Y-108741971D01*
X56937215Y-108741968D01*
X56937219Y-108741966D01*
X57081966Y-108597219D01*
X57081968Y-108597215D01*
X57081971Y-108597213D01*
X57134732Y-108524590D01*
X57202287Y-108431610D01*
X57295220Y-108249219D01*
X57358477Y-108054534D01*
X57390500Y-107852352D01*
X57390500Y-107647648D01*
X62409500Y-107647648D01*
X62409500Y-107852351D01*
X62441522Y-108054534D01*
X62504781Y-108249223D01*
X62597715Y-108431613D01*
X62718028Y-108597213D01*
X62862786Y-108741971D01*
X62981573Y-108828273D01*
X63028390Y-108862287D01*
X63112276Y-108905029D01*
X63210776Y-108955218D01*
X63210778Y-108955218D01*
X63210781Y-108955220D01*
X63240204Y-108964780D01*
X63405465Y-109018477D01*
X63506557Y-109034488D01*
X63607648Y-109050500D01*
X63607649Y-109050500D01*
X63812351Y-109050500D01*
X63812352Y-109050500D01*
X64014534Y-109018477D01*
X64209219Y-108955220D01*
X64391610Y-108862287D01*
X64492160Y-108789234D01*
X64557213Y-108741971D01*
X64557215Y-108741968D01*
X64557219Y-108741966D01*
X64701966Y-108597219D01*
X64701968Y-108597215D01*
X64701971Y-108597213D01*
X64754732Y-108524590D01*
X64822287Y-108431610D01*
X64915220Y-108249219D01*
X64978477Y-108054534D01*
X65010500Y-107852352D01*
X65010500Y-107647648D01*
X64978477Y-107445466D01*
X64915220Y-107250781D01*
X64915218Y-107250778D01*
X64915218Y-107250776D01*
X64854173Y-107130970D01*
X64822287Y-107068390D01*
X64772361Y-106999672D01*
X64701971Y-106902786D01*
X64557213Y-106758028D01*
X64391613Y-106637715D01*
X64391612Y-106637714D01*
X64391610Y-106637713D01*
X64334653Y-106608691D01*
X64209223Y-106544781D01*
X64014534Y-106481522D01*
X63839995Y-106453878D01*
X63812352Y-106449500D01*
X63607648Y-106449500D01*
X63583329Y-106453351D01*
X63405465Y-106481522D01*
X63210776Y-106544781D01*
X63028386Y-106637715D01*
X62862786Y-106758028D01*
X62718028Y-106902786D01*
X62597715Y-107068386D01*
X62504781Y-107250776D01*
X62441522Y-107445465D01*
X62409500Y-107647648D01*
X57390500Y-107647648D01*
X57358477Y-107445466D01*
X57353825Y-107431151D01*
X57351832Y-107361312D01*
X57384075Y-107305158D01*
X58552417Y-106136819D01*
X58613740Y-106103334D01*
X58640098Y-106100500D01*
X70101544Y-106100500D01*
X70168583Y-106120185D01*
X70214338Y-106172989D01*
X70224282Y-106242147D01*
X70195257Y-106305703D01*
X70140548Y-106342206D01*
X69980668Y-106395185D01*
X69980663Y-106395187D01*
X69831342Y-106487289D01*
X69707289Y-106611342D01*
X69615187Y-106760663D01*
X69615186Y-106760666D01*
X69560001Y-106927203D01*
X69560001Y-106927204D01*
X69560000Y-106927204D01*
X69549500Y-107029983D01*
X69549500Y-108230001D01*
X69549501Y-108230018D01*
X69560000Y-108332796D01*
X69560001Y-108332799D01*
X69591682Y-108428405D01*
X69615186Y-108499334D01*
X69707288Y-108648656D01*
X69831344Y-108772712D01*
X69980666Y-108864814D01*
X70062570Y-108891954D01*
X70120015Y-108931727D01*
X70146838Y-108996243D01*
X70134523Y-109065018D01*
X70096451Y-109109978D01*
X70002787Y-109178028D01*
X70002782Y-109178032D01*
X69858028Y-109322786D01*
X69737715Y-109488386D01*
X69644781Y-109670776D01*
X69581522Y-109865465D01*
X69549500Y-110067648D01*
X69549500Y-110272351D01*
X69581523Y-110474535D01*
X69581523Y-110474538D01*
X69644779Y-110669218D01*
X69644779Y-110669219D01*
X69690547Y-110759045D01*
X69703443Y-110827714D01*
X69677166Y-110892455D01*
X69667743Y-110903020D01*
X67384449Y-113186314D01*
X67384442Y-113186321D01*
X67381286Y-113189478D01*
X67381284Y-113189480D01*
X67269480Y-113301284D01*
X67244368Y-113344780D01*
X67238468Y-113354998D01*
X67238468Y-113354999D01*
X67190465Y-113438143D01*
X67190423Y-113438215D01*
X67149499Y-113590943D01*
X67149499Y-113590945D01*
X67149499Y-113759046D01*
X67149500Y-113759059D01*
X67149500Y-114420234D01*
X67129815Y-114487273D01*
X67128602Y-114489125D01*
X67040609Y-114620814D01*
X67040602Y-114620827D01*
X66980264Y-114766498D01*
X66980261Y-114766510D01*
X66949500Y-114921153D01*
X66949500Y-115078846D01*
X66980261Y-115233489D01*
X66980264Y-115233501D01*
X67040602Y-115379172D01*
X67040609Y-115379185D01*
X67128210Y-115510288D01*
X67128213Y-115510292D01*
X67239707Y-115621786D01*
X67239710Y-115621788D01*
X67239711Y-115621789D01*
X67261250Y-115636181D01*
X67263504Y-115637687D01*
X67308308Y-115691300D01*
X67317015Y-115760625D01*
X67286860Y-115823652D01*
X67282293Y-115828470D01*
X66384228Y-116726535D01*
X66384221Y-116726542D01*
X66381286Y-116729478D01*
X66381284Y-116729480D01*
X66269480Y-116841284D01*
X66247405Y-116879520D01*
X66190423Y-116978215D01*
X66149499Y-117130943D01*
X66149499Y-117130945D01*
X66149499Y-117299046D01*
X66149500Y-117299059D01*
X66149500Y-118420234D01*
X66129815Y-118487273D01*
X66128602Y-118489125D01*
X66040609Y-118620814D01*
X66040602Y-118620827D01*
X65980264Y-118766498D01*
X65980261Y-118766510D01*
X65949500Y-118921153D01*
X65949500Y-119078846D01*
X65980261Y-119233489D01*
X65980264Y-119233501D01*
X66040602Y-119379172D01*
X66040609Y-119379185D01*
X66128210Y-119510288D01*
X66128213Y-119510292D01*
X66239707Y-119621786D01*
X66239711Y-119621789D01*
X66370814Y-119709390D01*
X66370827Y-119709397D01*
X66457308Y-119745218D01*
X66516503Y-119769737D01*
X66665417Y-119799358D01*
X66671153Y-119800499D01*
X66671156Y-119800500D01*
X66671158Y-119800500D01*
X66828844Y-119800500D01*
X66828845Y-119800499D01*
X66983497Y-119769737D01*
X67129179Y-119709394D01*
X67260289Y-119621789D01*
X67371789Y-119510289D01*
X67459394Y-119379179D01*
X67519737Y-119233497D01*
X67550500Y-119078842D01*
X67550500Y-118921158D01*
X67550500Y-118921155D01*
X67550499Y-118921153D01*
X67528888Y-118812510D01*
X67519737Y-118766503D01*
X67512901Y-118750000D01*
X67459397Y-118620827D01*
X67459390Y-118620814D01*
X67371398Y-118489125D01*
X67350520Y-118422447D01*
X67350500Y-118420234D01*
X67350500Y-117510097D01*
X67370185Y-117443058D01*
X67386819Y-117422416D01*
X68360680Y-116448555D01*
X69364755Y-115444479D01*
X69426076Y-115410996D01*
X69495768Y-115415980D01*
X69551701Y-115457852D01*
X69574907Y-115512764D01*
X69581522Y-115554534D01*
X69644781Y-115749223D01*
X69737715Y-115931613D01*
X69858028Y-116097213D01*
X70002786Y-116241971D01*
X70157749Y-116354556D01*
X70168390Y-116362287D01*
X70259840Y-116408883D01*
X70261080Y-116409515D01*
X70311876Y-116457490D01*
X70328671Y-116525311D01*
X70306134Y-116591446D01*
X70261080Y-116630485D01*
X70168386Y-116677715D01*
X70002786Y-116798028D01*
X69858028Y-116942786D01*
X69737715Y-117108386D01*
X69644781Y-117290776D01*
X69581522Y-117485465D01*
X69549500Y-117687648D01*
X69549500Y-117892351D01*
X69581522Y-118094534D01*
X69644781Y-118289223D01*
X69696385Y-118390500D01*
X69720408Y-118437648D01*
X69737715Y-118471613D01*
X69858028Y-118637213D01*
X70002786Y-118781971D01*
X70148330Y-118887713D01*
X70168390Y-118902287D01*
X70259840Y-118948883D01*
X70261080Y-118949515D01*
X70311876Y-118997490D01*
X70328671Y-119065311D01*
X70306134Y-119131446D01*
X70261080Y-119170485D01*
X70168386Y-119217715D01*
X70002786Y-119338028D01*
X69858028Y-119482786D01*
X69737715Y-119648386D01*
X69644781Y-119830776D01*
X69602377Y-119961284D01*
X69581523Y-120025466D01*
X69569346Y-120102351D01*
X69554846Y-120193898D01*
X69524917Y-120257033D01*
X69465605Y-120293964D01*
X69432373Y-120298500D01*
X57370057Y-120298500D01*
X57211943Y-120298500D01*
X57059215Y-120339423D01*
X57059214Y-120339423D01*
X57059212Y-120339424D01*
X57059209Y-120339425D01*
X57009096Y-120368359D01*
X57009095Y-120368360D01*
X56965689Y-120393420D01*
X56922285Y-120418479D01*
X56922282Y-120418481D01*
X56810478Y-120530286D01*
X56634842Y-120705921D01*
X56573519Y-120739406D01*
X56508848Y-120736173D01*
X56494534Y-120731522D01*
X56319995Y-120703878D01*
X56292352Y-120699500D01*
X56087648Y-120699500D01*
X56063329Y-120703351D01*
X55885465Y-120731522D01*
X55690776Y-120794781D01*
X55508386Y-120887715D01*
X55342786Y-121008028D01*
X55198028Y-121152786D01*
X55077715Y-121318386D01*
X54984781Y-121500776D01*
X54921522Y-121695465D01*
X54889500Y-121897648D01*
X54889500Y-122102351D01*
X54921522Y-122304534D01*
X54984781Y-122499223D01*
X55043212Y-122613898D01*
X55070384Y-122667227D01*
X55077715Y-122681613D01*
X55198028Y-122847213D01*
X55342786Y-122991971D01*
X55456731Y-123074755D01*
X55508390Y-123112287D01*
X55621658Y-123170000D01*
X55690776Y-123205218D01*
X55690778Y-123205218D01*
X55690781Y-123205220D01*
X55795137Y-123239127D01*
X55885465Y-123268477D01*
X55969564Y-123281797D01*
X56087648Y-123300500D01*
X56087649Y-123300500D01*
X56292351Y-123300500D01*
X56292352Y-123300500D01*
X56494534Y-123268477D01*
X56689219Y-123205220D01*
X56871610Y-123112287D01*
X56964590Y-123044732D01*
X57037213Y-122991971D01*
X57037215Y-122991968D01*
X57037219Y-122991966D01*
X57181966Y-122847219D01*
X57181968Y-122847215D01*
X57181971Y-122847213D01*
X57239777Y-122767648D01*
X57302287Y-122681610D01*
X57395220Y-122499219D01*
X57458477Y-122304534D01*
X57490500Y-122102352D01*
X57490500Y-121897648D01*
X57458477Y-121695466D01*
X57453827Y-121681157D01*
X57453392Y-121665943D01*
X57448074Y-121651682D01*
X57452414Y-121631729D01*
X57451831Y-121611318D01*
X57459920Y-121597229D01*
X57462927Y-121583409D01*
X57484079Y-121555155D01*
X57489315Y-121549920D01*
X57503419Y-121535816D01*
X57564743Y-121502333D01*
X57591098Y-121499500D01*
X62434524Y-121499500D01*
X62501563Y-121519185D01*
X62547318Y-121571989D01*
X62557262Y-121641147D01*
X62552455Y-121661817D01*
X62541524Y-121695457D01*
X62541523Y-121695464D01*
X62509500Y-121897648D01*
X62509500Y-122102351D01*
X62541522Y-122304534D01*
X62604781Y-122499223D01*
X62663212Y-122613898D01*
X62690384Y-122667227D01*
X62697715Y-122681613D01*
X62818028Y-122847213D01*
X62962786Y-122991971D01*
X63076731Y-123074755D01*
X63128390Y-123112287D01*
X63241658Y-123170000D01*
X63310776Y-123205218D01*
X63310778Y-123205218D01*
X63310781Y-123205220D01*
X63415137Y-123239127D01*
X63505465Y-123268477D01*
X63589564Y-123281797D01*
X63707648Y-123300500D01*
X63707649Y-123300500D01*
X63912350Y-123300500D01*
X63912352Y-123300500D01*
X63968027Y-123291681D01*
X64037319Y-123300635D01*
X64075106Y-123326473D01*
X67413181Y-126664548D01*
X67446666Y-126725871D01*
X67449500Y-126752229D01*
X67449500Y-136473918D01*
X67449500Y-136473920D01*
X67449499Y-136473920D01*
X67478340Y-136618907D01*
X67478343Y-136618917D01*
X67534914Y-136755492D01*
X67567812Y-136804727D01*
X67567813Y-136804730D01*
X67617046Y-136878414D01*
X67617052Y-136878421D01*
X71963181Y-141224549D01*
X71996666Y-141285872D01*
X71999500Y-141312230D01*
X71999500Y-141701374D01*
X71990855Y-141730814D01*
X71984332Y-141760801D01*
X71980577Y-141765816D01*
X71979815Y-141768413D01*
X71963182Y-141789055D01*
X71963181Y-141789056D01*
X71837327Y-141914909D01*
X71776004Y-141948393D01*
X71706312Y-141943409D01*
X71661965Y-141914908D01*
X71531746Y-141784689D01*
X71531741Y-141784685D01*
X71378940Y-141673670D01*
X71210635Y-141587913D01*
X71031004Y-141529549D01*
X71030995Y-141529547D01*
X71000000Y-141524637D01*
X71000000Y-142719670D01*
X70980255Y-142699925D01*
X70894745Y-142650556D01*
X70799370Y-142625000D01*
X70700630Y-142625000D01*
X70605255Y-142650556D01*
X70519745Y-142699925D01*
X70500000Y-142719670D01*
X70500000Y-141524637D01*
X70499999Y-141524637D01*
X70469004Y-141529547D01*
X70468995Y-141529549D01*
X70289364Y-141587913D01*
X70121059Y-141673670D01*
X69968255Y-141784687D01*
X69968247Y-141784694D01*
X69957628Y-141795313D01*
X69896304Y-141828796D01*
X69826612Y-141823809D01*
X69782269Y-141795310D01*
X69655365Y-141668406D01*
X69504218Y-141573433D01*
X69335720Y-141514473D01*
X69202821Y-141499500D01*
X68297181Y-141499500D01*
X68297177Y-141499501D01*
X68164279Y-141514474D01*
X67995781Y-141573433D01*
X67844634Y-141668406D01*
X67718406Y-141794634D01*
X67623433Y-141945781D01*
X67564473Y-142114279D01*
X67549500Y-142247176D01*
X67549500Y-143752818D01*
X67549501Y-143752822D01*
X67564474Y-143885720D01*
X67623433Y-144054218D01*
X67718406Y-144205365D01*
X67718407Y-144205366D01*
X67844634Y-144331593D01*
X67995783Y-144426567D01*
X68017523Y-144434174D01*
X68164279Y-144485526D01*
X68249271Y-144495101D01*
X68297183Y-144500500D01*
X69202816Y-144500499D01*
X69202818Y-144500499D01*
X69202819Y-144500498D01*
X69335723Y-144485525D01*
X69504217Y-144426567D01*
X69655366Y-144331593D01*
X69781593Y-144205366D01*
X69781593Y-144205365D01*
X69782270Y-144204689D01*
X69843593Y-144171204D01*
X69913285Y-144176188D01*
X69957632Y-144204689D01*
X69968253Y-144215310D01*
X69968258Y-144215314D01*
X70121059Y-144326329D01*
X70289362Y-144412085D01*
X70468997Y-144470451D01*
X70500000Y-144475362D01*
X70500000Y-143280330D01*
X70519745Y-143300075D01*
X70605255Y-143349444D01*
X70700630Y-143375000D01*
X70799370Y-143375000D01*
X70894745Y-143349444D01*
X70980255Y-143300075D01*
X71000000Y-143280330D01*
X71000000Y-144475361D01*
X71031002Y-144470451D01*
X71210637Y-144412085D01*
X71378940Y-144326329D01*
X71531741Y-144215314D01*
X71531746Y-144215310D01*
X71661966Y-144085091D01*
X71669911Y-144080752D01*
X71675337Y-144073505D01*
X71700096Y-144064270D01*
X71723289Y-144051606D01*
X71732318Y-144052251D01*
X71740801Y-144049088D01*
X71766621Y-144054704D01*
X71792981Y-144056590D01*
X71802034Y-144062408D01*
X71809074Y-144063940D01*
X71837328Y-144085091D01*
X71963181Y-144210944D01*
X71996666Y-144272267D01*
X71999500Y-144298625D01*
X71999500Y-144887770D01*
X71979815Y-144954809D01*
X71963181Y-144975451D01*
X70525451Y-146413181D01*
X70464128Y-146446666D01*
X70437770Y-146449500D01*
X58762229Y-146449500D01*
X58695190Y-146429815D01*
X58674548Y-146413181D01*
X58337499Y-146076131D01*
X58304014Y-146014808D01*
X58308998Y-145945116D01*
X58343774Y-145895412D01*
X58343773Y-145895411D01*
X58343779Y-145895404D01*
X58344653Y-145894156D01*
X58347206Y-145891974D01*
X58347218Y-145891966D01*
X58491965Y-145747219D01*
X58491967Y-145747215D01*
X58491970Y-145747213D01*
X58612285Y-145581611D01*
X58612419Y-145581349D01*
X58639514Y-145528171D01*
X58687488Y-145477376D01*
X58755309Y-145460580D01*
X58821444Y-145483117D01*
X58860483Y-145528170D01*
X58887713Y-145581611D01*
X59008028Y-145747213D01*
X59152786Y-145891971D01*
X59274535Y-145980425D01*
X59318390Y-146012287D01*
X59434607Y-146071503D01*
X59500776Y-146105218D01*
X59500778Y-146105218D01*
X59500781Y-146105220D01*
X59605137Y-146139127D01*
X59695465Y-146168477D01*
X59796557Y-146184488D01*
X59897648Y-146200500D01*
X59897649Y-146200500D01*
X60102351Y-146200500D01*
X60102352Y-146200500D01*
X60304534Y-146168477D01*
X60499219Y-146105220D01*
X60681610Y-146012287D01*
X60801619Y-145925096D01*
X60847213Y-145891971D01*
X60847215Y-145891968D01*
X60847219Y-145891966D01*
X60991966Y-145747219D01*
X60991968Y-145747215D01*
X60991971Y-145747213D01*
X61112286Y-145581611D01*
X61112420Y-145581349D01*
X61139515Y-145528171D01*
X61187489Y-145477376D01*
X61255310Y-145460580D01*
X61321445Y-145483117D01*
X61360484Y-145528170D01*
X61387714Y-145581611D01*
X61508029Y-145747213D01*
X61652787Y-145891971D01*
X61774536Y-145980425D01*
X61818391Y-146012287D01*
X61934608Y-146071503D01*
X62000777Y-146105218D01*
X62000779Y-146105218D01*
X62000782Y-146105220D01*
X62105138Y-146139127D01*
X62195466Y-146168477D01*
X62296558Y-146184488D01*
X62397649Y-146200500D01*
X62397650Y-146200500D01*
X62602352Y-146200500D01*
X62602353Y-146200500D01*
X62804535Y-146168477D01*
X62999220Y-146105220D01*
X63181611Y-146012287D01*
X63301620Y-145925096D01*
X63347214Y-145891971D01*
X63347216Y-145891968D01*
X63347220Y-145891966D01*
X63491967Y-145747219D01*
X63491969Y-145747215D01*
X63491972Y-145747213D01*
X63594930Y-145605501D01*
X63612288Y-145581610D01*
X63705221Y-145399219D01*
X63768478Y-145204534D01*
X63800501Y-145002352D01*
X63800501Y-143997648D01*
X63782773Y-143885720D01*
X63768478Y-143795465D01*
X63739128Y-143705137D01*
X63705221Y-143600781D01*
X63705219Y-143600778D01*
X63705219Y-143600776D01*
X63662472Y-143516881D01*
X63612288Y-143418390D01*
X63580764Y-143375000D01*
X63491972Y-143252786D01*
X63347214Y-143108028D01*
X63181614Y-142987715D01*
X63181613Y-142987714D01*
X63181611Y-142987713D01*
X63108832Y-142950630D01*
X62999224Y-142894781D01*
X62804535Y-142831522D01*
X62629996Y-142803878D01*
X62602353Y-142799500D01*
X62397649Y-142799500D01*
X62373330Y-142803351D01*
X62195466Y-142831522D01*
X62000777Y-142894781D01*
X61818387Y-142987715D01*
X61652787Y-143108028D01*
X61508029Y-143252786D01*
X61387715Y-143418386D01*
X61360484Y-143471830D01*
X61312509Y-143522625D01*
X61244688Y-143539419D01*
X61178553Y-143516881D01*
X61139515Y-143471828D01*
X61112287Y-143418390D01*
X61080763Y-143375000D01*
X60991971Y-143252786D01*
X60847213Y-143108028D01*
X60681613Y-142987715D01*
X60681612Y-142987714D01*
X60681610Y-142987713D01*
X60608831Y-142950630D01*
X60499223Y-142894781D01*
X60304534Y-142831522D01*
X60129995Y-142803878D01*
X60102352Y-142799500D01*
X59897648Y-142799500D01*
X59873329Y-142803351D01*
X59695465Y-142831522D01*
X59500776Y-142894781D01*
X59318386Y-142987715D01*
X59152786Y-143108028D01*
X59008028Y-143252786D01*
X58887714Y-143418386D01*
X58860483Y-143471830D01*
X58812508Y-143522625D01*
X58744687Y-143539419D01*
X58678552Y-143516881D01*
X58639514Y-143471828D01*
X58612286Y-143418390D01*
X58580762Y-143375000D01*
X58491970Y-143252786D01*
X58347212Y-143108028D01*
X58181612Y-142987715D01*
X58181611Y-142987714D01*
X58181609Y-142987713D01*
X58108830Y-142950630D01*
X57999222Y-142894781D01*
X57804533Y-142831522D01*
X57629994Y-142803878D01*
X57602351Y-142799500D01*
X57397647Y-142799500D01*
X57373328Y-142803351D01*
X57195464Y-142831522D01*
X57000775Y-142894781D01*
X56818385Y-142987715D01*
X56652785Y-143108028D01*
X56508027Y-143252786D01*
X56387714Y-143418386D01*
X56294780Y-143600776D01*
X56231521Y-143795465D01*
X56199499Y-143997648D01*
X56199499Y-145002351D01*
X56231521Y-145204534D01*
X56294780Y-145399223D01*
X56387714Y-145581613D01*
X56508027Y-145747213D01*
X56508033Y-145747219D01*
X56652780Y-145891966D01*
X56698383Y-145925098D01*
X56741049Y-145980425D01*
X56749499Y-146025416D01*
X56749499Y-146373917D01*
X56749499Y-146373919D01*
X56749498Y-146373919D01*
X56778339Y-146518906D01*
X56778342Y-146518916D01*
X56834911Y-146655487D01*
X56834915Y-146655494D01*
X56859764Y-146692683D01*
X56859765Y-146692686D01*
X56859766Y-146692686D01*
X56917050Y-146778419D01*
X56917051Y-146778420D01*
X57817049Y-147678416D01*
X57921584Y-147782951D01*
X57921587Y-147782953D01*
X57921588Y-147782954D01*
X58044494Y-147865077D01*
X58044498Y-147865079D01*
X58044505Y-147865084D01*
X58044508Y-147865085D01*
X58044511Y-147865087D01*
X58068174Y-147874888D01*
X58095810Y-147886335D01*
X58181088Y-147921659D01*
X58297241Y-147944763D01*
X58318860Y-147949063D01*
X58326081Y-147950500D01*
X58326082Y-147950500D01*
X70873920Y-147950500D01*
X70971462Y-147931096D01*
X71018913Y-147921658D01*
X71155495Y-147865084D01*
X71204729Y-147832186D01*
X71278416Y-147782952D01*
X73332951Y-145728416D01*
X73415084Y-145605495D01*
X73471658Y-145468913D01*
X73483905Y-145407342D01*
X73488025Y-145386633D01*
X73488025Y-145386631D01*
X73500500Y-145323919D01*
X73500500Y-144298625D01*
X73520185Y-144231586D01*
X73536819Y-144210944D01*
X73576559Y-144171204D01*
X73665690Y-144082073D01*
X73776760Y-143929199D01*
X73862547Y-143760832D01*
X73920940Y-143581118D01*
X73927457Y-143539969D01*
X73950500Y-143394486D01*
X73950500Y-142912229D01*
X73970185Y-142845190D01*
X73986819Y-142824548D01*
X75624548Y-141186819D01*
X75685871Y-141153334D01*
X75712229Y-141150500D01*
X80375500Y-141150500D01*
X80442539Y-141170185D01*
X80488294Y-141222989D01*
X80499500Y-141274500D01*
X80499500Y-141701374D01*
X80490855Y-141730814D01*
X80484332Y-141760801D01*
X80480577Y-141765816D01*
X80479815Y-141768413D01*
X80463182Y-141789055D01*
X80463181Y-141789056D01*
X80337327Y-141914909D01*
X80276004Y-141948393D01*
X80206312Y-141943409D01*
X80161965Y-141914908D01*
X80031746Y-141784689D01*
X80031741Y-141784685D01*
X79878940Y-141673670D01*
X79710635Y-141587913D01*
X79531004Y-141529549D01*
X79530995Y-141529547D01*
X79500000Y-141524637D01*
X79500000Y-142719670D01*
X79480255Y-142699925D01*
X79394745Y-142650556D01*
X79299370Y-142625000D01*
X79200630Y-142625000D01*
X79105255Y-142650556D01*
X79019745Y-142699925D01*
X79000000Y-142719670D01*
X79000000Y-141524637D01*
X78999999Y-141524637D01*
X78969004Y-141529547D01*
X78968995Y-141529549D01*
X78789364Y-141587913D01*
X78621059Y-141673670D01*
X78468255Y-141784687D01*
X78468247Y-141784694D01*
X78457628Y-141795313D01*
X78396304Y-141828796D01*
X78326612Y-141823809D01*
X78282269Y-141795310D01*
X78155365Y-141668406D01*
X78004218Y-141573433D01*
X77835720Y-141514473D01*
X77702821Y-141499500D01*
X76797181Y-141499500D01*
X76797177Y-141499501D01*
X76664279Y-141514474D01*
X76495781Y-141573433D01*
X76344634Y-141668406D01*
X76218406Y-141794634D01*
X76123433Y-141945781D01*
X76064473Y-142114279D01*
X76049500Y-142247176D01*
X76049500Y-143752818D01*
X76049501Y-143752822D01*
X76064474Y-143885720D01*
X76123433Y-144054218D01*
X76218406Y-144205365D01*
X76218407Y-144205366D01*
X76344634Y-144331593D01*
X76495783Y-144426567D01*
X76517523Y-144434174D01*
X76664279Y-144485526D01*
X76749271Y-144495101D01*
X76797183Y-144500500D01*
X77702816Y-144500499D01*
X77702818Y-144500499D01*
X77702819Y-144500498D01*
X77835723Y-144485525D01*
X78004217Y-144426567D01*
X78155366Y-144331593D01*
X78281593Y-144205366D01*
X78281593Y-144205365D01*
X78282270Y-144204689D01*
X78343593Y-144171204D01*
X78413285Y-144176188D01*
X78457632Y-144204689D01*
X78468253Y-144215310D01*
X78468258Y-144215314D01*
X78621059Y-144326329D01*
X78789362Y-144412085D01*
X78968997Y-144470451D01*
X79000000Y-144475362D01*
X79000000Y-143280330D01*
X79019745Y-143300075D01*
X79105255Y-143349444D01*
X79200630Y-143375000D01*
X79299370Y-143375000D01*
X79394745Y-143349444D01*
X79480255Y-143300075D01*
X79500000Y-143280330D01*
X79500000Y-144475361D01*
X79531002Y-144470451D01*
X79710637Y-144412085D01*
X79878940Y-144326329D01*
X80031741Y-144215314D01*
X80031746Y-144215310D01*
X80161966Y-144085091D01*
X80223289Y-144051606D01*
X80292981Y-144056590D01*
X80337328Y-144085091D01*
X80467927Y-144215690D01*
X80620801Y-144326760D01*
X80700347Y-144367290D01*
X80789163Y-144412545D01*
X80789165Y-144412545D01*
X80789168Y-144412547D01*
X80832314Y-144426566D01*
X80968881Y-144470940D01*
X81155514Y-144500500D01*
X81155519Y-144500500D01*
X81344486Y-144500500D01*
X81531118Y-144470940D01*
X81532623Y-144470451D01*
X81710832Y-144412547D01*
X81879199Y-144326760D01*
X82032073Y-144215690D01*
X82165690Y-144082073D01*
X82227029Y-143997648D01*
X86199499Y-143997648D01*
X86199499Y-145002351D01*
X86231521Y-145204534D01*
X86294780Y-145399223D01*
X86387714Y-145581613D01*
X86508027Y-145747213D01*
X86652785Y-145891971D01*
X86774534Y-145980425D01*
X86818389Y-146012287D01*
X86934606Y-146071503D01*
X87000775Y-146105218D01*
X87000777Y-146105218D01*
X87000780Y-146105220D01*
X87105136Y-146139127D01*
X87195464Y-146168477D01*
X87296556Y-146184488D01*
X87397647Y-146200500D01*
X87397648Y-146200500D01*
X87602350Y-146200500D01*
X87602351Y-146200500D01*
X87804533Y-146168477D01*
X87999218Y-146105220D01*
X88181609Y-146012287D01*
X88301618Y-145925096D01*
X88347212Y-145891971D01*
X88347214Y-145891968D01*
X88347218Y-145891966D01*
X88491965Y-145747219D01*
X88491967Y-145747215D01*
X88491970Y-145747213D01*
X88612285Y-145581611D01*
X88612419Y-145581349D01*
X88639514Y-145528171D01*
X88687488Y-145477376D01*
X88755309Y-145460580D01*
X88821444Y-145483117D01*
X88860483Y-145528170D01*
X88887713Y-145581611D01*
X89008028Y-145747213D01*
X89152786Y-145891971D01*
X89274535Y-145980425D01*
X89318390Y-146012287D01*
X89434607Y-146071503D01*
X89500776Y-146105218D01*
X89500778Y-146105218D01*
X89500781Y-146105220D01*
X89605137Y-146139127D01*
X89695465Y-146168477D01*
X89796557Y-146184488D01*
X89897648Y-146200500D01*
X89897649Y-146200500D01*
X90102351Y-146200500D01*
X90102352Y-146200500D01*
X90304534Y-146168477D01*
X90499219Y-146105220D01*
X90681610Y-146012287D01*
X90801619Y-145925096D01*
X90847213Y-145891971D01*
X90847215Y-145891968D01*
X90847219Y-145891966D01*
X90991966Y-145747219D01*
X90991968Y-145747215D01*
X90991971Y-145747213D01*
X91112286Y-145581611D01*
X91112420Y-145581349D01*
X91139795Y-145527621D01*
X91187769Y-145476826D01*
X91255589Y-145460030D01*
X91321725Y-145482567D01*
X91360765Y-145527621D01*
X91388141Y-145581349D01*
X91508418Y-145746894D01*
X91508418Y-145746895D01*
X91653105Y-145891582D01*
X91818651Y-146011859D01*
X92000969Y-146104754D01*
X92195579Y-146167988D01*
X92250001Y-146176607D01*
X92250001Y-144933012D01*
X92307008Y-144965925D01*
X92434175Y-145000000D01*
X92565827Y-145000000D01*
X92692994Y-144965925D01*
X92750001Y-144933012D01*
X92750001Y-146176606D01*
X92804422Y-146167988D01*
X92999032Y-146104754D01*
X93181350Y-146011859D01*
X93346895Y-145891582D01*
X93346896Y-145891582D01*
X93491583Y-145746895D01*
X93491583Y-145746894D01*
X93611860Y-145581349D01*
X93704756Y-145399031D01*
X93767991Y-145204417D01*
X93800001Y-145002317D01*
X93800001Y-144750000D01*
X92933013Y-144750000D01*
X92965926Y-144692993D01*
X93000001Y-144565826D01*
X93000001Y-144434174D01*
X92965926Y-144307007D01*
X92933013Y-144250000D01*
X93800001Y-144250000D01*
X93800001Y-143997682D01*
X93767991Y-143795582D01*
X93704756Y-143600968D01*
X93611860Y-143418650D01*
X93491583Y-143253105D01*
X93491583Y-143253104D01*
X93346896Y-143108417D01*
X93181350Y-142988140D01*
X92999030Y-142895244D01*
X92804414Y-142832009D01*
X92750001Y-142823390D01*
X92750001Y-144066988D01*
X92692994Y-144034075D01*
X92565827Y-144000000D01*
X92434175Y-144000000D01*
X92307008Y-144034075D01*
X92250001Y-144066988D01*
X92250001Y-142823390D01*
X92195587Y-142832009D01*
X92000971Y-142895244D01*
X91818651Y-142988140D01*
X91653106Y-143108417D01*
X91653105Y-143108417D01*
X91508418Y-143253104D01*
X91508418Y-143253105D01*
X91388139Y-143418653D01*
X91360764Y-143472379D01*
X91312789Y-143523175D01*
X91244968Y-143539969D01*
X91178833Y-143517431D01*
X91139795Y-143472378D01*
X91112284Y-143418385D01*
X90991971Y-143252786D01*
X90847213Y-143108028D01*
X90681613Y-142987715D01*
X90681612Y-142987714D01*
X90681610Y-142987713D01*
X90608831Y-142950630D01*
X90499223Y-142894781D01*
X90304534Y-142831522D01*
X90129995Y-142803878D01*
X90102352Y-142799500D01*
X89897648Y-142799500D01*
X89873329Y-142803351D01*
X89695465Y-142831522D01*
X89500776Y-142894781D01*
X89318386Y-142987715D01*
X89152786Y-143108028D01*
X89008028Y-143252786D01*
X88887714Y-143418386D01*
X88860483Y-143471830D01*
X88812508Y-143522625D01*
X88744687Y-143539419D01*
X88678552Y-143516881D01*
X88639514Y-143471828D01*
X88612286Y-143418390D01*
X88580762Y-143375000D01*
X88491970Y-143252786D01*
X88347212Y-143108028D01*
X88181612Y-142987715D01*
X88181611Y-142987714D01*
X88181609Y-142987713D01*
X88108830Y-142950630D01*
X87999222Y-142894781D01*
X87804533Y-142831522D01*
X87629994Y-142803878D01*
X87602351Y-142799500D01*
X87397647Y-142799500D01*
X87373328Y-142803351D01*
X87195464Y-142831522D01*
X87000775Y-142894781D01*
X86818385Y-142987715D01*
X86652785Y-143108028D01*
X86508027Y-143252786D01*
X86387714Y-143418386D01*
X86294780Y-143600776D01*
X86231521Y-143795465D01*
X86199499Y-143997648D01*
X82227029Y-143997648D01*
X82276760Y-143929199D01*
X82362547Y-143760832D01*
X82420940Y-143581118D01*
X82427457Y-143539969D01*
X82450500Y-143394486D01*
X82450500Y-142605513D01*
X82420940Y-142418881D01*
X82393846Y-142335497D01*
X82362547Y-142239168D01*
X82362545Y-142239165D01*
X82362545Y-142239163D01*
X82276759Y-142070800D01*
X82165690Y-141917927D01*
X82036818Y-141789055D01*
X82003334Y-141727732D01*
X82000500Y-141701374D01*
X82000500Y-140776079D01*
X81971659Y-140631092D01*
X81971658Y-140631091D01*
X81971658Y-140631087D01*
X81934641Y-140541720D01*
X81915087Y-140494511D01*
X81915080Y-140494498D01*
X81832952Y-140371585D01*
X81832951Y-140371584D01*
X81728416Y-140267049D01*
X81430422Y-139969054D01*
X81278421Y-139817052D01*
X81278414Y-139817046D01*
X81204729Y-139767812D01*
X81204729Y-139767813D01*
X81155491Y-139734913D01*
X81018917Y-139678343D01*
X81018907Y-139678340D01*
X80873920Y-139649500D01*
X80873918Y-139649500D01*
X75423917Y-139649500D01*
X75276082Y-139649500D01*
X75276080Y-139649500D01*
X75131092Y-139678340D01*
X75131082Y-139678343D01*
X74994511Y-139734912D01*
X74994498Y-139734919D01*
X74871584Y-139817048D01*
X74871580Y-139817051D01*
X73712181Y-140976451D01*
X73699291Y-140983488D01*
X73689454Y-140994397D01*
X73669240Y-140999898D01*
X73650858Y-141009936D01*
X73636209Y-141008888D01*
X73622036Y-141012746D01*
X73602058Y-141006446D01*
X73581166Y-141004952D01*
X73569408Y-140996150D01*
X73555401Y-140991733D01*
X73542000Y-140975632D01*
X73525233Y-140963080D01*
X73519310Y-140948371D01*
X73510704Y-140938030D01*
X73505995Y-140915299D01*
X73501436Y-140903975D01*
X73500500Y-140896399D01*
X73500500Y-140876082D01*
X73494763Y-140847241D01*
X73471659Y-140731088D01*
X73425194Y-140618913D01*
X73415084Y-140594505D01*
X73382186Y-140545270D01*
X73348267Y-140494505D01*
X73332956Y-140471589D01*
X73332952Y-140471584D01*
X70220936Y-137359568D01*
X83099500Y-137359568D01*
X83099500Y-137640431D01*
X83130942Y-137919494D01*
X83130945Y-137919512D01*
X83193439Y-138193317D01*
X83193443Y-138193329D01*
X83286200Y-138458411D01*
X83408053Y-138711442D01*
X83408055Y-138711445D01*
X83557477Y-138949248D01*
X83732584Y-139168825D01*
X83931175Y-139367416D01*
X84150752Y-139542523D01*
X84388555Y-139691945D01*
X84641592Y-139813801D01*
X84840680Y-139883465D01*
X84906670Y-139906556D01*
X84906682Y-139906560D01*
X85180491Y-139969055D01*
X85180497Y-139969055D01*
X85180505Y-139969057D01*
X85366547Y-139990018D01*
X85459569Y-140000499D01*
X85459572Y-140000500D01*
X85459575Y-140000500D01*
X85740428Y-140000500D01*
X85740429Y-140000499D01*
X85883055Y-139984429D01*
X86019494Y-139969057D01*
X86019499Y-139969056D01*
X86019509Y-139969055D01*
X86293318Y-139906560D01*
X86558408Y-139813801D01*
X86811445Y-139691945D01*
X87049248Y-139542523D01*
X87268825Y-139367416D01*
X87467416Y-139168825D01*
X87642523Y-138949248D01*
X87791945Y-138711445D01*
X87913801Y-138458408D01*
X88006560Y-138193318D01*
X88069055Y-137919509D01*
X88100500Y-137640425D01*
X88100500Y-137359575D01*
X88100499Y-137359568D01*
X91899500Y-137359568D01*
X91899500Y-137640431D01*
X91930942Y-137919494D01*
X91930945Y-137919512D01*
X91993439Y-138193317D01*
X91993443Y-138193329D01*
X92086200Y-138458411D01*
X92208053Y-138711442D01*
X92208055Y-138711445D01*
X92357477Y-138949248D01*
X92532584Y-139168825D01*
X92731175Y-139367416D01*
X92950752Y-139542523D01*
X93188555Y-139691945D01*
X93441592Y-139813801D01*
X93640680Y-139883465D01*
X93706670Y-139906556D01*
X93706682Y-139906560D01*
X93980491Y-139969055D01*
X93980497Y-139969055D01*
X93980505Y-139969057D01*
X94166547Y-139990018D01*
X94259569Y-140000499D01*
X94259572Y-140000500D01*
X94259575Y-140000500D01*
X94540428Y-140000500D01*
X94540429Y-140000499D01*
X94683055Y-139984429D01*
X94819494Y-139969057D01*
X94819499Y-139969056D01*
X94819509Y-139969055D01*
X95093318Y-139906560D01*
X95358408Y-139813801D01*
X95611445Y-139691945D01*
X95849248Y-139542523D01*
X96068825Y-139367416D01*
X96267416Y-139168825D01*
X96442523Y-138949248D01*
X96591945Y-138711445D01*
X96713801Y-138458408D01*
X96806560Y-138193318D01*
X96869055Y-137919509D01*
X96900500Y-137640425D01*
X96900500Y-137359575D01*
X96869055Y-137080491D01*
X96806560Y-136806682D01*
X96713801Y-136541592D01*
X96591945Y-136288555D01*
X96442523Y-136050752D01*
X96267416Y-135831175D01*
X96068825Y-135632584D01*
X95849248Y-135457477D01*
X95611445Y-135308055D01*
X95611442Y-135308053D01*
X95358411Y-135186200D01*
X95093329Y-135093443D01*
X95093317Y-135093439D01*
X94819512Y-135030945D01*
X94819494Y-135030942D01*
X94540431Y-134999500D01*
X94540425Y-134999500D01*
X94259575Y-134999500D01*
X94259568Y-134999500D01*
X93980505Y-135030942D01*
X93980487Y-135030945D01*
X93706682Y-135093439D01*
X93706670Y-135093443D01*
X93441588Y-135186200D01*
X93188557Y-135308053D01*
X92950753Y-135457476D01*
X92731175Y-135632583D01*
X92532583Y-135831175D01*
X92357476Y-136050753D01*
X92208053Y-136288557D01*
X92086200Y-136541588D01*
X91993443Y-136806670D01*
X91993439Y-136806682D01*
X91930945Y-137080487D01*
X91930942Y-137080505D01*
X91899500Y-137359568D01*
X88100499Y-137359568D01*
X88069055Y-137080491D01*
X88006560Y-136806682D01*
X87913801Y-136541592D01*
X87791945Y-136288555D01*
X87642523Y-136050752D01*
X87467416Y-135831175D01*
X87268825Y-135632584D01*
X87049248Y-135457477D01*
X86811445Y-135308055D01*
X86811442Y-135308053D01*
X86558411Y-135186200D01*
X86293329Y-135093443D01*
X86293317Y-135093439D01*
X86019512Y-135030945D01*
X86019494Y-135030942D01*
X85740431Y-134999500D01*
X85740425Y-134999500D01*
X85459575Y-134999500D01*
X85459568Y-134999500D01*
X85180505Y-135030942D01*
X85180487Y-135030945D01*
X84906682Y-135093439D01*
X84906670Y-135093443D01*
X84641588Y-135186200D01*
X84388557Y-135308053D01*
X84150753Y-135457476D01*
X83931175Y-135632583D01*
X83732583Y-135831175D01*
X83557476Y-136050753D01*
X83408053Y-136288557D01*
X83286200Y-136541588D01*
X83193443Y-136806670D01*
X83193439Y-136806682D01*
X83130945Y-137080487D01*
X83130942Y-137080505D01*
X83099500Y-137359568D01*
X70220936Y-137359568D01*
X68986819Y-136125451D01*
X68953334Y-136064128D01*
X68950500Y-136037770D01*
X68950500Y-134309983D01*
X69799500Y-134309983D01*
X69799500Y-135710001D01*
X69799501Y-135710018D01*
X69810000Y-135812796D01*
X69810001Y-135812799D01*
X69826569Y-135862796D01*
X69865186Y-135979334D01*
X69957288Y-136128656D01*
X70081344Y-136252712D01*
X70230666Y-136344814D01*
X70397203Y-136399999D01*
X70499991Y-136410500D01*
X71900008Y-136410499D01*
X72002797Y-136399999D01*
X72169334Y-136344814D01*
X72318656Y-136252712D01*
X72442712Y-136128656D01*
X72534814Y-135979334D01*
X72589999Y-135812797D01*
X72600500Y-135710009D01*
X72600499Y-134359983D01*
X77349500Y-134359983D01*
X77349500Y-135760001D01*
X77349501Y-135760018D01*
X77360000Y-135862796D01*
X77360001Y-135862799D01*
X77398618Y-135979336D01*
X77415186Y-136029334D01*
X77507288Y-136178656D01*
X77631344Y-136302712D01*
X77780666Y-136394814D01*
X77947203Y-136449999D01*
X78049991Y-136460500D01*
X79450008Y-136460499D01*
X79552797Y-136449999D01*
X79719334Y-136394814D01*
X79868656Y-136302712D01*
X79992712Y-136178656D01*
X80084814Y-136029334D01*
X80139999Y-135862797D01*
X80150500Y-135760009D01*
X80150499Y-134359992D01*
X80145391Y-134309992D01*
X80139999Y-134257203D01*
X80139998Y-134257200D01*
X80123431Y-134207204D01*
X80084814Y-134090666D01*
X79992712Y-133941344D01*
X79868656Y-133817288D01*
X79719334Y-133725186D01*
X79552797Y-133670001D01*
X79552795Y-133670000D01*
X79450010Y-133659500D01*
X78049998Y-133659500D01*
X78049981Y-133659501D01*
X77947203Y-133670000D01*
X77947200Y-133670001D01*
X77780668Y-133725185D01*
X77780663Y-133725187D01*
X77631342Y-133817289D01*
X77507289Y-133941342D01*
X77415187Y-134090663D01*
X77415186Y-134090666D01*
X77360001Y-134257203D01*
X77360001Y-134257204D01*
X77360000Y-134257204D01*
X77349500Y-134359983D01*
X72600499Y-134359983D01*
X72600499Y-134309992D01*
X72589999Y-134207203D01*
X72534814Y-134040666D01*
X72442712Y-133891344D01*
X72318656Y-133767288D01*
X72169334Y-133675186D01*
X72002797Y-133620001D01*
X72002795Y-133620000D01*
X71900010Y-133609500D01*
X70499998Y-133609500D01*
X70499981Y-133609501D01*
X70397203Y-133620000D01*
X70397200Y-133620001D01*
X70230668Y-133675185D01*
X70230663Y-133675187D01*
X70081342Y-133767289D01*
X69957289Y-133891342D01*
X69865187Y-134040663D01*
X69865185Y-134040668D01*
X69848617Y-134090668D01*
X69810001Y-134207203D01*
X69810001Y-134207204D01*
X69810000Y-134207204D01*
X69799500Y-134309983D01*
X68950500Y-134309983D01*
X68950500Y-127279778D01*
X69799500Y-127279778D01*
X69799500Y-127500221D01*
X69833985Y-127717952D01*
X69902103Y-127927603D01*
X69902104Y-127927606D01*
X70002187Y-128124025D01*
X70131752Y-128302358D01*
X70131756Y-128302363D01*
X70287636Y-128458243D01*
X70287641Y-128458247D01*
X70356461Y-128508247D01*
X70465978Y-128587815D01*
X70594375Y-128653237D01*
X70662393Y-128687895D01*
X70662396Y-128687896D01*
X70767221Y-128721955D01*
X70872049Y-128756015D01*
X71089778Y-128790500D01*
X71089779Y-128790500D01*
X71310221Y-128790500D01*
X71310222Y-128790500D01*
X71527951Y-128756015D01*
X71737606Y-128687895D01*
X71934022Y-128587815D01*
X72112365Y-128458242D01*
X72268242Y-128302365D01*
X72397815Y-128124022D01*
X72431352Y-128058204D01*
X72479326Y-128007409D01*
X72541836Y-127990500D01*
X74023331Y-127990500D01*
X74023347Y-127990501D01*
X74030943Y-127990501D01*
X74189054Y-127990501D01*
X74189057Y-127990501D01*
X74341785Y-127949577D01*
X74392113Y-127920520D01*
X74392114Y-127920520D01*
X74478709Y-127870524D01*
X74478708Y-127870524D01*
X74478716Y-127870520D01*
X74590520Y-127758716D01*
X74590520Y-127758714D01*
X74600724Y-127748511D01*
X74600727Y-127748506D01*
X76014664Y-126334571D01*
X76075985Y-126301088D01*
X76078152Y-126300637D01*
X76078841Y-126300500D01*
X76078842Y-126300500D01*
X76233497Y-126269737D01*
X76379179Y-126209394D01*
X76510289Y-126121789D01*
X76621789Y-126010289D01*
X76709394Y-125879179D01*
X76769737Y-125733497D01*
X76800500Y-125578842D01*
X76800500Y-125421158D01*
X76800500Y-125421155D01*
X76800499Y-125421153D01*
X76777426Y-125305157D01*
X76769737Y-125266503D01*
X76763223Y-125250776D01*
X76709397Y-125120827D01*
X76709390Y-125120814D01*
X76621789Y-124989711D01*
X76621786Y-124989707D01*
X76510292Y-124878213D01*
X76510288Y-124878210D01*
X76379181Y-124790607D01*
X76379172Y-124790602D01*
X76233501Y-124730264D01*
X76233489Y-124730261D01*
X76078845Y-124699500D01*
X76078842Y-124699500D01*
X75921158Y-124699500D01*
X75921155Y-124699500D01*
X75766510Y-124730261D01*
X75766498Y-124730264D01*
X75620827Y-124790602D01*
X75620819Y-124790607D01*
X75489711Y-124878210D01*
X75489707Y-124878213D01*
X75378213Y-124989707D01*
X75378210Y-124989711D01*
X75290609Y-125120814D01*
X75290602Y-125120827D01*
X75230264Y-125266498D01*
X75230261Y-125266508D01*
X75199362Y-125421848D01*
X75166977Y-125483759D01*
X75165426Y-125485337D01*
X73897584Y-126753181D01*
X73836261Y-126786666D01*
X73809903Y-126789500D01*
X72541836Y-126789500D01*
X72474797Y-126769815D01*
X72431352Y-126721796D01*
X72397814Y-126655976D01*
X72268247Y-126477641D01*
X72268243Y-126477636D01*
X72112363Y-126321756D01*
X72112358Y-126321752D01*
X71934025Y-126192187D01*
X71934024Y-126192186D01*
X71934022Y-126192185D01*
X71871096Y-126160122D01*
X71737606Y-126092104D01*
X71737603Y-126092103D01*
X71527952Y-126023985D01*
X71419086Y-126006742D01*
X71310222Y-125989500D01*
X71089778Y-125989500D01*
X71017201Y-126000995D01*
X70872047Y-126023985D01*
X70662396Y-126092103D01*
X70662393Y-126092104D01*
X70465974Y-126192187D01*
X70287641Y-126321752D01*
X70287636Y-126321756D01*
X70131756Y-126477636D01*
X70131752Y-126477641D01*
X70002187Y-126655974D01*
X69902104Y-126852393D01*
X69902103Y-126852396D01*
X69833985Y-127062047D01*
X69799500Y-127279778D01*
X68950500Y-127279778D01*
X68950500Y-126316081D01*
X68950499Y-126316080D01*
X68935801Y-126242185D01*
X68921659Y-126171088D01*
X68865755Y-126036127D01*
X68865342Y-126034892D01*
X68865084Y-126034505D01*
X68810205Y-125952373D01*
X68782952Y-125911585D01*
X65136473Y-122265106D01*
X65102988Y-122203783D01*
X65101681Y-122158028D01*
X65110500Y-122102352D01*
X65110500Y-121897648D01*
X65078477Y-121695466D01*
X65078475Y-121695462D01*
X65078475Y-121695457D01*
X65067545Y-121661817D01*
X65065550Y-121591976D01*
X65101631Y-121532144D01*
X65164332Y-121501316D01*
X65185476Y-121499500D01*
X69561854Y-121499500D01*
X69628893Y-121519185D01*
X69649535Y-121535819D01*
X69909583Y-121795867D01*
X69943068Y-121857190D01*
X69938084Y-121926882D01*
X69909585Y-121971228D01*
X69858030Y-122022784D01*
X69737715Y-122188386D01*
X69644781Y-122370776D01*
X69581522Y-122565465D01*
X69549500Y-122767648D01*
X69549500Y-122972351D01*
X69581522Y-123174534D01*
X69644781Y-123369223D01*
X69737715Y-123551613D01*
X69858028Y-123717213D01*
X70002786Y-123861971D01*
X70157749Y-123974556D01*
X70168390Y-123982287D01*
X70284607Y-124041503D01*
X70350776Y-124075218D01*
X70350778Y-124075218D01*
X70350781Y-124075220D01*
X70455137Y-124109127D01*
X70545465Y-124138477D01*
X70646557Y-124154488D01*
X70747648Y-124170500D01*
X70747649Y-124170500D01*
X71752351Y-124170500D01*
X71752352Y-124170500D01*
X71954534Y-124138477D01*
X72149219Y-124075220D01*
X72331610Y-123982287D01*
X72424590Y-123914732D01*
X72497213Y-123861971D01*
X72497215Y-123861968D01*
X72497219Y-123861966D01*
X72641966Y-123717219D01*
X72641968Y-123717215D01*
X72641971Y-123717213D01*
X72694732Y-123644590D01*
X72762287Y-123551610D01*
X72855220Y-123369219D01*
X72918477Y-123174534D01*
X72950500Y-122972352D01*
X72950500Y-122767648D01*
X72918477Y-122565466D01*
X72913893Y-122551359D01*
X72855218Y-122370776D01*
X72789980Y-122242741D01*
X72774211Y-122211793D01*
X72761316Y-122143126D01*
X72787592Y-122078386D01*
X72844698Y-122038128D01*
X72884697Y-122031500D01*
X73670234Y-122031500D01*
X73737273Y-122051185D01*
X73739125Y-122052398D01*
X73870814Y-122140390D01*
X73870827Y-122140397D01*
X74016498Y-122200735D01*
X74016503Y-122200737D01*
X74171153Y-122231499D01*
X74171156Y-122231500D01*
X74171158Y-122231500D01*
X74328844Y-122231500D01*
X74328845Y-122231499D01*
X74483497Y-122200737D01*
X74596166Y-122154067D01*
X74629172Y-122140397D01*
X74629172Y-122140396D01*
X74629179Y-122140394D01*
X74719860Y-122079803D01*
X74742939Y-122064382D01*
X74809616Y-122043504D01*
X74876996Y-122061988D01*
X74899511Y-122079803D01*
X78113181Y-125293473D01*
X78146666Y-125354796D01*
X78149500Y-125381154D01*
X78149500Y-126098164D01*
X78129815Y-126165203D01*
X78081796Y-126208648D01*
X78015976Y-126242185D01*
X77837641Y-126371752D01*
X77837636Y-126371756D01*
X77681756Y-126527636D01*
X77681752Y-126527641D01*
X77552187Y-126705974D01*
X77452104Y-126902393D01*
X77452103Y-126902396D01*
X77383985Y-127112047D01*
X77349500Y-127329778D01*
X77349500Y-127550221D01*
X77383985Y-127767952D01*
X77452103Y-127977603D01*
X77452104Y-127977606D01*
X77493172Y-128058204D01*
X77526708Y-128124022D01*
X77552187Y-128174025D01*
X77681752Y-128352358D01*
X77681756Y-128352363D01*
X77837636Y-128508243D01*
X77837641Y-128508247D01*
X77947154Y-128587812D01*
X78015978Y-128637815D01*
X78144375Y-128703237D01*
X78212393Y-128737895D01*
X78212396Y-128737896D01*
X78268159Y-128756014D01*
X78422049Y-128806015D01*
X78639778Y-128840500D01*
X78639779Y-128840500D01*
X78860221Y-128840500D01*
X78860222Y-128840500D01*
X79077951Y-128806015D01*
X79287606Y-128737895D01*
X79484022Y-128637815D01*
X79662365Y-128508242D01*
X79818242Y-128352365D01*
X79947815Y-128174022D01*
X80047895Y-127977606D01*
X80116015Y-127767951D01*
X80150500Y-127550222D01*
X80150500Y-127329778D01*
X80116015Y-127112049D01*
X80047895Y-126902394D01*
X80047895Y-126902393D01*
X79988928Y-126786666D01*
X79947815Y-126705978D01*
X79911485Y-126655974D01*
X79818247Y-126527641D01*
X79818243Y-126527636D01*
X79662363Y-126371756D01*
X79662358Y-126371752D01*
X79484023Y-126242185D01*
X79418204Y-126208648D01*
X79367409Y-126160674D01*
X79350500Y-126098164D01*
X79350500Y-125647648D01*
X84889500Y-125647648D01*
X84889500Y-125852351D01*
X84921522Y-126054534D01*
X84984781Y-126249223D01*
X85077715Y-126431613D01*
X85198028Y-126597213D01*
X85342786Y-126741971D01*
X85494772Y-126852393D01*
X85508390Y-126862287D01*
X85624607Y-126921503D01*
X85690776Y-126955218D01*
X85690778Y-126955218D01*
X85690781Y-126955220D01*
X85795137Y-126989127D01*
X85885465Y-127018477D01*
X85986557Y-127034488D01*
X86087648Y-127050500D01*
X86087649Y-127050500D01*
X86292351Y-127050500D01*
X86292352Y-127050500D01*
X86494534Y-127018477D01*
X86689219Y-126955220D01*
X86871610Y-126862287D01*
X87021783Y-126753181D01*
X87037213Y-126741971D01*
X87037215Y-126741968D01*
X87037219Y-126741966D01*
X87181966Y-126597219D01*
X87181968Y-126597215D01*
X87181971Y-126597213D01*
X87234732Y-126524590D01*
X87302287Y-126431610D01*
X87395220Y-126249219D01*
X87458477Y-126054534D01*
X87490500Y-125852352D01*
X87490500Y-125647648D01*
X87458477Y-125445466D01*
X87395220Y-125250781D01*
X87395218Y-125250778D01*
X87395218Y-125250776D01*
X87361503Y-125184607D01*
X87302287Y-125068390D01*
X87294556Y-125057749D01*
X87181971Y-124902786D01*
X87037213Y-124758028D01*
X86871613Y-124637715D01*
X86871612Y-124637714D01*
X86871610Y-124637713D01*
X86790148Y-124596206D01*
X86689223Y-124544781D01*
X86494534Y-124481522D01*
X86319995Y-124453878D01*
X86292352Y-124449500D01*
X86087648Y-124449500D01*
X86063329Y-124453351D01*
X85885465Y-124481522D01*
X85690776Y-124544781D01*
X85508386Y-124637715D01*
X85342786Y-124758028D01*
X85198028Y-124902786D01*
X85077715Y-125068386D01*
X84984781Y-125250776D01*
X84921522Y-125445465D01*
X84889500Y-125647648D01*
X79350500Y-125647648D01*
X79350500Y-125001998D01*
X79348552Y-124994728D01*
X79348552Y-124994729D01*
X79348551Y-124994724D01*
X79309577Y-124849272D01*
X79275706Y-124790606D01*
X79230520Y-124712341D01*
X79118716Y-124600537D01*
X79118715Y-124600536D01*
X79114385Y-124596206D01*
X79114374Y-124596196D01*
X78900359Y-124382181D01*
X78866874Y-124320858D01*
X78871858Y-124251166D01*
X78913730Y-124195233D01*
X78979194Y-124170816D01*
X78988040Y-124170500D01*
X79372351Y-124170500D01*
X79372352Y-124170500D01*
X79574534Y-124138477D01*
X79769219Y-124075220D01*
X79951610Y-123982287D01*
X80044590Y-123914732D01*
X80117213Y-123861971D01*
X80117215Y-123861968D01*
X80117219Y-123861966D01*
X80261966Y-123717219D01*
X80261968Y-123717215D01*
X80261971Y-123717213D01*
X80314732Y-123644590D01*
X80382287Y-123551610D01*
X80475220Y-123369219D01*
X80538477Y-123174534D01*
X80570500Y-122972352D01*
X80570500Y-122767648D01*
X80546148Y-122613898D01*
X80555103Y-122544605D01*
X80600099Y-122491153D01*
X80666850Y-122470513D01*
X80668621Y-122470500D01*
X84960398Y-122470500D01*
X85027437Y-122490185D01*
X85070883Y-122538205D01*
X85077715Y-122551614D01*
X85198028Y-122717213D01*
X85342786Y-122861971D01*
X85497749Y-122974556D01*
X85508390Y-122982287D01*
X85624607Y-123041503D01*
X85690776Y-123075218D01*
X85690778Y-123075218D01*
X85690781Y-123075220D01*
X85795137Y-123109127D01*
X85885465Y-123138477D01*
X85986557Y-123154488D01*
X86087648Y-123170500D01*
X86087649Y-123170500D01*
X86292351Y-123170500D01*
X86292352Y-123170500D01*
X86494534Y-123138477D01*
X86689219Y-123075220D01*
X86871610Y-122982287D01*
X86964590Y-122914732D01*
X87037213Y-122861971D01*
X87037215Y-122861968D01*
X87037219Y-122861966D01*
X87181966Y-122717219D01*
X87181968Y-122717215D01*
X87181971Y-122717213D01*
X87302284Y-122551614D01*
X87302283Y-122551614D01*
X87302287Y-122551610D01*
X87309117Y-122538204D01*
X87357091Y-122487409D01*
X87419602Y-122470500D01*
X89629903Y-122470500D01*
X89696942Y-122490185D01*
X89717584Y-122506819D01*
X92515921Y-125305157D01*
X92549406Y-125366480D01*
X92546173Y-125431149D01*
X92541523Y-125445460D01*
X92541523Y-125445462D01*
X92509500Y-125647648D01*
X92509500Y-125852351D01*
X92541522Y-126054534D01*
X92604781Y-126249223D01*
X92697715Y-126431613D01*
X92818028Y-126597213D01*
X92962786Y-126741971D01*
X93114772Y-126852393D01*
X93128390Y-126862287D01*
X93244607Y-126921503D01*
X93310776Y-126955218D01*
X93310778Y-126955218D01*
X93310781Y-126955220D01*
X93415137Y-126989127D01*
X93505465Y-127018477D01*
X93606557Y-127034488D01*
X93707648Y-127050500D01*
X93707649Y-127050500D01*
X93912351Y-127050500D01*
X93912352Y-127050500D01*
X94114534Y-127018477D01*
X94309219Y-126955220D01*
X94491610Y-126862287D01*
X94641783Y-126753181D01*
X94657213Y-126741971D01*
X94657215Y-126741968D01*
X94657219Y-126741966D01*
X94801966Y-126597219D01*
X94801968Y-126597215D01*
X94801971Y-126597213D01*
X94854732Y-126524590D01*
X94922287Y-126431610D01*
X95015220Y-126249219D01*
X95078477Y-126054534D01*
X95110500Y-125852352D01*
X95110500Y-125647648D01*
X95078477Y-125445466D01*
X95015220Y-125250781D01*
X95015218Y-125250778D01*
X95015218Y-125250776D01*
X94981503Y-125184607D01*
X94922287Y-125068390D01*
X94914556Y-125057749D01*
X94801971Y-124902786D01*
X94657213Y-124758028D01*
X94491613Y-124637715D01*
X94491612Y-124637714D01*
X94491610Y-124637713D01*
X94410148Y-124596206D01*
X94309223Y-124544781D01*
X94114534Y-124481522D01*
X93939995Y-124453878D01*
X93912352Y-124449500D01*
X93707648Y-124449500D01*
X93667211Y-124455904D01*
X93505462Y-124481523D01*
X93505460Y-124481523D01*
X93491149Y-124486173D01*
X93421308Y-124488164D01*
X93365157Y-124455921D01*
X92771202Y-123861966D01*
X90676917Y-121767682D01*
X92510000Y-121767682D01*
X92510000Y-121972317D01*
X92542009Y-122174417D01*
X92605244Y-122369031D01*
X92698141Y-122551350D01*
X92698147Y-122551359D01*
X92730523Y-122595921D01*
X92730524Y-122595922D01*
X93410000Y-121916446D01*
X93410000Y-121922661D01*
X93437259Y-122024394D01*
X93489920Y-122115606D01*
X93564394Y-122190080D01*
X93655606Y-122242741D01*
X93757339Y-122270000D01*
X93763553Y-122270000D01*
X93084076Y-122949474D01*
X93128650Y-122981859D01*
X93310968Y-123074755D01*
X93505582Y-123137990D01*
X93707683Y-123170000D01*
X93912317Y-123170000D01*
X94114417Y-123137990D01*
X94309031Y-123074755D01*
X94491349Y-122981859D01*
X94535921Y-122949474D01*
X93856447Y-122270000D01*
X93862661Y-122270000D01*
X93964394Y-122242741D01*
X94055606Y-122190080D01*
X94130080Y-122115606D01*
X94182741Y-122024394D01*
X94210000Y-121922661D01*
X94210000Y-121916447D01*
X94889474Y-122595921D01*
X94921859Y-122551349D01*
X95014755Y-122369031D01*
X95077990Y-122174417D01*
X95110000Y-121972317D01*
X95110000Y-121767682D01*
X95077990Y-121565582D01*
X95014755Y-121370968D01*
X94921859Y-121188650D01*
X94889474Y-121144077D01*
X94889474Y-121144076D01*
X94210000Y-121823551D01*
X94210000Y-121817339D01*
X94182741Y-121715606D01*
X94130080Y-121624394D01*
X94055606Y-121549920D01*
X93964394Y-121497259D01*
X93862661Y-121470000D01*
X93856446Y-121470000D01*
X94535922Y-120790524D01*
X94535921Y-120790523D01*
X94491359Y-120758147D01*
X94491350Y-120758141D01*
X94309031Y-120665244D01*
X94114417Y-120602009D01*
X93912317Y-120570000D01*
X93707683Y-120570000D01*
X93505582Y-120602009D01*
X93310968Y-120665244D01*
X93128644Y-120758143D01*
X93084077Y-120790523D01*
X93084077Y-120790524D01*
X93763554Y-121470000D01*
X93757339Y-121470000D01*
X93655606Y-121497259D01*
X93564394Y-121549920D01*
X93489920Y-121624394D01*
X93437259Y-121715606D01*
X93410000Y-121817339D01*
X93410000Y-121823553D01*
X92730524Y-121144077D01*
X92730523Y-121144077D01*
X92698143Y-121188644D01*
X92605244Y-121370968D01*
X92542009Y-121565582D01*
X92510000Y-121767682D01*
X90676917Y-121767682D01*
X90417589Y-121508354D01*
X90417588Y-121508352D01*
X90298717Y-121389481D01*
X90298712Y-121389477D01*
X90204208Y-121334916D01*
X90161785Y-121310423D01*
X90009057Y-121269499D01*
X89850943Y-121269499D01*
X89843347Y-121269499D01*
X89843331Y-121269500D01*
X87939097Y-121269500D01*
X87872058Y-121249815D01*
X87826303Y-121197011D01*
X87816359Y-121127853D01*
X87845384Y-121064297D01*
X87851416Y-121057819D01*
X88159133Y-120750102D01*
X89454017Y-119455218D01*
X90761586Y-118147648D01*
X92512833Y-118147648D01*
X92512833Y-118352351D01*
X92544855Y-118554534D01*
X92608114Y-118749223D01*
X92656678Y-118844534D01*
X92695720Y-118921158D01*
X92701048Y-118931613D01*
X92821361Y-119097213D01*
X92966119Y-119241971D01*
X93071303Y-119318390D01*
X93131723Y-119362287D01*
X93247940Y-119421503D01*
X93314109Y-119455218D01*
X93314111Y-119455218D01*
X93314114Y-119455220D01*
X93418470Y-119489127D01*
X93508798Y-119518477D01*
X93593964Y-119531966D01*
X93710981Y-119550500D01*
X93710982Y-119550500D01*
X93915684Y-119550500D01*
X93915685Y-119550500D01*
X94117867Y-119518477D01*
X94312552Y-119455220D01*
X94494943Y-119362287D01*
X94587923Y-119294732D01*
X94660546Y-119241971D01*
X94660548Y-119241968D01*
X94660552Y-119241966D01*
X94805299Y-119097219D01*
X94805301Y-119097215D01*
X94805304Y-119097213D01*
X94870095Y-119008034D01*
X94925620Y-118931610D01*
X95018553Y-118749219D01*
X95081810Y-118554534D01*
X95113833Y-118352352D01*
X95113833Y-118147648D01*
X95096906Y-118040776D01*
X95081810Y-117945465D01*
X95018551Y-117750776D01*
X94984836Y-117684607D01*
X94925620Y-117568390D01*
X94865373Y-117485466D01*
X94805304Y-117402786D01*
X94660546Y-117258028D01*
X94494946Y-117137715D01*
X94494945Y-117137714D01*
X94494943Y-117137713D01*
X94434491Y-117106911D01*
X94312556Y-117044781D01*
X94117867Y-116981522D01*
X93943328Y-116953878D01*
X93915685Y-116949500D01*
X93710981Y-116949500D01*
X93686662Y-116953351D01*
X93508798Y-116981522D01*
X93314109Y-117044781D01*
X93131719Y-117137715D01*
X92966119Y-117258028D01*
X92821361Y-117402786D01*
X92701048Y-117568386D01*
X92608114Y-117750776D01*
X92544855Y-117945465D01*
X92512833Y-118147648D01*
X90761586Y-118147648D01*
X93177676Y-115731557D01*
X93238997Y-115698074D01*
X93308689Y-115703058D01*
X93312819Y-115704684D01*
X93314115Y-115705221D01*
X93449541Y-115749223D01*
X93508799Y-115768477D01*
X93710981Y-115800500D01*
X93710982Y-115800500D01*
X93915684Y-115800500D01*
X93915685Y-115800500D01*
X94117867Y-115768477D01*
X94312552Y-115705220D01*
X94494943Y-115612287D01*
X94587923Y-115544732D01*
X94660546Y-115491971D01*
X94660548Y-115491968D01*
X94660552Y-115491966D01*
X94805299Y-115347219D01*
X94805301Y-115347215D01*
X94805304Y-115347213D01*
X94889293Y-115231610D01*
X94925620Y-115181610D01*
X95018553Y-114999219D01*
X95081810Y-114804534D01*
X95113833Y-114602352D01*
X95113833Y-114397648D01*
X95081810Y-114195466D01*
X95018553Y-114000781D01*
X95018551Y-114000778D01*
X95018551Y-114000776D01*
X94971561Y-113908555D01*
X94925620Y-113818390D01*
X94912622Y-113800500D01*
X94805304Y-113652786D01*
X94660546Y-113508028D01*
X94494946Y-113387715D01*
X94494945Y-113387714D01*
X94494943Y-113387713D01*
X94430738Y-113354999D01*
X94312556Y-113294781D01*
X94117867Y-113231522D01*
X93943328Y-113203878D01*
X93915685Y-113199500D01*
X93710981Y-113199500D01*
X93686662Y-113203351D01*
X93508798Y-113231522D01*
X93314109Y-113294781D01*
X93131719Y-113387715D01*
X92966119Y-113508028D01*
X92821361Y-113652786D01*
X92701048Y-113818386D01*
X92608114Y-114000776D01*
X92544855Y-114195465D01*
X92512833Y-114397648D01*
X92512833Y-114602356D01*
X92516017Y-114622459D01*
X92507063Y-114691752D01*
X92481225Y-114729538D01*
X86634842Y-120575921D01*
X86573519Y-120609406D01*
X86508848Y-120606173D01*
X86494534Y-120601522D01*
X86319995Y-120573878D01*
X86292352Y-120569500D01*
X86087648Y-120569500D01*
X86063329Y-120573351D01*
X85885465Y-120601522D01*
X85690776Y-120664781D01*
X85508386Y-120757715D01*
X85342786Y-120878028D01*
X85198028Y-121022786D01*
X85077715Y-121188385D01*
X85070883Y-121201795D01*
X85022909Y-121252591D01*
X84960398Y-121269500D01*
X83596859Y-121269500D01*
X83529820Y-121249815D01*
X83484065Y-121197011D01*
X83474121Y-121127853D01*
X83503146Y-121064297D01*
X83523974Y-121045181D01*
X83597219Y-120991966D01*
X83741966Y-120847219D01*
X83741968Y-120847215D01*
X83741971Y-120847213D01*
X83849289Y-120699500D01*
X83862287Y-120681610D01*
X83955220Y-120499219D01*
X84018477Y-120304534D01*
X84050500Y-120102352D01*
X84050500Y-119897648D01*
X84042871Y-119849479D01*
X84018477Y-119695465D01*
X83989127Y-119605137D01*
X83955220Y-119500781D01*
X83955218Y-119500778D01*
X83955218Y-119500776D01*
X83897354Y-119387213D01*
X83862287Y-119318390D01*
X83806766Y-119241971D01*
X83741971Y-119152786D01*
X83597213Y-119008028D01*
X83431613Y-118887715D01*
X83431612Y-118887714D01*
X83431610Y-118887713D01*
X83378171Y-118860484D01*
X83327376Y-118812510D01*
X83310581Y-118744689D01*
X83333118Y-118678554D01*
X83378172Y-118639515D01*
X83382690Y-118637213D01*
X83431610Y-118612287D01*
X83524590Y-118544732D01*
X83597213Y-118491971D01*
X83597215Y-118491968D01*
X83597219Y-118491966D01*
X83741966Y-118347219D01*
X83741968Y-118347215D01*
X83741971Y-118347213D01*
X83794732Y-118274590D01*
X83862287Y-118181610D01*
X83955220Y-117999219D01*
X84018477Y-117804534D01*
X84050500Y-117602352D01*
X84050500Y-117397648D01*
X84027161Y-117250294D01*
X84036115Y-117181003D01*
X84081111Y-117127551D01*
X84147863Y-117106911D01*
X84215177Y-117125636D01*
X84237315Y-117143217D01*
X84899255Y-117805157D01*
X84932740Y-117866480D01*
X84929506Y-117931155D01*
X84924855Y-117945468D01*
X84892833Y-118147648D01*
X84892833Y-118352351D01*
X84924855Y-118554534D01*
X84988114Y-118749223D01*
X85036678Y-118844534D01*
X85075720Y-118921158D01*
X85081048Y-118931613D01*
X85201361Y-119097213D01*
X85346119Y-119241971D01*
X85451303Y-119318390D01*
X85511723Y-119362287D01*
X85627940Y-119421503D01*
X85694109Y-119455218D01*
X85694111Y-119455218D01*
X85694114Y-119455220D01*
X85798470Y-119489127D01*
X85888798Y-119518477D01*
X85973964Y-119531966D01*
X86090981Y-119550500D01*
X86090982Y-119550500D01*
X86295684Y-119550500D01*
X86295685Y-119550500D01*
X86497867Y-119518477D01*
X86692552Y-119455220D01*
X86874943Y-119362287D01*
X86967923Y-119294732D01*
X87040546Y-119241971D01*
X87040548Y-119241968D01*
X87040552Y-119241966D01*
X87185299Y-119097219D01*
X87185301Y-119097215D01*
X87185304Y-119097213D01*
X87250095Y-119008034D01*
X87305620Y-118931610D01*
X87398553Y-118749219D01*
X87461810Y-118554534D01*
X87493833Y-118352352D01*
X87493833Y-118147648D01*
X87476906Y-118040776D01*
X87461810Y-117945465D01*
X87398551Y-117750776D01*
X87364836Y-117684607D01*
X87305620Y-117568390D01*
X87245373Y-117485466D01*
X87185304Y-117402786D01*
X87040546Y-117258028D01*
X86874946Y-117137715D01*
X86874945Y-117137714D01*
X86874943Y-117137713D01*
X86814491Y-117106911D01*
X86692556Y-117044781D01*
X86497867Y-116981522D01*
X86323328Y-116953878D01*
X86295685Y-116949500D01*
X86090981Y-116949500D01*
X86052932Y-116955526D01*
X85888801Y-116981522D01*
X85880050Y-116984365D01*
X85874487Y-116986173D01*
X85804646Y-116988167D01*
X85748490Y-116955922D01*
X85104750Y-116312182D01*
X85071265Y-116250859D01*
X85076249Y-116181167D01*
X85118121Y-116125234D01*
X85183585Y-116100817D01*
X85192431Y-116100501D01*
X85272387Y-116100501D01*
X85272390Y-116100501D01*
X85425118Y-116059577D01*
X85438863Y-116051640D01*
X85475831Y-116030298D01*
X85475842Y-116030290D01*
X85475854Y-116030284D01*
X85562049Y-115980520D01*
X85673853Y-115868716D01*
X85673853Y-115868714D01*
X85684056Y-115858512D01*
X85684060Y-115858506D01*
X85748491Y-115794075D01*
X85809812Y-115760592D01*
X85874484Y-115763825D01*
X85888799Y-115768477D01*
X86090981Y-115800500D01*
X86090982Y-115800500D01*
X86295684Y-115800500D01*
X86295685Y-115800500D01*
X86497867Y-115768477D01*
X86692552Y-115705220D01*
X86874943Y-115612287D01*
X86967923Y-115544732D01*
X87040546Y-115491971D01*
X87040548Y-115491968D01*
X87040552Y-115491966D01*
X87185299Y-115347219D01*
X87185301Y-115347215D01*
X87185304Y-115347213D01*
X87269293Y-115231610D01*
X87305620Y-115181610D01*
X87398553Y-114999219D01*
X87461810Y-114804534D01*
X87493833Y-114602352D01*
X87493833Y-114397648D01*
X87461810Y-114195466D01*
X87398553Y-114000781D01*
X87398551Y-114000778D01*
X87398551Y-114000776D01*
X87351561Y-113908555D01*
X87305620Y-113818390D01*
X87292622Y-113800500D01*
X87185304Y-113652786D01*
X87040546Y-113508028D01*
X86874946Y-113387715D01*
X86874945Y-113387714D01*
X86874943Y-113387713D01*
X86810738Y-113354999D01*
X86692556Y-113294781D01*
X86497867Y-113231522D01*
X86323328Y-113203878D01*
X86295685Y-113199500D01*
X86090981Y-113199500D01*
X86066662Y-113203351D01*
X85888798Y-113231522D01*
X85694109Y-113294781D01*
X85511719Y-113387715D01*
X85346119Y-113508028D01*
X85201361Y-113652786D01*
X85081048Y-113818386D01*
X84988114Y-114000776D01*
X84924855Y-114195465D01*
X84892833Y-114397648D01*
X84892833Y-114602351D01*
X84917185Y-114756102D01*
X84908230Y-114825395D01*
X84863234Y-114878847D01*
X84796483Y-114899487D01*
X84794712Y-114899500D01*
X80613633Y-114899500D01*
X80546594Y-114879815D01*
X80500839Y-114827011D01*
X80495702Y-114813819D01*
X80492685Y-114804534D01*
X80475220Y-114750781D01*
X80475218Y-114750778D01*
X80475218Y-114750776D01*
X80425050Y-114652317D01*
X80382287Y-114568390D01*
X80325124Y-114489711D01*
X80261971Y-114402786D01*
X80117213Y-114258028D01*
X79951614Y-114137715D01*
X79945006Y-114134348D01*
X79858917Y-114090483D01*
X79808123Y-114042511D01*
X79791328Y-113974690D01*
X79813865Y-113908555D01*
X79858917Y-113869516D01*
X79951610Y-113822287D01*
X79972770Y-113806913D01*
X80117213Y-113701971D01*
X80117215Y-113701968D01*
X80117219Y-113701966D01*
X80261966Y-113557219D01*
X80261968Y-113557215D01*
X80261971Y-113557213D01*
X80382284Y-113391614D01*
X80382285Y-113391613D01*
X80382287Y-113391610D01*
X80389117Y-113378204D01*
X80437091Y-113327409D01*
X80499602Y-113310500D01*
X81669953Y-113310500D01*
X81736992Y-113330185D01*
X81757634Y-113346819D01*
X81902786Y-113491971D01*
X82039012Y-113590943D01*
X82068390Y-113612287D01*
X82147864Y-113652781D01*
X82250776Y-113705218D01*
X82250778Y-113705218D01*
X82250781Y-113705220D01*
X82355137Y-113739127D01*
X82445465Y-113768477D01*
X82546557Y-113784488D01*
X82647648Y-113800500D01*
X82647649Y-113800500D01*
X82852351Y-113800500D01*
X82852352Y-113800500D01*
X83054534Y-113768477D01*
X83249219Y-113705220D01*
X83431610Y-113612287D01*
X83524590Y-113544732D01*
X83597213Y-113491971D01*
X83597215Y-113491968D01*
X83597219Y-113491966D01*
X83741966Y-113347219D01*
X83741968Y-113347215D01*
X83741971Y-113347213D01*
X83826024Y-113231522D01*
X83862287Y-113181610D01*
X83955220Y-112999219D01*
X84018477Y-112804534D01*
X84050500Y-112602352D01*
X84050500Y-112397648D01*
X84018477Y-112195466D01*
X83955220Y-112000781D01*
X83955218Y-112000778D01*
X83955218Y-112000776D01*
X83921503Y-111934607D01*
X83862287Y-111818390D01*
X83789375Y-111718034D01*
X83741971Y-111652786D01*
X83597213Y-111508028D01*
X83431613Y-111387715D01*
X83431612Y-111387714D01*
X83431610Y-111387713D01*
X83378171Y-111360484D01*
X83327376Y-111312510D01*
X83310581Y-111244689D01*
X83333118Y-111178554D01*
X83378172Y-111139515D01*
X83431610Y-111112287D01*
X83562461Y-111017219D01*
X83597213Y-110991971D01*
X83597215Y-110991968D01*
X83597219Y-110991966D01*
X83741966Y-110847219D01*
X83741968Y-110847215D01*
X83741971Y-110847213D01*
X83806028Y-110759045D01*
X83862287Y-110681610D01*
X83955220Y-110499219D01*
X84018477Y-110304534D01*
X84050500Y-110102352D01*
X84050500Y-109897648D01*
X84018477Y-109695466D01*
X84013825Y-109681151D01*
X84011832Y-109611312D01*
X84044075Y-109555158D01*
X85137347Y-108461887D01*
X85198666Y-108428405D01*
X85268358Y-108433389D01*
X85312705Y-108461890D01*
X85342786Y-108491971D01*
X85497749Y-108604556D01*
X85508390Y-108612287D01*
X85624607Y-108671503D01*
X85690776Y-108705218D01*
X85690778Y-108705218D01*
X85690781Y-108705220D01*
X85786045Y-108736173D01*
X85885465Y-108768477D01*
X85912204Y-108772712D01*
X86087648Y-108800500D01*
X86087649Y-108800500D01*
X86292351Y-108800500D01*
X86292352Y-108800500D01*
X86494534Y-108768477D01*
X86689219Y-108705220D01*
X86871610Y-108612287D01*
X86964590Y-108544732D01*
X87037213Y-108491971D01*
X87037215Y-108491968D01*
X87037219Y-108491966D01*
X87181966Y-108347219D01*
X87181968Y-108347215D01*
X87181971Y-108347213D01*
X87302284Y-108181614D01*
X87302285Y-108181613D01*
X87302287Y-108181610D01*
X87309117Y-108168204D01*
X87357091Y-108117409D01*
X87419602Y-108100500D01*
X90913331Y-108100500D01*
X90913347Y-108100501D01*
X90920943Y-108100501D01*
X91079054Y-108100501D01*
X91079057Y-108100501D01*
X91231785Y-108059577D01*
X91281904Y-108030639D01*
X91368716Y-107980520D01*
X91480520Y-107868716D01*
X91480520Y-107868714D01*
X91490728Y-107858507D01*
X91490729Y-107858504D01*
X92362934Y-106986299D01*
X92424255Y-106952816D01*
X92493947Y-106957800D01*
X92549880Y-106999672D01*
X92574297Y-107065136D01*
X92568544Y-107112299D01*
X92541524Y-107195457D01*
X92541523Y-107195464D01*
X92509500Y-107397648D01*
X92509500Y-107602351D01*
X92541522Y-107804534D01*
X92604781Y-107999223D01*
X92697715Y-108181613D01*
X92818028Y-108347213D01*
X92962786Y-108491971D01*
X93117749Y-108604556D01*
X93128390Y-108612287D01*
X93244607Y-108671503D01*
X93310776Y-108705218D01*
X93310778Y-108705218D01*
X93310781Y-108705220D01*
X93406045Y-108736173D01*
X93505465Y-108768477D01*
X93532204Y-108772712D01*
X93707648Y-108800500D01*
X93707649Y-108800500D01*
X93912351Y-108800500D01*
X93912352Y-108800500D01*
X94114534Y-108768477D01*
X94309219Y-108705220D01*
X94491610Y-108612287D01*
X94584590Y-108544732D01*
X94657213Y-108491971D01*
X94657215Y-108491968D01*
X94657219Y-108491966D01*
X94801966Y-108347219D01*
X94801968Y-108347215D01*
X94801971Y-108347213D01*
X94854732Y-108274590D01*
X94922287Y-108181610D01*
X95015220Y-107999219D01*
X95078477Y-107804534D01*
X95110500Y-107602352D01*
X95110500Y-107397648D01*
X95096605Y-107309920D01*
X95078477Y-107195465D01*
X95021296Y-107019481D01*
X95015220Y-107000781D01*
X95015218Y-107000778D01*
X95015218Y-107000776D01*
X94965286Y-106902781D01*
X94922287Y-106818390D01*
X94896651Y-106783105D01*
X94801971Y-106652786D01*
X94657213Y-106508028D01*
X94491613Y-106387715D01*
X94491612Y-106387714D01*
X94491610Y-106387713D01*
X94402298Y-106342206D01*
X94309223Y-106294781D01*
X94114534Y-106231522D01*
X93939995Y-106203878D01*
X93912352Y-106199500D01*
X93707648Y-106199500D01*
X93640254Y-106210174D01*
X93505464Y-106231523D01*
X93505457Y-106231524D01*
X93422299Y-106258544D01*
X93352458Y-106260539D01*
X93292626Y-106224458D01*
X93261798Y-106161757D01*
X93269763Y-106092343D01*
X93296297Y-106052936D01*
X95014662Y-104334572D01*
X95075983Y-104301089D01*
X95078150Y-104300638D01*
X95136085Y-104289113D01*
X95233497Y-104269737D01*
X95379179Y-104209394D01*
X95510289Y-104121789D01*
X95621789Y-104010289D01*
X95709394Y-103879179D01*
X95769737Y-103733497D01*
X95800500Y-103578842D01*
X95800500Y-103421158D01*
X95800500Y-103421155D01*
X95800499Y-103421153D01*
X95774531Y-103290606D01*
X95769737Y-103266503D01*
X95769735Y-103266498D01*
X95709397Y-103120827D01*
X95709390Y-103120814D01*
X95621789Y-102989711D01*
X95621786Y-102989707D01*
X95510292Y-102878213D01*
X95510288Y-102878210D01*
X95379185Y-102790609D01*
X95379172Y-102790602D01*
X95233501Y-102730264D01*
X95233489Y-102730261D01*
X95078845Y-102699500D01*
X95078842Y-102699500D01*
X94921158Y-102699500D01*
X94921155Y-102699500D01*
X94766510Y-102730261D01*
X94766498Y-102730264D01*
X94620827Y-102790602D01*
X94620814Y-102790609D01*
X94489711Y-102878210D01*
X94489707Y-102878213D01*
X94378213Y-102989707D01*
X94378210Y-102989711D01*
X94290609Y-103120814D01*
X94290602Y-103120827D01*
X94230264Y-103266498D01*
X94230261Y-103266508D01*
X94199361Y-103421850D01*
X94166976Y-103483761D01*
X94165425Y-103485339D01*
X90787584Y-106863181D01*
X90726261Y-106896666D01*
X90699903Y-106899500D01*
X87419602Y-106899500D01*
X87352563Y-106879815D01*
X87309117Y-106831795D01*
X87302284Y-106818385D01*
X87181971Y-106652786D01*
X87037213Y-106508028D01*
X86871613Y-106387715D01*
X86871612Y-106387714D01*
X86871610Y-106387713D01*
X86782298Y-106342206D01*
X86689223Y-106294781D01*
X86494534Y-106231522D01*
X86319995Y-106203878D01*
X86292352Y-106199500D01*
X86087648Y-106199500D01*
X86063329Y-106203351D01*
X85885465Y-106231522D01*
X85690776Y-106294781D01*
X85508386Y-106387715D01*
X85342786Y-106508028D01*
X85198028Y-106652786D01*
X85077713Y-106818388D01*
X85031089Y-106909891D01*
X84983114Y-106960687D01*
X84982605Y-106960982D01*
X84881287Y-107019477D01*
X84881282Y-107019481D01*
X84769478Y-107131286D01*
X83194842Y-108705921D01*
X83133519Y-108739406D01*
X83068848Y-108736173D01*
X83054534Y-108731522D01*
X82879995Y-108703878D01*
X82852352Y-108699500D01*
X82647648Y-108699500D01*
X82623329Y-108703351D01*
X82445465Y-108731522D01*
X82250776Y-108794781D01*
X82068386Y-108887715D01*
X81902786Y-109008028D01*
X81758028Y-109152786D01*
X81637715Y-109318386D01*
X81544781Y-109500776D01*
X81481522Y-109695465D01*
X81449500Y-109897648D01*
X81449500Y-110102351D01*
X81481522Y-110304534D01*
X81544781Y-110499223D01*
X81608691Y-110624653D01*
X81631401Y-110669223D01*
X81637715Y-110681613D01*
X81758028Y-110847213D01*
X81902786Y-110991971D01*
X82068388Y-111112286D01*
X82121828Y-111139516D01*
X82172623Y-111187490D01*
X82189418Y-111255312D01*
X82166880Y-111321446D01*
X82121828Y-111360484D01*
X82068388Y-111387713D01*
X81902786Y-111508028D01*
X81758028Y-111652786D01*
X81637715Y-111818386D01*
X81544781Y-112000776D01*
X81540666Y-112013441D01*
X81537294Y-112023820D01*
X81497857Y-112081494D01*
X81433498Y-112108692D01*
X81419364Y-112109500D01*
X80499602Y-112109500D01*
X80432563Y-112089815D01*
X80389117Y-112041795D01*
X80382284Y-112028385D01*
X80261971Y-111862786D01*
X80117213Y-111718028D01*
X79951614Y-111597715D01*
X79945006Y-111594348D01*
X79858917Y-111550483D01*
X79808123Y-111502511D01*
X79791328Y-111434690D01*
X79813865Y-111368555D01*
X79858917Y-111329516D01*
X79951610Y-111282287D01*
X80003360Y-111244689D01*
X80117213Y-111161971D01*
X80117215Y-111161968D01*
X80117219Y-111161966D01*
X80261966Y-111017219D01*
X80261968Y-111017215D01*
X80261971Y-111017213D01*
X80314732Y-110944590D01*
X80382287Y-110851610D01*
X80475220Y-110669219D01*
X80538477Y-110474534D01*
X80570500Y-110272352D01*
X80570500Y-110067648D01*
X80538477Y-109865466D01*
X80475220Y-109670781D01*
X80475218Y-109670778D01*
X80475218Y-109670776D01*
X80416306Y-109555156D01*
X80382287Y-109488390D01*
X80352611Y-109447544D01*
X80261971Y-109322786D01*
X80117213Y-109178028D01*
X79951611Y-109057713D01*
X79858369Y-109010203D01*
X79807574Y-108962229D01*
X79790779Y-108894407D01*
X79813317Y-108828273D01*
X79858371Y-108789234D01*
X79951347Y-108741861D01*
X80116894Y-108621582D01*
X80116895Y-108621582D01*
X80261582Y-108476895D01*
X80261582Y-108476894D01*
X80381859Y-108311349D01*
X80474755Y-108129029D01*
X80537990Y-107934413D01*
X80546609Y-107880000D01*
X79185686Y-107880000D01*
X79190080Y-107875606D01*
X79242741Y-107784394D01*
X79270000Y-107682661D01*
X79270000Y-107577339D01*
X79242741Y-107475606D01*
X79190080Y-107384394D01*
X79185686Y-107380000D01*
X80546609Y-107380000D01*
X80537990Y-107325586D01*
X80474755Y-107130970D01*
X80381859Y-106948650D01*
X80261582Y-106783105D01*
X80261582Y-106783104D01*
X80116895Y-106638417D01*
X79951349Y-106518140D01*
X79769031Y-106425244D01*
X79574417Y-106362009D01*
X79372317Y-106330000D01*
X79120000Y-106330000D01*
X79120000Y-107314314D01*
X79115606Y-107309920D01*
X79024394Y-107257259D01*
X78922661Y-107230000D01*
X78817339Y-107230000D01*
X78715606Y-107257259D01*
X78624394Y-107309920D01*
X78620000Y-107314314D01*
X78620000Y-106330000D01*
X78367683Y-106330000D01*
X78165582Y-106362009D01*
X77970968Y-106425244D01*
X77788650Y-106518140D01*
X77623105Y-106638417D01*
X77623104Y-106638417D01*
X77478417Y-106783104D01*
X77478417Y-106783105D01*
X77358140Y-106948650D01*
X77265244Y-107130970D01*
X77202009Y-107325586D01*
X77193391Y-107380000D01*
X78554314Y-107380000D01*
X78549920Y-107384394D01*
X78497259Y-107475606D01*
X78470000Y-107577339D01*
X78470000Y-107682661D01*
X78497259Y-107784394D01*
X78549920Y-107875606D01*
X78554314Y-107880000D01*
X77193391Y-107880000D01*
X77202009Y-107934413D01*
X77265244Y-108129029D01*
X77358140Y-108311349D01*
X77478417Y-108476894D01*
X77478417Y-108476895D01*
X77623104Y-108621582D01*
X77788652Y-108741861D01*
X77881628Y-108789234D01*
X77932425Y-108837208D01*
X77949220Y-108905029D01*
X77926683Y-108971164D01*
X77881630Y-109010203D01*
X77788388Y-109057713D01*
X77622786Y-109178028D01*
X77478028Y-109322786D01*
X77357715Y-109488386D01*
X77264781Y-109670776D01*
X77201522Y-109865465D01*
X77169500Y-110067648D01*
X77169500Y-110272351D01*
X77201522Y-110474534D01*
X77264781Y-110669223D01*
X77328691Y-110794653D01*
X77345537Y-110827714D01*
X77357715Y-110851613D01*
X77478028Y-111017213D01*
X77622786Y-111161971D01*
X77777749Y-111274556D01*
X77788390Y-111282287D01*
X77865244Y-111321446D01*
X77881080Y-111329515D01*
X77931876Y-111377490D01*
X77948671Y-111445311D01*
X77926134Y-111511446D01*
X77881080Y-111550485D01*
X77788386Y-111597715D01*
X77622786Y-111718028D01*
X77478028Y-111862786D01*
X77357715Y-112028386D01*
X77264781Y-112210776D01*
X77201522Y-112405465D01*
X77169500Y-112607648D01*
X77169500Y-112812351D01*
X77201522Y-113014534D01*
X77264781Y-113209223D01*
X77316385Y-113310500D01*
X77355728Y-113387715D01*
X77357715Y-113391613D01*
X77478028Y-113557213D01*
X77622786Y-113701971D01*
X77777749Y-113814556D01*
X77788390Y-113822287D01*
X77878864Y-113868386D01*
X77881080Y-113869515D01*
X77931876Y-113917490D01*
X77948671Y-113985311D01*
X77926134Y-114051446D01*
X77881080Y-114090485D01*
X77788386Y-114137715D01*
X77622786Y-114258028D01*
X77478028Y-114402786D01*
X77357715Y-114568386D01*
X77264781Y-114750776D01*
X77201522Y-114945465D01*
X77169500Y-115147648D01*
X77169500Y-115352351D01*
X77201522Y-115554534D01*
X77220287Y-115612284D01*
X77225872Y-115629474D01*
X77228052Y-115636181D01*
X77230047Y-115706022D01*
X77193967Y-115765855D01*
X77131267Y-115796684D01*
X77110121Y-115798500D01*
X75239097Y-115798500D01*
X75172058Y-115778815D01*
X75151416Y-115762181D01*
X72832255Y-113443020D01*
X72798770Y-113381697D01*
X72803754Y-113312005D01*
X72809452Y-113299043D01*
X72818132Y-113282009D01*
X72855220Y-113209219D01*
X72918477Y-113014534D01*
X72950500Y-112812352D01*
X72950500Y-112607648D01*
X72918477Y-112405466D01*
X72855220Y-112210781D01*
X72855218Y-112210778D01*
X72855218Y-112210776D01*
X72821503Y-112144607D01*
X72762287Y-112028390D01*
X72742228Y-112000781D01*
X72641971Y-111862786D01*
X72497213Y-111718028D01*
X72331614Y-111597715D01*
X72325006Y-111594348D01*
X72238917Y-111550483D01*
X72188123Y-111502511D01*
X72171328Y-111434690D01*
X72193865Y-111368555D01*
X72238917Y-111329516D01*
X72331610Y-111282287D01*
X72383360Y-111244689D01*
X72497213Y-111161971D01*
X72497215Y-111161968D01*
X72497219Y-111161966D01*
X72641966Y-111017219D01*
X72641968Y-111017215D01*
X72641971Y-111017213D01*
X72694732Y-110944590D01*
X72762287Y-110851610D01*
X72855220Y-110669219D01*
X72918477Y-110474534D01*
X72950500Y-110272352D01*
X72950500Y-110067648D01*
X72918477Y-109865466D01*
X72855220Y-109670781D01*
X72855218Y-109670778D01*
X72855218Y-109670776D01*
X72809451Y-109580954D01*
X72796555Y-109512285D01*
X72822831Y-109447544D01*
X72832246Y-109436987D01*
X81621587Y-100647648D01*
X84889500Y-100647648D01*
X84889500Y-100852351D01*
X84921522Y-101054534D01*
X84984781Y-101249223D01*
X85037328Y-101352351D01*
X85071747Y-101419902D01*
X85077715Y-101431613D01*
X85198028Y-101597213D01*
X85342786Y-101741971D01*
X85435840Y-101809577D01*
X85508390Y-101862287D01*
X85618135Y-101918205D01*
X85690776Y-101955218D01*
X85690778Y-101955218D01*
X85690781Y-101955220D01*
X85795137Y-101989127D01*
X85885465Y-102018477D01*
X85986557Y-102034488D01*
X86087648Y-102050500D01*
X86087649Y-102050500D01*
X86292351Y-102050500D01*
X86292352Y-102050500D01*
X86494534Y-102018477D01*
X86689219Y-101955220D01*
X86871610Y-101862287D01*
X86983990Y-101780639D01*
X87037213Y-101741971D01*
X87037215Y-101741968D01*
X87037219Y-101741966D01*
X87181966Y-101597219D01*
X87181968Y-101597215D01*
X87181971Y-101597213D01*
X87256804Y-101494212D01*
X87302287Y-101431610D01*
X87395220Y-101249219D01*
X87458477Y-101054534D01*
X87490500Y-100852352D01*
X87490500Y-100647648D01*
X92509500Y-100647648D01*
X92509500Y-100852351D01*
X92541522Y-101054534D01*
X92604781Y-101249223D01*
X92657328Y-101352351D01*
X92691747Y-101419902D01*
X92697715Y-101431613D01*
X92818028Y-101597213D01*
X92962786Y-101741971D01*
X93055840Y-101809577D01*
X93128390Y-101862287D01*
X93238135Y-101918205D01*
X93310776Y-101955218D01*
X93310778Y-101955218D01*
X93310781Y-101955220D01*
X93415137Y-101989127D01*
X93505465Y-102018477D01*
X93606557Y-102034488D01*
X93707648Y-102050500D01*
X93707649Y-102050500D01*
X93912351Y-102050500D01*
X93912352Y-102050500D01*
X94114534Y-102018477D01*
X94309219Y-101955220D01*
X94491610Y-101862287D01*
X94603990Y-101780639D01*
X94657213Y-101741971D01*
X94657215Y-101741968D01*
X94657219Y-101741966D01*
X94801966Y-101597219D01*
X94801968Y-101597215D01*
X94801971Y-101597213D01*
X94876804Y-101494212D01*
X94922287Y-101431610D01*
X95015220Y-101249219D01*
X95078477Y-101054534D01*
X95110500Y-100852352D01*
X95110500Y-100647648D01*
X95078477Y-100445466D01*
X95064609Y-100402786D01*
X95030275Y-100297116D01*
X95015220Y-100250781D01*
X95015218Y-100250778D01*
X95015218Y-100250776D01*
X94973925Y-100169735D01*
X94922287Y-100068390D01*
X94914556Y-100057749D01*
X94801971Y-99902786D01*
X94657213Y-99758028D01*
X94491613Y-99637715D01*
X94491612Y-99637714D01*
X94491610Y-99637713D01*
X94434653Y-99608691D01*
X94309223Y-99544781D01*
X94114534Y-99481522D01*
X93939995Y-99453878D01*
X93912352Y-99449500D01*
X93707648Y-99449500D01*
X93683329Y-99453351D01*
X93505465Y-99481522D01*
X93310776Y-99544781D01*
X93128386Y-99637715D01*
X92962786Y-99758028D01*
X92818028Y-99902786D01*
X92697715Y-100068386D01*
X92604781Y-100250776D01*
X92541522Y-100445465D01*
X92509500Y-100647648D01*
X87490500Y-100647648D01*
X87458477Y-100445466D01*
X87444609Y-100402786D01*
X87410275Y-100297116D01*
X87395220Y-100250781D01*
X87395218Y-100250778D01*
X87395218Y-100250776D01*
X87353925Y-100169735D01*
X87302287Y-100068390D01*
X87294556Y-100057749D01*
X87181971Y-99902786D01*
X87037213Y-99758028D01*
X86871613Y-99637715D01*
X86871612Y-99637714D01*
X86871610Y-99637713D01*
X86814653Y-99608691D01*
X86689223Y-99544781D01*
X86494534Y-99481522D01*
X86319995Y-99453878D01*
X86292352Y-99449500D01*
X86087648Y-99449500D01*
X86063329Y-99453351D01*
X85885465Y-99481522D01*
X85690776Y-99544781D01*
X85508386Y-99637715D01*
X85342786Y-99758028D01*
X85198028Y-99902786D01*
X85077715Y-100068386D01*
X84984781Y-100250776D01*
X84921522Y-100445465D01*
X84889500Y-100647648D01*
X81621587Y-100647648D01*
X83281416Y-98987819D01*
X83342739Y-98954334D01*
X83369097Y-98951500D01*
X86562714Y-98951500D01*
X86562730Y-98951501D01*
X86570326Y-98951501D01*
X86728437Y-98951501D01*
X86728440Y-98951501D01*
X86881168Y-98910577D01*
X86894913Y-98902640D01*
X86931881Y-98881298D01*
X86931892Y-98881290D01*
X86931904Y-98881284D01*
X87018099Y-98831520D01*
X87129903Y-98719716D01*
X87129903Y-98719714D01*
X87140107Y-98709511D01*
X87140111Y-98709506D01*
X87652839Y-98196778D01*
X87652844Y-98196774D01*
X87663047Y-98186570D01*
X87663049Y-98186570D01*
X87774853Y-98074766D01*
X87838698Y-97964183D01*
X87853910Y-97937835D01*
X87894834Y-97785107D01*
X87894834Y-97626993D01*
X87894834Y-97619398D01*
X87894833Y-97619380D01*
X87894833Y-97147648D01*
X92512833Y-97147648D01*
X92512833Y-97352351D01*
X92544855Y-97554534D01*
X92608114Y-97749223D01*
X92701048Y-97931613D01*
X92821361Y-98097213D01*
X92966119Y-98241971D01*
X93119382Y-98353321D01*
X93131723Y-98362287D01*
X93241119Y-98418027D01*
X93314109Y-98455218D01*
X93314111Y-98455218D01*
X93314114Y-98455220D01*
X93403345Y-98484213D01*
X93508798Y-98518477D01*
X93513458Y-98519215D01*
X93710981Y-98550500D01*
X93710982Y-98550500D01*
X93915684Y-98550500D01*
X93915685Y-98550500D01*
X94117867Y-98518477D01*
X94312552Y-98455220D01*
X94494943Y-98362287D01*
X94621306Y-98270480D01*
X94660546Y-98241971D01*
X94660548Y-98241968D01*
X94660552Y-98241966D01*
X94805299Y-98097219D01*
X94805301Y-98097215D01*
X94805304Y-98097213D01*
X94858065Y-98024590D01*
X94925620Y-97931610D01*
X95018553Y-97749219D01*
X95081810Y-97554534D01*
X95113833Y-97352352D01*
X95113833Y-97147648D01*
X95096701Y-97039480D01*
X95081810Y-96945465D01*
X95036398Y-96805703D01*
X95018553Y-96750781D01*
X95018551Y-96750778D01*
X95018551Y-96750776D01*
X94953638Y-96623379D01*
X94925620Y-96568390D01*
X94917889Y-96557749D01*
X94805304Y-96402786D01*
X94660546Y-96258028D01*
X94494946Y-96137715D01*
X94494945Y-96137714D01*
X94494943Y-96137713D01*
X94437986Y-96108691D01*
X94312556Y-96044781D01*
X94117867Y-95981522D01*
X93943328Y-95953878D01*
X93915685Y-95949500D01*
X93710981Y-95949500D01*
X93686662Y-95953351D01*
X93508798Y-95981522D01*
X93314109Y-96044781D01*
X93131719Y-96137715D01*
X92966119Y-96258028D01*
X92821361Y-96402786D01*
X92701048Y-96568386D01*
X92608114Y-96750776D01*
X92544855Y-96945465D01*
X92512833Y-97147648D01*
X87894833Y-97147648D01*
X87894833Y-94415278D01*
X87894833Y-94415276D01*
X87853910Y-94262549D01*
X87846214Y-94249219D01*
X87774857Y-94125623D01*
X87774854Y-94125619D01*
X87774853Y-94125617D01*
X87663049Y-94013813D01*
X87663048Y-94013812D01*
X87658718Y-94009482D01*
X87658707Y-94009472D01*
X87504077Y-93854842D01*
X87470592Y-93793519D01*
X87473828Y-93728841D01*
X87474259Y-93727514D01*
X87478477Y-93714534D01*
X87510500Y-93512352D01*
X87510500Y-93307648D01*
X92529500Y-93307648D01*
X92529500Y-93512351D01*
X92561522Y-93714534D01*
X92624781Y-93909223D01*
X92678072Y-94013811D01*
X92714974Y-94086235D01*
X92717715Y-94091613D01*
X92838028Y-94257213D01*
X92982786Y-94401971D01*
X93112502Y-94496213D01*
X93148390Y-94522287D01*
X93264607Y-94581503D01*
X93330776Y-94615218D01*
X93330778Y-94615218D01*
X93330781Y-94615220D01*
X93435137Y-94649127D01*
X93525465Y-94678477D01*
X93626557Y-94694488D01*
X93727648Y-94710500D01*
X93727649Y-94710500D01*
X93932351Y-94710500D01*
X93932352Y-94710500D01*
X94134534Y-94678477D01*
X94329219Y-94615220D01*
X94511610Y-94522287D01*
X94636413Y-94431613D01*
X94677213Y-94401971D01*
X94677215Y-94401968D01*
X94677219Y-94401966D01*
X94821966Y-94257219D01*
X94821968Y-94257215D01*
X94821971Y-94257213D01*
X94892236Y-94160500D01*
X94942287Y-94091610D01*
X95035220Y-93909219D01*
X95098477Y-93714534D01*
X95130500Y-93512352D01*
X95130500Y-93307648D01*
X95115866Y-93215255D01*
X95098477Y-93105465D01*
X95067639Y-93010556D01*
X95035220Y-92910781D01*
X95035218Y-92910778D01*
X95035218Y-92910776D01*
X95001503Y-92844607D01*
X94942287Y-92728390D01*
X94902638Y-92673817D01*
X94821971Y-92562786D01*
X94677213Y-92418028D01*
X94511613Y-92297715D01*
X94511612Y-92297714D01*
X94511610Y-92297713D01*
X94453705Y-92268209D01*
X94329223Y-92204781D01*
X94134534Y-92141522D01*
X93959995Y-92113878D01*
X93932352Y-92109500D01*
X93727648Y-92109500D01*
X93703329Y-92113351D01*
X93525465Y-92141522D01*
X93330776Y-92204781D01*
X93148386Y-92297715D01*
X92982786Y-92418028D01*
X92838028Y-92562786D01*
X92717715Y-92728386D01*
X92624781Y-92910776D01*
X92561522Y-93105465D01*
X92529500Y-93307648D01*
X87510500Y-93307648D01*
X87495866Y-93215255D01*
X87478477Y-93105465D01*
X87447639Y-93010556D01*
X87415220Y-92910781D01*
X87415218Y-92910778D01*
X87415218Y-92910776D01*
X87381503Y-92844607D01*
X87322287Y-92728390D01*
X87282638Y-92673817D01*
X87201971Y-92562786D01*
X87057213Y-92418028D01*
X86891613Y-92297715D01*
X86891612Y-92297714D01*
X86891610Y-92297713D01*
X86833705Y-92268209D01*
X86709223Y-92204781D01*
X86514534Y-92141522D01*
X86339995Y-92113878D01*
X86312352Y-92109500D01*
X86107648Y-92109500D01*
X86083329Y-92113351D01*
X85905465Y-92141522D01*
X85710776Y-92204781D01*
X85528386Y-92297715D01*
X85362786Y-92418028D01*
X85307178Y-92473636D01*
X85301849Y-92476545D01*
X85298447Y-92481573D01*
X85271540Y-92493094D01*
X85245855Y-92507120D01*
X85239800Y-92506686D01*
X85234219Y-92509077D01*
X85205354Y-92504223D01*
X85176163Y-92502135D01*
X85171302Y-92498496D01*
X85165316Y-92497490D01*
X85143659Y-92477803D01*
X85120230Y-92460264D01*
X85116959Y-92453531D01*
X85113616Y-92450492D01*
X85099725Y-92418053D01*
X85092669Y-92391719D01*
X85079272Y-92341719D01*
X85059577Y-92268216D01*
X85039474Y-92233396D01*
X84980524Y-92131290D01*
X84980521Y-92131286D01*
X84980520Y-92131284D01*
X84868716Y-92019480D01*
X84868715Y-92019479D01*
X84864385Y-92015149D01*
X84864374Y-92015139D01*
X82496883Y-89647648D01*
X84892833Y-89647648D01*
X84892833Y-89852351D01*
X84924855Y-90054534D01*
X84988114Y-90249223D01*
X85035597Y-90342412D01*
X85062646Y-90395499D01*
X85081048Y-90431613D01*
X85201361Y-90597213D01*
X85346119Y-90741971D01*
X85495538Y-90850528D01*
X85511723Y-90862287D01*
X85627940Y-90921503D01*
X85694109Y-90955218D01*
X85694111Y-90955218D01*
X85694114Y-90955220D01*
X85798470Y-90989127D01*
X85888798Y-91018477D01*
X85989890Y-91034488D01*
X86090981Y-91050500D01*
X86090982Y-91050500D01*
X86295684Y-91050500D01*
X86295685Y-91050500D01*
X86497867Y-91018477D01*
X86692552Y-90955220D01*
X86874943Y-90862287D01*
X86970695Y-90792720D01*
X87040546Y-90741971D01*
X87040548Y-90741968D01*
X87040552Y-90741966D01*
X87185299Y-90597219D01*
X87185301Y-90597215D01*
X87185304Y-90597213D01*
X87238065Y-90524590D01*
X87305620Y-90431610D01*
X87398553Y-90249219D01*
X87461810Y-90054534D01*
X87493833Y-89852352D01*
X87493833Y-89647648D01*
X92512833Y-89647648D01*
X92512833Y-89852351D01*
X92544855Y-90054534D01*
X92608114Y-90249223D01*
X92655597Y-90342412D01*
X92682646Y-90395499D01*
X92701048Y-90431613D01*
X92821361Y-90597213D01*
X92966119Y-90741971D01*
X93115538Y-90850528D01*
X93131723Y-90862287D01*
X93247940Y-90921503D01*
X93314109Y-90955218D01*
X93314111Y-90955218D01*
X93314114Y-90955220D01*
X93418470Y-90989127D01*
X93508798Y-91018477D01*
X93609890Y-91034488D01*
X93710981Y-91050500D01*
X93710982Y-91050500D01*
X93915684Y-91050500D01*
X93915685Y-91050500D01*
X94117867Y-91018477D01*
X94312552Y-90955220D01*
X94494943Y-90862287D01*
X94590695Y-90792720D01*
X94660546Y-90741971D01*
X94660548Y-90741968D01*
X94660552Y-90741966D01*
X94805299Y-90597219D01*
X94805301Y-90597215D01*
X94805304Y-90597213D01*
X94858065Y-90524590D01*
X94925620Y-90431610D01*
X95018553Y-90249219D01*
X95081810Y-90054534D01*
X95113833Y-89852352D01*
X95113833Y-89647648D01*
X95081810Y-89445466D01*
X95018553Y-89250781D01*
X95018551Y-89250778D01*
X95018551Y-89250776D01*
X94958721Y-89133355D01*
X94925620Y-89068390D01*
X94917889Y-89057749D01*
X94805304Y-88902786D01*
X94660546Y-88758028D01*
X94494946Y-88637715D01*
X94494945Y-88637714D01*
X94494943Y-88637713D01*
X94437986Y-88608691D01*
X94312556Y-88544781D01*
X94117867Y-88481522D01*
X93943328Y-88453878D01*
X93915685Y-88449500D01*
X93710981Y-88449500D01*
X93686662Y-88453351D01*
X93508798Y-88481522D01*
X93314109Y-88544781D01*
X93131719Y-88637715D01*
X92966119Y-88758028D01*
X92821361Y-88902786D01*
X92701048Y-89068386D01*
X92608114Y-89250776D01*
X92544855Y-89445465D01*
X92512833Y-89647648D01*
X87493833Y-89647648D01*
X87461810Y-89445466D01*
X87398553Y-89250781D01*
X87398551Y-89250778D01*
X87398551Y-89250776D01*
X87338721Y-89133355D01*
X87305620Y-89068390D01*
X87297889Y-89057749D01*
X87185304Y-88902786D01*
X87040546Y-88758028D01*
X86874946Y-88637715D01*
X86874945Y-88637714D01*
X86874943Y-88637713D01*
X86817986Y-88608691D01*
X86692556Y-88544781D01*
X86497867Y-88481522D01*
X86323328Y-88453878D01*
X86295685Y-88449500D01*
X86090981Y-88449500D01*
X86066662Y-88453351D01*
X85888798Y-88481522D01*
X85694109Y-88544781D01*
X85511719Y-88637715D01*
X85346119Y-88758028D01*
X85201361Y-88902786D01*
X85081048Y-89068386D01*
X84988114Y-89250776D01*
X84924855Y-89445465D01*
X84892833Y-89647648D01*
X82496883Y-89647648D01*
X77996883Y-85147648D01*
X81699500Y-85147648D01*
X81699500Y-85352351D01*
X81731522Y-85554534D01*
X81794781Y-85749223D01*
X81887715Y-85931613D01*
X82008028Y-86097213D01*
X82152786Y-86241971D01*
X82307749Y-86354556D01*
X82318390Y-86362287D01*
X82391425Y-86399500D01*
X82500776Y-86455218D01*
X82500778Y-86455218D01*
X82500781Y-86455220D01*
X82605137Y-86489127D01*
X82695465Y-86518477D01*
X82796557Y-86534488D01*
X82897648Y-86550500D01*
X82897649Y-86550500D01*
X83102351Y-86550500D01*
X83102352Y-86550500D01*
X83304534Y-86518477D01*
X83499219Y-86455220D01*
X83681610Y-86362287D01*
X83784107Y-86287819D01*
X83847213Y-86241971D01*
X83847215Y-86241968D01*
X83847219Y-86241966D01*
X83991966Y-86097219D01*
X83991968Y-86097215D01*
X83991971Y-86097213D01*
X84089456Y-85963034D01*
X84112287Y-85931610D01*
X84139515Y-85878171D01*
X84187490Y-85827376D01*
X84255311Y-85810581D01*
X84321446Y-85833118D01*
X84360485Y-85878172D01*
X84387715Y-85931613D01*
X84508028Y-86097213D01*
X84652786Y-86241971D01*
X84807749Y-86354556D01*
X84818390Y-86362287D01*
X84891425Y-86399500D01*
X85000776Y-86455218D01*
X85000778Y-86455218D01*
X85000781Y-86455220D01*
X85105137Y-86489127D01*
X85195465Y-86518477D01*
X85296557Y-86534488D01*
X85397648Y-86550500D01*
X85397649Y-86550500D01*
X85602351Y-86550500D01*
X85602352Y-86550500D01*
X85804534Y-86518477D01*
X85999219Y-86455220D01*
X86181610Y-86362287D01*
X86284107Y-86287819D01*
X86347213Y-86241971D01*
X86347215Y-86241968D01*
X86347219Y-86241966D01*
X86491966Y-86097219D01*
X86491968Y-86097215D01*
X86491971Y-86097213D01*
X86589456Y-85963034D01*
X86612287Y-85931610D01*
X86705220Y-85749219D01*
X86768477Y-85554534D01*
X86800500Y-85352352D01*
X86800500Y-85147648D01*
X86768477Y-84945466D01*
X86705220Y-84750781D01*
X86705218Y-84750778D01*
X86705218Y-84750776D01*
X86662470Y-84666880D01*
X86612287Y-84568390D01*
X86604556Y-84557749D01*
X86491971Y-84402786D01*
X86347213Y-84258028D01*
X86181613Y-84137715D01*
X86181612Y-84137714D01*
X86181610Y-84137713D01*
X86124653Y-84108691D01*
X85999223Y-84044781D01*
X85804534Y-83981522D01*
X85629995Y-83953878D01*
X85602352Y-83949500D01*
X85397648Y-83949500D01*
X85373329Y-83953351D01*
X85195465Y-83981522D01*
X85000776Y-84044781D01*
X84818386Y-84137715D01*
X84652786Y-84258028D01*
X84508028Y-84402786D01*
X84387713Y-84568388D01*
X84360484Y-84621828D01*
X84312510Y-84672623D01*
X84244688Y-84689418D01*
X84178554Y-84666880D01*
X84139516Y-84621828D01*
X84112286Y-84568388D01*
X83991971Y-84402786D01*
X83847213Y-84258028D01*
X83681613Y-84137715D01*
X83681612Y-84137714D01*
X83681610Y-84137713D01*
X83624653Y-84108691D01*
X83499223Y-84044781D01*
X83304534Y-83981522D01*
X83129995Y-83953878D01*
X83102352Y-83949500D01*
X82897648Y-83949500D01*
X82873329Y-83953351D01*
X82695465Y-83981522D01*
X82500776Y-84044781D01*
X82318386Y-84137715D01*
X82152786Y-84258028D01*
X82008028Y-84402786D01*
X81887715Y-84568386D01*
X81794781Y-84750776D01*
X81731522Y-84945465D01*
X81699500Y-85147648D01*
X77996883Y-85147648D01*
X77737590Y-84888355D01*
X77737588Y-84888352D01*
X77618717Y-84769481D01*
X77618716Y-84769480D01*
X77531904Y-84719360D01*
X77531904Y-84719359D01*
X77531900Y-84719358D01*
X77481785Y-84690423D01*
X77329057Y-84649499D01*
X77170943Y-84649499D01*
X77163347Y-84649499D01*
X77163331Y-84649500D01*
X66229602Y-84649500D01*
X66162563Y-84629815D01*
X66119117Y-84581795D01*
X66112284Y-84568385D01*
X65991971Y-84402786D01*
X65847213Y-84258028D01*
X65681613Y-84137715D01*
X65681612Y-84137714D01*
X65681610Y-84137713D01*
X65624653Y-84108691D01*
X65499223Y-84044781D01*
X65304534Y-83981522D01*
X65129995Y-83953878D01*
X65102352Y-83949500D01*
X64897648Y-83949500D01*
X64873329Y-83953351D01*
X64695465Y-83981522D01*
X64500776Y-84044781D01*
X64318386Y-84137715D01*
X64152786Y-84258028D01*
X64008028Y-84402786D01*
X63887713Y-84568388D01*
X63860484Y-84621828D01*
X63812510Y-84672623D01*
X63744688Y-84689418D01*
X63678554Y-84666880D01*
X63639516Y-84621828D01*
X63612286Y-84568388D01*
X63491971Y-84402786D01*
X63347213Y-84258028D01*
X63181613Y-84137715D01*
X63181612Y-84137714D01*
X63181610Y-84137713D01*
X63122409Y-84107548D01*
X62999217Y-84044778D01*
X62994726Y-84042919D01*
X62995133Y-84041934D01*
X62941691Y-84005381D01*
X62914501Y-83941019D01*
X62926425Y-83872174D01*
X62950011Y-83839222D01*
X66652416Y-80136819D01*
X66713739Y-80103334D01*
X66740097Y-80100500D01*
X67163331Y-80100500D01*
X67163347Y-80100501D01*
X67170943Y-80100501D01*
X67329054Y-80100501D01*
X67329057Y-80100501D01*
X67481785Y-80059577D01*
X67531904Y-80030639D01*
X67618716Y-79980520D01*
X67730520Y-79868716D01*
X67730520Y-79868714D01*
X67740728Y-79858507D01*
X67740729Y-79858504D01*
X69457416Y-78141819D01*
X69518739Y-78108334D01*
X69545097Y-78105500D01*
X71220398Y-78105500D01*
X71287437Y-78125185D01*
X71330883Y-78173205D01*
X71337715Y-78186614D01*
X71458028Y-78352213D01*
X71602786Y-78496971D01*
X71754894Y-78607482D01*
X71768390Y-78617287D01*
X71884607Y-78676503D01*
X71950776Y-78710218D01*
X71950778Y-78710218D01*
X71950781Y-78710220D01*
X72049621Y-78742335D01*
X72145465Y-78773477D01*
X72246557Y-78789488D01*
X72347648Y-78805500D01*
X72347649Y-78805500D01*
X72552351Y-78805500D01*
X72552352Y-78805500D01*
X72754534Y-78773477D01*
X72949219Y-78710220D01*
X73131610Y-78617287D01*
X73234341Y-78542649D01*
X73297213Y-78496971D01*
X73297215Y-78496968D01*
X73297219Y-78496966D01*
X73441966Y-78352219D01*
X73441968Y-78352215D01*
X73441971Y-78352213D01*
X73495111Y-78279070D01*
X73562287Y-78186610D01*
X73655220Y-78004219D01*
X73718477Y-77809534D01*
X73750500Y-77607352D01*
X73750500Y-77402648D01*
X76229500Y-77402648D01*
X76229500Y-77607351D01*
X76261522Y-77809534D01*
X76324781Y-78004223D01*
X76417715Y-78186613D01*
X76538028Y-78352213D01*
X76682786Y-78496971D01*
X76834894Y-78607482D01*
X76848390Y-78617287D01*
X76964607Y-78676503D01*
X77030776Y-78710218D01*
X77030778Y-78710218D01*
X77030781Y-78710220D01*
X77129621Y-78742335D01*
X77225465Y-78773477D01*
X77326557Y-78789488D01*
X77427648Y-78805500D01*
X77427649Y-78805500D01*
X77632351Y-78805500D01*
X77632352Y-78805500D01*
X77834534Y-78773477D01*
X78029219Y-78710220D01*
X78211610Y-78617287D01*
X78314341Y-78542649D01*
X78377213Y-78496971D01*
X78377215Y-78496968D01*
X78377219Y-78496966D01*
X78521966Y-78352219D01*
X78521968Y-78352215D01*
X78521971Y-78352213D01*
X78575111Y-78279070D01*
X78642287Y-78186610D01*
X78735220Y-78004219D01*
X78798477Y-77809534D01*
X78830500Y-77607352D01*
X78830500Y-77402648D01*
X78825969Y-77374038D01*
X83479500Y-77374038D01*
X83479500Y-77625962D01*
X83508575Y-77809534D01*
X83518910Y-77874785D01*
X83596760Y-78114383D01*
X83675413Y-78268747D01*
X83710162Y-78336946D01*
X83711132Y-78338848D01*
X83859201Y-78542649D01*
X83859205Y-78542654D01*
X84037345Y-78720794D01*
X84037350Y-78720798D01*
X84109857Y-78773477D01*
X84241155Y-78868870D01*
X84384184Y-78941747D01*
X84465616Y-78983239D01*
X84465618Y-78983239D01*
X84465621Y-78983241D01*
X84705215Y-79061090D01*
X84954038Y-79100500D01*
X84954039Y-79100500D01*
X85205961Y-79100500D01*
X85205962Y-79100500D01*
X85454785Y-79061090D01*
X85694379Y-78983241D01*
X85918845Y-78868870D01*
X86122656Y-78720793D01*
X86300793Y-78542656D01*
X86448870Y-78338845D01*
X86563241Y-78114379D01*
X86641090Y-77874785D01*
X86680500Y-77625962D01*
X86680500Y-77374038D01*
X91779500Y-77374038D01*
X91779500Y-77625962D01*
X91808575Y-77809534D01*
X91818910Y-77874785D01*
X91896760Y-78114383D01*
X91975413Y-78268747D01*
X92010162Y-78336946D01*
X92011132Y-78338848D01*
X92159201Y-78542649D01*
X92159205Y-78542654D01*
X92337345Y-78720794D01*
X92337350Y-78720798D01*
X92409857Y-78773477D01*
X92541155Y-78868870D01*
X92684184Y-78941747D01*
X92765616Y-78983239D01*
X92765618Y-78983239D01*
X92765621Y-78983241D01*
X93005215Y-79061090D01*
X93254038Y-79100500D01*
X93254039Y-79100500D01*
X93505961Y-79100500D01*
X93505962Y-79100500D01*
X93754785Y-79061090D01*
X93994379Y-78983241D01*
X94218845Y-78868870D01*
X94422656Y-78720793D01*
X94600793Y-78542656D01*
X94730112Y-78364663D01*
X94748858Y-78338862D01*
X94748859Y-78338858D01*
X94748870Y-78338845D01*
X94748877Y-78338829D01*
X94749760Y-78337390D01*
X94750250Y-78336946D01*
X94751734Y-78334904D01*
X94752162Y-78335215D01*
X94801563Y-78290505D01*
X94870491Y-78279070D01*
X94934659Y-78306714D01*
X94973695Y-78364663D01*
X94979500Y-78402159D01*
X94979500Y-78547869D01*
X94979501Y-78547876D01*
X94985908Y-78607483D01*
X95036202Y-78742328D01*
X95036206Y-78742335D01*
X95122452Y-78857544D01*
X95122455Y-78857547D01*
X95237664Y-78943793D01*
X95237671Y-78943797D01*
X95372517Y-78994091D01*
X95372516Y-78994091D01*
X95379444Y-78994835D01*
X95432127Y-79000500D01*
X97527872Y-79000499D01*
X97587483Y-78994091D01*
X97722331Y-78943796D01*
X97837546Y-78857546D01*
X97923796Y-78742331D01*
X97974091Y-78607483D01*
X97980500Y-78547873D01*
X97980499Y-76452128D01*
X97974091Y-76392517D01*
X97939502Y-76299780D01*
X97923797Y-76257671D01*
X97923793Y-76257664D01*
X97837547Y-76142455D01*
X97837544Y-76142452D01*
X97722335Y-76056206D01*
X97722328Y-76056202D01*
X97587482Y-76005908D01*
X97587483Y-76005908D01*
X97527883Y-75999501D01*
X97527881Y-75999500D01*
X97527873Y-75999500D01*
X97527864Y-75999500D01*
X95432129Y-75999500D01*
X95432123Y-75999501D01*
X95372516Y-76005908D01*
X95237671Y-76056202D01*
X95237664Y-76056206D01*
X95122455Y-76142452D01*
X95122452Y-76142455D01*
X95036206Y-76257664D01*
X95036202Y-76257671D01*
X94985908Y-76392517D01*
X94979501Y-76452116D01*
X94979501Y-76452123D01*
X94979500Y-76452135D01*
X94979500Y-76597837D01*
X94959815Y-76664876D01*
X94907011Y-76710631D01*
X94837853Y-76720575D01*
X94774297Y-76691550D01*
X94751815Y-76665036D01*
X94751734Y-76665096D01*
X94750947Y-76664014D01*
X94749776Y-76662632D01*
X94748871Y-76661155D01*
X94600798Y-76457350D01*
X94600794Y-76457345D01*
X94422654Y-76279205D01*
X94422649Y-76279201D01*
X94218848Y-76131132D01*
X94218847Y-76131131D01*
X94218845Y-76131130D01*
X94148747Y-76095413D01*
X93994383Y-76016760D01*
X93754785Y-75938910D01*
X93505962Y-75899500D01*
X93254038Y-75899500D01*
X93129626Y-75919205D01*
X93005214Y-75938910D01*
X92765616Y-76016760D01*
X92541151Y-76131132D01*
X92337350Y-76279201D01*
X92337345Y-76279205D01*
X92159205Y-76457345D01*
X92159201Y-76457350D01*
X92011132Y-76661151D01*
X91896760Y-76885616D01*
X91818910Y-77125214D01*
X91818910Y-77125215D01*
X91779500Y-77374038D01*
X86680500Y-77374038D01*
X86641090Y-77125215D01*
X86563241Y-76885621D01*
X86563239Y-76885618D01*
X86563239Y-76885616D01*
X86521747Y-76804184D01*
X86448870Y-76661155D01*
X86341250Y-76513028D01*
X86300798Y-76457350D01*
X86300794Y-76457345D01*
X86122654Y-76279205D01*
X86122649Y-76279201D01*
X85918848Y-76131132D01*
X85918847Y-76131131D01*
X85918845Y-76131130D01*
X85848747Y-76095413D01*
X85694383Y-76016760D01*
X85454785Y-75938910D01*
X85205962Y-75899500D01*
X84954038Y-75899500D01*
X84829626Y-75919205D01*
X84705214Y-75938910D01*
X84465616Y-76016760D01*
X84241151Y-76131132D01*
X84037350Y-76279201D01*
X84037345Y-76279205D01*
X83859205Y-76457345D01*
X83859201Y-76457350D01*
X83711132Y-76661151D01*
X83596760Y-76885616D01*
X83518910Y-77125214D01*
X83518910Y-77125215D01*
X83479500Y-77374038D01*
X78825969Y-77374038D01*
X78798477Y-77200466D01*
X78774026Y-77125215D01*
X78769127Y-77110137D01*
X78735220Y-77005781D01*
X78735218Y-77005778D01*
X78735218Y-77005776D01*
X78701503Y-76939607D01*
X78642287Y-76823390D01*
X78634556Y-76812749D01*
X78521971Y-76657786D01*
X78377213Y-76513028D01*
X78211613Y-76392715D01*
X78211612Y-76392714D01*
X78211610Y-76392713D01*
X78154653Y-76363691D01*
X78029223Y-76299781D01*
X77834534Y-76236522D01*
X77637693Y-76205346D01*
X77632352Y-76204500D01*
X77427648Y-76204500D01*
X77422307Y-76205346D01*
X77225465Y-76236522D01*
X77030776Y-76299781D01*
X76848386Y-76392715D01*
X76682786Y-76513028D01*
X76538028Y-76657786D01*
X76417715Y-76823386D01*
X76324781Y-77005776D01*
X76261522Y-77200465D01*
X76229500Y-77402648D01*
X73750500Y-77402648D01*
X73718477Y-77200466D01*
X73713825Y-77186151D01*
X73711832Y-77116312D01*
X73744075Y-77060158D01*
X74545158Y-76259075D01*
X74606479Y-76225592D01*
X74671151Y-76228825D01*
X74685466Y-76233477D01*
X74887648Y-76265500D01*
X74887649Y-76265500D01*
X75092351Y-76265500D01*
X75092352Y-76265500D01*
X75294534Y-76233477D01*
X75489219Y-76170220D01*
X75671610Y-76077287D01*
X75778674Y-75999501D01*
X75837213Y-75956971D01*
X75837215Y-75956968D01*
X75837219Y-75956966D01*
X75981966Y-75812219D01*
X75981968Y-75812215D01*
X75981971Y-75812213D01*
X76034732Y-75739590D01*
X76102287Y-75646610D01*
X76195220Y-75464219D01*
X76258477Y-75269534D01*
X76290500Y-75067352D01*
X76290500Y-74862648D01*
X76258477Y-74660466D01*
X76195220Y-74465781D01*
X76195218Y-74465778D01*
X76195218Y-74465776D01*
X76161503Y-74399607D01*
X76102287Y-74283390D01*
X76094556Y-74272749D01*
X75981971Y-74117786D01*
X75837213Y-73973028D01*
X75671613Y-73852715D01*
X75671612Y-73852714D01*
X75671610Y-73852713D01*
X75614653Y-73823691D01*
X75489223Y-73759781D01*
X75294534Y-73696522D01*
X75119995Y-73668878D01*
X75092352Y-73664500D01*
X74887648Y-73664500D01*
X74863329Y-73668351D01*
X74685465Y-73696522D01*
X74490776Y-73759781D01*
X74308386Y-73852715D01*
X74142786Y-73973028D01*
X73998028Y-74117786D01*
X73877715Y-74283386D01*
X73784781Y-74465776D01*
X73721522Y-74660465D01*
X73689500Y-74862648D01*
X73689500Y-75067351D01*
X73721522Y-75269534D01*
X73726173Y-75283848D01*
X73728165Y-75353690D01*
X73695921Y-75409842D01*
X72894842Y-76210921D01*
X72833519Y-76244406D01*
X72768848Y-76241173D01*
X72754534Y-76236522D01*
X72557693Y-76205346D01*
X72552352Y-76204500D01*
X72347648Y-76204500D01*
X72342307Y-76205346D01*
X72145465Y-76236522D01*
X71950776Y-76299781D01*
X71768386Y-76392715D01*
X71602786Y-76513028D01*
X71458028Y-76657786D01*
X71337715Y-76823385D01*
X71330883Y-76836795D01*
X71282909Y-76887591D01*
X71220398Y-76904500D01*
X69364046Y-76904500D01*
X69331957Y-76900276D01*
X69329057Y-76899499D01*
X69170943Y-76899499D01*
X69056397Y-76930192D01*
X69018214Y-76940423D01*
X68881284Y-77019481D01*
X68881281Y-77019483D01*
X68242180Y-77658584D01*
X68180857Y-77692069D01*
X68111165Y-77687085D01*
X68055232Y-77645213D01*
X68030815Y-77579749D01*
X68030499Y-77570903D01*
X68030499Y-76452129D01*
X68030498Y-76452123D01*
X68030497Y-76452116D01*
X68024091Y-76392517D01*
X67989502Y-76299780D01*
X67973797Y-76257671D01*
X67973793Y-76257664D01*
X67887547Y-76142455D01*
X67887544Y-76142452D01*
X67772335Y-76056206D01*
X67772328Y-76056202D01*
X67637482Y-76005908D01*
X67637483Y-76005908D01*
X67577883Y-75999501D01*
X67577881Y-75999500D01*
X67577873Y-75999500D01*
X67577864Y-75999500D01*
X65482129Y-75999500D01*
X65482123Y-75999501D01*
X65422516Y-76005908D01*
X65287671Y-76056202D01*
X65287664Y-76056206D01*
X65172455Y-76142452D01*
X65172452Y-76142455D01*
X65086206Y-76257664D01*
X65086202Y-76257671D01*
X65035908Y-76392517D01*
X65029501Y-76452116D01*
X65029501Y-76452123D01*
X65029500Y-76452135D01*
X65029500Y-76597837D01*
X65009815Y-76664876D01*
X64957011Y-76710631D01*
X64887853Y-76720575D01*
X64824297Y-76691550D01*
X64801815Y-76665036D01*
X64801734Y-76665096D01*
X64800947Y-76664014D01*
X64799776Y-76662632D01*
X64798871Y-76661155D01*
X64650798Y-76457350D01*
X64650794Y-76457345D01*
X64472654Y-76279205D01*
X64472649Y-76279201D01*
X64268848Y-76131132D01*
X64268847Y-76131131D01*
X64268845Y-76131130D01*
X64198747Y-76095413D01*
X64044383Y-76016760D01*
X63804785Y-75938910D01*
X63555962Y-75899500D01*
X63304038Y-75899500D01*
X63179626Y-75919205D01*
X63055214Y-75938910D01*
X62815616Y-76016760D01*
X62591151Y-76131132D01*
X62387350Y-76279201D01*
X62387345Y-76279205D01*
X62209205Y-76457345D01*
X62209201Y-76457350D01*
X62061132Y-76661151D01*
X61946760Y-76885616D01*
X61868910Y-77125214D01*
X61868910Y-77125215D01*
X61829500Y-77374038D01*
X61829500Y-77625962D01*
X61858575Y-77809534D01*
X61868910Y-77874785D01*
X61946760Y-78114383D01*
X62025413Y-78268747D01*
X62060162Y-78336946D01*
X62061132Y-78338848D01*
X62209201Y-78542649D01*
X62209205Y-78542654D01*
X62387345Y-78720794D01*
X62387350Y-78720798D01*
X62459857Y-78773477D01*
X62591155Y-78868870D01*
X62734184Y-78941747D01*
X62815616Y-78983239D01*
X62815618Y-78983239D01*
X62815621Y-78983241D01*
X63055215Y-79061090D01*
X63304038Y-79100500D01*
X63304039Y-79100500D01*
X63555961Y-79100500D01*
X63555962Y-79100500D01*
X63804785Y-79061090D01*
X64044379Y-78983241D01*
X64268845Y-78868870D01*
X64472656Y-78720793D01*
X64650793Y-78542656D01*
X64780112Y-78364663D01*
X64798858Y-78338862D01*
X64798859Y-78338858D01*
X64798870Y-78338845D01*
X64798877Y-78338829D01*
X64799760Y-78337390D01*
X64800250Y-78336946D01*
X64801734Y-78334904D01*
X64802162Y-78335215D01*
X64851563Y-78290505D01*
X64920491Y-78279070D01*
X64984659Y-78306714D01*
X65023695Y-78364663D01*
X65029500Y-78402159D01*
X65029500Y-78547869D01*
X65029501Y-78547876D01*
X65035908Y-78607483D01*
X65086202Y-78742328D01*
X65086206Y-78742335D01*
X65172452Y-78857544D01*
X65172455Y-78857547D01*
X65287664Y-78943793D01*
X65287671Y-78943797D01*
X65332618Y-78960561D01*
X65422517Y-78994091D01*
X65482127Y-79000500D01*
X65790903Y-79000499D01*
X65857941Y-79020183D01*
X65903696Y-79072987D01*
X65913640Y-79142146D01*
X65884615Y-79205701D01*
X65878583Y-79212180D01*
X56634842Y-88455921D01*
X56573519Y-88489406D01*
X56508848Y-88486173D01*
X56494534Y-88481522D01*
X56319995Y-88453878D01*
X56292352Y-88449500D01*
X56087648Y-88449500D01*
X56063329Y-88453351D01*
X55885465Y-88481522D01*
X55690776Y-88544781D01*
X55508386Y-88637715D01*
X55342786Y-88758028D01*
X55198028Y-88902786D01*
X55077715Y-89068386D01*
X54984781Y-89250776D01*
X54921522Y-89445465D01*
X54889500Y-89647648D01*
X54889500Y-89852351D01*
X54921522Y-90054534D01*
X54984781Y-90249223D01*
X55032264Y-90342412D01*
X55059313Y-90395499D01*
X55077715Y-90431613D01*
X55198028Y-90597213D01*
X55342786Y-90741971D01*
X55492205Y-90850528D01*
X55508390Y-90862287D01*
X55624607Y-90921503D01*
X55690776Y-90955218D01*
X55690778Y-90955218D01*
X55690781Y-90955220D01*
X55795137Y-90989127D01*
X55885465Y-91018477D01*
X55986557Y-91034488D01*
X56087648Y-91050500D01*
X56087649Y-91050500D01*
X56292351Y-91050500D01*
X56292352Y-91050500D01*
X56494534Y-91018477D01*
X56689219Y-90955220D01*
X56871610Y-90862287D01*
X56967362Y-90792720D01*
X57037213Y-90741971D01*
X57037215Y-90741968D01*
X57037219Y-90741966D01*
X57181966Y-90597219D01*
X57181968Y-90597215D01*
X57181971Y-90597213D01*
X57234732Y-90524590D01*
X57302287Y-90431610D01*
X57395220Y-90249219D01*
X57458477Y-90054534D01*
X57490500Y-89852352D01*
X57490500Y-89647648D01*
X62509500Y-89647648D01*
X62509500Y-89852351D01*
X62541522Y-90054534D01*
X62604781Y-90249223D01*
X62652264Y-90342412D01*
X62679313Y-90395499D01*
X62697715Y-90431613D01*
X62818028Y-90597213D01*
X62962786Y-90741971D01*
X63112205Y-90850528D01*
X63128390Y-90862287D01*
X63244607Y-90921503D01*
X63310776Y-90955218D01*
X63310778Y-90955218D01*
X63310781Y-90955220D01*
X63415137Y-90989127D01*
X63505465Y-91018477D01*
X63606557Y-91034488D01*
X63707648Y-91050500D01*
X63707649Y-91050500D01*
X63912351Y-91050500D01*
X63912352Y-91050500D01*
X64114534Y-91018477D01*
X64309219Y-90955220D01*
X64491610Y-90862287D01*
X64587362Y-90792720D01*
X64657213Y-90741971D01*
X64657215Y-90741968D01*
X64657219Y-90741966D01*
X64801966Y-90597219D01*
X64801968Y-90597215D01*
X64801971Y-90597213D01*
X64854732Y-90524590D01*
X64922287Y-90431610D01*
X65015220Y-90249219D01*
X65078477Y-90054534D01*
X65110500Y-89852352D01*
X65110500Y-89647648D01*
X65078477Y-89445466D01*
X65015220Y-89250781D01*
X65015218Y-89250778D01*
X65015218Y-89250776D01*
X64955388Y-89133355D01*
X64922287Y-89068390D01*
X64914556Y-89057749D01*
X64801971Y-88902786D01*
X64657213Y-88758028D01*
X64491613Y-88637715D01*
X64491612Y-88637714D01*
X64491610Y-88637713D01*
X64434653Y-88608691D01*
X64309223Y-88544781D01*
X64114534Y-88481522D01*
X63939995Y-88453878D01*
X63912352Y-88449500D01*
X63707648Y-88449500D01*
X63683329Y-88453351D01*
X63505465Y-88481522D01*
X63310776Y-88544781D01*
X63128386Y-88637715D01*
X62962786Y-88758028D01*
X62818028Y-88902786D01*
X62697715Y-89068386D01*
X62604781Y-89250776D01*
X62541522Y-89445465D01*
X62509500Y-89647648D01*
X57490500Y-89647648D01*
X57458477Y-89445466D01*
X57453825Y-89431151D01*
X57451832Y-89361312D01*
X57484075Y-89305158D01*
X61089221Y-85700012D01*
X61150542Y-85666529D01*
X61220234Y-85671513D01*
X61276167Y-85713385D01*
X61292509Y-85744895D01*
X61292919Y-85744726D01*
X61294778Y-85749217D01*
X61387715Y-85931613D01*
X61508028Y-86097213D01*
X61652786Y-86241971D01*
X61807749Y-86354556D01*
X61818390Y-86362287D01*
X61891425Y-86399500D01*
X62000776Y-86455218D01*
X62000778Y-86455218D01*
X62000781Y-86455220D01*
X62105137Y-86489127D01*
X62195465Y-86518477D01*
X62296557Y-86534488D01*
X62397648Y-86550500D01*
X62397649Y-86550500D01*
X62602351Y-86550500D01*
X62602352Y-86550500D01*
X62804534Y-86518477D01*
X62999219Y-86455220D01*
X63181610Y-86362287D01*
X63284107Y-86287819D01*
X63347213Y-86241971D01*
X63347215Y-86241968D01*
X63347219Y-86241966D01*
X63491966Y-86097219D01*
X63491968Y-86097215D01*
X63491971Y-86097213D01*
X63589456Y-85963034D01*
X63612287Y-85931610D01*
X63639515Y-85878171D01*
X63687490Y-85827376D01*
X63755311Y-85810581D01*
X63821446Y-85833118D01*
X63860485Y-85878172D01*
X63887715Y-85931613D01*
X64008028Y-86097213D01*
X64152786Y-86241971D01*
X64307749Y-86354556D01*
X64318390Y-86362287D01*
X64391425Y-86399500D01*
X64500776Y-86455218D01*
X64500778Y-86455218D01*
X64500781Y-86455220D01*
X64605137Y-86489127D01*
X64695465Y-86518477D01*
X64796557Y-86534488D01*
X64897648Y-86550500D01*
X64897649Y-86550500D01*
X65102350Y-86550500D01*
X65102352Y-86550500D01*
X65234891Y-86529507D01*
X65304182Y-86538461D01*
X65357634Y-86583457D01*
X65378274Y-86650208D01*
X65359550Y-86717522D01*
X65357390Y-86720870D01*
X65290608Y-86820816D01*
X65290602Y-86820827D01*
X65230264Y-86966498D01*
X65230261Y-86966510D01*
X65199500Y-87121153D01*
X65199500Y-87278846D01*
X65230261Y-87433489D01*
X65230264Y-87433501D01*
X65290602Y-87579172D01*
X65290609Y-87579185D01*
X65378210Y-87710288D01*
X65378213Y-87710292D01*
X65489707Y-87821786D01*
X65489711Y-87821789D01*
X65620814Y-87909390D01*
X65620827Y-87909397D01*
X65766498Y-87969735D01*
X65766503Y-87969737D01*
X65921153Y-88000499D01*
X65921156Y-88000500D01*
X65921158Y-88000500D01*
X66078844Y-88000500D01*
X66078845Y-88000499D01*
X66233497Y-87969737D01*
X66379179Y-87909394D01*
X66510289Y-87821789D01*
X66621789Y-87710289D01*
X66709394Y-87579179D01*
X66769737Y-87433497D01*
X66789113Y-87336085D01*
X66800638Y-87278150D01*
X66833023Y-87216239D01*
X66834518Y-87214716D01*
X67761416Y-86287819D01*
X67822739Y-86254334D01*
X67849097Y-86251500D01*
X73395903Y-86251500D01*
X73462942Y-86271185D01*
X73483584Y-86287819D01*
X73705922Y-86510157D01*
X73739407Y-86571480D01*
X73736173Y-86636155D01*
X73731522Y-86650468D01*
X73699500Y-86852648D01*
X73699500Y-87057351D01*
X73731522Y-87259534D01*
X73794781Y-87454223D01*
X73887715Y-87636613D01*
X74008028Y-87802213D01*
X74152786Y-87946971D01*
X74307749Y-88059556D01*
X74318390Y-88067287D01*
X74409840Y-88113883D01*
X74411080Y-88114515D01*
X74461876Y-88162490D01*
X74478671Y-88230311D01*
X74456134Y-88296446D01*
X74411080Y-88335485D01*
X74318386Y-88382715D01*
X74152786Y-88503028D01*
X74008028Y-88647786D01*
X73884849Y-88817331D01*
X73883583Y-88816411D01*
X73836884Y-88858664D01*
X73782966Y-88871000D01*
X71311304Y-88871000D01*
X71311288Y-88870999D01*
X71303692Y-88870999D01*
X71145577Y-88870999D01*
X71069213Y-88891461D01*
X70992848Y-88911923D01*
X70992843Y-88911926D01*
X70855924Y-88990975D01*
X70855916Y-88990981D01*
X69504485Y-90342412D01*
X69504484Y-90342414D01*
X69473835Y-90395500D01*
X69425427Y-90479345D01*
X69384503Y-90632073D01*
X69384503Y-90632075D01*
X69382400Y-90639924D01*
X69380125Y-90639314D01*
X69356726Y-90692195D01*
X69318362Y-90722585D01*
X69303393Y-90730212D01*
X69137790Y-90850528D01*
X68993032Y-90995286D01*
X68872719Y-91160886D01*
X68779785Y-91343276D01*
X68716526Y-91537965D01*
X68684504Y-91740148D01*
X68684504Y-91944851D01*
X68716526Y-92147034D01*
X68779785Y-92341723D01*
X68834701Y-92449500D01*
X68865057Y-92509077D01*
X68872719Y-92524113D01*
X68993032Y-92689713D01*
X68993038Y-92689719D01*
X69137785Y-92834466D01*
X69242824Y-92910781D01*
X69262645Y-92925181D01*
X69305311Y-92980511D01*
X69311290Y-93050125D01*
X69278685Y-93111920D01*
X69217846Y-93146277D01*
X69189760Y-93149500D01*
X65039602Y-93149500D01*
X64972563Y-93129815D01*
X64929117Y-93081795D01*
X64922284Y-93068385D01*
X64801971Y-92902786D01*
X64657213Y-92758028D01*
X64491613Y-92637715D01*
X64491612Y-92637714D01*
X64491610Y-92637713D01*
X64434653Y-92608691D01*
X64309223Y-92544781D01*
X64114534Y-92481522D01*
X63937802Y-92453531D01*
X63912352Y-92449500D01*
X63707648Y-92449500D01*
X63683329Y-92453351D01*
X63505465Y-92481522D01*
X63310776Y-92544781D01*
X63128386Y-92637715D01*
X62962786Y-92758028D01*
X62818028Y-92902786D01*
X62697715Y-93068386D01*
X62604781Y-93250776D01*
X62541522Y-93445465D01*
X62518590Y-93590255D01*
X62509500Y-93647648D01*
X62509500Y-93852352D01*
X62513878Y-93879995D01*
X62541522Y-94054534D01*
X62604781Y-94249223D01*
X62656385Y-94350500D01*
X62693320Y-94422989D01*
X62697715Y-94431613D01*
X62818028Y-94597213D01*
X62962786Y-94741971D01*
X63071773Y-94821153D01*
X63128390Y-94862287D01*
X63244607Y-94921503D01*
X63310776Y-94955218D01*
X63310778Y-94955218D01*
X63310781Y-94955220D01*
X63412655Y-94988321D01*
X63505465Y-95018477D01*
X63629908Y-95038187D01*
X63693043Y-95068116D01*
X63729974Y-95127428D01*
X63728976Y-95197290D01*
X63690366Y-95255523D01*
X63657963Y-95275221D01*
X63620824Y-95290604D01*
X63620814Y-95290609D01*
X63489711Y-95378210D01*
X63489707Y-95378213D01*
X63378213Y-95489707D01*
X63378210Y-95489711D01*
X63290609Y-95620814D01*
X63290602Y-95620827D01*
X63230264Y-95766498D01*
X63230261Y-95766510D01*
X63199500Y-95921153D01*
X63199500Y-96078846D01*
X63230428Y-96234329D01*
X63224201Y-96303920D01*
X63181338Y-96359097D01*
X63165107Y-96369004D01*
X63128388Y-96387713D01*
X62962786Y-96508028D01*
X62818028Y-96652786D01*
X62697715Y-96818386D01*
X62604781Y-97000776D01*
X62541522Y-97195465D01*
X62509500Y-97397648D01*
X62509500Y-97602351D01*
X62541522Y-97804534D01*
X62604781Y-97999223D01*
X62666366Y-98120089D01*
X62674522Y-98136096D01*
X62697715Y-98181613D01*
X62818028Y-98347213D01*
X62962786Y-98491971D01*
X63110790Y-98599500D01*
X63128390Y-98612287D01*
X63234883Y-98666548D01*
X63310776Y-98705218D01*
X63310778Y-98705218D01*
X63310781Y-98705220D01*
X63415137Y-98739127D01*
X63505465Y-98768477D01*
X63606557Y-98784488D01*
X63707648Y-98800500D01*
X63707649Y-98800500D01*
X63912351Y-98800500D01*
X63912352Y-98800500D01*
X64114534Y-98768477D01*
X64309219Y-98705220D01*
X64491610Y-98612287D01*
X64619714Y-98519215D01*
X64657213Y-98491971D01*
X64657215Y-98491968D01*
X64657219Y-98491966D01*
X64801966Y-98347219D01*
X64801968Y-98347215D01*
X64801971Y-98347213D01*
X64870057Y-98253499D01*
X64922287Y-98181610D01*
X65015220Y-97999219D01*
X65078477Y-97804534D01*
X65110500Y-97602352D01*
X65110500Y-97397648D01*
X65086281Y-97244736D01*
X65078477Y-97195465D01*
X65015218Y-97000776D01*
X64922287Y-96818390D01*
X64907026Y-96797385D01*
X64883547Y-96731578D01*
X64899373Y-96663524D01*
X64949479Y-96614830D01*
X65007345Y-96600500D01*
X69646610Y-96600500D01*
X69713649Y-96620185D01*
X69759404Y-96672989D01*
X69769348Y-96742147D01*
X69740323Y-96805703D01*
X69694062Y-96839061D01*
X69605831Y-96875606D01*
X69605818Y-96875613D01*
X69474715Y-96963214D01*
X69474711Y-96963217D01*
X69363217Y-97074711D01*
X69363214Y-97074715D01*
X69275613Y-97205818D01*
X69275606Y-97205831D01*
X69215268Y-97351502D01*
X69215265Y-97351514D01*
X69184504Y-97506157D01*
X69184504Y-97663850D01*
X69215265Y-97818493D01*
X69215268Y-97818505D01*
X69275606Y-97964176D01*
X69275613Y-97964189D01*
X69363214Y-98095292D01*
X69363217Y-98095296D01*
X69474711Y-98206790D01*
X69474715Y-98206793D01*
X69605818Y-98294394D01*
X69605831Y-98294401D01*
X69733347Y-98347219D01*
X69751507Y-98354741D01*
X69816151Y-98367599D01*
X69906853Y-98385642D01*
X69968764Y-98418027D01*
X69970343Y-98419578D01*
X71165139Y-99614374D01*
X71165149Y-99614385D01*
X71169479Y-99618715D01*
X71169480Y-99618716D01*
X71281284Y-99730520D01*
X71347442Y-99768716D01*
X71418215Y-99809577D01*
X71570943Y-99850501D01*
X71570946Y-99850501D01*
X71578794Y-99852604D01*
X71578009Y-99855532D01*
X71628697Y-99877933D01*
X71667190Y-99936244D01*
X71668047Y-100006108D01*
X71647918Y-100046945D01*
X71606203Y-100102669D01*
X71606202Y-100102671D01*
X71555908Y-100237517D01*
X71549501Y-100297116D01*
X71549501Y-100297123D01*
X71549500Y-100297135D01*
X71549500Y-101742870D01*
X71549501Y-101742876D01*
X71555908Y-101802483D01*
X71606202Y-101937328D01*
X71606206Y-101937335D01*
X71692452Y-102052544D01*
X71692455Y-102052547D01*
X71807664Y-102138793D01*
X71807671Y-102138797D01*
X71942517Y-102189091D01*
X71942516Y-102189091D01*
X71949444Y-102189835D01*
X72002127Y-102195500D01*
X73997872Y-102195499D01*
X74057483Y-102189091D01*
X74192331Y-102138796D01*
X74307546Y-102052546D01*
X74393796Y-101937331D01*
X74444091Y-101802483D01*
X74450500Y-101742873D01*
X74450499Y-100297128D01*
X74444091Y-100237517D01*
X74442993Y-100234574D01*
X74393797Y-100102671D01*
X74393796Y-100102670D01*
X74393796Y-100102669D01*
X74307546Y-99987454D01*
X74302231Y-99980354D01*
X74304780Y-99978445D01*
X74278804Y-99930873D01*
X74283788Y-99861181D01*
X74289480Y-99848230D01*
X74364379Y-99701235D01*
X74421555Y-99525264D01*
X74450500Y-99342514D01*
X74450500Y-99157486D01*
X74424055Y-98990521D01*
X74433009Y-98921231D01*
X74478005Y-98867779D01*
X74544757Y-98847139D01*
X74612071Y-98865864D01*
X74634209Y-98883445D01*
X74908250Y-99157486D01*
X75501284Y-99750520D01*
X75501286Y-99750521D01*
X75501290Y-99750524D01*
X75638209Y-99829573D01*
X75638216Y-99829577D01*
X75646387Y-99831766D01*
X75666409Y-99843969D01*
X75688399Y-99852119D01*
X75699214Y-99863963D01*
X75706047Y-99868128D01*
X75713408Y-99877024D01*
X75718346Y-99883591D01*
X75719622Y-99886096D01*
X75828379Y-100035787D01*
X75846091Y-100053499D01*
X75851342Y-100060483D01*
X75860672Y-100085340D01*
X75873396Y-100108642D01*
X75872759Y-100117542D01*
X75875895Y-100125896D01*
X75870306Y-100151849D01*
X75868412Y-100178334D01*
X75862683Y-100187248D01*
X75861186Y-100194200D01*
X75852808Y-100202612D01*
X75839911Y-100222681D01*
X75828381Y-100234210D01*
X75828381Y-100234211D01*
X75828379Y-100234213D01*
X75811072Y-100258034D01*
X75719622Y-100383903D01*
X75635620Y-100548764D01*
X75635619Y-100548767D01*
X75578445Y-100724734D01*
X75574320Y-100750781D01*
X75549500Y-100907486D01*
X75549500Y-101092514D01*
X75563972Y-101183889D01*
X75578445Y-101275265D01*
X75635619Y-101451232D01*
X75635620Y-101451235D01*
X75710001Y-101597213D01*
X75719622Y-101616096D01*
X75828379Y-101765787D01*
X75959213Y-101896621D01*
X76108904Y-102005378D01*
X76189763Y-102046577D01*
X76273764Y-102089379D01*
X76273767Y-102089380D01*
X76361750Y-102117967D01*
X76449736Y-102146555D01*
X76632486Y-102175500D01*
X76755903Y-102175500D01*
X76822942Y-102195185D01*
X76868697Y-102247989D01*
X76878641Y-102317147D01*
X76849616Y-102380703D01*
X76843584Y-102387181D01*
X75769102Y-103461661D01*
X75707779Y-103495146D01*
X75638087Y-103490162D01*
X75593740Y-103461661D01*
X75510292Y-103378213D01*
X75510288Y-103378210D01*
X75379185Y-103290609D01*
X75379172Y-103290602D01*
X75233501Y-103230264D01*
X75233489Y-103230261D01*
X75078845Y-103199500D01*
X75078842Y-103199500D01*
X74921158Y-103199500D01*
X74921155Y-103199500D01*
X74766510Y-103230261D01*
X74766498Y-103230264D01*
X74620827Y-103290602D01*
X74620814Y-103290609D01*
X74489711Y-103378210D01*
X74489707Y-103378213D01*
X74378213Y-103489707D01*
X74378210Y-103489711D01*
X74290609Y-103620814D01*
X74290602Y-103620827D01*
X74230264Y-103766498D01*
X74230261Y-103766508D01*
X74199361Y-103921850D01*
X74166976Y-103983761D01*
X74165425Y-103985339D01*
X73287584Y-104863181D01*
X73226261Y-104896666D01*
X73199903Y-104899500D01*
X58426670Y-104899500D01*
X58426654Y-104899499D01*
X58419058Y-104899499D01*
X58260943Y-104899499D01*
X58184579Y-104919961D01*
X58108214Y-104940423D01*
X58108209Y-104940426D01*
X57971290Y-105019475D01*
X57971282Y-105019481D01*
X56534842Y-106455921D01*
X56473519Y-106489406D01*
X56408848Y-106486173D01*
X56394534Y-106481522D01*
X56219995Y-106453878D01*
X56192352Y-106449500D01*
X55987648Y-106449500D01*
X55963329Y-106453351D01*
X55785465Y-106481522D01*
X55590776Y-106544781D01*
X55408386Y-106637715D01*
X55242786Y-106758028D01*
X55098028Y-106902786D01*
X54977715Y-107068386D01*
X54884781Y-107250776D01*
X54821522Y-107445465D01*
X54789500Y-107647648D01*
X50500500Y-107647648D01*
X50500500Y-101147648D01*
X54889500Y-101147648D01*
X54889500Y-101352351D01*
X54921522Y-101554534D01*
X54984781Y-101749223D01*
X55077715Y-101931613D01*
X55198028Y-102097213D01*
X55342786Y-102241971D01*
X55497749Y-102354556D01*
X55508390Y-102362287D01*
X55624607Y-102421503D01*
X55690776Y-102455218D01*
X55690778Y-102455218D01*
X55690781Y-102455220D01*
X55795137Y-102489127D01*
X55885465Y-102518477D01*
X55986557Y-102534488D01*
X56087648Y-102550500D01*
X56087649Y-102550500D01*
X56292351Y-102550500D01*
X56292352Y-102550500D01*
X56494534Y-102518477D01*
X56689219Y-102455220D01*
X56871610Y-102362287D01*
X56964590Y-102294732D01*
X57037213Y-102241971D01*
X57037215Y-102241968D01*
X57037219Y-102241966D01*
X57181966Y-102097219D01*
X57181968Y-102097215D01*
X57181971Y-102097213D01*
X57248692Y-102005378D01*
X57302287Y-101931610D01*
X57395220Y-101749219D01*
X57458477Y-101554534D01*
X57490500Y-101352352D01*
X57490500Y-101147648D01*
X62509500Y-101147648D01*
X62509500Y-101352351D01*
X62541522Y-101554534D01*
X62604781Y-101749223D01*
X62697715Y-101931613D01*
X62818028Y-102097213D01*
X62962786Y-102241971D01*
X63117749Y-102354556D01*
X63128390Y-102362287D01*
X63244607Y-102421503D01*
X63310776Y-102455218D01*
X63310778Y-102455218D01*
X63310781Y-102455220D01*
X63415137Y-102489127D01*
X63505465Y-102518477D01*
X63606557Y-102534488D01*
X63707648Y-102550500D01*
X63707649Y-102550500D01*
X63912351Y-102550500D01*
X63912352Y-102550500D01*
X64114534Y-102518477D01*
X64309219Y-102455220D01*
X64491610Y-102362287D01*
X64584590Y-102294732D01*
X64657213Y-102241971D01*
X64657215Y-102241968D01*
X64657219Y-102241966D01*
X64801966Y-102097219D01*
X64801968Y-102097215D01*
X64801971Y-102097213D01*
X64922284Y-101931614D01*
X64922285Y-101931613D01*
X64922287Y-101931610D01*
X64929117Y-101918204D01*
X64977091Y-101867409D01*
X65039602Y-101850500D01*
X66720943Y-101850500D01*
X67063331Y-101850500D01*
X67063347Y-101850501D01*
X67070943Y-101850501D01*
X67229054Y-101850501D01*
X67229057Y-101850501D01*
X67381785Y-101809577D01*
X67431904Y-101780639D01*
X67518716Y-101730520D01*
X67630520Y-101618716D01*
X67630520Y-101618714D01*
X67640728Y-101608507D01*
X67640729Y-101608504D01*
X69014662Y-100234572D01*
X69075983Y-100201089D01*
X69078150Y-100200638D01*
X69145464Y-100187248D01*
X69233497Y-100169737D01*
X69379179Y-100109394D01*
X69510289Y-100021789D01*
X69621789Y-99910289D01*
X69709394Y-99779179D01*
X69718153Y-99758034D01*
X69729549Y-99730520D01*
X69769737Y-99633497D01*
X69800500Y-99478842D01*
X69800500Y-99321158D01*
X69800500Y-99321155D01*
X69800499Y-99321153D01*
X69769738Y-99166510D01*
X69769738Y-99166508D01*
X69769737Y-99166503D01*
X69769735Y-99166498D01*
X69709397Y-99020827D01*
X69709390Y-99020814D01*
X69621789Y-98889711D01*
X69621786Y-98889707D01*
X69510292Y-98778213D01*
X69510288Y-98778210D01*
X69379185Y-98690609D01*
X69379172Y-98690602D01*
X69233501Y-98630264D01*
X69233489Y-98630261D01*
X69078845Y-98599500D01*
X69078842Y-98599500D01*
X68921158Y-98599500D01*
X68921155Y-98599500D01*
X68766510Y-98630261D01*
X68766498Y-98630264D01*
X68620827Y-98690602D01*
X68620814Y-98690609D01*
X68489711Y-98778210D01*
X68489707Y-98778213D01*
X68378213Y-98889707D01*
X68378210Y-98889711D01*
X68290609Y-99020814D01*
X68290602Y-99020827D01*
X68230264Y-99166498D01*
X68230261Y-99166508D01*
X68199361Y-99321850D01*
X68166976Y-99383761D01*
X68165425Y-99385339D01*
X66937584Y-100613181D01*
X66876261Y-100646666D01*
X66849903Y-100649500D01*
X65039602Y-100649500D01*
X64972563Y-100629815D01*
X64929117Y-100581795D01*
X64922284Y-100568385D01*
X64801971Y-100402786D01*
X64657213Y-100258028D01*
X64491613Y-100137715D01*
X64491612Y-100137714D01*
X64491610Y-100137713D01*
X64434555Y-100108642D01*
X64309223Y-100044781D01*
X64114534Y-99981522D01*
X63939995Y-99953878D01*
X63912352Y-99949500D01*
X63707648Y-99949500D01*
X63683329Y-99953351D01*
X63505465Y-99981522D01*
X63310776Y-100044781D01*
X63128386Y-100137715D01*
X62962786Y-100258028D01*
X62818028Y-100402786D01*
X62697715Y-100568386D01*
X62604781Y-100750776D01*
X62541522Y-100945465D01*
X62509500Y-101147648D01*
X57490500Y-101147648D01*
X57458477Y-100945465D01*
X57395218Y-100750776D01*
X57361503Y-100684607D01*
X57302287Y-100568390D01*
X57288028Y-100548764D01*
X57181971Y-100402786D01*
X57037213Y-100258028D01*
X56871613Y-100137715D01*
X56871612Y-100137714D01*
X56871610Y-100137713D01*
X56814555Y-100108642D01*
X56689223Y-100044781D01*
X56494534Y-99981522D01*
X56319995Y-99953878D01*
X56292352Y-99949500D01*
X56087648Y-99949500D01*
X56063329Y-99953351D01*
X55885465Y-99981522D01*
X55690776Y-100044781D01*
X55508386Y-100137715D01*
X55342786Y-100258028D01*
X55198028Y-100402786D01*
X55077715Y-100568386D01*
X54984781Y-100750776D01*
X54921522Y-100945465D01*
X54889500Y-101147648D01*
X50500500Y-101147648D01*
X50500500Y-97397648D01*
X54889500Y-97397648D01*
X54889500Y-97602351D01*
X54921522Y-97804534D01*
X54984781Y-97999223D01*
X55046366Y-98120089D01*
X55054522Y-98136096D01*
X55077715Y-98181613D01*
X55198028Y-98347213D01*
X55342786Y-98491971D01*
X55490790Y-98599500D01*
X55508390Y-98612287D01*
X55614883Y-98666548D01*
X55690776Y-98705218D01*
X55690778Y-98705218D01*
X55690781Y-98705220D01*
X55795137Y-98739127D01*
X55885465Y-98768477D01*
X55986557Y-98784488D01*
X56087648Y-98800500D01*
X56087649Y-98800500D01*
X56292351Y-98800500D01*
X56292352Y-98800500D01*
X56494534Y-98768477D01*
X56689219Y-98705220D01*
X56871610Y-98612287D01*
X56999714Y-98519215D01*
X57037213Y-98491971D01*
X57037215Y-98491968D01*
X57037219Y-98491966D01*
X57181966Y-98347219D01*
X57181968Y-98347215D01*
X57181971Y-98347213D01*
X57250057Y-98253499D01*
X57302287Y-98181610D01*
X57395220Y-97999219D01*
X57458477Y-97804534D01*
X57490500Y-97602352D01*
X57490500Y-97397648D01*
X57466281Y-97244736D01*
X57458477Y-97195465D01*
X57395218Y-97000776D01*
X57347154Y-96906446D01*
X57302287Y-96818390D01*
X57277668Y-96784504D01*
X57181971Y-96652786D01*
X57037213Y-96508028D01*
X56871613Y-96387715D01*
X56871612Y-96387714D01*
X56871610Y-96387713D01*
X56814653Y-96358691D01*
X56689223Y-96294781D01*
X56494534Y-96231522D01*
X56319995Y-96203878D01*
X56292352Y-96199500D01*
X56087648Y-96199500D01*
X56063329Y-96203351D01*
X55885465Y-96231522D01*
X55690776Y-96294781D01*
X55508386Y-96387715D01*
X55342786Y-96508028D01*
X55198028Y-96652786D01*
X55077715Y-96818386D01*
X54984781Y-97000776D01*
X54921522Y-97195465D01*
X54889500Y-97397648D01*
X50500500Y-97397648D01*
X50500500Y-93647648D01*
X54889500Y-93647648D01*
X54889500Y-93852352D01*
X54893878Y-93879995D01*
X54921522Y-94054534D01*
X54984781Y-94249223D01*
X55036385Y-94350500D01*
X55073320Y-94422989D01*
X55077715Y-94431613D01*
X55198028Y-94597213D01*
X55342786Y-94741971D01*
X55451773Y-94821153D01*
X55508390Y-94862287D01*
X55624607Y-94921503D01*
X55690776Y-94955218D01*
X55690778Y-94955218D01*
X55690781Y-94955220D01*
X55792655Y-94988321D01*
X55885465Y-95018477D01*
X55986557Y-95034488D01*
X56087648Y-95050500D01*
X56087649Y-95050500D01*
X56292351Y-95050500D01*
X56292352Y-95050500D01*
X56494534Y-95018477D01*
X56689219Y-94955220D01*
X56871610Y-94862287D01*
X56982729Y-94781555D01*
X57037213Y-94741971D01*
X57037215Y-94741968D01*
X57037219Y-94741966D01*
X57181966Y-94597219D01*
X57181968Y-94597215D01*
X57181971Y-94597213D01*
X57240754Y-94516303D01*
X57302287Y-94431610D01*
X57395220Y-94249219D01*
X57458477Y-94054534D01*
X57490500Y-93852352D01*
X57490500Y-93647648D01*
X57464580Y-93484000D01*
X57458477Y-93445465D01*
X57395218Y-93250776D01*
X57354263Y-93170398D01*
X57302287Y-93068390D01*
X57289017Y-93050125D01*
X57181971Y-92902786D01*
X57037213Y-92758028D01*
X56871613Y-92637715D01*
X56871612Y-92637714D01*
X56871610Y-92637713D01*
X56814653Y-92608691D01*
X56689223Y-92544781D01*
X56494534Y-92481522D01*
X56317802Y-92453531D01*
X56292352Y-92449500D01*
X56087648Y-92449500D01*
X56063329Y-92453351D01*
X55885465Y-92481522D01*
X55690776Y-92544781D01*
X55508386Y-92637715D01*
X55342786Y-92758028D01*
X55198028Y-92902786D01*
X55077715Y-93068386D01*
X54984781Y-93250776D01*
X54921522Y-93445465D01*
X54898590Y-93590255D01*
X54889500Y-93647648D01*
X50500500Y-93647648D01*
X50500500Y-77374038D01*
X53529500Y-77374038D01*
X53529500Y-77625962D01*
X53558575Y-77809534D01*
X53568910Y-77874785D01*
X53646760Y-78114383D01*
X53725413Y-78268747D01*
X53760162Y-78336946D01*
X53761132Y-78338848D01*
X53909201Y-78542649D01*
X53909205Y-78542654D01*
X54087345Y-78720794D01*
X54087350Y-78720798D01*
X54159857Y-78773477D01*
X54291155Y-78868870D01*
X54434184Y-78941747D01*
X54515616Y-78983239D01*
X54515618Y-78983239D01*
X54515621Y-78983241D01*
X54755215Y-79061090D01*
X55004038Y-79100500D01*
X55004039Y-79100500D01*
X55255961Y-79100500D01*
X55255962Y-79100500D01*
X55504785Y-79061090D01*
X55744379Y-78983241D01*
X55968845Y-78868870D01*
X56172656Y-78720793D01*
X56350793Y-78542656D01*
X56498870Y-78338845D01*
X56613241Y-78114379D01*
X56691090Y-77874785D01*
X56730500Y-77625962D01*
X56730500Y-77374038D01*
X56691090Y-77125215D01*
X56613241Y-76885621D01*
X56613239Y-76885618D01*
X56613239Y-76885616D01*
X56571747Y-76804184D01*
X56498870Y-76661155D01*
X56391250Y-76513028D01*
X56350798Y-76457350D01*
X56350794Y-76457345D01*
X56172654Y-76279205D01*
X56172649Y-76279201D01*
X55968848Y-76131132D01*
X55968847Y-76131131D01*
X55968845Y-76131130D01*
X55898747Y-76095413D01*
X55744383Y-76016760D01*
X55504785Y-75938910D01*
X55255962Y-75899500D01*
X55004038Y-75899500D01*
X54879626Y-75919205D01*
X54755214Y-75938910D01*
X54515616Y-76016760D01*
X54291151Y-76131132D01*
X54087350Y-76279201D01*
X54087345Y-76279205D01*
X53909205Y-76457345D01*
X53909201Y-76457350D01*
X53761132Y-76661151D01*
X53646760Y-76885616D01*
X53568910Y-77125214D01*
X53568910Y-77125215D01*
X53529500Y-77374038D01*
X50500500Y-77374038D01*
X50500500Y-62374038D01*
X53479500Y-62374038D01*
X53479500Y-62625962D01*
X53518910Y-62874785D01*
X53596760Y-63114383D01*
X53675413Y-63268747D01*
X53710162Y-63336946D01*
X53711132Y-63338848D01*
X53859201Y-63542649D01*
X53859205Y-63542654D01*
X54037345Y-63720794D01*
X54037350Y-63720798D01*
X54215117Y-63849952D01*
X54241155Y-63868870D01*
X54384184Y-63941747D01*
X54465616Y-63983239D01*
X54465618Y-63983239D01*
X54465621Y-63983241D01*
X54705215Y-64061090D01*
X54954038Y-64100500D01*
X54954039Y-64100500D01*
X55205961Y-64100500D01*
X55205962Y-64100500D01*
X55454785Y-64061090D01*
X55694379Y-63983241D01*
X55918845Y-63868870D01*
X56122656Y-63720793D01*
X56300793Y-63542656D01*
X56448870Y-63338845D01*
X56563241Y-63114379D01*
X56641090Y-62874785D01*
X56680500Y-62625962D01*
X56680500Y-62374038D01*
X61779500Y-62374038D01*
X61779500Y-62625962D01*
X61818910Y-62874785D01*
X61896760Y-63114383D01*
X61975413Y-63268747D01*
X62010162Y-63336946D01*
X62011132Y-63338848D01*
X62159201Y-63542649D01*
X62159205Y-63542654D01*
X62337345Y-63720794D01*
X62337350Y-63720798D01*
X62515117Y-63849952D01*
X62541155Y-63868870D01*
X62684184Y-63941747D01*
X62765616Y-63983239D01*
X62765618Y-63983239D01*
X62765621Y-63983241D01*
X63005215Y-64061090D01*
X63254038Y-64100500D01*
X63254039Y-64100500D01*
X63505961Y-64100500D01*
X63505962Y-64100500D01*
X63754785Y-64061090D01*
X63994379Y-63983241D01*
X64218845Y-63868870D01*
X64422656Y-63720793D01*
X64600793Y-63542656D01*
X64748870Y-63338845D01*
X64748877Y-63338829D01*
X64749760Y-63337390D01*
X64750250Y-63336946D01*
X64751734Y-63334904D01*
X64752162Y-63335215D01*
X64801563Y-63290505D01*
X64870491Y-63279070D01*
X64934659Y-63306714D01*
X64973695Y-63364663D01*
X64979500Y-63402159D01*
X64979500Y-63547869D01*
X64979501Y-63547876D01*
X64985908Y-63607483D01*
X65036202Y-63742328D01*
X65036206Y-63742335D01*
X65122452Y-63857544D01*
X65122455Y-63857547D01*
X65237664Y-63943793D01*
X65237671Y-63943797D01*
X65372517Y-63994091D01*
X65372516Y-63994091D01*
X65379444Y-63994835D01*
X65432127Y-64000500D01*
X67527872Y-64000499D01*
X67587483Y-63994091D01*
X67722331Y-63943796D01*
X67837546Y-63857546D01*
X67923796Y-63742331D01*
X67974091Y-63607483D01*
X67980500Y-63547873D01*
X67980499Y-62374038D01*
X68479500Y-62374038D01*
X68479500Y-62625962D01*
X68518910Y-62874785D01*
X68596760Y-63114383D01*
X68675413Y-63268747D01*
X68710162Y-63336946D01*
X68711132Y-63338848D01*
X68859201Y-63542649D01*
X68859205Y-63542654D01*
X69037345Y-63720794D01*
X69037350Y-63720798D01*
X69215117Y-63849952D01*
X69241155Y-63868870D01*
X69384184Y-63941747D01*
X69465616Y-63983239D01*
X69465618Y-63983239D01*
X69465621Y-63983241D01*
X69705215Y-64061090D01*
X69954038Y-64100500D01*
X69954039Y-64100500D01*
X70205961Y-64100500D01*
X70205962Y-64100500D01*
X70454785Y-64061090D01*
X70694379Y-63983241D01*
X70918845Y-63868870D01*
X71122656Y-63720793D01*
X71300793Y-63542656D01*
X71448870Y-63338845D01*
X71563241Y-63114379D01*
X71641090Y-62874785D01*
X71680500Y-62625962D01*
X71680500Y-62374038D01*
X76779500Y-62374038D01*
X76779500Y-62625962D01*
X76818910Y-62874785D01*
X76896760Y-63114383D01*
X76975413Y-63268747D01*
X77010162Y-63336946D01*
X77011132Y-63338848D01*
X77159201Y-63542649D01*
X77159205Y-63542654D01*
X77337345Y-63720794D01*
X77337350Y-63720798D01*
X77515117Y-63849952D01*
X77541155Y-63868870D01*
X77684184Y-63941747D01*
X77765616Y-63983239D01*
X77765618Y-63983239D01*
X77765621Y-63983241D01*
X78005215Y-64061090D01*
X78254038Y-64100500D01*
X78254039Y-64100500D01*
X78505961Y-64100500D01*
X78505962Y-64100500D01*
X78754785Y-64061090D01*
X78994379Y-63983241D01*
X79218845Y-63868870D01*
X79422656Y-63720793D01*
X79600793Y-63542656D01*
X79748870Y-63338845D01*
X79748877Y-63338829D01*
X79749760Y-63337390D01*
X79750250Y-63336946D01*
X79751734Y-63334904D01*
X79752162Y-63335215D01*
X79801563Y-63290505D01*
X79870491Y-63279070D01*
X79934659Y-63306714D01*
X79973695Y-63364663D01*
X79979500Y-63402159D01*
X79979500Y-63547869D01*
X79979501Y-63547876D01*
X79985908Y-63607483D01*
X80036202Y-63742328D01*
X80036206Y-63742335D01*
X80122452Y-63857544D01*
X80122455Y-63857547D01*
X80237664Y-63943793D01*
X80237671Y-63943797D01*
X80372517Y-63994091D01*
X80372516Y-63994091D01*
X80379444Y-63994835D01*
X80432127Y-64000500D01*
X82527872Y-64000499D01*
X82587483Y-63994091D01*
X82722331Y-63943796D01*
X82837546Y-63857546D01*
X82923796Y-63742331D01*
X82974091Y-63607483D01*
X82980500Y-63547873D01*
X82980499Y-62374038D01*
X83479500Y-62374038D01*
X83479500Y-62625962D01*
X83518910Y-62874785D01*
X83596760Y-63114383D01*
X83675413Y-63268747D01*
X83710162Y-63336946D01*
X83711132Y-63338848D01*
X83859201Y-63542649D01*
X83859205Y-63542654D01*
X84037345Y-63720794D01*
X84037350Y-63720798D01*
X84215117Y-63849952D01*
X84241155Y-63868870D01*
X84384184Y-63941747D01*
X84465616Y-63983239D01*
X84465618Y-63983239D01*
X84465621Y-63983241D01*
X84705215Y-64061090D01*
X84954038Y-64100500D01*
X84954039Y-64100500D01*
X85205961Y-64100500D01*
X85205962Y-64100500D01*
X85454785Y-64061090D01*
X85694379Y-63983241D01*
X85918845Y-63868870D01*
X86122656Y-63720793D01*
X86300793Y-63542656D01*
X86448870Y-63338845D01*
X86563241Y-63114379D01*
X86641090Y-62874785D01*
X86680500Y-62625962D01*
X86680500Y-62374038D01*
X91779500Y-62374038D01*
X91779500Y-62625962D01*
X91818910Y-62874785D01*
X91896760Y-63114383D01*
X91975413Y-63268747D01*
X92010162Y-63336946D01*
X92011132Y-63338848D01*
X92159201Y-63542649D01*
X92159205Y-63542654D01*
X92337345Y-63720794D01*
X92337350Y-63720798D01*
X92515117Y-63849952D01*
X92541155Y-63868870D01*
X92684184Y-63941747D01*
X92765616Y-63983239D01*
X92765618Y-63983239D01*
X92765621Y-63983241D01*
X93005215Y-64061090D01*
X93254038Y-64100500D01*
X93254039Y-64100500D01*
X93505961Y-64100500D01*
X93505962Y-64100500D01*
X93754785Y-64061090D01*
X93994379Y-63983241D01*
X94218845Y-63868870D01*
X94422656Y-63720793D01*
X94600793Y-63542656D01*
X94748870Y-63338845D01*
X94748877Y-63338829D01*
X94749760Y-63337390D01*
X94750250Y-63336946D01*
X94751734Y-63334904D01*
X94752162Y-63335215D01*
X94801563Y-63290505D01*
X94870491Y-63279070D01*
X94934659Y-63306714D01*
X94973695Y-63364663D01*
X94979500Y-63402159D01*
X94979500Y-63547869D01*
X94979501Y-63547876D01*
X94985908Y-63607483D01*
X95036202Y-63742328D01*
X95036206Y-63742335D01*
X95122452Y-63857544D01*
X95122455Y-63857547D01*
X95237664Y-63943793D01*
X95237671Y-63943797D01*
X95372517Y-63994091D01*
X95372516Y-63994091D01*
X95379444Y-63994835D01*
X95432127Y-64000500D01*
X97527872Y-64000499D01*
X97587483Y-63994091D01*
X97722331Y-63943796D01*
X97837546Y-63857546D01*
X97923796Y-63742331D01*
X97974091Y-63607483D01*
X97980500Y-63547873D01*
X97980499Y-61452128D01*
X97974091Y-61392517D01*
X97931828Y-61279205D01*
X97923797Y-61257671D01*
X97923793Y-61257664D01*
X97837547Y-61142455D01*
X97837544Y-61142452D01*
X97722335Y-61056206D01*
X97722328Y-61056202D01*
X97587482Y-61005908D01*
X97587483Y-61005908D01*
X97527883Y-60999501D01*
X97527881Y-60999500D01*
X97527873Y-60999500D01*
X97527864Y-60999500D01*
X95432129Y-60999500D01*
X95432123Y-60999501D01*
X95372516Y-61005908D01*
X95237671Y-61056202D01*
X95237664Y-61056206D01*
X95122455Y-61142452D01*
X95122452Y-61142455D01*
X95036206Y-61257664D01*
X95036202Y-61257671D01*
X94985908Y-61392517D01*
X94979501Y-61452116D01*
X94979501Y-61452123D01*
X94979500Y-61452135D01*
X94979500Y-61597837D01*
X94959815Y-61664876D01*
X94907011Y-61710631D01*
X94837853Y-61720575D01*
X94774297Y-61691550D01*
X94751815Y-61665036D01*
X94751734Y-61665096D01*
X94750947Y-61664014D01*
X94749776Y-61662632D01*
X94748871Y-61661155D01*
X94600798Y-61457350D01*
X94600794Y-61457345D01*
X94422654Y-61279205D01*
X94422649Y-61279201D01*
X94218848Y-61131132D01*
X94218847Y-61131131D01*
X94218845Y-61131130D01*
X94148747Y-61095413D01*
X93994383Y-61016760D01*
X93754785Y-60938910D01*
X93505962Y-60899500D01*
X93254038Y-60899500D01*
X93129626Y-60919205D01*
X93005214Y-60938910D01*
X92765616Y-61016760D01*
X92541151Y-61131132D01*
X92337350Y-61279201D01*
X92337345Y-61279205D01*
X92159205Y-61457345D01*
X92159201Y-61457350D01*
X92011132Y-61661151D01*
X91896760Y-61885616D01*
X91818910Y-62125214D01*
X91818910Y-62125215D01*
X91779500Y-62374038D01*
X86680500Y-62374038D01*
X86641090Y-62125215D01*
X86563241Y-61885621D01*
X86563239Y-61885618D01*
X86563239Y-61885616D01*
X86521747Y-61804184D01*
X86448870Y-61661155D01*
X86402867Y-61597837D01*
X86300798Y-61457350D01*
X86300794Y-61457345D01*
X86122654Y-61279205D01*
X86122649Y-61279201D01*
X85918848Y-61131132D01*
X85918847Y-61131131D01*
X85918845Y-61131130D01*
X85848747Y-61095413D01*
X85694383Y-61016760D01*
X85454785Y-60938910D01*
X85205962Y-60899500D01*
X84954038Y-60899500D01*
X84829626Y-60919205D01*
X84705214Y-60938910D01*
X84465616Y-61016760D01*
X84241151Y-61131132D01*
X84037350Y-61279201D01*
X84037345Y-61279205D01*
X83859205Y-61457345D01*
X83859201Y-61457350D01*
X83711132Y-61661151D01*
X83596760Y-61885616D01*
X83518910Y-62125214D01*
X83518910Y-62125215D01*
X83479500Y-62374038D01*
X82980499Y-62374038D01*
X82980499Y-61452128D01*
X82974091Y-61392517D01*
X82931828Y-61279205D01*
X82923797Y-61257671D01*
X82923793Y-61257664D01*
X82837547Y-61142455D01*
X82837544Y-61142452D01*
X82722335Y-61056206D01*
X82722328Y-61056202D01*
X82587482Y-61005908D01*
X82587483Y-61005908D01*
X82527883Y-60999501D01*
X82527881Y-60999500D01*
X82527873Y-60999500D01*
X82527864Y-60999500D01*
X80432129Y-60999500D01*
X80432123Y-60999501D01*
X80372516Y-61005908D01*
X80237671Y-61056202D01*
X80237664Y-61056206D01*
X80122455Y-61142452D01*
X80122452Y-61142455D01*
X80036206Y-61257664D01*
X80036202Y-61257671D01*
X79985908Y-61392517D01*
X79979501Y-61452116D01*
X79979501Y-61452123D01*
X79979500Y-61452135D01*
X79979500Y-61597837D01*
X79959815Y-61664876D01*
X79907011Y-61710631D01*
X79837853Y-61720575D01*
X79774297Y-61691550D01*
X79751815Y-61665036D01*
X79751734Y-61665096D01*
X79750947Y-61664014D01*
X79749776Y-61662632D01*
X79748871Y-61661155D01*
X79600798Y-61457350D01*
X79600794Y-61457345D01*
X79422654Y-61279205D01*
X79422649Y-61279201D01*
X79218848Y-61131132D01*
X79218847Y-61131131D01*
X79218845Y-61131130D01*
X79148747Y-61095413D01*
X78994383Y-61016760D01*
X78754785Y-60938910D01*
X78505962Y-60899500D01*
X78254038Y-60899500D01*
X78129626Y-60919205D01*
X78005214Y-60938910D01*
X77765616Y-61016760D01*
X77541151Y-61131132D01*
X77337350Y-61279201D01*
X77337345Y-61279205D01*
X77159205Y-61457345D01*
X77159201Y-61457350D01*
X77011132Y-61661151D01*
X76896760Y-61885616D01*
X76818910Y-62125214D01*
X76818910Y-62125215D01*
X76779500Y-62374038D01*
X71680500Y-62374038D01*
X71641090Y-62125215D01*
X71563241Y-61885621D01*
X71563239Y-61885618D01*
X71563239Y-61885616D01*
X71521747Y-61804184D01*
X71448870Y-61661155D01*
X71402867Y-61597837D01*
X71300798Y-61457350D01*
X71300794Y-61457345D01*
X71122654Y-61279205D01*
X71122649Y-61279201D01*
X70918848Y-61131132D01*
X70918847Y-61131131D01*
X70918845Y-61131130D01*
X70848747Y-61095413D01*
X70694383Y-61016760D01*
X70454785Y-60938910D01*
X70205962Y-60899500D01*
X69954038Y-60899500D01*
X69829626Y-60919205D01*
X69705214Y-60938910D01*
X69465616Y-61016760D01*
X69241151Y-61131132D01*
X69037350Y-61279201D01*
X69037345Y-61279205D01*
X68859205Y-61457345D01*
X68859201Y-61457350D01*
X68711132Y-61661151D01*
X68596760Y-61885616D01*
X68518910Y-62125214D01*
X68518910Y-62125215D01*
X68479500Y-62374038D01*
X67980499Y-62374038D01*
X67980499Y-61452128D01*
X67974091Y-61392517D01*
X67931828Y-61279205D01*
X67923797Y-61257671D01*
X67923793Y-61257664D01*
X67837547Y-61142455D01*
X67837544Y-61142452D01*
X67722335Y-61056206D01*
X67722328Y-61056202D01*
X67587482Y-61005908D01*
X67587483Y-61005908D01*
X67527883Y-60999501D01*
X67527881Y-60999500D01*
X67527873Y-60999500D01*
X67527864Y-60999500D01*
X65432129Y-60999500D01*
X65432123Y-60999501D01*
X65372516Y-61005908D01*
X65237671Y-61056202D01*
X65237664Y-61056206D01*
X65122455Y-61142452D01*
X65122452Y-61142455D01*
X65036206Y-61257664D01*
X65036202Y-61257671D01*
X64985908Y-61392517D01*
X64979501Y-61452116D01*
X64979501Y-61452123D01*
X64979500Y-61452135D01*
X64979500Y-61597837D01*
X64959815Y-61664876D01*
X64907011Y-61710631D01*
X64837853Y-61720575D01*
X64774297Y-61691550D01*
X64751815Y-61665036D01*
X64751734Y-61665096D01*
X64750947Y-61664014D01*
X64749776Y-61662632D01*
X64748871Y-61661155D01*
X64600798Y-61457350D01*
X64600794Y-61457345D01*
X64422654Y-61279205D01*
X64422649Y-61279201D01*
X64218848Y-61131132D01*
X64218847Y-61131131D01*
X64218845Y-61131130D01*
X64148747Y-61095413D01*
X63994383Y-61016760D01*
X63754785Y-60938910D01*
X63505962Y-60899500D01*
X63254038Y-60899500D01*
X63129626Y-60919205D01*
X63005214Y-60938910D01*
X62765616Y-61016760D01*
X62541151Y-61131132D01*
X62337350Y-61279201D01*
X62337345Y-61279205D01*
X62159205Y-61457345D01*
X62159201Y-61457350D01*
X62011132Y-61661151D01*
X61896760Y-61885616D01*
X61818910Y-62125214D01*
X61818910Y-62125215D01*
X61779500Y-62374038D01*
X56680500Y-62374038D01*
X56641090Y-62125215D01*
X56563241Y-61885621D01*
X56563239Y-61885618D01*
X56563239Y-61885616D01*
X56521747Y-61804184D01*
X56448870Y-61661155D01*
X56402867Y-61597837D01*
X56300798Y-61457350D01*
X56300794Y-61457345D01*
X56122654Y-61279205D01*
X56122649Y-61279201D01*
X55918848Y-61131132D01*
X55918847Y-61131131D01*
X55918845Y-61131130D01*
X55848747Y-61095413D01*
X55694383Y-61016760D01*
X55454785Y-60938910D01*
X55205962Y-60899500D01*
X54954038Y-60899500D01*
X54829626Y-60919205D01*
X54705214Y-60938910D01*
X54465616Y-61016760D01*
X54241151Y-61131132D01*
X54037350Y-61279201D01*
X54037345Y-61279205D01*
X53859205Y-61457345D01*
X53859201Y-61457350D01*
X53711132Y-61661151D01*
X53596760Y-61885616D01*
X53518910Y-62125214D01*
X53518910Y-62125215D01*
X53479500Y-62374038D01*
X50500500Y-62374038D01*
X50500500Y-53003733D01*
X50500726Y-52996246D01*
X50518271Y-52706205D01*
X50520076Y-52691340D01*
X50571780Y-52409201D01*
X50575364Y-52394663D01*
X50652096Y-52148422D01*
X50660696Y-52120822D01*
X50665998Y-52106841D01*
X50783731Y-51845249D01*
X50790676Y-51832016D01*
X50939080Y-51586526D01*
X50947567Y-51574230D01*
X51124480Y-51348417D01*
X51134395Y-51337226D01*
X51337226Y-51134395D01*
X51348417Y-51124480D01*
X51574230Y-50947567D01*
X51586526Y-50939080D01*
X51832016Y-50790676D01*
X51845249Y-50783731D01*
X52106841Y-50665998D01*
X52120822Y-50660696D01*
X52394668Y-50575362D01*
X52409197Y-50571780D01*
X52691344Y-50520075D01*
X52706201Y-50518271D01*
X52996264Y-50500726D01*
X53003751Y-50500500D01*
X53065892Y-50500500D01*
X96934108Y-50500500D01*
X96996249Y-50500500D01*
X97003736Y-50500726D01*
G37*
%TD.AperFunction*%
%TD*%
M02*
