M48
; DRILL file {KiCad 9.0.2} date 2025-07-31T20:55:57+1000
; FORMAT={-:-/ absolute / metric / decimal}
; #@! TF.CreationDate,2025-07-31T20:55:57+10:00
; #@! TF.GenerationSoftware,Kicad,Pcbnew,9.0.2
; #@! TF.FileFunction,Plated,1,2,PTH
FMAT,2
METRIC
; #@! TA.AperFunction,Plated,PTH,ViaDrill
T1C0.300
; #@! TA.AperFunction,Plated,PTH,ComponentDrill
T2C0.600
; #@! TA.AperFunction,Plated,PTH,ComponentDrill
T3C0.750
; #@! TA.AperFunction,Plated,PTH,ComponentDrill
T4C0.800
; #@! TA.AperFunction,Plated,PTH,ComponentDrill
T5C0.900
; #@! TA.AperFunction,Plated,PTH,ComponentDrill
T6C1.000
; #@! TA.AperFunction,Plated,PTH,ComponentDrill
T7C1.100
; #@! TA.AperFunction,Plated,PTH,ComponentDrill
T8C1.200
%
G90
G05
T1
X127.35Y-68.65
X138.1Y-59.1
X139.6Y-57.6
X140.9Y-114.6
X141.7Y-115.1
X143.9Y-53.5
X143.9Y-55.3
X148.3Y-116.15
X148.3Y-123.6
X149.2Y-116.4
X149.3Y-72.9
X149.75Y-83.4
X150.0Y-52.7
X150.0Y-85.3
X151.05Y-127.3
X151.4Y-82.5
X152.6Y-116.9
X154.3Y-81.0
X156.034Y-84.3
X158.7Y-89.0
X159.15Y-92.6
X160.0Y-102.5
X160.3Y-87.9
X160.3Y-90.35
X160.5Y-65.8
X160.7Y-104.1
X166.7Y-128.2
X168.0Y-91.4
X168.3Y-112.5
X169.2Y-91.8
X170.0Y-92.5
X170.75Y-93.1
T2
X140.1Y-144.5
X141.9Y-144.5
X158.1Y-144.5
X159.9Y-144.5
X168.1Y-78.8
X169.9Y-78.8
T3
X127.1Y-96.39
X128.83Y-96.39
X130.0Y-143.55
X130.6Y-96.39
X131.23Y-92.36
X132.0Y-143.55
X133.0Y-92.36
X134.0Y-143.55
X134.73Y-92.36
X166.0Y-143.55
X168.0Y-143.55
X170.0Y-143.55
T4
X126.5Y-53.869
X126.5Y-56.409
X129.0Y-78.46
X129.0Y-81.0
X129.0Y-103.59
X129.0Y-106.13
X129.25Y-53.869
X129.25Y-56.409
X131.75Y-78.46
X131.75Y-81.0
X131.75Y-103.59
X131.75Y-106.13
X132.0Y-53.869
X132.0Y-56.409
X134.5Y-78.46
X134.5Y-81.0
X134.5Y-103.59
X134.5Y-106.13
X134.75Y-53.869
X134.75Y-56.409
X137.7Y-76.75
X137.7Y-80.0
X137.7Y-92.75
X137.7Y-96.0
X137.7Y-99.25
X137.7Y-102.5
X137.7Y-105.75
X138.59Y-52.75
X138.59Y-55.5
X141.13Y-52.75
X141.13Y-55.5
X141.6Y-84.75
X141.6Y-87.25
X142.0Y-69.95
X142.0Y-72.45
X142.7Y-76.75
X142.7Y-80.0
X142.7Y-92.75
X142.7Y-96.0
X142.7Y-99.25
X142.7Y-102.5
X142.7Y-105.75
X142.75Y-137.5
X142.75Y-140.0
X143.119Y-119.75
X143.119Y-122.5
X143.119Y-125.25
X145.659Y-119.75
X145.659Y-122.5
X145.659Y-125.25
X146.18Y-71.88
X146.18Y-74.42
X146.18Y-76.96
X146.18Y-79.5
X146.19Y-59.38
X146.19Y-61.92
X146.19Y-64.46
X146.19Y-67.0
X146.19Y-83.97
X146.19Y-86.51
X146.19Y-89.05
X146.19Y-91.59
X146.19Y-94.13
X146.19Y-96.67
X146.19Y-99.21
X146.19Y-101.75
X146.19Y-106.75
X146.19Y-109.29
X146.19Y-111.83
X146.19Y-114.37
X146.75Y-51.319
X146.75Y-56.319
X150.0Y-51.319
X150.0Y-56.319
X153.25Y-51.319
X153.25Y-56.319
X153.8Y-71.88
X153.8Y-74.42
X153.8Y-76.96
X153.8Y-79.5
X153.81Y-59.38
X153.81Y-61.92
X153.81Y-64.46
X153.81Y-67.0
X153.81Y-83.97
X153.81Y-86.51
X153.81Y-89.05
X153.81Y-91.59
X153.81Y-94.13
X153.81Y-96.67
X153.81Y-99.21
X153.81Y-101.75
X153.81Y-106.75
X153.81Y-109.29
X153.81Y-111.83
X153.81Y-114.37
X154.34Y-119.75
X154.34Y-122.5
X154.34Y-125.25
X156.88Y-119.75
X156.88Y-122.5
X156.88Y-125.25
X157.25Y-70.0
X157.25Y-73.25
X157.25Y-76.5
X157.25Y-79.75
X157.25Y-83.0
X157.25Y-86.25
X157.25Y-89.5
X157.25Y-92.75
X157.25Y-96.0
X157.25Y-99.25
X157.25Y-102.5
X157.25Y-105.75
X158.869Y-52.75
X158.869Y-55.5
X161.409Y-52.75
X161.409Y-55.5
X162.25Y-70.0
X162.25Y-73.25
X162.25Y-76.5
X162.25Y-79.75
X162.25Y-83.0
X162.25Y-86.25
X162.25Y-89.5
X162.25Y-92.75
X162.25Y-96.0
X162.25Y-99.25
X162.25Y-102.5
X162.25Y-105.75
X165.25Y-53.869
X165.25Y-56.409
X165.25Y-71.59
X165.25Y-74.13
X165.25Y-86.09
X165.25Y-88.63
X165.25Y-94.84
X165.25Y-97.38
X165.25Y-103.59
X165.25Y-106.13
X168.0Y-71.59
X168.0Y-74.13
X168.0Y-53.869
X168.0Y-56.409
X168.0Y-86.09
X168.0Y-88.63
X168.0Y-94.84
X168.0Y-97.38
X168.0Y-103.59
X168.0Y-106.13
X170.75Y-71.59
X170.75Y-74.13
X170.75Y-53.869
X170.75Y-56.409
X170.75Y-86.09
X170.75Y-88.63
X170.75Y-94.84
X170.75Y-97.38
X170.75Y-103.59
X170.75Y-106.13
X173.5Y-53.869
X173.5Y-56.409
X173.5Y-71.59
X173.5Y-74.13
X173.5Y-86.09
X173.5Y-88.63
X173.5Y-94.84
X173.5Y-97.38
T5
X164.19Y-139.25
X171.81Y-139.25
T6
X128.0Y-112.5
X128.0Y-115.0
X128.0Y-117.5
X128.0Y-127.5
X128.0Y-130.0
X128.0Y-132.5
X172.0Y-112.5
X172.0Y-115.0
X172.0Y-117.5
X172.0Y-127.5
X172.0Y-130.0
X172.0Y-132.5
T7
X147.46Y-129.25
X150.0Y-129.25
X152.54Y-129.25
T8
X128.52Y-62.5
X131.62Y-62.5
X139.92Y-62.5
X160.08Y-62.5
X168.38Y-62.5
X171.48Y-62.5
T2
G00X149.55Y-120.0
M15
G01X150.45Y-120.0
M16
G05
G00X149.55Y-122.5
M15
G01X150.45Y-122.5
M16
G05
G00X149.55Y-125.0
M15
G01X150.45Y-125.0
M16
G05
M30
