%TF.GenerationSoftware,KiCad,Pcbnew,9.0.2*%
%TF.CreationDate,2025-07-31T20:58:52+10:00*%
%TF.ProjectId,Chorus,43686f72-7573-42e6-9b69-6361645f7063,1-0*%
%TF.SameCoordinates,Original*%
%TF.FileFunction,Legend,Top*%
%TF.FilePolarity,Positive*%
%FSLAX46Y46*%
G04 Gerber Fmt 4.6, Leading zero omitted, Abs format (unit mm)*
G04 Created by KiCad (PCBNEW 9.0.2) date 2025-07-31 20:58:52*
%MOMM*%
%LPD*%
G01*
G04 APERTURE LIST*
G04 Aperture macros list*
%AMRoundRect*
0 Rectangle with rounded corners*
0 $1 Rounding radius*
0 $2 $3 $4 $5 $6 $7 $8 $9 X,Y pos of 4 corners*
0 Add a 4 corners polygon primitive as box body*
4,1,4,$2,$3,$4,$5,$6,$7,$8,$9,$2,$3,0*
0 Add four circle primitives for the rounded corners*
1,1,$1+$1,$2,$3*
1,1,$1+$1,$4,$5*
1,1,$1+$1,$6,$7*
1,1,$1+$1,$8,$9*
0 Add four rect primitives between the rounded corners*
20,1,$1+$1,$2,$3,$4,$5,0*
20,1,$1+$1,$4,$5,$6,$7,0*
20,1,$1+$1,$6,$7,$8,$9,0*
20,1,$1+$1,$8,$9,$2,$3,0*%
%AMFreePoly0*
4,1,49,4.512206,8.544944,4.602918,8.544944,4.804799,8.504787,4.994967,8.426017,5.166113,8.311661,5.311661,8.166113,5.426017,7.994967,5.504787,7.804799,5.544944,7.602918,5.544944,7.512205,5.550000,7.500000,5.550000,-7.250000,5.544944,-7.262205,5.544944,-7.352918,5.504787,-7.554799,5.426017,-7.744967,5.311661,-7.916113,5.166113,-8.061661,4.994967,-8.176017,4.804799,-8.254787,
4.602918,-8.294944,4.512206,-8.294944,4.500000,-8.300000,-4.500000,-8.300000,-4.512206,-8.294944,-4.602918,-8.294944,-4.804799,-8.254787,-4.994967,-8.176017,-5.166113,-8.061661,-5.311661,-7.916113,-5.426017,-7.744967,-5.504787,-7.554799,-5.544944,-7.352918,-5.544944,-7.262205,-5.550000,-7.250000,-5.550000,7.500000,-5.544944,7.512205,-5.544944,7.602918,-5.504787,7.804799,-5.426017,7.994967,
-5.311661,8.166113,-5.166113,8.311661,-4.994967,8.426017,-4.804799,8.504787,-4.602918,8.544944,-4.512206,8.544944,-4.500000,8.550000,4.500000,8.550000,4.512206,8.544944,4.512206,8.544944,$1*%
G04 Aperture macros list end*
%ADD10C,0.250000*%
%ADD11C,0.150000*%
%ADD12C,0.120000*%
%ADD13C,0.200000*%
%ADD14C,0.100000*%
%ADD15C,0.350000*%
%ADD16C,0.000100*%
%ADD17C,0.010050*%
%ADD18C,1.600000*%
%ADD19R,1.350000X1.900000*%
%ADD20O,1.350000X1.900000*%
%ADD21R,2.000000X2.000000*%
%ADD22C,2.200000*%
%ADD23R,1.800000X1.800000*%
%ADD24C,1.800000*%
%ADD25RoundRect,0.250000X-0.550000X-0.550000X0.550000X-0.550000X0.550000X0.550000X-0.550000X0.550000X0*%
%ADD26C,3.500000*%
%ADD27FreePoly0,180.000000*%
%ADD28R,1.905000X2.000000*%
%ADD29O,1.905000X2.000000*%
%ADD30RoundRect,0.291666X-0.408334X-0.708334X0.408334X-0.708334X0.408334X0.708334X-0.408334X0.708334X0*%
%ADD31O,1.400000X2.000000*%
%ADD32R,2.400000X1.600000*%
%ADD33O,2.400000X1.600000*%
%ADD34C,4.000000*%
%ADD35O,1.800000X1.800000*%
%ADD36RoundRect,0.270833X0.379167X0.379167X-0.379167X0.379167X-0.379167X-0.379167X0.379167X-0.379167X0*%
%ADD37C,1.300000*%
%ADD38O,2.500000X1.700000*%
%ADD39RoundRect,0.250000X0.550000X0.550000X-0.550000X0.550000X-0.550000X-0.550000X0.550000X-0.550000X0*%
%ADD40RoundRect,0.250000X0.550000X-0.550000X0.550000X0.550000X-0.550000X0.550000X-0.550000X-0.550000X0*%
%ADD41RoundRect,0.250000X-0.950000X-0.550000X0.950000X-0.550000X0.950000X0.550000X-0.950000X0.550000X0*%
G04 APERTURE END LIST*
D10*
X127981428Y-124270928D02*
X127481428Y-123556642D01*
X127124285Y-124270928D02*
X127124285Y-122770928D01*
X127124285Y-122770928D02*
X127695714Y-122770928D01*
X127695714Y-122770928D02*
X127838571Y-122842357D01*
X127838571Y-122842357D02*
X127910000Y-122913785D01*
X127910000Y-122913785D02*
X127981428Y-123056642D01*
X127981428Y-123056642D02*
X127981428Y-123270928D01*
X127981428Y-123270928D02*
X127910000Y-123413785D01*
X127910000Y-123413785D02*
X127838571Y-123485214D01*
X127838571Y-123485214D02*
X127695714Y-123556642D01*
X127695714Y-123556642D02*
X127124285Y-123556642D01*
X128552857Y-123842357D02*
X129267143Y-123842357D01*
X128410000Y-124270928D02*
X128910000Y-122770928D01*
X128910000Y-122770928D02*
X129410000Y-124270928D01*
X129695714Y-122770928D02*
X130552857Y-122770928D01*
X130124285Y-124270928D02*
X130124285Y-122770928D01*
X131052856Y-123485214D02*
X131552856Y-123485214D01*
X131767142Y-124270928D02*
X131052856Y-124270928D01*
X131052856Y-124270928D02*
X131052856Y-122770928D01*
X131052856Y-122770928D02*
X131767142Y-122770928D01*
X127464285Y-60180928D02*
X127464285Y-58680928D01*
X128178571Y-60180928D02*
X128178571Y-58680928D01*
X128178571Y-58680928D02*
X129035714Y-60180928D01*
X129035714Y-60180928D02*
X129035714Y-58680928D01*
X127292142Y-108769215D02*
X126792142Y-108769215D01*
X126792142Y-109554929D02*
X126792142Y-108054929D01*
X126792142Y-108054929D02*
X127506428Y-108054929D01*
X128077856Y-108769215D02*
X128577856Y-108769215D01*
X128792142Y-109554929D02*
X128077856Y-109554929D01*
X128077856Y-109554929D02*
X128077856Y-108054929D01*
X128077856Y-108054929D02*
X128792142Y-108054929D01*
X129434999Y-108769215D02*
X129934999Y-108769215D01*
X130149285Y-109554929D02*
X129434999Y-109554929D01*
X129434999Y-109554929D02*
X129434999Y-108054929D01*
X129434999Y-108054929D02*
X130149285Y-108054929D01*
X130792142Y-109554929D02*
X130792142Y-108054929D01*
X130792142Y-108054929D02*
X131149285Y-108054929D01*
X131149285Y-108054929D02*
X131363571Y-108126358D01*
X131363571Y-108126358D02*
X131506428Y-108269215D01*
X131506428Y-108269215D02*
X131577857Y-108412072D01*
X131577857Y-108412072D02*
X131649285Y-108697786D01*
X131649285Y-108697786D02*
X131649285Y-108912072D01*
X131649285Y-108912072D02*
X131577857Y-109197786D01*
X131577857Y-109197786D02*
X131506428Y-109340643D01*
X131506428Y-109340643D02*
X131363571Y-109483501D01*
X131363571Y-109483501D02*
X131149285Y-109554929D01*
X131149285Y-109554929D02*
X130792142Y-109554929D01*
X170750000Y-58680928D02*
X171035714Y-58680928D01*
X171035714Y-58680928D02*
X171178571Y-58752357D01*
X171178571Y-58752357D02*
X171321428Y-58895214D01*
X171321428Y-58895214D02*
X171392857Y-59180928D01*
X171392857Y-59180928D02*
X171392857Y-59680928D01*
X171392857Y-59680928D02*
X171321428Y-59966642D01*
X171321428Y-59966642D02*
X171178571Y-60109500D01*
X171178571Y-60109500D02*
X171035714Y-60180928D01*
X171035714Y-60180928D02*
X170750000Y-60180928D01*
X170750000Y-60180928D02*
X170607143Y-60109500D01*
X170607143Y-60109500D02*
X170464285Y-59966642D01*
X170464285Y-59966642D02*
X170392857Y-59680928D01*
X170392857Y-59680928D02*
X170392857Y-59180928D01*
X170392857Y-59180928D02*
X170464285Y-58895214D01*
X170464285Y-58895214D02*
X170607143Y-58752357D01*
X170607143Y-58752357D02*
X170750000Y-58680928D01*
X172035714Y-58680928D02*
X172035714Y-59895214D01*
X172035714Y-59895214D02*
X172107143Y-60038071D01*
X172107143Y-60038071D02*
X172178572Y-60109500D01*
X172178572Y-60109500D02*
X172321429Y-60180928D01*
X172321429Y-60180928D02*
X172607143Y-60180928D01*
X172607143Y-60180928D02*
X172750000Y-60109500D01*
X172750000Y-60109500D02*
X172821429Y-60038071D01*
X172821429Y-60038071D02*
X172892857Y-59895214D01*
X172892857Y-59895214D02*
X172892857Y-58680928D01*
X173392858Y-58680928D02*
X174250001Y-58680928D01*
X173821429Y-60180928D02*
X173821429Y-58680928D01*
X167642857Y-109430928D02*
X167642857Y-107930928D01*
X167642857Y-107930928D02*
X168000000Y-107930928D01*
X168000000Y-107930928D02*
X168214286Y-108002357D01*
X168214286Y-108002357D02*
X168357143Y-108145214D01*
X168357143Y-108145214D02*
X168428572Y-108288071D01*
X168428572Y-108288071D02*
X168500000Y-108573785D01*
X168500000Y-108573785D02*
X168500000Y-108788071D01*
X168500000Y-108788071D02*
X168428572Y-109073785D01*
X168428572Y-109073785D02*
X168357143Y-109216642D01*
X168357143Y-109216642D02*
X168214286Y-109359500D01*
X168214286Y-109359500D02*
X168000000Y-109430928D01*
X168000000Y-109430928D02*
X167642857Y-109430928D01*
X169142857Y-108645214D02*
X169642857Y-108645214D01*
X169857143Y-109430928D02*
X169142857Y-109430928D01*
X169142857Y-109430928D02*
X169142857Y-107930928D01*
X169142857Y-107930928D02*
X169857143Y-107930928D01*
X171357143Y-109288071D02*
X171285715Y-109359500D01*
X171285715Y-109359500D02*
X171071429Y-109430928D01*
X171071429Y-109430928D02*
X170928572Y-109430928D01*
X170928572Y-109430928D02*
X170714286Y-109359500D01*
X170714286Y-109359500D02*
X170571429Y-109216642D01*
X170571429Y-109216642D02*
X170500000Y-109073785D01*
X170500000Y-109073785D02*
X170428572Y-108788071D01*
X170428572Y-108788071D02*
X170428572Y-108573785D01*
X170428572Y-108573785D02*
X170500000Y-108288071D01*
X170500000Y-108288071D02*
X170571429Y-108145214D01*
X170571429Y-108145214D02*
X170714286Y-108002357D01*
X170714286Y-108002357D02*
X170928572Y-107930928D01*
X170928572Y-107930928D02*
X171071429Y-107930928D01*
X171071429Y-107930928D02*
X171285715Y-108002357D01*
X171285715Y-108002357D02*
X171357143Y-108073785D01*
X171928572Y-109002357D02*
X172642858Y-109002357D01*
X171785715Y-109430928D02*
X172285715Y-107930928D01*
X172285715Y-107930928D02*
X172785715Y-109430928D01*
X173571429Y-108716642D02*
X173571429Y-109430928D01*
X173071429Y-107930928D02*
X173571429Y-108716642D01*
X173571429Y-108716642D02*
X174071429Y-107930928D01*
X167546428Y-124196927D02*
X167546428Y-122696927D01*
X167546428Y-122696927D02*
X167903571Y-122696927D01*
X167903571Y-122696927D02*
X168117857Y-122768356D01*
X168117857Y-122768356D02*
X168260714Y-122911213D01*
X168260714Y-122911213D02*
X168332143Y-123054070D01*
X168332143Y-123054070D02*
X168403571Y-123339784D01*
X168403571Y-123339784D02*
X168403571Y-123554070D01*
X168403571Y-123554070D02*
X168332143Y-123839784D01*
X168332143Y-123839784D02*
X168260714Y-123982641D01*
X168260714Y-123982641D02*
X168117857Y-124125499D01*
X168117857Y-124125499D02*
X167903571Y-124196927D01*
X167903571Y-124196927D02*
X167546428Y-124196927D01*
X169046428Y-123411213D02*
X169546428Y-123411213D01*
X169760714Y-124196927D02*
X169046428Y-124196927D01*
X169046428Y-124196927D02*
X169046428Y-122696927D01*
X169046428Y-122696927D02*
X169760714Y-122696927D01*
X170403571Y-124196927D02*
X170403571Y-122696927D01*
X170403571Y-122696927D02*
X170975000Y-122696927D01*
X170975000Y-122696927D02*
X171117857Y-122768356D01*
X171117857Y-122768356D02*
X171189286Y-122839784D01*
X171189286Y-122839784D02*
X171260714Y-122982641D01*
X171260714Y-122982641D02*
X171260714Y-123196927D01*
X171260714Y-123196927D02*
X171189286Y-123339784D01*
X171189286Y-123339784D02*
X171117857Y-123411213D01*
X171117857Y-123411213D02*
X170975000Y-123482641D01*
X170975000Y-123482641D02*
X170403571Y-123482641D01*
X171689286Y-122696927D02*
X172546429Y-122696927D01*
X172117857Y-124196927D02*
X172117857Y-122696927D01*
X173046428Y-124196927D02*
X173046428Y-122696927D01*
X173046428Y-123411213D02*
X173903571Y-123411213D01*
X173903571Y-124196927D02*
X173903571Y-122696927D01*
D11*
X132204819Y-101672318D02*
X131728628Y-102005651D01*
X132204819Y-102243746D02*
X131204819Y-102243746D01*
X131204819Y-102243746D02*
X131204819Y-101862794D01*
X131204819Y-101862794D02*
X131252438Y-101767556D01*
X131252438Y-101767556D02*
X131300057Y-101719937D01*
X131300057Y-101719937D02*
X131395295Y-101672318D01*
X131395295Y-101672318D02*
X131538152Y-101672318D01*
X131538152Y-101672318D02*
X131633390Y-101719937D01*
X131633390Y-101719937D02*
X131681009Y-101767556D01*
X131681009Y-101767556D02*
X131728628Y-101862794D01*
X131728628Y-101862794D02*
X131728628Y-102243746D01*
X131300057Y-101291365D02*
X131252438Y-101243746D01*
X131252438Y-101243746D02*
X131204819Y-101148508D01*
X131204819Y-101148508D02*
X131204819Y-100910413D01*
X131204819Y-100910413D02*
X131252438Y-100815175D01*
X131252438Y-100815175D02*
X131300057Y-100767556D01*
X131300057Y-100767556D02*
X131395295Y-100719937D01*
X131395295Y-100719937D02*
X131490533Y-100719937D01*
X131490533Y-100719937D02*
X131633390Y-100767556D01*
X131633390Y-100767556D02*
X132204819Y-101338984D01*
X132204819Y-101338984D02*
X132204819Y-100719937D01*
X131538152Y-99862794D02*
X132204819Y-99862794D01*
X131157200Y-100100889D02*
X131871485Y-100338984D01*
X131871485Y-100338984D02*
X131871485Y-99719937D01*
X128754762Y-94190058D02*
X128659524Y-94142439D01*
X128659524Y-94142439D02*
X128564286Y-94047201D01*
X128564286Y-94047201D02*
X128421429Y-93904343D01*
X128421429Y-93904343D02*
X128326191Y-93856724D01*
X128326191Y-93856724D02*
X128230953Y-93856724D01*
X128278572Y-94094820D02*
X128183334Y-94047201D01*
X128183334Y-94047201D02*
X128088096Y-93951962D01*
X128088096Y-93951962D02*
X128040477Y-93761486D01*
X128040477Y-93761486D02*
X128040477Y-93428153D01*
X128040477Y-93428153D02*
X128088096Y-93237677D01*
X128088096Y-93237677D02*
X128183334Y-93142439D01*
X128183334Y-93142439D02*
X128278572Y-93094820D01*
X128278572Y-93094820D02*
X128469048Y-93094820D01*
X128469048Y-93094820D02*
X128564286Y-93142439D01*
X128564286Y-93142439D02*
X128659524Y-93237677D01*
X128659524Y-93237677D02*
X128707143Y-93428153D01*
X128707143Y-93428153D02*
X128707143Y-93761486D01*
X128707143Y-93761486D02*
X128659524Y-93951962D01*
X128659524Y-93951962D02*
X128564286Y-94047201D01*
X128564286Y-94047201D02*
X128469048Y-94094820D01*
X128469048Y-94094820D02*
X128278572Y-94094820D01*
X129088096Y-93190058D02*
X129135715Y-93142439D01*
X129135715Y-93142439D02*
X129230953Y-93094820D01*
X129230953Y-93094820D02*
X129469048Y-93094820D01*
X129469048Y-93094820D02*
X129564286Y-93142439D01*
X129564286Y-93142439D02*
X129611905Y-93190058D01*
X129611905Y-93190058D02*
X129659524Y-93285296D01*
X129659524Y-93285296D02*
X129659524Y-93380534D01*
X129659524Y-93380534D02*
X129611905Y-93523391D01*
X129611905Y-93523391D02*
X129040477Y-94094820D01*
X129040477Y-94094820D02*
X129659524Y-94094820D01*
X156408207Y-127704819D02*
X156074874Y-127228628D01*
X155836779Y-127704819D02*
X155836779Y-126704819D01*
X155836779Y-126704819D02*
X156217731Y-126704819D01*
X156217731Y-126704819D02*
X156312969Y-126752438D01*
X156312969Y-126752438D02*
X156360588Y-126800057D01*
X156360588Y-126800057D02*
X156408207Y-126895295D01*
X156408207Y-126895295D02*
X156408207Y-127038152D01*
X156408207Y-127038152D02*
X156360588Y-127133390D01*
X156360588Y-127133390D02*
X156312969Y-127181009D01*
X156312969Y-127181009D02*
X156217731Y-127228628D01*
X156217731Y-127228628D02*
X155836779Y-127228628D01*
X156789160Y-126800057D02*
X156836779Y-126752438D01*
X156836779Y-126752438D02*
X156932017Y-126704819D01*
X156932017Y-126704819D02*
X157170112Y-126704819D01*
X157170112Y-126704819D02*
X157265350Y-126752438D01*
X157265350Y-126752438D02*
X157312969Y-126800057D01*
X157312969Y-126800057D02*
X157360588Y-126895295D01*
X157360588Y-126895295D02*
X157360588Y-126990533D01*
X157360588Y-126990533D02*
X157312969Y-127133390D01*
X157312969Y-127133390D02*
X156741541Y-127704819D01*
X156741541Y-127704819D02*
X157360588Y-127704819D01*
X157979636Y-126704819D02*
X158074874Y-126704819D01*
X158074874Y-126704819D02*
X158170112Y-126752438D01*
X158170112Y-126752438D02*
X158217731Y-126800057D01*
X158217731Y-126800057D02*
X158265350Y-126895295D01*
X158265350Y-126895295D02*
X158312969Y-127085771D01*
X158312969Y-127085771D02*
X158312969Y-127323866D01*
X158312969Y-127323866D02*
X158265350Y-127514342D01*
X158265350Y-127514342D02*
X158217731Y-127609580D01*
X158217731Y-127609580D02*
X158170112Y-127657200D01*
X158170112Y-127657200D02*
X158074874Y-127704819D01*
X158074874Y-127704819D02*
X157979636Y-127704819D01*
X157979636Y-127704819D02*
X157884398Y-127657200D01*
X157884398Y-127657200D02*
X157836779Y-127609580D01*
X157836779Y-127609580D02*
X157789160Y-127514342D01*
X157789160Y-127514342D02*
X157741541Y-127323866D01*
X157741541Y-127323866D02*
X157741541Y-127085771D01*
X157741541Y-127085771D02*
X157789160Y-126895295D01*
X157789160Y-126895295D02*
X157836779Y-126800057D01*
X157836779Y-126800057D02*
X157884398Y-126752438D01*
X157884398Y-126752438D02*
X157979636Y-126704819D01*
X159107142Y-102859581D02*
X159059523Y-102907201D01*
X159059523Y-102907201D02*
X158916666Y-102954820D01*
X158916666Y-102954820D02*
X158821428Y-102954820D01*
X158821428Y-102954820D02*
X158678571Y-102907201D01*
X158678571Y-102907201D02*
X158583333Y-102811962D01*
X158583333Y-102811962D02*
X158535714Y-102716724D01*
X158535714Y-102716724D02*
X158488095Y-102526248D01*
X158488095Y-102526248D02*
X158488095Y-102383391D01*
X158488095Y-102383391D02*
X158535714Y-102192915D01*
X158535714Y-102192915D02*
X158583333Y-102097677D01*
X158583333Y-102097677D02*
X158678571Y-102002439D01*
X158678571Y-102002439D02*
X158821428Y-101954820D01*
X158821428Y-101954820D02*
X158916666Y-101954820D01*
X158916666Y-101954820D02*
X159059523Y-102002439D01*
X159059523Y-102002439D02*
X159107142Y-102050058D01*
X160059523Y-102954820D02*
X159488095Y-102954820D01*
X159773809Y-102954820D02*
X159773809Y-101954820D01*
X159773809Y-101954820D02*
X159678571Y-102097677D01*
X159678571Y-102097677D02*
X159583333Y-102192915D01*
X159583333Y-102192915D02*
X159488095Y-102240534D01*
X160964285Y-101954820D02*
X160488095Y-101954820D01*
X160488095Y-101954820D02*
X160440476Y-102431010D01*
X160440476Y-102431010D02*
X160488095Y-102383391D01*
X160488095Y-102383391D02*
X160583333Y-102335772D01*
X160583333Y-102335772D02*
X160821428Y-102335772D01*
X160821428Y-102335772D02*
X160916666Y-102383391D01*
X160916666Y-102383391D02*
X160964285Y-102431010D01*
X160964285Y-102431010D02*
X161011904Y-102526248D01*
X161011904Y-102526248D02*
X161011904Y-102764343D01*
X161011904Y-102764343D02*
X160964285Y-102859581D01*
X160964285Y-102859581D02*
X160916666Y-102907201D01*
X160916666Y-102907201D02*
X160821428Y-102954820D01*
X160821428Y-102954820D02*
X160583333Y-102954820D01*
X160583333Y-102954820D02*
X160488095Y-102907201D01*
X160488095Y-102907201D02*
X160440476Y-102859581D01*
X139557143Y-106109579D02*
X139509524Y-106157199D01*
X139509524Y-106157199D02*
X139366667Y-106204818D01*
X139366667Y-106204818D02*
X139271429Y-106204818D01*
X139271429Y-106204818D02*
X139128572Y-106157199D01*
X139128572Y-106157199D02*
X139033334Y-106061960D01*
X139033334Y-106061960D02*
X138985715Y-105966722D01*
X138985715Y-105966722D02*
X138938096Y-105776246D01*
X138938096Y-105776246D02*
X138938096Y-105633389D01*
X138938096Y-105633389D02*
X138985715Y-105442913D01*
X138985715Y-105442913D02*
X139033334Y-105347675D01*
X139033334Y-105347675D02*
X139128572Y-105252437D01*
X139128572Y-105252437D02*
X139271429Y-105204818D01*
X139271429Y-105204818D02*
X139366667Y-105204818D01*
X139366667Y-105204818D02*
X139509524Y-105252437D01*
X139509524Y-105252437D02*
X139557143Y-105300056D01*
X140509524Y-106204818D02*
X139938096Y-106204818D01*
X140223810Y-106204818D02*
X140223810Y-105204818D01*
X140223810Y-105204818D02*
X140128572Y-105347675D01*
X140128572Y-105347675D02*
X140033334Y-105442913D01*
X140033334Y-105442913D02*
X139938096Y-105490532D01*
X141366667Y-105204818D02*
X141176191Y-105204818D01*
X141176191Y-105204818D02*
X141080953Y-105252437D01*
X141080953Y-105252437D02*
X141033334Y-105300056D01*
X141033334Y-105300056D02*
X140938096Y-105442913D01*
X140938096Y-105442913D02*
X140890477Y-105633389D01*
X140890477Y-105633389D02*
X140890477Y-106014341D01*
X140890477Y-106014341D02*
X140938096Y-106109579D01*
X140938096Y-106109579D02*
X140985715Y-106157199D01*
X140985715Y-106157199D02*
X141080953Y-106204818D01*
X141080953Y-106204818D02*
X141271429Y-106204818D01*
X141271429Y-106204818D02*
X141366667Y-106157199D01*
X141366667Y-106157199D02*
X141414286Y-106109579D01*
X141414286Y-106109579D02*
X141461905Y-106014341D01*
X141461905Y-106014341D02*
X141461905Y-105776246D01*
X141461905Y-105776246D02*
X141414286Y-105681008D01*
X141414286Y-105681008D02*
X141366667Y-105633389D01*
X141366667Y-105633389D02*
X141271429Y-105585770D01*
X141271429Y-105585770D02*
X141080953Y-105585770D01*
X141080953Y-105585770D02*
X140985715Y-105633389D01*
X140985715Y-105633389D02*
X140938096Y-105681008D01*
X140938096Y-105681008D02*
X140890477Y-105776246D01*
X168454818Y-69574422D02*
X167978627Y-69907755D01*
X168454818Y-70145850D02*
X167454818Y-70145850D01*
X167454818Y-70145850D02*
X167454818Y-69764898D01*
X167454818Y-69764898D02*
X167502437Y-69669660D01*
X167502437Y-69669660D02*
X167550056Y-69622041D01*
X167550056Y-69622041D02*
X167645294Y-69574422D01*
X167645294Y-69574422D02*
X167788151Y-69574422D01*
X167788151Y-69574422D02*
X167883389Y-69622041D01*
X167883389Y-69622041D02*
X167931008Y-69669660D01*
X167931008Y-69669660D02*
X167978627Y-69764898D01*
X167978627Y-69764898D02*
X167978627Y-70145850D01*
X168454818Y-68622041D02*
X168454818Y-69193469D01*
X168454818Y-68907755D02*
X167454818Y-68907755D01*
X167454818Y-68907755D02*
X167597675Y-69002993D01*
X167597675Y-69002993D02*
X167692913Y-69098231D01*
X167692913Y-69098231D02*
X167740532Y-69193469D01*
X167454818Y-68002993D02*
X167454818Y-67907755D01*
X167454818Y-67907755D02*
X167502437Y-67812517D01*
X167502437Y-67812517D02*
X167550056Y-67764898D01*
X167550056Y-67764898D02*
X167645294Y-67717279D01*
X167645294Y-67717279D02*
X167835770Y-67669660D01*
X167835770Y-67669660D02*
X168073865Y-67669660D01*
X168073865Y-67669660D02*
X168264341Y-67717279D01*
X168264341Y-67717279D02*
X168359579Y-67764898D01*
X168359579Y-67764898D02*
X168407199Y-67812517D01*
X168407199Y-67812517D02*
X168454818Y-67907755D01*
X168454818Y-67907755D02*
X168454818Y-68002993D01*
X168454818Y-68002993D02*
X168407199Y-68098231D01*
X168407199Y-68098231D02*
X168359579Y-68145850D01*
X168359579Y-68145850D02*
X168264341Y-68193469D01*
X168264341Y-68193469D02*
X168073865Y-68241088D01*
X168073865Y-68241088D02*
X167835770Y-68241088D01*
X167835770Y-68241088D02*
X167645294Y-68193469D01*
X167645294Y-68193469D02*
X167550056Y-68145850D01*
X167550056Y-68145850D02*
X167502437Y-68098231D01*
X167502437Y-68098231D02*
X167454818Y-68002993D01*
X170274819Y-66173333D02*
X170989104Y-66173333D01*
X170989104Y-66173333D02*
X171131961Y-66220952D01*
X171131961Y-66220952D02*
X171227200Y-66316190D01*
X171227200Y-66316190D02*
X171274819Y-66459047D01*
X171274819Y-66459047D02*
X171274819Y-66554285D01*
X170370057Y-65744761D02*
X170322438Y-65697142D01*
X170322438Y-65697142D02*
X170274819Y-65601904D01*
X170274819Y-65601904D02*
X170274819Y-65363809D01*
X170274819Y-65363809D02*
X170322438Y-65268571D01*
X170322438Y-65268571D02*
X170370057Y-65220952D01*
X170370057Y-65220952D02*
X170465295Y-65173333D01*
X170465295Y-65173333D02*
X170560533Y-65173333D01*
X170560533Y-65173333D02*
X170703390Y-65220952D01*
X170703390Y-65220952D02*
X171274819Y-65792380D01*
X171274819Y-65792380D02*
X171274819Y-65173333D01*
X139557143Y-99609581D02*
X139509524Y-99657201D01*
X139509524Y-99657201D02*
X139366667Y-99704820D01*
X139366667Y-99704820D02*
X139271429Y-99704820D01*
X139271429Y-99704820D02*
X139128572Y-99657201D01*
X139128572Y-99657201D02*
X139033334Y-99561962D01*
X139033334Y-99561962D02*
X138985715Y-99466724D01*
X138985715Y-99466724D02*
X138938096Y-99276248D01*
X138938096Y-99276248D02*
X138938096Y-99133391D01*
X138938096Y-99133391D02*
X138985715Y-98942915D01*
X138985715Y-98942915D02*
X139033334Y-98847677D01*
X139033334Y-98847677D02*
X139128572Y-98752439D01*
X139128572Y-98752439D02*
X139271429Y-98704820D01*
X139271429Y-98704820D02*
X139366667Y-98704820D01*
X139366667Y-98704820D02*
X139509524Y-98752439D01*
X139509524Y-98752439D02*
X139557143Y-98800058D01*
X140509524Y-99704820D02*
X139938096Y-99704820D01*
X140223810Y-99704820D02*
X140223810Y-98704820D01*
X140223810Y-98704820D02*
X140128572Y-98847677D01*
X140128572Y-98847677D02*
X140033334Y-98942915D01*
X140033334Y-98942915D02*
X139938096Y-98990534D01*
X140890477Y-98800058D02*
X140938096Y-98752439D01*
X140938096Y-98752439D02*
X141033334Y-98704820D01*
X141033334Y-98704820D02*
X141271429Y-98704820D01*
X141271429Y-98704820D02*
X141366667Y-98752439D01*
X141366667Y-98752439D02*
X141414286Y-98800058D01*
X141414286Y-98800058D02*
X141461905Y-98895296D01*
X141461905Y-98895296D02*
X141461905Y-98990534D01*
X141461905Y-98990534D02*
X141414286Y-99133391D01*
X141414286Y-99133391D02*
X140842858Y-99704820D01*
X140842858Y-99704820D02*
X141461905Y-99704820D01*
X128609580Y-139392857D02*
X128657200Y-139440476D01*
X128657200Y-139440476D02*
X128704819Y-139583333D01*
X128704819Y-139583333D02*
X128704819Y-139678571D01*
X128704819Y-139678571D02*
X128657200Y-139821428D01*
X128657200Y-139821428D02*
X128561961Y-139916666D01*
X128561961Y-139916666D02*
X128466723Y-139964285D01*
X128466723Y-139964285D02*
X128276247Y-140011904D01*
X128276247Y-140011904D02*
X128133390Y-140011904D01*
X128133390Y-140011904D02*
X127942914Y-139964285D01*
X127942914Y-139964285D02*
X127847676Y-139916666D01*
X127847676Y-139916666D02*
X127752438Y-139821428D01*
X127752438Y-139821428D02*
X127704819Y-139678571D01*
X127704819Y-139678571D02*
X127704819Y-139583333D01*
X127704819Y-139583333D02*
X127752438Y-139440476D01*
X127752438Y-139440476D02*
X127800057Y-139392857D01*
X127800057Y-139011904D02*
X127752438Y-138964285D01*
X127752438Y-138964285D02*
X127704819Y-138869047D01*
X127704819Y-138869047D02*
X127704819Y-138630952D01*
X127704819Y-138630952D02*
X127752438Y-138535714D01*
X127752438Y-138535714D02*
X127800057Y-138488095D01*
X127800057Y-138488095D02*
X127895295Y-138440476D01*
X127895295Y-138440476D02*
X127990533Y-138440476D01*
X127990533Y-138440476D02*
X128133390Y-138488095D01*
X128133390Y-138488095D02*
X128704819Y-139059523D01*
X128704819Y-139059523D02*
X128704819Y-138440476D01*
X127704819Y-138107142D02*
X127704819Y-137440476D01*
X127704819Y-137440476D02*
X128704819Y-137869047D01*
X159107142Y-86609581D02*
X159059523Y-86657201D01*
X159059523Y-86657201D02*
X158916666Y-86704820D01*
X158916666Y-86704820D02*
X158821428Y-86704820D01*
X158821428Y-86704820D02*
X158678571Y-86657201D01*
X158678571Y-86657201D02*
X158583333Y-86561962D01*
X158583333Y-86561962D02*
X158535714Y-86466724D01*
X158535714Y-86466724D02*
X158488095Y-86276248D01*
X158488095Y-86276248D02*
X158488095Y-86133391D01*
X158488095Y-86133391D02*
X158535714Y-85942915D01*
X158535714Y-85942915D02*
X158583333Y-85847677D01*
X158583333Y-85847677D02*
X158678571Y-85752439D01*
X158678571Y-85752439D02*
X158821428Y-85704820D01*
X158821428Y-85704820D02*
X158916666Y-85704820D01*
X158916666Y-85704820D02*
X159059523Y-85752439D01*
X159059523Y-85752439D02*
X159107142Y-85800058D01*
X160059523Y-86704820D02*
X159488095Y-86704820D01*
X159773809Y-86704820D02*
X159773809Y-85704820D01*
X159773809Y-85704820D02*
X159678571Y-85847677D01*
X159678571Y-85847677D02*
X159583333Y-85942915D01*
X159583333Y-85942915D02*
X159488095Y-85990534D01*
X160916666Y-86038153D02*
X160916666Y-86704820D01*
X160678571Y-85657201D02*
X160440476Y-86371486D01*
X160440476Y-86371486D02*
X161059523Y-86371486D01*
X159107142Y-83359581D02*
X159059523Y-83407201D01*
X159059523Y-83407201D02*
X158916666Y-83454820D01*
X158916666Y-83454820D02*
X158821428Y-83454820D01*
X158821428Y-83454820D02*
X158678571Y-83407201D01*
X158678571Y-83407201D02*
X158583333Y-83311962D01*
X158583333Y-83311962D02*
X158535714Y-83216724D01*
X158535714Y-83216724D02*
X158488095Y-83026248D01*
X158488095Y-83026248D02*
X158488095Y-82883391D01*
X158488095Y-82883391D02*
X158535714Y-82692915D01*
X158535714Y-82692915D02*
X158583333Y-82597677D01*
X158583333Y-82597677D02*
X158678571Y-82502439D01*
X158678571Y-82502439D02*
X158821428Y-82454820D01*
X158821428Y-82454820D02*
X158916666Y-82454820D01*
X158916666Y-82454820D02*
X159059523Y-82502439D01*
X159059523Y-82502439D02*
X159107142Y-82550058D01*
X160059523Y-83454820D02*
X159488095Y-83454820D01*
X159773809Y-83454820D02*
X159773809Y-82454820D01*
X159773809Y-82454820D02*
X159678571Y-82597677D01*
X159678571Y-82597677D02*
X159583333Y-82692915D01*
X159583333Y-82692915D02*
X159488095Y-82740534D01*
X160392857Y-82454820D02*
X161011904Y-82454820D01*
X161011904Y-82454820D02*
X160678571Y-82835772D01*
X160678571Y-82835772D02*
X160821428Y-82835772D01*
X160821428Y-82835772D02*
X160916666Y-82883391D01*
X160916666Y-82883391D02*
X160964285Y-82931010D01*
X160964285Y-82931010D02*
X161011904Y-83026248D01*
X161011904Y-83026248D02*
X161011904Y-83264343D01*
X161011904Y-83264343D02*
X160964285Y-83359581D01*
X160964285Y-83359581D02*
X160916666Y-83407201D01*
X160916666Y-83407201D02*
X160821428Y-83454820D01*
X160821428Y-83454820D02*
X160535714Y-83454820D01*
X160535714Y-83454820D02*
X160440476Y-83407201D01*
X160440476Y-83407201D02*
X160392857Y-83359581D01*
X159583333Y-73609579D02*
X159535714Y-73657199D01*
X159535714Y-73657199D02*
X159392857Y-73704818D01*
X159392857Y-73704818D02*
X159297619Y-73704818D01*
X159297619Y-73704818D02*
X159154762Y-73657199D01*
X159154762Y-73657199D02*
X159059524Y-73561960D01*
X159059524Y-73561960D02*
X159011905Y-73466722D01*
X159011905Y-73466722D02*
X158964286Y-73276246D01*
X158964286Y-73276246D02*
X158964286Y-73133389D01*
X158964286Y-73133389D02*
X159011905Y-72942913D01*
X159011905Y-72942913D02*
X159059524Y-72847675D01*
X159059524Y-72847675D02*
X159154762Y-72752437D01*
X159154762Y-72752437D02*
X159297619Y-72704818D01*
X159297619Y-72704818D02*
X159392857Y-72704818D01*
X159392857Y-72704818D02*
X159535714Y-72752437D01*
X159535714Y-72752437D02*
X159583333Y-72800056D01*
X160488095Y-72704818D02*
X160011905Y-72704818D01*
X160011905Y-72704818D02*
X159964286Y-73181008D01*
X159964286Y-73181008D02*
X160011905Y-73133389D01*
X160011905Y-73133389D02*
X160107143Y-73085770D01*
X160107143Y-73085770D02*
X160345238Y-73085770D01*
X160345238Y-73085770D02*
X160440476Y-73133389D01*
X160440476Y-73133389D02*
X160488095Y-73181008D01*
X160488095Y-73181008D02*
X160535714Y-73276246D01*
X160535714Y-73276246D02*
X160535714Y-73514341D01*
X160535714Y-73514341D02*
X160488095Y-73609579D01*
X160488095Y-73609579D02*
X160440476Y-73657199D01*
X160440476Y-73657199D02*
X160345238Y-73704818D01*
X160345238Y-73704818D02*
X160107143Y-73704818D01*
X160107143Y-73704818D02*
X160011905Y-73657199D01*
X160011905Y-73657199D02*
X159964286Y-73609579D01*
X155756530Y-53204819D02*
X155756530Y-52204819D01*
X155756530Y-52204819D02*
X155994625Y-52204819D01*
X155994625Y-52204819D02*
X156137482Y-52252438D01*
X156137482Y-52252438D02*
X156232720Y-52347676D01*
X156232720Y-52347676D02*
X156280339Y-52442914D01*
X156280339Y-52442914D02*
X156327958Y-52633390D01*
X156327958Y-52633390D02*
X156327958Y-52776247D01*
X156327958Y-52776247D02*
X156280339Y-52966723D01*
X156280339Y-52966723D02*
X156232720Y-53061961D01*
X156232720Y-53061961D02*
X156137482Y-53157200D01*
X156137482Y-53157200D02*
X155994625Y-53204819D01*
X155994625Y-53204819D02*
X155756530Y-53204819D01*
X156708911Y-52300057D02*
X156756530Y-52252438D01*
X156756530Y-52252438D02*
X156851768Y-52204819D01*
X156851768Y-52204819D02*
X157089863Y-52204819D01*
X157089863Y-52204819D02*
X157185101Y-52252438D01*
X157185101Y-52252438D02*
X157232720Y-52300057D01*
X157232720Y-52300057D02*
X157280339Y-52395295D01*
X157280339Y-52395295D02*
X157280339Y-52490533D01*
X157280339Y-52490533D02*
X157232720Y-52633390D01*
X157232720Y-52633390D02*
X156661292Y-53204819D01*
X156661292Y-53204819D02*
X157280339Y-53204819D01*
X159583333Y-76859579D02*
X159535714Y-76907199D01*
X159535714Y-76907199D02*
X159392857Y-76954818D01*
X159392857Y-76954818D02*
X159297619Y-76954818D01*
X159297619Y-76954818D02*
X159154762Y-76907199D01*
X159154762Y-76907199D02*
X159059524Y-76811960D01*
X159059524Y-76811960D02*
X159011905Y-76716722D01*
X159011905Y-76716722D02*
X158964286Y-76526246D01*
X158964286Y-76526246D02*
X158964286Y-76383389D01*
X158964286Y-76383389D02*
X159011905Y-76192913D01*
X159011905Y-76192913D02*
X159059524Y-76097675D01*
X159059524Y-76097675D02*
X159154762Y-76002437D01*
X159154762Y-76002437D02*
X159297619Y-75954818D01*
X159297619Y-75954818D02*
X159392857Y-75954818D01*
X159392857Y-75954818D02*
X159535714Y-76002437D01*
X159535714Y-76002437D02*
X159583333Y-76050056D01*
X160440476Y-75954818D02*
X160250000Y-75954818D01*
X160250000Y-75954818D02*
X160154762Y-76002437D01*
X160154762Y-76002437D02*
X160107143Y-76050056D01*
X160107143Y-76050056D02*
X160011905Y-76192913D01*
X160011905Y-76192913D02*
X159964286Y-76383389D01*
X159964286Y-76383389D02*
X159964286Y-76764341D01*
X159964286Y-76764341D02*
X160011905Y-76859579D01*
X160011905Y-76859579D02*
X160059524Y-76907199D01*
X160059524Y-76907199D02*
X160154762Y-76954818D01*
X160154762Y-76954818D02*
X160345238Y-76954818D01*
X160345238Y-76954818D02*
X160440476Y-76907199D01*
X160440476Y-76907199D02*
X160488095Y-76859579D01*
X160488095Y-76859579D02*
X160535714Y-76764341D01*
X160535714Y-76764341D02*
X160535714Y-76526246D01*
X160535714Y-76526246D02*
X160488095Y-76431008D01*
X160488095Y-76431008D02*
X160440476Y-76383389D01*
X160440476Y-76383389D02*
X160345238Y-76335770D01*
X160345238Y-76335770D02*
X160154762Y-76335770D01*
X160154762Y-76335770D02*
X160059524Y-76383389D01*
X160059524Y-76383389D02*
X160011905Y-76431008D01*
X160011905Y-76431008D02*
X159964286Y-76526246D01*
X171204819Y-93194422D02*
X170728628Y-93527755D01*
X171204819Y-93765850D02*
X170204819Y-93765850D01*
X170204819Y-93765850D02*
X170204819Y-93384898D01*
X170204819Y-93384898D02*
X170252438Y-93289660D01*
X170252438Y-93289660D02*
X170300057Y-93242041D01*
X170300057Y-93242041D02*
X170395295Y-93194422D01*
X170395295Y-93194422D02*
X170538152Y-93194422D01*
X170538152Y-93194422D02*
X170633390Y-93242041D01*
X170633390Y-93242041D02*
X170681009Y-93289660D01*
X170681009Y-93289660D02*
X170728628Y-93384898D01*
X170728628Y-93384898D02*
X170728628Y-93765850D01*
X170204819Y-92861088D02*
X170204819Y-92242041D01*
X170204819Y-92242041D02*
X170585771Y-92575374D01*
X170585771Y-92575374D02*
X170585771Y-92432517D01*
X170585771Y-92432517D02*
X170633390Y-92337279D01*
X170633390Y-92337279D02*
X170681009Y-92289660D01*
X170681009Y-92289660D02*
X170776247Y-92242041D01*
X170776247Y-92242041D02*
X171014342Y-92242041D01*
X171014342Y-92242041D02*
X171109580Y-92289660D01*
X171109580Y-92289660D02*
X171157200Y-92337279D01*
X171157200Y-92337279D02*
X171204819Y-92432517D01*
X171204819Y-92432517D02*
X171204819Y-92718231D01*
X171204819Y-92718231D02*
X171157200Y-92813469D01*
X171157200Y-92813469D02*
X171109580Y-92861088D01*
X170204819Y-91622993D02*
X170204819Y-91527755D01*
X170204819Y-91527755D02*
X170252438Y-91432517D01*
X170252438Y-91432517D02*
X170300057Y-91384898D01*
X170300057Y-91384898D02*
X170395295Y-91337279D01*
X170395295Y-91337279D02*
X170585771Y-91289660D01*
X170585771Y-91289660D02*
X170823866Y-91289660D01*
X170823866Y-91289660D02*
X171014342Y-91337279D01*
X171014342Y-91337279D02*
X171109580Y-91384898D01*
X171109580Y-91384898D02*
X171157200Y-91432517D01*
X171157200Y-91432517D02*
X171204819Y-91527755D01*
X171204819Y-91527755D02*
X171204819Y-91622993D01*
X171204819Y-91622993D02*
X171157200Y-91718231D01*
X171157200Y-91718231D02*
X171109580Y-91765850D01*
X171109580Y-91765850D02*
X171014342Y-91813469D01*
X171014342Y-91813469D02*
X170823866Y-91861088D01*
X170823866Y-91861088D02*
X170585771Y-91861088D01*
X170585771Y-91861088D02*
X170395295Y-91813469D01*
X170395295Y-91813469D02*
X170300057Y-91765850D01*
X170300057Y-91765850D02*
X170252438Y-91718231D01*
X170252438Y-91718231D02*
X170204819Y-91622993D01*
X168454819Y-51661292D02*
X167978628Y-51994625D01*
X168454819Y-52232720D02*
X167454819Y-52232720D01*
X167454819Y-52232720D02*
X167454819Y-51851768D01*
X167454819Y-51851768D02*
X167502438Y-51756530D01*
X167502438Y-51756530D02*
X167550057Y-51708911D01*
X167550057Y-51708911D02*
X167645295Y-51661292D01*
X167645295Y-51661292D02*
X167788152Y-51661292D01*
X167788152Y-51661292D02*
X167883390Y-51708911D01*
X167883390Y-51708911D02*
X167931009Y-51756530D01*
X167931009Y-51756530D02*
X167978628Y-51851768D01*
X167978628Y-51851768D02*
X167978628Y-52232720D01*
X167788152Y-50804149D02*
X168454819Y-50804149D01*
X167407200Y-51042244D02*
X168121485Y-51280339D01*
X168121485Y-51280339D02*
X168121485Y-50661292D01*
X127459580Y-86642857D02*
X127507200Y-86690476D01*
X127507200Y-86690476D02*
X127554819Y-86833333D01*
X127554819Y-86833333D02*
X127554819Y-86928571D01*
X127554819Y-86928571D02*
X127507200Y-87071428D01*
X127507200Y-87071428D02*
X127411961Y-87166666D01*
X127411961Y-87166666D02*
X127316723Y-87214285D01*
X127316723Y-87214285D02*
X127126247Y-87261904D01*
X127126247Y-87261904D02*
X126983390Y-87261904D01*
X126983390Y-87261904D02*
X126792914Y-87214285D01*
X126792914Y-87214285D02*
X126697676Y-87166666D01*
X126697676Y-87166666D02*
X126602438Y-87071428D01*
X126602438Y-87071428D02*
X126554819Y-86928571D01*
X126554819Y-86928571D02*
X126554819Y-86833333D01*
X126554819Y-86833333D02*
X126602438Y-86690476D01*
X126602438Y-86690476D02*
X126650057Y-86642857D01*
X126650057Y-86261904D02*
X126602438Y-86214285D01*
X126602438Y-86214285D02*
X126554819Y-86119047D01*
X126554819Y-86119047D02*
X126554819Y-85880952D01*
X126554819Y-85880952D02*
X126602438Y-85785714D01*
X126602438Y-85785714D02*
X126650057Y-85738095D01*
X126650057Y-85738095D02*
X126745295Y-85690476D01*
X126745295Y-85690476D02*
X126840533Y-85690476D01*
X126840533Y-85690476D02*
X126983390Y-85738095D01*
X126983390Y-85738095D02*
X127554819Y-86309523D01*
X127554819Y-86309523D02*
X127554819Y-85690476D01*
X126983390Y-85119047D02*
X126935771Y-85214285D01*
X126935771Y-85214285D02*
X126888152Y-85261904D01*
X126888152Y-85261904D02*
X126792914Y-85309523D01*
X126792914Y-85309523D02*
X126745295Y-85309523D01*
X126745295Y-85309523D02*
X126650057Y-85261904D01*
X126650057Y-85261904D02*
X126602438Y-85214285D01*
X126602438Y-85214285D02*
X126554819Y-85119047D01*
X126554819Y-85119047D02*
X126554819Y-84928571D01*
X126554819Y-84928571D02*
X126602438Y-84833333D01*
X126602438Y-84833333D02*
X126650057Y-84785714D01*
X126650057Y-84785714D02*
X126745295Y-84738095D01*
X126745295Y-84738095D02*
X126792914Y-84738095D01*
X126792914Y-84738095D02*
X126888152Y-84785714D01*
X126888152Y-84785714D02*
X126935771Y-84833333D01*
X126935771Y-84833333D02*
X126983390Y-84928571D01*
X126983390Y-84928571D02*
X126983390Y-85119047D01*
X126983390Y-85119047D02*
X127031009Y-85214285D01*
X127031009Y-85214285D02*
X127078628Y-85261904D01*
X127078628Y-85261904D02*
X127173866Y-85309523D01*
X127173866Y-85309523D02*
X127364342Y-85309523D01*
X127364342Y-85309523D02*
X127459580Y-85261904D01*
X127459580Y-85261904D02*
X127507200Y-85214285D01*
X127507200Y-85214285D02*
X127554819Y-85119047D01*
X127554819Y-85119047D02*
X127554819Y-84928571D01*
X127554819Y-84928571D02*
X127507200Y-84833333D01*
X127507200Y-84833333D02*
X127459580Y-84785714D01*
X127459580Y-84785714D02*
X127364342Y-84738095D01*
X127364342Y-84738095D02*
X127173866Y-84738095D01*
X127173866Y-84738095D02*
X127078628Y-84785714D01*
X127078628Y-84785714D02*
X127031009Y-84833333D01*
X127031009Y-84833333D02*
X126983390Y-84928571D01*
X173954819Y-51661292D02*
X173478628Y-51994625D01*
X173954819Y-52232720D02*
X172954819Y-52232720D01*
X172954819Y-52232720D02*
X172954819Y-51851768D01*
X172954819Y-51851768D02*
X173002438Y-51756530D01*
X173002438Y-51756530D02*
X173050057Y-51708911D01*
X173050057Y-51708911D02*
X173145295Y-51661292D01*
X173145295Y-51661292D02*
X173288152Y-51661292D01*
X173288152Y-51661292D02*
X173383390Y-51708911D01*
X173383390Y-51708911D02*
X173431009Y-51756530D01*
X173431009Y-51756530D02*
X173478628Y-51851768D01*
X173478628Y-51851768D02*
X173478628Y-52232720D01*
X172954819Y-51327958D02*
X172954819Y-50661292D01*
X172954819Y-50661292D02*
X173954819Y-51089863D01*
X143988094Y-128704819D02*
X143988094Y-129514342D01*
X143988094Y-129514342D02*
X144035713Y-129609580D01*
X144035713Y-129609580D02*
X144083332Y-129657200D01*
X144083332Y-129657200D02*
X144178570Y-129704819D01*
X144178570Y-129704819D02*
X144369046Y-129704819D01*
X144369046Y-129704819D02*
X144464284Y-129657200D01*
X144464284Y-129657200D02*
X144511903Y-129609580D01*
X144511903Y-129609580D02*
X144559522Y-129514342D01*
X144559522Y-129514342D02*
X144559522Y-128704819D01*
X145511903Y-128704819D02*
X145035713Y-128704819D01*
X145035713Y-128704819D02*
X144988094Y-129181009D01*
X144988094Y-129181009D02*
X145035713Y-129133390D01*
X145035713Y-129133390D02*
X145130951Y-129085771D01*
X145130951Y-129085771D02*
X145369046Y-129085771D01*
X145369046Y-129085771D02*
X145464284Y-129133390D01*
X145464284Y-129133390D02*
X145511903Y-129181009D01*
X145511903Y-129181009D02*
X145559522Y-129276247D01*
X145559522Y-129276247D02*
X145559522Y-129514342D01*
X145559522Y-129514342D02*
X145511903Y-129609580D01*
X145511903Y-129609580D02*
X145464284Y-129657200D01*
X145464284Y-129657200D02*
X145369046Y-129704819D01*
X145369046Y-129704819D02*
X145130951Y-129704819D01*
X145130951Y-129704819D02*
X145035713Y-129657200D01*
X145035713Y-129657200D02*
X144988094Y-129609580D01*
X155756530Y-55954819D02*
X155756530Y-54954819D01*
X155756530Y-54954819D02*
X155994625Y-54954819D01*
X155994625Y-54954819D02*
X156137482Y-55002438D01*
X156137482Y-55002438D02*
X156232720Y-55097676D01*
X156232720Y-55097676D02*
X156280339Y-55192914D01*
X156280339Y-55192914D02*
X156327958Y-55383390D01*
X156327958Y-55383390D02*
X156327958Y-55526247D01*
X156327958Y-55526247D02*
X156280339Y-55716723D01*
X156280339Y-55716723D02*
X156232720Y-55811961D01*
X156232720Y-55811961D02*
X156137482Y-55907200D01*
X156137482Y-55907200D02*
X155994625Y-55954819D01*
X155994625Y-55954819D02*
X155756530Y-55954819D01*
X157280339Y-55954819D02*
X156708911Y-55954819D01*
X156994625Y-55954819D02*
X156994625Y-54954819D01*
X156994625Y-54954819D02*
X156899387Y-55097676D01*
X156899387Y-55097676D02*
X156804149Y-55192914D01*
X156804149Y-55192914D02*
X156708911Y-55240533D01*
X172704819Y-143083333D02*
X173419104Y-143083333D01*
X173419104Y-143083333D02*
X173561961Y-143130952D01*
X173561961Y-143130952D02*
X173657200Y-143226190D01*
X173657200Y-143226190D02*
X173704819Y-143369047D01*
X173704819Y-143369047D02*
X173704819Y-143464285D01*
X173038152Y-142178571D02*
X173704819Y-142178571D01*
X172657200Y-142416666D02*
X173371485Y-142654761D01*
X173371485Y-142654761D02*
X173371485Y-142035714D01*
X168454819Y-84244922D02*
X167978628Y-84578255D01*
X168454819Y-84816350D02*
X167454819Y-84816350D01*
X167454819Y-84816350D02*
X167454819Y-84435398D01*
X167454819Y-84435398D02*
X167502438Y-84340160D01*
X167502438Y-84340160D02*
X167550057Y-84292541D01*
X167550057Y-84292541D02*
X167645295Y-84244922D01*
X167645295Y-84244922D02*
X167788152Y-84244922D01*
X167788152Y-84244922D02*
X167883390Y-84292541D01*
X167883390Y-84292541D02*
X167931009Y-84340160D01*
X167931009Y-84340160D02*
X167978628Y-84435398D01*
X167978628Y-84435398D02*
X167978628Y-84816350D01*
X168454819Y-83292541D02*
X168454819Y-83863969D01*
X168454819Y-83578255D02*
X167454819Y-83578255D01*
X167454819Y-83578255D02*
X167597676Y-83673493D01*
X167597676Y-83673493D02*
X167692914Y-83768731D01*
X167692914Y-83768731D02*
X167740533Y-83863969D01*
X167454819Y-82435398D02*
X167454819Y-82625874D01*
X167454819Y-82625874D02*
X167502438Y-82721112D01*
X167502438Y-82721112D02*
X167550057Y-82768731D01*
X167550057Y-82768731D02*
X167692914Y-82863969D01*
X167692914Y-82863969D02*
X167883390Y-82911588D01*
X167883390Y-82911588D02*
X168264342Y-82911588D01*
X168264342Y-82911588D02*
X168359580Y-82863969D01*
X168359580Y-82863969D02*
X168407200Y-82816350D01*
X168407200Y-82816350D02*
X168454819Y-82721112D01*
X168454819Y-82721112D02*
X168454819Y-82530636D01*
X168454819Y-82530636D02*
X168407200Y-82435398D01*
X168407200Y-82435398D02*
X168359580Y-82387779D01*
X168359580Y-82387779D02*
X168264342Y-82340160D01*
X168264342Y-82340160D02*
X168026247Y-82340160D01*
X168026247Y-82340160D02*
X167931009Y-82387779D01*
X167931009Y-82387779D02*
X167883390Y-82435398D01*
X167883390Y-82435398D02*
X167835771Y-82530636D01*
X167835771Y-82530636D02*
X167835771Y-82721112D01*
X167835771Y-82721112D02*
X167883390Y-82816350D01*
X167883390Y-82816350D02*
X167931009Y-82863969D01*
X167931009Y-82863969D02*
X168026247Y-82911588D01*
X165704819Y-84244922D02*
X165228628Y-84578255D01*
X165704819Y-84816350D02*
X164704819Y-84816350D01*
X164704819Y-84816350D02*
X164704819Y-84435398D01*
X164704819Y-84435398D02*
X164752438Y-84340160D01*
X164752438Y-84340160D02*
X164800057Y-84292541D01*
X164800057Y-84292541D02*
X164895295Y-84244922D01*
X164895295Y-84244922D02*
X165038152Y-84244922D01*
X165038152Y-84244922D02*
X165133390Y-84292541D01*
X165133390Y-84292541D02*
X165181009Y-84340160D01*
X165181009Y-84340160D02*
X165228628Y-84435398D01*
X165228628Y-84435398D02*
X165228628Y-84816350D01*
X165704819Y-83292541D02*
X165704819Y-83863969D01*
X165704819Y-83578255D02*
X164704819Y-83578255D01*
X164704819Y-83578255D02*
X164847676Y-83673493D01*
X164847676Y-83673493D02*
X164942914Y-83768731D01*
X164942914Y-83768731D02*
X164990533Y-83863969D01*
X164704819Y-82387779D02*
X164704819Y-82863969D01*
X164704819Y-82863969D02*
X165181009Y-82911588D01*
X165181009Y-82911588D02*
X165133390Y-82863969D01*
X165133390Y-82863969D02*
X165085771Y-82768731D01*
X165085771Y-82768731D02*
X165085771Y-82530636D01*
X165085771Y-82530636D02*
X165133390Y-82435398D01*
X165133390Y-82435398D02*
X165181009Y-82387779D01*
X165181009Y-82387779D02*
X165276247Y-82340160D01*
X165276247Y-82340160D02*
X165514342Y-82340160D01*
X165514342Y-82340160D02*
X165609580Y-82387779D01*
X165609580Y-82387779D02*
X165657200Y-82435398D01*
X165657200Y-82435398D02*
X165704819Y-82530636D01*
X165704819Y-82530636D02*
X165704819Y-82768731D01*
X165704819Y-82768731D02*
X165657200Y-82863969D01*
X165657200Y-82863969D02*
X165609580Y-82911588D01*
X126204819Y-143333333D02*
X126919104Y-143333333D01*
X126919104Y-143333333D02*
X127061961Y-143380952D01*
X127061961Y-143380952D02*
X127157200Y-143476190D01*
X127157200Y-143476190D02*
X127204819Y-143619047D01*
X127204819Y-143619047D02*
X127204819Y-143714285D01*
X126204819Y-142952380D02*
X126204819Y-142333333D01*
X126204819Y-142333333D02*
X126585771Y-142666666D01*
X126585771Y-142666666D02*
X126585771Y-142523809D01*
X126585771Y-142523809D02*
X126633390Y-142428571D01*
X126633390Y-142428571D02*
X126681009Y-142380952D01*
X126681009Y-142380952D02*
X126776247Y-142333333D01*
X126776247Y-142333333D02*
X127014342Y-142333333D01*
X127014342Y-142333333D02*
X127109580Y-142380952D01*
X127109580Y-142380952D02*
X127157200Y-142428571D01*
X127157200Y-142428571D02*
X127204819Y-142523809D01*
X127204819Y-142523809D02*
X127204819Y-142809523D01*
X127204819Y-142809523D02*
X127157200Y-142904761D01*
X127157200Y-142904761D02*
X127109580Y-142952380D01*
X150359581Y-53986166D02*
X150407201Y-54033785D01*
X150407201Y-54033785D02*
X150454820Y-54176642D01*
X150454820Y-54176642D02*
X150454820Y-54271880D01*
X150454820Y-54271880D02*
X150407201Y-54414737D01*
X150407201Y-54414737D02*
X150311962Y-54509975D01*
X150311962Y-54509975D02*
X150216724Y-54557594D01*
X150216724Y-54557594D02*
X150026248Y-54605213D01*
X150026248Y-54605213D02*
X149883391Y-54605213D01*
X149883391Y-54605213D02*
X149692915Y-54557594D01*
X149692915Y-54557594D02*
X149597677Y-54509975D01*
X149597677Y-54509975D02*
X149502439Y-54414737D01*
X149502439Y-54414737D02*
X149454820Y-54271880D01*
X149454820Y-54271880D02*
X149454820Y-54176642D01*
X149454820Y-54176642D02*
X149502439Y-54033785D01*
X149502439Y-54033785D02*
X149550058Y-53986166D01*
X149550058Y-53605213D02*
X149502439Y-53557594D01*
X149502439Y-53557594D02*
X149454820Y-53462356D01*
X149454820Y-53462356D02*
X149454820Y-53224261D01*
X149454820Y-53224261D02*
X149502439Y-53129023D01*
X149502439Y-53129023D02*
X149550058Y-53081404D01*
X149550058Y-53081404D02*
X149645296Y-53033785D01*
X149645296Y-53033785D02*
X149740534Y-53033785D01*
X149740534Y-53033785D02*
X149883391Y-53081404D01*
X149883391Y-53081404D02*
X150454820Y-53652832D01*
X150454820Y-53652832D02*
X150454820Y-53033785D01*
X128704819Y-66083333D02*
X129419104Y-66083333D01*
X129419104Y-66083333D02*
X129561961Y-66130952D01*
X129561961Y-66130952D02*
X129657200Y-66226190D01*
X129657200Y-66226190D02*
X129704819Y-66369047D01*
X129704819Y-66369047D02*
X129704819Y-66464285D01*
X129704819Y-65083333D02*
X129704819Y-65654761D01*
X129704819Y-65369047D02*
X128704819Y-65369047D01*
X128704819Y-65369047D02*
X128847676Y-65464285D01*
X128847676Y-65464285D02*
X128942914Y-65559523D01*
X128942914Y-65559523D02*
X128990533Y-65654761D01*
X159583333Y-80109579D02*
X159535714Y-80157199D01*
X159535714Y-80157199D02*
X159392857Y-80204818D01*
X159392857Y-80204818D02*
X159297619Y-80204818D01*
X159297619Y-80204818D02*
X159154762Y-80157199D01*
X159154762Y-80157199D02*
X159059524Y-80061960D01*
X159059524Y-80061960D02*
X159011905Y-79966722D01*
X159011905Y-79966722D02*
X158964286Y-79776246D01*
X158964286Y-79776246D02*
X158964286Y-79633389D01*
X158964286Y-79633389D02*
X159011905Y-79442913D01*
X159011905Y-79442913D02*
X159059524Y-79347675D01*
X159059524Y-79347675D02*
X159154762Y-79252437D01*
X159154762Y-79252437D02*
X159297619Y-79204818D01*
X159297619Y-79204818D02*
X159392857Y-79204818D01*
X159392857Y-79204818D02*
X159535714Y-79252437D01*
X159535714Y-79252437D02*
X159583333Y-79300056D01*
X160154762Y-79633389D02*
X160059524Y-79585770D01*
X160059524Y-79585770D02*
X160011905Y-79538151D01*
X160011905Y-79538151D02*
X159964286Y-79442913D01*
X159964286Y-79442913D02*
X159964286Y-79395294D01*
X159964286Y-79395294D02*
X160011905Y-79300056D01*
X160011905Y-79300056D02*
X160059524Y-79252437D01*
X160059524Y-79252437D02*
X160154762Y-79204818D01*
X160154762Y-79204818D02*
X160345238Y-79204818D01*
X160345238Y-79204818D02*
X160440476Y-79252437D01*
X160440476Y-79252437D02*
X160488095Y-79300056D01*
X160488095Y-79300056D02*
X160535714Y-79395294D01*
X160535714Y-79395294D02*
X160535714Y-79442913D01*
X160535714Y-79442913D02*
X160488095Y-79538151D01*
X160488095Y-79538151D02*
X160440476Y-79585770D01*
X160440476Y-79585770D02*
X160345238Y-79633389D01*
X160345238Y-79633389D02*
X160154762Y-79633389D01*
X160154762Y-79633389D02*
X160059524Y-79681008D01*
X160059524Y-79681008D02*
X160011905Y-79728627D01*
X160011905Y-79728627D02*
X159964286Y-79823865D01*
X159964286Y-79823865D02*
X159964286Y-80014341D01*
X159964286Y-80014341D02*
X160011905Y-80109579D01*
X160011905Y-80109579D02*
X160059524Y-80157199D01*
X160059524Y-80157199D02*
X160154762Y-80204818D01*
X160154762Y-80204818D02*
X160345238Y-80204818D01*
X160345238Y-80204818D02*
X160440476Y-80157199D01*
X160440476Y-80157199D02*
X160488095Y-80109579D01*
X160488095Y-80109579D02*
X160535714Y-80014341D01*
X160535714Y-80014341D02*
X160535714Y-79823865D01*
X160535714Y-79823865D02*
X160488095Y-79728627D01*
X160488095Y-79728627D02*
X160440476Y-79681008D01*
X160440476Y-79681008D02*
X160345238Y-79633389D01*
X168454819Y-93193922D02*
X167978628Y-93527255D01*
X168454819Y-93765350D02*
X167454819Y-93765350D01*
X167454819Y-93765350D02*
X167454819Y-93384398D01*
X167454819Y-93384398D02*
X167502438Y-93289160D01*
X167502438Y-93289160D02*
X167550057Y-93241541D01*
X167550057Y-93241541D02*
X167645295Y-93193922D01*
X167645295Y-93193922D02*
X167788152Y-93193922D01*
X167788152Y-93193922D02*
X167883390Y-93241541D01*
X167883390Y-93241541D02*
X167931009Y-93289160D01*
X167931009Y-93289160D02*
X167978628Y-93384398D01*
X167978628Y-93384398D02*
X167978628Y-93765350D01*
X167550057Y-92812969D02*
X167502438Y-92765350D01*
X167502438Y-92765350D02*
X167454819Y-92670112D01*
X167454819Y-92670112D02*
X167454819Y-92432017D01*
X167454819Y-92432017D02*
X167502438Y-92336779D01*
X167502438Y-92336779D02*
X167550057Y-92289160D01*
X167550057Y-92289160D02*
X167645295Y-92241541D01*
X167645295Y-92241541D02*
X167740533Y-92241541D01*
X167740533Y-92241541D02*
X167883390Y-92289160D01*
X167883390Y-92289160D02*
X168454819Y-92860588D01*
X168454819Y-92860588D02*
X168454819Y-92241541D01*
X168454819Y-91765350D02*
X168454819Y-91574874D01*
X168454819Y-91574874D02*
X168407200Y-91479636D01*
X168407200Y-91479636D02*
X168359580Y-91432017D01*
X168359580Y-91432017D02*
X168216723Y-91336779D01*
X168216723Y-91336779D02*
X168026247Y-91289160D01*
X168026247Y-91289160D02*
X167645295Y-91289160D01*
X167645295Y-91289160D02*
X167550057Y-91336779D01*
X167550057Y-91336779D02*
X167502438Y-91384398D01*
X167502438Y-91384398D02*
X167454819Y-91479636D01*
X167454819Y-91479636D02*
X167454819Y-91670112D01*
X167454819Y-91670112D02*
X167502438Y-91765350D01*
X167502438Y-91765350D02*
X167550057Y-91812969D01*
X167550057Y-91812969D02*
X167645295Y-91860588D01*
X167645295Y-91860588D02*
X167883390Y-91860588D01*
X167883390Y-91860588D02*
X167978628Y-91812969D01*
X167978628Y-91812969D02*
X168026247Y-91765350D01*
X168026247Y-91765350D02*
X168073866Y-91670112D01*
X168073866Y-91670112D02*
X168073866Y-91479636D01*
X168073866Y-91479636D02*
X168026247Y-91384398D01*
X168026247Y-91384398D02*
X167978628Y-91336779D01*
X167978628Y-91336779D02*
X167883390Y-91289160D01*
X171204819Y-84074422D02*
X170728628Y-84407755D01*
X171204819Y-84645850D02*
X170204819Y-84645850D01*
X170204819Y-84645850D02*
X170204819Y-84264898D01*
X170204819Y-84264898D02*
X170252438Y-84169660D01*
X170252438Y-84169660D02*
X170300057Y-84122041D01*
X170300057Y-84122041D02*
X170395295Y-84074422D01*
X170395295Y-84074422D02*
X170538152Y-84074422D01*
X170538152Y-84074422D02*
X170633390Y-84122041D01*
X170633390Y-84122041D02*
X170681009Y-84169660D01*
X170681009Y-84169660D02*
X170728628Y-84264898D01*
X170728628Y-84264898D02*
X170728628Y-84645850D01*
X171204819Y-83122041D02*
X171204819Y-83693469D01*
X171204819Y-83407755D02*
X170204819Y-83407755D01*
X170204819Y-83407755D02*
X170347676Y-83502993D01*
X170347676Y-83502993D02*
X170442914Y-83598231D01*
X170442914Y-83598231D02*
X170490533Y-83693469D01*
X170204819Y-82788707D02*
X170204819Y-82122041D01*
X170204819Y-82122041D02*
X171204819Y-82550612D01*
X173954819Y-84193922D02*
X173478628Y-84527255D01*
X173954819Y-84765350D02*
X172954819Y-84765350D01*
X172954819Y-84765350D02*
X172954819Y-84384398D01*
X172954819Y-84384398D02*
X173002438Y-84289160D01*
X173002438Y-84289160D02*
X173050057Y-84241541D01*
X173050057Y-84241541D02*
X173145295Y-84193922D01*
X173145295Y-84193922D02*
X173288152Y-84193922D01*
X173288152Y-84193922D02*
X173383390Y-84241541D01*
X173383390Y-84241541D02*
X173431009Y-84289160D01*
X173431009Y-84289160D02*
X173478628Y-84384398D01*
X173478628Y-84384398D02*
X173478628Y-84765350D01*
X173050057Y-83812969D02*
X173002438Y-83765350D01*
X173002438Y-83765350D02*
X172954819Y-83670112D01*
X172954819Y-83670112D02*
X172954819Y-83432017D01*
X172954819Y-83432017D02*
X173002438Y-83336779D01*
X173002438Y-83336779D02*
X173050057Y-83289160D01*
X173050057Y-83289160D02*
X173145295Y-83241541D01*
X173145295Y-83241541D02*
X173240533Y-83241541D01*
X173240533Y-83241541D02*
X173383390Y-83289160D01*
X173383390Y-83289160D02*
X173954819Y-83860588D01*
X173954819Y-83860588D02*
X173954819Y-83241541D01*
X173383390Y-82670112D02*
X173335771Y-82765350D01*
X173335771Y-82765350D02*
X173288152Y-82812969D01*
X173288152Y-82812969D02*
X173192914Y-82860588D01*
X173192914Y-82860588D02*
X173145295Y-82860588D01*
X173145295Y-82860588D02*
X173050057Y-82812969D01*
X173050057Y-82812969D02*
X173002438Y-82765350D01*
X173002438Y-82765350D02*
X172954819Y-82670112D01*
X172954819Y-82670112D02*
X172954819Y-82479636D01*
X172954819Y-82479636D02*
X173002438Y-82384398D01*
X173002438Y-82384398D02*
X173050057Y-82336779D01*
X173050057Y-82336779D02*
X173145295Y-82289160D01*
X173145295Y-82289160D02*
X173192914Y-82289160D01*
X173192914Y-82289160D02*
X173288152Y-82336779D01*
X173288152Y-82336779D02*
X173335771Y-82384398D01*
X173335771Y-82384398D02*
X173383390Y-82479636D01*
X173383390Y-82479636D02*
X173383390Y-82670112D01*
X173383390Y-82670112D02*
X173431009Y-82765350D01*
X173431009Y-82765350D02*
X173478628Y-82812969D01*
X173478628Y-82812969D02*
X173573866Y-82860588D01*
X173573866Y-82860588D02*
X173764342Y-82860588D01*
X173764342Y-82860588D02*
X173859580Y-82812969D01*
X173859580Y-82812969D02*
X173907200Y-82765350D01*
X173907200Y-82765350D02*
X173954819Y-82670112D01*
X173954819Y-82670112D02*
X173954819Y-82479636D01*
X173954819Y-82479636D02*
X173907200Y-82384398D01*
X173907200Y-82384398D02*
X173859580Y-82336779D01*
X173859580Y-82336779D02*
X173764342Y-82289160D01*
X173764342Y-82289160D02*
X173573866Y-82289160D01*
X173573866Y-82289160D02*
X173478628Y-82336779D01*
X173478628Y-82336779D02*
X173431009Y-82384398D01*
X173431009Y-82384398D02*
X173383390Y-82479636D01*
X149228095Y-68954819D02*
X149228095Y-69764342D01*
X149228095Y-69764342D02*
X149275714Y-69859580D01*
X149275714Y-69859580D02*
X149323333Y-69907200D01*
X149323333Y-69907200D02*
X149418571Y-69954819D01*
X149418571Y-69954819D02*
X149609047Y-69954819D01*
X149609047Y-69954819D02*
X149704285Y-69907200D01*
X149704285Y-69907200D02*
X149751904Y-69859580D01*
X149751904Y-69859580D02*
X149799523Y-69764342D01*
X149799523Y-69764342D02*
X149799523Y-68954819D01*
X150228095Y-69050057D02*
X150275714Y-69002438D01*
X150275714Y-69002438D02*
X150370952Y-68954819D01*
X150370952Y-68954819D02*
X150609047Y-68954819D01*
X150609047Y-68954819D02*
X150704285Y-69002438D01*
X150704285Y-69002438D02*
X150751904Y-69050057D01*
X150751904Y-69050057D02*
X150799523Y-69145295D01*
X150799523Y-69145295D02*
X150799523Y-69240533D01*
X150799523Y-69240533D02*
X150751904Y-69383390D01*
X150751904Y-69383390D02*
X150180476Y-69954819D01*
X150180476Y-69954819D02*
X150799523Y-69954819D01*
X129704819Y-51661292D02*
X129228628Y-51994625D01*
X129704819Y-52232720D02*
X128704819Y-52232720D01*
X128704819Y-52232720D02*
X128704819Y-51851768D01*
X128704819Y-51851768D02*
X128752438Y-51756530D01*
X128752438Y-51756530D02*
X128800057Y-51708911D01*
X128800057Y-51708911D02*
X128895295Y-51661292D01*
X128895295Y-51661292D02*
X129038152Y-51661292D01*
X129038152Y-51661292D02*
X129133390Y-51708911D01*
X129133390Y-51708911D02*
X129181009Y-51756530D01*
X129181009Y-51756530D02*
X129228628Y-51851768D01*
X129228628Y-51851768D02*
X129228628Y-52232720D01*
X128800057Y-51280339D02*
X128752438Y-51232720D01*
X128752438Y-51232720D02*
X128704819Y-51137482D01*
X128704819Y-51137482D02*
X128704819Y-50899387D01*
X128704819Y-50899387D02*
X128752438Y-50804149D01*
X128752438Y-50804149D02*
X128800057Y-50756530D01*
X128800057Y-50756530D02*
X128895295Y-50708911D01*
X128895295Y-50708911D02*
X128990533Y-50708911D01*
X128990533Y-50708911D02*
X129133390Y-50756530D01*
X129133390Y-50756530D02*
X129704819Y-51327958D01*
X129704819Y-51327958D02*
X129704819Y-50708911D01*
X165704819Y-101944422D02*
X165228628Y-102277755D01*
X165704819Y-102515850D02*
X164704819Y-102515850D01*
X164704819Y-102515850D02*
X164704819Y-102134898D01*
X164704819Y-102134898D02*
X164752438Y-102039660D01*
X164752438Y-102039660D02*
X164800057Y-101992041D01*
X164800057Y-101992041D02*
X164895295Y-101944422D01*
X164895295Y-101944422D02*
X165038152Y-101944422D01*
X165038152Y-101944422D02*
X165133390Y-101992041D01*
X165133390Y-101992041D02*
X165181009Y-102039660D01*
X165181009Y-102039660D02*
X165228628Y-102134898D01*
X165228628Y-102134898D02*
X165228628Y-102515850D01*
X164704819Y-101611088D02*
X164704819Y-100992041D01*
X164704819Y-100992041D02*
X165085771Y-101325374D01*
X165085771Y-101325374D02*
X165085771Y-101182517D01*
X165085771Y-101182517D02*
X165133390Y-101087279D01*
X165133390Y-101087279D02*
X165181009Y-101039660D01*
X165181009Y-101039660D02*
X165276247Y-100992041D01*
X165276247Y-100992041D02*
X165514342Y-100992041D01*
X165514342Y-100992041D02*
X165609580Y-101039660D01*
X165609580Y-101039660D02*
X165657200Y-101087279D01*
X165657200Y-101087279D02*
X165704819Y-101182517D01*
X165704819Y-101182517D02*
X165704819Y-101468231D01*
X165704819Y-101468231D02*
X165657200Y-101563469D01*
X165657200Y-101563469D02*
X165609580Y-101611088D01*
X164800057Y-100611088D02*
X164752438Y-100563469D01*
X164752438Y-100563469D02*
X164704819Y-100468231D01*
X164704819Y-100468231D02*
X164704819Y-100230136D01*
X164704819Y-100230136D02*
X164752438Y-100134898D01*
X164752438Y-100134898D02*
X164800057Y-100087279D01*
X164800057Y-100087279D02*
X164895295Y-100039660D01*
X164895295Y-100039660D02*
X164990533Y-100039660D01*
X164990533Y-100039660D02*
X165133390Y-100087279D01*
X165133390Y-100087279D02*
X165704819Y-100658707D01*
X165704819Y-100658707D02*
X165704819Y-100039660D01*
X147109579Y-53986166D02*
X147157199Y-54033785D01*
X147157199Y-54033785D02*
X147204818Y-54176642D01*
X147204818Y-54176642D02*
X147204818Y-54271880D01*
X147204818Y-54271880D02*
X147157199Y-54414737D01*
X147157199Y-54414737D02*
X147061960Y-54509975D01*
X147061960Y-54509975D02*
X146966722Y-54557594D01*
X146966722Y-54557594D02*
X146776246Y-54605213D01*
X146776246Y-54605213D02*
X146633389Y-54605213D01*
X146633389Y-54605213D02*
X146442913Y-54557594D01*
X146442913Y-54557594D02*
X146347675Y-54509975D01*
X146347675Y-54509975D02*
X146252437Y-54414737D01*
X146252437Y-54414737D02*
X146204818Y-54271880D01*
X146204818Y-54271880D02*
X146204818Y-54176642D01*
X146204818Y-54176642D02*
X146252437Y-54033785D01*
X146252437Y-54033785D02*
X146300056Y-53986166D01*
X147204818Y-53033785D02*
X147204818Y-53605213D01*
X147204818Y-53319499D02*
X146204818Y-53319499D01*
X146204818Y-53319499D02*
X146347675Y-53414737D01*
X146347675Y-53414737D02*
X146442913Y-53509975D01*
X146442913Y-53509975D02*
X146490532Y-53605213D01*
X142454817Y-113095238D02*
X141978626Y-113428571D01*
X142454817Y-113666666D02*
X141454817Y-113666666D01*
X141454817Y-113666666D02*
X141454817Y-113285714D01*
X141454817Y-113285714D02*
X141502436Y-113190476D01*
X141502436Y-113190476D02*
X141550055Y-113142857D01*
X141550055Y-113142857D02*
X141645293Y-113095238D01*
X141645293Y-113095238D02*
X141788150Y-113095238D01*
X141788150Y-113095238D02*
X141883388Y-113142857D01*
X141883388Y-113142857D02*
X141931007Y-113190476D01*
X141931007Y-113190476D02*
X141978626Y-113285714D01*
X141978626Y-113285714D02*
X141978626Y-113666666D01*
X141454817Y-112809523D02*
X142454817Y-112476190D01*
X142454817Y-112476190D02*
X141454817Y-112142857D01*
X142454817Y-111285714D02*
X142454817Y-111857142D01*
X142454817Y-111571428D02*
X141454817Y-111571428D01*
X141454817Y-111571428D02*
X141597674Y-111666666D01*
X141597674Y-111666666D02*
X141692912Y-111761904D01*
X141692912Y-111761904D02*
X141740531Y-111857142D01*
X159107142Y-93109579D02*
X159059523Y-93157199D01*
X159059523Y-93157199D02*
X158916666Y-93204818D01*
X158916666Y-93204818D02*
X158821428Y-93204818D01*
X158821428Y-93204818D02*
X158678571Y-93157199D01*
X158678571Y-93157199D02*
X158583333Y-93061960D01*
X158583333Y-93061960D02*
X158535714Y-92966722D01*
X158535714Y-92966722D02*
X158488095Y-92776246D01*
X158488095Y-92776246D02*
X158488095Y-92633389D01*
X158488095Y-92633389D02*
X158535714Y-92442913D01*
X158535714Y-92442913D02*
X158583333Y-92347675D01*
X158583333Y-92347675D02*
X158678571Y-92252437D01*
X158678571Y-92252437D02*
X158821428Y-92204818D01*
X158821428Y-92204818D02*
X158916666Y-92204818D01*
X158916666Y-92204818D02*
X159059523Y-92252437D01*
X159059523Y-92252437D02*
X159107142Y-92300056D01*
X159488095Y-92300056D02*
X159535714Y-92252437D01*
X159535714Y-92252437D02*
X159630952Y-92204818D01*
X159630952Y-92204818D02*
X159869047Y-92204818D01*
X159869047Y-92204818D02*
X159964285Y-92252437D01*
X159964285Y-92252437D02*
X160011904Y-92300056D01*
X160011904Y-92300056D02*
X160059523Y-92395294D01*
X160059523Y-92395294D02*
X160059523Y-92490532D01*
X160059523Y-92490532D02*
X160011904Y-92633389D01*
X160011904Y-92633389D02*
X159440476Y-93204818D01*
X159440476Y-93204818D02*
X160059523Y-93204818D01*
X161011904Y-93204818D02*
X160440476Y-93204818D01*
X160726190Y-93204818D02*
X160726190Y-92204818D01*
X160726190Y-92204818D02*
X160630952Y-92347675D01*
X160630952Y-92347675D02*
X160535714Y-92442913D01*
X160535714Y-92442913D02*
X160440476Y-92490532D01*
X139557143Y-96359579D02*
X139509524Y-96407199D01*
X139509524Y-96407199D02*
X139366667Y-96454818D01*
X139366667Y-96454818D02*
X139271429Y-96454818D01*
X139271429Y-96454818D02*
X139128572Y-96407199D01*
X139128572Y-96407199D02*
X139033334Y-96311960D01*
X139033334Y-96311960D02*
X138985715Y-96216722D01*
X138985715Y-96216722D02*
X138938096Y-96026246D01*
X138938096Y-96026246D02*
X138938096Y-95883389D01*
X138938096Y-95883389D02*
X138985715Y-95692913D01*
X138985715Y-95692913D02*
X139033334Y-95597675D01*
X139033334Y-95597675D02*
X139128572Y-95502437D01*
X139128572Y-95502437D02*
X139271429Y-95454818D01*
X139271429Y-95454818D02*
X139366667Y-95454818D01*
X139366667Y-95454818D02*
X139509524Y-95502437D01*
X139509524Y-95502437D02*
X139557143Y-95550056D01*
X139938096Y-95550056D02*
X139985715Y-95502437D01*
X139985715Y-95502437D02*
X140080953Y-95454818D01*
X140080953Y-95454818D02*
X140319048Y-95454818D01*
X140319048Y-95454818D02*
X140414286Y-95502437D01*
X140414286Y-95502437D02*
X140461905Y-95550056D01*
X140461905Y-95550056D02*
X140509524Y-95645294D01*
X140509524Y-95645294D02*
X140509524Y-95740532D01*
X140509524Y-95740532D02*
X140461905Y-95883389D01*
X140461905Y-95883389D02*
X139890477Y-96454818D01*
X139890477Y-96454818D02*
X140509524Y-96454818D01*
X141128572Y-95454818D02*
X141223810Y-95454818D01*
X141223810Y-95454818D02*
X141319048Y-95502437D01*
X141319048Y-95502437D02*
X141366667Y-95550056D01*
X141366667Y-95550056D02*
X141414286Y-95645294D01*
X141414286Y-95645294D02*
X141461905Y-95835770D01*
X141461905Y-95835770D02*
X141461905Y-96073865D01*
X141461905Y-96073865D02*
X141414286Y-96264341D01*
X141414286Y-96264341D02*
X141366667Y-96359579D01*
X141366667Y-96359579D02*
X141319048Y-96407199D01*
X141319048Y-96407199D02*
X141223810Y-96454818D01*
X141223810Y-96454818D02*
X141128572Y-96454818D01*
X141128572Y-96454818D02*
X141033334Y-96407199D01*
X141033334Y-96407199D02*
X140985715Y-96359579D01*
X140985715Y-96359579D02*
X140938096Y-96264341D01*
X140938096Y-96264341D02*
X140890477Y-96073865D01*
X140890477Y-96073865D02*
X140890477Y-95835770D01*
X140890477Y-95835770D02*
X140938096Y-95645294D01*
X140938096Y-95645294D02*
X140985715Y-95550056D01*
X140985715Y-95550056D02*
X141033334Y-95502437D01*
X141033334Y-95502437D02*
X141128572Y-95454818D01*
X129454819Y-101672318D02*
X128978628Y-102005651D01*
X129454819Y-102243746D02*
X128454819Y-102243746D01*
X128454819Y-102243746D02*
X128454819Y-101862794D01*
X128454819Y-101862794D02*
X128502438Y-101767556D01*
X128502438Y-101767556D02*
X128550057Y-101719937D01*
X128550057Y-101719937D02*
X128645295Y-101672318D01*
X128645295Y-101672318D02*
X128788152Y-101672318D01*
X128788152Y-101672318D02*
X128883390Y-101719937D01*
X128883390Y-101719937D02*
X128931009Y-101767556D01*
X128931009Y-101767556D02*
X128978628Y-101862794D01*
X128978628Y-101862794D02*
X128978628Y-102243746D01*
X128550057Y-101291365D02*
X128502438Y-101243746D01*
X128502438Y-101243746D02*
X128454819Y-101148508D01*
X128454819Y-101148508D02*
X128454819Y-100910413D01*
X128454819Y-100910413D02*
X128502438Y-100815175D01*
X128502438Y-100815175D02*
X128550057Y-100767556D01*
X128550057Y-100767556D02*
X128645295Y-100719937D01*
X128645295Y-100719937D02*
X128740533Y-100719937D01*
X128740533Y-100719937D02*
X128883390Y-100767556D01*
X128883390Y-100767556D02*
X129454819Y-101338984D01*
X129454819Y-101338984D02*
X129454819Y-100719937D01*
X128454819Y-99815175D02*
X128454819Y-100291365D01*
X128454819Y-100291365D02*
X128931009Y-100338984D01*
X128931009Y-100338984D02*
X128883390Y-100291365D01*
X128883390Y-100291365D02*
X128835771Y-100196127D01*
X128835771Y-100196127D02*
X128835771Y-99958032D01*
X128835771Y-99958032D02*
X128883390Y-99862794D01*
X128883390Y-99862794D02*
X128931009Y-99815175D01*
X128931009Y-99815175D02*
X129026247Y-99767556D01*
X129026247Y-99767556D02*
X129264342Y-99767556D01*
X129264342Y-99767556D02*
X129359580Y-99815175D01*
X129359580Y-99815175D02*
X129407200Y-99862794D01*
X129407200Y-99862794D02*
X129454819Y-99958032D01*
X129454819Y-99958032D02*
X129454819Y-100196127D01*
X129454819Y-100196127D02*
X129407200Y-100291365D01*
X129407200Y-100291365D02*
X129359580Y-100338984D01*
X140033334Y-77109581D02*
X139985715Y-77157201D01*
X139985715Y-77157201D02*
X139842858Y-77204820D01*
X139842858Y-77204820D02*
X139747620Y-77204820D01*
X139747620Y-77204820D02*
X139604763Y-77157201D01*
X139604763Y-77157201D02*
X139509525Y-77061962D01*
X139509525Y-77061962D02*
X139461906Y-76966724D01*
X139461906Y-76966724D02*
X139414287Y-76776248D01*
X139414287Y-76776248D02*
X139414287Y-76633391D01*
X139414287Y-76633391D02*
X139461906Y-76442915D01*
X139461906Y-76442915D02*
X139509525Y-76347677D01*
X139509525Y-76347677D02*
X139604763Y-76252439D01*
X139604763Y-76252439D02*
X139747620Y-76204820D01*
X139747620Y-76204820D02*
X139842858Y-76204820D01*
X139842858Y-76204820D02*
X139985715Y-76252439D01*
X139985715Y-76252439D02*
X140033334Y-76300058D01*
X140509525Y-77204820D02*
X140700001Y-77204820D01*
X140700001Y-77204820D02*
X140795239Y-77157201D01*
X140795239Y-77157201D02*
X140842858Y-77109581D01*
X140842858Y-77109581D02*
X140938096Y-76966724D01*
X140938096Y-76966724D02*
X140985715Y-76776248D01*
X140985715Y-76776248D02*
X140985715Y-76395296D01*
X140985715Y-76395296D02*
X140938096Y-76300058D01*
X140938096Y-76300058D02*
X140890477Y-76252439D01*
X140890477Y-76252439D02*
X140795239Y-76204820D01*
X140795239Y-76204820D02*
X140604763Y-76204820D01*
X140604763Y-76204820D02*
X140509525Y-76252439D01*
X140509525Y-76252439D02*
X140461906Y-76300058D01*
X140461906Y-76300058D02*
X140414287Y-76395296D01*
X140414287Y-76395296D02*
X140414287Y-76633391D01*
X140414287Y-76633391D02*
X140461906Y-76728629D01*
X140461906Y-76728629D02*
X140509525Y-76776248D01*
X140509525Y-76776248D02*
X140604763Y-76823867D01*
X140604763Y-76823867D02*
X140795239Y-76823867D01*
X140795239Y-76823867D02*
X140890477Y-76776248D01*
X140890477Y-76776248D02*
X140938096Y-76728629D01*
X140938096Y-76728629D02*
X140985715Y-76633391D01*
X142454817Y-133095238D02*
X141978626Y-133428571D01*
X142454817Y-133666666D02*
X141454817Y-133666666D01*
X141454817Y-133666666D02*
X141454817Y-133285714D01*
X141454817Y-133285714D02*
X141502436Y-133190476D01*
X141502436Y-133190476D02*
X141550055Y-133142857D01*
X141550055Y-133142857D02*
X141645293Y-133095238D01*
X141645293Y-133095238D02*
X141788150Y-133095238D01*
X141788150Y-133095238D02*
X141883388Y-133142857D01*
X141883388Y-133142857D02*
X141931007Y-133190476D01*
X141931007Y-133190476D02*
X141978626Y-133285714D01*
X141978626Y-133285714D02*
X141978626Y-133666666D01*
X141454817Y-132809523D02*
X142454817Y-132476190D01*
X142454817Y-132476190D02*
X141454817Y-132142857D01*
X141454817Y-131904761D02*
X141454817Y-131285714D01*
X141454817Y-131285714D02*
X141835769Y-131619047D01*
X141835769Y-131619047D02*
X141835769Y-131476190D01*
X141835769Y-131476190D02*
X141883388Y-131380952D01*
X141883388Y-131380952D02*
X141931007Y-131333333D01*
X141931007Y-131333333D02*
X142026245Y-131285714D01*
X142026245Y-131285714D02*
X142264340Y-131285714D01*
X142264340Y-131285714D02*
X142359578Y-131333333D01*
X142359578Y-131333333D02*
X142407198Y-131380952D01*
X142407198Y-131380952D02*
X142454817Y-131476190D01*
X142454817Y-131476190D02*
X142454817Y-131761904D01*
X142454817Y-131761904D02*
X142407198Y-131857142D01*
X142407198Y-131857142D02*
X142359578Y-131904761D01*
X165704819Y-69622041D02*
X165228628Y-69955374D01*
X165704819Y-70193469D02*
X164704819Y-70193469D01*
X164704819Y-70193469D02*
X164704819Y-69812517D01*
X164704819Y-69812517D02*
X164752438Y-69717279D01*
X164752438Y-69717279D02*
X164800057Y-69669660D01*
X164800057Y-69669660D02*
X164895295Y-69622041D01*
X164895295Y-69622041D02*
X165038152Y-69622041D01*
X165038152Y-69622041D02*
X165133390Y-69669660D01*
X165133390Y-69669660D02*
X165181009Y-69717279D01*
X165181009Y-69717279D02*
X165228628Y-69812517D01*
X165228628Y-69812517D02*
X165228628Y-70193469D01*
X165704819Y-69145850D02*
X165704819Y-68955374D01*
X165704819Y-68955374D02*
X165657200Y-68860136D01*
X165657200Y-68860136D02*
X165609580Y-68812517D01*
X165609580Y-68812517D02*
X165466723Y-68717279D01*
X165466723Y-68717279D02*
X165276247Y-68669660D01*
X165276247Y-68669660D02*
X164895295Y-68669660D01*
X164895295Y-68669660D02*
X164800057Y-68717279D01*
X164800057Y-68717279D02*
X164752438Y-68764898D01*
X164752438Y-68764898D02*
X164704819Y-68860136D01*
X164704819Y-68860136D02*
X164704819Y-69050612D01*
X164704819Y-69050612D02*
X164752438Y-69145850D01*
X164752438Y-69145850D02*
X164800057Y-69193469D01*
X164800057Y-69193469D02*
X164895295Y-69241088D01*
X164895295Y-69241088D02*
X165133390Y-69241088D01*
X165133390Y-69241088D02*
X165228628Y-69193469D01*
X165228628Y-69193469D02*
X165276247Y-69145850D01*
X165276247Y-69145850D02*
X165323866Y-69050612D01*
X165323866Y-69050612D02*
X165323866Y-68860136D01*
X165323866Y-68860136D02*
X165276247Y-68764898D01*
X165276247Y-68764898D02*
X165228628Y-68717279D01*
X165228628Y-68717279D02*
X165133390Y-68669660D01*
X173954819Y-93194422D02*
X173478628Y-93527755D01*
X173954819Y-93765850D02*
X172954819Y-93765850D01*
X172954819Y-93765850D02*
X172954819Y-93384898D01*
X172954819Y-93384898D02*
X173002438Y-93289660D01*
X173002438Y-93289660D02*
X173050057Y-93242041D01*
X173050057Y-93242041D02*
X173145295Y-93194422D01*
X173145295Y-93194422D02*
X173288152Y-93194422D01*
X173288152Y-93194422D02*
X173383390Y-93242041D01*
X173383390Y-93242041D02*
X173431009Y-93289660D01*
X173431009Y-93289660D02*
X173478628Y-93384898D01*
X173478628Y-93384898D02*
X173478628Y-93765850D01*
X172954819Y-92861088D02*
X172954819Y-92242041D01*
X172954819Y-92242041D02*
X173335771Y-92575374D01*
X173335771Y-92575374D02*
X173335771Y-92432517D01*
X173335771Y-92432517D02*
X173383390Y-92337279D01*
X173383390Y-92337279D02*
X173431009Y-92289660D01*
X173431009Y-92289660D02*
X173526247Y-92242041D01*
X173526247Y-92242041D02*
X173764342Y-92242041D01*
X173764342Y-92242041D02*
X173859580Y-92289660D01*
X173859580Y-92289660D02*
X173907200Y-92337279D01*
X173907200Y-92337279D02*
X173954819Y-92432517D01*
X173954819Y-92432517D02*
X173954819Y-92718231D01*
X173954819Y-92718231D02*
X173907200Y-92813469D01*
X173907200Y-92813469D02*
X173859580Y-92861088D01*
X173954819Y-91289660D02*
X173954819Y-91861088D01*
X173954819Y-91575374D02*
X172954819Y-91575374D01*
X172954819Y-91575374D02*
X173097676Y-91670612D01*
X173097676Y-91670612D02*
X173192914Y-91765850D01*
X173192914Y-91765850D02*
X173240533Y-91861088D01*
X132884761Y-95660057D02*
X132789523Y-95612438D01*
X132789523Y-95612438D02*
X132694285Y-95517200D01*
X132694285Y-95517200D02*
X132551428Y-95374342D01*
X132551428Y-95374342D02*
X132456190Y-95326723D01*
X132456190Y-95326723D02*
X132360952Y-95326723D01*
X132408571Y-95564819D02*
X132313333Y-95517200D01*
X132313333Y-95517200D02*
X132218095Y-95421961D01*
X132218095Y-95421961D02*
X132170476Y-95231485D01*
X132170476Y-95231485D02*
X132170476Y-94898152D01*
X132170476Y-94898152D02*
X132218095Y-94707676D01*
X132218095Y-94707676D02*
X132313333Y-94612438D01*
X132313333Y-94612438D02*
X132408571Y-94564819D01*
X132408571Y-94564819D02*
X132599047Y-94564819D01*
X132599047Y-94564819D02*
X132694285Y-94612438D01*
X132694285Y-94612438D02*
X132789523Y-94707676D01*
X132789523Y-94707676D02*
X132837142Y-94898152D01*
X132837142Y-94898152D02*
X132837142Y-95231485D01*
X132837142Y-95231485D02*
X132789523Y-95421961D01*
X132789523Y-95421961D02*
X132694285Y-95517200D01*
X132694285Y-95517200D02*
X132599047Y-95564819D01*
X132599047Y-95564819D02*
X132408571Y-95564819D01*
X133789523Y-95564819D02*
X133218095Y-95564819D01*
X133503809Y-95564819D02*
X133503809Y-94564819D01*
X133503809Y-94564819D02*
X133408571Y-94707676D01*
X133408571Y-94707676D02*
X133313333Y-94802914D01*
X133313333Y-94802914D02*
X133218095Y-94850533D01*
X167261905Y-137234819D02*
X167261905Y-136234819D01*
X167261905Y-136234819D02*
X167500000Y-136234819D01*
X167500000Y-136234819D02*
X167642857Y-136282438D01*
X167642857Y-136282438D02*
X167738095Y-136377676D01*
X167738095Y-136377676D02*
X167785714Y-136472914D01*
X167785714Y-136472914D02*
X167833333Y-136663390D01*
X167833333Y-136663390D02*
X167833333Y-136806247D01*
X167833333Y-136806247D02*
X167785714Y-136996723D01*
X167785714Y-136996723D02*
X167738095Y-137091961D01*
X167738095Y-137091961D02*
X167642857Y-137187200D01*
X167642857Y-137187200D02*
X167500000Y-137234819D01*
X167500000Y-137234819D02*
X167261905Y-137234819D01*
X168690476Y-136234819D02*
X168500000Y-136234819D01*
X168500000Y-136234819D02*
X168404762Y-136282438D01*
X168404762Y-136282438D02*
X168357143Y-136330057D01*
X168357143Y-136330057D02*
X168261905Y-136472914D01*
X168261905Y-136472914D02*
X168214286Y-136663390D01*
X168214286Y-136663390D02*
X168214286Y-137044342D01*
X168214286Y-137044342D02*
X168261905Y-137139580D01*
X168261905Y-137139580D02*
X168309524Y-137187200D01*
X168309524Y-137187200D02*
X168404762Y-137234819D01*
X168404762Y-137234819D02*
X168595238Y-137234819D01*
X168595238Y-137234819D02*
X168690476Y-137187200D01*
X168690476Y-137187200D02*
X168738095Y-137139580D01*
X168738095Y-137139580D02*
X168785714Y-137044342D01*
X168785714Y-137044342D02*
X168785714Y-136806247D01*
X168785714Y-136806247D02*
X168738095Y-136711009D01*
X168738095Y-136711009D02*
X168690476Y-136663390D01*
X168690476Y-136663390D02*
X168595238Y-136615771D01*
X168595238Y-136615771D02*
X168404762Y-136615771D01*
X168404762Y-136615771D02*
X168309524Y-136663390D01*
X168309524Y-136663390D02*
X168261905Y-136711009D01*
X168261905Y-136711009D02*
X168214286Y-136806247D01*
X163928095Y-137804819D02*
X163928095Y-136804819D01*
X164499523Y-137804819D02*
X164070952Y-137233390D01*
X164499523Y-136804819D02*
X163928095Y-137376247D01*
X171204819Y-101944422D02*
X170728628Y-102277755D01*
X171204819Y-102515850D02*
X170204819Y-102515850D01*
X170204819Y-102515850D02*
X170204819Y-102134898D01*
X170204819Y-102134898D02*
X170252438Y-102039660D01*
X170252438Y-102039660D02*
X170300057Y-101992041D01*
X170300057Y-101992041D02*
X170395295Y-101944422D01*
X170395295Y-101944422D02*
X170538152Y-101944422D01*
X170538152Y-101944422D02*
X170633390Y-101992041D01*
X170633390Y-101992041D02*
X170681009Y-102039660D01*
X170681009Y-102039660D02*
X170728628Y-102134898D01*
X170728628Y-102134898D02*
X170728628Y-102515850D01*
X170204819Y-101611088D02*
X170204819Y-100992041D01*
X170204819Y-100992041D02*
X170585771Y-101325374D01*
X170585771Y-101325374D02*
X170585771Y-101182517D01*
X170585771Y-101182517D02*
X170633390Y-101087279D01*
X170633390Y-101087279D02*
X170681009Y-101039660D01*
X170681009Y-101039660D02*
X170776247Y-100992041D01*
X170776247Y-100992041D02*
X171014342Y-100992041D01*
X171014342Y-100992041D02*
X171109580Y-101039660D01*
X171109580Y-101039660D02*
X171157200Y-101087279D01*
X171157200Y-101087279D02*
X171204819Y-101182517D01*
X171204819Y-101182517D02*
X171204819Y-101468231D01*
X171204819Y-101468231D02*
X171157200Y-101563469D01*
X171157200Y-101563469D02*
X171109580Y-101611088D01*
X170204819Y-100658707D02*
X170204819Y-100039660D01*
X170204819Y-100039660D02*
X170585771Y-100372993D01*
X170585771Y-100372993D02*
X170585771Y-100230136D01*
X170585771Y-100230136D02*
X170633390Y-100134898D01*
X170633390Y-100134898D02*
X170681009Y-100087279D01*
X170681009Y-100087279D02*
X170776247Y-100039660D01*
X170776247Y-100039660D02*
X171014342Y-100039660D01*
X171014342Y-100039660D02*
X171109580Y-100087279D01*
X171109580Y-100087279D02*
X171157200Y-100134898D01*
X171157200Y-100134898D02*
X171204819Y-100230136D01*
X171204819Y-100230136D02*
X171204819Y-100515850D01*
X171204819Y-100515850D02*
X171157200Y-100611088D01*
X171157200Y-100611088D02*
X171109580Y-100658707D01*
X159107142Y-89859581D02*
X159059523Y-89907201D01*
X159059523Y-89907201D02*
X158916666Y-89954820D01*
X158916666Y-89954820D02*
X158821428Y-89954820D01*
X158821428Y-89954820D02*
X158678571Y-89907201D01*
X158678571Y-89907201D02*
X158583333Y-89811962D01*
X158583333Y-89811962D02*
X158535714Y-89716724D01*
X158535714Y-89716724D02*
X158488095Y-89526248D01*
X158488095Y-89526248D02*
X158488095Y-89383391D01*
X158488095Y-89383391D02*
X158535714Y-89192915D01*
X158535714Y-89192915D02*
X158583333Y-89097677D01*
X158583333Y-89097677D02*
X158678571Y-89002439D01*
X158678571Y-89002439D02*
X158821428Y-88954820D01*
X158821428Y-88954820D02*
X158916666Y-88954820D01*
X158916666Y-88954820D02*
X159059523Y-89002439D01*
X159059523Y-89002439D02*
X159107142Y-89050058D01*
X160059523Y-89954820D02*
X159488095Y-89954820D01*
X159773809Y-89954820D02*
X159773809Y-88954820D01*
X159773809Y-88954820D02*
X159678571Y-89097677D01*
X159678571Y-89097677D02*
X159583333Y-89192915D01*
X159583333Y-89192915D02*
X159488095Y-89240534D01*
X160630952Y-89383391D02*
X160535714Y-89335772D01*
X160535714Y-89335772D02*
X160488095Y-89288153D01*
X160488095Y-89288153D02*
X160440476Y-89192915D01*
X160440476Y-89192915D02*
X160440476Y-89145296D01*
X160440476Y-89145296D02*
X160488095Y-89050058D01*
X160488095Y-89050058D02*
X160535714Y-89002439D01*
X160535714Y-89002439D02*
X160630952Y-88954820D01*
X160630952Y-88954820D02*
X160821428Y-88954820D01*
X160821428Y-88954820D02*
X160916666Y-89002439D01*
X160916666Y-89002439D02*
X160964285Y-89050058D01*
X160964285Y-89050058D02*
X161011904Y-89145296D01*
X161011904Y-89145296D02*
X161011904Y-89192915D01*
X161011904Y-89192915D02*
X160964285Y-89288153D01*
X160964285Y-89288153D02*
X160916666Y-89335772D01*
X160916666Y-89335772D02*
X160821428Y-89383391D01*
X160821428Y-89383391D02*
X160630952Y-89383391D01*
X160630952Y-89383391D02*
X160535714Y-89431010D01*
X160535714Y-89431010D02*
X160488095Y-89478629D01*
X160488095Y-89478629D02*
X160440476Y-89573867D01*
X160440476Y-89573867D02*
X160440476Y-89764343D01*
X160440476Y-89764343D02*
X160488095Y-89859581D01*
X160488095Y-89859581D02*
X160535714Y-89907201D01*
X160535714Y-89907201D02*
X160630952Y-89954820D01*
X160630952Y-89954820D02*
X160821428Y-89954820D01*
X160821428Y-89954820D02*
X160916666Y-89907201D01*
X160916666Y-89907201D02*
X160964285Y-89859581D01*
X160964285Y-89859581D02*
X161011904Y-89764343D01*
X161011904Y-89764343D02*
X161011904Y-89573867D01*
X161011904Y-89573867D02*
X160964285Y-89478629D01*
X160964285Y-89478629D02*
X160916666Y-89431010D01*
X160916666Y-89431010D02*
X160821428Y-89383391D01*
X142306077Y-118204819D02*
X141972744Y-117728628D01*
X141734649Y-118204819D02*
X141734649Y-117204819D01*
X141734649Y-117204819D02*
X142115601Y-117204819D01*
X142115601Y-117204819D02*
X142210839Y-117252438D01*
X142210839Y-117252438D02*
X142258458Y-117300057D01*
X142258458Y-117300057D02*
X142306077Y-117395295D01*
X142306077Y-117395295D02*
X142306077Y-117538152D01*
X142306077Y-117538152D02*
X142258458Y-117633390D01*
X142258458Y-117633390D02*
X142210839Y-117681009D01*
X142210839Y-117681009D02*
X142115601Y-117728628D01*
X142115601Y-117728628D02*
X141734649Y-117728628D01*
X142687030Y-117300057D02*
X142734649Y-117252438D01*
X142734649Y-117252438D02*
X142829887Y-117204819D01*
X142829887Y-117204819D02*
X143067982Y-117204819D01*
X143067982Y-117204819D02*
X143163220Y-117252438D01*
X143163220Y-117252438D02*
X143210839Y-117300057D01*
X143210839Y-117300057D02*
X143258458Y-117395295D01*
X143258458Y-117395295D02*
X143258458Y-117490533D01*
X143258458Y-117490533D02*
X143210839Y-117633390D01*
X143210839Y-117633390D02*
X142639411Y-118204819D01*
X142639411Y-118204819D02*
X143258458Y-118204819D01*
X143591792Y-117204819D02*
X144258458Y-117204819D01*
X144258458Y-117204819D02*
X143829887Y-118204819D01*
X165704819Y-51661292D02*
X165228628Y-51994625D01*
X165704819Y-52232720D02*
X164704819Y-52232720D01*
X164704819Y-52232720D02*
X164704819Y-51851768D01*
X164704819Y-51851768D02*
X164752438Y-51756530D01*
X164752438Y-51756530D02*
X164800057Y-51708911D01*
X164800057Y-51708911D02*
X164895295Y-51661292D01*
X164895295Y-51661292D02*
X165038152Y-51661292D01*
X165038152Y-51661292D02*
X165133390Y-51708911D01*
X165133390Y-51708911D02*
X165181009Y-51756530D01*
X165181009Y-51756530D02*
X165228628Y-51851768D01*
X165228628Y-51851768D02*
X165228628Y-52232720D01*
X164704819Y-50756530D02*
X164704819Y-51232720D01*
X164704819Y-51232720D02*
X165181009Y-51280339D01*
X165181009Y-51280339D02*
X165133390Y-51232720D01*
X165133390Y-51232720D02*
X165085771Y-51137482D01*
X165085771Y-51137482D02*
X165085771Y-50899387D01*
X165085771Y-50899387D02*
X165133390Y-50804149D01*
X165133390Y-50804149D02*
X165181009Y-50756530D01*
X165181009Y-50756530D02*
X165276247Y-50708911D01*
X165276247Y-50708911D02*
X165514342Y-50708911D01*
X165514342Y-50708911D02*
X165609580Y-50756530D01*
X165609580Y-50756530D02*
X165657200Y-50804149D01*
X165657200Y-50804149D02*
X165704819Y-50899387D01*
X165704819Y-50899387D02*
X165704819Y-51137482D01*
X165704819Y-51137482D02*
X165657200Y-51232720D01*
X165657200Y-51232720D02*
X165609580Y-51280339D01*
X159158207Y-122954819D02*
X158824874Y-122478628D01*
X158586779Y-122954819D02*
X158586779Y-121954819D01*
X158586779Y-121954819D02*
X158967731Y-121954819D01*
X158967731Y-121954819D02*
X159062969Y-122002438D01*
X159062969Y-122002438D02*
X159110588Y-122050057D01*
X159110588Y-122050057D02*
X159158207Y-122145295D01*
X159158207Y-122145295D02*
X159158207Y-122288152D01*
X159158207Y-122288152D02*
X159110588Y-122383390D01*
X159110588Y-122383390D02*
X159062969Y-122431009D01*
X159062969Y-122431009D02*
X158967731Y-122478628D01*
X158967731Y-122478628D02*
X158586779Y-122478628D01*
X159539160Y-122050057D02*
X159586779Y-122002438D01*
X159586779Y-122002438D02*
X159682017Y-121954819D01*
X159682017Y-121954819D02*
X159920112Y-121954819D01*
X159920112Y-121954819D02*
X160015350Y-122002438D01*
X160015350Y-122002438D02*
X160062969Y-122050057D01*
X160062969Y-122050057D02*
X160110588Y-122145295D01*
X160110588Y-122145295D02*
X160110588Y-122240533D01*
X160110588Y-122240533D02*
X160062969Y-122383390D01*
X160062969Y-122383390D02*
X159491541Y-122954819D01*
X159491541Y-122954819D02*
X160110588Y-122954819D01*
X160491541Y-122050057D02*
X160539160Y-122002438D01*
X160539160Y-122002438D02*
X160634398Y-121954819D01*
X160634398Y-121954819D02*
X160872493Y-121954819D01*
X160872493Y-121954819D02*
X160967731Y-122002438D01*
X160967731Y-122002438D02*
X161015350Y-122050057D01*
X161015350Y-122050057D02*
X161062969Y-122145295D01*
X161062969Y-122145295D02*
X161062969Y-122240533D01*
X161062969Y-122240533D02*
X161015350Y-122383390D01*
X161015350Y-122383390D02*
X160443922Y-122954819D01*
X160443922Y-122954819D02*
X161062969Y-122954819D01*
X159107142Y-106109579D02*
X159059523Y-106157199D01*
X159059523Y-106157199D02*
X158916666Y-106204818D01*
X158916666Y-106204818D02*
X158821428Y-106204818D01*
X158821428Y-106204818D02*
X158678571Y-106157199D01*
X158678571Y-106157199D02*
X158583333Y-106061960D01*
X158583333Y-106061960D02*
X158535714Y-105966722D01*
X158535714Y-105966722D02*
X158488095Y-105776246D01*
X158488095Y-105776246D02*
X158488095Y-105633389D01*
X158488095Y-105633389D02*
X158535714Y-105442913D01*
X158535714Y-105442913D02*
X158583333Y-105347675D01*
X158583333Y-105347675D02*
X158678571Y-105252437D01*
X158678571Y-105252437D02*
X158821428Y-105204818D01*
X158821428Y-105204818D02*
X158916666Y-105204818D01*
X158916666Y-105204818D02*
X159059523Y-105252437D01*
X159059523Y-105252437D02*
X159107142Y-105300056D01*
X159488095Y-105300056D02*
X159535714Y-105252437D01*
X159535714Y-105252437D02*
X159630952Y-105204818D01*
X159630952Y-105204818D02*
X159869047Y-105204818D01*
X159869047Y-105204818D02*
X159964285Y-105252437D01*
X159964285Y-105252437D02*
X160011904Y-105300056D01*
X160011904Y-105300056D02*
X160059523Y-105395294D01*
X160059523Y-105395294D02*
X160059523Y-105490532D01*
X160059523Y-105490532D02*
X160011904Y-105633389D01*
X160011904Y-105633389D02*
X159440476Y-106204818D01*
X159440476Y-106204818D02*
X160059523Y-106204818D01*
X160440476Y-105300056D02*
X160488095Y-105252437D01*
X160488095Y-105252437D02*
X160583333Y-105204818D01*
X160583333Y-105204818D02*
X160821428Y-105204818D01*
X160821428Y-105204818D02*
X160916666Y-105252437D01*
X160916666Y-105252437D02*
X160964285Y-105300056D01*
X160964285Y-105300056D02*
X161011904Y-105395294D01*
X161011904Y-105395294D02*
X161011904Y-105490532D01*
X161011904Y-105490532D02*
X160964285Y-105633389D01*
X160964285Y-105633389D02*
X160392857Y-106204818D01*
X160392857Y-106204818D02*
X161011904Y-106204818D01*
X129454819Y-76563422D02*
X128978628Y-76896755D01*
X129454819Y-77134850D02*
X128454819Y-77134850D01*
X128454819Y-77134850D02*
X128454819Y-76753898D01*
X128454819Y-76753898D02*
X128502438Y-76658660D01*
X128502438Y-76658660D02*
X128550057Y-76611041D01*
X128550057Y-76611041D02*
X128645295Y-76563422D01*
X128645295Y-76563422D02*
X128788152Y-76563422D01*
X128788152Y-76563422D02*
X128883390Y-76611041D01*
X128883390Y-76611041D02*
X128931009Y-76658660D01*
X128931009Y-76658660D02*
X128978628Y-76753898D01*
X128978628Y-76753898D02*
X128978628Y-77134850D01*
X129454819Y-75611041D02*
X129454819Y-76182469D01*
X129454819Y-75896755D02*
X128454819Y-75896755D01*
X128454819Y-75896755D02*
X128597676Y-75991993D01*
X128597676Y-75991993D02*
X128692914Y-76087231D01*
X128692914Y-76087231D02*
X128740533Y-76182469D01*
X128788152Y-74753898D02*
X129454819Y-74753898D01*
X128407200Y-74991993D02*
X129121485Y-75230088D01*
X129121485Y-75230088D02*
X129121485Y-74611041D01*
X139557143Y-93109581D02*
X139509524Y-93157201D01*
X139509524Y-93157201D02*
X139366667Y-93204820D01*
X139366667Y-93204820D02*
X139271429Y-93204820D01*
X139271429Y-93204820D02*
X139128572Y-93157201D01*
X139128572Y-93157201D02*
X139033334Y-93061962D01*
X139033334Y-93061962D02*
X138985715Y-92966724D01*
X138985715Y-92966724D02*
X138938096Y-92776248D01*
X138938096Y-92776248D02*
X138938096Y-92633391D01*
X138938096Y-92633391D02*
X138985715Y-92442915D01*
X138985715Y-92442915D02*
X139033334Y-92347677D01*
X139033334Y-92347677D02*
X139128572Y-92252439D01*
X139128572Y-92252439D02*
X139271429Y-92204820D01*
X139271429Y-92204820D02*
X139366667Y-92204820D01*
X139366667Y-92204820D02*
X139509524Y-92252439D01*
X139509524Y-92252439D02*
X139557143Y-92300058D01*
X140509524Y-93204820D02*
X139938096Y-93204820D01*
X140223810Y-93204820D02*
X140223810Y-92204820D01*
X140223810Y-92204820D02*
X140128572Y-92347677D01*
X140128572Y-92347677D02*
X140033334Y-92442915D01*
X140033334Y-92442915D02*
X139938096Y-92490534D01*
X141461905Y-93204820D02*
X140890477Y-93204820D01*
X141176191Y-93204820D02*
X141176191Y-92204820D01*
X141176191Y-92204820D02*
X141080953Y-92347677D01*
X141080953Y-92347677D02*
X140985715Y-92442915D01*
X140985715Y-92442915D02*
X140890477Y-92490534D01*
X172283333Y-79109580D02*
X172235714Y-79157200D01*
X172235714Y-79157200D02*
X172092857Y-79204819D01*
X172092857Y-79204819D02*
X171997619Y-79204819D01*
X171997619Y-79204819D02*
X171854762Y-79157200D01*
X171854762Y-79157200D02*
X171759524Y-79061961D01*
X171759524Y-79061961D02*
X171711905Y-78966723D01*
X171711905Y-78966723D02*
X171664286Y-78776247D01*
X171664286Y-78776247D02*
X171664286Y-78633390D01*
X171664286Y-78633390D02*
X171711905Y-78442914D01*
X171711905Y-78442914D02*
X171759524Y-78347676D01*
X171759524Y-78347676D02*
X171854762Y-78252438D01*
X171854762Y-78252438D02*
X171997619Y-78204819D01*
X171997619Y-78204819D02*
X172092857Y-78204819D01*
X172092857Y-78204819D02*
X172235714Y-78252438D01*
X172235714Y-78252438D02*
X172283333Y-78300057D01*
X172616667Y-78204819D02*
X173283333Y-78204819D01*
X173283333Y-78204819D02*
X172854762Y-79204819D01*
X135204819Y-51661292D02*
X134728628Y-51994625D01*
X135204819Y-52232720D02*
X134204819Y-52232720D01*
X134204819Y-52232720D02*
X134204819Y-51851768D01*
X134204819Y-51851768D02*
X134252438Y-51756530D01*
X134252438Y-51756530D02*
X134300057Y-51708911D01*
X134300057Y-51708911D02*
X134395295Y-51661292D01*
X134395295Y-51661292D02*
X134538152Y-51661292D01*
X134538152Y-51661292D02*
X134633390Y-51708911D01*
X134633390Y-51708911D02*
X134681009Y-51756530D01*
X134681009Y-51756530D02*
X134728628Y-51851768D01*
X134728628Y-51851768D02*
X134728628Y-52232720D01*
X134633390Y-51089863D02*
X134585771Y-51185101D01*
X134585771Y-51185101D02*
X134538152Y-51232720D01*
X134538152Y-51232720D02*
X134442914Y-51280339D01*
X134442914Y-51280339D02*
X134395295Y-51280339D01*
X134395295Y-51280339D02*
X134300057Y-51232720D01*
X134300057Y-51232720D02*
X134252438Y-51185101D01*
X134252438Y-51185101D02*
X134204819Y-51089863D01*
X134204819Y-51089863D02*
X134204819Y-50899387D01*
X134204819Y-50899387D02*
X134252438Y-50804149D01*
X134252438Y-50804149D02*
X134300057Y-50756530D01*
X134300057Y-50756530D02*
X134395295Y-50708911D01*
X134395295Y-50708911D02*
X134442914Y-50708911D01*
X134442914Y-50708911D02*
X134538152Y-50756530D01*
X134538152Y-50756530D02*
X134585771Y-50804149D01*
X134585771Y-50804149D02*
X134633390Y-50899387D01*
X134633390Y-50899387D02*
X134633390Y-51089863D01*
X134633390Y-51089863D02*
X134681009Y-51185101D01*
X134681009Y-51185101D02*
X134728628Y-51232720D01*
X134728628Y-51232720D02*
X134823866Y-51280339D01*
X134823866Y-51280339D02*
X135014342Y-51280339D01*
X135014342Y-51280339D02*
X135109580Y-51232720D01*
X135109580Y-51232720D02*
X135157200Y-51185101D01*
X135157200Y-51185101D02*
X135204819Y-51089863D01*
X135204819Y-51089863D02*
X135204819Y-50899387D01*
X135204819Y-50899387D02*
X135157200Y-50804149D01*
X135157200Y-50804149D02*
X135109580Y-50756530D01*
X135109580Y-50756530D02*
X135014342Y-50708911D01*
X135014342Y-50708911D02*
X134823866Y-50708911D01*
X134823866Y-50708911D02*
X134728628Y-50756530D01*
X134728628Y-50756530D02*
X134681009Y-50804149D01*
X134681009Y-50804149D02*
X134633390Y-50899387D01*
X139625577Y-122954819D02*
X139292244Y-122478628D01*
X139054149Y-122954819D02*
X139054149Y-121954819D01*
X139054149Y-121954819D02*
X139435101Y-121954819D01*
X139435101Y-121954819D02*
X139530339Y-122002438D01*
X139530339Y-122002438D02*
X139577958Y-122050057D01*
X139577958Y-122050057D02*
X139625577Y-122145295D01*
X139625577Y-122145295D02*
X139625577Y-122288152D01*
X139625577Y-122288152D02*
X139577958Y-122383390D01*
X139577958Y-122383390D02*
X139530339Y-122431009D01*
X139530339Y-122431009D02*
X139435101Y-122478628D01*
X139435101Y-122478628D02*
X139054149Y-122478628D01*
X140577958Y-122954819D02*
X140006530Y-122954819D01*
X140292244Y-122954819D02*
X140292244Y-121954819D01*
X140292244Y-121954819D02*
X140197006Y-122097676D01*
X140197006Y-122097676D02*
X140101768Y-122192914D01*
X140101768Y-122192914D02*
X140006530Y-122240533D01*
X141149387Y-122383390D02*
X141054149Y-122335771D01*
X141054149Y-122335771D02*
X141006530Y-122288152D01*
X141006530Y-122288152D02*
X140958911Y-122192914D01*
X140958911Y-122192914D02*
X140958911Y-122145295D01*
X140958911Y-122145295D02*
X141006530Y-122050057D01*
X141006530Y-122050057D02*
X141054149Y-122002438D01*
X141054149Y-122002438D02*
X141149387Y-121954819D01*
X141149387Y-121954819D02*
X141339863Y-121954819D01*
X141339863Y-121954819D02*
X141435101Y-122002438D01*
X141435101Y-122002438D02*
X141482720Y-122050057D01*
X141482720Y-122050057D02*
X141530339Y-122145295D01*
X141530339Y-122145295D02*
X141530339Y-122192914D01*
X141530339Y-122192914D02*
X141482720Y-122288152D01*
X141482720Y-122288152D02*
X141435101Y-122335771D01*
X141435101Y-122335771D02*
X141339863Y-122383390D01*
X141339863Y-122383390D02*
X141149387Y-122383390D01*
X141149387Y-122383390D02*
X141054149Y-122431009D01*
X141054149Y-122431009D02*
X141006530Y-122478628D01*
X141006530Y-122478628D02*
X140958911Y-122573866D01*
X140958911Y-122573866D02*
X140958911Y-122764342D01*
X140958911Y-122764342D02*
X141006530Y-122859580D01*
X141006530Y-122859580D02*
X141054149Y-122907200D01*
X141054149Y-122907200D02*
X141149387Y-122954819D01*
X141149387Y-122954819D02*
X141339863Y-122954819D01*
X141339863Y-122954819D02*
X141435101Y-122907200D01*
X141435101Y-122907200D02*
X141482720Y-122859580D01*
X141482720Y-122859580D02*
X141530339Y-122764342D01*
X141530339Y-122764342D02*
X141530339Y-122573866D01*
X141530339Y-122573866D02*
X141482720Y-122478628D01*
X141482720Y-122478628D02*
X141435101Y-122431009D01*
X141435101Y-122431009D02*
X141339863Y-122383390D01*
X153609579Y-53986166D02*
X153657199Y-54033785D01*
X153657199Y-54033785D02*
X153704818Y-54176642D01*
X153704818Y-54176642D02*
X153704818Y-54271880D01*
X153704818Y-54271880D02*
X153657199Y-54414737D01*
X153657199Y-54414737D02*
X153561960Y-54509975D01*
X153561960Y-54509975D02*
X153466722Y-54557594D01*
X153466722Y-54557594D02*
X153276246Y-54605213D01*
X153276246Y-54605213D02*
X153133389Y-54605213D01*
X153133389Y-54605213D02*
X152942913Y-54557594D01*
X152942913Y-54557594D02*
X152847675Y-54509975D01*
X152847675Y-54509975D02*
X152752437Y-54414737D01*
X152752437Y-54414737D02*
X152704818Y-54271880D01*
X152704818Y-54271880D02*
X152704818Y-54176642D01*
X152704818Y-54176642D02*
X152752437Y-54033785D01*
X152752437Y-54033785D02*
X152800056Y-53986166D01*
X152704818Y-53652832D02*
X152704818Y-53033785D01*
X152704818Y-53033785D02*
X153085770Y-53367118D01*
X153085770Y-53367118D02*
X153085770Y-53224261D01*
X153085770Y-53224261D02*
X153133389Y-53129023D01*
X153133389Y-53129023D02*
X153181008Y-53081404D01*
X153181008Y-53081404D02*
X153276246Y-53033785D01*
X153276246Y-53033785D02*
X153514341Y-53033785D01*
X153514341Y-53033785D02*
X153609579Y-53081404D01*
X153609579Y-53081404D02*
X153657199Y-53129023D01*
X153657199Y-53129023D02*
X153704818Y-53224261D01*
X153704818Y-53224261D02*
X153704818Y-53509975D01*
X153704818Y-53509975D02*
X153657199Y-53605213D01*
X153657199Y-53605213D02*
X153609579Y-53652832D01*
X149238095Y-103954819D02*
X149238095Y-104764342D01*
X149238095Y-104764342D02*
X149285714Y-104859580D01*
X149285714Y-104859580D02*
X149333333Y-104907200D01*
X149333333Y-104907200D02*
X149428571Y-104954819D01*
X149428571Y-104954819D02*
X149619047Y-104954819D01*
X149619047Y-104954819D02*
X149714285Y-104907200D01*
X149714285Y-104907200D02*
X149761904Y-104859580D01*
X149761904Y-104859580D02*
X149809523Y-104764342D01*
X149809523Y-104764342D02*
X149809523Y-103954819D01*
X150190476Y-103954819D02*
X150809523Y-103954819D01*
X150809523Y-103954819D02*
X150476190Y-104335771D01*
X150476190Y-104335771D02*
X150619047Y-104335771D01*
X150619047Y-104335771D02*
X150714285Y-104383390D01*
X150714285Y-104383390D02*
X150761904Y-104431009D01*
X150761904Y-104431009D02*
X150809523Y-104526247D01*
X150809523Y-104526247D02*
X150809523Y-104764342D01*
X150809523Y-104764342D02*
X150761904Y-104859580D01*
X150761904Y-104859580D02*
X150714285Y-104907200D01*
X150714285Y-104907200D02*
X150619047Y-104954819D01*
X150619047Y-104954819D02*
X150333333Y-104954819D01*
X150333333Y-104954819D02*
X150238095Y-104907200D01*
X150238095Y-104907200D02*
X150190476Y-104859580D01*
X158454819Y-133095238D02*
X157978628Y-133428571D01*
X158454819Y-133666666D02*
X157454819Y-133666666D01*
X157454819Y-133666666D02*
X157454819Y-133285714D01*
X157454819Y-133285714D02*
X157502438Y-133190476D01*
X157502438Y-133190476D02*
X157550057Y-133142857D01*
X157550057Y-133142857D02*
X157645295Y-133095238D01*
X157645295Y-133095238D02*
X157788152Y-133095238D01*
X157788152Y-133095238D02*
X157883390Y-133142857D01*
X157883390Y-133142857D02*
X157931009Y-133190476D01*
X157931009Y-133190476D02*
X157978628Y-133285714D01*
X157978628Y-133285714D02*
X157978628Y-133666666D01*
X157454819Y-132809523D02*
X158454819Y-132476190D01*
X158454819Y-132476190D02*
X157454819Y-132142857D01*
X157788152Y-131380952D02*
X158454819Y-131380952D01*
X157407200Y-131619047D02*
X158121485Y-131857142D01*
X158121485Y-131857142D02*
X158121485Y-131238095D01*
X139557143Y-80359581D02*
X139509524Y-80407201D01*
X139509524Y-80407201D02*
X139366667Y-80454820D01*
X139366667Y-80454820D02*
X139271429Y-80454820D01*
X139271429Y-80454820D02*
X139128572Y-80407201D01*
X139128572Y-80407201D02*
X139033334Y-80311962D01*
X139033334Y-80311962D02*
X138985715Y-80216724D01*
X138985715Y-80216724D02*
X138938096Y-80026248D01*
X138938096Y-80026248D02*
X138938096Y-79883391D01*
X138938096Y-79883391D02*
X138985715Y-79692915D01*
X138985715Y-79692915D02*
X139033334Y-79597677D01*
X139033334Y-79597677D02*
X139128572Y-79502439D01*
X139128572Y-79502439D02*
X139271429Y-79454820D01*
X139271429Y-79454820D02*
X139366667Y-79454820D01*
X139366667Y-79454820D02*
X139509524Y-79502439D01*
X139509524Y-79502439D02*
X139557143Y-79550058D01*
X140509524Y-80454820D02*
X139938096Y-80454820D01*
X140223810Y-80454820D02*
X140223810Y-79454820D01*
X140223810Y-79454820D02*
X140128572Y-79597677D01*
X140128572Y-79597677D02*
X140033334Y-79692915D01*
X140033334Y-79692915D02*
X139938096Y-79740534D01*
X141128572Y-79454820D02*
X141223810Y-79454820D01*
X141223810Y-79454820D02*
X141319048Y-79502439D01*
X141319048Y-79502439D02*
X141366667Y-79550058D01*
X141366667Y-79550058D02*
X141414286Y-79645296D01*
X141414286Y-79645296D02*
X141461905Y-79835772D01*
X141461905Y-79835772D02*
X141461905Y-80073867D01*
X141461905Y-80073867D02*
X141414286Y-80264343D01*
X141414286Y-80264343D02*
X141366667Y-80359581D01*
X141366667Y-80359581D02*
X141319048Y-80407201D01*
X141319048Y-80407201D02*
X141223810Y-80454820D01*
X141223810Y-80454820D02*
X141128572Y-80454820D01*
X141128572Y-80454820D02*
X141033334Y-80407201D01*
X141033334Y-80407201D02*
X140985715Y-80359581D01*
X140985715Y-80359581D02*
X140938096Y-80264343D01*
X140938096Y-80264343D02*
X140890477Y-80073867D01*
X140890477Y-80073867D02*
X140890477Y-79835772D01*
X140890477Y-79835772D02*
X140938096Y-79645296D01*
X140938096Y-79645296D02*
X140985715Y-79550058D01*
X140985715Y-79550058D02*
X141033334Y-79502439D01*
X141033334Y-79502439D02*
X141128572Y-79454820D01*
X139557143Y-102859579D02*
X139509524Y-102907199D01*
X139509524Y-102907199D02*
X139366667Y-102954818D01*
X139366667Y-102954818D02*
X139271429Y-102954818D01*
X139271429Y-102954818D02*
X139128572Y-102907199D01*
X139128572Y-102907199D02*
X139033334Y-102811960D01*
X139033334Y-102811960D02*
X138985715Y-102716722D01*
X138985715Y-102716722D02*
X138938096Y-102526246D01*
X138938096Y-102526246D02*
X138938096Y-102383389D01*
X138938096Y-102383389D02*
X138985715Y-102192913D01*
X138985715Y-102192913D02*
X139033334Y-102097675D01*
X139033334Y-102097675D02*
X139128572Y-102002437D01*
X139128572Y-102002437D02*
X139271429Y-101954818D01*
X139271429Y-101954818D02*
X139366667Y-101954818D01*
X139366667Y-101954818D02*
X139509524Y-102002437D01*
X139509524Y-102002437D02*
X139557143Y-102050056D01*
X139938096Y-102050056D02*
X139985715Y-102002437D01*
X139985715Y-102002437D02*
X140080953Y-101954818D01*
X140080953Y-101954818D02*
X140319048Y-101954818D01*
X140319048Y-101954818D02*
X140414286Y-102002437D01*
X140414286Y-102002437D02*
X140461905Y-102050056D01*
X140461905Y-102050056D02*
X140509524Y-102145294D01*
X140509524Y-102145294D02*
X140509524Y-102240532D01*
X140509524Y-102240532D02*
X140461905Y-102383389D01*
X140461905Y-102383389D02*
X139890477Y-102954818D01*
X139890477Y-102954818D02*
X140509524Y-102954818D01*
X141414286Y-101954818D02*
X140938096Y-101954818D01*
X140938096Y-101954818D02*
X140890477Y-102431008D01*
X140890477Y-102431008D02*
X140938096Y-102383389D01*
X140938096Y-102383389D02*
X141033334Y-102335770D01*
X141033334Y-102335770D02*
X141271429Y-102335770D01*
X141271429Y-102335770D02*
X141366667Y-102383389D01*
X141366667Y-102383389D02*
X141414286Y-102431008D01*
X141414286Y-102431008D02*
X141461905Y-102526246D01*
X141461905Y-102526246D02*
X141461905Y-102764341D01*
X141461905Y-102764341D02*
X141414286Y-102859579D01*
X141414286Y-102859579D02*
X141366667Y-102907199D01*
X141366667Y-102907199D02*
X141271429Y-102954818D01*
X141271429Y-102954818D02*
X141033334Y-102954818D01*
X141033334Y-102954818D02*
X140938096Y-102907199D01*
X140938096Y-102907199D02*
X140890477Y-102859579D01*
X148666667Y-117807199D02*
X148809524Y-117854818D01*
X148809524Y-117854818D02*
X149047619Y-117854818D01*
X149047619Y-117854818D02*
X149142857Y-117807199D01*
X149142857Y-117807199D02*
X149190476Y-117759579D01*
X149190476Y-117759579D02*
X149238095Y-117664341D01*
X149238095Y-117664341D02*
X149238095Y-117569103D01*
X149238095Y-117569103D02*
X149190476Y-117473865D01*
X149190476Y-117473865D02*
X149142857Y-117426246D01*
X149142857Y-117426246D02*
X149047619Y-117378627D01*
X149047619Y-117378627D02*
X148857143Y-117331008D01*
X148857143Y-117331008D02*
X148761905Y-117283389D01*
X148761905Y-117283389D02*
X148714286Y-117235770D01*
X148714286Y-117235770D02*
X148666667Y-117140532D01*
X148666667Y-117140532D02*
X148666667Y-117045294D01*
X148666667Y-117045294D02*
X148714286Y-116950056D01*
X148714286Y-116950056D02*
X148761905Y-116902437D01*
X148761905Y-116902437D02*
X148857143Y-116854818D01*
X148857143Y-116854818D02*
X149095238Y-116854818D01*
X149095238Y-116854818D02*
X149238095Y-116902437D01*
X149571429Y-116854818D02*
X149809524Y-117854818D01*
X149809524Y-117854818D02*
X150000000Y-117140532D01*
X150000000Y-117140532D02*
X150190476Y-117854818D01*
X150190476Y-117854818D02*
X150428572Y-116854818D01*
X151333333Y-117854818D02*
X150761905Y-117854818D01*
X151047619Y-117854818D02*
X151047619Y-116854818D01*
X151047619Y-116854818D02*
X150952381Y-116997675D01*
X150952381Y-116997675D02*
X150857143Y-117092913D01*
X150857143Y-117092913D02*
X150761905Y-117140532D01*
X158357142Y-148109580D02*
X158309523Y-148157200D01*
X158309523Y-148157200D02*
X158166666Y-148204819D01*
X158166666Y-148204819D02*
X158071428Y-148204819D01*
X158071428Y-148204819D02*
X157928571Y-148157200D01*
X157928571Y-148157200D02*
X157833333Y-148061961D01*
X157833333Y-148061961D02*
X157785714Y-147966723D01*
X157785714Y-147966723D02*
X157738095Y-147776247D01*
X157738095Y-147776247D02*
X157738095Y-147633390D01*
X157738095Y-147633390D02*
X157785714Y-147442914D01*
X157785714Y-147442914D02*
X157833333Y-147347676D01*
X157833333Y-147347676D02*
X157928571Y-147252438D01*
X157928571Y-147252438D02*
X158071428Y-147204819D01*
X158071428Y-147204819D02*
X158166666Y-147204819D01*
X158166666Y-147204819D02*
X158309523Y-147252438D01*
X158309523Y-147252438D02*
X158357142Y-147300057D01*
X158738095Y-147300057D02*
X158785714Y-147252438D01*
X158785714Y-147252438D02*
X158880952Y-147204819D01*
X158880952Y-147204819D02*
X159119047Y-147204819D01*
X159119047Y-147204819D02*
X159214285Y-147252438D01*
X159214285Y-147252438D02*
X159261904Y-147300057D01*
X159261904Y-147300057D02*
X159309523Y-147395295D01*
X159309523Y-147395295D02*
X159309523Y-147490533D01*
X159309523Y-147490533D02*
X159261904Y-147633390D01*
X159261904Y-147633390D02*
X158690476Y-148204819D01*
X158690476Y-148204819D02*
X159309523Y-148204819D01*
X159642857Y-147204819D02*
X160261904Y-147204819D01*
X160261904Y-147204819D02*
X159928571Y-147585771D01*
X159928571Y-147585771D02*
X160071428Y-147585771D01*
X160071428Y-147585771D02*
X160166666Y-147633390D01*
X160166666Y-147633390D02*
X160214285Y-147681009D01*
X160214285Y-147681009D02*
X160261904Y-147776247D01*
X160261904Y-147776247D02*
X160261904Y-148014342D01*
X160261904Y-148014342D02*
X160214285Y-148109580D01*
X160214285Y-148109580D02*
X160166666Y-148157200D01*
X160166666Y-148157200D02*
X160071428Y-148204819D01*
X160071428Y-148204819D02*
X159785714Y-148204819D01*
X159785714Y-148204819D02*
X159690476Y-148157200D01*
X159690476Y-148157200D02*
X159642857Y-148109580D01*
X159583333Y-70359579D02*
X159535714Y-70407199D01*
X159535714Y-70407199D02*
X159392857Y-70454818D01*
X159392857Y-70454818D02*
X159297619Y-70454818D01*
X159297619Y-70454818D02*
X159154762Y-70407199D01*
X159154762Y-70407199D02*
X159059524Y-70311960D01*
X159059524Y-70311960D02*
X159011905Y-70216722D01*
X159011905Y-70216722D02*
X158964286Y-70026246D01*
X158964286Y-70026246D02*
X158964286Y-69883389D01*
X158964286Y-69883389D02*
X159011905Y-69692913D01*
X159011905Y-69692913D02*
X159059524Y-69597675D01*
X159059524Y-69597675D02*
X159154762Y-69502437D01*
X159154762Y-69502437D02*
X159297619Y-69454818D01*
X159297619Y-69454818D02*
X159392857Y-69454818D01*
X159392857Y-69454818D02*
X159535714Y-69502437D01*
X159535714Y-69502437D02*
X159583333Y-69550056D01*
X160440476Y-69788151D02*
X160440476Y-70454818D01*
X160202381Y-69407199D02*
X159964286Y-70121484D01*
X159964286Y-70121484D02*
X160583333Y-70121484D01*
X159107142Y-99609581D02*
X159059523Y-99657201D01*
X159059523Y-99657201D02*
X158916666Y-99704820D01*
X158916666Y-99704820D02*
X158821428Y-99704820D01*
X158821428Y-99704820D02*
X158678571Y-99657201D01*
X158678571Y-99657201D02*
X158583333Y-99561962D01*
X158583333Y-99561962D02*
X158535714Y-99466724D01*
X158535714Y-99466724D02*
X158488095Y-99276248D01*
X158488095Y-99276248D02*
X158488095Y-99133391D01*
X158488095Y-99133391D02*
X158535714Y-98942915D01*
X158535714Y-98942915D02*
X158583333Y-98847677D01*
X158583333Y-98847677D02*
X158678571Y-98752439D01*
X158678571Y-98752439D02*
X158821428Y-98704820D01*
X158821428Y-98704820D02*
X158916666Y-98704820D01*
X158916666Y-98704820D02*
X159059523Y-98752439D01*
X159059523Y-98752439D02*
X159107142Y-98800058D01*
X160059523Y-99704820D02*
X159488095Y-99704820D01*
X159773809Y-99704820D02*
X159773809Y-98704820D01*
X159773809Y-98704820D02*
X159678571Y-98847677D01*
X159678571Y-98847677D02*
X159583333Y-98942915D01*
X159583333Y-98942915D02*
X159488095Y-98990534D01*
X160392857Y-98704820D02*
X161059523Y-98704820D01*
X161059523Y-98704820D02*
X160630952Y-99704820D01*
X156408207Y-118204819D02*
X156074874Y-117728628D01*
X155836779Y-118204819D02*
X155836779Y-117204819D01*
X155836779Y-117204819D02*
X156217731Y-117204819D01*
X156217731Y-117204819D02*
X156312969Y-117252438D01*
X156312969Y-117252438D02*
X156360588Y-117300057D01*
X156360588Y-117300057D02*
X156408207Y-117395295D01*
X156408207Y-117395295D02*
X156408207Y-117538152D01*
X156408207Y-117538152D02*
X156360588Y-117633390D01*
X156360588Y-117633390D02*
X156312969Y-117681009D01*
X156312969Y-117681009D02*
X156217731Y-117728628D01*
X156217731Y-117728628D02*
X155836779Y-117728628D01*
X156789160Y-117300057D02*
X156836779Y-117252438D01*
X156836779Y-117252438D02*
X156932017Y-117204819D01*
X156932017Y-117204819D02*
X157170112Y-117204819D01*
X157170112Y-117204819D02*
X157265350Y-117252438D01*
X157265350Y-117252438D02*
X157312969Y-117300057D01*
X157312969Y-117300057D02*
X157360588Y-117395295D01*
X157360588Y-117395295D02*
X157360588Y-117490533D01*
X157360588Y-117490533D02*
X157312969Y-117633390D01*
X157312969Y-117633390D02*
X156741541Y-118204819D01*
X156741541Y-118204819D02*
X157360588Y-118204819D01*
X158312969Y-118204819D02*
X157741541Y-118204819D01*
X158027255Y-118204819D02*
X158027255Y-117204819D01*
X158027255Y-117204819D02*
X157932017Y-117347676D01*
X157932017Y-117347676D02*
X157836779Y-117442914D01*
X157836779Y-117442914D02*
X157741541Y-117490533D01*
X142767279Y-53204819D02*
X142767279Y-52204819D01*
X142767279Y-52204819D02*
X143005374Y-52204819D01*
X143005374Y-52204819D02*
X143148231Y-52252438D01*
X143148231Y-52252438D02*
X143243469Y-52347676D01*
X143243469Y-52347676D02*
X143291088Y-52442914D01*
X143291088Y-52442914D02*
X143338707Y-52633390D01*
X143338707Y-52633390D02*
X143338707Y-52776247D01*
X143338707Y-52776247D02*
X143291088Y-52966723D01*
X143291088Y-52966723D02*
X143243469Y-53061961D01*
X143243469Y-53061961D02*
X143148231Y-53157200D01*
X143148231Y-53157200D02*
X143005374Y-53204819D01*
X143005374Y-53204819D02*
X142767279Y-53204819D01*
X143672041Y-52204819D02*
X144291088Y-52204819D01*
X144291088Y-52204819D02*
X143957755Y-52585771D01*
X143957755Y-52585771D02*
X144100612Y-52585771D01*
X144100612Y-52585771D02*
X144195850Y-52633390D01*
X144195850Y-52633390D02*
X144243469Y-52681009D01*
X144243469Y-52681009D02*
X144291088Y-52776247D01*
X144291088Y-52776247D02*
X144291088Y-53014342D01*
X144291088Y-53014342D02*
X144243469Y-53109580D01*
X144243469Y-53109580D02*
X144195850Y-53157200D01*
X144195850Y-53157200D02*
X144100612Y-53204819D01*
X144100612Y-53204819D02*
X143814898Y-53204819D01*
X143814898Y-53204819D02*
X143719660Y-53157200D01*
X143719660Y-53157200D02*
X143672041Y-53109580D01*
X126954819Y-51661292D02*
X126478628Y-51994625D01*
X126954819Y-52232720D02*
X125954819Y-52232720D01*
X125954819Y-52232720D02*
X125954819Y-51851768D01*
X125954819Y-51851768D02*
X126002438Y-51756530D01*
X126002438Y-51756530D02*
X126050057Y-51708911D01*
X126050057Y-51708911D02*
X126145295Y-51661292D01*
X126145295Y-51661292D02*
X126288152Y-51661292D01*
X126288152Y-51661292D02*
X126383390Y-51708911D01*
X126383390Y-51708911D02*
X126431009Y-51756530D01*
X126431009Y-51756530D02*
X126478628Y-51851768D01*
X126478628Y-51851768D02*
X126478628Y-52232720D01*
X126954819Y-50708911D02*
X126954819Y-51280339D01*
X126954819Y-50994625D02*
X125954819Y-50994625D01*
X125954819Y-50994625D02*
X126097676Y-51089863D01*
X126097676Y-51089863D02*
X126192914Y-51185101D01*
X126192914Y-51185101D02*
X126240533Y-51280339D01*
X173954819Y-69784422D02*
X173478628Y-70117755D01*
X173954819Y-70355850D02*
X172954819Y-70355850D01*
X172954819Y-70355850D02*
X172954819Y-69974898D01*
X172954819Y-69974898D02*
X173002438Y-69879660D01*
X173002438Y-69879660D02*
X173050057Y-69832041D01*
X173050057Y-69832041D02*
X173145295Y-69784422D01*
X173145295Y-69784422D02*
X173288152Y-69784422D01*
X173288152Y-69784422D02*
X173383390Y-69832041D01*
X173383390Y-69832041D02*
X173431009Y-69879660D01*
X173431009Y-69879660D02*
X173478628Y-69974898D01*
X173478628Y-69974898D02*
X173478628Y-70355850D01*
X173954819Y-68832041D02*
X173954819Y-69403469D01*
X173954819Y-69117755D02*
X172954819Y-69117755D01*
X172954819Y-69117755D02*
X173097676Y-69212993D01*
X173097676Y-69212993D02*
X173192914Y-69308231D01*
X173192914Y-69308231D02*
X173240533Y-69403469D01*
X173050057Y-68451088D02*
X173002438Y-68403469D01*
X173002438Y-68403469D02*
X172954819Y-68308231D01*
X172954819Y-68308231D02*
X172954819Y-68070136D01*
X172954819Y-68070136D02*
X173002438Y-67974898D01*
X173002438Y-67974898D02*
X173050057Y-67927279D01*
X173050057Y-67927279D02*
X173145295Y-67879660D01*
X173145295Y-67879660D02*
X173240533Y-67879660D01*
X173240533Y-67879660D02*
X173383390Y-67927279D01*
X173383390Y-67927279D02*
X173954819Y-68498707D01*
X173954819Y-68498707D02*
X173954819Y-67879660D01*
X171204818Y-69574422D02*
X170728627Y-69907755D01*
X171204818Y-70145850D02*
X170204818Y-70145850D01*
X170204818Y-70145850D02*
X170204818Y-69764898D01*
X170204818Y-69764898D02*
X170252437Y-69669660D01*
X170252437Y-69669660D02*
X170300056Y-69622041D01*
X170300056Y-69622041D02*
X170395294Y-69574422D01*
X170395294Y-69574422D02*
X170538151Y-69574422D01*
X170538151Y-69574422D02*
X170633389Y-69622041D01*
X170633389Y-69622041D02*
X170681008Y-69669660D01*
X170681008Y-69669660D02*
X170728627Y-69764898D01*
X170728627Y-69764898D02*
X170728627Y-70145850D01*
X171204818Y-68622041D02*
X171204818Y-69193469D01*
X171204818Y-68907755D02*
X170204818Y-68907755D01*
X170204818Y-68907755D02*
X170347675Y-69002993D01*
X170347675Y-69002993D02*
X170442913Y-69098231D01*
X170442913Y-69098231D02*
X170490532Y-69193469D01*
X171204818Y-67669660D02*
X171204818Y-68241088D01*
X171204818Y-67955374D02*
X170204818Y-67955374D01*
X170204818Y-67955374D02*
X170347675Y-68050612D01*
X170347675Y-68050612D02*
X170442913Y-68145850D01*
X170442913Y-68145850D02*
X170490532Y-68241088D01*
X165704819Y-93193922D02*
X165228628Y-93527255D01*
X165704819Y-93765350D02*
X164704819Y-93765350D01*
X164704819Y-93765350D02*
X164704819Y-93384398D01*
X164704819Y-93384398D02*
X164752438Y-93289160D01*
X164752438Y-93289160D02*
X164800057Y-93241541D01*
X164800057Y-93241541D02*
X164895295Y-93193922D01*
X164895295Y-93193922D02*
X165038152Y-93193922D01*
X165038152Y-93193922D02*
X165133390Y-93241541D01*
X165133390Y-93241541D02*
X165181009Y-93289160D01*
X165181009Y-93289160D02*
X165228628Y-93384398D01*
X165228628Y-93384398D02*
X165228628Y-93765350D01*
X164800057Y-92812969D02*
X164752438Y-92765350D01*
X164752438Y-92765350D02*
X164704819Y-92670112D01*
X164704819Y-92670112D02*
X164704819Y-92432017D01*
X164704819Y-92432017D02*
X164752438Y-92336779D01*
X164752438Y-92336779D02*
X164800057Y-92289160D01*
X164800057Y-92289160D02*
X164895295Y-92241541D01*
X164895295Y-92241541D02*
X164990533Y-92241541D01*
X164990533Y-92241541D02*
X165133390Y-92289160D01*
X165133390Y-92289160D02*
X165704819Y-92860588D01*
X165704819Y-92860588D02*
X165704819Y-92241541D01*
X164704819Y-91384398D02*
X164704819Y-91574874D01*
X164704819Y-91574874D02*
X164752438Y-91670112D01*
X164752438Y-91670112D02*
X164800057Y-91717731D01*
X164800057Y-91717731D02*
X164942914Y-91812969D01*
X164942914Y-91812969D02*
X165133390Y-91860588D01*
X165133390Y-91860588D02*
X165514342Y-91860588D01*
X165514342Y-91860588D02*
X165609580Y-91812969D01*
X165609580Y-91812969D02*
X165657200Y-91765350D01*
X165657200Y-91765350D02*
X165704819Y-91670112D01*
X165704819Y-91670112D02*
X165704819Y-91479636D01*
X165704819Y-91479636D02*
X165657200Y-91384398D01*
X165657200Y-91384398D02*
X165609580Y-91336779D01*
X165609580Y-91336779D02*
X165514342Y-91289160D01*
X165514342Y-91289160D02*
X165276247Y-91289160D01*
X165276247Y-91289160D02*
X165181009Y-91336779D01*
X165181009Y-91336779D02*
X165133390Y-91384398D01*
X165133390Y-91384398D02*
X165085771Y-91479636D01*
X165085771Y-91479636D02*
X165085771Y-91670112D01*
X165085771Y-91670112D02*
X165133390Y-91765350D01*
X165133390Y-91765350D02*
X165181009Y-91812969D01*
X165181009Y-91812969D02*
X165276247Y-91860588D01*
X132454819Y-51661292D02*
X131978628Y-51994625D01*
X132454819Y-52232720D02*
X131454819Y-52232720D01*
X131454819Y-52232720D02*
X131454819Y-51851768D01*
X131454819Y-51851768D02*
X131502438Y-51756530D01*
X131502438Y-51756530D02*
X131550057Y-51708911D01*
X131550057Y-51708911D02*
X131645295Y-51661292D01*
X131645295Y-51661292D02*
X131788152Y-51661292D01*
X131788152Y-51661292D02*
X131883390Y-51708911D01*
X131883390Y-51708911D02*
X131931009Y-51756530D01*
X131931009Y-51756530D02*
X131978628Y-51851768D01*
X131978628Y-51851768D02*
X131978628Y-52232720D01*
X131454819Y-50804149D02*
X131454819Y-50994625D01*
X131454819Y-50994625D02*
X131502438Y-51089863D01*
X131502438Y-51089863D02*
X131550057Y-51137482D01*
X131550057Y-51137482D02*
X131692914Y-51232720D01*
X131692914Y-51232720D02*
X131883390Y-51280339D01*
X131883390Y-51280339D02*
X132264342Y-51280339D01*
X132264342Y-51280339D02*
X132359580Y-51232720D01*
X132359580Y-51232720D02*
X132407200Y-51185101D01*
X132407200Y-51185101D02*
X132454819Y-51089863D01*
X132454819Y-51089863D02*
X132454819Y-50899387D01*
X132454819Y-50899387D02*
X132407200Y-50804149D01*
X132407200Y-50804149D02*
X132359580Y-50756530D01*
X132359580Y-50756530D02*
X132264342Y-50708911D01*
X132264342Y-50708911D02*
X132026247Y-50708911D01*
X132026247Y-50708911D02*
X131931009Y-50756530D01*
X131931009Y-50756530D02*
X131883390Y-50804149D01*
X131883390Y-50804149D02*
X131835771Y-50899387D01*
X131835771Y-50899387D02*
X131835771Y-51089863D01*
X131835771Y-51089863D02*
X131883390Y-51185101D01*
X131883390Y-51185101D02*
X131931009Y-51232720D01*
X131931009Y-51232720D02*
X132026247Y-51280339D01*
X140357142Y-148109580D02*
X140309523Y-148157200D01*
X140309523Y-148157200D02*
X140166666Y-148204819D01*
X140166666Y-148204819D02*
X140071428Y-148204819D01*
X140071428Y-148204819D02*
X139928571Y-148157200D01*
X139928571Y-148157200D02*
X139833333Y-148061961D01*
X139833333Y-148061961D02*
X139785714Y-147966723D01*
X139785714Y-147966723D02*
X139738095Y-147776247D01*
X139738095Y-147776247D02*
X139738095Y-147633390D01*
X139738095Y-147633390D02*
X139785714Y-147442914D01*
X139785714Y-147442914D02*
X139833333Y-147347676D01*
X139833333Y-147347676D02*
X139928571Y-147252438D01*
X139928571Y-147252438D02*
X140071428Y-147204819D01*
X140071428Y-147204819D02*
X140166666Y-147204819D01*
X140166666Y-147204819D02*
X140309523Y-147252438D01*
X140309523Y-147252438D02*
X140357142Y-147300057D01*
X140738095Y-147300057D02*
X140785714Y-147252438D01*
X140785714Y-147252438D02*
X140880952Y-147204819D01*
X140880952Y-147204819D02*
X141119047Y-147204819D01*
X141119047Y-147204819D02*
X141214285Y-147252438D01*
X141214285Y-147252438D02*
X141261904Y-147300057D01*
X141261904Y-147300057D02*
X141309523Y-147395295D01*
X141309523Y-147395295D02*
X141309523Y-147490533D01*
X141309523Y-147490533D02*
X141261904Y-147633390D01*
X141261904Y-147633390D02*
X140690476Y-148204819D01*
X140690476Y-148204819D02*
X141309523Y-148204819D01*
X142166666Y-147538152D02*
X142166666Y-148204819D01*
X141928571Y-147157200D02*
X141690476Y-147871485D01*
X141690476Y-147871485D02*
X142309523Y-147871485D01*
X142767279Y-55954819D02*
X142767279Y-54954819D01*
X142767279Y-54954819D02*
X143005374Y-54954819D01*
X143005374Y-54954819D02*
X143148231Y-55002438D01*
X143148231Y-55002438D02*
X143243469Y-55097676D01*
X143243469Y-55097676D02*
X143291088Y-55192914D01*
X143291088Y-55192914D02*
X143338707Y-55383390D01*
X143338707Y-55383390D02*
X143338707Y-55526247D01*
X143338707Y-55526247D02*
X143291088Y-55716723D01*
X143291088Y-55716723D02*
X143243469Y-55811961D01*
X143243469Y-55811961D02*
X143148231Y-55907200D01*
X143148231Y-55907200D02*
X143005374Y-55954819D01*
X143005374Y-55954819D02*
X142767279Y-55954819D01*
X144195850Y-55288152D02*
X144195850Y-55954819D01*
X143957755Y-54907200D02*
X143719660Y-55621485D01*
X143719660Y-55621485D02*
X144338707Y-55621485D01*
X127859580Y-71842857D02*
X127907200Y-71890476D01*
X127907200Y-71890476D02*
X127954819Y-72033333D01*
X127954819Y-72033333D02*
X127954819Y-72128571D01*
X127954819Y-72128571D02*
X127907200Y-72271428D01*
X127907200Y-72271428D02*
X127811961Y-72366666D01*
X127811961Y-72366666D02*
X127716723Y-72414285D01*
X127716723Y-72414285D02*
X127526247Y-72461904D01*
X127526247Y-72461904D02*
X127383390Y-72461904D01*
X127383390Y-72461904D02*
X127192914Y-72414285D01*
X127192914Y-72414285D02*
X127097676Y-72366666D01*
X127097676Y-72366666D02*
X127002438Y-72271428D01*
X127002438Y-72271428D02*
X126954819Y-72128571D01*
X126954819Y-72128571D02*
X126954819Y-72033333D01*
X126954819Y-72033333D02*
X127002438Y-71890476D01*
X127002438Y-71890476D02*
X127050057Y-71842857D01*
X127050057Y-71461904D02*
X127002438Y-71414285D01*
X127002438Y-71414285D02*
X126954819Y-71319047D01*
X126954819Y-71319047D02*
X126954819Y-71080952D01*
X126954819Y-71080952D02*
X127002438Y-70985714D01*
X127002438Y-70985714D02*
X127050057Y-70938095D01*
X127050057Y-70938095D02*
X127145295Y-70890476D01*
X127145295Y-70890476D02*
X127240533Y-70890476D01*
X127240533Y-70890476D02*
X127383390Y-70938095D01*
X127383390Y-70938095D02*
X127954819Y-71509523D01*
X127954819Y-71509523D02*
X127954819Y-70890476D01*
X126954819Y-70033333D02*
X126954819Y-70223809D01*
X126954819Y-70223809D02*
X127002438Y-70319047D01*
X127002438Y-70319047D02*
X127050057Y-70366666D01*
X127050057Y-70366666D02*
X127192914Y-70461904D01*
X127192914Y-70461904D02*
X127383390Y-70509523D01*
X127383390Y-70509523D02*
X127764342Y-70509523D01*
X127764342Y-70509523D02*
X127859580Y-70461904D01*
X127859580Y-70461904D02*
X127907200Y-70414285D01*
X127907200Y-70414285D02*
X127954819Y-70319047D01*
X127954819Y-70319047D02*
X127954819Y-70128571D01*
X127954819Y-70128571D02*
X127907200Y-70033333D01*
X127907200Y-70033333D02*
X127859580Y-69985714D01*
X127859580Y-69985714D02*
X127764342Y-69938095D01*
X127764342Y-69938095D02*
X127526247Y-69938095D01*
X127526247Y-69938095D02*
X127431009Y-69985714D01*
X127431009Y-69985714D02*
X127383390Y-70033333D01*
X127383390Y-70033333D02*
X127335771Y-70128571D01*
X127335771Y-70128571D02*
X127335771Y-70319047D01*
X127335771Y-70319047D02*
X127383390Y-70414285D01*
X127383390Y-70414285D02*
X127431009Y-70461904D01*
X127431009Y-70461904D02*
X127526247Y-70509523D01*
X134954819Y-77212969D02*
X133954819Y-77212969D01*
X133954819Y-77212969D02*
X133954819Y-76974874D01*
X133954819Y-76974874D02*
X134002438Y-76832017D01*
X134002438Y-76832017D02*
X134097676Y-76736779D01*
X134097676Y-76736779D02*
X134192914Y-76689160D01*
X134192914Y-76689160D02*
X134383390Y-76641541D01*
X134383390Y-76641541D02*
X134526247Y-76641541D01*
X134526247Y-76641541D02*
X134716723Y-76689160D01*
X134716723Y-76689160D02*
X134811961Y-76736779D01*
X134811961Y-76736779D02*
X134907200Y-76832017D01*
X134907200Y-76832017D02*
X134954819Y-76974874D01*
X134954819Y-76974874D02*
X134954819Y-77212969D01*
X133954819Y-75736779D02*
X133954819Y-76212969D01*
X133954819Y-76212969D02*
X134431009Y-76260588D01*
X134431009Y-76260588D02*
X134383390Y-76212969D01*
X134383390Y-76212969D02*
X134335771Y-76117731D01*
X134335771Y-76117731D02*
X134335771Y-75879636D01*
X134335771Y-75879636D02*
X134383390Y-75784398D01*
X134383390Y-75784398D02*
X134431009Y-75736779D01*
X134431009Y-75736779D02*
X134526247Y-75689160D01*
X134526247Y-75689160D02*
X134764342Y-75689160D01*
X134764342Y-75689160D02*
X134859580Y-75736779D01*
X134859580Y-75736779D02*
X134907200Y-75784398D01*
X134907200Y-75784398D02*
X134954819Y-75879636D01*
X134954819Y-75879636D02*
X134954819Y-76117731D01*
X134954819Y-76117731D02*
X134907200Y-76212969D01*
X134907200Y-76212969D02*
X134859580Y-76260588D01*
X168454819Y-101944422D02*
X167978628Y-102277755D01*
X168454819Y-102515850D02*
X167454819Y-102515850D01*
X167454819Y-102515850D02*
X167454819Y-102134898D01*
X167454819Y-102134898D02*
X167502438Y-102039660D01*
X167502438Y-102039660D02*
X167550057Y-101992041D01*
X167550057Y-101992041D02*
X167645295Y-101944422D01*
X167645295Y-101944422D02*
X167788152Y-101944422D01*
X167788152Y-101944422D02*
X167883390Y-101992041D01*
X167883390Y-101992041D02*
X167931009Y-102039660D01*
X167931009Y-102039660D02*
X167978628Y-102134898D01*
X167978628Y-102134898D02*
X167978628Y-102515850D01*
X167454819Y-101611088D02*
X167454819Y-100992041D01*
X167454819Y-100992041D02*
X167835771Y-101325374D01*
X167835771Y-101325374D02*
X167835771Y-101182517D01*
X167835771Y-101182517D02*
X167883390Y-101087279D01*
X167883390Y-101087279D02*
X167931009Y-101039660D01*
X167931009Y-101039660D02*
X168026247Y-100992041D01*
X168026247Y-100992041D02*
X168264342Y-100992041D01*
X168264342Y-100992041D02*
X168359580Y-101039660D01*
X168359580Y-101039660D02*
X168407200Y-101087279D01*
X168407200Y-101087279D02*
X168454819Y-101182517D01*
X168454819Y-101182517D02*
X168454819Y-101468231D01*
X168454819Y-101468231D02*
X168407200Y-101563469D01*
X168407200Y-101563469D02*
X168359580Y-101611088D01*
X167788152Y-100134898D02*
X168454819Y-100134898D01*
X167407200Y-100372993D02*
X168121485Y-100611088D01*
X168121485Y-100611088D02*
X168121485Y-99992041D01*
X134954819Y-101693922D02*
X134478628Y-102027255D01*
X134954819Y-102265350D02*
X133954819Y-102265350D01*
X133954819Y-102265350D02*
X133954819Y-101884398D01*
X133954819Y-101884398D02*
X134002438Y-101789160D01*
X134002438Y-101789160D02*
X134050057Y-101741541D01*
X134050057Y-101741541D02*
X134145295Y-101693922D01*
X134145295Y-101693922D02*
X134288152Y-101693922D01*
X134288152Y-101693922D02*
X134383390Y-101741541D01*
X134383390Y-101741541D02*
X134431009Y-101789160D01*
X134431009Y-101789160D02*
X134478628Y-101884398D01*
X134478628Y-101884398D02*
X134478628Y-102265350D01*
X134050057Y-101312969D02*
X134002438Y-101265350D01*
X134002438Y-101265350D02*
X133954819Y-101170112D01*
X133954819Y-101170112D02*
X133954819Y-100932017D01*
X133954819Y-100932017D02*
X134002438Y-100836779D01*
X134002438Y-100836779D02*
X134050057Y-100789160D01*
X134050057Y-100789160D02*
X134145295Y-100741541D01*
X134145295Y-100741541D02*
X134240533Y-100741541D01*
X134240533Y-100741541D02*
X134383390Y-100789160D01*
X134383390Y-100789160D02*
X134954819Y-101360588D01*
X134954819Y-101360588D02*
X134954819Y-100741541D01*
X133954819Y-100408207D02*
X133954819Y-99789160D01*
X133954819Y-99789160D02*
X134335771Y-100122493D01*
X134335771Y-100122493D02*
X134335771Y-99979636D01*
X134335771Y-99979636D02*
X134383390Y-99884398D01*
X134383390Y-99884398D02*
X134431009Y-99836779D01*
X134431009Y-99836779D02*
X134526247Y-99789160D01*
X134526247Y-99789160D02*
X134764342Y-99789160D01*
X134764342Y-99789160D02*
X134859580Y-99836779D01*
X134859580Y-99836779D02*
X134907200Y-99884398D01*
X134907200Y-99884398D02*
X134954819Y-99979636D01*
X134954819Y-99979636D02*
X134954819Y-100265350D01*
X134954819Y-100265350D02*
X134907200Y-100360588D01*
X134907200Y-100360588D02*
X134859580Y-100408207D01*
X149303095Y-62714819D02*
X149303095Y-63524342D01*
X149303095Y-63524342D02*
X149350714Y-63619580D01*
X149350714Y-63619580D02*
X149398333Y-63667200D01*
X149398333Y-63667200D02*
X149493571Y-63714819D01*
X149493571Y-63714819D02*
X149684047Y-63714819D01*
X149684047Y-63714819D02*
X149779285Y-63667200D01*
X149779285Y-63667200D02*
X149826904Y-63619580D01*
X149826904Y-63619580D02*
X149874523Y-63524342D01*
X149874523Y-63524342D02*
X149874523Y-62714819D01*
X150874523Y-63714819D02*
X150303095Y-63714819D01*
X150588809Y-63714819D02*
X150588809Y-62714819D01*
X150588809Y-62714819D02*
X150493571Y-62857676D01*
X150493571Y-62857676D02*
X150398333Y-62952914D01*
X150398333Y-62952914D02*
X150303095Y-63000533D01*
X159107142Y-96359581D02*
X159059523Y-96407201D01*
X159059523Y-96407201D02*
X158916666Y-96454820D01*
X158916666Y-96454820D02*
X158821428Y-96454820D01*
X158821428Y-96454820D02*
X158678571Y-96407201D01*
X158678571Y-96407201D02*
X158583333Y-96311962D01*
X158583333Y-96311962D02*
X158535714Y-96216724D01*
X158535714Y-96216724D02*
X158488095Y-96026248D01*
X158488095Y-96026248D02*
X158488095Y-95883391D01*
X158488095Y-95883391D02*
X158535714Y-95692915D01*
X158535714Y-95692915D02*
X158583333Y-95597677D01*
X158583333Y-95597677D02*
X158678571Y-95502439D01*
X158678571Y-95502439D02*
X158821428Y-95454820D01*
X158821428Y-95454820D02*
X158916666Y-95454820D01*
X158916666Y-95454820D02*
X159059523Y-95502439D01*
X159059523Y-95502439D02*
X159107142Y-95550058D01*
X160059523Y-96454820D02*
X159488095Y-96454820D01*
X159773809Y-96454820D02*
X159773809Y-95454820D01*
X159773809Y-95454820D02*
X159678571Y-95597677D01*
X159678571Y-95597677D02*
X159583333Y-95692915D01*
X159583333Y-95692915D02*
X159488095Y-95740534D01*
X160535714Y-96454820D02*
X160726190Y-96454820D01*
X160726190Y-96454820D02*
X160821428Y-96407201D01*
X160821428Y-96407201D02*
X160869047Y-96359581D01*
X160869047Y-96359581D02*
X160964285Y-96216724D01*
X160964285Y-96216724D02*
X161011904Y-96026248D01*
X161011904Y-96026248D02*
X161011904Y-95645296D01*
X161011904Y-95645296D02*
X160964285Y-95550058D01*
X160964285Y-95550058D02*
X160916666Y-95502439D01*
X160916666Y-95502439D02*
X160821428Y-95454820D01*
X160821428Y-95454820D02*
X160630952Y-95454820D01*
X160630952Y-95454820D02*
X160535714Y-95502439D01*
X160535714Y-95502439D02*
X160488095Y-95550058D01*
X160488095Y-95550058D02*
X160440476Y-95645296D01*
X160440476Y-95645296D02*
X160440476Y-95883391D01*
X160440476Y-95883391D02*
X160488095Y-95978629D01*
X160488095Y-95978629D02*
X160535714Y-96026248D01*
X160535714Y-96026248D02*
X160630952Y-96073867D01*
X160630952Y-96073867D02*
X160821428Y-96073867D01*
X160821428Y-96073867D02*
X160916666Y-96026248D01*
X160916666Y-96026248D02*
X160964285Y-95978629D01*
X160964285Y-95978629D02*
X161011904Y-95883391D01*
X142556077Y-127704819D02*
X142222744Y-127228628D01*
X141984649Y-127704819D02*
X141984649Y-126704819D01*
X141984649Y-126704819D02*
X142365601Y-126704819D01*
X142365601Y-126704819D02*
X142460839Y-126752438D01*
X142460839Y-126752438D02*
X142508458Y-126800057D01*
X142508458Y-126800057D02*
X142556077Y-126895295D01*
X142556077Y-126895295D02*
X142556077Y-127038152D01*
X142556077Y-127038152D02*
X142508458Y-127133390D01*
X142508458Y-127133390D02*
X142460839Y-127181009D01*
X142460839Y-127181009D02*
X142365601Y-127228628D01*
X142365601Y-127228628D02*
X141984649Y-127228628D01*
X143508458Y-127704819D02*
X142937030Y-127704819D01*
X143222744Y-127704819D02*
X143222744Y-126704819D01*
X143222744Y-126704819D02*
X143127506Y-126847676D01*
X143127506Y-126847676D02*
X143032268Y-126942914D01*
X143032268Y-126942914D02*
X142937030Y-126990533D01*
X143984649Y-127704819D02*
X144175125Y-127704819D01*
X144175125Y-127704819D02*
X144270363Y-127657200D01*
X144270363Y-127657200D02*
X144317982Y-127609580D01*
X144317982Y-127609580D02*
X144413220Y-127466723D01*
X144413220Y-127466723D02*
X144460839Y-127276247D01*
X144460839Y-127276247D02*
X144460839Y-126895295D01*
X144460839Y-126895295D02*
X144413220Y-126800057D01*
X144413220Y-126800057D02*
X144365601Y-126752438D01*
X144365601Y-126752438D02*
X144270363Y-126704819D01*
X144270363Y-126704819D02*
X144079887Y-126704819D01*
X144079887Y-126704819D02*
X143984649Y-126752438D01*
X143984649Y-126752438D02*
X143937030Y-126800057D01*
X143937030Y-126800057D02*
X143889411Y-126895295D01*
X143889411Y-126895295D02*
X143889411Y-127133390D01*
X143889411Y-127133390D02*
X143937030Y-127228628D01*
X143937030Y-127228628D02*
X143984649Y-127276247D01*
X143984649Y-127276247D02*
X144079887Y-127323866D01*
X144079887Y-127323866D02*
X144270363Y-127323866D01*
X144270363Y-127323866D02*
X144365601Y-127276247D01*
X144365601Y-127276247D02*
X144413220Y-127228628D01*
X144413220Y-127228628D02*
X144460839Y-127133390D01*
X149238095Y-81704819D02*
X149238095Y-82514342D01*
X149238095Y-82514342D02*
X149285714Y-82609580D01*
X149285714Y-82609580D02*
X149333333Y-82657200D01*
X149333333Y-82657200D02*
X149428571Y-82704819D01*
X149428571Y-82704819D02*
X149619047Y-82704819D01*
X149619047Y-82704819D02*
X149714285Y-82657200D01*
X149714285Y-82657200D02*
X149761904Y-82609580D01*
X149761904Y-82609580D02*
X149809523Y-82514342D01*
X149809523Y-82514342D02*
X149809523Y-81704819D01*
X150714285Y-82038152D02*
X150714285Y-82704819D01*
X150476190Y-81657200D02*
X150238095Y-82371485D01*
X150238095Y-82371485D02*
X150857142Y-82371485D01*
X171204819Y-51661292D02*
X170728628Y-51994625D01*
X171204819Y-52232720D02*
X170204819Y-52232720D01*
X170204819Y-52232720D02*
X170204819Y-51851768D01*
X170204819Y-51851768D02*
X170252438Y-51756530D01*
X170252438Y-51756530D02*
X170300057Y-51708911D01*
X170300057Y-51708911D02*
X170395295Y-51661292D01*
X170395295Y-51661292D02*
X170538152Y-51661292D01*
X170538152Y-51661292D02*
X170633390Y-51708911D01*
X170633390Y-51708911D02*
X170681009Y-51756530D01*
X170681009Y-51756530D02*
X170728628Y-51851768D01*
X170728628Y-51851768D02*
X170728628Y-52232720D01*
X170204819Y-51327958D02*
X170204819Y-50708911D01*
X170204819Y-50708911D02*
X170585771Y-51042244D01*
X170585771Y-51042244D02*
X170585771Y-50899387D01*
X170585771Y-50899387D02*
X170633390Y-50804149D01*
X170633390Y-50804149D02*
X170681009Y-50756530D01*
X170681009Y-50756530D02*
X170776247Y-50708911D01*
X170776247Y-50708911D02*
X171014342Y-50708911D01*
X171014342Y-50708911D02*
X171109580Y-50756530D01*
X171109580Y-50756530D02*
X171157200Y-50804149D01*
X171157200Y-50804149D02*
X171204819Y-50899387D01*
X171204819Y-50899387D02*
X171204819Y-51185101D01*
X171204819Y-51185101D02*
X171157200Y-51280339D01*
X171157200Y-51280339D02*
X171109580Y-51327958D01*
X132204819Y-76563422D02*
X131728628Y-76896755D01*
X132204819Y-77134850D02*
X131204819Y-77134850D01*
X131204819Y-77134850D02*
X131204819Y-76753898D01*
X131204819Y-76753898D02*
X131252438Y-76658660D01*
X131252438Y-76658660D02*
X131300057Y-76611041D01*
X131300057Y-76611041D02*
X131395295Y-76563422D01*
X131395295Y-76563422D02*
X131538152Y-76563422D01*
X131538152Y-76563422D02*
X131633390Y-76611041D01*
X131633390Y-76611041D02*
X131681009Y-76658660D01*
X131681009Y-76658660D02*
X131728628Y-76753898D01*
X131728628Y-76753898D02*
X131728628Y-77134850D01*
X132204819Y-75611041D02*
X132204819Y-76182469D01*
X132204819Y-75896755D02*
X131204819Y-75896755D01*
X131204819Y-75896755D02*
X131347676Y-75991993D01*
X131347676Y-75991993D02*
X131442914Y-76087231D01*
X131442914Y-76087231D02*
X131490533Y-76182469D01*
X131204819Y-75277707D02*
X131204819Y-74658660D01*
X131204819Y-74658660D02*
X131585771Y-74991993D01*
X131585771Y-74991993D02*
X131585771Y-74849136D01*
X131585771Y-74849136D02*
X131633390Y-74753898D01*
X131633390Y-74753898D02*
X131681009Y-74706279D01*
X131681009Y-74706279D02*
X131776247Y-74658660D01*
X131776247Y-74658660D02*
X132014342Y-74658660D01*
X132014342Y-74658660D02*
X132109580Y-74706279D01*
X132109580Y-74706279D02*
X132157200Y-74753898D01*
X132157200Y-74753898D02*
X132204819Y-74849136D01*
X132204819Y-74849136D02*
X132204819Y-75134850D01*
X132204819Y-75134850D02*
X132157200Y-75230088D01*
X132157200Y-75230088D02*
X132109580Y-75277707D01*
X158454819Y-113095238D02*
X157978628Y-113428571D01*
X158454819Y-113666666D02*
X157454819Y-113666666D01*
X157454819Y-113666666D02*
X157454819Y-113285714D01*
X157454819Y-113285714D02*
X157502438Y-113190476D01*
X157502438Y-113190476D02*
X157550057Y-113142857D01*
X157550057Y-113142857D02*
X157645295Y-113095238D01*
X157645295Y-113095238D02*
X157788152Y-113095238D01*
X157788152Y-113095238D02*
X157883390Y-113142857D01*
X157883390Y-113142857D02*
X157931009Y-113190476D01*
X157931009Y-113190476D02*
X157978628Y-113285714D01*
X157978628Y-113285714D02*
X157978628Y-113666666D01*
X157454819Y-112809523D02*
X158454819Y-112476190D01*
X158454819Y-112476190D02*
X157454819Y-112142857D01*
X157550057Y-111857142D02*
X157502438Y-111809523D01*
X157502438Y-111809523D02*
X157454819Y-111714285D01*
X157454819Y-111714285D02*
X157454819Y-111476190D01*
X157454819Y-111476190D02*
X157502438Y-111380952D01*
X157502438Y-111380952D02*
X157550057Y-111333333D01*
X157550057Y-111333333D02*
X157645295Y-111285714D01*
X157645295Y-111285714D02*
X157740533Y-111285714D01*
X157740533Y-111285714D02*
X157883390Y-111333333D01*
X157883390Y-111333333D02*
X158454819Y-111904761D01*
X158454819Y-111904761D02*
X158454819Y-111285714D01*
%TO.C,R24*%
X131750000Y-105114500D02*
X131750000Y-104530500D01*
X132766000Y-106130500D02*
G75*
G02*
X130734000Y-106130500I-1016000J0D01*
G01*
X130734000Y-106130500D02*
G75*
G02*
X132766000Y-106130500I1016000J0D01*
G01*
D12*
%TO.C,Q2*%
X130630001Y-94540001D02*
X127030001Y-94540001D01*
X128830001Y-98990001D02*
G75*
G02*
X126991523Y-94551523I0J2600000D01*
G01*
X130668479Y-94551523D02*
G75*
G02*
X128830001Y-98990002I-1838478J-1838478D01*
G01*
D11*
%TO.C,R20*%
X155864500Y-125250000D02*
X155280500Y-125250000D01*
X157896500Y-125250000D02*
G75*
G02*
X155864500Y-125250000I-1016000J0D01*
G01*
X155864500Y-125250000D02*
G75*
G02*
X157896500Y-125250000I1016000J0D01*
G01*
D12*
%TO.C,C15*%
X157250000Y-101100000D02*
X162250000Y-101100000D01*
X157250000Y-101500000D02*
X157250000Y-101100000D01*
X157250000Y-103500000D02*
X157250000Y-103900000D01*
X157250000Y-103900000D02*
X162250000Y-103900000D01*
X162250000Y-101100000D02*
X162250000Y-101500000D01*
X162250000Y-103900000D02*
X162250000Y-103500000D01*
%TO.C,C16*%
X137700001Y-104350000D02*
X137700001Y-104750000D01*
X137700001Y-107150000D02*
X137700001Y-106750000D01*
X142700001Y-104350000D02*
X137700001Y-104350000D01*
X142700001Y-104750000D02*
X142700001Y-104350000D01*
X142700001Y-106750000D02*
X142700001Y-107150000D01*
X142700001Y-107150000D02*
X137700001Y-107150000D01*
D11*
%TO.C,R10*%
X167999999Y-73114500D02*
X167999999Y-72530500D01*
X169015999Y-74130500D02*
G75*
G02*
X166983999Y-74130500I-1016000J0D01*
G01*
X166983999Y-74130500D02*
G75*
G02*
X169015999Y-74130500I1016000J0D01*
G01*
D12*
%TO.C,J2*%
X159000000Y-61700000D02*
X159000000Y-58000000D01*
X159000000Y-67000000D02*
X159000000Y-63300000D01*
X169500000Y-58000000D02*
X159000000Y-58000000D01*
X169500000Y-61780000D02*
X169500000Y-58000000D01*
X169500000Y-67000000D02*
X159000000Y-67000000D01*
X169500000Y-67000000D02*
X169500000Y-63220000D01*
X172650000Y-61270000D02*
X171850000Y-61270000D01*
X172650000Y-61270000D02*
X172650000Y-62130000D01*
X166800000Y-62500000D02*
G75*
G02*
X163200000Y-62500000I-1800000J0D01*
G01*
X163200000Y-62500000D02*
G75*
G02*
X166800000Y-62500000I1800000J0D01*
G01*
%TO.C,C12*%
X137700001Y-97850000D02*
X142700001Y-97850000D01*
X137700001Y-98250000D02*
X137700001Y-97850000D01*
X137700001Y-100250000D02*
X137700001Y-100650000D01*
X137700001Y-100650000D02*
X142700001Y-100650000D01*
X142700001Y-97850000D02*
X142700001Y-98250000D01*
X142700001Y-100650000D02*
X142700001Y-100250000D01*
D13*
%TO.C,C27*%
X129250000Y-136750000D02*
X129250000Y-140750000D01*
X129750000Y-141250000D02*
X138750000Y-141250000D01*
X138750000Y-136250000D02*
X129750000Y-136250000D01*
X139250000Y-136750000D02*
X138750000Y-136250000D01*
X139250000Y-140750000D02*
X138750000Y-141250000D01*
X139750000Y-136250000D02*
X139250000Y-136750000D01*
X139750000Y-141250000D02*
X139250000Y-140750000D01*
X139750000Y-141250000D02*
X140250000Y-141250000D01*
X140250000Y-136250000D02*
X139750000Y-136250000D01*
X140750000Y-140750000D02*
X140750000Y-136750000D01*
D12*
X140950000Y-137475000D02*
X141750000Y-137475000D01*
X141350000Y-137900000D02*
X141350000Y-137050000D01*
X141350000Y-140425000D02*
X141350000Y-139575000D01*
D13*
X129250000Y-136750000D02*
G75*
G02*
X129750000Y-136250000I500000J0D01*
G01*
X129750000Y-141250000D02*
G75*
G02*
X129250000Y-140750000I1J500001D01*
G01*
X140250000Y-136250000D02*
G75*
G02*
X140750000Y-136750000I0J-500000D01*
G01*
X140750000Y-140750000D02*
G75*
G02*
X140250000Y-141250000I-500001J1D01*
G01*
D14*
X140750000Y-140750000D02*
X140603553Y-141103553D01*
X140250000Y-141250000D01*
X139750000Y-141250000D01*
X139250000Y-140750000D01*
X138750000Y-141250000D01*
X129750000Y-141250000D01*
X129396447Y-141103553D01*
X129250000Y-140750000D01*
X129250000Y-140250000D01*
X140750000Y-140250000D01*
X140750000Y-140750000D01*
G36*
X140750000Y-140750000D02*
G01*
X140603553Y-141103553D01*
X140250000Y-141250000D01*
X139750000Y-141250000D01*
X139250000Y-140750000D01*
X138750000Y-141250000D01*
X129750000Y-141250000D01*
X129396447Y-141103553D01*
X129250000Y-140750000D01*
X129250000Y-140250000D01*
X140750000Y-140250000D01*
X140750000Y-140750000D01*
G37*
D12*
%TO.C,C14*%
X157250000Y-84850000D02*
X162250000Y-84850000D01*
X157250000Y-85250000D02*
X157250000Y-84850000D01*
X157250000Y-87250000D02*
X157250000Y-87650000D01*
X157250000Y-87650000D02*
X162250000Y-87650000D01*
X162250000Y-84850000D02*
X162250000Y-85250000D01*
X162250000Y-87650000D02*
X162250000Y-87250000D01*
%TO.C,C13*%
X157250000Y-81600000D02*
X162250000Y-81600000D01*
X157250000Y-82000000D02*
X157250000Y-81600000D01*
X157250000Y-84000000D02*
X157250000Y-84400000D01*
X157250000Y-84400000D02*
X162250000Y-84400000D01*
X162250000Y-81600000D02*
X162250000Y-82000000D01*
X162250000Y-84400000D02*
X162250000Y-84000000D01*
%TO.C,C5*%
X157250000Y-71850000D02*
X157250000Y-72250000D01*
X157250000Y-74650000D02*
X157250000Y-74250000D01*
X162250000Y-71850000D02*
X157250000Y-71850000D01*
X162250000Y-72250000D02*
X162250000Y-71850000D01*
X162250000Y-74250000D02*
X162250000Y-74650000D01*
X162250000Y-74650000D02*
X157250000Y-74650000D01*
D11*
%TO.C,D2*%
X159494500Y-51969377D02*
X159494501Y-51969376D01*
D15*
X159969500Y-52500000D02*
X160169500Y-52750000D01*
X160169500Y-52750000D02*
X159969500Y-53000000D01*
D11*
X160469500Y-51950000D02*
X160469500Y-53550000D01*
X160469500Y-52750000D02*
X159494501Y-51969376D01*
X160469500Y-52750000D02*
X159494501Y-53530624D01*
D16*
X160479500Y-52750000D02*
X160469500Y-52750000D01*
D11*
X159494497Y-51969375D02*
G75*
G02*
X159494491Y-53530624I-624997J-780622D01*
G01*
D17*
X160474525Y-52750000D02*
G75*
G02*
X160464475Y-52750000I-5025J0D01*
G01*
X160464475Y-52750000D02*
G75*
G02*
X160474525Y-52750000I5025J0D01*
G01*
D12*
%TO.C,C6*%
X157250000Y-75100000D02*
X157250000Y-75500000D01*
X157250000Y-77900000D02*
X157250000Y-77500000D01*
X162250000Y-75100000D02*
X157250000Y-75100000D01*
X162250000Y-75500000D02*
X162250000Y-75100000D01*
X162250000Y-77500000D02*
X162250000Y-77900000D01*
X162250000Y-77900000D02*
X157250000Y-77900000D01*
D11*
%TO.C,R30*%
X170750000Y-96364500D02*
X170750000Y-95780500D01*
X171766000Y-97380500D02*
G75*
G02*
X169734000Y-97380500I-1016000J0D01*
G01*
X169734000Y-97380500D02*
G75*
G02*
X171766000Y-97380500I1016000J0D01*
G01*
%TO.C,R4*%
X168000000Y-54885500D02*
X168000000Y-55469500D01*
X169016000Y-53869500D02*
G75*
G02*
X166984000Y-53869500I-1016000J0D01*
G01*
X166984000Y-53869500D02*
G75*
G02*
X169016000Y-53869500I1016000J0D01*
G01*
D13*
%TO.C,C28*%
X128100000Y-84000000D02*
X128100000Y-88000000D01*
X128600000Y-88500000D02*
X137600000Y-88500000D01*
X137600000Y-83500000D02*
X128600000Y-83500000D01*
X138100000Y-84000000D02*
X137600000Y-83500000D01*
X138100000Y-88000000D02*
X137600000Y-88500000D01*
X138600000Y-83500000D02*
X138100000Y-84000000D01*
X138600000Y-88500000D02*
X138100000Y-88000000D01*
X138600000Y-88500000D02*
X139100000Y-88500000D01*
X139100000Y-83500000D02*
X138600000Y-83500000D01*
X139600000Y-88000000D02*
X139600000Y-84000000D01*
D12*
X139800000Y-87250000D02*
X140600000Y-87250000D01*
X140200000Y-85150000D02*
X140200000Y-84300000D01*
X140200000Y-87675000D02*
X140200000Y-86825000D01*
D13*
X128100000Y-84000000D02*
G75*
G02*
X128600000Y-83500000I500000J0D01*
G01*
X128600000Y-88500000D02*
G75*
G02*
X128100000Y-88000000I1J500001D01*
G01*
X139100000Y-83500000D02*
G75*
G02*
X139600000Y-84000000I0J-500000D01*
G01*
X139600000Y-88000000D02*
G75*
G02*
X139100000Y-88500000I-500001J1D01*
G01*
D14*
X138100000Y-84000000D02*
X138600000Y-83500000D01*
X139100000Y-83500000D01*
X139453553Y-83646447D01*
X139600000Y-84000000D01*
X139600000Y-84500000D01*
X128100000Y-84500000D01*
X128100000Y-84000000D01*
X128246447Y-83646447D01*
X128600000Y-83500000D01*
X137600000Y-83500000D01*
X138100000Y-84000000D01*
G36*
X138100000Y-84000000D02*
G01*
X138600000Y-83500000D01*
X139100000Y-83500000D01*
X139453553Y-83646447D01*
X139600000Y-84000000D01*
X139600000Y-84500000D01*
X128100000Y-84500000D01*
X128100000Y-84000000D01*
X128246447Y-83646447D01*
X128600000Y-83500000D01*
X137600000Y-83500000D01*
X138100000Y-84000000D01*
G37*
D11*
%TO.C,R7*%
X173500000Y-54885500D02*
X173500000Y-55469500D01*
X174516000Y-53869500D02*
G75*
G02*
X172484000Y-53869500I-1016000J0D01*
G01*
X172484000Y-53869500D02*
G75*
G02*
X174516000Y-53869500I1016000J0D01*
G01*
D12*
%TO.C,U5*%
X147460000Y-132350000D02*
X147460000Y-130400000D01*
X150000000Y-132350000D02*
X150000000Y-130400000D01*
X152540000Y-132350000D02*
X152540000Y-130400000D01*
D11*
%TO.C,D1*%
X159494500Y-54719377D02*
X159494501Y-54719376D01*
D15*
X159969500Y-55250000D02*
X160169500Y-55500000D01*
X160169500Y-55500000D02*
X159969500Y-55750000D01*
D11*
X160469500Y-54700000D02*
X160469500Y-56300000D01*
X160469500Y-55500000D02*
X159494501Y-54719376D01*
X160469500Y-55500000D02*
X159494501Y-56280624D01*
D16*
X160479500Y-55500000D02*
X160469500Y-55500000D01*
D11*
X159494497Y-54719375D02*
G75*
G02*
X159494491Y-56280624I-624997J-780622D01*
G01*
D17*
X160474525Y-55500000D02*
G75*
G02*
X160464475Y-55500000I-5025J0D01*
G01*
X160464475Y-55500000D02*
G75*
G02*
X160474525Y-55500000I5025J0D01*
G01*
D12*
%TO.C,J4*%
X163940000Y-142090000D02*
X163940000Y-149910000D01*
X163940000Y-143690000D02*
X164860000Y-143690000D01*
X163940000Y-149910000D02*
X172060000Y-149910000D01*
X164700000Y-146050000D02*
X164700000Y-147650000D01*
X164700000Y-147650000D02*
X165700000Y-147650000D01*
X164860000Y-142090000D02*
X163940000Y-142090000D01*
X164860000Y-143690000D02*
X164860000Y-142090000D01*
X165140000Y-143690000D02*
X164860000Y-143690000D01*
X165140000Y-143690000D02*
X165140000Y-142475000D01*
X165200000Y-147650000D02*
X165200000Y-149910000D01*
X165700000Y-146050000D02*
X164700000Y-146050000D01*
X165700000Y-147650000D02*
X165700000Y-146050000D01*
X165700000Y-147650000D02*
X165700000Y-149910000D01*
X166500000Y-145550000D02*
X169500000Y-145550000D01*
X166500000Y-149910000D02*
X166500000Y-145550000D01*
X169500000Y-145550000D02*
X169500000Y-149910000D01*
X170300000Y-146050000D02*
X171300000Y-146050000D01*
X170300000Y-147650000D02*
X170300000Y-146050000D01*
X171140000Y-142090000D02*
X171140000Y-143690000D01*
X171140000Y-143690000D02*
X170860000Y-143690000D01*
X171300000Y-146050000D02*
X171300000Y-147650000D01*
X171300000Y-147650000D02*
X170300000Y-147650000D01*
X172060000Y-142090000D02*
X171140000Y-142090000D01*
X172060000Y-143690000D02*
X171140000Y-143690000D01*
X172060000Y-149910000D02*
X172060000Y-142090000D01*
D11*
%TO.C,R16*%
X168000000Y-87614500D02*
X168000000Y-87030500D01*
X169016000Y-88630500D02*
G75*
G02*
X166984000Y-88630500I-1016000J0D01*
G01*
X166984000Y-88630500D02*
G75*
G02*
X169016000Y-88630500I1016000J0D01*
G01*
%TO.C,R15*%
X165250000Y-87614500D02*
X165250000Y-87030500D01*
X166266000Y-88630500D02*
G75*
G02*
X164234000Y-88630500I-1016000J0D01*
G01*
X164234000Y-88630500D02*
G75*
G02*
X166266000Y-88630500I1016000J0D01*
G01*
D12*
%TO.C,J3*%
X127940000Y-142090000D02*
X127940000Y-149910000D01*
X127940000Y-143690000D02*
X128860000Y-143690000D01*
X127940000Y-149910000D02*
X136060000Y-149910000D01*
X128700000Y-146050000D02*
X128700000Y-147650000D01*
X128700000Y-147650000D02*
X129700000Y-147650000D01*
X128860000Y-142090000D02*
X127940000Y-142090000D01*
X128860000Y-143690000D02*
X128860000Y-142090000D01*
X129140000Y-143690000D02*
X128860000Y-143690000D01*
X129140000Y-143690000D02*
X129140000Y-142475000D01*
X129200000Y-147650000D02*
X129200000Y-149910000D01*
X129700000Y-146050000D02*
X128700000Y-146050000D01*
X129700000Y-147650000D02*
X129700000Y-146050000D01*
X129700000Y-147650000D02*
X129700000Y-149910000D01*
X130500000Y-145550000D02*
X133500000Y-145550000D01*
X130500000Y-149910000D02*
X130500000Y-145550000D01*
X133500000Y-145550000D02*
X133500000Y-149910000D01*
X134300000Y-146050000D02*
X135300000Y-146050000D01*
X134300000Y-147650000D02*
X134300000Y-146050000D01*
X135140000Y-142090000D02*
X135140000Y-143690000D01*
X135140000Y-143690000D02*
X134860000Y-143690000D01*
X135300000Y-146050000D02*
X135300000Y-147650000D01*
X135300000Y-147650000D02*
X134300000Y-147650000D01*
X136060000Y-142090000D02*
X135140000Y-142090000D01*
X136060000Y-143690000D02*
X135140000Y-143690000D01*
X136060000Y-149910000D02*
X136060000Y-142090000D01*
%TO.C,C2*%
X148600000Y-51319500D02*
X149000000Y-51319500D01*
X148600000Y-56319500D02*
X148600000Y-51319500D01*
X149000000Y-56319500D02*
X148600000Y-56319500D01*
X151000000Y-56319500D02*
X151400000Y-56319500D01*
X151400000Y-51319500D02*
X151000000Y-51319500D01*
X151400000Y-56319500D02*
X151400000Y-51319500D01*
%TO.C,J1*%
X127350000Y-63730000D02*
X127350000Y-62870000D01*
X127350000Y-63730000D02*
X128150000Y-63730000D01*
X130500000Y-58000000D02*
X130500000Y-61780000D01*
X130500000Y-58000000D02*
X141000000Y-58000000D01*
X130500000Y-63220000D02*
X130500000Y-67000000D01*
X130500000Y-67000000D02*
X141000000Y-67000000D01*
X141000000Y-58000000D02*
X141000000Y-61700000D01*
X141000000Y-63300000D02*
X141000000Y-67000000D01*
X136800000Y-62500000D02*
G75*
G02*
X133200000Y-62500000I-1800000J0D01*
G01*
X133200000Y-62500000D02*
G75*
G02*
X136800000Y-62500000I1800000J0D01*
G01*
%TO.C,C8*%
X157250000Y-78350000D02*
X157250000Y-78750000D01*
X157250000Y-81150000D02*
X157250000Y-80750000D01*
X162250000Y-78350000D02*
X157250000Y-78350000D01*
X162250000Y-78750000D02*
X162250000Y-78350000D01*
X162250000Y-80750000D02*
X162250000Y-81150000D01*
X162250000Y-81150000D02*
X157250000Y-81150000D01*
D11*
%TO.C,R29*%
X168000000Y-96364500D02*
X168000000Y-95780500D01*
X169016000Y-97380500D02*
G75*
G02*
X166984000Y-97380500I-1016000J0D01*
G01*
X166984000Y-97380500D02*
G75*
G02*
X169016000Y-97380500I1016000J0D01*
G01*
%TO.C,R17*%
X170750000Y-87614500D02*
X170750000Y-87030500D01*
X171766000Y-88630500D02*
G75*
G02*
X169734000Y-88630500I-1016000J0D01*
G01*
X169734000Y-88630500D02*
G75*
G02*
X171766000Y-88630500I1016000J0D01*
G01*
%TO.C,R28*%
X173500000Y-87614500D02*
X173500000Y-87030500D01*
X174516000Y-88630500D02*
G75*
G02*
X172484000Y-88630500I-1016000J0D01*
G01*
X172484000Y-88630500D02*
G75*
G02*
X174516000Y-88630500I1016000J0D01*
G01*
D12*
%TO.C,U2*%
X147740000Y-71050000D02*
X147740000Y-80280000D01*
X147740000Y-80280000D02*
X152240000Y-80280000D01*
X148990000Y-71050000D02*
X147740000Y-71050000D01*
X152240000Y-71050000D02*
X150990000Y-71050000D01*
X152240000Y-80280000D02*
X152240000Y-71050000D01*
X150990000Y-71050000D02*
G75*
G02*
X148990000Y-71050000I-1000000J0D01*
G01*
D11*
%TO.C,R2*%
X129250000Y-54885500D02*
X129250000Y-55469500D01*
X130266000Y-53869500D02*
G75*
G02*
X128234000Y-53869500I-1016000J0D01*
G01*
X128234000Y-53869500D02*
G75*
G02*
X130266000Y-53869500I1016000J0D01*
G01*
%TO.C,R32*%
X165250000Y-105114500D02*
X165250000Y-104530500D01*
X166266000Y-106130500D02*
G75*
G02*
X164234000Y-106130500I-1016000J0D01*
G01*
X164234000Y-106130500D02*
G75*
G02*
X166266000Y-106130500I1016000J0D01*
G01*
D12*
%TO.C,C1*%
X145350000Y-51319500D02*
X145350000Y-56319500D01*
X145350000Y-56319500D02*
X145750000Y-56319500D01*
X145750000Y-51319500D02*
X145350000Y-51319500D01*
X147750000Y-51319500D02*
X148150000Y-51319500D01*
X148150000Y-51319500D02*
X148150000Y-56319500D01*
X148150000Y-56319500D02*
X147750000Y-56319500D01*
%TO.C,RV1*%
X129500000Y-110100001D02*
X129500000Y-119899999D01*
X129500000Y-110100001D02*
X132900000Y-110100001D01*
X129500000Y-119899999D02*
X132900001Y-119900000D01*
X137099999Y-110100000D02*
X140500000Y-110100001D01*
X137100000Y-119899999D02*
X140500000Y-119899999D01*
X140500000Y-119899999D02*
X140500000Y-110100001D01*
X133639853Y-117720293D02*
G75*
G02*
X133600001Y-112300001I1360147J2720293D01*
G01*
X136360147Y-112279707D02*
G75*
G02*
X136399999Y-117699999I-1360147J-2720293D01*
G01*
%TO.C,C21*%
X157250000Y-91350000D02*
X157250000Y-91750000D01*
X157250000Y-94150000D02*
X157250000Y-93750000D01*
X162250000Y-91350000D02*
X157250000Y-91350000D01*
X162250000Y-91750000D02*
X162250000Y-91350000D01*
X162250000Y-93750000D02*
X162250000Y-94150000D01*
X162250000Y-94150000D02*
X157250000Y-94150000D01*
%TO.C,C20*%
X137700001Y-94600000D02*
X137700001Y-95000000D01*
X137700001Y-97400000D02*
X137700001Y-97000000D01*
X142700001Y-94600000D02*
X137700001Y-94600000D01*
X142700001Y-95000000D02*
X142700001Y-94600000D01*
X142700001Y-97000000D02*
X142700001Y-97400000D01*
X142700001Y-97400000D02*
X137700001Y-97400000D01*
D11*
%TO.C,R25*%
X129000000Y-105114500D02*
X129000000Y-104530500D01*
X130016000Y-106130500D02*
G75*
G02*
X127984000Y-106130500I-1016000J0D01*
G01*
X127984000Y-106130500D02*
G75*
G02*
X130016000Y-106130500I1016000J0D01*
G01*
D12*
%TO.C,C9*%
X137700001Y-75350000D02*
X142700001Y-75350000D01*
X137700001Y-75750000D02*
X137700001Y-75350000D01*
X137700001Y-77750000D02*
X137700001Y-78150000D01*
X137700001Y-78150000D02*
X142700001Y-78150000D01*
X142700001Y-75350000D02*
X142700001Y-75750000D01*
X142700001Y-78150000D02*
X142700001Y-77750000D01*
%TO.C,RV3*%
X129500000Y-125100001D02*
X129500000Y-134899999D01*
X129500000Y-125100001D02*
X132900000Y-125100001D01*
X129500000Y-134899999D02*
X132900001Y-134900000D01*
X137099999Y-125100000D02*
X140500000Y-125100001D01*
X137100000Y-134899999D02*
X140500000Y-134899999D01*
X140500000Y-134899999D02*
X140500000Y-125100001D01*
X133639853Y-132720293D02*
G75*
G02*
X133600001Y-127300001I1360147J2720293D01*
G01*
X136360147Y-127279707D02*
G75*
G02*
X136399999Y-132699999I-1360147J-2720293D01*
G01*
D11*
%TO.C,R9*%
X165250000Y-73114500D02*
X165250000Y-72530500D01*
X166266000Y-74130500D02*
G75*
G02*
X164234000Y-74130500I-1016000J0D01*
G01*
X164234000Y-74130500D02*
G75*
G02*
X166266000Y-74130500I1016000J0D01*
G01*
%TO.C,R31*%
X173500000Y-96364500D02*
X173500000Y-95780500D01*
X174516000Y-97380500D02*
G75*
G02*
X172484000Y-97380500I-1016000J0D01*
G01*
X172484000Y-97380500D02*
G75*
G02*
X174516000Y-97380500I1016000J0D01*
G01*
D12*
%TO.C,Q1*%
X131200000Y-94210000D02*
X134800000Y-94210000D01*
X131161522Y-94198478D02*
G75*
G02*
X133000000Y-89759999I1838478J1838478D01*
G01*
X133000000Y-89760000D02*
G75*
G02*
X134838478Y-94198478I0J-2600000D01*
G01*
%TO.C,D6*%
X165280000Y-137780000D02*
X170720000Y-137780000D01*
X165280000Y-138110000D02*
X165280000Y-137780000D01*
X165280000Y-140390000D02*
X165280000Y-140720000D01*
X165280000Y-140720000D02*
X170720000Y-140720000D01*
X166060000Y-137780000D02*
X166060000Y-140720000D01*
X166180000Y-137780000D02*
X166180000Y-140720000D01*
X166300000Y-137780000D02*
X166300000Y-140720000D01*
X170720000Y-137780000D02*
X170720000Y-138110000D01*
X170720000Y-140720000D02*
X170720000Y-140390000D01*
D11*
%TO.C,R33*%
X170750000Y-105114500D02*
X170750000Y-104530500D01*
X171766000Y-106130500D02*
G75*
G02*
X169734000Y-106130500I-1016000J0D01*
G01*
X169734000Y-106130500D02*
G75*
G02*
X171766000Y-106130500I1016000J0D01*
G01*
D12*
%TO.C,C18*%
X157250000Y-88100000D02*
X162250000Y-88100000D01*
X157250000Y-88500000D02*
X157250000Y-88100000D01*
X157250000Y-90500000D02*
X157250000Y-90900000D01*
X157250000Y-90900000D02*
X162250000Y-90900000D01*
X162250000Y-88100000D02*
X162250000Y-88500000D01*
X162250000Y-90900000D02*
X162250000Y-90500000D01*
D11*
%TO.C,R27*%
X144135500Y-119750000D02*
X144719500Y-119750000D01*
X144135500Y-119750000D02*
G75*
G02*
X142103500Y-119750000I-1016000J0D01*
G01*
X142103500Y-119750000D02*
G75*
G02*
X144135500Y-119750000I1016000J0D01*
G01*
%TO.C,R5*%
X165250000Y-54885500D02*
X165250000Y-55469500D01*
X166266000Y-53869500D02*
G75*
G02*
X164234000Y-53869500I-1016000J0D01*
G01*
X164234000Y-53869500D02*
G75*
G02*
X166266000Y-53869500I1016000J0D01*
G01*
%TO.C,R22*%
X155864500Y-122500000D02*
X155280500Y-122500000D01*
X157896500Y-122500000D02*
G75*
G02*
X155864500Y-122500000I-1016000J0D01*
G01*
X155864500Y-122500000D02*
G75*
G02*
X157896500Y-122500000I1016000J0D01*
G01*
D12*
%TO.C,C22*%
X157250000Y-104350000D02*
X157250000Y-104750000D01*
X157250000Y-107150000D02*
X157250000Y-106750000D01*
X162250000Y-104350000D02*
X157250000Y-104350000D01*
X162250000Y-104750000D02*
X162250000Y-104350000D01*
X162250000Y-106750000D02*
X162250000Y-107150000D01*
X162250000Y-107150000D02*
X157250000Y-107150000D01*
D11*
%TO.C,R14*%
X129000000Y-79984000D02*
X129000000Y-79400000D01*
X130016000Y-81000000D02*
G75*
G02*
X127984000Y-81000000I-1016000J0D01*
G01*
X127984000Y-81000000D02*
G75*
G02*
X130016000Y-81000000I1016000J0D01*
G01*
D12*
%TO.C,C11*%
X137700001Y-91350000D02*
X142700001Y-91350000D01*
X137700001Y-91750000D02*
X137700001Y-91350000D01*
X137700001Y-93750000D02*
X137700001Y-94150000D01*
X137700001Y-94150000D02*
X142700001Y-94150000D01*
X142700001Y-91350000D02*
X142700001Y-91750000D01*
X142700001Y-94150000D02*
X142700001Y-93750000D01*
%TO.C,C7*%
X166920000Y-79170000D02*
X166920000Y-78430000D01*
X166960000Y-79337000D02*
X166960000Y-78263000D01*
X167000000Y-79463000D02*
X167000000Y-78137000D01*
X167040000Y-79568000D02*
X167040000Y-78032000D01*
X167080000Y-79659000D02*
X167080000Y-77941000D01*
X167120000Y-79740000D02*
X167120000Y-77860000D01*
X167160000Y-79813000D02*
X167160000Y-77787000D01*
X167200000Y-79880000D02*
X167200000Y-77720000D01*
X167240000Y-79942000D02*
X167240000Y-77658000D01*
X167280000Y-79999000D02*
X167280000Y-77601000D01*
X167320000Y-80053000D02*
X167320000Y-77547000D01*
X167360000Y-80103000D02*
X167360000Y-77497000D01*
X167440000Y-77960000D02*
X167440000Y-77404000D01*
X167440000Y-80196000D02*
X167440000Y-79640000D01*
X167480000Y-77960000D02*
X167480000Y-77362000D01*
X167480000Y-80238000D02*
X167480000Y-79640000D01*
X167520000Y-77960000D02*
X167520000Y-77322000D01*
X167520000Y-80278000D02*
X167520000Y-79640000D01*
X167560000Y-77960000D02*
X167560000Y-77284000D01*
X167560000Y-80316000D02*
X167560000Y-79640000D01*
X167600000Y-77960000D02*
X167600000Y-77248000D01*
X167600000Y-80352000D02*
X167600000Y-79640000D01*
X167640000Y-77960000D02*
X167640000Y-77214000D01*
X167640000Y-80386000D02*
X167640000Y-79640000D01*
X167680000Y-77960000D02*
X167680000Y-77181000D01*
X167680000Y-80419000D02*
X167680000Y-79640000D01*
X167720000Y-77960000D02*
X167720000Y-77150000D01*
X167720000Y-80450000D02*
X167720000Y-79640000D01*
X167760000Y-77960000D02*
X167760000Y-77120000D01*
X167760000Y-80480000D02*
X167760000Y-79640000D01*
X167800000Y-77960000D02*
X167800000Y-77092000D01*
X167800000Y-80508000D02*
X167800000Y-79640000D01*
X167840000Y-77960000D02*
X167840000Y-77066000D01*
X167840000Y-80534000D02*
X167840000Y-79640000D01*
X167880000Y-77960000D02*
X167880000Y-77040000D01*
X167880000Y-80560000D02*
X167880000Y-79640000D01*
X167920000Y-77960000D02*
X167920000Y-77016000D01*
X167920000Y-80584000D02*
X167920000Y-79640000D01*
X167960000Y-77960000D02*
X167960000Y-76993000D01*
X167960000Y-80607000D02*
X167960000Y-79640000D01*
X168000000Y-77960000D02*
X168000000Y-76971000D01*
X168000000Y-80629000D02*
X168000000Y-79640000D01*
X168040000Y-77960000D02*
X168040000Y-76950000D01*
X168040000Y-80650000D02*
X168040000Y-79640000D01*
X168080000Y-77960000D02*
X168080000Y-76930000D01*
X168080000Y-80670000D02*
X168080000Y-79640000D01*
X168120000Y-77960000D02*
X168120000Y-76911000D01*
X168120000Y-80689000D02*
X168120000Y-79640000D01*
X168160000Y-77960000D02*
X168160000Y-76894000D01*
X168160000Y-80706000D02*
X168160000Y-79640000D01*
X168200000Y-77960000D02*
X168200000Y-76877000D01*
X168200000Y-80723000D02*
X168200000Y-79640000D01*
X168240000Y-77960000D02*
X168240000Y-76861000D01*
X168240000Y-80739000D02*
X168240000Y-79640000D01*
X168280000Y-77960000D02*
X168280000Y-76846000D01*
X168280000Y-80754000D02*
X168280000Y-79640000D01*
X168320000Y-77960000D02*
X168320000Y-76832000D01*
X168320000Y-80768000D02*
X168320000Y-79640000D01*
X168360000Y-77960000D02*
X168360000Y-76819000D01*
X168360000Y-80781000D02*
X168360000Y-79640000D01*
X168400000Y-77960000D02*
X168400000Y-76807000D01*
X168400000Y-80793000D02*
X168400000Y-79640000D01*
X168440000Y-77960000D02*
X168440000Y-76795000D01*
X168440000Y-80805000D02*
X168440000Y-79640000D01*
X168480000Y-77960000D02*
X168480000Y-76785000D01*
X168480000Y-80815000D02*
X168480000Y-79640000D01*
X168520000Y-77960000D02*
X168520000Y-76775000D01*
X168520000Y-80825000D02*
X168520000Y-79640000D01*
X168560000Y-77960000D02*
X168560000Y-76766000D01*
X168560000Y-80834000D02*
X168560000Y-79640000D01*
X168600000Y-77960000D02*
X168600000Y-76758000D01*
X168600000Y-80842000D02*
X168600000Y-79640000D01*
X168640000Y-77960000D02*
X168640000Y-76751000D01*
X168640000Y-80849000D02*
X168640000Y-79640000D01*
X168680000Y-77960000D02*
X168680000Y-76744000D01*
X168680000Y-80856000D02*
X168680000Y-79640000D01*
X168720000Y-77960000D02*
X168720000Y-76739000D01*
X168720000Y-80861000D02*
X168720000Y-79640000D01*
X168760000Y-77960000D02*
X168760000Y-76734000D01*
X168760000Y-80866000D02*
X168760000Y-79640000D01*
X168800000Y-77960000D02*
X168800000Y-76729000D01*
X168800000Y-80871000D02*
X168800000Y-79640000D01*
X168840000Y-77960000D02*
X168840000Y-76726000D01*
X168840000Y-80874000D02*
X168840000Y-79640000D01*
X168880000Y-77960000D02*
X168880000Y-76723000D01*
X168880000Y-80877000D02*
X168880000Y-79640000D01*
X168920000Y-77960000D02*
X168920000Y-76722000D01*
X168920000Y-80878000D02*
X168920000Y-79640000D01*
X168960000Y-77960000D02*
X168960000Y-76720000D01*
X168960000Y-80880000D02*
X168960000Y-79640000D01*
X169000000Y-77960000D02*
X169000000Y-76720000D01*
X169000000Y-80880000D02*
X169000000Y-79640000D01*
X171000000Y-81202500D02*
X171000000Y-80397500D01*
X171440099Y-80800000D02*
X170559900Y-80800000D01*
X171120000Y-78800000D02*
G75*
G02*
X166880000Y-78800000I-2120000J0D01*
G01*
X166880000Y-78800000D02*
G75*
G02*
X171120000Y-78800000I2120000J0D01*
G01*
D11*
%TO.C,R8*%
X134750000Y-54885500D02*
X134750000Y-55469500D01*
X135766000Y-53869500D02*
G75*
G02*
X133734000Y-53869500I-1016000J0D01*
G01*
X133734000Y-53869500D02*
G75*
G02*
X135766000Y-53869500I1016000J0D01*
G01*
%TO.C,R18*%
X144135500Y-122500000D02*
X144719500Y-122500000D01*
X144135500Y-122500000D02*
G75*
G02*
X142103500Y-122500000I-1016000J0D01*
G01*
X142103500Y-122500000D02*
G75*
G02*
X144135500Y-122500000I1016000J0D01*
G01*
D12*
%TO.C,C3*%
X151850000Y-51319500D02*
X151850000Y-56319500D01*
X151850000Y-56319500D02*
X152250000Y-56319500D01*
X152250000Y-51319500D02*
X151850000Y-51319500D01*
X154250000Y-51319500D02*
X154650000Y-51319500D01*
X154650000Y-51319500D02*
X154650000Y-56319500D01*
X154650000Y-56319500D02*
X154250000Y-56319500D01*
%TO.C,U3*%
X147750000Y-105920000D02*
X147750000Y-115150000D01*
X147750000Y-115150000D02*
X152250000Y-115150000D01*
X149000000Y-105920000D02*
X147750000Y-105920000D01*
X152250000Y-105920000D02*
X151000000Y-105920000D01*
X152250000Y-115150000D02*
X152250000Y-105920000D01*
X151000000Y-105920000D02*
G75*
G02*
X149000000Y-105920000I-1000000J0D01*
G01*
%TO.C,RV4*%
X159500000Y-125100001D02*
X159500000Y-134899999D01*
X162900000Y-125100001D02*
X159500000Y-125100001D01*
X162900001Y-134900000D02*
X159500000Y-134899999D01*
X170500000Y-125100001D02*
X167099999Y-125100000D01*
X170500000Y-134899999D02*
X167100000Y-134899999D01*
X170500000Y-134899999D02*
X170500000Y-125100001D01*
X163639853Y-132720293D02*
G75*
G02*
X163600001Y-127300001I1360147J2720293D01*
G01*
X166360147Y-127279707D02*
G75*
G02*
X166399999Y-132699999I-1360147J-2720293D01*
G01*
%TO.C,C10*%
X137700001Y-78600000D02*
X142700001Y-78600000D01*
X137700001Y-79000000D02*
X137700001Y-78600000D01*
X137700001Y-81000000D02*
X137700001Y-81400000D01*
X137700001Y-81400000D02*
X142700001Y-81400000D01*
X142700001Y-78600000D02*
X142700001Y-79000000D01*
X142700001Y-81400000D02*
X142700001Y-81000000D01*
%TO.C,C25*%
X137700001Y-101100000D02*
X137700001Y-101500000D01*
X137700001Y-103900000D02*
X137700001Y-103500000D01*
X142700001Y-101100000D02*
X137700001Y-101100000D01*
X142700001Y-101500000D02*
X142700001Y-101100000D01*
X142700001Y-103500000D02*
X142700001Y-103900000D01*
X142700001Y-103900000D02*
X137700001Y-103900000D01*
%TO.C,SW1*%
D14*
X147400000Y-118400000D02*
X152600000Y-118400000D01*
X152600000Y-126600000D01*
X147400000Y-126600000D01*
X147400000Y-118400000D01*
D12*
%TO.C,C23*%
X156920000Y-144870000D02*
X156920000Y-144130000D01*
X156960000Y-145037000D02*
X156960000Y-143963000D01*
X157000000Y-145163000D02*
X157000000Y-143837000D01*
X157040000Y-145268000D02*
X157040000Y-143732000D01*
X157080000Y-145359000D02*
X157080000Y-143641000D01*
X157120000Y-145440000D02*
X157120000Y-143560000D01*
X157160000Y-145513000D02*
X157160000Y-143487000D01*
X157200000Y-145580000D02*
X157200000Y-143420000D01*
X157240000Y-145642000D02*
X157240000Y-143358000D01*
X157280000Y-145699000D02*
X157280000Y-143301000D01*
X157320000Y-145753000D02*
X157320000Y-143247000D01*
X157360000Y-145803000D02*
X157360000Y-143197000D01*
X157440000Y-143660000D02*
X157440000Y-143104000D01*
X157440000Y-145896000D02*
X157440000Y-145340000D01*
X157480000Y-143660000D02*
X157480000Y-143062000D01*
X157480000Y-145938000D02*
X157480000Y-145340000D01*
X157520000Y-143660000D02*
X157520000Y-143022000D01*
X157520000Y-145978000D02*
X157520000Y-145340000D01*
X157560000Y-143660000D02*
X157560000Y-142984000D01*
X157560000Y-146016000D02*
X157560000Y-145340000D01*
X157600000Y-143660000D02*
X157600000Y-142948000D01*
X157600000Y-146052000D02*
X157600000Y-145340000D01*
X157640000Y-143660000D02*
X157640000Y-142914000D01*
X157640000Y-146086000D02*
X157640000Y-145340000D01*
X157680000Y-143660000D02*
X157680000Y-142881000D01*
X157680000Y-146119000D02*
X157680000Y-145340000D01*
X157720000Y-143660000D02*
X157720000Y-142850000D01*
X157720000Y-146150000D02*
X157720000Y-145340000D01*
X157760000Y-143660000D02*
X157760000Y-142820000D01*
X157760000Y-146180000D02*
X157760000Y-145340000D01*
X157800000Y-143660000D02*
X157800000Y-142792000D01*
X157800000Y-146208000D02*
X157800000Y-145340000D01*
X157840000Y-143660000D02*
X157840000Y-142766000D01*
X157840000Y-146234000D02*
X157840000Y-145340000D01*
X157880000Y-143660000D02*
X157880000Y-142740000D01*
X157880000Y-146260000D02*
X157880000Y-145340000D01*
X157920000Y-143660000D02*
X157920000Y-142716000D01*
X157920000Y-146284000D02*
X157920000Y-145340000D01*
X157960000Y-143660000D02*
X157960000Y-142693000D01*
X157960000Y-146307000D02*
X157960000Y-145340000D01*
X158000000Y-143660000D02*
X158000000Y-142671000D01*
X158000000Y-146329000D02*
X158000000Y-145340000D01*
X158040000Y-143660000D02*
X158040000Y-142650000D01*
X158040000Y-146350000D02*
X158040000Y-145340000D01*
X158080000Y-143660000D02*
X158080000Y-142630000D01*
X158080000Y-146370000D02*
X158080000Y-145340000D01*
X158120000Y-143660000D02*
X158120000Y-142611000D01*
X158120000Y-146389000D02*
X158120000Y-145340000D01*
X158160000Y-143660000D02*
X158160000Y-142594000D01*
X158160000Y-146406000D02*
X158160000Y-145340000D01*
X158200000Y-143660000D02*
X158200000Y-142577000D01*
X158200000Y-146423000D02*
X158200000Y-145340000D01*
X158240000Y-143660000D02*
X158240000Y-142561000D01*
X158240000Y-146439000D02*
X158240000Y-145340000D01*
X158280000Y-143660000D02*
X158280000Y-142546000D01*
X158280000Y-146454000D02*
X158280000Y-145340000D01*
X158320000Y-143660000D02*
X158320000Y-142532000D01*
X158320000Y-146468000D02*
X158320000Y-145340000D01*
X158360000Y-143660000D02*
X158360000Y-142519000D01*
X158360000Y-146481000D02*
X158360000Y-145340000D01*
X158400000Y-143660000D02*
X158400000Y-142507000D01*
X158400000Y-146493000D02*
X158400000Y-145340000D01*
X158440000Y-143660000D02*
X158440000Y-142495000D01*
X158440000Y-146505000D02*
X158440000Y-145340000D01*
X158480000Y-143660000D02*
X158480000Y-142485000D01*
X158480000Y-146515000D02*
X158480000Y-145340000D01*
X158520000Y-143660000D02*
X158520000Y-142475000D01*
X158520000Y-146525000D02*
X158520000Y-145340000D01*
X158560000Y-143660000D02*
X158560000Y-142466000D01*
X158560000Y-146534000D02*
X158560000Y-145340000D01*
X158600000Y-143660000D02*
X158600000Y-142458000D01*
X158600000Y-146542000D02*
X158600000Y-145340000D01*
X158640000Y-143660000D02*
X158640000Y-142451000D01*
X158640000Y-146549000D02*
X158640000Y-145340000D01*
X158680000Y-143660000D02*
X158680000Y-142444000D01*
X158680000Y-146556000D02*
X158680000Y-145340000D01*
X158720000Y-143660000D02*
X158720000Y-142439000D01*
X158720000Y-146561000D02*
X158720000Y-145340000D01*
X158760000Y-143660000D02*
X158760000Y-142434000D01*
X158760000Y-146566000D02*
X158760000Y-145340000D01*
X158800000Y-143660000D02*
X158800000Y-142429000D01*
X158800000Y-146571000D02*
X158800000Y-145340000D01*
X158840000Y-143660000D02*
X158840000Y-142426000D01*
X158840000Y-146574000D02*
X158840000Y-145340000D01*
X158880000Y-143660000D02*
X158880000Y-142423000D01*
X158880000Y-146577000D02*
X158880000Y-145340000D01*
X158920000Y-143660000D02*
X158920000Y-142422000D01*
X158920000Y-146578000D02*
X158920000Y-145340000D01*
X158960000Y-143660000D02*
X158960000Y-142420000D01*
X158960000Y-146580000D02*
X158960000Y-145340000D01*
X159000000Y-143660000D02*
X159000000Y-142420000D01*
X159000000Y-146580000D02*
X159000000Y-145340000D01*
X161000000Y-146902500D02*
X161000000Y-146097500D01*
X161440099Y-146500000D02*
X160559900Y-146500000D01*
X161120000Y-144500000D02*
G75*
G02*
X156880000Y-144500000I-2120000J0D01*
G01*
X156880000Y-144500000D02*
G75*
G02*
X161120000Y-144500000I2120000J0D01*
G01*
%TO.C,C4*%
X157250000Y-68600000D02*
X157250000Y-69000000D01*
X157250000Y-71400000D02*
X157250000Y-71000000D01*
X162250000Y-68600000D02*
X157250000Y-68600000D01*
X162250000Y-69000000D02*
X162250000Y-68600000D01*
X162250000Y-71000000D02*
X162250000Y-71400000D01*
X162250000Y-71400000D02*
X157250000Y-71400000D01*
%TO.C,C17*%
X157250000Y-97850000D02*
X162250000Y-97850000D01*
X157250000Y-98250000D02*
X157250000Y-97850000D01*
X157250000Y-100250000D02*
X157250000Y-100650000D01*
X157250000Y-100650000D02*
X162250000Y-100650000D01*
X162250000Y-97850000D02*
X162250000Y-98250000D01*
X162250000Y-100650000D02*
X162250000Y-100250000D01*
D11*
%TO.C,R21*%
X155864500Y-119750000D02*
X155280500Y-119750000D01*
X157896500Y-119750000D02*
G75*
G02*
X155864500Y-119750000I-1016000J0D01*
G01*
X155864500Y-119750000D02*
G75*
G02*
X157896500Y-119750000I1016000J0D01*
G01*
D16*
%TO.C,D3*%
X139520500Y-52750000D02*
X139530500Y-52750000D01*
D11*
X139530500Y-52750000D02*
X140505499Y-51969376D01*
X139530500Y-52750000D02*
X140505499Y-53530624D01*
X139530500Y-53550000D02*
X139530500Y-51950000D01*
D15*
X139830500Y-52750000D02*
X140030500Y-52500000D01*
X140030500Y-53000000D02*
X139830500Y-52750000D01*
D11*
X140505500Y-53530623D02*
X140505499Y-53530624D01*
X140505503Y-53530625D02*
G75*
G02*
X140505509Y-51969376I624997J780622D01*
G01*
D17*
X139535525Y-52750000D02*
G75*
G02*
X139525475Y-52750000I-5025J0D01*
G01*
X139525475Y-52750000D02*
G75*
G02*
X139535525Y-52750000I5025J0D01*
G01*
D11*
%TO.C,R1*%
X126500000Y-54885500D02*
X126500000Y-55469500D01*
X127516000Y-53869500D02*
G75*
G02*
X125484000Y-53869500I-1016000J0D01*
G01*
X125484000Y-53869500D02*
G75*
G02*
X127516000Y-53869500I1016000J0D01*
G01*
%TO.C,R12*%
X173500000Y-73114500D02*
X173500000Y-72530500D01*
X174516000Y-74130500D02*
G75*
G02*
X172484000Y-74130500I-1016000J0D01*
G01*
X172484000Y-74130500D02*
G75*
G02*
X174516000Y-74130500I1016000J0D01*
G01*
%TO.C,R11*%
X170749999Y-73114500D02*
X170749999Y-72530500D01*
X171765999Y-74130500D02*
G75*
G02*
X169733999Y-74130500I-1016000J0D01*
G01*
X169733999Y-74130500D02*
G75*
G02*
X171765999Y-74130500I1016000J0D01*
G01*
%TO.C,R26*%
X165250000Y-96364500D02*
X165250000Y-95780500D01*
X166266000Y-97380500D02*
G75*
G02*
X164234000Y-97380500I-1016000J0D01*
G01*
X164234000Y-97380500D02*
G75*
G02*
X166266000Y-97380500I1016000J0D01*
G01*
%TO.C,R6*%
X132000000Y-54885500D02*
X132000000Y-55469500D01*
X133016000Y-53869500D02*
G75*
G02*
X130984000Y-53869500I-1016000J0D01*
G01*
X130984000Y-53869500D02*
G75*
G02*
X133016000Y-53869500I1016000J0D01*
G01*
D12*
%TO.C,C24*%
X138920000Y-144870000D02*
X138920000Y-144130000D01*
X138960000Y-145037000D02*
X138960000Y-143963000D01*
X139000000Y-145163000D02*
X139000000Y-143837000D01*
X139040000Y-145268000D02*
X139040000Y-143732000D01*
X139080000Y-145359000D02*
X139080000Y-143641000D01*
X139120000Y-145440000D02*
X139120000Y-143560000D01*
X139160000Y-145513000D02*
X139160000Y-143487000D01*
X139200000Y-145580000D02*
X139200000Y-143420000D01*
X139240000Y-145642000D02*
X139240000Y-143358000D01*
X139280000Y-145699000D02*
X139280000Y-143301000D01*
X139320000Y-145753000D02*
X139320000Y-143247000D01*
X139360000Y-145803000D02*
X139360000Y-143197000D01*
X139440000Y-143660000D02*
X139440000Y-143104000D01*
X139440000Y-145896000D02*
X139440000Y-145340000D01*
X139480000Y-143660000D02*
X139480000Y-143062000D01*
X139480000Y-145938000D02*
X139480000Y-145340000D01*
X139520000Y-143660000D02*
X139520000Y-143022000D01*
X139520000Y-145978000D02*
X139520000Y-145340000D01*
X139560000Y-143660000D02*
X139560000Y-142984000D01*
X139560000Y-146016000D02*
X139560000Y-145340000D01*
X139600000Y-143660000D02*
X139600000Y-142948000D01*
X139600000Y-146052000D02*
X139600000Y-145340000D01*
X139640000Y-143660000D02*
X139640000Y-142914000D01*
X139640000Y-146086000D02*
X139640000Y-145340000D01*
X139680000Y-143660000D02*
X139680000Y-142881000D01*
X139680000Y-146119000D02*
X139680000Y-145340000D01*
X139720000Y-143660000D02*
X139720000Y-142850000D01*
X139720000Y-146150000D02*
X139720000Y-145340000D01*
X139760000Y-143660000D02*
X139760000Y-142820000D01*
X139760000Y-146180000D02*
X139760000Y-145340000D01*
X139800000Y-143660000D02*
X139800000Y-142792000D01*
X139800000Y-146208000D02*
X139800000Y-145340000D01*
X139840000Y-143660000D02*
X139840000Y-142766000D01*
X139840000Y-146234000D02*
X139840000Y-145340000D01*
X139880000Y-143660000D02*
X139880000Y-142740000D01*
X139880000Y-146260000D02*
X139880000Y-145340000D01*
X139920000Y-143660000D02*
X139920000Y-142716000D01*
X139920000Y-146284000D02*
X139920000Y-145340000D01*
X139960000Y-143660000D02*
X139960000Y-142693000D01*
X139960000Y-146307000D02*
X139960000Y-145340000D01*
X140000000Y-143660000D02*
X140000000Y-142671000D01*
X140000000Y-146329000D02*
X140000000Y-145340000D01*
X140040000Y-143660000D02*
X140040000Y-142650000D01*
X140040000Y-146350000D02*
X140040000Y-145340000D01*
X140080000Y-143660000D02*
X140080000Y-142630000D01*
X140080000Y-146370000D02*
X140080000Y-145340000D01*
X140120000Y-143660000D02*
X140120000Y-142611000D01*
X140120000Y-146389000D02*
X140120000Y-145340000D01*
X140160000Y-143660000D02*
X140160000Y-142594000D01*
X140160000Y-146406000D02*
X140160000Y-145340000D01*
X140200000Y-143660000D02*
X140200000Y-142577000D01*
X140200000Y-146423000D02*
X140200000Y-145340000D01*
X140240000Y-143660000D02*
X140240000Y-142561000D01*
X140240000Y-146439000D02*
X140240000Y-145340000D01*
X140280000Y-143660000D02*
X140280000Y-142546000D01*
X140280000Y-146454000D02*
X140280000Y-145340000D01*
X140320000Y-143660000D02*
X140320000Y-142532000D01*
X140320000Y-146468000D02*
X140320000Y-145340000D01*
X140360000Y-143660000D02*
X140360000Y-142519000D01*
X140360000Y-146481000D02*
X140360000Y-145340000D01*
X140400000Y-143660000D02*
X140400000Y-142507000D01*
X140400000Y-146493000D02*
X140400000Y-145340000D01*
X140440000Y-143660000D02*
X140440000Y-142495000D01*
X140440000Y-146505000D02*
X140440000Y-145340000D01*
X140480000Y-143660000D02*
X140480000Y-142485000D01*
X140480000Y-146515000D02*
X140480000Y-145340000D01*
X140520000Y-143660000D02*
X140520000Y-142475000D01*
X140520000Y-146525000D02*
X140520000Y-145340000D01*
X140560000Y-143660000D02*
X140560000Y-142466000D01*
X140560000Y-146534000D02*
X140560000Y-145340000D01*
X140600000Y-143660000D02*
X140600000Y-142458000D01*
X140600000Y-146542000D02*
X140600000Y-145340000D01*
X140640000Y-143660000D02*
X140640000Y-142451000D01*
X140640000Y-146549000D02*
X140640000Y-145340000D01*
X140680000Y-143660000D02*
X140680000Y-142444000D01*
X140680000Y-146556000D02*
X140680000Y-145340000D01*
X140720000Y-143660000D02*
X140720000Y-142439000D01*
X140720000Y-146561000D02*
X140720000Y-145340000D01*
X140760000Y-143660000D02*
X140760000Y-142434000D01*
X140760000Y-146566000D02*
X140760000Y-145340000D01*
X140800000Y-143660000D02*
X140800000Y-142429000D01*
X140800000Y-146571000D02*
X140800000Y-145340000D01*
X140840000Y-143660000D02*
X140840000Y-142426000D01*
X140840000Y-146574000D02*
X140840000Y-145340000D01*
X140880000Y-143660000D02*
X140880000Y-142423000D01*
X140880000Y-146577000D02*
X140880000Y-145340000D01*
X140920000Y-143660000D02*
X140920000Y-142422000D01*
X140920000Y-146578000D02*
X140920000Y-145340000D01*
X140960000Y-143660000D02*
X140960000Y-142420000D01*
X140960000Y-146580000D02*
X140960000Y-145340000D01*
X141000000Y-143660000D02*
X141000000Y-142420000D01*
X141000000Y-146580000D02*
X141000000Y-145340000D01*
X143000000Y-146902500D02*
X143000000Y-146097500D01*
X143440099Y-146500000D02*
X142559900Y-146500000D01*
X143120000Y-144500000D02*
G75*
G02*
X138880000Y-144500000I-2120000J0D01*
G01*
X138880000Y-144500000D02*
G75*
G02*
X143120000Y-144500000I2120000J0D01*
G01*
D16*
%TO.C,D4*%
X139520500Y-55500000D02*
X139530500Y-55500000D01*
D11*
X139530500Y-55500000D02*
X140505499Y-54719376D01*
X139530500Y-55500000D02*
X140505499Y-56280624D01*
X139530500Y-56300000D02*
X139530500Y-54700000D01*
D15*
X139830500Y-55500000D02*
X140030500Y-55250000D01*
X140030500Y-55750000D02*
X139830500Y-55500000D01*
D11*
X140505500Y-56280623D02*
X140505499Y-56280624D01*
X140505503Y-56280625D02*
G75*
G02*
X140505509Y-54719376I624997J780622D01*
G01*
D17*
X139535525Y-55500000D02*
G75*
G02*
X139525475Y-55500000I-5025J0D01*
G01*
X139525475Y-55500000D02*
G75*
G02*
X139535525Y-55500000I5025J0D01*
G01*
D13*
%TO.C,C26*%
X128500000Y-69200000D02*
X128500000Y-73200000D01*
X129000000Y-73700000D02*
X138000000Y-73700000D01*
X138000000Y-68700000D02*
X129000000Y-68700000D01*
X138500000Y-69200000D02*
X138000000Y-68700000D01*
X138500000Y-73200000D02*
X138000000Y-73700000D01*
X139000000Y-68700000D02*
X138500000Y-69200000D01*
X139000000Y-73700000D02*
X138500000Y-73200000D01*
X139000000Y-73700000D02*
X139500000Y-73700000D01*
X139500000Y-68700000D02*
X139000000Y-68700000D01*
X140000000Y-73200000D02*
X140000000Y-69200000D01*
D12*
X140200000Y-72450000D02*
X141000000Y-72450000D01*
X140600000Y-70350000D02*
X140600000Y-69500000D01*
X140600000Y-72875000D02*
X140600000Y-72025000D01*
D13*
X128500000Y-69200000D02*
G75*
G02*
X129000000Y-68700000I500000J0D01*
G01*
X129000000Y-73700000D02*
G75*
G02*
X128500000Y-73200000I1J500001D01*
G01*
X139500000Y-68700000D02*
G75*
G02*
X140000000Y-69200000I0J-500000D01*
G01*
X140000000Y-73200000D02*
G75*
G02*
X139500000Y-73700000I-500001J1D01*
G01*
D14*
X138500000Y-69200000D02*
X139000000Y-68700000D01*
X139500000Y-68700000D01*
X139853553Y-68846447D01*
X140000000Y-69200000D01*
X140000000Y-69700000D01*
X128500000Y-69700000D01*
X128500000Y-69200000D01*
X128646447Y-68846447D01*
X129000000Y-68700000D01*
X138000000Y-68700000D01*
X138500000Y-69200000D01*
G36*
X138500000Y-69200000D02*
G01*
X139000000Y-68700000D01*
X139500000Y-68700000D01*
X139853553Y-68846447D01*
X140000000Y-69200000D01*
X140000000Y-69700000D01*
X128500000Y-69700000D01*
X128500000Y-69200000D01*
X128646447Y-68846447D01*
X129000000Y-68700000D01*
X138000000Y-68700000D01*
X138500000Y-69200000D01*
G37*
D11*
%TO.C,D5*%
X133700000Y-79400000D02*
X135300000Y-79400000D01*
X133719377Y-80375000D02*
X133719376Y-80374999D01*
D15*
X134250000Y-79900000D02*
X134500000Y-79700000D01*
D16*
X134500000Y-79390000D02*
X134500000Y-79400000D01*
D11*
X134500000Y-79400000D02*
X133719376Y-80374999D01*
X134500000Y-79400000D02*
X135280624Y-80374999D01*
D15*
X134500000Y-79700000D02*
X134750000Y-79900000D01*
D11*
X133719375Y-80375003D02*
G75*
G02*
X135280624Y-80375009I780622J-624997D01*
G01*
D17*
X134505025Y-79400000D02*
G75*
G02*
X134494975Y-79400000I-5025J0D01*
G01*
X134494975Y-79400000D02*
G75*
G02*
X134505025Y-79400000I5025J0D01*
G01*
D11*
%TO.C,R34*%
X168000000Y-105114500D02*
X168000000Y-104530500D01*
X169016000Y-106130500D02*
G75*
G02*
X166984000Y-106130500I-1016000J0D01*
G01*
X166984000Y-106130500D02*
G75*
G02*
X169016000Y-106130500I1016000J0D01*
G01*
%TO.C,R23*%
X134500000Y-105114500D02*
X134500000Y-104530500D01*
X135516000Y-106130500D02*
G75*
G02*
X133484000Y-106130500I-1016000J0D01*
G01*
X133484000Y-106130500D02*
G75*
G02*
X135516000Y-106130500I1016000J0D01*
G01*
D12*
%TO.C,U1*%
X147750000Y-58550000D02*
X147750000Y-67780000D01*
X147750000Y-67780000D02*
X152250000Y-67780000D01*
X149000000Y-58550000D02*
X147750000Y-58550000D01*
X152250000Y-58550000D02*
X151000000Y-58550000D01*
X152250000Y-67780000D02*
X152250000Y-58550000D01*
X151000000Y-58550000D02*
G75*
G02*
X149000000Y-58550000I-1000000J0D01*
G01*
%TO.C,C19*%
X157250000Y-94600000D02*
X162250000Y-94600000D01*
X157250000Y-95000000D02*
X157250000Y-94600000D01*
X157250000Y-97000000D02*
X157250000Y-97400000D01*
X157250000Y-97400000D02*
X162250000Y-97400000D01*
X162250000Y-94600000D02*
X162250000Y-95000000D01*
X162250000Y-97400000D02*
X162250000Y-97000000D01*
D11*
%TO.C,R19*%
X144135500Y-125250000D02*
X144719500Y-125250000D01*
X144135500Y-125250000D02*
G75*
G02*
X142103500Y-125250000I-1016000J0D01*
G01*
X142103500Y-125250000D02*
G75*
G02*
X144135500Y-125250000I1016000J0D01*
G01*
D12*
%TO.C,U4*%
X147750000Y-83120000D02*
X147750000Y-102570000D01*
X147750000Y-102570000D02*
X152250000Y-102570000D01*
X149000000Y-83120000D02*
X147750000Y-83120000D01*
X152250000Y-83120000D02*
X151000000Y-83120000D01*
X152250000Y-102570000D02*
X152250000Y-83120000D01*
X151000000Y-83120000D02*
G75*
G02*
X149000000Y-83120000I-1000000J0D01*
G01*
D11*
%TO.C,R3*%
X170750000Y-54885500D02*
X170750000Y-55469500D01*
X171766000Y-53869500D02*
G75*
G02*
X169734000Y-53869500I-1016000J0D01*
G01*
X169734000Y-53869500D02*
G75*
G02*
X171766000Y-53869500I1016000J0D01*
G01*
%TO.C,R13*%
X131750000Y-79984000D02*
X131750000Y-79400000D01*
X132766000Y-81000000D02*
G75*
G02*
X130734000Y-81000000I-1016000J0D01*
G01*
X130734000Y-81000000D02*
G75*
G02*
X132766000Y-81000000I1016000J0D01*
G01*
D12*
%TO.C,RV2*%
X159500000Y-110100001D02*
X159500000Y-119899999D01*
X162900000Y-110100001D02*
X159500000Y-110100001D01*
X162900001Y-119900000D02*
X159500000Y-119899999D01*
X170500000Y-110100001D02*
X167099999Y-110100000D01*
X170500000Y-119899999D02*
X167100000Y-119899999D01*
X170500000Y-119899999D02*
X170500000Y-110100001D01*
X163639853Y-117720293D02*
G75*
G02*
X163600001Y-112300001I1360147J2720293D01*
G01*
X166360147Y-112279707D02*
G75*
G02*
X166399999Y-117699999I-1360147J-2720293D01*
G01*
%TD*%
%LPC*%
D18*
%TO.C,R24*%
X131750000Y-106130500D03*
X131750000Y-103590500D03*
%TD*%
D19*
%TO.C,Q2*%
X130600001Y-96390001D03*
D20*
X128830001Y-96390001D03*
X127100001Y-96390001D03*
%TD*%
D18*
%TO.C,R20*%
X156880500Y-125250000D03*
X154340500Y-125250000D03*
%TD*%
%TO.C,C15*%
X157250000Y-102500000D03*
X162250000Y-102500000D03*
%TD*%
%TO.C,C16*%
X142700001Y-105750000D03*
X137700001Y-105750000D03*
%TD*%
%TO.C,R10*%
X167999999Y-74130500D03*
X167999999Y-71590500D03*
%TD*%
D21*
%TO.C,J2*%
X171480000Y-62500000D03*
D22*
X168380000Y-62500000D03*
X160080000Y-62500000D03*
%TD*%
D18*
%TO.C,C12*%
X137700001Y-99250000D03*
X142700001Y-99250000D03*
%TD*%
D23*
%TO.C,C27*%
X142750000Y-137500000D03*
D24*
X142750000Y-140000000D03*
%TD*%
D18*
%TO.C,C14*%
X157250000Y-86250000D03*
X162250000Y-86250000D03*
%TD*%
%TO.C,C13*%
X157250000Y-83000000D03*
X162250000Y-83000000D03*
%TD*%
%TO.C,C5*%
X162250000Y-73250000D03*
X157250000Y-73250000D03*
%TD*%
%TO.C,D2*%
X158869500Y-52750000D03*
D25*
X161409500Y-52750000D03*
%TD*%
D18*
%TO.C,C6*%
X162250000Y-76500000D03*
X157250000Y-76500000D03*
%TD*%
%TO.C,R30*%
X170750000Y-97380500D03*
X170750000Y-94840500D03*
%TD*%
%TO.C,R4*%
X168000000Y-53869500D03*
X168000000Y-56409500D03*
%TD*%
D23*
%TO.C,C28*%
X141600000Y-87250000D03*
D24*
X141600000Y-84750000D03*
%TD*%
D18*
%TO.C,R7*%
X173500000Y-53869500D03*
X173500000Y-56409500D03*
%TD*%
D26*
%TO.C,U5*%
X150000000Y-145910000D03*
D27*
X150000000Y-140750000D03*
D28*
X152540000Y-129250000D03*
D29*
X150000000Y-129250000D03*
X147460000Y-129250000D03*
%TD*%
D18*
%TO.C,D1*%
X158869500Y-55500000D03*
D25*
X161409500Y-55500000D03*
%TD*%
D30*
%TO.C,J4*%
X166000000Y-143550000D03*
D31*
X168000000Y-143550000D03*
X170000000Y-143550000D03*
%TD*%
D18*
%TO.C,R16*%
X168000000Y-88630500D03*
X168000000Y-86090500D03*
%TD*%
%TO.C,R15*%
X165250000Y-88630500D03*
X165250000Y-86090500D03*
%TD*%
D30*
%TO.C,J3*%
X130000000Y-143550000D03*
D31*
X132000000Y-143550000D03*
X134000000Y-143550000D03*
%TD*%
D18*
%TO.C,C2*%
X150000000Y-56319500D03*
X150000000Y-51319500D03*
%TD*%
D21*
%TO.C,J1*%
X128520000Y-62500000D03*
D22*
X131620000Y-62500000D03*
X139920000Y-62500000D03*
%TD*%
D18*
%TO.C,C8*%
X162250000Y-79750000D03*
X157250000Y-79750000D03*
%TD*%
%TO.C,R29*%
X168000000Y-97380500D03*
X168000000Y-94840500D03*
%TD*%
%TO.C,R17*%
X170750000Y-88630500D03*
X170750000Y-86090500D03*
%TD*%
%TO.C,R28*%
X173500000Y-88630500D03*
X173500000Y-86090500D03*
%TD*%
D32*
%TO.C,U2*%
X146180000Y-71880000D03*
D33*
X146180000Y-74420000D03*
X146180000Y-76960000D03*
X146180000Y-79500000D03*
X153800000Y-79500000D03*
X153800000Y-76960000D03*
X153800000Y-74420000D03*
X153800000Y-71880000D03*
%TD*%
D18*
%TO.C,R2*%
X129250000Y-53869500D03*
X129250000Y-56409500D03*
%TD*%
%TO.C,R32*%
X165250000Y-106130500D03*
X165250000Y-103590500D03*
%TD*%
%TO.C,C1*%
X146750000Y-51319500D03*
X146750000Y-56319500D03*
%TD*%
D34*
%TO.C,RV1*%
X135000000Y-110600000D03*
X135000000Y-119400000D03*
D33*
X128000000Y-117500001D03*
X128000000Y-115000000D03*
X128000000Y-112499999D03*
%TD*%
D18*
%TO.C,C21*%
X162250000Y-92750000D03*
X157250000Y-92750000D03*
%TD*%
%TO.C,C20*%
X142700001Y-96000000D03*
X137700001Y-96000000D03*
%TD*%
%TO.C,R25*%
X129000000Y-106130500D03*
X129000000Y-103590500D03*
%TD*%
%TO.C,C9*%
X137700001Y-76750000D03*
X142700001Y-76750000D03*
%TD*%
D34*
%TO.C,RV3*%
X135000000Y-125600000D03*
X135000000Y-134400000D03*
D33*
X128000000Y-132500001D03*
X128000000Y-130000000D03*
X128000000Y-127499999D03*
%TD*%
D18*
%TO.C,R9*%
X165250000Y-74130500D03*
X165250000Y-71590500D03*
%TD*%
%TO.C,R31*%
X173500000Y-97380500D03*
X173500000Y-94840500D03*
%TD*%
D19*
%TO.C,Q1*%
X131230000Y-92360000D03*
D20*
X133000000Y-92360000D03*
X134730000Y-92360000D03*
%TD*%
D23*
%TO.C,D6*%
X164190000Y-139250000D03*
D35*
X171810000Y-139250000D03*
%TD*%
D18*
%TO.C,R33*%
X170750000Y-106130500D03*
X170750000Y-103590500D03*
%TD*%
%TO.C,C18*%
X157250000Y-89500000D03*
X162250000Y-89500000D03*
%TD*%
%TO.C,R27*%
X143119500Y-119750000D03*
X145659500Y-119750000D03*
%TD*%
%TO.C,R5*%
X165250000Y-53869500D03*
X165250000Y-56409500D03*
%TD*%
%TO.C,R22*%
X156880500Y-122500000D03*
X154340500Y-122500000D03*
%TD*%
%TO.C,C22*%
X162250000Y-105750000D03*
X157250000Y-105750000D03*
%TD*%
%TO.C,R14*%
X129000000Y-81000000D03*
X129000000Y-78460000D03*
%TD*%
%TO.C,C11*%
X137700001Y-92750000D03*
X142700001Y-92750000D03*
%TD*%
D36*
%TO.C,C7*%
X169900000Y-78800000D03*
D37*
X168100000Y-78800000D03*
%TD*%
D18*
%TO.C,R8*%
X134750000Y-53869500D03*
X134750000Y-56409500D03*
%TD*%
%TO.C,R18*%
X143119500Y-122500000D03*
X145659500Y-122500000D03*
%TD*%
%TO.C,C3*%
X153250000Y-51319500D03*
X153250000Y-56319500D03*
%TD*%
D32*
%TO.C,U3*%
X146190000Y-106750000D03*
D33*
X146190000Y-109290000D03*
X146190000Y-111830000D03*
X146190000Y-114370000D03*
X153810000Y-114370000D03*
X153810000Y-111830000D03*
X153810000Y-109290000D03*
X153810000Y-106750000D03*
%TD*%
D34*
%TO.C,RV4*%
X165000000Y-134400000D03*
X165000000Y-125600000D03*
D33*
X172000000Y-127499999D03*
X172000000Y-130000000D03*
X172000000Y-132500001D03*
%TD*%
D18*
%TO.C,C10*%
X137700001Y-80000000D03*
X142700001Y-80000000D03*
%TD*%
%TO.C,C25*%
X142700001Y-102500000D03*
X137700001Y-102500000D03*
%TD*%
D38*
%TO.C,SW1*%
X150000000Y-120000000D03*
X150000000Y-122500000D03*
X150000000Y-125000000D03*
%TD*%
D36*
%TO.C,C23*%
X159900000Y-144500000D03*
D37*
X158100000Y-144500000D03*
%TD*%
D18*
%TO.C,C4*%
X162250000Y-70000000D03*
X157250000Y-70000000D03*
%TD*%
%TO.C,C17*%
X157250000Y-99250000D03*
X162250000Y-99250000D03*
%TD*%
%TO.C,R21*%
X156880500Y-119750000D03*
X154340500Y-119750000D03*
%TD*%
%TO.C,D3*%
X141130500Y-52750000D03*
D39*
X138590500Y-52750000D03*
%TD*%
D18*
%TO.C,R1*%
X126500000Y-53869500D03*
X126500000Y-56409500D03*
%TD*%
%TO.C,R12*%
X173500000Y-74130500D03*
X173500000Y-71590500D03*
%TD*%
%TO.C,R11*%
X170749999Y-74130500D03*
X170749999Y-71590500D03*
%TD*%
%TO.C,R26*%
X165250000Y-97380500D03*
X165250000Y-94840500D03*
%TD*%
%TO.C,R6*%
X132000000Y-53869500D03*
X132000000Y-56409500D03*
%TD*%
D36*
%TO.C,C24*%
X141900000Y-144500000D03*
D37*
X140100000Y-144500000D03*
%TD*%
D18*
%TO.C,D4*%
X141130500Y-55500000D03*
D39*
X138590500Y-55500000D03*
%TD*%
D23*
%TO.C,C26*%
X142000000Y-72450000D03*
D24*
X142000000Y-69950000D03*
%TD*%
D18*
%TO.C,D5*%
X134500000Y-81000000D03*
D40*
X134500000Y-78460000D03*
%TD*%
D18*
%TO.C,R34*%
X168000000Y-106130500D03*
X168000000Y-103590500D03*
%TD*%
%TO.C,R23*%
X134500000Y-106130500D03*
X134500000Y-103590500D03*
%TD*%
D32*
%TO.C,U1*%
X146190000Y-59380000D03*
D33*
X146190000Y-61920000D03*
X146190000Y-64460000D03*
X146190000Y-67000000D03*
X153810000Y-67000000D03*
X153810000Y-64460000D03*
X153810000Y-61920000D03*
X153810000Y-59380000D03*
%TD*%
D18*
%TO.C,C19*%
X157250000Y-96000000D03*
X162250000Y-96000000D03*
%TD*%
%TO.C,R19*%
X143119500Y-125250000D03*
X145659500Y-125250000D03*
%TD*%
D41*
%TO.C,U4*%
X146190000Y-83970000D03*
D33*
X146190000Y-86510000D03*
X146190000Y-89050000D03*
X146190000Y-91590000D03*
X146190000Y-94130000D03*
X146190000Y-96670000D03*
X146190000Y-99210000D03*
X146190000Y-101750000D03*
X153810000Y-101750000D03*
X153810000Y-99210000D03*
X153810000Y-96670000D03*
X153810000Y-94130000D03*
X153810000Y-91590000D03*
X153810000Y-89050000D03*
X153810000Y-86510000D03*
X153810000Y-83970000D03*
%TD*%
D18*
%TO.C,R3*%
X170750000Y-53869500D03*
X170750000Y-56409500D03*
%TD*%
%TO.C,R13*%
X131750000Y-81000000D03*
X131750000Y-78460000D03*
%TD*%
D34*
%TO.C,RV2*%
X165000000Y-119400000D03*
X165000000Y-110600000D03*
D33*
X172000000Y-112499999D03*
X172000000Y-115000000D03*
X172000000Y-117500001D03*
%TD*%
%LPD*%
M02*
