%TF.GenerationSoftware,KiCad,Pcbnew,9.0.2*%
%TF.CreationDate,2025-07-31T20:58:52+10:00*%
%TF.ProjectId,Chorus,43686f72-7573-42e6-9b69-6361645f7063,1-0*%
%TF.SameCoordinates,Original*%
%TF.FileFunction,Legend,Bot*%
%TF.FilePolarity,Positive*%
%FSLAX46Y46*%
G04 Gerber Fmt 4.6, Leading zero omitted, Abs format (unit mm)*
G04 Created by KiCad (PCBNEW 9.0.2) date 2025-07-31 20:58:52*
%MOMM*%
%LPD*%
G01*
G04 APERTURE LIST*
G04 Aperture macros list*
%AMRoundRect*
0 Rectangle with rounded corners*
0 $1 Rounding radius*
0 $2 $3 $4 $5 $6 $7 $8 $9 X,Y pos of 4 corners*
0 Add a 4 corners polygon primitive as box body*
4,1,4,$2,$3,$4,$5,$6,$7,$8,$9,$2,$3,0*
0 Add four circle primitives for the rounded corners*
1,1,$1+$1,$2,$3*
1,1,$1+$1,$4,$5*
1,1,$1+$1,$6,$7*
1,1,$1+$1,$8,$9*
0 Add four rect primitives between the rounded corners*
20,1,$1+$1,$2,$3,$4,$5,0*
20,1,$1+$1,$4,$5,$6,$7,0*
20,1,$1+$1,$6,$7,$8,$9,0*
20,1,$1+$1,$8,$9,$2,$3,0*%
G04 Aperture macros list end*
%ADD10C,0.150000*%
%ADD11C,0.200000*%
%ADD12C,0.000000*%
%ADD13C,1.600000*%
%ADD14R,1.350000X1.900000*%
%ADD15O,1.350000X1.900000*%
%ADD16R,2.000000X2.000000*%
%ADD17C,2.200000*%
%ADD18R,1.800000X1.800000*%
%ADD19C,1.800000*%
%ADD20RoundRect,0.250000X-0.550000X-0.550000X0.550000X-0.550000X0.550000X0.550000X-0.550000X0.550000X0*%
%ADD21C,3.500000*%
%ADD22R,1.905000X2.000000*%
%ADD23O,1.905000X2.000000*%
%ADD24RoundRect,0.291666X-0.408334X-0.708334X0.408334X-0.708334X0.408334X0.708334X-0.408334X0.708334X0*%
%ADD25O,1.400000X2.000000*%
%ADD26R,2.400000X1.600000*%
%ADD27O,2.400000X1.600000*%
%ADD28C,4.000000*%
%ADD29O,1.800000X1.800000*%
%ADD30RoundRect,0.270833X0.379167X0.379167X-0.379167X0.379167X-0.379167X-0.379167X0.379167X-0.379167X0*%
%ADD31C,1.300000*%
%ADD32O,2.500000X1.700000*%
%ADD33RoundRect,0.250000X0.550000X0.550000X-0.550000X0.550000X-0.550000X-0.550000X0.550000X-0.550000X0*%
%ADD34RoundRect,0.250000X0.550000X-0.550000X0.550000X0.550000X-0.550000X0.550000X-0.550000X-0.550000X0*%
%ADD35RoundRect,0.250000X-0.950000X-0.550000X0.950000X-0.550000X0.950000X0.550000X-0.950000X0.550000X0*%
G04 APERTURE END LIST*
D10*
X155485714Y-132767091D02*
X155542857Y-132824234D01*
X155542857Y-132824234D02*
X155714285Y-132881376D01*
X155714285Y-132881376D02*
X155828571Y-132881376D01*
X155828571Y-132881376D02*
X156000000Y-132824234D01*
X156000000Y-132824234D02*
X156114285Y-132709948D01*
X156114285Y-132709948D02*
X156171428Y-132595662D01*
X156171428Y-132595662D02*
X156228571Y-132367091D01*
X156228571Y-132367091D02*
X156228571Y-132195662D01*
X156228571Y-132195662D02*
X156171428Y-131967091D01*
X156171428Y-131967091D02*
X156114285Y-131852805D01*
X156114285Y-131852805D02*
X156000000Y-131738519D01*
X156000000Y-131738519D02*
X155828571Y-131681376D01*
X155828571Y-131681376D02*
X155714285Y-131681376D01*
X155714285Y-131681376D02*
X155542857Y-131738519D01*
X155542857Y-131738519D02*
X155485714Y-131795662D01*
X154971428Y-132881376D02*
X154971428Y-131681376D01*
X154971428Y-132252805D02*
X154285714Y-132252805D01*
X154285714Y-132881376D02*
X154285714Y-131681376D01*
X153485714Y-131681376D02*
X153257142Y-131681376D01*
X153257142Y-131681376D02*
X153142857Y-131738519D01*
X153142857Y-131738519D02*
X153028571Y-131852805D01*
X153028571Y-131852805D02*
X152971428Y-132081376D01*
X152971428Y-132081376D02*
X152971428Y-132481376D01*
X152971428Y-132481376D02*
X153028571Y-132709948D01*
X153028571Y-132709948D02*
X153142857Y-132824234D01*
X153142857Y-132824234D02*
X153257142Y-132881376D01*
X153257142Y-132881376D02*
X153485714Y-132881376D01*
X153485714Y-132881376D02*
X153600000Y-132824234D01*
X153600000Y-132824234D02*
X153714285Y-132709948D01*
X153714285Y-132709948D02*
X153771428Y-132481376D01*
X153771428Y-132481376D02*
X153771428Y-132081376D01*
X153771428Y-132081376D02*
X153714285Y-131852805D01*
X153714285Y-131852805D02*
X153600000Y-131738519D01*
X153600000Y-131738519D02*
X153485714Y-131681376D01*
X151771428Y-132881376D02*
X152171428Y-132309948D01*
X152457142Y-132881376D02*
X152457142Y-131681376D01*
X152457142Y-131681376D02*
X151999999Y-131681376D01*
X151999999Y-131681376D02*
X151885714Y-131738519D01*
X151885714Y-131738519D02*
X151828571Y-131795662D01*
X151828571Y-131795662D02*
X151771428Y-131909948D01*
X151771428Y-131909948D02*
X151771428Y-132081376D01*
X151771428Y-132081376D02*
X151828571Y-132195662D01*
X151828571Y-132195662D02*
X151885714Y-132252805D01*
X151885714Y-132252805D02*
X151999999Y-132309948D01*
X151999999Y-132309948D02*
X152457142Y-132309948D01*
X151257142Y-131681376D02*
X151257142Y-132652805D01*
X151257142Y-132652805D02*
X151199999Y-132767091D01*
X151199999Y-132767091D02*
X151142857Y-132824234D01*
X151142857Y-132824234D02*
X151028571Y-132881376D01*
X151028571Y-132881376D02*
X150799999Y-132881376D01*
X150799999Y-132881376D02*
X150685714Y-132824234D01*
X150685714Y-132824234D02*
X150628571Y-132767091D01*
X150628571Y-132767091D02*
X150571428Y-132652805D01*
X150571428Y-132652805D02*
X150571428Y-131681376D01*
X150057142Y-132824234D02*
X149885714Y-132881376D01*
X149885714Y-132881376D02*
X149599999Y-132881376D01*
X149599999Y-132881376D02*
X149485714Y-132824234D01*
X149485714Y-132824234D02*
X149428571Y-132767091D01*
X149428571Y-132767091D02*
X149371428Y-132652805D01*
X149371428Y-132652805D02*
X149371428Y-132538519D01*
X149371428Y-132538519D02*
X149428571Y-132424234D01*
X149428571Y-132424234D02*
X149485714Y-132367091D01*
X149485714Y-132367091D02*
X149599999Y-132309948D01*
X149599999Y-132309948D02*
X149828571Y-132252805D01*
X149828571Y-132252805D02*
X149942856Y-132195662D01*
X149942856Y-132195662D02*
X149999999Y-132138519D01*
X149999999Y-132138519D02*
X150057142Y-132024234D01*
X150057142Y-132024234D02*
X150057142Y-131909948D01*
X150057142Y-131909948D02*
X149999999Y-131795662D01*
X149999999Y-131795662D02*
X149942856Y-131738519D01*
X149942856Y-131738519D02*
X149828571Y-131681376D01*
X149828571Y-131681376D02*
X149542856Y-131681376D01*
X149542856Y-131681376D02*
X149371428Y-131738519D01*
X148057142Y-132081376D02*
X147771428Y-132881376D01*
X147771428Y-132881376D02*
X147485713Y-132081376D01*
X146399999Y-132881376D02*
X147085713Y-132881376D01*
X146742856Y-132881376D02*
X146742856Y-131681376D01*
X146742856Y-131681376D02*
X146857142Y-131852805D01*
X146857142Y-131852805D02*
X146971427Y-131967091D01*
X146971427Y-131967091D02*
X147085713Y-132024234D01*
X145885713Y-132424234D02*
X144971428Y-132424234D01*
X144171428Y-131681376D02*
X144057142Y-131681376D01*
X144057142Y-131681376D02*
X143942856Y-131738519D01*
X143942856Y-131738519D02*
X143885714Y-131795662D01*
X143885714Y-131795662D02*
X143828571Y-131909948D01*
X143828571Y-131909948D02*
X143771428Y-132138519D01*
X143771428Y-132138519D02*
X143771428Y-132424234D01*
X143771428Y-132424234D02*
X143828571Y-132652805D01*
X143828571Y-132652805D02*
X143885714Y-132767091D01*
X143885714Y-132767091D02*
X143942856Y-132824234D01*
X143942856Y-132824234D02*
X144057142Y-132881376D01*
X144057142Y-132881376D02*
X144171428Y-132881376D01*
X144171428Y-132881376D02*
X144285714Y-132824234D01*
X144285714Y-132824234D02*
X144342856Y-132767091D01*
X144342856Y-132767091D02*
X144399999Y-132652805D01*
X144399999Y-132652805D02*
X144457142Y-132424234D01*
X144457142Y-132424234D02*
X144457142Y-132138519D01*
X144457142Y-132138519D02*
X144399999Y-131909948D01*
X144399999Y-131909948D02*
X144342856Y-131795662D01*
X144342856Y-131795662D02*
X144285714Y-131738519D01*
X144285714Y-131738519D02*
X144171428Y-131681376D01*
X159342855Y-134813309D02*
X159342855Y-133613309D01*
X159342855Y-133613309D02*
X158885712Y-133613309D01*
X158885712Y-133613309D02*
X158771427Y-133670452D01*
X158771427Y-133670452D02*
X158714284Y-133727595D01*
X158714284Y-133727595D02*
X158657141Y-133841881D01*
X158657141Y-133841881D02*
X158657141Y-134013309D01*
X158657141Y-134013309D02*
X158714284Y-134127595D01*
X158714284Y-134127595D02*
X158771427Y-134184738D01*
X158771427Y-134184738D02*
X158885712Y-134241881D01*
X158885712Y-134241881D02*
X159342855Y-134241881D01*
X157628570Y-134813309D02*
X157628570Y-134184738D01*
X157628570Y-134184738D02*
X157685712Y-134070452D01*
X157685712Y-134070452D02*
X157799998Y-134013309D01*
X157799998Y-134013309D02*
X158028570Y-134013309D01*
X158028570Y-134013309D02*
X158142855Y-134070452D01*
X157628570Y-134756167D02*
X157742855Y-134813309D01*
X157742855Y-134813309D02*
X158028570Y-134813309D01*
X158028570Y-134813309D02*
X158142855Y-134756167D01*
X158142855Y-134756167D02*
X158199998Y-134641881D01*
X158199998Y-134641881D02*
X158199998Y-134527595D01*
X158199998Y-134527595D02*
X158142855Y-134413309D01*
X158142855Y-134413309D02*
X158028570Y-134356167D01*
X158028570Y-134356167D02*
X157742855Y-134356167D01*
X157742855Y-134356167D02*
X157628570Y-134299024D01*
X157057141Y-134013309D02*
X157057141Y-134813309D01*
X157057141Y-134127595D02*
X156999998Y-134070452D01*
X156999998Y-134070452D02*
X156885713Y-134013309D01*
X156885713Y-134013309D02*
X156714284Y-134013309D01*
X156714284Y-134013309D02*
X156599998Y-134070452D01*
X156599998Y-134070452D02*
X156542856Y-134184738D01*
X156542856Y-134184738D02*
X156542856Y-134813309D01*
X155457142Y-134756167D02*
X155571427Y-134813309D01*
X155571427Y-134813309D02*
X155799999Y-134813309D01*
X155799999Y-134813309D02*
X155914284Y-134756167D01*
X155914284Y-134756167D02*
X155971427Y-134699024D01*
X155971427Y-134699024D02*
X156028570Y-134584738D01*
X156028570Y-134584738D02*
X156028570Y-134241881D01*
X156028570Y-134241881D02*
X155971427Y-134127595D01*
X155971427Y-134127595D02*
X155914284Y-134070452D01*
X155914284Y-134070452D02*
X155799999Y-134013309D01*
X155799999Y-134013309D02*
X155571427Y-134013309D01*
X155571427Y-134013309D02*
X155457142Y-134070452D01*
X154428571Y-134813309D02*
X154428571Y-134184738D01*
X154428571Y-134184738D02*
X154485713Y-134070452D01*
X154485713Y-134070452D02*
X154599999Y-134013309D01*
X154599999Y-134013309D02*
X154828571Y-134013309D01*
X154828571Y-134013309D02*
X154942856Y-134070452D01*
X154428571Y-134756167D02*
X154542856Y-134813309D01*
X154542856Y-134813309D02*
X154828571Y-134813309D01*
X154828571Y-134813309D02*
X154942856Y-134756167D01*
X154942856Y-134756167D02*
X154999999Y-134641881D01*
X154999999Y-134641881D02*
X154999999Y-134527595D01*
X154999999Y-134527595D02*
X154942856Y-134413309D01*
X154942856Y-134413309D02*
X154828571Y-134356167D01*
X154828571Y-134356167D02*
X154542856Y-134356167D01*
X154542856Y-134356167D02*
X154428571Y-134299024D01*
X153857142Y-134813309D02*
X153857142Y-133613309D01*
X153742857Y-134356167D02*
X153399999Y-134813309D01*
X153399999Y-134013309D02*
X153857142Y-134470452D01*
X152428570Y-134756167D02*
X152542856Y-134813309D01*
X152542856Y-134813309D02*
X152771428Y-134813309D01*
X152771428Y-134813309D02*
X152885713Y-134756167D01*
X152885713Y-134756167D02*
X152942856Y-134641881D01*
X152942856Y-134641881D02*
X152942856Y-134184738D01*
X152942856Y-134184738D02*
X152885713Y-134070452D01*
X152885713Y-134070452D02*
X152771428Y-134013309D01*
X152771428Y-134013309D02*
X152542856Y-134013309D01*
X152542856Y-134013309D02*
X152428570Y-134070452D01*
X152428570Y-134070452D02*
X152371428Y-134184738D01*
X152371428Y-134184738D02*
X152371428Y-134299024D01*
X152371428Y-134299024D02*
X152942856Y-134413309D01*
X151285714Y-134813309D02*
X151857142Y-134813309D01*
X151857142Y-134813309D02*
X151857142Y-133613309D01*
X150428570Y-134756167D02*
X150542856Y-134813309D01*
X150542856Y-134813309D02*
X150771428Y-134813309D01*
X150771428Y-134813309D02*
X150885713Y-134756167D01*
X150885713Y-134756167D02*
X150942856Y-134641881D01*
X150942856Y-134641881D02*
X150942856Y-134184738D01*
X150942856Y-134184738D02*
X150885713Y-134070452D01*
X150885713Y-134070452D02*
X150771428Y-134013309D01*
X150771428Y-134013309D02*
X150542856Y-134013309D01*
X150542856Y-134013309D02*
X150428570Y-134070452D01*
X150428570Y-134070452D02*
X150371428Y-134184738D01*
X150371428Y-134184738D02*
X150371428Y-134299024D01*
X150371428Y-134299024D02*
X150942856Y-134413309D01*
X149342857Y-134013309D02*
X149342857Y-134984738D01*
X149342857Y-134984738D02*
X149399999Y-135099024D01*
X149399999Y-135099024D02*
X149457142Y-135156167D01*
X149457142Y-135156167D02*
X149571428Y-135213309D01*
X149571428Y-135213309D02*
X149742857Y-135213309D01*
X149742857Y-135213309D02*
X149857142Y-135156167D01*
X149342857Y-134756167D02*
X149457142Y-134813309D01*
X149457142Y-134813309D02*
X149685714Y-134813309D01*
X149685714Y-134813309D02*
X149799999Y-134756167D01*
X149799999Y-134756167D02*
X149857142Y-134699024D01*
X149857142Y-134699024D02*
X149914285Y-134584738D01*
X149914285Y-134584738D02*
X149914285Y-134241881D01*
X149914285Y-134241881D02*
X149857142Y-134127595D01*
X149857142Y-134127595D02*
X149799999Y-134070452D01*
X149799999Y-134070452D02*
X149685714Y-134013309D01*
X149685714Y-134013309D02*
X149457142Y-134013309D01*
X149457142Y-134013309D02*
X149342857Y-134070452D01*
X148314285Y-134756167D02*
X148428571Y-134813309D01*
X148428571Y-134813309D02*
X148657143Y-134813309D01*
X148657143Y-134813309D02*
X148771428Y-134756167D01*
X148771428Y-134756167D02*
X148828571Y-134641881D01*
X148828571Y-134641881D02*
X148828571Y-134184738D01*
X148828571Y-134184738D02*
X148771428Y-134070452D01*
X148771428Y-134070452D02*
X148657143Y-134013309D01*
X148657143Y-134013309D02*
X148428571Y-134013309D01*
X148428571Y-134013309D02*
X148314285Y-134070452D01*
X148314285Y-134070452D02*
X148257143Y-134184738D01*
X148257143Y-134184738D02*
X148257143Y-134299024D01*
X148257143Y-134299024D02*
X148828571Y-134413309D01*
X147742857Y-134013309D02*
X147742857Y-134813309D01*
X147742857Y-134127595D02*
X147685714Y-134070452D01*
X147685714Y-134070452D02*
X147571429Y-134013309D01*
X147571429Y-134013309D02*
X147400000Y-134013309D01*
X147400000Y-134013309D02*
X147285714Y-134070452D01*
X147285714Y-134070452D02*
X147228572Y-134184738D01*
X147228572Y-134184738D02*
X147228572Y-134813309D01*
X146142858Y-134813309D02*
X146142858Y-133613309D01*
X146142858Y-134756167D02*
X146257143Y-134813309D01*
X146257143Y-134813309D02*
X146485715Y-134813309D01*
X146485715Y-134813309D02*
X146600000Y-134756167D01*
X146600000Y-134756167D02*
X146657143Y-134699024D01*
X146657143Y-134699024D02*
X146714286Y-134584738D01*
X146714286Y-134584738D02*
X146714286Y-134241881D01*
X146714286Y-134241881D02*
X146657143Y-134127595D01*
X146657143Y-134127595D02*
X146600000Y-134070452D01*
X146600000Y-134070452D02*
X146485715Y-134013309D01*
X146485715Y-134013309D02*
X146257143Y-134013309D01*
X146257143Y-134013309D02*
X146142858Y-134070452D01*
X144714286Y-133727595D02*
X144657143Y-133670452D01*
X144657143Y-133670452D02*
X144542858Y-133613309D01*
X144542858Y-133613309D02*
X144257143Y-133613309D01*
X144257143Y-133613309D02*
X144142858Y-133670452D01*
X144142858Y-133670452D02*
X144085715Y-133727595D01*
X144085715Y-133727595D02*
X144028572Y-133841881D01*
X144028572Y-133841881D02*
X144028572Y-133956167D01*
X144028572Y-133956167D02*
X144085715Y-134127595D01*
X144085715Y-134127595D02*
X144771429Y-134813309D01*
X144771429Y-134813309D02*
X144028572Y-134813309D01*
X143285715Y-133613309D02*
X143171429Y-133613309D01*
X143171429Y-133613309D02*
X143057143Y-133670452D01*
X143057143Y-133670452D02*
X143000001Y-133727595D01*
X143000001Y-133727595D02*
X142942858Y-133841881D01*
X142942858Y-133841881D02*
X142885715Y-134070452D01*
X142885715Y-134070452D02*
X142885715Y-134356167D01*
X142885715Y-134356167D02*
X142942858Y-134584738D01*
X142942858Y-134584738D02*
X143000001Y-134699024D01*
X143000001Y-134699024D02*
X143057143Y-134756167D01*
X143057143Y-134756167D02*
X143171429Y-134813309D01*
X143171429Y-134813309D02*
X143285715Y-134813309D01*
X143285715Y-134813309D02*
X143400001Y-134756167D01*
X143400001Y-134756167D02*
X143457143Y-134699024D01*
X143457143Y-134699024D02*
X143514286Y-134584738D01*
X143514286Y-134584738D02*
X143571429Y-134356167D01*
X143571429Y-134356167D02*
X143571429Y-134070452D01*
X143571429Y-134070452D02*
X143514286Y-133841881D01*
X143514286Y-133841881D02*
X143457143Y-133727595D01*
X143457143Y-133727595D02*
X143400001Y-133670452D01*
X143400001Y-133670452D02*
X143285715Y-133613309D01*
X142428572Y-133727595D02*
X142371429Y-133670452D01*
X142371429Y-133670452D02*
X142257144Y-133613309D01*
X142257144Y-133613309D02*
X141971429Y-133613309D01*
X141971429Y-133613309D02*
X141857144Y-133670452D01*
X141857144Y-133670452D02*
X141800001Y-133727595D01*
X141800001Y-133727595D02*
X141742858Y-133841881D01*
X141742858Y-133841881D02*
X141742858Y-133956167D01*
X141742858Y-133956167D02*
X141800001Y-134127595D01*
X141800001Y-134127595D02*
X142485715Y-134813309D01*
X142485715Y-134813309D02*
X141742858Y-134813309D01*
X140657144Y-133613309D02*
X141228572Y-133613309D01*
X141228572Y-133613309D02*
X141285715Y-134184738D01*
X141285715Y-134184738D02*
X141228572Y-134127595D01*
X141228572Y-134127595D02*
X141114287Y-134070452D01*
X141114287Y-134070452D02*
X140828572Y-134070452D01*
X140828572Y-134070452D02*
X140714287Y-134127595D01*
X140714287Y-134127595D02*
X140657144Y-134184738D01*
X140657144Y-134184738D02*
X140600001Y-134299024D01*
X140600001Y-134299024D02*
X140600001Y-134584738D01*
X140600001Y-134584738D02*
X140657144Y-134699024D01*
X140657144Y-134699024D02*
X140714287Y-134756167D01*
X140714287Y-134756167D02*
X140828572Y-134813309D01*
X140828572Y-134813309D02*
X141114287Y-134813309D01*
X141114287Y-134813309D02*
X141228572Y-134756167D01*
X141228572Y-134756167D02*
X141285715Y-134699024D01*
D11*
X168093316Y-145483958D02*
X168093316Y-146451578D01*
X168577126Y-145967768D02*
X167609507Y-145967768D01*
X167307126Y-146874911D02*
X168577126Y-147298244D01*
X168577126Y-147298244D02*
X167307126Y-147721578D01*
X165367602Y-146149197D02*
X165307126Y-146028244D01*
X165307126Y-146028244D02*
X165307126Y-145846816D01*
X165307126Y-145846816D02*
X165367602Y-145665387D01*
X165367602Y-145665387D02*
X165488554Y-145544435D01*
X165488554Y-145544435D02*
X165609507Y-145483958D01*
X165609507Y-145483958D02*
X165851411Y-145423482D01*
X165851411Y-145423482D02*
X166032840Y-145423482D01*
X166032840Y-145423482D02*
X166274745Y-145483958D01*
X166274745Y-145483958D02*
X166395697Y-145544435D01*
X166395697Y-145544435D02*
X166516650Y-145665387D01*
X166516650Y-145665387D02*
X166577126Y-145846816D01*
X166577126Y-145846816D02*
X166577126Y-145967768D01*
X166577126Y-145967768D02*
X166516650Y-146149197D01*
X166516650Y-146149197D02*
X166456173Y-146209673D01*
X166456173Y-146209673D02*
X166032840Y-146209673D01*
X166032840Y-146209673D02*
X166032840Y-145967768D01*
X166577126Y-146753958D02*
X165307126Y-146753958D01*
X165307126Y-146753958D02*
X166577126Y-147479673D01*
X166577126Y-147479673D02*
X165307126Y-147479673D01*
X166577126Y-148084434D02*
X165307126Y-148084434D01*
X165307126Y-148084434D02*
X165307126Y-148386815D01*
X165307126Y-148386815D02*
X165367602Y-148568244D01*
X165367602Y-148568244D02*
X165488554Y-148689196D01*
X165488554Y-148689196D02*
X165609507Y-148749673D01*
X165609507Y-148749673D02*
X165851411Y-148810149D01*
X165851411Y-148810149D02*
X166032840Y-148810149D01*
X166032840Y-148810149D02*
X166274745Y-148749673D01*
X166274745Y-148749673D02*
X166395697Y-148689196D01*
X166395697Y-148689196D02*
X166516650Y-148568244D01*
X166516650Y-148568244D02*
X166577126Y-148386815D01*
X166577126Y-148386815D02*
X166577126Y-148084434D01*
X170093316Y-145483958D02*
X170093316Y-146451578D01*
X169307126Y-146874911D02*
X170577126Y-147298244D01*
X170577126Y-147298244D02*
X169307126Y-147721578D01*
X132093316Y-145483958D02*
X132093316Y-146451578D01*
X132577126Y-145967768D02*
X131609507Y-145967768D01*
X131307126Y-146874911D02*
X132577126Y-147298244D01*
X132577126Y-147298244D02*
X131307126Y-147721578D01*
X134093316Y-145483958D02*
X134093316Y-146451578D01*
X133307126Y-146874911D02*
X134577126Y-147298244D01*
X134577126Y-147298244D02*
X133307126Y-147721578D01*
X129367602Y-146149197D02*
X129307126Y-146028244D01*
X129307126Y-146028244D02*
X129307126Y-145846816D01*
X129307126Y-145846816D02*
X129367602Y-145665387D01*
X129367602Y-145665387D02*
X129488554Y-145544435D01*
X129488554Y-145544435D02*
X129609507Y-145483958D01*
X129609507Y-145483958D02*
X129851411Y-145423482D01*
X129851411Y-145423482D02*
X130032840Y-145423482D01*
X130032840Y-145423482D02*
X130274745Y-145483958D01*
X130274745Y-145483958D02*
X130395697Y-145544435D01*
X130395697Y-145544435D02*
X130516650Y-145665387D01*
X130516650Y-145665387D02*
X130577126Y-145846816D01*
X130577126Y-145846816D02*
X130577126Y-145967768D01*
X130577126Y-145967768D02*
X130516650Y-146149197D01*
X130516650Y-146149197D02*
X130456173Y-146209673D01*
X130456173Y-146209673D02*
X130032840Y-146209673D01*
X130032840Y-146209673D02*
X130032840Y-145967768D01*
X130577126Y-146753958D02*
X129307126Y-146753958D01*
X129307126Y-146753958D02*
X130577126Y-147479673D01*
X130577126Y-147479673D02*
X129307126Y-147479673D01*
X130577126Y-148084434D02*
X129307126Y-148084434D01*
X129307126Y-148084434D02*
X129307126Y-148386815D01*
X129307126Y-148386815D02*
X129367602Y-148568244D01*
X129367602Y-148568244D02*
X129488554Y-148689196D01*
X129488554Y-148689196D02*
X129609507Y-148749673D01*
X129609507Y-148749673D02*
X129851411Y-148810149D01*
X129851411Y-148810149D02*
X130032840Y-148810149D01*
X130032840Y-148810149D02*
X130274745Y-148749673D01*
X130274745Y-148749673D02*
X130395697Y-148689196D01*
X130395697Y-148689196D02*
X130516650Y-148568244D01*
X130516650Y-148568244D02*
X130577126Y-148386815D01*
X130577126Y-148386815D02*
X130577126Y-148084434D01*
D12*
%TO.C,G\u002A\u002A\u002A*%
G36*
X157755416Y-97337995D02*
G01*
X158274337Y-97514192D01*
X158754136Y-97813767D01*
X159155378Y-98210031D01*
X159438625Y-98676294D01*
X159561117Y-99086980D01*
X159601723Y-99623517D01*
X159529106Y-100150433D01*
X159346178Y-100606859D01*
X159328168Y-100634821D01*
X159191803Y-100813018D01*
X158960256Y-101091009D01*
X158650050Y-101449861D01*
X158277709Y-101870642D01*
X157859757Y-102334418D01*
X157412717Y-102822255D01*
X157249773Y-102998241D01*
X156826344Y-103452160D01*
X156444892Y-103856250D01*
X156119932Y-104195452D01*
X155865976Y-104454704D01*
X155697537Y-104618946D01*
X155629129Y-104673117D01*
X155563838Y-104617055D01*
X155397642Y-104450329D01*
X155150723Y-104192404D01*
X154840404Y-103862217D01*
X154484008Y-103478707D01*
X154098858Y-103060811D01*
X153702278Y-102627468D01*
X153311592Y-102197616D01*
X152944123Y-101790194D01*
X152617195Y-101424138D01*
X152348130Y-101118387D01*
X152154254Y-100891880D01*
X152052888Y-100763555D01*
X152009631Y-100697368D01*
X151759192Y-100152720D01*
X151673550Y-99582618D01*
X151753021Y-99000448D01*
X151997918Y-98419600D01*
X152134849Y-98210053D01*
X152536348Y-97799406D01*
X153028212Y-97506308D01*
X153576002Y-97348042D01*
X154145275Y-97341893D01*
X154508867Y-97429915D01*
X154902980Y-97588367D01*
X155259068Y-97785919D01*
X155512231Y-97991716D01*
X155588621Y-98066038D01*
X155673272Y-98085170D01*
X155794506Y-98017498D01*
X155997228Y-97849893D01*
X156148907Y-97735003D01*
X156554969Y-97514379D01*
X157000278Y-97360233D01*
X157408334Y-97302253D01*
X157755416Y-97337995D01*
G37*
G36*
X168418614Y-71519979D02*
G01*
X168239414Y-72529301D01*
X167808482Y-74358323D01*
X167248521Y-76172938D01*
X166569324Y-77952536D01*
X165780685Y-79676502D01*
X164892395Y-81324224D01*
X163914248Y-82875091D01*
X162856037Y-84308489D01*
X161727553Y-85603805D01*
X161605040Y-85730380D01*
X161149567Y-86172120D01*
X160649747Y-86620553D01*
X160137584Y-87049522D01*
X159645079Y-87432871D01*
X159204235Y-87744444D01*
X158847054Y-87958086D01*
X158767209Y-88000712D01*
X158570794Y-88122330D01*
X158466406Y-88213045D01*
X158468110Y-88248604D01*
X158548920Y-88394307D01*
X158713463Y-88613046D01*
X158938681Y-88872620D01*
X159684670Y-89745096D01*
X160635501Y-91062493D01*
X161488805Y-92495442D01*
X162236631Y-94025351D01*
X162871029Y-95633627D01*
X163384049Y-97301676D01*
X163767741Y-99010905D01*
X163909846Y-100009628D01*
X164014155Y-100742722D01*
X164041309Y-101017372D01*
X164088449Y-101499914D01*
X164129865Y-101854773D01*
X164177641Y-102109682D01*
X164243862Y-102292374D01*
X164340615Y-102430582D01*
X164479984Y-102552038D01*
X164674054Y-102684475D01*
X164934911Y-102855627D01*
X165949748Y-103597468D01*
X166948791Y-104477724D01*
X167811158Y-105410970D01*
X168532195Y-106388881D01*
X169107249Y-107403131D01*
X169531666Y-108445396D01*
X169800793Y-109507349D01*
X169909976Y-110580665D01*
X169854561Y-111657018D01*
X169772988Y-112170278D01*
X169508729Y-113196399D01*
X169110458Y-114173001D01*
X168569520Y-115116328D01*
X167877261Y-116042626D01*
X167025026Y-116968140D01*
X166223292Y-117712960D01*
X165166404Y-118549898D01*
X164861246Y-118751042D01*
X164015663Y-119308405D01*
X162753170Y-119999041D01*
X161361027Y-120632368D01*
X159821334Y-121218949D01*
X158551334Y-121663392D01*
X158329800Y-122458909D01*
X158146560Y-123085339D01*
X157956538Y-123645518D01*
X157766348Y-124093030D01*
X157561712Y-124456817D01*
X157328355Y-124765817D01*
X157051997Y-125048969D01*
X156851425Y-125212363D01*
X156390448Y-125503677D01*
X155807473Y-125798057D01*
X155131536Y-126083655D01*
X154391675Y-126348621D01*
X153616929Y-126581105D01*
X152836334Y-126769259D01*
X152314862Y-126862775D01*
X151586450Y-126929417D01*
X150970576Y-126900050D01*
X150476799Y-126775421D01*
X150114675Y-126556279D01*
X150100188Y-126543392D01*
X150009583Y-126486771D01*
X149897920Y-126486183D01*
X149722539Y-126549837D01*
X149440781Y-126685940D01*
X149100336Y-126838017D01*
X148772603Y-126925522D01*
X148412277Y-126949745D01*
X148162448Y-126940663D01*
X147555626Y-126868569D01*
X146856112Y-126733045D01*
X146102566Y-126544287D01*
X145333645Y-126312493D01*
X144588006Y-126047862D01*
X143904308Y-125760589D01*
X143901218Y-125759163D01*
X143339621Y-125460087D01*
X142866139Y-125113112D01*
X142467121Y-124697923D01*
X142128914Y-124194206D01*
X141837867Y-123581647D01*
X141580327Y-122839931D01*
X141342644Y-121948744D01*
X141319760Y-121862909D01*
X141276509Y-121771323D01*
X141195684Y-121691232D01*
X141052795Y-121609233D01*
X140823346Y-121511924D01*
X140482847Y-121385902D01*
X140006803Y-121217763D01*
X139266064Y-120949660D01*
X138312538Y-120572242D01*
X137451856Y-120186563D01*
X136640055Y-119772525D01*
X135833168Y-119310035D01*
X135632872Y-119188591D01*
X135286265Y-118970132D01*
X142372349Y-118970132D01*
X142381399Y-119484967D01*
X142402306Y-120001954D01*
X142434680Y-120490321D01*
X142478134Y-120919295D01*
X142532280Y-121258106D01*
X142668427Y-121848369D01*
X142864987Y-122540772D01*
X143076804Y-123131594D01*
X143295517Y-123598156D01*
X143512766Y-123917782D01*
X143557998Y-123965688D01*
X143915053Y-124249503D01*
X144415280Y-124534263D01*
X145036675Y-124811010D01*
X145757232Y-125070785D01*
X146554947Y-125304629D01*
X147407816Y-125503584D01*
X147762348Y-125574832D01*
X148101113Y-125635430D01*
X148339501Y-125661574D01*
X148514174Y-125654306D01*
X148661791Y-125614667D01*
X148819014Y-125543701D01*
X148903893Y-125501673D01*
X149011781Y-125441839D01*
X149101380Y-125371252D01*
X149174388Y-125275444D01*
X149232503Y-125139947D01*
X149277422Y-124950294D01*
X149310844Y-124692016D01*
X149334466Y-124350647D01*
X149349986Y-123911717D01*
X149359101Y-123360760D01*
X149363511Y-122683306D01*
X149364911Y-121864890D01*
X149365000Y-120891042D01*
X149364997Y-120887130D01*
X150465667Y-120887130D01*
X150465667Y-120891042D01*
X150465699Y-121535533D01*
X150466639Y-122414355D01*
X150470151Y-123146717D01*
X150477927Y-123746889D01*
X150491659Y-124229145D01*
X150513038Y-124607755D01*
X150543755Y-124896991D01*
X150585503Y-125111125D01*
X150639974Y-125264428D01*
X150708857Y-125371172D01*
X150793846Y-125445628D01*
X150896631Y-125502069D01*
X151018904Y-125554765D01*
X151074479Y-125577464D01*
X151255439Y-125636506D01*
X151440424Y-125660530D01*
X151669560Y-125648242D01*
X151982972Y-125598347D01*
X152420786Y-125509552D01*
X152559386Y-125479620D01*
X153416208Y-125267360D01*
X154206984Y-125025131D01*
X154911139Y-124761339D01*
X155508105Y-124484395D01*
X155977307Y-124202707D01*
X156298176Y-123924682D01*
X156443552Y-123728538D01*
X156680332Y-123280086D01*
X156906517Y-122694121D01*
X157114733Y-121990811D01*
X157297608Y-121190329D01*
X157314280Y-121099514D01*
X157364561Y-120723664D01*
X157404182Y-120270000D01*
X157432722Y-119769415D01*
X157449760Y-119252799D01*
X157454876Y-118751042D01*
X157447649Y-118295037D01*
X157427659Y-117915675D01*
X157394485Y-117643846D01*
X157347707Y-117510442D01*
X157275070Y-117471096D01*
X157126493Y-117464674D01*
X156878919Y-117503119D01*
X156501040Y-117589350D01*
X155748844Y-117739815D01*
X154613770Y-117833345D01*
X153505064Y-117759259D01*
X152420991Y-117517392D01*
X151359816Y-117107582D01*
X151218280Y-117042787D01*
X150918733Y-116917802D01*
X150688950Y-116838577D01*
X150569879Y-116820020D01*
X150549261Y-116850666D01*
X150527280Y-116960359D01*
X150509179Y-117160042D01*
X150494665Y-117461129D01*
X150483446Y-117875035D01*
X150475229Y-118413174D01*
X150469722Y-119086960D01*
X150466632Y-119907807D01*
X150465667Y-120887130D01*
X149364997Y-120887130D01*
X149364199Y-119974899D01*
X149361374Y-119147447D01*
X149356215Y-118467148D01*
X149348418Y-117922246D01*
X149337678Y-117500985D01*
X149323688Y-117191607D01*
X149306143Y-116982357D01*
X149284738Y-116861477D01*
X149259167Y-116817212D01*
X149193229Y-116817248D01*
X149001108Y-116872186D01*
X148756528Y-116978738D01*
X147937326Y-117341137D01*
X147060019Y-117610522D01*
X146141651Y-117764309D01*
X145131667Y-117814149D01*
X144736974Y-117809523D01*
X144263327Y-117780145D01*
X143833442Y-117716286D01*
X143373992Y-117609405D01*
X143347366Y-117602415D01*
X142970050Y-117509552D01*
X142721147Y-117465271D01*
X142569760Y-117466062D01*
X142484992Y-117508416D01*
X142462465Y-117547747D01*
X142420212Y-117746256D01*
X142391367Y-118070004D01*
X142375542Y-118488220D01*
X142372349Y-118970132D01*
X135286265Y-118970132D01*
X134982661Y-118778777D01*
X134429434Y-118398251D01*
X133928887Y-118013488D01*
X133436713Y-117590964D01*
X132908608Y-117097157D01*
X132659226Y-116850234D01*
X131801167Y-115878100D01*
X131101037Y-114871486D01*
X130560189Y-113836452D01*
X130179976Y-112779057D01*
X129961752Y-111705364D01*
X129906871Y-110621431D01*
X130016687Y-109533321D01*
X130292552Y-108447093D01*
X130735821Y-107368809D01*
X131096286Y-106704685D01*
X131822533Y-105645339D01*
X132705259Y-104643919D01*
X133741759Y-103703352D01*
X134929334Y-102826563D01*
X135106935Y-102707754D01*
X135368976Y-102532183D01*
X135553665Y-102408076D01*
X135629201Y-102356780D01*
X135643610Y-102282649D01*
X135669656Y-102070832D01*
X135702822Y-101755652D01*
X135739276Y-101371394D01*
X135761492Y-101137414D01*
X135856306Y-100450919D01*
X138685744Y-100450919D01*
X138697138Y-101146352D01*
X138728482Y-101782273D01*
X138779767Y-102304079D01*
X138868736Y-102839114D01*
X138998824Y-103443560D01*
X139156523Y-104057400D01*
X139332454Y-104651160D01*
X139517238Y-105195366D01*
X139701495Y-105660545D01*
X139875848Y-106017223D01*
X140030918Y-106235926D01*
X140181358Y-106348052D01*
X140425024Y-106417404D01*
X140751969Y-106401001D01*
X141194667Y-106300647D01*
X141268832Y-106280658D01*
X141610966Y-106195503D01*
X142055422Y-106092122D01*
X142552910Y-105981778D01*
X143054143Y-105875734D01*
X143439872Y-105795981D01*
X143846627Y-105709400D01*
X144127342Y-105644023D01*
X144305242Y-105592871D01*
X144403556Y-105548962D01*
X144445511Y-105505317D01*
X144454334Y-105454955D01*
X144433912Y-105414069D01*
X144328133Y-105248108D01*
X144142449Y-104972043D01*
X143888438Y-104602667D01*
X143577683Y-104156773D01*
X143221762Y-103651157D01*
X142832257Y-103102611D01*
X142582666Y-102751446D01*
X142209374Y-102221832D01*
X141875349Y-101742606D01*
X141592565Y-101331241D01*
X141372994Y-101005205D01*
X141228609Y-100781971D01*
X141171382Y-100679009D01*
X141166537Y-100627509D01*
X141202320Y-100583597D01*
X141306998Y-100555275D01*
X141505676Y-100539193D01*
X141823461Y-100532000D01*
X142285459Y-100530347D01*
X142411344Y-100530157D01*
X142814576Y-100526776D01*
X143140630Y-100519815D01*
X143358788Y-100510120D01*
X143438334Y-100498539D01*
X143436392Y-100492331D01*
X143387048Y-100376566D01*
X143277762Y-100130686D01*
X143117374Y-99774274D01*
X142914721Y-99326918D01*
X142678644Y-98808200D01*
X142417980Y-98237707D01*
X142361226Y-98113420D01*
X142105326Y-97545090D01*
X141877706Y-97026835D01*
X141687078Y-96579410D01*
X141542151Y-96223572D01*
X141451635Y-95980078D01*
X141424241Y-95869682D01*
X141432650Y-95844397D01*
X141479541Y-95801035D01*
X141584436Y-95768895D01*
X141769601Y-95745730D01*
X142057302Y-95729292D01*
X142469804Y-95717330D01*
X143029374Y-95707599D01*
X143564124Y-95701639D01*
X144003726Y-95702484D01*
X144317622Y-95712271D01*
X144528476Y-95732348D01*
X144658954Y-95764060D01*
X144731719Y-95808755D01*
X144783963Y-95910401D01*
X144880627Y-96150942D01*
X145013830Y-96508363D01*
X145176425Y-96961349D01*
X145361261Y-97488588D01*
X145561193Y-98068763D01*
X145769070Y-98680563D01*
X145977745Y-99302672D01*
X146180070Y-99913776D01*
X146368896Y-100492562D01*
X146537075Y-101017716D01*
X146677459Y-101467923D01*
X146782899Y-101821869D01*
X146846247Y-102058240D01*
X146860356Y-102155723D01*
X146846326Y-102164586D01*
X146702245Y-102190041D01*
X146430990Y-102210597D01*
X146064489Y-102224337D01*
X145634670Y-102229344D01*
X145319619Y-102230722D01*
X144912959Y-102239987D01*
X144645630Y-102259421D01*
X144498913Y-102290707D01*
X144454087Y-102335531D01*
X144468003Y-102409408D01*
X144536293Y-102629427D01*
X144649983Y-102950907D01*
X144796134Y-103341218D01*
X144961807Y-103767729D01*
X145134063Y-104197811D01*
X145299961Y-104598833D01*
X145446563Y-104938165D01*
X145560930Y-105183177D01*
X145630121Y-105301238D01*
X145664844Y-105333468D01*
X145747606Y-105378863D01*
X145875475Y-105401469D01*
X146079256Y-105402357D01*
X146389752Y-105382598D01*
X146837771Y-105343266D01*
X146978988Y-105329921D01*
X147447778Y-105276552D01*
X147783910Y-105211835D01*
X148016589Y-105120506D01*
X148175021Y-104987304D01*
X148288411Y-104796968D01*
X148385964Y-104534236D01*
X148471057Y-104261974D01*
X148778751Y-102972208D01*
X148955741Y-101624834D01*
X148994627Y-100503060D01*
X150557866Y-100503060D01*
X150624437Y-101816923D01*
X150807839Y-103102857D01*
X151109898Y-104332418D01*
X151119786Y-104364858D01*
X151238211Y-104716039D01*
X151363443Y-104961653D01*
X151527976Y-105123664D01*
X151764306Y-105224037D01*
X152104927Y-105284739D01*
X152582334Y-105327735D01*
X153521456Y-105413865D01*
X155069439Y-105617376D01*
X156624610Y-105891800D01*
X158104512Y-106223757D01*
X158217017Y-106252072D01*
X158540889Y-106333405D01*
X158795086Y-106396986D01*
X158932334Y-106430979D01*
X158975221Y-106439208D01*
X159250107Y-106398314D01*
X159511062Y-106210707D01*
X159729656Y-105895480D01*
X159841716Y-105657128D01*
X160063292Y-105105856D01*
X160280971Y-104472014D01*
X160476168Y-103811622D01*
X160630299Y-103180696D01*
X160681126Y-102908903D01*
X160764440Y-102275257D01*
X160824928Y-101547794D01*
X160860705Y-100776068D01*
X160869888Y-100009628D01*
X160850594Y-99298028D01*
X160800941Y-98690820D01*
X160771915Y-98466704D01*
X160563773Y-97315123D01*
X160270817Y-96242325D01*
X159900277Y-95258306D01*
X159459383Y-94373060D01*
X158955363Y-93596583D01*
X158395447Y-92938870D01*
X157786864Y-92409917D01*
X157136844Y-92019718D01*
X156452616Y-91778269D01*
X155741408Y-91695564D01*
X155510731Y-91703445D01*
X154779201Y-91837385D01*
X154081418Y-92134295D01*
X153421833Y-92590651D01*
X152804894Y-93202933D01*
X152235052Y-93967617D01*
X151716756Y-94881183D01*
X151423370Y-95537201D01*
X151040879Y-96678340D01*
X150767914Y-97905325D01*
X150606301Y-99189713D01*
X150567234Y-100249042D01*
X150557866Y-100503060D01*
X148994627Y-100503060D01*
X149003432Y-100249042D01*
X148923229Y-98874023D01*
X148716536Y-97528968D01*
X148384759Y-96243067D01*
X147929302Y-95045511D01*
X147909430Y-95001944D01*
X147491783Y-94225053D01*
X146990179Y-93509647D01*
X146428633Y-92882720D01*
X145831163Y-92371268D01*
X145221787Y-92002285D01*
X144997023Y-91899684D01*
X144759870Y-91813092D01*
X144521979Y-91764341D01*
X144227188Y-91742851D01*
X143819334Y-91738039D01*
X143425406Y-91741974D01*
X143134005Y-91761581D01*
X142900359Y-91808252D01*
X142668023Y-91893374D01*
X142380552Y-92028338D01*
X141861365Y-92337171D01*
X141229260Y-92871798D01*
X140647251Y-93546123D01*
X140123641Y-94345241D01*
X139666736Y-95254247D01*
X139284841Y-96258237D01*
X138986260Y-97342307D01*
X138779297Y-98491551D01*
X138771322Y-98553588D01*
X138722829Y-99099934D01*
X138694305Y-99750579D01*
X138685744Y-100450919D01*
X135856306Y-100450919D01*
X136027313Y-99212757D01*
X136433548Y-97352365D01*
X136976511Y-95566955D01*
X137652511Y-93867246D01*
X138457859Y-92263953D01*
X139388868Y-90767796D01*
X139533016Y-90554411D01*
X139713208Y-90272631D01*
X139836584Y-90060263D01*
X139882334Y-89951724D01*
X139881732Y-89946319D01*
X139783812Y-89886540D01*
X139521492Y-89835288D01*
X139099167Y-89793452D01*
X137977565Y-89683204D01*
X136081066Y-89377343D01*
X134172553Y-88926964D01*
X132278180Y-88341504D01*
X130424103Y-87630401D01*
X128636476Y-86803094D01*
X126941454Y-85869020D01*
X125365192Y-84837616D01*
X124981000Y-84563280D01*
X124981000Y-78817453D01*
X125963372Y-78817453D01*
X126059695Y-79418323D01*
X126297839Y-80061720D01*
X126670103Y-80734159D01*
X127168787Y-81422155D01*
X127786192Y-82112222D01*
X128514616Y-82790874D01*
X129584714Y-83633680D01*
X130968256Y-84550537D01*
X132467067Y-85377917D01*
X134060647Y-86106582D01*
X135728496Y-86727296D01*
X137450114Y-87230821D01*
X139205000Y-87607920D01*
X139482733Y-87653588D01*
X140023438Y-87729545D01*
X140565527Y-87792269D01*
X141025334Y-87831485D01*
X141872000Y-87883562D01*
X142464667Y-87399697D01*
X143015248Y-86975264D01*
X144043270Y-86294901D01*
X145113256Y-85716303D01*
X146174994Y-85268313D01*
X146576696Y-85114090D01*
X146840527Y-84979698D01*
X146987749Y-84844124D01*
X147042094Y-84685468D01*
X147027293Y-84481833D01*
X146985461Y-84303047D01*
X146819946Y-83849445D01*
X146571480Y-83341991D01*
X146264128Y-82827074D01*
X145921955Y-82351083D01*
X145703817Y-82088084D01*
X144883787Y-81240141D01*
X143922010Y-80424725D01*
X142838539Y-79649833D01*
X141653428Y-78923464D01*
X140386730Y-78253616D01*
X139058496Y-77648289D01*
X137688781Y-77115481D01*
X136297637Y-76663190D01*
X134905117Y-76299415D01*
X133531274Y-76032155D01*
X132196160Y-75869408D01*
X130919829Y-75819174D01*
X129722334Y-75889450D01*
X129269464Y-75951479D01*
X128363606Y-76148091D01*
X127604559Y-76425783D01*
X126990184Y-76785979D01*
X126518344Y-77230107D01*
X126186898Y-77759593D01*
X125993707Y-78375864D01*
X125963372Y-78817453D01*
X124981000Y-78817453D01*
X124981000Y-78455044D01*
X124981000Y-72346809D01*
X125213834Y-72297274D01*
X125247757Y-72291023D01*
X125458083Y-72262528D01*
X125787781Y-72225610D01*
X126198778Y-72184356D01*
X126653000Y-72142851D01*
X126974605Y-72118434D01*
X128508132Y-72091162D01*
X130107383Y-72198901D01*
X131752492Y-72434278D01*
X133423593Y-72789920D01*
X135100819Y-73258454D01*
X136764303Y-73832505D01*
X138394180Y-74504702D01*
X139970582Y-75267670D01*
X141473643Y-76114037D01*
X142883496Y-77036430D01*
X144180275Y-78027475D01*
X145344113Y-79079799D01*
X146043259Y-79819407D01*
X146767231Y-80711313D01*
X147366954Y-81603457D01*
X147833746Y-82481155D01*
X148158922Y-83329727D01*
X148333800Y-84134492D01*
X148392022Y-84602253D01*
X149726346Y-84613482D01*
X150006916Y-84614640D01*
X150428835Y-84611366D01*
X150769643Y-84602393D01*
X150999941Y-84588634D01*
X151090331Y-84571007D01*
X151091330Y-84505849D01*
X151068496Y-84301387D01*
X151023141Y-83995554D01*
X150960348Y-83625330D01*
X150860616Y-82870310D01*
X150857093Y-82813515D01*
X152685200Y-82813515D01*
X152697021Y-83406640D01*
X152728545Y-83938633D01*
X152779194Y-84373558D01*
X152848393Y-84675478D01*
X152852334Y-84685468D01*
X152902527Y-84812693D01*
X152983926Y-84935345D01*
X153117107Y-85036099D01*
X153338116Y-85140871D01*
X153683000Y-85275581D01*
X154186879Y-85477317D01*
X155289259Y-86003214D01*
X156275439Y-86596185D01*
X156612982Y-86821380D01*
X156879623Y-86977061D01*
X157081736Y-87046562D01*
X157258207Y-87035260D01*
X157447919Y-86948531D01*
X157689755Y-86791753D01*
X157870839Y-86665381D01*
X158724423Y-85966439D01*
X159558746Y-85118048D01*
X160364932Y-84136930D01*
X161134106Y-83039806D01*
X161857392Y-81843396D01*
X162525915Y-80564420D01*
X163130800Y-79219601D01*
X163663170Y-77825659D01*
X164114151Y-76399314D01*
X164474867Y-74957288D01*
X164736442Y-73516300D01*
X164776389Y-73187860D01*
X164821314Y-72587768D01*
X164843838Y-71927256D01*
X164844726Y-71244555D01*
X164824743Y-70577892D01*
X164784653Y-69965498D01*
X164725222Y-69445602D01*
X164647214Y-69056434D01*
X164577965Y-68825292D01*
X164282494Y-68087670D01*
X163914067Y-67485750D01*
X163478613Y-67027841D01*
X162982057Y-66722251D01*
X162801045Y-66649886D01*
X162545368Y-66580805D01*
X162261871Y-66557014D01*
X161880781Y-66568790D01*
X161400143Y-66634916D01*
X160739335Y-66849693D01*
X160055069Y-67214191D01*
X159333777Y-67734619D01*
X159089286Y-67938512D01*
X158192692Y-68801819D01*
X157331133Y-69810242D01*
X156513677Y-70945527D01*
X155749390Y-72189421D01*
X155047342Y-73523671D01*
X154416600Y-74930023D01*
X153866231Y-76390224D01*
X153405303Y-77886020D01*
X153042883Y-79399159D01*
X152788039Y-80911386D01*
X152773713Y-81026697D01*
X152722970Y-81587607D01*
X152693658Y-82195192D01*
X152685200Y-82813515D01*
X150857093Y-82813515D01*
X150804608Y-81967509D01*
X150795019Y-80977607D01*
X150830514Y-79938970D01*
X150909756Y-78889962D01*
X151031409Y-77868948D01*
X151194135Y-76914294D01*
X151556228Y-75355338D01*
X152115499Y-73487139D01*
X152798984Y-71651609D01*
X153595525Y-69873296D01*
X154493964Y-68176750D01*
X155483141Y-66586519D01*
X156551900Y-65127151D01*
X156764063Y-64869402D01*
X157233430Y-64339848D01*
X157758840Y-63789047D01*
X158308277Y-63248060D01*
X158849728Y-62747948D01*
X159351179Y-62319771D01*
X159780614Y-61994591D01*
X160388791Y-61605135D01*
X161279660Y-61126819D01*
X162149667Y-60762940D01*
X162476106Y-60671612D01*
X163027216Y-60584998D01*
X163629674Y-60550255D01*
X164230357Y-60567468D01*
X164776144Y-60636721D01*
X165213913Y-60758097D01*
X165323887Y-60804290D01*
X166042409Y-61210395D01*
X166680811Y-61763041D01*
X167236803Y-62458275D01*
X167708095Y-63292146D01*
X168092398Y-64260705D01*
X168387423Y-65359999D01*
X168590880Y-66586077D01*
X168628177Y-67002900D01*
X168653547Y-67671169D01*
X168652783Y-68430975D01*
X168627396Y-69239038D01*
X168578899Y-70052080D01*
X168508801Y-70826820D01*
X168454449Y-71244555D01*
X168418614Y-71519979D01*
G37*
%TD*%
%LPC*%
D13*
%TO.C,R24*%
X131750000Y-106130500D03*
X131750000Y-103590500D03*
%TD*%
D14*
%TO.C,Q2*%
X130600001Y-96390001D03*
D15*
X128830001Y-96390001D03*
X127100001Y-96390001D03*
%TD*%
D13*
%TO.C,R20*%
X156880500Y-125250000D03*
X154340500Y-125250000D03*
%TD*%
%TO.C,C15*%
X157250000Y-102500000D03*
X162250000Y-102500000D03*
%TD*%
%TO.C,C16*%
X142700001Y-105750000D03*
X137700001Y-105750000D03*
%TD*%
%TO.C,R10*%
X167999999Y-74130500D03*
X167999999Y-71590500D03*
%TD*%
D16*
%TO.C,J2*%
X171480000Y-62500000D03*
D17*
X168380000Y-62500000D03*
X160080000Y-62500000D03*
%TD*%
D13*
%TO.C,C12*%
X137700001Y-99250000D03*
X142700001Y-99250000D03*
%TD*%
D18*
%TO.C,C27*%
X142750000Y-137500000D03*
D19*
X142750000Y-140000000D03*
%TD*%
D13*
%TO.C,C14*%
X157250000Y-86250000D03*
X162250000Y-86250000D03*
%TD*%
%TO.C,C13*%
X157250000Y-83000000D03*
X162250000Y-83000000D03*
%TD*%
%TO.C,C5*%
X162250000Y-73250000D03*
X157250000Y-73250000D03*
%TD*%
%TO.C,D2*%
X158869500Y-52750000D03*
D20*
X161409500Y-52750000D03*
%TD*%
D13*
%TO.C,C6*%
X162250000Y-76500000D03*
X157250000Y-76500000D03*
%TD*%
%TO.C,R30*%
X170750000Y-97380500D03*
X170750000Y-94840500D03*
%TD*%
%TO.C,R4*%
X168000000Y-53869500D03*
X168000000Y-56409500D03*
%TD*%
D18*
%TO.C,C28*%
X141600000Y-87250000D03*
D19*
X141600000Y-84750000D03*
%TD*%
D13*
%TO.C,R7*%
X173500000Y-53869500D03*
X173500000Y-56409500D03*
%TD*%
D21*
%TO.C,U5*%
X150000000Y-145910000D03*
D22*
X152540000Y-129250000D03*
D23*
X150000000Y-129250000D03*
X147460000Y-129250000D03*
%TD*%
D13*
%TO.C,D1*%
X158869500Y-55500000D03*
D20*
X161409500Y-55500000D03*
%TD*%
D24*
%TO.C,J4*%
X166000000Y-143550000D03*
D25*
X168000000Y-143550000D03*
X170000000Y-143550000D03*
%TD*%
D13*
%TO.C,R16*%
X168000000Y-88630500D03*
X168000000Y-86090500D03*
%TD*%
%TO.C,R15*%
X165250000Y-88630500D03*
X165250000Y-86090500D03*
%TD*%
D24*
%TO.C,J3*%
X130000000Y-143550000D03*
D25*
X132000000Y-143550000D03*
X134000000Y-143550000D03*
%TD*%
D13*
%TO.C,C2*%
X150000000Y-56319500D03*
X150000000Y-51319500D03*
%TD*%
D16*
%TO.C,J1*%
X128520000Y-62500000D03*
D17*
X131620000Y-62500000D03*
X139920000Y-62500000D03*
%TD*%
D13*
%TO.C,C8*%
X162250000Y-79750000D03*
X157250000Y-79750000D03*
%TD*%
%TO.C,R29*%
X168000000Y-97380500D03*
X168000000Y-94840500D03*
%TD*%
%TO.C,R17*%
X170750000Y-88630500D03*
X170750000Y-86090500D03*
%TD*%
%TO.C,R28*%
X173500000Y-88630500D03*
X173500000Y-86090500D03*
%TD*%
D26*
%TO.C,U2*%
X146180000Y-71880000D03*
D27*
X146180000Y-74420000D03*
X146180000Y-76960000D03*
X146180000Y-79500000D03*
X153800000Y-79500000D03*
X153800000Y-76960000D03*
X153800000Y-74420000D03*
X153800000Y-71880000D03*
%TD*%
D13*
%TO.C,R2*%
X129250000Y-53869500D03*
X129250000Y-56409500D03*
%TD*%
%TO.C,R32*%
X165250000Y-106130500D03*
X165250000Y-103590500D03*
%TD*%
%TO.C,C1*%
X146750000Y-51319500D03*
X146750000Y-56319500D03*
%TD*%
D28*
%TO.C,RV1*%
X135000000Y-110600000D03*
X135000000Y-119400000D03*
D27*
X128000000Y-117500001D03*
X128000000Y-115000000D03*
X128000000Y-112499999D03*
%TD*%
D13*
%TO.C,C21*%
X162250000Y-92750000D03*
X157250000Y-92750000D03*
%TD*%
%TO.C,C20*%
X142700001Y-96000000D03*
X137700001Y-96000000D03*
%TD*%
%TO.C,R25*%
X129000000Y-106130500D03*
X129000000Y-103590500D03*
%TD*%
%TO.C,C9*%
X137700001Y-76750000D03*
X142700001Y-76750000D03*
%TD*%
D28*
%TO.C,RV3*%
X135000000Y-125600000D03*
X135000000Y-134400000D03*
D27*
X128000000Y-132500001D03*
X128000000Y-130000000D03*
X128000000Y-127499999D03*
%TD*%
D13*
%TO.C,R9*%
X165250000Y-74130500D03*
X165250000Y-71590500D03*
%TD*%
%TO.C,R31*%
X173500000Y-97380500D03*
X173500000Y-94840500D03*
%TD*%
D14*
%TO.C,Q1*%
X131230000Y-92360000D03*
D15*
X133000000Y-92360000D03*
X134730000Y-92360000D03*
%TD*%
D18*
%TO.C,D6*%
X164190000Y-139250000D03*
D29*
X171810000Y-139250000D03*
%TD*%
D13*
%TO.C,R33*%
X170750000Y-106130500D03*
X170750000Y-103590500D03*
%TD*%
%TO.C,C18*%
X157250000Y-89500000D03*
X162250000Y-89500000D03*
%TD*%
%TO.C,R27*%
X143119500Y-119750000D03*
X145659500Y-119750000D03*
%TD*%
%TO.C,R5*%
X165250000Y-53869500D03*
X165250000Y-56409500D03*
%TD*%
%TO.C,R22*%
X156880500Y-122500000D03*
X154340500Y-122500000D03*
%TD*%
%TO.C,C22*%
X162250000Y-105750000D03*
X157250000Y-105750000D03*
%TD*%
%TO.C,R14*%
X129000000Y-81000000D03*
X129000000Y-78460000D03*
%TD*%
%TO.C,C11*%
X137700001Y-92750000D03*
X142700001Y-92750000D03*
%TD*%
D30*
%TO.C,C7*%
X169900000Y-78800000D03*
D31*
X168100000Y-78800000D03*
%TD*%
D13*
%TO.C,R8*%
X134750000Y-53869500D03*
X134750000Y-56409500D03*
%TD*%
%TO.C,R18*%
X143119500Y-122500000D03*
X145659500Y-122500000D03*
%TD*%
%TO.C,C3*%
X153250000Y-51319500D03*
X153250000Y-56319500D03*
%TD*%
D26*
%TO.C,U3*%
X146190000Y-106750000D03*
D27*
X146190000Y-109290000D03*
X146190000Y-111830000D03*
X146190000Y-114370000D03*
X153810000Y-114370000D03*
X153810000Y-111830000D03*
X153810000Y-109290000D03*
X153810000Y-106750000D03*
%TD*%
D28*
%TO.C,RV4*%
X165000000Y-134400000D03*
X165000000Y-125600000D03*
D27*
X172000000Y-127499999D03*
X172000000Y-130000000D03*
X172000000Y-132500001D03*
%TD*%
D13*
%TO.C,C10*%
X137700001Y-80000000D03*
X142700001Y-80000000D03*
%TD*%
%TO.C,C25*%
X142700001Y-102500000D03*
X137700001Y-102500000D03*
%TD*%
D32*
%TO.C,SW1*%
X150000000Y-120000000D03*
X150000000Y-122500000D03*
X150000000Y-125000000D03*
%TD*%
D30*
%TO.C,C23*%
X159900000Y-144500000D03*
D31*
X158100000Y-144500000D03*
%TD*%
D13*
%TO.C,C4*%
X162250000Y-70000000D03*
X157250000Y-70000000D03*
%TD*%
%TO.C,C17*%
X157250000Y-99250000D03*
X162250000Y-99250000D03*
%TD*%
%TO.C,R21*%
X156880500Y-119750000D03*
X154340500Y-119750000D03*
%TD*%
%TO.C,D3*%
X141130500Y-52750000D03*
D33*
X138590500Y-52750000D03*
%TD*%
D13*
%TO.C,R1*%
X126500000Y-53869500D03*
X126500000Y-56409500D03*
%TD*%
%TO.C,R12*%
X173500000Y-74130500D03*
X173500000Y-71590500D03*
%TD*%
%TO.C,R11*%
X170749999Y-74130500D03*
X170749999Y-71590500D03*
%TD*%
%TO.C,R26*%
X165250000Y-97380500D03*
X165250000Y-94840500D03*
%TD*%
%TO.C,R6*%
X132000000Y-53869500D03*
X132000000Y-56409500D03*
%TD*%
D30*
%TO.C,C24*%
X141900000Y-144500000D03*
D31*
X140100000Y-144500000D03*
%TD*%
D13*
%TO.C,D4*%
X141130500Y-55500000D03*
D33*
X138590500Y-55500000D03*
%TD*%
D18*
%TO.C,C26*%
X142000000Y-72450000D03*
D19*
X142000000Y-69950000D03*
%TD*%
D13*
%TO.C,D5*%
X134500000Y-81000000D03*
D34*
X134500000Y-78460000D03*
%TD*%
D13*
%TO.C,R34*%
X168000000Y-106130500D03*
X168000000Y-103590500D03*
%TD*%
%TO.C,R23*%
X134500000Y-106130500D03*
X134500000Y-103590500D03*
%TD*%
D26*
%TO.C,U1*%
X146190000Y-59380000D03*
D27*
X146190000Y-61920000D03*
X146190000Y-64460000D03*
X146190000Y-67000000D03*
X153810000Y-67000000D03*
X153810000Y-64460000D03*
X153810000Y-61920000D03*
X153810000Y-59380000D03*
%TD*%
D13*
%TO.C,C19*%
X157250000Y-96000000D03*
X162250000Y-96000000D03*
%TD*%
%TO.C,R19*%
X143119500Y-125250000D03*
X145659500Y-125250000D03*
%TD*%
D35*
%TO.C,U4*%
X146190000Y-83970000D03*
D27*
X146190000Y-86510000D03*
X146190000Y-89050000D03*
X146190000Y-91590000D03*
X146190000Y-94130000D03*
X146190000Y-96670000D03*
X146190000Y-99210000D03*
X146190000Y-101750000D03*
X153810000Y-101750000D03*
X153810000Y-99210000D03*
X153810000Y-96670000D03*
X153810000Y-94130000D03*
X153810000Y-91590000D03*
X153810000Y-89050000D03*
X153810000Y-86510000D03*
X153810000Y-83970000D03*
%TD*%
D13*
%TO.C,R3*%
X170750000Y-53869500D03*
X170750000Y-56409500D03*
%TD*%
%TO.C,R13*%
X131750000Y-81000000D03*
X131750000Y-78460000D03*
%TD*%
D28*
%TO.C,RV2*%
X165000000Y-119400000D03*
X165000000Y-110600000D03*
D27*
X172000000Y-112499999D03*
X172000000Y-115000000D03*
X172000000Y-117500001D03*
%TD*%
%LPD*%
M02*
