%TF.GenerationSoftware,KiCad,Pcbnew,9.0.2*%
%TF.CreationDate,2025-07-31T20:58:52+10:00*%
%TF.ProjectId,Chorus,43686f72-7573-42e6-9b69-6361645f7063,1-0*%
%TF.SameCoordinates,Original*%
%TF.FileFunction,Soldermask,Top*%
%TF.FilePolarity,Negative*%
%FSLAX46Y46*%
G04 Gerber Fmt 4.6, Leading zero omitted, Abs format (unit mm)*
G04 Created by KiCad (PCBNEW 9.0.2) date 2025-07-31 20:58:52*
%MOMM*%
%LPD*%
G01*
G04 APERTURE LIST*
G04 Aperture macros list*
%AMRoundRect*
0 Rectangle with rounded corners*
0 $1 Rounding radius*
0 $2 $3 $4 $5 $6 $7 $8 $9 X,Y pos of 4 corners*
0 Add a 4 corners polygon primitive as box body*
4,1,4,$2,$3,$4,$5,$6,$7,$8,$9,$2,$3,0*
0 Add four circle primitives for the rounded corners*
1,1,$1+$1,$2,$3*
1,1,$1+$1,$4,$5*
1,1,$1+$1,$6,$7*
1,1,$1+$1,$8,$9*
0 Add four rect primitives between the rounded corners*
20,1,$1+$1,$2,$3,$4,$5,0*
20,1,$1+$1,$4,$5,$6,$7,0*
20,1,$1+$1,$6,$7,$8,$9,0*
20,1,$1+$1,$8,$9,$2,$3,0*%
%AMFreePoly0*
4,1,49,4.512206,8.544944,4.602918,8.544944,4.804799,8.504787,4.994967,8.426017,5.166113,8.311661,5.311661,8.166113,5.426017,7.994967,5.504787,7.804799,5.544944,7.602918,5.544944,7.512205,5.550000,7.500000,5.550000,-7.250000,5.544944,-7.262205,5.544944,-7.352918,5.504787,-7.554799,5.426017,-7.744967,5.311661,-7.916113,5.166113,-8.061661,4.994967,-8.176017,4.804799,-8.254787,
4.602918,-8.294944,4.512206,-8.294944,4.500000,-8.300000,-4.500000,-8.300000,-4.512206,-8.294944,-4.602918,-8.294944,-4.804799,-8.254787,-4.994967,-8.176017,-5.166113,-8.061661,-5.311661,-7.916113,-5.426017,-7.744967,-5.504787,-7.554799,-5.544944,-7.352918,-5.544944,-7.262205,-5.550000,-7.250000,-5.550000,7.500000,-5.544944,7.512205,-5.544944,7.602918,-5.504787,7.804799,-5.426017,7.994967,
-5.311661,8.166113,-5.166113,8.311661,-4.994967,8.426017,-4.804799,8.504787,-4.602918,8.544944,-4.512206,8.544944,-4.500000,8.550000,4.500000,8.550000,4.512206,8.544944,4.512206,8.544944,$1*%
G04 Aperture macros list end*
%ADD10C,1.600000*%
%ADD11R,1.350000X1.900000*%
%ADD12O,1.350000X1.900000*%
%ADD13R,2.000000X2.000000*%
%ADD14C,2.200000*%
%ADD15R,1.800000X1.800000*%
%ADD16C,1.800000*%
%ADD17RoundRect,0.250000X-0.550000X-0.550000X0.550000X-0.550000X0.550000X0.550000X-0.550000X0.550000X0*%
%ADD18C,3.500000*%
%ADD19FreePoly0,180.000000*%
%ADD20R,1.905000X2.000000*%
%ADD21O,1.905000X2.000000*%
%ADD22RoundRect,0.291666X-0.408334X-0.708334X0.408334X-0.708334X0.408334X0.708334X-0.408334X0.708334X0*%
%ADD23O,1.400000X2.000000*%
%ADD24R,2.400000X1.600000*%
%ADD25O,2.400000X1.600000*%
%ADD26C,4.000000*%
%ADD27O,1.800000X1.800000*%
%ADD28RoundRect,0.270833X0.379167X0.379167X-0.379167X0.379167X-0.379167X-0.379167X0.379167X-0.379167X0*%
%ADD29C,1.300000*%
%ADD30O,2.500000X1.700000*%
%ADD31RoundRect,0.250000X0.550000X0.550000X-0.550000X0.550000X-0.550000X-0.550000X0.550000X-0.550000X0*%
%ADD32RoundRect,0.250000X0.550000X-0.550000X0.550000X0.550000X-0.550000X0.550000X-0.550000X-0.550000X0*%
%ADD33RoundRect,0.250000X-0.950000X-0.550000X0.950000X-0.550000X0.950000X0.550000X-0.950000X0.550000X0*%
G04 APERTURE END LIST*
D10*
%TO.C,R24*%
X131750000Y-106130500D03*
X131750000Y-103590500D03*
%TD*%
D11*
%TO.C,Q2*%
X130600001Y-96390001D03*
D12*
X128830001Y-96390001D03*
X127100001Y-96390001D03*
%TD*%
D10*
%TO.C,R20*%
X156880500Y-125250000D03*
X154340500Y-125250000D03*
%TD*%
%TO.C,C15*%
X157250000Y-102500000D03*
X162250000Y-102500000D03*
%TD*%
%TO.C,C16*%
X142700001Y-105750000D03*
X137700001Y-105750000D03*
%TD*%
%TO.C,R10*%
X167999999Y-74130500D03*
X167999999Y-71590500D03*
%TD*%
D13*
%TO.C,J2*%
X171480000Y-62500000D03*
D14*
X168380000Y-62500000D03*
X160080000Y-62500000D03*
%TD*%
D10*
%TO.C,C12*%
X137700001Y-99250000D03*
X142700001Y-99250000D03*
%TD*%
D15*
%TO.C,C27*%
X142750000Y-137500000D03*
D16*
X142750000Y-140000000D03*
%TD*%
D10*
%TO.C,C14*%
X157250000Y-86250000D03*
X162250000Y-86250000D03*
%TD*%
%TO.C,C13*%
X157250000Y-83000000D03*
X162250000Y-83000000D03*
%TD*%
%TO.C,C5*%
X162250000Y-73250000D03*
X157250000Y-73250000D03*
%TD*%
%TO.C,D2*%
X158869500Y-52750000D03*
D17*
X161409500Y-52750000D03*
%TD*%
D10*
%TO.C,C6*%
X162250000Y-76500000D03*
X157250000Y-76500000D03*
%TD*%
%TO.C,R30*%
X170750000Y-97380500D03*
X170750000Y-94840500D03*
%TD*%
%TO.C,R4*%
X168000000Y-53869500D03*
X168000000Y-56409500D03*
%TD*%
D15*
%TO.C,C28*%
X141600000Y-87250000D03*
D16*
X141600000Y-84750000D03*
%TD*%
D10*
%TO.C,R7*%
X173500000Y-53869500D03*
X173500000Y-56409500D03*
%TD*%
D18*
%TO.C,U5*%
X150000000Y-145910000D03*
D19*
X150000000Y-140750000D03*
D20*
X152540000Y-129250000D03*
D21*
X150000000Y-129250000D03*
X147460000Y-129250000D03*
%TD*%
D10*
%TO.C,D1*%
X158869500Y-55500000D03*
D17*
X161409500Y-55500000D03*
%TD*%
D22*
%TO.C,J4*%
X166000000Y-143550000D03*
D23*
X168000000Y-143550000D03*
X170000000Y-143550000D03*
%TD*%
D10*
%TO.C,R16*%
X168000000Y-88630500D03*
X168000000Y-86090500D03*
%TD*%
%TO.C,R15*%
X165250000Y-88630500D03*
X165250000Y-86090500D03*
%TD*%
D22*
%TO.C,J3*%
X130000000Y-143550000D03*
D23*
X132000000Y-143550000D03*
X134000000Y-143550000D03*
%TD*%
D10*
%TO.C,C2*%
X150000000Y-56319500D03*
X150000000Y-51319500D03*
%TD*%
D13*
%TO.C,J1*%
X128520000Y-62500000D03*
D14*
X131620000Y-62500000D03*
X139920000Y-62500000D03*
%TD*%
D10*
%TO.C,C8*%
X162250000Y-79750000D03*
X157250000Y-79750000D03*
%TD*%
%TO.C,R29*%
X168000000Y-97380500D03*
X168000000Y-94840500D03*
%TD*%
%TO.C,R17*%
X170750000Y-88630500D03*
X170750000Y-86090500D03*
%TD*%
%TO.C,R28*%
X173500000Y-88630500D03*
X173500000Y-86090500D03*
%TD*%
D24*
%TO.C,U2*%
X146180000Y-71880000D03*
D25*
X146180000Y-74420000D03*
X146180000Y-76960000D03*
X146180000Y-79500000D03*
X153800000Y-79500000D03*
X153800000Y-76960000D03*
X153800000Y-74420000D03*
X153800000Y-71880000D03*
%TD*%
D10*
%TO.C,R2*%
X129250000Y-53869500D03*
X129250000Y-56409500D03*
%TD*%
%TO.C,R32*%
X165250000Y-106130500D03*
X165250000Y-103590500D03*
%TD*%
%TO.C,C1*%
X146750000Y-51319500D03*
X146750000Y-56319500D03*
%TD*%
D26*
%TO.C,RV1*%
X135000000Y-110600000D03*
X135000000Y-119400000D03*
D25*
X128000000Y-117500001D03*
X128000000Y-115000000D03*
X128000000Y-112499999D03*
%TD*%
D10*
%TO.C,C21*%
X162250000Y-92750000D03*
X157250000Y-92750000D03*
%TD*%
%TO.C,C20*%
X142700001Y-96000000D03*
X137700001Y-96000000D03*
%TD*%
%TO.C,R25*%
X129000000Y-106130500D03*
X129000000Y-103590500D03*
%TD*%
%TO.C,C9*%
X137700001Y-76750000D03*
X142700001Y-76750000D03*
%TD*%
D26*
%TO.C,RV3*%
X135000000Y-125600000D03*
X135000000Y-134400000D03*
D25*
X128000000Y-132500001D03*
X128000000Y-130000000D03*
X128000000Y-127499999D03*
%TD*%
D10*
%TO.C,R9*%
X165250000Y-74130500D03*
X165250000Y-71590500D03*
%TD*%
%TO.C,R31*%
X173500000Y-97380500D03*
X173500000Y-94840500D03*
%TD*%
D11*
%TO.C,Q1*%
X131230000Y-92360000D03*
D12*
X133000000Y-92360000D03*
X134730000Y-92360000D03*
%TD*%
D15*
%TO.C,D6*%
X164190000Y-139250000D03*
D27*
X171810000Y-139250000D03*
%TD*%
D10*
%TO.C,R33*%
X170750000Y-106130500D03*
X170750000Y-103590500D03*
%TD*%
%TO.C,C18*%
X157250000Y-89500000D03*
X162250000Y-89500000D03*
%TD*%
%TO.C,R27*%
X143119500Y-119750000D03*
X145659500Y-119750000D03*
%TD*%
%TO.C,R5*%
X165250000Y-53869500D03*
X165250000Y-56409500D03*
%TD*%
%TO.C,R22*%
X156880500Y-122500000D03*
X154340500Y-122500000D03*
%TD*%
%TO.C,C22*%
X162250000Y-105750000D03*
X157250000Y-105750000D03*
%TD*%
%TO.C,R14*%
X129000000Y-81000000D03*
X129000000Y-78460000D03*
%TD*%
%TO.C,C11*%
X137700001Y-92750000D03*
X142700001Y-92750000D03*
%TD*%
D28*
%TO.C,C7*%
X169900000Y-78800000D03*
D29*
X168100000Y-78800000D03*
%TD*%
D10*
%TO.C,R8*%
X134750000Y-53869500D03*
X134750000Y-56409500D03*
%TD*%
%TO.C,R18*%
X143119500Y-122500000D03*
X145659500Y-122500000D03*
%TD*%
%TO.C,C3*%
X153250000Y-51319500D03*
X153250000Y-56319500D03*
%TD*%
D24*
%TO.C,U3*%
X146190000Y-106750000D03*
D25*
X146190000Y-109290000D03*
X146190000Y-111830000D03*
X146190000Y-114370000D03*
X153810000Y-114370000D03*
X153810000Y-111830000D03*
X153810000Y-109290000D03*
X153810000Y-106750000D03*
%TD*%
D26*
%TO.C,RV4*%
X165000000Y-134400000D03*
X165000000Y-125600000D03*
D25*
X172000000Y-127499999D03*
X172000000Y-130000000D03*
X172000000Y-132500001D03*
%TD*%
D10*
%TO.C,C10*%
X137700001Y-80000000D03*
X142700001Y-80000000D03*
%TD*%
%TO.C,C25*%
X142700001Y-102500000D03*
X137700001Y-102500000D03*
%TD*%
D30*
%TO.C,SW1*%
X150000000Y-120000000D03*
X150000000Y-122500000D03*
X150000000Y-125000000D03*
%TD*%
D28*
%TO.C,C23*%
X159900000Y-144500000D03*
D29*
X158100000Y-144500000D03*
%TD*%
D10*
%TO.C,C4*%
X162250000Y-70000000D03*
X157250000Y-70000000D03*
%TD*%
%TO.C,C17*%
X157250000Y-99250000D03*
X162250000Y-99250000D03*
%TD*%
%TO.C,R21*%
X156880500Y-119750000D03*
X154340500Y-119750000D03*
%TD*%
%TO.C,D3*%
X141130500Y-52750000D03*
D31*
X138590500Y-52750000D03*
%TD*%
D10*
%TO.C,R1*%
X126500000Y-53869500D03*
X126500000Y-56409500D03*
%TD*%
%TO.C,R12*%
X173500000Y-74130500D03*
X173500000Y-71590500D03*
%TD*%
%TO.C,R11*%
X170749999Y-74130500D03*
X170749999Y-71590500D03*
%TD*%
%TO.C,R26*%
X165250000Y-97380500D03*
X165250000Y-94840500D03*
%TD*%
%TO.C,R6*%
X132000000Y-53869500D03*
X132000000Y-56409500D03*
%TD*%
D28*
%TO.C,C24*%
X141900000Y-144500000D03*
D29*
X140100000Y-144500000D03*
%TD*%
D10*
%TO.C,D4*%
X141130500Y-55500000D03*
D31*
X138590500Y-55500000D03*
%TD*%
D15*
%TO.C,C26*%
X142000000Y-72450000D03*
D16*
X142000000Y-69950000D03*
%TD*%
D10*
%TO.C,D5*%
X134500000Y-81000000D03*
D32*
X134500000Y-78460000D03*
%TD*%
D10*
%TO.C,R34*%
X168000000Y-106130500D03*
X168000000Y-103590500D03*
%TD*%
%TO.C,R23*%
X134500000Y-106130500D03*
X134500000Y-103590500D03*
%TD*%
D24*
%TO.C,U1*%
X146190000Y-59380000D03*
D25*
X146190000Y-61920000D03*
X146190000Y-64460000D03*
X146190000Y-67000000D03*
X153810000Y-67000000D03*
X153810000Y-64460000D03*
X153810000Y-61920000D03*
X153810000Y-59380000D03*
%TD*%
D10*
%TO.C,C19*%
X157250000Y-96000000D03*
X162250000Y-96000000D03*
%TD*%
%TO.C,R19*%
X143119500Y-125250000D03*
X145659500Y-125250000D03*
%TD*%
D33*
%TO.C,U4*%
X146190000Y-83970000D03*
D25*
X146190000Y-86510000D03*
X146190000Y-89050000D03*
X146190000Y-91590000D03*
X146190000Y-94130000D03*
X146190000Y-96670000D03*
X146190000Y-99210000D03*
X146190000Y-101750000D03*
X153810000Y-101750000D03*
X153810000Y-99210000D03*
X153810000Y-96670000D03*
X153810000Y-94130000D03*
X153810000Y-91590000D03*
X153810000Y-89050000D03*
X153810000Y-86510000D03*
X153810000Y-83970000D03*
%TD*%
D10*
%TO.C,R3*%
X170750000Y-53869500D03*
X170750000Y-56409500D03*
%TD*%
%TO.C,R13*%
X131750000Y-81000000D03*
X131750000Y-78460000D03*
%TD*%
D26*
%TO.C,RV2*%
X165000000Y-119400000D03*
X165000000Y-110600000D03*
D25*
X172000000Y-112499999D03*
X172000000Y-115000000D03*
X172000000Y-117500001D03*
%TD*%
M02*
