%TF.GenerationSoftware,KiCad,Pcbnew,9.0.1*%
%TF.CreationDate,2025-06-14T10:14:47+10:00*%
%TF.ProjectId,Mixer,4d697865-722e-46b6-9963-61645f706362,1-0*%
%TF.SameCoordinates,Original*%
%TF.FileFunction,Legend,Bot*%
%TF.FilePolarity,Positive*%
%FSLAX46Y46*%
G04 Gerber Fmt 4.6, Leading zero omitted, Abs format (unit mm)*
G04 Created by KiCad (PCBNEW 9.0.1) date 2025-06-14 10:14:47*
%MOMM*%
%LPD*%
G01*
G04 APERTURE LIST*
%ADD10C,0.150000*%
%ADD11C,0.200000*%
%ADD12C,0.010000*%
G04 APERTURE END LIST*
D10*
X159342855Y-54547342D02*
X159342855Y-53347342D01*
X159342855Y-53347342D02*
X158885712Y-53347342D01*
X158885712Y-53347342D02*
X158771427Y-53404485D01*
X158771427Y-53404485D02*
X158714284Y-53461628D01*
X158714284Y-53461628D02*
X158657141Y-53575914D01*
X158657141Y-53575914D02*
X158657141Y-53747342D01*
X158657141Y-53747342D02*
X158714284Y-53861628D01*
X158714284Y-53861628D02*
X158771427Y-53918771D01*
X158771427Y-53918771D02*
X158885712Y-53975914D01*
X158885712Y-53975914D02*
X159342855Y-53975914D01*
X157628570Y-54547342D02*
X157628570Y-53918771D01*
X157628570Y-53918771D02*
X157685712Y-53804485D01*
X157685712Y-53804485D02*
X157799998Y-53747342D01*
X157799998Y-53747342D02*
X158028570Y-53747342D01*
X158028570Y-53747342D02*
X158142855Y-53804485D01*
X157628570Y-54490200D02*
X157742855Y-54547342D01*
X157742855Y-54547342D02*
X158028570Y-54547342D01*
X158028570Y-54547342D02*
X158142855Y-54490200D01*
X158142855Y-54490200D02*
X158199998Y-54375914D01*
X158199998Y-54375914D02*
X158199998Y-54261628D01*
X158199998Y-54261628D02*
X158142855Y-54147342D01*
X158142855Y-54147342D02*
X158028570Y-54090200D01*
X158028570Y-54090200D02*
X157742855Y-54090200D01*
X157742855Y-54090200D02*
X157628570Y-54033057D01*
X157057141Y-53747342D02*
X157057141Y-54547342D01*
X157057141Y-53861628D02*
X156999998Y-53804485D01*
X156999998Y-53804485D02*
X156885713Y-53747342D01*
X156885713Y-53747342D02*
X156714284Y-53747342D01*
X156714284Y-53747342D02*
X156599998Y-53804485D01*
X156599998Y-53804485D02*
X156542856Y-53918771D01*
X156542856Y-53918771D02*
X156542856Y-54547342D01*
X155457142Y-54490200D02*
X155571427Y-54547342D01*
X155571427Y-54547342D02*
X155799999Y-54547342D01*
X155799999Y-54547342D02*
X155914284Y-54490200D01*
X155914284Y-54490200D02*
X155971427Y-54433057D01*
X155971427Y-54433057D02*
X156028570Y-54318771D01*
X156028570Y-54318771D02*
X156028570Y-53975914D01*
X156028570Y-53975914D02*
X155971427Y-53861628D01*
X155971427Y-53861628D02*
X155914284Y-53804485D01*
X155914284Y-53804485D02*
X155799999Y-53747342D01*
X155799999Y-53747342D02*
X155571427Y-53747342D01*
X155571427Y-53747342D02*
X155457142Y-53804485D01*
X154428571Y-54547342D02*
X154428571Y-53918771D01*
X154428571Y-53918771D02*
X154485713Y-53804485D01*
X154485713Y-53804485D02*
X154599999Y-53747342D01*
X154599999Y-53747342D02*
X154828571Y-53747342D01*
X154828571Y-53747342D02*
X154942856Y-53804485D01*
X154428571Y-54490200D02*
X154542856Y-54547342D01*
X154542856Y-54547342D02*
X154828571Y-54547342D01*
X154828571Y-54547342D02*
X154942856Y-54490200D01*
X154942856Y-54490200D02*
X154999999Y-54375914D01*
X154999999Y-54375914D02*
X154999999Y-54261628D01*
X154999999Y-54261628D02*
X154942856Y-54147342D01*
X154942856Y-54147342D02*
X154828571Y-54090200D01*
X154828571Y-54090200D02*
X154542856Y-54090200D01*
X154542856Y-54090200D02*
X154428571Y-54033057D01*
X153857142Y-54547342D02*
X153857142Y-53347342D01*
X153742857Y-54090200D02*
X153399999Y-54547342D01*
X153399999Y-53747342D02*
X153857142Y-54204485D01*
X152428570Y-54490200D02*
X152542856Y-54547342D01*
X152542856Y-54547342D02*
X152771428Y-54547342D01*
X152771428Y-54547342D02*
X152885713Y-54490200D01*
X152885713Y-54490200D02*
X152942856Y-54375914D01*
X152942856Y-54375914D02*
X152942856Y-53918771D01*
X152942856Y-53918771D02*
X152885713Y-53804485D01*
X152885713Y-53804485D02*
X152771428Y-53747342D01*
X152771428Y-53747342D02*
X152542856Y-53747342D01*
X152542856Y-53747342D02*
X152428570Y-53804485D01*
X152428570Y-53804485D02*
X152371428Y-53918771D01*
X152371428Y-53918771D02*
X152371428Y-54033057D01*
X152371428Y-54033057D02*
X152942856Y-54147342D01*
X151285714Y-54547342D02*
X151857142Y-54547342D01*
X151857142Y-54547342D02*
X151857142Y-53347342D01*
X150428570Y-54490200D02*
X150542856Y-54547342D01*
X150542856Y-54547342D02*
X150771428Y-54547342D01*
X150771428Y-54547342D02*
X150885713Y-54490200D01*
X150885713Y-54490200D02*
X150942856Y-54375914D01*
X150942856Y-54375914D02*
X150942856Y-53918771D01*
X150942856Y-53918771D02*
X150885713Y-53804485D01*
X150885713Y-53804485D02*
X150771428Y-53747342D01*
X150771428Y-53747342D02*
X150542856Y-53747342D01*
X150542856Y-53747342D02*
X150428570Y-53804485D01*
X150428570Y-53804485D02*
X150371428Y-53918771D01*
X150371428Y-53918771D02*
X150371428Y-54033057D01*
X150371428Y-54033057D02*
X150942856Y-54147342D01*
X149342857Y-53747342D02*
X149342857Y-54718771D01*
X149342857Y-54718771D02*
X149399999Y-54833057D01*
X149399999Y-54833057D02*
X149457142Y-54890200D01*
X149457142Y-54890200D02*
X149571428Y-54947342D01*
X149571428Y-54947342D02*
X149742857Y-54947342D01*
X149742857Y-54947342D02*
X149857142Y-54890200D01*
X149342857Y-54490200D02*
X149457142Y-54547342D01*
X149457142Y-54547342D02*
X149685714Y-54547342D01*
X149685714Y-54547342D02*
X149799999Y-54490200D01*
X149799999Y-54490200D02*
X149857142Y-54433057D01*
X149857142Y-54433057D02*
X149914285Y-54318771D01*
X149914285Y-54318771D02*
X149914285Y-53975914D01*
X149914285Y-53975914D02*
X149857142Y-53861628D01*
X149857142Y-53861628D02*
X149799999Y-53804485D01*
X149799999Y-53804485D02*
X149685714Y-53747342D01*
X149685714Y-53747342D02*
X149457142Y-53747342D01*
X149457142Y-53747342D02*
X149342857Y-53804485D01*
X148314285Y-54490200D02*
X148428571Y-54547342D01*
X148428571Y-54547342D02*
X148657143Y-54547342D01*
X148657143Y-54547342D02*
X148771428Y-54490200D01*
X148771428Y-54490200D02*
X148828571Y-54375914D01*
X148828571Y-54375914D02*
X148828571Y-53918771D01*
X148828571Y-53918771D02*
X148771428Y-53804485D01*
X148771428Y-53804485D02*
X148657143Y-53747342D01*
X148657143Y-53747342D02*
X148428571Y-53747342D01*
X148428571Y-53747342D02*
X148314285Y-53804485D01*
X148314285Y-53804485D02*
X148257143Y-53918771D01*
X148257143Y-53918771D02*
X148257143Y-54033057D01*
X148257143Y-54033057D02*
X148828571Y-54147342D01*
X147742857Y-53747342D02*
X147742857Y-54547342D01*
X147742857Y-53861628D02*
X147685714Y-53804485D01*
X147685714Y-53804485D02*
X147571429Y-53747342D01*
X147571429Y-53747342D02*
X147400000Y-53747342D01*
X147400000Y-53747342D02*
X147285714Y-53804485D01*
X147285714Y-53804485D02*
X147228572Y-53918771D01*
X147228572Y-53918771D02*
X147228572Y-54547342D01*
X146142858Y-54547342D02*
X146142858Y-53347342D01*
X146142858Y-54490200D02*
X146257143Y-54547342D01*
X146257143Y-54547342D02*
X146485715Y-54547342D01*
X146485715Y-54547342D02*
X146600000Y-54490200D01*
X146600000Y-54490200D02*
X146657143Y-54433057D01*
X146657143Y-54433057D02*
X146714286Y-54318771D01*
X146714286Y-54318771D02*
X146714286Y-53975914D01*
X146714286Y-53975914D02*
X146657143Y-53861628D01*
X146657143Y-53861628D02*
X146600000Y-53804485D01*
X146600000Y-53804485D02*
X146485715Y-53747342D01*
X146485715Y-53747342D02*
X146257143Y-53747342D01*
X146257143Y-53747342D02*
X146142858Y-53804485D01*
X144714286Y-53461628D02*
X144657143Y-53404485D01*
X144657143Y-53404485D02*
X144542858Y-53347342D01*
X144542858Y-53347342D02*
X144257143Y-53347342D01*
X144257143Y-53347342D02*
X144142858Y-53404485D01*
X144142858Y-53404485D02*
X144085715Y-53461628D01*
X144085715Y-53461628D02*
X144028572Y-53575914D01*
X144028572Y-53575914D02*
X144028572Y-53690200D01*
X144028572Y-53690200D02*
X144085715Y-53861628D01*
X144085715Y-53861628D02*
X144771429Y-54547342D01*
X144771429Y-54547342D02*
X144028572Y-54547342D01*
X143285715Y-53347342D02*
X143171429Y-53347342D01*
X143171429Y-53347342D02*
X143057143Y-53404485D01*
X143057143Y-53404485D02*
X143000001Y-53461628D01*
X143000001Y-53461628D02*
X142942858Y-53575914D01*
X142942858Y-53575914D02*
X142885715Y-53804485D01*
X142885715Y-53804485D02*
X142885715Y-54090200D01*
X142885715Y-54090200D02*
X142942858Y-54318771D01*
X142942858Y-54318771D02*
X143000001Y-54433057D01*
X143000001Y-54433057D02*
X143057143Y-54490200D01*
X143057143Y-54490200D02*
X143171429Y-54547342D01*
X143171429Y-54547342D02*
X143285715Y-54547342D01*
X143285715Y-54547342D02*
X143400001Y-54490200D01*
X143400001Y-54490200D02*
X143457143Y-54433057D01*
X143457143Y-54433057D02*
X143514286Y-54318771D01*
X143514286Y-54318771D02*
X143571429Y-54090200D01*
X143571429Y-54090200D02*
X143571429Y-53804485D01*
X143571429Y-53804485D02*
X143514286Y-53575914D01*
X143514286Y-53575914D02*
X143457143Y-53461628D01*
X143457143Y-53461628D02*
X143400001Y-53404485D01*
X143400001Y-53404485D02*
X143285715Y-53347342D01*
X142428572Y-53461628D02*
X142371429Y-53404485D01*
X142371429Y-53404485D02*
X142257144Y-53347342D01*
X142257144Y-53347342D02*
X141971429Y-53347342D01*
X141971429Y-53347342D02*
X141857144Y-53404485D01*
X141857144Y-53404485D02*
X141800001Y-53461628D01*
X141800001Y-53461628D02*
X141742858Y-53575914D01*
X141742858Y-53575914D02*
X141742858Y-53690200D01*
X141742858Y-53690200D02*
X141800001Y-53861628D01*
X141800001Y-53861628D02*
X142485715Y-54547342D01*
X142485715Y-54547342D02*
X141742858Y-54547342D01*
X140657144Y-53347342D02*
X141228572Y-53347342D01*
X141228572Y-53347342D02*
X141285715Y-53918771D01*
X141285715Y-53918771D02*
X141228572Y-53861628D01*
X141228572Y-53861628D02*
X141114287Y-53804485D01*
X141114287Y-53804485D02*
X140828572Y-53804485D01*
X140828572Y-53804485D02*
X140714287Y-53861628D01*
X140714287Y-53861628D02*
X140657144Y-53918771D01*
X140657144Y-53918771D02*
X140600001Y-54033057D01*
X140600001Y-54033057D02*
X140600001Y-54318771D01*
X140600001Y-54318771D02*
X140657144Y-54433057D01*
X140657144Y-54433057D02*
X140714287Y-54490200D01*
X140714287Y-54490200D02*
X140828572Y-54547342D01*
X140828572Y-54547342D02*
X141114287Y-54547342D01*
X141114287Y-54547342D02*
X141228572Y-54490200D01*
X141228572Y-54490200D02*
X141285715Y-54433057D01*
X155699999Y-52797343D02*
X155699999Y-51597343D01*
X155699999Y-51597343D02*
X155299999Y-52454486D01*
X155299999Y-52454486D02*
X154899999Y-51597343D01*
X154899999Y-51597343D02*
X154899999Y-52797343D01*
X154328570Y-52797343D02*
X154328570Y-51597343D01*
X153871427Y-51597343D02*
X153071427Y-52797343D01*
X153071427Y-51597343D02*
X153871427Y-52797343D01*
X152614284Y-52168772D02*
X152214284Y-52168772D01*
X152042856Y-52797343D02*
X152614284Y-52797343D01*
X152614284Y-52797343D02*
X152614284Y-51597343D01*
X152614284Y-51597343D02*
X152042856Y-51597343D01*
X150842856Y-52797343D02*
X151242856Y-52225915D01*
X151528570Y-52797343D02*
X151528570Y-51597343D01*
X151528570Y-51597343D02*
X151071427Y-51597343D01*
X151071427Y-51597343D02*
X150957142Y-51654486D01*
X150957142Y-51654486D02*
X150899999Y-51711629D01*
X150899999Y-51711629D02*
X150842856Y-51825915D01*
X150842856Y-51825915D02*
X150842856Y-51997343D01*
X150842856Y-51997343D02*
X150899999Y-52111629D01*
X150899999Y-52111629D02*
X150957142Y-52168772D01*
X150957142Y-52168772D02*
X151071427Y-52225915D01*
X151071427Y-52225915D02*
X151528570Y-52225915D01*
X149528570Y-51997343D02*
X149242856Y-52797343D01*
X149242856Y-52797343D02*
X148957141Y-51997343D01*
X147871427Y-52797343D02*
X148557141Y-52797343D01*
X148214284Y-52797343D02*
X148214284Y-51597343D01*
X148214284Y-51597343D02*
X148328570Y-51768772D01*
X148328570Y-51768772D02*
X148442855Y-51883058D01*
X148442855Y-51883058D02*
X148557141Y-51940201D01*
X147357141Y-52340201D02*
X146442856Y-52340201D01*
X145642856Y-51597343D02*
X145528570Y-51597343D01*
X145528570Y-51597343D02*
X145414284Y-51654486D01*
X145414284Y-51654486D02*
X145357142Y-51711629D01*
X145357142Y-51711629D02*
X145299999Y-51825915D01*
X145299999Y-51825915D02*
X145242856Y-52054486D01*
X145242856Y-52054486D02*
X145242856Y-52340201D01*
X145242856Y-52340201D02*
X145299999Y-52568772D01*
X145299999Y-52568772D02*
X145357142Y-52683058D01*
X145357142Y-52683058D02*
X145414284Y-52740201D01*
X145414284Y-52740201D02*
X145528570Y-52797343D01*
X145528570Y-52797343D02*
X145642856Y-52797343D01*
X145642856Y-52797343D02*
X145757142Y-52740201D01*
X145757142Y-52740201D02*
X145814284Y-52683058D01*
X145814284Y-52683058D02*
X145871427Y-52568772D01*
X145871427Y-52568772D02*
X145928570Y-52340201D01*
X145928570Y-52340201D02*
X145928570Y-52054486D01*
X145928570Y-52054486D02*
X145871427Y-51825915D01*
X145871427Y-51825915D02*
X145814284Y-51711629D01*
X145814284Y-51711629D02*
X145757142Y-51654486D01*
X145757142Y-51654486D02*
X145642856Y-51597343D01*
D11*
X142093316Y-145483958D02*
X142093316Y-146451578D01*
X142577126Y-145967768D02*
X141609507Y-145967768D01*
X141307126Y-146874911D02*
X142577126Y-147298244D01*
X142577126Y-147298244D02*
X141307126Y-147721578D01*
X144093316Y-145483958D02*
X144093316Y-146451578D01*
X143307126Y-146874911D02*
X144577126Y-147298244D01*
X144577126Y-147298244D02*
X143307126Y-147721578D01*
X139367602Y-146149197D02*
X139307126Y-146028244D01*
X139307126Y-146028244D02*
X139307126Y-145846816D01*
X139307126Y-145846816D02*
X139367602Y-145665387D01*
X139367602Y-145665387D02*
X139488554Y-145544435D01*
X139488554Y-145544435D02*
X139609507Y-145483958D01*
X139609507Y-145483958D02*
X139851411Y-145423482D01*
X139851411Y-145423482D02*
X140032840Y-145423482D01*
X140032840Y-145423482D02*
X140274745Y-145483958D01*
X140274745Y-145483958D02*
X140395697Y-145544435D01*
X140395697Y-145544435D02*
X140516650Y-145665387D01*
X140516650Y-145665387D02*
X140577126Y-145846816D01*
X140577126Y-145846816D02*
X140577126Y-145967768D01*
X140577126Y-145967768D02*
X140516650Y-146149197D01*
X140516650Y-146149197D02*
X140456173Y-146209673D01*
X140456173Y-146209673D02*
X140032840Y-146209673D01*
X140032840Y-146209673D02*
X140032840Y-145967768D01*
X140577126Y-146753958D02*
X139307126Y-146753958D01*
X139307126Y-146753958D02*
X140577126Y-147479673D01*
X140577126Y-147479673D02*
X139307126Y-147479673D01*
X140577126Y-148084434D02*
X139307126Y-148084434D01*
X139307126Y-148084434D02*
X139307126Y-148386815D01*
X139307126Y-148386815D02*
X139367602Y-148568244D01*
X139367602Y-148568244D02*
X139488554Y-148689196D01*
X139488554Y-148689196D02*
X139609507Y-148749673D01*
X139609507Y-148749673D02*
X139851411Y-148810149D01*
X139851411Y-148810149D02*
X140032840Y-148810149D01*
X140032840Y-148810149D02*
X140274745Y-148749673D01*
X140274745Y-148749673D02*
X140395697Y-148689196D01*
X140395697Y-148689196D02*
X140516650Y-148568244D01*
X140516650Y-148568244D02*
X140577126Y-148386815D01*
X140577126Y-148386815D02*
X140577126Y-148084434D01*
X155367602Y-146149197D02*
X155307126Y-146028244D01*
X155307126Y-146028244D02*
X155307126Y-145846816D01*
X155307126Y-145846816D02*
X155367602Y-145665387D01*
X155367602Y-145665387D02*
X155488554Y-145544435D01*
X155488554Y-145544435D02*
X155609507Y-145483958D01*
X155609507Y-145483958D02*
X155851411Y-145423482D01*
X155851411Y-145423482D02*
X156032840Y-145423482D01*
X156032840Y-145423482D02*
X156274745Y-145483958D01*
X156274745Y-145483958D02*
X156395697Y-145544435D01*
X156395697Y-145544435D02*
X156516650Y-145665387D01*
X156516650Y-145665387D02*
X156577126Y-145846816D01*
X156577126Y-145846816D02*
X156577126Y-145967768D01*
X156577126Y-145967768D02*
X156516650Y-146149197D01*
X156516650Y-146149197D02*
X156456173Y-146209673D01*
X156456173Y-146209673D02*
X156032840Y-146209673D01*
X156032840Y-146209673D02*
X156032840Y-145967768D01*
X156577126Y-146753958D02*
X155307126Y-146753958D01*
X155307126Y-146753958D02*
X156577126Y-147479673D01*
X156577126Y-147479673D02*
X155307126Y-147479673D01*
X156577126Y-148084434D02*
X155307126Y-148084434D01*
X155307126Y-148084434D02*
X155307126Y-148386815D01*
X155307126Y-148386815D02*
X155367602Y-148568244D01*
X155367602Y-148568244D02*
X155488554Y-148689196D01*
X155488554Y-148689196D02*
X155609507Y-148749673D01*
X155609507Y-148749673D02*
X155851411Y-148810149D01*
X155851411Y-148810149D02*
X156032840Y-148810149D01*
X156032840Y-148810149D02*
X156274745Y-148749673D01*
X156274745Y-148749673D02*
X156395697Y-148689196D01*
X156395697Y-148689196D02*
X156516650Y-148568244D01*
X156516650Y-148568244D02*
X156577126Y-148386815D01*
X156577126Y-148386815D02*
X156577126Y-148084434D01*
X160093316Y-145483958D02*
X160093316Y-146451578D01*
X159307126Y-146874911D02*
X160577126Y-147298244D01*
X160577126Y-147298244D02*
X159307126Y-147721578D01*
X158093316Y-145483958D02*
X158093316Y-146451578D01*
X158577126Y-145967768D02*
X157609507Y-145967768D01*
X157307126Y-146874911D02*
X158577126Y-147298244D01*
X158577126Y-147298244D02*
X157307126Y-147721578D01*
D12*
%TO.C,Ref\u002A\u002A*%
X149286870Y-123081954D02*
X149301500Y-123115623D01*
X149295914Y-123135945D01*
X149257551Y-123176409D01*
X149189674Y-123214775D01*
X149100417Y-123245779D01*
X149031926Y-123256333D01*
X148939415Y-123255459D01*
X148842977Y-123242445D01*
X148751865Y-123219687D01*
X148675330Y-123189582D01*
X148622625Y-123154527D01*
X148603000Y-123116919D01*
X148603957Y-123105227D01*
X148625483Y-123078052D01*
X148676487Y-123078208D01*
X148758485Y-123105583D01*
X148790633Y-123116180D01*
X148869449Y-123131367D01*
X148952250Y-123137333D01*
X148995937Y-123135504D01*
X149079672Y-123124055D01*
X149146015Y-123105583D01*
X149166722Y-123097264D01*
X149242290Y-123075857D01*
X149286870Y-123081954D01*
G36*
X149286870Y-123081954D02*
G01*
X149301500Y-123115623D01*
X149295914Y-123135945D01*
X149257551Y-123176409D01*
X149189674Y-123214775D01*
X149100417Y-123245779D01*
X149031926Y-123256333D01*
X148939415Y-123255459D01*
X148842977Y-123242445D01*
X148751865Y-123219687D01*
X148675330Y-123189582D01*
X148622625Y-123154527D01*
X148603000Y-123116919D01*
X148603957Y-123105227D01*
X148625483Y-123078052D01*
X148676487Y-123078208D01*
X148758485Y-123105583D01*
X148790633Y-123116180D01*
X148869449Y-123131367D01*
X148952250Y-123137333D01*
X148995937Y-123135504D01*
X149079672Y-123124055D01*
X149146015Y-123105583D01*
X149166722Y-123097264D01*
X149242290Y-123075857D01*
X149286870Y-123081954D01*
G37*
X149875246Y-124835344D02*
X150152658Y-124841250D01*
X150317613Y-125254000D01*
X150482567Y-125666750D01*
X150286575Y-125677333D01*
X150090583Y-125687917D01*
X150248422Y-126016000D01*
X150285523Y-126093336D01*
X150339288Y-126206162D01*
X150386972Y-126307085D01*
X150424454Y-126387373D01*
X150447615Y-126438289D01*
X150468198Y-126485748D01*
X150478356Y-126514531D01*
X150471378Y-126515500D01*
X150447223Y-126494714D01*
X150443609Y-126491263D01*
X150412765Y-126458472D01*
X150360719Y-126400612D01*
X150291565Y-126322426D01*
X150209393Y-126228656D01*
X150118298Y-126124044D01*
X150022369Y-126013331D01*
X149925701Y-125901259D01*
X149832385Y-125792570D01*
X149746513Y-125692006D01*
X149672177Y-125604308D01*
X149613470Y-125534220D01*
X149574483Y-125486482D01*
X149559310Y-125465836D01*
X149561281Y-125462005D01*
X149591960Y-125452714D01*
X149652033Y-125444938D01*
X149732259Y-125440054D01*
X149911981Y-125433917D01*
X149754907Y-125153477D01*
X149726866Y-125103063D01*
X149675852Y-125009349D01*
X149634925Y-124931490D01*
X149607710Y-124876462D01*
X149597833Y-124851238D01*
X149608729Y-124843976D01*
X149658924Y-124837186D01*
X149748334Y-124834276D01*
X149875246Y-124835344D01*
G36*
X149875246Y-124835344D02*
G01*
X150152658Y-124841250D01*
X150317613Y-125254000D01*
X150482567Y-125666750D01*
X150286575Y-125677333D01*
X150090583Y-125687917D01*
X150248422Y-126016000D01*
X150285523Y-126093336D01*
X150339288Y-126206162D01*
X150386972Y-126307085D01*
X150424454Y-126387373D01*
X150447615Y-126438289D01*
X150468198Y-126485748D01*
X150478356Y-126514531D01*
X150471378Y-126515500D01*
X150447223Y-126494714D01*
X150443609Y-126491263D01*
X150412765Y-126458472D01*
X150360719Y-126400612D01*
X150291565Y-126322426D01*
X150209393Y-126228656D01*
X150118298Y-126124044D01*
X150022369Y-126013331D01*
X149925701Y-125901259D01*
X149832385Y-125792570D01*
X149746513Y-125692006D01*
X149672177Y-125604308D01*
X149613470Y-125534220D01*
X149574483Y-125486482D01*
X149559310Y-125465836D01*
X149561281Y-125462005D01*
X149591960Y-125452714D01*
X149652033Y-125444938D01*
X149732259Y-125440054D01*
X149911981Y-125433917D01*
X149754907Y-125153477D01*
X149726866Y-125103063D01*
X149675852Y-125009349D01*
X149634925Y-124931490D01*
X149607710Y-124876462D01*
X149597833Y-124851238D01*
X149608729Y-124843976D01*
X149658924Y-124837186D01*
X149748334Y-124834276D01*
X149875246Y-124835344D01*
G37*
X154984737Y-121641985D02*
X154983501Y-121742784D01*
X154978763Y-121815197D01*
X154968421Y-121871359D01*
X154950376Y-121923408D01*
X154922528Y-121983480D01*
X154888865Y-122043091D01*
X154825170Y-122134561D01*
X154758694Y-122211822D01*
X154738973Y-122230408D01*
X154665209Y-122288475D01*
X154578686Y-122344704D01*
X154490693Y-122392740D01*
X154412517Y-122426228D01*
X154355445Y-122438816D01*
X154337573Y-122441987D01*
X154320973Y-122458540D01*
X154318685Y-122465262D01*
X154308297Y-122495786D01*
X154297291Y-122560906D01*
X154285701Y-122661083D01*
X154265591Y-122824233D01*
X154218115Y-123114609D01*
X154154613Y-123425321D01*
X154110275Y-123609618D01*
X154077509Y-123745816D01*
X154024256Y-123938678D01*
X153989227Y-124065543D01*
X153892191Y-124373950D01*
X153891660Y-124375530D01*
X153852145Y-124496409D01*
X153818767Y-124604847D01*
X153793479Y-124693963D01*
X153778236Y-124756874D01*
X153774992Y-124786700D01*
X153778206Y-124796656D01*
X153794180Y-124844138D01*
X153818661Y-124915674D01*
X153847805Y-125000000D01*
X153893065Y-125141226D01*
X153937519Y-125319979D01*
X153966870Y-125503041D01*
X153982967Y-125702722D01*
X153987224Y-125910167D01*
X153987658Y-125931333D01*
X153983058Y-126152896D01*
X153969159Y-126345101D01*
X153945861Y-126497957D01*
X153913052Y-126612473D01*
X153892505Y-126647213D01*
X153849865Y-126683502D01*
X153781986Y-126717338D01*
X153683294Y-126751410D01*
X153548215Y-126788404D01*
X153466014Y-126808384D01*
X153452854Y-126810931D01*
X153234367Y-126853218D01*
X153010788Y-126876981D01*
X152775313Y-126882093D01*
X152534377Y-126878785D01*
X152356374Y-127093832D01*
X152133399Y-127349601D01*
X151863951Y-127630949D01*
X151577840Y-127904540D01*
X151286032Y-128159928D01*
X150999492Y-128386667D01*
X150951333Y-128422752D01*
X150877832Y-128479626D01*
X150831153Y-128520158D01*
X150806164Y-128549810D01*
X150797734Y-128574047D01*
X150800734Y-128598333D01*
X150804331Y-128618816D01*
X150809676Y-128681092D01*
X150813261Y-128766526D01*
X150814298Y-128850199D01*
X150814455Y-128862917D01*
X150813816Y-128933436D01*
X150809897Y-129016123D01*
X150800277Y-129078685D01*
X150782531Y-129134587D01*
X150754234Y-129197296D01*
X150725158Y-129251155D01*
X150619431Y-129391996D01*
X150485608Y-129510928D01*
X150332363Y-129601160D01*
X150168375Y-129655900D01*
X150005036Y-129672143D01*
X149831279Y-129652192D01*
X149665723Y-129596816D01*
X149514362Y-129509531D01*
X149383190Y-129393852D01*
X149278204Y-129253291D01*
X149205399Y-129091365D01*
X149191309Y-129024767D01*
X149181855Y-128930995D01*
X149179285Y-128860191D01*
X149536316Y-128860191D01*
X149554529Y-128974941D01*
X149602516Y-129083367D01*
X149681713Y-129179366D01*
X149793557Y-129256834D01*
X149920664Y-129301606D01*
X150052194Y-129306950D01*
X150179398Y-129271486D01*
X150297338Y-129195812D01*
X150307941Y-129186493D01*
X150395050Y-129083460D01*
X150446547Y-128969292D01*
X150464695Y-128850199D01*
X150451758Y-128732390D01*
X150409998Y-128622076D01*
X150341679Y-128525467D01*
X150249065Y-128448771D01*
X150134417Y-128398200D01*
X150000000Y-128379963D01*
X149971804Y-128380694D01*
X149841554Y-128405210D01*
X149732456Y-128460025D01*
X149645946Y-128539034D01*
X149583461Y-128636134D01*
X149546439Y-128745221D01*
X149536316Y-128860191D01*
X149179285Y-128860191D01*
X149178047Y-128826091D01*
X149179987Y-128723313D01*
X149187775Y-128635919D01*
X149201510Y-128577167D01*
X149201766Y-128576499D01*
X149194672Y-128552518D01*
X149159559Y-128513523D01*
X149093810Y-128457024D01*
X148994808Y-128380531D01*
X148924496Y-128327077D01*
X148587411Y-128050752D01*
X148254035Y-127745631D01*
X147935187Y-127422032D01*
X147641685Y-127090271D01*
X147465433Y-126878935D01*
X147214008Y-126881775D01*
X147131219Y-126881427D01*
X146956941Y-126873095D01*
X146783685Y-126855590D01*
X146617353Y-126830229D01*
X146537599Y-126813658D01*
X147906766Y-126813658D01*
X147908042Y-126818505D01*
X147928760Y-126848372D01*
X147969069Y-126898863D01*
X148023183Y-126962577D01*
X148198706Y-127157752D01*
X148517604Y-127483695D01*
X148848065Y-127787645D01*
X149179867Y-128059903D01*
X149411908Y-128238434D01*
X149492605Y-128174521D01*
X149562450Y-128124080D01*
X149680160Y-128063076D01*
X149811077Y-128026789D01*
X149968250Y-128010727D01*
X150037976Y-128008658D01*
X150129677Y-128011323D01*
X150205792Y-128023190D01*
X150282717Y-128046106D01*
X150333506Y-128066373D01*
X150427422Y-128112759D01*
X150507663Y-128162153D01*
X150608642Y-128234700D01*
X150838779Y-128056008D01*
X151083667Y-127856869D01*
X151361098Y-127611496D01*
X151628751Y-127354812D01*
X151871904Y-127100435D01*
X152134993Y-126810931D01*
X151963833Y-126755317D01*
X151902200Y-126734266D01*
X151822804Y-126699919D01*
X151771002Y-126662025D01*
X151737946Y-126613140D01*
X151714786Y-126545821D01*
X151707606Y-126516228D01*
X151688192Y-126406586D01*
X151671965Y-126272592D01*
X151660102Y-126127613D01*
X151653781Y-125985016D01*
X151654160Y-125864467D01*
X151832189Y-125864467D01*
X151834700Y-126072968D01*
X151851031Y-126277805D01*
X151880232Y-126460500D01*
X151883159Y-126472830D01*
X151896709Y-126506244D01*
X151921459Y-126533214D01*
X151963498Y-126556547D01*
X152028917Y-126579046D01*
X152123804Y-126603517D01*
X152254250Y-126632765D01*
X152349139Y-126650072D01*
X152520587Y-126670341D01*
X152708112Y-126682057D01*
X152897428Y-126684794D01*
X153074246Y-126678127D01*
X153224279Y-126661632D01*
X153330666Y-126642454D01*
X153450730Y-126617026D01*
X153560591Y-126590102D01*
X153649696Y-126564289D01*
X153707494Y-126542196D01*
X153727398Y-126520795D01*
X153751327Y-126458210D01*
X153770830Y-126361301D01*
X153785267Y-126234622D01*
X153793998Y-126082726D01*
X153796382Y-125910167D01*
X153795611Y-125848789D01*
X153783982Y-125629093D01*
X153756545Y-125426351D01*
X153710575Y-125228113D01*
X153643342Y-125021934D01*
X153552121Y-124795363D01*
X153468249Y-124601310D01*
X153349270Y-124684656D01*
X153185436Y-124775516D01*
X153004758Y-124831538D01*
X152817210Y-124850508D01*
X152629623Y-124832422D01*
X152448830Y-124777278D01*
X152281661Y-124685074D01*
X152163279Y-124602147D01*
X152098929Y-124742865D01*
X152069531Y-124808479D01*
X151981127Y-125030337D01*
X151916517Y-125242437D01*
X151871342Y-125461003D01*
X151841245Y-125702261D01*
X151832189Y-125864467D01*
X151654160Y-125864467D01*
X151654180Y-125858166D01*
X151654805Y-125840745D01*
X151657316Y-125752881D01*
X151656351Y-125698778D01*
X151650574Y-125671068D01*
X151638652Y-125662384D01*
X151619250Y-125665360D01*
X151580599Y-125672497D01*
X151520050Y-125677044D01*
X151463183Y-125677333D01*
X151456550Y-126201208D01*
X151454348Y-126359788D01*
X151451837Y-126488274D01*
X151448610Y-126585757D01*
X151444170Y-126658006D01*
X151438026Y-126710788D01*
X151429682Y-126749873D01*
X151418644Y-126781030D01*
X151404420Y-126810027D01*
X151384552Y-126844505D01*
X151284010Y-126967593D01*
X151153861Y-127060586D01*
X151140724Y-127067436D01*
X151119593Y-127076857D01*
X151094737Y-127084658D01*
X151062293Y-127091022D01*
X151018403Y-127096132D01*
X150959204Y-127100171D01*
X150880837Y-127103322D01*
X150779441Y-127105768D01*
X150651154Y-127107692D01*
X150492117Y-127109278D01*
X150298468Y-127110708D01*
X150066347Y-127112166D01*
X149974195Y-127112714D01*
X149738739Y-127113864D01*
X149540467Y-127114120D01*
X149375566Y-127113113D01*
X149240225Y-127110477D01*
X149130633Y-127105843D01*
X149042978Y-127098844D01*
X148973450Y-127089112D01*
X148918237Y-127076280D01*
X148873528Y-127059981D01*
X148835512Y-127039847D01*
X148800376Y-127015509D01*
X148764311Y-126986602D01*
X148736155Y-126959963D01*
X148677721Y-126887889D01*
X148632226Y-126811250D01*
X148630809Y-126808200D01*
X148615311Y-126772841D01*
X148603511Y-126738209D01*
X148594903Y-126698153D01*
X148588982Y-126646521D01*
X148585241Y-126577162D01*
X148583175Y-126483925D01*
X148582277Y-126360657D01*
X148582040Y-126201208D01*
X148581718Y-126106641D01*
X148580242Y-125975137D01*
X148577742Y-125862650D01*
X148574404Y-125775008D01*
X148570414Y-125718041D01*
X148565958Y-125697578D01*
X148559631Y-125696865D01*
X148519991Y-125690361D01*
X148461624Y-125679528D01*
X148373165Y-125662399D01*
X148372508Y-125950324D01*
X148370415Y-126065251D01*
X148370241Y-126074845D01*
X148360353Y-126243356D01*
X148343458Y-126392479D01*
X148320455Y-126516512D01*
X148292240Y-126609753D01*
X148259713Y-126666501D01*
X148258836Y-126667415D01*
X148215150Y-126697814D01*
X148145624Y-126731446D01*
X148064896Y-126761197D01*
X148053780Y-126764677D01*
X147982153Y-126787536D01*
X147929580Y-126805047D01*
X147906766Y-126813658D01*
X146537599Y-126813658D01*
X146463847Y-126798334D01*
X146329067Y-126761224D01*
X146218916Y-126720219D01*
X146139295Y-126676638D01*
X146096105Y-126631800D01*
X146071321Y-126566725D01*
X146045797Y-126450952D01*
X146027018Y-126301597D01*
X146015535Y-126123312D01*
X146011899Y-125920750D01*
X146012009Y-125901091D01*
X146193801Y-125901091D01*
X146194408Y-125999156D01*
X146202084Y-126105937D01*
X146217155Y-126237887D01*
X146217291Y-126238968D01*
X146235002Y-126366089D01*
X146251625Y-126455309D01*
X146268154Y-126510977D01*
X146285584Y-126537444D01*
X146291096Y-126540913D01*
X146338781Y-126560241D01*
X146416497Y-126583704D01*
X146514640Y-126608953D01*
X146623605Y-126633639D01*
X146733787Y-126655414D01*
X146835583Y-126671929D01*
X146979215Y-126686038D01*
X147209959Y-126690164D01*
X147452326Y-126675722D01*
X147691195Y-126643789D01*
X147911446Y-126595437D01*
X147953882Y-126583800D01*
X148029865Y-126560376D01*
X148077223Y-126536074D01*
X148104510Y-126502247D01*
X148120283Y-126450247D01*
X148133099Y-126371427D01*
X148164695Y-126065251D01*
X148163788Y-125752813D01*
X148126084Y-125448386D01*
X148050617Y-125144401D01*
X147936417Y-124833289D01*
X147838366Y-124600995D01*
X147719162Y-124684498D01*
X147703212Y-124695381D01*
X147544281Y-124779039D01*
X147369470Y-124832819D01*
X147194126Y-124851833D01*
X147059711Y-124851833D01*
X147091206Y-124941098D01*
X147099856Y-124964002D01*
X147135906Y-125045075D01*
X147176300Y-125121823D01*
X147179905Y-125128062D01*
X147216692Y-125214530D01*
X147216886Y-125280353D01*
X147180480Y-125325221D01*
X147175576Y-125327912D01*
X147121511Y-125333181D01*
X147045398Y-125312702D01*
X146953770Y-125270663D01*
X146853157Y-125211249D01*
X146750091Y-125138647D01*
X146651104Y-125057045D01*
X146562727Y-124970628D01*
X146491491Y-124883583D01*
X146446808Y-124820083D01*
X146390156Y-124947083D01*
X146378576Y-124974002D01*
X146322856Y-125131548D01*
X146273720Y-125316495D01*
X146234103Y-125516476D01*
X146206940Y-125719124D01*
X146199941Y-125795288D01*
X146193801Y-125901091D01*
X146012009Y-125901091D01*
X146012160Y-125874270D01*
X146018099Y-125677901D01*
X146033556Y-125505226D01*
X146060891Y-125341320D01*
X146102464Y-125171261D01*
X146160635Y-124980125D01*
X146235394Y-124750425D01*
X146117760Y-124404254D01*
X146028616Y-124125034D01*
X146019318Y-124092115D01*
X146346386Y-124092115D01*
X146360421Y-124254212D01*
X146394599Y-124419750D01*
X146445865Y-124570433D01*
X146450301Y-124580545D01*
X146514541Y-124699212D01*
X146599862Y-124822633D01*
X146694916Y-124935791D01*
X146788353Y-125023667D01*
X146845256Y-125065416D01*
X146913682Y-125110334D01*
X146982139Y-125151278D01*
X147041875Y-125183281D01*
X147084135Y-125201376D01*
X147100167Y-125200596D01*
X147099080Y-125195727D01*
X147085140Y-125161817D01*
X147060275Y-125110282D01*
X147053880Y-125097028D01*
X147025999Y-125031010D01*
X146993097Y-124944217D01*
X146961005Y-124851833D01*
X146954635Y-124832432D01*
X146937609Y-124777877D01*
X146924528Y-124727592D01*
X146914757Y-124674920D01*
X146907659Y-124613203D01*
X146902599Y-124535785D01*
X146898941Y-124436008D01*
X146896049Y-124307216D01*
X146893287Y-124142750D01*
X146891885Y-124053810D01*
X146972877Y-124053810D01*
X146973428Y-124180839D01*
X146976006Y-124305436D01*
X146980633Y-124419991D01*
X146987326Y-124516888D01*
X146996107Y-124588517D01*
X146996537Y-124590980D01*
X147010606Y-124662405D01*
X147025496Y-124702815D01*
X147047627Y-124722844D01*
X147083420Y-124733125D01*
X147178749Y-124742326D01*
X147320800Y-124729655D01*
X147465962Y-124691081D01*
X147599544Y-124629553D01*
X147719344Y-124541886D01*
X147744126Y-124514535D01*
X148019018Y-124514535D01*
X148088441Y-124656726D01*
X148109680Y-124702073D01*
X148170121Y-124848593D01*
X148228095Y-125011674D01*
X148277544Y-125173476D01*
X148312409Y-125316160D01*
X148324239Y-125370631D01*
X148341199Y-125424099D01*
X148361987Y-125452535D01*
X148392016Y-125466139D01*
X148446577Y-125479243D01*
X148513042Y-125493409D01*
X148581833Y-125506942D01*
X148581833Y-125083457D01*
X148581994Y-124996758D01*
X148583699Y-124855154D01*
X148588261Y-124745582D01*
X148592933Y-124699926D01*
X148931083Y-124699926D01*
X148931083Y-126675907D01*
X148981053Y-126716370D01*
X148982692Y-126717681D01*
X148996464Y-126726990D01*
X149014582Y-126734697D01*
X149040844Y-126740952D01*
X149079050Y-126745906D01*
X149132998Y-126749710D01*
X149206487Y-126752515D01*
X149303315Y-126754472D01*
X149427282Y-126755731D01*
X149582186Y-126756444D01*
X149771826Y-126756761D01*
X150000000Y-126756833D01*
X150031404Y-126756832D01*
X150254448Y-126756737D01*
X150439442Y-126756378D01*
X150590186Y-126755604D01*
X150710477Y-126754264D01*
X150804115Y-126752208D01*
X150874898Y-126749283D01*
X150926625Y-126745341D01*
X150963094Y-126740229D01*
X150988105Y-126733797D01*
X151005457Y-126725895D01*
X151018947Y-126716370D01*
X151068917Y-126675907D01*
X151068917Y-124699926D01*
X151018947Y-124659463D01*
X151017308Y-124658152D01*
X151003536Y-124648843D01*
X150985419Y-124641136D01*
X150959156Y-124634881D01*
X150920951Y-124629927D01*
X150867003Y-124626123D01*
X150793514Y-124623318D01*
X150696685Y-124621361D01*
X150572718Y-124620102D01*
X150417814Y-124619389D01*
X150228174Y-124619072D01*
X150000000Y-124619000D01*
X149968596Y-124619001D01*
X149745552Y-124619096D01*
X149560558Y-124619455D01*
X149409815Y-124620229D01*
X149289524Y-124621569D01*
X149195886Y-124623625D01*
X149125103Y-124626550D01*
X149073376Y-124630492D01*
X149036906Y-124635604D01*
X149011895Y-124642036D01*
X148994544Y-124649938D01*
X148981053Y-124659463D01*
X148931083Y-124699926D01*
X148592933Y-124699926D01*
X148596893Y-124661227D01*
X148610806Y-124595274D01*
X148631213Y-124540909D01*
X148659327Y-124491316D01*
X148696360Y-124439680D01*
X148725548Y-124408556D01*
X148788396Y-124357454D01*
X148859747Y-124311649D01*
X148973417Y-124248800D01*
X149433792Y-124241327D01*
X149491608Y-124240288D01*
X149620327Y-124237203D01*
X149731018Y-124233479D01*
X149817606Y-124229384D01*
X149874014Y-124225184D01*
X149894167Y-124221144D01*
X149893842Y-124219201D01*
X150127000Y-124219201D01*
X150127134Y-124221144D01*
X150127542Y-124227097D01*
X150133322Y-124238421D01*
X150149773Y-124246722D01*
X150182173Y-124252471D01*
X150235797Y-124256139D01*
X150315924Y-124258198D01*
X150427830Y-124259119D01*
X150576792Y-124259373D01*
X150664794Y-124259469D01*
X150794392Y-124260145D01*
X150891983Y-124261982D01*
X150964213Y-124265582D01*
X151017726Y-124271543D01*
X151059168Y-124280469D01*
X151095183Y-124292958D01*
X151132417Y-124309613D01*
X151225114Y-124362965D01*
X151322468Y-124454638D01*
X151395288Y-124576667D01*
X151406948Y-124604422D01*
X151418987Y-124642751D01*
X151427558Y-124688921D01*
X151428586Y-124699926D01*
X151433246Y-124749828D01*
X151436637Y-124832371D01*
X151438316Y-124943449D01*
X151438869Y-125089958D01*
X151439237Y-125192011D01*
X151440888Y-125316975D01*
X151444095Y-125406597D01*
X151449132Y-125465110D01*
X151456273Y-125496745D01*
X151465792Y-125505733D01*
X151474549Y-125504633D01*
X151520456Y-125496350D01*
X151582113Y-125483340D01*
X151631410Y-125469459D01*
X151667815Y-125445560D01*
X151684448Y-125406231D01*
X151689616Y-125382891D01*
X151764135Y-125094190D01*
X151850948Y-124837229D01*
X151948450Y-124616811D01*
X151990851Y-124533699D01*
X151871516Y-124288275D01*
X151856541Y-124256504D01*
X152070367Y-124256504D01*
X152109392Y-124325907D01*
X152124790Y-124351750D01*
X152225852Y-124477522D01*
X152293222Y-124533699D01*
X152356083Y-124586117D01*
X152505158Y-124670142D01*
X152662750Y-124722200D01*
X152698569Y-124729369D01*
X152808520Y-124742791D01*
X152910195Y-124737235D01*
X153026320Y-124712068D01*
X153178684Y-124654478D01*
X153331416Y-124555484D01*
X153460355Y-124423032D01*
X153562470Y-124259679D01*
X153573780Y-124236429D01*
X153603607Y-124167493D01*
X153620606Y-124105918D01*
X153628259Y-124035160D01*
X153630050Y-123938678D01*
X153629842Y-123903579D01*
X153627655Y-123825118D01*
X153623590Y-123768078D01*
X153618276Y-123742914D01*
X153605382Y-123742471D01*
X153559054Y-123752036D01*
X153488028Y-123771536D01*
X153401317Y-123798654D01*
X153196167Y-123866229D01*
X153196167Y-123923961D01*
X153196167Y-123939598D01*
X153195571Y-123960422D01*
X153170966Y-124070056D01*
X153115581Y-124161627D01*
X153036743Y-124232423D01*
X152941774Y-124279732D01*
X152837999Y-124300845D01*
X152732743Y-124293048D01*
X152633330Y-124253631D01*
X152547085Y-124179882D01*
X152501253Y-124125386D01*
X152436498Y-124179874D01*
X152354228Y-124234016D01*
X152247969Y-124269818D01*
X152145054Y-124270516D01*
X152070367Y-124256504D01*
X151856541Y-124256504D01*
X151818186Y-124175128D01*
X151774664Y-124069926D01*
X151749500Y-123985101D01*
X151741752Y-123918787D01*
X151947333Y-123918787D01*
X151949910Y-123961632D01*
X151969515Y-124019288D01*
X152016125Y-124078055D01*
X152098536Y-124141466D01*
X152186263Y-124164037D01*
X152277212Y-124144667D01*
X152288656Y-124139343D01*
X152367783Y-124081170D01*
X152417787Y-124004283D01*
X152431681Y-123939999D01*
X152559746Y-123939999D01*
X152584392Y-124032389D01*
X152639989Y-124111347D01*
X152722791Y-124166481D01*
X152751341Y-124177958D01*
X152807356Y-124192958D01*
X152856291Y-124186788D01*
X152919496Y-124158592D01*
X152998944Y-124103422D01*
X153055095Y-124022467D01*
X153073037Y-123923961D01*
X153068550Y-123877437D01*
X153035187Y-123790340D01*
X152976301Y-123724846D01*
X152900199Y-123683130D01*
X152815191Y-123667365D01*
X152729583Y-123679725D01*
X152651684Y-123722384D01*
X152589802Y-123797516D01*
X152569797Y-123844571D01*
X152562063Y-123917997D01*
X152559746Y-123939999D01*
X152431681Y-123939999D01*
X152436436Y-123917997D01*
X152421496Y-123831628D01*
X152370736Y-123754492D01*
X152301025Y-123701367D01*
X152207745Y-123673673D01*
X152106513Y-123687525D01*
X152097700Y-123690623D01*
X152017519Y-123741495D01*
X151965719Y-123819987D01*
X151947333Y-123918787D01*
X151741752Y-123918787D01*
X151740961Y-123912021D01*
X151747316Y-123842052D01*
X151766831Y-123766562D01*
X151767771Y-123763570D01*
X151786983Y-123697738D01*
X151792067Y-123653553D01*
X151782108Y-123613075D01*
X151756188Y-123558367D01*
X151749268Y-123544792D01*
X152096030Y-123544792D01*
X152100586Y-123549681D01*
X152134977Y-123557558D01*
X152192142Y-123560667D01*
X152196934Y-123560681D01*
X152287735Y-123569937D01*
X152362520Y-123601371D01*
X152439458Y-123662463D01*
X152497667Y-123716753D01*
X152555875Y-123661223D01*
X152573847Y-123645193D01*
X152674764Y-123585668D01*
X152786981Y-123560285D01*
X152900879Y-123568624D01*
X153006840Y-123610265D01*
X153095247Y-123684788D01*
X153107746Y-123698834D01*
X153148782Y-123735340D01*
X153178925Y-123748836D01*
X153204145Y-123745137D01*
X153267527Y-123729540D01*
X153343135Y-123705933D01*
X153420377Y-123678228D01*
X153488662Y-123650333D01*
X153537401Y-123626160D01*
X153556000Y-123609618D01*
X153555205Y-123598949D01*
X153531499Y-123537296D01*
X153480189Y-123462901D01*
X153408491Y-123383170D01*
X153323624Y-123305510D01*
X153232805Y-123237329D01*
X153143250Y-123186032D01*
X153116113Y-123173661D01*
X153052901Y-123149158D01*
X152991459Y-123134941D01*
X152917107Y-123128355D01*
X152815167Y-123126750D01*
X152776674Y-123126903D01*
X152685423Y-123129936D01*
X152617002Y-123138841D01*
X152556879Y-123156211D01*
X152490523Y-123184635D01*
X152432776Y-123213873D01*
X152356587Y-123258202D01*
X152300023Y-123297656D01*
X152292827Y-123303757D01*
X152245236Y-123349907D01*
X152193202Y-123407453D01*
X152145284Y-123466029D01*
X152110041Y-123515264D01*
X152096030Y-123544792D01*
X151749268Y-123544792D01*
X151739922Y-123526458D01*
X151715270Y-123479626D01*
X151702705Y-123457987D01*
X151698603Y-123457908D01*
X151670008Y-123473103D01*
X151625039Y-123504770D01*
X151586454Y-123531927D01*
X151460063Y-123601060D01*
X151319444Y-123655828D01*
X151185117Y-123687697D01*
X151095450Y-123695348D01*
X150925734Y-123685731D01*
X150759496Y-123648017D01*
X150608201Y-123585263D01*
X150483311Y-123500527D01*
X150407975Y-123434381D01*
X150321440Y-123620629D01*
X150308923Y-123648270D01*
X150266694Y-123750400D01*
X150224953Y-123862899D01*
X150186908Y-123975898D01*
X150155763Y-124079527D01*
X150134725Y-124163918D01*
X150127000Y-124219201D01*
X149893842Y-124219201D01*
X149888623Y-124188027D01*
X149869772Y-124120637D01*
X149840718Y-124031335D01*
X149804753Y-123929401D01*
X149765166Y-123824113D01*
X149725248Y-123724749D01*
X149688289Y-123640588D01*
X149591961Y-123434760D01*
X149515522Y-123494813D01*
X149499040Y-123507417D01*
X149433517Y-123552950D01*
X149375583Y-123587483D01*
X149357780Y-123598018D01*
X149349139Y-123607081D01*
X149311634Y-123646419D01*
X149274806Y-123726179D01*
X149253546Y-123774567D01*
X149204469Y-123857328D01*
X149147806Y-123930801D01*
X149107132Y-123973749D01*
X149063317Y-124009917D01*
X149021015Y-124026187D01*
X148965972Y-124030364D01*
X148896995Y-124023819D01*
X148817805Y-123989789D01*
X148794224Y-123970153D01*
X148726389Y-123893565D01*
X148665136Y-123798569D01*
X148621978Y-123702084D01*
X148593434Y-123643457D01*
X148530340Y-123588059D01*
X148516877Y-123580811D01*
X148500474Y-123570593D01*
X148693875Y-123570593D01*
X148710138Y-123637345D01*
X148739805Y-123714531D01*
X148777839Y-123789187D01*
X148819202Y-123848348D01*
X148834430Y-123864647D01*
X148904327Y-123913509D01*
X148973600Y-123920890D01*
X149040666Y-123887470D01*
X149103940Y-123813932D01*
X149161836Y-123700957D01*
X149190837Y-123607081D01*
X149189045Y-123538767D01*
X149155559Y-123498358D01*
X149128239Y-123486481D01*
X149052194Y-123468768D01*
X148963094Y-123461969D01*
X148871891Y-123465352D01*
X148789539Y-123478181D01*
X148726990Y-123499722D01*
X148695198Y-123529239D01*
X148693875Y-123570593D01*
X148500474Y-123570593D01*
X148453406Y-123541273D01*
X148389846Y-123495501D01*
X148314275Y-123436135D01*
X148284821Y-123495457D01*
X148254460Y-123556609D01*
X148234056Y-123599319D01*
X148213235Y-123653892D01*
X148202018Y-123709367D01*
X148198022Y-123779529D01*
X148198862Y-123878167D01*
X148195909Y-123936716D01*
X148188936Y-124075011D01*
X148145427Y-124267179D01*
X148067913Y-124434476D01*
X148019018Y-124514535D01*
X147744126Y-124514535D01*
X147834719Y-124414553D01*
X147923117Y-124266067D01*
X147980994Y-124104198D01*
X148004806Y-123936716D01*
X147991009Y-123771389D01*
X147972593Y-123689541D01*
X147953839Y-123638693D01*
X147928526Y-123618642D01*
X147889318Y-123623838D01*
X147828877Y-123648731D01*
X147799801Y-123660566D01*
X147667511Y-123694217D01*
X147518202Y-123707147D01*
X147368023Y-123698815D01*
X147233126Y-123668680D01*
X147232877Y-123668596D01*
X147137776Y-123639118D01*
X147072672Y-123626580D01*
X147029093Y-123630293D01*
X146998567Y-123649566D01*
X146990550Y-123673639D01*
X146983190Y-123734264D01*
X146977778Y-123822910D01*
X146974333Y-123931962D01*
X146972877Y-124053810D01*
X146891885Y-124053810D01*
X146884948Y-123613583D01*
X146937145Y-123564613D01*
X146986126Y-123530775D01*
X147050334Y-123516558D01*
X147133157Y-123526449D01*
X147242766Y-123560333D01*
X147258884Y-123565930D01*
X147394515Y-123595508D01*
X147538842Y-123601077D01*
X147677020Y-123583129D01*
X147794208Y-123542152D01*
X147884999Y-123495457D01*
X147840795Y-123433378D01*
X147809665Y-123394789D01*
X147723276Y-123312421D01*
X147618792Y-123235156D01*
X147511231Y-123174780D01*
X147502127Y-123170647D01*
X147443733Y-123148504D01*
X147381735Y-123135113D01*
X147303255Y-123128514D01*
X147195417Y-123126750D01*
X147138171Y-123127069D01*
X147050187Y-123130439D01*
X146984115Y-123139365D01*
X146926435Y-123156141D01*
X146863626Y-123183062D01*
X146843622Y-123192731D01*
X146685192Y-123294232D01*
X146556129Y-123425899D01*
X146456896Y-123587000D01*
X146387954Y-123776805D01*
X146349766Y-123994583D01*
X146346386Y-124092115D01*
X146019318Y-124092115D01*
X145942256Y-123819285D01*
X145865226Y-123509566D01*
X145799945Y-123206326D01*
X145748829Y-122920015D01*
X145714300Y-122661083D01*
X145708143Y-122603290D01*
X145697996Y-122526949D01*
X145685506Y-122481167D01*
X146042737Y-122481167D01*
X146046094Y-122512494D01*
X146056608Y-122579910D01*
X146072915Y-122674572D01*
X146093616Y-122789012D01*
X146117315Y-122915767D01*
X146142613Y-123047371D01*
X146168112Y-123176359D01*
X146192416Y-123295265D01*
X146214126Y-123396625D01*
X146231674Y-123465492D01*
X146250395Y-123508981D01*
X146267847Y-123512336D01*
X146285032Y-123476687D01*
X146317793Y-123410158D01*
X146376398Y-123327628D01*
X146451217Y-123241161D01*
X146533083Y-123161328D01*
X146612830Y-123098698D01*
X146779543Y-123008645D01*
X146964825Y-122949830D01*
X147155199Y-122926518D01*
X147344854Y-122937807D01*
X147527978Y-122982795D01*
X147698761Y-123060580D01*
X147851390Y-123170259D01*
X147980053Y-123310931D01*
X147986854Y-123320149D01*
X148032263Y-123379205D01*
X148060867Y-123408444D01*
X148078846Y-123412557D01*
X148092376Y-123396237D01*
X148096055Y-123387678D01*
X148097441Y-123351994D01*
X148080517Y-123298165D01*
X148042887Y-123217528D01*
X148023635Y-123177199D01*
X147958612Y-122985575D01*
X147932952Y-122791462D01*
X147934490Y-122766917D01*
X148147917Y-122766917D01*
X148148236Y-122824162D01*
X148151606Y-122912146D01*
X148160532Y-122978219D01*
X148177308Y-123035899D01*
X148204229Y-123098707D01*
X148241409Y-123167481D01*
X148321977Y-123280989D01*
X148415885Y-123382181D01*
X148510914Y-123456789D01*
X148583028Y-123501357D01*
X148624611Y-123448493D01*
X148624729Y-123448343D01*
X148685094Y-123401978D01*
X148776925Y-123369701D01*
X148891096Y-123353654D01*
X149018483Y-123355981D01*
X149083239Y-123364120D01*
X149154585Y-123378034D01*
X149200842Y-123393003D01*
X149235157Y-123415119D01*
X149280333Y-123457145D01*
X149286679Y-123464989D01*
X149308356Y-123484577D01*
X149333498Y-123481799D01*
X149378281Y-123456557D01*
X149441171Y-123412849D01*
X149556984Y-123299618D01*
X149651345Y-123162321D01*
X149719566Y-123010288D01*
X149756958Y-122852848D01*
X149758833Y-122699330D01*
X149745737Y-122615184D01*
X149700713Y-122465848D01*
X149625793Y-122332788D01*
X149515103Y-122204064D01*
X149449617Y-122143082D01*
X149320471Y-122051431D01*
X149180891Y-121992452D01*
X149018808Y-121960213D01*
X148873211Y-121959366D01*
X148710129Y-121994361D01*
X148554617Y-122063402D01*
X148413838Y-122162323D01*
X148294955Y-122286962D01*
X148205131Y-122433155D01*
X148189081Y-122468710D01*
X148167577Y-122527398D01*
X148155102Y-122587602D01*
X148149325Y-122662912D01*
X148147917Y-122766917D01*
X147934490Y-122766917D01*
X147944959Y-122599814D01*
X147992936Y-122415587D01*
X148075184Y-122243738D01*
X148190007Y-122089221D01*
X148335708Y-121956993D01*
X148510588Y-121852009D01*
X148560116Y-121828999D01*
X148634347Y-121798875D01*
X148701842Y-121780710D01*
X148778958Y-121770670D01*
X148882049Y-121764922D01*
X148964860Y-121762750D01*
X149061657Y-121765825D01*
X149144937Y-121777849D01*
X149231545Y-121800538D01*
X149248070Y-121805718D01*
X149436043Y-121887790D01*
X149600237Y-122004316D01*
X149738396Y-122153349D01*
X149848264Y-122332942D01*
X149849676Y-122335830D01*
X149881508Y-122402481D01*
X149902959Y-122455611D01*
X149916076Y-122506390D01*
X149922909Y-122565990D01*
X149925506Y-122645580D01*
X149925706Y-122699330D01*
X149925917Y-122756333D01*
X149925917Y-122763824D01*
X149925439Y-122872417D01*
X149922616Y-122950779D01*
X149915328Y-123010345D01*
X149901459Y-123062551D01*
X149878892Y-123118835D01*
X149845508Y-123190631D01*
X149765100Y-123360346D01*
X149837004Y-123518714D01*
X149839852Y-123525012D01*
X149880227Y-123618463D01*
X149918085Y-123712693D01*
X149945572Y-123788208D01*
X149961136Y-123834021D01*
X149978487Y-123881089D01*
X149987252Y-123899333D01*
X149993599Y-123886366D01*
X150009339Y-123842749D01*
X150030194Y-123779021D01*
X150030275Y-123778764D01*
X150059007Y-123697070D01*
X150097810Y-123598627D01*
X150138309Y-123504689D01*
X150208498Y-123350668D01*
X150147537Y-123238115D01*
X150112046Y-123166302D01*
X150048298Y-122976405D01*
X150028625Y-122822063D01*
X150241860Y-122822063D01*
X150272031Y-122989338D01*
X150337672Y-123147198D01*
X150435436Y-123289470D01*
X150561977Y-123409979D01*
X150713949Y-123502550D01*
X150748406Y-123518177D01*
X150834353Y-123550028D01*
X150919634Y-123567341D01*
X151025623Y-123575090D01*
X151094348Y-123575850D01*
X151203104Y-123568844D01*
X151285112Y-123552360D01*
X151428579Y-123489356D01*
X151575676Y-123386783D01*
X151698726Y-123257972D01*
X151789401Y-123110224D01*
X151840100Y-123000795D01*
X151719092Y-122967278D01*
X151666623Y-122951705D01*
X151597845Y-122928193D01*
X151552326Y-122908802D01*
X151541578Y-122902392D01*
X151478647Y-122848736D01*
X151414519Y-122773134D01*
X151360609Y-122690519D01*
X151328333Y-122615821D01*
X151304817Y-122528226D01*
X151212397Y-122567842D01*
X151190851Y-122576764D01*
X151002564Y-122629933D01*
X150809739Y-122642484D01*
X150618391Y-122614581D01*
X150434533Y-122546391D01*
X150368214Y-122516846D01*
X150316447Y-122499950D01*
X150290711Y-122499489D01*
X150280355Y-122522616D01*
X150265635Y-122576859D01*
X150251051Y-122648397D01*
X150250504Y-122651548D01*
X150241860Y-122822063D01*
X150028625Y-122822063D01*
X150023818Y-122784347D01*
X150037042Y-122594801D01*
X150086400Y-122412437D01*
X150117907Y-122348424D01*
X150363776Y-122348424D01*
X150383103Y-122374231D01*
X150430877Y-122410829D01*
X150496044Y-122448821D01*
X150553191Y-122476580D01*
X150606192Y-122496152D01*
X150662442Y-122507099D01*
X150734961Y-122511870D01*
X150836773Y-122512917D01*
X150921775Y-122512219D01*
X151000774Y-122508059D01*
X151061724Y-122497972D01*
X151118116Y-122479518D01*
X151183444Y-122450260D01*
X151251898Y-122420082D01*
X151315207Y-122404770D01*
X151359644Y-122419275D01*
X151394421Y-122467464D01*
X151428750Y-122553202D01*
X151486189Y-122672873D01*
X151567598Y-122770430D01*
X151665549Y-122833438D01*
X151732774Y-122853517D01*
X151801207Y-122862167D01*
X151868106Y-122862167D01*
X151858440Y-122695190D01*
X151839428Y-122560636D01*
X151780669Y-122394859D01*
X151685845Y-122248645D01*
X151557206Y-122125246D01*
X151397000Y-122027915D01*
X151341882Y-122002791D01*
X151282839Y-121981275D01*
X151223463Y-121969147D01*
X151149764Y-121963790D01*
X151047750Y-121962587D01*
X150968589Y-121963201D01*
X150889189Y-121967215D01*
X150828495Y-121977160D01*
X150772972Y-121995522D01*
X150709083Y-122024787D01*
X150701587Y-122028540D01*
X150625481Y-122074218D01*
X150547229Y-122132387D01*
X150474382Y-122195969D01*
X150414490Y-122257887D01*
X150375104Y-122311064D01*
X150363776Y-122348424D01*
X150117907Y-122348424D01*
X150170325Y-122241928D01*
X150287251Y-122087946D01*
X150435610Y-121955162D01*
X150455467Y-121943250D01*
X151528713Y-121943250D01*
X151528992Y-121944133D01*
X151549255Y-121969687D01*
X151593373Y-122011938D01*
X151652334Y-122062214D01*
X151770085Y-122157706D01*
X151827043Y-122108713D01*
X151850541Y-122090724D01*
X151945185Y-122049177D01*
X152051738Y-122039056D01*
X152160601Y-122057818D01*
X152262173Y-122102917D01*
X152346855Y-122171807D01*
X152405046Y-122261945D01*
X152406276Y-122264943D01*
X152429212Y-122359155D01*
X152431852Y-122463161D01*
X152413524Y-122553872D01*
X152401806Y-122593364D01*
X152409317Y-122604422D01*
X152439148Y-122583199D01*
X152493131Y-122529125D01*
X152501341Y-122520292D01*
X152584053Y-122407633D01*
X152630489Y-122285527D01*
X152645162Y-122142500D01*
X152641752Y-122078144D01*
X152607767Y-121935699D01*
X152541802Y-121809274D01*
X152449376Y-121703252D01*
X152336009Y-121622016D01*
X152207217Y-121569948D01*
X152068520Y-121551433D01*
X151925436Y-121570853D01*
X151888203Y-121583051D01*
X151772065Y-121642208D01*
X151666200Y-121724837D01*
X151586637Y-121819187D01*
X151561191Y-121862158D01*
X151536063Y-121913669D01*
X151528713Y-121943250D01*
X150455467Y-121943250D01*
X150613833Y-121848248D01*
X150648158Y-121831916D01*
X150712425Y-121803679D01*
X150767372Y-121786088D01*
X150825912Y-121776633D01*
X150900956Y-121772802D01*
X151005417Y-121772083D01*
X151081653Y-121772885D01*
X151175603Y-121776129D01*
X151250210Y-121781289D01*
X151293981Y-121787740D01*
X151323335Y-121793729D01*
X151352451Y-121783331D01*
X151375590Y-121740922D01*
X151401077Y-121696460D01*
X151463173Y-121623419D01*
X151545844Y-121548026D01*
X151638626Y-121479519D01*
X151731051Y-121427137D01*
X151731560Y-121426900D01*
X151800571Y-121398160D01*
X151865015Y-121381057D01*
X151940487Y-121372754D01*
X152042583Y-121370409D01*
X152058730Y-121370461D01*
X152224045Y-121384938D01*
X152365018Y-121427855D01*
X152491407Y-121503408D01*
X152612967Y-121615796D01*
X152666850Y-121678804D01*
X152753170Y-121816680D01*
X152802570Y-121965846D01*
X152818704Y-122135530D01*
X152818660Y-122142500D01*
X152818584Y-122154673D01*
X152796130Y-122336021D01*
X152735545Y-122499354D01*
X152637544Y-122643246D01*
X152502839Y-122766273D01*
X152482756Y-122780269D01*
X152385919Y-122827589D01*
X152298079Y-122840648D01*
X152224560Y-122823360D01*
X152170686Y-122779640D01*
X152141780Y-122713402D01*
X152143166Y-122628560D01*
X152180167Y-122529028D01*
X152198959Y-122492395D01*
X152218611Y-122437564D01*
X152216035Y-122391293D01*
X152192338Y-122336070D01*
X152149333Y-122282244D01*
X152084171Y-122242699D01*
X152013644Y-122228617D01*
X151951625Y-122245233D01*
X151942028Y-122256500D01*
X151939890Y-122286025D01*
X151951519Y-122338996D01*
X151978084Y-122423266D01*
X151990163Y-122461605D01*
X152029087Y-122665206D01*
X152027502Y-122862167D01*
X152027445Y-122869299D01*
X151999880Y-123000795D01*
X151985731Y-123068298D01*
X151904440Y-123256619D01*
X151892594Y-123278229D01*
X151865203Y-123335963D01*
X151858363Y-123372952D01*
X151869384Y-123400209D01*
X151882386Y-123413738D01*
X151901105Y-123413150D01*
X151928629Y-123387333D01*
X151972363Y-123331332D01*
X152058721Y-123230075D01*
X152204483Y-123107547D01*
X152382451Y-123006624D01*
X152388370Y-123003862D01*
X152468965Y-122969533D01*
X152540991Y-122948176D01*
X152621407Y-122935978D01*
X152727170Y-122929128D01*
X152829865Y-122927887D01*
X153009187Y-122946148D01*
X153168973Y-122993616D01*
X153318486Y-123072536D01*
X153417556Y-123146679D01*
X153523401Y-123246666D01*
X153614211Y-123353644D01*
X153678311Y-123455193D01*
X153720755Y-123540980D01*
X153754651Y-123386782D01*
X153779517Y-123266489D01*
X153807350Y-123117631D01*
X153834043Y-122961911D01*
X153857625Y-122811385D01*
X153876123Y-122678108D01*
X153887567Y-122574135D01*
X153891779Y-122522981D01*
X153894337Y-122465262D01*
X153888991Y-122433770D01*
X153873103Y-122418525D01*
X153844032Y-122409547D01*
X153782083Y-122388439D01*
X153664932Y-122321560D01*
X153551706Y-122225083D01*
X153450732Y-122106662D01*
X153370334Y-121973955D01*
X153347551Y-121924627D01*
X153329216Y-121871653D01*
X153318700Y-121813677D01*
X153313901Y-121738266D01*
X153312718Y-121632983D01*
X153312710Y-121618954D01*
X153705022Y-121618954D01*
X153720050Y-121742792D01*
X153767909Y-121858343D01*
X153847611Y-121958368D01*
X153958167Y-122035629D01*
X153958229Y-122035660D01*
X154089817Y-122080308D01*
X154223124Y-122085210D01*
X154350922Y-122051172D01*
X154465980Y-121978999D01*
X154551108Y-121885595D01*
X154611245Y-121767231D01*
X154634847Y-121640466D01*
X154621724Y-121512410D01*
X154571687Y-121390171D01*
X154484548Y-121280858D01*
X154461248Y-121260684D01*
X154369425Y-121203253D01*
X154265958Y-121162902D01*
X154169833Y-121147667D01*
X154141738Y-121149244D01*
X154041280Y-121173189D01*
X153939412Y-121219739D01*
X153855119Y-121280858D01*
X153777412Y-121375365D01*
X153723813Y-121494066D01*
X153705022Y-121618954D01*
X153312710Y-121618954D01*
X153312583Y-121409216D01*
X153122083Y-121328561D01*
X152847547Y-121218684D01*
X152314572Y-121039241D01*
X151763167Y-120896209D01*
X151196685Y-120790398D01*
X150618482Y-120722622D01*
X150597292Y-120720955D01*
X150451456Y-120713076D01*
X150276826Y-120708456D01*
X150082289Y-120706927D01*
X149876729Y-120708322D01*
X149669033Y-120712471D01*
X149468085Y-120719209D01*
X149282770Y-120728366D01*
X149121974Y-120739776D01*
X148994583Y-120753271D01*
X148445546Y-120842836D01*
X147904875Y-120965154D01*
X147381171Y-121119982D01*
X146867333Y-121309176D01*
X146623917Y-121407727D01*
X146623917Y-121624844D01*
X146623917Y-121632238D01*
X146622939Y-121735439D01*
X146618479Y-121810642D01*
X146608301Y-121868656D01*
X146590171Y-121922139D01*
X146561854Y-121983750D01*
X146505181Y-122079580D01*
X146404268Y-122201402D01*
X146285907Y-122304235D01*
X146161773Y-122376614D01*
X146127150Y-122392106D01*
X146074318Y-122421096D01*
X146049105Y-122448214D01*
X146042737Y-122481167D01*
X145685506Y-122481167D01*
X145684970Y-122479201D01*
X145664224Y-122451369D01*
X145630917Y-122434777D01*
X145580207Y-122420747D01*
X145525840Y-122403716D01*
X145387839Y-122333585D01*
X145259193Y-122231466D01*
X145148231Y-122104767D01*
X145063280Y-121960897D01*
X145049918Y-121930139D01*
X145032263Y-121876270D01*
X145021706Y-121815035D01*
X145016588Y-121734797D01*
X145015250Y-121623917D01*
X145015259Y-121622318D01*
X145369631Y-121622318D01*
X145387355Y-121756945D01*
X145391093Y-121769152D01*
X145439269Y-121864327D01*
X145513938Y-121955112D01*
X145603171Y-122029202D01*
X145695039Y-122074294D01*
X145703483Y-122076754D01*
X145821482Y-122097931D01*
X145929118Y-122086853D01*
X146043199Y-122041958D01*
X146067361Y-122028946D01*
X146173697Y-121947858D01*
X146247335Y-121849412D01*
X146289733Y-121739708D01*
X146302349Y-121624844D01*
X146286643Y-121510919D01*
X146244074Y-121404032D01*
X146176100Y-121310281D01*
X146084180Y-121235765D01*
X145969774Y-121186582D01*
X145834339Y-121168833D01*
X145756507Y-121175092D01*
X145630904Y-121214455D01*
X145524863Y-121284848D01*
X145442936Y-121380281D01*
X145389675Y-121494768D01*
X145369631Y-121622318D01*
X145015259Y-121622318D01*
X145015618Y-121558346D01*
X145018833Y-121465786D01*
X145026743Y-121397456D01*
X145041005Y-121341719D01*
X145063280Y-121286936D01*
X145132068Y-121163431D01*
X145251486Y-121021473D01*
X145400260Y-120909936D01*
X145577922Y-120829236D01*
X145735370Y-120793810D01*
X145911587Y-120791805D01*
X146084466Y-120826262D01*
X146245582Y-120895426D01*
X146386511Y-120997545D01*
X146480358Y-121084050D01*
X146705881Y-120989564D01*
X146907752Y-120908123D01*
X147463828Y-120714674D01*
X148033101Y-120560280D01*
X148612532Y-120445264D01*
X149199085Y-120369951D01*
X149789721Y-120334664D01*
X150381403Y-120339728D01*
X150971092Y-120385467D01*
X151555750Y-120472206D01*
X151573386Y-120475489D01*
X151913604Y-120547990D01*
X152269802Y-120639723D01*
X152627414Y-120746360D01*
X152971872Y-120863574D01*
X153288607Y-120987035D01*
X153518631Y-121083626D01*
X153623006Y-120989784D01*
X153624700Y-120988266D01*
X153767578Y-120887010D01*
X153924464Y-120821871D01*
X154089572Y-120791598D01*
X154257119Y-120794941D01*
X154421319Y-120830650D01*
X154576389Y-120897473D01*
X154716544Y-120994161D01*
X154836000Y-121119462D01*
X154928973Y-121272126D01*
X154952042Y-121324824D01*
X154969229Y-121378483D01*
X154979131Y-121438153D01*
X154983665Y-121515931D01*
X154984750Y-121623917D01*
X154984738Y-121640466D01*
X154984737Y-121641985D01*
G36*
X154984737Y-121641985D02*
G01*
X154983501Y-121742784D01*
X154978763Y-121815197D01*
X154968421Y-121871359D01*
X154950376Y-121923408D01*
X154922528Y-121983480D01*
X154888865Y-122043091D01*
X154825170Y-122134561D01*
X154758694Y-122211822D01*
X154738973Y-122230408D01*
X154665209Y-122288475D01*
X154578686Y-122344704D01*
X154490693Y-122392740D01*
X154412517Y-122426228D01*
X154355445Y-122438816D01*
X154337573Y-122441987D01*
X154320973Y-122458540D01*
X154318685Y-122465262D01*
X154308297Y-122495786D01*
X154297291Y-122560906D01*
X154285701Y-122661083D01*
X154265591Y-122824233D01*
X154218115Y-123114609D01*
X154154613Y-123425321D01*
X154110275Y-123609618D01*
X154077509Y-123745816D01*
X154024256Y-123938678D01*
X153989227Y-124065543D01*
X153892191Y-124373950D01*
X153891660Y-124375530D01*
X153852145Y-124496409D01*
X153818767Y-124604847D01*
X153793479Y-124693963D01*
X153778236Y-124756874D01*
X153774992Y-124786700D01*
X153778206Y-124796656D01*
X153794180Y-124844138D01*
X153818661Y-124915674D01*
X153847805Y-125000000D01*
X153893065Y-125141226D01*
X153937519Y-125319979D01*
X153966870Y-125503041D01*
X153982967Y-125702722D01*
X153987224Y-125910167D01*
X153987658Y-125931333D01*
X153983058Y-126152896D01*
X153969159Y-126345101D01*
X153945861Y-126497957D01*
X153913052Y-126612473D01*
X153892505Y-126647213D01*
X153849865Y-126683502D01*
X153781986Y-126717338D01*
X153683294Y-126751410D01*
X153548215Y-126788404D01*
X153466014Y-126808384D01*
X153452854Y-126810931D01*
X153234367Y-126853218D01*
X153010788Y-126876981D01*
X152775313Y-126882093D01*
X152534377Y-126878785D01*
X152356374Y-127093832D01*
X152133399Y-127349601D01*
X151863951Y-127630949D01*
X151577840Y-127904540D01*
X151286032Y-128159928D01*
X150999492Y-128386667D01*
X150951333Y-128422752D01*
X150877832Y-128479626D01*
X150831153Y-128520158D01*
X150806164Y-128549810D01*
X150797734Y-128574047D01*
X150800734Y-128598333D01*
X150804331Y-128618816D01*
X150809676Y-128681092D01*
X150813261Y-128766526D01*
X150814298Y-128850199D01*
X150814455Y-128862917D01*
X150813816Y-128933436D01*
X150809897Y-129016123D01*
X150800277Y-129078685D01*
X150782531Y-129134587D01*
X150754234Y-129197296D01*
X150725158Y-129251155D01*
X150619431Y-129391996D01*
X150485608Y-129510928D01*
X150332363Y-129601160D01*
X150168375Y-129655900D01*
X150005036Y-129672143D01*
X149831279Y-129652192D01*
X149665723Y-129596816D01*
X149514362Y-129509531D01*
X149383190Y-129393852D01*
X149278204Y-129253291D01*
X149205399Y-129091365D01*
X149191309Y-129024767D01*
X149181855Y-128930995D01*
X149179285Y-128860191D01*
X149536316Y-128860191D01*
X149554529Y-128974941D01*
X149602516Y-129083367D01*
X149681713Y-129179366D01*
X149793557Y-129256834D01*
X149920664Y-129301606D01*
X150052194Y-129306950D01*
X150179398Y-129271486D01*
X150297338Y-129195812D01*
X150307941Y-129186493D01*
X150395050Y-129083460D01*
X150446547Y-128969292D01*
X150464695Y-128850199D01*
X150451758Y-128732390D01*
X150409998Y-128622076D01*
X150341679Y-128525467D01*
X150249065Y-128448771D01*
X150134417Y-128398200D01*
X150000000Y-128379963D01*
X149971804Y-128380694D01*
X149841554Y-128405210D01*
X149732456Y-128460025D01*
X149645946Y-128539034D01*
X149583461Y-128636134D01*
X149546439Y-128745221D01*
X149536316Y-128860191D01*
X149179285Y-128860191D01*
X149178047Y-128826091D01*
X149179987Y-128723313D01*
X149187775Y-128635919D01*
X149201510Y-128577167D01*
X149201766Y-128576499D01*
X149194672Y-128552518D01*
X149159559Y-128513523D01*
X149093810Y-128457024D01*
X148994808Y-128380531D01*
X148924496Y-128327077D01*
X148587411Y-128050752D01*
X148254035Y-127745631D01*
X147935187Y-127422032D01*
X147641685Y-127090271D01*
X147465433Y-126878935D01*
X147214008Y-126881775D01*
X147131219Y-126881427D01*
X146956941Y-126873095D01*
X146783685Y-126855590D01*
X146617353Y-126830229D01*
X146537599Y-126813658D01*
X147906766Y-126813658D01*
X147908042Y-126818505D01*
X147928760Y-126848372D01*
X147969069Y-126898863D01*
X148023183Y-126962577D01*
X148198706Y-127157752D01*
X148517604Y-127483695D01*
X148848065Y-127787645D01*
X149179867Y-128059903D01*
X149411908Y-128238434D01*
X149492605Y-128174521D01*
X149562450Y-128124080D01*
X149680160Y-128063076D01*
X149811077Y-128026789D01*
X149968250Y-128010727D01*
X150037976Y-128008658D01*
X150129677Y-128011323D01*
X150205792Y-128023190D01*
X150282717Y-128046106D01*
X150333506Y-128066373D01*
X150427422Y-128112759D01*
X150507663Y-128162153D01*
X150608642Y-128234700D01*
X150838779Y-128056008D01*
X151083667Y-127856869D01*
X151361098Y-127611496D01*
X151628751Y-127354812D01*
X151871904Y-127100435D01*
X152134993Y-126810931D01*
X151963833Y-126755317D01*
X151902200Y-126734266D01*
X151822804Y-126699919D01*
X151771002Y-126662025D01*
X151737946Y-126613140D01*
X151714786Y-126545821D01*
X151707606Y-126516228D01*
X151688192Y-126406586D01*
X151671965Y-126272592D01*
X151660102Y-126127613D01*
X151653781Y-125985016D01*
X151654160Y-125864467D01*
X151832189Y-125864467D01*
X151834700Y-126072968D01*
X151851031Y-126277805D01*
X151880232Y-126460500D01*
X151883159Y-126472830D01*
X151896709Y-126506244D01*
X151921459Y-126533214D01*
X151963498Y-126556547D01*
X152028917Y-126579046D01*
X152123804Y-126603517D01*
X152254250Y-126632765D01*
X152349139Y-126650072D01*
X152520587Y-126670341D01*
X152708112Y-126682057D01*
X152897428Y-126684794D01*
X153074246Y-126678127D01*
X153224279Y-126661632D01*
X153330666Y-126642454D01*
X153450730Y-126617026D01*
X153560591Y-126590102D01*
X153649696Y-126564289D01*
X153707494Y-126542196D01*
X153727398Y-126520795D01*
X153751327Y-126458210D01*
X153770830Y-126361301D01*
X153785267Y-126234622D01*
X153793998Y-126082726D01*
X153796382Y-125910167D01*
X153795611Y-125848789D01*
X153783982Y-125629093D01*
X153756545Y-125426351D01*
X153710575Y-125228113D01*
X153643342Y-125021934D01*
X153552121Y-124795363D01*
X153468249Y-124601310D01*
X153349270Y-124684656D01*
X153185436Y-124775516D01*
X153004758Y-124831538D01*
X152817210Y-124850508D01*
X152629623Y-124832422D01*
X152448830Y-124777278D01*
X152281661Y-124685074D01*
X152163279Y-124602147D01*
X152098929Y-124742865D01*
X152069531Y-124808479D01*
X151981127Y-125030337D01*
X151916517Y-125242437D01*
X151871342Y-125461003D01*
X151841245Y-125702261D01*
X151832189Y-125864467D01*
X151654160Y-125864467D01*
X151654180Y-125858166D01*
X151654805Y-125840745D01*
X151657316Y-125752881D01*
X151656351Y-125698778D01*
X151650574Y-125671068D01*
X151638652Y-125662384D01*
X151619250Y-125665360D01*
X151580599Y-125672497D01*
X151520050Y-125677044D01*
X151463183Y-125677333D01*
X151456550Y-126201208D01*
X151454348Y-126359788D01*
X151451837Y-126488274D01*
X151448610Y-126585757D01*
X151444170Y-126658006D01*
X151438026Y-126710788D01*
X151429682Y-126749873D01*
X151418644Y-126781030D01*
X151404420Y-126810027D01*
X151384552Y-126844505D01*
X151284010Y-126967593D01*
X151153861Y-127060586D01*
X151140724Y-127067436D01*
X151119593Y-127076857D01*
X151094737Y-127084658D01*
X151062293Y-127091022D01*
X151018403Y-127096132D01*
X150959204Y-127100171D01*
X150880837Y-127103322D01*
X150779441Y-127105768D01*
X150651154Y-127107692D01*
X150492117Y-127109278D01*
X150298468Y-127110708D01*
X150066347Y-127112166D01*
X149974195Y-127112714D01*
X149738739Y-127113864D01*
X149540467Y-127114120D01*
X149375566Y-127113113D01*
X149240225Y-127110477D01*
X149130633Y-127105843D01*
X149042978Y-127098844D01*
X148973450Y-127089112D01*
X148918237Y-127076280D01*
X148873528Y-127059981D01*
X148835512Y-127039847D01*
X148800376Y-127015509D01*
X148764311Y-126986602D01*
X148736155Y-126959963D01*
X148677721Y-126887889D01*
X148632226Y-126811250D01*
X148630809Y-126808200D01*
X148615311Y-126772841D01*
X148603511Y-126738209D01*
X148594903Y-126698153D01*
X148588982Y-126646521D01*
X148585241Y-126577162D01*
X148583175Y-126483925D01*
X148582277Y-126360657D01*
X148582040Y-126201208D01*
X148581718Y-126106641D01*
X148580242Y-125975137D01*
X148577742Y-125862650D01*
X148574404Y-125775008D01*
X148570414Y-125718041D01*
X148565958Y-125697578D01*
X148559631Y-125696865D01*
X148519991Y-125690361D01*
X148461624Y-125679528D01*
X148373165Y-125662399D01*
X148372508Y-125950324D01*
X148370415Y-126065251D01*
X148370241Y-126074845D01*
X148360353Y-126243356D01*
X148343458Y-126392479D01*
X148320455Y-126516512D01*
X148292240Y-126609753D01*
X148259713Y-126666501D01*
X148258836Y-126667415D01*
X148215150Y-126697814D01*
X148145624Y-126731446D01*
X148064896Y-126761197D01*
X148053780Y-126764677D01*
X147982153Y-126787536D01*
X147929580Y-126805047D01*
X147906766Y-126813658D01*
X146537599Y-126813658D01*
X146463847Y-126798334D01*
X146329067Y-126761224D01*
X146218916Y-126720219D01*
X146139295Y-126676638D01*
X146096105Y-126631800D01*
X146071321Y-126566725D01*
X146045797Y-126450952D01*
X146027018Y-126301597D01*
X146015535Y-126123312D01*
X146011899Y-125920750D01*
X146012009Y-125901091D01*
X146193801Y-125901091D01*
X146194408Y-125999156D01*
X146202084Y-126105937D01*
X146217155Y-126237887D01*
X146217291Y-126238968D01*
X146235002Y-126366089D01*
X146251625Y-126455309D01*
X146268154Y-126510977D01*
X146285584Y-126537444D01*
X146291096Y-126540913D01*
X146338781Y-126560241D01*
X146416497Y-126583704D01*
X146514640Y-126608953D01*
X146623605Y-126633639D01*
X146733787Y-126655414D01*
X146835583Y-126671929D01*
X146979215Y-126686038D01*
X147209959Y-126690164D01*
X147452326Y-126675722D01*
X147691195Y-126643789D01*
X147911446Y-126595437D01*
X147953882Y-126583800D01*
X148029865Y-126560376D01*
X148077223Y-126536074D01*
X148104510Y-126502247D01*
X148120283Y-126450247D01*
X148133099Y-126371427D01*
X148164695Y-126065251D01*
X148163788Y-125752813D01*
X148126084Y-125448386D01*
X148050617Y-125144401D01*
X147936417Y-124833289D01*
X147838366Y-124600995D01*
X147719162Y-124684498D01*
X147703212Y-124695381D01*
X147544281Y-124779039D01*
X147369470Y-124832819D01*
X147194126Y-124851833D01*
X147059711Y-124851833D01*
X147091206Y-124941098D01*
X147099856Y-124964002D01*
X147135906Y-125045075D01*
X147176300Y-125121823D01*
X147179905Y-125128062D01*
X147216692Y-125214530D01*
X147216886Y-125280353D01*
X147180480Y-125325221D01*
X147175576Y-125327912D01*
X147121511Y-125333181D01*
X147045398Y-125312702D01*
X146953770Y-125270663D01*
X146853157Y-125211249D01*
X146750091Y-125138647D01*
X146651104Y-125057045D01*
X146562727Y-124970628D01*
X146491491Y-124883583D01*
X146446808Y-124820083D01*
X146390156Y-124947083D01*
X146378576Y-124974002D01*
X146322856Y-125131548D01*
X146273720Y-125316495D01*
X146234103Y-125516476D01*
X146206940Y-125719124D01*
X146199941Y-125795288D01*
X146193801Y-125901091D01*
X146012009Y-125901091D01*
X146012160Y-125874270D01*
X146018099Y-125677901D01*
X146033556Y-125505226D01*
X146060891Y-125341320D01*
X146102464Y-125171261D01*
X146160635Y-124980125D01*
X146235394Y-124750425D01*
X146117760Y-124404254D01*
X146028616Y-124125034D01*
X146019318Y-124092115D01*
X146346386Y-124092115D01*
X146360421Y-124254212D01*
X146394599Y-124419750D01*
X146445865Y-124570433D01*
X146450301Y-124580545D01*
X146514541Y-124699212D01*
X146599862Y-124822633D01*
X146694916Y-124935791D01*
X146788353Y-125023667D01*
X146845256Y-125065416D01*
X146913682Y-125110334D01*
X146982139Y-125151278D01*
X147041875Y-125183281D01*
X147084135Y-125201376D01*
X147100167Y-125200596D01*
X147099080Y-125195727D01*
X147085140Y-125161817D01*
X147060275Y-125110282D01*
X147053880Y-125097028D01*
X147025999Y-125031010D01*
X146993097Y-124944217D01*
X146961005Y-124851833D01*
X146954635Y-124832432D01*
X146937609Y-124777877D01*
X146924528Y-124727592D01*
X146914757Y-124674920D01*
X146907659Y-124613203D01*
X146902599Y-124535785D01*
X146898941Y-124436008D01*
X146896049Y-124307216D01*
X146893287Y-124142750D01*
X146891885Y-124053810D01*
X146972877Y-124053810D01*
X146973428Y-124180839D01*
X146976006Y-124305436D01*
X146980633Y-124419991D01*
X146987326Y-124516888D01*
X146996107Y-124588517D01*
X146996537Y-124590980D01*
X147010606Y-124662405D01*
X147025496Y-124702815D01*
X147047627Y-124722844D01*
X147083420Y-124733125D01*
X147178749Y-124742326D01*
X147320800Y-124729655D01*
X147465962Y-124691081D01*
X147599544Y-124629553D01*
X147719344Y-124541886D01*
X147744126Y-124514535D01*
X148019018Y-124514535D01*
X148088441Y-124656726D01*
X148109680Y-124702073D01*
X148170121Y-124848593D01*
X148228095Y-125011674D01*
X148277544Y-125173476D01*
X148312409Y-125316160D01*
X148324239Y-125370631D01*
X148341199Y-125424099D01*
X148361987Y-125452535D01*
X148392016Y-125466139D01*
X148446577Y-125479243D01*
X148513042Y-125493409D01*
X148581833Y-125506942D01*
X148581833Y-125083457D01*
X148581994Y-124996758D01*
X148583699Y-124855154D01*
X148588261Y-124745582D01*
X148592933Y-124699926D01*
X148931083Y-124699926D01*
X148931083Y-126675907D01*
X148981053Y-126716370D01*
X148982692Y-126717681D01*
X148996464Y-126726990D01*
X149014582Y-126734697D01*
X149040844Y-126740952D01*
X149079050Y-126745906D01*
X149132998Y-126749710D01*
X149206487Y-126752515D01*
X149303315Y-126754472D01*
X149427282Y-126755731D01*
X149582186Y-126756444D01*
X149771826Y-126756761D01*
X150000000Y-126756833D01*
X150031404Y-126756832D01*
X150254448Y-126756737D01*
X150439442Y-126756378D01*
X150590186Y-126755604D01*
X150710477Y-126754264D01*
X150804115Y-126752208D01*
X150874898Y-126749283D01*
X150926625Y-126745341D01*
X150963094Y-126740229D01*
X150988105Y-126733797D01*
X151005457Y-126725895D01*
X151018947Y-126716370D01*
X151068917Y-126675907D01*
X151068917Y-124699926D01*
X151018947Y-124659463D01*
X151017308Y-124658152D01*
X151003536Y-124648843D01*
X150985419Y-124641136D01*
X150959156Y-124634881D01*
X150920951Y-124629927D01*
X150867003Y-124626123D01*
X150793514Y-124623318D01*
X150696685Y-124621361D01*
X150572718Y-124620102D01*
X150417814Y-124619389D01*
X150228174Y-124619072D01*
X150000000Y-124619000D01*
X149968596Y-124619001D01*
X149745552Y-124619096D01*
X149560558Y-124619455D01*
X149409815Y-124620229D01*
X149289524Y-124621569D01*
X149195886Y-124623625D01*
X149125103Y-124626550D01*
X149073376Y-124630492D01*
X149036906Y-124635604D01*
X149011895Y-124642036D01*
X148994544Y-124649938D01*
X148981053Y-124659463D01*
X148931083Y-124699926D01*
X148592933Y-124699926D01*
X148596893Y-124661227D01*
X148610806Y-124595274D01*
X148631213Y-124540909D01*
X148659327Y-124491316D01*
X148696360Y-124439680D01*
X148725548Y-124408556D01*
X148788396Y-124357454D01*
X148859747Y-124311649D01*
X148973417Y-124248800D01*
X149433792Y-124241327D01*
X149491608Y-124240288D01*
X149620327Y-124237203D01*
X149731018Y-124233479D01*
X149817606Y-124229384D01*
X149874014Y-124225184D01*
X149894167Y-124221144D01*
X149893842Y-124219201D01*
X150127000Y-124219201D01*
X150127134Y-124221144D01*
X150127542Y-124227097D01*
X150133322Y-124238421D01*
X150149773Y-124246722D01*
X150182173Y-124252471D01*
X150235797Y-124256139D01*
X150315924Y-124258198D01*
X150427830Y-124259119D01*
X150576792Y-124259373D01*
X150664794Y-124259469D01*
X150794392Y-124260145D01*
X150891983Y-124261982D01*
X150964213Y-124265582D01*
X151017726Y-124271543D01*
X151059168Y-124280469D01*
X151095183Y-124292958D01*
X151132417Y-124309613D01*
X151225114Y-124362965D01*
X151322468Y-124454638D01*
X151395288Y-124576667D01*
X151406948Y-124604422D01*
X151418987Y-124642751D01*
X151427558Y-124688921D01*
X151428586Y-124699926D01*
X151433246Y-124749828D01*
X151436637Y-124832371D01*
X151438316Y-124943449D01*
X151438869Y-125089958D01*
X151439237Y-125192011D01*
X151440888Y-125316975D01*
X151444095Y-125406597D01*
X151449132Y-125465110D01*
X151456273Y-125496745D01*
X151465792Y-125505733D01*
X151474549Y-125504633D01*
X151520456Y-125496350D01*
X151582113Y-125483340D01*
X151631410Y-125469459D01*
X151667815Y-125445560D01*
X151684448Y-125406231D01*
X151689616Y-125382891D01*
X151764135Y-125094190D01*
X151850948Y-124837229D01*
X151948450Y-124616811D01*
X151990851Y-124533699D01*
X151871516Y-124288275D01*
X151856541Y-124256504D01*
X152070367Y-124256504D01*
X152109392Y-124325907D01*
X152124790Y-124351750D01*
X152225852Y-124477522D01*
X152293222Y-124533699D01*
X152356083Y-124586117D01*
X152505158Y-124670142D01*
X152662750Y-124722200D01*
X152698569Y-124729369D01*
X152808520Y-124742791D01*
X152910195Y-124737235D01*
X153026320Y-124712068D01*
X153178684Y-124654478D01*
X153331416Y-124555484D01*
X153460355Y-124423032D01*
X153562470Y-124259679D01*
X153573780Y-124236429D01*
X153603607Y-124167493D01*
X153620606Y-124105918D01*
X153628259Y-124035160D01*
X153630050Y-123938678D01*
X153629842Y-123903579D01*
X153627655Y-123825118D01*
X153623590Y-123768078D01*
X153618276Y-123742914D01*
X153605382Y-123742471D01*
X153559054Y-123752036D01*
X153488028Y-123771536D01*
X153401317Y-123798654D01*
X153196167Y-123866229D01*
X153196167Y-123923961D01*
X153196167Y-123939598D01*
X153195571Y-123960422D01*
X153170966Y-124070056D01*
X153115581Y-124161627D01*
X153036743Y-124232423D01*
X152941774Y-124279732D01*
X152837999Y-124300845D01*
X152732743Y-124293048D01*
X152633330Y-124253631D01*
X152547085Y-124179882D01*
X152501253Y-124125386D01*
X152436498Y-124179874D01*
X152354228Y-124234016D01*
X152247969Y-124269818D01*
X152145054Y-124270516D01*
X152070367Y-124256504D01*
X151856541Y-124256504D01*
X151818186Y-124175128D01*
X151774664Y-124069926D01*
X151749500Y-123985101D01*
X151741752Y-123918787D01*
X151947333Y-123918787D01*
X151949910Y-123961632D01*
X151969515Y-124019288D01*
X152016125Y-124078055D01*
X152098536Y-124141466D01*
X152186263Y-124164037D01*
X152277212Y-124144667D01*
X152288656Y-124139343D01*
X152367783Y-124081170D01*
X152417787Y-124004283D01*
X152431681Y-123939999D01*
X152559746Y-123939999D01*
X152584392Y-124032389D01*
X152639989Y-124111347D01*
X152722791Y-124166481D01*
X152751341Y-124177958D01*
X152807356Y-124192958D01*
X152856291Y-124186788D01*
X152919496Y-124158592D01*
X152998944Y-124103422D01*
X153055095Y-124022467D01*
X153073037Y-123923961D01*
X153068550Y-123877437D01*
X153035187Y-123790340D01*
X152976301Y-123724846D01*
X152900199Y-123683130D01*
X152815191Y-123667365D01*
X152729583Y-123679725D01*
X152651684Y-123722384D01*
X152589802Y-123797516D01*
X152569797Y-123844571D01*
X152562063Y-123917997D01*
X152559746Y-123939999D01*
X152431681Y-123939999D01*
X152436436Y-123917997D01*
X152421496Y-123831628D01*
X152370736Y-123754492D01*
X152301025Y-123701367D01*
X152207745Y-123673673D01*
X152106513Y-123687525D01*
X152097700Y-123690623D01*
X152017519Y-123741495D01*
X151965719Y-123819987D01*
X151947333Y-123918787D01*
X151741752Y-123918787D01*
X151740961Y-123912021D01*
X151747316Y-123842052D01*
X151766831Y-123766562D01*
X151767771Y-123763570D01*
X151786983Y-123697738D01*
X151792067Y-123653553D01*
X151782108Y-123613075D01*
X151756188Y-123558367D01*
X151749268Y-123544792D01*
X152096030Y-123544792D01*
X152100586Y-123549681D01*
X152134977Y-123557558D01*
X152192142Y-123560667D01*
X152196934Y-123560681D01*
X152287735Y-123569937D01*
X152362520Y-123601371D01*
X152439458Y-123662463D01*
X152497667Y-123716753D01*
X152555875Y-123661223D01*
X152573847Y-123645193D01*
X152674764Y-123585668D01*
X152786981Y-123560285D01*
X152900879Y-123568624D01*
X153006840Y-123610265D01*
X153095247Y-123684788D01*
X153107746Y-123698834D01*
X153148782Y-123735340D01*
X153178925Y-123748836D01*
X153204145Y-123745137D01*
X153267527Y-123729540D01*
X153343135Y-123705933D01*
X153420377Y-123678228D01*
X153488662Y-123650333D01*
X153537401Y-123626160D01*
X153556000Y-123609618D01*
X153555205Y-123598949D01*
X153531499Y-123537296D01*
X153480189Y-123462901D01*
X153408491Y-123383170D01*
X153323624Y-123305510D01*
X153232805Y-123237329D01*
X153143250Y-123186032D01*
X153116113Y-123173661D01*
X153052901Y-123149158D01*
X152991459Y-123134941D01*
X152917107Y-123128355D01*
X152815167Y-123126750D01*
X152776674Y-123126903D01*
X152685423Y-123129936D01*
X152617002Y-123138841D01*
X152556879Y-123156211D01*
X152490523Y-123184635D01*
X152432776Y-123213873D01*
X152356587Y-123258202D01*
X152300023Y-123297656D01*
X152292827Y-123303757D01*
X152245236Y-123349907D01*
X152193202Y-123407453D01*
X152145284Y-123466029D01*
X152110041Y-123515264D01*
X152096030Y-123544792D01*
X151749268Y-123544792D01*
X151739922Y-123526458D01*
X151715270Y-123479626D01*
X151702705Y-123457987D01*
X151698603Y-123457908D01*
X151670008Y-123473103D01*
X151625039Y-123504770D01*
X151586454Y-123531927D01*
X151460063Y-123601060D01*
X151319444Y-123655828D01*
X151185117Y-123687697D01*
X151095450Y-123695348D01*
X150925734Y-123685731D01*
X150759496Y-123648017D01*
X150608201Y-123585263D01*
X150483311Y-123500527D01*
X150407975Y-123434381D01*
X150321440Y-123620629D01*
X150308923Y-123648270D01*
X150266694Y-123750400D01*
X150224953Y-123862899D01*
X150186908Y-123975898D01*
X150155763Y-124079527D01*
X150134725Y-124163918D01*
X150127000Y-124219201D01*
X149893842Y-124219201D01*
X149888623Y-124188027D01*
X149869772Y-124120637D01*
X149840718Y-124031335D01*
X149804753Y-123929401D01*
X149765166Y-123824113D01*
X149725248Y-123724749D01*
X149688289Y-123640588D01*
X149591961Y-123434760D01*
X149515522Y-123494813D01*
X149499040Y-123507417D01*
X149433517Y-123552950D01*
X149375583Y-123587483D01*
X149357780Y-123598018D01*
X149349139Y-123607081D01*
X149311634Y-123646419D01*
X149274806Y-123726179D01*
X149253546Y-123774567D01*
X149204469Y-123857328D01*
X149147806Y-123930801D01*
X149107132Y-123973749D01*
X149063317Y-124009917D01*
X149021015Y-124026187D01*
X148965972Y-124030364D01*
X148896995Y-124023819D01*
X148817805Y-123989789D01*
X148794224Y-123970153D01*
X148726389Y-123893565D01*
X148665136Y-123798569D01*
X148621978Y-123702084D01*
X148593434Y-123643457D01*
X148530340Y-123588059D01*
X148516877Y-123580811D01*
X148500474Y-123570593D01*
X148693875Y-123570593D01*
X148710138Y-123637345D01*
X148739805Y-123714531D01*
X148777839Y-123789187D01*
X148819202Y-123848348D01*
X148834430Y-123864647D01*
X148904327Y-123913509D01*
X148973600Y-123920890D01*
X149040666Y-123887470D01*
X149103940Y-123813932D01*
X149161836Y-123700957D01*
X149190837Y-123607081D01*
X149189045Y-123538767D01*
X149155559Y-123498358D01*
X149128239Y-123486481D01*
X149052194Y-123468768D01*
X148963094Y-123461969D01*
X148871891Y-123465352D01*
X148789539Y-123478181D01*
X148726990Y-123499722D01*
X148695198Y-123529239D01*
X148693875Y-123570593D01*
X148500474Y-123570593D01*
X148453406Y-123541273D01*
X148389846Y-123495501D01*
X148314275Y-123436135D01*
X148284821Y-123495457D01*
X148254460Y-123556609D01*
X148234056Y-123599319D01*
X148213235Y-123653892D01*
X148202018Y-123709367D01*
X148198022Y-123779529D01*
X148198862Y-123878167D01*
X148195909Y-123936716D01*
X148188936Y-124075011D01*
X148145427Y-124267179D01*
X148067913Y-124434476D01*
X148019018Y-124514535D01*
X147744126Y-124514535D01*
X147834719Y-124414553D01*
X147923117Y-124266067D01*
X147980994Y-124104198D01*
X148004806Y-123936716D01*
X147991009Y-123771389D01*
X147972593Y-123689541D01*
X147953839Y-123638693D01*
X147928526Y-123618642D01*
X147889318Y-123623838D01*
X147828877Y-123648731D01*
X147799801Y-123660566D01*
X147667511Y-123694217D01*
X147518202Y-123707147D01*
X147368023Y-123698815D01*
X147233126Y-123668680D01*
X147232877Y-123668596D01*
X147137776Y-123639118D01*
X147072672Y-123626580D01*
X147029093Y-123630293D01*
X146998567Y-123649566D01*
X146990550Y-123673639D01*
X146983190Y-123734264D01*
X146977778Y-123822910D01*
X146974333Y-123931962D01*
X146972877Y-124053810D01*
X146891885Y-124053810D01*
X146884948Y-123613583D01*
X146937145Y-123564613D01*
X146986126Y-123530775D01*
X147050334Y-123516558D01*
X147133157Y-123526449D01*
X147242766Y-123560333D01*
X147258884Y-123565930D01*
X147394515Y-123595508D01*
X147538842Y-123601077D01*
X147677020Y-123583129D01*
X147794208Y-123542152D01*
X147884999Y-123495457D01*
X147840795Y-123433378D01*
X147809665Y-123394789D01*
X147723276Y-123312421D01*
X147618792Y-123235156D01*
X147511231Y-123174780D01*
X147502127Y-123170647D01*
X147443733Y-123148504D01*
X147381735Y-123135113D01*
X147303255Y-123128514D01*
X147195417Y-123126750D01*
X147138171Y-123127069D01*
X147050187Y-123130439D01*
X146984115Y-123139365D01*
X146926435Y-123156141D01*
X146863626Y-123183062D01*
X146843622Y-123192731D01*
X146685192Y-123294232D01*
X146556129Y-123425899D01*
X146456896Y-123587000D01*
X146387954Y-123776805D01*
X146349766Y-123994583D01*
X146346386Y-124092115D01*
X146019318Y-124092115D01*
X145942256Y-123819285D01*
X145865226Y-123509566D01*
X145799945Y-123206326D01*
X145748829Y-122920015D01*
X145714300Y-122661083D01*
X145708143Y-122603290D01*
X145697996Y-122526949D01*
X145685506Y-122481167D01*
X146042737Y-122481167D01*
X146046094Y-122512494D01*
X146056608Y-122579910D01*
X146072915Y-122674572D01*
X146093616Y-122789012D01*
X146117315Y-122915767D01*
X146142613Y-123047371D01*
X146168112Y-123176359D01*
X146192416Y-123295265D01*
X146214126Y-123396625D01*
X146231674Y-123465492D01*
X146250395Y-123508981D01*
X146267847Y-123512336D01*
X146285032Y-123476687D01*
X146317793Y-123410158D01*
X146376398Y-123327628D01*
X146451217Y-123241161D01*
X146533083Y-123161328D01*
X146612830Y-123098698D01*
X146779543Y-123008645D01*
X146964825Y-122949830D01*
X147155199Y-122926518D01*
X147344854Y-122937807D01*
X147527978Y-122982795D01*
X147698761Y-123060580D01*
X147851390Y-123170259D01*
X147980053Y-123310931D01*
X147986854Y-123320149D01*
X148032263Y-123379205D01*
X148060867Y-123408444D01*
X148078846Y-123412557D01*
X148092376Y-123396237D01*
X148096055Y-123387678D01*
X148097441Y-123351994D01*
X148080517Y-123298165D01*
X148042887Y-123217528D01*
X148023635Y-123177199D01*
X147958612Y-122985575D01*
X147932952Y-122791462D01*
X147934490Y-122766917D01*
X148147917Y-122766917D01*
X148148236Y-122824162D01*
X148151606Y-122912146D01*
X148160532Y-122978219D01*
X148177308Y-123035899D01*
X148204229Y-123098707D01*
X148241409Y-123167481D01*
X148321977Y-123280989D01*
X148415885Y-123382181D01*
X148510914Y-123456789D01*
X148583028Y-123501357D01*
X148624611Y-123448493D01*
X148624729Y-123448343D01*
X148685094Y-123401978D01*
X148776925Y-123369701D01*
X148891096Y-123353654D01*
X149018483Y-123355981D01*
X149083239Y-123364120D01*
X149154585Y-123378034D01*
X149200842Y-123393003D01*
X149235157Y-123415119D01*
X149280333Y-123457145D01*
X149286679Y-123464989D01*
X149308356Y-123484577D01*
X149333498Y-123481799D01*
X149378281Y-123456557D01*
X149441171Y-123412849D01*
X149556984Y-123299618D01*
X149651345Y-123162321D01*
X149719566Y-123010288D01*
X149756958Y-122852848D01*
X149758833Y-122699330D01*
X149745737Y-122615184D01*
X149700713Y-122465848D01*
X149625793Y-122332788D01*
X149515103Y-122204064D01*
X149449617Y-122143082D01*
X149320471Y-122051431D01*
X149180891Y-121992452D01*
X149018808Y-121960213D01*
X148873211Y-121959366D01*
X148710129Y-121994361D01*
X148554617Y-122063402D01*
X148413838Y-122162323D01*
X148294955Y-122286962D01*
X148205131Y-122433155D01*
X148189081Y-122468710D01*
X148167577Y-122527398D01*
X148155102Y-122587602D01*
X148149325Y-122662912D01*
X148147917Y-122766917D01*
X147934490Y-122766917D01*
X147944959Y-122599814D01*
X147992936Y-122415587D01*
X148075184Y-122243738D01*
X148190007Y-122089221D01*
X148335708Y-121956993D01*
X148510588Y-121852009D01*
X148560116Y-121828999D01*
X148634347Y-121798875D01*
X148701842Y-121780710D01*
X148778958Y-121770670D01*
X148882049Y-121764922D01*
X148964860Y-121762750D01*
X149061657Y-121765825D01*
X149144937Y-121777849D01*
X149231545Y-121800538D01*
X149248070Y-121805718D01*
X149436043Y-121887790D01*
X149600237Y-122004316D01*
X149738396Y-122153349D01*
X149848264Y-122332942D01*
X149849676Y-122335830D01*
X149881508Y-122402481D01*
X149902959Y-122455611D01*
X149916076Y-122506390D01*
X149922909Y-122565990D01*
X149925506Y-122645580D01*
X149925706Y-122699330D01*
X149925917Y-122756333D01*
X149925917Y-122763824D01*
X149925439Y-122872417D01*
X149922616Y-122950779D01*
X149915328Y-123010345D01*
X149901459Y-123062551D01*
X149878892Y-123118835D01*
X149845508Y-123190631D01*
X149765100Y-123360346D01*
X149837004Y-123518714D01*
X149839852Y-123525012D01*
X149880227Y-123618463D01*
X149918085Y-123712693D01*
X149945572Y-123788208D01*
X149961136Y-123834021D01*
X149978487Y-123881089D01*
X149987252Y-123899333D01*
X149993599Y-123886366D01*
X150009339Y-123842749D01*
X150030194Y-123779021D01*
X150030275Y-123778764D01*
X150059007Y-123697070D01*
X150097810Y-123598627D01*
X150138309Y-123504689D01*
X150208498Y-123350668D01*
X150147537Y-123238115D01*
X150112046Y-123166302D01*
X150048298Y-122976405D01*
X150028625Y-122822063D01*
X150241860Y-122822063D01*
X150272031Y-122989338D01*
X150337672Y-123147198D01*
X150435436Y-123289470D01*
X150561977Y-123409979D01*
X150713949Y-123502550D01*
X150748406Y-123518177D01*
X150834353Y-123550028D01*
X150919634Y-123567341D01*
X151025623Y-123575090D01*
X151094348Y-123575850D01*
X151203104Y-123568844D01*
X151285112Y-123552360D01*
X151428579Y-123489356D01*
X151575676Y-123386783D01*
X151698726Y-123257972D01*
X151789401Y-123110224D01*
X151840100Y-123000795D01*
X151719092Y-122967278D01*
X151666623Y-122951705D01*
X151597845Y-122928193D01*
X151552326Y-122908802D01*
X151541578Y-122902392D01*
X151478647Y-122848736D01*
X151414519Y-122773134D01*
X151360609Y-122690519D01*
X151328333Y-122615821D01*
X151304817Y-122528226D01*
X151212397Y-122567842D01*
X151190851Y-122576764D01*
X151002564Y-122629933D01*
X150809739Y-122642484D01*
X150618391Y-122614581D01*
X150434533Y-122546391D01*
X150368214Y-122516846D01*
X150316447Y-122499950D01*
X150290711Y-122499489D01*
X150280355Y-122522616D01*
X150265635Y-122576859D01*
X150251051Y-122648397D01*
X150250504Y-122651548D01*
X150241860Y-122822063D01*
X150028625Y-122822063D01*
X150023818Y-122784347D01*
X150037042Y-122594801D01*
X150086400Y-122412437D01*
X150117907Y-122348424D01*
X150363776Y-122348424D01*
X150383103Y-122374231D01*
X150430877Y-122410829D01*
X150496044Y-122448821D01*
X150553191Y-122476580D01*
X150606192Y-122496152D01*
X150662442Y-122507099D01*
X150734961Y-122511870D01*
X150836773Y-122512917D01*
X150921775Y-122512219D01*
X151000774Y-122508059D01*
X151061724Y-122497972D01*
X151118116Y-122479518D01*
X151183444Y-122450260D01*
X151251898Y-122420082D01*
X151315207Y-122404770D01*
X151359644Y-122419275D01*
X151394421Y-122467464D01*
X151428750Y-122553202D01*
X151486189Y-122672873D01*
X151567598Y-122770430D01*
X151665549Y-122833438D01*
X151732774Y-122853517D01*
X151801207Y-122862167D01*
X151868106Y-122862167D01*
X151858440Y-122695190D01*
X151839428Y-122560636D01*
X151780669Y-122394859D01*
X151685845Y-122248645D01*
X151557206Y-122125246D01*
X151397000Y-122027915D01*
X151341882Y-122002791D01*
X151282839Y-121981275D01*
X151223463Y-121969147D01*
X151149764Y-121963790D01*
X151047750Y-121962587D01*
X150968589Y-121963201D01*
X150889189Y-121967215D01*
X150828495Y-121977160D01*
X150772972Y-121995522D01*
X150709083Y-122024787D01*
X150701587Y-122028540D01*
X150625481Y-122074218D01*
X150547229Y-122132387D01*
X150474382Y-122195969D01*
X150414490Y-122257887D01*
X150375104Y-122311064D01*
X150363776Y-122348424D01*
X150117907Y-122348424D01*
X150170325Y-122241928D01*
X150287251Y-122087946D01*
X150435610Y-121955162D01*
X150455467Y-121943250D01*
X151528713Y-121943250D01*
X151528992Y-121944133D01*
X151549255Y-121969687D01*
X151593373Y-122011938D01*
X151652334Y-122062214D01*
X151770085Y-122157706D01*
X151827043Y-122108713D01*
X151850541Y-122090724D01*
X151945185Y-122049177D01*
X152051738Y-122039056D01*
X152160601Y-122057818D01*
X152262173Y-122102917D01*
X152346855Y-122171807D01*
X152405046Y-122261945D01*
X152406276Y-122264943D01*
X152429212Y-122359155D01*
X152431852Y-122463161D01*
X152413524Y-122553872D01*
X152401806Y-122593364D01*
X152409317Y-122604422D01*
X152439148Y-122583199D01*
X152493131Y-122529125D01*
X152501341Y-122520292D01*
X152584053Y-122407633D01*
X152630489Y-122285527D01*
X152645162Y-122142500D01*
X152641752Y-122078144D01*
X152607767Y-121935699D01*
X152541802Y-121809274D01*
X152449376Y-121703252D01*
X152336009Y-121622016D01*
X152207217Y-121569948D01*
X152068520Y-121551433D01*
X151925436Y-121570853D01*
X151888203Y-121583051D01*
X151772065Y-121642208D01*
X151666200Y-121724837D01*
X151586637Y-121819187D01*
X151561191Y-121862158D01*
X151536063Y-121913669D01*
X151528713Y-121943250D01*
X150455467Y-121943250D01*
X150613833Y-121848248D01*
X150648158Y-121831916D01*
X150712425Y-121803679D01*
X150767372Y-121786088D01*
X150825912Y-121776633D01*
X150900956Y-121772802D01*
X151005417Y-121772083D01*
X151081653Y-121772885D01*
X151175603Y-121776129D01*
X151250210Y-121781289D01*
X151293981Y-121787740D01*
X151323335Y-121793729D01*
X151352451Y-121783331D01*
X151375590Y-121740922D01*
X151401077Y-121696460D01*
X151463173Y-121623419D01*
X151545844Y-121548026D01*
X151638626Y-121479519D01*
X151731051Y-121427137D01*
X151731560Y-121426900D01*
X151800571Y-121398160D01*
X151865015Y-121381057D01*
X151940487Y-121372754D01*
X152042583Y-121370409D01*
X152058730Y-121370461D01*
X152224045Y-121384938D01*
X152365018Y-121427855D01*
X152491407Y-121503408D01*
X152612967Y-121615796D01*
X152666850Y-121678804D01*
X152753170Y-121816680D01*
X152802570Y-121965846D01*
X152818704Y-122135530D01*
X152818660Y-122142500D01*
X152818584Y-122154673D01*
X152796130Y-122336021D01*
X152735545Y-122499354D01*
X152637544Y-122643246D01*
X152502839Y-122766273D01*
X152482756Y-122780269D01*
X152385919Y-122827589D01*
X152298079Y-122840648D01*
X152224560Y-122823360D01*
X152170686Y-122779640D01*
X152141780Y-122713402D01*
X152143166Y-122628560D01*
X152180167Y-122529028D01*
X152198959Y-122492395D01*
X152218611Y-122437564D01*
X152216035Y-122391293D01*
X152192338Y-122336070D01*
X152149333Y-122282244D01*
X152084171Y-122242699D01*
X152013644Y-122228617D01*
X151951625Y-122245233D01*
X151942028Y-122256500D01*
X151939890Y-122286025D01*
X151951519Y-122338996D01*
X151978084Y-122423266D01*
X151990163Y-122461605D01*
X152029087Y-122665206D01*
X152027502Y-122862167D01*
X152027445Y-122869299D01*
X151999880Y-123000795D01*
X151985731Y-123068298D01*
X151904440Y-123256619D01*
X151892594Y-123278229D01*
X151865203Y-123335963D01*
X151858363Y-123372952D01*
X151869384Y-123400209D01*
X151882386Y-123413738D01*
X151901105Y-123413150D01*
X151928629Y-123387333D01*
X151972363Y-123331332D01*
X152058721Y-123230075D01*
X152204483Y-123107547D01*
X152382451Y-123006624D01*
X152388370Y-123003862D01*
X152468965Y-122969533D01*
X152540991Y-122948176D01*
X152621407Y-122935978D01*
X152727170Y-122929128D01*
X152829865Y-122927887D01*
X153009187Y-122946148D01*
X153168973Y-122993616D01*
X153318486Y-123072536D01*
X153417556Y-123146679D01*
X153523401Y-123246666D01*
X153614211Y-123353644D01*
X153678311Y-123455193D01*
X153720755Y-123540980D01*
X153754651Y-123386782D01*
X153779517Y-123266489D01*
X153807350Y-123117631D01*
X153834043Y-122961911D01*
X153857625Y-122811385D01*
X153876123Y-122678108D01*
X153887567Y-122574135D01*
X153891779Y-122522981D01*
X153894337Y-122465262D01*
X153888991Y-122433770D01*
X153873103Y-122418525D01*
X153844032Y-122409547D01*
X153782083Y-122388439D01*
X153664932Y-122321560D01*
X153551706Y-122225083D01*
X153450732Y-122106662D01*
X153370334Y-121973955D01*
X153347551Y-121924627D01*
X153329216Y-121871653D01*
X153318700Y-121813677D01*
X153313901Y-121738266D01*
X153312718Y-121632983D01*
X153312710Y-121618954D01*
X153705022Y-121618954D01*
X153720050Y-121742792D01*
X153767909Y-121858343D01*
X153847611Y-121958368D01*
X153958167Y-122035629D01*
X153958229Y-122035660D01*
X154089817Y-122080308D01*
X154223124Y-122085210D01*
X154350922Y-122051172D01*
X154465980Y-121978999D01*
X154551108Y-121885595D01*
X154611245Y-121767231D01*
X154634847Y-121640466D01*
X154621724Y-121512410D01*
X154571687Y-121390171D01*
X154484548Y-121280858D01*
X154461248Y-121260684D01*
X154369425Y-121203253D01*
X154265958Y-121162902D01*
X154169833Y-121147667D01*
X154141738Y-121149244D01*
X154041280Y-121173189D01*
X153939412Y-121219739D01*
X153855119Y-121280858D01*
X153777412Y-121375365D01*
X153723813Y-121494066D01*
X153705022Y-121618954D01*
X153312710Y-121618954D01*
X153312583Y-121409216D01*
X153122083Y-121328561D01*
X152847547Y-121218684D01*
X152314572Y-121039241D01*
X151763167Y-120896209D01*
X151196685Y-120790398D01*
X150618482Y-120722622D01*
X150597292Y-120720955D01*
X150451456Y-120713076D01*
X150276826Y-120708456D01*
X150082289Y-120706927D01*
X149876729Y-120708322D01*
X149669033Y-120712471D01*
X149468085Y-120719209D01*
X149282770Y-120728366D01*
X149121974Y-120739776D01*
X148994583Y-120753271D01*
X148445546Y-120842836D01*
X147904875Y-120965154D01*
X147381171Y-121119982D01*
X146867333Y-121309176D01*
X146623917Y-121407727D01*
X146623917Y-121624844D01*
X146623917Y-121632238D01*
X146622939Y-121735439D01*
X146618479Y-121810642D01*
X146608301Y-121868656D01*
X146590171Y-121922139D01*
X146561854Y-121983750D01*
X146505181Y-122079580D01*
X146404268Y-122201402D01*
X146285907Y-122304235D01*
X146161773Y-122376614D01*
X146127150Y-122392106D01*
X146074318Y-122421096D01*
X146049105Y-122448214D01*
X146042737Y-122481167D01*
X145685506Y-122481167D01*
X145684970Y-122479201D01*
X145664224Y-122451369D01*
X145630917Y-122434777D01*
X145580207Y-122420747D01*
X145525840Y-122403716D01*
X145387839Y-122333585D01*
X145259193Y-122231466D01*
X145148231Y-122104767D01*
X145063280Y-121960897D01*
X145049918Y-121930139D01*
X145032263Y-121876270D01*
X145021706Y-121815035D01*
X145016588Y-121734797D01*
X145015250Y-121623917D01*
X145015259Y-121622318D01*
X145369631Y-121622318D01*
X145387355Y-121756945D01*
X145391093Y-121769152D01*
X145439269Y-121864327D01*
X145513938Y-121955112D01*
X145603171Y-122029202D01*
X145695039Y-122074294D01*
X145703483Y-122076754D01*
X145821482Y-122097931D01*
X145929118Y-122086853D01*
X146043199Y-122041958D01*
X146067361Y-122028946D01*
X146173697Y-121947858D01*
X146247335Y-121849412D01*
X146289733Y-121739708D01*
X146302349Y-121624844D01*
X146286643Y-121510919D01*
X146244074Y-121404032D01*
X146176100Y-121310281D01*
X146084180Y-121235765D01*
X145969774Y-121186582D01*
X145834339Y-121168833D01*
X145756507Y-121175092D01*
X145630904Y-121214455D01*
X145524863Y-121284848D01*
X145442936Y-121380281D01*
X145389675Y-121494768D01*
X145369631Y-121622318D01*
X145015259Y-121622318D01*
X145015618Y-121558346D01*
X145018833Y-121465786D01*
X145026743Y-121397456D01*
X145041005Y-121341719D01*
X145063280Y-121286936D01*
X145132068Y-121163431D01*
X145251486Y-121021473D01*
X145400260Y-120909936D01*
X145577922Y-120829236D01*
X145735370Y-120793810D01*
X145911587Y-120791805D01*
X146084466Y-120826262D01*
X146245582Y-120895426D01*
X146386511Y-120997545D01*
X146480358Y-121084050D01*
X146705881Y-120989564D01*
X146907752Y-120908123D01*
X147463828Y-120714674D01*
X148033101Y-120560280D01*
X148612532Y-120445264D01*
X149199085Y-120369951D01*
X149789721Y-120334664D01*
X150381403Y-120339728D01*
X150971092Y-120385467D01*
X151555750Y-120472206D01*
X151573386Y-120475489D01*
X151913604Y-120547990D01*
X152269802Y-120639723D01*
X152627414Y-120746360D01*
X152971872Y-120863574D01*
X153288607Y-120987035D01*
X153518631Y-121083626D01*
X153623006Y-120989784D01*
X153624700Y-120988266D01*
X153767578Y-120887010D01*
X153924464Y-120821871D01*
X154089572Y-120791598D01*
X154257119Y-120794941D01*
X154421319Y-120830650D01*
X154576389Y-120897473D01*
X154716544Y-120994161D01*
X154836000Y-121119462D01*
X154928973Y-121272126D01*
X154952042Y-121324824D01*
X154969229Y-121378483D01*
X154979131Y-121438153D01*
X154983665Y-121515931D01*
X154984750Y-121623917D01*
X154984738Y-121640466D01*
X154984737Y-121641985D01*
G37*
X152228238Y-109746758D02*
X152283574Y-109778118D01*
X152317076Y-109845176D01*
X152328333Y-109947272D01*
X152328151Y-109960527D01*
X152310195Y-110061675D01*
X152259541Y-110142940D01*
X152171461Y-110212308D01*
X152167865Y-110214455D01*
X152108059Y-110241192D01*
X152054531Y-110252254D01*
X152016336Y-110243330D01*
X151964657Y-110213723D01*
X151922458Y-110174546D01*
X151905000Y-110137509D01*
X151912950Y-110119125D01*
X151943172Y-110076622D01*
X151988226Y-110023683D01*
X152021188Y-109983652D01*
X152063407Y-109918645D01*
X152085921Y-109864942D01*
X152086753Y-109861105D01*
X152110258Y-109790967D01*
X152146366Y-109754675D01*
X152202725Y-109744333D01*
X152228238Y-109746758D01*
G36*
X152228238Y-109746758D02*
G01*
X152283574Y-109778118D01*
X152317076Y-109845176D01*
X152328333Y-109947272D01*
X152328151Y-109960527D01*
X152310195Y-110061675D01*
X152259541Y-110142940D01*
X152171461Y-110212308D01*
X152167865Y-110214455D01*
X152108059Y-110241192D01*
X152054531Y-110252254D01*
X152016336Y-110243330D01*
X151964657Y-110213723D01*
X151922458Y-110174546D01*
X151905000Y-110137509D01*
X151912950Y-110119125D01*
X151943172Y-110076622D01*
X151988226Y-110023683D01*
X152021188Y-109983652D01*
X152063407Y-109918645D01*
X152085921Y-109864942D01*
X152086753Y-109861105D01*
X152110258Y-109790967D01*
X152146366Y-109754675D01*
X152202725Y-109744333D01*
X152228238Y-109746758D01*
G37*
X148136830Y-110972027D02*
X148160284Y-110978797D01*
X148168257Y-111005103D01*
X148164472Y-111061958D01*
X148161464Y-111114175D01*
X148172345Y-111159864D01*
X148205132Y-111199216D01*
X148257054Y-111234910D01*
X148320505Y-111259459D01*
X148360763Y-111262942D01*
X148405425Y-111248319D01*
X148459865Y-111206868D01*
X148483683Y-111186494D01*
X148524989Y-111154107D01*
X148546823Y-111141333D01*
X148552711Y-111144741D01*
X148578133Y-111172932D01*
X148612820Y-111220330D01*
X148624694Y-111238746D01*
X148657077Y-111314630D01*
X148666030Y-111405538D01*
X148665292Y-111431566D01*
X148646912Y-111522730D01*
X148599757Y-111588353D01*
X148518333Y-111637042D01*
X148517598Y-111637357D01*
X148424671Y-111664472D01*
X148326067Y-111664973D01*
X148208096Y-111638946D01*
X148163704Y-111624444D01*
X148033301Y-111561157D01*
X147938902Y-111478155D01*
X147881519Y-111376555D01*
X147862167Y-111257474D01*
X147862956Y-111224436D01*
X147875866Y-111147439D01*
X147908054Y-111088706D01*
X147913201Y-111082452D01*
X147977717Y-111027942D01*
X148057969Y-110987698D01*
X148134054Y-110972000D01*
X148136830Y-110972027D01*
G36*
X148136830Y-110972027D02*
G01*
X148160284Y-110978797D01*
X148168257Y-111005103D01*
X148164472Y-111061958D01*
X148161464Y-111114175D01*
X148172345Y-111159864D01*
X148205132Y-111199216D01*
X148257054Y-111234910D01*
X148320505Y-111259459D01*
X148360763Y-111262942D01*
X148405425Y-111248319D01*
X148459865Y-111206868D01*
X148483683Y-111186494D01*
X148524989Y-111154107D01*
X148546823Y-111141333D01*
X148552711Y-111144741D01*
X148578133Y-111172932D01*
X148612820Y-111220330D01*
X148624694Y-111238746D01*
X148657077Y-111314630D01*
X148666030Y-111405538D01*
X148665292Y-111431566D01*
X148646912Y-111522730D01*
X148599757Y-111588353D01*
X148518333Y-111637042D01*
X148517598Y-111637357D01*
X148424671Y-111664472D01*
X148326067Y-111664973D01*
X148208096Y-111638946D01*
X148163704Y-111624444D01*
X148033301Y-111561157D01*
X147938902Y-111478155D01*
X147881519Y-111376555D01*
X147862167Y-111257474D01*
X147862956Y-111224436D01*
X147875866Y-111147439D01*
X147908054Y-111088706D01*
X147913201Y-111082452D01*
X147977717Y-111027942D01*
X148057969Y-110987698D01*
X148134054Y-110972000D01*
X148136830Y-110972027D01*
G37*
X154254634Y-110146087D02*
X154463316Y-110526199D01*
X154568416Y-110750053D01*
X154578802Y-110776208D01*
X154721359Y-111135234D01*
X154837292Y-111520354D01*
X154917953Y-111912877D01*
X154965076Y-112320270D01*
X154980397Y-112750000D01*
X154976097Y-112981247D01*
X154943676Y-113401213D01*
X154878099Y-113802793D01*
X154777721Y-114193071D01*
X154640901Y-114579127D01*
X154492550Y-114909000D01*
X154465996Y-114968046D01*
X154381678Y-115130766D01*
X154147772Y-115519419D01*
X153882166Y-115881717D01*
X153586934Y-116216251D01*
X153264152Y-116521612D01*
X152915897Y-116796390D01*
X152544244Y-117039175D01*
X152151269Y-117248558D01*
X151739047Y-117423130D01*
X151309655Y-117561480D01*
X150865168Y-117662200D01*
X150407662Y-117723879D01*
X150389016Y-117725418D01*
X150282290Y-117731126D01*
X150151386Y-117734455D01*
X150011163Y-117735152D01*
X149876480Y-117732962D01*
X149814857Y-117730858D01*
X149388191Y-117698276D01*
X148982349Y-117633579D01*
X148589279Y-117534798D01*
X148200930Y-117399962D01*
X147809250Y-117227100D01*
X147488275Y-117056969D01*
X147107153Y-116813387D01*
X146753180Y-116537569D01*
X146425739Y-116228977D01*
X146124216Y-115887071D01*
X145847994Y-115511313D01*
X145781584Y-115409675D01*
X145559342Y-115021670D01*
X145374992Y-114618401D01*
X145228533Y-114202713D01*
X145119966Y-113777451D01*
X145049291Y-113345459D01*
X145016508Y-112909583D01*
X145021616Y-112472669D01*
X145064616Y-112037560D01*
X145079282Y-111959517D01*
X146110909Y-111959517D01*
X146111232Y-112090150D01*
X146119204Y-112229502D01*
X146134197Y-112364068D01*
X146155584Y-112480342D01*
X146157506Y-112488264D01*
X146184768Y-112573841D01*
X146225130Y-112654146D01*
X146283884Y-112736712D01*
X146366323Y-112829069D01*
X146477739Y-112938747D01*
X146652192Y-113103881D01*
X146640419Y-113233722D01*
X146638234Y-113265985D01*
X146649509Y-113404948D01*
X146697211Y-113523861D01*
X146782405Y-113625662D01*
X146870887Y-113688834D01*
X146995717Y-113734331D01*
X147131190Y-113741343D01*
X147273206Y-113709781D01*
X147417667Y-113639556D01*
X147443784Y-113624026D01*
X147493072Y-113600711D01*
X147548190Y-113585628D01*
X147621304Y-113575980D01*
X147724583Y-113568967D01*
X147771310Y-113565977D01*
X147878727Y-113556202D01*
X147977131Y-113543735D01*
X148049871Y-113530542D01*
X148099641Y-113519365D01*
X148145354Y-113513663D01*
X148172024Y-113521233D01*
X148192477Y-113543216D01*
X148216550Y-113591087D01*
X148234563Y-113652692D01*
X148237721Y-113701630D01*
X148222154Y-113750122D01*
X148181916Y-113811935D01*
X148158238Y-113846062D01*
X148127995Y-113897553D01*
X148116167Y-113929971D01*
X148118646Y-113952492D01*
X148141894Y-114005967D01*
X148192240Y-114069416D01*
X148272897Y-114146528D01*
X148387077Y-114240990D01*
X148598321Y-114407997D01*
X148624113Y-114567884D01*
X148625563Y-114576775D01*
X148640619Y-114660383D01*
X148655662Y-114731094D01*
X148667639Y-114774412D01*
X148674576Y-114808323D01*
X148654836Y-114846397D01*
X148637433Y-114869471D01*
X148610872Y-114927564D01*
X148586102Y-115002308D01*
X148567806Y-115078966D01*
X148560667Y-115142798D01*
X148560391Y-115155613D01*
X148552258Y-115185654D01*
X148524396Y-115201901D01*
X148465548Y-115212617D01*
X148431406Y-115219149D01*
X148346861Y-115244501D01*
X148266552Y-115278292D01*
X148194558Y-115321970D01*
X148107089Y-115406501D01*
X148056007Y-115503351D01*
X148040868Y-115607528D01*
X148061226Y-115714042D01*
X148116635Y-115817904D01*
X148206649Y-115914122D01*
X148330822Y-115997708D01*
X148383136Y-116025759D01*
X148428858Y-116050322D01*
X148447821Y-116060578D01*
X148459410Y-116082747D01*
X148466465Y-116123109D01*
X148466755Y-116161749D01*
X148458506Y-116179000D01*
X148426431Y-116185884D01*
X148376836Y-116203477D01*
X148329439Y-116215725D01*
X148253719Y-116226062D01*
X148169083Y-116231262D01*
X148043153Y-116242266D01*
X147889166Y-116280045D01*
X147755309Y-116341307D01*
X147648216Y-116422816D01*
X147574519Y-116521336D01*
X147569650Y-116531493D01*
X147554080Y-116614053D01*
X147574406Y-116698343D01*
X147626003Y-116776988D01*
X147704244Y-116842617D01*
X147804501Y-116887855D01*
X147808224Y-116888931D01*
X147885952Y-116904394D01*
X147984318Y-116915120D01*
X148082967Y-116918843D01*
X148180650Y-116914499D01*
X148317299Y-116889421D01*
X148441978Y-116837375D01*
X148570364Y-116753026D01*
X148629646Y-116709689D01*
X148665750Y-116688797D01*
X148684462Y-116688977D01*
X148693583Y-116707337D01*
X148696897Y-116716703D01*
X148736203Y-116759181D01*
X148807327Y-116793434D01*
X148901896Y-116817815D01*
X149011536Y-116830679D01*
X149127876Y-116830378D01*
X149242542Y-116815268D01*
X149306124Y-116797147D01*
X149394537Y-116748290D01*
X149450986Y-116681131D01*
X149470833Y-116600041D01*
X149463915Y-116536981D01*
X149432807Y-116426335D01*
X149379577Y-116295237D01*
X149307398Y-116150475D01*
X149219446Y-115998841D01*
X149118893Y-115847124D01*
X149110143Y-115834729D01*
X149067597Y-115773490D01*
X149037658Y-115728778D01*
X149026346Y-115709540D01*
X149032270Y-115708246D01*
X149071979Y-115706070D01*
X149142864Y-115704327D01*
X149237669Y-115703170D01*
X149349137Y-115702750D01*
X149387436Y-115702727D01*
X149502858Y-115701967D01*
X149587135Y-115699309D01*
X149649045Y-115693652D01*
X149697363Y-115683897D01*
X149740867Y-115668942D01*
X149788333Y-115647687D01*
X149838876Y-115621473D01*
X149908673Y-115578303D01*
X149957667Y-115539621D01*
X149990037Y-115512610D01*
X150030693Y-115494441D01*
X150090047Y-115483103D01*
X150179917Y-115475170D01*
X150282367Y-115463385D01*
X150391850Y-115442968D01*
X150482948Y-115418496D01*
X150616645Y-115373269D01*
X150684031Y-115430154D01*
X150756914Y-115481938D01*
X150879118Y-115546250D01*
X151020905Y-115602262D01*
X151169458Y-115644321D01*
X151234662Y-115659334D01*
X151290624Y-115675167D01*
X151320103Y-115691238D01*
X151331579Y-115712747D01*
X151333533Y-115744891D01*
X151340667Y-115808275D01*
X151381604Y-115904526D01*
X151452562Y-115981843D01*
X151546286Y-116033307D01*
X151655522Y-116052000D01*
X151700198Y-116050733D01*
X151778228Y-116036960D01*
X151846186Y-116002249D01*
X151920875Y-115939474D01*
X151932462Y-115928060D01*
X151979327Y-115861290D01*
X151984281Y-115800321D01*
X151947333Y-115745083D01*
X151918988Y-115716155D01*
X151905050Y-115694178D01*
X151918815Y-115681094D01*
X151961164Y-115654141D01*
X152022125Y-115620436D01*
X152121281Y-115558180D01*
X152243113Y-115454583D01*
X152348995Y-115335182D01*
X152426294Y-115212718D01*
X152428050Y-115209132D01*
X152458804Y-115139790D01*
X152476636Y-115077632D01*
X152484818Y-115006192D01*
X152486619Y-114909000D01*
X152478089Y-114772419D01*
X152450249Y-114663789D01*
X152398803Y-114573241D01*
X152319450Y-114489998D01*
X152231524Y-114432038D01*
X152127722Y-114407597D01*
X152010405Y-114422282D01*
X152002789Y-114424498D01*
X151917667Y-114466987D01*
X151825428Y-114539749D01*
X151734043Y-114634607D01*
X151651486Y-114743382D01*
X151585729Y-114857897D01*
X151514528Y-115007143D01*
X151238806Y-114926583D01*
X151219760Y-114920982D01*
X151113904Y-114888544D01*
X151020090Y-114857737D01*
X150947897Y-114831810D01*
X150906901Y-114814012D01*
X150841013Y-114791263D01*
X150729851Y-114784077D01*
X150584506Y-114798653D01*
X150406110Y-114834944D01*
X150336066Y-114851713D01*
X150255697Y-114870382D01*
X150197864Y-114883121D01*
X150171851Y-114887833D01*
X150162290Y-114878148D01*
X150142704Y-114837785D01*
X150120733Y-114776708D01*
X150098785Y-114716440D01*
X150029573Y-114574824D01*
X149927848Y-114409813D01*
X149792981Y-114220340D01*
X149754651Y-114168485D01*
X150213613Y-114168485D01*
X150279304Y-114274159D01*
X150310236Y-114320005D01*
X150345455Y-114362502D01*
X150368289Y-114378301D01*
X150402110Y-114373714D01*
X150479340Y-114356676D01*
X150573551Y-114331224D01*
X150670913Y-114301437D01*
X150757597Y-114271393D01*
X150819772Y-114245170D01*
X150852945Y-114229075D01*
X150901173Y-114211025D01*
X150952328Y-114202199D01*
X151019483Y-114200829D01*
X151115714Y-114205147D01*
X151189567Y-114208837D01*
X151262796Y-114209216D01*
X151317643Y-114202443D01*
X151367798Y-114186506D01*
X151426951Y-114159391D01*
X151456674Y-114144079D01*
X151554563Y-114077259D01*
X151633560Y-113989984D01*
X151704167Y-113871340D01*
X151754988Y-113771049D01*
X151893435Y-113762233D01*
X151923030Y-113760070D01*
X152006576Y-113748083D01*
X152054366Y-113727121D01*
X152071376Y-113693715D01*
X152062583Y-113644400D01*
X152054437Y-113626000D01*
X152002126Y-113568806D01*
X151918114Y-113523850D01*
X151810048Y-113494390D01*
X151685574Y-113483686D01*
X151518033Y-113497252D01*
X151341857Y-113544909D01*
X151166388Y-113629016D01*
X150985817Y-113751800D01*
X150966554Y-113751285D01*
X150922118Y-113724357D01*
X150860898Y-113671207D01*
X150829906Y-113642184D01*
X150777358Y-113600136D01*
X150735212Y-113581348D01*
X150691947Y-113579573D01*
X150650226Y-113588673D01*
X150615583Y-113614494D01*
X150598600Y-113660882D01*
X150598754Y-113732539D01*
X150615520Y-113834163D01*
X150648375Y-113970455D01*
X150649205Y-113973799D01*
X150648390Y-114003911D01*
X150623769Y-114028831D01*
X150567036Y-114057446D01*
X150484617Y-114091312D01*
X150270848Y-114155841D01*
X150213613Y-114168485D01*
X149754651Y-114168485D01*
X149748118Y-114159646D01*
X149702625Y-114095663D01*
X149673053Y-114051000D01*
X149664306Y-114032805D01*
X149675939Y-114024619D01*
X149714642Y-113998135D01*
X149769529Y-113960929D01*
X149881331Y-113873302D01*
X150013593Y-113743473D01*
X150147132Y-113587369D01*
X150232849Y-113470683D01*
X152324326Y-113470683D01*
X152400413Y-113554903D01*
X152428782Y-113588601D01*
X152463105Y-113638082D01*
X152476500Y-113670811D01*
X152477045Y-113674970D01*
X152486541Y-113685119D01*
X152511939Y-113692488D01*
X152523361Y-113693715D01*
X152558526Y-113697493D01*
X152631586Y-113700553D01*
X152736403Y-113702082D01*
X152878264Y-113702500D01*
X152953506Y-113702482D01*
X153073883Y-113702091D01*
X153160576Y-113700672D01*
X153219337Y-113697560D01*
X153255916Y-113692089D01*
X153276065Y-113683595D01*
X153285535Y-113671412D01*
X153290078Y-113654875D01*
X153293057Y-113633637D01*
X153300493Y-113573660D01*
X153311755Y-113479700D01*
X153326358Y-113355982D01*
X153343820Y-113206730D01*
X153363655Y-113036168D01*
X153385381Y-112848519D01*
X153408514Y-112648009D01*
X153432570Y-112438860D01*
X153457065Y-112225298D01*
X153481516Y-112011546D01*
X153505438Y-111801828D01*
X153528348Y-111600369D01*
X153549763Y-111411392D01*
X153569198Y-111239121D01*
X153586169Y-111087781D01*
X153600194Y-110961596D01*
X153610788Y-110864789D01*
X153617467Y-110801585D01*
X153619749Y-110776208D01*
X153601560Y-110769758D01*
X153554846Y-110764305D01*
X153493690Y-110760582D01*
X153432184Y-110759171D01*
X153384421Y-110760657D01*
X153364493Y-110765625D01*
X153364251Y-110767579D01*
X153360473Y-110800274D01*
X153352444Y-110870486D01*
X153340566Y-110974673D01*
X153325243Y-111109295D01*
X153306877Y-111270811D01*
X153285870Y-111455681D01*
X153263878Y-111649333D01*
X153262626Y-111660362D01*
X153237546Y-111881316D01*
X153211035Y-112115000D01*
X153163018Y-112538333D01*
X153058583Y-113459083D01*
X152691455Y-113464883D01*
X152324326Y-113470683D01*
X150232849Y-113470683D01*
X150275683Y-113412374D01*
X150392984Y-113225873D01*
X150401590Y-113212011D01*
X150419285Y-113198128D01*
X150449141Y-113201729D01*
X150504538Y-113222395D01*
X150573631Y-113244528D01*
X150665648Y-113254425D01*
X150738733Y-113238042D01*
X150786943Y-113197142D01*
X150804333Y-113133489D01*
X150801236Y-113106340D01*
X150775367Y-113055068D01*
X150719120Y-113001709D01*
X150627528Y-112940850D01*
X150605737Y-112926868D01*
X150523561Y-112849300D01*
X150476993Y-112757326D01*
X150468179Y-112657387D01*
X150496549Y-112564792D01*
X151038359Y-112564792D01*
X151039091Y-112573962D01*
X151043769Y-112620477D01*
X151051983Y-112697162D01*
X151062860Y-112795944D01*
X151075526Y-112908750D01*
X151111501Y-113226250D01*
X151984500Y-113231776D01*
X152099109Y-113232444D01*
X152303027Y-113233224D01*
X152469395Y-113233156D01*
X152601418Y-113232164D01*
X152702303Y-113230169D01*
X152775255Y-113227093D01*
X152823480Y-113222860D01*
X152850184Y-113217391D01*
X152858573Y-113210610D01*
X152859393Y-113200319D01*
X152864255Y-113152475D01*
X152872695Y-113074664D01*
X152883839Y-112974881D01*
X152896811Y-112861125D01*
X152933975Y-112538333D01*
X151985571Y-112538333D01*
X151802058Y-112538470D01*
X151598176Y-112539102D01*
X151431297Y-112540325D01*
X151298410Y-112542223D01*
X151196499Y-112544881D01*
X151122552Y-112548383D01*
X151073556Y-112552812D01*
X151046496Y-112558254D01*
X151038359Y-112564792D01*
X150496549Y-112564792D01*
X150499266Y-112555923D01*
X150516829Y-112524748D01*
X150558243Y-112458849D01*
X150605100Y-112390405D01*
X150613291Y-112378812D01*
X150663397Y-112289980D01*
X150677246Y-112214362D01*
X150654583Y-112143811D01*
X150595157Y-112070176D01*
X150585277Y-112060562D01*
X150508432Y-112004511D01*
X150441007Y-111987140D01*
X150387195Y-112007093D01*
X150351189Y-112063016D01*
X150337179Y-112153553D01*
X150334557Y-112215157D01*
X150322585Y-112274351D01*
X150294112Y-112319214D01*
X150241743Y-112360251D01*
X150158082Y-112407969D01*
X150105314Y-112437399D01*
X150040306Y-112481103D01*
X149996654Y-112525497D01*
X149962958Y-112580673D01*
X149927564Y-112683464D01*
X149916331Y-112822797D01*
X149937201Y-112977883D01*
X149941307Y-112996711D01*
X149947184Y-113052262D01*
X149936591Y-113103442D01*
X149906317Y-113170241D01*
X149905611Y-113171632D01*
X149805120Y-113341180D01*
X149694037Y-113476882D01*
X149574892Y-113576618D01*
X149450216Y-113638264D01*
X149322537Y-113659702D01*
X149317484Y-113659683D01*
X149258429Y-113656849D01*
X149172413Y-113650007D01*
X149069312Y-113640238D01*
X148959005Y-113628623D01*
X148851370Y-113616245D01*
X148756284Y-113604184D01*
X148683625Y-113593522D01*
X148643272Y-113585341D01*
X148633775Y-113579680D01*
X148606335Y-113542570D01*
X148582756Y-113485565D01*
X148579411Y-113474266D01*
X148567026Y-113421956D01*
X148570759Y-113393394D01*
X148591722Y-113374841D01*
X148701347Y-113305188D01*
X148849162Y-113200294D01*
X148981323Y-113093685D01*
X149092189Y-112990340D01*
X149176119Y-112895243D01*
X149227474Y-112813374D01*
X149237597Y-112790482D01*
X149254031Y-112742012D01*
X149251915Y-112703678D01*
X149231811Y-112655025D01*
X149179641Y-112579760D01*
X149096704Y-112525260D01*
X148992445Y-112506583D01*
X148966842Y-112507590D01*
X148887225Y-112529619D01*
X148824360Y-112584118D01*
X148771961Y-112675917D01*
X148700034Y-112806142D01*
X148609687Y-112911922D01*
X148508508Y-112982467D01*
X148395766Y-113020984D01*
X148270394Y-113027984D01*
X148153399Y-112998081D01*
X148051450Y-112933107D01*
X147971216Y-112834894D01*
X147956039Y-112805565D01*
X147922274Y-112693429D01*
X147911865Y-112566829D01*
X147925102Y-112441861D01*
X147962271Y-112334621D01*
X148011177Y-112257153D01*
X148080890Y-112182455D01*
X148169199Y-112121004D01*
X148280007Y-112071444D01*
X148417220Y-112032420D01*
X148584742Y-112002574D01*
X148786478Y-111980550D01*
X149026333Y-111964992D01*
X149123798Y-111960027D01*
X149274562Y-111951047D01*
X149391951Y-111941453D01*
X149481773Y-111930209D01*
X149549835Y-111916276D01*
X149601945Y-111898618D01*
X149643910Y-111876198D01*
X149681538Y-111847978D01*
X149706194Y-111823014D01*
X149738818Y-111754265D01*
X149736290Y-111678393D01*
X149701184Y-111602316D01*
X149636076Y-111532949D01*
X149543538Y-111477209D01*
X149452900Y-111437116D01*
X149524590Y-111330585D01*
X149535847Y-111313458D01*
X149592924Y-111202695D01*
X149613448Y-111102691D01*
X149598902Y-111006988D01*
X149598126Y-111004662D01*
X149542380Y-110901692D01*
X149455680Y-110824903D01*
X149342194Y-110776912D01*
X149206087Y-110760333D01*
X150338167Y-110760333D01*
X150349448Y-110839708D01*
X150353681Y-110871734D01*
X150362747Y-110944720D01*
X150374768Y-111044376D01*
X150388689Y-111161921D01*
X150403452Y-111288574D01*
X150415715Y-111393097D01*
X150428570Y-111499103D01*
X150439247Y-111583278D01*
X150446886Y-111638876D01*
X150450630Y-111659154D01*
X150457374Y-111661393D01*
X150493830Y-111674136D01*
X150550333Y-111694163D01*
X150577845Y-111704063D01*
X150641701Y-111727763D01*
X150685793Y-111745105D01*
X150701227Y-111750891D01*
X150718343Y-111746733D01*
X150714129Y-111711022D01*
X150712812Y-111704313D01*
X150705862Y-111657184D01*
X150704854Y-111649333D01*
X150929415Y-111649333D01*
X150940595Y-111718125D01*
X150944032Y-111741612D01*
X150944683Y-111746733D01*
X150952712Y-111809955D01*
X150963176Y-111900008D01*
X150973858Y-111998583D01*
X150979470Y-112051369D01*
X150990433Y-112149685D01*
X151000429Y-112233749D01*
X151007831Y-112289625D01*
X151019721Y-112369000D01*
X152955729Y-112369000D01*
X152982387Y-112109708D01*
X152992774Y-112009660D01*
X153004140Y-111902221D01*
X153013966Y-111811371D01*
X153020887Y-111749875D01*
X153032730Y-111649333D01*
X150929415Y-111649333D01*
X150704854Y-111649333D01*
X150695584Y-111577147D01*
X150682835Y-111471255D01*
X150668469Y-111346562D01*
X150653344Y-111210125D01*
X150604433Y-110760333D01*
X150338167Y-110760333D01*
X149206087Y-110760333D01*
X149187070Y-110760622D01*
X149061479Y-110780654D01*
X148955114Y-110834161D01*
X148864026Y-110923881D01*
X148784264Y-111052550D01*
X148748864Y-111122517D01*
X148649474Y-111046709D01*
X148611263Y-111018900D01*
X148527012Y-110963297D01*
X148449257Y-110918033D01*
X148348431Y-110865165D01*
X148383105Y-110798113D01*
X148390896Y-110782477D01*
X148425731Y-110701175D01*
X148460033Y-110606072D01*
X148489661Y-110510300D01*
X148510475Y-110426990D01*
X148518333Y-110369276D01*
X148515832Y-110327629D01*
X148503135Y-110293777D01*
X148473799Y-110271851D01*
X148421409Y-110259322D01*
X148339551Y-110253659D01*
X148221812Y-110252333D01*
X148100573Y-110253967D01*
X148009934Y-110260587D01*
X147951175Y-110274406D01*
X147919000Y-110297637D01*
X147908112Y-110332490D01*
X147913215Y-110381176D01*
X147920687Y-110426284D01*
X147930841Y-110505709D01*
X147939381Y-110591000D01*
X147951014Y-110728583D01*
X147552049Y-110728583D01*
X147450655Y-110729079D01*
X147278325Y-110733372D01*
X147138835Y-110742912D01*
X147025984Y-110758711D01*
X146933571Y-110781782D01*
X146855395Y-110813136D01*
X146785256Y-110853787D01*
X146752100Y-110878396D01*
X146665465Y-110959286D01*
X146570122Y-111066648D01*
X146471598Y-111192430D01*
X146375422Y-111328582D01*
X146287120Y-111467053D01*
X146212219Y-111599793D01*
X146156248Y-111718749D01*
X146124734Y-111815872D01*
X146118862Y-111851110D01*
X146110909Y-111959517D01*
X145079282Y-111959517D01*
X145145508Y-111607103D01*
X145264292Y-111184142D01*
X145420968Y-110771522D01*
X145615535Y-110372089D01*
X145847994Y-109988687D01*
X145876659Y-109948743D01*
X151576917Y-109948743D01*
X151577159Y-109997745D01*
X151580331Y-110069430D01*
X151589892Y-110118688D01*
X151609208Y-110158723D01*
X151641644Y-110202743D01*
X151658117Y-110221748D01*
X151726589Y-110283635D01*
X151799587Y-110331708D01*
X151868789Y-110358476D01*
X151992204Y-110378457D01*
X152119957Y-110372206D01*
X152234265Y-110339410D01*
X152317706Y-110288485D01*
X152408850Y-110194646D01*
X152474772Y-110079054D01*
X152510196Y-109951612D01*
X152509844Y-109822222D01*
X152509474Y-109820017D01*
X152494125Y-109764945D01*
X152464372Y-109683232D01*
X152424349Y-109585541D01*
X152378187Y-109482535D01*
X152314116Y-109340444D01*
X152226847Y-109124107D01*
X152160266Y-108926897D01*
X152116962Y-108756007D01*
X152101416Y-108679591D01*
X152086333Y-108615312D01*
X152073443Y-108578908D01*
X152059850Y-108562697D01*
X152042658Y-108559000D01*
X152031380Y-108564499D01*
X152009826Y-108604899D01*
X151990395Y-108680708D01*
X151953443Y-108838678D01*
X151888738Y-109049599D01*
X151805648Y-109272714D01*
X151708209Y-109496358D01*
X151687527Y-109540501D01*
X151642143Y-109639377D01*
X151611246Y-109713143D01*
X151592056Y-109771381D01*
X151581791Y-109823673D01*
X151577672Y-109879600D01*
X151576917Y-109948743D01*
X145876659Y-109948743D01*
X146051326Y-109705350D01*
X146344056Y-109356828D01*
X146662011Y-109041803D01*
X147006665Y-108758976D01*
X147379488Y-108507050D01*
X147781954Y-108284728D01*
X147984828Y-108188588D01*
X148370831Y-108033534D01*
X148758536Y-107915690D01*
X149154758Y-107833476D01*
X149566308Y-107785307D01*
X150000000Y-107769603D01*
X150303301Y-107776909D01*
X150703391Y-107812279D01*
X151086360Y-107878752D01*
X151460642Y-107978287D01*
X151834671Y-108112843D01*
X152216881Y-108284378D01*
X152507735Y-108438840D01*
X152865307Y-108666392D01*
X153202559Y-108926864D01*
X153525457Y-109224543D01*
X153744280Y-109456512D01*
X154016397Y-109791527D01*
X154123962Y-109951612D01*
X154254634Y-110146087D01*
G36*
X154254634Y-110146087D02*
G01*
X154463316Y-110526199D01*
X154568416Y-110750053D01*
X154578802Y-110776208D01*
X154721359Y-111135234D01*
X154837292Y-111520354D01*
X154917953Y-111912877D01*
X154965076Y-112320270D01*
X154980397Y-112750000D01*
X154976097Y-112981247D01*
X154943676Y-113401213D01*
X154878099Y-113802793D01*
X154777721Y-114193071D01*
X154640901Y-114579127D01*
X154492550Y-114909000D01*
X154465996Y-114968046D01*
X154381678Y-115130766D01*
X154147772Y-115519419D01*
X153882166Y-115881717D01*
X153586934Y-116216251D01*
X153264152Y-116521612D01*
X152915897Y-116796390D01*
X152544244Y-117039175D01*
X152151269Y-117248558D01*
X151739047Y-117423130D01*
X151309655Y-117561480D01*
X150865168Y-117662200D01*
X150407662Y-117723879D01*
X150389016Y-117725418D01*
X150282290Y-117731126D01*
X150151386Y-117734455D01*
X150011163Y-117735152D01*
X149876480Y-117732962D01*
X149814857Y-117730858D01*
X149388191Y-117698276D01*
X148982349Y-117633579D01*
X148589279Y-117534798D01*
X148200930Y-117399962D01*
X147809250Y-117227100D01*
X147488275Y-117056969D01*
X147107153Y-116813387D01*
X146753180Y-116537569D01*
X146425739Y-116228977D01*
X146124216Y-115887071D01*
X145847994Y-115511313D01*
X145781584Y-115409675D01*
X145559342Y-115021670D01*
X145374992Y-114618401D01*
X145228533Y-114202713D01*
X145119966Y-113777451D01*
X145049291Y-113345459D01*
X145016508Y-112909583D01*
X145021616Y-112472669D01*
X145064616Y-112037560D01*
X145079282Y-111959517D01*
X146110909Y-111959517D01*
X146111232Y-112090150D01*
X146119204Y-112229502D01*
X146134197Y-112364068D01*
X146155584Y-112480342D01*
X146157506Y-112488264D01*
X146184768Y-112573841D01*
X146225130Y-112654146D01*
X146283884Y-112736712D01*
X146366323Y-112829069D01*
X146477739Y-112938747D01*
X146652192Y-113103881D01*
X146640419Y-113233722D01*
X146638234Y-113265985D01*
X146649509Y-113404948D01*
X146697211Y-113523861D01*
X146782405Y-113625662D01*
X146870887Y-113688834D01*
X146995717Y-113734331D01*
X147131190Y-113741343D01*
X147273206Y-113709781D01*
X147417667Y-113639556D01*
X147443784Y-113624026D01*
X147493072Y-113600711D01*
X147548190Y-113585628D01*
X147621304Y-113575980D01*
X147724583Y-113568967D01*
X147771310Y-113565977D01*
X147878727Y-113556202D01*
X147977131Y-113543735D01*
X148049871Y-113530542D01*
X148099641Y-113519365D01*
X148145354Y-113513663D01*
X148172024Y-113521233D01*
X148192477Y-113543216D01*
X148216550Y-113591087D01*
X148234563Y-113652692D01*
X148237721Y-113701630D01*
X148222154Y-113750122D01*
X148181916Y-113811935D01*
X148158238Y-113846062D01*
X148127995Y-113897553D01*
X148116167Y-113929971D01*
X148118646Y-113952492D01*
X148141894Y-114005967D01*
X148192240Y-114069416D01*
X148272897Y-114146528D01*
X148387077Y-114240990D01*
X148598321Y-114407997D01*
X148624113Y-114567884D01*
X148625563Y-114576775D01*
X148640619Y-114660383D01*
X148655662Y-114731094D01*
X148667639Y-114774412D01*
X148674576Y-114808323D01*
X148654836Y-114846397D01*
X148637433Y-114869471D01*
X148610872Y-114927564D01*
X148586102Y-115002308D01*
X148567806Y-115078966D01*
X148560667Y-115142798D01*
X148560391Y-115155613D01*
X148552258Y-115185654D01*
X148524396Y-115201901D01*
X148465548Y-115212617D01*
X148431406Y-115219149D01*
X148346861Y-115244501D01*
X148266552Y-115278292D01*
X148194558Y-115321970D01*
X148107089Y-115406501D01*
X148056007Y-115503351D01*
X148040868Y-115607528D01*
X148061226Y-115714042D01*
X148116635Y-115817904D01*
X148206649Y-115914122D01*
X148330822Y-115997708D01*
X148383136Y-116025759D01*
X148428858Y-116050322D01*
X148447821Y-116060578D01*
X148459410Y-116082747D01*
X148466465Y-116123109D01*
X148466755Y-116161749D01*
X148458506Y-116179000D01*
X148426431Y-116185884D01*
X148376836Y-116203477D01*
X148329439Y-116215725D01*
X148253719Y-116226062D01*
X148169083Y-116231262D01*
X148043153Y-116242266D01*
X147889166Y-116280045D01*
X147755309Y-116341307D01*
X147648216Y-116422816D01*
X147574519Y-116521336D01*
X147569650Y-116531493D01*
X147554080Y-116614053D01*
X147574406Y-116698343D01*
X147626003Y-116776988D01*
X147704244Y-116842617D01*
X147804501Y-116887855D01*
X147808224Y-116888931D01*
X147885952Y-116904394D01*
X147984318Y-116915120D01*
X148082967Y-116918843D01*
X148180650Y-116914499D01*
X148317299Y-116889421D01*
X148441978Y-116837375D01*
X148570364Y-116753026D01*
X148629646Y-116709689D01*
X148665750Y-116688797D01*
X148684462Y-116688977D01*
X148693583Y-116707337D01*
X148696897Y-116716703D01*
X148736203Y-116759181D01*
X148807327Y-116793434D01*
X148901896Y-116817815D01*
X149011536Y-116830679D01*
X149127876Y-116830378D01*
X149242542Y-116815268D01*
X149306124Y-116797147D01*
X149394537Y-116748290D01*
X149450986Y-116681131D01*
X149470833Y-116600041D01*
X149463915Y-116536981D01*
X149432807Y-116426335D01*
X149379577Y-116295237D01*
X149307398Y-116150475D01*
X149219446Y-115998841D01*
X149118893Y-115847124D01*
X149110143Y-115834729D01*
X149067597Y-115773490D01*
X149037658Y-115728778D01*
X149026346Y-115709540D01*
X149032270Y-115708246D01*
X149071979Y-115706070D01*
X149142864Y-115704327D01*
X149237669Y-115703170D01*
X149349137Y-115702750D01*
X149387436Y-115702727D01*
X149502858Y-115701967D01*
X149587135Y-115699309D01*
X149649045Y-115693652D01*
X149697363Y-115683897D01*
X149740867Y-115668942D01*
X149788333Y-115647687D01*
X149838876Y-115621473D01*
X149908673Y-115578303D01*
X149957667Y-115539621D01*
X149990037Y-115512610D01*
X150030693Y-115494441D01*
X150090047Y-115483103D01*
X150179917Y-115475170D01*
X150282367Y-115463385D01*
X150391850Y-115442968D01*
X150482948Y-115418496D01*
X150616645Y-115373269D01*
X150684031Y-115430154D01*
X150756914Y-115481938D01*
X150879118Y-115546250D01*
X151020905Y-115602262D01*
X151169458Y-115644321D01*
X151234662Y-115659334D01*
X151290624Y-115675167D01*
X151320103Y-115691238D01*
X151331579Y-115712747D01*
X151333533Y-115744891D01*
X151340667Y-115808275D01*
X151381604Y-115904526D01*
X151452562Y-115981843D01*
X151546286Y-116033307D01*
X151655522Y-116052000D01*
X151700198Y-116050733D01*
X151778228Y-116036960D01*
X151846186Y-116002249D01*
X151920875Y-115939474D01*
X151932462Y-115928060D01*
X151979327Y-115861290D01*
X151984281Y-115800321D01*
X151947333Y-115745083D01*
X151918988Y-115716155D01*
X151905050Y-115694178D01*
X151918815Y-115681094D01*
X151961164Y-115654141D01*
X152022125Y-115620436D01*
X152121281Y-115558180D01*
X152243113Y-115454583D01*
X152348995Y-115335182D01*
X152426294Y-115212718D01*
X152428050Y-115209132D01*
X152458804Y-115139790D01*
X152476636Y-115077632D01*
X152484818Y-115006192D01*
X152486619Y-114909000D01*
X152478089Y-114772419D01*
X152450249Y-114663789D01*
X152398803Y-114573241D01*
X152319450Y-114489998D01*
X152231524Y-114432038D01*
X152127722Y-114407597D01*
X152010405Y-114422282D01*
X152002789Y-114424498D01*
X151917667Y-114466987D01*
X151825428Y-114539749D01*
X151734043Y-114634607D01*
X151651486Y-114743382D01*
X151585729Y-114857897D01*
X151514528Y-115007143D01*
X151238806Y-114926583D01*
X151219760Y-114920982D01*
X151113904Y-114888544D01*
X151020090Y-114857737D01*
X150947897Y-114831810D01*
X150906901Y-114814012D01*
X150841013Y-114791263D01*
X150729851Y-114784077D01*
X150584506Y-114798653D01*
X150406110Y-114834944D01*
X150336066Y-114851713D01*
X150255697Y-114870382D01*
X150197864Y-114883121D01*
X150171851Y-114887833D01*
X150162290Y-114878148D01*
X150142704Y-114837785D01*
X150120733Y-114776708D01*
X150098785Y-114716440D01*
X150029573Y-114574824D01*
X149927848Y-114409813D01*
X149792981Y-114220340D01*
X149754651Y-114168485D01*
X150213613Y-114168485D01*
X150279304Y-114274159D01*
X150310236Y-114320005D01*
X150345455Y-114362502D01*
X150368289Y-114378301D01*
X150402110Y-114373714D01*
X150479340Y-114356676D01*
X150573551Y-114331224D01*
X150670913Y-114301437D01*
X150757597Y-114271393D01*
X150819772Y-114245170D01*
X150852945Y-114229075D01*
X150901173Y-114211025D01*
X150952328Y-114202199D01*
X151019483Y-114200829D01*
X151115714Y-114205147D01*
X151189567Y-114208837D01*
X151262796Y-114209216D01*
X151317643Y-114202443D01*
X151367798Y-114186506D01*
X151426951Y-114159391D01*
X151456674Y-114144079D01*
X151554563Y-114077259D01*
X151633560Y-113989984D01*
X151704167Y-113871340D01*
X151754988Y-113771049D01*
X151893435Y-113762233D01*
X151923030Y-113760070D01*
X152006576Y-113748083D01*
X152054366Y-113727121D01*
X152071376Y-113693715D01*
X152062583Y-113644400D01*
X152054437Y-113626000D01*
X152002126Y-113568806D01*
X151918114Y-113523850D01*
X151810048Y-113494390D01*
X151685574Y-113483686D01*
X151518033Y-113497252D01*
X151341857Y-113544909D01*
X151166388Y-113629016D01*
X150985817Y-113751800D01*
X150966554Y-113751285D01*
X150922118Y-113724357D01*
X150860898Y-113671207D01*
X150829906Y-113642184D01*
X150777358Y-113600136D01*
X150735212Y-113581348D01*
X150691947Y-113579573D01*
X150650226Y-113588673D01*
X150615583Y-113614494D01*
X150598600Y-113660882D01*
X150598754Y-113732539D01*
X150615520Y-113834163D01*
X150648375Y-113970455D01*
X150649205Y-113973799D01*
X150648390Y-114003911D01*
X150623769Y-114028831D01*
X150567036Y-114057446D01*
X150484617Y-114091312D01*
X150270848Y-114155841D01*
X150213613Y-114168485D01*
X149754651Y-114168485D01*
X149748118Y-114159646D01*
X149702625Y-114095663D01*
X149673053Y-114051000D01*
X149664306Y-114032805D01*
X149675939Y-114024619D01*
X149714642Y-113998135D01*
X149769529Y-113960929D01*
X149881331Y-113873302D01*
X150013593Y-113743473D01*
X150147132Y-113587369D01*
X150232849Y-113470683D01*
X152324326Y-113470683D01*
X152400413Y-113554903D01*
X152428782Y-113588601D01*
X152463105Y-113638082D01*
X152476500Y-113670811D01*
X152477045Y-113674970D01*
X152486541Y-113685119D01*
X152511939Y-113692488D01*
X152523361Y-113693715D01*
X152558526Y-113697493D01*
X152631586Y-113700553D01*
X152736403Y-113702082D01*
X152878264Y-113702500D01*
X152953506Y-113702482D01*
X153073883Y-113702091D01*
X153160576Y-113700672D01*
X153219337Y-113697560D01*
X153255916Y-113692089D01*
X153276065Y-113683595D01*
X153285535Y-113671412D01*
X153290078Y-113654875D01*
X153293057Y-113633637D01*
X153300493Y-113573660D01*
X153311755Y-113479700D01*
X153326358Y-113355982D01*
X153343820Y-113206730D01*
X153363655Y-113036168D01*
X153385381Y-112848519D01*
X153408514Y-112648009D01*
X153432570Y-112438860D01*
X153457065Y-112225298D01*
X153481516Y-112011546D01*
X153505438Y-111801828D01*
X153528348Y-111600369D01*
X153549763Y-111411392D01*
X153569198Y-111239121D01*
X153586169Y-111087781D01*
X153600194Y-110961596D01*
X153610788Y-110864789D01*
X153617467Y-110801585D01*
X153619749Y-110776208D01*
X153601560Y-110769758D01*
X153554846Y-110764305D01*
X153493690Y-110760582D01*
X153432184Y-110759171D01*
X153384421Y-110760657D01*
X153364493Y-110765625D01*
X153364251Y-110767579D01*
X153360473Y-110800274D01*
X153352444Y-110870486D01*
X153340566Y-110974673D01*
X153325243Y-111109295D01*
X153306877Y-111270811D01*
X153285870Y-111455681D01*
X153263878Y-111649333D01*
X153262626Y-111660362D01*
X153237546Y-111881316D01*
X153211035Y-112115000D01*
X153163018Y-112538333D01*
X153058583Y-113459083D01*
X152691455Y-113464883D01*
X152324326Y-113470683D01*
X150232849Y-113470683D01*
X150275683Y-113412374D01*
X150392984Y-113225873D01*
X150401590Y-113212011D01*
X150419285Y-113198128D01*
X150449141Y-113201729D01*
X150504538Y-113222395D01*
X150573631Y-113244528D01*
X150665648Y-113254425D01*
X150738733Y-113238042D01*
X150786943Y-113197142D01*
X150804333Y-113133489D01*
X150801236Y-113106340D01*
X150775367Y-113055068D01*
X150719120Y-113001709D01*
X150627528Y-112940850D01*
X150605737Y-112926868D01*
X150523561Y-112849300D01*
X150476993Y-112757326D01*
X150468179Y-112657387D01*
X150496549Y-112564792D01*
X151038359Y-112564792D01*
X151039091Y-112573962D01*
X151043769Y-112620477D01*
X151051983Y-112697162D01*
X151062860Y-112795944D01*
X151075526Y-112908750D01*
X151111501Y-113226250D01*
X151984500Y-113231776D01*
X152099109Y-113232444D01*
X152303027Y-113233224D01*
X152469395Y-113233156D01*
X152601418Y-113232164D01*
X152702303Y-113230169D01*
X152775255Y-113227093D01*
X152823480Y-113222860D01*
X152850184Y-113217391D01*
X152858573Y-113210610D01*
X152859393Y-113200319D01*
X152864255Y-113152475D01*
X152872695Y-113074664D01*
X152883839Y-112974881D01*
X152896811Y-112861125D01*
X152933975Y-112538333D01*
X151985571Y-112538333D01*
X151802058Y-112538470D01*
X151598176Y-112539102D01*
X151431297Y-112540325D01*
X151298410Y-112542223D01*
X151196499Y-112544881D01*
X151122552Y-112548383D01*
X151073556Y-112552812D01*
X151046496Y-112558254D01*
X151038359Y-112564792D01*
X150496549Y-112564792D01*
X150499266Y-112555923D01*
X150516829Y-112524748D01*
X150558243Y-112458849D01*
X150605100Y-112390405D01*
X150613291Y-112378812D01*
X150663397Y-112289980D01*
X150677246Y-112214362D01*
X150654583Y-112143811D01*
X150595157Y-112070176D01*
X150585277Y-112060562D01*
X150508432Y-112004511D01*
X150441007Y-111987140D01*
X150387195Y-112007093D01*
X150351189Y-112063016D01*
X150337179Y-112153553D01*
X150334557Y-112215157D01*
X150322585Y-112274351D01*
X150294112Y-112319214D01*
X150241743Y-112360251D01*
X150158082Y-112407969D01*
X150105314Y-112437399D01*
X150040306Y-112481103D01*
X149996654Y-112525497D01*
X149962958Y-112580673D01*
X149927564Y-112683464D01*
X149916331Y-112822797D01*
X149937201Y-112977883D01*
X149941307Y-112996711D01*
X149947184Y-113052262D01*
X149936591Y-113103442D01*
X149906317Y-113170241D01*
X149905611Y-113171632D01*
X149805120Y-113341180D01*
X149694037Y-113476882D01*
X149574892Y-113576618D01*
X149450216Y-113638264D01*
X149322537Y-113659702D01*
X149317484Y-113659683D01*
X149258429Y-113656849D01*
X149172413Y-113650007D01*
X149069312Y-113640238D01*
X148959005Y-113628623D01*
X148851370Y-113616245D01*
X148756284Y-113604184D01*
X148683625Y-113593522D01*
X148643272Y-113585341D01*
X148633775Y-113579680D01*
X148606335Y-113542570D01*
X148582756Y-113485565D01*
X148579411Y-113474266D01*
X148567026Y-113421956D01*
X148570759Y-113393394D01*
X148591722Y-113374841D01*
X148701347Y-113305188D01*
X148849162Y-113200294D01*
X148981323Y-113093685D01*
X149092189Y-112990340D01*
X149176119Y-112895243D01*
X149227474Y-112813374D01*
X149237597Y-112790482D01*
X149254031Y-112742012D01*
X149251915Y-112703678D01*
X149231811Y-112655025D01*
X149179641Y-112579760D01*
X149096704Y-112525260D01*
X148992445Y-112506583D01*
X148966842Y-112507590D01*
X148887225Y-112529619D01*
X148824360Y-112584118D01*
X148771961Y-112675917D01*
X148700034Y-112806142D01*
X148609687Y-112911922D01*
X148508508Y-112982467D01*
X148395766Y-113020984D01*
X148270394Y-113027984D01*
X148153399Y-112998081D01*
X148051450Y-112933107D01*
X147971216Y-112834894D01*
X147956039Y-112805565D01*
X147922274Y-112693429D01*
X147911865Y-112566829D01*
X147925102Y-112441861D01*
X147962271Y-112334621D01*
X148011177Y-112257153D01*
X148080890Y-112182455D01*
X148169199Y-112121004D01*
X148280007Y-112071444D01*
X148417220Y-112032420D01*
X148584742Y-112002574D01*
X148786478Y-111980550D01*
X149026333Y-111964992D01*
X149123798Y-111960027D01*
X149274562Y-111951047D01*
X149391951Y-111941453D01*
X149481773Y-111930209D01*
X149549835Y-111916276D01*
X149601945Y-111898618D01*
X149643910Y-111876198D01*
X149681538Y-111847978D01*
X149706194Y-111823014D01*
X149738818Y-111754265D01*
X149736290Y-111678393D01*
X149701184Y-111602316D01*
X149636076Y-111532949D01*
X149543538Y-111477209D01*
X149452900Y-111437116D01*
X149524590Y-111330585D01*
X149535847Y-111313458D01*
X149592924Y-111202695D01*
X149613448Y-111102691D01*
X149598902Y-111006988D01*
X149598126Y-111004662D01*
X149542380Y-110901692D01*
X149455680Y-110824903D01*
X149342194Y-110776912D01*
X149206087Y-110760333D01*
X150338167Y-110760333D01*
X150349448Y-110839708D01*
X150353681Y-110871734D01*
X150362747Y-110944720D01*
X150374768Y-111044376D01*
X150388689Y-111161921D01*
X150403452Y-111288574D01*
X150415715Y-111393097D01*
X150428570Y-111499103D01*
X150439247Y-111583278D01*
X150446886Y-111638876D01*
X150450630Y-111659154D01*
X150457374Y-111661393D01*
X150493830Y-111674136D01*
X150550333Y-111694163D01*
X150577845Y-111704063D01*
X150641701Y-111727763D01*
X150685793Y-111745105D01*
X150701227Y-111750891D01*
X150718343Y-111746733D01*
X150714129Y-111711022D01*
X150712812Y-111704313D01*
X150705862Y-111657184D01*
X150704854Y-111649333D01*
X150929415Y-111649333D01*
X150940595Y-111718125D01*
X150944032Y-111741612D01*
X150944683Y-111746733D01*
X150952712Y-111809955D01*
X150963176Y-111900008D01*
X150973858Y-111998583D01*
X150979470Y-112051369D01*
X150990433Y-112149685D01*
X151000429Y-112233749D01*
X151007831Y-112289625D01*
X151019721Y-112369000D01*
X152955729Y-112369000D01*
X152982387Y-112109708D01*
X152992774Y-112009660D01*
X153004140Y-111902221D01*
X153013966Y-111811371D01*
X153020887Y-111749875D01*
X153032730Y-111649333D01*
X150929415Y-111649333D01*
X150704854Y-111649333D01*
X150695584Y-111577147D01*
X150682835Y-111471255D01*
X150668469Y-111346562D01*
X150653344Y-111210125D01*
X150604433Y-110760333D01*
X150338167Y-110760333D01*
X149206087Y-110760333D01*
X149187070Y-110760622D01*
X149061479Y-110780654D01*
X148955114Y-110834161D01*
X148864026Y-110923881D01*
X148784264Y-111052550D01*
X148748864Y-111122517D01*
X148649474Y-111046709D01*
X148611263Y-111018900D01*
X148527012Y-110963297D01*
X148449257Y-110918033D01*
X148348431Y-110865165D01*
X148383105Y-110798113D01*
X148390896Y-110782477D01*
X148425731Y-110701175D01*
X148460033Y-110606072D01*
X148489661Y-110510300D01*
X148510475Y-110426990D01*
X148518333Y-110369276D01*
X148515832Y-110327629D01*
X148503135Y-110293777D01*
X148473799Y-110271851D01*
X148421409Y-110259322D01*
X148339551Y-110253659D01*
X148221812Y-110252333D01*
X148100573Y-110253967D01*
X148009934Y-110260587D01*
X147951175Y-110274406D01*
X147919000Y-110297637D01*
X147908112Y-110332490D01*
X147913215Y-110381176D01*
X147920687Y-110426284D01*
X147930841Y-110505709D01*
X147939381Y-110591000D01*
X147951014Y-110728583D01*
X147552049Y-110728583D01*
X147450655Y-110729079D01*
X147278325Y-110733372D01*
X147138835Y-110742912D01*
X147025984Y-110758711D01*
X146933571Y-110781782D01*
X146855395Y-110813136D01*
X146785256Y-110853787D01*
X146752100Y-110878396D01*
X146665465Y-110959286D01*
X146570122Y-111066648D01*
X146471598Y-111192430D01*
X146375422Y-111328582D01*
X146287120Y-111467053D01*
X146212219Y-111599793D01*
X146156248Y-111718749D01*
X146124734Y-111815872D01*
X146118862Y-111851110D01*
X146110909Y-111959517D01*
X145079282Y-111959517D01*
X145145508Y-111607103D01*
X145264292Y-111184142D01*
X145420968Y-110771522D01*
X145615535Y-110372089D01*
X145847994Y-109988687D01*
X145876659Y-109948743D01*
X151576917Y-109948743D01*
X151577159Y-109997745D01*
X151580331Y-110069430D01*
X151589892Y-110118688D01*
X151609208Y-110158723D01*
X151641644Y-110202743D01*
X151658117Y-110221748D01*
X151726589Y-110283635D01*
X151799587Y-110331708D01*
X151868789Y-110358476D01*
X151992204Y-110378457D01*
X152119957Y-110372206D01*
X152234265Y-110339410D01*
X152317706Y-110288485D01*
X152408850Y-110194646D01*
X152474772Y-110079054D01*
X152510196Y-109951612D01*
X152509844Y-109822222D01*
X152509474Y-109820017D01*
X152494125Y-109764945D01*
X152464372Y-109683232D01*
X152424349Y-109585541D01*
X152378187Y-109482535D01*
X152314116Y-109340444D01*
X152226847Y-109124107D01*
X152160266Y-108926897D01*
X152116962Y-108756007D01*
X152101416Y-108679591D01*
X152086333Y-108615312D01*
X152073443Y-108578908D01*
X152059850Y-108562697D01*
X152042658Y-108559000D01*
X152031380Y-108564499D01*
X152009826Y-108604899D01*
X151990395Y-108680708D01*
X151953443Y-108838678D01*
X151888738Y-109049599D01*
X151805648Y-109272714D01*
X151708209Y-109496358D01*
X151687527Y-109540501D01*
X151642143Y-109639377D01*
X151611246Y-109713143D01*
X151592056Y-109771381D01*
X151581791Y-109823673D01*
X151577672Y-109879600D01*
X151576917Y-109948743D01*
X145876659Y-109948743D01*
X146051326Y-109705350D01*
X146344056Y-109356828D01*
X146662011Y-109041803D01*
X147006665Y-108758976D01*
X147379488Y-108507050D01*
X147781954Y-108284728D01*
X147984828Y-108188588D01*
X148370831Y-108033534D01*
X148758536Y-107915690D01*
X149154758Y-107833476D01*
X149566308Y-107785307D01*
X150000000Y-107769603D01*
X150303301Y-107776909D01*
X150703391Y-107812279D01*
X151086360Y-107878752D01*
X151460642Y-107978287D01*
X151834671Y-108112843D01*
X152216881Y-108284378D01*
X152507735Y-108438840D01*
X152865307Y-108666392D01*
X153202559Y-108926864D01*
X153525457Y-109224543D01*
X153744280Y-109456512D01*
X154016397Y-109791527D01*
X154123962Y-109951612D01*
X154254634Y-110146087D01*
G37*
%TD*%
M02*
