%TF.GenerationSoftware,KiCad,Pcbnew,9.0.1*%
%TF.CreationDate,2025-06-13T20:46:25+10:00*%
%TF.ProjectId,Mixer,4d697865-722e-46b6-9963-61645f706362,rev?*%
%TF.SameCoordinates,Original*%
%TF.FileFunction,Legend,Top*%
%TF.FilePolarity,Positive*%
%FSLAX46Y46*%
G04 Gerber Fmt 4.6, Leading zero omitted, Abs format (unit mm)*
G04 Created by KiCad (PCBNEW 9.0.1) date 2025-06-13 20:46:25*
%MOMM*%
%LPD*%
G01*
G04 APERTURE LIST*
%ADD10C,0.500000*%
%ADD11C,0.300000*%
%ADD12C,0.150000*%
%ADD13C,0.120000*%
G04 APERTURE END LIST*
D10*
X154443233Y-56306856D02*
X154443233Y-53306856D01*
X154443233Y-53306856D02*
X155443233Y-55449713D01*
X155443233Y-55449713D02*
X156443233Y-53306856D01*
X156443233Y-53306856D02*
X156443233Y-56306856D01*
X157871804Y-56306856D02*
X157871804Y-53306856D01*
X159014661Y-53306856D02*
X161014661Y-56306856D01*
X161014661Y-53306856D02*
X159014661Y-56306856D01*
X153800000Y-57700000D02*
G75*
G02*
X152300000Y-56200000I1J1500001D01*
G01*
X163300001Y-53199999D02*
X163300001Y-56199999D01*
X161800001Y-51699999D02*
G75*
G02*
X163300001Y-53199999I-1J-1500001D01*
G01*
X153800000Y-57699999D02*
X161800002Y-57700000D01*
X152300000Y-53199998D02*
X152300000Y-56199998D01*
X152300000Y-53199998D02*
G75*
G02*
X153800000Y-51699998I1500001J-1D01*
G01*
X153800001Y-51699998D02*
X161800001Y-51699999D01*
X163300002Y-56200000D02*
G75*
G02*
X161800002Y-57700000I-1500001J1D01*
G01*
D11*
X138047619Y-57659638D02*
X138047619Y-55659638D01*
X138047619Y-55659638D02*
X139190476Y-57659638D01*
X139190476Y-57659638D02*
X139190476Y-55659638D01*
X140523809Y-55659638D02*
X140904762Y-55659638D01*
X140904762Y-55659638D02*
X141095238Y-55754876D01*
X141095238Y-55754876D02*
X141285714Y-55945352D01*
X141285714Y-55945352D02*
X141380952Y-56326304D01*
X141380952Y-56326304D02*
X141380952Y-56992971D01*
X141380952Y-56992971D02*
X141285714Y-57373923D01*
X141285714Y-57373923D02*
X141095238Y-57564400D01*
X141095238Y-57564400D02*
X140904762Y-57659638D01*
X140904762Y-57659638D02*
X140523809Y-57659638D01*
X140523809Y-57659638D02*
X140333333Y-57564400D01*
X140333333Y-57564400D02*
X140142857Y-57373923D01*
X140142857Y-57373923D02*
X140047619Y-56992971D01*
X140047619Y-56992971D02*
X140047619Y-56326304D01*
X140047619Y-56326304D02*
X140142857Y-55945352D01*
X140142857Y-55945352D02*
X140333333Y-55754876D01*
X140333333Y-55754876D02*
X140523809Y-55659638D01*
X142238095Y-57659638D02*
X142238095Y-55659638D01*
X143095238Y-57564400D02*
X143380952Y-57659638D01*
X143380952Y-57659638D02*
X143857143Y-57659638D01*
X143857143Y-57659638D02*
X144047619Y-57564400D01*
X144047619Y-57564400D02*
X144142857Y-57469161D01*
X144142857Y-57469161D02*
X144238095Y-57278685D01*
X144238095Y-57278685D02*
X144238095Y-57088209D01*
X144238095Y-57088209D02*
X144142857Y-56897733D01*
X144142857Y-56897733D02*
X144047619Y-56802495D01*
X144047619Y-56802495D02*
X143857143Y-56707257D01*
X143857143Y-56707257D02*
X143476190Y-56612019D01*
X143476190Y-56612019D02*
X143285714Y-56516780D01*
X143285714Y-56516780D02*
X143190476Y-56421542D01*
X143190476Y-56421542D02*
X143095238Y-56231066D01*
X143095238Y-56231066D02*
X143095238Y-56040590D01*
X143095238Y-56040590D02*
X143190476Y-55850114D01*
X143190476Y-55850114D02*
X143285714Y-55754876D01*
X143285714Y-55754876D02*
X143476190Y-55659638D01*
X143476190Y-55659638D02*
X143952381Y-55659638D01*
X143952381Y-55659638D02*
X144238095Y-55754876D01*
X145095238Y-56612019D02*
X145761905Y-56612019D01*
X146047619Y-57659638D02*
X145095238Y-57659638D01*
X145095238Y-57659638D02*
X145095238Y-55659638D01*
X145095238Y-55659638D02*
X146047619Y-55659638D01*
X154761905Y-108909638D02*
X154761905Y-106909638D01*
X155714286Y-108909638D02*
X155714286Y-106909638D01*
X155714286Y-106909638D02*
X156857143Y-108909638D01*
X156857143Y-108909638D02*
X156857143Y-106909638D01*
X157809524Y-108147733D02*
X159333334Y-108147733D01*
X160190476Y-107100114D02*
X160285714Y-107004876D01*
X160285714Y-107004876D02*
X160476190Y-106909638D01*
X160476190Y-106909638D02*
X160952381Y-106909638D01*
X160952381Y-106909638D02*
X161142857Y-107004876D01*
X161142857Y-107004876D02*
X161238095Y-107100114D01*
X161238095Y-107100114D02*
X161333333Y-107290590D01*
X161333333Y-107290590D02*
X161333333Y-107481066D01*
X161333333Y-107481066D02*
X161238095Y-107766780D01*
X161238095Y-107766780D02*
X160095238Y-108909638D01*
X160095238Y-108909638D02*
X161333333Y-108909638D01*
X138761905Y-108909638D02*
X138761905Y-106909638D01*
X139714286Y-108909638D02*
X139714286Y-106909638D01*
X139714286Y-106909638D02*
X140857143Y-108909638D01*
X140857143Y-108909638D02*
X140857143Y-106909638D01*
X141809524Y-108147733D02*
X143333334Y-108147733D01*
X145333333Y-108909638D02*
X144190476Y-108909638D01*
X144761904Y-108909638D02*
X144761904Y-106909638D01*
X144761904Y-106909638D02*
X144571428Y-107195352D01*
X144571428Y-107195352D02*
X144380952Y-107385828D01*
X144380952Y-107385828D02*
X144190476Y-107481066D01*
D12*
X162454819Y-78166666D02*
X161978628Y-78499999D01*
X162454819Y-78738094D02*
X161454819Y-78738094D01*
X161454819Y-78738094D02*
X161454819Y-78357142D01*
X161454819Y-78357142D02*
X161502438Y-78261904D01*
X161502438Y-78261904D02*
X161550057Y-78214285D01*
X161550057Y-78214285D02*
X161645295Y-78166666D01*
X161645295Y-78166666D02*
X161788152Y-78166666D01*
X161788152Y-78166666D02*
X161883390Y-78214285D01*
X161883390Y-78214285D02*
X161931009Y-78261904D01*
X161931009Y-78261904D02*
X161978628Y-78357142D01*
X161978628Y-78357142D02*
X161978628Y-78738094D01*
X161454819Y-77309523D02*
X161454819Y-77499999D01*
X161454819Y-77499999D02*
X161502438Y-77595237D01*
X161502438Y-77595237D02*
X161550057Y-77642856D01*
X161550057Y-77642856D02*
X161692914Y-77738094D01*
X161692914Y-77738094D02*
X161883390Y-77785713D01*
X161883390Y-77785713D02*
X162264342Y-77785713D01*
X162264342Y-77785713D02*
X162359580Y-77738094D01*
X162359580Y-77738094D02*
X162407200Y-77690475D01*
X162407200Y-77690475D02*
X162454819Y-77595237D01*
X162454819Y-77595237D02*
X162454819Y-77404761D01*
X162454819Y-77404761D02*
X162407200Y-77309523D01*
X162407200Y-77309523D02*
X162359580Y-77261904D01*
X162359580Y-77261904D02*
X162264342Y-77214285D01*
X162264342Y-77214285D02*
X162026247Y-77214285D01*
X162026247Y-77214285D02*
X161931009Y-77261904D01*
X161931009Y-77261904D02*
X161883390Y-77309523D01*
X161883390Y-77309523D02*
X161835771Y-77404761D01*
X161835771Y-77404761D02*
X161835771Y-77595237D01*
X161835771Y-77595237D02*
X161883390Y-77690475D01*
X161883390Y-77690475D02*
X161931009Y-77738094D01*
X161931009Y-77738094D02*
X162026247Y-77785713D01*
X141404761Y-135017320D02*
X141071428Y-134541129D01*
X140833333Y-135017320D02*
X140833333Y-134017320D01*
X140833333Y-134017320D02*
X141214285Y-134017320D01*
X141214285Y-134017320D02*
X141309523Y-134064939D01*
X141309523Y-134064939D02*
X141357142Y-134112558D01*
X141357142Y-134112558D02*
X141404761Y-134207796D01*
X141404761Y-134207796D02*
X141404761Y-134350653D01*
X141404761Y-134350653D02*
X141357142Y-134445891D01*
X141357142Y-134445891D02*
X141309523Y-134493510D01*
X141309523Y-134493510D02*
X141214285Y-134541129D01*
X141214285Y-134541129D02*
X140833333Y-134541129D01*
X141690476Y-134017320D02*
X142023809Y-135017320D01*
X142023809Y-135017320D02*
X142357142Y-134017320D01*
X143214285Y-135017320D02*
X142642857Y-135017320D01*
X142928571Y-135017320D02*
X142928571Y-134017320D01*
X142928571Y-134017320D02*
X142833333Y-134160177D01*
X142833333Y-134160177D02*
X142738095Y-134255415D01*
X142738095Y-134255415D02*
X142642857Y-134303034D01*
X142454819Y-78166666D02*
X141978628Y-78499999D01*
X142454819Y-78738094D02*
X141454819Y-78738094D01*
X141454819Y-78738094D02*
X141454819Y-78357142D01*
X141454819Y-78357142D02*
X141502438Y-78261904D01*
X141502438Y-78261904D02*
X141550057Y-78214285D01*
X141550057Y-78214285D02*
X141645295Y-78166666D01*
X141645295Y-78166666D02*
X141788152Y-78166666D01*
X141788152Y-78166666D02*
X141883390Y-78214285D01*
X141883390Y-78214285D02*
X141931009Y-78261904D01*
X141931009Y-78261904D02*
X141978628Y-78357142D01*
X141978628Y-78357142D02*
X141978628Y-78738094D01*
X141788152Y-77309523D02*
X142454819Y-77309523D01*
X141407200Y-77547618D02*
X142121485Y-77785713D01*
X142121485Y-77785713D02*
X142121485Y-77166666D01*
X161696666Y-121154819D02*
X161696666Y-121869104D01*
X161696666Y-121869104D02*
X161649047Y-122011961D01*
X161649047Y-122011961D02*
X161553809Y-122107200D01*
X161553809Y-122107200D02*
X161410952Y-122154819D01*
X161410952Y-122154819D02*
X161315714Y-122154819D01*
X162125238Y-121250057D02*
X162172857Y-121202438D01*
X162172857Y-121202438D02*
X162268095Y-121154819D01*
X162268095Y-121154819D02*
X162506190Y-121154819D01*
X162506190Y-121154819D02*
X162601428Y-121202438D01*
X162601428Y-121202438D02*
X162649047Y-121250057D01*
X162649047Y-121250057D02*
X162696666Y-121345295D01*
X162696666Y-121345295D02*
X162696666Y-121440533D01*
X162696666Y-121440533D02*
X162649047Y-121583390D01*
X162649047Y-121583390D02*
X162077619Y-122154819D01*
X162077619Y-122154819D02*
X162696666Y-122154819D01*
X153636666Y-59054819D02*
X153636666Y-59769104D01*
X153636666Y-59769104D02*
X153589047Y-59911961D01*
X153589047Y-59911961D02*
X153493809Y-60007200D01*
X153493809Y-60007200D02*
X153350952Y-60054819D01*
X153350952Y-60054819D02*
X153255714Y-60054819D01*
X154017619Y-59054819D02*
X154636666Y-59054819D01*
X154636666Y-59054819D02*
X154303333Y-59435771D01*
X154303333Y-59435771D02*
X154446190Y-59435771D01*
X154446190Y-59435771D02*
X154541428Y-59483390D01*
X154541428Y-59483390D02*
X154589047Y-59531009D01*
X154589047Y-59531009D02*
X154636666Y-59626247D01*
X154636666Y-59626247D02*
X154636666Y-59864342D01*
X154636666Y-59864342D02*
X154589047Y-59959580D01*
X154589047Y-59959580D02*
X154541428Y-60007200D01*
X154541428Y-60007200D02*
X154446190Y-60054819D01*
X154446190Y-60054819D02*
X154160476Y-60054819D01*
X154160476Y-60054819D02*
X154065238Y-60007200D01*
X154065238Y-60007200D02*
X154017619Y-59959580D01*
X145696666Y-121154819D02*
X145696666Y-121869104D01*
X145696666Y-121869104D02*
X145649047Y-122011961D01*
X145649047Y-122011961D02*
X145553809Y-122107200D01*
X145553809Y-122107200D02*
X145410952Y-122154819D01*
X145410952Y-122154819D02*
X145315714Y-122154819D01*
X146696666Y-122154819D02*
X146125238Y-122154819D01*
X146410952Y-122154819D02*
X146410952Y-121154819D01*
X146410952Y-121154819D02*
X146315714Y-121297676D01*
X146315714Y-121297676D02*
X146220476Y-121392914D01*
X146220476Y-121392914D02*
X146125238Y-121440533D01*
X142454819Y-102166666D02*
X141978628Y-102499999D01*
X142454819Y-102738094D02*
X141454819Y-102738094D01*
X141454819Y-102738094D02*
X141454819Y-102357142D01*
X141454819Y-102357142D02*
X141502438Y-102261904D01*
X141502438Y-102261904D02*
X141550057Y-102214285D01*
X141550057Y-102214285D02*
X141645295Y-102166666D01*
X141645295Y-102166666D02*
X141788152Y-102166666D01*
X141788152Y-102166666D02*
X141883390Y-102214285D01*
X141883390Y-102214285D02*
X141931009Y-102261904D01*
X141931009Y-102261904D02*
X141978628Y-102357142D01*
X141978628Y-102357142D02*
X141978628Y-102738094D01*
X141550057Y-101785713D02*
X141502438Y-101738094D01*
X141502438Y-101738094D02*
X141454819Y-101642856D01*
X141454819Y-101642856D02*
X141454819Y-101404761D01*
X141454819Y-101404761D02*
X141502438Y-101309523D01*
X141502438Y-101309523D02*
X141550057Y-101261904D01*
X141550057Y-101261904D02*
X141645295Y-101214285D01*
X141645295Y-101214285D02*
X141740533Y-101214285D01*
X141740533Y-101214285D02*
X141883390Y-101261904D01*
X141883390Y-101261904D02*
X142454819Y-101833332D01*
X142454819Y-101833332D02*
X142454819Y-101214285D01*
X141666666Y-140454819D02*
X141666666Y-141169104D01*
X141666666Y-141169104D02*
X141619047Y-141311961D01*
X141619047Y-141311961D02*
X141523809Y-141407200D01*
X141523809Y-141407200D02*
X141380952Y-141454819D01*
X141380952Y-141454819D02*
X141285714Y-141454819D01*
X142619047Y-140454819D02*
X142142857Y-140454819D01*
X142142857Y-140454819D02*
X142095238Y-140931009D01*
X142095238Y-140931009D02*
X142142857Y-140883390D01*
X142142857Y-140883390D02*
X142238095Y-140835771D01*
X142238095Y-140835771D02*
X142476190Y-140835771D01*
X142476190Y-140835771D02*
X142571428Y-140883390D01*
X142571428Y-140883390D02*
X142619047Y-140931009D01*
X142619047Y-140931009D02*
X142666666Y-141026247D01*
X142666666Y-141026247D02*
X142666666Y-141264342D01*
X142666666Y-141264342D02*
X142619047Y-141359580D01*
X142619047Y-141359580D02*
X142571428Y-141407200D01*
X142571428Y-141407200D02*
X142476190Y-141454819D01*
X142476190Y-141454819D02*
X142238095Y-141454819D01*
X142238095Y-141454819D02*
X142142857Y-141407200D01*
X142142857Y-141407200D02*
X142095238Y-141359580D01*
X138454819Y-102166666D02*
X137978628Y-102499999D01*
X138454819Y-102738094D02*
X137454819Y-102738094D01*
X137454819Y-102738094D02*
X137454819Y-102357142D01*
X137454819Y-102357142D02*
X137502438Y-102261904D01*
X137502438Y-102261904D02*
X137550057Y-102214285D01*
X137550057Y-102214285D02*
X137645295Y-102166666D01*
X137645295Y-102166666D02*
X137788152Y-102166666D01*
X137788152Y-102166666D02*
X137883390Y-102214285D01*
X137883390Y-102214285D02*
X137931009Y-102261904D01*
X137931009Y-102261904D02*
X137978628Y-102357142D01*
X137978628Y-102357142D02*
X137978628Y-102738094D01*
X138454819Y-101214285D02*
X138454819Y-101785713D01*
X138454819Y-101499999D02*
X137454819Y-101499999D01*
X137454819Y-101499999D02*
X137597676Y-101595237D01*
X137597676Y-101595237D02*
X137692914Y-101690475D01*
X137692914Y-101690475D02*
X137740533Y-101785713D01*
X162454819Y-102166666D02*
X161978628Y-102499999D01*
X162454819Y-102738094D02*
X161454819Y-102738094D01*
X161454819Y-102738094D02*
X161454819Y-102357142D01*
X161454819Y-102357142D02*
X161502438Y-102261904D01*
X161502438Y-102261904D02*
X161550057Y-102214285D01*
X161550057Y-102214285D02*
X161645295Y-102166666D01*
X161645295Y-102166666D02*
X161788152Y-102166666D01*
X161788152Y-102166666D02*
X161883390Y-102214285D01*
X161883390Y-102214285D02*
X161931009Y-102261904D01*
X161931009Y-102261904D02*
X161978628Y-102357142D01*
X161978628Y-102357142D02*
X161978628Y-102738094D01*
X161883390Y-101595237D02*
X161835771Y-101690475D01*
X161835771Y-101690475D02*
X161788152Y-101738094D01*
X161788152Y-101738094D02*
X161692914Y-101785713D01*
X161692914Y-101785713D02*
X161645295Y-101785713D01*
X161645295Y-101785713D02*
X161550057Y-101738094D01*
X161550057Y-101738094D02*
X161502438Y-101690475D01*
X161502438Y-101690475D02*
X161454819Y-101595237D01*
X161454819Y-101595237D02*
X161454819Y-101404761D01*
X161454819Y-101404761D02*
X161502438Y-101309523D01*
X161502438Y-101309523D02*
X161550057Y-101261904D01*
X161550057Y-101261904D02*
X161645295Y-101214285D01*
X161645295Y-101214285D02*
X161692914Y-101214285D01*
X161692914Y-101214285D02*
X161788152Y-101261904D01*
X161788152Y-101261904D02*
X161835771Y-101309523D01*
X161835771Y-101309523D02*
X161883390Y-101404761D01*
X161883390Y-101404761D02*
X161883390Y-101595237D01*
X161883390Y-101595237D02*
X161931009Y-101690475D01*
X161931009Y-101690475D02*
X161978628Y-101738094D01*
X161978628Y-101738094D02*
X162073866Y-101785713D01*
X162073866Y-101785713D02*
X162264342Y-101785713D01*
X162264342Y-101785713D02*
X162359580Y-101738094D01*
X162359580Y-101738094D02*
X162407200Y-101690475D01*
X162407200Y-101690475D02*
X162454819Y-101595237D01*
X162454819Y-101595237D02*
X162454819Y-101404761D01*
X162454819Y-101404761D02*
X162407200Y-101309523D01*
X162407200Y-101309523D02*
X162359580Y-101261904D01*
X162359580Y-101261904D02*
X162264342Y-101214285D01*
X162264342Y-101214285D02*
X162073866Y-101214285D01*
X162073866Y-101214285D02*
X161978628Y-101261904D01*
X161978628Y-101261904D02*
X161931009Y-101309523D01*
X161931009Y-101309523D02*
X161883390Y-101404761D01*
X149833333Y-88359580D02*
X149785714Y-88407200D01*
X149785714Y-88407200D02*
X149642857Y-88454819D01*
X149642857Y-88454819D02*
X149547619Y-88454819D01*
X149547619Y-88454819D02*
X149404762Y-88407200D01*
X149404762Y-88407200D02*
X149309524Y-88311961D01*
X149309524Y-88311961D02*
X149261905Y-88216723D01*
X149261905Y-88216723D02*
X149214286Y-88026247D01*
X149214286Y-88026247D02*
X149214286Y-87883390D01*
X149214286Y-87883390D02*
X149261905Y-87692914D01*
X149261905Y-87692914D02*
X149309524Y-87597676D01*
X149309524Y-87597676D02*
X149404762Y-87502438D01*
X149404762Y-87502438D02*
X149547619Y-87454819D01*
X149547619Y-87454819D02*
X149642857Y-87454819D01*
X149642857Y-87454819D02*
X149785714Y-87502438D01*
X149785714Y-87502438D02*
X149833333Y-87550057D01*
X150785714Y-88454819D02*
X150214286Y-88454819D01*
X150500000Y-88454819D02*
X150500000Y-87454819D01*
X150500000Y-87454819D02*
X150404762Y-87597676D01*
X150404762Y-87597676D02*
X150309524Y-87692914D01*
X150309524Y-87692914D02*
X150214286Y-87740533D01*
X157666666Y-140454819D02*
X157666666Y-141169104D01*
X157666666Y-141169104D02*
X157619047Y-141311961D01*
X157619047Y-141311961D02*
X157523809Y-141407200D01*
X157523809Y-141407200D02*
X157380952Y-141454819D01*
X157380952Y-141454819D02*
X157285714Y-141454819D01*
X158571428Y-140454819D02*
X158380952Y-140454819D01*
X158380952Y-140454819D02*
X158285714Y-140502438D01*
X158285714Y-140502438D02*
X158238095Y-140550057D01*
X158238095Y-140550057D02*
X158142857Y-140692914D01*
X158142857Y-140692914D02*
X158095238Y-140883390D01*
X158095238Y-140883390D02*
X158095238Y-141264342D01*
X158095238Y-141264342D02*
X158142857Y-141359580D01*
X158142857Y-141359580D02*
X158190476Y-141407200D01*
X158190476Y-141407200D02*
X158285714Y-141454819D01*
X158285714Y-141454819D02*
X158476190Y-141454819D01*
X158476190Y-141454819D02*
X158571428Y-141407200D01*
X158571428Y-141407200D02*
X158619047Y-141359580D01*
X158619047Y-141359580D02*
X158666666Y-141264342D01*
X158666666Y-141264342D02*
X158666666Y-141026247D01*
X158666666Y-141026247D02*
X158619047Y-140931009D01*
X158619047Y-140931009D02*
X158571428Y-140883390D01*
X158571428Y-140883390D02*
X158476190Y-140835771D01*
X158476190Y-140835771D02*
X158285714Y-140835771D01*
X158285714Y-140835771D02*
X158190476Y-140883390D01*
X158190476Y-140883390D02*
X158142857Y-140931009D01*
X158142857Y-140931009D02*
X158095238Y-141026247D01*
X158454819Y-102166666D02*
X157978628Y-102499999D01*
X158454819Y-102738094D02*
X157454819Y-102738094D01*
X157454819Y-102738094D02*
X157454819Y-102357142D01*
X157454819Y-102357142D02*
X157502438Y-102261904D01*
X157502438Y-102261904D02*
X157550057Y-102214285D01*
X157550057Y-102214285D02*
X157645295Y-102166666D01*
X157645295Y-102166666D02*
X157788152Y-102166666D01*
X157788152Y-102166666D02*
X157883390Y-102214285D01*
X157883390Y-102214285D02*
X157931009Y-102261904D01*
X157931009Y-102261904D02*
X157978628Y-102357142D01*
X157978628Y-102357142D02*
X157978628Y-102738094D01*
X157454819Y-101833332D02*
X157454819Y-101166666D01*
X157454819Y-101166666D02*
X158454819Y-101595237D01*
X149833333Y-104359580D02*
X149785714Y-104407200D01*
X149785714Y-104407200D02*
X149642857Y-104454819D01*
X149642857Y-104454819D02*
X149547619Y-104454819D01*
X149547619Y-104454819D02*
X149404762Y-104407200D01*
X149404762Y-104407200D02*
X149309524Y-104311961D01*
X149309524Y-104311961D02*
X149261905Y-104216723D01*
X149261905Y-104216723D02*
X149214286Y-104026247D01*
X149214286Y-104026247D02*
X149214286Y-103883390D01*
X149214286Y-103883390D02*
X149261905Y-103692914D01*
X149261905Y-103692914D02*
X149309524Y-103597676D01*
X149309524Y-103597676D02*
X149404762Y-103502438D01*
X149404762Y-103502438D02*
X149547619Y-103454819D01*
X149547619Y-103454819D02*
X149642857Y-103454819D01*
X149642857Y-103454819D02*
X149785714Y-103502438D01*
X149785714Y-103502438D02*
X149833333Y-103550057D01*
X150166667Y-103454819D02*
X150785714Y-103454819D01*
X150785714Y-103454819D02*
X150452381Y-103835771D01*
X150452381Y-103835771D02*
X150595238Y-103835771D01*
X150595238Y-103835771D02*
X150690476Y-103883390D01*
X150690476Y-103883390D02*
X150738095Y-103931009D01*
X150738095Y-103931009D02*
X150785714Y-104026247D01*
X150785714Y-104026247D02*
X150785714Y-104264342D01*
X150785714Y-104264342D02*
X150738095Y-104359580D01*
X150738095Y-104359580D02*
X150690476Y-104407200D01*
X150690476Y-104407200D02*
X150595238Y-104454819D01*
X150595238Y-104454819D02*
X150309524Y-104454819D01*
X150309524Y-104454819D02*
X150214286Y-104407200D01*
X150214286Y-104407200D02*
X150166667Y-104359580D01*
X145904761Y-83750057D02*
X145809523Y-83702438D01*
X145809523Y-83702438D02*
X145714285Y-83607200D01*
X145714285Y-83607200D02*
X145571428Y-83464342D01*
X145571428Y-83464342D02*
X145476190Y-83416723D01*
X145476190Y-83416723D02*
X145380952Y-83416723D01*
X145428571Y-83654819D02*
X145333333Y-83607200D01*
X145333333Y-83607200D02*
X145238095Y-83511961D01*
X145238095Y-83511961D02*
X145190476Y-83321485D01*
X145190476Y-83321485D02*
X145190476Y-82988152D01*
X145190476Y-82988152D02*
X145238095Y-82797676D01*
X145238095Y-82797676D02*
X145333333Y-82702438D01*
X145333333Y-82702438D02*
X145428571Y-82654819D01*
X145428571Y-82654819D02*
X145619047Y-82654819D01*
X145619047Y-82654819D02*
X145714285Y-82702438D01*
X145714285Y-82702438D02*
X145809523Y-82797676D01*
X145809523Y-82797676D02*
X145857142Y-82988152D01*
X145857142Y-82988152D02*
X145857142Y-83321485D01*
X145857142Y-83321485D02*
X145809523Y-83511961D01*
X145809523Y-83511961D02*
X145714285Y-83607200D01*
X145714285Y-83607200D02*
X145619047Y-83654819D01*
X145619047Y-83654819D02*
X145428571Y-83654819D01*
X146809523Y-83654819D02*
X146238095Y-83654819D01*
X146523809Y-83654819D02*
X146523809Y-82654819D01*
X146523809Y-82654819D02*
X146428571Y-82797676D01*
X146428571Y-82797676D02*
X146333333Y-82892914D01*
X146333333Y-82892914D02*
X146238095Y-82940533D01*
X157404761Y-135017320D02*
X157071428Y-134541129D01*
X156833333Y-135017320D02*
X156833333Y-134017320D01*
X156833333Y-134017320D02*
X157214285Y-134017320D01*
X157214285Y-134017320D02*
X157309523Y-134064939D01*
X157309523Y-134064939D02*
X157357142Y-134112558D01*
X157357142Y-134112558D02*
X157404761Y-134207796D01*
X157404761Y-134207796D02*
X157404761Y-134350653D01*
X157404761Y-134350653D02*
X157357142Y-134445891D01*
X157357142Y-134445891D02*
X157309523Y-134493510D01*
X157309523Y-134493510D02*
X157214285Y-134541129D01*
X157214285Y-134541129D02*
X156833333Y-134541129D01*
X157690476Y-134017320D02*
X158023809Y-135017320D01*
X158023809Y-135017320D02*
X158357142Y-134017320D01*
X158642857Y-134112558D02*
X158690476Y-134064939D01*
X158690476Y-134064939D02*
X158785714Y-134017320D01*
X158785714Y-134017320D02*
X159023809Y-134017320D01*
X159023809Y-134017320D02*
X159119047Y-134064939D01*
X159119047Y-134064939D02*
X159166666Y-134112558D01*
X159166666Y-134112558D02*
X159214285Y-134207796D01*
X159214285Y-134207796D02*
X159214285Y-134303034D01*
X159214285Y-134303034D02*
X159166666Y-134445891D01*
X159166666Y-134445891D02*
X158595238Y-135017320D01*
X158595238Y-135017320D02*
X159214285Y-135017320D01*
X159833333Y-75359580D02*
X159785714Y-75407200D01*
X159785714Y-75407200D02*
X159642857Y-75454819D01*
X159642857Y-75454819D02*
X159547619Y-75454819D01*
X159547619Y-75454819D02*
X159404762Y-75407200D01*
X159404762Y-75407200D02*
X159309524Y-75311961D01*
X159309524Y-75311961D02*
X159261905Y-75216723D01*
X159261905Y-75216723D02*
X159214286Y-75026247D01*
X159214286Y-75026247D02*
X159214286Y-74883390D01*
X159214286Y-74883390D02*
X159261905Y-74692914D01*
X159261905Y-74692914D02*
X159309524Y-74597676D01*
X159309524Y-74597676D02*
X159404762Y-74502438D01*
X159404762Y-74502438D02*
X159547619Y-74454819D01*
X159547619Y-74454819D02*
X159642857Y-74454819D01*
X159642857Y-74454819D02*
X159785714Y-74502438D01*
X159785714Y-74502438D02*
X159833333Y-74550057D01*
X160214286Y-74550057D02*
X160261905Y-74502438D01*
X160261905Y-74502438D02*
X160357143Y-74454819D01*
X160357143Y-74454819D02*
X160595238Y-74454819D01*
X160595238Y-74454819D02*
X160690476Y-74502438D01*
X160690476Y-74502438D02*
X160738095Y-74550057D01*
X160738095Y-74550057D02*
X160785714Y-74645295D01*
X160785714Y-74645295D02*
X160785714Y-74740533D01*
X160785714Y-74740533D02*
X160738095Y-74883390D01*
X160738095Y-74883390D02*
X160166667Y-75454819D01*
X160166667Y-75454819D02*
X160785714Y-75454819D01*
X141404761Y-65454819D02*
X141071428Y-64978628D01*
X140833333Y-65454819D02*
X140833333Y-64454819D01*
X140833333Y-64454819D02*
X141214285Y-64454819D01*
X141214285Y-64454819D02*
X141309523Y-64502438D01*
X141309523Y-64502438D02*
X141357142Y-64550057D01*
X141357142Y-64550057D02*
X141404761Y-64645295D01*
X141404761Y-64645295D02*
X141404761Y-64788152D01*
X141404761Y-64788152D02*
X141357142Y-64883390D01*
X141357142Y-64883390D02*
X141309523Y-64931009D01*
X141309523Y-64931009D02*
X141214285Y-64978628D01*
X141214285Y-64978628D02*
X140833333Y-64978628D01*
X141690476Y-64454819D02*
X142023809Y-65454819D01*
X142023809Y-65454819D02*
X142357142Y-64454819D01*
X142595238Y-64454819D02*
X143214285Y-64454819D01*
X143214285Y-64454819D02*
X142880952Y-64835771D01*
X142880952Y-64835771D02*
X143023809Y-64835771D01*
X143023809Y-64835771D02*
X143119047Y-64883390D01*
X143119047Y-64883390D02*
X143166666Y-64931009D01*
X143166666Y-64931009D02*
X143214285Y-65026247D01*
X143214285Y-65026247D02*
X143214285Y-65264342D01*
X143214285Y-65264342D02*
X143166666Y-65359580D01*
X143166666Y-65359580D02*
X143119047Y-65407200D01*
X143119047Y-65407200D02*
X143023809Y-65454819D01*
X143023809Y-65454819D02*
X142738095Y-65454819D01*
X142738095Y-65454819D02*
X142642857Y-65407200D01*
X142642857Y-65407200D02*
X142595238Y-65359580D01*
X138454819Y-78166666D02*
X137978628Y-78499999D01*
X138454819Y-78738094D02*
X137454819Y-78738094D01*
X137454819Y-78738094D02*
X137454819Y-78357142D01*
X137454819Y-78357142D02*
X137502438Y-78261904D01*
X137502438Y-78261904D02*
X137550057Y-78214285D01*
X137550057Y-78214285D02*
X137645295Y-78166666D01*
X137645295Y-78166666D02*
X137788152Y-78166666D01*
X137788152Y-78166666D02*
X137883390Y-78214285D01*
X137883390Y-78214285D02*
X137931009Y-78261904D01*
X137931009Y-78261904D02*
X137978628Y-78357142D01*
X137978628Y-78357142D02*
X137978628Y-78738094D01*
X137454819Y-77833332D02*
X137454819Y-77214285D01*
X137454819Y-77214285D02*
X137835771Y-77547618D01*
X137835771Y-77547618D02*
X137835771Y-77404761D01*
X137835771Y-77404761D02*
X137883390Y-77309523D01*
X137883390Y-77309523D02*
X137931009Y-77261904D01*
X137931009Y-77261904D02*
X138026247Y-77214285D01*
X138026247Y-77214285D02*
X138264342Y-77214285D01*
X138264342Y-77214285D02*
X138359580Y-77261904D01*
X138359580Y-77261904D02*
X138407200Y-77309523D01*
X138407200Y-77309523D02*
X138454819Y-77404761D01*
X138454819Y-77404761D02*
X138454819Y-77690475D01*
X138454819Y-77690475D02*
X138407200Y-77785713D01*
X138407200Y-77785713D02*
X138359580Y-77833332D01*
X158454819Y-78166666D02*
X157978628Y-78499999D01*
X158454819Y-78738094D02*
X157454819Y-78738094D01*
X157454819Y-78738094D02*
X157454819Y-78357142D01*
X157454819Y-78357142D02*
X157502438Y-78261904D01*
X157502438Y-78261904D02*
X157550057Y-78214285D01*
X157550057Y-78214285D02*
X157645295Y-78166666D01*
X157645295Y-78166666D02*
X157788152Y-78166666D01*
X157788152Y-78166666D02*
X157883390Y-78214285D01*
X157883390Y-78214285D02*
X157931009Y-78261904D01*
X157931009Y-78261904D02*
X157978628Y-78357142D01*
X157978628Y-78357142D02*
X157978628Y-78738094D01*
X157454819Y-77261904D02*
X157454819Y-77738094D01*
X157454819Y-77738094D02*
X157931009Y-77785713D01*
X157931009Y-77785713D02*
X157883390Y-77738094D01*
X157883390Y-77738094D02*
X157835771Y-77642856D01*
X157835771Y-77642856D02*
X157835771Y-77404761D01*
X157835771Y-77404761D02*
X157883390Y-77309523D01*
X157883390Y-77309523D02*
X157931009Y-77261904D01*
X157931009Y-77261904D02*
X158026247Y-77214285D01*
X158026247Y-77214285D02*
X158264342Y-77214285D01*
X158264342Y-77214285D02*
X158359580Y-77261904D01*
X158359580Y-77261904D02*
X158407200Y-77309523D01*
X158407200Y-77309523D02*
X158454819Y-77404761D01*
X158454819Y-77404761D02*
X158454819Y-77642856D01*
X158454819Y-77642856D02*
X158407200Y-77738094D01*
X158407200Y-77738094D02*
X158359580Y-77785713D01*
X149303095Y-95524819D02*
X149303095Y-96334342D01*
X149303095Y-96334342D02*
X149350714Y-96429580D01*
X149350714Y-96429580D02*
X149398333Y-96477200D01*
X149398333Y-96477200D02*
X149493571Y-96524819D01*
X149493571Y-96524819D02*
X149684047Y-96524819D01*
X149684047Y-96524819D02*
X149779285Y-96477200D01*
X149779285Y-96477200D02*
X149826904Y-96429580D01*
X149826904Y-96429580D02*
X149874523Y-96334342D01*
X149874523Y-96334342D02*
X149874523Y-95524819D01*
X150874523Y-96524819D02*
X150303095Y-96524819D01*
X150588809Y-96524819D02*
X150588809Y-95524819D01*
X150588809Y-95524819D02*
X150493571Y-95667676D01*
X150493571Y-95667676D02*
X150398333Y-95762914D01*
X150398333Y-95762914D02*
X150303095Y-95810533D01*
D13*
%TO.C,R6*%
X160630000Y-80730000D02*
X160960000Y-80730000D01*
X160630000Y-87270000D02*
X160630000Y-80730000D01*
X160960000Y-87270000D02*
X160630000Y-87270000D01*
X163040000Y-87270000D02*
X163370000Y-87270000D01*
X163370000Y-80730000D02*
X163040000Y-80730000D01*
X163370000Y-87270000D02*
X163370000Y-80730000D01*
%TO.C,RV1*%
X137100001Y-129062501D02*
X137100000Y-132462502D01*
X137100001Y-136662501D02*
X137100001Y-140062501D01*
X137100001Y-140062501D02*
X146899999Y-140062501D01*
X146899999Y-129062501D02*
X137100001Y-129062501D01*
X146899999Y-129062501D02*
X146899999Y-132462501D01*
X146900000Y-136662500D02*
X146899999Y-140062501D01*
X139279707Y-133202354D02*
G75*
G02*
X144699999Y-133162502I2720293J-1360147D01*
G01*
X144720293Y-135922648D02*
G75*
G02*
X139300001Y-135962500I-2720293J1360147D01*
G01*
%TO.C,R4*%
X140630000Y-80730000D02*
X140960000Y-80730000D01*
X140630000Y-87270000D02*
X140630000Y-80730000D01*
X140960000Y-87270000D02*
X140630000Y-87270000D01*
X143040000Y-87270000D02*
X143370000Y-87270000D01*
X143370000Y-80730000D02*
X143040000Y-80730000D01*
X143370000Y-87270000D02*
X143370000Y-80730000D01*
%TO.C,J2*%
X153500000Y-110300000D02*
X157200000Y-110300000D01*
X153500000Y-120800000D02*
X153500000Y-110300000D01*
X153500000Y-120800000D02*
X157280001Y-120800000D01*
X158719999Y-120800000D02*
X162500000Y-120800000D01*
X158800000Y-110300000D02*
X162500000Y-110300000D01*
X159230000Y-123950000D02*
X158370000Y-123949999D01*
X159230000Y-123950000D02*
X159230000Y-123150000D01*
X162500000Y-120800000D02*
X162500000Y-110300000D01*
X159800000Y-116300000D02*
G75*
G02*
X156200000Y-116300000I-1800000J0D01*
G01*
X156200000Y-116300000D02*
G75*
G02*
X159800000Y-116300000I1800000J0D01*
G01*
%TO.C,J3*%
X153500000Y-60500000D02*
X153500000Y-71000000D01*
X156770000Y-57350000D02*
X156770000Y-58150000D01*
X156770000Y-57350000D02*
X157630000Y-57350000D01*
X157200000Y-71000000D02*
X153500000Y-71000000D01*
X157280000Y-60500000D02*
X153500000Y-60500000D01*
X162500000Y-60500000D02*
X158720000Y-60500000D01*
X162500000Y-60500000D02*
X162500000Y-71000000D01*
X162500000Y-71000000D02*
X158800000Y-71000000D01*
X159800000Y-65000000D02*
G75*
G02*
X156200000Y-65000000I-1800000J0D01*
G01*
X156200000Y-65000000D02*
G75*
G02*
X159800000Y-65000000I1800000J0D01*
G01*
%TO.C,J1*%
X137500000Y-110300000D02*
X141200000Y-110300000D01*
X137500000Y-120800000D02*
X137500000Y-110300000D01*
X137500000Y-120800000D02*
X141280001Y-120800000D01*
X142719999Y-120800000D02*
X146500000Y-120800000D01*
X142800000Y-110300000D02*
X146500000Y-110300000D01*
X143230000Y-123950000D02*
X142370000Y-123949999D01*
X143230000Y-123950000D02*
X143230000Y-123150000D01*
X146500000Y-120800000D02*
X146500000Y-110300000D01*
X143800000Y-116300000D02*
G75*
G02*
X140200000Y-116300000I-1800000J0D01*
G01*
X140200000Y-116300000D02*
G75*
G02*
X143800000Y-116300000I1800000J0D01*
G01*
%TO.C,R2*%
X140630000Y-92730000D02*
X140960000Y-92730000D01*
X140630000Y-99270000D02*
X140630000Y-92730000D01*
X140960000Y-99270000D02*
X140630000Y-99270000D01*
X143040000Y-99270000D02*
X143370000Y-99270000D01*
X143370000Y-92730000D02*
X143040000Y-92730000D01*
X143370000Y-99270000D02*
X143370000Y-92730000D01*
%TO.C,J5*%
X137940000Y-142090000D02*
X137940000Y-149910000D01*
X137940000Y-143690000D02*
X138860000Y-143690000D01*
X137940000Y-149910000D02*
X146060000Y-149910000D01*
X138700000Y-146050000D02*
X138700000Y-147650000D01*
X138700000Y-147650000D02*
X139700000Y-147650000D01*
X138860000Y-142090000D02*
X137940000Y-142090000D01*
X138860000Y-143690000D02*
X138860000Y-142090000D01*
X139140000Y-143690000D02*
X138860000Y-143690000D01*
X139140000Y-143690000D02*
X139140000Y-142475000D01*
X139200000Y-147650000D02*
X139200000Y-149910000D01*
X139700000Y-146050000D02*
X138700000Y-146050000D01*
X139700000Y-147650000D02*
X139700000Y-146050000D01*
X139700000Y-147650000D02*
X139700000Y-149910000D01*
X140500000Y-145550000D02*
X143500000Y-145550000D01*
X140500000Y-149910000D02*
X140500000Y-145550000D01*
X143500000Y-145550000D02*
X143500000Y-149910000D01*
X144300000Y-146050000D02*
X145300000Y-146050000D01*
X144300000Y-147650000D02*
X144300000Y-146050000D01*
X145140000Y-142090000D02*
X145140000Y-143690000D01*
X145140000Y-143690000D02*
X144860000Y-143690000D01*
X145300000Y-146050000D02*
X145300000Y-147650000D01*
X145300000Y-147650000D02*
X144300000Y-147650000D01*
X146060000Y-142090000D02*
X145140000Y-142090000D01*
X146060000Y-143690000D02*
X145140000Y-143690000D01*
X146060000Y-149910000D02*
X146060000Y-142090000D01*
%TO.C,R1*%
X136630000Y-92730000D02*
X136960000Y-92730000D01*
X136630000Y-99270000D02*
X136630000Y-92730000D01*
X136960000Y-99270000D02*
X136630000Y-99270000D01*
X139040000Y-99270000D02*
X139370000Y-99270000D01*
X139370000Y-92730000D02*
X139040000Y-92730000D01*
X139370000Y-99270000D02*
X139370000Y-92730000D01*
%TO.C,R8*%
X160630000Y-92730000D02*
X160630000Y-99270000D01*
X160630000Y-99270000D02*
X160960000Y-99270000D01*
X160960000Y-92730000D02*
X160630000Y-92730000D01*
X163040000Y-92730000D02*
X163370000Y-92730000D01*
X163370000Y-92730000D02*
X163370000Y-99270000D01*
X163370000Y-99270000D02*
X163040000Y-99270000D01*
%TO.C,C1*%
X147440000Y-87004000D02*
X147440000Y-86690000D01*
X147440000Y-89310000D02*
X147440000Y-88996000D01*
X152560000Y-86690000D02*
X147440000Y-86690000D01*
X152560000Y-87004000D02*
X152560000Y-86690000D01*
X152560000Y-89310000D02*
X147440000Y-89310000D01*
X152560000Y-89310000D02*
X152560000Y-88996000D01*
%TO.C,J6*%
X153940000Y-142090000D02*
X153940000Y-149910000D01*
X153940000Y-143690000D02*
X154860000Y-143690000D01*
X153940000Y-149910000D02*
X162060000Y-149910000D01*
X154700000Y-146050000D02*
X154700000Y-147650000D01*
X154700000Y-147650000D02*
X155700000Y-147650000D01*
X154860000Y-142090000D02*
X153940000Y-142090000D01*
X154860000Y-143690000D02*
X154860000Y-142090000D01*
X155140000Y-143690000D02*
X154860000Y-143690000D01*
X155140000Y-143690000D02*
X155140000Y-142475000D01*
X155200000Y-147650000D02*
X155200000Y-149910000D01*
X155700000Y-146050000D02*
X154700000Y-146050000D01*
X155700000Y-147650000D02*
X155700000Y-146050000D01*
X155700000Y-147650000D02*
X155700000Y-149910000D01*
X156500000Y-145550000D02*
X159500000Y-145550000D01*
X156500000Y-149910000D02*
X156500000Y-145550000D01*
X159500000Y-145550000D02*
X159500000Y-149910000D01*
X160300000Y-146050000D02*
X161300000Y-146050000D01*
X160300000Y-147650000D02*
X160300000Y-146050000D01*
X161140000Y-142090000D02*
X161140000Y-143690000D01*
X161140000Y-143690000D02*
X160860000Y-143690000D01*
X161300000Y-146050000D02*
X161300000Y-147650000D01*
X161300000Y-147650000D02*
X160300000Y-147650000D01*
X162060000Y-142090000D02*
X161140000Y-142090000D01*
X162060000Y-143690000D02*
X161140000Y-143690000D01*
X162060000Y-149910000D02*
X162060000Y-142090000D01*
%TO.C,R7*%
X156630000Y-92730000D02*
X156960000Y-92730000D01*
X156630000Y-99270000D02*
X156630000Y-92730000D01*
X156960000Y-99270000D02*
X156630000Y-99270000D01*
X159040000Y-99270000D02*
X159370000Y-99270000D01*
X159370000Y-92730000D02*
X159040000Y-92730000D01*
X159370000Y-99270000D02*
X159370000Y-92730000D01*
%TO.C,C3*%
X147440000Y-102690000D02*
X147440000Y-103004000D01*
X147440000Y-102690000D02*
X152560000Y-102690000D01*
X147440000Y-104996000D02*
X147440000Y-105310000D01*
X147440000Y-105310000D02*
X152560000Y-105310000D01*
X152560000Y-102690000D02*
X152560000Y-103004000D01*
X152560000Y-104996000D02*
X152560000Y-105310000D01*
%TO.C,Q1*%
X148200000Y-84850000D02*
X151800000Y-84850000D01*
X148161522Y-84838478D02*
G75*
G02*
X150000000Y-80399999I1838478J1838478D01*
G01*
X150000000Y-80400000D02*
G75*
G02*
X151838478Y-84838478I0J-2600000D01*
G01*
%TO.C,RV2*%
X153100001Y-129062501D02*
X153100000Y-132462502D01*
X153100001Y-136662501D02*
X153100001Y-140062501D01*
X153100001Y-140062501D02*
X162899999Y-140062501D01*
X162899999Y-129062501D02*
X153100001Y-129062501D01*
X162899999Y-129062501D02*
X162899999Y-132462501D01*
X162900000Y-136662500D02*
X162899999Y-140062501D01*
X155279707Y-133202354D02*
G75*
G02*
X160699999Y-133162502I2720293J-1360147D01*
G01*
X160720293Y-135922648D02*
G75*
G02*
X155300001Y-135962500I-2720293J1360147D01*
G01*
%TO.C,C2*%
X157440000Y-74004000D02*
X157440000Y-73690000D01*
X157440000Y-76310000D02*
X157440000Y-75996000D01*
X162560000Y-73690000D02*
X157440000Y-73690000D01*
X162560000Y-74004000D02*
X162560000Y-73690000D01*
X162560000Y-76310000D02*
X157440000Y-76310000D01*
X162560000Y-76310000D02*
X162560000Y-75996000D01*
%TO.C,RV3*%
X137100000Y-62900001D02*
X137100001Y-59500000D01*
X137100001Y-70500000D02*
X137100001Y-67100000D01*
X137100001Y-70500000D02*
X146899999Y-70500000D01*
X146899999Y-59500000D02*
X137100001Y-59500000D01*
X146899999Y-62900000D02*
X146899999Y-59500000D01*
X146899999Y-70500000D02*
X146900000Y-67099999D01*
X139279707Y-63639853D02*
G75*
G02*
X144699999Y-63600001I2720293J-1360147D01*
G01*
X144720293Y-66360147D02*
G75*
G02*
X139300001Y-66399999I-2720293J1360147D01*
G01*
%TO.C,R3*%
X136630000Y-80730000D02*
X136630000Y-87270000D01*
X136630000Y-87270000D02*
X136960000Y-87270000D01*
X136960000Y-80730000D02*
X136630000Y-80730000D01*
X139040000Y-80730000D02*
X139370000Y-80730000D01*
X139370000Y-80730000D02*
X139370000Y-87270000D01*
X139370000Y-87270000D02*
X139040000Y-87270000D01*
%TO.C,R5*%
X156630000Y-80730000D02*
X156630000Y-87270000D01*
X156630000Y-87270000D02*
X156960000Y-87270000D01*
X156960000Y-80730000D02*
X156630000Y-80730000D01*
X159040000Y-80730000D02*
X159370000Y-80730000D01*
X159370000Y-80730000D02*
X159370000Y-87270000D01*
X159370000Y-87270000D02*
X159040000Y-87270000D01*
%TO.C,U1*%
X147750000Y-91360000D02*
X147750000Y-100590000D01*
X147750000Y-100590000D02*
X152250000Y-100590000D01*
X149000000Y-91360000D02*
X147750000Y-91360000D01*
X152250000Y-91360000D02*
X151000000Y-91360000D01*
X152250000Y-100590000D02*
X152250000Y-91360000D01*
X151000000Y-91360000D02*
G75*
G02*
X149000000Y-91360000I-1000000J0D01*
G01*
%TD*%
M02*
