%TF.GenerationSoftware,KiCad,Pcbnew,9.0.1*%
%TF.CreationDate,2025-06-14T10:14:47+10:00*%
%TF.ProjectId,Mixer,4d697865-722e-46b6-9963-61645f706362,1-0*%
%TF.SameCoordinates,Original*%
%TF.FileFunction,Soldermask,Top*%
%TF.FilePolarity,Negative*%
%FSLAX46Y46*%
G04 Gerber Fmt 4.6, Leading zero omitted, Abs format (unit mm)*
G04 Created by KiCad (PCBNEW 9.0.1) date 2025-06-14 10:14:47*
%MOMM*%
%LPD*%
G01*
G04 APERTURE LIST*
G04 Aperture macros list*
%AMRoundRect*
0 Rectangle with rounded corners*
0 $1 Rounding radius*
0 $2 $3 $4 $5 $6 $7 $8 $9 X,Y pos of 4 corners*
0 Add a 4 corners polygon primitive as box body*
4,1,4,$2,$3,$4,$5,$6,$7,$8,$9,$2,$3,0*
0 Add four circle primitives for the rounded corners*
1,1,$1+$1,$2,$3*
1,1,$1+$1,$4,$5*
1,1,$1+$1,$6,$7*
1,1,$1+$1,$8,$9*
0 Add four rect primitives between the rounded corners*
20,1,$1+$1,$2,$3,$4,$5,0*
20,1,$1+$1,$4,$5,$6,$7,0*
20,1,$1+$1,$6,$7,$8,$9,0*
20,1,$1+$1,$8,$9,$2,$3,0*%
G04 Aperture macros list end*
%ADD10O,2.400000X1.600000*%
%ADD11R,2.400000X1.600000*%
%ADD12O,1.600000X2.400000*%
%ADD13C,4.000000*%
%ADD14C,1.600000*%
%ADD15O,1.600000X1.600000*%
%ADD16R,2.000000X2.000000*%
%ADD17C,2.200000*%
%ADD18RoundRect,0.291666X-0.408334X-0.708334X0.408334X-0.708334X0.408334X0.708334X-0.408334X0.708334X0*%
%ADD19O,1.400000X2.000000*%
%ADD20C,1.800000*%
%ADD21O,1.350000X1.900000*%
G04 APERTURE END LIST*
D10*
%TO.C,U1*%
X153810000Y-93190000D03*
X153810000Y-95730000D03*
X153810000Y-98270000D03*
X153810000Y-100810000D03*
X146190000Y-100810000D03*
X146190000Y-98270000D03*
X146190000Y-95730000D03*
D11*
X146190000Y-93190000D03*
%TD*%
D12*
%TO.C,RV3*%
X139499999Y-72000000D03*
X142000000Y-72000000D03*
X144500001Y-72000000D03*
D13*
X146400000Y-65000000D03*
X137600000Y-65000000D03*
%TD*%
D12*
%TO.C,RV2*%
X160500001Y-127562501D03*
X158000000Y-127562501D03*
X155499999Y-127562501D03*
D13*
X153600000Y-134562501D03*
X162400000Y-134562501D03*
%TD*%
D12*
%TO.C,RV1*%
X144500001Y-127562501D03*
X142000000Y-127562501D03*
X139499999Y-127562501D03*
D13*
X137600000Y-134562501D03*
X146400000Y-134562501D03*
%TD*%
D14*
%TO.C,R6*%
X162000000Y-85810000D03*
D15*
X162000000Y-78190000D03*
%TD*%
%TO.C,R4*%
X142000000Y-78130000D03*
D14*
X142000000Y-85750000D03*
%TD*%
D16*
%TO.C,J2*%
X158000000Y-122780000D03*
D17*
X158000000Y-119680000D03*
X158000000Y-111380000D03*
%TD*%
D16*
%TO.C,J3*%
X158000000Y-71480000D03*
D17*
X158000000Y-68380000D03*
X158000000Y-60080001D03*
%TD*%
D16*
%TO.C,J1*%
X142000000Y-122780000D03*
D17*
X142000000Y-119680000D03*
X142000000Y-111380000D03*
%TD*%
D14*
%TO.C,R2*%
X142000000Y-100810000D03*
D15*
X142000000Y-93190000D03*
%TD*%
D18*
%TO.C,J5*%
X140000000Y-143550000D03*
D19*
X142000000Y-143550000D03*
X144000000Y-143550000D03*
%TD*%
D14*
%TO.C,R1*%
X138000000Y-100810000D03*
D15*
X138000000Y-93190000D03*
%TD*%
D14*
%TO.C,R8*%
X162000000Y-93190000D03*
D15*
X162000000Y-100810000D03*
%TD*%
D20*
%TO.C,C1*%
X147500000Y-89500000D03*
X152500000Y-89500000D03*
%TD*%
D18*
%TO.C,J6*%
X156000000Y-143550000D03*
D19*
X158000000Y-143550000D03*
X160000000Y-143550000D03*
%TD*%
D15*
%TO.C,R7*%
X158000000Y-93190000D03*
D14*
X158000000Y-100810000D03*
%TD*%
D20*
%TO.C,C3*%
X147500000Y-104500000D03*
X152500000Y-104500000D03*
%TD*%
D21*
%TO.C,Q1*%
X150000000Y-84690000D03*
X151730000Y-84690000D03*
%TD*%
D20*
%TO.C,C2*%
X157500000Y-89500000D03*
X162500000Y-89500000D03*
%TD*%
D14*
%TO.C,R3*%
X138000000Y-78130000D03*
D15*
X138000000Y-85750000D03*
%TD*%
%TO.C,R5*%
X158000000Y-85810000D03*
D14*
X158000000Y-78190000D03*
%TD*%
M02*
