M48
; DRILL file {KiCad 9.0.1} date 2025-06-14T10:14:46+1000
; FORMAT={-:-/ absolute / metric / decimal}
; #@! TF.CreationDate,2025-06-14T10:14:46+10:00
; #@! TF.GenerationSoftware,Kicad,Pcbnew,9.0.1
; #@! TF.FileFunction,Plated,1,2,PTH
FMAT,2
METRIC
; #@! TA.AperFunction,Plated,PTH,ComponentDrill
T1C0.750
; #@! TA.AperFunction,Plated,PTH,ComponentDrill
T2C0.800
; #@! TA.AperFunction,Plated,PTH,ComponentDrill
T3C1.000
; #@! TA.AperFunction,Plated,PTH,ComponentDrill
T4C1.200
%
G90
G05
T1
X140.0Y-143.55
X142.0Y-143.55
X144.0Y-143.55
X150.0Y-84.69
X151.73Y-84.69
X156.0Y-143.55
X158.0Y-143.55
X160.0Y-143.55
T2
X138.0Y-78.13
X138.0Y-85.75
X138.0Y-93.19
X138.0Y-100.81
X142.0Y-78.13
X142.0Y-85.75
X142.0Y-93.19
X142.0Y-100.81
X146.19Y-93.19
X146.19Y-95.73
X146.19Y-98.27
X146.19Y-100.81
X147.5Y-89.5
X147.5Y-104.5
X152.5Y-89.5
X152.5Y-104.5
X153.81Y-93.19
X153.81Y-95.73
X153.81Y-98.27
X153.81Y-100.81
X157.5Y-89.5
X158.0Y-78.19
X158.0Y-85.81
X158.0Y-93.19
X158.0Y-100.81
X162.0Y-78.19
X162.0Y-85.81
X162.0Y-93.19
X162.0Y-100.81
X162.5Y-89.5
T3
X139.5Y-72.0
X139.5Y-127.563
X142.0Y-72.0
X142.0Y-127.563
X144.5Y-72.0
X144.5Y-127.563
X155.5Y-127.563
X158.0Y-127.563
X160.5Y-127.563
T4
X142.0Y-111.38
X142.0Y-119.68
X142.0Y-122.78
X158.0Y-60.08
X158.0Y-68.38
X158.0Y-71.48
X158.0Y-111.38
X158.0Y-119.68
X158.0Y-122.78
M30
