%TF.GenerationSoftware,KiCad,Pcbnew,9.0.1*%
%TF.CreationDate,2025-06-14T10:14:47+10:00*%
%TF.ProjectId,Mixer,4d697865-722e-46b6-9963-61645f706362,1-0*%
%TF.SameCoordinates,Original*%
%TF.FileFunction,Copper,L1,Top*%
%TF.FilePolarity,Positive*%
%FSLAX46Y46*%
G04 Gerber Fmt 4.6, Leading zero omitted, Abs format (unit mm)*
G04 Created by KiCad (PCBNEW 9.0.1) date 2025-06-14 10:14:47*
%MOMM*%
%LPD*%
G01*
G04 APERTURE LIST*
G04 Aperture macros list*
%AMRoundRect*
0 Rectangle with rounded corners*
0 $1 Rounding radius*
0 $2 $3 $4 $5 $6 $7 $8 $9 X,Y pos of 4 corners*
0 Add a 4 corners polygon primitive as box body*
4,1,4,$2,$3,$4,$5,$6,$7,$8,$9,$2,$3,0*
0 Add four circle primitives for the rounded corners*
1,1,$1+$1,$2,$3*
1,1,$1+$1,$4,$5*
1,1,$1+$1,$6,$7*
1,1,$1+$1,$8,$9*
0 Add four rect primitives between the rounded corners*
20,1,$1+$1,$2,$3,$4,$5,0*
20,1,$1+$1,$4,$5,$6,$7,0*
20,1,$1+$1,$6,$7,$8,$9,0*
20,1,$1+$1,$8,$9,$2,$3,0*%
G04 Aperture macros list end*
%TA.AperFunction,ComponentPad*%
%ADD10O,2.400000X1.600000*%
%TD*%
%TA.AperFunction,ComponentPad*%
%ADD11R,2.400000X1.600000*%
%TD*%
%TA.AperFunction,ComponentPad*%
%ADD12O,1.600000X2.400000*%
%TD*%
%TA.AperFunction,WasherPad*%
%ADD13C,4.000000*%
%TD*%
%TA.AperFunction,ComponentPad*%
%ADD14C,1.600000*%
%TD*%
%TA.AperFunction,ComponentPad*%
%ADD15O,1.600000X1.600000*%
%TD*%
%TA.AperFunction,ComponentPad*%
%ADD16R,2.000000X2.000000*%
%TD*%
%TA.AperFunction,ComponentPad*%
%ADD17C,2.200000*%
%TD*%
%TA.AperFunction,ComponentPad*%
%ADD18RoundRect,0.291666X-0.408334X-0.708334X0.408334X-0.708334X0.408334X0.708334X-0.408334X0.708334X0*%
%TD*%
%TA.AperFunction,ComponentPad*%
%ADD19O,1.400000X2.000000*%
%TD*%
%TA.AperFunction,ComponentPad*%
%ADD20C,1.800000*%
%TD*%
%TA.AperFunction,ComponentPad*%
%ADD21O,1.350000X1.900000*%
%TD*%
%TA.AperFunction,Conductor*%
%ADD22C,0.200000*%
%TD*%
%TA.AperFunction,Conductor*%
%ADD23C,0.500000*%
%TD*%
G04 APERTURE END LIST*
D10*
%TO.P,U1,8,V+*%
%TO.N,VDD*%
X153810000Y-93190000D03*
%TO.P,U1,7*%
%TO.N,NOISE*%
X153810000Y-95730000D03*
%TO.P,U1,6,-*%
%TO.N,Net-(U1B--)*%
X153810000Y-98270000D03*
%TO.P,U1,5,+*%
%TO.N,Net-(U1B-+)*%
X153810000Y-100810000D03*
%TO.P,U1,4,V-*%
%TO.N,VSS*%
X146190000Y-100810000D03*
%TO.P,U1,3,+*%
%TO.N,GND*%
X146190000Y-98270000D03*
%TO.P,U1,2,-*%
%TO.N,Net-(U1A--)*%
X146190000Y-95730000D03*
D11*
%TO.P,U1,1*%
%TO.N,Net-(J3-PadT)*%
X146190000Y-93190000D03*
%TD*%
D12*
%TO.P,RV3,3,3*%
%TO.N,NOISE*%
X139499999Y-72000000D03*
%TO.P,RV3,2,2*%
%TO.N,Net-(R3-Pad1)*%
X142000000Y-72000000D03*
%TO.P,RV3,1,1*%
%TO.N,GND*%
X144500001Y-72000000D03*
D13*
%TO.P,RV3,*%
%TO.N,*%
X146400000Y-65000000D03*
X137600000Y-65000000D03*
%TD*%
D12*
%TO.P,RV2,3,3*%
%TO.N,Net-(J2-PadT)*%
X160500001Y-127562501D03*
%TO.P,RV2,2,2*%
%TO.N,Net-(R2-Pad1)*%
X158000000Y-127562501D03*
%TO.P,RV2,1,1*%
%TO.N,GND*%
X155499999Y-127562501D03*
D13*
%TO.P,RV2,*%
%TO.N,*%
X153600000Y-134562501D03*
X162400000Y-134562501D03*
%TD*%
D12*
%TO.P,RV1,3,3*%
%TO.N,Net-(J1-PadT)*%
X144500001Y-127562501D03*
%TO.P,RV1,2,2*%
%TO.N,Net-(R1-Pad1)*%
X142000000Y-127562501D03*
%TO.P,RV1,1,1*%
%TO.N,GND*%
X139499999Y-127562501D03*
D13*
%TO.P,RV1,*%
%TO.N,*%
X137600000Y-134562501D03*
X146400000Y-134562501D03*
%TD*%
D14*
%TO.P,R6,1*%
%TO.N,GND*%
X162000000Y-85810000D03*
D15*
%TO.P,R6,2*%
%TO.N,Net-(U1B-+)*%
X162000000Y-78190000D03*
%TD*%
%TO.P,R4,2*%
%TO.N,Net-(U1A--)*%
X142000000Y-78130000D03*
D14*
%TO.P,R4,1*%
%TO.N,Net-(J3-PadT)*%
X142000000Y-85750000D03*
%TD*%
D16*
%TO.P,J2,G*%
%TO.N,GND*%
X158000000Y-122780000D03*
D17*
%TO.P,J2,S*%
X158000000Y-119680000D03*
%TO.P,J2,T*%
%TO.N,Net-(J2-PadT)*%
X158000000Y-111380000D03*
%TD*%
D16*
%TO.P,J3,G*%
%TO.N,GND*%
X158000000Y-71480000D03*
D17*
%TO.P,J3,S*%
X158000000Y-68380000D03*
%TO.P,J3,T*%
%TO.N,Net-(J3-PadT)*%
X158000000Y-60080001D03*
%TD*%
D16*
%TO.P,J1,G*%
%TO.N,GND*%
X142000000Y-122780000D03*
D17*
%TO.P,J1,S*%
X142000000Y-119680000D03*
%TO.P,J1,T*%
%TO.N,Net-(J1-PadT)*%
X142000000Y-111380000D03*
%TD*%
D14*
%TO.P,R2,1*%
%TO.N,Net-(R2-Pad1)*%
X142000000Y-100810000D03*
D15*
%TO.P,R2,2*%
%TO.N,Net-(U1A--)*%
X142000000Y-93190000D03*
%TD*%
D18*
%TO.P,J5,1,Pin_1*%
%TO.N,GND*%
X140000000Y-143550000D03*
D19*
%TO.P,J5,2,Pin_2*%
%TO.N,VDD*%
X142000000Y-143550000D03*
%TO.P,J5,3,Pin_3*%
%TO.N,VSS*%
X144000000Y-143550000D03*
%TD*%
D14*
%TO.P,R1,1*%
%TO.N,Net-(R1-Pad1)*%
X138000000Y-100810000D03*
D15*
%TO.P,R1,2*%
%TO.N,Net-(U1A--)*%
X138000000Y-93190000D03*
%TD*%
D14*
%TO.P,R8,1*%
%TO.N,GND*%
X162000000Y-93190000D03*
D15*
%TO.P,R8,2*%
%TO.N,Net-(U1B--)*%
X162000000Y-100810000D03*
%TD*%
D20*
%TO.P,C1,2*%
%TO.N,VSS*%
X147500000Y-89500000D03*
%TO.P,C1,1*%
%TO.N,VDD*%
X152500000Y-89500000D03*
%TD*%
D18*
%TO.P,J6,1,Pin_1*%
%TO.N,GND*%
X156000000Y-143550000D03*
D19*
%TO.P,J6,2,Pin_2*%
%TO.N,VDD*%
X158000000Y-143550000D03*
%TO.P,J6,3,Pin_3*%
%TO.N,VSS*%
X160000000Y-143550000D03*
%TD*%
D15*
%TO.P,R7,2*%
%TO.N,NOISE*%
X158000000Y-93190000D03*
D14*
%TO.P,R7,1*%
%TO.N,Net-(U1B--)*%
X158000000Y-100810000D03*
%TD*%
D20*
%TO.P,C3,1*%
%TO.N,Net-(U1B--)*%
X147500000Y-104500000D03*
%TO.P,C3,2*%
%TO.N,NOISE*%
X152500000Y-104500000D03*
%TD*%
D21*
%TO.P,Q1,2,B*%
%TO.N,GND*%
X150000000Y-84690000D03*
%TO.P,Q1,3,E*%
%TO.N,Net-(Q1-E)*%
X151730000Y-84690000D03*
%TD*%
D20*
%TO.P,C2,2*%
%TO.N,Net-(Q1-E)*%
X157500000Y-89500000D03*
%TO.P,C2,1*%
%TO.N,Net-(U1B-+)*%
X162500000Y-89500000D03*
%TD*%
D14*
%TO.P,R3,1*%
%TO.N,Net-(R3-Pad1)*%
X138000000Y-78130000D03*
D15*
%TO.P,R3,2*%
%TO.N,Net-(U1A--)*%
X138000000Y-85750000D03*
%TD*%
%TO.P,R5,2*%
%TO.N,VDD*%
X158000000Y-85810000D03*
D14*
%TO.P,R5,1*%
%TO.N,Net-(Q1-E)*%
X158000000Y-78190000D03*
%TD*%
D22*
%TO.N,NOISE*%
X152500000Y-102750000D02*
X152500000Y-104500000D01*
X151500000Y-101750000D02*
X152500000Y-102750000D01*
X151500000Y-96250000D02*
X151500000Y-101750000D01*
X152020000Y-95730000D02*
X151500000Y-96250000D01*
X153810000Y-95730000D02*
X152020000Y-95730000D01*
%TO.N,Net-(J3-PadT)*%
X142000000Y-82000000D02*
X142000000Y-85750000D01*
D23*
%TO.N,VSS*%
X147310000Y-100810000D02*
X150000000Y-103500000D01*
X150000000Y-103500000D02*
X150000000Y-136000000D01*
X150000000Y-136000000D02*
X144000000Y-142000000D01*
X146190000Y-100810000D02*
X147310000Y-100810000D01*
X144000000Y-142000000D02*
X144000000Y-143550000D01*
D22*
%TO.N,Net-(R3-Pad1)*%
X142000000Y-74130000D02*
X142000000Y-72000000D01*
X138000000Y-78130000D02*
X142000000Y-74130000D01*
%TO.N,Net-(U1A--)*%
X138000000Y-93190000D02*
X138000000Y-85750000D01*
%TO.N,Net-(Q1-E)*%
X152690000Y-84690000D02*
X151730000Y-84690000D01*
X157500000Y-89500000D02*
X152690000Y-84690000D01*
%TO.N,Net-(U1A--)*%
X144540000Y-95730000D02*
X142000000Y-93190000D01*
X146190000Y-95730000D02*
X144540000Y-95730000D01*
%TO.N,Net-(U1B-+)*%
X160000000Y-96000000D02*
X160000000Y-92000000D01*
X160000000Y-92000000D02*
X162500000Y-89500000D01*
X155190000Y-100810000D02*
X160000000Y-96000000D01*
X153810000Y-100810000D02*
X155190000Y-100810000D01*
%TO.N,Net-(U1B--)*%
X158000000Y-100810000D02*
X162000000Y-100810000D01*
D23*
%TO.N,VSS*%
X145000000Y-146000000D02*
X159000000Y-146000000D01*
X144000000Y-143550000D02*
X144000000Y-145000000D01*
X146810000Y-101000000D02*
X146190000Y-101000000D01*
X160000000Y-145000000D02*
X160000000Y-143550000D01*
X144000000Y-145000000D02*
X145000000Y-146000000D01*
X159000000Y-146000000D02*
X160000000Y-145000000D01*
D22*
%TO.N,Net-(J1-PadT)*%
X144500001Y-113880002D02*
X142000000Y-111380001D01*
X144500001Y-127562501D02*
X144500001Y-113880002D01*
%TO.N,Net-(J2-PadT)*%
X158000000Y-111380001D02*
X160500001Y-113880002D01*
X160500001Y-113880002D02*
X160500001Y-127562501D01*
%TO.N,Net-(J3-PadT)*%
X142000000Y-82000000D02*
X150750000Y-73250000D01*
X150750000Y-67330001D02*
X158000000Y-60080001D01*
X150750000Y-73250000D02*
X150750000Y-67330001D01*
%TD*%
%TA.AperFunction,Conductor*%
%TO.N,GND*%
G36*
X162003736Y-50500726D02*
G01*
X162293796Y-50518271D01*
X162308659Y-50520076D01*
X162590798Y-50571780D01*
X162605335Y-50575363D01*
X162879172Y-50660695D01*
X162893163Y-50666000D01*
X163154743Y-50783727D01*
X163167989Y-50790680D01*
X163413465Y-50939075D01*
X163425776Y-50947573D01*
X163651573Y-51124473D01*
X163662781Y-51134403D01*
X163865596Y-51337218D01*
X163875526Y-51348426D01*
X163995481Y-51501538D01*
X164052422Y-51574217D01*
X164060928Y-51586540D01*
X164209316Y-51832004D01*
X164216275Y-51845263D01*
X164333997Y-52106831D01*
X164339306Y-52120832D01*
X164424635Y-52394663D01*
X164428219Y-52409201D01*
X164479923Y-52691340D01*
X164481728Y-52706205D01*
X164499274Y-52996263D01*
X164499500Y-53003750D01*
X164499500Y-132830328D01*
X164479815Y-132897367D01*
X164427011Y-132943122D01*
X164357853Y-132953066D01*
X164294297Y-132924041D01*
X164278553Y-132907641D01*
X164267416Y-132893676D01*
X164068824Y-132695084D01*
X164013060Y-132650614D01*
X163849248Y-132519978D01*
X163611445Y-132370556D01*
X163611442Y-132370554D01*
X163358411Y-132248701D01*
X163093329Y-132155944D01*
X163093317Y-132155940D01*
X162819512Y-132093446D01*
X162819494Y-132093443D01*
X162540431Y-132062001D01*
X162540425Y-132062001D01*
X162259575Y-132062001D01*
X162259568Y-132062001D01*
X161980505Y-132093443D01*
X161980487Y-132093446D01*
X161706682Y-132155940D01*
X161706670Y-132155944D01*
X161441588Y-132248701D01*
X161188557Y-132370554D01*
X160950753Y-132519977D01*
X160731175Y-132695084D01*
X160532583Y-132893676D01*
X160357476Y-133113254D01*
X160208053Y-133351058D01*
X160086200Y-133604089D01*
X159993443Y-133869171D01*
X159993439Y-133869183D01*
X159930945Y-134142988D01*
X159930942Y-134143006D01*
X159899500Y-134422069D01*
X159899500Y-134702932D01*
X159930942Y-134981995D01*
X159930945Y-134982013D01*
X159993439Y-135255818D01*
X159993443Y-135255830D01*
X160086200Y-135520912D01*
X160208053Y-135773943D01*
X160208055Y-135773946D01*
X160357477Y-136011749D01*
X160407057Y-136073920D01*
X160532581Y-136231323D01*
X160532584Y-136231326D01*
X160731175Y-136429917D01*
X160950752Y-136605024D01*
X161188555Y-136754446D01*
X161441592Y-136876302D01*
X161640680Y-136945966D01*
X161706670Y-136969057D01*
X161706682Y-136969061D01*
X161980491Y-137031556D01*
X161980497Y-137031556D01*
X161980505Y-137031558D01*
X162166547Y-137052519D01*
X162259569Y-137063000D01*
X162259572Y-137063001D01*
X162259575Y-137063001D01*
X162540428Y-137063001D01*
X162540429Y-137063000D01*
X162683055Y-137046930D01*
X162819494Y-137031558D01*
X162819499Y-137031557D01*
X162819509Y-137031556D01*
X163093318Y-136969061D01*
X163358408Y-136876302D01*
X163611445Y-136754446D01*
X163849248Y-136605024D01*
X164068825Y-136429917D01*
X164267416Y-136231326D01*
X164278551Y-136217362D01*
X164335739Y-136177221D01*
X164405550Y-136174369D01*
X164465821Y-136209713D01*
X164497415Y-136272031D01*
X164499500Y-136294673D01*
X164499500Y-146996249D01*
X164499274Y-147003736D01*
X164481728Y-147293794D01*
X164479923Y-147308659D01*
X164428219Y-147590798D01*
X164424635Y-147605336D01*
X164339306Y-147879167D01*
X164333997Y-147893168D01*
X164216275Y-148154736D01*
X164209316Y-148167995D01*
X164060928Y-148413459D01*
X164052422Y-148425782D01*
X163875526Y-148651573D01*
X163865596Y-148662781D01*
X163662781Y-148865596D01*
X163651573Y-148875526D01*
X163425782Y-149052422D01*
X163413459Y-149060928D01*
X163167995Y-149209316D01*
X163154736Y-149216275D01*
X162893168Y-149333997D01*
X162879167Y-149339306D01*
X162605336Y-149424635D01*
X162590798Y-149428219D01*
X162308659Y-149479923D01*
X162293794Y-149481728D01*
X162014454Y-149498624D01*
X162003735Y-149499273D01*
X161996250Y-149499499D01*
X138003734Y-149499499D01*
X137996247Y-149499273D01*
X137706205Y-149481728D01*
X137691340Y-149479923D01*
X137409201Y-149428219D01*
X137394663Y-149424635D01*
X137120832Y-149339306D01*
X137106831Y-149333997D01*
X136845263Y-149216275D01*
X136832004Y-149209316D01*
X136586540Y-149060928D01*
X136574217Y-149052422D01*
X136348426Y-148875526D01*
X136337218Y-148865596D01*
X136134403Y-148662781D01*
X136124473Y-148651573D01*
X135947573Y-148425776D01*
X135939075Y-148413465D01*
X135790680Y-148167989D01*
X135783727Y-148154743D01*
X135666000Y-147893163D01*
X135660693Y-147879167D01*
X135575364Y-147605336D01*
X135571780Y-147590798D01*
X135520076Y-147308659D01*
X135518271Y-147293794D01*
X135500726Y-147003736D01*
X135500500Y-146996249D01*
X135500500Y-142797202D01*
X138800000Y-142797202D01*
X138800000Y-143300000D01*
X139719670Y-143300000D01*
X139699925Y-143319745D01*
X139650556Y-143405255D01*
X139625000Y-143500630D01*
X139625000Y-143599370D01*
X139650556Y-143694745D01*
X139699925Y-143780255D01*
X139719670Y-143800000D01*
X138800001Y-143800000D01*
X138800001Y-144302798D01*
X138814963Y-144435602D01*
X138814965Y-144435612D01*
X138873887Y-144603999D01*
X138968797Y-144755050D01*
X139094949Y-144881202D01*
X139246001Y-144976112D01*
X139246000Y-144976112D01*
X139414387Y-145035034D01*
X139414397Y-145035036D01*
X139547204Y-145049999D01*
X139749999Y-145049999D01*
X139750000Y-145049998D01*
X139750000Y-143830330D01*
X139769745Y-143850075D01*
X139855255Y-143899444D01*
X139950630Y-143925000D01*
X140049370Y-143925000D01*
X140144745Y-143899444D01*
X140230255Y-143850075D01*
X140250000Y-143830330D01*
X140250000Y-145049999D01*
X140452791Y-145049999D01*
X140452798Y-145049998D01*
X140585602Y-145035036D01*
X140585612Y-145035034D01*
X140753999Y-144976112D01*
X140905050Y-144881202D01*
X140905053Y-144881199D01*
X141031564Y-144754689D01*
X141092887Y-144721204D01*
X141162579Y-144726188D01*
X141206926Y-144754689D01*
X141217927Y-144765690D01*
X141370801Y-144876760D01*
X141450347Y-144917290D01*
X141539163Y-144962545D01*
X141539165Y-144962545D01*
X141539168Y-144962547D01*
X141580917Y-144976112D01*
X141718881Y-145020940D01*
X141905514Y-145050500D01*
X141905519Y-145050500D01*
X142094486Y-145050500D01*
X142281118Y-145020940D01*
X142322269Y-145007569D01*
X142460832Y-144962547D01*
X142629199Y-144876760D01*
X142782073Y-144765690D01*
X142912319Y-144635444D01*
X142920264Y-144631105D01*
X142925690Y-144623858D01*
X142950449Y-144614623D01*
X142973642Y-144601959D01*
X142982671Y-144602604D01*
X142991154Y-144599441D01*
X143016974Y-144605057D01*
X143043334Y-144606943D01*
X143052387Y-144612761D01*
X143059427Y-144614293D01*
X143087681Y-144635444D01*
X143213181Y-144760944D01*
X143246666Y-144822267D01*
X143249500Y-144848625D01*
X143249500Y-145073918D01*
X143249500Y-145073920D01*
X143249499Y-145073920D01*
X143278340Y-145218907D01*
X143278343Y-145218917D01*
X143334914Y-145355492D01*
X143367812Y-145404727D01*
X143367813Y-145404730D01*
X143417046Y-145478414D01*
X143417052Y-145478421D01*
X144417049Y-146478416D01*
X144521584Y-146582951D01*
X144521587Y-146582953D01*
X144521588Y-146582954D01*
X144644503Y-146665083D01*
X144644506Y-146665085D01*
X144694665Y-146685861D01*
X144701080Y-146688518D01*
X144781088Y-146721659D01*
X144897241Y-146744763D01*
X144920380Y-146749365D01*
X144926081Y-146750500D01*
X144926082Y-146750500D01*
X159073920Y-146750500D01*
X159171462Y-146731096D01*
X159218913Y-146721658D01*
X159355495Y-146665084D01*
X159404729Y-146632186D01*
X159478416Y-146582952D01*
X160582952Y-145478415D01*
X160623955Y-145417049D01*
X160665084Y-145355495D01*
X160697042Y-145278342D01*
X160721659Y-145218912D01*
X160750500Y-145073917D01*
X160750500Y-144926082D01*
X160750500Y-144848625D01*
X160770185Y-144781586D01*
X160786819Y-144760944D01*
X160847900Y-144699863D01*
X160915690Y-144632073D01*
X161026760Y-144479199D01*
X161112547Y-144310832D01*
X161170940Y-144131118D01*
X161200500Y-143944486D01*
X161200500Y-143155513D01*
X161170940Y-142968881D01*
X161112545Y-142789163D01*
X161026759Y-142620800D01*
X160915690Y-142467927D01*
X160782073Y-142334310D01*
X160629199Y-142223240D01*
X160620479Y-142218797D01*
X160460836Y-142137454D01*
X160281118Y-142079059D01*
X160094486Y-142049500D01*
X160094481Y-142049500D01*
X159905519Y-142049500D01*
X159905514Y-142049500D01*
X159718881Y-142079059D01*
X159539163Y-142137454D01*
X159370800Y-142223240D01*
X159283579Y-142286610D01*
X159217927Y-142334310D01*
X159217925Y-142334312D01*
X159217924Y-142334312D01*
X159087681Y-142464556D01*
X159026358Y-142498041D01*
X158956666Y-142493057D01*
X158912319Y-142464556D01*
X158782075Y-142334312D01*
X158782073Y-142334310D01*
X158629199Y-142223240D01*
X158620479Y-142218797D01*
X158460836Y-142137454D01*
X158281118Y-142079059D01*
X158094486Y-142049500D01*
X158094481Y-142049500D01*
X157905519Y-142049500D01*
X157905514Y-142049500D01*
X157718881Y-142079059D01*
X157539163Y-142137454D01*
X157370800Y-142223240D01*
X157283579Y-142286610D01*
X157217927Y-142334310D01*
X157217925Y-142334312D01*
X157217922Y-142334314D01*
X157206923Y-142345313D01*
X157145599Y-142378796D01*
X157075907Y-142373809D01*
X157031564Y-142345311D01*
X156905049Y-142218797D01*
X156905050Y-142218797D01*
X156753998Y-142123887D01*
X156753999Y-142123887D01*
X156585612Y-142064965D01*
X156585602Y-142064963D01*
X156452797Y-142050000D01*
X156250000Y-142050000D01*
X156250000Y-143269670D01*
X156230255Y-143249925D01*
X156144745Y-143200556D01*
X156049370Y-143175000D01*
X155950630Y-143175000D01*
X155855255Y-143200556D01*
X155769745Y-143249925D01*
X155750000Y-143269670D01*
X155750000Y-142050000D01*
X155547207Y-142050000D01*
X155547201Y-142050001D01*
X155414397Y-142064963D01*
X155414387Y-142064965D01*
X155246000Y-142123887D01*
X155094949Y-142218797D01*
X154968797Y-142344949D01*
X154873887Y-142496000D01*
X154814965Y-142664387D01*
X154814963Y-142664397D01*
X154800000Y-142797202D01*
X154800000Y-143300000D01*
X155719670Y-143300000D01*
X155699925Y-143319745D01*
X155650556Y-143405255D01*
X155625000Y-143500630D01*
X155625000Y-143599370D01*
X155650556Y-143694745D01*
X155699925Y-143780255D01*
X155719670Y-143800000D01*
X154800001Y-143800000D01*
X154800001Y-144302798D01*
X154814963Y-144435602D01*
X154814965Y-144435612D01*
X154873887Y-144603999D01*
X154968797Y-144755050D01*
X155094949Y-144881202D01*
X155246001Y-144976112D01*
X155246000Y-144976112D01*
X155338440Y-145008459D01*
X155395216Y-145049181D01*
X155420963Y-145114133D01*
X155407506Y-145182695D01*
X155359119Y-145233098D01*
X155297485Y-145249500D01*
X145362229Y-145249500D01*
X145295190Y-145229815D01*
X145274548Y-145213181D01*
X144892246Y-144830878D01*
X144858761Y-144769555D01*
X144863745Y-144699863D01*
X144892245Y-144655517D01*
X144915690Y-144632073D01*
X145026760Y-144479199D01*
X145112547Y-144310832D01*
X145170940Y-144131118D01*
X145200500Y-143944486D01*
X145200500Y-143155513D01*
X145170940Y-142968881D01*
X145126480Y-142832049D01*
X145126479Y-142832046D01*
X145112547Y-142789167D01*
X145026759Y-142620800D01*
X144915690Y-142467927D01*
X144842245Y-142394482D01*
X144808761Y-142333158D01*
X144813746Y-142263467D01*
X144842244Y-142219122D01*
X150582951Y-136478416D01*
X150665084Y-136355495D01*
X150721658Y-136218913D01*
X150750500Y-136073918D01*
X150750500Y-135926083D01*
X150750500Y-134422069D01*
X151099500Y-134422069D01*
X151099500Y-134702932D01*
X151130942Y-134981995D01*
X151130945Y-134982013D01*
X151193439Y-135255818D01*
X151193443Y-135255830D01*
X151286200Y-135520912D01*
X151408053Y-135773943D01*
X151408055Y-135773946D01*
X151557477Y-136011749D01*
X151607057Y-136073920D01*
X151732581Y-136231323D01*
X151732584Y-136231326D01*
X151931175Y-136429917D01*
X152150752Y-136605024D01*
X152388555Y-136754446D01*
X152641592Y-136876302D01*
X152840680Y-136945966D01*
X152906670Y-136969057D01*
X152906682Y-136969061D01*
X153180491Y-137031556D01*
X153180497Y-137031556D01*
X153180505Y-137031558D01*
X153366547Y-137052519D01*
X153459569Y-137063000D01*
X153459572Y-137063001D01*
X153459575Y-137063001D01*
X153740428Y-137063001D01*
X153740429Y-137063000D01*
X153883055Y-137046930D01*
X154019494Y-137031558D01*
X154019499Y-137031557D01*
X154019509Y-137031556D01*
X154293318Y-136969061D01*
X154558408Y-136876302D01*
X154811445Y-136754446D01*
X155049248Y-136605024D01*
X155268825Y-136429917D01*
X155467416Y-136231326D01*
X155642523Y-136011749D01*
X155791945Y-135773946D01*
X155913801Y-135520909D01*
X156006560Y-135255819D01*
X156069055Y-134982010D01*
X156100500Y-134702926D01*
X156100500Y-134422076D01*
X156069055Y-134142992D01*
X156006560Y-133869183D01*
X155913801Y-133604093D01*
X155791945Y-133351056D01*
X155642523Y-133113253D01*
X155467416Y-132893676D01*
X155268825Y-132695085D01*
X155049248Y-132519978D01*
X154811445Y-132370556D01*
X154811442Y-132370554D01*
X154558411Y-132248701D01*
X154293329Y-132155944D01*
X154293317Y-132155940D01*
X154019512Y-132093446D01*
X154019494Y-132093443D01*
X153740431Y-132062001D01*
X153740425Y-132062001D01*
X153459575Y-132062001D01*
X153459568Y-132062001D01*
X153180505Y-132093443D01*
X153180487Y-132093446D01*
X152906682Y-132155940D01*
X152906670Y-132155944D01*
X152641588Y-132248701D01*
X152388557Y-132370554D01*
X152150753Y-132519977D01*
X151931175Y-132695084D01*
X151732583Y-132893676D01*
X151557476Y-133113254D01*
X151408053Y-133351058D01*
X151286200Y-133604089D01*
X151193443Y-133869171D01*
X151193439Y-133869183D01*
X151130945Y-134142988D01*
X151130942Y-134143006D01*
X151099500Y-134422069D01*
X150750500Y-134422069D01*
X150750500Y-127060183D01*
X154199999Y-127060183D01*
X154199999Y-127312501D01*
X155066987Y-127312501D01*
X155034074Y-127369508D01*
X154999999Y-127496675D01*
X154999999Y-127628327D01*
X155034074Y-127755494D01*
X155066987Y-127812501D01*
X154199999Y-127812501D01*
X154199999Y-128064818D01*
X154232008Y-128266918D01*
X154295243Y-128461532D01*
X154388139Y-128643850D01*
X154508416Y-128809395D01*
X154508416Y-128809396D01*
X154653103Y-128954083D01*
X154818649Y-129074360D01*
X155000967Y-129167255D01*
X155195577Y-129230489D01*
X155249999Y-129239108D01*
X155249999Y-127995513D01*
X155307006Y-128028426D01*
X155434173Y-128062501D01*
X155565825Y-128062501D01*
X155692992Y-128028426D01*
X155749999Y-127995513D01*
X155749999Y-129239107D01*
X155804420Y-129230489D01*
X155999030Y-129167255D01*
X156181348Y-129074360D01*
X156346893Y-128954083D01*
X156346894Y-128954083D01*
X156491581Y-128809396D01*
X156491581Y-128809395D01*
X156611860Y-128643848D01*
X156639234Y-128590123D01*
X156687208Y-128539327D01*
X156755028Y-128522531D01*
X156821164Y-128545068D01*
X156860204Y-128590122D01*
X156887715Y-128644114D01*
X157008028Y-128809714D01*
X157152786Y-128954472D01*
X157307749Y-129067057D01*
X157318390Y-129074788D01*
X157434607Y-129134004D01*
X157500776Y-129167719D01*
X157500778Y-129167719D01*
X157500781Y-129167721D01*
X157605137Y-129201628D01*
X157695465Y-129230978D01*
X157796557Y-129246989D01*
X157897648Y-129263001D01*
X157897649Y-129263001D01*
X158102351Y-129263001D01*
X158102352Y-129263001D01*
X158304534Y-129230978D01*
X158499219Y-129167721D01*
X158681610Y-129074788D01*
X158774590Y-129007233D01*
X158847213Y-128954472D01*
X158847215Y-128954469D01*
X158847219Y-128954467D01*
X158991966Y-128809720D01*
X158991968Y-128809716D01*
X158991971Y-128809714D01*
X159112286Y-128644112D01*
X159112420Y-128643850D01*
X159139515Y-128590672D01*
X159187489Y-128539877D01*
X159255310Y-128523081D01*
X159321445Y-128545618D01*
X159360484Y-128590671D01*
X159387714Y-128644112D01*
X159508029Y-128809714D01*
X159652787Y-128954472D01*
X159807750Y-129067057D01*
X159818391Y-129074788D01*
X159934608Y-129134004D01*
X160000777Y-129167719D01*
X160000779Y-129167719D01*
X160000782Y-129167721D01*
X160105138Y-129201628D01*
X160195466Y-129230978D01*
X160296558Y-129246989D01*
X160397649Y-129263001D01*
X160397650Y-129263001D01*
X160602352Y-129263001D01*
X160602353Y-129263001D01*
X160804535Y-129230978D01*
X160999220Y-129167721D01*
X161181611Y-129074788D01*
X161274591Y-129007233D01*
X161347214Y-128954472D01*
X161347216Y-128954469D01*
X161347220Y-128954467D01*
X161491967Y-128809720D01*
X161491969Y-128809716D01*
X161491972Y-128809714D01*
X161544733Y-128737091D01*
X161612288Y-128644111D01*
X161705221Y-128461720D01*
X161768478Y-128267035D01*
X161800501Y-128064853D01*
X161800501Y-127060149D01*
X161768478Y-126857966D01*
X161739128Y-126767638D01*
X161705221Y-126663282D01*
X161705219Y-126663279D01*
X161705219Y-126663277D01*
X161662472Y-126579382D01*
X161612288Y-126480891D01*
X161604557Y-126470250D01*
X161491972Y-126315287D01*
X161347214Y-126170529D01*
X161181611Y-126050213D01*
X161168201Y-126043380D01*
X161117407Y-125995404D01*
X161100501Y-125932898D01*
X161100501Y-113800947D01*
X161100501Y-113800945D01*
X161059578Y-113648218D01*
X161059578Y-113648217D01*
X161059578Y-113648216D01*
X161030640Y-113598097D01*
X161030638Y-113598094D01*
X160980521Y-113511286D01*
X160868717Y-113399482D01*
X160868716Y-113399481D01*
X160864386Y-113395151D01*
X160864375Y-113395141D01*
X159532159Y-112062925D01*
X159498674Y-112001602D01*
X159501909Y-111936926D01*
X159561089Y-111754789D01*
X159561089Y-111754788D01*
X159561090Y-111754785D01*
X159600500Y-111505962D01*
X159600500Y-111254038D01*
X159561090Y-111005215D01*
X159483241Y-110765621D01*
X159483239Y-110765618D01*
X159483239Y-110765616D01*
X159441747Y-110684184D01*
X159368870Y-110541155D01*
X159349952Y-110515117D01*
X159220798Y-110337350D01*
X159220794Y-110337345D01*
X159042654Y-110159205D01*
X159042649Y-110159201D01*
X158838848Y-110011132D01*
X158838847Y-110011131D01*
X158838845Y-110011130D01*
X158768747Y-109975413D01*
X158614383Y-109896760D01*
X158374785Y-109818910D01*
X158125962Y-109779500D01*
X157874038Y-109779500D01*
X157749626Y-109799205D01*
X157625214Y-109818910D01*
X157385616Y-109896760D01*
X157161151Y-110011132D01*
X156957350Y-110159201D01*
X156957345Y-110159205D01*
X156779205Y-110337345D01*
X156779201Y-110337350D01*
X156631132Y-110541151D01*
X156516760Y-110765616D01*
X156438910Y-111005214D01*
X156399500Y-111254038D01*
X156399500Y-111505961D01*
X156438910Y-111754785D01*
X156516760Y-111994383D01*
X156631132Y-112218848D01*
X156779201Y-112422649D01*
X156779205Y-112422654D01*
X156957345Y-112600794D01*
X156957350Y-112600798D01*
X157135117Y-112729952D01*
X157161155Y-112748870D01*
X157304184Y-112821747D01*
X157385616Y-112863239D01*
X157385618Y-112863239D01*
X157385621Y-112863241D01*
X157625215Y-112941090D01*
X157874038Y-112980500D01*
X157874039Y-112980500D01*
X158125961Y-112980500D01*
X158125962Y-112980500D01*
X158374785Y-112941090D01*
X158556925Y-112881908D01*
X158626764Y-112879914D01*
X158682923Y-112912159D01*
X159863182Y-114092418D01*
X159896667Y-114153741D01*
X159899501Y-114180099D01*
X159899501Y-125932898D01*
X159879816Y-125999937D01*
X159831801Y-126043380D01*
X159818390Y-126050213D01*
X159652787Y-126170529D01*
X159508029Y-126315287D01*
X159387715Y-126480887D01*
X159360484Y-126534331D01*
X159312509Y-126585126D01*
X159244688Y-126601920D01*
X159178553Y-126579382D01*
X159139515Y-126534329D01*
X159112419Y-126481151D01*
X159112287Y-126480891D01*
X159104556Y-126470250D01*
X158991971Y-126315287D01*
X158847213Y-126170529D01*
X158681613Y-126050216D01*
X158681612Y-126050215D01*
X158681610Y-126050214D01*
X158624653Y-126021192D01*
X158499223Y-125957282D01*
X158304534Y-125894023D01*
X158129995Y-125866379D01*
X158102352Y-125862001D01*
X157897648Y-125862001D01*
X157873329Y-125865852D01*
X157695465Y-125894023D01*
X157500776Y-125957282D01*
X157318386Y-126050216D01*
X157152786Y-126170529D01*
X157008028Y-126315287D01*
X156887713Y-126480889D01*
X156860203Y-126534880D01*
X156812228Y-126585676D01*
X156744407Y-126602470D01*
X156678272Y-126579932D01*
X156639234Y-126534879D01*
X156611858Y-126481151D01*
X156491581Y-126315606D01*
X156491581Y-126315605D01*
X156346894Y-126170918D01*
X156181348Y-126050641D01*
X155999028Y-125957745D01*
X155804412Y-125894510D01*
X155749999Y-125885891D01*
X155749999Y-127129489D01*
X155692992Y-127096576D01*
X155565825Y-127062501D01*
X155434173Y-127062501D01*
X155307006Y-127096576D01*
X155249999Y-127129489D01*
X155249999Y-125885891D01*
X155195585Y-125894510D01*
X155000969Y-125957745D01*
X154818649Y-126050641D01*
X154653104Y-126170918D01*
X154653103Y-126170918D01*
X154508416Y-126315605D01*
X154508416Y-126315606D01*
X154388139Y-126481151D01*
X154295243Y-126663469D01*
X154232008Y-126858083D01*
X154199999Y-127060183D01*
X150750500Y-127060183D01*
X150750500Y-119554071D01*
X156400000Y-119554071D01*
X156400000Y-119805928D01*
X156439397Y-120054669D01*
X156517219Y-120294184D01*
X156631557Y-120518583D01*
X156705748Y-120620697D01*
X156705748Y-120620698D01*
X157435387Y-119891059D01*
X157440889Y-119911591D01*
X157519881Y-120048408D01*
X157631592Y-120160119D01*
X157768409Y-120239111D01*
X157788940Y-120244612D01*
X157059300Y-120974250D01*
X157161415Y-121048441D01*
X157164399Y-121050270D01*
X157165295Y-121051260D01*
X157165359Y-121051307D01*
X157165349Y-121051320D01*
X157211276Y-121102080D01*
X157222701Y-121171009D01*
X157195047Y-121235173D01*
X157137093Y-121274200D01*
X157099613Y-121280000D01*
X156952155Y-121280000D01*
X156892627Y-121286401D01*
X156892620Y-121286403D01*
X156757913Y-121336645D01*
X156757906Y-121336649D01*
X156642812Y-121422809D01*
X156642809Y-121422812D01*
X156556649Y-121537906D01*
X156556645Y-121537913D01*
X156506403Y-121672620D01*
X156506401Y-121672627D01*
X156500000Y-121732155D01*
X156500000Y-122530000D01*
X157451518Y-122530000D01*
X157440889Y-122548409D01*
X157400000Y-122701009D01*
X157400000Y-122858991D01*
X157440889Y-123011591D01*
X157451518Y-123030000D01*
X156500000Y-123030000D01*
X156500000Y-123827844D01*
X156506401Y-123887372D01*
X156506403Y-123887379D01*
X156556645Y-124022086D01*
X156556649Y-124022093D01*
X156642809Y-124137187D01*
X156642812Y-124137190D01*
X156757906Y-124223350D01*
X156757913Y-124223354D01*
X156892620Y-124273596D01*
X156892627Y-124273598D01*
X156952155Y-124279999D01*
X156952172Y-124280000D01*
X157750000Y-124280000D01*
X157750000Y-123328482D01*
X157768409Y-123339111D01*
X157921009Y-123380000D01*
X158078991Y-123380000D01*
X158231591Y-123339111D01*
X158250000Y-123328482D01*
X158250000Y-124280000D01*
X159047828Y-124280000D01*
X159047844Y-124279999D01*
X159107372Y-124273598D01*
X159107379Y-124273596D01*
X159242086Y-124223354D01*
X159242093Y-124223350D01*
X159357187Y-124137190D01*
X159357190Y-124137187D01*
X159443350Y-124022093D01*
X159443354Y-124022086D01*
X159493596Y-123887379D01*
X159493598Y-123887372D01*
X159499999Y-123827844D01*
X159500000Y-123827827D01*
X159500000Y-123030000D01*
X158548482Y-123030000D01*
X158559111Y-123011591D01*
X158600000Y-122858991D01*
X158600000Y-122701009D01*
X158559111Y-122548409D01*
X158548482Y-122530000D01*
X159500000Y-122530000D01*
X159500000Y-121732172D01*
X159499999Y-121732155D01*
X159493598Y-121672627D01*
X159493596Y-121672620D01*
X159443354Y-121537913D01*
X159443350Y-121537906D01*
X159357190Y-121422812D01*
X159357187Y-121422809D01*
X159242093Y-121336649D01*
X159242086Y-121336645D01*
X159107379Y-121286403D01*
X159107372Y-121286401D01*
X159047844Y-121280000D01*
X158900387Y-121280000D01*
X158833348Y-121260315D01*
X158787593Y-121207511D01*
X158777649Y-121138353D01*
X158806674Y-121074797D01*
X158835591Y-121050277D01*
X158838571Y-121048450D01*
X158940697Y-120974250D01*
X158940698Y-120974250D01*
X158211059Y-120244612D01*
X158231591Y-120239111D01*
X158368408Y-120160119D01*
X158480119Y-120048408D01*
X158559111Y-119911591D01*
X158564612Y-119891060D01*
X159294250Y-120620698D01*
X159294250Y-120620697D01*
X159368442Y-120518581D01*
X159368446Y-120518575D01*
X159482780Y-120294184D01*
X159560602Y-120054669D01*
X159600000Y-119805928D01*
X159600000Y-119554071D01*
X159560602Y-119305330D01*
X159482780Y-119065815D01*
X159368442Y-118841416D01*
X159294250Y-118739301D01*
X159294250Y-118739300D01*
X158564612Y-119468939D01*
X158559111Y-119448409D01*
X158480119Y-119311592D01*
X158368408Y-119199881D01*
X158231591Y-119120889D01*
X158211058Y-119115387D01*
X158940698Y-118385748D01*
X158838583Y-118311557D01*
X158614184Y-118197219D01*
X158374669Y-118119397D01*
X158125928Y-118080000D01*
X157874072Y-118080000D01*
X157625330Y-118119397D01*
X157385815Y-118197219D01*
X157161413Y-118311559D01*
X157059301Y-118385747D01*
X157059300Y-118385748D01*
X157788940Y-119115387D01*
X157768409Y-119120889D01*
X157631592Y-119199881D01*
X157519881Y-119311592D01*
X157440889Y-119448409D01*
X157435387Y-119468940D01*
X156705748Y-118739300D01*
X156705747Y-118739301D01*
X156631559Y-118841413D01*
X156517219Y-119065815D01*
X156439397Y-119305330D01*
X156400000Y-119554071D01*
X150750500Y-119554071D01*
X150750500Y-116299995D01*
X156494858Y-116299995D01*
X156494859Y-116300007D01*
X156515070Y-116545831D01*
X156575159Y-116785055D01*
X156575162Y-116785063D01*
X156673512Y-117011253D01*
X156673514Y-117011256D01*
X156807492Y-117218355D01*
X156973496Y-117400790D01*
X157167068Y-117553664D01*
X157383008Y-117672869D01*
X157383017Y-117672873D01*
X157615508Y-117755203D01*
X157615513Y-117755204D01*
X157615518Y-117755206D01*
X157615524Y-117755207D01*
X157615528Y-117755208D01*
X157665797Y-117764162D01*
X157858354Y-117798461D01*
X157858347Y-117798461D01*
X157877566Y-117798695D01*
X158104993Y-117801475D01*
X158348813Y-117764165D01*
X158583266Y-117687534D01*
X158802054Y-117573640D01*
X158999303Y-117425542D01*
X159169714Y-117247216D01*
X159308712Y-117043452D01*
X159412564Y-116819722D01*
X159478481Y-116582035D01*
X159504692Y-116336774D01*
X159490493Y-116090525D01*
X159466020Y-115981928D01*
X159436268Y-115849907D01*
X159394044Y-115745921D01*
X159343468Y-115621366D01*
X159214589Y-115411055D01*
X159214588Y-115411054D01*
X159214587Y-115411052D01*
X159139601Y-115324487D01*
X159053092Y-115224618D01*
X158863313Y-115067061D01*
X158863311Y-115067059D01*
X158863303Y-115067054D01*
X158650349Y-114942614D01*
X158419927Y-114854624D01*
X158355731Y-114841563D01*
X158178215Y-114805447D01*
X158178216Y-114805447D01*
X158137132Y-114803940D01*
X157931722Y-114796408D01*
X157931720Y-114796408D01*
X157931717Y-114796408D01*
X157687062Y-114827750D01*
X157450815Y-114898627D01*
X157450813Y-114898628D01*
X157229302Y-115007144D01*
X157028500Y-115150374D01*
X157028493Y-115150380D01*
X156853777Y-115324487D01*
X156853773Y-115324492D01*
X156709843Y-115524791D01*
X156709840Y-115524797D01*
X156600555Y-115745918D01*
X156600554Y-115745923D01*
X156528850Y-115981928D01*
X156496657Y-116226459D01*
X156496656Y-116226480D01*
X156494858Y-116299995D01*
X150750500Y-116299995D01*
X150750500Y-103426082D01*
X150750500Y-103426079D01*
X150721659Y-103281092D01*
X150721658Y-103281091D01*
X150721658Y-103281087D01*
X150688943Y-103202105D01*
X150665087Y-103144511D01*
X150665080Y-103144498D01*
X150582952Y-103021585D01*
X150550710Y-102989343D01*
X150478416Y-102917049D01*
X149942649Y-102381282D01*
X149390422Y-101829054D01*
X150899498Y-101829054D01*
X150940423Y-101981785D01*
X150959725Y-102015218D01*
X150959727Y-102015220D01*
X151014737Y-102110500D01*
X151019479Y-102118714D01*
X151019481Y-102118717D01*
X151138349Y-102237585D01*
X151138355Y-102237590D01*
X151863181Y-102962416D01*
X151877884Y-102989343D01*
X151894477Y-103015162D01*
X151895368Y-103021362D01*
X151896666Y-103023739D01*
X151899500Y-103050097D01*
X151899500Y-103158164D01*
X151879815Y-103225203D01*
X151831796Y-103268648D01*
X151765976Y-103302185D01*
X151587641Y-103431752D01*
X151587636Y-103431756D01*
X151431756Y-103587636D01*
X151431752Y-103587641D01*
X151302187Y-103765974D01*
X151202104Y-103962393D01*
X151202103Y-103962396D01*
X151133985Y-104172047D01*
X151099500Y-104389778D01*
X151099500Y-104610221D01*
X151133985Y-104827952D01*
X151202103Y-105037603D01*
X151202104Y-105037606D01*
X151302187Y-105234025D01*
X151431752Y-105412358D01*
X151431756Y-105412363D01*
X151587636Y-105568243D01*
X151587641Y-105568247D01*
X151743192Y-105681260D01*
X151765978Y-105697815D01*
X151894375Y-105763237D01*
X151962393Y-105797895D01*
X151962396Y-105797896D01*
X152067221Y-105831955D01*
X152172049Y-105866015D01*
X152389778Y-105900500D01*
X152389779Y-105900500D01*
X152610221Y-105900500D01*
X152610222Y-105900500D01*
X152827951Y-105866015D01*
X153037606Y-105797895D01*
X153234022Y-105697815D01*
X153412365Y-105568242D01*
X153568242Y-105412365D01*
X153697815Y-105234022D01*
X153797895Y-105037606D01*
X153866015Y-104827951D01*
X153900500Y-104610222D01*
X153900500Y-104389778D01*
X153866015Y-104172049D01*
X153797895Y-103962394D01*
X153797895Y-103962393D01*
X153746858Y-103862229D01*
X153697815Y-103765978D01*
X153681260Y-103743192D01*
X153568247Y-103587641D01*
X153568243Y-103587636D01*
X153412363Y-103431756D01*
X153412358Y-103431752D01*
X153234023Y-103302185D01*
X153168204Y-103268648D01*
X153117409Y-103220674D01*
X153100500Y-103158164D01*
X153100500Y-102839060D01*
X153100501Y-102839047D01*
X153100501Y-102670944D01*
X153059576Y-102518214D01*
X153059573Y-102518209D01*
X152980524Y-102381290D01*
X152980518Y-102381282D01*
X152837051Y-102237815D01*
X152803566Y-102176492D01*
X152808550Y-102106800D01*
X152850422Y-102050867D01*
X152915886Y-102026450D01*
X152963048Y-102032202D01*
X153052872Y-102061388D01*
X153105465Y-102078477D01*
X153206557Y-102094488D01*
X153307648Y-102110500D01*
X153307649Y-102110500D01*
X154312351Y-102110500D01*
X154312352Y-102110500D01*
X154514534Y-102078477D01*
X154709219Y-102015220D01*
X154891610Y-101922287D01*
X154984590Y-101854732D01*
X155057213Y-101801971D01*
X155057215Y-101801968D01*
X155057219Y-101801966D01*
X155201966Y-101657219D01*
X155322287Y-101491610D01*
X155353714Y-101429929D01*
X155367078Y-101415778D01*
X155376384Y-101398676D01*
X155394992Y-101386222D01*
X155401686Y-101379135D01*
X155404607Y-101377483D01*
X155416401Y-101371019D01*
X155421785Y-101369577D01*
X155471904Y-101340639D01*
X155558716Y-101290520D01*
X155670520Y-101178716D01*
X155670520Y-101178714D01*
X155680728Y-101168507D01*
X155680730Y-101168504D01*
X156552935Y-100296298D01*
X156614256Y-100262815D01*
X156683948Y-100267799D01*
X156739881Y-100309671D01*
X156764298Y-100375135D01*
X156758545Y-100422299D01*
X156731523Y-100505461D01*
X156731523Y-100505464D01*
X156699500Y-100707648D01*
X156699500Y-100912351D01*
X156731522Y-101114534D01*
X156794781Y-101309223D01*
X156887715Y-101491613D01*
X157008028Y-101657213D01*
X157152786Y-101801971D01*
X157266662Y-101884705D01*
X157318390Y-101922287D01*
X157434607Y-101981503D01*
X157500776Y-102015218D01*
X157500778Y-102015218D01*
X157500781Y-102015220D01*
X157605137Y-102049127D01*
X157695465Y-102078477D01*
X157796557Y-102094488D01*
X157897648Y-102110500D01*
X157897649Y-102110500D01*
X158102351Y-102110500D01*
X158102352Y-102110500D01*
X158304534Y-102078477D01*
X158499219Y-102015220D01*
X158681610Y-101922287D01*
X158774590Y-101854732D01*
X158847213Y-101801971D01*
X158847215Y-101801968D01*
X158847219Y-101801966D01*
X158991966Y-101657219D01*
X158991968Y-101657215D01*
X158991971Y-101657213D01*
X159112284Y-101491614D01*
X159112285Y-101491613D01*
X159112287Y-101491610D01*
X159119117Y-101478204D01*
X159167091Y-101427409D01*
X159229602Y-101410500D01*
X160770398Y-101410500D01*
X160837437Y-101430185D01*
X160880883Y-101478205D01*
X160887715Y-101491614D01*
X161008028Y-101657213D01*
X161152786Y-101801971D01*
X161266662Y-101884705D01*
X161318390Y-101922287D01*
X161434607Y-101981503D01*
X161500776Y-102015218D01*
X161500778Y-102015218D01*
X161500781Y-102015220D01*
X161605137Y-102049127D01*
X161695465Y-102078477D01*
X161796557Y-102094488D01*
X161897648Y-102110500D01*
X161897649Y-102110500D01*
X162102351Y-102110500D01*
X162102352Y-102110500D01*
X162304534Y-102078477D01*
X162499219Y-102015220D01*
X162681610Y-101922287D01*
X162774590Y-101854732D01*
X162847213Y-101801971D01*
X162847215Y-101801968D01*
X162847219Y-101801966D01*
X162991966Y-101657219D01*
X162991968Y-101657215D01*
X162991971Y-101657213D01*
X163044732Y-101584590D01*
X163112287Y-101491610D01*
X163205220Y-101309219D01*
X163268477Y-101114534D01*
X163300500Y-100912352D01*
X163300500Y-100707648D01*
X163268477Y-100505466D01*
X163268476Y-100505464D01*
X163205218Y-100310776D01*
X163162556Y-100227048D01*
X163112287Y-100128390D01*
X163052633Y-100046282D01*
X162991971Y-99962786D01*
X162847213Y-99818028D01*
X162681613Y-99697715D01*
X162681612Y-99697714D01*
X162681610Y-99697713D01*
X162624653Y-99668691D01*
X162499223Y-99604781D01*
X162304534Y-99541522D01*
X162129995Y-99513878D01*
X162102352Y-99509500D01*
X161897648Y-99509500D01*
X161873329Y-99513351D01*
X161695465Y-99541522D01*
X161500776Y-99604781D01*
X161318386Y-99697715D01*
X161152786Y-99818028D01*
X161008028Y-99962786D01*
X160887715Y-100128385D01*
X160880883Y-100141795D01*
X160832909Y-100192591D01*
X160770398Y-100209500D01*
X159229602Y-100209500D01*
X159162563Y-100189815D01*
X159119117Y-100141795D01*
X159118063Y-100139726D01*
X159112287Y-100128390D01*
X159112285Y-100128387D01*
X159112284Y-100128385D01*
X158991971Y-99962786D01*
X158847213Y-99818028D01*
X158681613Y-99697715D01*
X158681612Y-99697714D01*
X158681610Y-99697713D01*
X158624653Y-99668691D01*
X158499223Y-99604781D01*
X158304534Y-99541522D01*
X158129995Y-99513878D01*
X158102352Y-99509500D01*
X157897648Y-99509500D01*
X157830254Y-99520174D01*
X157695464Y-99541523D01*
X157695461Y-99541523D01*
X157612299Y-99568545D01*
X157542458Y-99570540D01*
X157482625Y-99534460D01*
X157451797Y-99471759D01*
X157459762Y-99402345D01*
X157486297Y-99362936D01*
X160368713Y-96480521D01*
X160368716Y-96480520D01*
X160480520Y-96368716D01*
X160530639Y-96281904D01*
X160559577Y-96231785D01*
X160600500Y-96079058D01*
X160600500Y-95920943D01*
X160600500Y-93823320D01*
X160620185Y-93756281D01*
X160672989Y-93710526D01*
X160742147Y-93700582D01*
X160805703Y-93729607D01*
X160834985Y-93767025D01*
X160888141Y-93871350D01*
X160888147Y-93871359D01*
X160920523Y-93915921D01*
X160920524Y-93915922D01*
X161600000Y-93236446D01*
X161600000Y-93242661D01*
X161627259Y-93344394D01*
X161679920Y-93435606D01*
X161754394Y-93510080D01*
X161845606Y-93562741D01*
X161947339Y-93590000D01*
X161953553Y-93590000D01*
X161274076Y-94269474D01*
X161318650Y-94301859D01*
X161500968Y-94394755D01*
X161695582Y-94457990D01*
X161897683Y-94490000D01*
X162102317Y-94490000D01*
X162304417Y-94457990D01*
X162499031Y-94394755D01*
X162681349Y-94301859D01*
X162725921Y-94269474D01*
X162046447Y-93590000D01*
X162052661Y-93590000D01*
X162154394Y-93562741D01*
X162245606Y-93510080D01*
X162320080Y-93435606D01*
X162372741Y-93344394D01*
X162400000Y-93242661D01*
X162400000Y-93236447D01*
X163079474Y-93915921D01*
X163111859Y-93871349D01*
X163204755Y-93689031D01*
X163267990Y-93494417D01*
X163300000Y-93292317D01*
X163300000Y-93087682D01*
X163267990Y-92885582D01*
X163204755Y-92690968D01*
X163111859Y-92508650D01*
X163079474Y-92464077D01*
X163079474Y-92464076D01*
X162400000Y-93143551D01*
X162400000Y-93137339D01*
X162372741Y-93035606D01*
X162320080Y-92944394D01*
X162245606Y-92869920D01*
X162154394Y-92817259D01*
X162052661Y-92790000D01*
X162046446Y-92790000D01*
X162725922Y-92110524D01*
X162725921Y-92110523D01*
X162681359Y-92078147D01*
X162681350Y-92078141D01*
X162499031Y-91985244D01*
X162304417Y-91922009D01*
X162102317Y-91890000D01*
X161897683Y-91890000D01*
X161695582Y-91922009D01*
X161500968Y-91985244D01*
X161318644Y-92078143D01*
X161274077Y-92110523D01*
X161274077Y-92110524D01*
X161953554Y-92790000D01*
X161947339Y-92790000D01*
X161845606Y-92817259D01*
X161754394Y-92869920D01*
X161679920Y-92944394D01*
X161627259Y-93035606D01*
X161600000Y-93137339D01*
X161600000Y-93143553D01*
X160920524Y-92464077D01*
X160920523Y-92464077D01*
X160888143Y-92508644D01*
X160834985Y-92612974D01*
X160787010Y-92663770D01*
X160719189Y-92680565D01*
X160653054Y-92658027D01*
X160609603Y-92603312D01*
X160600500Y-92556679D01*
X160600500Y-92300096D01*
X160609144Y-92270655D01*
X160615668Y-92240669D01*
X160619422Y-92235653D01*
X160620185Y-92233057D01*
X160636814Y-92212420D01*
X161975797Y-90873436D01*
X162037118Y-90839953D01*
X162101794Y-90843188D01*
X162172049Y-90866015D01*
X162389778Y-90900500D01*
X162389779Y-90900500D01*
X162610221Y-90900500D01*
X162610222Y-90900500D01*
X162827951Y-90866015D01*
X163037606Y-90797895D01*
X163234022Y-90697815D01*
X163412365Y-90568242D01*
X163568242Y-90412365D01*
X163697815Y-90234022D01*
X163797895Y-90037606D01*
X163866015Y-89827951D01*
X163900500Y-89610222D01*
X163900500Y-89389778D01*
X163866015Y-89172049D01*
X163797895Y-88962394D01*
X163797895Y-88962393D01*
X163763237Y-88894375D01*
X163697815Y-88765978D01*
X163681260Y-88743192D01*
X163568247Y-88587641D01*
X163568243Y-88587636D01*
X163412363Y-88431756D01*
X163412358Y-88431752D01*
X163234025Y-88302187D01*
X163234024Y-88302186D01*
X163234022Y-88302185D01*
X163171096Y-88270122D01*
X163037606Y-88202104D01*
X163037603Y-88202103D01*
X162827952Y-88133985D01*
X162719086Y-88116742D01*
X162610222Y-88099500D01*
X162389778Y-88099500D01*
X162317201Y-88110995D01*
X162172047Y-88133985D01*
X161962396Y-88202103D01*
X161962393Y-88202104D01*
X161765974Y-88302187D01*
X161587641Y-88431752D01*
X161587636Y-88431756D01*
X161431756Y-88587636D01*
X161431752Y-88587641D01*
X161302187Y-88765974D01*
X161202104Y-88962393D01*
X161202103Y-88962396D01*
X161133985Y-89172047D01*
X161099500Y-89389778D01*
X161099500Y-89610221D01*
X161133985Y-89827952D01*
X161156811Y-89898203D01*
X161158806Y-89968044D01*
X161126561Y-90024202D01*
X159631286Y-91519478D01*
X159519481Y-91631282D01*
X159519479Y-91631285D01*
X159469361Y-91718094D01*
X159469359Y-91718096D01*
X159440425Y-91768209D01*
X159440424Y-91768210D01*
X159440423Y-91768215D01*
X159399499Y-91920943D01*
X159399499Y-91920945D01*
X159399499Y-92089046D01*
X159399500Y-92089059D01*
X159399500Y-92555579D01*
X159379815Y-92622618D01*
X159327011Y-92668373D01*
X159257853Y-92678317D01*
X159194297Y-92649292D01*
X159165015Y-92611874D01*
X159156438Y-92595042D01*
X159112287Y-92508390D01*
X159080092Y-92464077D01*
X158991971Y-92342786D01*
X158847213Y-92198028D01*
X158681613Y-92077715D01*
X158681612Y-92077714D01*
X158681610Y-92077713D01*
X158624653Y-92048691D01*
X158499223Y-91984781D01*
X158304534Y-91921522D01*
X158129995Y-91893878D01*
X158102352Y-91889500D01*
X157897648Y-91889500D01*
X157873329Y-91893351D01*
X157695465Y-91921522D01*
X157500776Y-91984781D01*
X157318386Y-92077715D01*
X157152786Y-92198028D01*
X157008028Y-92342786D01*
X156887715Y-92508386D01*
X156794781Y-92690776D01*
X156731522Y-92885465D01*
X156699500Y-93087648D01*
X156699500Y-93292351D01*
X156731522Y-93494534D01*
X156794781Y-93689223D01*
X156839907Y-93777786D01*
X156887585Y-93871359D01*
X156887715Y-93871613D01*
X157008028Y-94037213D01*
X157152786Y-94181971D01*
X157273226Y-94269474D01*
X157318390Y-94302287D01*
X157407212Y-94347544D01*
X157500776Y-94395218D01*
X157500778Y-94395218D01*
X157500781Y-94395220D01*
X157605137Y-94429127D01*
X157695465Y-94458477D01*
X157714697Y-94461523D01*
X157897648Y-94490500D01*
X157897649Y-94490500D01*
X158102351Y-94490500D01*
X158102352Y-94490500D01*
X158304534Y-94458477D01*
X158499219Y-94395220D01*
X158681610Y-94302287D01*
X158777901Y-94232328D01*
X158847213Y-94181971D01*
X158847215Y-94181968D01*
X158847219Y-94181966D01*
X158991966Y-94037219D01*
X158991968Y-94037215D01*
X158991971Y-94037213D01*
X159112284Y-93871614D01*
X159112285Y-93871613D01*
X159112287Y-93871610D01*
X159165015Y-93768124D01*
X159212989Y-93717329D01*
X159280810Y-93700534D01*
X159346945Y-93723071D01*
X159390397Y-93777786D01*
X159399500Y-93824420D01*
X159399500Y-95699903D01*
X159379815Y-95766942D01*
X159363181Y-95787584D01*
X155282656Y-99868109D01*
X155221333Y-99901594D01*
X155151641Y-99896610D01*
X155107294Y-99868109D01*
X155057213Y-99818028D01*
X154891614Y-99697715D01*
X154885006Y-99694348D01*
X154798917Y-99650483D01*
X154748123Y-99602511D01*
X154731328Y-99534690D01*
X154753865Y-99468555D01*
X154798917Y-99429516D01*
X154891610Y-99382287D01*
X154918249Y-99362933D01*
X155057213Y-99261971D01*
X155057215Y-99261968D01*
X155057219Y-99261966D01*
X155201966Y-99117219D01*
X155201968Y-99117215D01*
X155201971Y-99117213D01*
X155295181Y-98988918D01*
X155322287Y-98951610D01*
X155415220Y-98769219D01*
X155478477Y-98574534D01*
X155510500Y-98372352D01*
X155510500Y-98167648D01*
X155502257Y-98115606D01*
X155478477Y-97965465D01*
X155415218Y-97770776D01*
X155381503Y-97704607D01*
X155322287Y-97588390D01*
X155262633Y-97506282D01*
X155201971Y-97422786D01*
X155057213Y-97278028D01*
X154891614Y-97157715D01*
X154885006Y-97154348D01*
X154798917Y-97110483D01*
X154748123Y-97062511D01*
X154731328Y-96994690D01*
X154753865Y-96928555D01*
X154798917Y-96889516D01*
X154891610Y-96842287D01*
X154912770Y-96826913D01*
X155057213Y-96721971D01*
X155057215Y-96721968D01*
X155057219Y-96721966D01*
X155201966Y-96577219D01*
X155201968Y-96577215D01*
X155201971Y-96577213D01*
X155270377Y-96483058D01*
X155322287Y-96411610D01*
X155415220Y-96229219D01*
X155478477Y-96034534D01*
X155510500Y-95832352D01*
X155510500Y-95627648D01*
X155478477Y-95425466D01*
X155415220Y-95230781D01*
X155415218Y-95230778D01*
X155415218Y-95230776D01*
X155381503Y-95164607D01*
X155322287Y-95048390D01*
X155309700Y-95031065D01*
X155201971Y-94882786D01*
X155057213Y-94738028D01*
X154891614Y-94617715D01*
X154885006Y-94614348D01*
X154798917Y-94570483D01*
X154748123Y-94522511D01*
X154731328Y-94454690D01*
X154753865Y-94388555D01*
X154798917Y-94349516D01*
X154891610Y-94302287D01*
X154936774Y-94269474D01*
X155057213Y-94181971D01*
X155057215Y-94181968D01*
X155057219Y-94181966D01*
X155201966Y-94037219D01*
X155201968Y-94037215D01*
X155201971Y-94037213D01*
X155254732Y-93964590D01*
X155322287Y-93871610D01*
X155415220Y-93689219D01*
X155478477Y-93494534D01*
X155510500Y-93292352D01*
X155510500Y-93087648D01*
X155502257Y-93035606D01*
X155478477Y-92885465D01*
X155447458Y-92790000D01*
X155415220Y-92690781D01*
X155415218Y-92690778D01*
X155415218Y-92690776D01*
X155370652Y-92603312D01*
X155322287Y-92508390D01*
X155290092Y-92464077D01*
X155201971Y-92342786D01*
X155057213Y-92198028D01*
X154891613Y-92077715D01*
X154891612Y-92077714D01*
X154891610Y-92077713D01*
X154834653Y-92048691D01*
X154709223Y-91984781D01*
X154514534Y-91921522D01*
X154339995Y-91893878D01*
X154312352Y-91889500D01*
X153307648Y-91889500D01*
X153283329Y-91893351D01*
X153105465Y-91921522D01*
X152910776Y-91984781D01*
X152728386Y-92077715D01*
X152562786Y-92198028D01*
X152418028Y-92342786D01*
X152297715Y-92508386D01*
X152204781Y-92690776D01*
X152141522Y-92885465D01*
X152109500Y-93087648D01*
X152109500Y-93292351D01*
X152141522Y-93494534D01*
X152204781Y-93689223D01*
X152249907Y-93777786D01*
X152297585Y-93871359D01*
X152297715Y-93871613D01*
X152418028Y-94037213D01*
X152562786Y-94181971D01*
X152683226Y-94269474D01*
X152728390Y-94302287D01*
X152817212Y-94347544D01*
X152821080Y-94349515D01*
X152871876Y-94397490D01*
X152888671Y-94465311D01*
X152866134Y-94531446D01*
X152821080Y-94570485D01*
X152728386Y-94617715D01*
X152562786Y-94738028D01*
X152418028Y-94882786D01*
X152297715Y-95048385D01*
X152290883Y-95061795D01*
X152242909Y-95112591D01*
X152180398Y-95129500D01*
X152099057Y-95129500D01*
X151940943Y-95129500D01*
X151788215Y-95170423D01*
X151788214Y-95170423D01*
X151788212Y-95170424D01*
X151788209Y-95170425D01*
X151738096Y-95199359D01*
X151738095Y-95199360D01*
X151694689Y-95224420D01*
X151651285Y-95249479D01*
X151651282Y-95249481D01*
X151019481Y-95881282D01*
X151019477Y-95881287D01*
X150973004Y-95961783D01*
X150973003Y-95961782D01*
X150940424Y-96018211D01*
X150940423Y-96018215D01*
X150899499Y-96170943D01*
X150899499Y-96329057D01*
X150899499Y-96329059D01*
X150899500Y-96339053D01*
X150899500Y-101663330D01*
X150899499Y-101663348D01*
X150899499Y-101829054D01*
X150899498Y-101829054D01*
X149390422Y-101829054D01*
X147788421Y-100227052D01*
X147788420Y-100227051D01*
X147788416Y-100227048D01*
X147760947Y-100208694D01*
X147719354Y-100161887D01*
X147709117Y-100141795D01*
X147702287Y-100128390D01*
X147581966Y-99962781D01*
X147437219Y-99818034D01*
X147437213Y-99818028D01*
X147271611Y-99697713D01*
X147178369Y-99650203D01*
X147127574Y-99602229D01*
X147110779Y-99534407D01*
X147133317Y-99468273D01*
X147178371Y-99429234D01*
X147271347Y-99381861D01*
X147436894Y-99261582D01*
X147436895Y-99261582D01*
X147581582Y-99116895D01*
X147581582Y-99116894D01*
X147701859Y-98951349D01*
X147794755Y-98769029D01*
X147857990Y-98574413D01*
X147866609Y-98520000D01*
X146505686Y-98520000D01*
X146510080Y-98515606D01*
X146562741Y-98424394D01*
X146590000Y-98322661D01*
X146590000Y-98217339D01*
X146562741Y-98115606D01*
X146510080Y-98024394D01*
X146505686Y-98020000D01*
X147866609Y-98020000D01*
X147857990Y-97965586D01*
X147794755Y-97770970D01*
X147701859Y-97588650D01*
X147581582Y-97423105D01*
X147581582Y-97423104D01*
X147436895Y-97278417D01*
X147271349Y-97158140D01*
X147178370Y-97110765D01*
X147127574Y-97062790D01*
X147110779Y-96994969D01*
X147133316Y-96928835D01*
X147178370Y-96889795D01*
X147178920Y-96889515D01*
X147271610Y-96842287D01*
X147292770Y-96826913D01*
X147437213Y-96721971D01*
X147437215Y-96721968D01*
X147437219Y-96721966D01*
X147581966Y-96577219D01*
X147581968Y-96577215D01*
X147581971Y-96577213D01*
X147650377Y-96483058D01*
X147702287Y-96411610D01*
X147795220Y-96229219D01*
X147858477Y-96034534D01*
X147890500Y-95832352D01*
X147890500Y-95627648D01*
X147858477Y-95425466D01*
X147795220Y-95230781D01*
X147795218Y-95230778D01*
X147795218Y-95230776D01*
X147761503Y-95164607D01*
X147702287Y-95048390D01*
X147689700Y-95031065D01*
X147581971Y-94882786D01*
X147437219Y-94738034D01*
X147400930Y-94711669D01*
X147358264Y-94656339D01*
X147352285Y-94586726D01*
X147384890Y-94524931D01*
X147445728Y-94490573D01*
X147460562Y-94488060D01*
X147497483Y-94484091D01*
X147578622Y-94453828D01*
X147632331Y-94433796D01*
X147747546Y-94347546D01*
X147833796Y-94232331D01*
X147884091Y-94097483D01*
X147890500Y-94037873D01*
X147890499Y-92342128D01*
X147884091Y-92282517D01*
X147833796Y-92147669D01*
X147833795Y-92147668D01*
X147833793Y-92147664D01*
X147747547Y-92032455D01*
X147747544Y-92032452D01*
X147632335Y-91946206D01*
X147632328Y-91946202D01*
X147497482Y-91895908D01*
X147497483Y-91895908D01*
X147437883Y-91889501D01*
X147437881Y-91889500D01*
X147437873Y-91889500D01*
X147437864Y-91889500D01*
X144942129Y-91889500D01*
X144942123Y-91889501D01*
X144882516Y-91895908D01*
X144747671Y-91946202D01*
X144747664Y-91946206D01*
X144632455Y-92032452D01*
X144632452Y-92032455D01*
X144546206Y-92147664D01*
X144546202Y-92147671D01*
X144495908Y-92282517D01*
X144489501Y-92342116D01*
X144489501Y-92342123D01*
X144489500Y-92342135D01*
X144489500Y-94037870D01*
X144489501Y-94037876D01*
X144495908Y-94097483D01*
X144546202Y-94232328D01*
X144546206Y-94232335D01*
X144632452Y-94347544D01*
X144632455Y-94347547D01*
X144747664Y-94433793D01*
X144747671Y-94433797D01*
X144792618Y-94450561D01*
X144882517Y-94484091D01*
X144919441Y-94488060D01*
X144983989Y-94514796D01*
X145023838Y-94572188D01*
X145026333Y-94642013D01*
X144990681Y-94702102D01*
X144979071Y-94711666D01*
X144942784Y-94738030D01*
X144798028Y-94882786D01*
X144775634Y-94913609D01*
X144720303Y-94956273D01*
X144650690Y-94962251D01*
X144588896Y-94929643D01*
X144587637Y-94928402D01*
X143294077Y-93634842D01*
X143260592Y-93573519D01*
X143263828Y-93508841D01*
X143268477Y-93494534D01*
X143300500Y-93292352D01*
X143300500Y-93087648D01*
X143292257Y-93035606D01*
X143268477Y-92885465D01*
X143237458Y-92790000D01*
X143205220Y-92690781D01*
X143205218Y-92690778D01*
X143205218Y-92690776D01*
X143160652Y-92603312D01*
X143112287Y-92508390D01*
X143080092Y-92464077D01*
X142991971Y-92342786D01*
X142847213Y-92198028D01*
X142681613Y-92077715D01*
X142681612Y-92077714D01*
X142681610Y-92077713D01*
X142624653Y-92048691D01*
X142499223Y-91984781D01*
X142304534Y-91921522D01*
X142129995Y-91893878D01*
X142102352Y-91889500D01*
X141897648Y-91889500D01*
X141873329Y-91893351D01*
X141695465Y-91921522D01*
X141500776Y-91984781D01*
X141318386Y-92077715D01*
X141152786Y-92198028D01*
X141008028Y-92342786D01*
X140887715Y-92508386D01*
X140794781Y-92690776D01*
X140731522Y-92885465D01*
X140699500Y-93087648D01*
X140699500Y-93292351D01*
X140731522Y-93494534D01*
X140794781Y-93689223D01*
X140839907Y-93777786D01*
X140887585Y-93871359D01*
X140887715Y-93871613D01*
X141008028Y-94037213D01*
X141152786Y-94181971D01*
X141273226Y-94269474D01*
X141318390Y-94302287D01*
X141407212Y-94347544D01*
X141500776Y-94395218D01*
X141500778Y-94395218D01*
X141500781Y-94395220D01*
X141605137Y-94429127D01*
X141695465Y-94458477D01*
X141714697Y-94461523D01*
X141897648Y-94490500D01*
X141897649Y-94490500D01*
X142102351Y-94490500D01*
X142102352Y-94490500D01*
X142304534Y-94458477D01*
X142318842Y-94453827D01*
X142388682Y-94451831D01*
X142444842Y-94484077D01*
X144055139Y-96094374D01*
X144055149Y-96094385D01*
X144059479Y-96098715D01*
X144059480Y-96098716D01*
X144171284Y-96210520D01*
X144171286Y-96210521D01*
X144171290Y-96210524D01*
X144208116Y-96231785D01*
X144308216Y-96289577D01*
X144420019Y-96319534D01*
X144460942Y-96330500D01*
X144460943Y-96330500D01*
X144565851Y-96330500D01*
X144571278Y-96330978D01*
X144598941Y-96341817D01*
X144627437Y-96350185D01*
X144631359Y-96354520D01*
X144636332Y-96356469D01*
X144649118Y-96374149D01*
X144670883Y-96398205D01*
X144677715Y-96411614D01*
X144798028Y-96577213D01*
X144942786Y-96721971D01*
X145097749Y-96834556D01*
X145108390Y-96842287D01*
X145180424Y-96878990D01*
X145201629Y-96889795D01*
X145252425Y-96937770D01*
X145269220Y-97005591D01*
X145246682Y-97071726D01*
X145201629Y-97110765D01*
X145108650Y-97158140D01*
X144943105Y-97278417D01*
X144943104Y-97278417D01*
X144798417Y-97423104D01*
X144798417Y-97423105D01*
X144678140Y-97588650D01*
X144585244Y-97770970D01*
X144522009Y-97965586D01*
X144513391Y-98020000D01*
X145874314Y-98020000D01*
X145869920Y-98024394D01*
X145817259Y-98115606D01*
X145790000Y-98217339D01*
X145790000Y-98322661D01*
X145817259Y-98424394D01*
X145869920Y-98515606D01*
X145874314Y-98520000D01*
X144513391Y-98520000D01*
X144522009Y-98574413D01*
X144585244Y-98769029D01*
X144678140Y-98951349D01*
X144798417Y-99116894D01*
X144798417Y-99116895D01*
X144943104Y-99261582D01*
X145108652Y-99381861D01*
X145201628Y-99429234D01*
X145252425Y-99477208D01*
X145269220Y-99545029D01*
X145246683Y-99611164D01*
X145201630Y-99650203D01*
X145108388Y-99697713D01*
X144942786Y-99818028D01*
X144798028Y-99962786D01*
X144677715Y-100128386D01*
X144584781Y-100310776D01*
X144521522Y-100505465D01*
X144489500Y-100707648D01*
X144489500Y-100912351D01*
X144521522Y-101114534D01*
X144584781Y-101309223D01*
X144677715Y-101491613D01*
X144798028Y-101657213D01*
X144942786Y-101801971D01*
X145056662Y-101884705D01*
X145108390Y-101922287D01*
X145224607Y-101981503D01*
X145290776Y-102015218D01*
X145290778Y-102015218D01*
X145290781Y-102015220D01*
X145395137Y-102049127D01*
X145485465Y-102078477D01*
X145586557Y-102094488D01*
X145687648Y-102110500D01*
X145687649Y-102110500D01*
X146692351Y-102110500D01*
X146692352Y-102110500D01*
X146894534Y-102078477D01*
X147089219Y-102015220D01*
X147250502Y-101933041D01*
X147319171Y-101920145D01*
X147383911Y-101946421D01*
X147394469Y-101955837D01*
X148355682Y-102917049D01*
X149213181Y-103774548D01*
X149246666Y-103835871D01*
X149249500Y-103862229D01*
X149249500Y-135637769D01*
X149229815Y-135704808D01*
X149213181Y-135725450D01*
X143417050Y-141521580D01*
X143417044Y-141521588D01*
X143367812Y-141595268D01*
X143367813Y-141595269D01*
X143334921Y-141644496D01*
X143334914Y-141644508D01*
X143278342Y-141781086D01*
X143278340Y-141781092D01*
X143249500Y-141926079D01*
X143249500Y-142251374D01*
X143240855Y-142280814D01*
X143234332Y-142310801D01*
X143230577Y-142315816D01*
X143229815Y-142318413D01*
X143213181Y-142339056D01*
X143087680Y-142464556D01*
X143026357Y-142498040D01*
X142956665Y-142493056D01*
X142912318Y-142464555D01*
X142782075Y-142334312D01*
X142782073Y-142334310D01*
X142629199Y-142223240D01*
X142620479Y-142218797D01*
X142460836Y-142137454D01*
X142281118Y-142079059D01*
X142094486Y-142049500D01*
X142094481Y-142049500D01*
X141905519Y-142049500D01*
X141905514Y-142049500D01*
X141718881Y-142079059D01*
X141539163Y-142137454D01*
X141370800Y-142223240D01*
X141283579Y-142286610D01*
X141217927Y-142334310D01*
X141217925Y-142334312D01*
X141217922Y-142334314D01*
X141206923Y-142345313D01*
X141145599Y-142378796D01*
X141075907Y-142373809D01*
X141031564Y-142345311D01*
X140905049Y-142218797D01*
X140905050Y-142218797D01*
X140753998Y-142123887D01*
X140753999Y-142123887D01*
X140585612Y-142064965D01*
X140585602Y-142064963D01*
X140452797Y-142050000D01*
X140250000Y-142050000D01*
X140250000Y-143269670D01*
X140230255Y-143249925D01*
X140144745Y-143200556D01*
X140049370Y-143175000D01*
X139950630Y-143175000D01*
X139855255Y-143200556D01*
X139769745Y-143249925D01*
X139750000Y-143269670D01*
X139750000Y-142050000D01*
X139547207Y-142050000D01*
X139547201Y-142050001D01*
X139414397Y-142064963D01*
X139414387Y-142064965D01*
X139246000Y-142123887D01*
X139094949Y-142218797D01*
X138968797Y-142344949D01*
X138873887Y-142496000D01*
X138814965Y-142664387D01*
X138814963Y-142664397D01*
X138800000Y-142797202D01*
X135500500Y-142797202D01*
X135500500Y-136294673D01*
X135520185Y-136227634D01*
X135572989Y-136181879D01*
X135642147Y-136171935D01*
X135705703Y-136200960D01*
X135721449Y-136217363D01*
X135732581Y-136231323D01*
X135732583Y-136231325D01*
X135732584Y-136231326D01*
X135931175Y-136429917D01*
X136150752Y-136605024D01*
X136388555Y-136754446D01*
X136641592Y-136876302D01*
X136840680Y-136945966D01*
X136906670Y-136969057D01*
X136906682Y-136969061D01*
X137180491Y-137031556D01*
X137180497Y-137031556D01*
X137180505Y-137031558D01*
X137366547Y-137052519D01*
X137459569Y-137063000D01*
X137459572Y-137063001D01*
X137459575Y-137063001D01*
X137740428Y-137063001D01*
X137740429Y-137063000D01*
X137883055Y-137046930D01*
X138019494Y-137031558D01*
X138019499Y-137031557D01*
X138019509Y-137031556D01*
X138293318Y-136969061D01*
X138558408Y-136876302D01*
X138811445Y-136754446D01*
X139049248Y-136605024D01*
X139268825Y-136429917D01*
X139467416Y-136231326D01*
X139642523Y-136011749D01*
X139791945Y-135773946D01*
X139913801Y-135520909D01*
X140006560Y-135255819D01*
X140069055Y-134982010D01*
X140100500Y-134702926D01*
X140100500Y-134422076D01*
X140100499Y-134422069D01*
X143899500Y-134422069D01*
X143899500Y-134702932D01*
X143930942Y-134981995D01*
X143930945Y-134982013D01*
X143993439Y-135255818D01*
X143993443Y-135255830D01*
X144086200Y-135520912D01*
X144208053Y-135773943D01*
X144208055Y-135773946D01*
X144357477Y-136011749D01*
X144407057Y-136073920D01*
X144532581Y-136231323D01*
X144532584Y-136231326D01*
X144731175Y-136429917D01*
X144950752Y-136605024D01*
X145188555Y-136754446D01*
X145441592Y-136876302D01*
X145640680Y-136945966D01*
X145706670Y-136969057D01*
X145706682Y-136969061D01*
X145980491Y-137031556D01*
X145980497Y-137031556D01*
X145980505Y-137031558D01*
X146166547Y-137052519D01*
X146259569Y-137063000D01*
X146259572Y-137063001D01*
X146259575Y-137063001D01*
X146540428Y-137063001D01*
X146540429Y-137063000D01*
X146683055Y-137046930D01*
X146819494Y-137031558D01*
X146819499Y-137031557D01*
X146819509Y-137031556D01*
X147093318Y-136969061D01*
X147358408Y-136876302D01*
X147611445Y-136754446D01*
X147849248Y-136605024D01*
X148068825Y-136429917D01*
X148267416Y-136231326D01*
X148442523Y-136011749D01*
X148591945Y-135773946D01*
X148713801Y-135520909D01*
X148806560Y-135255819D01*
X148869055Y-134982010D01*
X148900500Y-134702926D01*
X148900500Y-134422076D01*
X148869055Y-134142992D01*
X148806560Y-133869183D01*
X148713801Y-133604093D01*
X148591945Y-133351056D01*
X148442523Y-133113253D01*
X148267416Y-132893676D01*
X148068825Y-132695085D01*
X147849248Y-132519978D01*
X147611445Y-132370556D01*
X147611442Y-132370554D01*
X147358411Y-132248701D01*
X147093329Y-132155944D01*
X147093317Y-132155940D01*
X146819512Y-132093446D01*
X146819494Y-132093443D01*
X146540431Y-132062001D01*
X146540425Y-132062001D01*
X146259575Y-132062001D01*
X146259568Y-132062001D01*
X145980505Y-132093443D01*
X145980487Y-132093446D01*
X145706682Y-132155940D01*
X145706670Y-132155944D01*
X145441588Y-132248701D01*
X145188557Y-132370554D01*
X144950753Y-132519977D01*
X144731175Y-132695084D01*
X144532583Y-132893676D01*
X144357476Y-133113254D01*
X144208053Y-133351058D01*
X144086200Y-133604089D01*
X143993443Y-133869171D01*
X143993439Y-133869183D01*
X143930945Y-134142988D01*
X143930942Y-134143006D01*
X143899500Y-134422069D01*
X140100499Y-134422069D01*
X140069055Y-134142992D01*
X140006560Y-133869183D01*
X139913801Y-133604093D01*
X139791945Y-133351056D01*
X139642523Y-133113253D01*
X139467416Y-132893676D01*
X139268825Y-132695085D01*
X139049248Y-132519978D01*
X138811445Y-132370556D01*
X138811442Y-132370554D01*
X138558411Y-132248701D01*
X138293329Y-132155944D01*
X138293317Y-132155940D01*
X138019512Y-132093446D01*
X138019494Y-132093443D01*
X137740431Y-132062001D01*
X137740425Y-132062001D01*
X137459575Y-132062001D01*
X137459568Y-132062001D01*
X137180505Y-132093443D01*
X137180487Y-132093446D01*
X136906682Y-132155940D01*
X136906670Y-132155944D01*
X136641588Y-132248701D01*
X136388557Y-132370554D01*
X136150753Y-132519977D01*
X135931175Y-132695084D01*
X135732583Y-132893676D01*
X135721447Y-132907641D01*
X135664258Y-132947781D01*
X135594446Y-132950631D01*
X135534177Y-132915285D01*
X135502584Y-132852966D01*
X135500500Y-132830328D01*
X135500500Y-127060183D01*
X138199999Y-127060183D01*
X138199999Y-127312501D01*
X139066987Y-127312501D01*
X139034074Y-127369508D01*
X138999999Y-127496675D01*
X138999999Y-127628327D01*
X139034074Y-127755494D01*
X139066987Y-127812501D01*
X138199999Y-127812501D01*
X138199999Y-128064818D01*
X138232008Y-128266918D01*
X138295243Y-128461532D01*
X138388139Y-128643850D01*
X138508416Y-128809395D01*
X138508416Y-128809396D01*
X138653103Y-128954083D01*
X138818649Y-129074360D01*
X139000967Y-129167255D01*
X139195577Y-129230489D01*
X139249999Y-129239108D01*
X139249999Y-127995513D01*
X139307006Y-128028426D01*
X139434173Y-128062501D01*
X139565825Y-128062501D01*
X139692992Y-128028426D01*
X139749999Y-127995513D01*
X139749999Y-129239107D01*
X139804420Y-129230489D01*
X139999030Y-129167255D01*
X140181348Y-129074360D01*
X140346893Y-128954083D01*
X140346894Y-128954083D01*
X140491581Y-128809396D01*
X140491581Y-128809395D01*
X140611860Y-128643848D01*
X140639234Y-128590123D01*
X140687208Y-128539327D01*
X140755028Y-128522531D01*
X140821164Y-128545068D01*
X140860204Y-128590122D01*
X140887715Y-128644114D01*
X141008028Y-128809714D01*
X141152786Y-128954472D01*
X141307749Y-129067057D01*
X141318390Y-129074788D01*
X141434607Y-129134004D01*
X141500776Y-129167719D01*
X141500778Y-129167719D01*
X141500781Y-129167721D01*
X141605137Y-129201628D01*
X141695465Y-129230978D01*
X141796557Y-129246989D01*
X141897648Y-129263001D01*
X141897649Y-129263001D01*
X142102351Y-129263001D01*
X142102352Y-129263001D01*
X142304534Y-129230978D01*
X142499219Y-129167721D01*
X142681610Y-129074788D01*
X142774590Y-129007233D01*
X142847213Y-128954472D01*
X142847215Y-128954469D01*
X142847219Y-128954467D01*
X142991966Y-128809720D01*
X142991968Y-128809716D01*
X142991971Y-128809714D01*
X143112286Y-128644112D01*
X143112420Y-128643850D01*
X143139515Y-128590672D01*
X143187489Y-128539877D01*
X143255310Y-128523081D01*
X143321445Y-128545618D01*
X143360484Y-128590671D01*
X143387714Y-128644112D01*
X143508029Y-128809714D01*
X143652787Y-128954472D01*
X143807750Y-129067057D01*
X143818391Y-129074788D01*
X143934608Y-129134004D01*
X144000777Y-129167719D01*
X144000779Y-129167719D01*
X144000782Y-129167721D01*
X144105138Y-129201628D01*
X144195466Y-129230978D01*
X144296558Y-129246989D01*
X144397649Y-129263001D01*
X144397650Y-129263001D01*
X144602352Y-129263001D01*
X144602353Y-129263001D01*
X144804535Y-129230978D01*
X144999220Y-129167721D01*
X145181611Y-129074788D01*
X145274591Y-129007233D01*
X145347214Y-128954472D01*
X145347216Y-128954469D01*
X145347220Y-128954467D01*
X145491967Y-128809720D01*
X145491969Y-128809716D01*
X145491972Y-128809714D01*
X145544733Y-128737091D01*
X145612288Y-128644111D01*
X145705221Y-128461720D01*
X145768478Y-128267035D01*
X145800501Y-128064853D01*
X145800501Y-127060149D01*
X145768478Y-126857966D01*
X145739128Y-126767638D01*
X145705221Y-126663282D01*
X145705219Y-126663279D01*
X145705219Y-126663277D01*
X145662472Y-126579382D01*
X145612288Y-126480891D01*
X145604557Y-126470250D01*
X145491972Y-126315287D01*
X145347214Y-126170529D01*
X145181611Y-126050213D01*
X145168201Y-126043380D01*
X145117407Y-125995404D01*
X145100501Y-125932898D01*
X145100501Y-113800947D01*
X145100501Y-113800945D01*
X145059578Y-113648218D01*
X145059578Y-113648217D01*
X145059578Y-113648216D01*
X145030640Y-113598097D01*
X145030638Y-113598094D01*
X144980521Y-113511286D01*
X144868717Y-113399482D01*
X144868716Y-113399481D01*
X144864386Y-113395151D01*
X144864375Y-113395141D01*
X143532159Y-112062925D01*
X143498674Y-112001602D01*
X143501909Y-111936926D01*
X143561089Y-111754789D01*
X143561089Y-111754788D01*
X143561090Y-111754785D01*
X143600500Y-111505962D01*
X143600500Y-111254038D01*
X143561090Y-111005215D01*
X143483241Y-110765621D01*
X143483239Y-110765618D01*
X143483239Y-110765616D01*
X143441747Y-110684184D01*
X143368870Y-110541155D01*
X143349952Y-110515117D01*
X143220798Y-110337350D01*
X143220794Y-110337345D01*
X143042654Y-110159205D01*
X143042649Y-110159201D01*
X142838848Y-110011132D01*
X142838847Y-110011131D01*
X142838845Y-110011130D01*
X142768747Y-109975413D01*
X142614383Y-109896760D01*
X142374785Y-109818910D01*
X142125962Y-109779500D01*
X141874038Y-109779500D01*
X141749626Y-109799205D01*
X141625214Y-109818910D01*
X141385616Y-109896760D01*
X141161151Y-110011132D01*
X140957350Y-110159201D01*
X140957345Y-110159205D01*
X140779205Y-110337345D01*
X140779201Y-110337350D01*
X140631132Y-110541151D01*
X140516760Y-110765616D01*
X140438910Y-111005214D01*
X140399500Y-111254038D01*
X140399500Y-111505961D01*
X140438910Y-111754785D01*
X140516760Y-111994383D01*
X140631132Y-112218848D01*
X140779201Y-112422649D01*
X140779205Y-112422654D01*
X140957345Y-112600794D01*
X140957350Y-112600798D01*
X141135117Y-112729952D01*
X141161155Y-112748870D01*
X141304184Y-112821747D01*
X141385616Y-112863239D01*
X141385618Y-112863239D01*
X141385621Y-112863241D01*
X141625215Y-112941090D01*
X141874038Y-112980500D01*
X141874039Y-112980500D01*
X142125961Y-112980500D01*
X142125962Y-112980500D01*
X142374785Y-112941090D01*
X142556925Y-112881908D01*
X142626764Y-112879914D01*
X142682923Y-112912159D01*
X143863182Y-114092418D01*
X143896667Y-114153741D01*
X143899501Y-114180099D01*
X143899501Y-125932898D01*
X143879816Y-125999937D01*
X143831801Y-126043380D01*
X143818390Y-126050213D01*
X143652787Y-126170529D01*
X143508029Y-126315287D01*
X143387715Y-126480887D01*
X143360484Y-126534331D01*
X143312509Y-126585126D01*
X143244688Y-126601920D01*
X143178553Y-126579382D01*
X143139515Y-126534329D01*
X143112419Y-126481151D01*
X143112287Y-126480891D01*
X143104556Y-126470250D01*
X142991971Y-126315287D01*
X142847213Y-126170529D01*
X142681613Y-126050216D01*
X142681612Y-126050215D01*
X142681610Y-126050214D01*
X142624653Y-126021192D01*
X142499223Y-125957282D01*
X142304534Y-125894023D01*
X142129995Y-125866379D01*
X142102352Y-125862001D01*
X141897648Y-125862001D01*
X141873329Y-125865852D01*
X141695465Y-125894023D01*
X141500776Y-125957282D01*
X141318386Y-126050216D01*
X141152786Y-126170529D01*
X141008028Y-126315287D01*
X140887713Y-126480889D01*
X140860203Y-126534880D01*
X140812228Y-126585676D01*
X140744407Y-126602470D01*
X140678272Y-126579932D01*
X140639234Y-126534879D01*
X140611858Y-126481151D01*
X140491581Y-126315606D01*
X140491581Y-126315605D01*
X140346894Y-126170918D01*
X140181348Y-126050641D01*
X139999028Y-125957745D01*
X139804412Y-125894510D01*
X139749999Y-125885891D01*
X139749999Y-127129489D01*
X139692992Y-127096576D01*
X139565825Y-127062501D01*
X139434173Y-127062501D01*
X139307006Y-127096576D01*
X139249999Y-127129489D01*
X139249999Y-125885891D01*
X139195585Y-125894510D01*
X139000969Y-125957745D01*
X138818649Y-126050641D01*
X138653104Y-126170918D01*
X138653103Y-126170918D01*
X138508416Y-126315605D01*
X138508416Y-126315606D01*
X138388139Y-126481151D01*
X138295243Y-126663469D01*
X138232008Y-126858083D01*
X138199999Y-127060183D01*
X135500500Y-127060183D01*
X135500500Y-119554071D01*
X140400000Y-119554071D01*
X140400000Y-119805928D01*
X140439397Y-120054669D01*
X140517219Y-120294184D01*
X140631557Y-120518583D01*
X140705748Y-120620697D01*
X140705748Y-120620698D01*
X141435387Y-119891059D01*
X141440889Y-119911591D01*
X141519881Y-120048408D01*
X141631592Y-120160119D01*
X141768409Y-120239111D01*
X141788940Y-120244612D01*
X141059300Y-120974250D01*
X141161415Y-121048441D01*
X141164399Y-121050270D01*
X141165295Y-121051260D01*
X141165359Y-121051307D01*
X141165349Y-121051320D01*
X141211276Y-121102080D01*
X141222701Y-121171009D01*
X141195047Y-121235173D01*
X141137093Y-121274200D01*
X141099613Y-121280000D01*
X140952155Y-121280000D01*
X140892627Y-121286401D01*
X140892620Y-121286403D01*
X140757913Y-121336645D01*
X140757906Y-121336649D01*
X140642812Y-121422809D01*
X140642809Y-121422812D01*
X140556649Y-121537906D01*
X140556645Y-121537913D01*
X140506403Y-121672620D01*
X140506401Y-121672627D01*
X140500000Y-121732155D01*
X140500000Y-122530000D01*
X141451518Y-122530000D01*
X141440889Y-122548409D01*
X141400000Y-122701009D01*
X141400000Y-122858991D01*
X141440889Y-123011591D01*
X141451518Y-123030000D01*
X140500000Y-123030000D01*
X140500000Y-123827844D01*
X140506401Y-123887372D01*
X140506403Y-123887379D01*
X140556645Y-124022086D01*
X140556649Y-124022093D01*
X140642809Y-124137187D01*
X140642812Y-124137190D01*
X140757906Y-124223350D01*
X140757913Y-124223354D01*
X140892620Y-124273596D01*
X140892627Y-124273598D01*
X140952155Y-124279999D01*
X140952172Y-124280000D01*
X141750000Y-124280000D01*
X141750000Y-123328482D01*
X141768409Y-123339111D01*
X141921009Y-123380000D01*
X142078991Y-123380000D01*
X142231591Y-123339111D01*
X142250000Y-123328482D01*
X142250000Y-124280000D01*
X143047828Y-124280000D01*
X143047844Y-124279999D01*
X143107372Y-124273598D01*
X143107379Y-124273596D01*
X143242086Y-124223354D01*
X143242093Y-124223350D01*
X143357187Y-124137190D01*
X143357190Y-124137187D01*
X143443350Y-124022093D01*
X143443354Y-124022086D01*
X143493596Y-123887379D01*
X143493598Y-123887372D01*
X143499999Y-123827844D01*
X143500000Y-123827827D01*
X143500000Y-123030000D01*
X142548482Y-123030000D01*
X142559111Y-123011591D01*
X142600000Y-122858991D01*
X142600000Y-122701009D01*
X142559111Y-122548409D01*
X142548482Y-122530000D01*
X143500000Y-122530000D01*
X143500000Y-121732172D01*
X143499999Y-121732155D01*
X143493598Y-121672627D01*
X143493596Y-121672620D01*
X143443354Y-121537913D01*
X143443350Y-121537906D01*
X143357190Y-121422812D01*
X143357187Y-121422809D01*
X143242093Y-121336649D01*
X143242086Y-121336645D01*
X143107379Y-121286403D01*
X143107372Y-121286401D01*
X143047844Y-121280000D01*
X142900387Y-121280000D01*
X142833348Y-121260315D01*
X142787593Y-121207511D01*
X142777649Y-121138353D01*
X142806674Y-121074797D01*
X142835591Y-121050277D01*
X142838571Y-121048450D01*
X142940697Y-120974250D01*
X142940698Y-120974250D01*
X142211059Y-120244612D01*
X142231591Y-120239111D01*
X142368408Y-120160119D01*
X142480119Y-120048408D01*
X142559111Y-119911591D01*
X142564612Y-119891059D01*
X143294250Y-120620698D01*
X143294250Y-120620697D01*
X143368442Y-120518581D01*
X143368446Y-120518575D01*
X143482780Y-120294184D01*
X143560602Y-120054669D01*
X143600000Y-119805928D01*
X143600000Y-119554071D01*
X143560602Y-119305330D01*
X143482780Y-119065815D01*
X143368442Y-118841416D01*
X143294250Y-118739301D01*
X143294250Y-118739300D01*
X142564612Y-119468939D01*
X142559111Y-119448409D01*
X142480119Y-119311592D01*
X142368408Y-119199881D01*
X142231591Y-119120889D01*
X142211058Y-119115387D01*
X142940698Y-118385748D01*
X142838583Y-118311557D01*
X142614184Y-118197219D01*
X142374669Y-118119397D01*
X142125928Y-118080000D01*
X141874072Y-118080000D01*
X141625330Y-118119397D01*
X141385815Y-118197219D01*
X141161413Y-118311559D01*
X141059301Y-118385747D01*
X141059300Y-118385748D01*
X141788940Y-119115387D01*
X141768409Y-119120889D01*
X141631592Y-119199881D01*
X141519881Y-119311592D01*
X141440889Y-119448409D01*
X141435387Y-119468940D01*
X140705748Y-118739300D01*
X140705747Y-118739301D01*
X140631559Y-118841413D01*
X140517219Y-119065815D01*
X140439397Y-119305330D01*
X140400000Y-119554071D01*
X135500500Y-119554071D01*
X135500500Y-116299995D01*
X140494858Y-116299995D01*
X140494859Y-116300007D01*
X140515070Y-116545831D01*
X140575159Y-116785055D01*
X140575162Y-116785063D01*
X140673512Y-117011253D01*
X140673514Y-117011256D01*
X140807492Y-117218355D01*
X140973496Y-117400790D01*
X141167068Y-117553664D01*
X141383008Y-117672869D01*
X141383017Y-117672873D01*
X141615508Y-117755203D01*
X141615513Y-117755204D01*
X141615518Y-117755206D01*
X141615524Y-117755207D01*
X141615528Y-117755208D01*
X141665797Y-117764162D01*
X141858354Y-117798461D01*
X141858347Y-117798461D01*
X141877566Y-117798695D01*
X142104993Y-117801475D01*
X142348813Y-117764165D01*
X142583266Y-117687534D01*
X142802054Y-117573640D01*
X142999303Y-117425542D01*
X143169714Y-117247216D01*
X143308712Y-117043452D01*
X143412564Y-116819722D01*
X143478481Y-116582035D01*
X143504692Y-116336774D01*
X143490493Y-116090525D01*
X143466020Y-115981928D01*
X143436268Y-115849907D01*
X143394044Y-115745921D01*
X143343468Y-115621366D01*
X143214589Y-115411055D01*
X143214588Y-115411054D01*
X143214587Y-115411052D01*
X143139601Y-115324487D01*
X143053092Y-115224618D01*
X142863313Y-115067061D01*
X142863311Y-115067059D01*
X142863303Y-115067054D01*
X142650349Y-114942614D01*
X142419927Y-114854624D01*
X142355731Y-114841563D01*
X142178215Y-114805447D01*
X142178216Y-114805447D01*
X142137132Y-114803940D01*
X141931722Y-114796408D01*
X141931720Y-114796408D01*
X141931717Y-114796408D01*
X141687062Y-114827750D01*
X141450815Y-114898627D01*
X141450813Y-114898628D01*
X141229302Y-115007144D01*
X141028500Y-115150374D01*
X141028493Y-115150380D01*
X140853777Y-115324487D01*
X140853773Y-115324492D01*
X140709843Y-115524791D01*
X140709840Y-115524797D01*
X140600555Y-115745918D01*
X140600554Y-115745923D01*
X140528850Y-115981928D01*
X140496657Y-116226459D01*
X140496656Y-116226480D01*
X140494858Y-116299995D01*
X135500500Y-116299995D01*
X135500500Y-104389778D01*
X146099500Y-104389778D01*
X146099500Y-104610221D01*
X146133985Y-104827952D01*
X146202103Y-105037603D01*
X146202104Y-105037606D01*
X146302187Y-105234025D01*
X146431752Y-105412358D01*
X146431756Y-105412363D01*
X146587636Y-105568243D01*
X146587641Y-105568247D01*
X146743192Y-105681260D01*
X146765978Y-105697815D01*
X146894375Y-105763237D01*
X146962393Y-105797895D01*
X146962396Y-105797896D01*
X147067221Y-105831955D01*
X147172049Y-105866015D01*
X147389778Y-105900500D01*
X147389779Y-105900500D01*
X147610221Y-105900500D01*
X147610222Y-105900500D01*
X147827951Y-105866015D01*
X148037606Y-105797895D01*
X148234022Y-105697815D01*
X148412365Y-105568242D01*
X148568242Y-105412365D01*
X148697815Y-105234022D01*
X148797895Y-105037606D01*
X148866015Y-104827951D01*
X148900500Y-104610222D01*
X148900500Y-104389778D01*
X148866015Y-104172049D01*
X148797895Y-103962394D01*
X148797895Y-103962393D01*
X148746858Y-103862229D01*
X148697815Y-103765978D01*
X148681260Y-103743192D01*
X148568247Y-103587641D01*
X148568243Y-103587636D01*
X148412363Y-103431756D01*
X148412358Y-103431752D01*
X148234025Y-103302187D01*
X148234024Y-103302186D01*
X148234022Y-103302185D01*
X148168203Y-103268648D01*
X148037606Y-103202104D01*
X148037603Y-103202103D01*
X147827952Y-103133985D01*
X147719086Y-103116742D01*
X147610222Y-103099500D01*
X147389778Y-103099500D01*
X147317201Y-103110995D01*
X147172047Y-103133985D01*
X146962396Y-103202103D01*
X146962393Y-103202104D01*
X146765974Y-103302187D01*
X146587641Y-103431752D01*
X146587636Y-103431756D01*
X146431756Y-103587636D01*
X146431752Y-103587641D01*
X146302187Y-103765974D01*
X146202104Y-103962393D01*
X146202103Y-103962396D01*
X146133985Y-104172047D01*
X146099500Y-104389778D01*
X135500500Y-104389778D01*
X135500500Y-100707648D01*
X136699500Y-100707648D01*
X136699500Y-100912351D01*
X136731522Y-101114534D01*
X136794781Y-101309223D01*
X136887715Y-101491613D01*
X137008028Y-101657213D01*
X137152786Y-101801971D01*
X137266662Y-101884705D01*
X137318390Y-101922287D01*
X137434607Y-101981503D01*
X137500776Y-102015218D01*
X137500778Y-102015218D01*
X137500781Y-102015220D01*
X137605137Y-102049127D01*
X137695465Y-102078477D01*
X137796557Y-102094488D01*
X137897648Y-102110500D01*
X137897649Y-102110500D01*
X138102351Y-102110500D01*
X138102352Y-102110500D01*
X138304534Y-102078477D01*
X138499219Y-102015220D01*
X138681610Y-101922287D01*
X138774590Y-101854732D01*
X138847213Y-101801971D01*
X138847215Y-101801968D01*
X138847219Y-101801966D01*
X138991966Y-101657219D01*
X138991968Y-101657215D01*
X138991971Y-101657213D01*
X139044732Y-101584590D01*
X139112287Y-101491610D01*
X139205220Y-101309219D01*
X139268477Y-101114534D01*
X139300500Y-100912352D01*
X139300500Y-100707648D01*
X140699500Y-100707648D01*
X140699500Y-100912351D01*
X140731522Y-101114534D01*
X140794781Y-101309223D01*
X140887715Y-101491613D01*
X141008028Y-101657213D01*
X141152786Y-101801971D01*
X141266662Y-101884705D01*
X141318390Y-101922287D01*
X141434607Y-101981503D01*
X141500776Y-102015218D01*
X141500778Y-102015218D01*
X141500781Y-102015220D01*
X141605137Y-102049127D01*
X141695465Y-102078477D01*
X141796557Y-102094488D01*
X141897648Y-102110500D01*
X141897649Y-102110500D01*
X142102351Y-102110500D01*
X142102352Y-102110500D01*
X142304534Y-102078477D01*
X142499219Y-102015220D01*
X142681610Y-101922287D01*
X142774590Y-101854732D01*
X142847213Y-101801971D01*
X142847215Y-101801968D01*
X142847219Y-101801966D01*
X142991966Y-101657219D01*
X142991968Y-101657215D01*
X142991971Y-101657213D01*
X143044732Y-101584590D01*
X143112287Y-101491610D01*
X143205220Y-101309219D01*
X143268477Y-101114534D01*
X143300500Y-100912352D01*
X143300500Y-100707648D01*
X143268477Y-100505466D01*
X143268476Y-100505464D01*
X143205218Y-100310776D01*
X143162556Y-100227048D01*
X143112287Y-100128390D01*
X143052633Y-100046282D01*
X142991971Y-99962786D01*
X142847213Y-99818028D01*
X142681613Y-99697715D01*
X142681612Y-99697714D01*
X142681610Y-99697713D01*
X142624653Y-99668691D01*
X142499223Y-99604781D01*
X142304534Y-99541522D01*
X142129995Y-99513878D01*
X142102352Y-99509500D01*
X141897648Y-99509500D01*
X141873329Y-99513351D01*
X141695465Y-99541522D01*
X141500776Y-99604781D01*
X141318386Y-99697715D01*
X141152786Y-99818028D01*
X141008028Y-99962786D01*
X140887715Y-100128386D01*
X140794781Y-100310776D01*
X140731522Y-100505465D01*
X140699500Y-100707648D01*
X139300500Y-100707648D01*
X139268477Y-100505466D01*
X139268476Y-100505464D01*
X139205218Y-100310776D01*
X139162556Y-100227048D01*
X139112287Y-100128390D01*
X139052633Y-100046282D01*
X138991971Y-99962786D01*
X138847213Y-99818028D01*
X138681613Y-99697715D01*
X138681612Y-99697714D01*
X138681610Y-99697713D01*
X138624653Y-99668691D01*
X138499223Y-99604781D01*
X138304534Y-99541522D01*
X138129995Y-99513878D01*
X138102352Y-99509500D01*
X137897648Y-99509500D01*
X137873329Y-99513351D01*
X137695465Y-99541522D01*
X137500776Y-99604781D01*
X137318386Y-99697715D01*
X137152786Y-99818028D01*
X137008028Y-99962786D01*
X136887715Y-100128386D01*
X136794781Y-100310776D01*
X136731522Y-100505465D01*
X136699500Y-100707648D01*
X135500500Y-100707648D01*
X135500500Y-85647648D01*
X136699500Y-85647648D01*
X136699500Y-85852351D01*
X136731522Y-86054534D01*
X136794781Y-86249223D01*
X136887715Y-86431613D01*
X137008028Y-86597213D01*
X137008034Y-86597219D01*
X137152781Y-86741966D01*
X137318390Y-86862287D01*
X137331793Y-86869116D01*
X137382589Y-86917088D01*
X137399500Y-86979601D01*
X137399500Y-91960397D01*
X137379815Y-92027436D01*
X137331800Y-92070879D01*
X137318389Y-92077712D01*
X137152786Y-92198028D01*
X137008028Y-92342786D01*
X136887715Y-92508386D01*
X136794781Y-92690776D01*
X136731522Y-92885465D01*
X136699500Y-93087648D01*
X136699500Y-93292351D01*
X136731522Y-93494534D01*
X136794781Y-93689223D01*
X136839907Y-93777786D01*
X136887585Y-93871359D01*
X136887715Y-93871613D01*
X137008028Y-94037213D01*
X137152786Y-94181971D01*
X137273226Y-94269474D01*
X137318390Y-94302287D01*
X137407212Y-94347544D01*
X137500776Y-94395218D01*
X137500778Y-94395218D01*
X137500781Y-94395220D01*
X137605137Y-94429127D01*
X137695465Y-94458477D01*
X137714697Y-94461523D01*
X137897648Y-94490500D01*
X137897649Y-94490500D01*
X138102351Y-94490500D01*
X138102352Y-94490500D01*
X138304534Y-94458477D01*
X138499219Y-94395220D01*
X138681610Y-94302287D01*
X138777901Y-94232328D01*
X138847213Y-94181971D01*
X138847215Y-94181968D01*
X138847219Y-94181966D01*
X138991966Y-94037219D01*
X138991968Y-94037215D01*
X138991971Y-94037213D01*
X139044732Y-93964590D01*
X139112287Y-93871610D01*
X139205220Y-93689219D01*
X139268477Y-93494534D01*
X139300500Y-93292352D01*
X139300500Y-93087648D01*
X139292257Y-93035606D01*
X139268477Y-92885465D01*
X139237458Y-92790000D01*
X139205220Y-92690781D01*
X139205218Y-92690778D01*
X139205218Y-92690776D01*
X139160652Y-92603312D01*
X139112287Y-92508390D01*
X139080092Y-92464077D01*
X138991971Y-92342786D01*
X138847213Y-92198028D01*
X138681610Y-92077712D01*
X138668200Y-92070879D01*
X138617406Y-92022903D01*
X138600500Y-91960397D01*
X138600500Y-89389778D01*
X146099500Y-89389778D01*
X146099500Y-89610221D01*
X146133985Y-89827952D01*
X146202103Y-90037603D01*
X146202104Y-90037606D01*
X146302187Y-90234025D01*
X146431752Y-90412358D01*
X146431756Y-90412363D01*
X146587636Y-90568243D01*
X146587641Y-90568247D01*
X146743192Y-90681260D01*
X146765978Y-90697815D01*
X146894375Y-90763237D01*
X146962393Y-90797895D01*
X146962396Y-90797896D01*
X147029525Y-90819707D01*
X147172049Y-90866015D01*
X147389778Y-90900500D01*
X147389779Y-90900500D01*
X147610221Y-90900500D01*
X147610222Y-90900500D01*
X147827951Y-90866015D01*
X148037606Y-90797895D01*
X148234022Y-90697815D01*
X148412365Y-90568242D01*
X148568242Y-90412365D01*
X148697815Y-90234022D01*
X148797895Y-90037606D01*
X148866015Y-89827951D01*
X148900500Y-89610222D01*
X148900500Y-89389778D01*
X151099500Y-89389778D01*
X151099500Y-89610221D01*
X151133985Y-89827952D01*
X151202103Y-90037603D01*
X151202104Y-90037606D01*
X151302187Y-90234025D01*
X151431752Y-90412358D01*
X151431756Y-90412363D01*
X151587636Y-90568243D01*
X151587641Y-90568247D01*
X151743192Y-90681260D01*
X151765978Y-90697815D01*
X151894375Y-90763237D01*
X151962393Y-90797895D01*
X151962396Y-90797896D01*
X152029525Y-90819707D01*
X152172049Y-90866015D01*
X152389778Y-90900500D01*
X152389779Y-90900500D01*
X152610221Y-90900500D01*
X152610222Y-90900500D01*
X152827951Y-90866015D01*
X153037606Y-90797895D01*
X153234022Y-90697815D01*
X153412365Y-90568242D01*
X153568242Y-90412365D01*
X153697815Y-90234022D01*
X153797895Y-90037606D01*
X153866015Y-89827951D01*
X153900500Y-89610222D01*
X153900500Y-89389778D01*
X153866015Y-89172049D01*
X153797895Y-88962394D01*
X153797895Y-88962393D01*
X153763237Y-88894375D01*
X153697815Y-88765978D01*
X153681260Y-88743192D01*
X153568247Y-88587641D01*
X153568243Y-88587636D01*
X153412363Y-88431756D01*
X153412358Y-88431752D01*
X153234025Y-88302187D01*
X153234024Y-88302186D01*
X153234022Y-88302185D01*
X153171096Y-88270122D01*
X153037606Y-88202104D01*
X153037603Y-88202103D01*
X152827952Y-88133985D01*
X152719086Y-88116742D01*
X152610222Y-88099500D01*
X152389778Y-88099500D01*
X152317201Y-88110995D01*
X152172047Y-88133985D01*
X151962396Y-88202103D01*
X151962393Y-88202104D01*
X151765974Y-88302187D01*
X151587641Y-88431752D01*
X151587636Y-88431756D01*
X151431756Y-88587636D01*
X151431752Y-88587641D01*
X151302187Y-88765974D01*
X151202104Y-88962393D01*
X151202103Y-88962396D01*
X151133985Y-89172047D01*
X151099500Y-89389778D01*
X148900500Y-89389778D01*
X148866015Y-89172049D01*
X148797895Y-88962394D01*
X148797895Y-88962393D01*
X148763237Y-88894375D01*
X148697815Y-88765978D01*
X148681260Y-88743192D01*
X148568247Y-88587641D01*
X148568243Y-88587636D01*
X148412363Y-88431756D01*
X148412358Y-88431752D01*
X148234025Y-88302187D01*
X148234024Y-88302186D01*
X148234022Y-88302185D01*
X148171096Y-88270122D01*
X148037606Y-88202104D01*
X148037603Y-88202103D01*
X147827952Y-88133985D01*
X147719086Y-88116742D01*
X147610222Y-88099500D01*
X147389778Y-88099500D01*
X147317201Y-88110995D01*
X147172047Y-88133985D01*
X146962396Y-88202103D01*
X146962393Y-88202104D01*
X146765974Y-88302187D01*
X146587641Y-88431752D01*
X146587636Y-88431756D01*
X146431756Y-88587636D01*
X146431752Y-88587641D01*
X146302187Y-88765974D01*
X146202104Y-88962393D01*
X146202103Y-88962396D01*
X146133985Y-89172047D01*
X146099500Y-89389778D01*
X138600500Y-89389778D01*
X138600500Y-86979601D01*
X138620185Y-86912562D01*
X138668206Y-86869116D01*
X138681610Y-86862287D01*
X138847219Y-86741966D01*
X138991966Y-86597219D01*
X138991968Y-86597215D01*
X138991971Y-86597213D01*
X139044732Y-86524590D01*
X139112287Y-86431610D01*
X139205220Y-86249219D01*
X139268477Y-86054534D01*
X139300500Y-85852352D01*
X139300500Y-85647648D01*
X140699500Y-85647648D01*
X140699500Y-85852351D01*
X140731522Y-86054534D01*
X140794781Y-86249223D01*
X140887715Y-86431613D01*
X141008028Y-86597213D01*
X141152786Y-86741971D01*
X141235371Y-86801971D01*
X141318390Y-86862287D01*
X141399499Y-86903614D01*
X141500776Y-86955218D01*
X141500778Y-86955218D01*
X141500781Y-86955220D01*
X141575818Y-86979601D01*
X141695465Y-87018477D01*
X141796557Y-87034488D01*
X141897648Y-87050500D01*
X141897649Y-87050500D01*
X142102351Y-87050500D01*
X142102352Y-87050500D01*
X142304534Y-87018477D01*
X142499219Y-86955220D01*
X142681610Y-86862287D01*
X142774590Y-86794732D01*
X142847213Y-86741971D01*
X142847215Y-86741968D01*
X142847219Y-86741966D01*
X142991966Y-86597219D01*
X142991968Y-86597215D01*
X142991971Y-86597213D01*
X143044732Y-86524590D01*
X143112287Y-86431610D01*
X143205220Y-86249219D01*
X143268477Y-86054534D01*
X143300500Y-85852352D01*
X143300500Y-85647648D01*
X143268477Y-85445466D01*
X143265810Y-85437259D01*
X143224715Y-85310781D01*
X143205220Y-85250781D01*
X143205218Y-85250778D01*
X143205218Y-85250776D01*
X143142988Y-85128644D01*
X143112287Y-85068390D01*
X143091257Y-85039444D01*
X143034647Y-84961526D01*
X143034644Y-84961523D01*
X143019007Y-84940000D01*
X142991966Y-84902781D01*
X142847219Y-84758034D01*
X142847213Y-84758028D01*
X142681610Y-84637712D01*
X142668200Y-84630879D01*
X142657138Y-84620431D01*
X142643297Y-84614110D01*
X142632255Y-84596928D01*
X142617406Y-84582903D01*
X142613165Y-84567223D01*
X142605523Y-84555332D01*
X142600500Y-84520397D01*
X142600500Y-84322526D01*
X148825000Y-84322526D01*
X148825000Y-84440000D01*
X149719670Y-84440000D01*
X149699925Y-84459745D01*
X149650556Y-84545255D01*
X149625000Y-84640630D01*
X149625000Y-84739370D01*
X149650556Y-84834745D01*
X149699925Y-84920255D01*
X149719670Y-84940000D01*
X148825000Y-84940000D01*
X148825000Y-85057473D01*
X148853933Y-85240147D01*
X148911083Y-85416040D01*
X148911084Y-85416043D01*
X148995052Y-85580837D01*
X149103754Y-85730454D01*
X149103758Y-85730459D01*
X149234540Y-85861241D01*
X149234545Y-85861245D01*
X149384162Y-85969947D01*
X149548956Y-86053915D01*
X149548959Y-86053916D01*
X149724845Y-86111064D01*
X149724858Y-86111067D01*
X149750000Y-86115049D01*
X149750000Y-84970330D01*
X149769745Y-84990075D01*
X149855255Y-85039444D01*
X149950630Y-85065000D01*
X150049370Y-85065000D01*
X150144745Y-85039444D01*
X150230255Y-84990075D01*
X150250000Y-84970330D01*
X150250000Y-86115048D01*
X150275141Y-86111067D01*
X150275154Y-86111064D01*
X150451040Y-86053916D01*
X150451043Y-86053915D01*
X150615837Y-85969947D01*
X150765461Y-85861239D01*
X150776959Y-85849741D01*
X150838280Y-85816252D01*
X150907972Y-85821231D01*
X150952327Y-85849735D01*
X150964213Y-85861621D01*
X151113904Y-85970378D01*
X151194763Y-86011577D01*
X151278764Y-86054379D01*
X151278767Y-86054380D01*
X151366750Y-86082967D01*
X151454736Y-86111555D01*
X151637486Y-86140500D01*
X151637487Y-86140500D01*
X151822513Y-86140500D01*
X151822514Y-86140500D01*
X152005264Y-86111555D01*
X152181235Y-86054379D01*
X152346096Y-85970378D01*
X152495787Y-85861621D01*
X152626621Y-85730787D01*
X152648562Y-85700587D01*
X152703889Y-85657924D01*
X152773502Y-85651945D01*
X152835298Y-85684550D01*
X152836559Y-85685794D01*
X156126561Y-88975796D01*
X156160046Y-89037119D01*
X156156811Y-89101794D01*
X156133985Y-89172045D01*
X156099500Y-89389778D01*
X156099500Y-89610221D01*
X156133985Y-89827952D01*
X156202103Y-90037603D01*
X156202104Y-90037606D01*
X156302187Y-90234025D01*
X156431752Y-90412358D01*
X156431756Y-90412363D01*
X156587636Y-90568243D01*
X156587641Y-90568247D01*
X156743192Y-90681260D01*
X156765978Y-90697815D01*
X156894375Y-90763237D01*
X156962393Y-90797895D01*
X156962396Y-90797896D01*
X157029525Y-90819707D01*
X157172049Y-90866015D01*
X157389778Y-90900500D01*
X157389779Y-90900500D01*
X157610221Y-90900500D01*
X157610222Y-90900500D01*
X157827951Y-90866015D01*
X158037606Y-90797895D01*
X158234022Y-90697815D01*
X158412365Y-90568242D01*
X158568242Y-90412365D01*
X158697815Y-90234022D01*
X158797895Y-90037606D01*
X158866015Y-89827951D01*
X158900500Y-89610222D01*
X158900500Y-89389778D01*
X158866015Y-89172049D01*
X158797895Y-88962394D01*
X158797895Y-88962393D01*
X158763237Y-88894375D01*
X158697815Y-88765978D01*
X158681260Y-88743192D01*
X158568247Y-88587641D01*
X158568243Y-88587636D01*
X158412363Y-88431756D01*
X158412358Y-88431752D01*
X158234025Y-88302187D01*
X158234024Y-88302186D01*
X158234022Y-88302185D01*
X158171096Y-88270122D01*
X158037606Y-88202104D01*
X158037603Y-88202103D01*
X157827952Y-88133985D01*
X157719086Y-88116742D01*
X157610222Y-88099500D01*
X157389778Y-88099500D01*
X157346232Y-88106397D01*
X157172045Y-88133985D01*
X157101794Y-88156811D01*
X157031953Y-88158806D01*
X156975796Y-88126561D01*
X154556883Y-85707648D01*
X156699500Y-85707648D01*
X156699500Y-85912351D01*
X156731522Y-86114534D01*
X156794781Y-86309223D01*
X156857141Y-86431610D01*
X156887585Y-86491359D01*
X156887715Y-86491613D01*
X157008028Y-86657213D01*
X157152786Y-86801971D01*
X157305005Y-86912562D01*
X157318390Y-86922287D01*
X157383021Y-86955218D01*
X157500776Y-87015218D01*
X157500778Y-87015218D01*
X157500781Y-87015220D01*
X157605137Y-87049127D01*
X157695465Y-87078477D01*
X157796557Y-87094488D01*
X157897648Y-87110500D01*
X157897649Y-87110500D01*
X158102351Y-87110500D01*
X158102352Y-87110500D01*
X158304534Y-87078477D01*
X158499219Y-87015220D01*
X158681610Y-86922287D01*
X158774590Y-86854732D01*
X158847213Y-86801971D01*
X158847215Y-86801968D01*
X158847219Y-86801966D01*
X158991966Y-86657219D01*
X158991968Y-86657215D01*
X158991971Y-86657213D01*
X159044732Y-86584590D01*
X159112287Y-86491610D01*
X159205220Y-86309219D01*
X159268477Y-86114534D01*
X159300500Y-85912352D01*
X159300500Y-85707682D01*
X160700000Y-85707682D01*
X160700000Y-85912317D01*
X160732009Y-86114417D01*
X160795244Y-86309031D01*
X160888141Y-86491350D01*
X160888147Y-86491359D01*
X160920523Y-86535921D01*
X160920524Y-86535922D01*
X161600000Y-85856446D01*
X161600000Y-85862661D01*
X161627259Y-85964394D01*
X161679920Y-86055606D01*
X161754394Y-86130080D01*
X161845606Y-86182741D01*
X161947339Y-86210000D01*
X161953553Y-86210000D01*
X161274076Y-86889474D01*
X161318650Y-86921859D01*
X161500968Y-87014755D01*
X161695582Y-87077990D01*
X161897683Y-87110000D01*
X162102317Y-87110000D01*
X162304417Y-87077990D01*
X162499031Y-87014755D01*
X162681349Y-86921859D01*
X162725921Y-86889474D01*
X162046447Y-86210000D01*
X162052661Y-86210000D01*
X162154394Y-86182741D01*
X162245606Y-86130080D01*
X162320080Y-86055606D01*
X162372741Y-85964394D01*
X162400000Y-85862661D01*
X162400000Y-85856447D01*
X163079474Y-86535921D01*
X163111859Y-86491349D01*
X163204755Y-86309031D01*
X163267990Y-86114417D01*
X163300000Y-85912317D01*
X163300000Y-85707682D01*
X163267990Y-85505582D01*
X163204755Y-85310968D01*
X163111859Y-85128650D01*
X163079474Y-85084077D01*
X163079474Y-85084076D01*
X162400000Y-85763551D01*
X162400000Y-85757339D01*
X162372741Y-85655606D01*
X162320080Y-85564394D01*
X162245606Y-85489920D01*
X162154394Y-85437259D01*
X162052661Y-85410000D01*
X162046446Y-85410000D01*
X162725922Y-84730524D01*
X162725921Y-84730523D01*
X162681359Y-84698147D01*
X162681350Y-84698141D01*
X162499031Y-84605244D01*
X162304417Y-84542009D01*
X162102317Y-84510000D01*
X161897683Y-84510000D01*
X161695582Y-84542009D01*
X161500968Y-84605244D01*
X161318644Y-84698143D01*
X161274077Y-84730523D01*
X161274077Y-84730524D01*
X161953554Y-85410000D01*
X161947339Y-85410000D01*
X161845606Y-85437259D01*
X161754394Y-85489920D01*
X161679920Y-85564394D01*
X161627259Y-85655606D01*
X161600000Y-85757339D01*
X161600000Y-85763553D01*
X160920524Y-85084077D01*
X160920523Y-85084077D01*
X160888143Y-85128644D01*
X160795244Y-85310968D01*
X160732009Y-85505582D01*
X160700000Y-85707682D01*
X159300500Y-85707682D01*
X159300500Y-85707648D01*
X159290997Y-85647648D01*
X159268477Y-85505465D01*
X159237458Y-85410000D01*
X159205220Y-85310781D01*
X159205218Y-85310778D01*
X159205218Y-85310776D01*
X159112419Y-85128650D01*
X159112287Y-85128390D01*
X159080092Y-85084077D01*
X158991971Y-84962786D01*
X158847213Y-84818028D01*
X158681613Y-84697715D01*
X158681612Y-84697714D01*
X158681610Y-84697713D01*
X158624653Y-84668691D01*
X158499223Y-84604781D01*
X158304534Y-84541522D01*
X158129995Y-84513878D01*
X158102352Y-84509500D01*
X157897648Y-84509500D01*
X157873329Y-84513351D01*
X157695465Y-84541522D01*
X157500776Y-84604781D01*
X157318386Y-84697715D01*
X157152786Y-84818028D01*
X157008028Y-84962786D01*
X156887715Y-85128386D01*
X156794781Y-85310776D01*
X156731522Y-85505465D01*
X156699500Y-85707648D01*
X154556883Y-85707648D01*
X153177590Y-84328355D01*
X153177588Y-84328352D01*
X153058717Y-84209481D01*
X153058709Y-84209475D01*
X152940008Y-84140944D01*
X152940000Y-84140939D01*
X152937915Y-84139736D01*
X152921785Y-84130423D01*
X152918215Y-84129466D01*
X152908508Y-84124354D01*
X152887366Y-84103839D01*
X152864427Y-84085350D01*
X152860822Y-84078083D01*
X152858364Y-84075698D01*
X152857231Y-84070843D01*
X152848359Y-84052957D01*
X152819381Y-83963770D01*
X152819379Y-83963764D01*
X152735377Y-83798903D01*
X152626621Y-83649213D01*
X152495787Y-83518379D01*
X152346096Y-83409622D01*
X152181235Y-83325620D01*
X152181232Y-83325619D01*
X152005265Y-83268445D01*
X151913889Y-83253972D01*
X151822514Y-83239500D01*
X151637486Y-83239500D01*
X151576569Y-83249148D01*
X151454734Y-83268445D01*
X151278767Y-83325619D01*
X151278764Y-83325620D01*
X151113903Y-83409622D01*
X150964208Y-83518382D01*
X150952321Y-83530269D01*
X150890995Y-83563750D01*
X150821304Y-83558761D01*
X150776964Y-83530263D01*
X150765459Y-83518758D01*
X150765454Y-83518754D01*
X150615837Y-83410052D01*
X150451043Y-83326084D01*
X150451037Y-83326082D01*
X150275144Y-83268932D01*
X150250000Y-83264950D01*
X150250000Y-84409670D01*
X150230255Y-84389925D01*
X150144745Y-84340556D01*
X150049370Y-84315000D01*
X149950630Y-84315000D01*
X149855255Y-84340556D01*
X149769745Y-84389925D01*
X149750000Y-84409670D01*
X149750000Y-83264950D01*
X149749999Y-83264950D01*
X149724855Y-83268932D01*
X149548962Y-83326082D01*
X149548956Y-83326084D01*
X149384162Y-83410052D01*
X149234545Y-83518754D01*
X149234540Y-83518758D01*
X149103758Y-83649540D01*
X149103754Y-83649545D01*
X148995052Y-83799162D01*
X148911084Y-83963956D01*
X148911083Y-83963959D01*
X148853933Y-84139852D01*
X148825000Y-84322526D01*
X142600500Y-84322526D01*
X142600500Y-82300097D01*
X142620185Y-82233058D01*
X142636819Y-82212416D01*
X146761587Y-78087648D01*
X156699500Y-78087648D01*
X156699500Y-78292351D01*
X156731522Y-78494534D01*
X156794781Y-78689223D01*
X156887715Y-78871613D01*
X157008028Y-79037213D01*
X157152786Y-79181971D01*
X157235806Y-79242287D01*
X157318390Y-79302287D01*
X157383021Y-79335218D01*
X157500776Y-79395218D01*
X157500778Y-79395218D01*
X157500781Y-79395220D01*
X157605137Y-79429127D01*
X157695465Y-79458477D01*
X157796557Y-79474488D01*
X157897648Y-79490500D01*
X157897649Y-79490500D01*
X158102351Y-79490500D01*
X158102352Y-79490500D01*
X158304534Y-79458477D01*
X158499219Y-79395220D01*
X158681610Y-79302287D01*
X158774590Y-79234732D01*
X158847213Y-79181971D01*
X158847215Y-79181968D01*
X158847219Y-79181966D01*
X158991966Y-79037219D01*
X158991968Y-79037215D01*
X158991971Y-79037213D01*
X159044732Y-78964590D01*
X159112287Y-78871610D01*
X159205220Y-78689219D01*
X159268477Y-78494534D01*
X159300500Y-78292352D01*
X159300500Y-78087648D01*
X160699500Y-78087648D01*
X160699500Y-78292351D01*
X160731522Y-78494534D01*
X160794781Y-78689223D01*
X160887715Y-78871613D01*
X161008028Y-79037213D01*
X161152786Y-79181971D01*
X161235806Y-79242287D01*
X161318390Y-79302287D01*
X161383021Y-79335218D01*
X161500776Y-79395218D01*
X161500778Y-79395218D01*
X161500781Y-79395220D01*
X161605137Y-79429127D01*
X161695465Y-79458477D01*
X161796557Y-79474488D01*
X161897648Y-79490500D01*
X161897649Y-79490500D01*
X162102351Y-79490500D01*
X162102352Y-79490500D01*
X162304534Y-79458477D01*
X162499219Y-79395220D01*
X162681610Y-79302287D01*
X162774590Y-79234732D01*
X162847213Y-79181971D01*
X162847215Y-79181968D01*
X162847219Y-79181966D01*
X162991966Y-79037219D01*
X162991968Y-79037215D01*
X162991971Y-79037213D01*
X163044732Y-78964590D01*
X163112287Y-78871610D01*
X163205220Y-78689219D01*
X163268477Y-78494534D01*
X163300500Y-78292352D01*
X163300500Y-78087648D01*
X163268477Y-77885466D01*
X163248981Y-77825465D01*
X163239127Y-77795137D01*
X163205220Y-77690781D01*
X163205218Y-77690778D01*
X163205218Y-77690776D01*
X163171503Y-77624607D01*
X163112287Y-77508390D01*
X163068692Y-77448386D01*
X162991971Y-77342786D01*
X162847213Y-77198028D01*
X162681613Y-77077715D01*
X162681612Y-77077714D01*
X162681610Y-77077713D01*
X162624653Y-77048691D01*
X162499223Y-76984781D01*
X162304534Y-76921522D01*
X162129995Y-76893878D01*
X162102352Y-76889500D01*
X161897648Y-76889500D01*
X161873329Y-76893351D01*
X161695465Y-76921522D01*
X161500776Y-76984781D01*
X161318386Y-77077715D01*
X161152786Y-77198028D01*
X161008028Y-77342786D01*
X160887715Y-77508386D01*
X160794781Y-77690776D01*
X160731522Y-77885465D01*
X160699500Y-78087648D01*
X159300500Y-78087648D01*
X159268477Y-77885466D01*
X159248981Y-77825465D01*
X159239127Y-77795137D01*
X159205220Y-77690781D01*
X159205218Y-77690778D01*
X159205218Y-77690776D01*
X159171503Y-77624607D01*
X159112287Y-77508390D01*
X159068692Y-77448386D01*
X158991971Y-77342786D01*
X158847213Y-77198028D01*
X158681613Y-77077715D01*
X158681612Y-77077714D01*
X158681610Y-77077713D01*
X158624653Y-77048691D01*
X158499223Y-76984781D01*
X158304534Y-76921522D01*
X158129995Y-76893878D01*
X158102352Y-76889500D01*
X157897648Y-76889500D01*
X157873329Y-76893351D01*
X157695465Y-76921522D01*
X157500776Y-76984781D01*
X157318386Y-77077715D01*
X157152786Y-77198028D01*
X157008028Y-77342786D01*
X156887715Y-77508386D01*
X156794781Y-77690776D01*
X156731522Y-77885465D01*
X156699500Y-78087648D01*
X146761587Y-78087648D01*
X146821587Y-78027648D01*
X151230520Y-73618716D01*
X151309577Y-73481784D01*
X151350501Y-73329057D01*
X151350501Y-73170942D01*
X151350501Y-73163347D01*
X151350500Y-73163329D01*
X151350500Y-68254071D01*
X156400000Y-68254071D01*
X156400000Y-68505928D01*
X156439397Y-68754669D01*
X156517219Y-68994184D01*
X156631557Y-69218583D01*
X156705748Y-69320697D01*
X156705748Y-69320698D01*
X157435387Y-68591059D01*
X157440889Y-68611591D01*
X157519881Y-68748408D01*
X157631592Y-68860119D01*
X157768409Y-68939111D01*
X157788940Y-68944612D01*
X157059300Y-69674250D01*
X157161415Y-69748441D01*
X157164399Y-69750270D01*
X157165295Y-69751260D01*
X157165359Y-69751307D01*
X157165349Y-69751320D01*
X157211276Y-69802080D01*
X157222701Y-69871009D01*
X157195047Y-69935173D01*
X157137093Y-69974200D01*
X157099613Y-69980000D01*
X156952155Y-69980000D01*
X156892627Y-69986401D01*
X156892620Y-69986403D01*
X156757913Y-70036645D01*
X156757906Y-70036649D01*
X156642812Y-70122809D01*
X156642809Y-70122812D01*
X156556649Y-70237906D01*
X156556645Y-70237913D01*
X156506403Y-70372620D01*
X156506401Y-70372627D01*
X156500000Y-70432155D01*
X156500000Y-71230000D01*
X157451518Y-71230000D01*
X157440889Y-71248409D01*
X157400000Y-71401009D01*
X157400000Y-71558991D01*
X157440889Y-71711591D01*
X157451518Y-71730000D01*
X156500000Y-71730000D01*
X156500000Y-72527844D01*
X156506401Y-72587372D01*
X156506403Y-72587379D01*
X156556645Y-72722086D01*
X156556649Y-72722093D01*
X156642809Y-72837187D01*
X156642812Y-72837190D01*
X156757906Y-72923350D01*
X156757913Y-72923354D01*
X156892620Y-72973596D01*
X156892627Y-72973598D01*
X156952155Y-72979999D01*
X156952172Y-72980000D01*
X157750000Y-72980000D01*
X157750000Y-72028482D01*
X157768409Y-72039111D01*
X157921009Y-72080000D01*
X158078991Y-72080000D01*
X158231591Y-72039111D01*
X158250000Y-72028482D01*
X158250000Y-72980000D01*
X159047828Y-72980000D01*
X159047844Y-72979999D01*
X159107372Y-72973598D01*
X159107379Y-72973596D01*
X159242086Y-72923354D01*
X159242093Y-72923350D01*
X159357187Y-72837190D01*
X159357190Y-72837187D01*
X159443350Y-72722093D01*
X159443354Y-72722086D01*
X159493596Y-72587379D01*
X159493598Y-72587372D01*
X159499999Y-72527844D01*
X159500000Y-72527827D01*
X159500000Y-71730000D01*
X158548482Y-71730000D01*
X158559111Y-71711591D01*
X158600000Y-71558991D01*
X158600000Y-71401009D01*
X158559111Y-71248409D01*
X158548482Y-71230000D01*
X159500000Y-71230000D01*
X159500000Y-70432172D01*
X159499999Y-70432155D01*
X159493598Y-70372627D01*
X159493596Y-70372620D01*
X159443354Y-70237913D01*
X159443350Y-70237906D01*
X159357190Y-70122812D01*
X159357187Y-70122809D01*
X159242093Y-70036649D01*
X159242086Y-70036645D01*
X159107379Y-69986403D01*
X159107372Y-69986401D01*
X159047844Y-69980000D01*
X158900387Y-69980000D01*
X158833348Y-69960315D01*
X158787593Y-69907511D01*
X158777649Y-69838353D01*
X158806674Y-69774797D01*
X158835591Y-69750277D01*
X158838571Y-69748450D01*
X158940697Y-69674250D01*
X158940698Y-69674250D01*
X158211059Y-68944612D01*
X158231591Y-68939111D01*
X158368408Y-68860119D01*
X158480119Y-68748408D01*
X158559111Y-68611591D01*
X158564612Y-68591060D01*
X159294250Y-69320698D01*
X159294250Y-69320697D01*
X159368442Y-69218581D01*
X159368446Y-69218575D01*
X159482780Y-68994184D01*
X159560602Y-68754669D01*
X159600000Y-68505928D01*
X159600000Y-68254071D01*
X159560602Y-68005330D01*
X159482780Y-67765815D01*
X159368442Y-67541416D01*
X159294250Y-67439301D01*
X159294250Y-67439300D01*
X158564612Y-68168939D01*
X158559111Y-68148409D01*
X158480119Y-68011592D01*
X158368408Y-67899881D01*
X158231591Y-67820889D01*
X158211058Y-67815387D01*
X158940698Y-67085748D01*
X158838583Y-67011557D01*
X158614184Y-66897219D01*
X158374669Y-66819397D01*
X158125928Y-66780000D01*
X157874072Y-66780000D01*
X157625330Y-66819397D01*
X157385815Y-66897219D01*
X157161413Y-67011559D01*
X157059301Y-67085747D01*
X157059300Y-67085748D01*
X157788940Y-67815387D01*
X157768409Y-67820889D01*
X157631592Y-67899881D01*
X157519881Y-68011592D01*
X157440889Y-68148409D01*
X157435387Y-68168940D01*
X156705748Y-67439300D01*
X156705747Y-67439301D01*
X156631559Y-67541413D01*
X156517219Y-67765815D01*
X156439397Y-68005330D01*
X156400000Y-68254071D01*
X151350500Y-68254071D01*
X151350500Y-67630097D01*
X151370185Y-67563058D01*
X151386814Y-67542421D01*
X153929241Y-64999994D01*
X156494859Y-64999994D01*
X156494860Y-65000008D01*
X156515070Y-65245831D01*
X156575159Y-65485055D01*
X156575162Y-65485063D01*
X156673513Y-65711254D01*
X156673517Y-65711261D01*
X156807488Y-65918351D01*
X156807491Y-65918355D01*
X156807492Y-65918356D01*
X156973496Y-66100790D01*
X157167068Y-66253664D01*
X157357107Y-66358571D01*
X157383008Y-66372869D01*
X157383017Y-66372873D01*
X157615508Y-66455203D01*
X157615513Y-66455204D01*
X157615518Y-66455206D01*
X157615524Y-66455207D01*
X157615528Y-66455208D01*
X157665797Y-66464162D01*
X157858354Y-66498461D01*
X157858347Y-66498461D01*
X157877566Y-66498695D01*
X158104993Y-66501475D01*
X158348813Y-66464165D01*
X158583266Y-66387534D01*
X158802054Y-66273640D01*
X158999303Y-66125541D01*
X159169714Y-65947216D01*
X159308712Y-65743452D01*
X159412565Y-65519722D01*
X159478481Y-65282035D01*
X159504692Y-65036774D01*
X159490493Y-64790525D01*
X159436265Y-64549901D01*
X159343468Y-64321366D01*
X159214589Y-64111055D01*
X159053092Y-63924619D01*
X158863313Y-63767061D01*
X158863311Y-63767059D01*
X158863303Y-63767054D01*
X158650349Y-63642614D01*
X158419926Y-63554624D01*
X158400895Y-63550752D01*
X158178215Y-63505446D01*
X158178217Y-63505446D01*
X157931722Y-63496408D01*
X157687063Y-63527750D01*
X157450815Y-63598627D01*
X157450813Y-63598628D01*
X157229302Y-63707144D01*
X157028500Y-63850374D01*
X157028493Y-63850380D01*
X156853777Y-64024487D01*
X156853773Y-64024492D01*
X156709843Y-64224791D01*
X156709840Y-64224797D01*
X156600555Y-64445918D01*
X156600554Y-64445923D01*
X156528850Y-64681928D01*
X156496657Y-64926461D01*
X156496656Y-64926477D01*
X156494859Y-64999994D01*
X153929241Y-64999994D01*
X157317076Y-61612158D01*
X157378397Y-61578675D01*
X157443073Y-61581910D01*
X157618580Y-61638935D01*
X157625215Y-61641091D01*
X157874038Y-61680501D01*
X157874039Y-61680501D01*
X158125961Y-61680501D01*
X158125962Y-61680501D01*
X158374785Y-61641091D01*
X158614379Y-61563242D01*
X158838845Y-61448871D01*
X159042656Y-61300794D01*
X159220793Y-61122657D01*
X159368870Y-60918846D01*
X159483241Y-60694380D01*
X159561090Y-60454786D01*
X159600500Y-60205963D01*
X159600500Y-59954039D01*
X159561090Y-59705216D01*
X159483241Y-59465622D01*
X159483239Y-59465619D01*
X159483239Y-59465617D01*
X159441747Y-59384185D01*
X159368870Y-59241156D01*
X159349952Y-59215118D01*
X159220798Y-59037351D01*
X159220794Y-59037346D01*
X159042654Y-58859206D01*
X159042649Y-58859202D01*
X158838848Y-58711133D01*
X158838847Y-58711132D01*
X158838845Y-58711131D01*
X158768747Y-58675414D01*
X158614383Y-58596761D01*
X158374785Y-58518911D01*
X158125962Y-58479501D01*
X157874038Y-58479501D01*
X157749626Y-58499206D01*
X157625214Y-58518911D01*
X157385616Y-58596761D01*
X157161151Y-58711133D01*
X156957350Y-58859202D01*
X156957345Y-58859206D01*
X156779205Y-59037346D01*
X156779201Y-59037351D01*
X156631132Y-59241152D01*
X156516760Y-59465617D01*
X156438910Y-59705215D01*
X156399500Y-59954039D01*
X156399500Y-60205962D01*
X156438910Y-60454787D01*
X156438910Y-60454790D01*
X156498090Y-60636925D01*
X156500085Y-60706766D01*
X156467840Y-60762924D01*
X150381286Y-66849479D01*
X150269481Y-66961283D01*
X150269475Y-66961291D01*
X150222578Y-67042521D01*
X150222578Y-67042522D01*
X150190423Y-67098215D01*
X150190423Y-67098216D01*
X150149499Y-67250944D01*
X150149499Y-67250946D01*
X150149499Y-67419047D01*
X150149500Y-67419060D01*
X150149500Y-72949902D01*
X150129815Y-73016941D01*
X150113181Y-73037583D01*
X141519481Y-81631282D01*
X141519479Y-81631285D01*
X141469361Y-81718094D01*
X141469359Y-81718096D01*
X141440425Y-81768209D01*
X141440424Y-81768210D01*
X141440423Y-81768215D01*
X141399499Y-81920943D01*
X141399499Y-81920945D01*
X141399499Y-82089046D01*
X141399500Y-82089059D01*
X141399500Y-84520397D01*
X141379815Y-84587436D01*
X141331800Y-84630879D01*
X141318389Y-84637712D01*
X141152786Y-84758028D01*
X141008028Y-84902786D01*
X140887715Y-85068386D01*
X140794781Y-85250776D01*
X140731522Y-85445465D01*
X140699500Y-85647648D01*
X139300500Y-85647648D01*
X139268477Y-85445466D01*
X139265810Y-85437259D01*
X139224715Y-85310781D01*
X139205220Y-85250781D01*
X139205218Y-85250778D01*
X139205218Y-85250776D01*
X139142988Y-85128644D01*
X139112287Y-85068390D01*
X139091257Y-85039444D01*
X138991971Y-84902786D01*
X138847213Y-84758028D01*
X138681613Y-84637715D01*
X138681612Y-84637714D01*
X138681610Y-84637713D01*
X138617886Y-84605244D01*
X138499223Y-84544781D01*
X138304534Y-84481522D01*
X138129995Y-84453878D01*
X138102352Y-84449500D01*
X137897648Y-84449500D01*
X137873329Y-84453351D01*
X137695465Y-84481522D01*
X137500776Y-84544781D01*
X137318386Y-84637715D01*
X137152786Y-84758028D01*
X137008028Y-84902786D01*
X136887715Y-85068386D01*
X136794781Y-85250776D01*
X136731522Y-85445465D01*
X136699500Y-85647648D01*
X135500500Y-85647648D01*
X135500500Y-78027648D01*
X136699500Y-78027648D01*
X136699500Y-78232351D01*
X136731522Y-78434534D01*
X136794781Y-78629223D01*
X136887715Y-78811613D01*
X137008028Y-78977213D01*
X137152786Y-79121971D01*
X137235371Y-79181971D01*
X137318390Y-79242287D01*
X137434607Y-79301503D01*
X137500776Y-79335218D01*
X137500778Y-79335218D01*
X137500781Y-79335220D01*
X137605137Y-79369127D01*
X137695465Y-79398477D01*
X137796557Y-79414488D01*
X137897648Y-79430500D01*
X137897649Y-79430500D01*
X138102351Y-79430500D01*
X138102352Y-79430500D01*
X138304534Y-79398477D01*
X138499219Y-79335220D01*
X138681610Y-79242287D01*
X138774590Y-79174732D01*
X138847213Y-79121971D01*
X138847215Y-79121968D01*
X138847219Y-79121966D01*
X138991966Y-78977219D01*
X138991968Y-78977215D01*
X138991971Y-78977213D01*
X139044732Y-78904590D01*
X139112287Y-78811610D01*
X139205220Y-78629219D01*
X139268477Y-78434534D01*
X139300500Y-78232352D01*
X139300500Y-78027648D01*
X140699500Y-78027648D01*
X140699500Y-78232351D01*
X140731522Y-78434534D01*
X140794781Y-78629223D01*
X140887715Y-78811613D01*
X141008028Y-78977213D01*
X141152786Y-79121971D01*
X141235371Y-79181971D01*
X141318390Y-79242287D01*
X141434607Y-79301503D01*
X141500776Y-79335218D01*
X141500778Y-79335218D01*
X141500781Y-79335220D01*
X141605137Y-79369127D01*
X141695465Y-79398477D01*
X141796557Y-79414488D01*
X141897648Y-79430500D01*
X141897649Y-79430500D01*
X142102351Y-79430500D01*
X142102352Y-79430500D01*
X142304534Y-79398477D01*
X142499219Y-79335220D01*
X142681610Y-79242287D01*
X142774590Y-79174732D01*
X142847213Y-79121971D01*
X142847215Y-79121968D01*
X142847219Y-79121966D01*
X142991966Y-78977219D01*
X142991968Y-78977215D01*
X142991971Y-78977213D01*
X143044732Y-78904590D01*
X143112287Y-78811610D01*
X143205220Y-78629219D01*
X143268477Y-78434534D01*
X143300500Y-78232352D01*
X143300500Y-78027648D01*
X143268477Y-77825466D01*
X143205220Y-77630781D01*
X143205218Y-77630778D01*
X143205218Y-77630776D01*
X143171503Y-77564607D01*
X143112287Y-77448390D01*
X143104556Y-77437749D01*
X142991971Y-77282786D01*
X142847213Y-77138028D01*
X142681613Y-77017715D01*
X142681612Y-77017714D01*
X142681610Y-77017713D01*
X142624653Y-76988691D01*
X142499223Y-76924781D01*
X142304534Y-76861522D01*
X142129995Y-76833878D01*
X142102352Y-76829500D01*
X141897648Y-76829500D01*
X141873329Y-76833351D01*
X141695465Y-76861522D01*
X141500776Y-76924781D01*
X141318386Y-77017715D01*
X141152786Y-77138028D01*
X141008028Y-77282786D01*
X140887715Y-77448386D01*
X140794781Y-77630776D01*
X140731522Y-77825465D01*
X140699500Y-78027648D01*
X139300500Y-78027648D01*
X139268477Y-77825466D01*
X139263825Y-77811151D01*
X139261832Y-77741312D01*
X139294075Y-77685158D01*
X142368713Y-74610521D01*
X142368716Y-74610520D01*
X142480520Y-74498716D01*
X142530639Y-74411904D01*
X142559577Y-74361785D01*
X142600500Y-74209058D01*
X142600500Y-74050943D01*
X142600500Y-73629601D01*
X142620185Y-73562562D01*
X142668206Y-73519116D01*
X142681610Y-73512287D01*
X142847219Y-73391966D01*
X142991966Y-73247219D01*
X142991968Y-73247215D01*
X142991971Y-73247213D01*
X143112286Y-73081611D01*
X143112420Y-73081349D01*
X143139795Y-73027621D01*
X143187769Y-72976826D01*
X143255589Y-72960030D01*
X143321725Y-72982567D01*
X143360765Y-73027621D01*
X143388141Y-73081349D01*
X143508418Y-73246894D01*
X143508418Y-73246895D01*
X143653105Y-73391582D01*
X143818651Y-73511859D01*
X144000969Y-73604754D01*
X144195579Y-73667988D01*
X144250001Y-73676607D01*
X144250001Y-72433012D01*
X144307008Y-72465925D01*
X144434175Y-72500000D01*
X144565827Y-72500000D01*
X144692994Y-72465925D01*
X144750001Y-72433012D01*
X144750001Y-73676606D01*
X144804422Y-73667988D01*
X144999032Y-73604754D01*
X145181350Y-73511859D01*
X145346895Y-73391582D01*
X145346896Y-73391582D01*
X145491583Y-73246895D01*
X145491583Y-73246894D01*
X145611860Y-73081349D01*
X145704756Y-72899031D01*
X145767991Y-72704417D01*
X145800001Y-72502317D01*
X145800001Y-72250000D01*
X144933013Y-72250000D01*
X144965926Y-72192993D01*
X145000001Y-72065826D01*
X145000001Y-71934174D01*
X144965926Y-71807007D01*
X144933013Y-71750000D01*
X145800001Y-71750000D01*
X145800001Y-71497682D01*
X145767991Y-71295582D01*
X145704756Y-71100968D01*
X145611860Y-70918650D01*
X145491583Y-70753105D01*
X145491583Y-70753104D01*
X145346896Y-70608417D01*
X145181350Y-70488140D01*
X144999030Y-70395244D01*
X144804414Y-70332009D01*
X144750001Y-70323390D01*
X144750001Y-71566988D01*
X144692994Y-71534075D01*
X144565827Y-71500000D01*
X144434175Y-71500000D01*
X144307008Y-71534075D01*
X144250001Y-71566988D01*
X144250001Y-70323390D01*
X144195587Y-70332009D01*
X144000971Y-70395244D01*
X143818651Y-70488140D01*
X143653106Y-70608417D01*
X143653105Y-70608417D01*
X143508418Y-70753104D01*
X143508418Y-70753105D01*
X143388139Y-70918653D01*
X143360764Y-70972379D01*
X143312789Y-71023175D01*
X143244968Y-71039969D01*
X143178833Y-71017431D01*
X143139795Y-70972378D01*
X143112284Y-70918385D01*
X142991971Y-70752786D01*
X142847213Y-70608028D01*
X142681613Y-70487715D01*
X142681612Y-70487714D01*
X142681610Y-70487713D01*
X142624653Y-70458691D01*
X142499223Y-70394781D01*
X142304534Y-70331522D01*
X142129995Y-70303878D01*
X142102352Y-70299500D01*
X141897648Y-70299500D01*
X141873329Y-70303351D01*
X141695465Y-70331522D01*
X141500776Y-70394781D01*
X141318386Y-70487715D01*
X141152786Y-70608028D01*
X141008028Y-70752786D01*
X140887714Y-70918386D01*
X140860483Y-70971830D01*
X140812508Y-71022625D01*
X140744687Y-71039419D01*
X140678552Y-71016881D01*
X140639514Y-70971828D01*
X140612286Y-70918390D01*
X140604555Y-70907749D01*
X140491970Y-70752786D01*
X140347212Y-70608028D01*
X140181612Y-70487715D01*
X140181611Y-70487714D01*
X140181609Y-70487713D01*
X140124652Y-70458691D01*
X139999222Y-70394781D01*
X139804533Y-70331522D01*
X139629994Y-70303878D01*
X139602351Y-70299500D01*
X139397647Y-70299500D01*
X139373328Y-70303351D01*
X139195464Y-70331522D01*
X139000775Y-70394781D01*
X138818385Y-70487715D01*
X138652785Y-70608028D01*
X138508027Y-70752786D01*
X138387714Y-70918386D01*
X138294780Y-71100776D01*
X138231521Y-71295465D01*
X138199499Y-71497648D01*
X138199499Y-72502351D01*
X138231521Y-72704534D01*
X138294780Y-72899223D01*
X138387714Y-73081613D01*
X138508027Y-73247213D01*
X138652785Y-73391971D01*
X138776406Y-73481785D01*
X138818389Y-73512287D01*
X138899498Y-73553614D01*
X139000775Y-73605218D01*
X139000777Y-73605218D01*
X139000780Y-73605220D01*
X139075817Y-73629601D01*
X139195464Y-73668477D01*
X139296556Y-73684488D01*
X139397647Y-73700500D01*
X139397648Y-73700500D01*
X139602350Y-73700500D01*
X139602351Y-73700500D01*
X139804533Y-73668477D01*
X139999218Y-73605220D01*
X140181609Y-73512287D01*
X140274589Y-73444732D01*
X140347212Y-73391971D01*
X140347214Y-73391968D01*
X140347218Y-73391966D01*
X140491965Y-73247219D01*
X140491967Y-73247215D01*
X140491970Y-73247213D01*
X140612285Y-73081611D01*
X140612419Y-73081349D01*
X140639514Y-73028171D01*
X140687488Y-72977376D01*
X140755309Y-72960580D01*
X140821444Y-72983117D01*
X140860483Y-73028170D01*
X140887713Y-73081611D01*
X141008028Y-73247213D01*
X141008034Y-73247219D01*
X141152781Y-73391966D01*
X141318390Y-73512287D01*
X141331793Y-73519116D01*
X141342856Y-73529564D01*
X141356703Y-73535888D01*
X141367744Y-73553068D01*
X141382589Y-73567088D01*
X141386830Y-73582768D01*
X141394477Y-73594666D01*
X141399500Y-73629601D01*
X141399500Y-73829902D01*
X141379815Y-73896941D01*
X141363181Y-73917583D01*
X138444842Y-76835921D01*
X138383519Y-76869406D01*
X138318848Y-76866173D01*
X138304534Y-76861522D01*
X138129995Y-76833878D01*
X138102352Y-76829500D01*
X137897648Y-76829500D01*
X137873329Y-76833351D01*
X137695465Y-76861522D01*
X137500776Y-76924781D01*
X137318386Y-77017715D01*
X137152786Y-77138028D01*
X137008028Y-77282786D01*
X136887715Y-77448386D01*
X136794781Y-77630776D01*
X136731522Y-77825465D01*
X136699500Y-78027648D01*
X135500500Y-78027648D01*
X135500500Y-66732172D01*
X135520185Y-66665133D01*
X135572989Y-66619378D01*
X135642147Y-66609434D01*
X135705703Y-66638459D01*
X135721449Y-66654862D01*
X135732581Y-66668822D01*
X135732583Y-66668824D01*
X135732584Y-66668825D01*
X135931175Y-66867416D01*
X136150752Y-67042523D01*
X136388555Y-67191945D01*
X136641592Y-67313801D01*
X136840680Y-67383465D01*
X136906670Y-67406556D01*
X136906682Y-67406560D01*
X137180491Y-67469055D01*
X137180497Y-67469055D01*
X137180505Y-67469057D01*
X137366547Y-67490018D01*
X137459569Y-67500499D01*
X137459572Y-67500500D01*
X137459575Y-67500500D01*
X137740428Y-67500500D01*
X137740429Y-67500499D01*
X137883055Y-67484429D01*
X138019494Y-67469057D01*
X138019499Y-67469056D01*
X138019509Y-67469055D01*
X138293318Y-67406560D01*
X138558408Y-67313801D01*
X138811445Y-67191945D01*
X139049248Y-67042523D01*
X139268825Y-66867416D01*
X139467416Y-66668825D01*
X139642523Y-66449248D01*
X139791945Y-66211445D01*
X139913801Y-65958408D01*
X140006560Y-65693318D01*
X140069055Y-65419509D01*
X140100500Y-65140425D01*
X140100500Y-64859575D01*
X140100499Y-64859568D01*
X143899500Y-64859568D01*
X143899500Y-65140431D01*
X143930942Y-65419494D01*
X143930945Y-65419512D01*
X143993439Y-65693317D01*
X143993443Y-65693329D01*
X144086200Y-65958411D01*
X144208053Y-66211442D01*
X144208055Y-66211445D01*
X144357477Y-66449248D01*
X144399126Y-66501474D01*
X144532581Y-66668822D01*
X144532584Y-66668825D01*
X144731175Y-66867416D01*
X144950752Y-67042523D01*
X145188555Y-67191945D01*
X145441592Y-67313801D01*
X145640680Y-67383465D01*
X145706670Y-67406556D01*
X145706682Y-67406560D01*
X145980491Y-67469055D01*
X145980497Y-67469055D01*
X145980505Y-67469057D01*
X146166547Y-67490018D01*
X146259569Y-67500499D01*
X146259572Y-67500500D01*
X146259575Y-67500500D01*
X146540428Y-67500500D01*
X146540429Y-67500499D01*
X146683055Y-67484429D01*
X146819494Y-67469057D01*
X146819499Y-67469056D01*
X146819509Y-67469055D01*
X147093318Y-67406560D01*
X147358408Y-67313801D01*
X147611445Y-67191945D01*
X147849248Y-67042523D01*
X148068825Y-66867416D01*
X148267416Y-66668825D01*
X148442523Y-66449248D01*
X148591945Y-66211445D01*
X148713801Y-65958408D01*
X148806560Y-65693318D01*
X148869055Y-65419509D01*
X148900500Y-65140425D01*
X148900500Y-64859575D01*
X148869055Y-64580491D01*
X148806560Y-64306682D01*
X148713801Y-64041592D01*
X148591945Y-63788555D01*
X148442523Y-63550752D01*
X148267416Y-63331175D01*
X148068825Y-63132584D01*
X147849248Y-62957477D01*
X147611445Y-62808055D01*
X147611442Y-62808053D01*
X147358411Y-62686200D01*
X147093329Y-62593443D01*
X147093317Y-62593439D01*
X146819512Y-62530945D01*
X146819494Y-62530942D01*
X146540431Y-62499500D01*
X146540425Y-62499500D01*
X146259575Y-62499500D01*
X146259568Y-62499500D01*
X145980505Y-62530942D01*
X145980487Y-62530945D01*
X145706682Y-62593439D01*
X145706670Y-62593443D01*
X145441588Y-62686200D01*
X145188557Y-62808053D01*
X144950753Y-62957476D01*
X144731175Y-63132583D01*
X144532583Y-63331175D01*
X144357476Y-63550753D01*
X144208053Y-63788557D01*
X144086200Y-64041588D01*
X143993443Y-64306670D01*
X143993439Y-64306682D01*
X143930945Y-64580487D01*
X143930942Y-64580505D01*
X143899500Y-64859568D01*
X140100499Y-64859568D01*
X140069055Y-64580491D01*
X140006560Y-64306682D01*
X139913801Y-64041592D01*
X139791945Y-63788555D01*
X139642523Y-63550752D01*
X139467416Y-63331175D01*
X139268825Y-63132584D01*
X139049248Y-62957477D01*
X138811445Y-62808055D01*
X138811442Y-62808053D01*
X138558411Y-62686200D01*
X138293329Y-62593443D01*
X138293317Y-62593439D01*
X138019512Y-62530945D01*
X138019494Y-62530942D01*
X137740431Y-62499500D01*
X137740425Y-62499500D01*
X137459575Y-62499500D01*
X137459568Y-62499500D01*
X137180505Y-62530942D01*
X137180487Y-62530945D01*
X136906682Y-62593439D01*
X136906670Y-62593443D01*
X136641588Y-62686200D01*
X136388557Y-62808053D01*
X136150753Y-62957476D01*
X135931175Y-63132583D01*
X135732583Y-63331175D01*
X135721447Y-63345140D01*
X135664258Y-63385280D01*
X135594446Y-63388130D01*
X135534177Y-63352784D01*
X135502584Y-63290465D01*
X135500500Y-63267827D01*
X135500500Y-53003733D01*
X135500726Y-52996246D01*
X135518271Y-52706205D01*
X135520076Y-52691340D01*
X135571780Y-52409201D01*
X135575364Y-52394663D01*
X135652096Y-52148422D01*
X135660696Y-52120822D01*
X135665998Y-52106841D01*
X135783731Y-51845249D01*
X135790676Y-51832016D01*
X135939080Y-51586526D01*
X135947567Y-51574230D01*
X136124480Y-51348417D01*
X136134395Y-51337226D01*
X136337226Y-51134395D01*
X136348417Y-51124480D01*
X136574230Y-50947567D01*
X136586526Y-50939080D01*
X136832016Y-50790676D01*
X136845249Y-50783731D01*
X137106841Y-50665998D01*
X137120822Y-50660696D01*
X137394668Y-50575362D01*
X137409197Y-50571780D01*
X137691344Y-50520075D01*
X137706201Y-50518271D01*
X137996264Y-50500726D01*
X138003751Y-50500500D01*
X138065892Y-50500500D01*
X161934108Y-50500500D01*
X161996249Y-50500500D01*
X162003736Y-50500726D01*
G37*
%TD.AperFunction*%
%TD*%
M02*
