M48
; DRILL file {KiCad 9.0.1} date 2025-06-13T20:46:23+1000
; FORMAT={-:-/ absolute / metric / decimal}
; #@! TF.CreationDate,2025-06-13T20:46:23+10:00
; #@! TF.GenerationSoftware,Kicad,Pcbnew,9.0.1
; #@! TF.FileFunction,Plated,1,2,PTH
FMAT,2
METRIC
; #@! TA.AperFunction,Plated,PTH,ComponentDrill
T1C0.750
; #@! TA.AperFunction,Plated,PTH,ComponentDrill
T2C0.800
; #@! TA.AperFunction,Plated,PTH,ComponentDrill
T3C1.000
; #@! TA.AperFunction,Plated,PTH,ComponentDrill
T4C1.200
%
G90
G05
T1
X140.0Y-143.55
X142.0Y-143.55
X144.0Y-143.55
X148.23Y-83.0
X150.0Y-83.0
X151.73Y-83.0
X156.0Y-143.55
X158.0Y-143.55
X160.0Y-143.55
T2
X138.0Y-80.19
X138.0Y-87.81
X138.0Y-92.19
X138.0Y-99.81
X142.0Y-80.19
X142.0Y-87.81
X142.0Y-92.19
X142.0Y-99.81
X146.19Y-92.19
X146.19Y-94.73
X146.19Y-97.27
X146.19Y-99.81
X147.5Y-88.0
X147.5Y-104.0
X152.5Y-88.0
X152.5Y-104.0
X153.81Y-92.19
X153.81Y-94.73
X153.81Y-97.27
X153.81Y-99.81
X157.5Y-75.0
X158.0Y-80.19
X158.0Y-87.81
X158.0Y-92.19
X158.0Y-99.81
X162.0Y-80.19
X162.0Y-87.81
X162.0Y-92.19
X162.0Y-99.81
X162.5Y-75.0
T3
X139.5Y-72.0
X139.5Y-127.563
X142.0Y-72.0
X142.0Y-127.563
X144.5Y-72.0
X144.5Y-127.563
X155.5Y-127.563
X158.0Y-127.563
X160.5Y-127.563
T4
X142.0Y-111.38
X142.0Y-119.68
X142.0Y-122.78
X158.0Y-58.52
X158.0Y-61.62
X158.0Y-69.92
X158.0Y-111.38
X158.0Y-119.68
X158.0Y-122.78
M30
