M48
; DRILL file {KiCad 9.0.1} date 2025-06-14T20:15:40+1000
; FORMAT={-:-/ absolute / metric / decimal}
; #@! TF.CreationDate,2025-06-14T20:15:40+10:00
; #@! TF.GenerationSoftware,Kicad,Pcbnew,9.0.1
; #@! TF.FileFunction,Plated,1,2,PTH
FMAT,2
METRIC
; #@! TA.AperFunction,Plated,PTH,ComponentDrill
T1C0.750
; #@! TA.AperFunction,Plated,PTH,ComponentDrill
T2C0.800
; #@! TA.AperFunction,Plated,PTH,ComponentDrill
T3C0.900
; #@! TA.AperFunction,Plated,PTH,ComponentDrill
T4C1.000
; #@! TA.AperFunction,Plated,PTH,ComponentDrill
T5C1.200
%
G90
G05
T1
X140.0Y-143.55
X142.0Y-143.55
X144.0Y-143.55
X156.0Y-143.55
X158.0Y-143.55
X160.0Y-143.55
T2
X138.0Y-96.19
X138.0Y-103.81
X142.0Y-96.19
X142.0Y-103.81
X146.19Y-96.19
X146.19Y-98.73
X146.19Y-101.27
X146.19Y-103.81
X146.19Y-108.0
X147.5Y-92.0
X152.5Y-92.0
X153.81Y-96.19
X153.81Y-98.73
X153.81Y-101.27
X153.81Y-103.81
X153.81Y-108.0
X158.05Y-96.19
X158.05Y-103.81
X162.0Y-96.19
X162.0Y-103.81
T4
X155.5Y-121.0
X158.0Y-121.0
X160.5Y-121.0
T5
X142.0Y-58.52
X142.0Y-61.62
X142.0Y-69.92
X158.0Y-58.52
X158.0Y-61.62
X158.0Y-69.92
T3
G00X141.1Y-123.3
M15
G01X142.9Y-123.3
M16
G05
G00X141.1Y-128.0
M15
G01X142.9Y-128.0
M16
G05
G00X141.1Y-132.7
M15
G01X142.9Y-132.7
M16
G05
M30
