%TF.GenerationSoftware,KiCad,Pcbnew,9.0.4*%
%TF.CreationDate,2026-01-18T07:18:29+11:00*%
%TF.ProjectId,LFO,4c464f2e-6b69-4636-9164-5f7063625858,rev?*%
%TF.SameCoordinates,Original*%
%TF.FileFunction,Legend,Bot*%
%TF.FilePolarity,Positive*%
%FSLAX46Y46*%
G04 Gerber Fmt 4.6, Leading zero omitted, Abs format (unit mm)*
G04 Created by KiCad (PCBNEW 9.0.4) date 2026-01-18 07:18:29*
%MOMM*%
%LPD*%
G01*
G04 APERTURE LIST*
%ADD10C,0.150000*%
%ADD11C,0.200000*%
%ADD12C,0.010000*%
%ADD13C,0.000000*%
G04 APERTURE END LIST*
D10*
X153571428Y-52797343D02*
X154142856Y-52797343D01*
X154142856Y-52797343D02*
X154142856Y-51597343D01*
X152771427Y-52168772D02*
X153171427Y-52168772D01*
X153171427Y-52797343D02*
X153171427Y-51597343D01*
X153171427Y-51597343D02*
X152599999Y-51597343D01*
X151914285Y-51597343D02*
X151685713Y-51597343D01*
X151685713Y-51597343D02*
X151571428Y-51654486D01*
X151571428Y-51654486D02*
X151457142Y-51768772D01*
X151457142Y-51768772D02*
X151399999Y-51997343D01*
X151399999Y-51997343D02*
X151399999Y-52397343D01*
X151399999Y-52397343D02*
X151457142Y-52625915D01*
X151457142Y-52625915D02*
X151571428Y-52740201D01*
X151571428Y-52740201D02*
X151685713Y-52797343D01*
X151685713Y-52797343D02*
X151914285Y-52797343D01*
X151914285Y-52797343D02*
X152028571Y-52740201D01*
X152028571Y-52740201D02*
X152142856Y-52625915D01*
X152142856Y-52625915D02*
X152199999Y-52397343D01*
X152199999Y-52397343D02*
X152199999Y-51997343D01*
X152199999Y-51997343D02*
X152142856Y-51768772D01*
X152142856Y-51768772D02*
X152028571Y-51654486D01*
X152028571Y-51654486D02*
X151914285Y-51597343D01*
X150085713Y-51997343D02*
X149799999Y-52797343D01*
X149799999Y-52797343D02*
X149514284Y-51997343D01*
X148428570Y-52797343D02*
X149114284Y-52797343D01*
X148771427Y-52797343D02*
X148771427Y-51597343D01*
X148771427Y-51597343D02*
X148885713Y-51768772D01*
X148885713Y-51768772D02*
X148999998Y-51883058D01*
X148999998Y-51883058D02*
X149114284Y-51940201D01*
X147914284Y-52340201D02*
X146999999Y-52340201D01*
X146199999Y-51597343D02*
X146085713Y-51597343D01*
X146085713Y-51597343D02*
X145971427Y-51654486D01*
X145971427Y-51654486D02*
X145914285Y-51711629D01*
X145914285Y-51711629D02*
X145857142Y-51825915D01*
X145857142Y-51825915D02*
X145799999Y-52054486D01*
X145799999Y-52054486D02*
X145799999Y-52340201D01*
X145799999Y-52340201D02*
X145857142Y-52568772D01*
X145857142Y-52568772D02*
X145914285Y-52683058D01*
X145914285Y-52683058D02*
X145971427Y-52740201D01*
X145971427Y-52740201D02*
X146085713Y-52797343D01*
X146085713Y-52797343D02*
X146199999Y-52797343D01*
X146199999Y-52797343D02*
X146314285Y-52740201D01*
X146314285Y-52740201D02*
X146371427Y-52683058D01*
X146371427Y-52683058D02*
X146428570Y-52568772D01*
X146428570Y-52568772D02*
X146485713Y-52340201D01*
X146485713Y-52340201D02*
X146485713Y-52054486D01*
X146485713Y-52054486D02*
X146428570Y-51825915D01*
X146428570Y-51825915D02*
X146371427Y-51711629D01*
X146371427Y-51711629D02*
X146314285Y-51654486D01*
X146314285Y-51654486D02*
X146199999Y-51597343D01*
X159342855Y-54547342D02*
X159342855Y-53347342D01*
X159342855Y-53347342D02*
X158885712Y-53347342D01*
X158885712Y-53347342D02*
X158771427Y-53404485D01*
X158771427Y-53404485D02*
X158714284Y-53461628D01*
X158714284Y-53461628D02*
X158657141Y-53575914D01*
X158657141Y-53575914D02*
X158657141Y-53747342D01*
X158657141Y-53747342D02*
X158714284Y-53861628D01*
X158714284Y-53861628D02*
X158771427Y-53918771D01*
X158771427Y-53918771D02*
X158885712Y-53975914D01*
X158885712Y-53975914D02*
X159342855Y-53975914D01*
X157628570Y-54547342D02*
X157628570Y-53918771D01*
X157628570Y-53918771D02*
X157685712Y-53804485D01*
X157685712Y-53804485D02*
X157799998Y-53747342D01*
X157799998Y-53747342D02*
X158028570Y-53747342D01*
X158028570Y-53747342D02*
X158142855Y-53804485D01*
X157628570Y-54490200D02*
X157742855Y-54547342D01*
X157742855Y-54547342D02*
X158028570Y-54547342D01*
X158028570Y-54547342D02*
X158142855Y-54490200D01*
X158142855Y-54490200D02*
X158199998Y-54375914D01*
X158199998Y-54375914D02*
X158199998Y-54261628D01*
X158199998Y-54261628D02*
X158142855Y-54147342D01*
X158142855Y-54147342D02*
X158028570Y-54090200D01*
X158028570Y-54090200D02*
X157742855Y-54090200D01*
X157742855Y-54090200D02*
X157628570Y-54033057D01*
X157057141Y-53747342D02*
X157057141Y-54547342D01*
X157057141Y-53861628D02*
X156999998Y-53804485D01*
X156999998Y-53804485D02*
X156885713Y-53747342D01*
X156885713Y-53747342D02*
X156714284Y-53747342D01*
X156714284Y-53747342D02*
X156599998Y-53804485D01*
X156599998Y-53804485D02*
X156542856Y-53918771D01*
X156542856Y-53918771D02*
X156542856Y-54547342D01*
X155457142Y-54490200D02*
X155571427Y-54547342D01*
X155571427Y-54547342D02*
X155799999Y-54547342D01*
X155799999Y-54547342D02*
X155914284Y-54490200D01*
X155914284Y-54490200D02*
X155971427Y-54433057D01*
X155971427Y-54433057D02*
X156028570Y-54318771D01*
X156028570Y-54318771D02*
X156028570Y-53975914D01*
X156028570Y-53975914D02*
X155971427Y-53861628D01*
X155971427Y-53861628D02*
X155914284Y-53804485D01*
X155914284Y-53804485D02*
X155799999Y-53747342D01*
X155799999Y-53747342D02*
X155571427Y-53747342D01*
X155571427Y-53747342D02*
X155457142Y-53804485D01*
X154428571Y-54547342D02*
X154428571Y-53918771D01*
X154428571Y-53918771D02*
X154485713Y-53804485D01*
X154485713Y-53804485D02*
X154599999Y-53747342D01*
X154599999Y-53747342D02*
X154828571Y-53747342D01*
X154828571Y-53747342D02*
X154942856Y-53804485D01*
X154428571Y-54490200D02*
X154542856Y-54547342D01*
X154542856Y-54547342D02*
X154828571Y-54547342D01*
X154828571Y-54547342D02*
X154942856Y-54490200D01*
X154942856Y-54490200D02*
X154999999Y-54375914D01*
X154999999Y-54375914D02*
X154999999Y-54261628D01*
X154999999Y-54261628D02*
X154942856Y-54147342D01*
X154942856Y-54147342D02*
X154828571Y-54090200D01*
X154828571Y-54090200D02*
X154542856Y-54090200D01*
X154542856Y-54090200D02*
X154428571Y-54033057D01*
X153857142Y-54547342D02*
X153857142Y-53347342D01*
X153742857Y-54090200D02*
X153399999Y-54547342D01*
X153399999Y-53747342D02*
X153857142Y-54204485D01*
X152428570Y-54490200D02*
X152542856Y-54547342D01*
X152542856Y-54547342D02*
X152771428Y-54547342D01*
X152771428Y-54547342D02*
X152885713Y-54490200D01*
X152885713Y-54490200D02*
X152942856Y-54375914D01*
X152942856Y-54375914D02*
X152942856Y-53918771D01*
X152942856Y-53918771D02*
X152885713Y-53804485D01*
X152885713Y-53804485D02*
X152771428Y-53747342D01*
X152771428Y-53747342D02*
X152542856Y-53747342D01*
X152542856Y-53747342D02*
X152428570Y-53804485D01*
X152428570Y-53804485D02*
X152371428Y-53918771D01*
X152371428Y-53918771D02*
X152371428Y-54033057D01*
X152371428Y-54033057D02*
X152942856Y-54147342D01*
X151285714Y-54547342D02*
X151857142Y-54547342D01*
X151857142Y-54547342D02*
X151857142Y-53347342D01*
X150428570Y-54490200D02*
X150542856Y-54547342D01*
X150542856Y-54547342D02*
X150771428Y-54547342D01*
X150771428Y-54547342D02*
X150885713Y-54490200D01*
X150885713Y-54490200D02*
X150942856Y-54375914D01*
X150942856Y-54375914D02*
X150942856Y-53918771D01*
X150942856Y-53918771D02*
X150885713Y-53804485D01*
X150885713Y-53804485D02*
X150771428Y-53747342D01*
X150771428Y-53747342D02*
X150542856Y-53747342D01*
X150542856Y-53747342D02*
X150428570Y-53804485D01*
X150428570Y-53804485D02*
X150371428Y-53918771D01*
X150371428Y-53918771D02*
X150371428Y-54033057D01*
X150371428Y-54033057D02*
X150942856Y-54147342D01*
X149342857Y-53747342D02*
X149342857Y-54718771D01*
X149342857Y-54718771D02*
X149399999Y-54833057D01*
X149399999Y-54833057D02*
X149457142Y-54890200D01*
X149457142Y-54890200D02*
X149571428Y-54947342D01*
X149571428Y-54947342D02*
X149742857Y-54947342D01*
X149742857Y-54947342D02*
X149857142Y-54890200D01*
X149342857Y-54490200D02*
X149457142Y-54547342D01*
X149457142Y-54547342D02*
X149685714Y-54547342D01*
X149685714Y-54547342D02*
X149799999Y-54490200D01*
X149799999Y-54490200D02*
X149857142Y-54433057D01*
X149857142Y-54433057D02*
X149914285Y-54318771D01*
X149914285Y-54318771D02*
X149914285Y-53975914D01*
X149914285Y-53975914D02*
X149857142Y-53861628D01*
X149857142Y-53861628D02*
X149799999Y-53804485D01*
X149799999Y-53804485D02*
X149685714Y-53747342D01*
X149685714Y-53747342D02*
X149457142Y-53747342D01*
X149457142Y-53747342D02*
X149342857Y-53804485D01*
X148314285Y-54490200D02*
X148428571Y-54547342D01*
X148428571Y-54547342D02*
X148657143Y-54547342D01*
X148657143Y-54547342D02*
X148771428Y-54490200D01*
X148771428Y-54490200D02*
X148828571Y-54375914D01*
X148828571Y-54375914D02*
X148828571Y-53918771D01*
X148828571Y-53918771D02*
X148771428Y-53804485D01*
X148771428Y-53804485D02*
X148657143Y-53747342D01*
X148657143Y-53747342D02*
X148428571Y-53747342D01*
X148428571Y-53747342D02*
X148314285Y-53804485D01*
X148314285Y-53804485D02*
X148257143Y-53918771D01*
X148257143Y-53918771D02*
X148257143Y-54033057D01*
X148257143Y-54033057D02*
X148828571Y-54147342D01*
X147742857Y-53747342D02*
X147742857Y-54547342D01*
X147742857Y-53861628D02*
X147685714Y-53804485D01*
X147685714Y-53804485D02*
X147571429Y-53747342D01*
X147571429Y-53747342D02*
X147400000Y-53747342D01*
X147400000Y-53747342D02*
X147285714Y-53804485D01*
X147285714Y-53804485D02*
X147228572Y-53918771D01*
X147228572Y-53918771D02*
X147228572Y-54547342D01*
X146142858Y-54547342D02*
X146142858Y-53347342D01*
X146142858Y-54490200D02*
X146257143Y-54547342D01*
X146257143Y-54547342D02*
X146485715Y-54547342D01*
X146485715Y-54547342D02*
X146600000Y-54490200D01*
X146600000Y-54490200D02*
X146657143Y-54433057D01*
X146657143Y-54433057D02*
X146714286Y-54318771D01*
X146714286Y-54318771D02*
X146714286Y-53975914D01*
X146714286Y-53975914D02*
X146657143Y-53861628D01*
X146657143Y-53861628D02*
X146600000Y-53804485D01*
X146600000Y-53804485D02*
X146485715Y-53747342D01*
X146485715Y-53747342D02*
X146257143Y-53747342D01*
X146257143Y-53747342D02*
X146142858Y-53804485D01*
X144714286Y-53461628D02*
X144657143Y-53404485D01*
X144657143Y-53404485D02*
X144542858Y-53347342D01*
X144542858Y-53347342D02*
X144257143Y-53347342D01*
X144257143Y-53347342D02*
X144142858Y-53404485D01*
X144142858Y-53404485D02*
X144085715Y-53461628D01*
X144085715Y-53461628D02*
X144028572Y-53575914D01*
X144028572Y-53575914D02*
X144028572Y-53690200D01*
X144028572Y-53690200D02*
X144085715Y-53861628D01*
X144085715Y-53861628D02*
X144771429Y-54547342D01*
X144771429Y-54547342D02*
X144028572Y-54547342D01*
X143285715Y-53347342D02*
X143171429Y-53347342D01*
X143171429Y-53347342D02*
X143057143Y-53404485D01*
X143057143Y-53404485D02*
X143000001Y-53461628D01*
X143000001Y-53461628D02*
X142942858Y-53575914D01*
X142942858Y-53575914D02*
X142885715Y-53804485D01*
X142885715Y-53804485D02*
X142885715Y-54090200D01*
X142885715Y-54090200D02*
X142942858Y-54318771D01*
X142942858Y-54318771D02*
X143000001Y-54433057D01*
X143000001Y-54433057D02*
X143057143Y-54490200D01*
X143057143Y-54490200D02*
X143171429Y-54547342D01*
X143171429Y-54547342D02*
X143285715Y-54547342D01*
X143285715Y-54547342D02*
X143400001Y-54490200D01*
X143400001Y-54490200D02*
X143457143Y-54433057D01*
X143457143Y-54433057D02*
X143514286Y-54318771D01*
X143514286Y-54318771D02*
X143571429Y-54090200D01*
X143571429Y-54090200D02*
X143571429Y-53804485D01*
X143571429Y-53804485D02*
X143514286Y-53575914D01*
X143514286Y-53575914D02*
X143457143Y-53461628D01*
X143457143Y-53461628D02*
X143400001Y-53404485D01*
X143400001Y-53404485D02*
X143285715Y-53347342D01*
X142428572Y-53461628D02*
X142371429Y-53404485D01*
X142371429Y-53404485D02*
X142257144Y-53347342D01*
X142257144Y-53347342D02*
X141971429Y-53347342D01*
X141971429Y-53347342D02*
X141857144Y-53404485D01*
X141857144Y-53404485D02*
X141800001Y-53461628D01*
X141800001Y-53461628D02*
X141742858Y-53575914D01*
X141742858Y-53575914D02*
X141742858Y-53690200D01*
X141742858Y-53690200D02*
X141800001Y-53861628D01*
X141800001Y-53861628D02*
X142485715Y-54547342D01*
X142485715Y-54547342D02*
X141742858Y-54547342D01*
X140657144Y-53347342D02*
X141228572Y-53347342D01*
X141228572Y-53347342D02*
X141285715Y-53918771D01*
X141285715Y-53918771D02*
X141228572Y-53861628D01*
X141228572Y-53861628D02*
X141114287Y-53804485D01*
X141114287Y-53804485D02*
X140828572Y-53804485D01*
X140828572Y-53804485D02*
X140714287Y-53861628D01*
X140714287Y-53861628D02*
X140657144Y-53918771D01*
X140657144Y-53918771D02*
X140600001Y-54033057D01*
X140600001Y-54033057D02*
X140600001Y-54318771D01*
X140600001Y-54318771D02*
X140657144Y-54433057D01*
X140657144Y-54433057D02*
X140714287Y-54490200D01*
X140714287Y-54490200D02*
X140828572Y-54547342D01*
X140828572Y-54547342D02*
X141114287Y-54547342D01*
X141114287Y-54547342D02*
X141228572Y-54490200D01*
X141228572Y-54490200D02*
X141285715Y-54433057D01*
D11*
X144093316Y-145483958D02*
X144093316Y-146451578D01*
X143307126Y-146874911D02*
X144577126Y-147298244D01*
X144577126Y-147298244D02*
X143307126Y-147721578D01*
X142093316Y-145483958D02*
X142093316Y-146451578D01*
X142577126Y-145967768D02*
X141609507Y-145967768D01*
X141307126Y-146874911D02*
X142577126Y-147298244D01*
X142577126Y-147298244D02*
X141307126Y-147721578D01*
X139367602Y-146149197D02*
X139307126Y-146028244D01*
X139307126Y-146028244D02*
X139307126Y-145846816D01*
X139307126Y-145846816D02*
X139367602Y-145665387D01*
X139367602Y-145665387D02*
X139488554Y-145544435D01*
X139488554Y-145544435D02*
X139609507Y-145483958D01*
X139609507Y-145483958D02*
X139851411Y-145423482D01*
X139851411Y-145423482D02*
X140032840Y-145423482D01*
X140032840Y-145423482D02*
X140274745Y-145483958D01*
X140274745Y-145483958D02*
X140395697Y-145544435D01*
X140395697Y-145544435D02*
X140516650Y-145665387D01*
X140516650Y-145665387D02*
X140577126Y-145846816D01*
X140577126Y-145846816D02*
X140577126Y-145967768D01*
X140577126Y-145967768D02*
X140516650Y-146149197D01*
X140516650Y-146149197D02*
X140456173Y-146209673D01*
X140456173Y-146209673D02*
X140032840Y-146209673D01*
X140032840Y-146209673D02*
X140032840Y-145967768D01*
X140577126Y-146753958D02*
X139307126Y-146753958D01*
X139307126Y-146753958D02*
X140577126Y-147479673D01*
X140577126Y-147479673D02*
X139307126Y-147479673D01*
X140577126Y-148084434D02*
X139307126Y-148084434D01*
X139307126Y-148084434D02*
X139307126Y-148386815D01*
X139307126Y-148386815D02*
X139367602Y-148568244D01*
X139367602Y-148568244D02*
X139488554Y-148689196D01*
X139488554Y-148689196D02*
X139609507Y-148749673D01*
X139609507Y-148749673D02*
X139851411Y-148810149D01*
X139851411Y-148810149D02*
X140032840Y-148810149D01*
X140032840Y-148810149D02*
X140274745Y-148749673D01*
X140274745Y-148749673D02*
X140395697Y-148689196D01*
X140395697Y-148689196D02*
X140516650Y-148568244D01*
X140516650Y-148568244D02*
X140577126Y-148386815D01*
X140577126Y-148386815D02*
X140577126Y-148084434D01*
X155367602Y-146149197D02*
X155307126Y-146028244D01*
X155307126Y-146028244D02*
X155307126Y-145846816D01*
X155307126Y-145846816D02*
X155367602Y-145665387D01*
X155367602Y-145665387D02*
X155488554Y-145544435D01*
X155488554Y-145544435D02*
X155609507Y-145483958D01*
X155609507Y-145483958D02*
X155851411Y-145423482D01*
X155851411Y-145423482D02*
X156032840Y-145423482D01*
X156032840Y-145423482D02*
X156274745Y-145483958D01*
X156274745Y-145483958D02*
X156395697Y-145544435D01*
X156395697Y-145544435D02*
X156516650Y-145665387D01*
X156516650Y-145665387D02*
X156577126Y-145846816D01*
X156577126Y-145846816D02*
X156577126Y-145967768D01*
X156577126Y-145967768D02*
X156516650Y-146149197D01*
X156516650Y-146149197D02*
X156456173Y-146209673D01*
X156456173Y-146209673D02*
X156032840Y-146209673D01*
X156032840Y-146209673D02*
X156032840Y-145967768D01*
X156577126Y-146753958D02*
X155307126Y-146753958D01*
X155307126Y-146753958D02*
X156577126Y-147479673D01*
X156577126Y-147479673D02*
X155307126Y-147479673D01*
X156577126Y-148084434D02*
X155307126Y-148084434D01*
X155307126Y-148084434D02*
X155307126Y-148386815D01*
X155307126Y-148386815D02*
X155367602Y-148568244D01*
X155367602Y-148568244D02*
X155488554Y-148689196D01*
X155488554Y-148689196D02*
X155609507Y-148749673D01*
X155609507Y-148749673D02*
X155851411Y-148810149D01*
X155851411Y-148810149D02*
X156032840Y-148810149D01*
X156032840Y-148810149D02*
X156274745Y-148749673D01*
X156274745Y-148749673D02*
X156395697Y-148689196D01*
X156395697Y-148689196D02*
X156516650Y-148568244D01*
X156516650Y-148568244D02*
X156577126Y-148386815D01*
X156577126Y-148386815D02*
X156577126Y-148084434D01*
X158093316Y-145483958D02*
X158093316Y-146451578D01*
X158577126Y-145967768D02*
X157609507Y-145967768D01*
X157307126Y-146874911D02*
X158577126Y-147298244D01*
X158577126Y-147298244D02*
X157307126Y-147721578D01*
X160093316Y-145483958D02*
X160093316Y-146451578D01*
X159307126Y-146874911D02*
X160577126Y-147298244D01*
X160577126Y-147298244D02*
X159307126Y-147721578D01*
D12*
%TO.C,Ref\u002A\u002A*%
X143286870Y-79081954D02*
X143301500Y-79115623D01*
X143295914Y-79135945D01*
X143257551Y-79176409D01*
X143189674Y-79214775D01*
X143100417Y-79245779D01*
X143031926Y-79256333D01*
X142939415Y-79255459D01*
X142842977Y-79242445D01*
X142751865Y-79219687D01*
X142675330Y-79189582D01*
X142622625Y-79154527D01*
X142603000Y-79116919D01*
X142603957Y-79105227D01*
X142625483Y-79078052D01*
X142676487Y-79078208D01*
X142758485Y-79105583D01*
X142790633Y-79116180D01*
X142869449Y-79131367D01*
X142952250Y-79137333D01*
X142995937Y-79135504D01*
X143079672Y-79124055D01*
X143146015Y-79105583D01*
X143166722Y-79097264D01*
X143242290Y-79075857D01*
X143286870Y-79081954D01*
G36*
X143286870Y-79081954D02*
G01*
X143301500Y-79115623D01*
X143295914Y-79135945D01*
X143257551Y-79176409D01*
X143189674Y-79214775D01*
X143100417Y-79245779D01*
X143031926Y-79256333D01*
X142939415Y-79255459D01*
X142842977Y-79242445D01*
X142751865Y-79219687D01*
X142675330Y-79189582D01*
X142622625Y-79154527D01*
X142603000Y-79116919D01*
X142603957Y-79105227D01*
X142625483Y-79078052D01*
X142676487Y-79078208D01*
X142758485Y-79105583D01*
X142790633Y-79116180D01*
X142869449Y-79131367D01*
X142952250Y-79137333D01*
X142995937Y-79135504D01*
X143079672Y-79124055D01*
X143146015Y-79105583D01*
X143166722Y-79097264D01*
X143242290Y-79075857D01*
X143286870Y-79081954D01*
G37*
X143875246Y-80835344D02*
X144152658Y-80841250D01*
X144317613Y-81254000D01*
X144482567Y-81666750D01*
X144286575Y-81677333D01*
X144090583Y-81687917D01*
X144248422Y-82016000D01*
X144285523Y-82093336D01*
X144339288Y-82206162D01*
X144386972Y-82307085D01*
X144424454Y-82387373D01*
X144447615Y-82438289D01*
X144468198Y-82485748D01*
X144478356Y-82514531D01*
X144471378Y-82515500D01*
X144447223Y-82494714D01*
X144443609Y-82491263D01*
X144412765Y-82458472D01*
X144360719Y-82400612D01*
X144291565Y-82322426D01*
X144209393Y-82228656D01*
X144118298Y-82124044D01*
X144022369Y-82013331D01*
X143925701Y-81901259D01*
X143832385Y-81792570D01*
X143746513Y-81692006D01*
X143672177Y-81604308D01*
X143613470Y-81534220D01*
X143574483Y-81486482D01*
X143559310Y-81465836D01*
X143561281Y-81462005D01*
X143591960Y-81452714D01*
X143652033Y-81444938D01*
X143732259Y-81440054D01*
X143911981Y-81433917D01*
X143754907Y-81153477D01*
X143726866Y-81103063D01*
X143675852Y-81009349D01*
X143634925Y-80931490D01*
X143607710Y-80876462D01*
X143597833Y-80851238D01*
X143608729Y-80843976D01*
X143658924Y-80837186D01*
X143748334Y-80834276D01*
X143875246Y-80835344D01*
G36*
X143875246Y-80835344D02*
G01*
X144152658Y-80841250D01*
X144317613Y-81254000D01*
X144482567Y-81666750D01*
X144286575Y-81677333D01*
X144090583Y-81687917D01*
X144248422Y-82016000D01*
X144285523Y-82093336D01*
X144339288Y-82206162D01*
X144386972Y-82307085D01*
X144424454Y-82387373D01*
X144447615Y-82438289D01*
X144468198Y-82485748D01*
X144478356Y-82514531D01*
X144471378Y-82515500D01*
X144447223Y-82494714D01*
X144443609Y-82491263D01*
X144412765Y-82458472D01*
X144360719Y-82400612D01*
X144291565Y-82322426D01*
X144209393Y-82228656D01*
X144118298Y-82124044D01*
X144022369Y-82013331D01*
X143925701Y-81901259D01*
X143832385Y-81792570D01*
X143746513Y-81692006D01*
X143672177Y-81604308D01*
X143613470Y-81534220D01*
X143574483Y-81486482D01*
X143559310Y-81465836D01*
X143561281Y-81462005D01*
X143591960Y-81452714D01*
X143652033Y-81444938D01*
X143732259Y-81440054D01*
X143911981Y-81433917D01*
X143754907Y-81153477D01*
X143726866Y-81103063D01*
X143675852Y-81009349D01*
X143634925Y-80931490D01*
X143607710Y-80876462D01*
X143597833Y-80851238D01*
X143608729Y-80843976D01*
X143658924Y-80837186D01*
X143748334Y-80834276D01*
X143875246Y-80835344D01*
G37*
X148984737Y-77641985D02*
X148983501Y-77742784D01*
X148978763Y-77815197D01*
X148968421Y-77871359D01*
X148950376Y-77923408D01*
X148922528Y-77983480D01*
X148888865Y-78043091D01*
X148825170Y-78134561D01*
X148758694Y-78211822D01*
X148738973Y-78230408D01*
X148665209Y-78288475D01*
X148578686Y-78344704D01*
X148490693Y-78392740D01*
X148412517Y-78426228D01*
X148355445Y-78438816D01*
X148337573Y-78441987D01*
X148320973Y-78458540D01*
X148318685Y-78465262D01*
X148308297Y-78495786D01*
X148297291Y-78560906D01*
X148285701Y-78661083D01*
X148265591Y-78824233D01*
X148218115Y-79114609D01*
X148154613Y-79425321D01*
X148110275Y-79609618D01*
X148077509Y-79745816D01*
X148024256Y-79938678D01*
X147989227Y-80065543D01*
X147892191Y-80373950D01*
X147891660Y-80375530D01*
X147852145Y-80496409D01*
X147818767Y-80604847D01*
X147793479Y-80693963D01*
X147778236Y-80756874D01*
X147774992Y-80786700D01*
X147778206Y-80796656D01*
X147794180Y-80844138D01*
X147818661Y-80915674D01*
X147847805Y-81000000D01*
X147893065Y-81141226D01*
X147937519Y-81319979D01*
X147966870Y-81503041D01*
X147982967Y-81702722D01*
X147987224Y-81910167D01*
X147987658Y-81931333D01*
X147983058Y-82152896D01*
X147969159Y-82345101D01*
X147945861Y-82497957D01*
X147913052Y-82612473D01*
X147892505Y-82647213D01*
X147849865Y-82683502D01*
X147781986Y-82717338D01*
X147683294Y-82751410D01*
X147548215Y-82788404D01*
X147466014Y-82808384D01*
X147452854Y-82810931D01*
X147234367Y-82853218D01*
X147010788Y-82876981D01*
X146775313Y-82882093D01*
X146534377Y-82878785D01*
X146356374Y-83093832D01*
X146133399Y-83349601D01*
X145863951Y-83630949D01*
X145577840Y-83904540D01*
X145286032Y-84159928D01*
X144999492Y-84386667D01*
X144951333Y-84422752D01*
X144877832Y-84479626D01*
X144831153Y-84520158D01*
X144806164Y-84549810D01*
X144797734Y-84574047D01*
X144800734Y-84598333D01*
X144804331Y-84618816D01*
X144809676Y-84681092D01*
X144813261Y-84766526D01*
X144814298Y-84850199D01*
X144814455Y-84862917D01*
X144813816Y-84933436D01*
X144809897Y-85016123D01*
X144800277Y-85078685D01*
X144782531Y-85134587D01*
X144754234Y-85197296D01*
X144725158Y-85251155D01*
X144619431Y-85391996D01*
X144485608Y-85510928D01*
X144332363Y-85601160D01*
X144168375Y-85655900D01*
X144005036Y-85672143D01*
X143831279Y-85652192D01*
X143665723Y-85596816D01*
X143514362Y-85509531D01*
X143383190Y-85393852D01*
X143278204Y-85253291D01*
X143205399Y-85091365D01*
X143191309Y-85024767D01*
X143181855Y-84930995D01*
X143179285Y-84860191D01*
X143536316Y-84860191D01*
X143554529Y-84974941D01*
X143602516Y-85083367D01*
X143681713Y-85179366D01*
X143793557Y-85256834D01*
X143920664Y-85301606D01*
X144052194Y-85306950D01*
X144179398Y-85271486D01*
X144297338Y-85195812D01*
X144307941Y-85186493D01*
X144395050Y-85083460D01*
X144446547Y-84969292D01*
X144464695Y-84850199D01*
X144451758Y-84732390D01*
X144409998Y-84622076D01*
X144341679Y-84525467D01*
X144249065Y-84448771D01*
X144134417Y-84398200D01*
X144000000Y-84379963D01*
X143971804Y-84380694D01*
X143841554Y-84405210D01*
X143732456Y-84460025D01*
X143645946Y-84539034D01*
X143583461Y-84636134D01*
X143546439Y-84745221D01*
X143536316Y-84860191D01*
X143179285Y-84860191D01*
X143178047Y-84826091D01*
X143179987Y-84723313D01*
X143187775Y-84635919D01*
X143201510Y-84577167D01*
X143201766Y-84576499D01*
X143194672Y-84552518D01*
X143159559Y-84513523D01*
X143093810Y-84457024D01*
X142994808Y-84380531D01*
X142924496Y-84327077D01*
X142587411Y-84050752D01*
X142254035Y-83745631D01*
X141935187Y-83422032D01*
X141641685Y-83090271D01*
X141465433Y-82878935D01*
X141214008Y-82881775D01*
X141131219Y-82881427D01*
X140956941Y-82873095D01*
X140783685Y-82855590D01*
X140617353Y-82830229D01*
X140537599Y-82813658D01*
X141906766Y-82813658D01*
X141908042Y-82818505D01*
X141928760Y-82848372D01*
X141969069Y-82898863D01*
X142023183Y-82962577D01*
X142198706Y-83157752D01*
X142517604Y-83483695D01*
X142848065Y-83787645D01*
X143179867Y-84059903D01*
X143411908Y-84238434D01*
X143492605Y-84174521D01*
X143562450Y-84124080D01*
X143680160Y-84063076D01*
X143811077Y-84026789D01*
X143968250Y-84010727D01*
X144037976Y-84008658D01*
X144129677Y-84011323D01*
X144205792Y-84023190D01*
X144282717Y-84046106D01*
X144333506Y-84066373D01*
X144427422Y-84112759D01*
X144507663Y-84162153D01*
X144608642Y-84234700D01*
X144838779Y-84056008D01*
X145083667Y-83856869D01*
X145361098Y-83611496D01*
X145628751Y-83354812D01*
X145871904Y-83100435D01*
X146134993Y-82810931D01*
X145963833Y-82755317D01*
X145902200Y-82734266D01*
X145822804Y-82699919D01*
X145771002Y-82662025D01*
X145737946Y-82613140D01*
X145714786Y-82545821D01*
X145707606Y-82516228D01*
X145688192Y-82406586D01*
X145671965Y-82272592D01*
X145660102Y-82127613D01*
X145653781Y-81985016D01*
X145654160Y-81864467D01*
X145832189Y-81864467D01*
X145834700Y-82072968D01*
X145851031Y-82277805D01*
X145880232Y-82460500D01*
X145883159Y-82472830D01*
X145896709Y-82506244D01*
X145921459Y-82533214D01*
X145963498Y-82556547D01*
X146028917Y-82579046D01*
X146123804Y-82603517D01*
X146254250Y-82632765D01*
X146349139Y-82650072D01*
X146520587Y-82670341D01*
X146708112Y-82682057D01*
X146897428Y-82684794D01*
X147074246Y-82678127D01*
X147224279Y-82661632D01*
X147330666Y-82642454D01*
X147450730Y-82617026D01*
X147560591Y-82590102D01*
X147649696Y-82564289D01*
X147707494Y-82542196D01*
X147727398Y-82520795D01*
X147751327Y-82458210D01*
X147770830Y-82361301D01*
X147785267Y-82234622D01*
X147793998Y-82082726D01*
X147796382Y-81910167D01*
X147795611Y-81848789D01*
X147783982Y-81629093D01*
X147756545Y-81426351D01*
X147710575Y-81228113D01*
X147643342Y-81021934D01*
X147552121Y-80795363D01*
X147468249Y-80601310D01*
X147349270Y-80684656D01*
X147185436Y-80775516D01*
X147004758Y-80831538D01*
X146817210Y-80850508D01*
X146629623Y-80832422D01*
X146448830Y-80777278D01*
X146281661Y-80685074D01*
X146163279Y-80602147D01*
X146098929Y-80742865D01*
X146069531Y-80808479D01*
X145981127Y-81030337D01*
X145916517Y-81242437D01*
X145871342Y-81461003D01*
X145841245Y-81702261D01*
X145832189Y-81864467D01*
X145654160Y-81864467D01*
X145654180Y-81858166D01*
X145654805Y-81840745D01*
X145657316Y-81752881D01*
X145656351Y-81698778D01*
X145650574Y-81671068D01*
X145638652Y-81662384D01*
X145619250Y-81665360D01*
X145580599Y-81672497D01*
X145520050Y-81677044D01*
X145463183Y-81677333D01*
X145456550Y-82201208D01*
X145454348Y-82359788D01*
X145451837Y-82488274D01*
X145448610Y-82585757D01*
X145444170Y-82658006D01*
X145438026Y-82710788D01*
X145429682Y-82749873D01*
X145418644Y-82781030D01*
X145404420Y-82810027D01*
X145384552Y-82844505D01*
X145284010Y-82967593D01*
X145153861Y-83060586D01*
X145140724Y-83067436D01*
X145119593Y-83076857D01*
X145094737Y-83084658D01*
X145062293Y-83091022D01*
X145018403Y-83096132D01*
X144959204Y-83100171D01*
X144880837Y-83103322D01*
X144779441Y-83105768D01*
X144651154Y-83107692D01*
X144492117Y-83109278D01*
X144298468Y-83110708D01*
X144066347Y-83112166D01*
X143974195Y-83112714D01*
X143738739Y-83113864D01*
X143540467Y-83114120D01*
X143375566Y-83113113D01*
X143240225Y-83110477D01*
X143130633Y-83105843D01*
X143042978Y-83098844D01*
X142973450Y-83089112D01*
X142918237Y-83076280D01*
X142873528Y-83059981D01*
X142835512Y-83039847D01*
X142800376Y-83015509D01*
X142764311Y-82986602D01*
X142736155Y-82959963D01*
X142677721Y-82887889D01*
X142632226Y-82811250D01*
X142630809Y-82808200D01*
X142615311Y-82772841D01*
X142603511Y-82738209D01*
X142594903Y-82698153D01*
X142588982Y-82646521D01*
X142585241Y-82577162D01*
X142583175Y-82483925D01*
X142582277Y-82360657D01*
X142582040Y-82201208D01*
X142581718Y-82106641D01*
X142580242Y-81975137D01*
X142577742Y-81862650D01*
X142574404Y-81775008D01*
X142570414Y-81718041D01*
X142565958Y-81697578D01*
X142559631Y-81696865D01*
X142519991Y-81690361D01*
X142461624Y-81679528D01*
X142373165Y-81662399D01*
X142372508Y-81950324D01*
X142370415Y-82065251D01*
X142370241Y-82074845D01*
X142360353Y-82243356D01*
X142343458Y-82392479D01*
X142320455Y-82516512D01*
X142292240Y-82609753D01*
X142259713Y-82666501D01*
X142258836Y-82667415D01*
X142215150Y-82697814D01*
X142145624Y-82731446D01*
X142064896Y-82761197D01*
X142053780Y-82764677D01*
X141982153Y-82787536D01*
X141929580Y-82805047D01*
X141906766Y-82813658D01*
X140537599Y-82813658D01*
X140463847Y-82798334D01*
X140329067Y-82761224D01*
X140218916Y-82720219D01*
X140139295Y-82676638D01*
X140096105Y-82631800D01*
X140071321Y-82566725D01*
X140045797Y-82450952D01*
X140027018Y-82301597D01*
X140015535Y-82123312D01*
X140011899Y-81920750D01*
X140012009Y-81901091D01*
X140193801Y-81901091D01*
X140194408Y-81999156D01*
X140202084Y-82105937D01*
X140217155Y-82237887D01*
X140217291Y-82238968D01*
X140235002Y-82366089D01*
X140251625Y-82455309D01*
X140268154Y-82510977D01*
X140285584Y-82537444D01*
X140291096Y-82540913D01*
X140338781Y-82560241D01*
X140416497Y-82583704D01*
X140514640Y-82608953D01*
X140623605Y-82633639D01*
X140733787Y-82655414D01*
X140835583Y-82671929D01*
X140979215Y-82686038D01*
X141209959Y-82690164D01*
X141452326Y-82675722D01*
X141691195Y-82643789D01*
X141911446Y-82595437D01*
X141953882Y-82583800D01*
X142029865Y-82560376D01*
X142077223Y-82536074D01*
X142104510Y-82502247D01*
X142120283Y-82450247D01*
X142133099Y-82371427D01*
X142164695Y-82065251D01*
X142163788Y-81752813D01*
X142126084Y-81448386D01*
X142050617Y-81144401D01*
X141936417Y-80833289D01*
X141838366Y-80600995D01*
X141719162Y-80684498D01*
X141703212Y-80695381D01*
X141544281Y-80779039D01*
X141369470Y-80832819D01*
X141194126Y-80851833D01*
X141059711Y-80851833D01*
X141091206Y-80941098D01*
X141099856Y-80964002D01*
X141135906Y-81045075D01*
X141176300Y-81121823D01*
X141179905Y-81128062D01*
X141216692Y-81214530D01*
X141216886Y-81280353D01*
X141180480Y-81325221D01*
X141175576Y-81327912D01*
X141121511Y-81333181D01*
X141045398Y-81312702D01*
X140953770Y-81270663D01*
X140853157Y-81211249D01*
X140750091Y-81138647D01*
X140651104Y-81057045D01*
X140562727Y-80970628D01*
X140491491Y-80883583D01*
X140446808Y-80820083D01*
X140390156Y-80947083D01*
X140378576Y-80974002D01*
X140322856Y-81131548D01*
X140273720Y-81316495D01*
X140234103Y-81516476D01*
X140206940Y-81719124D01*
X140199941Y-81795288D01*
X140193801Y-81901091D01*
X140012009Y-81901091D01*
X140012160Y-81874270D01*
X140018099Y-81677901D01*
X140033556Y-81505226D01*
X140060891Y-81341320D01*
X140102464Y-81171261D01*
X140160635Y-80980125D01*
X140235394Y-80750425D01*
X140117760Y-80404254D01*
X140028616Y-80125034D01*
X140019318Y-80092115D01*
X140346386Y-80092115D01*
X140360421Y-80254212D01*
X140394599Y-80419750D01*
X140445865Y-80570433D01*
X140450301Y-80580545D01*
X140514541Y-80699212D01*
X140599862Y-80822633D01*
X140694916Y-80935791D01*
X140788353Y-81023667D01*
X140845256Y-81065416D01*
X140913682Y-81110334D01*
X140982139Y-81151278D01*
X141041875Y-81183281D01*
X141084135Y-81201376D01*
X141100167Y-81200596D01*
X141099080Y-81195727D01*
X141085140Y-81161817D01*
X141060275Y-81110282D01*
X141053880Y-81097028D01*
X141025999Y-81031010D01*
X140993097Y-80944217D01*
X140961005Y-80851833D01*
X140954635Y-80832432D01*
X140937609Y-80777877D01*
X140924528Y-80727592D01*
X140914757Y-80674920D01*
X140907659Y-80613203D01*
X140902599Y-80535785D01*
X140898941Y-80436008D01*
X140896049Y-80307216D01*
X140893287Y-80142750D01*
X140891885Y-80053810D01*
X140972877Y-80053810D01*
X140973428Y-80180839D01*
X140976006Y-80305436D01*
X140980633Y-80419991D01*
X140987326Y-80516888D01*
X140996107Y-80588517D01*
X140996537Y-80590980D01*
X141010606Y-80662405D01*
X141025496Y-80702815D01*
X141047627Y-80722844D01*
X141083420Y-80733125D01*
X141178749Y-80742326D01*
X141320800Y-80729655D01*
X141465962Y-80691081D01*
X141599544Y-80629553D01*
X141719344Y-80541886D01*
X141744126Y-80514535D01*
X142019018Y-80514535D01*
X142088441Y-80656726D01*
X142109680Y-80702073D01*
X142170121Y-80848593D01*
X142228095Y-81011674D01*
X142277544Y-81173476D01*
X142312409Y-81316160D01*
X142324239Y-81370631D01*
X142341199Y-81424099D01*
X142361987Y-81452535D01*
X142392016Y-81466139D01*
X142446577Y-81479243D01*
X142513042Y-81493409D01*
X142581833Y-81506942D01*
X142581833Y-81083457D01*
X142581994Y-80996758D01*
X142583699Y-80855154D01*
X142588261Y-80745582D01*
X142592933Y-80699926D01*
X142931083Y-80699926D01*
X142931083Y-82675907D01*
X142981053Y-82716370D01*
X142982692Y-82717681D01*
X142996464Y-82726990D01*
X143014582Y-82734697D01*
X143040844Y-82740952D01*
X143079050Y-82745906D01*
X143132998Y-82749710D01*
X143206487Y-82752515D01*
X143303315Y-82754472D01*
X143427282Y-82755731D01*
X143582186Y-82756444D01*
X143771826Y-82756761D01*
X144000000Y-82756833D01*
X144031404Y-82756832D01*
X144254448Y-82756737D01*
X144439442Y-82756378D01*
X144590186Y-82755604D01*
X144710477Y-82754264D01*
X144804115Y-82752208D01*
X144874898Y-82749283D01*
X144926625Y-82745341D01*
X144963094Y-82740229D01*
X144988105Y-82733797D01*
X145005457Y-82725895D01*
X145018947Y-82716370D01*
X145068917Y-82675907D01*
X145068917Y-80699926D01*
X145018947Y-80659463D01*
X145017308Y-80658152D01*
X145003536Y-80648843D01*
X144985419Y-80641136D01*
X144959156Y-80634881D01*
X144920951Y-80629927D01*
X144867003Y-80626123D01*
X144793514Y-80623318D01*
X144696685Y-80621361D01*
X144572718Y-80620102D01*
X144417814Y-80619389D01*
X144228174Y-80619072D01*
X144000000Y-80619000D01*
X143968596Y-80619001D01*
X143745552Y-80619096D01*
X143560558Y-80619455D01*
X143409815Y-80620229D01*
X143289524Y-80621569D01*
X143195886Y-80623625D01*
X143125103Y-80626550D01*
X143073376Y-80630492D01*
X143036906Y-80635604D01*
X143011895Y-80642036D01*
X142994544Y-80649938D01*
X142981053Y-80659463D01*
X142931083Y-80699926D01*
X142592933Y-80699926D01*
X142596893Y-80661227D01*
X142610806Y-80595274D01*
X142631213Y-80540909D01*
X142659327Y-80491316D01*
X142696360Y-80439680D01*
X142725548Y-80408556D01*
X142788396Y-80357454D01*
X142859747Y-80311649D01*
X142973417Y-80248800D01*
X143433792Y-80241327D01*
X143491608Y-80240288D01*
X143620327Y-80237203D01*
X143731018Y-80233479D01*
X143817606Y-80229384D01*
X143874014Y-80225184D01*
X143894167Y-80221144D01*
X143893842Y-80219201D01*
X144127000Y-80219201D01*
X144127134Y-80221144D01*
X144127542Y-80227097D01*
X144133322Y-80238421D01*
X144149773Y-80246722D01*
X144182173Y-80252471D01*
X144235797Y-80256139D01*
X144315924Y-80258198D01*
X144427830Y-80259119D01*
X144576792Y-80259373D01*
X144664794Y-80259469D01*
X144794392Y-80260145D01*
X144891983Y-80261982D01*
X144964213Y-80265582D01*
X145017726Y-80271543D01*
X145059168Y-80280469D01*
X145095183Y-80292958D01*
X145132417Y-80309613D01*
X145225114Y-80362965D01*
X145322468Y-80454638D01*
X145395288Y-80576667D01*
X145406948Y-80604422D01*
X145418987Y-80642751D01*
X145427558Y-80688921D01*
X145428586Y-80699926D01*
X145433246Y-80749828D01*
X145436637Y-80832371D01*
X145438316Y-80943449D01*
X145438869Y-81089958D01*
X145439237Y-81192011D01*
X145440888Y-81316975D01*
X145444095Y-81406597D01*
X145449132Y-81465110D01*
X145456273Y-81496745D01*
X145465792Y-81505733D01*
X145474549Y-81504633D01*
X145520456Y-81496350D01*
X145582113Y-81483340D01*
X145631410Y-81469459D01*
X145667815Y-81445560D01*
X145684448Y-81406231D01*
X145689616Y-81382891D01*
X145764135Y-81094190D01*
X145850948Y-80837229D01*
X145948450Y-80616811D01*
X145990851Y-80533699D01*
X145871516Y-80288275D01*
X145856541Y-80256504D01*
X146070367Y-80256504D01*
X146109392Y-80325907D01*
X146124790Y-80351750D01*
X146225852Y-80477522D01*
X146293222Y-80533699D01*
X146356083Y-80586117D01*
X146505158Y-80670142D01*
X146662750Y-80722200D01*
X146698569Y-80729369D01*
X146808520Y-80742791D01*
X146910195Y-80737235D01*
X147026320Y-80712068D01*
X147178684Y-80654478D01*
X147331416Y-80555484D01*
X147460355Y-80423032D01*
X147562470Y-80259679D01*
X147573780Y-80236429D01*
X147603607Y-80167493D01*
X147620606Y-80105918D01*
X147628259Y-80035160D01*
X147630050Y-79938678D01*
X147629842Y-79903579D01*
X147627655Y-79825118D01*
X147623590Y-79768078D01*
X147618276Y-79742914D01*
X147605382Y-79742471D01*
X147559054Y-79752036D01*
X147488028Y-79771536D01*
X147401317Y-79798654D01*
X147196167Y-79866229D01*
X147196167Y-79923961D01*
X147196167Y-79939598D01*
X147195571Y-79960422D01*
X147170966Y-80070056D01*
X147115581Y-80161627D01*
X147036743Y-80232423D01*
X146941774Y-80279732D01*
X146837999Y-80300845D01*
X146732743Y-80293048D01*
X146633330Y-80253631D01*
X146547085Y-80179882D01*
X146501253Y-80125386D01*
X146436498Y-80179874D01*
X146354228Y-80234016D01*
X146247969Y-80269818D01*
X146145054Y-80270516D01*
X146070367Y-80256504D01*
X145856541Y-80256504D01*
X145818186Y-80175128D01*
X145774664Y-80069926D01*
X145749500Y-79985101D01*
X145741752Y-79918787D01*
X145947333Y-79918787D01*
X145949910Y-79961632D01*
X145969515Y-80019288D01*
X146016125Y-80078055D01*
X146098536Y-80141466D01*
X146186263Y-80164037D01*
X146277212Y-80144667D01*
X146288656Y-80139343D01*
X146367783Y-80081170D01*
X146417787Y-80004283D01*
X146431681Y-79939999D01*
X146559746Y-79939999D01*
X146584392Y-80032389D01*
X146639989Y-80111347D01*
X146722791Y-80166481D01*
X146751341Y-80177958D01*
X146807356Y-80192958D01*
X146856291Y-80186788D01*
X146919496Y-80158592D01*
X146998944Y-80103422D01*
X147055095Y-80022467D01*
X147073037Y-79923961D01*
X147068550Y-79877437D01*
X147035187Y-79790340D01*
X146976301Y-79724846D01*
X146900199Y-79683130D01*
X146815191Y-79667365D01*
X146729583Y-79679725D01*
X146651684Y-79722384D01*
X146589802Y-79797516D01*
X146569797Y-79844571D01*
X146562063Y-79917997D01*
X146559746Y-79939999D01*
X146431681Y-79939999D01*
X146436436Y-79917997D01*
X146421496Y-79831628D01*
X146370736Y-79754492D01*
X146301025Y-79701367D01*
X146207745Y-79673673D01*
X146106513Y-79687525D01*
X146097700Y-79690623D01*
X146017519Y-79741495D01*
X145965719Y-79819987D01*
X145947333Y-79918787D01*
X145741752Y-79918787D01*
X145740961Y-79912021D01*
X145747316Y-79842052D01*
X145766831Y-79766562D01*
X145767771Y-79763570D01*
X145786983Y-79697738D01*
X145792067Y-79653553D01*
X145782108Y-79613075D01*
X145756188Y-79558367D01*
X145749268Y-79544792D01*
X146096030Y-79544792D01*
X146100586Y-79549681D01*
X146134977Y-79557558D01*
X146192142Y-79560667D01*
X146196934Y-79560681D01*
X146287735Y-79569937D01*
X146362520Y-79601371D01*
X146439458Y-79662463D01*
X146497667Y-79716753D01*
X146555875Y-79661223D01*
X146573847Y-79645193D01*
X146674764Y-79585668D01*
X146786981Y-79560285D01*
X146900879Y-79568624D01*
X147006840Y-79610265D01*
X147095247Y-79684788D01*
X147107746Y-79698834D01*
X147148782Y-79735340D01*
X147178925Y-79748836D01*
X147204145Y-79745137D01*
X147267527Y-79729540D01*
X147343135Y-79705933D01*
X147420377Y-79678228D01*
X147488662Y-79650333D01*
X147537401Y-79626160D01*
X147556000Y-79609618D01*
X147555205Y-79598949D01*
X147531499Y-79537296D01*
X147480189Y-79462901D01*
X147408491Y-79383170D01*
X147323624Y-79305510D01*
X147232805Y-79237329D01*
X147143250Y-79186032D01*
X147116113Y-79173661D01*
X147052901Y-79149158D01*
X146991459Y-79134941D01*
X146917107Y-79128355D01*
X146815167Y-79126750D01*
X146776674Y-79126903D01*
X146685423Y-79129936D01*
X146617002Y-79138841D01*
X146556879Y-79156211D01*
X146490523Y-79184635D01*
X146432776Y-79213873D01*
X146356587Y-79258202D01*
X146300023Y-79297656D01*
X146292827Y-79303757D01*
X146245236Y-79349907D01*
X146193202Y-79407453D01*
X146145284Y-79466029D01*
X146110041Y-79515264D01*
X146096030Y-79544792D01*
X145749268Y-79544792D01*
X145739922Y-79526458D01*
X145715270Y-79479626D01*
X145702705Y-79457987D01*
X145698603Y-79457908D01*
X145670008Y-79473103D01*
X145625039Y-79504770D01*
X145586454Y-79531927D01*
X145460063Y-79601060D01*
X145319444Y-79655828D01*
X145185117Y-79687697D01*
X145095450Y-79695348D01*
X144925734Y-79685731D01*
X144759496Y-79648017D01*
X144608201Y-79585263D01*
X144483311Y-79500527D01*
X144407975Y-79434381D01*
X144321440Y-79620629D01*
X144308923Y-79648270D01*
X144266694Y-79750400D01*
X144224953Y-79862899D01*
X144186908Y-79975898D01*
X144155763Y-80079527D01*
X144134725Y-80163918D01*
X144127000Y-80219201D01*
X143893842Y-80219201D01*
X143888623Y-80188027D01*
X143869772Y-80120637D01*
X143840718Y-80031335D01*
X143804753Y-79929401D01*
X143765166Y-79824113D01*
X143725248Y-79724749D01*
X143688289Y-79640588D01*
X143591961Y-79434760D01*
X143515522Y-79494813D01*
X143499040Y-79507417D01*
X143433517Y-79552950D01*
X143375583Y-79587483D01*
X143357780Y-79598018D01*
X143349139Y-79607081D01*
X143311634Y-79646419D01*
X143274806Y-79726179D01*
X143253546Y-79774567D01*
X143204469Y-79857328D01*
X143147806Y-79930801D01*
X143107132Y-79973749D01*
X143063317Y-80009917D01*
X143021015Y-80026187D01*
X142965972Y-80030364D01*
X142896995Y-80023819D01*
X142817805Y-79989789D01*
X142794224Y-79970153D01*
X142726389Y-79893565D01*
X142665136Y-79798569D01*
X142621978Y-79702084D01*
X142593434Y-79643457D01*
X142530340Y-79588059D01*
X142516877Y-79580811D01*
X142500474Y-79570593D01*
X142693875Y-79570593D01*
X142710138Y-79637345D01*
X142739805Y-79714531D01*
X142777839Y-79789187D01*
X142819202Y-79848348D01*
X142834430Y-79864647D01*
X142904327Y-79913509D01*
X142973600Y-79920890D01*
X143040666Y-79887470D01*
X143103940Y-79813932D01*
X143161836Y-79700957D01*
X143190837Y-79607081D01*
X143189045Y-79538767D01*
X143155559Y-79498358D01*
X143128239Y-79486481D01*
X143052194Y-79468768D01*
X142963094Y-79461969D01*
X142871891Y-79465352D01*
X142789539Y-79478181D01*
X142726990Y-79499722D01*
X142695198Y-79529239D01*
X142693875Y-79570593D01*
X142500474Y-79570593D01*
X142453406Y-79541273D01*
X142389846Y-79495501D01*
X142314275Y-79436135D01*
X142284821Y-79495457D01*
X142254460Y-79556609D01*
X142234056Y-79599319D01*
X142213235Y-79653892D01*
X142202018Y-79709367D01*
X142198022Y-79779529D01*
X142198862Y-79878167D01*
X142195909Y-79936716D01*
X142188936Y-80075011D01*
X142145427Y-80267179D01*
X142067913Y-80434476D01*
X142019018Y-80514535D01*
X141744126Y-80514535D01*
X141834719Y-80414553D01*
X141923117Y-80266067D01*
X141980994Y-80104198D01*
X142004806Y-79936716D01*
X141991009Y-79771389D01*
X141972593Y-79689541D01*
X141953839Y-79638693D01*
X141928526Y-79618642D01*
X141889318Y-79623838D01*
X141828877Y-79648731D01*
X141799801Y-79660566D01*
X141667511Y-79694217D01*
X141518202Y-79707147D01*
X141368023Y-79698815D01*
X141233126Y-79668680D01*
X141232877Y-79668596D01*
X141137776Y-79639118D01*
X141072672Y-79626580D01*
X141029093Y-79630293D01*
X140998567Y-79649566D01*
X140990550Y-79673639D01*
X140983190Y-79734264D01*
X140977778Y-79822910D01*
X140974333Y-79931962D01*
X140972877Y-80053810D01*
X140891885Y-80053810D01*
X140884948Y-79613583D01*
X140937145Y-79564613D01*
X140986126Y-79530775D01*
X141050334Y-79516558D01*
X141133157Y-79526449D01*
X141242766Y-79560333D01*
X141258884Y-79565930D01*
X141394515Y-79595508D01*
X141538842Y-79601077D01*
X141677020Y-79583129D01*
X141794208Y-79542152D01*
X141884999Y-79495457D01*
X141840795Y-79433378D01*
X141809665Y-79394789D01*
X141723276Y-79312421D01*
X141618792Y-79235156D01*
X141511231Y-79174780D01*
X141502127Y-79170647D01*
X141443733Y-79148504D01*
X141381735Y-79135113D01*
X141303255Y-79128514D01*
X141195417Y-79126750D01*
X141138171Y-79127069D01*
X141050187Y-79130439D01*
X140984115Y-79139365D01*
X140926435Y-79156141D01*
X140863626Y-79183062D01*
X140843622Y-79192731D01*
X140685192Y-79294232D01*
X140556129Y-79425899D01*
X140456896Y-79587000D01*
X140387954Y-79776805D01*
X140349766Y-79994583D01*
X140346386Y-80092115D01*
X140019318Y-80092115D01*
X139942256Y-79819285D01*
X139865226Y-79509566D01*
X139799945Y-79206326D01*
X139748829Y-78920015D01*
X139714300Y-78661083D01*
X139708143Y-78603290D01*
X139697996Y-78526949D01*
X139685506Y-78481167D01*
X140042737Y-78481167D01*
X140046094Y-78512494D01*
X140056608Y-78579910D01*
X140072915Y-78674572D01*
X140093616Y-78789012D01*
X140117315Y-78915767D01*
X140142613Y-79047371D01*
X140168112Y-79176359D01*
X140192416Y-79295265D01*
X140214126Y-79396625D01*
X140231674Y-79465492D01*
X140250395Y-79508981D01*
X140267847Y-79512336D01*
X140285032Y-79476687D01*
X140317793Y-79410158D01*
X140376398Y-79327628D01*
X140451217Y-79241161D01*
X140533083Y-79161328D01*
X140612830Y-79098698D01*
X140779543Y-79008645D01*
X140964825Y-78949830D01*
X141155199Y-78926518D01*
X141344854Y-78937807D01*
X141527978Y-78982795D01*
X141698761Y-79060580D01*
X141851390Y-79170259D01*
X141980053Y-79310931D01*
X141986854Y-79320149D01*
X142032263Y-79379205D01*
X142060867Y-79408444D01*
X142078846Y-79412557D01*
X142092376Y-79396237D01*
X142096055Y-79387678D01*
X142097441Y-79351994D01*
X142080517Y-79298165D01*
X142042887Y-79217528D01*
X142023635Y-79177199D01*
X141958612Y-78985575D01*
X141932952Y-78791462D01*
X141934490Y-78766917D01*
X142147917Y-78766917D01*
X142148236Y-78824162D01*
X142151606Y-78912146D01*
X142160532Y-78978219D01*
X142177308Y-79035899D01*
X142204229Y-79098707D01*
X142241409Y-79167481D01*
X142321977Y-79280989D01*
X142415885Y-79382181D01*
X142510914Y-79456789D01*
X142583028Y-79501357D01*
X142624611Y-79448493D01*
X142624729Y-79448343D01*
X142685094Y-79401978D01*
X142776925Y-79369701D01*
X142891096Y-79353654D01*
X143018483Y-79355981D01*
X143083239Y-79364120D01*
X143154585Y-79378034D01*
X143200842Y-79393003D01*
X143235157Y-79415119D01*
X143280333Y-79457145D01*
X143286679Y-79464989D01*
X143308356Y-79484577D01*
X143333498Y-79481799D01*
X143378281Y-79456557D01*
X143441171Y-79412849D01*
X143556984Y-79299618D01*
X143651345Y-79162321D01*
X143719566Y-79010288D01*
X143756958Y-78852848D01*
X143758833Y-78699330D01*
X143745737Y-78615184D01*
X143700713Y-78465848D01*
X143625793Y-78332788D01*
X143515103Y-78204064D01*
X143449617Y-78143082D01*
X143320471Y-78051431D01*
X143180891Y-77992452D01*
X143018808Y-77960213D01*
X142873211Y-77959366D01*
X142710129Y-77994361D01*
X142554617Y-78063402D01*
X142413838Y-78162323D01*
X142294955Y-78286962D01*
X142205131Y-78433155D01*
X142189081Y-78468710D01*
X142167577Y-78527398D01*
X142155102Y-78587602D01*
X142149325Y-78662912D01*
X142147917Y-78766917D01*
X141934490Y-78766917D01*
X141944959Y-78599814D01*
X141992936Y-78415587D01*
X142075184Y-78243738D01*
X142190007Y-78089221D01*
X142335708Y-77956993D01*
X142510588Y-77852009D01*
X142560116Y-77828999D01*
X142634347Y-77798875D01*
X142701842Y-77780710D01*
X142778958Y-77770670D01*
X142882049Y-77764922D01*
X142964860Y-77762750D01*
X143061657Y-77765825D01*
X143144937Y-77777849D01*
X143231545Y-77800538D01*
X143248070Y-77805718D01*
X143436043Y-77887790D01*
X143600237Y-78004316D01*
X143738396Y-78153349D01*
X143848264Y-78332942D01*
X143849676Y-78335830D01*
X143881508Y-78402481D01*
X143902959Y-78455611D01*
X143916076Y-78506390D01*
X143922909Y-78565990D01*
X143925506Y-78645580D01*
X143925706Y-78699330D01*
X143925917Y-78756333D01*
X143925917Y-78763824D01*
X143925439Y-78872417D01*
X143922616Y-78950779D01*
X143915328Y-79010345D01*
X143901459Y-79062551D01*
X143878892Y-79118835D01*
X143845508Y-79190631D01*
X143765100Y-79360346D01*
X143837004Y-79518714D01*
X143839852Y-79525012D01*
X143880227Y-79618463D01*
X143918085Y-79712693D01*
X143945572Y-79788208D01*
X143961136Y-79834021D01*
X143978487Y-79881089D01*
X143987252Y-79899333D01*
X143993599Y-79886366D01*
X144009339Y-79842749D01*
X144030194Y-79779021D01*
X144030275Y-79778764D01*
X144059007Y-79697070D01*
X144097810Y-79598627D01*
X144138309Y-79504689D01*
X144208498Y-79350668D01*
X144147537Y-79238115D01*
X144112046Y-79166302D01*
X144048298Y-78976405D01*
X144028625Y-78822063D01*
X144241860Y-78822063D01*
X144272031Y-78989338D01*
X144337672Y-79147198D01*
X144435436Y-79289470D01*
X144561977Y-79409979D01*
X144713949Y-79502550D01*
X144748406Y-79518177D01*
X144834353Y-79550028D01*
X144919634Y-79567341D01*
X145025623Y-79575090D01*
X145094348Y-79575850D01*
X145203104Y-79568844D01*
X145285112Y-79552360D01*
X145428579Y-79489356D01*
X145575676Y-79386783D01*
X145698726Y-79257972D01*
X145789401Y-79110224D01*
X145840100Y-79000795D01*
X145719092Y-78967278D01*
X145666623Y-78951705D01*
X145597845Y-78928193D01*
X145552326Y-78908802D01*
X145541578Y-78902392D01*
X145478647Y-78848736D01*
X145414519Y-78773134D01*
X145360609Y-78690519D01*
X145328333Y-78615821D01*
X145304817Y-78528226D01*
X145212397Y-78567842D01*
X145190851Y-78576764D01*
X145002564Y-78629933D01*
X144809739Y-78642484D01*
X144618391Y-78614581D01*
X144434533Y-78546391D01*
X144368214Y-78516846D01*
X144316447Y-78499950D01*
X144290711Y-78499489D01*
X144280355Y-78522616D01*
X144265635Y-78576859D01*
X144251051Y-78648397D01*
X144250504Y-78651548D01*
X144241860Y-78822063D01*
X144028625Y-78822063D01*
X144023818Y-78784347D01*
X144037042Y-78594801D01*
X144086400Y-78412437D01*
X144117907Y-78348424D01*
X144363776Y-78348424D01*
X144383103Y-78374231D01*
X144430877Y-78410829D01*
X144496044Y-78448821D01*
X144553191Y-78476580D01*
X144606192Y-78496152D01*
X144662442Y-78507099D01*
X144734961Y-78511870D01*
X144836773Y-78512917D01*
X144921775Y-78512219D01*
X145000774Y-78508059D01*
X145061724Y-78497972D01*
X145118116Y-78479518D01*
X145183444Y-78450260D01*
X145251898Y-78420082D01*
X145315207Y-78404770D01*
X145359644Y-78419275D01*
X145394421Y-78467464D01*
X145428750Y-78553202D01*
X145486189Y-78672873D01*
X145567598Y-78770430D01*
X145665549Y-78833438D01*
X145732774Y-78853517D01*
X145801207Y-78862167D01*
X145868106Y-78862167D01*
X145858440Y-78695190D01*
X145839428Y-78560636D01*
X145780669Y-78394859D01*
X145685845Y-78248645D01*
X145557206Y-78125246D01*
X145397000Y-78027915D01*
X145341882Y-78002791D01*
X145282839Y-77981275D01*
X145223463Y-77969147D01*
X145149764Y-77963790D01*
X145047750Y-77962587D01*
X144968589Y-77963201D01*
X144889189Y-77967215D01*
X144828495Y-77977160D01*
X144772972Y-77995522D01*
X144709083Y-78024787D01*
X144701587Y-78028540D01*
X144625481Y-78074218D01*
X144547229Y-78132387D01*
X144474382Y-78195969D01*
X144414490Y-78257887D01*
X144375104Y-78311064D01*
X144363776Y-78348424D01*
X144117907Y-78348424D01*
X144170325Y-78241928D01*
X144287251Y-78087946D01*
X144435610Y-77955162D01*
X144455467Y-77943250D01*
X145528713Y-77943250D01*
X145528992Y-77944133D01*
X145549255Y-77969687D01*
X145593373Y-78011938D01*
X145652334Y-78062214D01*
X145770085Y-78157706D01*
X145827043Y-78108713D01*
X145850541Y-78090724D01*
X145945185Y-78049177D01*
X146051738Y-78039056D01*
X146160601Y-78057818D01*
X146262173Y-78102917D01*
X146346855Y-78171807D01*
X146405046Y-78261945D01*
X146406276Y-78264943D01*
X146429212Y-78359155D01*
X146431852Y-78463161D01*
X146413524Y-78553872D01*
X146401806Y-78593364D01*
X146409317Y-78604422D01*
X146439148Y-78583199D01*
X146493131Y-78529125D01*
X146501341Y-78520292D01*
X146584053Y-78407633D01*
X146630489Y-78285527D01*
X146645162Y-78142500D01*
X146641752Y-78078144D01*
X146607767Y-77935699D01*
X146541802Y-77809274D01*
X146449376Y-77703252D01*
X146336009Y-77622016D01*
X146207217Y-77569948D01*
X146068520Y-77551433D01*
X145925436Y-77570853D01*
X145888203Y-77583051D01*
X145772065Y-77642208D01*
X145666200Y-77724837D01*
X145586637Y-77819187D01*
X145561191Y-77862158D01*
X145536063Y-77913669D01*
X145528713Y-77943250D01*
X144455467Y-77943250D01*
X144613833Y-77848248D01*
X144648158Y-77831916D01*
X144712425Y-77803679D01*
X144767372Y-77786088D01*
X144825912Y-77776633D01*
X144900956Y-77772802D01*
X145005417Y-77772083D01*
X145081653Y-77772885D01*
X145175603Y-77776129D01*
X145250210Y-77781289D01*
X145293981Y-77787740D01*
X145323335Y-77793729D01*
X145352451Y-77783331D01*
X145375590Y-77740922D01*
X145401077Y-77696460D01*
X145463173Y-77623419D01*
X145545844Y-77548026D01*
X145638626Y-77479519D01*
X145731051Y-77427137D01*
X145731560Y-77426900D01*
X145800571Y-77398160D01*
X145865015Y-77381057D01*
X145940487Y-77372754D01*
X146042583Y-77370409D01*
X146058730Y-77370461D01*
X146224045Y-77384938D01*
X146365018Y-77427855D01*
X146491407Y-77503408D01*
X146612967Y-77615796D01*
X146666850Y-77678804D01*
X146753170Y-77816680D01*
X146802570Y-77965846D01*
X146818704Y-78135530D01*
X146818660Y-78142500D01*
X146818584Y-78154673D01*
X146796130Y-78336021D01*
X146735545Y-78499354D01*
X146637544Y-78643246D01*
X146502839Y-78766273D01*
X146482756Y-78780269D01*
X146385919Y-78827589D01*
X146298079Y-78840648D01*
X146224560Y-78823360D01*
X146170686Y-78779640D01*
X146141780Y-78713402D01*
X146143166Y-78628560D01*
X146180167Y-78529028D01*
X146198959Y-78492395D01*
X146218611Y-78437564D01*
X146216035Y-78391293D01*
X146192338Y-78336070D01*
X146149333Y-78282244D01*
X146084171Y-78242699D01*
X146013644Y-78228617D01*
X145951625Y-78245233D01*
X145942028Y-78256500D01*
X145939890Y-78286025D01*
X145951519Y-78338996D01*
X145978084Y-78423266D01*
X145990163Y-78461605D01*
X146029087Y-78665206D01*
X146027502Y-78862167D01*
X146027445Y-78869299D01*
X145999880Y-79000795D01*
X145985731Y-79068298D01*
X145904440Y-79256619D01*
X145892594Y-79278229D01*
X145865203Y-79335963D01*
X145858363Y-79372952D01*
X145869384Y-79400209D01*
X145882386Y-79413738D01*
X145901105Y-79413150D01*
X145928629Y-79387333D01*
X145972363Y-79331332D01*
X146058721Y-79230075D01*
X146204483Y-79107547D01*
X146382451Y-79006624D01*
X146388370Y-79003862D01*
X146468965Y-78969533D01*
X146540991Y-78948176D01*
X146621407Y-78935978D01*
X146727170Y-78929128D01*
X146829865Y-78927887D01*
X147009187Y-78946148D01*
X147168973Y-78993616D01*
X147318486Y-79072536D01*
X147417556Y-79146679D01*
X147523401Y-79246666D01*
X147614211Y-79353644D01*
X147678311Y-79455193D01*
X147720755Y-79540980D01*
X147754651Y-79386782D01*
X147779517Y-79266489D01*
X147807350Y-79117631D01*
X147834043Y-78961911D01*
X147857625Y-78811385D01*
X147876123Y-78678108D01*
X147887567Y-78574135D01*
X147891779Y-78522981D01*
X147894337Y-78465262D01*
X147888991Y-78433770D01*
X147873103Y-78418525D01*
X147844032Y-78409547D01*
X147782083Y-78388439D01*
X147664932Y-78321560D01*
X147551706Y-78225083D01*
X147450732Y-78106662D01*
X147370334Y-77973955D01*
X147347551Y-77924627D01*
X147329216Y-77871653D01*
X147318700Y-77813677D01*
X147313901Y-77738266D01*
X147312718Y-77632983D01*
X147312710Y-77618954D01*
X147705022Y-77618954D01*
X147720050Y-77742792D01*
X147767909Y-77858343D01*
X147847611Y-77958368D01*
X147958167Y-78035629D01*
X147958229Y-78035660D01*
X148089817Y-78080308D01*
X148223124Y-78085210D01*
X148350922Y-78051172D01*
X148465980Y-77978999D01*
X148551108Y-77885595D01*
X148611245Y-77767231D01*
X148634847Y-77640466D01*
X148621724Y-77512410D01*
X148571687Y-77390171D01*
X148484548Y-77280858D01*
X148461248Y-77260684D01*
X148369425Y-77203253D01*
X148265958Y-77162902D01*
X148169833Y-77147667D01*
X148141738Y-77149244D01*
X148041280Y-77173189D01*
X147939412Y-77219739D01*
X147855119Y-77280858D01*
X147777412Y-77375365D01*
X147723813Y-77494066D01*
X147705022Y-77618954D01*
X147312710Y-77618954D01*
X147312583Y-77409216D01*
X147122083Y-77328561D01*
X146847547Y-77218684D01*
X146314572Y-77039241D01*
X145763167Y-76896209D01*
X145196685Y-76790398D01*
X144618482Y-76722622D01*
X144597292Y-76720955D01*
X144451456Y-76713076D01*
X144276826Y-76708456D01*
X144082289Y-76706927D01*
X143876729Y-76708322D01*
X143669033Y-76712471D01*
X143468085Y-76719209D01*
X143282770Y-76728366D01*
X143121974Y-76739776D01*
X142994583Y-76753271D01*
X142445546Y-76842836D01*
X141904875Y-76965154D01*
X141381171Y-77119982D01*
X140867333Y-77309176D01*
X140623917Y-77407727D01*
X140623917Y-77624844D01*
X140623917Y-77632238D01*
X140622939Y-77735439D01*
X140618479Y-77810642D01*
X140608301Y-77868656D01*
X140590171Y-77922139D01*
X140561854Y-77983750D01*
X140505181Y-78079580D01*
X140404268Y-78201402D01*
X140285907Y-78304235D01*
X140161773Y-78376614D01*
X140127150Y-78392106D01*
X140074318Y-78421096D01*
X140049105Y-78448214D01*
X140042737Y-78481167D01*
X139685506Y-78481167D01*
X139684970Y-78479201D01*
X139664224Y-78451369D01*
X139630917Y-78434777D01*
X139580207Y-78420747D01*
X139525840Y-78403716D01*
X139387839Y-78333585D01*
X139259193Y-78231466D01*
X139148231Y-78104767D01*
X139063280Y-77960897D01*
X139049918Y-77930139D01*
X139032263Y-77876270D01*
X139021706Y-77815035D01*
X139016588Y-77734797D01*
X139015250Y-77623917D01*
X139015259Y-77622318D01*
X139369631Y-77622318D01*
X139387355Y-77756945D01*
X139391093Y-77769152D01*
X139439269Y-77864327D01*
X139513938Y-77955112D01*
X139603171Y-78029202D01*
X139695039Y-78074294D01*
X139703483Y-78076754D01*
X139821482Y-78097931D01*
X139929118Y-78086853D01*
X140043199Y-78041958D01*
X140067361Y-78028946D01*
X140173697Y-77947858D01*
X140247335Y-77849412D01*
X140289733Y-77739708D01*
X140302349Y-77624844D01*
X140286643Y-77510919D01*
X140244074Y-77404032D01*
X140176100Y-77310281D01*
X140084180Y-77235765D01*
X139969774Y-77186582D01*
X139834339Y-77168833D01*
X139756507Y-77175092D01*
X139630904Y-77214455D01*
X139524863Y-77284848D01*
X139442936Y-77380281D01*
X139389675Y-77494768D01*
X139369631Y-77622318D01*
X139015259Y-77622318D01*
X139015618Y-77558346D01*
X139018833Y-77465786D01*
X139026743Y-77397456D01*
X139041005Y-77341719D01*
X139063280Y-77286936D01*
X139132068Y-77163431D01*
X139251486Y-77021473D01*
X139400260Y-76909936D01*
X139577922Y-76829236D01*
X139735370Y-76793810D01*
X139911587Y-76791805D01*
X140084466Y-76826262D01*
X140245582Y-76895426D01*
X140386511Y-76997545D01*
X140480358Y-77084050D01*
X140705881Y-76989564D01*
X140907752Y-76908123D01*
X141463828Y-76714674D01*
X142033101Y-76560280D01*
X142612532Y-76445264D01*
X143199085Y-76369951D01*
X143789721Y-76334664D01*
X144381403Y-76339728D01*
X144971092Y-76385467D01*
X145555750Y-76472206D01*
X145573386Y-76475489D01*
X145913604Y-76547990D01*
X146269802Y-76639723D01*
X146627414Y-76746360D01*
X146971872Y-76863574D01*
X147288607Y-76987035D01*
X147518631Y-77083626D01*
X147623006Y-76989784D01*
X147624700Y-76988266D01*
X147767578Y-76887010D01*
X147924464Y-76821871D01*
X148089572Y-76791598D01*
X148257119Y-76794941D01*
X148421319Y-76830650D01*
X148576389Y-76897473D01*
X148716544Y-76994161D01*
X148836000Y-77119462D01*
X148928973Y-77272126D01*
X148952042Y-77324824D01*
X148969229Y-77378483D01*
X148979131Y-77438153D01*
X148983665Y-77515931D01*
X148984750Y-77623917D01*
X148984738Y-77640466D01*
X148984737Y-77641985D01*
G36*
X148984737Y-77641985D02*
G01*
X148983501Y-77742784D01*
X148978763Y-77815197D01*
X148968421Y-77871359D01*
X148950376Y-77923408D01*
X148922528Y-77983480D01*
X148888865Y-78043091D01*
X148825170Y-78134561D01*
X148758694Y-78211822D01*
X148738973Y-78230408D01*
X148665209Y-78288475D01*
X148578686Y-78344704D01*
X148490693Y-78392740D01*
X148412517Y-78426228D01*
X148355445Y-78438816D01*
X148337573Y-78441987D01*
X148320973Y-78458540D01*
X148318685Y-78465262D01*
X148308297Y-78495786D01*
X148297291Y-78560906D01*
X148285701Y-78661083D01*
X148265591Y-78824233D01*
X148218115Y-79114609D01*
X148154613Y-79425321D01*
X148110275Y-79609618D01*
X148077509Y-79745816D01*
X148024256Y-79938678D01*
X147989227Y-80065543D01*
X147892191Y-80373950D01*
X147891660Y-80375530D01*
X147852145Y-80496409D01*
X147818767Y-80604847D01*
X147793479Y-80693963D01*
X147778236Y-80756874D01*
X147774992Y-80786700D01*
X147778206Y-80796656D01*
X147794180Y-80844138D01*
X147818661Y-80915674D01*
X147847805Y-81000000D01*
X147893065Y-81141226D01*
X147937519Y-81319979D01*
X147966870Y-81503041D01*
X147982967Y-81702722D01*
X147987224Y-81910167D01*
X147987658Y-81931333D01*
X147983058Y-82152896D01*
X147969159Y-82345101D01*
X147945861Y-82497957D01*
X147913052Y-82612473D01*
X147892505Y-82647213D01*
X147849865Y-82683502D01*
X147781986Y-82717338D01*
X147683294Y-82751410D01*
X147548215Y-82788404D01*
X147466014Y-82808384D01*
X147452854Y-82810931D01*
X147234367Y-82853218D01*
X147010788Y-82876981D01*
X146775313Y-82882093D01*
X146534377Y-82878785D01*
X146356374Y-83093832D01*
X146133399Y-83349601D01*
X145863951Y-83630949D01*
X145577840Y-83904540D01*
X145286032Y-84159928D01*
X144999492Y-84386667D01*
X144951333Y-84422752D01*
X144877832Y-84479626D01*
X144831153Y-84520158D01*
X144806164Y-84549810D01*
X144797734Y-84574047D01*
X144800734Y-84598333D01*
X144804331Y-84618816D01*
X144809676Y-84681092D01*
X144813261Y-84766526D01*
X144814298Y-84850199D01*
X144814455Y-84862917D01*
X144813816Y-84933436D01*
X144809897Y-85016123D01*
X144800277Y-85078685D01*
X144782531Y-85134587D01*
X144754234Y-85197296D01*
X144725158Y-85251155D01*
X144619431Y-85391996D01*
X144485608Y-85510928D01*
X144332363Y-85601160D01*
X144168375Y-85655900D01*
X144005036Y-85672143D01*
X143831279Y-85652192D01*
X143665723Y-85596816D01*
X143514362Y-85509531D01*
X143383190Y-85393852D01*
X143278204Y-85253291D01*
X143205399Y-85091365D01*
X143191309Y-85024767D01*
X143181855Y-84930995D01*
X143179285Y-84860191D01*
X143536316Y-84860191D01*
X143554529Y-84974941D01*
X143602516Y-85083367D01*
X143681713Y-85179366D01*
X143793557Y-85256834D01*
X143920664Y-85301606D01*
X144052194Y-85306950D01*
X144179398Y-85271486D01*
X144297338Y-85195812D01*
X144307941Y-85186493D01*
X144395050Y-85083460D01*
X144446547Y-84969292D01*
X144464695Y-84850199D01*
X144451758Y-84732390D01*
X144409998Y-84622076D01*
X144341679Y-84525467D01*
X144249065Y-84448771D01*
X144134417Y-84398200D01*
X144000000Y-84379963D01*
X143971804Y-84380694D01*
X143841554Y-84405210D01*
X143732456Y-84460025D01*
X143645946Y-84539034D01*
X143583461Y-84636134D01*
X143546439Y-84745221D01*
X143536316Y-84860191D01*
X143179285Y-84860191D01*
X143178047Y-84826091D01*
X143179987Y-84723313D01*
X143187775Y-84635919D01*
X143201510Y-84577167D01*
X143201766Y-84576499D01*
X143194672Y-84552518D01*
X143159559Y-84513523D01*
X143093810Y-84457024D01*
X142994808Y-84380531D01*
X142924496Y-84327077D01*
X142587411Y-84050752D01*
X142254035Y-83745631D01*
X141935187Y-83422032D01*
X141641685Y-83090271D01*
X141465433Y-82878935D01*
X141214008Y-82881775D01*
X141131219Y-82881427D01*
X140956941Y-82873095D01*
X140783685Y-82855590D01*
X140617353Y-82830229D01*
X140537599Y-82813658D01*
X141906766Y-82813658D01*
X141908042Y-82818505D01*
X141928760Y-82848372D01*
X141969069Y-82898863D01*
X142023183Y-82962577D01*
X142198706Y-83157752D01*
X142517604Y-83483695D01*
X142848065Y-83787645D01*
X143179867Y-84059903D01*
X143411908Y-84238434D01*
X143492605Y-84174521D01*
X143562450Y-84124080D01*
X143680160Y-84063076D01*
X143811077Y-84026789D01*
X143968250Y-84010727D01*
X144037976Y-84008658D01*
X144129677Y-84011323D01*
X144205792Y-84023190D01*
X144282717Y-84046106D01*
X144333506Y-84066373D01*
X144427422Y-84112759D01*
X144507663Y-84162153D01*
X144608642Y-84234700D01*
X144838779Y-84056008D01*
X145083667Y-83856869D01*
X145361098Y-83611496D01*
X145628751Y-83354812D01*
X145871904Y-83100435D01*
X146134993Y-82810931D01*
X145963833Y-82755317D01*
X145902200Y-82734266D01*
X145822804Y-82699919D01*
X145771002Y-82662025D01*
X145737946Y-82613140D01*
X145714786Y-82545821D01*
X145707606Y-82516228D01*
X145688192Y-82406586D01*
X145671965Y-82272592D01*
X145660102Y-82127613D01*
X145653781Y-81985016D01*
X145654160Y-81864467D01*
X145832189Y-81864467D01*
X145834700Y-82072968D01*
X145851031Y-82277805D01*
X145880232Y-82460500D01*
X145883159Y-82472830D01*
X145896709Y-82506244D01*
X145921459Y-82533214D01*
X145963498Y-82556547D01*
X146028917Y-82579046D01*
X146123804Y-82603517D01*
X146254250Y-82632765D01*
X146349139Y-82650072D01*
X146520587Y-82670341D01*
X146708112Y-82682057D01*
X146897428Y-82684794D01*
X147074246Y-82678127D01*
X147224279Y-82661632D01*
X147330666Y-82642454D01*
X147450730Y-82617026D01*
X147560591Y-82590102D01*
X147649696Y-82564289D01*
X147707494Y-82542196D01*
X147727398Y-82520795D01*
X147751327Y-82458210D01*
X147770830Y-82361301D01*
X147785267Y-82234622D01*
X147793998Y-82082726D01*
X147796382Y-81910167D01*
X147795611Y-81848789D01*
X147783982Y-81629093D01*
X147756545Y-81426351D01*
X147710575Y-81228113D01*
X147643342Y-81021934D01*
X147552121Y-80795363D01*
X147468249Y-80601310D01*
X147349270Y-80684656D01*
X147185436Y-80775516D01*
X147004758Y-80831538D01*
X146817210Y-80850508D01*
X146629623Y-80832422D01*
X146448830Y-80777278D01*
X146281661Y-80685074D01*
X146163279Y-80602147D01*
X146098929Y-80742865D01*
X146069531Y-80808479D01*
X145981127Y-81030337D01*
X145916517Y-81242437D01*
X145871342Y-81461003D01*
X145841245Y-81702261D01*
X145832189Y-81864467D01*
X145654160Y-81864467D01*
X145654180Y-81858166D01*
X145654805Y-81840745D01*
X145657316Y-81752881D01*
X145656351Y-81698778D01*
X145650574Y-81671068D01*
X145638652Y-81662384D01*
X145619250Y-81665360D01*
X145580599Y-81672497D01*
X145520050Y-81677044D01*
X145463183Y-81677333D01*
X145456550Y-82201208D01*
X145454348Y-82359788D01*
X145451837Y-82488274D01*
X145448610Y-82585757D01*
X145444170Y-82658006D01*
X145438026Y-82710788D01*
X145429682Y-82749873D01*
X145418644Y-82781030D01*
X145404420Y-82810027D01*
X145384552Y-82844505D01*
X145284010Y-82967593D01*
X145153861Y-83060586D01*
X145140724Y-83067436D01*
X145119593Y-83076857D01*
X145094737Y-83084658D01*
X145062293Y-83091022D01*
X145018403Y-83096132D01*
X144959204Y-83100171D01*
X144880837Y-83103322D01*
X144779441Y-83105768D01*
X144651154Y-83107692D01*
X144492117Y-83109278D01*
X144298468Y-83110708D01*
X144066347Y-83112166D01*
X143974195Y-83112714D01*
X143738739Y-83113864D01*
X143540467Y-83114120D01*
X143375566Y-83113113D01*
X143240225Y-83110477D01*
X143130633Y-83105843D01*
X143042978Y-83098844D01*
X142973450Y-83089112D01*
X142918237Y-83076280D01*
X142873528Y-83059981D01*
X142835512Y-83039847D01*
X142800376Y-83015509D01*
X142764311Y-82986602D01*
X142736155Y-82959963D01*
X142677721Y-82887889D01*
X142632226Y-82811250D01*
X142630809Y-82808200D01*
X142615311Y-82772841D01*
X142603511Y-82738209D01*
X142594903Y-82698153D01*
X142588982Y-82646521D01*
X142585241Y-82577162D01*
X142583175Y-82483925D01*
X142582277Y-82360657D01*
X142582040Y-82201208D01*
X142581718Y-82106641D01*
X142580242Y-81975137D01*
X142577742Y-81862650D01*
X142574404Y-81775008D01*
X142570414Y-81718041D01*
X142565958Y-81697578D01*
X142559631Y-81696865D01*
X142519991Y-81690361D01*
X142461624Y-81679528D01*
X142373165Y-81662399D01*
X142372508Y-81950324D01*
X142370415Y-82065251D01*
X142370241Y-82074845D01*
X142360353Y-82243356D01*
X142343458Y-82392479D01*
X142320455Y-82516512D01*
X142292240Y-82609753D01*
X142259713Y-82666501D01*
X142258836Y-82667415D01*
X142215150Y-82697814D01*
X142145624Y-82731446D01*
X142064896Y-82761197D01*
X142053780Y-82764677D01*
X141982153Y-82787536D01*
X141929580Y-82805047D01*
X141906766Y-82813658D01*
X140537599Y-82813658D01*
X140463847Y-82798334D01*
X140329067Y-82761224D01*
X140218916Y-82720219D01*
X140139295Y-82676638D01*
X140096105Y-82631800D01*
X140071321Y-82566725D01*
X140045797Y-82450952D01*
X140027018Y-82301597D01*
X140015535Y-82123312D01*
X140011899Y-81920750D01*
X140012009Y-81901091D01*
X140193801Y-81901091D01*
X140194408Y-81999156D01*
X140202084Y-82105937D01*
X140217155Y-82237887D01*
X140217291Y-82238968D01*
X140235002Y-82366089D01*
X140251625Y-82455309D01*
X140268154Y-82510977D01*
X140285584Y-82537444D01*
X140291096Y-82540913D01*
X140338781Y-82560241D01*
X140416497Y-82583704D01*
X140514640Y-82608953D01*
X140623605Y-82633639D01*
X140733787Y-82655414D01*
X140835583Y-82671929D01*
X140979215Y-82686038D01*
X141209959Y-82690164D01*
X141452326Y-82675722D01*
X141691195Y-82643789D01*
X141911446Y-82595437D01*
X141953882Y-82583800D01*
X142029865Y-82560376D01*
X142077223Y-82536074D01*
X142104510Y-82502247D01*
X142120283Y-82450247D01*
X142133099Y-82371427D01*
X142164695Y-82065251D01*
X142163788Y-81752813D01*
X142126084Y-81448386D01*
X142050617Y-81144401D01*
X141936417Y-80833289D01*
X141838366Y-80600995D01*
X141719162Y-80684498D01*
X141703212Y-80695381D01*
X141544281Y-80779039D01*
X141369470Y-80832819D01*
X141194126Y-80851833D01*
X141059711Y-80851833D01*
X141091206Y-80941098D01*
X141099856Y-80964002D01*
X141135906Y-81045075D01*
X141176300Y-81121823D01*
X141179905Y-81128062D01*
X141216692Y-81214530D01*
X141216886Y-81280353D01*
X141180480Y-81325221D01*
X141175576Y-81327912D01*
X141121511Y-81333181D01*
X141045398Y-81312702D01*
X140953770Y-81270663D01*
X140853157Y-81211249D01*
X140750091Y-81138647D01*
X140651104Y-81057045D01*
X140562727Y-80970628D01*
X140491491Y-80883583D01*
X140446808Y-80820083D01*
X140390156Y-80947083D01*
X140378576Y-80974002D01*
X140322856Y-81131548D01*
X140273720Y-81316495D01*
X140234103Y-81516476D01*
X140206940Y-81719124D01*
X140199941Y-81795288D01*
X140193801Y-81901091D01*
X140012009Y-81901091D01*
X140012160Y-81874270D01*
X140018099Y-81677901D01*
X140033556Y-81505226D01*
X140060891Y-81341320D01*
X140102464Y-81171261D01*
X140160635Y-80980125D01*
X140235394Y-80750425D01*
X140117760Y-80404254D01*
X140028616Y-80125034D01*
X140019318Y-80092115D01*
X140346386Y-80092115D01*
X140360421Y-80254212D01*
X140394599Y-80419750D01*
X140445865Y-80570433D01*
X140450301Y-80580545D01*
X140514541Y-80699212D01*
X140599862Y-80822633D01*
X140694916Y-80935791D01*
X140788353Y-81023667D01*
X140845256Y-81065416D01*
X140913682Y-81110334D01*
X140982139Y-81151278D01*
X141041875Y-81183281D01*
X141084135Y-81201376D01*
X141100167Y-81200596D01*
X141099080Y-81195727D01*
X141085140Y-81161817D01*
X141060275Y-81110282D01*
X141053880Y-81097028D01*
X141025999Y-81031010D01*
X140993097Y-80944217D01*
X140961005Y-80851833D01*
X140954635Y-80832432D01*
X140937609Y-80777877D01*
X140924528Y-80727592D01*
X140914757Y-80674920D01*
X140907659Y-80613203D01*
X140902599Y-80535785D01*
X140898941Y-80436008D01*
X140896049Y-80307216D01*
X140893287Y-80142750D01*
X140891885Y-80053810D01*
X140972877Y-80053810D01*
X140973428Y-80180839D01*
X140976006Y-80305436D01*
X140980633Y-80419991D01*
X140987326Y-80516888D01*
X140996107Y-80588517D01*
X140996537Y-80590980D01*
X141010606Y-80662405D01*
X141025496Y-80702815D01*
X141047627Y-80722844D01*
X141083420Y-80733125D01*
X141178749Y-80742326D01*
X141320800Y-80729655D01*
X141465962Y-80691081D01*
X141599544Y-80629553D01*
X141719344Y-80541886D01*
X141744126Y-80514535D01*
X142019018Y-80514535D01*
X142088441Y-80656726D01*
X142109680Y-80702073D01*
X142170121Y-80848593D01*
X142228095Y-81011674D01*
X142277544Y-81173476D01*
X142312409Y-81316160D01*
X142324239Y-81370631D01*
X142341199Y-81424099D01*
X142361987Y-81452535D01*
X142392016Y-81466139D01*
X142446577Y-81479243D01*
X142513042Y-81493409D01*
X142581833Y-81506942D01*
X142581833Y-81083457D01*
X142581994Y-80996758D01*
X142583699Y-80855154D01*
X142588261Y-80745582D01*
X142592933Y-80699926D01*
X142931083Y-80699926D01*
X142931083Y-82675907D01*
X142981053Y-82716370D01*
X142982692Y-82717681D01*
X142996464Y-82726990D01*
X143014582Y-82734697D01*
X143040844Y-82740952D01*
X143079050Y-82745906D01*
X143132998Y-82749710D01*
X143206487Y-82752515D01*
X143303315Y-82754472D01*
X143427282Y-82755731D01*
X143582186Y-82756444D01*
X143771826Y-82756761D01*
X144000000Y-82756833D01*
X144031404Y-82756832D01*
X144254448Y-82756737D01*
X144439442Y-82756378D01*
X144590186Y-82755604D01*
X144710477Y-82754264D01*
X144804115Y-82752208D01*
X144874898Y-82749283D01*
X144926625Y-82745341D01*
X144963094Y-82740229D01*
X144988105Y-82733797D01*
X145005457Y-82725895D01*
X145018947Y-82716370D01*
X145068917Y-82675907D01*
X145068917Y-80699926D01*
X145018947Y-80659463D01*
X145017308Y-80658152D01*
X145003536Y-80648843D01*
X144985419Y-80641136D01*
X144959156Y-80634881D01*
X144920951Y-80629927D01*
X144867003Y-80626123D01*
X144793514Y-80623318D01*
X144696685Y-80621361D01*
X144572718Y-80620102D01*
X144417814Y-80619389D01*
X144228174Y-80619072D01*
X144000000Y-80619000D01*
X143968596Y-80619001D01*
X143745552Y-80619096D01*
X143560558Y-80619455D01*
X143409815Y-80620229D01*
X143289524Y-80621569D01*
X143195886Y-80623625D01*
X143125103Y-80626550D01*
X143073376Y-80630492D01*
X143036906Y-80635604D01*
X143011895Y-80642036D01*
X142994544Y-80649938D01*
X142981053Y-80659463D01*
X142931083Y-80699926D01*
X142592933Y-80699926D01*
X142596893Y-80661227D01*
X142610806Y-80595274D01*
X142631213Y-80540909D01*
X142659327Y-80491316D01*
X142696360Y-80439680D01*
X142725548Y-80408556D01*
X142788396Y-80357454D01*
X142859747Y-80311649D01*
X142973417Y-80248800D01*
X143433792Y-80241327D01*
X143491608Y-80240288D01*
X143620327Y-80237203D01*
X143731018Y-80233479D01*
X143817606Y-80229384D01*
X143874014Y-80225184D01*
X143894167Y-80221144D01*
X143893842Y-80219201D01*
X144127000Y-80219201D01*
X144127134Y-80221144D01*
X144127542Y-80227097D01*
X144133322Y-80238421D01*
X144149773Y-80246722D01*
X144182173Y-80252471D01*
X144235797Y-80256139D01*
X144315924Y-80258198D01*
X144427830Y-80259119D01*
X144576792Y-80259373D01*
X144664794Y-80259469D01*
X144794392Y-80260145D01*
X144891983Y-80261982D01*
X144964213Y-80265582D01*
X145017726Y-80271543D01*
X145059168Y-80280469D01*
X145095183Y-80292958D01*
X145132417Y-80309613D01*
X145225114Y-80362965D01*
X145322468Y-80454638D01*
X145395288Y-80576667D01*
X145406948Y-80604422D01*
X145418987Y-80642751D01*
X145427558Y-80688921D01*
X145428586Y-80699926D01*
X145433246Y-80749828D01*
X145436637Y-80832371D01*
X145438316Y-80943449D01*
X145438869Y-81089958D01*
X145439237Y-81192011D01*
X145440888Y-81316975D01*
X145444095Y-81406597D01*
X145449132Y-81465110D01*
X145456273Y-81496745D01*
X145465792Y-81505733D01*
X145474549Y-81504633D01*
X145520456Y-81496350D01*
X145582113Y-81483340D01*
X145631410Y-81469459D01*
X145667815Y-81445560D01*
X145684448Y-81406231D01*
X145689616Y-81382891D01*
X145764135Y-81094190D01*
X145850948Y-80837229D01*
X145948450Y-80616811D01*
X145990851Y-80533699D01*
X145871516Y-80288275D01*
X145856541Y-80256504D01*
X146070367Y-80256504D01*
X146109392Y-80325907D01*
X146124790Y-80351750D01*
X146225852Y-80477522D01*
X146293222Y-80533699D01*
X146356083Y-80586117D01*
X146505158Y-80670142D01*
X146662750Y-80722200D01*
X146698569Y-80729369D01*
X146808520Y-80742791D01*
X146910195Y-80737235D01*
X147026320Y-80712068D01*
X147178684Y-80654478D01*
X147331416Y-80555484D01*
X147460355Y-80423032D01*
X147562470Y-80259679D01*
X147573780Y-80236429D01*
X147603607Y-80167493D01*
X147620606Y-80105918D01*
X147628259Y-80035160D01*
X147630050Y-79938678D01*
X147629842Y-79903579D01*
X147627655Y-79825118D01*
X147623590Y-79768078D01*
X147618276Y-79742914D01*
X147605382Y-79742471D01*
X147559054Y-79752036D01*
X147488028Y-79771536D01*
X147401317Y-79798654D01*
X147196167Y-79866229D01*
X147196167Y-79923961D01*
X147196167Y-79939598D01*
X147195571Y-79960422D01*
X147170966Y-80070056D01*
X147115581Y-80161627D01*
X147036743Y-80232423D01*
X146941774Y-80279732D01*
X146837999Y-80300845D01*
X146732743Y-80293048D01*
X146633330Y-80253631D01*
X146547085Y-80179882D01*
X146501253Y-80125386D01*
X146436498Y-80179874D01*
X146354228Y-80234016D01*
X146247969Y-80269818D01*
X146145054Y-80270516D01*
X146070367Y-80256504D01*
X145856541Y-80256504D01*
X145818186Y-80175128D01*
X145774664Y-80069926D01*
X145749500Y-79985101D01*
X145741752Y-79918787D01*
X145947333Y-79918787D01*
X145949910Y-79961632D01*
X145969515Y-80019288D01*
X146016125Y-80078055D01*
X146098536Y-80141466D01*
X146186263Y-80164037D01*
X146277212Y-80144667D01*
X146288656Y-80139343D01*
X146367783Y-80081170D01*
X146417787Y-80004283D01*
X146431681Y-79939999D01*
X146559746Y-79939999D01*
X146584392Y-80032389D01*
X146639989Y-80111347D01*
X146722791Y-80166481D01*
X146751341Y-80177958D01*
X146807356Y-80192958D01*
X146856291Y-80186788D01*
X146919496Y-80158592D01*
X146998944Y-80103422D01*
X147055095Y-80022467D01*
X147073037Y-79923961D01*
X147068550Y-79877437D01*
X147035187Y-79790340D01*
X146976301Y-79724846D01*
X146900199Y-79683130D01*
X146815191Y-79667365D01*
X146729583Y-79679725D01*
X146651684Y-79722384D01*
X146589802Y-79797516D01*
X146569797Y-79844571D01*
X146562063Y-79917997D01*
X146559746Y-79939999D01*
X146431681Y-79939999D01*
X146436436Y-79917997D01*
X146421496Y-79831628D01*
X146370736Y-79754492D01*
X146301025Y-79701367D01*
X146207745Y-79673673D01*
X146106513Y-79687525D01*
X146097700Y-79690623D01*
X146017519Y-79741495D01*
X145965719Y-79819987D01*
X145947333Y-79918787D01*
X145741752Y-79918787D01*
X145740961Y-79912021D01*
X145747316Y-79842052D01*
X145766831Y-79766562D01*
X145767771Y-79763570D01*
X145786983Y-79697738D01*
X145792067Y-79653553D01*
X145782108Y-79613075D01*
X145756188Y-79558367D01*
X145749268Y-79544792D01*
X146096030Y-79544792D01*
X146100586Y-79549681D01*
X146134977Y-79557558D01*
X146192142Y-79560667D01*
X146196934Y-79560681D01*
X146287735Y-79569937D01*
X146362520Y-79601371D01*
X146439458Y-79662463D01*
X146497667Y-79716753D01*
X146555875Y-79661223D01*
X146573847Y-79645193D01*
X146674764Y-79585668D01*
X146786981Y-79560285D01*
X146900879Y-79568624D01*
X147006840Y-79610265D01*
X147095247Y-79684788D01*
X147107746Y-79698834D01*
X147148782Y-79735340D01*
X147178925Y-79748836D01*
X147204145Y-79745137D01*
X147267527Y-79729540D01*
X147343135Y-79705933D01*
X147420377Y-79678228D01*
X147488662Y-79650333D01*
X147537401Y-79626160D01*
X147556000Y-79609618D01*
X147555205Y-79598949D01*
X147531499Y-79537296D01*
X147480189Y-79462901D01*
X147408491Y-79383170D01*
X147323624Y-79305510D01*
X147232805Y-79237329D01*
X147143250Y-79186032D01*
X147116113Y-79173661D01*
X147052901Y-79149158D01*
X146991459Y-79134941D01*
X146917107Y-79128355D01*
X146815167Y-79126750D01*
X146776674Y-79126903D01*
X146685423Y-79129936D01*
X146617002Y-79138841D01*
X146556879Y-79156211D01*
X146490523Y-79184635D01*
X146432776Y-79213873D01*
X146356587Y-79258202D01*
X146300023Y-79297656D01*
X146292827Y-79303757D01*
X146245236Y-79349907D01*
X146193202Y-79407453D01*
X146145284Y-79466029D01*
X146110041Y-79515264D01*
X146096030Y-79544792D01*
X145749268Y-79544792D01*
X145739922Y-79526458D01*
X145715270Y-79479626D01*
X145702705Y-79457987D01*
X145698603Y-79457908D01*
X145670008Y-79473103D01*
X145625039Y-79504770D01*
X145586454Y-79531927D01*
X145460063Y-79601060D01*
X145319444Y-79655828D01*
X145185117Y-79687697D01*
X145095450Y-79695348D01*
X144925734Y-79685731D01*
X144759496Y-79648017D01*
X144608201Y-79585263D01*
X144483311Y-79500527D01*
X144407975Y-79434381D01*
X144321440Y-79620629D01*
X144308923Y-79648270D01*
X144266694Y-79750400D01*
X144224953Y-79862899D01*
X144186908Y-79975898D01*
X144155763Y-80079527D01*
X144134725Y-80163918D01*
X144127000Y-80219201D01*
X143893842Y-80219201D01*
X143888623Y-80188027D01*
X143869772Y-80120637D01*
X143840718Y-80031335D01*
X143804753Y-79929401D01*
X143765166Y-79824113D01*
X143725248Y-79724749D01*
X143688289Y-79640588D01*
X143591961Y-79434760D01*
X143515522Y-79494813D01*
X143499040Y-79507417D01*
X143433517Y-79552950D01*
X143375583Y-79587483D01*
X143357780Y-79598018D01*
X143349139Y-79607081D01*
X143311634Y-79646419D01*
X143274806Y-79726179D01*
X143253546Y-79774567D01*
X143204469Y-79857328D01*
X143147806Y-79930801D01*
X143107132Y-79973749D01*
X143063317Y-80009917D01*
X143021015Y-80026187D01*
X142965972Y-80030364D01*
X142896995Y-80023819D01*
X142817805Y-79989789D01*
X142794224Y-79970153D01*
X142726389Y-79893565D01*
X142665136Y-79798569D01*
X142621978Y-79702084D01*
X142593434Y-79643457D01*
X142530340Y-79588059D01*
X142516877Y-79580811D01*
X142500474Y-79570593D01*
X142693875Y-79570593D01*
X142710138Y-79637345D01*
X142739805Y-79714531D01*
X142777839Y-79789187D01*
X142819202Y-79848348D01*
X142834430Y-79864647D01*
X142904327Y-79913509D01*
X142973600Y-79920890D01*
X143040666Y-79887470D01*
X143103940Y-79813932D01*
X143161836Y-79700957D01*
X143190837Y-79607081D01*
X143189045Y-79538767D01*
X143155559Y-79498358D01*
X143128239Y-79486481D01*
X143052194Y-79468768D01*
X142963094Y-79461969D01*
X142871891Y-79465352D01*
X142789539Y-79478181D01*
X142726990Y-79499722D01*
X142695198Y-79529239D01*
X142693875Y-79570593D01*
X142500474Y-79570593D01*
X142453406Y-79541273D01*
X142389846Y-79495501D01*
X142314275Y-79436135D01*
X142284821Y-79495457D01*
X142254460Y-79556609D01*
X142234056Y-79599319D01*
X142213235Y-79653892D01*
X142202018Y-79709367D01*
X142198022Y-79779529D01*
X142198862Y-79878167D01*
X142195909Y-79936716D01*
X142188936Y-80075011D01*
X142145427Y-80267179D01*
X142067913Y-80434476D01*
X142019018Y-80514535D01*
X141744126Y-80514535D01*
X141834719Y-80414553D01*
X141923117Y-80266067D01*
X141980994Y-80104198D01*
X142004806Y-79936716D01*
X141991009Y-79771389D01*
X141972593Y-79689541D01*
X141953839Y-79638693D01*
X141928526Y-79618642D01*
X141889318Y-79623838D01*
X141828877Y-79648731D01*
X141799801Y-79660566D01*
X141667511Y-79694217D01*
X141518202Y-79707147D01*
X141368023Y-79698815D01*
X141233126Y-79668680D01*
X141232877Y-79668596D01*
X141137776Y-79639118D01*
X141072672Y-79626580D01*
X141029093Y-79630293D01*
X140998567Y-79649566D01*
X140990550Y-79673639D01*
X140983190Y-79734264D01*
X140977778Y-79822910D01*
X140974333Y-79931962D01*
X140972877Y-80053810D01*
X140891885Y-80053810D01*
X140884948Y-79613583D01*
X140937145Y-79564613D01*
X140986126Y-79530775D01*
X141050334Y-79516558D01*
X141133157Y-79526449D01*
X141242766Y-79560333D01*
X141258884Y-79565930D01*
X141394515Y-79595508D01*
X141538842Y-79601077D01*
X141677020Y-79583129D01*
X141794208Y-79542152D01*
X141884999Y-79495457D01*
X141840795Y-79433378D01*
X141809665Y-79394789D01*
X141723276Y-79312421D01*
X141618792Y-79235156D01*
X141511231Y-79174780D01*
X141502127Y-79170647D01*
X141443733Y-79148504D01*
X141381735Y-79135113D01*
X141303255Y-79128514D01*
X141195417Y-79126750D01*
X141138171Y-79127069D01*
X141050187Y-79130439D01*
X140984115Y-79139365D01*
X140926435Y-79156141D01*
X140863626Y-79183062D01*
X140843622Y-79192731D01*
X140685192Y-79294232D01*
X140556129Y-79425899D01*
X140456896Y-79587000D01*
X140387954Y-79776805D01*
X140349766Y-79994583D01*
X140346386Y-80092115D01*
X140019318Y-80092115D01*
X139942256Y-79819285D01*
X139865226Y-79509566D01*
X139799945Y-79206326D01*
X139748829Y-78920015D01*
X139714300Y-78661083D01*
X139708143Y-78603290D01*
X139697996Y-78526949D01*
X139685506Y-78481167D01*
X140042737Y-78481167D01*
X140046094Y-78512494D01*
X140056608Y-78579910D01*
X140072915Y-78674572D01*
X140093616Y-78789012D01*
X140117315Y-78915767D01*
X140142613Y-79047371D01*
X140168112Y-79176359D01*
X140192416Y-79295265D01*
X140214126Y-79396625D01*
X140231674Y-79465492D01*
X140250395Y-79508981D01*
X140267847Y-79512336D01*
X140285032Y-79476687D01*
X140317793Y-79410158D01*
X140376398Y-79327628D01*
X140451217Y-79241161D01*
X140533083Y-79161328D01*
X140612830Y-79098698D01*
X140779543Y-79008645D01*
X140964825Y-78949830D01*
X141155199Y-78926518D01*
X141344854Y-78937807D01*
X141527978Y-78982795D01*
X141698761Y-79060580D01*
X141851390Y-79170259D01*
X141980053Y-79310931D01*
X141986854Y-79320149D01*
X142032263Y-79379205D01*
X142060867Y-79408444D01*
X142078846Y-79412557D01*
X142092376Y-79396237D01*
X142096055Y-79387678D01*
X142097441Y-79351994D01*
X142080517Y-79298165D01*
X142042887Y-79217528D01*
X142023635Y-79177199D01*
X141958612Y-78985575D01*
X141932952Y-78791462D01*
X141934490Y-78766917D01*
X142147917Y-78766917D01*
X142148236Y-78824162D01*
X142151606Y-78912146D01*
X142160532Y-78978219D01*
X142177308Y-79035899D01*
X142204229Y-79098707D01*
X142241409Y-79167481D01*
X142321977Y-79280989D01*
X142415885Y-79382181D01*
X142510914Y-79456789D01*
X142583028Y-79501357D01*
X142624611Y-79448493D01*
X142624729Y-79448343D01*
X142685094Y-79401978D01*
X142776925Y-79369701D01*
X142891096Y-79353654D01*
X143018483Y-79355981D01*
X143083239Y-79364120D01*
X143154585Y-79378034D01*
X143200842Y-79393003D01*
X143235157Y-79415119D01*
X143280333Y-79457145D01*
X143286679Y-79464989D01*
X143308356Y-79484577D01*
X143333498Y-79481799D01*
X143378281Y-79456557D01*
X143441171Y-79412849D01*
X143556984Y-79299618D01*
X143651345Y-79162321D01*
X143719566Y-79010288D01*
X143756958Y-78852848D01*
X143758833Y-78699330D01*
X143745737Y-78615184D01*
X143700713Y-78465848D01*
X143625793Y-78332788D01*
X143515103Y-78204064D01*
X143449617Y-78143082D01*
X143320471Y-78051431D01*
X143180891Y-77992452D01*
X143018808Y-77960213D01*
X142873211Y-77959366D01*
X142710129Y-77994361D01*
X142554617Y-78063402D01*
X142413838Y-78162323D01*
X142294955Y-78286962D01*
X142205131Y-78433155D01*
X142189081Y-78468710D01*
X142167577Y-78527398D01*
X142155102Y-78587602D01*
X142149325Y-78662912D01*
X142147917Y-78766917D01*
X141934490Y-78766917D01*
X141944959Y-78599814D01*
X141992936Y-78415587D01*
X142075184Y-78243738D01*
X142190007Y-78089221D01*
X142335708Y-77956993D01*
X142510588Y-77852009D01*
X142560116Y-77828999D01*
X142634347Y-77798875D01*
X142701842Y-77780710D01*
X142778958Y-77770670D01*
X142882049Y-77764922D01*
X142964860Y-77762750D01*
X143061657Y-77765825D01*
X143144937Y-77777849D01*
X143231545Y-77800538D01*
X143248070Y-77805718D01*
X143436043Y-77887790D01*
X143600237Y-78004316D01*
X143738396Y-78153349D01*
X143848264Y-78332942D01*
X143849676Y-78335830D01*
X143881508Y-78402481D01*
X143902959Y-78455611D01*
X143916076Y-78506390D01*
X143922909Y-78565990D01*
X143925506Y-78645580D01*
X143925706Y-78699330D01*
X143925917Y-78756333D01*
X143925917Y-78763824D01*
X143925439Y-78872417D01*
X143922616Y-78950779D01*
X143915328Y-79010345D01*
X143901459Y-79062551D01*
X143878892Y-79118835D01*
X143845508Y-79190631D01*
X143765100Y-79360346D01*
X143837004Y-79518714D01*
X143839852Y-79525012D01*
X143880227Y-79618463D01*
X143918085Y-79712693D01*
X143945572Y-79788208D01*
X143961136Y-79834021D01*
X143978487Y-79881089D01*
X143987252Y-79899333D01*
X143993599Y-79886366D01*
X144009339Y-79842749D01*
X144030194Y-79779021D01*
X144030275Y-79778764D01*
X144059007Y-79697070D01*
X144097810Y-79598627D01*
X144138309Y-79504689D01*
X144208498Y-79350668D01*
X144147537Y-79238115D01*
X144112046Y-79166302D01*
X144048298Y-78976405D01*
X144028625Y-78822063D01*
X144241860Y-78822063D01*
X144272031Y-78989338D01*
X144337672Y-79147198D01*
X144435436Y-79289470D01*
X144561977Y-79409979D01*
X144713949Y-79502550D01*
X144748406Y-79518177D01*
X144834353Y-79550028D01*
X144919634Y-79567341D01*
X145025623Y-79575090D01*
X145094348Y-79575850D01*
X145203104Y-79568844D01*
X145285112Y-79552360D01*
X145428579Y-79489356D01*
X145575676Y-79386783D01*
X145698726Y-79257972D01*
X145789401Y-79110224D01*
X145840100Y-79000795D01*
X145719092Y-78967278D01*
X145666623Y-78951705D01*
X145597845Y-78928193D01*
X145552326Y-78908802D01*
X145541578Y-78902392D01*
X145478647Y-78848736D01*
X145414519Y-78773134D01*
X145360609Y-78690519D01*
X145328333Y-78615821D01*
X145304817Y-78528226D01*
X145212397Y-78567842D01*
X145190851Y-78576764D01*
X145002564Y-78629933D01*
X144809739Y-78642484D01*
X144618391Y-78614581D01*
X144434533Y-78546391D01*
X144368214Y-78516846D01*
X144316447Y-78499950D01*
X144290711Y-78499489D01*
X144280355Y-78522616D01*
X144265635Y-78576859D01*
X144251051Y-78648397D01*
X144250504Y-78651548D01*
X144241860Y-78822063D01*
X144028625Y-78822063D01*
X144023818Y-78784347D01*
X144037042Y-78594801D01*
X144086400Y-78412437D01*
X144117907Y-78348424D01*
X144363776Y-78348424D01*
X144383103Y-78374231D01*
X144430877Y-78410829D01*
X144496044Y-78448821D01*
X144553191Y-78476580D01*
X144606192Y-78496152D01*
X144662442Y-78507099D01*
X144734961Y-78511870D01*
X144836773Y-78512917D01*
X144921775Y-78512219D01*
X145000774Y-78508059D01*
X145061724Y-78497972D01*
X145118116Y-78479518D01*
X145183444Y-78450260D01*
X145251898Y-78420082D01*
X145315207Y-78404770D01*
X145359644Y-78419275D01*
X145394421Y-78467464D01*
X145428750Y-78553202D01*
X145486189Y-78672873D01*
X145567598Y-78770430D01*
X145665549Y-78833438D01*
X145732774Y-78853517D01*
X145801207Y-78862167D01*
X145868106Y-78862167D01*
X145858440Y-78695190D01*
X145839428Y-78560636D01*
X145780669Y-78394859D01*
X145685845Y-78248645D01*
X145557206Y-78125246D01*
X145397000Y-78027915D01*
X145341882Y-78002791D01*
X145282839Y-77981275D01*
X145223463Y-77969147D01*
X145149764Y-77963790D01*
X145047750Y-77962587D01*
X144968589Y-77963201D01*
X144889189Y-77967215D01*
X144828495Y-77977160D01*
X144772972Y-77995522D01*
X144709083Y-78024787D01*
X144701587Y-78028540D01*
X144625481Y-78074218D01*
X144547229Y-78132387D01*
X144474382Y-78195969D01*
X144414490Y-78257887D01*
X144375104Y-78311064D01*
X144363776Y-78348424D01*
X144117907Y-78348424D01*
X144170325Y-78241928D01*
X144287251Y-78087946D01*
X144435610Y-77955162D01*
X144455467Y-77943250D01*
X145528713Y-77943250D01*
X145528992Y-77944133D01*
X145549255Y-77969687D01*
X145593373Y-78011938D01*
X145652334Y-78062214D01*
X145770085Y-78157706D01*
X145827043Y-78108713D01*
X145850541Y-78090724D01*
X145945185Y-78049177D01*
X146051738Y-78039056D01*
X146160601Y-78057818D01*
X146262173Y-78102917D01*
X146346855Y-78171807D01*
X146405046Y-78261945D01*
X146406276Y-78264943D01*
X146429212Y-78359155D01*
X146431852Y-78463161D01*
X146413524Y-78553872D01*
X146401806Y-78593364D01*
X146409317Y-78604422D01*
X146439148Y-78583199D01*
X146493131Y-78529125D01*
X146501341Y-78520292D01*
X146584053Y-78407633D01*
X146630489Y-78285527D01*
X146645162Y-78142500D01*
X146641752Y-78078144D01*
X146607767Y-77935699D01*
X146541802Y-77809274D01*
X146449376Y-77703252D01*
X146336009Y-77622016D01*
X146207217Y-77569948D01*
X146068520Y-77551433D01*
X145925436Y-77570853D01*
X145888203Y-77583051D01*
X145772065Y-77642208D01*
X145666200Y-77724837D01*
X145586637Y-77819187D01*
X145561191Y-77862158D01*
X145536063Y-77913669D01*
X145528713Y-77943250D01*
X144455467Y-77943250D01*
X144613833Y-77848248D01*
X144648158Y-77831916D01*
X144712425Y-77803679D01*
X144767372Y-77786088D01*
X144825912Y-77776633D01*
X144900956Y-77772802D01*
X145005417Y-77772083D01*
X145081653Y-77772885D01*
X145175603Y-77776129D01*
X145250210Y-77781289D01*
X145293981Y-77787740D01*
X145323335Y-77793729D01*
X145352451Y-77783331D01*
X145375590Y-77740922D01*
X145401077Y-77696460D01*
X145463173Y-77623419D01*
X145545844Y-77548026D01*
X145638626Y-77479519D01*
X145731051Y-77427137D01*
X145731560Y-77426900D01*
X145800571Y-77398160D01*
X145865015Y-77381057D01*
X145940487Y-77372754D01*
X146042583Y-77370409D01*
X146058730Y-77370461D01*
X146224045Y-77384938D01*
X146365018Y-77427855D01*
X146491407Y-77503408D01*
X146612967Y-77615796D01*
X146666850Y-77678804D01*
X146753170Y-77816680D01*
X146802570Y-77965846D01*
X146818704Y-78135530D01*
X146818660Y-78142500D01*
X146818584Y-78154673D01*
X146796130Y-78336021D01*
X146735545Y-78499354D01*
X146637544Y-78643246D01*
X146502839Y-78766273D01*
X146482756Y-78780269D01*
X146385919Y-78827589D01*
X146298079Y-78840648D01*
X146224560Y-78823360D01*
X146170686Y-78779640D01*
X146141780Y-78713402D01*
X146143166Y-78628560D01*
X146180167Y-78529028D01*
X146198959Y-78492395D01*
X146218611Y-78437564D01*
X146216035Y-78391293D01*
X146192338Y-78336070D01*
X146149333Y-78282244D01*
X146084171Y-78242699D01*
X146013644Y-78228617D01*
X145951625Y-78245233D01*
X145942028Y-78256500D01*
X145939890Y-78286025D01*
X145951519Y-78338996D01*
X145978084Y-78423266D01*
X145990163Y-78461605D01*
X146029087Y-78665206D01*
X146027502Y-78862167D01*
X146027445Y-78869299D01*
X145999880Y-79000795D01*
X145985731Y-79068298D01*
X145904440Y-79256619D01*
X145892594Y-79278229D01*
X145865203Y-79335963D01*
X145858363Y-79372952D01*
X145869384Y-79400209D01*
X145882386Y-79413738D01*
X145901105Y-79413150D01*
X145928629Y-79387333D01*
X145972363Y-79331332D01*
X146058721Y-79230075D01*
X146204483Y-79107547D01*
X146382451Y-79006624D01*
X146388370Y-79003862D01*
X146468965Y-78969533D01*
X146540991Y-78948176D01*
X146621407Y-78935978D01*
X146727170Y-78929128D01*
X146829865Y-78927887D01*
X147009187Y-78946148D01*
X147168973Y-78993616D01*
X147318486Y-79072536D01*
X147417556Y-79146679D01*
X147523401Y-79246666D01*
X147614211Y-79353644D01*
X147678311Y-79455193D01*
X147720755Y-79540980D01*
X147754651Y-79386782D01*
X147779517Y-79266489D01*
X147807350Y-79117631D01*
X147834043Y-78961911D01*
X147857625Y-78811385D01*
X147876123Y-78678108D01*
X147887567Y-78574135D01*
X147891779Y-78522981D01*
X147894337Y-78465262D01*
X147888991Y-78433770D01*
X147873103Y-78418525D01*
X147844032Y-78409547D01*
X147782083Y-78388439D01*
X147664932Y-78321560D01*
X147551706Y-78225083D01*
X147450732Y-78106662D01*
X147370334Y-77973955D01*
X147347551Y-77924627D01*
X147329216Y-77871653D01*
X147318700Y-77813677D01*
X147313901Y-77738266D01*
X147312718Y-77632983D01*
X147312710Y-77618954D01*
X147705022Y-77618954D01*
X147720050Y-77742792D01*
X147767909Y-77858343D01*
X147847611Y-77958368D01*
X147958167Y-78035629D01*
X147958229Y-78035660D01*
X148089817Y-78080308D01*
X148223124Y-78085210D01*
X148350922Y-78051172D01*
X148465980Y-77978999D01*
X148551108Y-77885595D01*
X148611245Y-77767231D01*
X148634847Y-77640466D01*
X148621724Y-77512410D01*
X148571687Y-77390171D01*
X148484548Y-77280858D01*
X148461248Y-77260684D01*
X148369425Y-77203253D01*
X148265958Y-77162902D01*
X148169833Y-77147667D01*
X148141738Y-77149244D01*
X148041280Y-77173189D01*
X147939412Y-77219739D01*
X147855119Y-77280858D01*
X147777412Y-77375365D01*
X147723813Y-77494066D01*
X147705022Y-77618954D01*
X147312710Y-77618954D01*
X147312583Y-77409216D01*
X147122083Y-77328561D01*
X146847547Y-77218684D01*
X146314572Y-77039241D01*
X145763167Y-76896209D01*
X145196685Y-76790398D01*
X144618482Y-76722622D01*
X144597292Y-76720955D01*
X144451456Y-76713076D01*
X144276826Y-76708456D01*
X144082289Y-76706927D01*
X143876729Y-76708322D01*
X143669033Y-76712471D01*
X143468085Y-76719209D01*
X143282770Y-76728366D01*
X143121974Y-76739776D01*
X142994583Y-76753271D01*
X142445546Y-76842836D01*
X141904875Y-76965154D01*
X141381171Y-77119982D01*
X140867333Y-77309176D01*
X140623917Y-77407727D01*
X140623917Y-77624844D01*
X140623917Y-77632238D01*
X140622939Y-77735439D01*
X140618479Y-77810642D01*
X140608301Y-77868656D01*
X140590171Y-77922139D01*
X140561854Y-77983750D01*
X140505181Y-78079580D01*
X140404268Y-78201402D01*
X140285907Y-78304235D01*
X140161773Y-78376614D01*
X140127150Y-78392106D01*
X140074318Y-78421096D01*
X140049105Y-78448214D01*
X140042737Y-78481167D01*
X139685506Y-78481167D01*
X139684970Y-78479201D01*
X139664224Y-78451369D01*
X139630917Y-78434777D01*
X139580207Y-78420747D01*
X139525840Y-78403716D01*
X139387839Y-78333585D01*
X139259193Y-78231466D01*
X139148231Y-78104767D01*
X139063280Y-77960897D01*
X139049918Y-77930139D01*
X139032263Y-77876270D01*
X139021706Y-77815035D01*
X139016588Y-77734797D01*
X139015250Y-77623917D01*
X139015259Y-77622318D01*
X139369631Y-77622318D01*
X139387355Y-77756945D01*
X139391093Y-77769152D01*
X139439269Y-77864327D01*
X139513938Y-77955112D01*
X139603171Y-78029202D01*
X139695039Y-78074294D01*
X139703483Y-78076754D01*
X139821482Y-78097931D01*
X139929118Y-78086853D01*
X140043199Y-78041958D01*
X140067361Y-78028946D01*
X140173697Y-77947858D01*
X140247335Y-77849412D01*
X140289733Y-77739708D01*
X140302349Y-77624844D01*
X140286643Y-77510919D01*
X140244074Y-77404032D01*
X140176100Y-77310281D01*
X140084180Y-77235765D01*
X139969774Y-77186582D01*
X139834339Y-77168833D01*
X139756507Y-77175092D01*
X139630904Y-77214455D01*
X139524863Y-77284848D01*
X139442936Y-77380281D01*
X139389675Y-77494768D01*
X139369631Y-77622318D01*
X139015259Y-77622318D01*
X139015618Y-77558346D01*
X139018833Y-77465786D01*
X139026743Y-77397456D01*
X139041005Y-77341719D01*
X139063280Y-77286936D01*
X139132068Y-77163431D01*
X139251486Y-77021473D01*
X139400260Y-76909936D01*
X139577922Y-76829236D01*
X139735370Y-76793810D01*
X139911587Y-76791805D01*
X140084466Y-76826262D01*
X140245582Y-76895426D01*
X140386511Y-76997545D01*
X140480358Y-77084050D01*
X140705881Y-76989564D01*
X140907752Y-76908123D01*
X141463828Y-76714674D01*
X142033101Y-76560280D01*
X142612532Y-76445264D01*
X143199085Y-76369951D01*
X143789721Y-76334664D01*
X144381403Y-76339728D01*
X144971092Y-76385467D01*
X145555750Y-76472206D01*
X145573386Y-76475489D01*
X145913604Y-76547990D01*
X146269802Y-76639723D01*
X146627414Y-76746360D01*
X146971872Y-76863574D01*
X147288607Y-76987035D01*
X147518631Y-77083626D01*
X147623006Y-76989784D01*
X147624700Y-76988266D01*
X147767578Y-76887010D01*
X147924464Y-76821871D01*
X148089572Y-76791598D01*
X148257119Y-76794941D01*
X148421319Y-76830650D01*
X148576389Y-76897473D01*
X148716544Y-76994161D01*
X148836000Y-77119462D01*
X148928973Y-77272126D01*
X148952042Y-77324824D01*
X148969229Y-77378483D01*
X148979131Y-77438153D01*
X148983665Y-77515931D01*
X148984750Y-77623917D01*
X148984738Y-77640466D01*
X148984737Y-77641985D01*
G37*
D13*
%TO.C,G\u002A\u002A\u002A*%
G36*
X157019635Y-78099107D02*
G01*
X157077435Y-78099647D01*
X157119024Y-78100954D01*
X157146337Y-78103162D01*
X157161310Y-78106406D01*
X157165878Y-78110821D01*
X157165878Y-78110840D01*
X157166933Y-78122262D01*
X157169906Y-78150408D01*
X157174579Y-78193342D01*
X157180733Y-78249134D01*
X157188149Y-78315848D01*
X157196609Y-78391553D01*
X157205894Y-78474316D01*
X157215785Y-78562202D01*
X157226063Y-78653279D01*
X157236511Y-78745614D01*
X157246908Y-78837274D01*
X157257037Y-78926326D01*
X157266678Y-79010836D01*
X157275613Y-79088871D01*
X157283623Y-79158499D01*
X157290490Y-79217787D01*
X157295995Y-79264800D01*
X157299918Y-79297607D01*
X157302042Y-79314273D01*
X157307235Y-79350153D01*
X157275808Y-79326182D01*
X157250206Y-79309137D01*
X157202731Y-79283775D01*
X157146986Y-79258955D01*
X157088874Y-79237242D01*
X157034296Y-79221202D01*
X157027454Y-79219523D01*
X156994008Y-79210791D01*
X156968866Y-79203380D01*
X156957032Y-79198745D01*
X156956898Y-79198527D01*
X156954600Y-79186685D01*
X156950435Y-79158423D01*
X156944644Y-79115759D01*
X156937471Y-79060712D01*
X156929158Y-78995300D01*
X156919946Y-78921542D01*
X156910079Y-78841456D01*
X156899799Y-78757062D01*
X156889347Y-78670377D01*
X156878967Y-78583421D01*
X156868900Y-78498211D01*
X156859389Y-78416767D01*
X156850677Y-78341107D01*
X156843004Y-78273249D01*
X156836615Y-78215213D01*
X156831751Y-78169016D01*
X156828654Y-78136679D01*
X156827567Y-78120218D01*
X156827563Y-78099074D01*
X156996708Y-78099074D01*
X157019635Y-78099107D01*
G37*
G36*
X160084784Y-79205567D02*
G01*
X160083811Y-79212001D01*
X160080707Y-79236612D01*
X160075986Y-79276632D01*
X160069880Y-79329992D01*
X160062622Y-79394625D01*
X160054447Y-79468462D01*
X160045587Y-79549436D01*
X160036275Y-79635478D01*
X160030535Y-79688620D01*
X160021576Y-79770797D01*
X160013259Y-79846147D01*
X160005809Y-79912692D01*
X159999450Y-79968457D01*
X159994406Y-80011463D01*
X159990901Y-80039734D01*
X159989160Y-80051294D01*
X159986402Y-80052775D01*
X159976386Y-80054421D01*
X159958286Y-80055893D01*
X159931277Y-80057200D01*
X159894535Y-80058350D01*
X159847238Y-80059352D01*
X159788561Y-80060214D01*
X159717680Y-80060943D01*
X159633772Y-80061549D01*
X159536013Y-80062039D01*
X159423579Y-80062421D01*
X159295646Y-80062704D01*
X159151391Y-80062897D01*
X158989989Y-80063006D01*
X158810617Y-80063040D01*
X158664831Y-80062979D01*
X158523146Y-80062796D01*
X158387879Y-80062501D01*
X158260154Y-80062100D01*
X158141097Y-80061602D01*
X158031834Y-80061014D01*
X157933488Y-80060343D01*
X157847186Y-80059599D01*
X157774052Y-80058787D01*
X157715211Y-80057916D01*
X157671789Y-80056993D01*
X157644911Y-80056027D01*
X157635702Y-80055025D01*
X157635075Y-80048104D01*
X157632568Y-80024075D01*
X157628340Y-79984776D01*
X157622601Y-79932118D01*
X157615560Y-79868009D01*
X157607426Y-79794360D01*
X157598409Y-79713081D01*
X157588717Y-79626081D01*
X157581149Y-79558119D01*
X157571952Y-79475042D01*
X157563593Y-79399014D01*
X157556283Y-79331974D01*
X157550232Y-79275858D01*
X157545650Y-79232605D01*
X157542747Y-79204153D01*
X157541732Y-79192440D01*
X157542387Y-79191453D01*
X157547588Y-79189711D01*
X157558699Y-79188144D01*
X157576578Y-79186743D01*
X157602085Y-79185499D01*
X157636078Y-79184404D01*
X157679417Y-79183449D01*
X157732960Y-79182626D01*
X157797566Y-79181926D01*
X157874094Y-79181340D01*
X157963404Y-79180860D01*
X158066353Y-79180478D01*
X158183802Y-79180184D01*
X158316609Y-79179971D01*
X158465633Y-79179829D01*
X158631733Y-79179750D01*
X158815768Y-79179726D01*
X160089803Y-79179726D01*
X160084784Y-79205567D01*
G37*
G36*
X158917841Y-80232188D02*
G01*
X159078268Y-80232207D01*
X159221448Y-80232259D01*
X159348362Y-80232358D01*
X159459988Y-80232520D01*
X159557306Y-80232759D01*
X159641297Y-80233090D01*
X159712938Y-80233529D01*
X159773210Y-80234090D01*
X159823093Y-80234788D01*
X159863567Y-80235638D01*
X159895609Y-80236655D01*
X159920202Y-80237854D01*
X159938323Y-80239250D01*
X159950953Y-80240858D01*
X159959071Y-80242692D01*
X159963656Y-80244768D01*
X159965689Y-80247101D01*
X159966149Y-80249705D01*
X159966135Y-80250255D01*
X159964902Y-80264879D01*
X159961858Y-80295519D01*
X159957266Y-80339789D01*
X159951387Y-80395305D01*
X159944483Y-80459681D01*
X159936815Y-80530534D01*
X159928645Y-80605479D01*
X159920235Y-80682130D01*
X159911846Y-80758104D01*
X159903739Y-80831015D01*
X159896176Y-80898479D01*
X159889419Y-80958111D01*
X159883729Y-81007526D01*
X159879368Y-81044339D01*
X159876598Y-81066167D01*
X159871028Y-81106104D01*
X158814445Y-81106104D01*
X158769478Y-81106102D01*
X158631822Y-81106068D01*
X158499894Y-81105997D01*
X158374883Y-81105889D01*
X158257977Y-81105749D01*
X158150362Y-81105579D01*
X158053228Y-81105380D01*
X157967761Y-81105157D01*
X157895150Y-81104911D01*
X157836581Y-81104645D01*
X157793243Y-81104362D01*
X157766324Y-81104064D01*
X157757011Y-81103754D01*
X157756323Y-81100350D01*
X157753591Y-81080741D01*
X157749296Y-81046046D01*
X157743683Y-80998517D01*
X157736998Y-80940405D01*
X157729485Y-80873959D01*
X157721392Y-80801431D01*
X157712962Y-80725070D01*
X157704442Y-80647129D01*
X157696076Y-80569857D01*
X157688111Y-80495504D01*
X157680792Y-80426323D01*
X157674363Y-80364562D01*
X157669071Y-80312473D01*
X157665161Y-80272307D01*
X157662878Y-80246313D01*
X157662468Y-80236743D01*
X157669564Y-80236255D01*
X157694352Y-80235696D01*
X157735824Y-80235162D01*
X157792836Y-80234657D01*
X157864246Y-80234187D01*
X157948908Y-80233755D01*
X158045681Y-80233366D01*
X158153419Y-80233024D01*
X158270981Y-80232734D01*
X158397222Y-80232501D01*
X158530999Y-80232329D01*
X158671169Y-80232222D01*
X158816587Y-80232186D01*
X158917841Y-80232188D01*
G37*
G36*
X160797574Y-78134100D02*
G01*
X160796472Y-78142493D01*
X160793165Y-78169570D01*
X160788076Y-78212306D01*
X160781417Y-78268884D01*
X160773402Y-78337486D01*
X160764243Y-78416295D01*
X160754151Y-78503492D01*
X160743338Y-78597260D01*
X160732017Y-78695782D01*
X160714680Y-78846917D01*
X160681401Y-79136965D01*
X160650192Y-79408899D01*
X160621009Y-79663089D01*
X160593810Y-79899908D01*
X160568552Y-80119727D01*
X160545192Y-80322920D01*
X160523686Y-80509857D01*
X160503992Y-80680910D01*
X160486068Y-80836452D01*
X160469869Y-80976856D01*
X160455354Y-81102491D01*
X160442479Y-81213732D01*
X160431201Y-81310949D01*
X160421477Y-81394515D01*
X160413265Y-81464802D01*
X160406521Y-81522182D01*
X160401203Y-81567026D01*
X160397267Y-81599707D01*
X160394672Y-81620597D01*
X160393372Y-81630068D01*
X160388130Y-81660692D01*
X159898616Y-81658259D01*
X159409102Y-81655826D01*
X159397717Y-81617264D01*
X159393915Y-81605713D01*
X159367853Y-81553833D01*
X159325659Y-81498046D01*
X159266766Y-81437680D01*
X159190605Y-81372063D01*
X159153312Y-81342017D01*
X159625509Y-81341522D01*
X159659538Y-81341479D01*
X159765019Y-81341220D01*
X159853342Y-81340763D01*
X159925775Y-81340076D01*
X159983584Y-81339126D01*
X160028038Y-81337880D01*
X160060403Y-81336306D01*
X160081948Y-81334370D01*
X160093938Y-81332039D01*
X160097643Y-81329282D01*
X160097942Y-81325769D01*
X160100051Y-81305506D01*
X160104072Y-81268374D01*
X160109873Y-81215548D01*
X160117323Y-81148199D01*
X160126291Y-81067504D01*
X160136646Y-80974634D01*
X160148258Y-80870764D01*
X160160995Y-80757067D01*
X160174726Y-80634717D01*
X160189320Y-80504888D01*
X160204647Y-80368754D01*
X160220575Y-80227487D01*
X160235712Y-80093332D01*
X160253393Y-79936620D01*
X160271241Y-79778427D01*
X160289027Y-79620768D01*
X160306525Y-79465658D01*
X160323507Y-79315114D01*
X160339745Y-79171151D01*
X160355013Y-79035786D01*
X160369083Y-78911033D01*
X160381728Y-78798908D01*
X160392719Y-78701427D01*
X160401831Y-78620606D01*
X160460091Y-78103773D01*
X160631430Y-78101211D01*
X160802770Y-78098649D01*
X160797574Y-78134100D01*
G37*
G36*
X158500588Y-81370904D02*
G01*
X158577822Y-81376907D01*
X158646735Y-81386835D01*
X158702257Y-81400494D01*
X158731416Y-81410784D01*
X158807395Y-81446482D01*
X158866613Y-81489464D01*
X158908787Y-81539491D01*
X158933634Y-81596324D01*
X158935311Y-81602716D01*
X158940392Y-81628861D01*
X158938379Y-81646968D01*
X158928689Y-81665161D01*
X158924094Y-81671137D01*
X158901233Y-81691268D01*
X158872922Y-81707806D01*
X158837815Y-81719232D01*
X158788389Y-81729497D01*
X158730096Y-81737696D01*
X158667938Y-81743130D01*
X158606914Y-81745097D01*
X158539268Y-81745097D01*
X158527851Y-81780336D01*
X158525076Y-81788634D01*
X158491229Y-81867261D01*
X158444259Y-81947981D01*
X158387639Y-82025422D01*
X158324845Y-82094213D01*
X158270331Y-82141841D01*
X158178641Y-82202156D01*
X158078894Y-82245530D01*
X157971445Y-82271784D01*
X157922877Y-82277071D01*
X157849686Y-82279195D01*
X157770952Y-82276328D01*
X157693668Y-82268773D01*
X157624824Y-82256832D01*
X157596701Y-82250620D01*
X157570423Y-82245930D01*
X157553393Y-82245748D01*
X157540380Y-82250214D01*
X157526156Y-82259467D01*
X157510681Y-82269882D01*
X157443798Y-82307148D01*
X157361658Y-82343267D01*
X157267026Y-82377308D01*
X157162672Y-82408343D01*
X157051364Y-82435441D01*
X156935868Y-82457673D01*
X156832741Y-82474901D01*
X156792816Y-82404843D01*
X156791044Y-82401749D01*
X156765700Y-82359977D01*
X156737669Y-82317208D01*
X156712702Y-82282241D01*
X156691156Y-82253988D01*
X156672425Y-82229275D01*
X156661035Y-82214069D01*
X156657783Y-82208464D01*
X156659202Y-82202093D01*
X156670412Y-82196559D01*
X156694340Y-82190613D01*
X156733910Y-82183009D01*
X156750263Y-82179845D01*
X156807973Y-82166421D01*
X156869544Y-82149180D01*
X156932536Y-82129104D01*
X156994508Y-82107178D01*
X157053019Y-82084385D01*
X157105627Y-82061709D01*
X157149892Y-82040134D01*
X157183373Y-82020643D01*
X157203629Y-82004220D01*
X157208220Y-81991849D01*
X157173095Y-81895604D01*
X157147944Y-81805234D01*
X157133323Y-81723442D01*
X157129123Y-81651295D01*
X157135237Y-81589862D01*
X157151557Y-81540211D01*
X157177974Y-81503408D01*
X157214382Y-81480522D01*
X157260671Y-81472620D01*
X157272080Y-81473352D01*
X157314507Y-81485070D01*
X157363500Y-81509366D01*
X157415948Y-81544023D01*
X157468740Y-81586824D01*
X157518765Y-81635552D01*
X157562912Y-81687991D01*
X157587039Y-81720157D01*
X157637212Y-81675045D01*
X157707012Y-81617298D01*
X157827141Y-81536950D01*
X157957933Y-81470313D01*
X158096964Y-81418560D01*
X158241806Y-81382863D01*
X158269635Y-81378384D01*
X158341426Y-81371449D01*
X158420100Y-81369020D01*
X158500588Y-81370904D01*
G37*
G36*
X159462445Y-77139598D02*
G01*
X159440731Y-77245601D01*
X159401040Y-77347317D01*
X159352337Y-77427898D01*
X159286552Y-77503667D01*
X159208607Y-77567659D01*
X159121056Y-77617797D01*
X159026453Y-77652004D01*
X159018665Y-77653869D01*
X158973232Y-77660723D01*
X158916272Y-77664741D01*
X158853575Y-77665916D01*
X158790935Y-77664244D01*
X158734143Y-77659719D01*
X158688991Y-77652334D01*
X158679948Y-77650120D01*
X158588340Y-77617789D01*
X158506143Y-77570509D01*
X158434981Y-77509918D01*
X158376477Y-77437651D01*
X158339857Y-77369488D01*
X158738977Y-77369488D01*
X158748682Y-77394163D01*
X158770260Y-77425192D01*
X158797383Y-77452487D01*
X158824205Y-77469207D01*
X158855228Y-77478140D01*
X158918401Y-77482137D01*
X158982971Y-77468641D01*
X159047008Y-77438181D01*
X159108581Y-77391285D01*
X159160465Y-77334502D01*
X159197147Y-77271468D01*
X159218169Y-77200839D01*
X159224773Y-77119712D01*
X159224207Y-77098916D01*
X159214667Y-77033360D01*
X159194375Y-76978442D01*
X159164656Y-76935702D01*
X159126833Y-76906678D01*
X159082232Y-76892910D01*
X159032178Y-76895937D01*
X159026346Y-76897391D01*
X158999935Y-76906832D01*
X158982429Y-76917465D01*
X158977901Y-76924702D01*
X158968360Y-76948280D01*
X158957312Y-76982641D01*
X158946338Y-77023147D01*
X158934754Y-77066135D01*
X158916781Y-77116205D01*
X158894516Y-77156761D01*
X158864749Y-77193273D01*
X158824272Y-77231209D01*
X158823172Y-77232160D01*
X158780073Y-77272986D01*
X158752578Y-77308017D01*
X158739331Y-77339452D01*
X158738977Y-77369488D01*
X158339857Y-77369488D01*
X158332258Y-77355343D01*
X158303946Y-77264631D01*
X158301015Y-77248568D01*
X158295126Y-77188968D01*
X158294165Y-77120913D01*
X158298058Y-77051721D01*
X158306732Y-76988710D01*
X158313147Y-76957724D01*
X158324153Y-76914154D01*
X158338183Y-76869821D01*
X158356453Y-76821591D01*
X158380179Y-76766326D01*
X158410576Y-76700892D01*
X158448860Y-76622151D01*
X158483252Y-76551629D01*
X158550622Y-76407482D01*
X158608531Y-76273815D01*
X158658122Y-76147430D01*
X158700539Y-76025130D01*
X158736925Y-75903716D01*
X158768423Y-75779991D01*
X158796177Y-75650758D01*
X158806174Y-75602197D01*
X158817598Y-75551299D01*
X158828197Y-75508592D01*
X158837115Y-75477508D01*
X158843493Y-75461478D01*
X158854007Y-75449907D01*
X158878812Y-75439764D01*
X158906021Y-75442967D01*
X158930095Y-75458269D01*
X158945496Y-75484424D01*
X158948604Y-75497708D01*
X158954434Y-75526095D01*
X158961936Y-75564616D01*
X158970234Y-75608878D01*
X158976747Y-75643309D01*
X159005173Y-75774992D01*
X159039136Y-75904525D01*
X159079635Y-76034742D01*
X159127671Y-76168472D01*
X159184244Y-76308546D01*
X159250353Y-76457796D01*
X159326998Y-76619052D01*
X159336572Y-76638721D01*
X159363957Y-76695949D01*
X159388845Y-76749331D01*
X159409763Y-76795624D01*
X159425236Y-76831587D01*
X159433790Y-76853976D01*
X159451541Y-76920788D01*
X159466082Y-77030822D01*
X159463110Y-77119712D01*
X159462445Y-77139598D01*
G37*
G36*
X155799653Y-78903487D02*
G01*
X155795568Y-78911219D01*
X155801171Y-78914164D01*
X155820765Y-78923879D01*
X155850881Y-78938578D01*
X155887866Y-78956471D01*
X155924700Y-78975707D01*
X155994267Y-79021894D01*
X156050684Y-79073513D01*
X156093456Y-79128915D01*
X156122086Y-79186450D01*
X156136080Y-79244469D01*
X156134941Y-79301324D01*
X156118173Y-79355364D01*
X156085280Y-79404940D01*
X156035767Y-79448404D01*
X155987265Y-79476763D01*
X155910729Y-79508563D01*
X155822087Y-79533409D01*
X155797331Y-79537394D01*
X155751653Y-79542021D01*
X155688061Y-79546659D01*
X155607027Y-79551277D01*
X155509021Y-79555845D01*
X155394516Y-79560334D01*
X155393118Y-79560385D01*
X155306682Y-79563683D01*
X155221718Y-79567228D01*
X155141111Y-79570878D01*
X155067748Y-79574491D01*
X155004513Y-79577925D01*
X154954291Y-79581038D01*
X154919969Y-79583688D01*
X154756994Y-79602736D01*
X154604531Y-79629233D01*
X154468718Y-79662831D01*
X154349069Y-79703799D01*
X154245096Y-79752403D01*
X154156314Y-79808910D01*
X154082236Y-79873586D01*
X154022375Y-79946698D01*
X153976245Y-80028514D01*
X153943359Y-80119300D01*
X153941579Y-80126013D01*
X153930554Y-80186318D01*
X153924616Y-80256060D01*
X153923869Y-80328388D01*
X153928416Y-80396448D01*
X153938358Y-80453389D01*
X153950607Y-80494497D01*
X153988461Y-80581113D01*
X154038679Y-80656839D01*
X154099520Y-80720547D01*
X154169246Y-80771108D01*
X154246115Y-80807392D01*
X154328389Y-80828270D01*
X154414326Y-80832614D01*
X154502188Y-80819293D01*
X154502756Y-80819148D01*
X154574602Y-80796134D01*
X154638187Y-80764852D01*
X154698631Y-80722257D01*
X154761053Y-80665305D01*
X154818197Y-80603375D01*
X154865298Y-80540482D01*
X154905927Y-80471003D01*
X154944104Y-80388867D01*
X154945421Y-80385766D01*
X154972667Y-80328004D01*
X154999635Y-80284957D01*
X155029041Y-80252979D01*
X155063601Y-80228422D01*
X155082259Y-80218598D01*
X155145974Y-80197416D01*
X155213450Y-80191000D01*
X155281653Y-80198228D01*
X155347551Y-80217981D01*
X155408109Y-80249135D01*
X155460294Y-80290572D01*
X155501072Y-80341170D01*
X155527410Y-80399807D01*
X155535909Y-80439551D01*
X155536794Y-80497869D01*
X155523331Y-80557700D01*
X155494886Y-80620728D01*
X155450825Y-80688638D01*
X155390513Y-80763114D01*
X155342335Y-80815208D01*
X155251094Y-80902766D01*
X155148307Y-80990066D01*
X155038070Y-81073888D01*
X154924479Y-81151010D01*
X154811630Y-81218214D01*
X154799991Y-81224576D01*
X154759775Y-81246321D01*
X154732640Y-81262854D01*
X154717116Y-81278095D01*
X154711730Y-81295963D01*
X154715013Y-81320379D01*
X154725493Y-81355261D01*
X154741697Y-81404530D01*
X154755240Y-81444139D01*
X154766864Y-81470819D01*
X154777798Y-81485991D01*
X154789924Y-81493112D01*
X154796462Y-81494710D01*
X154821695Y-81499342D01*
X154861379Y-81505728D01*
X154912761Y-81513473D01*
X154973091Y-81522184D01*
X155039619Y-81531467D01*
X155109592Y-81540929D01*
X155180260Y-81550174D01*
X155248872Y-81558810D01*
X155254133Y-81559425D01*
X155296866Y-81563087D01*
X155352969Y-81566274D01*
X155417765Y-81568797D01*
X155486578Y-81570468D01*
X155554729Y-81571100D01*
X155761918Y-81571253D01*
X155831940Y-81536535D01*
X155901882Y-81495596D01*
X155976207Y-81437600D01*
X156050343Y-81364241D01*
X156125355Y-81274457D01*
X156202310Y-81167184D01*
X156229295Y-81125872D01*
X156262040Y-81073175D01*
X156292237Y-81022107D01*
X156315739Y-80979528D01*
X156323885Y-80963926D01*
X156338720Y-80934600D01*
X156348496Y-80910793D01*
X156353430Y-80888515D01*
X156353740Y-80863779D01*
X156349646Y-80832594D01*
X156341364Y-80790972D01*
X156329114Y-80734923D01*
X156314990Y-80651605D01*
X156308048Y-80546984D01*
X156308705Y-80508512D01*
X156319654Y-80410649D01*
X156344579Y-80324782D01*
X156384199Y-80249752D01*
X156439230Y-80184400D01*
X156510390Y-80127567D01*
X156598397Y-80078095D01*
X156626202Y-80064798D01*
X156669199Y-80044183D01*
X156706949Y-80026025D01*
X156733593Y-80013138D01*
X156758388Y-79998956D01*
X156780699Y-79978685D01*
X156796345Y-79951836D01*
X156806491Y-79915380D01*
X156812300Y-79866291D01*
X156814935Y-79801543D01*
X156815360Y-79784456D01*
X156819329Y-79720705D01*
X156827449Y-79672057D01*
X156840658Y-79635705D01*
X156859893Y-79608843D01*
X156886094Y-79588665D01*
X156923932Y-79574349D01*
X156973425Y-79572057D01*
X157026927Y-79583343D01*
X157081418Y-79606864D01*
X157133876Y-79641275D01*
X157181280Y-79685235D01*
X157220608Y-79737399D01*
X157222067Y-79739785D01*
X157242265Y-79777302D01*
X157253208Y-79811295D01*
X157258122Y-79851582D01*
X157258698Y-79879323D01*
X157256336Y-79916174D01*
X157251025Y-79943762D01*
X157249168Y-79948467D01*
X157236745Y-79971942D01*
X157216217Y-80005535D01*
X157189952Y-80045475D01*
X157160322Y-80087996D01*
X157149064Y-80103805D01*
X157092465Y-80188046D01*
X157049449Y-80262019D01*
X157019477Y-80327445D01*
X157002011Y-80386046D01*
X156996508Y-80439545D01*
X157002431Y-80489664D01*
X157019238Y-80538125D01*
X157026225Y-80552047D01*
X157062245Y-80604368D01*
X157112706Y-80657342D01*
X157174591Y-80708085D01*
X157244884Y-80753717D01*
X157266126Y-80766021D01*
X157302304Y-80787561D01*
X157331892Y-80805898D01*
X157349991Y-80818035D01*
X157380619Y-80851207D01*
X157401270Y-80896150D01*
X157409722Y-80946850D01*
X157405172Y-80998337D01*
X157386815Y-81045644D01*
X157368483Y-81070698D01*
X157327374Y-81102930D01*
X157274978Y-81122217D01*
X157212846Y-81128474D01*
X157142530Y-81121612D01*
X157065582Y-81101545D01*
X156983555Y-81068187D01*
X156983515Y-81068168D01*
X156954850Y-81054849D01*
X156934118Y-81045850D01*
X156925803Y-81043116D01*
X156922062Y-81050133D01*
X156911164Y-81070716D01*
X156894909Y-81101469D01*
X156875096Y-81138993D01*
X156816619Y-81242282D01*
X156738335Y-81364050D01*
X156651524Y-81484493D01*
X156558893Y-81600253D01*
X156463148Y-81707971D01*
X156366995Y-81804291D01*
X156273142Y-81885853D01*
X156247311Y-81905932D01*
X156206097Y-81936581D01*
X156162717Y-81967573D01*
X156120595Y-81996564D01*
X156083158Y-82021210D01*
X156053830Y-82039168D01*
X156036037Y-82048093D01*
X156034730Y-82051255D01*
X156041624Y-82066493D01*
X156059243Y-82092236D01*
X156086250Y-82126397D01*
X156154775Y-82211194D01*
X156244247Y-82329076D01*
X156326609Y-82446057D01*
X156400886Y-82560465D01*
X156466101Y-82670628D01*
X156521278Y-82774874D01*
X156565443Y-82871532D01*
X156597618Y-82958929D01*
X156616829Y-83035394D01*
X156620415Y-83051899D01*
X156627496Y-83065133D01*
X156638426Y-83065194D01*
X156643499Y-83063501D01*
X156666616Y-83057053D01*
X156703560Y-83047498D01*
X156751232Y-83035581D01*
X156806533Y-83022045D01*
X156866365Y-83007632D01*
X156927630Y-82993087D01*
X156987228Y-82979152D01*
X157042062Y-82966572D01*
X157089034Y-82956089D01*
X157125043Y-82948446D01*
X157156052Y-82942821D01*
X157226214Y-82934029D01*
X157298001Y-82929615D01*
X157366457Y-82929652D01*
X157426623Y-82934211D01*
X157473543Y-82943365D01*
X157481269Y-82945849D01*
X157517590Y-82962801D01*
X157543428Y-82983642D01*
X157552603Y-82993013D01*
X157580327Y-83009783D01*
X157621658Y-83022212D01*
X157638592Y-83026093D01*
X157699378Y-83041185D01*
X157772035Y-83060549D01*
X157852105Y-83082923D01*
X157935128Y-83107044D01*
X158016645Y-83131649D01*
X158092198Y-83155475D01*
X158127073Y-83166579D01*
X158172247Y-83180342D01*
X158208822Y-83190740D01*
X158233723Y-83196912D01*
X158243873Y-83197994D01*
X158245381Y-83195673D01*
X158253231Y-83179475D01*
X158265375Y-83151875D01*
X158279891Y-83117187D01*
X158289493Y-83094233D01*
X158347440Y-82973066D01*
X158412962Y-82862055D01*
X158484802Y-82762639D01*
X158561703Y-82676259D01*
X158642408Y-82604353D01*
X158725661Y-82548362D01*
X158810204Y-82509725D01*
X158851810Y-82496932D01*
X158941462Y-82481160D01*
X159026828Y-82482526D01*
X159106560Y-82500934D01*
X159179312Y-82536288D01*
X159186467Y-82540944D01*
X159256123Y-82598116D01*
X159316711Y-82669974D01*
X159367121Y-82754338D01*
X159406244Y-82849028D01*
X159432972Y-82951866D01*
X159446194Y-83060673D01*
X159446641Y-83069723D01*
X159442805Y-83191897D01*
X159420911Y-83311441D01*
X159381577Y-83427439D01*
X159325419Y-83538975D01*
X159253057Y-83645134D01*
X159165107Y-83745001D01*
X159062188Y-83837659D01*
X158944917Y-83922194D01*
X158813913Y-83997689D01*
X158802832Y-84003471D01*
X158773115Y-84020029D01*
X158752384Y-84033190D01*
X158744584Y-84040516D01*
X158747945Y-84047268D01*
X158761095Y-84064730D01*
X158780798Y-84087501D01*
X158806550Y-84117357D01*
X158826052Y-84146275D01*
X158835834Y-84172840D01*
X158838513Y-84202253D01*
X158836212Y-84228769D01*
X158827647Y-84254315D01*
X158810689Y-84281376D01*
X158783214Y-84313322D01*
X158743096Y-84353523D01*
X158737380Y-84358994D01*
X158671103Y-84415888D01*
X158607765Y-84456643D01*
X158544068Y-84482635D01*
X158476717Y-84495243D01*
X158402413Y-84495843D01*
X158384936Y-84494528D01*
X158297601Y-84479997D01*
X158222867Y-84452521D01*
X158159239Y-84411396D01*
X158105222Y-84355919D01*
X158095966Y-84343694D01*
X158059035Y-84279437D01*
X158034827Y-84205225D01*
X158022399Y-84118358D01*
X158016279Y-84034311D01*
X157927008Y-84018550D01*
X157801221Y-83991887D01*
X157677400Y-83957015D01*
X157558924Y-83915214D01*
X157448477Y-83867639D01*
X157348741Y-83815448D01*
X157262399Y-83759795D01*
X157192133Y-83701837D01*
X157157332Y-83668516D01*
X157102862Y-83692627D01*
X157067471Y-83707779D01*
X156987293Y-83737590D01*
X156908006Y-83759809D01*
X156824775Y-83775435D01*
X156732767Y-83785467D01*
X156627147Y-83790903D01*
X156459621Y-83796002D01*
X156415715Y-83843005D01*
X156372712Y-83884214D01*
X156288863Y-83944872D01*
X156190646Y-83995359D01*
X156079097Y-84035450D01*
X155955255Y-84064919D01*
X155820156Y-84083543D01*
X155674839Y-84091097D01*
X155520340Y-84087355D01*
X155357698Y-84072094D01*
X155333446Y-84069119D01*
X155299576Y-84065368D01*
X155276312Y-84063328D01*
X155267666Y-84063387D01*
X155272237Y-84070576D01*
X155285929Y-84090002D01*
X155306552Y-84118524D01*
X155331885Y-84153044D01*
X155383190Y-84223834D01*
X155477884Y-84362533D01*
X155561488Y-84496369D01*
X155633518Y-84624327D01*
X155693490Y-84745389D01*
X155740917Y-84858541D01*
X155775316Y-84962765D01*
X155796201Y-85057045D01*
X155803087Y-85140366D01*
X155802484Y-85159576D01*
X155792273Y-85216172D01*
X155767787Y-85265731D01*
X155726868Y-85313146D01*
X155720727Y-85318910D01*
X155676933Y-85352536D01*
X155625899Y-85378876D01*
X155565419Y-85398505D01*
X155493289Y-85411995D01*
X155407303Y-85419923D01*
X155305254Y-85422861D01*
X155281578Y-85422930D01*
X155213827Y-85422070D01*
X155159007Y-85419298D01*
X155112660Y-85414311D01*
X155070330Y-85406804D01*
X155063477Y-85405298D01*
X155016884Y-85392690D01*
X154969759Y-85376466D01*
X154925846Y-85358299D01*
X154888889Y-85339858D01*
X154862632Y-85322815D01*
X154850818Y-85308840D01*
X154845783Y-85288414D01*
X154840032Y-85261788D01*
X154833858Y-85231125D01*
X154774380Y-85285281D01*
X154743818Y-85311746D01*
X154646653Y-85381985D01*
X154538601Y-85442466D01*
X154424726Y-85490588D01*
X154310093Y-85523752D01*
X154278849Y-85529970D01*
X154241255Y-85535236D01*
X154200414Y-85538024D01*
X154151166Y-85538653D01*
X154088347Y-85537442D01*
X154072209Y-85536927D01*
X154017020Y-85534403D01*
X153964939Y-85530964D01*
X153921193Y-85526995D01*
X153891011Y-85522884D01*
X153865381Y-85517740D01*
X153763538Y-85489443D01*
X153675749Y-85451536D01*
X153602624Y-85404578D01*
X153544775Y-85349127D01*
X153502813Y-85285742D01*
X153477350Y-85214981D01*
X153468996Y-85137402D01*
X153469525Y-85122505D01*
X153483022Y-85055268D01*
X153513761Y-84989502D01*
X153560472Y-84926472D01*
X153621883Y-84867441D01*
X153696725Y-84813675D01*
X153783725Y-84766437D01*
X153881614Y-84726990D01*
X153899806Y-84720980D01*
X153977003Y-84700174D01*
X154057820Y-84686483D01*
X154147072Y-84679264D01*
X154249573Y-84677875D01*
X154304125Y-84678309D01*
X154344924Y-84677882D01*
X154373784Y-84676224D01*
X154394174Y-84672986D01*
X154409563Y-84667820D01*
X154423417Y-84660375D01*
X154458572Y-84642942D01*
X154510291Y-84626761D01*
X154559247Y-84620621D01*
X154588489Y-84620569D01*
X154565668Y-84557140D01*
X154557624Y-84535140D01*
X154546521Y-84510113D01*
X154533586Y-84493963D01*
X154513771Y-84481209D01*
X154482024Y-84466369D01*
X154472080Y-84461823D01*
X154376754Y-84410147D01*
X154289962Y-84348464D01*
X154213757Y-84278873D01*
X154150188Y-84203474D01*
X154101306Y-84124365D01*
X154069161Y-84043647D01*
X154062246Y-84013368D01*
X154055801Y-83949277D01*
X154057709Y-83882033D01*
X154067579Y-83818476D01*
X154085022Y-83765445D01*
X154129496Y-83690405D01*
X154191038Y-83621960D01*
X154267715Y-83563030D01*
X154358691Y-83514147D01*
X154463130Y-83475848D01*
X154580196Y-83448666D01*
X154604695Y-83444132D01*
X154640061Y-83436511D01*
X154665489Y-83429633D01*
X154676663Y-83424577D01*
X154677801Y-83421677D01*
X154681191Y-83403136D01*
X154684728Y-83372558D01*
X154687811Y-83334804D01*
X154688522Y-83325500D01*
X154697398Y-83262472D01*
X154712616Y-83197371D01*
X154732692Y-83134365D01*
X154756141Y-83077621D01*
X154781479Y-83031305D01*
X154807222Y-82999586D01*
X154809462Y-82997529D01*
X154817041Y-82988413D01*
X154819085Y-82976948D01*
X154815528Y-82957949D01*
X154806307Y-82926235D01*
X154787322Y-82855795D01*
X154768651Y-82769171D01*
X154754085Y-82682099D01*
X154745297Y-82603432D01*
X154738870Y-82517372D01*
X154499814Y-82326850D01*
X154458501Y-82293838D01*
X154383748Y-82233380D01*
X154322167Y-82182119D01*
X154272517Y-82138638D01*
X154233555Y-82101519D01*
X154204040Y-82069344D01*
X154182728Y-82040698D01*
X154168377Y-82014161D01*
X154159746Y-81988317D01*
X154155592Y-81961748D01*
X154154673Y-81933037D01*
X154156833Y-81900622D01*
X154165095Y-81866166D01*
X154181414Y-81831316D01*
X154207757Y-81792009D01*
X154246092Y-81744180D01*
X154254281Y-81734388D01*
X154279451Y-81702630D01*
X154294445Y-81679365D01*
X154301522Y-81660534D01*
X154302940Y-81642081D01*
X154302919Y-81641513D01*
X154296569Y-81603493D01*
X154281594Y-81556690D01*
X154260367Y-81507418D01*
X154235260Y-81461991D01*
X154208266Y-81419424D01*
X154106020Y-81444954D01*
X154080942Y-81451029D01*
X153977133Y-81472423D01*
X153864491Y-81489692D01*
X153739765Y-81503279D01*
X153599705Y-81513625D01*
X153421162Y-81524269D01*
X153361878Y-81564932D01*
X153300202Y-81603421D01*
X153195513Y-81654199D01*
X153088292Y-81689686D01*
X153075874Y-81692611D01*
X153007071Y-81703082D01*
X152931245Y-81706854D01*
X152854601Y-81704097D01*
X152783349Y-81694982D01*
X152723693Y-81679680D01*
X152717269Y-81677355D01*
X152631591Y-81636537D01*
X152553488Y-81581269D01*
X152486380Y-81514391D01*
X152433687Y-81438745D01*
X152408434Y-81385836D01*
X152381086Y-81297669D01*
X152366566Y-81202284D01*
X152365436Y-81104076D01*
X152378262Y-81007439D01*
X152378860Y-81004610D01*
X152385601Y-80971973D01*
X152390379Y-80947477D01*
X152392195Y-80936237D01*
X152391445Y-80934953D01*
X152380460Y-80923948D01*
X152358400Y-80904097D01*
X152327880Y-80877715D01*
X152291514Y-80847117D01*
X152223752Y-80788841D01*
X152137884Y-80709208D01*
X152057955Y-80628568D01*
X151985950Y-80549136D01*
X151923856Y-80473129D01*
X151873658Y-80402762D01*
X151837342Y-80340251D01*
X151816801Y-80290366D01*
X151795521Y-80217992D01*
X151776950Y-80131784D01*
X151761430Y-80034331D01*
X151749306Y-79928219D01*
X151740921Y-79816034D01*
X151736621Y-79700364D01*
X151736749Y-79583795D01*
X151738824Y-79507599D01*
X151742284Y-79440792D01*
X151747950Y-79384929D01*
X151756756Y-79335960D01*
X151769639Y-79289836D01*
X151787534Y-79242508D01*
X151811379Y-79189926D01*
X151842109Y-79128042D01*
X151869913Y-79074850D01*
X151930510Y-78967330D01*
X151997108Y-78858725D01*
X152068160Y-78751050D01*
X152078329Y-78736650D01*
X153853455Y-78736650D01*
X153868735Y-78811963D01*
X153900863Y-78887590D01*
X153923461Y-78924329D01*
X153980989Y-78992786D01*
X154053242Y-79053483D01*
X154138084Y-79105013D01*
X154233384Y-79145971D01*
X154337010Y-79174952D01*
X154363608Y-79179948D01*
X154452307Y-79188163D01*
X154537321Y-79183513D01*
X154614964Y-79166404D01*
X154681548Y-79137237D01*
X154703753Y-79122674D01*
X154753639Y-79076443D01*
X154792265Y-79020228D01*
X154817170Y-78958164D01*
X154825897Y-78894388D01*
X154824995Y-78873945D01*
X154812158Y-78806390D01*
X154785680Y-78735547D01*
X154747553Y-78666025D01*
X154699769Y-78602434D01*
X154659007Y-78556072D01*
X154639965Y-78593038D01*
X154603127Y-78647139D01*
X154555082Y-78687053D01*
X154496982Y-78711160D01*
X154429289Y-78719182D01*
X154388602Y-78716104D01*
X154328627Y-78699460D01*
X154277092Y-78670409D01*
X154235715Y-78631255D01*
X154206212Y-78584301D01*
X154190299Y-78531851D01*
X154189694Y-78476209D01*
X154206112Y-78419679D01*
X154224796Y-78378499D01*
X154156058Y-78382911D01*
X154133915Y-78384982D01*
X154059366Y-78402519D01*
X153994638Y-78434265D01*
X153940736Y-78478234D01*
X153898663Y-78532443D01*
X153869422Y-78594905D01*
X153854018Y-78663635D01*
X153853455Y-78736650D01*
X152078329Y-78736650D01*
X152142119Y-78646319D01*
X152217439Y-78546546D01*
X152292573Y-78453745D01*
X152365976Y-78369932D01*
X152436100Y-78297120D01*
X152501398Y-78237323D01*
X152560325Y-78192557D01*
X152608672Y-78165579D01*
X152682710Y-78135672D01*
X152772486Y-78108994D01*
X152876422Y-78085940D01*
X152992939Y-78066907D01*
X153120459Y-78052288D01*
X153192750Y-78047060D01*
X153280214Y-78043543D01*
X153374317Y-78042107D01*
X153471433Y-78042659D01*
X153567936Y-78045102D01*
X153660200Y-78049344D01*
X153744602Y-78055290D01*
X153817514Y-78062845D01*
X153875311Y-78071916D01*
X153895566Y-78075611D01*
X153918534Y-78078668D01*
X153928908Y-78078405D01*
X153929950Y-78075491D01*
X153933340Y-78057749D01*
X153937829Y-78027838D01*
X153942731Y-77990138D01*
X153946116Y-77955573D01*
X153946014Y-77871456D01*
X153932316Y-77790232D01*
X153904101Y-77705097D01*
X153902461Y-77700957D01*
X153885258Y-77646358D01*
X153881364Y-77602220D01*
X153890943Y-77565750D01*
X153914159Y-77534155D01*
X153915118Y-77533202D01*
X153929860Y-77520292D01*
X153946625Y-77509889D01*
X153967507Y-77501721D01*
X153994603Y-77495515D01*
X154030009Y-77490998D01*
X154075822Y-77487896D01*
X154134137Y-77485938D01*
X154207051Y-77484850D01*
X154296660Y-77484359D01*
X154371659Y-77484191D01*
X154435123Y-77484250D01*
X154484080Y-77484689D01*
X154520736Y-77485644D01*
X154547301Y-77487252D01*
X154565980Y-77489649D01*
X154578982Y-77492973D01*
X154588513Y-77497361D01*
X154596782Y-77502948D01*
X154619814Y-77523242D01*
X154642187Y-77548364D01*
X154642744Y-77549126D01*
X154656224Y-77582367D01*
X154660270Y-77630082D01*
X154655233Y-77690752D01*
X154641466Y-77762859D01*
X154619320Y-77844884D01*
X154589148Y-77935308D01*
X154551302Y-78032614D01*
X154506134Y-78135282D01*
X154494461Y-78160924D01*
X154480672Y-78192971D01*
X154471961Y-78215566D01*
X154469846Y-78224959D01*
X154469897Y-78225003D01*
X154479927Y-78230804D01*
X154502007Y-78242421D01*
X154531455Y-78257391D01*
X154565601Y-78276049D01*
X154613920Y-78305197D01*
X154668642Y-78340211D01*
X154725312Y-78378106D01*
X154779474Y-78415895D01*
X154826670Y-78450592D01*
X154862446Y-78479209D01*
X154864944Y-78481351D01*
X154889664Y-78501827D01*
X154907864Y-78515636D01*
X154915761Y-78519891D01*
X154920425Y-78511617D01*
X154931823Y-78489749D01*
X154948148Y-78457749D01*
X154967638Y-78419041D01*
X154972168Y-78410049D01*
X154998439Y-78361341D01*
X155023970Y-78322157D01*
X155053774Y-78285506D01*
X155092865Y-78244394D01*
X155095250Y-78242003D01*
X155161730Y-78182730D01*
X155227972Y-78139586D01*
X155298123Y-78110858D01*
X155376330Y-78094830D01*
X155466737Y-78089789D01*
X155538097Y-78092365D01*
X155633072Y-78106353D01*
X155716216Y-78133038D01*
X155789265Y-78173034D01*
X155853955Y-78226955D01*
X155885340Y-78261559D01*
X155933442Y-78333819D01*
X155964359Y-78411662D01*
X155977562Y-78493523D01*
X155972521Y-78577834D01*
X155956786Y-78639243D01*
X155927279Y-78711859D01*
X155887797Y-78783878D01*
X155841209Y-78849371D01*
X155833530Y-78858853D01*
X155813175Y-78884855D01*
X155806257Y-78894388D01*
X155799653Y-78903487D01*
G37*
%TD*%
M02*
