%TF.GenerationSoftware,KiCad,Pcbnew,9.0.4*%
%TF.CreationDate,2026-01-18T07:18:28+11:00*%
%TF.ProjectId,LFO,4c464f2e-6b69-4636-9164-5f7063625858,rev?*%
%TF.SameCoordinates,Original*%
%TF.FileFunction,Copper,L1,Top*%
%TF.FilePolarity,Positive*%
%FSLAX46Y46*%
G04 Gerber Fmt 4.6, Leading zero omitted, Abs format (unit mm)*
G04 Created by KiCad (PCBNEW 9.0.4) date 2026-01-18 07:18:28*
%MOMM*%
%LPD*%
G01*
G04 APERTURE LIST*
G04 Aperture macros list*
%AMRoundRect*
0 Rectangle with rounded corners*
0 $1 Rounding radius*
0 $2 $3 $4 $5 $6 $7 $8 $9 X,Y pos of 4 corners*
0 Add a 4 corners polygon primitive as box body*
4,1,4,$2,$3,$4,$5,$6,$7,$8,$9,$2,$3,0*
0 Add four circle primitives for the rounded corners*
1,1,$1+$1,$2,$3*
1,1,$1+$1,$4,$5*
1,1,$1+$1,$6,$7*
1,1,$1+$1,$8,$9*
0 Add four rect primitives between the rounded corners*
20,1,$1+$1,$2,$3,$4,$5,0*
20,1,$1+$1,$4,$5,$6,$7,0*
20,1,$1+$1,$6,$7,$8,$9,0*
20,1,$1+$1,$8,$9,$2,$3,0*%
G04 Aperture macros list end*
%TA.AperFunction,ComponentPad*%
%ADD10C,1.600000*%
%TD*%
%TA.AperFunction,ComponentPad*%
%ADD11O,1.600000X1.600000*%
%TD*%
%TA.AperFunction,WasherPad*%
%ADD12C,4.000000*%
%TD*%
%TA.AperFunction,ComponentPad*%
%ADD13O,1.600000X2.400000*%
%TD*%
%TA.AperFunction,ComponentPad*%
%ADD14RoundRect,0.291666X-0.408334X-0.708334X0.408334X-0.708334X0.408334X0.708334X-0.408334X0.708334X0*%
%TD*%
%TA.AperFunction,ComponentPad*%
%ADD15O,1.400000X2.000000*%
%TD*%
%TA.AperFunction,ComponentPad*%
%ADD16R,2.000000X2.000000*%
%TD*%
%TA.AperFunction,ComponentPad*%
%ADD17C,2.200000*%
%TD*%
%TA.AperFunction,ComponentPad*%
%ADD18O,3.600000X1.800000*%
%TD*%
%TA.AperFunction,ComponentPad*%
%ADD19R,2.400000X1.600000*%
%TD*%
%TA.AperFunction,ComponentPad*%
%ADD20O,2.400000X1.600000*%
%TD*%
%TA.AperFunction,Conductor*%
%ADD21C,0.200000*%
%TD*%
%TA.AperFunction,Conductor*%
%ADD22C,0.500000*%
%TD*%
G04 APERTURE END LIST*
D10*
%TO.P,R5,1*%
%TO.N,Net-(J2-PadT)*%
X162000000Y-96190000D03*
D11*
%TO.P,R5,2*%
%TO.N,Net-(U1B--)*%
X162000000Y-103810000D03*
%TD*%
D10*
%TO.P,R3,1*%
%TO.N,GND*%
X146190000Y-108000000D03*
D11*
%TO.P,R3,2*%
%TO.N,Net-(SW1-C)*%
X153810000Y-108000000D03*
%TD*%
D10*
%TO.P,R1,1*%
%TO.N,Net-(U1A--)*%
X138000000Y-96190000D03*
D11*
%TO.P,R1,2*%
%TO.N,Net-(SW1-A)*%
X138000000Y-103810000D03*
%TD*%
D10*
%TO.P,R4,1*%
%TO.N,Net-(J1-PadT)*%
X158050000Y-96190000D03*
D11*
%TO.P,R4,2*%
%TO.N,Net-(U1B--)*%
X158050000Y-103810000D03*
%TD*%
D10*
%TO.P,R2,1*%
%TO.N,Net-(SW1-C)*%
X142000000Y-103810000D03*
D11*
%TO.P,R2,2*%
%TO.N,Net-(R2-Pad2)*%
X142000000Y-96190000D03*
%TD*%
D12*
%TO.P,RV1,*%
%TO.N,*%
X162400000Y-128000000D03*
X153600000Y-128000000D03*
D13*
%TO.P,RV1,1,1*%
%TO.N,Net-(SW1-A)*%
X155499999Y-121000000D03*
%TO.P,RV1,2,2*%
X158000000Y-121000000D03*
%TO.P,RV1,3,3*%
%TO.N,Net-(R2-Pad2)*%
X160500001Y-121000000D03*
%TD*%
D14*
%TO.P,J3,1,Pin_1*%
%TO.N,GND*%
X140000000Y-143550000D03*
D15*
%TO.P,J3,2,Pin_2*%
%TO.N,VDD*%
X142000000Y-143550000D03*
%TO.P,J3,3,Pin_3*%
%TO.N,VSS*%
X144000000Y-143550000D03*
%TD*%
D14*
%TO.P,J4,1,Pin_1*%
%TO.N,GND*%
X156000000Y-143550000D03*
D15*
%TO.P,J4,2,Pin_2*%
%TO.N,VDD*%
X158000000Y-143550000D03*
%TO.P,J4,3,Pin_3*%
%TO.N,VSS*%
X160000000Y-143550000D03*
%TD*%
D16*
%TO.P,J1,G*%
%TO.N,GND*%
X142000000Y-58520000D03*
D17*
%TO.P,J1,S*%
X142000000Y-61620000D03*
%TO.P,J1,T*%
%TO.N,Net-(J1-PadT)*%
X142000000Y-69920000D03*
%TD*%
D16*
%TO.P,J2,G*%
%TO.N,GND*%
X158000000Y-58520000D03*
D17*
%TO.P,J2,S*%
X158000000Y-61620000D03*
%TO.P,J2,T*%
%TO.N,Net-(J2-PadT)*%
X158000000Y-69920000D03*
%TD*%
D18*
%TO.P,SW1,1,A*%
%TO.N,Net-(SW1-A)*%
X142000000Y-123300000D03*
%TO.P,SW1,2,B*%
%TO.N,Net-(SW1-B)*%
X142000000Y-128000000D03*
%TO.P,SW1,3,C*%
%TO.N,Net-(SW1-C)*%
X142000000Y-132700000D03*
%TD*%
D19*
%TO.P,U1,1*%
%TO.N,Net-(R2-Pad2)*%
X146190000Y-96190000D03*
D20*
%TO.P,U1,2,-*%
%TO.N,Net-(U1A--)*%
X146190000Y-98730000D03*
%TO.P,U1,3,+*%
%TO.N,Net-(SW1-C)*%
X146190000Y-101270000D03*
%TO.P,U1,4,V-*%
%TO.N,VSS*%
X146190000Y-103810000D03*
%TO.P,U1,5,+*%
%TO.N,Net-(SW1-B)*%
X153810000Y-103810000D03*
%TO.P,U1,6,-*%
%TO.N,Net-(U1B--)*%
X153810000Y-101270000D03*
%TO.P,U1,7*%
X153810000Y-98730000D03*
%TO.P,U1,8,V+*%
%TO.N,VDD*%
X153810000Y-96190000D03*
%TD*%
D10*
%TO.P,C1,1*%
%TO.N,Net-(U1A--)*%
X147500000Y-92000000D03*
%TO.P,C1,2*%
%TO.N,GND*%
X152500000Y-92000000D03*
%TD*%
D21*
%TO.N,Net-(U1A--)*%
X147270000Y-98730000D02*
X148750000Y-97250000D01*
X146190000Y-98730000D02*
X147270000Y-98730000D01*
X148750000Y-97250000D02*
X148750000Y-93250000D01*
X148750000Y-93250000D02*
X147500000Y-92000000D01*
D22*
%TO.N,VSS*%
X139000000Y-136000000D02*
X139000000Y-127000000D01*
X144000000Y-143550000D02*
X144000000Y-145500000D01*
X149048000Y-124452000D02*
X149048000Y-106668000D01*
X160000000Y-145500000D02*
X160000000Y-143550000D01*
X148000000Y-125500000D02*
X149048000Y-124452000D01*
X144000000Y-141000000D02*
X139000000Y-136000000D01*
X144000000Y-143550000D02*
X144000000Y-141000000D01*
X139000000Y-127000000D02*
X140500000Y-125500000D01*
X144000000Y-145500000D02*
X145000000Y-146500000D01*
X145000000Y-146500000D02*
X159000000Y-146500000D01*
X159000000Y-146500000D02*
X160000000Y-145500000D01*
X140500000Y-125500000D02*
X148000000Y-125500000D01*
X149048000Y-106668000D02*
X146190000Y-103810000D01*
D21*
%TO.N,Net-(SW1-A)*%
X138000000Y-114000000D02*
X138000000Y-103810000D01*
X158000000Y-121000000D02*
X155499999Y-121000000D01*
X142000000Y-118000000D02*
X138000000Y-114000000D01*
X142000000Y-123300000D02*
X142000000Y-118000000D01*
%TO.N,Net-(SW1-C)*%
X150000000Y-128000000D02*
X150000000Y-111810000D01*
X142000000Y-132700000D02*
X145300000Y-132700000D01*
X145300000Y-132700000D02*
X150000000Y-128000000D01*
X150000000Y-111810000D02*
X153810000Y-108000000D01*
%TO.N,Net-(U1B--)*%
X153810000Y-101270000D02*
X153810000Y-98730000D01*
X158050000Y-103810000D02*
X162000000Y-103810000D01*
%TO.N,Net-(SW1-B)*%
X153190000Y-103810000D02*
X153810000Y-103810000D01*
X149599000Y-124680232D02*
X146279232Y-128000000D01*
X149599000Y-122300000D02*
X149599000Y-124680232D01*
X149599000Y-122300000D02*
X149599000Y-107401000D01*
X149599000Y-107401000D02*
X153190000Y-103810000D01*
X146279232Y-128000000D02*
X142000000Y-128000000D01*
%TO.N,Net-(J1-PadT)*%
X158050000Y-85969999D02*
X142000000Y-69919999D01*
X158050000Y-96190000D02*
X158050000Y-85969999D01*
%TO.N,Net-(J2-PadT)*%
X162000000Y-73919999D02*
X158000000Y-69919999D01*
X162000000Y-96190000D02*
X162000000Y-73919999D01*
%TD*%
%TA.AperFunction,Conductor*%
%TO.N,GND*%
G36*
X162003736Y-50500726D02*
G01*
X162293796Y-50518271D01*
X162308659Y-50520076D01*
X162590798Y-50571780D01*
X162605335Y-50575363D01*
X162879172Y-50660695D01*
X162893163Y-50666000D01*
X163154743Y-50783727D01*
X163167989Y-50790680D01*
X163413465Y-50939075D01*
X163425776Y-50947573D01*
X163651573Y-51124473D01*
X163662781Y-51134403D01*
X163865596Y-51337218D01*
X163875526Y-51348426D01*
X163995481Y-51501538D01*
X164052422Y-51574217D01*
X164060928Y-51586540D01*
X164209316Y-51832004D01*
X164216275Y-51845263D01*
X164333997Y-52106831D01*
X164339306Y-52120832D01*
X164424635Y-52394663D01*
X164428219Y-52409201D01*
X164479923Y-52691340D01*
X164481728Y-52706205D01*
X164499274Y-52996263D01*
X164499500Y-53003750D01*
X164499500Y-126267827D01*
X164479815Y-126334866D01*
X164427011Y-126380621D01*
X164357853Y-126390565D01*
X164294297Y-126361540D01*
X164278553Y-126345140D01*
X164267416Y-126331175D01*
X164068824Y-126132583D01*
X163938092Y-126028328D01*
X163849248Y-125957477D01*
X163611445Y-125808055D01*
X163611442Y-125808053D01*
X163358411Y-125686200D01*
X163093329Y-125593443D01*
X163093317Y-125593439D01*
X162819512Y-125530945D01*
X162819494Y-125530942D01*
X162540431Y-125499500D01*
X162540425Y-125499500D01*
X162259575Y-125499500D01*
X162259568Y-125499500D01*
X161980505Y-125530942D01*
X161980487Y-125530945D01*
X161706682Y-125593439D01*
X161706670Y-125593443D01*
X161441588Y-125686200D01*
X161188557Y-125808053D01*
X160950753Y-125957476D01*
X160731175Y-126132583D01*
X160532583Y-126331175D01*
X160357476Y-126550753D01*
X160208053Y-126788557D01*
X160086200Y-127041588D01*
X159993443Y-127306670D01*
X159993439Y-127306682D01*
X159930945Y-127580487D01*
X159930942Y-127580505D01*
X159899500Y-127859568D01*
X159899500Y-128140431D01*
X159930942Y-128419494D01*
X159930945Y-128419512D01*
X159993439Y-128693317D01*
X159993443Y-128693329D01*
X160086200Y-128958411D01*
X160208053Y-129211442D01*
X160208055Y-129211445D01*
X160357477Y-129449248D01*
X160487162Y-129611868D01*
X160532581Y-129668822D01*
X160532584Y-129668825D01*
X160731175Y-129867416D01*
X160950752Y-130042523D01*
X161188555Y-130191945D01*
X161441592Y-130313801D01*
X161640680Y-130383465D01*
X161706670Y-130406556D01*
X161706682Y-130406560D01*
X161980491Y-130469055D01*
X161980497Y-130469055D01*
X161980505Y-130469057D01*
X162166547Y-130490018D01*
X162259569Y-130500499D01*
X162259572Y-130500500D01*
X162259575Y-130500500D01*
X162540428Y-130500500D01*
X162540429Y-130500499D01*
X162683055Y-130484429D01*
X162819494Y-130469057D01*
X162819499Y-130469056D01*
X162819509Y-130469055D01*
X163093318Y-130406560D01*
X163358408Y-130313801D01*
X163611445Y-130191945D01*
X163849248Y-130042523D01*
X164068825Y-129867416D01*
X164267416Y-129668825D01*
X164278551Y-129654861D01*
X164335739Y-129614720D01*
X164405550Y-129611868D01*
X164465821Y-129647212D01*
X164497415Y-129709530D01*
X164499500Y-129732172D01*
X164499500Y-146996249D01*
X164499274Y-147003736D01*
X164481728Y-147293794D01*
X164479923Y-147308659D01*
X164428219Y-147590798D01*
X164424635Y-147605336D01*
X164339306Y-147879167D01*
X164333997Y-147893168D01*
X164216275Y-148154736D01*
X164209316Y-148167995D01*
X164060928Y-148413459D01*
X164052422Y-148425782D01*
X163875526Y-148651573D01*
X163865596Y-148662781D01*
X163662781Y-148865596D01*
X163651573Y-148875526D01*
X163425782Y-149052422D01*
X163413459Y-149060928D01*
X163167995Y-149209316D01*
X163154736Y-149216275D01*
X162893168Y-149333997D01*
X162879167Y-149339306D01*
X162605336Y-149424635D01*
X162590798Y-149428219D01*
X162308659Y-149479923D01*
X162293794Y-149481728D01*
X162014454Y-149498624D01*
X162003735Y-149499273D01*
X161996250Y-149499499D01*
X138003734Y-149499499D01*
X137996247Y-149499273D01*
X137706205Y-149481728D01*
X137691340Y-149479923D01*
X137409201Y-149428219D01*
X137394663Y-149424635D01*
X137120832Y-149339306D01*
X137106831Y-149333997D01*
X136845263Y-149216275D01*
X136832004Y-149209316D01*
X136586540Y-149060928D01*
X136574217Y-149052422D01*
X136348426Y-148875526D01*
X136337218Y-148865596D01*
X136134403Y-148662781D01*
X136124473Y-148651573D01*
X135947573Y-148425776D01*
X135939075Y-148413465D01*
X135790680Y-148167989D01*
X135783727Y-148154743D01*
X135666000Y-147893163D01*
X135660693Y-147879167D01*
X135575364Y-147605336D01*
X135571780Y-147590798D01*
X135520076Y-147308659D01*
X135518271Y-147293794D01*
X135505517Y-147082950D01*
X135500726Y-147003736D01*
X135500500Y-146996249D01*
X135500500Y-103707648D01*
X136699500Y-103707648D01*
X136699500Y-103912351D01*
X136731522Y-104114534D01*
X136794781Y-104309223D01*
X136887715Y-104491613D01*
X137008028Y-104657213D01*
X137008034Y-104657219D01*
X137152781Y-104801966D01*
X137318390Y-104922287D01*
X137331793Y-104929116D01*
X137382589Y-104977088D01*
X137399500Y-105039601D01*
X137399500Y-113913330D01*
X137399499Y-113913348D01*
X137399499Y-114079054D01*
X137399498Y-114079054D01*
X137440423Y-114231785D01*
X137469358Y-114281900D01*
X137469359Y-114281904D01*
X137469360Y-114281904D01*
X137519479Y-114368714D01*
X137519481Y-114368717D01*
X137638349Y-114487585D01*
X137638355Y-114487590D01*
X141363181Y-118212416D01*
X141396666Y-118273739D01*
X141399500Y-118300097D01*
X141399500Y-121775500D01*
X141379815Y-121842539D01*
X141327011Y-121888294D01*
X141275500Y-121899500D01*
X140989778Y-121899500D01*
X140917201Y-121910995D01*
X140772047Y-121933985D01*
X140562396Y-122002103D01*
X140562393Y-122002104D01*
X140365974Y-122102187D01*
X140187641Y-122231752D01*
X140187636Y-122231756D01*
X140031756Y-122387636D01*
X140031752Y-122387641D01*
X139902187Y-122565974D01*
X139802104Y-122762393D01*
X139802103Y-122762396D01*
X139733985Y-122972047D01*
X139699500Y-123189778D01*
X139699500Y-123410221D01*
X139733985Y-123627952D01*
X139802103Y-123837603D01*
X139802104Y-123837606D01*
X139902187Y-124034025D01*
X140031752Y-124212358D01*
X140031756Y-124212363D01*
X140187636Y-124368243D01*
X140187641Y-124368247D01*
X140365976Y-124497814D01*
X140419508Y-124525090D01*
X140470305Y-124573064D01*
X140487100Y-124640885D01*
X140464563Y-124707020D01*
X140409848Y-124750472D01*
X140387407Y-124757192D01*
X140281091Y-124778340D01*
X140281082Y-124778343D01*
X140144511Y-124834912D01*
X140144498Y-124834919D01*
X140021584Y-124917048D01*
X140021580Y-124917051D01*
X138417050Y-126521580D01*
X138417044Y-126521588D01*
X138367812Y-126595268D01*
X138367813Y-126595269D01*
X138334921Y-126644496D01*
X138334914Y-126644508D01*
X138278342Y-126781086D01*
X138278340Y-126781092D01*
X138249500Y-126926079D01*
X138249500Y-126926082D01*
X138249500Y-136073918D01*
X138249500Y-136073920D01*
X138249499Y-136073920D01*
X138278340Y-136218907D01*
X138278343Y-136218917D01*
X138334914Y-136355492D01*
X138367812Y-136404727D01*
X138367813Y-136404730D01*
X138417046Y-136478414D01*
X138417052Y-136478421D01*
X143213181Y-141274549D01*
X143246666Y-141335872D01*
X143249500Y-141362230D01*
X143249500Y-142251374D01*
X143240855Y-142280814D01*
X143234332Y-142310801D01*
X143230577Y-142315816D01*
X143229815Y-142318413D01*
X143213182Y-142339055D01*
X143213181Y-142339056D01*
X143087680Y-142464556D01*
X143026357Y-142498040D01*
X142956665Y-142493056D01*
X142912318Y-142464555D01*
X142782075Y-142334312D01*
X142782073Y-142334310D01*
X142629199Y-142223240D01*
X142620479Y-142218797D01*
X142460836Y-142137454D01*
X142281118Y-142079059D01*
X142094486Y-142049500D01*
X142094481Y-142049500D01*
X141905519Y-142049500D01*
X141905514Y-142049500D01*
X141718881Y-142079059D01*
X141539163Y-142137454D01*
X141370800Y-142223240D01*
X141283579Y-142286610D01*
X141217927Y-142334310D01*
X141217925Y-142334312D01*
X141217922Y-142334314D01*
X141206923Y-142345313D01*
X141145599Y-142378796D01*
X141075907Y-142373809D01*
X141031564Y-142345311D01*
X140905049Y-142218797D01*
X140905050Y-142218797D01*
X140753998Y-142123887D01*
X140753999Y-142123887D01*
X140585612Y-142064965D01*
X140585602Y-142064963D01*
X140452797Y-142050000D01*
X140250000Y-142050000D01*
X140250000Y-143269670D01*
X140230255Y-143249925D01*
X140144745Y-143200556D01*
X140049370Y-143175000D01*
X139950630Y-143175000D01*
X139855255Y-143200556D01*
X139769745Y-143249925D01*
X139750000Y-143269670D01*
X139750000Y-142050000D01*
X139547207Y-142050000D01*
X139547201Y-142050001D01*
X139414397Y-142064963D01*
X139414387Y-142064965D01*
X139246000Y-142123887D01*
X139094949Y-142218797D01*
X138968797Y-142344949D01*
X138873887Y-142496000D01*
X138814965Y-142664387D01*
X138814963Y-142664397D01*
X138800000Y-142797202D01*
X138800000Y-143300000D01*
X139719670Y-143300000D01*
X139699925Y-143319745D01*
X139650556Y-143405255D01*
X139625000Y-143500630D01*
X139625000Y-143599370D01*
X139650556Y-143694745D01*
X139699925Y-143780255D01*
X139719670Y-143800000D01*
X138800001Y-143800000D01*
X138800001Y-144302798D01*
X138814963Y-144435602D01*
X138814965Y-144435612D01*
X138873887Y-144603999D01*
X138968797Y-144755050D01*
X139094949Y-144881202D01*
X139246001Y-144976112D01*
X139246000Y-144976112D01*
X139414387Y-145035034D01*
X139414397Y-145035036D01*
X139547204Y-145049999D01*
X139749999Y-145049999D01*
X139750000Y-145049998D01*
X139750000Y-143830330D01*
X139769745Y-143850075D01*
X139855255Y-143899444D01*
X139950630Y-143925000D01*
X140049370Y-143925000D01*
X140144745Y-143899444D01*
X140230255Y-143850075D01*
X140250000Y-143830330D01*
X140250000Y-145049999D01*
X140452791Y-145049999D01*
X140452798Y-145049998D01*
X140585602Y-145035036D01*
X140585612Y-145035034D01*
X140753999Y-144976112D01*
X140905050Y-144881202D01*
X140905053Y-144881199D01*
X141031564Y-144754689D01*
X141092887Y-144721204D01*
X141162579Y-144726188D01*
X141206926Y-144754689D01*
X141217927Y-144765690D01*
X141370801Y-144876760D01*
X141450347Y-144917290D01*
X141539163Y-144962545D01*
X141539165Y-144962545D01*
X141539168Y-144962547D01*
X141580917Y-144976112D01*
X141718881Y-145020940D01*
X141905514Y-145050500D01*
X141905519Y-145050500D01*
X142094486Y-145050500D01*
X142281118Y-145020940D01*
X142460832Y-144962547D01*
X142629199Y-144876760D01*
X142782073Y-144765690D01*
X142912319Y-144635444D01*
X142920264Y-144631105D01*
X142925690Y-144623858D01*
X142950449Y-144614623D01*
X142973642Y-144601959D01*
X142982671Y-144602604D01*
X142991154Y-144599441D01*
X143016974Y-144605057D01*
X143043334Y-144606943D01*
X143052387Y-144612761D01*
X143059427Y-144614293D01*
X143087681Y-144635444D01*
X143213181Y-144760944D01*
X143246666Y-144822267D01*
X143249500Y-144848625D01*
X143249500Y-145573918D01*
X143249500Y-145573920D01*
X143249499Y-145573920D01*
X143278340Y-145718907D01*
X143278343Y-145718917D01*
X143334914Y-145855492D01*
X143367812Y-145904727D01*
X143367813Y-145904730D01*
X143417046Y-145978414D01*
X143417052Y-145978421D01*
X144417049Y-146978416D01*
X144521584Y-147082951D01*
X144521587Y-147082953D01*
X144521588Y-147082954D01*
X144644503Y-147165083D01*
X144644506Y-147165085D01*
X144694665Y-147185861D01*
X144701080Y-147188518D01*
X144781088Y-147221659D01*
X144897241Y-147244763D01*
X144920380Y-147249365D01*
X144926081Y-147250500D01*
X144926082Y-147250500D01*
X159073920Y-147250500D01*
X159171462Y-147231096D01*
X159218913Y-147221658D01*
X159355495Y-147165084D01*
X159404729Y-147132186D01*
X159478416Y-147082952D01*
X160582952Y-145978415D01*
X160623955Y-145917049D01*
X160665084Y-145855495D01*
X160697042Y-145778342D01*
X160721659Y-145718912D01*
X160750500Y-145573917D01*
X160750500Y-145426082D01*
X160750500Y-144848625D01*
X160770185Y-144781586D01*
X160786819Y-144760944D01*
X160826559Y-144721204D01*
X160915690Y-144632073D01*
X161026760Y-144479199D01*
X161112547Y-144310832D01*
X161170940Y-144131118D01*
X161200500Y-143944486D01*
X161200500Y-143155513D01*
X161170940Y-142968881D01*
X161112545Y-142789163D01*
X161026759Y-142620800D01*
X160915690Y-142467927D01*
X160782073Y-142334310D01*
X160629199Y-142223240D01*
X160620479Y-142218797D01*
X160460836Y-142137454D01*
X160281118Y-142079059D01*
X160094486Y-142049500D01*
X160094481Y-142049500D01*
X159905519Y-142049500D01*
X159905514Y-142049500D01*
X159718881Y-142079059D01*
X159539163Y-142137454D01*
X159370800Y-142223240D01*
X159283579Y-142286610D01*
X159217927Y-142334310D01*
X159217925Y-142334312D01*
X159217924Y-142334312D01*
X159087681Y-142464556D01*
X159026358Y-142498041D01*
X158956666Y-142493057D01*
X158912319Y-142464556D01*
X158782075Y-142334312D01*
X158782073Y-142334310D01*
X158629199Y-142223240D01*
X158620479Y-142218797D01*
X158460836Y-142137454D01*
X158281118Y-142079059D01*
X158094486Y-142049500D01*
X158094481Y-142049500D01*
X157905519Y-142049500D01*
X157905514Y-142049500D01*
X157718881Y-142079059D01*
X157539163Y-142137454D01*
X157370800Y-142223240D01*
X157283579Y-142286610D01*
X157217927Y-142334310D01*
X157217925Y-142334312D01*
X157217922Y-142334314D01*
X157206923Y-142345313D01*
X157145599Y-142378796D01*
X157075907Y-142373809D01*
X157031564Y-142345311D01*
X156905049Y-142218797D01*
X156905050Y-142218797D01*
X156753998Y-142123887D01*
X156753999Y-142123887D01*
X156585612Y-142064965D01*
X156585602Y-142064963D01*
X156452797Y-142050000D01*
X156250000Y-142050000D01*
X156250000Y-143269670D01*
X156230255Y-143249925D01*
X156144745Y-143200556D01*
X156049370Y-143175000D01*
X155950630Y-143175000D01*
X155855255Y-143200556D01*
X155769745Y-143249925D01*
X155750000Y-143269670D01*
X155750000Y-142050000D01*
X155547207Y-142050000D01*
X155547201Y-142050001D01*
X155414397Y-142064963D01*
X155414387Y-142064965D01*
X155246000Y-142123887D01*
X155094949Y-142218797D01*
X154968797Y-142344949D01*
X154873887Y-142496000D01*
X154814965Y-142664387D01*
X154814963Y-142664397D01*
X154800000Y-142797202D01*
X154800000Y-143300000D01*
X155719670Y-143300000D01*
X155699925Y-143319745D01*
X155650556Y-143405255D01*
X155625000Y-143500630D01*
X155625000Y-143599370D01*
X155650556Y-143694745D01*
X155699925Y-143780255D01*
X155719670Y-143800000D01*
X154800001Y-143800000D01*
X154800001Y-144302798D01*
X154814963Y-144435602D01*
X154814965Y-144435612D01*
X154873887Y-144603999D01*
X154968797Y-144755050D01*
X155094949Y-144881202D01*
X155246001Y-144976112D01*
X155246000Y-144976112D01*
X155414387Y-145035034D01*
X155414397Y-145035036D01*
X155547204Y-145049999D01*
X155749999Y-145049999D01*
X155750000Y-145049998D01*
X155750000Y-143830330D01*
X155769745Y-143850075D01*
X155855255Y-143899444D01*
X155950630Y-143925000D01*
X156049370Y-143925000D01*
X156144745Y-143899444D01*
X156230255Y-143850075D01*
X156250000Y-143830330D01*
X156250000Y-145049999D01*
X156452791Y-145049999D01*
X156452798Y-145049998D01*
X156585602Y-145035036D01*
X156585612Y-145035034D01*
X156753999Y-144976112D01*
X156905050Y-144881202D01*
X156905053Y-144881199D01*
X157031564Y-144754689D01*
X157092887Y-144721204D01*
X157162579Y-144726188D01*
X157206926Y-144754689D01*
X157217927Y-144765690D01*
X157370801Y-144876760D01*
X157450347Y-144917290D01*
X157539163Y-144962545D01*
X157539165Y-144962545D01*
X157539168Y-144962547D01*
X157580917Y-144976112D01*
X157718881Y-145020940D01*
X157905514Y-145050500D01*
X157905519Y-145050500D01*
X158094486Y-145050500D01*
X158281118Y-145020940D01*
X158460832Y-144962547D01*
X158629199Y-144876760D01*
X158782073Y-144765690D01*
X158912319Y-144635444D01*
X158920264Y-144631105D01*
X158925690Y-144623858D01*
X158950449Y-144614623D01*
X158973642Y-144601959D01*
X158982671Y-144602604D01*
X158991154Y-144599441D01*
X159016974Y-144605057D01*
X159043334Y-144606943D01*
X159052387Y-144612761D01*
X159059427Y-144614293D01*
X159087681Y-144635444D01*
X159213181Y-144760944D01*
X159246666Y-144822267D01*
X159249500Y-144848625D01*
X159249500Y-145137770D01*
X159229815Y-145204809D01*
X159213181Y-145225451D01*
X158725451Y-145713181D01*
X158664128Y-145746666D01*
X158637770Y-145749500D01*
X145362229Y-145749500D01*
X145295190Y-145729815D01*
X145274548Y-145713181D01*
X144786819Y-145225451D01*
X144753334Y-145164128D01*
X144750500Y-145137770D01*
X144750500Y-144848625D01*
X144770185Y-144781586D01*
X144786819Y-144760944D01*
X144826559Y-144721204D01*
X144915690Y-144632073D01*
X145026760Y-144479199D01*
X145112547Y-144310832D01*
X145170940Y-144131118D01*
X145200500Y-143944486D01*
X145200500Y-143155513D01*
X145170940Y-142968881D01*
X145126480Y-142832049D01*
X145126479Y-142832046D01*
X145112547Y-142789167D01*
X145026759Y-142620800D01*
X144915690Y-142467927D01*
X144786818Y-142339055D01*
X144753334Y-142277732D01*
X144750500Y-142251374D01*
X144750500Y-140926079D01*
X144721659Y-140781092D01*
X144721658Y-140781091D01*
X144721658Y-140781087D01*
X144665084Y-140644505D01*
X144632186Y-140595270D01*
X144632185Y-140595268D01*
X144582956Y-140521589D01*
X144582952Y-140521584D01*
X139786819Y-135725451D01*
X139753334Y-135664128D01*
X139750500Y-135637770D01*
X139750500Y-133606879D01*
X139770185Y-133539840D01*
X139822989Y-133494085D01*
X139892147Y-133484141D01*
X139955703Y-133513166D01*
X139974816Y-133533991D01*
X139979066Y-133539840D01*
X140031758Y-133612365D01*
X140187636Y-133768243D01*
X140187641Y-133768247D01*
X140343192Y-133881260D01*
X140365978Y-133897815D01*
X140494375Y-133963237D01*
X140562393Y-133997895D01*
X140562396Y-133997896D01*
X140667221Y-134031955D01*
X140772049Y-134066015D01*
X140989778Y-134100500D01*
X140989779Y-134100500D01*
X143010221Y-134100500D01*
X143010222Y-134100500D01*
X143227951Y-134066015D01*
X143437606Y-133997895D01*
X143634022Y-133897815D01*
X143812365Y-133768242D01*
X143968242Y-133612365D01*
X144097815Y-133434022D01*
X144131352Y-133368204D01*
X144179326Y-133317409D01*
X144241836Y-133300500D01*
X145213331Y-133300500D01*
X145213347Y-133300501D01*
X145220943Y-133300501D01*
X145379054Y-133300501D01*
X145379057Y-133300501D01*
X145531785Y-133259577D01*
X145581904Y-133230639D01*
X145668716Y-133180520D01*
X145780520Y-133068716D01*
X145780520Y-133068714D01*
X145790728Y-133058507D01*
X145790729Y-133058504D01*
X150480520Y-128368716D01*
X150559577Y-128231784D01*
X150600501Y-128079057D01*
X150600501Y-127920942D01*
X150600501Y-127913347D01*
X150600500Y-127913329D01*
X150600500Y-127859568D01*
X151099500Y-127859568D01*
X151099500Y-128140431D01*
X151130942Y-128419494D01*
X151130945Y-128419512D01*
X151193439Y-128693317D01*
X151193443Y-128693329D01*
X151286200Y-128958411D01*
X151408053Y-129211442D01*
X151408055Y-129211445D01*
X151557477Y-129449248D01*
X151687162Y-129611868D01*
X151732581Y-129668822D01*
X151732584Y-129668825D01*
X151931175Y-129867416D01*
X152150752Y-130042523D01*
X152388555Y-130191945D01*
X152641592Y-130313801D01*
X152840680Y-130383465D01*
X152906670Y-130406556D01*
X152906682Y-130406560D01*
X153180491Y-130469055D01*
X153180497Y-130469055D01*
X153180505Y-130469057D01*
X153366547Y-130490018D01*
X153459569Y-130500499D01*
X153459572Y-130500500D01*
X153459575Y-130500500D01*
X153740428Y-130500500D01*
X153740429Y-130500499D01*
X153883055Y-130484429D01*
X154019494Y-130469057D01*
X154019499Y-130469056D01*
X154019509Y-130469055D01*
X154293318Y-130406560D01*
X154558408Y-130313801D01*
X154811445Y-130191945D01*
X155049248Y-130042523D01*
X155268825Y-129867416D01*
X155467416Y-129668825D01*
X155642523Y-129449248D01*
X155791945Y-129211445D01*
X155913801Y-128958408D01*
X156006560Y-128693318D01*
X156069055Y-128419509D01*
X156100500Y-128140425D01*
X156100500Y-127859575D01*
X156069055Y-127580491D01*
X156006560Y-127306682D01*
X155913801Y-127041592D01*
X155791945Y-126788555D01*
X155642523Y-126550752D01*
X155467416Y-126331175D01*
X155268825Y-126132584D01*
X155049248Y-125957477D01*
X154811445Y-125808055D01*
X154811442Y-125808053D01*
X154558411Y-125686200D01*
X154293329Y-125593443D01*
X154293317Y-125593439D01*
X154019512Y-125530945D01*
X154019494Y-125530942D01*
X153740431Y-125499500D01*
X153740425Y-125499500D01*
X153459575Y-125499500D01*
X153459568Y-125499500D01*
X153180505Y-125530942D01*
X153180487Y-125530945D01*
X152906682Y-125593439D01*
X152906670Y-125593443D01*
X152641588Y-125686200D01*
X152388557Y-125808053D01*
X152150753Y-125957476D01*
X151931175Y-126132583D01*
X151732583Y-126331175D01*
X151557476Y-126550753D01*
X151408053Y-126788557D01*
X151286200Y-127041588D01*
X151193443Y-127306670D01*
X151193439Y-127306682D01*
X151130945Y-127580487D01*
X151130942Y-127580505D01*
X151099500Y-127859568D01*
X150600500Y-127859568D01*
X150600500Y-120497648D01*
X154199499Y-120497648D01*
X154199499Y-121502351D01*
X154231521Y-121704534D01*
X154294780Y-121899223D01*
X154387714Y-122081613D01*
X154508027Y-122247213D01*
X154652785Y-122391971D01*
X154807748Y-122504556D01*
X154818389Y-122512287D01*
X154934606Y-122571503D01*
X155000775Y-122605218D01*
X155000777Y-122605218D01*
X155000780Y-122605220D01*
X155105136Y-122639127D01*
X155195464Y-122668477D01*
X155296556Y-122684488D01*
X155397647Y-122700500D01*
X155397648Y-122700500D01*
X155602350Y-122700500D01*
X155602351Y-122700500D01*
X155804533Y-122668477D01*
X155999218Y-122605220D01*
X156181609Y-122512287D01*
X156274589Y-122444732D01*
X156347212Y-122391971D01*
X156347214Y-122391968D01*
X156347218Y-122391966D01*
X156491965Y-122247219D01*
X156491967Y-122247215D01*
X156491970Y-122247213D01*
X156597336Y-122102187D01*
X156612286Y-122081610D01*
X156639514Y-122028171D01*
X156687488Y-121977376D01*
X156755309Y-121960580D01*
X156821444Y-121983117D01*
X156860483Y-122028170D01*
X156887713Y-122081611D01*
X157008028Y-122247213D01*
X157152786Y-122391971D01*
X157307749Y-122504556D01*
X157318390Y-122512287D01*
X157434607Y-122571503D01*
X157500776Y-122605218D01*
X157500778Y-122605218D01*
X157500781Y-122605220D01*
X157605137Y-122639127D01*
X157695465Y-122668477D01*
X157796557Y-122684488D01*
X157897648Y-122700500D01*
X157897649Y-122700500D01*
X158102351Y-122700500D01*
X158102352Y-122700500D01*
X158304534Y-122668477D01*
X158499219Y-122605220D01*
X158681610Y-122512287D01*
X158774590Y-122444732D01*
X158847213Y-122391971D01*
X158847215Y-122391968D01*
X158847219Y-122391966D01*
X158991966Y-122247219D01*
X158991968Y-122247215D01*
X158991971Y-122247213D01*
X159097337Y-122102187D01*
X159112287Y-122081610D01*
X159139515Y-122028171D01*
X159187489Y-121977376D01*
X159255310Y-121960580D01*
X159321445Y-121983117D01*
X159360484Y-122028170D01*
X159387714Y-122081611D01*
X159508029Y-122247213D01*
X159652787Y-122391971D01*
X159807750Y-122504556D01*
X159818391Y-122512287D01*
X159934608Y-122571503D01*
X160000777Y-122605218D01*
X160000779Y-122605218D01*
X160000782Y-122605220D01*
X160105138Y-122639127D01*
X160195466Y-122668477D01*
X160296558Y-122684488D01*
X160397649Y-122700500D01*
X160397650Y-122700500D01*
X160602352Y-122700500D01*
X160602353Y-122700500D01*
X160804535Y-122668477D01*
X160999220Y-122605220D01*
X161181611Y-122512287D01*
X161274591Y-122444732D01*
X161347214Y-122391971D01*
X161347216Y-122391968D01*
X161347220Y-122391966D01*
X161491967Y-122247219D01*
X161491969Y-122247215D01*
X161491972Y-122247213D01*
X161544733Y-122174590D01*
X161612288Y-122081610D01*
X161705221Y-121899219D01*
X161768478Y-121704534D01*
X161800501Y-121502352D01*
X161800501Y-120497648D01*
X161768478Y-120295466D01*
X161750001Y-120238601D01*
X161705219Y-120100776D01*
X161639516Y-119971828D01*
X161612288Y-119918390D01*
X161604557Y-119907749D01*
X161491972Y-119752786D01*
X161347214Y-119608028D01*
X161181614Y-119487715D01*
X161181613Y-119487714D01*
X161181611Y-119487713D01*
X161124654Y-119458691D01*
X160999224Y-119394781D01*
X160804535Y-119331522D01*
X160629996Y-119303878D01*
X160602353Y-119299500D01*
X160397649Y-119299500D01*
X160373330Y-119303351D01*
X160195466Y-119331522D01*
X160000777Y-119394781D01*
X159818387Y-119487715D01*
X159652787Y-119608028D01*
X159508029Y-119752786D01*
X159387715Y-119918386D01*
X159360484Y-119971830D01*
X159312509Y-120022625D01*
X159244688Y-120039419D01*
X159178553Y-120016881D01*
X159139515Y-119971828D01*
X159112287Y-119918390D01*
X159104556Y-119907749D01*
X158991971Y-119752786D01*
X158847213Y-119608028D01*
X158681613Y-119487715D01*
X158681612Y-119487714D01*
X158681610Y-119487713D01*
X158624653Y-119458691D01*
X158499223Y-119394781D01*
X158304534Y-119331522D01*
X158129995Y-119303878D01*
X158102352Y-119299500D01*
X157897648Y-119299500D01*
X157873329Y-119303351D01*
X157695465Y-119331522D01*
X157500776Y-119394781D01*
X157318386Y-119487715D01*
X157152786Y-119608028D01*
X157008028Y-119752786D01*
X156887714Y-119918386D01*
X156860483Y-119971830D01*
X156812508Y-120022625D01*
X156744687Y-120039419D01*
X156678552Y-120016881D01*
X156639514Y-119971828D01*
X156612286Y-119918390D01*
X156604555Y-119907749D01*
X156491970Y-119752786D01*
X156347212Y-119608028D01*
X156181612Y-119487715D01*
X156181611Y-119487714D01*
X156181609Y-119487713D01*
X156124652Y-119458691D01*
X155999222Y-119394781D01*
X155804533Y-119331522D01*
X155629994Y-119303878D01*
X155602351Y-119299500D01*
X155397647Y-119299500D01*
X155373328Y-119303351D01*
X155195464Y-119331522D01*
X155000775Y-119394781D01*
X154818385Y-119487715D01*
X154652785Y-119608028D01*
X154508027Y-119752786D01*
X154387714Y-119918386D01*
X154294780Y-120100776D01*
X154231521Y-120295465D01*
X154199499Y-120497648D01*
X150600500Y-120497648D01*
X150600500Y-112110097D01*
X150620185Y-112043058D01*
X150636819Y-112022416D01*
X151897971Y-110761264D01*
X153365159Y-109294075D01*
X153426480Y-109260592D01*
X153491154Y-109263826D01*
X153505466Y-109268477D01*
X153707648Y-109300500D01*
X153707649Y-109300500D01*
X153912351Y-109300500D01*
X153912352Y-109300500D01*
X154114534Y-109268477D01*
X154309219Y-109205220D01*
X154491610Y-109112287D01*
X154584590Y-109044732D01*
X154657213Y-108991971D01*
X154657215Y-108991968D01*
X154657219Y-108991966D01*
X154801966Y-108847219D01*
X154801968Y-108847215D01*
X154801971Y-108847213D01*
X154854732Y-108774590D01*
X154922287Y-108681610D01*
X155015220Y-108499219D01*
X155078477Y-108304534D01*
X155110500Y-108102352D01*
X155110500Y-107897648D01*
X155102257Y-107845606D01*
X155078477Y-107695465D01*
X155047458Y-107600000D01*
X155015220Y-107500781D01*
X155015218Y-107500778D01*
X155015218Y-107500776D01*
X154922419Y-107318650D01*
X154922287Y-107318390D01*
X154890092Y-107274077D01*
X154801971Y-107152786D01*
X154657213Y-107008028D01*
X154491613Y-106887715D01*
X154491612Y-106887714D01*
X154491610Y-106887713D01*
X154434653Y-106858691D01*
X154309223Y-106794781D01*
X154114534Y-106731522D01*
X153939995Y-106703878D01*
X153912352Y-106699500D01*
X153707648Y-106699500D01*
X153683329Y-106703351D01*
X153505465Y-106731522D01*
X153310776Y-106794781D01*
X153128386Y-106887715D01*
X152962786Y-107008028D01*
X152818028Y-107152786D01*
X152697715Y-107318386D01*
X152604781Y-107500776D01*
X152541522Y-107695465D01*
X152509500Y-107897648D01*
X152509500Y-108102351D01*
X152541523Y-108304535D01*
X152546172Y-108318845D01*
X152548165Y-108388687D01*
X152515921Y-108444841D01*
X150411181Y-110549582D01*
X150349858Y-110583067D01*
X150280166Y-110578083D01*
X150224233Y-110536211D01*
X150199816Y-110470747D01*
X150199500Y-110461901D01*
X150199500Y-107701096D01*
X150219185Y-107634057D01*
X150235814Y-107613420D01*
X152799111Y-105050122D01*
X152860432Y-105016639D01*
X152925103Y-105019873D01*
X153072449Y-105067749D01*
X153105465Y-105078477D01*
X153206557Y-105094488D01*
X153307648Y-105110500D01*
X153307649Y-105110500D01*
X154312351Y-105110500D01*
X154312352Y-105110500D01*
X154514534Y-105078477D01*
X154709219Y-105015220D01*
X154891610Y-104922287D01*
X154984590Y-104854732D01*
X155057213Y-104801971D01*
X155057215Y-104801968D01*
X155057219Y-104801966D01*
X155201966Y-104657219D01*
X155201968Y-104657215D01*
X155201971Y-104657213D01*
X155254732Y-104584590D01*
X155322287Y-104491610D01*
X155415220Y-104309219D01*
X155478477Y-104114534D01*
X155510500Y-103912352D01*
X155510500Y-103707648D01*
X156749500Y-103707648D01*
X156749500Y-103912351D01*
X156781522Y-104114534D01*
X156844781Y-104309223D01*
X156937715Y-104491613D01*
X157058028Y-104657213D01*
X157202786Y-104801971D01*
X157357749Y-104914556D01*
X157368390Y-104922287D01*
X157449499Y-104963614D01*
X157550776Y-105015218D01*
X157550778Y-105015218D01*
X157550781Y-105015220D01*
X157625818Y-105039601D01*
X157745465Y-105078477D01*
X157846557Y-105094488D01*
X157947648Y-105110500D01*
X157947649Y-105110500D01*
X158152351Y-105110500D01*
X158152352Y-105110500D01*
X158354534Y-105078477D01*
X158549219Y-105015220D01*
X158731610Y-104922287D01*
X158824590Y-104854732D01*
X158897213Y-104801971D01*
X158897215Y-104801968D01*
X158897219Y-104801966D01*
X159041966Y-104657219D01*
X159041968Y-104657215D01*
X159041971Y-104657213D01*
X159162284Y-104491614D01*
X159162285Y-104491613D01*
X159162287Y-104491610D01*
X159169117Y-104478204D01*
X159217091Y-104427409D01*
X159279602Y-104410500D01*
X160770398Y-104410500D01*
X160837437Y-104430185D01*
X160880883Y-104478205D01*
X160887715Y-104491614D01*
X161008028Y-104657213D01*
X161152786Y-104801971D01*
X161307749Y-104914556D01*
X161318390Y-104922287D01*
X161399499Y-104963614D01*
X161500776Y-105015218D01*
X161500778Y-105015218D01*
X161500781Y-105015220D01*
X161575818Y-105039601D01*
X161695465Y-105078477D01*
X161796557Y-105094488D01*
X161897648Y-105110500D01*
X161897649Y-105110500D01*
X162102351Y-105110500D01*
X162102352Y-105110500D01*
X162304534Y-105078477D01*
X162499219Y-105015220D01*
X162681610Y-104922287D01*
X162774590Y-104854732D01*
X162847213Y-104801971D01*
X162847215Y-104801968D01*
X162847219Y-104801966D01*
X162991966Y-104657219D01*
X162991968Y-104657215D01*
X162991971Y-104657213D01*
X163044732Y-104584590D01*
X163112287Y-104491610D01*
X163205220Y-104309219D01*
X163268477Y-104114534D01*
X163300500Y-103912352D01*
X163300500Y-103707648D01*
X163268477Y-103505466D01*
X163205220Y-103310781D01*
X163205218Y-103310778D01*
X163205218Y-103310776D01*
X163171503Y-103244607D01*
X163112287Y-103128390D01*
X163104556Y-103117749D01*
X162991971Y-102962786D01*
X162847213Y-102818028D01*
X162681613Y-102697715D01*
X162681612Y-102697714D01*
X162681610Y-102697713D01*
X162624653Y-102668691D01*
X162499223Y-102604781D01*
X162304534Y-102541522D01*
X162129995Y-102513878D01*
X162102352Y-102509500D01*
X161897648Y-102509500D01*
X161873329Y-102513351D01*
X161695465Y-102541522D01*
X161500776Y-102604781D01*
X161318386Y-102697715D01*
X161152786Y-102818028D01*
X161008028Y-102962786D01*
X160887715Y-103128385D01*
X160880883Y-103141795D01*
X160832909Y-103192591D01*
X160770398Y-103209500D01*
X159279602Y-103209500D01*
X159212563Y-103189815D01*
X159169117Y-103141795D01*
X159162284Y-103128385D01*
X159041971Y-102962786D01*
X158897213Y-102818028D01*
X158731613Y-102697715D01*
X158731612Y-102697714D01*
X158731610Y-102697713D01*
X158674653Y-102668691D01*
X158549223Y-102604781D01*
X158354534Y-102541522D01*
X158179995Y-102513878D01*
X158152352Y-102509500D01*
X157947648Y-102509500D01*
X157923329Y-102513351D01*
X157745465Y-102541522D01*
X157550776Y-102604781D01*
X157368386Y-102697715D01*
X157202786Y-102818028D01*
X157058028Y-102962786D01*
X156937715Y-103128386D01*
X156844781Y-103310776D01*
X156781522Y-103505465D01*
X156749500Y-103707648D01*
X155510500Y-103707648D01*
X155478477Y-103505466D01*
X155415220Y-103310781D01*
X155415218Y-103310778D01*
X155415218Y-103310776D01*
X155381503Y-103244607D01*
X155322287Y-103128390D01*
X155314556Y-103117749D01*
X155201971Y-102962786D01*
X155057213Y-102818028D01*
X154891614Y-102697715D01*
X154885006Y-102694348D01*
X154798917Y-102650483D01*
X154748123Y-102602511D01*
X154731328Y-102534690D01*
X154753865Y-102468555D01*
X154798917Y-102429516D01*
X154891610Y-102382287D01*
X154912770Y-102366913D01*
X155057213Y-102261971D01*
X155057215Y-102261968D01*
X155057219Y-102261966D01*
X155201966Y-102117219D01*
X155201968Y-102117215D01*
X155201971Y-102117213D01*
X155254732Y-102044590D01*
X155322287Y-101951610D01*
X155415220Y-101769219D01*
X155478477Y-101574534D01*
X155510500Y-101372352D01*
X155510500Y-101167648D01*
X155478477Y-100965466D01*
X155415220Y-100770781D01*
X155415218Y-100770778D01*
X155415218Y-100770776D01*
X155381503Y-100704607D01*
X155322287Y-100588390D01*
X155314556Y-100577749D01*
X155201971Y-100422786D01*
X155057213Y-100278028D01*
X154891614Y-100157715D01*
X154885006Y-100154348D01*
X154798917Y-100110483D01*
X154748123Y-100062511D01*
X154731328Y-99994690D01*
X154753865Y-99928555D01*
X154798917Y-99889516D01*
X154891610Y-99842287D01*
X154912770Y-99826913D01*
X155057213Y-99721971D01*
X155057215Y-99721968D01*
X155057219Y-99721966D01*
X155201966Y-99577219D01*
X155201968Y-99577215D01*
X155201971Y-99577213D01*
X155254732Y-99504590D01*
X155322287Y-99411610D01*
X155415220Y-99229219D01*
X155478477Y-99034534D01*
X155510500Y-98832352D01*
X155510500Y-98627648D01*
X155478477Y-98425466D01*
X155415220Y-98230781D01*
X155415218Y-98230778D01*
X155415218Y-98230776D01*
X155381503Y-98164607D01*
X155322287Y-98048390D01*
X155314556Y-98037749D01*
X155201971Y-97882786D01*
X155057213Y-97738028D01*
X154891614Y-97617715D01*
X154885006Y-97614348D01*
X154798917Y-97570483D01*
X154748123Y-97522511D01*
X154731328Y-97454690D01*
X154753865Y-97388555D01*
X154798917Y-97349516D01*
X154891610Y-97302287D01*
X154912770Y-97286913D01*
X155057213Y-97181971D01*
X155057215Y-97181968D01*
X155057219Y-97181966D01*
X155201966Y-97037219D01*
X155201968Y-97037215D01*
X155201971Y-97037213D01*
X155265405Y-96949902D01*
X155322287Y-96871610D01*
X155415220Y-96689219D01*
X155478477Y-96494534D01*
X155510500Y-96292352D01*
X155510500Y-96087648D01*
X155478477Y-95885466D01*
X155415220Y-95690781D01*
X155415218Y-95690778D01*
X155415218Y-95690776D01*
X155381503Y-95624607D01*
X155322287Y-95508390D01*
X155314556Y-95497749D01*
X155201971Y-95342786D01*
X155057213Y-95198028D01*
X154891613Y-95077715D01*
X154891612Y-95077714D01*
X154891610Y-95077713D01*
X154834653Y-95048691D01*
X154709223Y-94984781D01*
X154514534Y-94921522D01*
X154339995Y-94893878D01*
X154312352Y-94889500D01*
X153307648Y-94889500D01*
X153283329Y-94893351D01*
X153105465Y-94921522D01*
X152910776Y-94984781D01*
X152728386Y-95077715D01*
X152562786Y-95198028D01*
X152418028Y-95342786D01*
X152297715Y-95508386D01*
X152204781Y-95690776D01*
X152141522Y-95885465D01*
X152109500Y-96087648D01*
X152109500Y-96292351D01*
X152141522Y-96494534D01*
X152204781Y-96689223D01*
X152297715Y-96871613D01*
X152418028Y-97037213D01*
X152562786Y-97181971D01*
X152717749Y-97294556D01*
X152728390Y-97302287D01*
X152817212Y-97347544D01*
X152821080Y-97349515D01*
X152871876Y-97397490D01*
X152888671Y-97465311D01*
X152866134Y-97531446D01*
X152821080Y-97570485D01*
X152728386Y-97617715D01*
X152562786Y-97738028D01*
X152418028Y-97882786D01*
X152297715Y-98048386D01*
X152204781Y-98230776D01*
X152141522Y-98425465D01*
X152109500Y-98627648D01*
X152109500Y-98832351D01*
X152141522Y-99034534D01*
X152204781Y-99229223D01*
X152297715Y-99411613D01*
X152418028Y-99577213D01*
X152562786Y-99721971D01*
X152717749Y-99834556D01*
X152728390Y-99842287D01*
X152819840Y-99888883D01*
X152821080Y-99889515D01*
X152871876Y-99937490D01*
X152888671Y-100005311D01*
X152866134Y-100071446D01*
X152821080Y-100110485D01*
X152728386Y-100157715D01*
X152562786Y-100278028D01*
X152418028Y-100422786D01*
X152297715Y-100588386D01*
X152204781Y-100770776D01*
X152141522Y-100965465D01*
X152109500Y-101167648D01*
X152109500Y-101372351D01*
X152141522Y-101574534D01*
X152204781Y-101769223D01*
X152297715Y-101951613D01*
X152418028Y-102117213D01*
X152562786Y-102261971D01*
X152717749Y-102374556D01*
X152728390Y-102382287D01*
X152819840Y-102428883D01*
X152821080Y-102429515D01*
X152871876Y-102477490D01*
X152888671Y-102545311D01*
X152866134Y-102611446D01*
X152821080Y-102650485D01*
X152728386Y-102697715D01*
X152562786Y-102818028D01*
X152418028Y-102962786D01*
X152297715Y-103128386D01*
X152204781Y-103310776D01*
X152141522Y-103505465D01*
X152109500Y-103707648D01*
X152109500Y-103912352D01*
X152109499Y-103912352D01*
X152117242Y-103961235D01*
X152108287Y-104030528D01*
X152082450Y-104068313D01*
X149870062Y-106280701D01*
X149808739Y-106314186D01*
X149739047Y-106309202D01*
X149683114Y-106267330D01*
X149679279Y-106261911D01*
X149630952Y-106189585D01*
X149630951Y-106189584D01*
X149526416Y-106085049D01*
X147838005Y-104396637D01*
X147804520Y-104335314D01*
X147807754Y-104270640D01*
X147858477Y-104114534D01*
X147890500Y-103912352D01*
X147890500Y-103707648D01*
X147858477Y-103505466D01*
X147795220Y-103310781D01*
X147795218Y-103310778D01*
X147795218Y-103310776D01*
X147761503Y-103244607D01*
X147702287Y-103128390D01*
X147694556Y-103117749D01*
X147581971Y-102962786D01*
X147437213Y-102818028D01*
X147271614Y-102697715D01*
X147265006Y-102694348D01*
X147178917Y-102650483D01*
X147128123Y-102602511D01*
X147111328Y-102534690D01*
X147133865Y-102468555D01*
X147178917Y-102429516D01*
X147271610Y-102382287D01*
X147292770Y-102366913D01*
X147437213Y-102261971D01*
X147437215Y-102261968D01*
X147437219Y-102261966D01*
X147581966Y-102117219D01*
X147581968Y-102117215D01*
X147581971Y-102117213D01*
X147634732Y-102044590D01*
X147702287Y-101951610D01*
X147795220Y-101769219D01*
X147858477Y-101574534D01*
X147890500Y-101372352D01*
X147890500Y-101167648D01*
X147858477Y-100965466D01*
X147795220Y-100770781D01*
X147795218Y-100770778D01*
X147795218Y-100770776D01*
X147761503Y-100704607D01*
X147702287Y-100588390D01*
X147694556Y-100577749D01*
X147581971Y-100422786D01*
X147437213Y-100278028D01*
X147271614Y-100157715D01*
X147265006Y-100154348D01*
X147178917Y-100110483D01*
X147128123Y-100062511D01*
X147111328Y-99994690D01*
X147133865Y-99928555D01*
X147178917Y-99889516D01*
X147271610Y-99842287D01*
X147292770Y-99826913D01*
X147437213Y-99721971D01*
X147437215Y-99721968D01*
X147437219Y-99721966D01*
X147581966Y-99577219D01*
X147581968Y-99577215D01*
X147581971Y-99577213D01*
X147634732Y-99504590D01*
X147702287Y-99411610D01*
X147795220Y-99229219D01*
X147858477Y-99034534D01*
X147860412Y-99022314D01*
X147890338Y-98959181D01*
X147895186Y-98954047D01*
X149118713Y-97730521D01*
X149118716Y-97730520D01*
X149230520Y-97618716D01*
X149280639Y-97531904D01*
X149309577Y-97481785D01*
X149350500Y-97329057D01*
X149350500Y-97170943D01*
X149350500Y-93339059D01*
X149350501Y-93339046D01*
X149350501Y-93170945D01*
X149350501Y-93170943D01*
X149309577Y-93018215D01*
X149280639Y-92968095D01*
X149230520Y-92881284D01*
X149118716Y-92769480D01*
X149118715Y-92769479D01*
X149114385Y-92765149D01*
X149114374Y-92765139D01*
X148794077Y-92444842D01*
X148760592Y-92383519D01*
X148763828Y-92318841D01*
X148768477Y-92304534D01*
X148800500Y-92102352D01*
X148800500Y-91897682D01*
X151200000Y-91897682D01*
X151200000Y-92102317D01*
X151232009Y-92304417D01*
X151295244Y-92499031D01*
X151388141Y-92681350D01*
X151388147Y-92681359D01*
X151420523Y-92725921D01*
X151420524Y-92725922D01*
X152100000Y-92046446D01*
X152100000Y-92052661D01*
X152127259Y-92154394D01*
X152179920Y-92245606D01*
X152254394Y-92320080D01*
X152345606Y-92372741D01*
X152447339Y-92400000D01*
X152453553Y-92400000D01*
X151774076Y-93079474D01*
X151818650Y-93111859D01*
X152000968Y-93204755D01*
X152195582Y-93267990D01*
X152397683Y-93300000D01*
X152602317Y-93300000D01*
X152804417Y-93267990D01*
X152999031Y-93204755D01*
X153181349Y-93111859D01*
X153225921Y-93079474D01*
X152546447Y-92400000D01*
X152552661Y-92400000D01*
X152654394Y-92372741D01*
X152745606Y-92320080D01*
X152820080Y-92245606D01*
X152872741Y-92154394D01*
X152900000Y-92052661D01*
X152900000Y-92046448D01*
X153579474Y-92725922D01*
X153579474Y-92725921D01*
X153611859Y-92681349D01*
X153704755Y-92499031D01*
X153767990Y-92304417D01*
X153800000Y-92102317D01*
X153800000Y-91897682D01*
X153767990Y-91695582D01*
X153704755Y-91500968D01*
X153611859Y-91318650D01*
X153579474Y-91274077D01*
X153579474Y-91274076D01*
X152900000Y-91953551D01*
X152900000Y-91947339D01*
X152872741Y-91845606D01*
X152820080Y-91754394D01*
X152745606Y-91679920D01*
X152654394Y-91627259D01*
X152552661Y-91600000D01*
X152546446Y-91600000D01*
X153225922Y-90920524D01*
X153225921Y-90920523D01*
X153181359Y-90888147D01*
X153181350Y-90888141D01*
X152999031Y-90795244D01*
X152804417Y-90732009D01*
X152602317Y-90700000D01*
X152397683Y-90700000D01*
X152195582Y-90732009D01*
X152000968Y-90795244D01*
X151818644Y-90888143D01*
X151774077Y-90920523D01*
X151774077Y-90920524D01*
X152453554Y-91600000D01*
X152447339Y-91600000D01*
X152345606Y-91627259D01*
X152254394Y-91679920D01*
X152179920Y-91754394D01*
X152127259Y-91845606D01*
X152100000Y-91947339D01*
X152100000Y-91953553D01*
X151420524Y-91274077D01*
X151420523Y-91274077D01*
X151388143Y-91318644D01*
X151295244Y-91500968D01*
X151232009Y-91695582D01*
X151200000Y-91897682D01*
X148800500Y-91897682D01*
X148800500Y-91897648D01*
X148792257Y-91845606D01*
X148768477Y-91695465D01*
X148737458Y-91600000D01*
X148705220Y-91500781D01*
X148705218Y-91500778D01*
X148705218Y-91500776D01*
X148612419Y-91318650D01*
X148612287Y-91318390D01*
X148580092Y-91274077D01*
X148491971Y-91152786D01*
X148347213Y-91008028D01*
X148181613Y-90887715D01*
X148181612Y-90887714D01*
X148181610Y-90887713D01*
X148124653Y-90858691D01*
X147999223Y-90794781D01*
X147804534Y-90731522D01*
X147629995Y-90703878D01*
X147602352Y-90699500D01*
X147397648Y-90699500D01*
X147373329Y-90703351D01*
X147195465Y-90731522D01*
X147000776Y-90794781D01*
X146818386Y-90887715D01*
X146652786Y-91008028D01*
X146508028Y-91152786D01*
X146387715Y-91318386D01*
X146294781Y-91500776D01*
X146231522Y-91695465D01*
X146199500Y-91897648D01*
X146199500Y-92102351D01*
X146231522Y-92304534D01*
X146294781Y-92499223D01*
X146358691Y-92624653D01*
X146387585Y-92681359D01*
X146387715Y-92681613D01*
X146508028Y-92847213D01*
X146652786Y-92991971D01*
X146773226Y-93079474D01*
X146818390Y-93112287D01*
X146933509Y-93170943D01*
X147000776Y-93205218D01*
X147000778Y-93205218D01*
X147000781Y-93205220D01*
X147105137Y-93239127D01*
X147195465Y-93268477D01*
X147296557Y-93284488D01*
X147397648Y-93300500D01*
X147397649Y-93300500D01*
X147602351Y-93300500D01*
X147602352Y-93300500D01*
X147804534Y-93268477D01*
X147818842Y-93263827D01*
X147888682Y-93261831D01*
X147944842Y-93294077D01*
X148113181Y-93462416D01*
X148146666Y-93523739D01*
X148149500Y-93550097D01*
X148149500Y-96949902D01*
X148140853Y-96979349D01*
X148134329Y-97009334D01*
X148130577Y-97014345D01*
X148129815Y-97016941D01*
X148113177Y-97037587D01*
X148102176Y-97048587D01*
X148040852Y-97082069D01*
X147971160Y-97077082D01*
X147915229Y-97035208D01*
X147890815Y-96969742D01*
X147890499Y-96960928D01*
X147890499Y-95342128D01*
X147884091Y-95282517D01*
X147833796Y-95147669D01*
X147833795Y-95147668D01*
X147833793Y-95147664D01*
X147747547Y-95032455D01*
X147747544Y-95032452D01*
X147632335Y-94946206D01*
X147632328Y-94946202D01*
X147497482Y-94895908D01*
X147497483Y-94895908D01*
X147437883Y-94889501D01*
X147437881Y-94889500D01*
X147437873Y-94889500D01*
X147437864Y-94889500D01*
X144942129Y-94889500D01*
X144942123Y-94889501D01*
X144882516Y-94895908D01*
X144747671Y-94946202D01*
X144747664Y-94946206D01*
X144632455Y-95032452D01*
X144632452Y-95032455D01*
X144546206Y-95147664D01*
X144546202Y-95147671D01*
X144495908Y-95282517D01*
X144489501Y-95342116D01*
X144489501Y-95342123D01*
X144489500Y-95342135D01*
X144489500Y-97037870D01*
X144489501Y-97037876D01*
X144495908Y-97097483D01*
X144546202Y-97232328D01*
X144546206Y-97232335D01*
X144632452Y-97347544D01*
X144632455Y-97347547D01*
X144747664Y-97433793D01*
X144747671Y-97433797D01*
X144792618Y-97450561D01*
X144882517Y-97484091D01*
X144919441Y-97488060D01*
X144983989Y-97514796D01*
X145023838Y-97572188D01*
X145026333Y-97642013D01*
X144990681Y-97702102D01*
X144979071Y-97711666D01*
X144942784Y-97738030D01*
X144798028Y-97882786D01*
X144677715Y-98048386D01*
X144584781Y-98230776D01*
X144521522Y-98425465D01*
X144489500Y-98627648D01*
X144489500Y-98832351D01*
X144521522Y-99034534D01*
X144584781Y-99229223D01*
X144677715Y-99411613D01*
X144798028Y-99577213D01*
X144942786Y-99721971D01*
X145097749Y-99834556D01*
X145108390Y-99842287D01*
X145199840Y-99888883D01*
X145201080Y-99889515D01*
X145251876Y-99937490D01*
X145268671Y-100005311D01*
X145246134Y-100071446D01*
X145201080Y-100110485D01*
X145108386Y-100157715D01*
X144942786Y-100278028D01*
X144798028Y-100422786D01*
X144677715Y-100588386D01*
X144584781Y-100770776D01*
X144521522Y-100965465D01*
X144489500Y-101167648D01*
X144489500Y-101372351D01*
X144521522Y-101574534D01*
X144584781Y-101769223D01*
X144677715Y-101951613D01*
X144798028Y-102117213D01*
X144942786Y-102261971D01*
X145097749Y-102374556D01*
X145108390Y-102382287D01*
X145199840Y-102428883D01*
X145201080Y-102429515D01*
X145251876Y-102477490D01*
X145268671Y-102545311D01*
X145246134Y-102611446D01*
X145201080Y-102650485D01*
X145108386Y-102697715D01*
X144942786Y-102818028D01*
X144798028Y-102962786D01*
X144677715Y-103128386D01*
X144584781Y-103310776D01*
X144521522Y-103505465D01*
X144489500Y-103707648D01*
X144489500Y-103912351D01*
X144521522Y-104114534D01*
X144584781Y-104309223D01*
X144677715Y-104491613D01*
X144798028Y-104657213D01*
X144942786Y-104801971D01*
X145097749Y-104914556D01*
X145108390Y-104922287D01*
X145189499Y-104963614D01*
X145290776Y-105015218D01*
X145290778Y-105015218D01*
X145290781Y-105015220D01*
X145365818Y-105039601D01*
X145485465Y-105078477D01*
X145586557Y-105094488D01*
X145687648Y-105110500D01*
X146377770Y-105110500D01*
X146444809Y-105130185D01*
X146465451Y-105146819D01*
X148261181Y-106942548D01*
X148294666Y-107003871D01*
X148297500Y-107030229D01*
X148297500Y-124089770D01*
X148277815Y-124156809D01*
X148261181Y-124177451D01*
X147725451Y-124713181D01*
X147664128Y-124746666D01*
X147637770Y-124749500D01*
X143656560Y-124749500D01*
X143589521Y-124729815D01*
X143543766Y-124677011D01*
X143533822Y-124607853D01*
X143562847Y-124544297D01*
X143600265Y-124515015D01*
X143634022Y-124497815D01*
X143812365Y-124368242D01*
X143968242Y-124212365D01*
X144097815Y-124034022D01*
X144197895Y-123837606D01*
X144266015Y-123627951D01*
X144300500Y-123410222D01*
X144300500Y-123189778D01*
X144266015Y-122972049D01*
X144197895Y-122762394D01*
X144197895Y-122762393D01*
X144150041Y-122668477D01*
X144097815Y-122565978D01*
X144081260Y-122543192D01*
X143968247Y-122387641D01*
X143968243Y-122387636D01*
X143812363Y-122231756D01*
X143812358Y-122231752D01*
X143634025Y-122102187D01*
X143634024Y-122102186D01*
X143634022Y-122102185D01*
X143571096Y-122070122D01*
X143437606Y-122002104D01*
X143437603Y-122002103D01*
X143227952Y-121933985D01*
X143119086Y-121916742D01*
X143010222Y-121899500D01*
X143010221Y-121899500D01*
X142724500Y-121899500D01*
X142657461Y-121879815D01*
X142611706Y-121827011D01*
X142600500Y-121775500D01*
X142600500Y-117920945D01*
X142600500Y-117920943D01*
X142559577Y-117768216D01*
X142559577Y-117768215D01*
X142559577Y-117768214D01*
X142530639Y-117718095D01*
X142530637Y-117718092D01*
X142480520Y-117631284D01*
X142368716Y-117519480D01*
X142368715Y-117519479D01*
X142364385Y-117515149D01*
X142364374Y-117515139D01*
X138636819Y-113787584D01*
X138603334Y-113726261D01*
X138600500Y-113699903D01*
X138600500Y-107897682D01*
X144890000Y-107897682D01*
X144890000Y-108102317D01*
X144922009Y-108304417D01*
X144985244Y-108499031D01*
X145078141Y-108681350D01*
X145078147Y-108681359D01*
X145110523Y-108725921D01*
X145110524Y-108725922D01*
X145790000Y-108046446D01*
X145790000Y-108052661D01*
X145817259Y-108154394D01*
X145869920Y-108245606D01*
X145944394Y-108320080D01*
X146035606Y-108372741D01*
X146137339Y-108400000D01*
X146143553Y-108400000D01*
X145464076Y-109079474D01*
X145508650Y-109111859D01*
X145690968Y-109204755D01*
X145885582Y-109267990D01*
X146087683Y-109300000D01*
X146292317Y-109300000D01*
X146494417Y-109267990D01*
X146689031Y-109204755D01*
X146871349Y-109111859D01*
X146915921Y-109079474D01*
X146236447Y-108400000D01*
X146242661Y-108400000D01*
X146344394Y-108372741D01*
X146435606Y-108320080D01*
X146510080Y-108245606D01*
X146562741Y-108154394D01*
X146590000Y-108052661D01*
X146590000Y-108046448D01*
X147269474Y-108725922D01*
X147269474Y-108725921D01*
X147301859Y-108681349D01*
X147394755Y-108499031D01*
X147457990Y-108304417D01*
X147490000Y-108102317D01*
X147490000Y-107897682D01*
X147457990Y-107695582D01*
X147394755Y-107500968D01*
X147301859Y-107318650D01*
X147269474Y-107274077D01*
X147269474Y-107274076D01*
X146590000Y-107953551D01*
X146590000Y-107947339D01*
X146562741Y-107845606D01*
X146510080Y-107754394D01*
X146435606Y-107679920D01*
X146344394Y-107627259D01*
X146242661Y-107600000D01*
X146236446Y-107600000D01*
X146915922Y-106920524D01*
X146915921Y-106920523D01*
X146871359Y-106888147D01*
X146871350Y-106888141D01*
X146689031Y-106795244D01*
X146494417Y-106732009D01*
X146292317Y-106700000D01*
X146087683Y-106700000D01*
X145885582Y-106732009D01*
X145690968Y-106795244D01*
X145508644Y-106888143D01*
X145464077Y-106920523D01*
X145464077Y-106920524D01*
X146143554Y-107600000D01*
X146137339Y-107600000D01*
X146035606Y-107627259D01*
X145944394Y-107679920D01*
X145869920Y-107754394D01*
X145817259Y-107845606D01*
X145790000Y-107947339D01*
X145790000Y-107953553D01*
X145110524Y-107274077D01*
X145110523Y-107274077D01*
X145078143Y-107318644D01*
X144985244Y-107500968D01*
X144922009Y-107695582D01*
X144890000Y-107897682D01*
X138600500Y-107897682D01*
X138600500Y-105039601D01*
X138620185Y-104972562D01*
X138668206Y-104929116D01*
X138681610Y-104922287D01*
X138847219Y-104801966D01*
X138991966Y-104657219D01*
X138991968Y-104657215D01*
X138991971Y-104657213D01*
X139044732Y-104584590D01*
X139112287Y-104491610D01*
X139205220Y-104309219D01*
X139268477Y-104114534D01*
X139300500Y-103912352D01*
X139300500Y-103707648D01*
X140699500Y-103707648D01*
X140699500Y-103912351D01*
X140731522Y-104114534D01*
X140794781Y-104309223D01*
X140887715Y-104491613D01*
X141008028Y-104657213D01*
X141152786Y-104801971D01*
X141307749Y-104914556D01*
X141318390Y-104922287D01*
X141399499Y-104963614D01*
X141500776Y-105015218D01*
X141500778Y-105015218D01*
X141500781Y-105015220D01*
X141575818Y-105039601D01*
X141695465Y-105078477D01*
X141796557Y-105094488D01*
X141897648Y-105110500D01*
X141897649Y-105110500D01*
X142102351Y-105110500D01*
X142102352Y-105110500D01*
X142304534Y-105078477D01*
X142499219Y-105015220D01*
X142681610Y-104922287D01*
X142774590Y-104854732D01*
X142847213Y-104801971D01*
X142847215Y-104801968D01*
X142847219Y-104801966D01*
X142991966Y-104657219D01*
X142991968Y-104657215D01*
X142991971Y-104657213D01*
X143044732Y-104584590D01*
X143112287Y-104491610D01*
X143205220Y-104309219D01*
X143268477Y-104114534D01*
X143300500Y-103912352D01*
X143300500Y-103707648D01*
X143268477Y-103505466D01*
X143205220Y-103310781D01*
X143205218Y-103310778D01*
X143205218Y-103310776D01*
X143171503Y-103244607D01*
X143112287Y-103128390D01*
X143104556Y-103117749D01*
X142991971Y-102962786D01*
X142847213Y-102818028D01*
X142681613Y-102697715D01*
X142681612Y-102697714D01*
X142681610Y-102697713D01*
X142624653Y-102668691D01*
X142499223Y-102604781D01*
X142304534Y-102541522D01*
X142129995Y-102513878D01*
X142102352Y-102509500D01*
X141897648Y-102509500D01*
X141873329Y-102513351D01*
X141695465Y-102541522D01*
X141500776Y-102604781D01*
X141318386Y-102697715D01*
X141152786Y-102818028D01*
X141008028Y-102962786D01*
X140887715Y-103128386D01*
X140794781Y-103310776D01*
X140731522Y-103505465D01*
X140699500Y-103707648D01*
X139300500Y-103707648D01*
X139268477Y-103505466D01*
X139205220Y-103310781D01*
X139205218Y-103310778D01*
X139205218Y-103310776D01*
X139171503Y-103244607D01*
X139112287Y-103128390D01*
X139104556Y-103117749D01*
X138991971Y-102962786D01*
X138847213Y-102818028D01*
X138681613Y-102697715D01*
X138681612Y-102697714D01*
X138681610Y-102697713D01*
X138624653Y-102668691D01*
X138499223Y-102604781D01*
X138304534Y-102541522D01*
X138129995Y-102513878D01*
X138102352Y-102509500D01*
X137897648Y-102509500D01*
X137873329Y-102513351D01*
X137695465Y-102541522D01*
X137500776Y-102604781D01*
X137318386Y-102697715D01*
X137152786Y-102818028D01*
X137008028Y-102962786D01*
X136887715Y-103128386D01*
X136794781Y-103310776D01*
X136731522Y-103505465D01*
X136699500Y-103707648D01*
X135500500Y-103707648D01*
X135500500Y-96087648D01*
X136699500Y-96087648D01*
X136699500Y-96292351D01*
X136731522Y-96494534D01*
X136794781Y-96689223D01*
X136887715Y-96871613D01*
X137008028Y-97037213D01*
X137152786Y-97181971D01*
X137307749Y-97294556D01*
X137318390Y-97302287D01*
X137407212Y-97347544D01*
X137500776Y-97395218D01*
X137500778Y-97395218D01*
X137500781Y-97395220D01*
X137605137Y-97429127D01*
X137695465Y-97458477D01*
X137714697Y-97461523D01*
X137897648Y-97490500D01*
X137897649Y-97490500D01*
X138102351Y-97490500D01*
X138102352Y-97490500D01*
X138304534Y-97458477D01*
X138499219Y-97395220D01*
X138681610Y-97302287D01*
X138777901Y-97232328D01*
X138847213Y-97181971D01*
X138847215Y-97181968D01*
X138847219Y-97181966D01*
X138991966Y-97037219D01*
X138991968Y-97037215D01*
X138991971Y-97037213D01*
X139055405Y-96949902D01*
X139112287Y-96871610D01*
X139205220Y-96689219D01*
X139268477Y-96494534D01*
X139300500Y-96292352D01*
X139300500Y-96087648D01*
X140699500Y-96087648D01*
X140699500Y-96292351D01*
X140731522Y-96494534D01*
X140794781Y-96689223D01*
X140887715Y-96871613D01*
X141008028Y-97037213D01*
X141152786Y-97181971D01*
X141307749Y-97294556D01*
X141318390Y-97302287D01*
X141407212Y-97347544D01*
X141500776Y-97395218D01*
X141500778Y-97395218D01*
X141500781Y-97395220D01*
X141605137Y-97429127D01*
X141695465Y-97458477D01*
X141714697Y-97461523D01*
X141897648Y-97490500D01*
X141897649Y-97490500D01*
X142102351Y-97490500D01*
X142102352Y-97490500D01*
X142304534Y-97458477D01*
X142499219Y-97395220D01*
X142681610Y-97302287D01*
X142777901Y-97232328D01*
X142847213Y-97181971D01*
X142847215Y-97181968D01*
X142847219Y-97181966D01*
X142991966Y-97037219D01*
X142991968Y-97037215D01*
X142991971Y-97037213D01*
X143055405Y-96949902D01*
X143112287Y-96871610D01*
X143205220Y-96689219D01*
X143268477Y-96494534D01*
X143300500Y-96292352D01*
X143300500Y-96087648D01*
X143268477Y-95885466D01*
X143205220Y-95690781D01*
X143205218Y-95690778D01*
X143205218Y-95690776D01*
X143171503Y-95624607D01*
X143112287Y-95508390D01*
X143104556Y-95497749D01*
X142991971Y-95342786D01*
X142847213Y-95198028D01*
X142681613Y-95077715D01*
X142681612Y-95077714D01*
X142681610Y-95077713D01*
X142624653Y-95048691D01*
X142499223Y-94984781D01*
X142304534Y-94921522D01*
X142129995Y-94893878D01*
X142102352Y-94889500D01*
X141897648Y-94889500D01*
X141873329Y-94893351D01*
X141695465Y-94921522D01*
X141500776Y-94984781D01*
X141318386Y-95077715D01*
X141152786Y-95198028D01*
X141008028Y-95342786D01*
X140887715Y-95508386D01*
X140794781Y-95690776D01*
X140731522Y-95885465D01*
X140699500Y-96087648D01*
X139300500Y-96087648D01*
X139268477Y-95885466D01*
X139205220Y-95690781D01*
X139205218Y-95690778D01*
X139205218Y-95690776D01*
X139171503Y-95624607D01*
X139112287Y-95508390D01*
X139104556Y-95497749D01*
X138991971Y-95342786D01*
X138847213Y-95198028D01*
X138681613Y-95077715D01*
X138681612Y-95077714D01*
X138681610Y-95077713D01*
X138624653Y-95048691D01*
X138499223Y-94984781D01*
X138304534Y-94921522D01*
X138129995Y-94893878D01*
X138102352Y-94889500D01*
X137897648Y-94889500D01*
X137873329Y-94893351D01*
X137695465Y-94921522D01*
X137500776Y-94984781D01*
X137318386Y-95077715D01*
X137152786Y-95198028D01*
X137008028Y-95342786D01*
X136887715Y-95508386D01*
X136794781Y-95690776D01*
X136731522Y-95885465D01*
X136699500Y-96087648D01*
X135500500Y-96087648D01*
X135500500Y-69794038D01*
X140399500Y-69794038D01*
X140399500Y-70045961D01*
X140438910Y-70294785D01*
X140516760Y-70534383D01*
X140631132Y-70758848D01*
X140779201Y-70962649D01*
X140779205Y-70962654D01*
X140957345Y-71140794D01*
X140957350Y-71140798D01*
X141135117Y-71269952D01*
X141161155Y-71288870D01*
X141304184Y-71361747D01*
X141385616Y-71403239D01*
X141385618Y-71403239D01*
X141385621Y-71403241D01*
X141625215Y-71481090D01*
X141874038Y-71520500D01*
X141874039Y-71520500D01*
X142125961Y-71520500D01*
X142125962Y-71520500D01*
X142374785Y-71481090D01*
X142374788Y-71481089D01*
X142374789Y-71481089D01*
X142556926Y-71421909D01*
X142626767Y-71419914D01*
X142682925Y-71452159D01*
X157413181Y-86182415D01*
X157446666Y-86243738D01*
X157449500Y-86270096D01*
X157449500Y-94960397D01*
X157429815Y-95027436D01*
X157381800Y-95070879D01*
X157368389Y-95077712D01*
X157202786Y-95198028D01*
X157058028Y-95342786D01*
X156937715Y-95508386D01*
X156844781Y-95690776D01*
X156781522Y-95885465D01*
X156749500Y-96087648D01*
X156749500Y-96292351D01*
X156781522Y-96494534D01*
X156844781Y-96689223D01*
X156937715Y-96871613D01*
X157058028Y-97037213D01*
X157202786Y-97181971D01*
X157357749Y-97294556D01*
X157368390Y-97302287D01*
X157457212Y-97347544D01*
X157550776Y-97395218D01*
X157550778Y-97395218D01*
X157550781Y-97395220D01*
X157655137Y-97429127D01*
X157745465Y-97458477D01*
X157764697Y-97461523D01*
X157947648Y-97490500D01*
X157947649Y-97490500D01*
X158152351Y-97490500D01*
X158152352Y-97490500D01*
X158354534Y-97458477D01*
X158549219Y-97395220D01*
X158731610Y-97302287D01*
X158827901Y-97232328D01*
X158897213Y-97181971D01*
X158897215Y-97181968D01*
X158897219Y-97181966D01*
X159041966Y-97037219D01*
X159041968Y-97037215D01*
X159041971Y-97037213D01*
X159105405Y-96949902D01*
X159162287Y-96871610D01*
X159255220Y-96689219D01*
X159318477Y-96494534D01*
X159350500Y-96292352D01*
X159350500Y-96087648D01*
X159318477Y-95885466D01*
X159255220Y-95690781D01*
X159255218Y-95690778D01*
X159255218Y-95690776D01*
X159221503Y-95624607D01*
X159162287Y-95508390D01*
X159154556Y-95497749D01*
X159041971Y-95342786D01*
X158897213Y-95198028D01*
X158731610Y-95077712D01*
X158718200Y-95070879D01*
X158667406Y-95022903D01*
X158650500Y-94960397D01*
X158650500Y-86059059D01*
X158650501Y-86059046D01*
X158650501Y-85890943D01*
X158609576Y-85738213D01*
X158609573Y-85738208D01*
X158530524Y-85601289D01*
X158530518Y-85601281D01*
X143532159Y-70602923D01*
X143498674Y-70541600D01*
X143501908Y-70476925D01*
X143561090Y-70294785D01*
X143600500Y-70045962D01*
X143600500Y-69794038D01*
X156399500Y-69794038D01*
X156399500Y-70045961D01*
X156438910Y-70294785D01*
X156516760Y-70534383D01*
X156631132Y-70758848D01*
X156779201Y-70962649D01*
X156779205Y-70962654D01*
X156957345Y-71140794D01*
X156957350Y-71140798D01*
X157135117Y-71269952D01*
X157161155Y-71288870D01*
X157304184Y-71361747D01*
X157385616Y-71403239D01*
X157385618Y-71403239D01*
X157385621Y-71403241D01*
X157625215Y-71481090D01*
X157874038Y-71520500D01*
X157874039Y-71520500D01*
X158125961Y-71520500D01*
X158125962Y-71520500D01*
X158374785Y-71481090D01*
X158374788Y-71481089D01*
X158374789Y-71481089D01*
X158556926Y-71421909D01*
X158626767Y-71419914D01*
X158682925Y-71452159D01*
X161363181Y-74132415D01*
X161396666Y-74193738D01*
X161399500Y-74220096D01*
X161399500Y-94960397D01*
X161379815Y-95027436D01*
X161331800Y-95070879D01*
X161318389Y-95077712D01*
X161152786Y-95198028D01*
X161008028Y-95342786D01*
X160887715Y-95508386D01*
X160794781Y-95690776D01*
X160731522Y-95885465D01*
X160699500Y-96087648D01*
X160699500Y-96292351D01*
X160731522Y-96494534D01*
X160794781Y-96689223D01*
X160887715Y-96871613D01*
X161008028Y-97037213D01*
X161152786Y-97181971D01*
X161307749Y-97294556D01*
X161318390Y-97302287D01*
X161407212Y-97347544D01*
X161500776Y-97395218D01*
X161500778Y-97395218D01*
X161500781Y-97395220D01*
X161605137Y-97429127D01*
X161695465Y-97458477D01*
X161714697Y-97461523D01*
X161897648Y-97490500D01*
X161897649Y-97490500D01*
X162102351Y-97490500D01*
X162102352Y-97490500D01*
X162304534Y-97458477D01*
X162499219Y-97395220D01*
X162681610Y-97302287D01*
X162777901Y-97232328D01*
X162847213Y-97181971D01*
X162847215Y-97181968D01*
X162847219Y-97181966D01*
X162991966Y-97037219D01*
X162991968Y-97037215D01*
X162991971Y-97037213D01*
X163055405Y-96949902D01*
X163112287Y-96871610D01*
X163205220Y-96689219D01*
X163268477Y-96494534D01*
X163300500Y-96292352D01*
X163300500Y-96087648D01*
X163268477Y-95885466D01*
X163205220Y-95690781D01*
X163205218Y-95690778D01*
X163205218Y-95690776D01*
X163171503Y-95624607D01*
X163112287Y-95508390D01*
X163104556Y-95497749D01*
X162991971Y-95342786D01*
X162847213Y-95198028D01*
X162681610Y-95077712D01*
X162668200Y-95070879D01*
X162617406Y-95022903D01*
X162600500Y-94960397D01*
X162600500Y-73840944D01*
X162600500Y-73840942D01*
X162559577Y-73688215D01*
X162559577Y-73688214D01*
X162559577Y-73688213D01*
X162530639Y-73638094D01*
X162530637Y-73638091D01*
X162480520Y-73551283D01*
X162368716Y-73439479D01*
X162368715Y-73439478D01*
X162364385Y-73435148D01*
X162364374Y-73435138D01*
X159532159Y-70602923D01*
X159498674Y-70541600D01*
X159501908Y-70476925D01*
X159561090Y-70294785D01*
X159600500Y-70045962D01*
X159600500Y-69794038D01*
X159561090Y-69545215D01*
X159483241Y-69305621D01*
X159483239Y-69305618D01*
X159483239Y-69305616D01*
X159441747Y-69224184D01*
X159368870Y-69081155D01*
X159349952Y-69055117D01*
X159220798Y-68877350D01*
X159220794Y-68877345D01*
X159042654Y-68699205D01*
X159042649Y-68699201D01*
X158838848Y-68551132D01*
X158838847Y-68551131D01*
X158838845Y-68551130D01*
X158768747Y-68515413D01*
X158614383Y-68436760D01*
X158374785Y-68358910D01*
X158125962Y-68319500D01*
X157874038Y-68319500D01*
X157749626Y-68339205D01*
X157625214Y-68358910D01*
X157385616Y-68436760D01*
X157161151Y-68551132D01*
X156957350Y-68699201D01*
X156957345Y-68699205D01*
X156779205Y-68877345D01*
X156779201Y-68877350D01*
X156631132Y-69081151D01*
X156516760Y-69305616D01*
X156438910Y-69545214D01*
X156399500Y-69794038D01*
X143600500Y-69794038D01*
X143561090Y-69545215D01*
X143483241Y-69305621D01*
X143483239Y-69305618D01*
X143483239Y-69305616D01*
X143441747Y-69224184D01*
X143368870Y-69081155D01*
X143349952Y-69055117D01*
X143220798Y-68877350D01*
X143220794Y-68877345D01*
X143042654Y-68699205D01*
X143042649Y-68699201D01*
X142838848Y-68551132D01*
X142838847Y-68551131D01*
X142838845Y-68551130D01*
X142768747Y-68515413D01*
X142614383Y-68436760D01*
X142374785Y-68358910D01*
X142125962Y-68319500D01*
X141874038Y-68319500D01*
X141749626Y-68339205D01*
X141625214Y-68358910D01*
X141385616Y-68436760D01*
X141161151Y-68551132D01*
X140957350Y-68699201D01*
X140957345Y-68699205D01*
X140779205Y-68877345D01*
X140779201Y-68877350D01*
X140631132Y-69081151D01*
X140516760Y-69305616D01*
X140438910Y-69545214D01*
X140399500Y-69794038D01*
X135500500Y-69794038D01*
X135500500Y-64963225D01*
X140495307Y-64963225D01*
X140509507Y-65209474D01*
X140509507Y-65209479D01*
X140563731Y-65450092D01*
X140656533Y-65678636D01*
X140785412Y-65888947D01*
X140860393Y-65975507D01*
X140946908Y-66075382D01*
X141136687Y-66232939D01*
X141136690Y-66232941D01*
X141136696Y-66232945D01*
X141349650Y-66357385D01*
X141580072Y-66445375D01*
X141580075Y-66445375D01*
X141580079Y-66445377D01*
X141821785Y-66494553D01*
X142068278Y-66503592D01*
X142312936Y-66472250D01*
X142549191Y-66401370D01*
X142770697Y-66292856D01*
X142971505Y-66149621D01*
X143146223Y-65975512D01*
X143290158Y-65775205D01*
X143399445Y-65554079D01*
X143471149Y-65318074D01*
X143503344Y-65073526D01*
X143505141Y-65000000D01*
X143505112Y-64999653D01*
X143503123Y-64975443D01*
X143502118Y-64963225D01*
X156495307Y-64963225D01*
X156509507Y-65209474D01*
X156509507Y-65209479D01*
X156563731Y-65450092D01*
X156656533Y-65678636D01*
X156785412Y-65888947D01*
X156860393Y-65975507D01*
X156946908Y-66075382D01*
X157136687Y-66232939D01*
X157136690Y-66232941D01*
X157136696Y-66232945D01*
X157349650Y-66357385D01*
X157580072Y-66445375D01*
X157580075Y-66445375D01*
X157580079Y-66445377D01*
X157821785Y-66494553D01*
X158068278Y-66503592D01*
X158312936Y-66472250D01*
X158549191Y-66401370D01*
X158770697Y-66292856D01*
X158971505Y-66149621D01*
X159146223Y-65975512D01*
X159290158Y-65775205D01*
X159399445Y-65554079D01*
X159471149Y-65318074D01*
X159503344Y-65073526D01*
X159505141Y-65000000D01*
X159484930Y-64754171D01*
X159424841Y-64514945D01*
X159326486Y-64288744D01*
X159192508Y-64081645D01*
X159026504Y-63899210D01*
X158832932Y-63746336D01*
X158616991Y-63627130D01*
X158616982Y-63627126D01*
X158384491Y-63544796D01*
X158384471Y-63544791D01*
X158141644Y-63501538D01*
X158141652Y-63501538D01*
X157900496Y-63498592D01*
X157895007Y-63498525D01*
X157895006Y-63498525D01*
X157895005Y-63498525D01*
X157895004Y-63498525D01*
X157651190Y-63535834D01*
X157651180Y-63535837D01*
X157416732Y-63612466D01*
X157197951Y-63726356D01*
X157197948Y-63726358D01*
X157000698Y-63874456D01*
X156830289Y-64052779D01*
X156830279Y-64052792D01*
X156691287Y-64256547D01*
X156691285Y-64256552D01*
X156587439Y-64480268D01*
X156587436Y-64480276D01*
X156521520Y-64717960D01*
X156521519Y-64717967D01*
X156495307Y-64963225D01*
X143502118Y-64963225D01*
X143492879Y-64850862D01*
X143484930Y-64754171D01*
X143424841Y-64514945D01*
X143326486Y-64288744D01*
X143192508Y-64081645D01*
X143026504Y-63899210D01*
X142832932Y-63746336D01*
X142616991Y-63627130D01*
X142616982Y-63627126D01*
X142384491Y-63544796D01*
X142384471Y-63544791D01*
X142141644Y-63501538D01*
X142141652Y-63501538D01*
X141900496Y-63498592D01*
X141895007Y-63498525D01*
X141895006Y-63498525D01*
X141895005Y-63498525D01*
X141895004Y-63498525D01*
X141651190Y-63535834D01*
X141651180Y-63535837D01*
X141416732Y-63612466D01*
X141197951Y-63726356D01*
X141197948Y-63726358D01*
X141000698Y-63874456D01*
X140830289Y-64052779D01*
X140830279Y-64052792D01*
X140691287Y-64256547D01*
X140691285Y-64256552D01*
X140587439Y-64480268D01*
X140587436Y-64480276D01*
X140521520Y-64717960D01*
X140521519Y-64717967D01*
X140495307Y-64963225D01*
X135500500Y-64963225D01*
X135500500Y-61494071D01*
X140400000Y-61494071D01*
X140400000Y-61745928D01*
X140439397Y-61994669D01*
X140517219Y-62234184D01*
X140631557Y-62458583D01*
X140705748Y-62560697D01*
X140705748Y-62560698D01*
X141435387Y-61831059D01*
X141440889Y-61851591D01*
X141519881Y-61988408D01*
X141631592Y-62100119D01*
X141768409Y-62179111D01*
X141788940Y-62184612D01*
X141059300Y-62914250D01*
X141161416Y-62988442D01*
X141385815Y-63102780D01*
X141625330Y-63180602D01*
X141874072Y-63220000D01*
X142125928Y-63220000D01*
X142374669Y-63180602D01*
X142614184Y-63102780D01*
X142838575Y-62988446D01*
X142838581Y-62988442D01*
X142940697Y-62914250D01*
X142940698Y-62914250D01*
X142211059Y-62184612D01*
X142231591Y-62179111D01*
X142368408Y-62100119D01*
X142480119Y-61988408D01*
X142559111Y-61851591D01*
X142564612Y-61831059D01*
X143294250Y-62560698D01*
X143294250Y-62560697D01*
X143368442Y-62458581D01*
X143368446Y-62458575D01*
X143482780Y-62234184D01*
X143560602Y-61994669D01*
X143600000Y-61745928D01*
X143600000Y-61494071D01*
X156400000Y-61494071D01*
X156400000Y-61745928D01*
X156439397Y-61994669D01*
X156517219Y-62234184D01*
X156631557Y-62458583D01*
X156705748Y-62560697D01*
X156705748Y-62560698D01*
X157435387Y-61831059D01*
X157440889Y-61851591D01*
X157519881Y-61988408D01*
X157631592Y-62100119D01*
X157768409Y-62179111D01*
X157788940Y-62184612D01*
X157059300Y-62914250D01*
X157161416Y-62988442D01*
X157385815Y-63102780D01*
X157625330Y-63180602D01*
X157874072Y-63220000D01*
X158125928Y-63220000D01*
X158374669Y-63180602D01*
X158614184Y-63102780D01*
X158838575Y-62988446D01*
X158838581Y-62988442D01*
X158940697Y-62914250D01*
X158940698Y-62914250D01*
X158211059Y-62184612D01*
X158231591Y-62179111D01*
X158368408Y-62100119D01*
X158480119Y-61988408D01*
X158559111Y-61851591D01*
X158564612Y-61831060D01*
X159294250Y-62560698D01*
X159294250Y-62560697D01*
X159368442Y-62458581D01*
X159368446Y-62458575D01*
X159482780Y-62234184D01*
X159560602Y-61994669D01*
X159600000Y-61745928D01*
X159600000Y-61494071D01*
X159560602Y-61245330D01*
X159482780Y-61005815D01*
X159368442Y-60781416D01*
X159294250Y-60679301D01*
X159294250Y-60679300D01*
X158564612Y-61408939D01*
X158559111Y-61388409D01*
X158480119Y-61251592D01*
X158368408Y-61139881D01*
X158231591Y-61060889D01*
X158211058Y-61055387D01*
X158940698Y-60325748D01*
X158838584Y-60251558D01*
X158835601Y-60249730D01*
X158834704Y-60248739D01*
X158834641Y-60248693D01*
X158834650Y-60248679D01*
X158788724Y-60197920D01*
X158777299Y-60128991D01*
X158804953Y-60064827D01*
X158862907Y-60025800D01*
X158900387Y-60020000D01*
X159047828Y-60020000D01*
X159047844Y-60019999D01*
X159107372Y-60013598D01*
X159107379Y-60013596D01*
X159242086Y-59963354D01*
X159242093Y-59963350D01*
X159357187Y-59877190D01*
X159357190Y-59877187D01*
X159443350Y-59762093D01*
X159443354Y-59762086D01*
X159493596Y-59627379D01*
X159493598Y-59627372D01*
X159499999Y-59567844D01*
X159500000Y-59567827D01*
X159500000Y-58770000D01*
X158548482Y-58770000D01*
X158559111Y-58751591D01*
X158600000Y-58598991D01*
X158600000Y-58441009D01*
X158559111Y-58288409D01*
X158548482Y-58270000D01*
X159500000Y-58270000D01*
X159500000Y-57472172D01*
X159499999Y-57472155D01*
X159493598Y-57412627D01*
X159493596Y-57412620D01*
X159443354Y-57277913D01*
X159443350Y-57277906D01*
X159357190Y-57162812D01*
X159357187Y-57162809D01*
X159242093Y-57076649D01*
X159242086Y-57076645D01*
X159107379Y-57026403D01*
X159107372Y-57026401D01*
X159047844Y-57020000D01*
X158250000Y-57020000D01*
X158250000Y-57971517D01*
X158231591Y-57960889D01*
X158078991Y-57920000D01*
X157921009Y-57920000D01*
X157768409Y-57960889D01*
X157750000Y-57971517D01*
X157750000Y-57020000D01*
X156952155Y-57020000D01*
X156892627Y-57026401D01*
X156892620Y-57026403D01*
X156757913Y-57076645D01*
X156757906Y-57076649D01*
X156642812Y-57162809D01*
X156642809Y-57162812D01*
X156556649Y-57277906D01*
X156556645Y-57277913D01*
X156506403Y-57412620D01*
X156506401Y-57412627D01*
X156500000Y-57472155D01*
X156500000Y-58270000D01*
X157451518Y-58270000D01*
X157440889Y-58288409D01*
X157400000Y-58441009D01*
X157400000Y-58598991D01*
X157440889Y-58751591D01*
X157451518Y-58770000D01*
X156500000Y-58770000D01*
X156500000Y-59567844D01*
X156506401Y-59627372D01*
X156506403Y-59627379D01*
X156556645Y-59762086D01*
X156556649Y-59762093D01*
X156642809Y-59877187D01*
X156642812Y-59877190D01*
X156757906Y-59963350D01*
X156757913Y-59963354D01*
X156892620Y-60013596D01*
X156892627Y-60013598D01*
X156952155Y-60019999D01*
X156952172Y-60020000D01*
X157099613Y-60020000D01*
X157166652Y-60039685D01*
X157212407Y-60092489D01*
X157222351Y-60161647D01*
X157193326Y-60225203D01*
X157164399Y-60249730D01*
X157161408Y-60251562D01*
X157059301Y-60325747D01*
X157059300Y-60325748D01*
X157788940Y-61055387D01*
X157768409Y-61060889D01*
X157631592Y-61139881D01*
X157519881Y-61251592D01*
X157440889Y-61388409D01*
X157435387Y-61408940D01*
X156705748Y-60679300D01*
X156705747Y-60679301D01*
X156631559Y-60781413D01*
X156517219Y-61005815D01*
X156439397Y-61245330D01*
X156400000Y-61494071D01*
X143600000Y-61494071D01*
X143560602Y-61245330D01*
X143482780Y-61005815D01*
X143368442Y-60781416D01*
X143294250Y-60679301D01*
X143294250Y-60679300D01*
X142564612Y-61408939D01*
X142559111Y-61388409D01*
X142480119Y-61251592D01*
X142368408Y-61139881D01*
X142231591Y-61060889D01*
X142211058Y-61055387D01*
X142940698Y-60325748D01*
X142838584Y-60251558D01*
X142835601Y-60249730D01*
X142834704Y-60248739D01*
X142834641Y-60248693D01*
X142834650Y-60248679D01*
X142788724Y-60197920D01*
X142777299Y-60128991D01*
X142804953Y-60064827D01*
X142862907Y-60025800D01*
X142900387Y-60020000D01*
X143047828Y-60020000D01*
X143047844Y-60019999D01*
X143107372Y-60013598D01*
X143107379Y-60013596D01*
X143242086Y-59963354D01*
X143242093Y-59963350D01*
X143357187Y-59877190D01*
X143357190Y-59877187D01*
X143443350Y-59762093D01*
X143443354Y-59762086D01*
X143493596Y-59627379D01*
X143493598Y-59627372D01*
X143499999Y-59567844D01*
X143500000Y-59567827D01*
X143500000Y-58770000D01*
X142548482Y-58770000D01*
X142559111Y-58751591D01*
X142600000Y-58598991D01*
X142600000Y-58441009D01*
X142559111Y-58288409D01*
X142548482Y-58270000D01*
X143500000Y-58270000D01*
X143500000Y-57472172D01*
X143499999Y-57472155D01*
X143493598Y-57412627D01*
X143493596Y-57412620D01*
X143443354Y-57277913D01*
X143443350Y-57277906D01*
X143357190Y-57162812D01*
X143357187Y-57162809D01*
X143242093Y-57076649D01*
X143242086Y-57076645D01*
X143107379Y-57026403D01*
X143107372Y-57026401D01*
X143047844Y-57020000D01*
X142250000Y-57020000D01*
X142250000Y-57971517D01*
X142231591Y-57960889D01*
X142078991Y-57920000D01*
X141921009Y-57920000D01*
X141768409Y-57960889D01*
X141750000Y-57971517D01*
X141750000Y-57020000D01*
X140952155Y-57020000D01*
X140892627Y-57026401D01*
X140892620Y-57026403D01*
X140757913Y-57076645D01*
X140757906Y-57076649D01*
X140642812Y-57162809D01*
X140642809Y-57162812D01*
X140556649Y-57277906D01*
X140556645Y-57277913D01*
X140506403Y-57412620D01*
X140506401Y-57412627D01*
X140500000Y-57472155D01*
X140500000Y-58270000D01*
X141451518Y-58270000D01*
X141440889Y-58288409D01*
X141400000Y-58441009D01*
X141400000Y-58598991D01*
X141440889Y-58751591D01*
X141451518Y-58770000D01*
X140500000Y-58770000D01*
X140500000Y-59567844D01*
X140506401Y-59627372D01*
X140506403Y-59627379D01*
X140556645Y-59762086D01*
X140556649Y-59762093D01*
X140642809Y-59877187D01*
X140642812Y-59877190D01*
X140757906Y-59963350D01*
X140757913Y-59963354D01*
X140892620Y-60013596D01*
X140892627Y-60013598D01*
X140952155Y-60019999D01*
X140952172Y-60020000D01*
X141099613Y-60020000D01*
X141166652Y-60039685D01*
X141212407Y-60092489D01*
X141222351Y-60161647D01*
X141193326Y-60225203D01*
X141164399Y-60249730D01*
X141161408Y-60251562D01*
X141059301Y-60325747D01*
X141059300Y-60325748D01*
X141788940Y-61055387D01*
X141768409Y-61060889D01*
X141631592Y-61139881D01*
X141519881Y-61251592D01*
X141440889Y-61388409D01*
X141435387Y-61408940D01*
X140705748Y-60679300D01*
X140705747Y-60679301D01*
X140631559Y-60781413D01*
X140517219Y-61005815D01*
X140439397Y-61245330D01*
X140400000Y-61494071D01*
X135500500Y-61494071D01*
X135500500Y-53003733D01*
X135500726Y-52996246D01*
X135518271Y-52706205D01*
X135520076Y-52691340D01*
X135571780Y-52409201D01*
X135575364Y-52394663D01*
X135652096Y-52148422D01*
X135660696Y-52120822D01*
X135665998Y-52106841D01*
X135783731Y-51845249D01*
X135790676Y-51832016D01*
X135939080Y-51586526D01*
X135947567Y-51574230D01*
X136124480Y-51348417D01*
X136134395Y-51337226D01*
X136337226Y-51134395D01*
X136348417Y-51124480D01*
X136574230Y-50947567D01*
X136586526Y-50939080D01*
X136832016Y-50790676D01*
X136845249Y-50783731D01*
X137106841Y-50665998D01*
X137120822Y-50660696D01*
X137394668Y-50575362D01*
X137409197Y-50571780D01*
X137691344Y-50520075D01*
X137706201Y-50518271D01*
X137996264Y-50500726D01*
X138003751Y-50500500D01*
X138065892Y-50500500D01*
X161934108Y-50500500D01*
X161996249Y-50500500D01*
X162003736Y-50500726D01*
G37*
%TD.AperFunction*%
%TD*%
%TA.AperFunction,NonConductor*%
G36*
X146947174Y-126270185D02*
G01*
X146992929Y-126322989D01*
X147002873Y-126392147D01*
X146973848Y-126455703D01*
X146967816Y-126462181D01*
X146066816Y-127363181D01*
X146005493Y-127396666D01*
X145979135Y-127399500D01*
X144241836Y-127399500D01*
X144174797Y-127379815D01*
X144131352Y-127331796D01*
X144097814Y-127265976D01*
X143968247Y-127087641D01*
X143968243Y-127087636D01*
X143812363Y-126931756D01*
X143812358Y-126931752D01*
X143634025Y-126802187D01*
X143634024Y-126802186D01*
X143634022Y-126802185D01*
X143571096Y-126770122D01*
X143437606Y-126702104D01*
X143437603Y-126702103D01*
X143227952Y-126633985D01*
X143119086Y-126616742D01*
X143010222Y-126599500D01*
X140989778Y-126599500D01*
X140947596Y-126606181D01*
X140772047Y-126633985D01*
X140752706Y-126640269D01*
X140682865Y-126642262D01*
X140623033Y-126606181D01*
X140592207Y-126543479D01*
X140600173Y-126474065D01*
X140626705Y-126434661D01*
X140774550Y-126286816D01*
X140835871Y-126253334D01*
X140862229Y-126250500D01*
X146880135Y-126250500D01*
X146947174Y-126270185D01*
G37*
%TD.AperFunction*%
%TA.AperFunction,NonConductor*%
G36*
X149318834Y-125912146D02*
G01*
X149374767Y-125954018D01*
X149399184Y-126019482D01*
X149399500Y-126028328D01*
X149399500Y-127699902D01*
X149379815Y-127766941D01*
X149363181Y-127787583D01*
X145087584Y-132063181D01*
X145026261Y-132096666D01*
X144999903Y-132099500D01*
X144241836Y-132099500D01*
X144174797Y-132079815D01*
X144131352Y-132031796D01*
X144097814Y-131965976D01*
X143968247Y-131787641D01*
X143968243Y-131787636D01*
X143812363Y-131631756D01*
X143812358Y-131631752D01*
X143634025Y-131502187D01*
X143634024Y-131502186D01*
X143634022Y-131502185D01*
X143571096Y-131470122D01*
X143437606Y-131402104D01*
X143437603Y-131402103D01*
X143227952Y-131333985D01*
X143119086Y-131316742D01*
X143010222Y-131299500D01*
X140989778Y-131299500D01*
X140917201Y-131310995D01*
X140772047Y-131333985D01*
X140562396Y-131402103D01*
X140562393Y-131402104D01*
X140365974Y-131502187D01*
X140187641Y-131631752D01*
X140187636Y-131631756D01*
X140031756Y-131787636D01*
X140031752Y-131787641D01*
X139974818Y-131866005D01*
X139919488Y-131908671D01*
X139849875Y-131914650D01*
X139788080Y-131882044D01*
X139753723Y-131821206D01*
X139750500Y-131793120D01*
X139750500Y-128906879D01*
X139770185Y-128839840D01*
X139822989Y-128794085D01*
X139892147Y-128784141D01*
X139955703Y-128813166D01*
X139974816Y-128833991D01*
X139979066Y-128839840D01*
X140031758Y-128912365D01*
X140187636Y-129068243D01*
X140187641Y-129068247D01*
X140343192Y-129181260D01*
X140365978Y-129197815D01*
X140494375Y-129263237D01*
X140562393Y-129297895D01*
X140562396Y-129297896D01*
X140667221Y-129331955D01*
X140772049Y-129366015D01*
X140989778Y-129400500D01*
X140989779Y-129400500D01*
X143010221Y-129400500D01*
X143010222Y-129400500D01*
X143227951Y-129366015D01*
X143437606Y-129297895D01*
X143634022Y-129197815D01*
X143812365Y-129068242D01*
X143968242Y-128912365D01*
X144097815Y-128734022D01*
X144114581Y-128701117D01*
X144131352Y-128668204D01*
X144179326Y-128617409D01*
X144241836Y-128600500D01*
X146192563Y-128600500D01*
X146192579Y-128600501D01*
X146200175Y-128600501D01*
X146358286Y-128600501D01*
X146358289Y-128600501D01*
X146511017Y-128559577D01*
X146561136Y-128530639D01*
X146647948Y-128480520D01*
X146759752Y-128368716D01*
X146759752Y-128368714D01*
X146769960Y-128358507D01*
X146769961Y-128358504D01*
X149187821Y-125940645D01*
X149249142Y-125907162D01*
X149318834Y-125912146D01*
G37*
%TD.AperFunction*%
M02*
