%TF.GenerationSoftware,KiCad,Pcbnew,9.0.2*%
%TF.CreationDate,2025-06-29T10:57:22+10:00*%
%TF.ProjectId,Delay,44656c61-792e-46b6-9963-61645f706362,rev?*%
%TF.SameCoordinates,Original*%
%TF.FileFunction,Soldermask,Top*%
%TF.FilePolarity,Negative*%
%FSLAX46Y46*%
G04 Gerber Fmt 4.6, Leading zero omitted, Abs format (unit mm)*
G04 Created by KiCad (PCBNEW 9.0.2) date 2025-06-29 10:57:22*
%MOMM*%
%LPD*%
G01*
G04 APERTURE LIST*
G04 Aperture macros list*
%AMRoundRect*
0 Rectangle with rounded corners*
0 $1 Rounding radius*
0 $2 $3 $4 $5 $6 $7 $8 $9 X,Y pos of 4 corners*
0 Add a 4 corners polygon primitive as box body*
4,1,4,$2,$3,$4,$5,$6,$7,$8,$9,$2,$3,0*
0 Add four circle primitives for the rounded corners*
1,1,$1+$1,$2,$3*
1,1,$1+$1,$4,$5*
1,1,$1+$1,$6,$7*
1,1,$1+$1,$8,$9*
0 Add four rect primitives between the rounded corners*
20,1,$1+$1,$2,$3,$4,$5,0*
20,1,$1+$1,$4,$5,$6,$7,0*
20,1,$1+$1,$6,$7,$8,$9,0*
20,1,$1+$1,$8,$9,$2,$3,0*%
%AMFreePoly0*
4,1,49,4.512206,8.544944,4.602918,8.544944,4.804799,8.504787,4.994967,8.426017,5.166113,8.311661,5.311661,8.166113,5.426017,7.994967,5.504787,7.804799,5.544944,7.602918,5.544944,7.512205,5.550000,7.500000,5.550000,-7.250000,5.544944,-7.262205,5.544944,-7.352918,5.504787,-7.554799,5.426017,-7.744967,5.311661,-7.916113,5.166113,-8.061661,4.994967,-8.176017,4.804799,-8.254787,
4.602918,-8.294944,4.512206,-8.294944,4.500000,-8.300000,-4.500000,-8.300000,-4.512206,-8.294944,-4.602918,-8.294944,-4.804799,-8.254787,-4.994967,-8.176017,-5.166113,-8.061661,-5.311661,-7.916113,-5.426017,-7.744967,-5.504787,-7.554799,-5.544944,-7.352918,-5.544944,-7.262205,-5.550000,-7.250000,-5.550000,7.500000,-5.544944,7.512205,-5.544944,7.602918,-5.504787,7.804799,-5.426017,7.994967,
-5.311661,8.166113,-5.166113,8.311661,-4.994967,8.426017,-4.804799,8.504787,-4.602918,8.544944,-4.512206,8.544944,-4.500000,8.550000,4.500000,8.550000,4.512206,8.544944,4.512206,8.544944,$1*%
G04 Aperture macros list end*
%ADD10C,1.600000*%
%ADD11C,4.000000*%
%ADD12O,1.600000X2.400000*%
%ADD13R,2.000000X2.000000*%
%ADD14C,2.200000*%
%ADD15RoundRect,0.250000X-0.550000X-0.550000X0.550000X-0.550000X0.550000X0.550000X-0.550000X0.550000X0*%
%ADD16C,3.500000*%
%ADD17FreePoly0,270.000000*%
%ADD18R,2.000000X1.905000*%
%ADD19O,2.000000X1.905000*%
%ADD20R,2.400000X1.600000*%
%ADD21O,2.400000X1.600000*%
%ADD22R,1.800000X1.800000*%
%ADD23C,1.800000*%
%ADD24RoundRect,0.291666X-0.408334X-0.708334X0.408334X-0.708334X0.408334X0.708334X-0.408334X0.708334X0*%
%ADD25O,1.400000X2.000000*%
%ADD26RoundRect,0.250000X-0.950000X-0.550000X0.950000X-0.550000X0.950000X0.550000X-0.950000X0.550000X0*%
%ADD27C,2.000000*%
%ADD28RoundRect,0.270833X-0.379167X0.379167X-0.379167X-0.379167X0.379167X-0.379167X0.379167X0.379167X0*%
%ADD29C,1.300000*%
%ADD30O,1.800000X1.800000*%
%ADD31RoundRect,0.270833X0.379167X-0.379167X0.379167X0.379167X-0.379167X0.379167X-0.379167X-0.379167X0*%
G04 APERTURE END LIST*
D10*
%TO.C,R18*%
X168290000Y-83900000D03*
X165750000Y-83900000D03*
%TD*%
%TO.C,R3*%
X147250000Y-65040000D03*
X147250000Y-62500000D03*
%TD*%
%TO.C,C5*%
X137750000Y-94966667D03*
X142750000Y-94966667D03*
%TD*%
D11*
%TO.C,RV1*%
X130600000Y-122500000D03*
X139400000Y-122500000D03*
D12*
X137500001Y-129500000D03*
X135000000Y-129500000D03*
X132499999Y-129500000D03*
%TD*%
D13*
%TO.C,J2*%
X165000000Y-56020000D03*
D14*
X165000000Y-59120000D03*
X165000000Y-67420000D03*
%TD*%
D10*
%TO.C,R21*%
X168290000Y-92150000D03*
X165750000Y-92150000D03*
%TD*%
%TO.C,D2*%
X131800000Y-89400000D03*
D15*
X134340000Y-89400000D03*
%TD*%
D16*
%TO.C,U4*%
X155160000Y-140800000D03*
D17*
X150000000Y-140800000D03*
D18*
X138500000Y-138260000D03*
D19*
X138500000Y-140800000D03*
X138500000Y-143340000D03*
%TD*%
D10*
%TO.C,C15*%
X142750000Y-102288889D03*
X137750000Y-102288889D03*
%TD*%
%TO.C,R8*%
X131750000Y-81150000D03*
X134290000Y-81150000D03*
%TD*%
%TO.C,R6*%
X155500000Y-65040000D03*
X155500000Y-62500000D03*
%TD*%
%TO.C,C19*%
X162250000Y-96550000D03*
X157250000Y-96550000D03*
%TD*%
%TO.C,C11*%
X137750000Y-83983333D03*
X142750000Y-83983333D03*
%TD*%
%TO.C,C20*%
X157250000Y-100250000D03*
X162250000Y-100250000D03*
%TD*%
%TO.C,R10*%
X131800000Y-97650000D03*
X134340000Y-97650000D03*
%TD*%
%TO.C,R24*%
X131780500Y-103200000D03*
X134320500Y-103200000D03*
%TD*%
%TO.C,R14*%
X131750000Y-78450000D03*
X134290000Y-78450000D03*
%TD*%
%TO.C,R19*%
X168290000Y-86650000D03*
X165750000Y-86650000D03*
%TD*%
%TO.C,R4*%
X150000000Y-65040000D03*
X150000000Y-62500000D03*
%TD*%
%TO.C,R5*%
X152750000Y-65040000D03*
X152750000Y-62500000D03*
%TD*%
D20*
%TO.C,U2*%
X146190000Y-105940000D03*
D21*
X146190000Y-108480000D03*
X146190000Y-111020000D03*
X146190000Y-113560000D03*
X153810000Y-113560000D03*
X153810000Y-111020000D03*
X153810000Y-108480000D03*
X153810000Y-105940000D03*
%TD*%
D22*
%TO.C,C14*%
X142750000Y-113700000D03*
D23*
X142750000Y-111200000D03*
%TD*%
D10*
%TO.C,R15*%
X168290000Y-100400000D03*
X165750000Y-100400000D03*
%TD*%
D11*
%TO.C,RV2*%
X145600000Y-122500000D03*
X154400000Y-122500000D03*
D12*
X152500001Y-129500000D03*
X150000000Y-129500000D03*
X147499999Y-129500000D03*
%TD*%
D24*
%TO.C,J3*%
X130000000Y-143550000D03*
D25*
X132000000Y-143550000D03*
X134000000Y-143550000D03*
%TD*%
D10*
%TO.C,C6*%
X137750000Y-98627778D03*
X142750000Y-98627778D03*
%TD*%
D26*
%TO.C,U3*%
X146190000Y-83610000D03*
D21*
X146190000Y-86150000D03*
X146190000Y-88690000D03*
X146190000Y-91230000D03*
X146190000Y-93770000D03*
X146190000Y-96310000D03*
X146190000Y-98850000D03*
X146190000Y-101390000D03*
X153810000Y-101390000D03*
X153810000Y-98850000D03*
X153810000Y-96310000D03*
X153810000Y-93770000D03*
X153810000Y-91230000D03*
X153810000Y-88690000D03*
X153810000Y-86150000D03*
X153810000Y-83610000D03*
%TD*%
D10*
%TO.C,C1*%
X146400000Y-59790000D03*
X146400000Y-54790000D03*
%TD*%
D27*
%TO.C,C21*%
X168300000Y-71500000D03*
X168300000Y-79000000D03*
%TD*%
D24*
%TO.C,J4*%
X166000000Y-143550000D03*
D25*
X168000000Y-143550000D03*
X170000000Y-143550000D03*
%TD*%
D10*
%TO.C,R12*%
X131750000Y-72950000D03*
X134290000Y-72950000D03*
%TD*%
%TO.C,R1*%
X141750000Y-65040000D03*
X141750000Y-62500000D03*
%TD*%
%TO.C,C17*%
X162250000Y-84851000D03*
X157250000Y-84851000D03*
%TD*%
D20*
%TO.C,U1*%
X146190000Y-71440000D03*
D21*
X146190000Y-73980000D03*
X146190000Y-76520000D03*
X146190000Y-79060000D03*
X153810000Y-79060000D03*
X153810000Y-76520000D03*
X153810000Y-73980000D03*
X153810000Y-71440000D03*
%TD*%
D10*
%TO.C,D3*%
X131800000Y-92150000D03*
D15*
X134340000Y-92150000D03*
%TD*%
D10*
%TO.C,C4*%
X137750000Y-91305556D03*
X142750000Y-91305556D03*
%TD*%
D22*
%TO.C,C13*%
X157250000Y-113750000D03*
D23*
X157250000Y-111250000D03*
%TD*%
D10*
%TO.C,C8*%
X137750000Y-73000000D03*
X142750000Y-73000000D03*
%TD*%
%TO.C,C2*%
X150000000Y-54790000D03*
X150000000Y-59790000D03*
%TD*%
%TO.C,C10*%
X137750000Y-80322222D03*
X142750000Y-80322222D03*
%TD*%
%TO.C,C18*%
X157250000Y-88551000D03*
X162250000Y-88551000D03*
%TD*%
%TO.C,D1*%
X131800000Y-86650000D03*
D15*
X134340000Y-86650000D03*
%TD*%
D28*
%TO.C,C7*%
X159750000Y-105850000D03*
D29*
X159750000Y-107650000D03*
%TD*%
D10*
%TO.C,R22*%
X168290000Y-94900000D03*
X165750000Y-94900000D03*
%TD*%
%TO.C,C3*%
X153500000Y-54790000D03*
X153500000Y-59790000D03*
%TD*%
%TO.C,R16*%
X168290000Y-103150000D03*
X165750000Y-103150000D03*
%TD*%
D22*
%TO.C,D5*%
X161500000Y-138300000D03*
D30*
X169120000Y-138300000D03*
%TD*%
D10*
%TO.C,R25*%
X131780500Y-105950000D03*
X134320500Y-105950000D03*
%TD*%
D13*
%TO.C,J1*%
X135000000Y-56020000D03*
D14*
X135000000Y-59120000D03*
X135000000Y-67420000D03*
%TD*%
D10*
%TO.C,R17*%
X168290000Y-105900000D03*
X165750000Y-105900000D03*
%TD*%
%TO.C,R23*%
X168290000Y-97650000D03*
X165750000Y-97650000D03*
%TD*%
D31*
%TO.C,C23*%
X134250000Y-138950000D03*
D29*
X134250000Y-137150000D03*
%TD*%
D11*
%TO.C,RV3*%
X160600000Y-122500000D03*
X169400000Y-122500000D03*
D12*
X167500001Y-129500000D03*
X165000000Y-129500000D03*
X162499999Y-129500000D03*
%TD*%
D10*
%TO.C,R20*%
X168290000Y-89400000D03*
X165750000Y-89400000D03*
%TD*%
%TO.C,R9*%
X131800000Y-83900000D03*
X134340000Y-83900000D03*
%TD*%
%TO.C,C12*%
X142750000Y-87644444D03*
X137750000Y-87644444D03*
%TD*%
%TO.C,D4*%
X131800000Y-94900000D03*
D15*
X134340000Y-94900000D03*
%TD*%
D10*
%TO.C,R13*%
X131750000Y-75700000D03*
X134290000Y-75700000D03*
%TD*%
%TO.C,R2*%
X144500000Y-65040000D03*
X144500000Y-62500000D03*
%TD*%
%TO.C,R7*%
X158250000Y-65040000D03*
X158250000Y-62500000D03*
%TD*%
D31*
%TO.C,C24*%
X129250000Y-139000000D03*
D29*
X129250000Y-137200000D03*
%TD*%
D10*
%TO.C,C9*%
X137750000Y-76661111D03*
X142750000Y-76661111D03*
%TD*%
%TO.C,C16*%
X142750000Y-105950000D03*
X137750000Y-105950000D03*
%TD*%
%TO.C,R11*%
X131800000Y-100450000D03*
X134340000Y-100450000D03*
%TD*%
D27*
%TO.C,C22*%
X160000000Y-71500000D03*
X160000000Y-79000000D03*
%TD*%
M02*
