%TF.GenerationSoftware,KiCad,Pcbnew,9.0.2*%
%TF.CreationDate,2025-06-29T10:57:22+10:00*%
%TF.ProjectId,Delay,44656c61-792e-46b6-9963-61645f706362,rev?*%
%TF.SameCoordinates,Original*%
%TF.FileFunction,Legend,Top*%
%TF.FilePolarity,Positive*%
%FSLAX46Y46*%
G04 Gerber Fmt 4.6, Leading zero omitted, Abs format (unit mm)*
G04 Created by KiCad (PCBNEW 9.0.2) date 2025-06-29 10:57:22*
%MOMM*%
%LPD*%
G01*
G04 APERTURE LIST*
%ADD10C,0.300000*%
%ADD11C,0.150000*%
%ADD12C,0.120000*%
%ADD13C,0.350000*%
%ADD14C,0.000100*%
%ADD15C,0.010050*%
%ADD16C,0.200000*%
%ADD17C,0.100000*%
G04 APERTURE END LIST*
D10*
X162999999Y-51609638D02*
X163380952Y-51609638D01*
X163380952Y-51609638D02*
X163571428Y-51704876D01*
X163571428Y-51704876D02*
X163761904Y-51895352D01*
X163761904Y-51895352D02*
X163857142Y-52276304D01*
X163857142Y-52276304D02*
X163857142Y-52942971D01*
X163857142Y-52942971D02*
X163761904Y-53323923D01*
X163761904Y-53323923D02*
X163571428Y-53514400D01*
X163571428Y-53514400D02*
X163380952Y-53609638D01*
X163380952Y-53609638D02*
X162999999Y-53609638D01*
X162999999Y-53609638D02*
X162809523Y-53514400D01*
X162809523Y-53514400D02*
X162619047Y-53323923D01*
X162619047Y-53323923D02*
X162523809Y-52942971D01*
X162523809Y-52942971D02*
X162523809Y-52276304D01*
X162523809Y-52276304D02*
X162619047Y-51895352D01*
X162619047Y-51895352D02*
X162809523Y-51704876D01*
X162809523Y-51704876D02*
X162999999Y-51609638D01*
X164714285Y-51609638D02*
X164714285Y-53228685D01*
X164714285Y-53228685D02*
X164809523Y-53419161D01*
X164809523Y-53419161D02*
X164904761Y-53514400D01*
X164904761Y-53514400D02*
X165095237Y-53609638D01*
X165095237Y-53609638D02*
X165476190Y-53609638D01*
X165476190Y-53609638D02*
X165666666Y-53514400D01*
X165666666Y-53514400D02*
X165761904Y-53419161D01*
X165761904Y-53419161D02*
X165857142Y-53228685D01*
X165857142Y-53228685D02*
X165857142Y-51609638D01*
X166523809Y-51609638D02*
X167666666Y-51609638D01*
X167095237Y-53609638D02*
X167095237Y-51609638D01*
X146047618Y-133809638D02*
X146047618Y-131809638D01*
X146047618Y-131809638D02*
X146523808Y-131809638D01*
X146523808Y-131809638D02*
X146809523Y-131904876D01*
X146809523Y-131904876D02*
X146999999Y-132095352D01*
X146999999Y-132095352D02*
X147095237Y-132285828D01*
X147095237Y-132285828D02*
X147190475Y-132666780D01*
X147190475Y-132666780D02*
X147190475Y-132952495D01*
X147190475Y-132952495D02*
X147095237Y-133333447D01*
X147095237Y-133333447D02*
X146999999Y-133523923D01*
X146999999Y-133523923D02*
X146809523Y-133714400D01*
X146809523Y-133714400D02*
X146523808Y-133809638D01*
X146523808Y-133809638D02*
X146047618Y-133809638D01*
X148047618Y-132762019D02*
X148714285Y-132762019D01*
X148999999Y-133809638D02*
X148047618Y-133809638D01*
X148047618Y-133809638D02*
X148047618Y-131809638D01*
X148047618Y-131809638D02*
X148999999Y-131809638D01*
X150809523Y-133809638D02*
X149857142Y-133809638D01*
X149857142Y-133809638D02*
X149857142Y-131809638D01*
X151380952Y-133238209D02*
X152333333Y-133238209D01*
X151190476Y-133809638D02*
X151857142Y-131809638D01*
X151857142Y-131809638D02*
X152523809Y-133809638D01*
X153571428Y-132857257D02*
X153571428Y-133809638D01*
X152904762Y-131809638D02*
X153571428Y-132857257D01*
X153571428Y-132857257D02*
X154238095Y-131809638D01*
X161904762Y-131809638D02*
X163047619Y-131809638D01*
X162476190Y-133809638D02*
X162476190Y-131809638D01*
X163714286Y-133809638D02*
X163714286Y-131809638D01*
X164666667Y-133809638D02*
X164666667Y-131809638D01*
X164666667Y-131809638D02*
X165333334Y-133238209D01*
X165333334Y-133238209D02*
X166000000Y-131809638D01*
X166000000Y-131809638D02*
X166000000Y-133809638D01*
X166952381Y-132762019D02*
X167619048Y-132762019D01*
X167904762Y-133809638D02*
X166952381Y-133809638D01*
X166952381Y-133809638D02*
X166952381Y-131809638D01*
X166952381Y-131809638D02*
X167904762Y-131809638D01*
X132476190Y-132762019D02*
X131809523Y-132762019D01*
X131809523Y-133809638D02*
X131809523Y-131809638D01*
X131809523Y-131809638D02*
X132761904Y-131809638D01*
X133523809Y-132762019D02*
X134190476Y-132762019D01*
X134476190Y-133809638D02*
X133523809Y-133809638D01*
X133523809Y-133809638D02*
X133523809Y-131809638D01*
X133523809Y-131809638D02*
X134476190Y-131809638D01*
X135333333Y-132762019D02*
X136000000Y-132762019D01*
X136285714Y-133809638D02*
X135333333Y-133809638D01*
X135333333Y-133809638D02*
X135333333Y-131809638D01*
X135333333Y-131809638D02*
X136285714Y-131809638D01*
X137142857Y-133809638D02*
X137142857Y-131809638D01*
X137142857Y-131809638D02*
X137619047Y-131809638D01*
X137619047Y-131809638D02*
X137904762Y-131904876D01*
X137904762Y-131904876D02*
X138095238Y-132095352D01*
X138095238Y-132095352D02*
X138190476Y-132285828D01*
X138190476Y-132285828D02*
X138285714Y-132666780D01*
X138285714Y-132666780D02*
X138285714Y-132952495D01*
X138285714Y-132952495D02*
X138190476Y-133333447D01*
X138190476Y-133333447D02*
X138095238Y-133523923D01*
X138095238Y-133523923D02*
X137904762Y-133714400D01*
X137904762Y-133714400D02*
X137619047Y-133809638D01*
X137619047Y-133809638D02*
X137142857Y-133809638D01*
X133952381Y-53709638D02*
X133952381Y-51709638D01*
X134904762Y-53709638D02*
X134904762Y-51709638D01*
X134904762Y-51709638D02*
X136047619Y-53709638D01*
X136047619Y-53709638D02*
X136047619Y-51709638D01*
D11*
X170498207Y-84354819D02*
X170164874Y-83878628D01*
X169926779Y-84354819D02*
X169926779Y-83354819D01*
X169926779Y-83354819D02*
X170307731Y-83354819D01*
X170307731Y-83354819D02*
X170402969Y-83402438D01*
X170402969Y-83402438D02*
X170450588Y-83450057D01*
X170450588Y-83450057D02*
X170498207Y-83545295D01*
X170498207Y-83545295D02*
X170498207Y-83688152D01*
X170498207Y-83688152D02*
X170450588Y-83783390D01*
X170450588Y-83783390D02*
X170402969Y-83831009D01*
X170402969Y-83831009D02*
X170307731Y-83878628D01*
X170307731Y-83878628D02*
X169926779Y-83878628D01*
X171450588Y-84354819D02*
X170879160Y-84354819D01*
X171164874Y-84354819D02*
X171164874Y-83354819D01*
X171164874Y-83354819D02*
X171069636Y-83497676D01*
X171069636Y-83497676D02*
X170974398Y-83592914D01*
X170974398Y-83592914D02*
X170879160Y-83640533D01*
X172022017Y-83783390D02*
X171926779Y-83735771D01*
X171926779Y-83735771D02*
X171879160Y-83688152D01*
X171879160Y-83688152D02*
X171831541Y-83592914D01*
X171831541Y-83592914D02*
X171831541Y-83545295D01*
X171831541Y-83545295D02*
X171879160Y-83450057D01*
X171879160Y-83450057D02*
X171926779Y-83402438D01*
X171926779Y-83402438D02*
X172022017Y-83354819D01*
X172022017Y-83354819D02*
X172212493Y-83354819D01*
X172212493Y-83354819D02*
X172307731Y-83402438D01*
X172307731Y-83402438D02*
X172355350Y-83450057D01*
X172355350Y-83450057D02*
X172402969Y-83545295D01*
X172402969Y-83545295D02*
X172402969Y-83592914D01*
X172402969Y-83592914D02*
X172355350Y-83688152D01*
X172355350Y-83688152D02*
X172307731Y-83735771D01*
X172307731Y-83735771D02*
X172212493Y-83783390D01*
X172212493Y-83783390D02*
X172022017Y-83783390D01*
X172022017Y-83783390D02*
X171926779Y-83831009D01*
X171926779Y-83831009D02*
X171879160Y-83878628D01*
X171879160Y-83878628D02*
X171831541Y-83973866D01*
X171831541Y-83973866D02*
X171831541Y-84164342D01*
X171831541Y-84164342D02*
X171879160Y-84259580D01*
X171879160Y-84259580D02*
X171926779Y-84307200D01*
X171926779Y-84307200D02*
X172022017Y-84354819D01*
X172022017Y-84354819D02*
X172212493Y-84354819D01*
X172212493Y-84354819D02*
X172307731Y-84307200D01*
X172307731Y-84307200D02*
X172355350Y-84259580D01*
X172355350Y-84259580D02*
X172402969Y-84164342D01*
X172402969Y-84164342D02*
X172402969Y-83973866D01*
X172402969Y-83973866D02*
X172355350Y-83878628D01*
X172355350Y-83878628D02*
X172307731Y-83831009D01*
X172307731Y-83831009D02*
X172212493Y-83783390D01*
X147704819Y-67581541D02*
X147228628Y-67914874D01*
X147704819Y-68152969D02*
X146704819Y-68152969D01*
X146704819Y-68152969D02*
X146704819Y-67772017D01*
X146704819Y-67772017D02*
X146752438Y-67676779D01*
X146752438Y-67676779D02*
X146800057Y-67629160D01*
X146800057Y-67629160D02*
X146895295Y-67581541D01*
X146895295Y-67581541D02*
X147038152Y-67581541D01*
X147038152Y-67581541D02*
X147133390Y-67629160D01*
X147133390Y-67629160D02*
X147181009Y-67676779D01*
X147181009Y-67676779D02*
X147228628Y-67772017D01*
X147228628Y-67772017D02*
X147228628Y-68152969D01*
X146704819Y-67248207D02*
X146704819Y-66629160D01*
X146704819Y-66629160D02*
X147085771Y-66962493D01*
X147085771Y-66962493D02*
X147085771Y-66819636D01*
X147085771Y-66819636D02*
X147133390Y-66724398D01*
X147133390Y-66724398D02*
X147181009Y-66676779D01*
X147181009Y-66676779D02*
X147276247Y-66629160D01*
X147276247Y-66629160D02*
X147514342Y-66629160D01*
X147514342Y-66629160D02*
X147609580Y-66676779D01*
X147609580Y-66676779D02*
X147657200Y-66724398D01*
X147657200Y-66724398D02*
X147704819Y-66819636D01*
X147704819Y-66819636D02*
X147704819Y-67105350D01*
X147704819Y-67105350D02*
X147657200Y-67200588D01*
X147657200Y-67200588D02*
X147609580Y-67248207D01*
X140083333Y-95326248D02*
X140035714Y-95373868D01*
X140035714Y-95373868D02*
X139892857Y-95421487D01*
X139892857Y-95421487D02*
X139797619Y-95421487D01*
X139797619Y-95421487D02*
X139654762Y-95373868D01*
X139654762Y-95373868D02*
X139559524Y-95278629D01*
X139559524Y-95278629D02*
X139511905Y-95183391D01*
X139511905Y-95183391D02*
X139464286Y-94992915D01*
X139464286Y-94992915D02*
X139464286Y-94850058D01*
X139464286Y-94850058D02*
X139511905Y-94659582D01*
X139511905Y-94659582D02*
X139559524Y-94564344D01*
X139559524Y-94564344D02*
X139654762Y-94469106D01*
X139654762Y-94469106D02*
X139797619Y-94421487D01*
X139797619Y-94421487D02*
X139892857Y-94421487D01*
X139892857Y-94421487D02*
X140035714Y-94469106D01*
X140035714Y-94469106D02*
X140083333Y-94516725D01*
X140988095Y-94421487D02*
X140511905Y-94421487D01*
X140511905Y-94421487D02*
X140464286Y-94897677D01*
X140464286Y-94897677D02*
X140511905Y-94850058D01*
X140511905Y-94850058D02*
X140607143Y-94802439D01*
X140607143Y-94802439D02*
X140845238Y-94802439D01*
X140845238Y-94802439D02*
X140940476Y-94850058D01*
X140940476Y-94850058D02*
X140988095Y-94897677D01*
X140988095Y-94897677D02*
X141035714Y-94992915D01*
X141035714Y-94992915D02*
X141035714Y-95231010D01*
X141035714Y-95231010D02*
X140988095Y-95326248D01*
X140988095Y-95326248D02*
X140940476Y-95373868D01*
X140940476Y-95373868D02*
X140845238Y-95421487D01*
X140845238Y-95421487D02*
X140607143Y-95421487D01*
X140607143Y-95421487D02*
X140511905Y-95373868D01*
X140511905Y-95373868D02*
X140464286Y-95326248D01*
X141454819Y-127395238D02*
X140978628Y-127728571D01*
X141454819Y-127966666D02*
X140454819Y-127966666D01*
X140454819Y-127966666D02*
X140454819Y-127585714D01*
X140454819Y-127585714D02*
X140502438Y-127490476D01*
X140502438Y-127490476D02*
X140550057Y-127442857D01*
X140550057Y-127442857D02*
X140645295Y-127395238D01*
X140645295Y-127395238D02*
X140788152Y-127395238D01*
X140788152Y-127395238D02*
X140883390Y-127442857D01*
X140883390Y-127442857D02*
X140931009Y-127490476D01*
X140931009Y-127490476D02*
X140978628Y-127585714D01*
X140978628Y-127585714D02*
X140978628Y-127966666D01*
X140454819Y-127109523D02*
X141454819Y-126776190D01*
X141454819Y-126776190D02*
X140454819Y-126442857D01*
X141454819Y-125585714D02*
X141454819Y-126157142D01*
X141454819Y-125871428D02*
X140454819Y-125871428D01*
X140454819Y-125871428D02*
X140597676Y-125966666D01*
X140597676Y-125966666D02*
X140692914Y-126061904D01*
X140692914Y-126061904D02*
X140740533Y-126157142D01*
X160636666Y-56554819D02*
X160636666Y-57269104D01*
X160636666Y-57269104D02*
X160589047Y-57411961D01*
X160589047Y-57411961D02*
X160493809Y-57507200D01*
X160493809Y-57507200D02*
X160350952Y-57554819D01*
X160350952Y-57554819D02*
X160255714Y-57554819D01*
X161065238Y-56650057D02*
X161112857Y-56602438D01*
X161112857Y-56602438D02*
X161208095Y-56554819D01*
X161208095Y-56554819D02*
X161446190Y-56554819D01*
X161446190Y-56554819D02*
X161541428Y-56602438D01*
X161541428Y-56602438D02*
X161589047Y-56650057D01*
X161589047Y-56650057D02*
X161636666Y-56745295D01*
X161636666Y-56745295D02*
X161636666Y-56840533D01*
X161636666Y-56840533D02*
X161589047Y-56983390D01*
X161589047Y-56983390D02*
X161017619Y-57554819D01*
X161017619Y-57554819D02*
X161636666Y-57554819D01*
X170498207Y-92604819D02*
X170164874Y-92128628D01*
X169926779Y-92604819D02*
X169926779Y-91604819D01*
X169926779Y-91604819D02*
X170307731Y-91604819D01*
X170307731Y-91604819D02*
X170402969Y-91652438D01*
X170402969Y-91652438D02*
X170450588Y-91700057D01*
X170450588Y-91700057D02*
X170498207Y-91795295D01*
X170498207Y-91795295D02*
X170498207Y-91938152D01*
X170498207Y-91938152D02*
X170450588Y-92033390D01*
X170450588Y-92033390D02*
X170402969Y-92081009D01*
X170402969Y-92081009D02*
X170307731Y-92128628D01*
X170307731Y-92128628D02*
X169926779Y-92128628D01*
X170879160Y-91700057D02*
X170926779Y-91652438D01*
X170926779Y-91652438D02*
X171022017Y-91604819D01*
X171022017Y-91604819D02*
X171260112Y-91604819D01*
X171260112Y-91604819D02*
X171355350Y-91652438D01*
X171355350Y-91652438D02*
X171402969Y-91700057D01*
X171402969Y-91700057D02*
X171450588Y-91795295D01*
X171450588Y-91795295D02*
X171450588Y-91890533D01*
X171450588Y-91890533D02*
X171402969Y-92033390D01*
X171402969Y-92033390D02*
X170831541Y-92604819D01*
X170831541Y-92604819D02*
X171450588Y-92604819D01*
X172402969Y-92604819D02*
X171831541Y-92604819D01*
X172117255Y-92604819D02*
X172117255Y-91604819D01*
X172117255Y-91604819D02*
X172022017Y-91747676D01*
X172022017Y-91747676D02*
X171926779Y-91842914D01*
X171926779Y-91842914D02*
X171831541Y-91890533D01*
X128687030Y-89854819D02*
X128687030Y-88854819D01*
X128687030Y-88854819D02*
X128925125Y-88854819D01*
X128925125Y-88854819D02*
X129067982Y-88902438D01*
X129067982Y-88902438D02*
X129163220Y-88997676D01*
X129163220Y-88997676D02*
X129210839Y-89092914D01*
X129210839Y-89092914D02*
X129258458Y-89283390D01*
X129258458Y-89283390D02*
X129258458Y-89426247D01*
X129258458Y-89426247D02*
X129210839Y-89616723D01*
X129210839Y-89616723D02*
X129163220Y-89711961D01*
X129163220Y-89711961D02*
X129067982Y-89807200D01*
X129067982Y-89807200D02*
X128925125Y-89854819D01*
X128925125Y-89854819D02*
X128687030Y-89854819D01*
X129639411Y-88950057D02*
X129687030Y-88902438D01*
X129687030Y-88902438D02*
X129782268Y-88854819D01*
X129782268Y-88854819D02*
X130020363Y-88854819D01*
X130020363Y-88854819D02*
X130115601Y-88902438D01*
X130115601Y-88902438D02*
X130163220Y-88950057D01*
X130163220Y-88950057D02*
X130210839Y-89045295D01*
X130210839Y-89045295D02*
X130210839Y-89140533D01*
X130210839Y-89140533D02*
X130163220Y-89283390D01*
X130163220Y-89283390D02*
X129591792Y-89854819D01*
X129591792Y-89854819D02*
X130210839Y-89854819D01*
X158954819Y-141561904D02*
X159764342Y-141561904D01*
X159764342Y-141561904D02*
X159859580Y-141514285D01*
X159859580Y-141514285D02*
X159907200Y-141466666D01*
X159907200Y-141466666D02*
X159954819Y-141371428D01*
X159954819Y-141371428D02*
X159954819Y-141180952D01*
X159954819Y-141180952D02*
X159907200Y-141085714D01*
X159907200Y-141085714D02*
X159859580Y-141038095D01*
X159859580Y-141038095D02*
X159764342Y-140990476D01*
X159764342Y-140990476D02*
X158954819Y-140990476D01*
X159288152Y-140085714D02*
X159954819Y-140085714D01*
X158907200Y-140323809D02*
X159621485Y-140561904D01*
X159621485Y-140561904D02*
X159621485Y-139942857D01*
X139607142Y-102648468D02*
X139559523Y-102696088D01*
X139559523Y-102696088D02*
X139416666Y-102743707D01*
X139416666Y-102743707D02*
X139321428Y-102743707D01*
X139321428Y-102743707D02*
X139178571Y-102696088D01*
X139178571Y-102696088D02*
X139083333Y-102600849D01*
X139083333Y-102600849D02*
X139035714Y-102505611D01*
X139035714Y-102505611D02*
X138988095Y-102315135D01*
X138988095Y-102315135D02*
X138988095Y-102172278D01*
X138988095Y-102172278D02*
X139035714Y-101981802D01*
X139035714Y-101981802D02*
X139083333Y-101886564D01*
X139083333Y-101886564D02*
X139178571Y-101791326D01*
X139178571Y-101791326D02*
X139321428Y-101743707D01*
X139321428Y-101743707D02*
X139416666Y-101743707D01*
X139416666Y-101743707D02*
X139559523Y-101791326D01*
X139559523Y-101791326D02*
X139607142Y-101838945D01*
X140559523Y-102743707D02*
X139988095Y-102743707D01*
X140273809Y-102743707D02*
X140273809Y-101743707D01*
X140273809Y-101743707D02*
X140178571Y-101886564D01*
X140178571Y-101886564D02*
X140083333Y-101981802D01*
X140083333Y-101981802D02*
X139988095Y-102029421D01*
X141464285Y-101743707D02*
X140988095Y-101743707D01*
X140988095Y-101743707D02*
X140940476Y-102219897D01*
X140940476Y-102219897D02*
X140988095Y-102172278D01*
X140988095Y-102172278D02*
X141083333Y-102124659D01*
X141083333Y-102124659D02*
X141321428Y-102124659D01*
X141321428Y-102124659D02*
X141416666Y-102172278D01*
X141416666Y-102172278D02*
X141464285Y-102219897D01*
X141464285Y-102219897D02*
X141511904Y-102315135D01*
X141511904Y-102315135D02*
X141511904Y-102553230D01*
X141511904Y-102553230D02*
X141464285Y-102648468D01*
X141464285Y-102648468D02*
X141416666Y-102696088D01*
X141416666Y-102696088D02*
X141321428Y-102743707D01*
X141321428Y-102743707D02*
X141083333Y-102743707D01*
X141083333Y-102743707D02*
X140988095Y-102696088D01*
X140988095Y-102696088D02*
X140940476Y-102648468D01*
X129208458Y-81604819D02*
X128875125Y-81128628D01*
X128637030Y-81604819D02*
X128637030Y-80604819D01*
X128637030Y-80604819D02*
X129017982Y-80604819D01*
X129017982Y-80604819D02*
X129113220Y-80652438D01*
X129113220Y-80652438D02*
X129160839Y-80700057D01*
X129160839Y-80700057D02*
X129208458Y-80795295D01*
X129208458Y-80795295D02*
X129208458Y-80938152D01*
X129208458Y-80938152D02*
X129160839Y-81033390D01*
X129160839Y-81033390D02*
X129113220Y-81081009D01*
X129113220Y-81081009D02*
X129017982Y-81128628D01*
X129017982Y-81128628D02*
X128637030Y-81128628D01*
X129779887Y-81033390D02*
X129684649Y-80985771D01*
X129684649Y-80985771D02*
X129637030Y-80938152D01*
X129637030Y-80938152D02*
X129589411Y-80842914D01*
X129589411Y-80842914D02*
X129589411Y-80795295D01*
X129589411Y-80795295D02*
X129637030Y-80700057D01*
X129637030Y-80700057D02*
X129684649Y-80652438D01*
X129684649Y-80652438D02*
X129779887Y-80604819D01*
X129779887Y-80604819D02*
X129970363Y-80604819D01*
X129970363Y-80604819D02*
X130065601Y-80652438D01*
X130065601Y-80652438D02*
X130113220Y-80700057D01*
X130113220Y-80700057D02*
X130160839Y-80795295D01*
X130160839Y-80795295D02*
X130160839Y-80842914D01*
X130160839Y-80842914D02*
X130113220Y-80938152D01*
X130113220Y-80938152D02*
X130065601Y-80985771D01*
X130065601Y-80985771D02*
X129970363Y-81033390D01*
X129970363Y-81033390D02*
X129779887Y-81033390D01*
X129779887Y-81033390D02*
X129684649Y-81081009D01*
X129684649Y-81081009D02*
X129637030Y-81128628D01*
X129637030Y-81128628D02*
X129589411Y-81223866D01*
X129589411Y-81223866D02*
X129589411Y-81414342D01*
X129589411Y-81414342D02*
X129637030Y-81509580D01*
X129637030Y-81509580D02*
X129684649Y-81557200D01*
X129684649Y-81557200D02*
X129779887Y-81604819D01*
X129779887Y-81604819D02*
X129970363Y-81604819D01*
X129970363Y-81604819D02*
X130065601Y-81557200D01*
X130065601Y-81557200D02*
X130113220Y-81509580D01*
X130113220Y-81509580D02*
X130160839Y-81414342D01*
X130160839Y-81414342D02*
X130160839Y-81223866D01*
X130160839Y-81223866D02*
X130113220Y-81128628D01*
X130113220Y-81128628D02*
X130065601Y-81081009D01*
X130065601Y-81081009D02*
X129970363Y-81033390D01*
X155954819Y-67581541D02*
X155478628Y-67914874D01*
X155954819Y-68152969D02*
X154954819Y-68152969D01*
X154954819Y-68152969D02*
X154954819Y-67772017D01*
X154954819Y-67772017D02*
X155002438Y-67676779D01*
X155002438Y-67676779D02*
X155050057Y-67629160D01*
X155050057Y-67629160D02*
X155145295Y-67581541D01*
X155145295Y-67581541D02*
X155288152Y-67581541D01*
X155288152Y-67581541D02*
X155383390Y-67629160D01*
X155383390Y-67629160D02*
X155431009Y-67676779D01*
X155431009Y-67676779D02*
X155478628Y-67772017D01*
X155478628Y-67772017D02*
X155478628Y-68152969D01*
X154954819Y-66724398D02*
X154954819Y-66914874D01*
X154954819Y-66914874D02*
X155002438Y-67010112D01*
X155002438Y-67010112D02*
X155050057Y-67057731D01*
X155050057Y-67057731D02*
X155192914Y-67152969D01*
X155192914Y-67152969D02*
X155383390Y-67200588D01*
X155383390Y-67200588D02*
X155764342Y-67200588D01*
X155764342Y-67200588D02*
X155859580Y-67152969D01*
X155859580Y-67152969D02*
X155907200Y-67105350D01*
X155907200Y-67105350D02*
X155954819Y-67010112D01*
X155954819Y-67010112D02*
X155954819Y-66819636D01*
X155954819Y-66819636D02*
X155907200Y-66724398D01*
X155907200Y-66724398D02*
X155859580Y-66676779D01*
X155859580Y-66676779D02*
X155764342Y-66629160D01*
X155764342Y-66629160D02*
X155526247Y-66629160D01*
X155526247Y-66629160D02*
X155431009Y-66676779D01*
X155431009Y-66676779D02*
X155383390Y-66724398D01*
X155383390Y-66724398D02*
X155335771Y-66819636D01*
X155335771Y-66819636D02*
X155335771Y-67010112D01*
X155335771Y-67010112D02*
X155383390Y-67105350D01*
X155383390Y-67105350D02*
X155431009Y-67152969D01*
X155431009Y-67152969D02*
X155526247Y-67200588D01*
X159107142Y-96909579D02*
X159059523Y-96957199D01*
X159059523Y-96957199D02*
X158916666Y-97004818D01*
X158916666Y-97004818D02*
X158821428Y-97004818D01*
X158821428Y-97004818D02*
X158678571Y-96957199D01*
X158678571Y-96957199D02*
X158583333Y-96861960D01*
X158583333Y-96861960D02*
X158535714Y-96766722D01*
X158535714Y-96766722D02*
X158488095Y-96576246D01*
X158488095Y-96576246D02*
X158488095Y-96433389D01*
X158488095Y-96433389D02*
X158535714Y-96242913D01*
X158535714Y-96242913D02*
X158583333Y-96147675D01*
X158583333Y-96147675D02*
X158678571Y-96052437D01*
X158678571Y-96052437D02*
X158821428Y-96004818D01*
X158821428Y-96004818D02*
X158916666Y-96004818D01*
X158916666Y-96004818D02*
X159059523Y-96052437D01*
X159059523Y-96052437D02*
X159107142Y-96100056D01*
X160059523Y-97004818D02*
X159488095Y-97004818D01*
X159773809Y-97004818D02*
X159773809Y-96004818D01*
X159773809Y-96004818D02*
X159678571Y-96147675D01*
X159678571Y-96147675D02*
X159583333Y-96242913D01*
X159583333Y-96242913D02*
X159488095Y-96290532D01*
X160535714Y-97004818D02*
X160726190Y-97004818D01*
X160726190Y-97004818D02*
X160821428Y-96957199D01*
X160821428Y-96957199D02*
X160869047Y-96909579D01*
X160869047Y-96909579D02*
X160964285Y-96766722D01*
X160964285Y-96766722D02*
X161011904Y-96576246D01*
X161011904Y-96576246D02*
X161011904Y-96195294D01*
X161011904Y-96195294D02*
X160964285Y-96100056D01*
X160964285Y-96100056D02*
X160916666Y-96052437D01*
X160916666Y-96052437D02*
X160821428Y-96004818D01*
X160821428Y-96004818D02*
X160630952Y-96004818D01*
X160630952Y-96004818D02*
X160535714Y-96052437D01*
X160535714Y-96052437D02*
X160488095Y-96100056D01*
X160488095Y-96100056D02*
X160440476Y-96195294D01*
X160440476Y-96195294D02*
X160440476Y-96433389D01*
X160440476Y-96433389D02*
X160488095Y-96528627D01*
X160488095Y-96528627D02*
X160535714Y-96576246D01*
X160535714Y-96576246D02*
X160630952Y-96623865D01*
X160630952Y-96623865D02*
X160821428Y-96623865D01*
X160821428Y-96623865D02*
X160916666Y-96576246D01*
X160916666Y-96576246D02*
X160964285Y-96528627D01*
X160964285Y-96528627D02*
X161011904Y-96433389D01*
X139607142Y-84342914D02*
X139559523Y-84390534D01*
X139559523Y-84390534D02*
X139416666Y-84438153D01*
X139416666Y-84438153D02*
X139321428Y-84438153D01*
X139321428Y-84438153D02*
X139178571Y-84390534D01*
X139178571Y-84390534D02*
X139083333Y-84295295D01*
X139083333Y-84295295D02*
X139035714Y-84200057D01*
X139035714Y-84200057D02*
X138988095Y-84009581D01*
X138988095Y-84009581D02*
X138988095Y-83866724D01*
X138988095Y-83866724D02*
X139035714Y-83676248D01*
X139035714Y-83676248D02*
X139083333Y-83581010D01*
X139083333Y-83581010D02*
X139178571Y-83485772D01*
X139178571Y-83485772D02*
X139321428Y-83438153D01*
X139321428Y-83438153D02*
X139416666Y-83438153D01*
X139416666Y-83438153D02*
X139559523Y-83485772D01*
X139559523Y-83485772D02*
X139607142Y-83533391D01*
X140559523Y-84438153D02*
X139988095Y-84438153D01*
X140273809Y-84438153D02*
X140273809Y-83438153D01*
X140273809Y-83438153D02*
X140178571Y-83581010D01*
X140178571Y-83581010D02*
X140083333Y-83676248D01*
X140083333Y-83676248D02*
X139988095Y-83723867D01*
X141511904Y-84438153D02*
X140940476Y-84438153D01*
X141226190Y-84438153D02*
X141226190Y-83438153D01*
X141226190Y-83438153D02*
X141130952Y-83581010D01*
X141130952Y-83581010D02*
X141035714Y-83676248D01*
X141035714Y-83676248D02*
X140940476Y-83723867D01*
X159107142Y-100609581D02*
X159059523Y-100657201D01*
X159059523Y-100657201D02*
X158916666Y-100704820D01*
X158916666Y-100704820D02*
X158821428Y-100704820D01*
X158821428Y-100704820D02*
X158678571Y-100657201D01*
X158678571Y-100657201D02*
X158583333Y-100561962D01*
X158583333Y-100561962D02*
X158535714Y-100466724D01*
X158535714Y-100466724D02*
X158488095Y-100276248D01*
X158488095Y-100276248D02*
X158488095Y-100133391D01*
X158488095Y-100133391D02*
X158535714Y-99942915D01*
X158535714Y-99942915D02*
X158583333Y-99847677D01*
X158583333Y-99847677D02*
X158678571Y-99752439D01*
X158678571Y-99752439D02*
X158821428Y-99704820D01*
X158821428Y-99704820D02*
X158916666Y-99704820D01*
X158916666Y-99704820D02*
X159059523Y-99752439D01*
X159059523Y-99752439D02*
X159107142Y-99800058D01*
X159488095Y-99800058D02*
X159535714Y-99752439D01*
X159535714Y-99752439D02*
X159630952Y-99704820D01*
X159630952Y-99704820D02*
X159869047Y-99704820D01*
X159869047Y-99704820D02*
X159964285Y-99752439D01*
X159964285Y-99752439D02*
X160011904Y-99800058D01*
X160011904Y-99800058D02*
X160059523Y-99895296D01*
X160059523Y-99895296D02*
X160059523Y-99990534D01*
X160059523Y-99990534D02*
X160011904Y-100133391D01*
X160011904Y-100133391D02*
X159440476Y-100704820D01*
X159440476Y-100704820D02*
X160059523Y-100704820D01*
X160678571Y-99704820D02*
X160773809Y-99704820D01*
X160773809Y-99704820D02*
X160869047Y-99752439D01*
X160869047Y-99752439D02*
X160916666Y-99800058D01*
X160916666Y-99800058D02*
X160964285Y-99895296D01*
X160964285Y-99895296D02*
X161011904Y-100085772D01*
X161011904Y-100085772D02*
X161011904Y-100323867D01*
X161011904Y-100323867D02*
X160964285Y-100514343D01*
X160964285Y-100514343D02*
X160916666Y-100609581D01*
X160916666Y-100609581D02*
X160869047Y-100657201D01*
X160869047Y-100657201D02*
X160773809Y-100704820D01*
X160773809Y-100704820D02*
X160678571Y-100704820D01*
X160678571Y-100704820D02*
X160583333Y-100657201D01*
X160583333Y-100657201D02*
X160535714Y-100609581D01*
X160535714Y-100609581D02*
X160488095Y-100514343D01*
X160488095Y-100514343D02*
X160440476Y-100323867D01*
X160440476Y-100323867D02*
X160440476Y-100085772D01*
X160440476Y-100085772D02*
X160488095Y-99895296D01*
X160488095Y-99895296D02*
X160535714Y-99800058D01*
X160535714Y-99800058D02*
X160583333Y-99752439D01*
X160583333Y-99752439D02*
X160678571Y-99704820D01*
X128306077Y-98104819D02*
X127972744Y-97628628D01*
X127734649Y-98104819D02*
X127734649Y-97104819D01*
X127734649Y-97104819D02*
X128115601Y-97104819D01*
X128115601Y-97104819D02*
X128210839Y-97152438D01*
X128210839Y-97152438D02*
X128258458Y-97200057D01*
X128258458Y-97200057D02*
X128306077Y-97295295D01*
X128306077Y-97295295D02*
X128306077Y-97438152D01*
X128306077Y-97438152D02*
X128258458Y-97533390D01*
X128258458Y-97533390D02*
X128210839Y-97581009D01*
X128210839Y-97581009D02*
X128115601Y-97628628D01*
X128115601Y-97628628D02*
X127734649Y-97628628D01*
X129258458Y-98104819D02*
X128687030Y-98104819D01*
X128972744Y-98104819D02*
X128972744Y-97104819D01*
X128972744Y-97104819D02*
X128877506Y-97247676D01*
X128877506Y-97247676D02*
X128782268Y-97342914D01*
X128782268Y-97342914D02*
X128687030Y-97390533D01*
X129877506Y-97104819D02*
X129972744Y-97104819D01*
X129972744Y-97104819D02*
X130067982Y-97152438D01*
X130067982Y-97152438D02*
X130115601Y-97200057D01*
X130115601Y-97200057D02*
X130163220Y-97295295D01*
X130163220Y-97295295D02*
X130210839Y-97485771D01*
X130210839Y-97485771D02*
X130210839Y-97723866D01*
X130210839Y-97723866D02*
X130163220Y-97914342D01*
X130163220Y-97914342D02*
X130115601Y-98009580D01*
X130115601Y-98009580D02*
X130067982Y-98057200D01*
X130067982Y-98057200D02*
X129972744Y-98104819D01*
X129972744Y-98104819D02*
X129877506Y-98104819D01*
X129877506Y-98104819D02*
X129782268Y-98057200D01*
X129782268Y-98057200D02*
X129734649Y-98009580D01*
X129734649Y-98009580D02*
X129687030Y-97914342D01*
X129687030Y-97914342D02*
X129639411Y-97723866D01*
X129639411Y-97723866D02*
X129639411Y-97485771D01*
X129639411Y-97485771D02*
X129687030Y-97295295D01*
X129687030Y-97295295D02*
X129734649Y-97200057D01*
X129734649Y-97200057D02*
X129782268Y-97152438D01*
X129782268Y-97152438D02*
X129877506Y-97104819D01*
X128286577Y-103654819D02*
X127953244Y-103178628D01*
X127715149Y-103654819D02*
X127715149Y-102654819D01*
X127715149Y-102654819D02*
X128096101Y-102654819D01*
X128096101Y-102654819D02*
X128191339Y-102702438D01*
X128191339Y-102702438D02*
X128238958Y-102750057D01*
X128238958Y-102750057D02*
X128286577Y-102845295D01*
X128286577Y-102845295D02*
X128286577Y-102988152D01*
X128286577Y-102988152D02*
X128238958Y-103083390D01*
X128238958Y-103083390D02*
X128191339Y-103131009D01*
X128191339Y-103131009D02*
X128096101Y-103178628D01*
X128096101Y-103178628D02*
X127715149Y-103178628D01*
X128667530Y-102750057D02*
X128715149Y-102702438D01*
X128715149Y-102702438D02*
X128810387Y-102654819D01*
X128810387Y-102654819D02*
X129048482Y-102654819D01*
X129048482Y-102654819D02*
X129143720Y-102702438D01*
X129143720Y-102702438D02*
X129191339Y-102750057D01*
X129191339Y-102750057D02*
X129238958Y-102845295D01*
X129238958Y-102845295D02*
X129238958Y-102940533D01*
X129238958Y-102940533D02*
X129191339Y-103083390D01*
X129191339Y-103083390D02*
X128619911Y-103654819D01*
X128619911Y-103654819D02*
X129238958Y-103654819D01*
X130096101Y-102988152D02*
X130096101Y-103654819D01*
X129858006Y-102607200D02*
X129619911Y-103321485D01*
X129619911Y-103321485D02*
X130238958Y-103321485D01*
X128256077Y-78904819D02*
X127922744Y-78428628D01*
X127684649Y-78904819D02*
X127684649Y-77904819D01*
X127684649Y-77904819D02*
X128065601Y-77904819D01*
X128065601Y-77904819D02*
X128160839Y-77952438D01*
X128160839Y-77952438D02*
X128208458Y-78000057D01*
X128208458Y-78000057D02*
X128256077Y-78095295D01*
X128256077Y-78095295D02*
X128256077Y-78238152D01*
X128256077Y-78238152D02*
X128208458Y-78333390D01*
X128208458Y-78333390D02*
X128160839Y-78381009D01*
X128160839Y-78381009D02*
X128065601Y-78428628D01*
X128065601Y-78428628D02*
X127684649Y-78428628D01*
X129208458Y-78904819D02*
X128637030Y-78904819D01*
X128922744Y-78904819D02*
X128922744Y-77904819D01*
X128922744Y-77904819D02*
X128827506Y-78047676D01*
X128827506Y-78047676D02*
X128732268Y-78142914D01*
X128732268Y-78142914D02*
X128637030Y-78190533D01*
X130065601Y-78238152D02*
X130065601Y-78904819D01*
X129827506Y-77857200D02*
X129589411Y-78571485D01*
X129589411Y-78571485D02*
X130208458Y-78571485D01*
X170498207Y-87104819D02*
X170164874Y-86628628D01*
X169926779Y-87104819D02*
X169926779Y-86104819D01*
X169926779Y-86104819D02*
X170307731Y-86104819D01*
X170307731Y-86104819D02*
X170402969Y-86152438D01*
X170402969Y-86152438D02*
X170450588Y-86200057D01*
X170450588Y-86200057D02*
X170498207Y-86295295D01*
X170498207Y-86295295D02*
X170498207Y-86438152D01*
X170498207Y-86438152D02*
X170450588Y-86533390D01*
X170450588Y-86533390D02*
X170402969Y-86581009D01*
X170402969Y-86581009D02*
X170307731Y-86628628D01*
X170307731Y-86628628D02*
X169926779Y-86628628D01*
X171450588Y-87104819D02*
X170879160Y-87104819D01*
X171164874Y-87104819D02*
X171164874Y-86104819D01*
X171164874Y-86104819D02*
X171069636Y-86247676D01*
X171069636Y-86247676D02*
X170974398Y-86342914D01*
X170974398Y-86342914D02*
X170879160Y-86390533D01*
X171926779Y-87104819D02*
X172117255Y-87104819D01*
X172117255Y-87104819D02*
X172212493Y-87057200D01*
X172212493Y-87057200D02*
X172260112Y-87009580D01*
X172260112Y-87009580D02*
X172355350Y-86866723D01*
X172355350Y-86866723D02*
X172402969Y-86676247D01*
X172402969Y-86676247D02*
X172402969Y-86295295D01*
X172402969Y-86295295D02*
X172355350Y-86200057D01*
X172355350Y-86200057D02*
X172307731Y-86152438D01*
X172307731Y-86152438D02*
X172212493Y-86104819D01*
X172212493Y-86104819D02*
X172022017Y-86104819D01*
X172022017Y-86104819D02*
X171926779Y-86152438D01*
X171926779Y-86152438D02*
X171879160Y-86200057D01*
X171879160Y-86200057D02*
X171831541Y-86295295D01*
X171831541Y-86295295D02*
X171831541Y-86533390D01*
X171831541Y-86533390D02*
X171879160Y-86628628D01*
X171879160Y-86628628D02*
X171926779Y-86676247D01*
X171926779Y-86676247D02*
X172022017Y-86723866D01*
X172022017Y-86723866D02*
X172212493Y-86723866D01*
X172212493Y-86723866D02*
X172307731Y-86676247D01*
X172307731Y-86676247D02*
X172355350Y-86628628D01*
X172355350Y-86628628D02*
X172402969Y-86533390D01*
X150454819Y-67581541D02*
X149978628Y-67914874D01*
X150454819Y-68152969D02*
X149454819Y-68152969D01*
X149454819Y-68152969D02*
X149454819Y-67772017D01*
X149454819Y-67772017D02*
X149502438Y-67676779D01*
X149502438Y-67676779D02*
X149550057Y-67629160D01*
X149550057Y-67629160D02*
X149645295Y-67581541D01*
X149645295Y-67581541D02*
X149788152Y-67581541D01*
X149788152Y-67581541D02*
X149883390Y-67629160D01*
X149883390Y-67629160D02*
X149931009Y-67676779D01*
X149931009Y-67676779D02*
X149978628Y-67772017D01*
X149978628Y-67772017D02*
X149978628Y-68152969D01*
X149788152Y-66724398D02*
X150454819Y-66724398D01*
X149407200Y-66962493D02*
X150121485Y-67200588D01*
X150121485Y-67200588D02*
X150121485Y-66581541D01*
X153204819Y-67581541D02*
X152728628Y-67914874D01*
X153204819Y-68152969D02*
X152204819Y-68152969D01*
X152204819Y-68152969D02*
X152204819Y-67772017D01*
X152204819Y-67772017D02*
X152252438Y-67676779D01*
X152252438Y-67676779D02*
X152300057Y-67629160D01*
X152300057Y-67629160D02*
X152395295Y-67581541D01*
X152395295Y-67581541D02*
X152538152Y-67581541D01*
X152538152Y-67581541D02*
X152633390Y-67629160D01*
X152633390Y-67629160D02*
X152681009Y-67676779D01*
X152681009Y-67676779D02*
X152728628Y-67772017D01*
X152728628Y-67772017D02*
X152728628Y-68152969D01*
X152204819Y-66676779D02*
X152204819Y-67152969D01*
X152204819Y-67152969D02*
X152681009Y-67200588D01*
X152681009Y-67200588D02*
X152633390Y-67152969D01*
X152633390Y-67152969D02*
X152585771Y-67057731D01*
X152585771Y-67057731D02*
X152585771Y-66819636D01*
X152585771Y-66819636D02*
X152633390Y-66724398D01*
X152633390Y-66724398D02*
X152681009Y-66676779D01*
X152681009Y-66676779D02*
X152776247Y-66629160D01*
X152776247Y-66629160D02*
X153014342Y-66629160D01*
X153014342Y-66629160D02*
X153109580Y-66676779D01*
X153109580Y-66676779D02*
X153157200Y-66724398D01*
X153157200Y-66724398D02*
X153204819Y-66819636D01*
X153204819Y-66819636D02*
X153204819Y-67057731D01*
X153204819Y-67057731D02*
X153157200Y-67152969D01*
X153157200Y-67152969D02*
X153109580Y-67200588D01*
X149238095Y-103554819D02*
X149238095Y-104364342D01*
X149238095Y-104364342D02*
X149285714Y-104459580D01*
X149285714Y-104459580D02*
X149333333Y-104507200D01*
X149333333Y-104507200D02*
X149428571Y-104554819D01*
X149428571Y-104554819D02*
X149619047Y-104554819D01*
X149619047Y-104554819D02*
X149714285Y-104507200D01*
X149714285Y-104507200D02*
X149761904Y-104459580D01*
X149761904Y-104459580D02*
X149809523Y-104364342D01*
X149809523Y-104364342D02*
X149809523Y-103554819D01*
X150238095Y-103650057D02*
X150285714Y-103602438D01*
X150285714Y-103602438D02*
X150380952Y-103554819D01*
X150380952Y-103554819D02*
X150619047Y-103554819D01*
X150619047Y-103554819D02*
X150714285Y-103602438D01*
X150714285Y-103602438D02*
X150761904Y-103650057D01*
X150761904Y-103650057D02*
X150809523Y-103745295D01*
X150809523Y-103745295D02*
X150809523Y-103840533D01*
X150809523Y-103840533D02*
X150761904Y-103983390D01*
X150761904Y-103983390D02*
X150190476Y-104554819D01*
X150190476Y-104554819D02*
X150809523Y-104554819D01*
X128609580Y-113092857D02*
X128657200Y-113140476D01*
X128657200Y-113140476D02*
X128704819Y-113283333D01*
X128704819Y-113283333D02*
X128704819Y-113378571D01*
X128704819Y-113378571D02*
X128657200Y-113521428D01*
X128657200Y-113521428D02*
X128561961Y-113616666D01*
X128561961Y-113616666D02*
X128466723Y-113664285D01*
X128466723Y-113664285D02*
X128276247Y-113711904D01*
X128276247Y-113711904D02*
X128133390Y-113711904D01*
X128133390Y-113711904D02*
X127942914Y-113664285D01*
X127942914Y-113664285D02*
X127847676Y-113616666D01*
X127847676Y-113616666D02*
X127752438Y-113521428D01*
X127752438Y-113521428D02*
X127704819Y-113378571D01*
X127704819Y-113378571D02*
X127704819Y-113283333D01*
X127704819Y-113283333D02*
X127752438Y-113140476D01*
X127752438Y-113140476D02*
X127800057Y-113092857D01*
X128704819Y-112140476D02*
X128704819Y-112711904D01*
X128704819Y-112426190D02*
X127704819Y-112426190D01*
X127704819Y-112426190D02*
X127847676Y-112521428D01*
X127847676Y-112521428D02*
X127942914Y-112616666D01*
X127942914Y-112616666D02*
X127990533Y-112711904D01*
X128038152Y-111283333D02*
X128704819Y-111283333D01*
X127657200Y-111521428D02*
X128371485Y-111759523D01*
X128371485Y-111759523D02*
X128371485Y-111140476D01*
X170498207Y-100854819D02*
X170164874Y-100378628D01*
X169926779Y-100854819D02*
X169926779Y-99854819D01*
X169926779Y-99854819D02*
X170307731Y-99854819D01*
X170307731Y-99854819D02*
X170402969Y-99902438D01*
X170402969Y-99902438D02*
X170450588Y-99950057D01*
X170450588Y-99950057D02*
X170498207Y-100045295D01*
X170498207Y-100045295D02*
X170498207Y-100188152D01*
X170498207Y-100188152D02*
X170450588Y-100283390D01*
X170450588Y-100283390D02*
X170402969Y-100331009D01*
X170402969Y-100331009D02*
X170307731Y-100378628D01*
X170307731Y-100378628D02*
X169926779Y-100378628D01*
X171450588Y-100854819D02*
X170879160Y-100854819D01*
X171164874Y-100854819D02*
X171164874Y-99854819D01*
X171164874Y-99854819D02*
X171069636Y-99997676D01*
X171069636Y-99997676D02*
X170974398Y-100092914D01*
X170974398Y-100092914D02*
X170879160Y-100140533D01*
X172355350Y-99854819D02*
X171879160Y-99854819D01*
X171879160Y-99854819D02*
X171831541Y-100331009D01*
X171831541Y-100331009D02*
X171879160Y-100283390D01*
X171879160Y-100283390D02*
X171974398Y-100235771D01*
X171974398Y-100235771D02*
X172212493Y-100235771D01*
X172212493Y-100235771D02*
X172307731Y-100283390D01*
X172307731Y-100283390D02*
X172355350Y-100331009D01*
X172355350Y-100331009D02*
X172402969Y-100426247D01*
X172402969Y-100426247D02*
X172402969Y-100664342D01*
X172402969Y-100664342D02*
X172355350Y-100759580D01*
X172355350Y-100759580D02*
X172307731Y-100807200D01*
X172307731Y-100807200D02*
X172212493Y-100854819D01*
X172212493Y-100854819D02*
X171974398Y-100854819D01*
X171974398Y-100854819D02*
X171879160Y-100807200D01*
X171879160Y-100807200D02*
X171831541Y-100759580D01*
X156354819Y-127295238D02*
X155878628Y-127628571D01*
X156354819Y-127866666D02*
X155354819Y-127866666D01*
X155354819Y-127866666D02*
X155354819Y-127485714D01*
X155354819Y-127485714D02*
X155402438Y-127390476D01*
X155402438Y-127390476D02*
X155450057Y-127342857D01*
X155450057Y-127342857D02*
X155545295Y-127295238D01*
X155545295Y-127295238D02*
X155688152Y-127295238D01*
X155688152Y-127295238D02*
X155783390Y-127342857D01*
X155783390Y-127342857D02*
X155831009Y-127390476D01*
X155831009Y-127390476D02*
X155878628Y-127485714D01*
X155878628Y-127485714D02*
X155878628Y-127866666D01*
X155354819Y-127009523D02*
X156354819Y-126676190D01*
X156354819Y-126676190D02*
X155354819Y-126342857D01*
X155450057Y-126057142D02*
X155402438Y-126009523D01*
X155402438Y-126009523D02*
X155354819Y-125914285D01*
X155354819Y-125914285D02*
X155354819Y-125676190D01*
X155354819Y-125676190D02*
X155402438Y-125580952D01*
X155402438Y-125580952D02*
X155450057Y-125533333D01*
X155450057Y-125533333D02*
X155545295Y-125485714D01*
X155545295Y-125485714D02*
X155640533Y-125485714D01*
X155640533Y-125485714D02*
X155783390Y-125533333D01*
X155783390Y-125533333D02*
X156354819Y-126104761D01*
X156354819Y-126104761D02*
X156354819Y-125485714D01*
X126204819Y-143233333D02*
X126919104Y-143233333D01*
X126919104Y-143233333D02*
X127061961Y-143280952D01*
X127061961Y-143280952D02*
X127157200Y-143376190D01*
X127157200Y-143376190D02*
X127204819Y-143519047D01*
X127204819Y-143519047D02*
X127204819Y-143614285D01*
X126204819Y-142852380D02*
X126204819Y-142233333D01*
X126204819Y-142233333D02*
X126585771Y-142566666D01*
X126585771Y-142566666D02*
X126585771Y-142423809D01*
X126585771Y-142423809D02*
X126633390Y-142328571D01*
X126633390Y-142328571D02*
X126681009Y-142280952D01*
X126681009Y-142280952D02*
X126776247Y-142233333D01*
X126776247Y-142233333D02*
X127014342Y-142233333D01*
X127014342Y-142233333D02*
X127109580Y-142280952D01*
X127109580Y-142280952D02*
X127157200Y-142328571D01*
X127157200Y-142328571D02*
X127204819Y-142423809D01*
X127204819Y-142423809D02*
X127204819Y-142709523D01*
X127204819Y-142709523D02*
X127157200Y-142804761D01*
X127157200Y-142804761D02*
X127109580Y-142852380D01*
X140083333Y-98987359D02*
X140035714Y-99034979D01*
X140035714Y-99034979D02*
X139892857Y-99082598D01*
X139892857Y-99082598D02*
X139797619Y-99082598D01*
X139797619Y-99082598D02*
X139654762Y-99034979D01*
X139654762Y-99034979D02*
X139559524Y-98939740D01*
X139559524Y-98939740D02*
X139511905Y-98844502D01*
X139511905Y-98844502D02*
X139464286Y-98654026D01*
X139464286Y-98654026D02*
X139464286Y-98511169D01*
X139464286Y-98511169D02*
X139511905Y-98320693D01*
X139511905Y-98320693D02*
X139559524Y-98225455D01*
X139559524Y-98225455D02*
X139654762Y-98130217D01*
X139654762Y-98130217D02*
X139797619Y-98082598D01*
X139797619Y-98082598D02*
X139892857Y-98082598D01*
X139892857Y-98082598D02*
X140035714Y-98130217D01*
X140035714Y-98130217D02*
X140083333Y-98177836D01*
X140940476Y-98082598D02*
X140750000Y-98082598D01*
X140750000Y-98082598D02*
X140654762Y-98130217D01*
X140654762Y-98130217D02*
X140607143Y-98177836D01*
X140607143Y-98177836D02*
X140511905Y-98320693D01*
X140511905Y-98320693D02*
X140464286Y-98511169D01*
X140464286Y-98511169D02*
X140464286Y-98892121D01*
X140464286Y-98892121D02*
X140511905Y-98987359D01*
X140511905Y-98987359D02*
X140559524Y-99034979D01*
X140559524Y-99034979D02*
X140654762Y-99082598D01*
X140654762Y-99082598D02*
X140845238Y-99082598D01*
X140845238Y-99082598D02*
X140940476Y-99034979D01*
X140940476Y-99034979D02*
X140988095Y-98987359D01*
X140988095Y-98987359D02*
X141035714Y-98892121D01*
X141035714Y-98892121D02*
X141035714Y-98654026D01*
X141035714Y-98654026D02*
X140988095Y-98558788D01*
X140988095Y-98558788D02*
X140940476Y-98511169D01*
X140940476Y-98511169D02*
X140845238Y-98463550D01*
X140845238Y-98463550D02*
X140654762Y-98463550D01*
X140654762Y-98463550D02*
X140559524Y-98511169D01*
X140559524Y-98511169D02*
X140511905Y-98558788D01*
X140511905Y-98558788D02*
X140464286Y-98654026D01*
X149238095Y-81254819D02*
X149238095Y-82064342D01*
X149238095Y-82064342D02*
X149285714Y-82159580D01*
X149285714Y-82159580D02*
X149333333Y-82207200D01*
X149333333Y-82207200D02*
X149428571Y-82254819D01*
X149428571Y-82254819D02*
X149619047Y-82254819D01*
X149619047Y-82254819D02*
X149714285Y-82207200D01*
X149714285Y-82207200D02*
X149761904Y-82159580D01*
X149761904Y-82159580D02*
X149809523Y-82064342D01*
X149809523Y-82064342D02*
X149809523Y-81254819D01*
X150190476Y-81254819D02*
X150809523Y-81254819D01*
X150809523Y-81254819D02*
X150476190Y-81635771D01*
X150476190Y-81635771D02*
X150619047Y-81635771D01*
X150619047Y-81635771D02*
X150714285Y-81683390D01*
X150714285Y-81683390D02*
X150761904Y-81731009D01*
X150761904Y-81731009D02*
X150809523Y-81826247D01*
X150809523Y-81826247D02*
X150809523Y-82064342D01*
X150809523Y-82064342D02*
X150761904Y-82159580D01*
X150761904Y-82159580D02*
X150714285Y-82207200D01*
X150714285Y-82207200D02*
X150619047Y-82254819D01*
X150619047Y-82254819D02*
X150333333Y-82254819D01*
X150333333Y-82254819D02*
X150238095Y-82207200D01*
X150238095Y-82207200D02*
X150190476Y-82159580D01*
X146759581Y-57456666D02*
X146807201Y-57504285D01*
X146807201Y-57504285D02*
X146854820Y-57647142D01*
X146854820Y-57647142D02*
X146854820Y-57742380D01*
X146854820Y-57742380D02*
X146807201Y-57885237D01*
X146807201Y-57885237D02*
X146711962Y-57980475D01*
X146711962Y-57980475D02*
X146616724Y-58028094D01*
X146616724Y-58028094D02*
X146426248Y-58075713D01*
X146426248Y-58075713D02*
X146283391Y-58075713D01*
X146283391Y-58075713D02*
X146092915Y-58028094D01*
X146092915Y-58028094D02*
X145997677Y-57980475D01*
X145997677Y-57980475D02*
X145902439Y-57885237D01*
X145902439Y-57885237D02*
X145854820Y-57742380D01*
X145854820Y-57742380D02*
X145854820Y-57647142D01*
X145854820Y-57647142D02*
X145902439Y-57504285D01*
X145902439Y-57504285D02*
X145950058Y-57456666D01*
X146854820Y-56504285D02*
X146854820Y-57075713D01*
X146854820Y-56789999D02*
X145854820Y-56789999D01*
X145854820Y-56789999D02*
X145997677Y-56885237D01*
X145997677Y-56885237D02*
X146092915Y-56980475D01*
X146092915Y-56980475D02*
X146140534Y-57075713D01*
X168659580Y-75892857D02*
X168707200Y-75940476D01*
X168707200Y-75940476D02*
X168754819Y-76083333D01*
X168754819Y-76083333D02*
X168754819Y-76178571D01*
X168754819Y-76178571D02*
X168707200Y-76321428D01*
X168707200Y-76321428D02*
X168611961Y-76416666D01*
X168611961Y-76416666D02*
X168516723Y-76464285D01*
X168516723Y-76464285D02*
X168326247Y-76511904D01*
X168326247Y-76511904D02*
X168183390Y-76511904D01*
X168183390Y-76511904D02*
X167992914Y-76464285D01*
X167992914Y-76464285D02*
X167897676Y-76416666D01*
X167897676Y-76416666D02*
X167802438Y-76321428D01*
X167802438Y-76321428D02*
X167754819Y-76178571D01*
X167754819Y-76178571D02*
X167754819Y-76083333D01*
X167754819Y-76083333D02*
X167802438Y-75940476D01*
X167802438Y-75940476D02*
X167850057Y-75892857D01*
X167850057Y-75511904D02*
X167802438Y-75464285D01*
X167802438Y-75464285D02*
X167754819Y-75369047D01*
X167754819Y-75369047D02*
X167754819Y-75130952D01*
X167754819Y-75130952D02*
X167802438Y-75035714D01*
X167802438Y-75035714D02*
X167850057Y-74988095D01*
X167850057Y-74988095D02*
X167945295Y-74940476D01*
X167945295Y-74940476D02*
X168040533Y-74940476D01*
X168040533Y-74940476D02*
X168183390Y-74988095D01*
X168183390Y-74988095D02*
X168754819Y-75559523D01*
X168754819Y-75559523D02*
X168754819Y-74940476D01*
X168754819Y-73988095D02*
X168754819Y-74559523D01*
X168754819Y-74273809D02*
X167754819Y-74273809D01*
X167754819Y-74273809D02*
X167897676Y-74369047D01*
X167897676Y-74369047D02*
X167992914Y-74464285D01*
X167992914Y-74464285D02*
X168040533Y-74559523D01*
X162204819Y-143233333D02*
X162919104Y-143233333D01*
X162919104Y-143233333D02*
X163061961Y-143280952D01*
X163061961Y-143280952D02*
X163157200Y-143376190D01*
X163157200Y-143376190D02*
X163204819Y-143519047D01*
X163204819Y-143519047D02*
X163204819Y-143614285D01*
X162538152Y-142328571D02*
X163204819Y-142328571D01*
X162157200Y-142566666D02*
X162871485Y-142804761D01*
X162871485Y-142804761D02*
X162871485Y-142185714D01*
X128256077Y-73404819D02*
X127922744Y-72928628D01*
X127684649Y-73404819D02*
X127684649Y-72404819D01*
X127684649Y-72404819D02*
X128065601Y-72404819D01*
X128065601Y-72404819D02*
X128160839Y-72452438D01*
X128160839Y-72452438D02*
X128208458Y-72500057D01*
X128208458Y-72500057D02*
X128256077Y-72595295D01*
X128256077Y-72595295D02*
X128256077Y-72738152D01*
X128256077Y-72738152D02*
X128208458Y-72833390D01*
X128208458Y-72833390D02*
X128160839Y-72881009D01*
X128160839Y-72881009D02*
X128065601Y-72928628D01*
X128065601Y-72928628D02*
X127684649Y-72928628D01*
X129208458Y-73404819D02*
X128637030Y-73404819D01*
X128922744Y-73404819D02*
X128922744Y-72404819D01*
X128922744Y-72404819D02*
X128827506Y-72547676D01*
X128827506Y-72547676D02*
X128732268Y-72642914D01*
X128732268Y-72642914D02*
X128637030Y-72690533D01*
X129589411Y-72500057D02*
X129637030Y-72452438D01*
X129637030Y-72452438D02*
X129732268Y-72404819D01*
X129732268Y-72404819D02*
X129970363Y-72404819D01*
X129970363Y-72404819D02*
X130065601Y-72452438D01*
X130065601Y-72452438D02*
X130113220Y-72500057D01*
X130113220Y-72500057D02*
X130160839Y-72595295D01*
X130160839Y-72595295D02*
X130160839Y-72690533D01*
X130160839Y-72690533D02*
X130113220Y-72833390D01*
X130113220Y-72833390D02*
X129541792Y-73404819D01*
X129541792Y-73404819D02*
X130160839Y-73404819D01*
X142204819Y-67581541D02*
X141728628Y-67914874D01*
X142204819Y-68152969D02*
X141204819Y-68152969D01*
X141204819Y-68152969D02*
X141204819Y-67772017D01*
X141204819Y-67772017D02*
X141252438Y-67676779D01*
X141252438Y-67676779D02*
X141300057Y-67629160D01*
X141300057Y-67629160D02*
X141395295Y-67581541D01*
X141395295Y-67581541D02*
X141538152Y-67581541D01*
X141538152Y-67581541D02*
X141633390Y-67629160D01*
X141633390Y-67629160D02*
X141681009Y-67676779D01*
X141681009Y-67676779D02*
X141728628Y-67772017D01*
X141728628Y-67772017D02*
X141728628Y-68152969D01*
X142204819Y-66629160D02*
X142204819Y-67200588D01*
X142204819Y-66914874D02*
X141204819Y-66914874D01*
X141204819Y-66914874D02*
X141347676Y-67010112D01*
X141347676Y-67010112D02*
X141442914Y-67105350D01*
X141442914Y-67105350D02*
X141490533Y-67200588D01*
X159107142Y-85210579D02*
X159059523Y-85258199D01*
X159059523Y-85258199D02*
X158916666Y-85305818D01*
X158916666Y-85305818D02*
X158821428Y-85305818D01*
X158821428Y-85305818D02*
X158678571Y-85258199D01*
X158678571Y-85258199D02*
X158583333Y-85162960D01*
X158583333Y-85162960D02*
X158535714Y-85067722D01*
X158535714Y-85067722D02*
X158488095Y-84877246D01*
X158488095Y-84877246D02*
X158488095Y-84734389D01*
X158488095Y-84734389D02*
X158535714Y-84543913D01*
X158535714Y-84543913D02*
X158583333Y-84448675D01*
X158583333Y-84448675D02*
X158678571Y-84353437D01*
X158678571Y-84353437D02*
X158821428Y-84305818D01*
X158821428Y-84305818D02*
X158916666Y-84305818D01*
X158916666Y-84305818D02*
X159059523Y-84353437D01*
X159059523Y-84353437D02*
X159107142Y-84401056D01*
X160059523Y-85305818D02*
X159488095Y-85305818D01*
X159773809Y-85305818D02*
X159773809Y-84305818D01*
X159773809Y-84305818D02*
X159678571Y-84448675D01*
X159678571Y-84448675D02*
X159583333Y-84543913D01*
X159583333Y-84543913D02*
X159488095Y-84591532D01*
X160392857Y-84305818D02*
X161059523Y-84305818D01*
X161059523Y-84305818D02*
X160630952Y-85305818D01*
X149238095Y-69054819D02*
X149238095Y-69864342D01*
X149238095Y-69864342D02*
X149285714Y-69959580D01*
X149285714Y-69959580D02*
X149333333Y-70007200D01*
X149333333Y-70007200D02*
X149428571Y-70054819D01*
X149428571Y-70054819D02*
X149619047Y-70054819D01*
X149619047Y-70054819D02*
X149714285Y-70007200D01*
X149714285Y-70007200D02*
X149761904Y-69959580D01*
X149761904Y-69959580D02*
X149809523Y-69864342D01*
X149809523Y-69864342D02*
X149809523Y-69054819D01*
X150809523Y-70054819D02*
X150238095Y-70054819D01*
X150523809Y-70054819D02*
X150523809Y-69054819D01*
X150523809Y-69054819D02*
X150428571Y-69197676D01*
X150428571Y-69197676D02*
X150333333Y-69292914D01*
X150333333Y-69292914D02*
X150238095Y-69340533D01*
X128687030Y-92604819D02*
X128687030Y-91604819D01*
X128687030Y-91604819D02*
X128925125Y-91604819D01*
X128925125Y-91604819D02*
X129067982Y-91652438D01*
X129067982Y-91652438D02*
X129163220Y-91747676D01*
X129163220Y-91747676D02*
X129210839Y-91842914D01*
X129210839Y-91842914D02*
X129258458Y-92033390D01*
X129258458Y-92033390D02*
X129258458Y-92176247D01*
X129258458Y-92176247D02*
X129210839Y-92366723D01*
X129210839Y-92366723D02*
X129163220Y-92461961D01*
X129163220Y-92461961D02*
X129067982Y-92557200D01*
X129067982Y-92557200D02*
X128925125Y-92604819D01*
X128925125Y-92604819D02*
X128687030Y-92604819D01*
X129591792Y-91604819D02*
X130210839Y-91604819D01*
X130210839Y-91604819D02*
X129877506Y-91985771D01*
X129877506Y-91985771D02*
X130020363Y-91985771D01*
X130020363Y-91985771D02*
X130115601Y-92033390D01*
X130115601Y-92033390D02*
X130163220Y-92081009D01*
X130163220Y-92081009D02*
X130210839Y-92176247D01*
X130210839Y-92176247D02*
X130210839Y-92414342D01*
X130210839Y-92414342D02*
X130163220Y-92509580D01*
X130163220Y-92509580D02*
X130115601Y-92557200D01*
X130115601Y-92557200D02*
X130020363Y-92604819D01*
X130020363Y-92604819D02*
X129734649Y-92604819D01*
X129734649Y-92604819D02*
X129639411Y-92557200D01*
X129639411Y-92557200D02*
X129591792Y-92509580D01*
X140083333Y-91665137D02*
X140035714Y-91712757D01*
X140035714Y-91712757D02*
X139892857Y-91760376D01*
X139892857Y-91760376D02*
X139797619Y-91760376D01*
X139797619Y-91760376D02*
X139654762Y-91712757D01*
X139654762Y-91712757D02*
X139559524Y-91617518D01*
X139559524Y-91617518D02*
X139511905Y-91522280D01*
X139511905Y-91522280D02*
X139464286Y-91331804D01*
X139464286Y-91331804D02*
X139464286Y-91188947D01*
X139464286Y-91188947D02*
X139511905Y-90998471D01*
X139511905Y-90998471D02*
X139559524Y-90903233D01*
X139559524Y-90903233D02*
X139654762Y-90807995D01*
X139654762Y-90807995D02*
X139797619Y-90760376D01*
X139797619Y-90760376D02*
X139892857Y-90760376D01*
X139892857Y-90760376D02*
X140035714Y-90807995D01*
X140035714Y-90807995D02*
X140083333Y-90855614D01*
X140940476Y-91093709D02*
X140940476Y-91760376D01*
X140702381Y-90712757D02*
X140464286Y-91427042D01*
X140464286Y-91427042D02*
X141083333Y-91427042D01*
X172109580Y-113142857D02*
X172157200Y-113190476D01*
X172157200Y-113190476D02*
X172204819Y-113333333D01*
X172204819Y-113333333D02*
X172204819Y-113428571D01*
X172204819Y-113428571D02*
X172157200Y-113571428D01*
X172157200Y-113571428D02*
X172061961Y-113666666D01*
X172061961Y-113666666D02*
X171966723Y-113714285D01*
X171966723Y-113714285D02*
X171776247Y-113761904D01*
X171776247Y-113761904D02*
X171633390Y-113761904D01*
X171633390Y-113761904D02*
X171442914Y-113714285D01*
X171442914Y-113714285D02*
X171347676Y-113666666D01*
X171347676Y-113666666D02*
X171252438Y-113571428D01*
X171252438Y-113571428D02*
X171204819Y-113428571D01*
X171204819Y-113428571D02*
X171204819Y-113333333D01*
X171204819Y-113333333D02*
X171252438Y-113190476D01*
X171252438Y-113190476D02*
X171300057Y-113142857D01*
X172204819Y-112190476D02*
X172204819Y-112761904D01*
X172204819Y-112476190D02*
X171204819Y-112476190D01*
X171204819Y-112476190D02*
X171347676Y-112571428D01*
X171347676Y-112571428D02*
X171442914Y-112666666D01*
X171442914Y-112666666D02*
X171490533Y-112761904D01*
X171204819Y-111857142D02*
X171204819Y-111238095D01*
X171204819Y-111238095D02*
X171585771Y-111571428D01*
X171585771Y-111571428D02*
X171585771Y-111428571D01*
X171585771Y-111428571D02*
X171633390Y-111333333D01*
X171633390Y-111333333D02*
X171681009Y-111285714D01*
X171681009Y-111285714D02*
X171776247Y-111238095D01*
X171776247Y-111238095D02*
X172014342Y-111238095D01*
X172014342Y-111238095D02*
X172109580Y-111285714D01*
X172109580Y-111285714D02*
X172157200Y-111333333D01*
X172157200Y-111333333D02*
X172204819Y-111428571D01*
X172204819Y-111428571D02*
X172204819Y-111714285D01*
X172204819Y-111714285D02*
X172157200Y-111809523D01*
X172157200Y-111809523D02*
X172109580Y-111857142D01*
X140083333Y-73359581D02*
X140035714Y-73407201D01*
X140035714Y-73407201D02*
X139892857Y-73454820D01*
X139892857Y-73454820D02*
X139797619Y-73454820D01*
X139797619Y-73454820D02*
X139654762Y-73407201D01*
X139654762Y-73407201D02*
X139559524Y-73311962D01*
X139559524Y-73311962D02*
X139511905Y-73216724D01*
X139511905Y-73216724D02*
X139464286Y-73026248D01*
X139464286Y-73026248D02*
X139464286Y-72883391D01*
X139464286Y-72883391D02*
X139511905Y-72692915D01*
X139511905Y-72692915D02*
X139559524Y-72597677D01*
X139559524Y-72597677D02*
X139654762Y-72502439D01*
X139654762Y-72502439D02*
X139797619Y-72454820D01*
X139797619Y-72454820D02*
X139892857Y-72454820D01*
X139892857Y-72454820D02*
X140035714Y-72502439D01*
X140035714Y-72502439D02*
X140083333Y-72550058D01*
X140654762Y-72883391D02*
X140559524Y-72835772D01*
X140559524Y-72835772D02*
X140511905Y-72788153D01*
X140511905Y-72788153D02*
X140464286Y-72692915D01*
X140464286Y-72692915D02*
X140464286Y-72645296D01*
X140464286Y-72645296D02*
X140511905Y-72550058D01*
X140511905Y-72550058D02*
X140559524Y-72502439D01*
X140559524Y-72502439D02*
X140654762Y-72454820D01*
X140654762Y-72454820D02*
X140845238Y-72454820D01*
X140845238Y-72454820D02*
X140940476Y-72502439D01*
X140940476Y-72502439D02*
X140988095Y-72550058D01*
X140988095Y-72550058D02*
X141035714Y-72645296D01*
X141035714Y-72645296D02*
X141035714Y-72692915D01*
X141035714Y-72692915D02*
X140988095Y-72788153D01*
X140988095Y-72788153D02*
X140940476Y-72835772D01*
X140940476Y-72835772D02*
X140845238Y-72883391D01*
X140845238Y-72883391D02*
X140654762Y-72883391D01*
X140654762Y-72883391D02*
X140559524Y-72931010D01*
X140559524Y-72931010D02*
X140511905Y-72978629D01*
X140511905Y-72978629D02*
X140464286Y-73073867D01*
X140464286Y-73073867D02*
X140464286Y-73264343D01*
X140464286Y-73264343D02*
X140511905Y-73359581D01*
X140511905Y-73359581D02*
X140559524Y-73407201D01*
X140559524Y-73407201D02*
X140654762Y-73454820D01*
X140654762Y-73454820D02*
X140845238Y-73454820D01*
X140845238Y-73454820D02*
X140940476Y-73407201D01*
X140940476Y-73407201D02*
X140988095Y-73359581D01*
X140988095Y-73359581D02*
X141035714Y-73264343D01*
X141035714Y-73264343D02*
X141035714Y-73073867D01*
X141035714Y-73073867D02*
X140988095Y-72978629D01*
X140988095Y-72978629D02*
X140940476Y-72931010D01*
X140940476Y-72931010D02*
X140845238Y-72883391D01*
X150359579Y-57456666D02*
X150407199Y-57504285D01*
X150407199Y-57504285D02*
X150454818Y-57647142D01*
X150454818Y-57647142D02*
X150454818Y-57742380D01*
X150454818Y-57742380D02*
X150407199Y-57885237D01*
X150407199Y-57885237D02*
X150311960Y-57980475D01*
X150311960Y-57980475D02*
X150216722Y-58028094D01*
X150216722Y-58028094D02*
X150026246Y-58075713D01*
X150026246Y-58075713D02*
X149883389Y-58075713D01*
X149883389Y-58075713D02*
X149692913Y-58028094D01*
X149692913Y-58028094D02*
X149597675Y-57980475D01*
X149597675Y-57980475D02*
X149502437Y-57885237D01*
X149502437Y-57885237D02*
X149454818Y-57742380D01*
X149454818Y-57742380D02*
X149454818Y-57647142D01*
X149454818Y-57647142D02*
X149502437Y-57504285D01*
X149502437Y-57504285D02*
X149550056Y-57456666D01*
X149550056Y-57075713D02*
X149502437Y-57028094D01*
X149502437Y-57028094D02*
X149454818Y-56932856D01*
X149454818Y-56932856D02*
X149454818Y-56694761D01*
X149454818Y-56694761D02*
X149502437Y-56599523D01*
X149502437Y-56599523D02*
X149550056Y-56551904D01*
X149550056Y-56551904D02*
X149645294Y-56504285D01*
X149645294Y-56504285D02*
X149740532Y-56504285D01*
X149740532Y-56504285D02*
X149883389Y-56551904D01*
X149883389Y-56551904D02*
X150454818Y-57123332D01*
X150454818Y-57123332D02*
X150454818Y-56504285D01*
X139607142Y-80681803D02*
X139559523Y-80729423D01*
X139559523Y-80729423D02*
X139416666Y-80777042D01*
X139416666Y-80777042D02*
X139321428Y-80777042D01*
X139321428Y-80777042D02*
X139178571Y-80729423D01*
X139178571Y-80729423D02*
X139083333Y-80634184D01*
X139083333Y-80634184D02*
X139035714Y-80538946D01*
X139035714Y-80538946D02*
X138988095Y-80348470D01*
X138988095Y-80348470D02*
X138988095Y-80205613D01*
X138988095Y-80205613D02*
X139035714Y-80015137D01*
X139035714Y-80015137D02*
X139083333Y-79919899D01*
X139083333Y-79919899D02*
X139178571Y-79824661D01*
X139178571Y-79824661D02*
X139321428Y-79777042D01*
X139321428Y-79777042D02*
X139416666Y-79777042D01*
X139416666Y-79777042D02*
X139559523Y-79824661D01*
X139559523Y-79824661D02*
X139607142Y-79872280D01*
X140559523Y-80777042D02*
X139988095Y-80777042D01*
X140273809Y-80777042D02*
X140273809Y-79777042D01*
X140273809Y-79777042D02*
X140178571Y-79919899D01*
X140178571Y-79919899D02*
X140083333Y-80015137D01*
X140083333Y-80015137D02*
X139988095Y-80062756D01*
X141178571Y-79777042D02*
X141273809Y-79777042D01*
X141273809Y-79777042D02*
X141369047Y-79824661D01*
X141369047Y-79824661D02*
X141416666Y-79872280D01*
X141416666Y-79872280D02*
X141464285Y-79967518D01*
X141464285Y-79967518D02*
X141511904Y-80157994D01*
X141511904Y-80157994D02*
X141511904Y-80396089D01*
X141511904Y-80396089D02*
X141464285Y-80586565D01*
X141464285Y-80586565D02*
X141416666Y-80681803D01*
X141416666Y-80681803D02*
X141369047Y-80729423D01*
X141369047Y-80729423D02*
X141273809Y-80777042D01*
X141273809Y-80777042D02*
X141178571Y-80777042D01*
X141178571Y-80777042D02*
X141083333Y-80729423D01*
X141083333Y-80729423D02*
X141035714Y-80681803D01*
X141035714Y-80681803D02*
X140988095Y-80586565D01*
X140988095Y-80586565D02*
X140940476Y-80396089D01*
X140940476Y-80396089D02*
X140940476Y-80157994D01*
X140940476Y-80157994D02*
X140988095Y-79967518D01*
X140988095Y-79967518D02*
X141035714Y-79872280D01*
X141035714Y-79872280D02*
X141083333Y-79824661D01*
X141083333Y-79824661D02*
X141178571Y-79777042D01*
X159107142Y-88910581D02*
X159059523Y-88958201D01*
X159059523Y-88958201D02*
X158916666Y-89005820D01*
X158916666Y-89005820D02*
X158821428Y-89005820D01*
X158821428Y-89005820D02*
X158678571Y-88958201D01*
X158678571Y-88958201D02*
X158583333Y-88862962D01*
X158583333Y-88862962D02*
X158535714Y-88767724D01*
X158535714Y-88767724D02*
X158488095Y-88577248D01*
X158488095Y-88577248D02*
X158488095Y-88434391D01*
X158488095Y-88434391D02*
X158535714Y-88243915D01*
X158535714Y-88243915D02*
X158583333Y-88148677D01*
X158583333Y-88148677D02*
X158678571Y-88053439D01*
X158678571Y-88053439D02*
X158821428Y-88005820D01*
X158821428Y-88005820D02*
X158916666Y-88005820D01*
X158916666Y-88005820D02*
X159059523Y-88053439D01*
X159059523Y-88053439D02*
X159107142Y-88101058D01*
X160059523Y-89005820D02*
X159488095Y-89005820D01*
X159773809Y-89005820D02*
X159773809Y-88005820D01*
X159773809Y-88005820D02*
X159678571Y-88148677D01*
X159678571Y-88148677D02*
X159583333Y-88243915D01*
X159583333Y-88243915D02*
X159488095Y-88291534D01*
X160630952Y-88434391D02*
X160535714Y-88386772D01*
X160535714Y-88386772D02*
X160488095Y-88339153D01*
X160488095Y-88339153D02*
X160440476Y-88243915D01*
X160440476Y-88243915D02*
X160440476Y-88196296D01*
X160440476Y-88196296D02*
X160488095Y-88101058D01*
X160488095Y-88101058D02*
X160535714Y-88053439D01*
X160535714Y-88053439D02*
X160630952Y-88005820D01*
X160630952Y-88005820D02*
X160821428Y-88005820D01*
X160821428Y-88005820D02*
X160916666Y-88053439D01*
X160916666Y-88053439D02*
X160964285Y-88101058D01*
X160964285Y-88101058D02*
X161011904Y-88196296D01*
X161011904Y-88196296D02*
X161011904Y-88243915D01*
X161011904Y-88243915D02*
X160964285Y-88339153D01*
X160964285Y-88339153D02*
X160916666Y-88386772D01*
X160916666Y-88386772D02*
X160821428Y-88434391D01*
X160821428Y-88434391D02*
X160630952Y-88434391D01*
X160630952Y-88434391D02*
X160535714Y-88482010D01*
X160535714Y-88482010D02*
X160488095Y-88529629D01*
X160488095Y-88529629D02*
X160440476Y-88624867D01*
X160440476Y-88624867D02*
X160440476Y-88815343D01*
X160440476Y-88815343D02*
X160488095Y-88910581D01*
X160488095Y-88910581D02*
X160535714Y-88958201D01*
X160535714Y-88958201D02*
X160630952Y-89005820D01*
X160630952Y-89005820D02*
X160821428Y-89005820D01*
X160821428Y-89005820D02*
X160916666Y-88958201D01*
X160916666Y-88958201D02*
X160964285Y-88910581D01*
X160964285Y-88910581D02*
X161011904Y-88815343D01*
X161011904Y-88815343D02*
X161011904Y-88624867D01*
X161011904Y-88624867D02*
X160964285Y-88529629D01*
X160964285Y-88529629D02*
X160916666Y-88482010D01*
X160916666Y-88482010D02*
X160821428Y-88434391D01*
X128687030Y-87104819D02*
X128687030Y-86104819D01*
X128687030Y-86104819D02*
X128925125Y-86104819D01*
X128925125Y-86104819D02*
X129067982Y-86152438D01*
X129067982Y-86152438D02*
X129163220Y-86247676D01*
X129163220Y-86247676D02*
X129210839Y-86342914D01*
X129210839Y-86342914D02*
X129258458Y-86533390D01*
X129258458Y-86533390D02*
X129258458Y-86676247D01*
X129258458Y-86676247D02*
X129210839Y-86866723D01*
X129210839Y-86866723D02*
X129163220Y-86961961D01*
X129163220Y-86961961D02*
X129067982Y-87057200D01*
X129067982Y-87057200D02*
X128925125Y-87104819D01*
X128925125Y-87104819D02*
X128687030Y-87104819D01*
X130210839Y-87104819D02*
X129639411Y-87104819D01*
X129925125Y-87104819D02*
X129925125Y-86104819D01*
X129925125Y-86104819D02*
X129829887Y-86247676D01*
X129829887Y-86247676D02*
X129734649Y-86342914D01*
X129734649Y-86342914D02*
X129639411Y-86390533D01*
X163359580Y-106916666D02*
X163407200Y-106964285D01*
X163407200Y-106964285D02*
X163454819Y-107107142D01*
X163454819Y-107107142D02*
X163454819Y-107202380D01*
X163454819Y-107202380D02*
X163407200Y-107345237D01*
X163407200Y-107345237D02*
X163311961Y-107440475D01*
X163311961Y-107440475D02*
X163216723Y-107488094D01*
X163216723Y-107488094D02*
X163026247Y-107535713D01*
X163026247Y-107535713D02*
X162883390Y-107535713D01*
X162883390Y-107535713D02*
X162692914Y-107488094D01*
X162692914Y-107488094D02*
X162597676Y-107440475D01*
X162597676Y-107440475D02*
X162502438Y-107345237D01*
X162502438Y-107345237D02*
X162454819Y-107202380D01*
X162454819Y-107202380D02*
X162454819Y-107107142D01*
X162454819Y-107107142D02*
X162502438Y-106964285D01*
X162502438Y-106964285D02*
X162550057Y-106916666D01*
X162454819Y-106583332D02*
X162454819Y-105916666D01*
X162454819Y-105916666D02*
X163454819Y-106345237D01*
X170498207Y-95354819D02*
X170164874Y-94878628D01*
X169926779Y-95354819D02*
X169926779Y-94354819D01*
X169926779Y-94354819D02*
X170307731Y-94354819D01*
X170307731Y-94354819D02*
X170402969Y-94402438D01*
X170402969Y-94402438D02*
X170450588Y-94450057D01*
X170450588Y-94450057D02*
X170498207Y-94545295D01*
X170498207Y-94545295D02*
X170498207Y-94688152D01*
X170498207Y-94688152D02*
X170450588Y-94783390D01*
X170450588Y-94783390D02*
X170402969Y-94831009D01*
X170402969Y-94831009D02*
X170307731Y-94878628D01*
X170307731Y-94878628D02*
X169926779Y-94878628D01*
X170879160Y-94450057D02*
X170926779Y-94402438D01*
X170926779Y-94402438D02*
X171022017Y-94354819D01*
X171022017Y-94354819D02*
X171260112Y-94354819D01*
X171260112Y-94354819D02*
X171355350Y-94402438D01*
X171355350Y-94402438D02*
X171402969Y-94450057D01*
X171402969Y-94450057D02*
X171450588Y-94545295D01*
X171450588Y-94545295D02*
X171450588Y-94640533D01*
X171450588Y-94640533D02*
X171402969Y-94783390D01*
X171402969Y-94783390D02*
X170831541Y-95354819D01*
X170831541Y-95354819D02*
X171450588Y-95354819D01*
X171831541Y-94450057D02*
X171879160Y-94402438D01*
X171879160Y-94402438D02*
X171974398Y-94354819D01*
X171974398Y-94354819D02*
X172212493Y-94354819D01*
X172212493Y-94354819D02*
X172307731Y-94402438D01*
X172307731Y-94402438D02*
X172355350Y-94450057D01*
X172355350Y-94450057D02*
X172402969Y-94545295D01*
X172402969Y-94545295D02*
X172402969Y-94640533D01*
X172402969Y-94640533D02*
X172355350Y-94783390D01*
X172355350Y-94783390D02*
X171783922Y-95354819D01*
X171783922Y-95354819D02*
X172402969Y-95354819D01*
X153859579Y-57456666D02*
X153907199Y-57504285D01*
X153907199Y-57504285D02*
X153954818Y-57647142D01*
X153954818Y-57647142D02*
X153954818Y-57742380D01*
X153954818Y-57742380D02*
X153907199Y-57885237D01*
X153907199Y-57885237D02*
X153811960Y-57980475D01*
X153811960Y-57980475D02*
X153716722Y-58028094D01*
X153716722Y-58028094D02*
X153526246Y-58075713D01*
X153526246Y-58075713D02*
X153383389Y-58075713D01*
X153383389Y-58075713D02*
X153192913Y-58028094D01*
X153192913Y-58028094D02*
X153097675Y-57980475D01*
X153097675Y-57980475D02*
X153002437Y-57885237D01*
X153002437Y-57885237D02*
X152954818Y-57742380D01*
X152954818Y-57742380D02*
X152954818Y-57647142D01*
X152954818Y-57647142D02*
X153002437Y-57504285D01*
X153002437Y-57504285D02*
X153050056Y-57456666D01*
X152954818Y-57123332D02*
X152954818Y-56504285D01*
X152954818Y-56504285D02*
X153335770Y-56837618D01*
X153335770Y-56837618D02*
X153335770Y-56694761D01*
X153335770Y-56694761D02*
X153383389Y-56599523D01*
X153383389Y-56599523D02*
X153431008Y-56551904D01*
X153431008Y-56551904D02*
X153526246Y-56504285D01*
X153526246Y-56504285D02*
X153764341Y-56504285D01*
X153764341Y-56504285D02*
X153859579Y-56551904D01*
X153859579Y-56551904D02*
X153907199Y-56599523D01*
X153907199Y-56599523D02*
X153954818Y-56694761D01*
X153954818Y-56694761D02*
X153954818Y-56980475D01*
X153954818Y-56980475D02*
X153907199Y-57075713D01*
X153907199Y-57075713D02*
X153859579Y-57123332D01*
X170498207Y-103604819D02*
X170164874Y-103128628D01*
X169926779Y-103604819D02*
X169926779Y-102604819D01*
X169926779Y-102604819D02*
X170307731Y-102604819D01*
X170307731Y-102604819D02*
X170402969Y-102652438D01*
X170402969Y-102652438D02*
X170450588Y-102700057D01*
X170450588Y-102700057D02*
X170498207Y-102795295D01*
X170498207Y-102795295D02*
X170498207Y-102938152D01*
X170498207Y-102938152D02*
X170450588Y-103033390D01*
X170450588Y-103033390D02*
X170402969Y-103081009D01*
X170402969Y-103081009D02*
X170307731Y-103128628D01*
X170307731Y-103128628D02*
X169926779Y-103128628D01*
X171450588Y-103604819D02*
X170879160Y-103604819D01*
X171164874Y-103604819D02*
X171164874Y-102604819D01*
X171164874Y-102604819D02*
X171069636Y-102747676D01*
X171069636Y-102747676D02*
X170974398Y-102842914D01*
X170974398Y-102842914D02*
X170879160Y-102890533D01*
X172307731Y-102604819D02*
X172117255Y-102604819D01*
X172117255Y-102604819D02*
X172022017Y-102652438D01*
X172022017Y-102652438D02*
X171974398Y-102700057D01*
X171974398Y-102700057D02*
X171879160Y-102842914D01*
X171879160Y-102842914D02*
X171831541Y-103033390D01*
X171831541Y-103033390D02*
X171831541Y-103414342D01*
X171831541Y-103414342D02*
X171879160Y-103509580D01*
X171879160Y-103509580D02*
X171926779Y-103557200D01*
X171926779Y-103557200D02*
X172022017Y-103604819D01*
X172022017Y-103604819D02*
X172212493Y-103604819D01*
X172212493Y-103604819D02*
X172307731Y-103557200D01*
X172307731Y-103557200D02*
X172355350Y-103509580D01*
X172355350Y-103509580D02*
X172402969Y-103414342D01*
X172402969Y-103414342D02*
X172402969Y-103176247D01*
X172402969Y-103176247D02*
X172355350Y-103081009D01*
X172355350Y-103081009D02*
X172307731Y-103033390D01*
X172307731Y-103033390D02*
X172212493Y-102985771D01*
X172212493Y-102985771D02*
X172022017Y-102985771D01*
X172022017Y-102985771D02*
X171926779Y-103033390D01*
X171926779Y-103033390D02*
X171879160Y-103081009D01*
X171879160Y-103081009D02*
X171831541Y-103176247D01*
X164571905Y-136284819D02*
X164571905Y-135284819D01*
X164571905Y-135284819D02*
X164810000Y-135284819D01*
X164810000Y-135284819D02*
X164952857Y-135332438D01*
X164952857Y-135332438D02*
X165048095Y-135427676D01*
X165048095Y-135427676D02*
X165095714Y-135522914D01*
X165095714Y-135522914D02*
X165143333Y-135713390D01*
X165143333Y-135713390D02*
X165143333Y-135856247D01*
X165143333Y-135856247D02*
X165095714Y-136046723D01*
X165095714Y-136046723D02*
X165048095Y-136141961D01*
X165048095Y-136141961D02*
X164952857Y-136237200D01*
X164952857Y-136237200D02*
X164810000Y-136284819D01*
X164810000Y-136284819D02*
X164571905Y-136284819D01*
X166048095Y-135284819D02*
X165571905Y-135284819D01*
X165571905Y-135284819D02*
X165524286Y-135761009D01*
X165524286Y-135761009D02*
X165571905Y-135713390D01*
X165571905Y-135713390D02*
X165667143Y-135665771D01*
X165667143Y-135665771D02*
X165905238Y-135665771D01*
X165905238Y-135665771D02*
X166000476Y-135713390D01*
X166000476Y-135713390D02*
X166048095Y-135761009D01*
X166048095Y-135761009D02*
X166095714Y-135856247D01*
X166095714Y-135856247D02*
X166095714Y-136094342D01*
X166095714Y-136094342D02*
X166048095Y-136189580D01*
X166048095Y-136189580D02*
X166000476Y-136237200D01*
X166000476Y-136237200D02*
X165905238Y-136284819D01*
X165905238Y-136284819D02*
X165667143Y-136284819D01*
X165667143Y-136284819D02*
X165571905Y-136237200D01*
X165571905Y-136237200D02*
X165524286Y-136189580D01*
X161238095Y-136854819D02*
X161238095Y-135854819D01*
X161809523Y-136854819D02*
X161380952Y-136283390D01*
X161809523Y-135854819D02*
X161238095Y-136426247D01*
X128286577Y-106404819D02*
X127953244Y-105928628D01*
X127715149Y-106404819D02*
X127715149Y-105404819D01*
X127715149Y-105404819D02*
X128096101Y-105404819D01*
X128096101Y-105404819D02*
X128191339Y-105452438D01*
X128191339Y-105452438D02*
X128238958Y-105500057D01*
X128238958Y-105500057D02*
X128286577Y-105595295D01*
X128286577Y-105595295D02*
X128286577Y-105738152D01*
X128286577Y-105738152D02*
X128238958Y-105833390D01*
X128238958Y-105833390D02*
X128191339Y-105881009D01*
X128191339Y-105881009D02*
X128096101Y-105928628D01*
X128096101Y-105928628D02*
X127715149Y-105928628D01*
X128667530Y-105500057D02*
X128715149Y-105452438D01*
X128715149Y-105452438D02*
X128810387Y-105404819D01*
X128810387Y-105404819D02*
X129048482Y-105404819D01*
X129048482Y-105404819D02*
X129143720Y-105452438D01*
X129143720Y-105452438D02*
X129191339Y-105500057D01*
X129191339Y-105500057D02*
X129238958Y-105595295D01*
X129238958Y-105595295D02*
X129238958Y-105690533D01*
X129238958Y-105690533D02*
X129191339Y-105833390D01*
X129191339Y-105833390D02*
X128619911Y-106404819D01*
X128619911Y-106404819D02*
X129238958Y-106404819D01*
X130143720Y-105404819D02*
X129667530Y-105404819D01*
X129667530Y-105404819D02*
X129619911Y-105881009D01*
X129619911Y-105881009D02*
X129667530Y-105833390D01*
X129667530Y-105833390D02*
X129762768Y-105785771D01*
X129762768Y-105785771D02*
X130000863Y-105785771D01*
X130000863Y-105785771D02*
X130096101Y-105833390D01*
X130096101Y-105833390D02*
X130143720Y-105881009D01*
X130143720Y-105881009D02*
X130191339Y-105976247D01*
X130191339Y-105976247D02*
X130191339Y-106214342D01*
X130191339Y-106214342D02*
X130143720Y-106309580D01*
X130143720Y-106309580D02*
X130096101Y-106357200D01*
X130096101Y-106357200D02*
X130000863Y-106404819D01*
X130000863Y-106404819D02*
X129762768Y-106404819D01*
X129762768Y-106404819D02*
X129667530Y-106357200D01*
X129667530Y-106357200D02*
X129619911Y-106309580D01*
X130636666Y-56554819D02*
X130636666Y-57269104D01*
X130636666Y-57269104D02*
X130589047Y-57411961D01*
X130589047Y-57411961D02*
X130493809Y-57507200D01*
X130493809Y-57507200D02*
X130350952Y-57554819D01*
X130350952Y-57554819D02*
X130255714Y-57554819D01*
X131636666Y-57554819D02*
X131065238Y-57554819D01*
X131350952Y-57554819D02*
X131350952Y-56554819D01*
X131350952Y-56554819D02*
X131255714Y-56697676D01*
X131255714Y-56697676D02*
X131160476Y-56792914D01*
X131160476Y-56792914D02*
X131065238Y-56840533D01*
X170498207Y-106354819D02*
X170164874Y-105878628D01*
X169926779Y-106354819D02*
X169926779Y-105354819D01*
X169926779Y-105354819D02*
X170307731Y-105354819D01*
X170307731Y-105354819D02*
X170402969Y-105402438D01*
X170402969Y-105402438D02*
X170450588Y-105450057D01*
X170450588Y-105450057D02*
X170498207Y-105545295D01*
X170498207Y-105545295D02*
X170498207Y-105688152D01*
X170498207Y-105688152D02*
X170450588Y-105783390D01*
X170450588Y-105783390D02*
X170402969Y-105831009D01*
X170402969Y-105831009D02*
X170307731Y-105878628D01*
X170307731Y-105878628D02*
X169926779Y-105878628D01*
X171450588Y-106354819D02*
X170879160Y-106354819D01*
X171164874Y-106354819D02*
X171164874Y-105354819D01*
X171164874Y-105354819D02*
X171069636Y-105497676D01*
X171069636Y-105497676D02*
X170974398Y-105592914D01*
X170974398Y-105592914D02*
X170879160Y-105640533D01*
X171783922Y-105354819D02*
X172450588Y-105354819D01*
X172450588Y-105354819D02*
X172022017Y-106354819D01*
X170498207Y-98104819D02*
X170164874Y-97628628D01*
X169926779Y-98104819D02*
X169926779Y-97104819D01*
X169926779Y-97104819D02*
X170307731Y-97104819D01*
X170307731Y-97104819D02*
X170402969Y-97152438D01*
X170402969Y-97152438D02*
X170450588Y-97200057D01*
X170450588Y-97200057D02*
X170498207Y-97295295D01*
X170498207Y-97295295D02*
X170498207Y-97438152D01*
X170498207Y-97438152D02*
X170450588Y-97533390D01*
X170450588Y-97533390D02*
X170402969Y-97581009D01*
X170402969Y-97581009D02*
X170307731Y-97628628D01*
X170307731Y-97628628D02*
X169926779Y-97628628D01*
X170879160Y-97200057D02*
X170926779Y-97152438D01*
X170926779Y-97152438D02*
X171022017Y-97104819D01*
X171022017Y-97104819D02*
X171260112Y-97104819D01*
X171260112Y-97104819D02*
X171355350Y-97152438D01*
X171355350Y-97152438D02*
X171402969Y-97200057D01*
X171402969Y-97200057D02*
X171450588Y-97295295D01*
X171450588Y-97295295D02*
X171450588Y-97390533D01*
X171450588Y-97390533D02*
X171402969Y-97533390D01*
X171402969Y-97533390D02*
X170831541Y-98104819D01*
X170831541Y-98104819D02*
X171450588Y-98104819D01*
X171783922Y-97104819D02*
X172402969Y-97104819D01*
X172402969Y-97104819D02*
X172069636Y-97485771D01*
X172069636Y-97485771D02*
X172212493Y-97485771D01*
X172212493Y-97485771D02*
X172307731Y-97533390D01*
X172307731Y-97533390D02*
X172355350Y-97581009D01*
X172355350Y-97581009D02*
X172402969Y-97676247D01*
X172402969Y-97676247D02*
X172402969Y-97914342D01*
X172402969Y-97914342D02*
X172355350Y-98009580D01*
X172355350Y-98009580D02*
X172307731Y-98057200D01*
X172307731Y-98057200D02*
X172212493Y-98104819D01*
X172212493Y-98104819D02*
X171926779Y-98104819D01*
X171926779Y-98104819D02*
X171831541Y-98057200D01*
X171831541Y-98057200D02*
X171783922Y-98009580D01*
X136107142Y-135859580D02*
X136059523Y-135907200D01*
X136059523Y-135907200D02*
X135916666Y-135954819D01*
X135916666Y-135954819D02*
X135821428Y-135954819D01*
X135821428Y-135954819D02*
X135678571Y-135907200D01*
X135678571Y-135907200D02*
X135583333Y-135811961D01*
X135583333Y-135811961D02*
X135535714Y-135716723D01*
X135535714Y-135716723D02*
X135488095Y-135526247D01*
X135488095Y-135526247D02*
X135488095Y-135383390D01*
X135488095Y-135383390D02*
X135535714Y-135192914D01*
X135535714Y-135192914D02*
X135583333Y-135097676D01*
X135583333Y-135097676D02*
X135678571Y-135002438D01*
X135678571Y-135002438D02*
X135821428Y-134954819D01*
X135821428Y-134954819D02*
X135916666Y-134954819D01*
X135916666Y-134954819D02*
X136059523Y-135002438D01*
X136059523Y-135002438D02*
X136107142Y-135050057D01*
X136488095Y-135050057D02*
X136535714Y-135002438D01*
X136535714Y-135002438D02*
X136630952Y-134954819D01*
X136630952Y-134954819D02*
X136869047Y-134954819D01*
X136869047Y-134954819D02*
X136964285Y-135002438D01*
X136964285Y-135002438D02*
X137011904Y-135050057D01*
X137011904Y-135050057D02*
X137059523Y-135145295D01*
X137059523Y-135145295D02*
X137059523Y-135240533D01*
X137059523Y-135240533D02*
X137011904Y-135383390D01*
X137011904Y-135383390D02*
X136440476Y-135954819D01*
X136440476Y-135954819D02*
X137059523Y-135954819D01*
X137392857Y-134954819D02*
X138011904Y-134954819D01*
X138011904Y-134954819D02*
X137678571Y-135335771D01*
X137678571Y-135335771D02*
X137821428Y-135335771D01*
X137821428Y-135335771D02*
X137916666Y-135383390D01*
X137916666Y-135383390D02*
X137964285Y-135431009D01*
X137964285Y-135431009D02*
X138011904Y-135526247D01*
X138011904Y-135526247D02*
X138011904Y-135764342D01*
X138011904Y-135764342D02*
X137964285Y-135859580D01*
X137964285Y-135859580D02*
X137916666Y-135907200D01*
X137916666Y-135907200D02*
X137821428Y-135954819D01*
X137821428Y-135954819D02*
X137535714Y-135954819D01*
X137535714Y-135954819D02*
X137440476Y-135907200D01*
X137440476Y-135907200D02*
X137392857Y-135859580D01*
X171354819Y-127395238D02*
X170878628Y-127728571D01*
X171354819Y-127966666D02*
X170354819Y-127966666D01*
X170354819Y-127966666D02*
X170354819Y-127585714D01*
X170354819Y-127585714D02*
X170402438Y-127490476D01*
X170402438Y-127490476D02*
X170450057Y-127442857D01*
X170450057Y-127442857D02*
X170545295Y-127395238D01*
X170545295Y-127395238D02*
X170688152Y-127395238D01*
X170688152Y-127395238D02*
X170783390Y-127442857D01*
X170783390Y-127442857D02*
X170831009Y-127490476D01*
X170831009Y-127490476D02*
X170878628Y-127585714D01*
X170878628Y-127585714D02*
X170878628Y-127966666D01*
X170354819Y-127109523D02*
X171354819Y-126776190D01*
X171354819Y-126776190D02*
X170354819Y-126442857D01*
X170354819Y-126204761D02*
X170354819Y-125585714D01*
X170354819Y-125585714D02*
X170735771Y-125919047D01*
X170735771Y-125919047D02*
X170735771Y-125776190D01*
X170735771Y-125776190D02*
X170783390Y-125680952D01*
X170783390Y-125680952D02*
X170831009Y-125633333D01*
X170831009Y-125633333D02*
X170926247Y-125585714D01*
X170926247Y-125585714D02*
X171164342Y-125585714D01*
X171164342Y-125585714D02*
X171259580Y-125633333D01*
X171259580Y-125633333D02*
X171307200Y-125680952D01*
X171307200Y-125680952D02*
X171354819Y-125776190D01*
X171354819Y-125776190D02*
X171354819Y-126061904D01*
X171354819Y-126061904D02*
X171307200Y-126157142D01*
X171307200Y-126157142D02*
X171259580Y-126204761D01*
X170498207Y-89854819D02*
X170164874Y-89378628D01*
X169926779Y-89854819D02*
X169926779Y-88854819D01*
X169926779Y-88854819D02*
X170307731Y-88854819D01*
X170307731Y-88854819D02*
X170402969Y-88902438D01*
X170402969Y-88902438D02*
X170450588Y-88950057D01*
X170450588Y-88950057D02*
X170498207Y-89045295D01*
X170498207Y-89045295D02*
X170498207Y-89188152D01*
X170498207Y-89188152D02*
X170450588Y-89283390D01*
X170450588Y-89283390D02*
X170402969Y-89331009D01*
X170402969Y-89331009D02*
X170307731Y-89378628D01*
X170307731Y-89378628D02*
X169926779Y-89378628D01*
X170879160Y-88950057D02*
X170926779Y-88902438D01*
X170926779Y-88902438D02*
X171022017Y-88854819D01*
X171022017Y-88854819D02*
X171260112Y-88854819D01*
X171260112Y-88854819D02*
X171355350Y-88902438D01*
X171355350Y-88902438D02*
X171402969Y-88950057D01*
X171402969Y-88950057D02*
X171450588Y-89045295D01*
X171450588Y-89045295D02*
X171450588Y-89140533D01*
X171450588Y-89140533D02*
X171402969Y-89283390D01*
X171402969Y-89283390D02*
X170831541Y-89854819D01*
X170831541Y-89854819D02*
X171450588Y-89854819D01*
X172069636Y-88854819D02*
X172164874Y-88854819D01*
X172164874Y-88854819D02*
X172260112Y-88902438D01*
X172260112Y-88902438D02*
X172307731Y-88950057D01*
X172307731Y-88950057D02*
X172355350Y-89045295D01*
X172355350Y-89045295D02*
X172402969Y-89235771D01*
X172402969Y-89235771D02*
X172402969Y-89473866D01*
X172402969Y-89473866D02*
X172355350Y-89664342D01*
X172355350Y-89664342D02*
X172307731Y-89759580D01*
X172307731Y-89759580D02*
X172260112Y-89807200D01*
X172260112Y-89807200D02*
X172164874Y-89854819D01*
X172164874Y-89854819D02*
X172069636Y-89854819D01*
X172069636Y-89854819D02*
X171974398Y-89807200D01*
X171974398Y-89807200D02*
X171926779Y-89759580D01*
X171926779Y-89759580D02*
X171879160Y-89664342D01*
X171879160Y-89664342D02*
X171831541Y-89473866D01*
X171831541Y-89473866D02*
X171831541Y-89235771D01*
X171831541Y-89235771D02*
X171879160Y-89045295D01*
X171879160Y-89045295D02*
X171926779Y-88950057D01*
X171926779Y-88950057D02*
X171974398Y-88902438D01*
X171974398Y-88902438D02*
X172069636Y-88854819D01*
X129258458Y-84354819D02*
X128925125Y-83878628D01*
X128687030Y-84354819D02*
X128687030Y-83354819D01*
X128687030Y-83354819D02*
X129067982Y-83354819D01*
X129067982Y-83354819D02*
X129163220Y-83402438D01*
X129163220Y-83402438D02*
X129210839Y-83450057D01*
X129210839Y-83450057D02*
X129258458Y-83545295D01*
X129258458Y-83545295D02*
X129258458Y-83688152D01*
X129258458Y-83688152D02*
X129210839Y-83783390D01*
X129210839Y-83783390D02*
X129163220Y-83831009D01*
X129163220Y-83831009D02*
X129067982Y-83878628D01*
X129067982Y-83878628D02*
X128687030Y-83878628D01*
X129734649Y-84354819D02*
X129925125Y-84354819D01*
X129925125Y-84354819D02*
X130020363Y-84307200D01*
X130020363Y-84307200D02*
X130067982Y-84259580D01*
X130067982Y-84259580D02*
X130163220Y-84116723D01*
X130163220Y-84116723D02*
X130210839Y-83926247D01*
X130210839Y-83926247D02*
X130210839Y-83545295D01*
X130210839Y-83545295D02*
X130163220Y-83450057D01*
X130163220Y-83450057D02*
X130115601Y-83402438D01*
X130115601Y-83402438D02*
X130020363Y-83354819D01*
X130020363Y-83354819D02*
X129829887Y-83354819D01*
X129829887Y-83354819D02*
X129734649Y-83402438D01*
X129734649Y-83402438D02*
X129687030Y-83450057D01*
X129687030Y-83450057D02*
X129639411Y-83545295D01*
X129639411Y-83545295D02*
X129639411Y-83783390D01*
X129639411Y-83783390D02*
X129687030Y-83878628D01*
X129687030Y-83878628D02*
X129734649Y-83926247D01*
X129734649Y-83926247D02*
X129829887Y-83973866D01*
X129829887Y-83973866D02*
X130020363Y-83973866D01*
X130020363Y-83973866D02*
X130115601Y-83926247D01*
X130115601Y-83926247D02*
X130163220Y-83878628D01*
X130163220Y-83878628D02*
X130210839Y-83783390D01*
X139607142Y-88004023D02*
X139559523Y-88051643D01*
X139559523Y-88051643D02*
X139416666Y-88099262D01*
X139416666Y-88099262D02*
X139321428Y-88099262D01*
X139321428Y-88099262D02*
X139178571Y-88051643D01*
X139178571Y-88051643D02*
X139083333Y-87956404D01*
X139083333Y-87956404D02*
X139035714Y-87861166D01*
X139035714Y-87861166D02*
X138988095Y-87670690D01*
X138988095Y-87670690D02*
X138988095Y-87527833D01*
X138988095Y-87527833D02*
X139035714Y-87337357D01*
X139035714Y-87337357D02*
X139083333Y-87242119D01*
X139083333Y-87242119D02*
X139178571Y-87146881D01*
X139178571Y-87146881D02*
X139321428Y-87099262D01*
X139321428Y-87099262D02*
X139416666Y-87099262D01*
X139416666Y-87099262D02*
X139559523Y-87146881D01*
X139559523Y-87146881D02*
X139607142Y-87194500D01*
X140559523Y-88099262D02*
X139988095Y-88099262D01*
X140273809Y-88099262D02*
X140273809Y-87099262D01*
X140273809Y-87099262D02*
X140178571Y-87242119D01*
X140178571Y-87242119D02*
X140083333Y-87337357D01*
X140083333Y-87337357D02*
X139988095Y-87384976D01*
X140940476Y-87194500D02*
X140988095Y-87146881D01*
X140988095Y-87146881D02*
X141083333Y-87099262D01*
X141083333Y-87099262D02*
X141321428Y-87099262D01*
X141321428Y-87099262D02*
X141416666Y-87146881D01*
X141416666Y-87146881D02*
X141464285Y-87194500D01*
X141464285Y-87194500D02*
X141511904Y-87289738D01*
X141511904Y-87289738D02*
X141511904Y-87384976D01*
X141511904Y-87384976D02*
X141464285Y-87527833D01*
X141464285Y-87527833D02*
X140892857Y-88099262D01*
X140892857Y-88099262D02*
X141511904Y-88099262D01*
X128687030Y-95354819D02*
X128687030Y-94354819D01*
X128687030Y-94354819D02*
X128925125Y-94354819D01*
X128925125Y-94354819D02*
X129067982Y-94402438D01*
X129067982Y-94402438D02*
X129163220Y-94497676D01*
X129163220Y-94497676D02*
X129210839Y-94592914D01*
X129210839Y-94592914D02*
X129258458Y-94783390D01*
X129258458Y-94783390D02*
X129258458Y-94926247D01*
X129258458Y-94926247D02*
X129210839Y-95116723D01*
X129210839Y-95116723D02*
X129163220Y-95211961D01*
X129163220Y-95211961D02*
X129067982Y-95307200D01*
X129067982Y-95307200D02*
X128925125Y-95354819D01*
X128925125Y-95354819D02*
X128687030Y-95354819D01*
X130115601Y-94688152D02*
X130115601Y-95354819D01*
X129877506Y-94307200D02*
X129639411Y-95021485D01*
X129639411Y-95021485D02*
X130258458Y-95021485D01*
X128256077Y-76154819D02*
X127922744Y-75678628D01*
X127684649Y-76154819D02*
X127684649Y-75154819D01*
X127684649Y-75154819D02*
X128065601Y-75154819D01*
X128065601Y-75154819D02*
X128160839Y-75202438D01*
X128160839Y-75202438D02*
X128208458Y-75250057D01*
X128208458Y-75250057D02*
X128256077Y-75345295D01*
X128256077Y-75345295D02*
X128256077Y-75488152D01*
X128256077Y-75488152D02*
X128208458Y-75583390D01*
X128208458Y-75583390D02*
X128160839Y-75631009D01*
X128160839Y-75631009D02*
X128065601Y-75678628D01*
X128065601Y-75678628D02*
X127684649Y-75678628D01*
X129208458Y-76154819D02*
X128637030Y-76154819D01*
X128922744Y-76154819D02*
X128922744Y-75154819D01*
X128922744Y-75154819D02*
X128827506Y-75297676D01*
X128827506Y-75297676D02*
X128732268Y-75392914D01*
X128732268Y-75392914D02*
X128637030Y-75440533D01*
X129541792Y-75154819D02*
X130160839Y-75154819D01*
X130160839Y-75154819D02*
X129827506Y-75535771D01*
X129827506Y-75535771D02*
X129970363Y-75535771D01*
X129970363Y-75535771D02*
X130065601Y-75583390D01*
X130065601Y-75583390D02*
X130113220Y-75631009D01*
X130113220Y-75631009D02*
X130160839Y-75726247D01*
X130160839Y-75726247D02*
X130160839Y-75964342D01*
X130160839Y-75964342D02*
X130113220Y-76059580D01*
X130113220Y-76059580D02*
X130065601Y-76107200D01*
X130065601Y-76107200D02*
X129970363Y-76154819D01*
X129970363Y-76154819D02*
X129684649Y-76154819D01*
X129684649Y-76154819D02*
X129589411Y-76107200D01*
X129589411Y-76107200D02*
X129541792Y-76059580D01*
X144954819Y-67581541D02*
X144478628Y-67914874D01*
X144954819Y-68152969D02*
X143954819Y-68152969D01*
X143954819Y-68152969D02*
X143954819Y-67772017D01*
X143954819Y-67772017D02*
X144002438Y-67676779D01*
X144002438Y-67676779D02*
X144050057Y-67629160D01*
X144050057Y-67629160D02*
X144145295Y-67581541D01*
X144145295Y-67581541D02*
X144288152Y-67581541D01*
X144288152Y-67581541D02*
X144383390Y-67629160D01*
X144383390Y-67629160D02*
X144431009Y-67676779D01*
X144431009Y-67676779D02*
X144478628Y-67772017D01*
X144478628Y-67772017D02*
X144478628Y-68152969D01*
X144050057Y-67200588D02*
X144002438Y-67152969D01*
X144002438Y-67152969D02*
X143954819Y-67057731D01*
X143954819Y-67057731D02*
X143954819Y-66819636D01*
X143954819Y-66819636D02*
X144002438Y-66724398D01*
X144002438Y-66724398D02*
X144050057Y-66676779D01*
X144050057Y-66676779D02*
X144145295Y-66629160D01*
X144145295Y-66629160D02*
X144240533Y-66629160D01*
X144240533Y-66629160D02*
X144383390Y-66676779D01*
X144383390Y-66676779D02*
X144954819Y-67248207D01*
X144954819Y-67248207D02*
X144954819Y-66629160D01*
X158704819Y-67581541D02*
X158228628Y-67914874D01*
X158704819Y-68152969D02*
X157704819Y-68152969D01*
X157704819Y-68152969D02*
X157704819Y-67772017D01*
X157704819Y-67772017D02*
X157752438Y-67676779D01*
X157752438Y-67676779D02*
X157800057Y-67629160D01*
X157800057Y-67629160D02*
X157895295Y-67581541D01*
X157895295Y-67581541D02*
X158038152Y-67581541D01*
X158038152Y-67581541D02*
X158133390Y-67629160D01*
X158133390Y-67629160D02*
X158181009Y-67676779D01*
X158181009Y-67676779D02*
X158228628Y-67772017D01*
X158228628Y-67772017D02*
X158228628Y-68152969D01*
X157704819Y-67248207D02*
X157704819Y-66581541D01*
X157704819Y-66581541D02*
X158704819Y-67010112D01*
X126107142Y-135859580D02*
X126059523Y-135907200D01*
X126059523Y-135907200D02*
X125916666Y-135954819D01*
X125916666Y-135954819D02*
X125821428Y-135954819D01*
X125821428Y-135954819D02*
X125678571Y-135907200D01*
X125678571Y-135907200D02*
X125583333Y-135811961D01*
X125583333Y-135811961D02*
X125535714Y-135716723D01*
X125535714Y-135716723D02*
X125488095Y-135526247D01*
X125488095Y-135526247D02*
X125488095Y-135383390D01*
X125488095Y-135383390D02*
X125535714Y-135192914D01*
X125535714Y-135192914D02*
X125583333Y-135097676D01*
X125583333Y-135097676D02*
X125678571Y-135002438D01*
X125678571Y-135002438D02*
X125821428Y-134954819D01*
X125821428Y-134954819D02*
X125916666Y-134954819D01*
X125916666Y-134954819D02*
X126059523Y-135002438D01*
X126059523Y-135002438D02*
X126107142Y-135050057D01*
X126488095Y-135050057D02*
X126535714Y-135002438D01*
X126535714Y-135002438D02*
X126630952Y-134954819D01*
X126630952Y-134954819D02*
X126869047Y-134954819D01*
X126869047Y-134954819D02*
X126964285Y-135002438D01*
X126964285Y-135002438D02*
X127011904Y-135050057D01*
X127011904Y-135050057D02*
X127059523Y-135145295D01*
X127059523Y-135145295D02*
X127059523Y-135240533D01*
X127059523Y-135240533D02*
X127011904Y-135383390D01*
X127011904Y-135383390D02*
X126440476Y-135954819D01*
X126440476Y-135954819D02*
X127059523Y-135954819D01*
X127916666Y-135288152D02*
X127916666Y-135954819D01*
X127678571Y-134907200D02*
X127440476Y-135621485D01*
X127440476Y-135621485D02*
X128059523Y-135621485D01*
X140083333Y-77020692D02*
X140035714Y-77068312D01*
X140035714Y-77068312D02*
X139892857Y-77115931D01*
X139892857Y-77115931D02*
X139797619Y-77115931D01*
X139797619Y-77115931D02*
X139654762Y-77068312D01*
X139654762Y-77068312D02*
X139559524Y-76973073D01*
X139559524Y-76973073D02*
X139511905Y-76877835D01*
X139511905Y-76877835D02*
X139464286Y-76687359D01*
X139464286Y-76687359D02*
X139464286Y-76544502D01*
X139464286Y-76544502D02*
X139511905Y-76354026D01*
X139511905Y-76354026D02*
X139559524Y-76258788D01*
X139559524Y-76258788D02*
X139654762Y-76163550D01*
X139654762Y-76163550D02*
X139797619Y-76115931D01*
X139797619Y-76115931D02*
X139892857Y-76115931D01*
X139892857Y-76115931D02*
X140035714Y-76163550D01*
X140035714Y-76163550D02*
X140083333Y-76211169D01*
X140559524Y-77115931D02*
X140750000Y-77115931D01*
X140750000Y-77115931D02*
X140845238Y-77068312D01*
X140845238Y-77068312D02*
X140892857Y-77020692D01*
X140892857Y-77020692D02*
X140988095Y-76877835D01*
X140988095Y-76877835D02*
X141035714Y-76687359D01*
X141035714Y-76687359D02*
X141035714Y-76306407D01*
X141035714Y-76306407D02*
X140988095Y-76211169D01*
X140988095Y-76211169D02*
X140940476Y-76163550D01*
X140940476Y-76163550D02*
X140845238Y-76115931D01*
X140845238Y-76115931D02*
X140654762Y-76115931D01*
X140654762Y-76115931D02*
X140559524Y-76163550D01*
X140559524Y-76163550D02*
X140511905Y-76211169D01*
X140511905Y-76211169D02*
X140464286Y-76306407D01*
X140464286Y-76306407D02*
X140464286Y-76544502D01*
X140464286Y-76544502D02*
X140511905Y-76639740D01*
X140511905Y-76639740D02*
X140559524Y-76687359D01*
X140559524Y-76687359D02*
X140654762Y-76734978D01*
X140654762Y-76734978D02*
X140845238Y-76734978D01*
X140845238Y-76734978D02*
X140940476Y-76687359D01*
X140940476Y-76687359D02*
X140988095Y-76639740D01*
X140988095Y-76639740D02*
X141035714Y-76544502D01*
X139607142Y-106309579D02*
X139559523Y-106357199D01*
X139559523Y-106357199D02*
X139416666Y-106404818D01*
X139416666Y-106404818D02*
X139321428Y-106404818D01*
X139321428Y-106404818D02*
X139178571Y-106357199D01*
X139178571Y-106357199D02*
X139083333Y-106261960D01*
X139083333Y-106261960D02*
X139035714Y-106166722D01*
X139035714Y-106166722D02*
X138988095Y-105976246D01*
X138988095Y-105976246D02*
X138988095Y-105833389D01*
X138988095Y-105833389D02*
X139035714Y-105642913D01*
X139035714Y-105642913D02*
X139083333Y-105547675D01*
X139083333Y-105547675D02*
X139178571Y-105452437D01*
X139178571Y-105452437D02*
X139321428Y-105404818D01*
X139321428Y-105404818D02*
X139416666Y-105404818D01*
X139416666Y-105404818D02*
X139559523Y-105452437D01*
X139559523Y-105452437D02*
X139607142Y-105500056D01*
X140559523Y-106404818D02*
X139988095Y-106404818D01*
X140273809Y-106404818D02*
X140273809Y-105404818D01*
X140273809Y-105404818D02*
X140178571Y-105547675D01*
X140178571Y-105547675D02*
X140083333Y-105642913D01*
X140083333Y-105642913D02*
X139988095Y-105690532D01*
X141416666Y-105404818D02*
X141226190Y-105404818D01*
X141226190Y-105404818D02*
X141130952Y-105452437D01*
X141130952Y-105452437D02*
X141083333Y-105500056D01*
X141083333Y-105500056D02*
X140988095Y-105642913D01*
X140988095Y-105642913D02*
X140940476Y-105833389D01*
X140940476Y-105833389D02*
X140940476Y-106214341D01*
X140940476Y-106214341D02*
X140988095Y-106309579D01*
X140988095Y-106309579D02*
X141035714Y-106357199D01*
X141035714Y-106357199D02*
X141130952Y-106404818D01*
X141130952Y-106404818D02*
X141321428Y-106404818D01*
X141321428Y-106404818D02*
X141416666Y-106357199D01*
X141416666Y-106357199D02*
X141464285Y-106309579D01*
X141464285Y-106309579D02*
X141511904Y-106214341D01*
X141511904Y-106214341D02*
X141511904Y-105976246D01*
X141511904Y-105976246D02*
X141464285Y-105881008D01*
X141464285Y-105881008D02*
X141416666Y-105833389D01*
X141416666Y-105833389D02*
X141321428Y-105785770D01*
X141321428Y-105785770D02*
X141130952Y-105785770D01*
X141130952Y-105785770D02*
X141035714Y-105833389D01*
X141035714Y-105833389D02*
X140988095Y-105881008D01*
X140988095Y-105881008D02*
X140940476Y-105976246D01*
X128306077Y-100904819D02*
X127972744Y-100428628D01*
X127734649Y-100904819D02*
X127734649Y-99904819D01*
X127734649Y-99904819D02*
X128115601Y-99904819D01*
X128115601Y-99904819D02*
X128210839Y-99952438D01*
X128210839Y-99952438D02*
X128258458Y-100000057D01*
X128258458Y-100000057D02*
X128306077Y-100095295D01*
X128306077Y-100095295D02*
X128306077Y-100238152D01*
X128306077Y-100238152D02*
X128258458Y-100333390D01*
X128258458Y-100333390D02*
X128210839Y-100381009D01*
X128210839Y-100381009D02*
X128115601Y-100428628D01*
X128115601Y-100428628D02*
X127734649Y-100428628D01*
X129258458Y-100904819D02*
X128687030Y-100904819D01*
X128972744Y-100904819D02*
X128972744Y-99904819D01*
X128972744Y-99904819D02*
X128877506Y-100047676D01*
X128877506Y-100047676D02*
X128782268Y-100142914D01*
X128782268Y-100142914D02*
X128687030Y-100190533D01*
X130210839Y-100904819D02*
X129639411Y-100904819D01*
X129925125Y-100904819D02*
X129925125Y-99904819D01*
X129925125Y-99904819D02*
X129829887Y-100047676D01*
X129829887Y-100047676D02*
X129734649Y-100142914D01*
X129734649Y-100142914D02*
X129639411Y-100190533D01*
X160359580Y-75892857D02*
X160407200Y-75940476D01*
X160407200Y-75940476D02*
X160454819Y-76083333D01*
X160454819Y-76083333D02*
X160454819Y-76178571D01*
X160454819Y-76178571D02*
X160407200Y-76321428D01*
X160407200Y-76321428D02*
X160311961Y-76416666D01*
X160311961Y-76416666D02*
X160216723Y-76464285D01*
X160216723Y-76464285D02*
X160026247Y-76511904D01*
X160026247Y-76511904D02*
X159883390Y-76511904D01*
X159883390Y-76511904D02*
X159692914Y-76464285D01*
X159692914Y-76464285D02*
X159597676Y-76416666D01*
X159597676Y-76416666D02*
X159502438Y-76321428D01*
X159502438Y-76321428D02*
X159454819Y-76178571D01*
X159454819Y-76178571D02*
X159454819Y-76083333D01*
X159454819Y-76083333D02*
X159502438Y-75940476D01*
X159502438Y-75940476D02*
X159550057Y-75892857D01*
X159550057Y-75511904D02*
X159502438Y-75464285D01*
X159502438Y-75464285D02*
X159454819Y-75369047D01*
X159454819Y-75369047D02*
X159454819Y-75130952D01*
X159454819Y-75130952D02*
X159502438Y-75035714D01*
X159502438Y-75035714D02*
X159550057Y-74988095D01*
X159550057Y-74988095D02*
X159645295Y-74940476D01*
X159645295Y-74940476D02*
X159740533Y-74940476D01*
X159740533Y-74940476D02*
X159883390Y-74988095D01*
X159883390Y-74988095D02*
X160454819Y-75559523D01*
X160454819Y-75559523D02*
X160454819Y-74940476D01*
X159550057Y-74559523D02*
X159502438Y-74511904D01*
X159502438Y-74511904D02*
X159454819Y-74416666D01*
X159454819Y-74416666D02*
X159454819Y-74178571D01*
X159454819Y-74178571D02*
X159502438Y-74083333D01*
X159502438Y-74083333D02*
X159550057Y-74035714D01*
X159550057Y-74035714D02*
X159645295Y-73988095D01*
X159645295Y-73988095D02*
X159740533Y-73988095D01*
X159740533Y-73988095D02*
X159883390Y-74035714D01*
X159883390Y-74035714D02*
X160454819Y-74607142D01*
X160454819Y-74607142D02*
X160454819Y-73988095D01*
%TO.C,R18*%
X167274000Y-83900000D02*
X166690000Y-83900000D01*
X169306000Y-83900000D02*
G75*
G02*
X167274000Y-83900000I-1016000J0D01*
G01*
X167274000Y-83900000D02*
G75*
G02*
X169306000Y-83900000I1016000J0D01*
G01*
%TO.C,R3*%
X147250000Y-64024000D02*
X147250000Y-63440000D01*
X148266000Y-65040000D02*
G75*
G02*
X146234000Y-65040000I-1016000J0D01*
G01*
X146234000Y-65040000D02*
G75*
G02*
X148266000Y-65040000I1016000J0D01*
G01*
D12*
%TO.C,C5*%
X137750000Y-93566667D02*
X142750000Y-93566667D01*
X137750000Y-93966667D02*
X137750000Y-93566667D01*
X137750000Y-95966667D02*
X137750000Y-96366667D01*
X137750000Y-96366667D02*
X142750000Y-96366667D01*
X142750000Y-93566667D02*
X142750000Y-93966667D01*
X142750000Y-96366667D02*
X142750000Y-95966667D01*
%TO.C,RV1*%
X130100000Y-120400001D02*
X130100001Y-117000000D01*
X130100001Y-128000000D02*
X130100001Y-124600000D01*
X130100001Y-128000000D02*
X139899999Y-128000000D01*
X139899999Y-117000000D02*
X130100001Y-117000000D01*
X139899999Y-120400000D02*
X139899999Y-117000000D01*
X139899999Y-128000000D02*
X139900000Y-124599999D01*
X132279707Y-121139853D02*
G75*
G02*
X137699999Y-121100001I2720293J-1360147D01*
G01*
X137720293Y-123860147D02*
G75*
G02*
X132300001Y-123899999I-2720293J1360147D01*
G01*
%TO.C,J2*%
X160500000Y-58000000D02*
X160500000Y-68500000D01*
X163770000Y-54850000D02*
X163770000Y-55650000D01*
X163770000Y-54850000D02*
X164630000Y-54850000D01*
X164200000Y-68500000D02*
X160500000Y-68500000D01*
X164280000Y-58000000D02*
X160500000Y-58000000D01*
X169500000Y-58000000D02*
X165720000Y-58000000D01*
X169500000Y-58000000D02*
X169500000Y-68500000D01*
X169500000Y-68500000D02*
X165800000Y-68500000D01*
X166800000Y-62500000D02*
G75*
G02*
X163200000Y-62500000I-1800000J0D01*
G01*
X163200000Y-62500000D02*
G75*
G02*
X166800000Y-62500000I1800000J0D01*
G01*
D11*
%TO.C,R21*%
X167274000Y-92150000D02*
X166690000Y-92150000D01*
X169306000Y-92150000D02*
G75*
G02*
X167274000Y-92150000I-1016000J0D01*
G01*
X167274000Y-92150000D02*
G75*
G02*
X169306000Y-92150000I1016000J0D01*
G01*
%TO.C,D2*%
X132425000Y-88619377D02*
X132425001Y-88619376D01*
D13*
X132900000Y-89150000D02*
X133100000Y-89400000D01*
X133100000Y-89400000D02*
X132900000Y-89650000D01*
D11*
X133400000Y-88600000D02*
X133400000Y-90200000D01*
X133400000Y-89400000D02*
X132425001Y-88619376D01*
X133400000Y-89400000D02*
X132425001Y-90180624D01*
D14*
X133410000Y-89400000D02*
X133400000Y-89400000D01*
D11*
X132424997Y-88619375D02*
G75*
G02*
X132424991Y-90180624I-624997J-780622D01*
G01*
D15*
X133405025Y-89400000D02*
G75*
G02*
X133394975Y-89400000I-5025J0D01*
G01*
X133394975Y-89400000D02*
G75*
G02*
X133405025Y-89400000I5025J0D01*
G01*
D12*
%TO.C,U4*%
X141600000Y-138260000D02*
X139650000Y-138260000D01*
X141600000Y-140800000D02*
X139650000Y-140800000D01*
X141600000Y-143340000D02*
X139650000Y-143340000D01*
%TO.C,C15*%
X137750000Y-100888889D02*
X137750000Y-101288889D01*
X137750000Y-103688889D02*
X137750000Y-103288889D01*
X142750000Y-100888889D02*
X137750000Y-100888889D01*
X142750000Y-101288889D02*
X142750000Y-100888889D01*
X142750000Y-103288889D02*
X142750000Y-103688889D01*
X142750000Y-103688889D02*
X137750000Y-103688889D01*
D11*
%TO.C,R8*%
X132766000Y-81150000D02*
X133350000Y-81150000D01*
X132766000Y-81150000D02*
G75*
G02*
X130734000Y-81150000I-1016000J0D01*
G01*
X130734000Y-81150000D02*
G75*
G02*
X132766000Y-81150000I1016000J0D01*
G01*
%TO.C,R6*%
X155500000Y-64024000D02*
X155500000Y-63440000D01*
X156516000Y-65040000D02*
G75*
G02*
X154484000Y-65040000I-1016000J0D01*
G01*
X154484000Y-65040000D02*
G75*
G02*
X156516000Y-65040000I1016000J0D01*
G01*
D12*
%TO.C,C19*%
X157250000Y-95150000D02*
X157250000Y-95550000D01*
X157250000Y-97950000D02*
X157250000Y-97550000D01*
X162250000Y-95150000D02*
X157250000Y-95150000D01*
X162250000Y-95550000D02*
X162250000Y-95150000D01*
X162250000Y-97550000D02*
X162250000Y-97950000D01*
X162250000Y-97950000D02*
X157250000Y-97950000D01*
%TO.C,C11*%
X137750000Y-82583333D02*
X142750000Y-82583333D01*
X137750000Y-82983333D02*
X137750000Y-82583333D01*
X137750000Y-84983333D02*
X137750000Y-85383333D01*
X137750000Y-85383333D02*
X142750000Y-85383333D01*
X142750000Y-82583333D02*
X142750000Y-82983333D01*
X142750000Y-85383333D02*
X142750000Y-84983333D01*
%TO.C,C20*%
X157250000Y-98850000D02*
X162250000Y-98850000D01*
X157250000Y-99250000D02*
X157250000Y-98850000D01*
X157250000Y-101250000D02*
X157250000Y-101650000D01*
X157250000Y-101650000D02*
X162250000Y-101650000D01*
X162250000Y-98850000D02*
X162250000Y-99250000D01*
X162250000Y-101650000D02*
X162250000Y-101250000D01*
D11*
%TO.C,R10*%
X132816000Y-97650000D02*
X133400000Y-97650000D01*
X132816000Y-97650000D02*
G75*
G02*
X130784000Y-97650000I-1016000J0D01*
G01*
X130784000Y-97650000D02*
G75*
G02*
X132816000Y-97650000I1016000J0D01*
G01*
%TO.C,R24*%
X132796500Y-103200000D02*
X133380500Y-103200000D01*
X132796500Y-103200000D02*
G75*
G02*
X130764500Y-103200000I-1016000J0D01*
G01*
X130764500Y-103200000D02*
G75*
G02*
X132796500Y-103200000I1016000J0D01*
G01*
%TO.C,R14*%
X132766000Y-78450000D02*
X133350000Y-78450000D01*
X132766000Y-78450000D02*
G75*
G02*
X130734000Y-78450000I-1016000J0D01*
G01*
X130734000Y-78450000D02*
G75*
G02*
X132766000Y-78450000I1016000J0D01*
G01*
%TO.C,R19*%
X167274000Y-86650000D02*
X166690000Y-86650000D01*
X169306000Y-86650000D02*
G75*
G02*
X167274000Y-86650000I-1016000J0D01*
G01*
X167274000Y-86650000D02*
G75*
G02*
X169306000Y-86650000I1016000J0D01*
G01*
%TO.C,R4*%
X150000000Y-64024000D02*
X150000000Y-63440000D01*
X151016000Y-65040000D02*
G75*
G02*
X148984000Y-65040000I-1016000J0D01*
G01*
X148984000Y-65040000D02*
G75*
G02*
X151016000Y-65040000I1016000J0D01*
G01*
%TO.C,R5*%
X152750000Y-64024000D02*
X152750000Y-63440000D01*
X153766000Y-65040000D02*
G75*
G02*
X151734000Y-65040000I-1016000J0D01*
G01*
X151734000Y-65040000D02*
G75*
G02*
X153766000Y-65040000I1016000J0D01*
G01*
D12*
%TO.C,U2*%
X147750000Y-105110000D02*
X147750000Y-114340000D01*
X147750000Y-114340000D02*
X152250000Y-114340000D01*
X149000000Y-105110000D02*
X147750000Y-105110000D01*
X152250000Y-105110000D02*
X151000000Y-105110000D01*
X152250000Y-114340000D02*
X152250000Y-105110000D01*
X151000000Y-105110000D02*
G75*
G02*
X149000000Y-105110000I-1000000J0D01*
G01*
D16*
%TO.C,C14*%
X129250000Y-110450000D02*
X129250000Y-114450000D01*
X129750000Y-114950000D02*
X138750000Y-114950000D01*
X138750000Y-109950000D02*
X129750000Y-109950000D01*
X139250000Y-110450000D02*
X138750000Y-109950000D01*
X139250000Y-114450000D02*
X138750000Y-114950000D01*
X139750000Y-109950000D02*
X139250000Y-110450000D01*
X139750000Y-114950000D02*
X139250000Y-114450000D01*
X139750000Y-114950000D02*
X140250000Y-114950000D01*
X140250000Y-109950000D02*
X139750000Y-109950000D01*
X140750000Y-114450000D02*
X140750000Y-110450000D01*
D12*
X140950000Y-113700000D02*
X141750000Y-113700000D01*
X141350000Y-111600000D02*
X141350000Y-110750000D01*
X141350000Y-114125000D02*
X141350000Y-113275000D01*
D16*
X129250000Y-110450000D02*
G75*
G02*
X129750000Y-109950000I500000J0D01*
G01*
X129750000Y-114950000D02*
G75*
G02*
X129250000Y-114450000I1J500001D01*
G01*
X140250000Y-109950000D02*
G75*
G02*
X140750000Y-110450000I0J-500000D01*
G01*
X140750000Y-114450000D02*
G75*
G02*
X140250000Y-114950000I-500001J1D01*
G01*
D17*
X139250000Y-110450000D02*
X139750000Y-109950000D01*
X140250000Y-109950000D01*
X140603553Y-110096447D01*
X140750000Y-110450000D01*
X140750000Y-110950000D01*
X129250000Y-110950000D01*
X129250000Y-110450000D01*
X129396447Y-110096447D01*
X129750000Y-109950000D01*
X138750000Y-109950000D01*
X139250000Y-110450000D01*
G36*
X139250000Y-110450000D02*
G01*
X139750000Y-109950000D01*
X140250000Y-109950000D01*
X140603553Y-110096447D01*
X140750000Y-110450000D01*
X140750000Y-110950000D01*
X129250000Y-110950000D01*
X129250000Y-110450000D01*
X129396447Y-110096447D01*
X129750000Y-109950000D01*
X138750000Y-109950000D01*
X139250000Y-110450000D01*
G37*
D11*
%TO.C,R15*%
X167274000Y-100400000D02*
X166690000Y-100400000D01*
X169306000Y-100400000D02*
G75*
G02*
X167274000Y-100400000I-1016000J0D01*
G01*
X167274000Y-100400000D02*
G75*
G02*
X169306000Y-100400000I1016000J0D01*
G01*
D12*
%TO.C,RV2*%
X145100000Y-120400001D02*
X145100001Y-117000000D01*
X145100001Y-128000000D02*
X145100001Y-124600000D01*
X145100001Y-128000000D02*
X154899999Y-128000000D01*
X154899999Y-117000000D02*
X145100001Y-117000000D01*
X154899999Y-120400000D02*
X154899999Y-117000000D01*
X154899999Y-128000000D02*
X154900000Y-124599999D01*
X147279707Y-121139853D02*
G75*
G02*
X152699999Y-121100001I2720293J-1360147D01*
G01*
X152720293Y-123860147D02*
G75*
G02*
X147300001Y-123899999I-2720293J1360147D01*
G01*
%TO.C,J3*%
X127940000Y-142090000D02*
X127940000Y-149910000D01*
X127940000Y-143690000D02*
X128860000Y-143690000D01*
X127940000Y-149910000D02*
X136060000Y-149910000D01*
X128700000Y-146050000D02*
X128700000Y-147650000D01*
X128700000Y-147650000D02*
X129700000Y-147650000D01*
X128860000Y-142090000D02*
X127940000Y-142090000D01*
X128860000Y-143690000D02*
X128860000Y-142090000D01*
X129140000Y-143690000D02*
X128860000Y-143690000D01*
X129140000Y-143690000D02*
X129140000Y-142475000D01*
X129200000Y-147650000D02*
X129200000Y-149910000D01*
X129700000Y-146050000D02*
X128700000Y-146050000D01*
X129700000Y-147650000D02*
X129700000Y-146050000D01*
X129700000Y-147650000D02*
X129700000Y-149910000D01*
X130500000Y-145550000D02*
X133500000Y-145550000D01*
X130500000Y-149910000D02*
X130500000Y-145550000D01*
X133500000Y-145550000D02*
X133500000Y-149910000D01*
X134300000Y-146050000D02*
X135300000Y-146050000D01*
X134300000Y-147650000D02*
X134300000Y-146050000D01*
X135140000Y-142090000D02*
X135140000Y-143690000D01*
X135140000Y-143690000D02*
X134860000Y-143690000D01*
X135300000Y-146050000D02*
X135300000Y-147650000D01*
X135300000Y-147650000D02*
X134300000Y-147650000D01*
X136060000Y-142090000D02*
X135140000Y-142090000D01*
X136060000Y-143690000D02*
X135140000Y-143690000D01*
X136060000Y-149910000D02*
X136060000Y-142090000D01*
%TO.C,C6*%
X137750000Y-97227778D02*
X142750000Y-97227778D01*
X137750000Y-97627778D02*
X137750000Y-97227778D01*
X137750000Y-99627778D02*
X137750000Y-100027778D01*
X137750000Y-100027778D02*
X142750000Y-100027778D01*
X142750000Y-97227778D02*
X142750000Y-97627778D01*
X142750000Y-100027778D02*
X142750000Y-99627778D01*
%TO.C,U3*%
X147750000Y-82760000D02*
X147750000Y-102210000D01*
X147750000Y-102210000D02*
X152250000Y-102210000D01*
X149000000Y-82760000D02*
X147750000Y-82760000D01*
X152250000Y-82760000D02*
X151000000Y-82760000D01*
X152250000Y-102210000D02*
X152250000Y-82760000D01*
X151000000Y-82760000D02*
G75*
G02*
X149000000Y-82760000I-1000000J0D01*
G01*
%TO.C,C1*%
X145000000Y-54790000D02*
X145400000Y-54790000D01*
X145000000Y-59790000D02*
X145000000Y-54790000D01*
X145400000Y-59790000D02*
X145000000Y-59790000D01*
X147400000Y-59790000D02*
X147800000Y-59790000D01*
X147800000Y-54790000D02*
X147400000Y-54790000D01*
X147800000Y-59790000D02*
X147800000Y-54790000D01*
%TO.C,C21*%
X165680000Y-71380000D02*
X165680000Y-79120000D01*
X167066000Y-71380000D02*
X165680000Y-71380000D01*
X167066000Y-79120000D02*
X165680000Y-79120000D01*
X170920000Y-71380000D02*
X169534000Y-71380000D01*
X170920000Y-71380000D02*
X170920000Y-79120000D01*
X170920000Y-79120000D02*
X169534000Y-79120000D01*
%TO.C,J4*%
X163940000Y-142090000D02*
X163940000Y-149910000D01*
X163940000Y-143690000D02*
X164860000Y-143690000D01*
X163940000Y-149910000D02*
X172060000Y-149910000D01*
X164700000Y-146050000D02*
X164700000Y-147650000D01*
X164700000Y-147650000D02*
X165700000Y-147650000D01*
X164860000Y-142090000D02*
X163940000Y-142090000D01*
X164860000Y-143690000D02*
X164860000Y-142090000D01*
X165140000Y-143690000D02*
X164860000Y-143690000D01*
X165140000Y-143690000D02*
X165140000Y-142475000D01*
X165200000Y-147650000D02*
X165200000Y-149910000D01*
X165700000Y-146050000D02*
X164700000Y-146050000D01*
X165700000Y-147650000D02*
X165700000Y-146050000D01*
X165700000Y-147650000D02*
X165700000Y-149910000D01*
X166500000Y-145550000D02*
X169500000Y-145550000D01*
X166500000Y-149910000D02*
X166500000Y-145550000D01*
X169500000Y-145550000D02*
X169500000Y-149910000D01*
X170300000Y-146050000D02*
X171300000Y-146050000D01*
X170300000Y-147650000D02*
X170300000Y-146050000D01*
X171140000Y-142090000D02*
X171140000Y-143690000D01*
X171140000Y-143690000D02*
X170860000Y-143690000D01*
X171300000Y-146050000D02*
X171300000Y-147650000D01*
X171300000Y-147650000D02*
X170300000Y-147650000D01*
X172060000Y-142090000D02*
X171140000Y-142090000D01*
X172060000Y-143690000D02*
X171140000Y-143690000D01*
X172060000Y-149910000D02*
X172060000Y-142090000D01*
D11*
%TO.C,R12*%
X132766000Y-72950000D02*
X133350000Y-72950000D01*
X132766000Y-72950000D02*
G75*
G02*
X130734000Y-72950000I-1016000J0D01*
G01*
X130734000Y-72950000D02*
G75*
G02*
X132766000Y-72950000I1016000J0D01*
G01*
%TO.C,R1*%
X141750000Y-64024000D02*
X141750000Y-63440000D01*
X142766000Y-65040000D02*
G75*
G02*
X140734000Y-65040000I-1016000J0D01*
G01*
X140734000Y-65040000D02*
G75*
G02*
X142766000Y-65040000I1016000J0D01*
G01*
D12*
%TO.C,C17*%
X157250000Y-83451000D02*
X157250000Y-83851000D01*
X157250000Y-86251000D02*
X157250000Y-85851000D01*
X162250000Y-83451000D02*
X157250000Y-83451000D01*
X162250000Y-83851000D02*
X162250000Y-83451000D01*
X162250000Y-85851000D02*
X162250000Y-86251000D01*
X162250000Y-86251000D02*
X157250000Y-86251000D01*
%TO.C,U1*%
X147750000Y-70610000D02*
X147750000Y-79840000D01*
X147750000Y-79840000D02*
X152250000Y-79840000D01*
X149000000Y-70610000D02*
X147750000Y-70610000D01*
X152250000Y-70610000D02*
X151000000Y-70610000D01*
X152250000Y-79840000D02*
X152250000Y-70610000D01*
X151000000Y-70610000D02*
G75*
G02*
X149000000Y-70610000I-1000000J0D01*
G01*
D11*
%TO.C,D3*%
X132425000Y-91369377D02*
X132425001Y-91369376D01*
D13*
X132900000Y-91900000D02*
X133100000Y-92150000D01*
X133100000Y-92150000D02*
X132900000Y-92400000D01*
D11*
X133400000Y-91350000D02*
X133400000Y-92950000D01*
X133400000Y-92150000D02*
X132425001Y-91369376D01*
X133400000Y-92150000D02*
X132425001Y-92930624D01*
D14*
X133410000Y-92150000D02*
X133400000Y-92150000D01*
D11*
X132424997Y-91369375D02*
G75*
G02*
X132424991Y-92930624I-624997J-780622D01*
G01*
D15*
X133405025Y-92150000D02*
G75*
G02*
X133394975Y-92150000I-5025J0D01*
G01*
X133394975Y-92150000D02*
G75*
G02*
X133405025Y-92150000I5025J0D01*
G01*
D12*
%TO.C,C4*%
X137750000Y-89905556D02*
X142750000Y-89905556D01*
X137750000Y-90305556D02*
X137750000Y-89905556D01*
X137750000Y-92305556D02*
X137750000Y-92705556D01*
X137750000Y-92705556D02*
X142750000Y-92705556D01*
X142750000Y-89905556D02*
X142750000Y-90305556D01*
X142750000Y-92705556D02*
X142750000Y-92305556D01*
%TO.C,C13*%
X158650000Y-110825000D02*
X158650000Y-111675000D01*
X158650000Y-113350000D02*
X158650000Y-114200000D01*
X159050000Y-113775000D02*
X158250000Y-113775000D01*
D16*
X159250000Y-110500000D02*
X159250000Y-114500000D01*
X159750000Y-115000000D02*
X160250000Y-115000000D01*
X160250000Y-110000000D02*
X159750000Y-110000000D01*
X160250000Y-110000000D02*
X160750000Y-110500000D01*
X160250000Y-115000000D02*
X160750000Y-114500000D01*
X160750000Y-110500000D02*
X161250000Y-110000000D01*
X160750000Y-114500000D02*
X161250000Y-115000000D01*
X161250000Y-115000000D02*
X170250000Y-115000000D01*
X170250000Y-110000000D02*
X161250000Y-110000000D01*
X170750000Y-114500000D02*
X170750000Y-110500000D01*
X159250000Y-110500000D02*
G75*
G02*
X159750000Y-110000000I500001J-1D01*
G01*
X159750000Y-115000000D02*
G75*
G02*
X159250000Y-114500000I0J500000D01*
G01*
X170250000Y-110000000D02*
G75*
G02*
X170750000Y-110500000I-1J-500001D01*
G01*
X170750000Y-114500000D02*
G75*
G02*
X170250000Y-115000000I-500000J0D01*
G01*
D17*
X160750000Y-110500000D02*
X161250000Y-110000000D01*
X170250000Y-110000000D01*
X170603553Y-110146447D01*
X170750000Y-110500000D01*
X170750000Y-111000000D01*
X159250000Y-111000000D01*
X159250000Y-110500000D01*
X159396447Y-110146447D01*
X159750000Y-110000000D01*
X160250000Y-110000000D01*
X160750000Y-110500000D01*
G36*
X160750000Y-110500000D02*
G01*
X161250000Y-110000000D01*
X170250000Y-110000000D01*
X170603553Y-110146447D01*
X170750000Y-110500000D01*
X170750000Y-111000000D01*
X159250000Y-111000000D01*
X159250000Y-110500000D01*
X159396447Y-110146447D01*
X159750000Y-110000000D01*
X160250000Y-110000000D01*
X160750000Y-110500000D01*
G37*
D12*
%TO.C,C8*%
X137750000Y-71600000D02*
X142750000Y-71600000D01*
X137750000Y-72000000D02*
X137750000Y-71600000D01*
X137750000Y-74000000D02*
X137750000Y-74400000D01*
X137750000Y-74400000D02*
X142750000Y-74400000D01*
X142750000Y-71600000D02*
X142750000Y-72000000D01*
X142750000Y-74400000D02*
X142750000Y-74000000D01*
%TO.C,C2*%
X148600000Y-54790000D02*
X148600000Y-59790000D01*
X148600000Y-59790000D02*
X149000000Y-59790000D01*
X149000000Y-54790000D02*
X148600000Y-54790000D01*
X151000000Y-54790000D02*
X151400000Y-54790000D01*
X151400000Y-54790000D02*
X151400000Y-59790000D01*
X151400000Y-59790000D02*
X151000000Y-59790000D01*
%TO.C,C10*%
X137750000Y-78922222D02*
X142750000Y-78922222D01*
X137750000Y-79322222D02*
X137750000Y-78922222D01*
X137750000Y-81322222D02*
X137750000Y-81722222D01*
X137750000Y-81722222D02*
X142750000Y-81722222D01*
X142750000Y-78922222D02*
X142750000Y-79322222D01*
X142750000Y-81722222D02*
X142750000Y-81322222D01*
%TO.C,C18*%
X157250000Y-87151000D02*
X162250000Y-87151000D01*
X157250000Y-87551000D02*
X157250000Y-87151000D01*
X157250000Y-89551000D02*
X157250000Y-89951000D01*
X157250000Y-89951000D02*
X162250000Y-89951000D01*
X162250000Y-87151000D02*
X162250000Y-87551000D01*
X162250000Y-89951000D02*
X162250000Y-89551000D01*
D11*
%TO.C,D1*%
X132425000Y-85869377D02*
X132425001Y-85869376D01*
D13*
X132900000Y-86400000D02*
X133100000Y-86650000D01*
X133100000Y-86650000D02*
X132900000Y-86900000D01*
D11*
X133400000Y-85850000D02*
X133400000Y-87450000D01*
X133400000Y-86650000D02*
X132425001Y-85869376D01*
X133400000Y-86650000D02*
X132425001Y-87430624D01*
D14*
X133410000Y-86650000D02*
X133400000Y-86650000D01*
D11*
X132424997Y-85869375D02*
G75*
G02*
X132424991Y-87430624I-624997J-780622D01*
G01*
D15*
X133405025Y-86650000D02*
G75*
G02*
X133394975Y-86650000I-5025J0D01*
G01*
X133394975Y-86650000D02*
G75*
G02*
X133405025Y-86650000I5025J0D01*
G01*
D12*
%TO.C,C7*%
X158910000Y-106750000D02*
X157670000Y-106750000D01*
X158910000Y-106790000D02*
X157670000Y-106790000D01*
X158910000Y-106830000D02*
X157672000Y-106830000D01*
X158910000Y-106870000D02*
X157673000Y-106870000D01*
X158910000Y-106910000D02*
X157676000Y-106910000D01*
X158910000Y-106950000D02*
X157679000Y-106950000D01*
X158910000Y-106990000D02*
X157684000Y-106990000D01*
X158910000Y-107030000D02*
X157689000Y-107030000D01*
X158910000Y-107070000D02*
X157694000Y-107070000D01*
X158910000Y-107110000D02*
X157701000Y-107110000D01*
X158910000Y-107150000D02*
X157708000Y-107150000D01*
X158910000Y-107190000D02*
X157716000Y-107190000D01*
X158910000Y-107230000D02*
X157725000Y-107230000D01*
X158910000Y-107270000D02*
X157735000Y-107270000D01*
X158910000Y-107310000D02*
X157745000Y-107310000D01*
X158910000Y-107350000D02*
X157757000Y-107350000D01*
X158910000Y-107390000D02*
X157769000Y-107390000D01*
X158910000Y-107430000D02*
X157782000Y-107430000D01*
X158910000Y-107470000D02*
X157796000Y-107470000D01*
X158910000Y-107510000D02*
X157811000Y-107510000D01*
X158910000Y-107550000D02*
X157827000Y-107550000D01*
X158910000Y-107590000D02*
X157844000Y-107590000D01*
X158910000Y-107630000D02*
X157861000Y-107630000D01*
X158910000Y-107670000D02*
X157880000Y-107670000D01*
X158910000Y-107710000D02*
X157900000Y-107710000D01*
X158910000Y-107750000D02*
X157921000Y-107750000D01*
X158910000Y-107790000D02*
X157943000Y-107790000D01*
X158910000Y-107830000D02*
X157966000Y-107830000D01*
X158910000Y-107870000D02*
X157990000Y-107870000D01*
X158910000Y-107910000D02*
X158016000Y-107910000D01*
X158910000Y-107950000D02*
X158042000Y-107950000D01*
X158910000Y-107990000D02*
X158070000Y-107990000D01*
X158910000Y-108030000D02*
X158100000Y-108030000D01*
X158910000Y-108070000D02*
X158131000Y-108070000D01*
X158910000Y-108110000D02*
X158164000Y-108110000D01*
X158910000Y-108150000D02*
X158198000Y-108150000D01*
X158910000Y-108190000D02*
X158234000Y-108190000D01*
X158910000Y-108230000D02*
X158272000Y-108230000D01*
X158910000Y-108270000D02*
X158312000Y-108270000D01*
X158910000Y-108310000D02*
X158354000Y-108310000D01*
X160120000Y-108830000D02*
X159380000Y-108830000D01*
X160287000Y-108790000D02*
X159213000Y-108790000D01*
X160413000Y-108750000D02*
X159087000Y-108750000D01*
X160518000Y-108710000D02*
X158982000Y-108710000D01*
X160609000Y-108670000D02*
X158891000Y-108670000D01*
X160690000Y-108630000D02*
X158810000Y-108630000D01*
X160763000Y-108590000D02*
X158737000Y-108590000D01*
X160830000Y-108550000D02*
X158670000Y-108550000D01*
X160892000Y-108510000D02*
X158608000Y-108510000D01*
X160949000Y-108470000D02*
X158551000Y-108470000D01*
X161003000Y-108430000D02*
X158497000Y-108430000D01*
X161053000Y-108390000D02*
X158447000Y-108390000D01*
X161146000Y-108310000D02*
X160590000Y-108310000D01*
X161188000Y-108270000D02*
X160590000Y-108270000D01*
X161228000Y-108230000D02*
X160590000Y-108230000D01*
X161266000Y-108190000D02*
X160590000Y-108190000D01*
X161302000Y-108150000D02*
X160590000Y-108150000D01*
X161336000Y-108110000D02*
X160590000Y-108110000D01*
X161369000Y-108070000D02*
X160590000Y-108070000D01*
X161400000Y-108030000D02*
X160590000Y-108030000D01*
X161430000Y-107990000D02*
X160590000Y-107990000D01*
X161458000Y-107950000D02*
X160590000Y-107950000D01*
X161484000Y-107910000D02*
X160590000Y-107910000D01*
X161510000Y-107870000D02*
X160590000Y-107870000D01*
X161534000Y-107830000D02*
X160590000Y-107830000D01*
X161557000Y-107790000D02*
X160590000Y-107790000D01*
X161579000Y-107750000D02*
X160590000Y-107750000D01*
X161600000Y-107710000D02*
X160590000Y-107710000D01*
X161620000Y-107670000D02*
X160590000Y-107670000D01*
X161639000Y-107630000D02*
X160590000Y-107630000D01*
X161656000Y-107590000D02*
X160590000Y-107590000D01*
X161673000Y-107550000D02*
X160590000Y-107550000D01*
X161689000Y-107510000D02*
X160590000Y-107510000D01*
X161704000Y-107470000D02*
X160590000Y-107470000D01*
X161718000Y-107430000D02*
X160590000Y-107430000D01*
X161731000Y-107390000D02*
X160590000Y-107390000D01*
X161743000Y-107350000D02*
X160590000Y-107350000D01*
X161750000Y-104309901D02*
X161750000Y-105190100D01*
X161755000Y-107310000D02*
X160590000Y-107310000D01*
X161765000Y-107270000D02*
X160590000Y-107270000D01*
X161775000Y-107230000D02*
X160590000Y-107230000D01*
X161784000Y-107190000D02*
X160590000Y-107190000D01*
X161792000Y-107150000D02*
X160590000Y-107150000D01*
X161799000Y-107110000D02*
X160590000Y-107110000D01*
X161806000Y-107070000D02*
X160590000Y-107070000D01*
X161811000Y-107030000D02*
X160590000Y-107030000D01*
X161816000Y-106990000D02*
X160590000Y-106990000D01*
X161821000Y-106950000D02*
X160590000Y-106950000D01*
X161824000Y-106910000D02*
X160590000Y-106910000D01*
X161827000Y-106870000D02*
X160590000Y-106870000D01*
X161828000Y-106830000D02*
X160590000Y-106830000D01*
X161830000Y-106750000D02*
X160590000Y-106750000D01*
X161830000Y-106790000D02*
X160590000Y-106790000D01*
X162152500Y-104750000D02*
X161347500Y-104750000D01*
X161870000Y-106750000D02*
G75*
G02*
X157630000Y-106750000I-2120000J0D01*
G01*
X157630000Y-106750000D02*
G75*
G02*
X161870000Y-106750000I2120000J0D01*
G01*
D11*
%TO.C,R22*%
X167274000Y-94900000D02*
X166690000Y-94900000D01*
X169306000Y-94900000D02*
G75*
G02*
X167274000Y-94900000I-1016000J0D01*
G01*
X167274000Y-94900000D02*
G75*
G02*
X169306000Y-94900000I1016000J0D01*
G01*
D12*
%TO.C,C3*%
X152100000Y-54790000D02*
X152100000Y-59790000D01*
X152100000Y-59790000D02*
X152500000Y-59790000D01*
X152500000Y-54790000D02*
X152100000Y-54790000D01*
X154500000Y-54790000D02*
X154900000Y-54790000D01*
X154900000Y-54790000D02*
X154900000Y-59790000D01*
X154900000Y-59790000D02*
X154500000Y-59790000D01*
D11*
%TO.C,R16*%
X167274000Y-103150000D02*
X166690000Y-103150000D01*
X169306000Y-103150000D02*
G75*
G02*
X167274000Y-103150000I-1016000J0D01*
G01*
X167274000Y-103150000D02*
G75*
G02*
X169306000Y-103150000I1016000J0D01*
G01*
D12*
%TO.C,D5*%
X162590000Y-136830000D02*
X168030000Y-136830000D01*
X162590000Y-137160000D02*
X162590000Y-136830000D01*
X162590000Y-139440000D02*
X162590000Y-139770000D01*
X162590000Y-139770000D02*
X168030000Y-139770000D01*
X163370000Y-136830000D02*
X163370000Y-139770000D01*
X163490000Y-136830000D02*
X163490000Y-139770000D01*
X163610000Y-136830000D02*
X163610000Y-139770000D01*
X168030000Y-136830000D02*
X168030000Y-137160000D01*
X168030000Y-139770000D02*
X168030000Y-139440000D01*
D11*
%TO.C,R25*%
X132796500Y-105950000D02*
X133380500Y-105950000D01*
X132796500Y-105950000D02*
G75*
G02*
X130764500Y-105950000I-1016000J0D01*
G01*
X130764500Y-105950000D02*
G75*
G02*
X132796500Y-105950000I1016000J0D01*
G01*
D12*
%TO.C,J1*%
X130500000Y-58000000D02*
X130500000Y-68500000D01*
X133770000Y-54850000D02*
X133770000Y-55650000D01*
X133770000Y-54850000D02*
X134630000Y-54850000D01*
X134200000Y-68500000D02*
X130500000Y-68500000D01*
X134280000Y-58000000D02*
X130500000Y-58000000D01*
X139500000Y-58000000D02*
X135720000Y-58000000D01*
X139500000Y-58000000D02*
X139500000Y-68500000D01*
X139500000Y-68500000D02*
X135800000Y-68500000D01*
X136800000Y-62500000D02*
G75*
G02*
X133200000Y-62500000I-1800000J0D01*
G01*
X133200000Y-62500000D02*
G75*
G02*
X136800000Y-62500000I1800000J0D01*
G01*
D11*
%TO.C,R17*%
X167274000Y-105900000D02*
X166690000Y-105900000D01*
X169306000Y-105900000D02*
G75*
G02*
X167274000Y-105900000I-1016000J0D01*
G01*
X167274000Y-105900000D02*
G75*
G02*
X169306000Y-105900000I1016000J0D01*
G01*
%TO.C,R23*%
X167274000Y-97650000D02*
X166690000Y-97650000D01*
X169306000Y-97650000D02*
G75*
G02*
X167274000Y-97650000I-1016000J0D01*
G01*
X167274000Y-97650000D02*
G75*
G02*
X169306000Y-97650000I1016000J0D01*
G01*
D12*
%TO.C,C23*%
X131847500Y-140050000D02*
X132652500Y-140050000D01*
X132170000Y-138010000D02*
X133410000Y-138010000D01*
X132170000Y-138050000D02*
X133410000Y-138050000D01*
X132172000Y-137970000D02*
X133410000Y-137970000D01*
X132173000Y-137930000D02*
X133410000Y-137930000D01*
X132176000Y-137890000D02*
X133410000Y-137890000D01*
X132179000Y-137850000D02*
X133410000Y-137850000D01*
X132184000Y-137810000D02*
X133410000Y-137810000D01*
X132189000Y-137770000D02*
X133410000Y-137770000D01*
X132194000Y-137730000D02*
X133410000Y-137730000D01*
X132201000Y-137690000D02*
X133410000Y-137690000D01*
X132208000Y-137650000D02*
X133410000Y-137650000D01*
X132216000Y-137610000D02*
X133410000Y-137610000D01*
X132225000Y-137570000D02*
X133410000Y-137570000D01*
X132235000Y-137530000D02*
X133410000Y-137530000D01*
X132245000Y-137490000D02*
X133410000Y-137490000D01*
X132250000Y-140490099D02*
X132250000Y-139609900D01*
X132257000Y-137450000D02*
X133410000Y-137450000D01*
X132269000Y-137410000D02*
X133410000Y-137410000D01*
X132282000Y-137370000D02*
X133410000Y-137370000D01*
X132296000Y-137330000D02*
X133410000Y-137330000D01*
X132311000Y-137290000D02*
X133410000Y-137290000D01*
X132327000Y-137250000D02*
X133410000Y-137250000D01*
X132344000Y-137210000D02*
X133410000Y-137210000D01*
X132361000Y-137170000D02*
X133410000Y-137170000D01*
X132380000Y-137130000D02*
X133410000Y-137130000D01*
X132400000Y-137090000D02*
X133410000Y-137090000D01*
X132421000Y-137050000D02*
X133410000Y-137050000D01*
X132443000Y-137010000D02*
X133410000Y-137010000D01*
X132466000Y-136970000D02*
X133410000Y-136970000D01*
X132490000Y-136930000D02*
X133410000Y-136930000D01*
X132516000Y-136890000D02*
X133410000Y-136890000D01*
X132542000Y-136850000D02*
X133410000Y-136850000D01*
X132570000Y-136810000D02*
X133410000Y-136810000D01*
X132600000Y-136770000D02*
X133410000Y-136770000D01*
X132631000Y-136730000D02*
X133410000Y-136730000D01*
X132664000Y-136690000D02*
X133410000Y-136690000D01*
X132698000Y-136650000D02*
X133410000Y-136650000D01*
X132734000Y-136610000D02*
X133410000Y-136610000D01*
X132772000Y-136570000D02*
X133410000Y-136570000D01*
X132812000Y-136530000D02*
X133410000Y-136530000D01*
X132854000Y-136490000D02*
X133410000Y-136490000D01*
X132947000Y-136410000D02*
X135553000Y-136410000D01*
X132997000Y-136370000D02*
X135503000Y-136370000D01*
X133051000Y-136330000D02*
X135449000Y-136330000D01*
X133108000Y-136290000D02*
X135392000Y-136290000D01*
X133170000Y-136250000D02*
X135330000Y-136250000D01*
X133237000Y-136210000D02*
X135263000Y-136210000D01*
X133310000Y-136170000D02*
X135190000Y-136170000D01*
X133391000Y-136130000D02*
X135109000Y-136130000D01*
X133482000Y-136090000D02*
X135018000Y-136090000D01*
X133587000Y-136050000D02*
X134913000Y-136050000D01*
X133713000Y-136010000D02*
X134787000Y-136010000D01*
X133880000Y-135970000D02*
X134620000Y-135970000D01*
X135090000Y-136490000D02*
X135646000Y-136490000D01*
X135090000Y-136530000D02*
X135688000Y-136530000D01*
X135090000Y-136570000D02*
X135728000Y-136570000D01*
X135090000Y-136610000D02*
X135766000Y-136610000D01*
X135090000Y-136650000D02*
X135802000Y-136650000D01*
X135090000Y-136690000D02*
X135836000Y-136690000D01*
X135090000Y-136730000D02*
X135869000Y-136730000D01*
X135090000Y-136770000D02*
X135900000Y-136770000D01*
X135090000Y-136810000D02*
X135930000Y-136810000D01*
X135090000Y-136850000D02*
X135958000Y-136850000D01*
X135090000Y-136890000D02*
X135984000Y-136890000D01*
X135090000Y-136930000D02*
X136010000Y-136930000D01*
X135090000Y-136970000D02*
X136034000Y-136970000D01*
X135090000Y-137010000D02*
X136057000Y-137010000D01*
X135090000Y-137050000D02*
X136079000Y-137050000D01*
X135090000Y-137090000D02*
X136100000Y-137090000D01*
X135090000Y-137130000D02*
X136120000Y-137130000D01*
X135090000Y-137170000D02*
X136139000Y-137170000D01*
X135090000Y-137210000D02*
X136156000Y-137210000D01*
X135090000Y-137250000D02*
X136173000Y-137250000D01*
X135090000Y-137290000D02*
X136189000Y-137290000D01*
X135090000Y-137330000D02*
X136204000Y-137330000D01*
X135090000Y-137370000D02*
X136218000Y-137370000D01*
X135090000Y-137410000D02*
X136231000Y-137410000D01*
X135090000Y-137450000D02*
X136243000Y-137450000D01*
X135090000Y-137490000D02*
X136255000Y-137490000D01*
X135090000Y-137530000D02*
X136265000Y-137530000D01*
X135090000Y-137570000D02*
X136275000Y-137570000D01*
X135090000Y-137610000D02*
X136284000Y-137610000D01*
X135090000Y-137650000D02*
X136292000Y-137650000D01*
X135090000Y-137690000D02*
X136299000Y-137690000D01*
X135090000Y-137730000D02*
X136306000Y-137730000D01*
X135090000Y-137770000D02*
X136311000Y-137770000D01*
X135090000Y-137810000D02*
X136316000Y-137810000D01*
X135090000Y-137850000D02*
X136321000Y-137850000D01*
X135090000Y-137890000D02*
X136324000Y-137890000D01*
X135090000Y-137930000D02*
X136327000Y-137930000D01*
X135090000Y-137970000D02*
X136328000Y-137970000D01*
X135090000Y-138010000D02*
X136330000Y-138010000D01*
X135090000Y-138050000D02*
X136330000Y-138050000D01*
X136370000Y-138050000D02*
G75*
G02*
X132130000Y-138050000I-2120000J0D01*
G01*
X132130000Y-138050000D02*
G75*
G02*
X136370000Y-138050000I2120000J0D01*
G01*
%TO.C,RV3*%
X160100000Y-120400001D02*
X160100001Y-117000000D01*
X160100001Y-128000000D02*
X160100001Y-124600000D01*
X160100001Y-128000000D02*
X169899999Y-128000000D01*
X169899999Y-117000000D02*
X160100001Y-117000000D01*
X169899999Y-120400000D02*
X169899999Y-117000000D01*
X169899999Y-128000000D02*
X169900000Y-124599999D01*
X162279707Y-121139853D02*
G75*
G02*
X167699999Y-121100001I2720293J-1360147D01*
G01*
X167720293Y-123860147D02*
G75*
G02*
X162300001Y-123899999I-2720293J1360147D01*
G01*
D11*
%TO.C,R20*%
X167274000Y-89400000D02*
X166690000Y-89400000D01*
X169306000Y-89400000D02*
G75*
G02*
X167274000Y-89400000I-1016000J0D01*
G01*
X167274000Y-89400000D02*
G75*
G02*
X169306000Y-89400000I1016000J0D01*
G01*
%TO.C,R9*%
X132816000Y-83900000D02*
X133400000Y-83900000D01*
X132816000Y-83900000D02*
G75*
G02*
X130784000Y-83900000I-1016000J0D01*
G01*
X130784000Y-83900000D02*
G75*
G02*
X132816000Y-83900000I1016000J0D01*
G01*
D12*
%TO.C,C12*%
X137750000Y-86244444D02*
X137750000Y-86644444D01*
X137750000Y-89044444D02*
X137750000Y-88644444D01*
X142750000Y-86244444D02*
X137750000Y-86244444D01*
X142750000Y-86644444D02*
X142750000Y-86244444D01*
X142750000Y-88644444D02*
X142750000Y-89044444D01*
X142750000Y-89044444D02*
X137750000Y-89044444D01*
D11*
%TO.C,D4*%
X132425000Y-94119377D02*
X132425001Y-94119376D01*
D13*
X132900000Y-94650000D02*
X133100000Y-94900000D01*
X133100000Y-94900000D02*
X132900000Y-95150000D01*
D11*
X133400000Y-94100000D02*
X133400000Y-95700000D01*
X133400000Y-94900000D02*
X132425001Y-94119376D01*
X133400000Y-94900000D02*
X132425001Y-95680624D01*
D14*
X133410000Y-94900000D02*
X133400000Y-94900000D01*
D11*
X132424997Y-94119375D02*
G75*
G02*
X132424991Y-95680624I-624997J-780622D01*
G01*
D15*
X133405025Y-94900000D02*
G75*
G02*
X133394975Y-94900000I-5025J0D01*
G01*
X133394975Y-94900000D02*
G75*
G02*
X133405025Y-94900000I5025J0D01*
G01*
D11*
%TO.C,R13*%
X132766000Y-75700000D02*
X133350000Y-75700000D01*
X132766000Y-75700000D02*
G75*
G02*
X130734000Y-75700000I-1016000J0D01*
G01*
X130734000Y-75700000D02*
G75*
G02*
X132766000Y-75700000I1016000J0D01*
G01*
%TO.C,R2*%
X144500000Y-64024000D02*
X144500000Y-63440000D01*
X145516000Y-65040000D02*
G75*
G02*
X143484000Y-65040000I-1016000J0D01*
G01*
X143484000Y-65040000D02*
G75*
G02*
X145516000Y-65040000I1016000J0D01*
G01*
%TO.C,R7*%
X158250000Y-64024000D02*
X158250000Y-63440000D01*
X159266000Y-65040000D02*
G75*
G02*
X157234000Y-65040000I-1016000J0D01*
G01*
X157234000Y-65040000D02*
G75*
G02*
X159266000Y-65040000I1016000J0D01*
G01*
D12*
%TO.C,C24*%
X126847500Y-140100000D02*
X127652500Y-140100000D01*
X127170000Y-138060000D02*
X128410000Y-138060000D01*
X127170000Y-138100000D02*
X128410000Y-138100000D01*
X127172000Y-138020000D02*
X128410000Y-138020000D01*
X127173000Y-137980000D02*
X128410000Y-137980000D01*
X127176000Y-137940000D02*
X128410000Y-137940000D01*
X127179000Y-137900000D02*
X128410000Y-137900000D01*
X127184000Y-137860000D02*
X128410000Y-137860000D01*
X127189000Y-137820000D02*
X128410000Y-137820000D01*
X127194000Y-137780000D02*
X128410000Y-137780000D01*
X127201000Y-137740000D02*
X128410000Y-137740000D01*
X127208000Y-137700000D02*
X128410000Y-137700000D01*
X127216000Y-137660000D02*
X128410000Y-137660000D01*
X127225000Y-137620000D02*
X128410000Y-137620000D01*
X127235000Y-137580000D02*
X128410000Y-137580000D01*
X127245000Y-137540000D02*
X128410000Y-137540000D01*
X127250000Y-140540099D02*
X127250000Y-139659900D01*
X127257000Y-137500000D02*
X128410000Y-137500000D01*
X127269000Y-137460000D02*
X128410000Y-137460000D01*
X127282000Y-137420000D02*
X128410000Y-137420000D01*
X127296000Y-137380000D02*
X128410000Y-137380000D01*
X127311000Y-137340000D02*
X128410000Y-137340000D01*
X127327000Y-137300000D02*
X128410000Y-137300000D01*
X127344000Y-137260000D02*
X128410000Y-137260000D01*
X127361000Y-137220000D02*
X128410000Y-137220000D01*
X127380000Y-137180000D02*
X128410000Y-137180000D01*
X127400000Y-137140000D02*
X128410000Y-137140000D01*
X127421000Y-137100000D02*
X128410000Y-137100000D01*
X127443000Y-137060000D02*
X128410000Y-137060000D01*
X127466000Y-137020000D02*
X128410000Y-137020000D01*
X127490000Y-136980000D02*
X128410000Y-136980000D01*
X127516000Y-136940000D02*
X128410000Y-136940000D01*
X127542000Y-136900000D02*
X128410000Y-136900000D01*
X127570000Y-136860000D02*
X128410000Y-136860000D01*
X127600000Y-136820000D02*
X128410000Y-136820000D01*
X127631000Y-136780000D02*
X128410000Y-136780000D01*
X127664000Y-136740000D02*
X128410000Y-136740000D01*
X127698000Y-136700000D02*
X128410000Y-136700000D01*
X127734000Y-136660000D02*
X128410000Y-136660000D01*
X127772000Y-136620000D02*
X128410000Y-136620000D01*
X127812000Y-136580000D02*
X128410000Y-136580000D01*
X127854000Y-136540000D02*
X128410000Y-136540000D01*
X127947000Y-136460000D02*
X130553000Y-136460000D01*
X127997000Y-136420000D02*
X130503000Y-136420000D01*
X128051000Y-136380000D02*
X130449000Y-136380000D01*
X128108000Y-136340000D02*
X130392000Y-136340000D01*
X128170000Y-136300000D02*
X130330000Y-136300000D01*
X128237000Y-136260000D02*
X130263000Y-136260000D01*
X128310000Y-136220000D02*
X130190000Y-136220000D01*
X128391000Y-136180000D02*
X130109000Y-136180000D01*
X128482000Y-136140000D02*
X130018000Y-136140000D01*
X128587000Y-136100000D02*
X129913000Y-136100000D01*
X128713000Y-136060000D02*
X129787000Y-136060000D01*
X128880000Y-136020000D02*
X129620000Y-136020000D01*
X130090000Y-136540000D02*
X130646000Y-136540000D01*
X130090000Y-136580000D02*
X130688000Y-136580000D01*
X130090000Y-136620000D02*
X130728000Y-136620000D01*
X130090000Y-136660000D02*
X130766000Y-136660000D01*
X130090000Y-136700000D02*
X130802000Y-136700000D01*
X130090000Y-136740000D02*
X130836000Y-136740000D01*
X130090000Y-136780000D02*
X130869000Y-136780000D01*
X130090000Y-136820000D02*
X130900000Y-136820000D01*
X130090000Y-136860000D02*
X130930000Y-136860000D01*
X130090000Y-136900000D02*
X130958000Y-136900000D01*
X130090000Y-136940000D02*
X130984000Y-136940000D01*
X130090000Y-136980000D02*
X131010000Y-136980000D01*
X130090000Y-137020000D02*
X131034000Y-137020000D01*
X130090000Y-137060000D02*
X131057000Y-137060000D01*
X130090000Y-137100000D02*
X131079000Y-137100000D01*
X130090000Y-137140000D02*
X131100000Y-137140000D01*
X130090000Y-137180000D02*
X131120000Y-137180000D01*
X130090000Y-137220000D02*
X131139000Y-137220000D01*
X130090000Y-137260000D02*
X131156000Y-137260000D01*
X130090000Y-137300000D02*
X131173000Y-137300000D01*
X130090000Y-137340000D02*
X131189000Y-137340000D01*
X130090000Y-137380000D02*
X131204000Y-137380000D01*
X130090000Y-137420000D02*
X131218000Y-137420000D01*
X130090000Y-137460000D02*
X131231000Y-137460000D01*
X130090000Y-137500000D02*
X131243000Y-137500000D01*
X130090000Y-137540000D02*
X131255000Y-137540000D01*
X130090000Y-137580000D02*
X131265000Y-137580000D01*
X130090000Y-137620000D02*
X131275000Y-137620000D01*
X130090000Y-137660000D02*
X131284000Y-137660000D01*
X130090000Y-137700000D02*
X131292000Y-137700000D01*
X130090000Y-137740000D02*
X131299000Y-137740000D01*
X130090000Y-137780000D02*
X131306000Y-137780000D01*
X130090000Y-137820000D02*
X131311000Y-137820000D01*
X130090000Y-137860000D02*
X131316000Y-137860000D01*
X130090000Y-137900000D02*
X131321000Y-137900000D01*
X130090000Y-137940000D02*
X131324000Y-137940000D01*
X130090000Y-137980000D02*
X131327000Y-137980000D01*
X130090000Y-138020000D02*
X131328000Y-138020000D01*
X130090000Y-138060000D02*
X131330000Y-138060000D01*
X130090000Y-138100000D02*
X131330000Y-138100000D01*
X131370000Y-138100000D02*
G75*
G02*
X127130000Y-138100000I-2120000J0D01*
G01*
X127130000Y-138100000D02*
G75*
G02*
X131370000Y-138100000I2120000J0D01*
G01*
%TO.C,C9*%
X137750000Y-75261111D02*
X142750000Y-75261111D01*
X137750000Y-75661111D02*
X137750000Y-75261111D01*
X137750000Y-77661111D02*
X137750000Y-78061111D01*
X137750000Y-78061111D02*
X142750000Y-78061111D01*
X142750000Y-75261111D02*
X142750000Y-75661111D01*
X142750000Y-78061111D02*
X142750000Y-77661111D01*
%TO.C,C16*%
X137750000Y-104550000D02*
X137750000Y-104950000D01*
X137750000Y-107350000D02*
X137750000Y-106950000D01*
X142750000Y-104550000D02*
X137750000Y-104550000D01*
X142750000Y-104950000D02*
X142750000Y-104550000D01*
X142750000Y-106950000D02*
X142750000Y-107350000D01*
X142750000Y-107350000D02*
X137750000Y-107350000D01*
D11*
%TO.C,R11*%
X132816000Y-100450000D02*
X133400000Y-100450000D01*
X132816000Y-100450000D02*
G75*
G02*
X130784000Y-100450000I-1016000J0D01*
G01*
X130784000Y-100450000D02*
G75*
G02*
X132816000Y-100450000I1016000J0D01*
G01*
D12*
%TO.C,C22*%
X157380000Y-71380000D02*
X157380000Y-79120000D01*
X158766000Y-71380000D02*
X157380000Y-71380000D01*
X158766000Y-79120000D02*
X157380000Y-79120000D01*
X162620000Y-71380000D02*
X161234000Y-71380000D01*
X162620000Y-71380000D02*
X162620000Y-79120000D01*
X162620000Y-79120000D02*
X161234000Y-79120000D01*
%TD*%
M02*
