%TF.GenerationSoftware,KiCad,Pcbnew,9.0.2*%
%TF.CreationDate,2025-06-18T19:11:40+10:00*%
%TF.ProjectId,ASDR,41534452-2e6b-4696-9361-645f70636258,rev?*%
%TF.SameCoordinates,Original*%
%TF.FileFunction,Legend,Bot*%
%TF.FilePolarity,Positive*%
%FSLAX46Y46*%
G04 Gerber Fmt 4.6, Leading zero omitted, Abs format (unit mm)*
G04 Created by KiCad (PCBNEW 9.0.2) date 2025-06-18 19:11:40*
%MOMM*%
%LPD*%
G01*
G04 APERTURE LIST*
G04 Aperture macros list*
%AMRoundRect*
0 Rectangle with rounded corners*
0 $1 Rounding radius*
0 $2 $3 $4 $5 $6 $7 $8 $9 X,Y pos of 4 corners*
0 Add a 4 corners polygon primitive as box body*
4,1,4,$2,$3,$4,$5,$6,$7,$8,$9,$2,$3,0*
0 Add four circle primitives for the rounded corners*
1,1,$1+$1,$2,$3*
1,1,$1+$1,$4,$5*
1,1,$1+$1,$6,$7*
1,1,$1+$1,$8,$9*
0 Add four rect primitives between the rounded corners*
20,1,$1+$1,$2,$3,$4,$5,0*
20,1,$1+$1,$4,$5,$6,$7,0*
20,1,$1+$1,$6,$7,$8,$9,0*
20,1,$1+$1,$8,$9,$2,$3,0*%
%AMHorizOval*
0 Thick line with rounded ends*
0 $1 width*
0 $2 $3 position (X,Y) of the first rounded end (center of the circle)*
0 $4 $5 position (X,Y) of the second rounded end (center of the circle)*
0 Add line between two ends*
20,1,$1,$2,$3,$4,$5,0*
0 Add two circle primitives to create the rounded ends*
1,1,$1,$2,$3*
1,1,$1,$4,$5*%
%AMRotRect*
0 Rectangle, with rotation*
0 The origin of the aperture is its center*
0 $1 length*
0 $2 width*
0 $3 Rotation angle, in degrees counterclockwise*
0 Add horizontal line*
21,1,$1,$2,0,0,$3*%
G04 Aperture macros list end*
%ADD10C,0.150000*%
%ADD11C,0.200000*%
%ADD12C,0.010000*%
%ADD13R,1.350000X1.900000*%
%ADD14O,1.350000X1.900000*%
%ADD15C,1.600000*%
%ADD16O,1.600000X1.600000*%
%ADD17C,4.000000*%
%ADD18O,2.400000X1.600000*%
%ADD19O,1.600000X2.400000*%
%ADD20R,2.400000X1.600000*%
%ADD21RoundRect,0.250000X0.751314X-0.201314X0.201314X0.751314X-0.751314X0.201314X-0.201314X-0.751314X0*%
%ADD22R,2.000000X2.000000*%
%ADD23C,2.200000*%
%ADD24RoundRect,0.291666X-0.408334X-0.708334X0.408334X-0.708334X0.408334X0.708334X-0.408334X0.708334X0*%
%ADD25O,1.400000X2.000000*%
%ADD26RotRect,1.350000X1.900000X120.000000*%
%ADD27HorizOval,1.350000X0.238157X0.137500X-0.238157X-0.137500X0*%
%ADD28RotRect,1.350000X1.900000X240.000000*%
%ADD29HorizOval,1.350000X-0.238157X0.137500X0.238157X-0.137500X0*%
%ADD30RoundRect,0.250000X-0.550000X0.550000X-0.550000X-0.550000X0.550000X-0.550000X0.550000X0.550000X0*%
%ADD31RoundRect,0.250000X0.550000X-0.550000X0.550000X0.550000X-0.550000X0.550000X-0.550000X-0.550000X0*%
%ADD32RoundRect,0.250000X-0.550000X-0.550000X0.550000X-0.550000X0.550000X0.550000X-0.550000X0.550000X0*%
%ADD33C,1.440000*%
%ADD34R,1.800000X1.800000*%
%ADD35C,1.800000*%
%ADD36O,3.600000X1.800000*%
G04 APERTURE END LIST*
D10*
X155357142Y-146454486D02*
X154785714Y-146454486D01*
X155471428Y-146797343D02*
X155071428Y-145597343D01*
X155071428Y-145597343D02*
X154671428Y-146797343D01*
X154328571Y-146740201D02*
X154157143Y-146797343D01*
X154157143Y-146797343D02*
X153871428Y-146797343D01*
X153871428Y-146797343D02*
X153757143Y-146740201D01*
X153757143Y-146740201D02*
X153700000Y-146683058D01*
X153700000Y-146683058D02*
X153642857Y-146568772D01*
X153642857Y-146568772D02*
X153642857Y-146454486D01*
X153642857Y-146454486D02*
X153700000Y-146340201D01*
X153700000Y-146340201D02*
X153757143Y-146283058D01*
X153757143Y-146283058D02*
X153871428Y-146225915D01*
X153871428Y-146225915D02*
X154100000Y-146168772D01*
X154100000Y-146168772D02*
X154214285Y-146111629D01*
X154214285Y-146111629D02*
X154271428Y-146054486D01*
X154271428Y-146054486D02*
X154328571Y-145940201D01*
X154328571Y-145940201D02*
X154328571Y-145825915D01*
X154328571Y-145825915D02*
X154271428Y-145711629D01*
X154271428Y-145711629D02*
X154214285Y-145654486D01*
X154214285Y-145654486D02*
X154100000Y-145597343D01*
X154100000Y-145597343D02*
X153814285Y-145597343D01*
X153814285Y-145597343D02*
X153642857Y-145654486D01*
X153128571Y-146797343D02*
X153128571Y-145597343D01*
X153128571Y-145597343D02*
X152842857Y-145597343D01*
X152842857Y-145597343D02*
X152671428Y-145654486D01*
X152671428Y-145654486D02*
X152557143Y-145768772D01*
X152557143Y-145768772D02*
X152500000Y-145883058D01*
X152500000Y-145883058D02*
X152442857Y-146111629D01*
X152442857Y-146111629D02*
X152442857Y-146283058D01*
X152442857Y-146283058D02*
X152500000Y-146511629D01*
X152500000Y-146511629D02*
X152557143Y-146625915D01*
X152557143Y-146625915D02*
X152671428Y-146740201D01*
X152671428Y-146740201D02*
X152842857Y-146797343D01*
X152842857Y-146797343D02*
X153128571Y-146797343D01*
X151242857Y-146797343D02*
X151642857Y-146225915D01*
X151928571Y-146797343D02*
X151928571Y-145597343D01*
X151928571Y-145597343D02*
X151471428Y-145597343D01*
X151471428Y-145597343D02*
X151357143Y-145654486D01*
X151357143Y-145654486D02*
X151300000Y-145711629D01*
X151300000Y-145711629D02*
X151242857Y-145825915D01*
X151242857Y-145825915D02*
X151242857Y-145997343D01*
X151242857Y-145997343D02*
X151300000Y-146111629D01*
X151300000Y-146111629D02*
X151357143Y-146168772D01*
X151357143Y-146168772D02*
X151471428Y-146225915D01*
X151471428Y-146225915D02*
X151928571Y-146225915D01*
X149928571Y-145997343D02*
X149642857Y-146797343D01*
X149642857Y-146797343D02*
X149357142Y-145997343D01*
X148271428Y-146797343D02*
X148957142Y-146797343D01*
X148614285Y-146797343D02*
X148614285Y-145597343D01*
X148614285Y-145597343D02*
X148728571Y-145768772D01*
X148728571Y-145768772D02*
X148842856Y-145883058D01*
X148842856Y-145883058D02*
X148957142Y-145940201D01*
X147757142Y-146340201D02*
X146842857Y-146340201D01*
X146042857Y-145597343D02*
X145928571Y-145597343D01*
X145928571Y-145597343D02*
X145814285Y-145654486D01*
X145814285Y-145654486D02*
X145757143Y-145711629D01*
X145757143Y-145711629D02*
X145700000Y-145825915D01*
X145700000Y-145825915D02*
X145642857Y-146054486D01*
X145642857Y-146054486D02*
X145642857Y-146340201D01*
X145642857Y-146340201D02*
X145700000Y-146568772D01*
X145700000Y-146568772D02*
X145757143Y-146683058D01*
X145757143Y-146683058D02*
X145814285Y-146740201D01*
X145814285Y-146740201D02*
X145928571Y-146797343D01*
X145928571Y-146797343D02*
X146042857Y-146797343D01*
X146042857Y-146797343D02*
X146157143Y-146740201D01*
X146157143Y-146740201D02*
X146214285Y-146683058D01*
X146214285Y-146683058D02*
X146271428Y-146568772D01*
X146271428Y-146568772D02*
X146328571Y-146340201D01*
X146328571Y-146340201D02*
X146328571Y-146054486D01*
X146328571Y-146054486D02*
X146271428Y-145825915D01*
X146271428Y-145825915D02*
X146214285Y-145711629D01*
X146214285Y-145711629D02*
X146157143Y-145654486D01*
X146157143Y-145654486D02*
X146042857Y-145597343D01*
X159342855Y-148547342D02*
X159342855Y-147347342D01*
X159342855Y-147347342D02*
X158885712Y-147347342D01*
X158885712Y-147347342D02*
X158771427Y-147404485D01*
X158771427Y-147404485D02*
X158714284Y-147461628D01*
X158714284Y-147461628D02*
X158657141Y-147575914D01*
X158657141Y-147575914D02*
X158657141Y-147747342D01*
X158657141Y-147747342D02*
X158714284Y-147861628D01*
X158714284Y-147861628D02*
X158771427Y-147918771D01*
X158771427Y-147918771D02*
X158885712Y-147975914D01*
X158885712Y-147975914D02*
X159342855Y-147975914D01*
X157628570Y-148547342D02*
X157628570Y-147918771D01*
X157628570Y-147918771D02*
X157685712Y-147804485D01*
X157685712Y-147804485D02*
X157799998Y-147747342D01*
X157799998Y-147747342D02*
X158028570Y-147747342D01*
X158028570Y-147747342D02*
X158142855Y-147804485D01*
X157628570Y-148490200D02*
X157742855Y-148547342D01*
X157742855Y-148547342D02*
X158028570Y-148547342D01*
X158028570Y-148547342D02*
X158142855Y-148490200D01*
X158142855Y-148490200D02*
X158199998Y-148375914D01*
X158199998Y-148375914D02*
X158199998Y-148261628D01*
X158199998Y-148261628D02*
X158142855Y-148147342D01*
X158142855Y-148147342D02*
X158028570Y-148090200D01*
X158028570Y-148090200D02*
X157742855Y-148090200D01*
X157742855Y-148090200D02*
X157628570Y-148033057D01*
X157057141Y-147747342D02*
X157057141Y-148547342D01*
X157057141Y-147861628D02*
X156999998Y-147804485D01*
X156999998Y-147804485D02*
X156885713Y-147747342D01*
X156885713Y-147747342D02*
X156714284Y-147747342D01*
X156714284Y-147747342D02*
X156599998Y-147804485D01*
X156599998Y-147804485D02*
X156542856Y-147918771D01*
X156542856Y-147918771D02*
X156542856Y-148547342D01*
X155457142Y-148490200D02*
X155571427Y-148547342D01*
X155571427Y-148547342D02*
X155799999Y-148547342D01*
X155799999Y-148547342D02*
X155914284Y-148490200D01*
X155914284Y-148490200D02*
X155971427Y-148433057D01*
X155971427Y-148433057D02*
X156028570Y-148318771D01*
X156028570Y-148318771D02*
X156028570Y-147975914D01*
X156028570Y-147975914D02*
X155971427Y-147861628D01*
X155971427Y-147861628D02*
X155914284Y-147804485D01*
X155914284Y-147804485D02*
X155799999Y-147747342D01*
X155799999Y-147747342D02*
X155571427Y-147747342D01*
X155571427Y-147747342D02*
X155457142Y-147804485D01*
X154428571Y-148547342D02*
X154428571Y-147918771D01*
X154428571Y-147918771D02*
X154485713Y-147804485D01*
X154485713Y-147804485D02*
X154599999Y-147747342D01*
X154599999Y-147747342D02*
X154828571Y-147747342D01*
X154828571Y-147747342D02*
X154942856Y-147804485D01*
X154428571Y-148490200D02*
X154542856Y-148547342D01*
X154542856Y-148547342D02*
X154828571Y-148547342D01*
X154828571Y-148547342D02*
X154942856Y-148490200D01*
X154942856Y-148490200D02*
X154999999Y-148375914D01*
X154999999Y-148375914D02*
X154999999Y-148261628D01*
X154999999Y-148261628D02*
X154942856Y-148147342D01*
X154942856Y-148147342D02*
X154828571Y-148090200D01*
X154828571Y-148090200D02*
X154542856Y-148090200D01*
X154542856Y-148090200D02*
X154428571Y-148033057D01*
X153857142Y-148547342D02*
X153857142Y-147347342D01*
X153742857Y-148090200D02*
X153399999Y-148547342D01*
X153399999Y-147747342D02*
X153857142Y-148204485D01*
X152428570Y-148490200D02*
X152542856Y-148547342D01*
X152542856Y-148547342D02*
X152771428Y-148547342D01*
X152771428Y-148547342D02*
X152885713Y-148490200D01*
X152885713Y-148490200D02*
X152942856Y-148375914D01*
X152942856Y-148375914D02*
X152942856Y-147918771D01*
X152942856Y-147918771D02*
X152885713Y-147804485D01*
X152885713Y-147804485D02*
X152771428Y-147747342D01*
X152771428Y-147747342D02*
X152542856Y-147747342D01*
X152542856Y-147747342D02*
X152428570Y-147804485D01*
X152428570Y-147804485D02*
X152371428Y-147918771D01*
X152371428Y-147918771D02*
X152371428Y-148033057D01*
X152371428Y-148033057D02*
X152942856Y-148147342D01*
X151285714Y-148547342D02*
X151857142Y-148547342D01*
X151857142Y-148547342D02*
X151857142Y-147347342D01*
X150428570Y-148490200D02*
X150542856Y-148547342D01*
X150542856Y-148547342D02*
X150771428Y-148547342D01*
X150771428Y-148547342D02*
X150885713Y-148490200D01*
X150885713Y-148490200D02*
X150942856Y-148375914D01*
X150942856Y-148375914D02*
X150942856Y-147918771D01*
X150942856Y-147918771D02*
X150885713Y-147804485D01*
X150885713Y-147804485D02*
X150771428Y-147747342D01*
X150771428Y-147747342D02*
X150542856Y-147747342D01*
X150542856Y-147747342D02*
X150428570Y-147804485D01*
X150428570Y-147804485D02*
X150371428Y-147918771D01*
X150371428Y-147918771D02*
X150371428Y-148033057D01*
X150371428Y-148033057D02*
X150942856Y-148147342D01*
X149342857Y-147747342D02*
X149342857Y-148718771D01*
X149342857Y-148718771D02*
X149399999Y-148833057D01*
X149399999Y-148833057D02*
X149457142Y-148890200D01*
X149457142Y-148890200D02*
X149571428Y-148947342D01*
X149571428Y-148947342D02*
X149742857Y-148947342D01*
X149742857Y-148947342D02*
X149857142Y-148890200D01*
X149342857Y-148490200D02*
X149457142Y-148547342D01*
X149457142Y-148547342D02*
X149685714Y-148547342D01*
X149685714Y-148547342D02*
X149799999Y-148490200D01*
X149799999Y-148490200D02*
X149857142Y-148433057D01*
X149857142Y-148433057D02*
X149914285Y-148318771D01*
X149914285Y-148318771D02*
X149914285Y-147975914D01*
X149914285Y-147975914D02*
X149857142Y-147861628D01*
X149857142Y-147861628D02*
X149799999Y-147804485D01*
X149799999Y-147804485D02*
X149685714Y-147747342D01*
X149685714Y-147747342D02*
X149457142Y-147747342D01*
X149457142Y-147747342D02*
X149342857Y-147804485D01*
X148314285Y-148490200D02*
X148428571Y-148547342D01*
X148428571Y-148547342D02*
X148657143Y-148547342D01*
X148657143Y-148547342D02*
X148771428Y-148490200D01*
X148771428Y-148490200D02*
X148828571Y-148375914D01*
X148828571Y-148375914D02*
X148828571Y-147918771D01*
X148828571Y-147918771D02*
X148771428Y-147804485D01*
X148771428Y-147804485D02*
X148657143Y-147747342D01*
X148657143Y-147747342D02*
X148428571Y-147747342D01*
X148428571Y-147747342D02*
X148314285Y-147804485D01*
X148314285Y-147804485D02*
X148257143Y-147918771D01*
X148257143Y-147918771D02*
X148257143Y-148033057D01*
X148257143Y-148033057D02*
X148828571Y-148147342D01*
X147742857Y-147747342D02*
X147742857Y-148547342D01*
X147742857Y-147861628D02*
X147685714Y-147804485D01*
X147685714Y-147804485D02*
X147571429Y-147747342D01*
X147571429Y-147747342D02*
X147400000Y-147747342D01*
X147400000Y-147747342D02*
X147285714Y-147804485D01*
X147285714Y-147804485D02*
X147228572Y-147918771D01*
X147228572Y-147918771D02*
X147228572Y-148547342D01*
X146142858Y-148547342D02*
X146142858Y-147347342D01*
X146142858Y-148490200D02*
X146257143Y-148547342D01*
X146257143Y-148547342D02*
X146485715Y-148547342D01*
X146485715Y-148547342D02*
X146600000Y-148490200D01*
X146600000Y-148490200D02*
X146657143Y-148433057D01*
X146657143Y-148433057D02*
X146714286Y-148318771D01*
X146714286Y-148318771D02*
X146714286Y-147975914D01*
X146714286Y-147975914D02*
X146657143Y-147861628D01*
X146657143Y-147861628D02*
X146600000Y-147804485D01*
X146600000Y-147804485D02*
X146485715Y-147747342D01*
X146485715Y-147747342D02*
X146257143Y-147747342D01*
X146257143Y-147747342D02*
X146142858Y-147804485D01*
X144714286Y-147461628D02*
X144657143Y-147404485D01*
X144657143Y-147404485D02*
X144542858Y-147347342D01*
X144542858Y-147347342D02*
X144257143Y-147347342D01*
X144257143Y-147347342D02*
X144142858Y-147404485D01*
X144142858Y-147404485D02*
X144085715Y-147461628D01*
X144085715Y-147461628D02*
X144028572Y-147575914D01*
X144028572Y-147575914D02*
X144028572Y-147690200D01*
X144028572Y-147690200D02*
X144085715Y-147861628D01*
X144085715Y-147861628D02*
X144771429Y-148547342D01*
X144771429Y-148547342D02*
X144028572Y-148547342D01*
X143285715Y-147347342D02*
X143171429Y-147347342D01*
X143171429Y-147347342D02*
X143057143Y-147404485D01*
X143057143Y-147404485D02*
X143000001Y-147461628D01*
X143000001Y-147461628D02*
X142942858Y-147575914D01*
X142942858Y-147575914D02*
X142885715Y-147804485D01*
X142885715Y-147804485D02*
X142885715Y-148090200D01*
X142885715Y-148090200D02*
X142942858Y-148318771D01*
X142942858Y-148318771D02*
X143000001Y-148433057D01*
X143000001Y-148433057D02*
X143057143Y-148490200D01*
X143057143Y-148490200D02*
X143171429Y-148547342D01*
X143171429Y-148547342D02*
X143285715Y-148547342D01*
X143285715Y-148547342D02*
X143400001Y-148490200D01*
X143400001Y-148490200D02*
X143457143Y-148433057D01*
X143457143Y-148433057D02*
X143514286Y-148318771D01*
X143514286Y-148318771D02*
X143571429Y-148090200D01*
X143571429Y-148090200D02*
X143571429Y-147804485D01*
X143571429Y-147804485D02*
X143514286Y-147575914D01*
X143514286Y-147575914D02*
X143457143Y-147461628D01*
X143457143Y-147461628D02*
X143400001Y-147404485D01*
X143400001Y-147404485D02*
X143285715Y-147347342D01*
X142428572Y-147461628D02*
X142371429Y-147404485D01*
X142371429Y-147404485D02*
X142257144Y-147347342D01*
X142257144Y-147347342D02*
X141971429Y-147347342D01*
X141971429Y-147347342D02*
X141857144Y-147404485D01*
X141857144Y-147404485D02*
X141800001Y-147461628D01*
X141800001Y-147461628D02*
X141742858Y-147575914D01*
X141742858Y-147575914D02*
X141742858Y-147690200D01*
X141742858Y-147690200D02*
X141800001Y-147861628D01*
X141800001Y-147861628D02*
X142485715Y-148547342D01*
X142485715Y-148547342D02*
X141742858Y-148547342D01*
X140657144Y-147347342D02*
X141228572Y-147347342D01*
X141228572Y-147347342D02*
X141285715Y-147918771D01*
X141285715Y-147918771D02*
X141228572Y-147861628D01*
X141228572Y-147861628D02*
X141114287Y-147804485D01*
X141114287Y-147804485D02*
X140828572Y-147804485D01*
X140828572Y-147804485D02*
X140714287Y-147861628D01*
X140714287Y-147861628D02*
X140657144Y-147918771D01*
X140657144Y-147918771D02*
X140600001Y-148033057D01*
X140600001Y-148033057D02*
X140600001Y-148318771D01*
X140600001Y-148318771D02*
X140657144Y-148433057D01*
X140657144Y-148433057D02*
X140714287Y-148490200D01*
X140714287Y-148490200D02*
X140828572Y-148547342D01*
X140828572Y-148547342D02*
X141114287Y-148547342D01*
X141114287Y-148547342D02*
X141228572Y-148490200D01*
X141228572Y-148490200D02*
X141285715Y-148433057D01*
D11*
X132093316Y-145483958D02*
X132093316Y-146451578D01*
X132577126Y-145967768D02*
X131609507Y-145967768D01*
X131307126Y-146874911D02*
X132577126Y-147298244D01*
X132577126Y-147298244D02*
X131307126Y-147721578D01*
X129367602Y-146149197D02*
X129307126Y-146028244D01*
X129307126Y-146028244D02*
X129307126Y-145846816D01*
X129307126Y-145846816D02*
X129367602Y-145665387D01*
X129367602Y-145665387D02*
X129488554Y-145544435D01*
X129488554Y-145544435D02*
X129609507Y-145483958D01*
X129609507Y-145483958D02*
X129851411Y-145423482D01*
X129851411Y-145423482D02*
X130032840Y-145423482D01*
X130032840Y-145423482D02*
X130274745Y-145483958D01*
X130274745Y-145483958D02*
X130395697Y-145544435D01*
X130395697Y-145544435D02*
X130516650Y-145665387D01*
X130516650Y-145665387D02*
X130577126Y-145846816D01*
X130577126Y-145846816D02*
X130577126Y-145967768D01*
X130577126Y-145967768D02*
X130516650Y-146149197D01*
X130516650Y-146149197D02*
X130456173Y-146209673D01*
X130456173Y-146209673D02*
X130032840Y-146209673D01*
X130032840Y-146209673D02*
X130032840Y-145967768D01*
X130577126Y-146753958D02*
X129307126Y-146753958D01*
X129307126Y-146753958D02*
X130577126Y-147479673D01*
X130577126Y-147479673D02*
X129307126Y-147479673D01*
X130577126Y-148084434D02*
X129307126Y-148084434D01*
X129307126Y-148084434D02*
X129307126Y-148386815D01*
X129307126Y-148386815D02*
X129367602Y-148568244D01*
X129367602Y-148568244D02*
X129488554Y-148689196D01*
X129488554Y-148689196D02*
X129609507Y-148749673D01*
X129609507Y-148749673D02*
X129851411Y-148810149D01*
X129851411Y-148810149D02*
X130032840Y-148810149D01*
X130032840Y-148810149D02*
X130274745Y-148749673D01*
X130274745Y-148749673D02*
X130395697Y-148689196D01*
X130395697Y-148689196D02*
X130516650Y-148568244D01*
X130516650Y-148568244D02*
X130577126Y-148386815D01*
X130577126Y-148386815D02*
X130577126Y-148084434D01*
X134093316Y-145483958D02*
X134093316Y-146451578D01*
X133307126Y-146874911D02*
X134577126Y-147298244D01*
X134577126Y-147298244D02*
X133307126Y-147721578D01*
X168093316Y-145483958D02*
X168093316Y-146451578D01*
X168577126Y-145967768D02*
X167609507Y-145967768D01*
X167307126Y-146874911D02*
X168577126Y-147298244D01*
X168577126Y-147298244D02*
X167307126Y-147721578D01*
X165367602Y-146149197D02*
X165307126Y-146028244D01*
X165307126Y-146028244D02*
X165307126Y-145846816D01*
X165307126Y-145846816D02*
X165367602Y-145665387D01*
X165367602Y-145665387D02*
X165488554Y-145544435D01*
X165488554Y-145544435D02*
X165609507Y-145483958D01*
X165609507Y-145483958D02*
X165851411Y-145423482D01*
X165851411Y-145423482D02*
X166032840Y-145423482D01*
X166032840Y-145423482D02*
X166274745Y-145483958D01*
X166274745Y-145483958D02*
X166395697Y-145544435D01*
X166395697Y-145544435D02*
X166516650Y-145665387D01*
X166516650Y-145665387D02*
X166577126Y-145846816D01*
X166577126Y-145846816D02*
X166577126Y-145967768D01*
X166577126Y-145967768D02*
X166516650Y-146149197D01*
X166516650Y-146149197D02*
X166456173Y-146209673D01*
X166456173Y-146209673D02*
X166032840Y-146209673D01*
X166032840Y-146209673D02*
X166032840Y-145967768D01*
X166577126Y-146753958D02*
X165307126Y-146753958D01*
X165307126Y-146753958D02*
X166577126Y-147479673D01*
X166577126Y-147479673D02*
X165307126Y-147479673D01*
X166577126Y-148084434D02*
X165307126Y-148084434D01*
X165307126Y-148084434D02*
X165307126Y-148386815D01*
X165307126Y-148386815D02*
X165367602Y-148568244D01*
X165367602Y-148568244D02*
X165488554Y-148689196D01*
X165488554Y-148689196D02*
X165609507Y-148749673D01*
X165609507Y-148749673D02*
X165851411Y-148810149D01*
X165851411Y-148810149D02*
X166032840Y-148810149D01*
X166032840Y-148810149D02*
X166274745Y-148749673D01*
X166274745Y-148749673D02*
X166395697Y-148689196D01*
X166395697Y-148689196D02*
X166516650Y-148568244D01*
X166516650Y-148568244D02*
X166577126Y-148386815D01*
X166577126Y-148386815D02*
X166577126Y-148084434D01*
X170093316Y-145483958D02*
X170093316Y-146451578D01*
X169307126Y-146874911D02*
X170577126Y-147298244D01*
X170577126Y-147298244D02*
X169307126Y-147721578D01*
D12*
%TO.C,Ref\u002A\u002A*%
X168504634Y-54146087D02*
X168713316Y-54526199D01*
X168818416Y-54750053D01*
X168828802Y-54776208D01*
X168971359Y-55135234D01*
X169087292Y-55520354D01*
X169167953Y-55912877D01*
X169215076Y-56320270D01*
X169230397Y-56750000D01*
X169226097Y-56981247D01*
X169193676Y-57401213D01*
X169128099Y-57802793D01*
X169027721Y-58193071D01*
X168890901Y-58579127D01*
X168742550Y-58909000D01*
X168715996Y-58968046D01*
X168631678Y-59130766D01*
X168397772Y-59519419D01*
X168132166Y-59881717D01*
X167836934Y-60216251D01*
X167514152Y-60521612D01*
X167165897Y-60796390D01*
X166794244Y-61039175D01*
X166401269Y-61248558D01*
X165989047Y-61423130D01*
X165559655Y-61561480D01*
X165115168Y-61662200D01*
X164657662Y-61723879D01*
X164639016Y-61725418D01*
X164532290Y-61731126D01*
X164401386Y-61734455D01*
X164261163Y-61735152D01*
X164126480Y-61732962D01*
X164064857Y-61730858D01*
X163638191Y-61698276D01*
X163232349Y-61633579D01*
X162839279Y-61534798D01*
X162450930Y-61399962D01*
X162059250Y-61227100D01*
X161738275Y-61056969D01*
X161357153Y-60813387D01*
X161003180Y-60537569D01*
X160675739Y-60228977D01*
X160374216Y-59887071D01*
X160097994Y-59511313D01*
X160031584Y-59409675D01*
X159809342Y-59021670D01*
X159624992Y-58618401D01*
X159478533Y-58202713D01*
X159369966Y-57777451D01*
X159299291Y-57345459D01*
X159266508Y-56909583D01*
X159271616Y-56472669D01*
X159314616Y-56037560D01*
X159329282Y-55959517D01*
X160360909Y-55959517D01*
X160361232Y-56090150D01*
X160369204Y-56229502D01*
X160384197Y-56364068D01*
X160405584Y-56480342D01*
X160407506Y-56488264D01*
X160434768Y-56573841D01*
X160475130Y-56654146D01*
X160533884Y-56736712D01*
X160616323Y-56829069D01*
X160727739Y-56938747D01*
X160902192Y-57103881D01*
X160890419Y-57233722D01*
X160888234Y-57265985D01*
X160899509Y-57404948D01*
X160947211Y-57523861D01*
X161032405Y-57625662D01*
X161120887Y-57688834D01*
X161245717Y-57734331D01*
X161381190Y-57741343D01*
X161523206Y-57709781D01*
X161667667Y-57639556D01*
X161693784Y-57624026D01*
X161743072Y-57600711D01*
X161798190Y-57585628D01*
X161871304Y-57575980D01*
X161974583Y-57568967D01*
X162021310Y-57565977D01*
X162128727Y-57556202D01*
X162227131Y-57543735D01*
X162299871Y-57530542D01*
X162349641Y-57519365D01*
X162395354Y-57513663D01*
X162422024Y-57521233D01*
X162442477Y-57543216D01*
X162466550Y-57591087D01*
X162484563Y-57652692D01*
X162487721Y-57701630D01*
X162472154Y-57750122D01*
X162431916Y-57811935D01*
X162408238Y-57846062D01*
X162377995Y-57897553D01*
X162366167Y-57929971D01*
X162368646Y-57952492D01*
X162391894Y-58005967D01*
X162442240Y-58069416D01*
X162522897Y-58146528D01*
X162637077Y-58240990D01*
X162848321Y-58407997D01*
X162874113Y-58567884D01*
X162875563Y-58576775D01*
X162890619Y-58660383D01*
X162905662Y-58731094D01*
X162917639Y-58774412D01*
X162924576Y-58808323D01*
X162904836Y-58846397D01*
X162887433Y-58869471D01*
X162860872Y-58927564D01*
X162836102Y-59002308D01*
X162817806Y-59078966D01*
X162810667Y-59142798D01*
X162810391Y-59155613D01*
X162802258Y-59185654D01*
X162774396Y-59201901D01*
X162715548Y-59212617D01*
X162681406Y-59219149D01*
X162596861Y-59244501D01*
X162516552Y-59278292D01*
X162444558Y-59321970D01*
X162357089Y-59406501D01*
X162306007Y-59503351D01*
X162290868Y-59607528D01*
X162311226Y-59714042D01*
X162366635Y-59817904D01*
X162456649Y-59914122D01*
X162580822Y-59997708D01*
X162633136Y-60025759D01*
X162678858Y-60050322D01*
X162697821Y-60060578D01*
X162709410Y-60082747D01*
X162716465Y-60123109D01*
X162716755Y-60161749D01*
X162708506Y-60179000D01*
X162676431Y-60185884D01*
X162626836Y-60203477D01*
X162579439Y-60215725D01*
X162503719Y-60226062D01*
X162419083Y-60231262D01*
X162293153Y-60242266D01*
X162139166Y-60280045D01*
X162005309Y-60341307D01*
X161898216Y-60422816D01*
X161824519Y-60521336D01*
X161819650Y-60531493D01*
X161804080Y-60614053D01*
X161824406Y-60698343D01*
X161876003Y-60776988D01*
X161954244Y-60842617D01*
X162054501Y-60887855D01*
X162058224Y-60888931D01*
X162135952Y-60904394D01*
X162234318Y-60915120D01*
X162332967Y-60918843D01*
X162430650Y-60914499D01*
X162567299Y-60889421D01*
X162691978Y-60837375D01*
X162820364Y-60753026D01*
X162879646Y-60709689D01*
X162915750Y-60688797D01*
X162934462Y-60688977D01*
X162943583Y-60707337D01*
X162946897Y-60716703D01*
X162986203Y-60759181D01*
X163057327Y-60793434D01*
X163151896Y-60817815D01*
X163261536Y-60830679D01*
X163377876Y-60830378D01*
X163492542Y-60815268D01*
X163556124Y-60797147D01*
X163644537Y-60748290D01*
X163700986Y-60681131D01*
X163720833Y-60600041D01*
X163713915Y-60536981D01*
X163682807Y-60426335D01*
X163629577Y-60295237D01*
X163557398Y-60150475D01*
X163469446Y-59998841D01*
X163368893Y-59847124D01*
X163360143Y-59834729D01*
X163317597Y-59773490D01*
X163287658Y-59728778D01*
X163276346Y-59709540D01*
X163282270Y-59708246D01*
X163321979Y-59706070D01*
X163392864Y-59704327D01*
X163487669Y-59703170D01*
X163599137Y-59702750D01*
X163637436Y-59702727D01*
X163752858Y-59701967D01*
X163837135Y-59699309D01*
X163899045Y-59693652D01*
X163947363Y-59683897D01*
X163990867Y-59668942D01*
X164038333Y-59647687D01*
X164088876Y-59621473D01*
X164158673Y-59578303D01*
X164207667Y-59539621D01*
X164240037Y-59512610D01*
X164280693Y-59494441D01*
X164340047Y-59483103D01*
X164429917Y-59475170D01*
X164532367Y-59463385D01*
X164641850Y-59442968D01*
X164732948Y-59418496D01*
X164866645Y-59373269D01*
X164934031Y-59430154D01*
X165006914Y-59481938D01*
X165129118Y-59546250D01*
X165270905Y-59602262D01*
X165419458Y-59644321D01*
X165484662Y-59659334D01*
X165540624Y-59675167D01*
X165570103Y-59691238D01*
X165581579Y-59712747D01*
X165583533Y-59744891D01*
X165590667Y-59808275D01*
X165631604Y-59904526D01*
X165702562Y-59981843D01*
X165796286Y-60033307D01*
X165905522Y-60052000D01*
X165950198Y-60050733D01*
X166028228Y-60036960D01*
X166096186Y-60002249D01*
X166170875Y-59939474D01*
X166182462Y-59928060D01*
X166229327Y-59861290D01*
X166234281Y-59800321D01*
X166197333Y-59745083D01*
X166168988Y-59716155D01*
X166155050Y-59694178D01*
X166168815Y-59681094D01*
X166211164Y-59654141D01*
X166272125Y-59620436D01*
X166371281Y-59558180D01*
X166493113Y-59454583D01*
X166598995Y-59335182D01*
X166676294Y-59212718D01*
X166678050Y-59209132D01*
X166708804Y-59139790D01*
X166726636Y-59077632D01*
X166734818Y-59006192D01*
X166736619Y-58909000D01*
X166728089Y-58772419D01*
X166700249Y-58663789D01*
X166648803Y-58573241D01*
X166569450Y-58489998D01*
X166481524Y-58432038D01*
X166377722Y-58407597D01*
X166260405Y-58422282D01*
X166252789Y-58424498D01*
X166167667Y-58466987D01*
X166075428Y-58539749D01*
X165984043Y-58634607D01*
X165901486Y-58743382D01*
X165835729Y-58857897D01*
X165764528Y-59007143D01*
X165488806Y-58926583D01*
X165469760Y-58920982D01*
X165363904Y-58888544D01*
X165270090Y-58857737D01*
X165197897Y-58831810D01*
X165156901Y-58814012D01*
X165091013Y-58791263D01*
X164979851Y-58784077D01*
X164834506Y-58798653D01*
X164656110Y-58834944D01*
X164586066Y-58851713D01*
X164505697Y-58870382D01*
X164447864Y-58883121D01*
X164421851Y-58887833D01*
X164412290Y-58878148D01*
X164392704Y-58837785D01*
X164370733Y-58776708D01*
X164348785Y-58716440D01*
X164279573Y-58574824D01*
X164177848Y-58409813D01*
X164042981Y-58220340D01*
X164004651Y-58168485D01*
X164463613Y-58168485D01*
X164529304Y-58274159D01*
X164560236Y-58320005D01*
X164595455Y-58362502D01*
X164618289Y-58378301D01*
X164652110Y-58373714D01*
X164729340Y-58356676D01*
X164823551Y-58331224D01*
X164920913Y-58301437D01*
X165007597Y-58271393D01*
X165069772Y-58245170D01*
X165102945Y-58229075D01*
X165151173Y-58211025D01*
X165202328Y-58202199D01*
X165269483Y-58200829D01*
X165365714Y-58205147D01*
X165439567Y-58208837D01*
X165512796Y-58209216D01*
X165567643Y-58202443D01*
X165617798Y-58186506D01*
X165676951Y-58159391D01*
X165706674Y-58144079D01*
X165804563Y-58077259D01*
X165883560Y-57989984D01*
X165954167Y-57871340D01*
X166004988Y-57771049D01*
X166143435Y-57762233D01*
X166173030Y-57760070D01*
X166256576Y-57748083D01*
X166304366Y-57727121D01*
X166321376Y-57693715D01*
X166312583Y-57644400D01*
X166304437Y-57626000D01*
X166252126Y-57568806D01*
X166168114Y-57523850D01*
X166060048Y-57494390D01*
X165935574Y-57483686D01*
X165768033Y-57497252D01*
X165591857Y-57544909D01*
X165416388Y-57629016D01*
X165235817Y-57751800D01*
X165216554Y-57751285D01*
X165172118Y-57724357D01*
X165110898Y-57671207D01*
X165079906Y-57642184D01*
X165027358Y-57600136D01*
X164985212Y-57581348D01*
X164941947Y-57579573D01*
X164900226Y-57588673D01*
X164865583Y-57614494D01*
X164848600Y-57660882D01*
X164848754Y-57732539D01*
X164865520Y-57834163D01*
X164898375Y-57970455D01*
X164899205Y-57973799D01*
X164898390Y-58003911D01*
X164873769Y-58028831D01*
X164817036Y-58057446D01*
X164734617Y-58091312D01*
X164520848Y-58155841D01*
X164463613Y-58168485D01*
X164004651Y-58168485D01*
X163998118Y-58159646D01*
X163952625Y-58095663D01*
X163923053Y-58051000D01*
X163914306Y-58032805D01*
X163925939Y-58024619D01*
X163964642Y-57998135D01*
X164019529Y-57960929D01*
X164131331Y-57873302D01*
X164263593Y-57743473D01*
X164397132Y-57587369D01*
X164482849Y-57470683D01*
X166574326Y-57470683D01*
X166650413Y-57554903D01*
X166678782Y-57588601D01*
X166713105Y-57638082D01*
X166726500Y-57670811D01*
X166727045Y-57674970D01*
X166736541Y-57685119D01*
X166761939Y-57692488D01*
X166773361Y-57693715D01*
X166808526Y-57697493D01*
X166881586Y-57700553D01*
X166986403Y-57702082D01*
X167128264Y-57702500D01*
X167203506Y-57702482D01*
X167323883Y-57702091D01*
X167410576Y-57700672D01*
X167469337Y-57697560D01*
X167505916Y-57692089D01*
X167526065Y-57683595D01*
X167535535Y-57671412D01*
X167540078Y-57654875D01*
X167543057Y-57633637D01*
X167550493Y-57573660D01*
X167561755Y-57479700D01*
X167576358Y-57355982D01*
X167593820Y-57206730D01*
X167613655Y-57036168D01*
X167635381Y-56848519D01*
X167658514Y-56648009D01*
X167682570Y-56438860D01*
X167707065Y-56225298D01*
X167731516Y-56011546D01*
X167755438Y-55801828D01*
X167778348Y-55600369D01*
X167799763Y-55411392D01*
X167819198Y-55239121D01*
X167836169Y-55087781D01*
X167850194Y-54961596D01*
X167860788Y-54864789D01*
X167867467Y-54801585D01*
X167869749Y-54776208D01*
X167851560Y-54769758D01*
X167804846Y-54764305D01*
X167743690Y-54760582D01*
X167682184Y-54759171D01*
X167634421Y-54760657D01*
X167614493Y-54765625D01*
X167614251Y-54767579D01*
X167610473Y-54800274D01*
X167602444Y-54870486D01*
X167590566Y-54974673D01*
X167575243Y-55109295D01*
X167556877Y-55270811D01*
X167535870Y-55455681D01*
X167513878Y-55649333D01*
X167512626Y-55660362D01*
X167487546Y-55881316D01*
X167461035Y-56115000D01*
X167413018Y-56538333D01*
X167308583Y-57459083D01*
X166941455Y-57464883D01*
X166574326Y-57470683D01*
X164482849Y-57470683D01*
X164525683Y-57412374D01*
X164642984Y-57225873D01*
X164651590Y-57212011D01*
X164669285Y-57198128D01*
X164699141Y-57201729D01*
X164754538Y-57222395D01*
X164823631Y-57244528D01*
X164915648Y-57254425D01*
X164988733Y-57238042D01*
X165036943Y-57197142D01*
X165054333Y-57133489D01*
X165051236Y-57106340D01*
X165025367Y-57055068D01*
X164969120Y-57001709D01*
X164877528Y-56940850D01*
X164855737Y-56926868D01*
X164773561Y-56849300D01*
X164726993Y-56757326D01*
X164718179Y-56657387D01*
X164746549Y-56564792D01*
X165288359Y-56564792D01*
X165289091Y-56573962D01*
X165293769Y-56620477D01*
X165301983Y-56697162D01*
X165312860Y-56795944D01*
X165325526Y-56908750D01*
X165361501Y-57226250D01*
X166234500Y-57231776D01*
X166349109Y-57232444D01*
X166553027Y-57233224D01*
X166719395Y-57233156D01*
X166851418Y-57232164D01*
X166952303Y-57230169D01*
X167025255Y-57227093D01*
X167073480Y-57222860D01*
X167100184Y-57217391D01*
X167108573Y-57210610D01*
X167109393Y-57200319D01*
X167114255Y-57152475D01*
X167122695Y-57074664D01*
X167133839Y-56974881D01*
X167146811Y-56861125D01*
X167183975Y-56538333D01*
X166235571Y-56538333D01*
X166052058Y-56538470D01*
X165848176Y-56539102D01*
X165681297Y-56540325D01*
X165548410Y-56542223D01*
X165446499Y-56544881D01*
X165372552Y-56548383D01*
X165323556Y-56552812D01*
X165296496Y-56558254D01*
X165288359Y-56564792D01*
X164746549Y-56564792D01*
X164749266Y-56555923D01*
X164766829Y-56524748D01*
X164808243Y-56458849D01*
X164855100Y-56390405D01*
X164863291Y-56378812D01*
X164913397Y-56289980D01*
X164927246Y-56214362D01*
X164904583Y-56143811D01*
X164845157Y-56070176D01*
X164835277Y-56060562D01*
X164758432Y-56004511D01*
X164691007Y-55987140D01*
X164637195Y-56007093D01*
X164601189Y-56063016D01*
X164587179Y-56153553D01*
X164584557Y-56215157D01*
X164572585Y-56274351D01*
X164544112Y-56319214D01*
X164491743Y-56360251D01*
X164408082Y-56407969D01*
X164355314Y-56437399D01*
X164290306Y-56481103D01*
X164246654Y-56525497D01*
X164212958Y-56580673D01*
X164177564Y-56683464D01*
X164166331Y-56822797D01*
X164187201Y-56977883D01*
X164191307Y-56996711D01*
X164197184Y-57052262D01*
X164186591Y-57103442D01*
X164156317Y-57170241D01*
X164155611Y-57171632D01*
X164055120Y-57341180D01*
X163944037Y-57476882D01*
X163824892Y-57576618D01*
X163700216Y-57638264D01*
X163572537Y-57659702D01*
X163567484Y-57659683D01*
X163508429Y-57656849D01*
X163422413Y-57650007D01*
X163319312Y-57640238D01*
X163209005Y-57628623D01*
X163101370Y-57616245D01*
X163006284Y-57604184D01*
X162933625Y-57593522D01*
X162893272Y-57585341D01*
X162883775Y-57579680D01*
X162856335Y-57542570D01*
X162832756Y-57485565D01*
X162829411Y-57474266D01*
X162817026Y-57421956D01*
X162820759Y-57393394D01*
X162841722Y-57374841D01*
X162951347Y-57305188D01*
X163099162Y-57200294D01*
X163231323Y-57093685D01*
X163342189Y-56990340D01*
X163426119Y-56895243D01*
X163477474Y-56813374D01*
X163487597Y-56790482D01*
X163504031Y-56742012D01*
X163501915Y-56703678D01*
X163481811Y-56655025D01*
X163429641Y-56579760D01*
X163346704Y-56525260D01*
X163242445Y-56506583D01*
X163216842Y-56507590D01*
X163137225Y-56529619D01*
X163074360Y-56584118D01*
X163021961Y-56675917D01*
X162950034Y-56806142D01*
X162859687Y-56911922D01*
X162758508Y-56982467D01*
X162645766Y-57020984D01*
X162520394Y-57027984D01*
X162403399Y-56998081D01*
X162301450Y-56933107D01*
X162221216Y-56834894D01*
X162206039Y-56805565D01*
X162172274Y-56693429D01*
X162161865Y-56566829D01*
X162175102Y-56441861D01*
X162212271Y-56334621D01*
X162261177Y-56257153D01*
X162330890Y-56182455D01*
X162419199Y-56121004D01*
X162530007Y-56071444D01*
X162667220Y-56032420D01*
X162834742Y-56002574D01*
X163036478Y-55980550D01*
X163276333Y-55964992D01*
X163373798Y-55960027D01*
X163524562Y-55951047D01*
X163641951Y-55941453D01*
X163731773Y-55930209D01*
X163799835Y-55916276D01*
X163851945Y-55898618D01*
X163893910Y-55876198D01*
X163931538Y-55847978D01*
X163956194Y-55823014D01*
X163988818Y-55754265D01*
X163986290Y-55678393D01*
X163951184Y-55602316D01*
X163886076Y-55532949D01*
X163793538Y-55477209D01*
X163702900Y-55437116D01*
X163774590Y-55330585D01*
X163785847Y-55313458D01*
X163842924Y-55202695D01*
X163863448Y-55102691D01*
X163848902Y-55006988D01*
X163848126Y-55004662D01*
X163792380Y-54901692D01*
X163705680Y-54824903D01*
X163592194Y-54776912D01*
X163456087Y-54760333D01*
X164588167Y-54760333D01*
X164599448Y-54839708D01*
X164603681Y-54871734D01*
X164612747Y-54944720D01*
X164624768Y-55044376D01*
X164638689Y-55161921D01*
X164653452Y-55288574D01*
X164665715Y-55393097D01*
X164678570Y-55499103D01*
X164689247Y-55583278D01*
X164696886Y-55638876D01*
X164700630Y-55659154D01*
X164707374Y-55661393D01*
X164743830Y-55674136D01*
X164800333Y-55694163D01*
X164827845Y-55704063D01*
X164891701Y-55727763D01*
X164935793Y-55745105D01*
X164951227Y-55750891D01*
X164968343Y-55746733D01*
X164964129Y-55711022D01*
X164962812Y-55704313D01*
X164955862Y-55657184D01*
X164954854Y-55649333D01*
X165179415Y-55649333D01*
X165190595Y-55718125D01*
X165194032Y-55741612D01*
X165194683Y-55746733D01*
X165202712Y-55809955D01*
X165213176Y-55900008D01*
X165223858Y-55998583D01*
X165229470Y-56051369D01*
X165240433Y-56149685D01*
X165250429Y-56233749D01*
X165257831Y-56289625D01*
X165269721Y-56369000D01*
X167205729Y-56369000D01*
X167232387Y-56109708D01*
X167242774Y-56009660D01*
X167254140Y-55902221D01*
X167263966Y-55811371D01*
X167270887Y-55749875D01*
X167282730Y-55649333D01*
X165179415Y-55649333D01*
X164954854Y-55649333D01*
X164945584Y-55577147D01*
X164932835Y-55471255D01*
X164918469Y-55346562D01*
X164903344Y-55210125D01*
X164854433Y-54760333D01*
X164588167Y-54760333D01*
X163456087Y-54760333D01*
X163437070Y-54760622D01*
X163311479Y-54780654D01*
X163205114Y-54834161D01*
X163114026Y-54923881D01*
X163034264Y-55052550D01*
X162998864Y-55122517D01*
X162899474Y-55046709D01*
X162861263Y-55018900D01*
X162777012Y-54963297D01*
X162699257Y-54918033D01*
X162598431Y-54865165D01*
X162633105Y-54798113D01*
X162640896Y-54782477D01*
X162675731Y-54701175D01*
X162710033Y-54606072D01*
X162739661Y-54510300D01*
X162760475Y-54426990D01*
X162768333Y-54369276D01*
X162765832Y-54327629D01*
X162753135Y-54293777D01*
X162723799Y-54271851D01*
X162671409Y-54259322D01*
X162589551Y-54253659D01*
X162471812Y-54252333D01*
X162350573Y-54253967D01*
X162259934Y-54260587D01*
X162201175Y-54274406D01*
X162169000Y-54297637D01*
X162158112Y-54332490D01*
X162163215Y-54381176D01*
X162170687Y-54426284D01*
X162180841Y-54505709D01*
X162189381Y-54591000D01*
X162201014Y-54728583D01*
X161802049Y-54728583D01*
X161700655Y-54729079D01*
X161528325Y-54733372D01*
X161388835Y-54742912D01*
X161275984Y-54758711D01*
X161183571Y-54781782D01*
X161105395Y-54813136D01*
X161035256Y-54853787D01*
X161002100Y-54878396D01*
X160915465Y-54959286D01*
X160820122Y-55066648D01*
X160721598Y-55192430D01*
X160625422Y-55328582D01*
X160537120Y-55467053D01*
X160462219Y-55599793D01*
X160406248Y-55718749D01*
X160374734Y-55815872D01*
X160368862Y-55851110D01*
X160360909Y-55959517D01*
X159329282Y-55959517D01*
X159395508Y-55607103D01*
X159514292Y-55184142D01*
X159670968Y-54771522D01*
X159865535Y-54372089D01*
X160097994Y-53988687D01*
X160126659Y-53948743D01*
X165826917Y-53948743D01*
X165827159Y-53997745D01*
X165830331Y-54069430D01*
X165839892Y-54118688D01*
X165859208Y-54158723D01*
X165891644Y-54202743D01*
X165908117Y-54221748D01*
X165976589Y-54283635D01*
X166049587Y-54331708D01*
X166118789Y-54358476D01*
X166242204Y-54378457D01*
X166369957Y-54372206D01*
X166484265Y-54339410D01*
X166567706Y-54288485D01*
X166658850Y-54194646D01*
X166724772Y-54079054D01*
X166760196Y-53951612D01*
X166759844Y-53822222D01*
X166759474Y-53820017D01*
X166744125Y-53764945D01*
X166714372Y-53683232D01*
X166674349Y-53585541D01*
X166628187Y-53482535D01*
X166564116Y-53340444D01*
X166476847Y-53124107D01*
X166410266Y-52926897D01*
X166366962Y-52756007D01*
X166351416Y-52679591D01*
X166336333Y-52615312D01*
X166323443Y-52578908D01*
X166309850Y-52562697D01*
X166292658Y-52559000D01*
X166281380Y-52564499D01*
X166259826Y-52604899D01*
X166240395Y-52680708D01*
X166203443Y-52838678D01*
X166138738Y-53049599D01*
X166055648Y-53272714D01*
X165958209Y-53496358D01*
X165937527Y-53540501D01*
X165892143Y-53639377D01*
X165861246Y-53713143D01*
X165842056Y-53771381D01*
X165831791Y-53823673D01*
X165827672Y-53879600D01*
X165826917Y-53948743D01*
X160126659Y-53948743D01*
X160301326Y-53705350D01*
X160594056Y-53356828D01*
X160912011Y-53041803D01*
X161256665Y-52758976D01*
X161629488Y-52507050D01*
X162031954Y-52284728D01*
X162234828Y-52188588D01*
X162620831Y-52033534D01*
X163008536Y-51915690D01*
X163404758Y-51833476D01*
X163816308Y-51785307D01*
X164250000Y-51769603D01*
X164553301Y-51776909D01*
X164953391Y-51812279D01*
X165336360Y-51878752D01*
X165710642Y-51978287D01*
X166084671Y-52112843D01*
X166466881Y-52284378D01*
X166757735Y-52438840D01*
X167115307Y-52666392D01*
X167452559Y-52926864D01*
X167775457Y-53224543D01*
X167994280Y-53456512D01*
X168266397Y-53791527D01*
X168373962Y-53951612D01*
X168504634Y-54146087D01*
G36*
X168504634Y-54146087D02*
G01*
X168713316Y-54526199D01*
X168818416Y-54750053D01*
X168828802Y-54776208D01*
X168971359Y-55135234D01*
X169087292Y-55520354D01*
X169167953Y-55912877D01*
X169215076Y-56320270D01*
X169230397Y-56750000D01*
X169226097Y-56981247D01*
X169193676Y-57401213D01*
X169128099Y-57802793D01*
X169027721Y-58193071D01*
X168890901Y-58579127D01*
X168742550Y-58909000D01*
X168715996Y-58968046D01*
X168631678Y-59130766D01*
X168397772Y-59519419D01*
X168132166Y-59881717D01*
X167836934Y-60216251D01*
X167514152Y-60521612D01*
X167165897Y-60796390D01*
X166794244Y-61039175D01*
X166401269Y-61248558D01*
X165989047Y-61423130D01*
X165559655Y-61561480D01*
X165115168Y-61662200D01*
X164657662Y-61723879D01*
X164639016Y-61725418D01*
X164532290Y-61731126D01*
X164401386Y-61734455D01*
X164261163Y-61735152D01*
X164126480Y-61732962D01*
X164064857Y-61730858D01*
X163638191Y-61698276D01*
X163232349Y-61633579D01*
X162839279Y-61534798D01*
X162450930Y-61399962D01*
X162059250Y-61227100D01*
X161738275Y-61056969D01*
X161357153Y-60813387D01*
X161003180Y-60537569D01*
X160675739Y-60228977D01*
X160374216Y-59887071D01*
X160097994Y-59511313D01*
X160031584Y-59409675D01*
X159809342Y-59021670D01*
X159624992Y-58618401D01*
X159478533Y-58202713D01*
X159369966Y-57777451D01*
X159299291Y-57345459D01*
X159266508Y-56909583D01*
X159271616Y-56472669D01*
X159314616Y-56037560D01*
X159329282Y-55959517D01*
X160360909Y-55959517D01*
X160361232Y-56090150D01*
X160369204Y-56229502D01*
X160384197Y-56364068D01*
X160405584Y-56480342D01*
X160407506Y-56488264D01*
X160434768Y-56573841D01*
X160475130Y-56654146D01*
X160533884Y-56736712D01*
X160616323Y-56829069D01*
X160727739Y-56938747D01*
X160902192Y-57103881D01*
X160890419Y-57233722D01*
X160888234Y-57265985D01*
X160899509Y-57404948D01*
X160947211Y-57523861D01*
X161032405Y-57625662D01*
X161120887Y-57688834D01*
X161245717Y-57734331D01*
X161381190Y-57741343D01*
X161523206Y-57709781D01*
X161667667Y-57639556D01*
X161693784Y-57624026D01*
X161743072Y-57600711D01*
X161798190Y-57585628D01*
X161871304Y-57575980D01*
X161974583Y-57568967D01*
X162021310Y-57565977D01*
X162128727Y-57556202D01*
X162227131Y-57543735D01*
X162299871Y-57530542D01*
X162349641Y-57519365D01*
X162395354Y-57513663D01*
X162422024Y-57521233D01*
X162442477Y-57543216D01*
X162466550Y-57591087D01*
X162484563Y-57652692D01*
X162487721Y-57701630D01*
X162472154Y-57750122D01*
X162431916Y-57811935D01*
X162408238Y-57846062D01*
X162377995Y-57897553D01*
X162366167Y-57929971D01*
X162368646Y-57952492D01*
X162391894Y-58005967D01*
X162442240Y-58069416D01*
X162522897Y-58146528D01*
X162637077Y-58240990D01*
X162848321Y-58407997D01*
X162874113Y-58567884D01*
X162875563Y-58576775D01*
X162890619Y-58660383D01*
X162905662Y-58731094D01*
X162917639Y-58774412D01*
X162924576Y-58808323D01*
X162904836Y-58846397D01*
X162887433Y-58869471D01*
X162860872Y-58927564D01*
X162836102Y-59002308D01*
X162817806Y-59078966D01*
X162810667Y-59142798D01*
X162810391Y-59155613D01*
X162802258Y-59185654D01*
X162774396Y-59201901D01*
X162715548Y-59212617D01*
X162681406Y-59219149D01*
X162596861Y-59244501D01*
X162516552Y-59278292D01*
X162444558Y-59321970D01*
X162357089Y-59406501D01*
X162306007Y-59503351D01*
X162290868Y-59607528D01*
X162311226Y-59714042D01*
X162366635Y-59817904D01*
X162456649Y-59914122D01*
X162580822Y-59997708D01*
X162633136Y-60025759D01*
X162678858Y-60050322D01*
X162697821Y-60060578D01*
X162709410Y-60082747D01*
X162716465Y-60123109D01*
X162716755Y-60161749D01*
X162708506Y-60179000D01*
X162676431Y-60185884D01*
X162626836Y-60203477D01*
X162579439Y-60215725D01*
X162503719Y-60226062D01*
X162419083Y-60231262D01*
X162293153Y-60242266D01*
X162139166Y-60280045D01*
X162005309Y-60341307D01*
X161898216Y-60422816D01*
X161824519Y-60521336D01*
X161819650Y-60531493D01*
X161804080Y-60614053D01*
X161824406Y-60698343D01*
X161876003Y-60776988D01*
X161954244Y-60842617D01*
X162054501Y-60887855D01*
X162058224Y-60888931D01*
X162135952Y-60904394D01*
X162234318Y-60915120D01*
X162332967Y-60918843D01*
X162430650Y-60914499D01*
X162567299Y-60889421D01*
X162691978Y-60837375D01*
X162820364Y-60753026D01*
X162879646Y-60709689D01*
X162915750Y-60688797D01*
X162934462Y-60688977D01*
X162943583Y-60707337D01*
X162946897Y-60716703D01*
X162986203Y-60759181D01*
X163057327Y-60793434D01*
X163151896Y-60817815D01*
X163261536Y-60830679D01*
X163377876Y-60830378D01*
X163492542Y-60815268D01*
X163556124Y-60797147D01*
X163644537Y-60748290D01*
X163700986Y-60681131D01*
X163720833Y-60600041D01*
X163713915Y-60536981D01*
X163682807Y-60426335D01*
X163629577Y-60295237D01*
X163557398Y-60150475D01*
X163469446Y-59998841D01*
X163368893Y-59847124D01*
X163360143Y-59834729D01*
X163317597Y-59773490D01*
X163287658Y-59728778D01*
X163276346Y-59709540D01*
X163282270Y-59708246D01*
X163321979Y-59706070D01*
X163392864Y-59704327D01*
X163487669Y-59703170D01*
X163599137Y-59702750D01*
X163637436Y-59702727D01*
X163752858Y-59701967D01*
X163837135Y-59699309D01*
X163899045Y-59693652D01*
X163947363Y-59683897D01*
X163990867Y-59668942D01*
X164038333Y-59647687D01*
X164088876Y-59621473D01*
X164158673Y-59578303D01*
X164207667Y-59539621D01*
X164240037Y-59512610D01*
X164280693Y-59494441D01*
X164340047Y-59483103D01*
X164429917Y-59475170D01*
X164532367Y-59463385D01*
X164641850Y-59442968D01*
X164732948Y-59418496D01*
X164866645Y-59373269D01*
X164934031Y-59430154D01*
X165006914Y-59481938D01*
X165129118Y-59546250D01*
X165270905Y-59602262D01*
X165419458Y-59644321D01*
X165484662Y-59659334D01*
X165540624Y-59675167D01*
X165570103Y-59691238D01*
X165581579Y-59712747D01*
X165583533Y-59744891D01*
X165590667Y-59808275D01*
X165631604Y-59904526D01*
X165702562Y-59981843D01*
X165796286Y-60033307D01*
X165905522Y-60052000D01*
X165950198Y-60050733D01*
X166028228Y-60036960D01*
X166096186Y-60002249D01*
X166170875Y-59939474D01*
X166182462Y-59928060D01*
X166229327Y-59861290D01*
X166234281Y-59800321D01*
X166197333Y-59745083D01*
X166168988Y-59716155D01*
X166155050Y-59694178D01*
X166168815Y-59681094D01*
X166211164Y-59654141D01*
X166272125Y-59620436D01*
X166371281Y-59558180D01*
X166493113Y-59454583D01*
X166598995Y-59335182D01*
X166676294Y-59212718D01*
X166678050Y-59209132D01*
X166708804Y-59139790D01*
X166726636Y-59077632D01*
X166734818Y-59006192D01*
X166736619Y-58909000D01*
X166728089Y-58772419D01*
X166700249Y-58663789D01*
X166648803Y-58573241D01*
X166569450Y-58489998D01*
X166481524Y-58432038D01*
X166377722Y-58407597D01*
X166260405Y-58422282D01*
X166252789Y-58424498D01*
X166167667Y-58466987D01*
X166075428Y-58539749D01*
X165984043Y-58634607D01*
X165901486Y-58743382D01*
X165835729Y-58857897D01*
X165764528Y-59007143D01*
X165488806Y-58926583D01*
X165469760Y-58920982D01*
X165363904Y-58888544D01*
X165270090Y-58857737D01*
X165197897Y-58831810D01*
X165156901Y-58814012D01*
X165091013Y-58791263D01*
X164979851Y-58784077D01*
X164834506Y-58798653D01*
X164656110Y-58834944D01*
X164586066Y-58851713D01*
X164505697Y-58870382D01*
X164447864Y-58883121D01*
X164421851Y-58887833D01*
X164412290Y-58878148D01*
X164392704Y-58837785D01*
X164370733Y-58776708D01*
X164348785Y-58716440D01*
X164279573Y-58574824D01*
X164177848Y-58409813D01*
X164042981Y-58220340D01*
X164004651Y-58168485D01*
X164463613Y-58168485D01*
X164529304Y-58274159D01*
X164560236Y-58320005D01*
X164595455Y-58362502D01*
X164618289Y-58378301D01*
X164652110Y-58373714D01*
X164729340Y-58356676D01*
X164823551Y-58331224D01*
X164920913Y-58301437D01*
X165007597Y-58271393D01*
X165069772Y-58245170D01*
X165102945Y-58229075D01*
X165151173Y-58211025D01*
X165202328Y-58202199D01*
X165269483Y-58200829D01*
X165365714Y-58205147D01*
X165439567Y-58208837D01*
X165512796Y-58209216D01*
X165567643Y-58202443D01*
X165617798Y-58186506D01*
X165676951Y-58159391D01*
X165706674Y-58144079D01*
X165804563Y-58077259D01*
X165883560Y-57989984D01*
X165954167Y-57871340D01*
X166004988Y-57771049D01*
X166143435Y-57762233D01*
X166173030Y-57760070D01*
X166256576Y-57748083D01*
X166304366Y-57727121D01*
X166321376Y-57693715D01*
X166312583Y-57644400D01*
X166304437Y-57626000D01*
X166252126Y-57568806D01*
X166168114Y-57523850D01*
X166060048Y-57494390D01*
X165935574Y-57483686D01*
X165768033Y-57497252D01*
X165591857Y-57544909D01*
X165416388Y-57629016D01*
X165235817Y-57751800D01*
X165216554Y-57751285D01*
X165172118Y-57724357D01*
X165110898Y-57671207D01*
X165079906Y-57642184D01*
X165027358Y-57600136D01*
X164985212Y-57581348D01*
X164941947Y-57579573D01*
X164900226Y-57588673D01*
X164865583Y-57614494D01*
X164848600Y-57660882D01*
X164848754Y-57732539D01*
X164865520Y-57834163D01*
X164898375Y-57970455D01*
X164899205Y-57973799D01*
X164898390Y-58003911D01*
X164873769Y-58028831D01*
X164817036Y-58057446D01*
X164734617Y-58091312D01*
X164520848Y-58155841D01*
X164463613Y-58168485D01*
X164004651Y-58168485D01*
X163998118Y-58159646D01*
X163952625Y-58095663D01*
X163923053Y-58051000D01*
X163914306Y-58032805D01*
X163925939Y-58024619D01*
X163964642Y-57998135D01*
X164019529Y-57960929D01*
X164131331Y-57873302D01*
X164263593Y-57743473D01*
X164397132Y-57587369D01*
X164482849Y-57470683D01*
X166574326Y-57470683D01*
X166650413Y-57554903D01*
X166678782Y-57588601D01*
X166713105Y-57638082D01*
X166726500Y-57670811D01*
X166727045Y-57674970D01*
X166736541Y-57685119D01*
X166761939Y-57692488D01*
X166773361Y-57693715D01*
X166808526Y-57697493D01*
X166881586Y-57700553D01*
X166986403Y-57702082D01*
X167128264Y-57702500D01*
X167203506Y-57702482D01*
X167323883Y-57702091D01*
X167410576Y-57700672D01*
X167469337Y-57697560D01*
X167505916Y-57692089D01*
X167526065Y-57683595D01*
X167535535Y-57671412D01*
X167540078Y-57654875D01*
X167543057Y-57633637D01*
X167550493Y-57573660D01*
X167561755Y-57479700D01*
X167576358Y-57355982D01*
X167593820Y-57206730D01*
X167613655Y-57036168D01*
X167635381Y-56848519D01*
X167658514Y-56648009D01*
X167682570Y-56438860D01*
X167707065Y-56225298D01*
X167731516Y-56011546D01*
X167755438Y-55801828D01*
X167778348Y-55600369D01*
X167799763Y-55411392D01*
X167819198Y-55239121D01*
X167836169Y-55087781D01*
X167850194Y-54961596D01*
X167860788Y-54864789D01*
X167867467Y-54801585D01*
X167869749Y-54776208D01*
X167851560Y-54769758D01*
X167804846Y-54764305D01*
X167743690Y-54760582D01*
X167682184Y-54759171D01*
X167634421Y-54760657D01*
X167614493Y-54765625D01*
X167614251Y-54767579D01*
X167610473Y-54800274D01*
X167602444Y-54870486D01*
X167590566Y-54974673D01*
X167575243Y-55109295D01*
X167556877Y-55270811D01*
X167535870Y-55455681D01*
X167513878Y-55649333D01*
X167512626Y-55660362D01*
X167487546Y-55881316D01*
X167461035Y-56115000D01*
X167413018Y-56538333D01*
X167308583Y-57459083D01*
X166941455Y-57464883D01*
X166574326Y-57470683D01*
X164482849Y-57470683D01*
X164525683Y-57412374D01*
X164642984Y-57225873D01*
X164651590Y-57212011D01*
X164669285Y-57198128D01*
X164699141Y-57201729D01*
X164754538Y-57222395D01*
X164823631Y-57244528D01*
X164915648Y-57254425D01*
X164988733Y-57238042D01*
X165036943Y-57197142D01*
X165054333Y-57133489D01*
X165051236Y-57106340D01*
X165025367Y-57055068D01*
X164969120Y-57001709D01*
X164877528Y-56940850D01*
X164855737Y-56926868D01*
X164773561Y-56849300D01*
X164726993Y-56757326D01*
X164718179Y-56657387D01*
X164746549Y-56564792D01*
X165288359Y-56564792D01*
X165289091Y-56573962D01*
X165293769Y-56620477D01*
X165301983Y-56697162D01*
X165312860Y-56795944D01*
X165325526Y-56908750D01*
X165361501Y-57226250D01*
X166234500Y-57231776D01*
X166349109Y-57232444D01*
X166553027Y-57233224D01*
X166719395Y-57233156D01*
X166851418Y-57232164D01*
X166952303Y-57230169D01*
X167025255Y-57227093D01*
X167073480Y-57222860D01*
X167100184Y-57217391D01*
X167108573Y-57210610D01*
X167109393Y-57200319D01*
X167114255Y-57152475D01*
X167122695Y-57074664D01*
X167133839Y-56974881D01*
X167146811Y-56861125D01*
X167183975Y-56538333D01*
X166235571Y-56538333D01*
X166052058Y-56538470D01*
X165848176Y-56539102D01*
X165681297Y-56540325D01*
X165548410Y-56542223D01*
X165446499Y-56544881D01*
X165372552Y-56548383D01*
X165323556Y-56552812D01*
X165296496Y-56558254D01*
X165288359Y-56564792D01*
X164746549Y-56564792D01*
X164749266Y-56555923D01*
X164766829Y-56524748D01*
X164808243Y-56458849D01*
X164855100Y-56390405D01*
X164863291Y-56378812D01*
X164913397Y-56289980D01*
X164927246Y-56214362D01*
X164904583Y-56143811D01*
X164845157Y-56070176D01*
X164835277Y-56060562D01*
X164758432Y-56004511D01*
X164691007Y-55987140D01*
X164637195Y-56007093D01*
X164601189Y-56063016D01*
X164587179Y-56153553D01*
X164584557Y-56215157D01*
X164572585Y-56274351D01*
X164544112Y-56319214D01*
X164491743Y-56360251D01*
X164408082Y-56407969D01*
X164355314Y-56437399D01*
X164290306Y-56481103D01*
X164246654Y-56525497D01*
X164212958Y-56580673D01*
X164177564Y-56683464D01*
X164166331Y-56822797D01*
X164187201Y-56977883D01*
X164191307Y-56996711D01*
X164197184Y-57052262D01*
X164186591Y-57103442D01*
X164156317Y-57170241D01*
X164155611Y-57171632D01*
X164055120Y-57341180D01*
X163944037Y-57476882D01*
X163824892Y-57576618D01*
X163700216Y-57638264D01*
X163572537Y-57659702D01*
X163567484Y-57659683D01*
X163508429Y-57656849D01*
X163422413Y-57650007D01*
X163319312Y-57640238D01*
X163209005Y-57628623D01*
X163101370Y-57616245D01*
X163006284Y-57604184D01*
X162933625Y-57593522D01*
X162893272Y-57585341D01*
X162883775Y-57579680D01*
X162856335Y-57542570D01*
X162832756Y-57485565D01*
X162829411Y-57474266D01*
X162817026Y-57421956D01*
X162820759Y-57393394D01*
X162841722Y-57374841D01*
X162951347Y-57305188D01*
X163099162Y-57200294D01*
X163231323Y-57093685D01*
X163342189Y-56990340D01*
X163426119Y-56895243D01*
X163477474Y-56813374D01*
X163487597Y-56790482D01*
X163504031Y-56742012D01*
X163501915Y-56703678D01*
X163481811Y-56655025D01*
X163429641Y-56579760D01*
X163346704Y-56525260D01*
X163242445Y-56506583D01*
X163216842Y-56507590D01*
X163137225Y-56529619D01*
X163074360Y-56584118D01*
X163021961Y-56675917D01*
X162950034Y-56806142D01*
X162859687Y-56911922D01*
X162758508Y-56982467D01*
X162645766Y-57020984D01*
X162520394Y-57027984D01*
X162403399Y-56998081D01*
X162301450Y-56933107D01*
X162221216Y-56834894D01*
X162206039Y-56805565D01*
X162172274Y-56693429D01*
X162161865Y-56566829D01*
X162175102Y-56441861D01*
X162212271Y-56334621D01*
X162261177Y-56257153D01*
X162330890Y-56182455D01*
X162419199Y-56121004D01*
X162530007Y-56071444D01*
X162667220Y-56032420D01*
X162834742Y-56002574D01*
X163036478Y-55980550D01*
X163276333Y-55964992D01*
X163373798Y-55960027D01*
X163524562Y-55951047D01*
X163641951Y-55941453D01*
X163731773Y-55930209D01*
X163799835Y-55916276D01*
X163851945Y-55898618D01*
X163893910Y-55876198D01*
X163931538Y-55847978D01*
X163956194Y-55823014D01*
X163988818Y-55754265D01*
X163986290Y-55678393D01*
X163951184Y-55602316D01*
X163886076Y-55532949D01*
X163793538Y-55477209D01*
X163702900Y-55437116D01*
X163774590Y-55330585D01*
X163785847Y-55313458D01*
X163842924Y-55202695D01*
X163863448Y-55102691D01*
X163848902Y-55006988D01*
X163848126Y-55004662D01*
X163792380Y-54901692D01*
X163705680Y-54824903D01*
X163592194Y-54776912D01*
X163456087Y-54760333D01*
X164588167Y-54760333D01*
X164599448Y-54839708D01*
X164603681Y-54871734D01*
X164612747Y-54944720D01*
X164624768Y-55044376D01*
X164638689Y-55161921D01*
X164653452Y-55288574D01*
X164665715Y-55393097D01*
X164678570Y-55499103D01*
X164689247Y-55583278D01*
X164696886Y-55638876D01*
X164700630Y-55659154D01*
X164707374Y-55661393D01*
X164743830Y-55674136D01*
X164800333Y-55694163D01*
X164827845Y-55704063D01*
X164891701Y-55727763D01*
X164935793Y-55745105D01*
X164951227Y-55750891D01*
X164968343Y-55746733D01*
X164964129Y-55711022D01*
X164962812Y-55704313D01*
X164955862Y-55657184D01*
X164954854Y-55649333D01*
X165179415Y-55649333D01*
X165190595Y-55718125D01*
X165194032Y-55741612D01*
X165194683Y-55746733D01*
X165202712Y-55809955D01*
X165213176Y-55900008D01*
X165223858Y-55998583D01*
X165229470Y-56051369D01*
X165240433Y-56149685D01*
X165250429Y-56233749D01*
X165257831Y-56289625D01*
X165269721Y-56369000D01*
X167205729Y-56369000D01*
X167232387Y-56109708D01*
X167242774Y-56009660D01*
X167254140Y-55902221D01*
X167263966Y-55811371D01*
X167270887Y-55749875D01*
X167282730Y-55649333D01*
X165179415Y-55649333D01*
X164954854Y-55649333D01*
X164945584Y-55577147D01*
X164932835Y-55471255D01*
X164918469Y-55346562D01*
X164903344Y-55210125D01*
X164854433Y-54760333D01*
X164588167Y-54760333D01*
X163456087Y-54760333D01*
X163437070Y-54760622D01*
X163311479Y-54780654D01*
X163205114Y-54834161D01*
X163114026Y-54923881D01*
X163034264Y-55052550D01*
X162998864Y-55122517D01*
X162899474Y-55046709D01*
X162861263Y-55018900D01*
X162777012Y-54963297D01*
X162699257Y-54918033D01*
X162598431Y-54865165D01*
X162633105Y-54798113D01*
X162640896Y-54782477D01*
X162675731Y-54701175D01*
X162710033Y-54606072D01*
X162739661Y-54510300D01*
X162760475Y-54426990D01*
X162768333Y-54369276D01*
X162765832Y-54327629D01*
X162753135Y-54293777D01*
X162723799Y-54271851D01*
X162671409Y-54259322D01*
X162589551Y-54253659D01*
X162471812Y-54252333D01*
X162350573Y-54253967D01*
X162259934Y-54260587D01*
X162201175Y-54274406D01*
X162169000Y-54297637D01*
X162158112Y-54332490D01*
X162163215Y-54381176D01*
X162170687Y-54426284D01*
X162180841Y-54505709D01*
X162189381Y-54591000D01*
X162201014Y-54728583D01*
X161802049Y-54728583D01*
X161700655Y-54729079D01*
X161528325Y-54733372D01*
X161388835Y-54742912D01*
X161275984Y-54758711D01*
X161183571Y-54781782D01*
X161105395Y-54813136D01*
X161035256Y-54853787D01*
X161002100Y-54878396D01*
X160915465Y-54959286D01*
X160820122Y-55066648D01*
X160721598Y-55192430D01*
X160625422Y-55328582D01*
X160537120Y-55467053D01*
X160462219Y-55599793D01*
X160406248Y-55718749D01*
X160374734Y-55815872D01*
X160368862Y-55851110D01*
X160360909Y-55959517D01*
X159329282Y-55959517D01*
X159395508Y-55607103D01*
X159514292Y-55184142D01*
X159670968Y-54771522D01*
X159865535Y-54372089D01*
X160097994Y-53988687D01*
X160126659Y-53948743D01*
X165826917Y-53948743D01*
X165827159Y-53997745D01*
X165830331Y-54069430D01*
X165839892Y-54118688D01*
X165859208Y-54158723D01*
X165891644Y-54202743D01*
X165908117Y-54221748D01*
X165976589Y-54283635D01*
X166049587Y-54331708D01*
X166118789Y-54358476D01*
X166242204Y-54378457D01*
X166369957Y-54372206D01*
X166484265Y-54339410D01*
X166567706Y-54288485D01*
X166658850Y-54194646D01*
X166724772Y-54079054D01*
X166760196Y-53951612D01*
X166759844Y-53822222D01*
X166759474Y-53820017D01*
X166744125Y-53764945D01*
X166714372Y-53683232D01*
X166674349Y-53585541D01*
X166628187Y-53482535D01*
X166564116Y-53340444D01*
X166476847Y-53124107D01*
X166410266Y-52926897D01*
X166366962Y-52756007D01*
X166351416Y-52679591D01*
X166336333Y-52615312D01*
X166323443Y-52578908D01*
X166309850Y-52562697D01*
X166292658Y-52559000D01*
X166281380Y-52564499D01*
X166259826Y-52604899D01*
X166240395Y-52680708D01*
X166203443Y-52838678D01*
X166138738Y-53049599D01*
X166055648Y-53272714D01*
X165958209Y-53496358D01*
X165937527Y-53540501D01*
X165892143Y-53639377D01*
X165861246Y-53713143D01*
X165842056Y-53771381D01*
X165831791Y-53823673D01*
X165827672Y-53879600D01*
X165826917Y-53948743D01*
X160126659Y-53948743D01*
X160301326Y-53705350D01*
X160594056Y-53356828D01*
X160912011Y-53041803D01*
X161256665Y-52758976D01*
X161629488Y-52507050D01*
X162031954Y-52284728D01*
X162234828Y-52188588D01*
X162620831Y-52033534D01*
X163008536Y-51915690D01*
X163404758Y-51833476D01*
X163816308Y-51785307D01*
X164250000Y-51769603D01*
X164553301Y-51776909D01*
X164953391Y-51812279D01*
X165336360Y-51878752D01*
X165710642Y-51978287D01*
X166084671Y-52112843D01*
X166466881Y-52284378D01*
X166757735Y-52438840D01*
X167115307Y-52666392D01*
X167452559Y-52926864D01*
X167775457Y-53224543D01*
X167994280Y-53456512D01*
X168266397Y-53791527D01*
X168373962Y-53951612D01*
X168504634Y-54146087D01*
G37*
X162386830Y-54972027D02*
X162410284Y-54978797D01*
X162418257Y-55005103D01*
X162414472Y-55061958D01*
X162411464Y-55114175D01*
X162422345Y-55159864D01*
X162455132Y-55199216D01*
X162507054Y-55234910D01*
X162570505Y-55259459D01*
X162610763Y-55262942D01*
X162655425Y-55248319D01*
X162709865Y-55206868D01*
X162733683Y-55186494D01*
X162774989Y-55154107D01*
X162796823Y-55141333D01*
X162802711Y-55144741D01*
X162828133Y-55172932D01*
X162862820Y-55220330D01*
X162874694Y-55238746D01*
X162907077Y-55314630D01*
X162916030Y-55405538D01*
X162915292Y-55431566D01*
X162896912Y-55522730D01*
X162849757Y-55588353D01*
X162768333Y-55637042D01*
X162767598Y-55637357D01*
X162674671Y-55664472D01*
X162576067Y-55664973D01*
X162458096Y-55638946D01*
X162413704Y-55624444D01*
X162283301Y-55561157D01*
X162188902Y-55478155D01*
X162131519Y-55376555D01*
X162112167Y-55257474D01*
X162112956Y-55224436D01*
X162125866Y-55147439D01*
X162158054Y-55088706D01*
X162163201Y-55082452D01*
X162227717Y-55027942D01*
X162307969Y-54987698D01*
X162384054Y-54972000D01*
X162386830Y-54972027D01*
G36*
X162386830Y-54972027D02*
G01*
X162410284Y-54978797D01*
X162418257Y-55005103D01*
X162414472Y-55061958D01*
X162411464Y-55114175D01*
X162422345Y-55159864D01*
X162455132Y-55199216D01*
X162507054Y-55234910D01*
X162570505Y-55259459D01*
X162610763Y-55262942D01*
X162655425Y-55248319D01*
X162709865Y-55206868D01*
X162733683Y-55186494D01*
X162774989Y-55154107D01*
X162796823Y-55141333D01*
X162802711Y-55144741D01*
X162828133Y-55172932D01*
X162862820Y-55220330D01*
X162874694Y-55238746D01*
X162907077Y-55314630D01*
X162916030Y-55405538D01*
X162915292Y-55431566D01*
X162896912Y-55522730D01*
X162849757Y-55588353D01*
X162768333Y-55637042D01*
X162767598Y-55637357D01*
X162674671Y-55664472D01*
X162576067Y-55664973D01*
X162458096Y-55638946D01*
X162413704Y-55624444D01*
X162283301Y-55561157D01*
X162188902Y-55478155D01*
X162131519Y-55376555D01*
X162112167Y-55257474D01*
X162112956Y-55224436D01*
X162125866Y-55147439D01*
X162158054Y-55088706D01*
X162163201Y-55082452D01*
X162227717Y-55027942D01*
X162307969Y-54987698D01*
X162384054Y-54972000D01*
X162386830Y-54972027D01*
G37*
X166478238Y-53746758D02*
X166533574Y-53778118D01*
X166567076Y-53845176D01*
X166578333Y-53947272D01*
X166578151Y-53960527D01*
X166560195Y-54061675D01*
X166509541Y-54142940D01*
X166421461Y-54212308D01*
X166417865Y-54214455D01*
X166358059Y-54241192D01*
X166304531Y-54252254D01*
X166266336Y-54243330D01*
X166214657Y-54213723D01*
X166172458Y-54174546D01*
X166155000Y-54137509D01*
X166162950Y-54119125D01*
X166193172Y-54076622D01*
X166238226Y-54023683D01*
X166271188Y-53983652D01*
X166313407Y-53918645D01*
X166335921Y-53864942D01*
X166336753Y-53861105D01*
X166360258Y-53790967D01*
X166396366Y-53754675D01*
X166452725Y-53744333D01*
X166478238Y-53746758D01*
G36*
X166478238Y-53746758D02*
G01*
X166533574Y-53778118D01*
X166567076Y-53845176D01*
X166578333Y-53947272D01*
X166578151Y-53960527D01*
X166560195Y-54061675D01*
X166509541Y-54142940D01*
X166421461Y-54212308D01*
X166417865Y-54214455D01*
X166358059Y-54241192D01*
X166304531Y-54252254D01*
X166266336Y-54243330D01*
X166214657Y-54213723D01*
X166172458Y-54174546D01*
X166155000Y-54137509D01*
X166162950Y-54119125D01*
X166193172Y-54076622D01*
X166238226Y-54023683D01*
X166271188Y-53983652D01*
X166313407Y-53918645D01*
X166335921Y-53864942D01*
X166336753Y-53861105D01*
X166360258Y-53790967D01*
X166396366Y-53754675D01*
X166452725Y-53744333D01*
X166478238Y-53746758D01*
G37*
X140984737Y-53641985D02*
X140983501Y-53742784D01*
X140978763Y-53815197D01*
X140968421Y-53871359D01*
X140950376Y-53923408D01*
X140922528Y-53983480D01*
X140888865Y-54043091D01*
X140825170Y-54134561D01*
X140758694Y-54211822D01*
X140738973Y-54230408D01*
X140665209Y-54288475D01*
X140578686Y-54344704D01*
X140490693Y-54392740D01*
X140412517Y-54426228D01*
X140355445Y-54438816D01*
X140337573Y-54441987D01*
X140320973Y-54458540D01*
X140318685Y-54465262D01*
X140308297Y-54495786D01*
X140297291Y-54560906D01*
X140285701Y-54661083D01*
X140265591Y-54824233D01*
X140218115Y-55114609D01*
X140154613Y-55425321D01*
X140110275Y-55609618D01*
X140077509Y-55745816D01*
X140024256Y-55938678D01*
X139989227Y-56065543D01*
X139892191Y-56373950D01*
X139891660Y-56375530D01*
X139852145Y-56496409D01*
X139818767Y-56604847D01*
X139793479Y-56693963D01*
X139778236Y-56756874D01*
X139774992Y-56786700D01*
X139778206Y-56796656D01*
X139794180Y-56844138D01*
X139818661Y-56915674D01*
X139847805Y-57000000D01*
X139893065Y-57141226D01*
X139937519Y-57319979D01*
X139966870Y-57503041D01*
X139982967Y-57702722D01*
X139987224Y-57910167D01*
X139987658Y-57931333D01*
X139983058Y-58152896D01*
X139969159Y-58345101D01*
X139945861Y-58497957D01*
X139913052Y-58612473D01*
X139892505Y-58647213D01*
X139849865Y-58683502D01*
X139781986Y-58717338D01*
X139683294Y-58751410D01*
X139548215Y-58788404D01*
X139466014Y-58808384D01*
X139452854Y-58810931D01*
X139234367Y-58853218D01*
X139010788Y-58876981D01*
X138775313Y-58882093D01*
X138534377Y-58878785D01*
X138356374Y-59093832D01*
X138133399Y-59349601D01*
X137863951Y-59630949D01*
X137577840Y-59904540D01*
X137286032Y-60159928D01*
X136999492Y-60386667D01*
X136951333Y-60422752D01*
X136877832Y-60479626D01*
X136831153Y-60520158D01*
X136806164Y-60549810D01*
X136797734Y-60574047D01*
X136800734Y-60598333D01*
X136804331Y-60618816D01*
X136809676Y-60681092D01*
X136813261Y-60766526D01*
X136814298Y-60850199D01*
X136814455Y-60862917D01*
X136813816Y-60933436D01*
X136809897Y-61016123D01*
X136800277Y-61078685D01*
X136782531Y-61134587D01*
X136754234Y-61197296D01*
X136725158Y-61251155D01*
X136619431Y-61391996D01*
X136485608Y-61510928D01*
X136332363Y-61601160D01*
X136168375Y-61655900D01*
X136005036Y-61672143D01*
X135831279Y-61652192D01*
X135665723Y-61596816D01*
X135514362Y-61509531D01*
X135383190Y-61393852D01*
X135278204Y-61253291D01*
X135205399Y-61091365D01*
X135191309Y-61024767D01*
X135181855Y-60930995D01*
X135179285Y-60860191D01*
X135536316Y-60860191D01*
X135554529Y-60974941D01*
X135602516Y-61083367D01*
X135681713Y-61179366D01*
X135793557Y-61256834D01*
X135920664Y-61301606D01*
X136052194Y-61306950D01*
X136179398Y-61271486D01*
X136297338Y-61195812D01*
X136307941Y-61186493D01*
X136395050Y-61083460D01*
X136446547Y-60969292D01*
X136464695Y-60850199D01*
X136451758Y-60732390D01*
X136409998Y-60622076D01*
X136341679Y-60525467D01*
X136249065Y-60448771D01*
X136134417Y-60398200D01*
X136000000Y-60379963D01*
X135971804Y-60380694D01*
X135841554Y-60405210D01*
X135732456Y-60460025D01*
X135645946Y-60539034D01*
X135583461Y-60636134D01*
X135546439Y-60745221D01*
X135536316Y-60860191D01*
X135179285Y-60860191D01*
X135178047Y-60826091D01*
X135179987Y-60723313D01*
X135187775Y-60635919D01*
X135201510Y-60577167D01*
X135201766Y-60576499D01*
X135194672Y-60552518D01*
X135159559Y-60513523D01*
X135093810Y-60457024D01*
X134994808Y-60380531D01*
X134924496Y-60327077D01*
X134587411Y-60050752D01*
X134254035Y-59745631D01*
X133935187Y-59422032D01*
X133641685Y-59090271D01*
X133465433Y-58878935D01*
X133214008Y-58881775D01*
X133131219Y-58881427D01*
X132956941Y-58873095D01*
X132783685Y-58855590D01*
X132617353Y-58830229D01*
X132537599Y-58813658D01*
X133906766Y-58813658D01*
X133908042Y-58818505D01*
X133928760Y-58848372D01*
X133969069Y-58898863D01*
X134023183Y-58962577D01*
X134198706Y-59157752D01*
X134517604Y-59483695D01*
X134848065Y-59787645D01*
X135179867Y-60059903D01*
X135411908Y-60238434D01*
X135492605Y-60174521D01*
X135562450Y-60124080D01*
X135680160Y-60063076D01*
X135811077Y-60026789D01*
X135968250Y-60010727D01*
X136037976Y-60008658D01*
X136129677Y-60011323D01*
X136205792Y-60023190D01*
X136282717Y-60046106D01*
X136333506Y-60066373D01*
X136427422Y-60112759D01*
X136507663Y-60162153D01*
X136608642Y-60234700D01*
X136838779Y-60056008D01*
X137083667Y-59856869D01*
X137361098Y-59611496D01*
X137628751Y-59354812D01*
X137871904Y-59100435D01*
X138134993Y-58810931D01*
X137963833Y-58755317D01*
X137902200Y-58734266D01*
X137822804Y-58699919D01*
X137771002Y-58662025D01*
X137737946Y-58613140D01*
X137714786Y-58545821D01*
X137707606Y-58516228D01*
X137688192Y-58406586D01*
X137671965Y-58272592D01*
X137660102Y-58127613D01*
X137653781Y-57985016D01*
X137654160Y-57864467D01*
X137832189Y-57864467D01*
X137834700Y-58072968D01*
X137851031Y-58277805D01*
X137880232Y-58460500D01*
X137883159Y-58472830D01*
X137896709Y-58506244D01*
X137921459Y-58533214D01*
X137963498Y-58556547D01*
X138028917Y-58579046D01*
X138123804Y-58603517D01*
X138254250Y-58632765D01*
X138349139Y-58650072D01*
X138520587Y-58670341D01*
X138708112Y-58682057D01*
X138897428Y-58684794D01*
X139074246Y-58678127D01*
X139224279Y-58661632D01*
X139330666Y-58642454D01*
X139450730Y-58617026D01*
X139560591Y-58590102D01*
X139649696Y-58564289D01*
X139707494Y-58542196D01*
X139727398Y-58520795D01*
X139751327Y-58458210D01*
X139770830Y-58361301D01*
X139785267Y-58234622D01*
X139793998Y-58082726D01*
X139796382Y-57910167D01*
X139795611Y-57848789D01*
X139783982Y-57629093D01*
X139756545Y-57426351D01*
X139710575Y-57228113D01*
X139643342Y-57021934D01*
X139552121Y-56795363D01*
X139468249Y-56601310D01*
X139349270Y-56684656D01*
X139185436Y-56775516D01*
X139004758Y-56831538D01*
X138817210Y-56850508D01*
X138629623Y-56832422D01*
X138448830Y-56777278D01*
X138281661Y-56685074D01*
X138163279Y-56602147D01*
X138098929Y-56742865D01*
X138069531Y-56808479D01*
X137981127Y-57030337D01*
X137916517Y-57242437D01*
X137871342Y-57461003D01*
X137841245Y-57702261D01*
X137832189Y-57864467D01*
X137654160Y-57864467D01*
X137654180Y-57858166D01*
X137654805Y-57840745D01*
X137657316Y-57752881D01*
X137656351Y-57698778D01*
X137650574Y-57671068D01*
X137638652Y-57662384D01*
X137619250Y-57665360D01*
X137580599Y-57672497D01*
X137520050Y-57677044D01*
X137463183Y-57677333D01*
X137456550Y-58201208D01*
X137454348Y-58359788D01*
X137451837Y-58488274D01*
X137448610Y-58585757D01*
X137444170Y-58658006D01*
X137438026Y-58710788D01*
X137429682Y-58749873D01*
X137418644Y-58781030D01*
X137404420Y-58810027D01*
X137384552Y-58844505D01*
X137284010Y-58967593D01*
X137153861Y-59060586D01*
X137140724Y-59067436D01*
X137119593Y-59076857D01*
X137094737Y-59084658D01*
X137062293Y-59091022D01*
X137018403Y-59096132D01*
X136959204Y-59100171D01*
X136880837Y-59103322D01*
X136779441Y-59105768D01*
X136651154Y-59107692D01*
X136492117Y-59109278D01*
X136298468Y-59110708D01*
X136066347Y-59112166D01*
X135974195Y-59112714D01*
X135738739Y-59113864D01*
X135540467Y-59114120D01*
X135375566Y-59113113D01*
X135240225Y-59110477D01*
X135130633Y-59105843D01*
X135042978Y-59098844D01*
X134973450Y-59089112D01*
X134918237Y-59076280D01*
X134873528Y-59059981D01*
X134835512Y-59039847D01*
X134800376Y-59015509D01*
X134764311Y-58986602D01*
X134736155Y-58959963D01*
X134677721Y-58887889D01*
X134632226Y-58811250D01*
X134630809Y-58808200D01*
X134615311Y-58772841D01*
X134603511Y-58738209D01*
X134594903Y-58698153D01*
X134588982Y-58646521D01*
X134585241Y-58577162D01*
X134583175Y-58483925D01*
X134582277Y-58360657D01*
X134582040Y-58201208D01*
X134581718Y-58106641D01*
X134580242Y-57975137D01*
X134577742Y-57862650D01*
X134574404Y-57775008D01*
X134570414Y-57718041D01*
X134565958Y-57697578D01*
X134559631Y-57696865D01*
X134519991Y-57690361D01*
X134461624Y-57679528D01*
X134373165Y-57662399D01*
X134372508Y-57950324D01*
X134370415Y-58065251D01*
X134370241Y-58074845D01*
X134360353Y-58243356D01*
X134343458Y-58392479D01*
X134320455Y-58516512D01*
X134292240Y-58609753D01*
X134259713Y-58666501D01*
X134258836Y-58667415D01*
X134215150Y-58697814D01*
X134145624Y-58731446D01*
X134064896Y-58761197D01*
X134053780Y-58764677D01*
X133982153Y-58787536D01*
X133929580Y-58805047D01*
X133906766Y-58813658D01*
X132537599Y-58813658D01*
X132463847Y-58798334D01*
X132329067Y-58761224D01*
X132218916Y-58720219D01*
X132139295Y-58676638D01*
X132096105Y-58631800D01*
X132071321Y-58566725D01*
X132045797Y-58450952D01*
X132027018Y-58301597D01*
X132015535Y-58123312D01*
X132011899Y-57920750D01*
X132012009Y-57901091D01*
X132193801Y-57901091D01*
X132194408Y-57999156D01*
X132202084Y-58105937D01*
X132217155Y-58237887D01*
X132217291Y-58238968D01*
X132235002Y-58366089D01*
X132251625Y-58455309D01*
X132268154Y-58510977D01*
X132285584Y-58537444D01*
X132291096Y-58540913D01*
X132338781Y-58560241D01*
X132416497Y-58583704D01*
X132514640Y-58608953D01*
X132623605Y-58633639D01*
X132733787Y-58655414D01*
X132835583Y-58671929D01*
X132979215Y-58686038D01*
X133209959Y-58690164D01*
X133452326Y-58675722D01*
X133691195Y-58643789D01*
X133911446Y-58595437D01*
X133953882Y-58583800D01*
X134029865Y-58560376D01*
X134077223Y-58536074D01*
X134104510Y-58502247D01*
X134120283Y-58450247D01*
X134133099Y-58371427D01*
X134164695Y-58065251D01*
X134163788Y-57752813D01*
X134126084Y-57448386D01*
X134050617Y-57144401D01*
X133936417Y-56833289D01*
X133838366Y-56600995D01*
X133719162Y-56684498D01*
X133703212Y-56695381D01*
X133544281Y-56779039D01*
X133369470Y-56832819D01*
X133194126Y-56851833D01*
X133059711Y-56851833D01*
X133091206Y-56941098D01*
X133099856Y-56964002D01*
X133135906Y-57045075D01*
X133176300Y-57121823D01*
X133179905Y-57128062D01*
X133216692Y-57214530D01*
X133216886Y-57280353D01*
X133180480Y-57325221D01*
X133175576Y-57327912D01*
X133121511Y-57333181D01*
X133045398Y-57312702D01*
X132953770Y-57270663D01*
X132853157Y-57211249D01*
X132750091Y-57138647D01*
X132651104Y-57057045D01*
X132562727Y-56970628D01*
X132491491Y-56883583D01*
X132446808Y-56820083D01*
X132390156Y-56947083D01*
X132378576Y-56974002D01*
X132322856Y-57131548D01*
X132273720Y-57316495D01*
X132234103Y-57516476D01*
X132206940Y-57719124D01*
X132199941Y-57795288D01*
X132193801Y-57901091D01*
X132012009Y-57901091D01*
X132012160Y-57874270D01*
X132018099Y-57677901D01*
X132033556Y-57505226D01*
X132060891Y-57341320D01*
X132102464Y-57171261D01*
X132160635Y-56980125D01*
X132235394Y-56750425D01*
X132117760Y-56404254D01*
X132028616Y-56125034D01*
X132019318Y-56092115D01*
X132346386Y-56092115D01*
X132360421Y-56254212D01*
X132394599Y-56419750D01*
X132445865Y-56570433D01*
X132450301Y-56580545D01*
X132514541Y-56699212D01*
X132599862Y-56822633D01*
X132694916Y-56935791D01*
X132788353Y-57023667D01*
X132845256Y-57065416D01*
X132913682Y-57110334D01*
X132982139Y-57151278D01*
X133041875Y-57183281D01*
X133084135Y-57201376D01*
X133100167Y-57200596D01*
X133099080Y-57195727D01*
X133085140Y-57161817D01*
X133060275Y-57110282D01*
X133053880Y-57097028D01*
X133025999Y-57031010D01*
X132993097Y-56944217D01*
X132961005Y-56851833D01*
X132954635Y-56832432D01*
X132937609Y-56777877D01*
X132924528Y-56727592D01*
X132914757Y-56674920D01*
X132907659Y-56613203D01*
X132902599Y-56535785D01*
X132898941Y-56436008D01*
X132896049Y-56307216D01*
X132893287Y-56142750D01*
X132891885Y-56053810D01*
X132972877Y-56053810D01*
X132973428Y-56180839D01*
X132976006Y-56305436D01*
X132980633Y-56419991D01*
X132987326Y-56516888D01*
X132996107Y-56588517D01*
X132996537Y-56590980D01*
X133010606Y-56662405D01*
X133025496Y-56702815D01*
X133047627Y-56722844D01*
X133083420Y-56733125D01*
X133178749Y-56742326D01*
X133320800Y-56729655D01*
X133465962Y-56691081D01*
X133599544Y-56629553D01*
X133719344Y-56541886D01*
X133744126Y-56514535D01*
X134019018Y-56514535D01*
X134088441Y-56656726D01*
X134109680Y-56702073D01*
X134170121Y-56848593D01*
X134228095Y-57011674D01*
X134277544Y-57173476D01*
X134312409Y-57316160D01*
X134324239Y-57370631D01*
X134341199Y-57424099D01*
X134361987Y-57452535D01*
X134392016Y-57466139D01*
X134446577Y-57479243D01*
X134513042Y-57493409D01*
X134581833Y-57506942D01*
X134581833Y-57083457D01*
X134581994Y-56996758D01*
X134583699Y-56855154D01*
X134588261Y-56745582D01*
X134592933Y-56699926D01*
X134931083Y-56699926D01*
X134931083Y-58675907D01*
X134981053Y-58716370D01*
X134982692Y-58717681D01*
X134996464Y-58726990D01*
X135014582Y-58734697D01*
X135040844Y-58740952D01*
X135079050Y-58745906D01*
X135132998Y-58749710D01*
X135206487Y-58752515D01*
X135303315Y-58754472D01*
X135427282Y-58755731D01*
X135582186Y-58756444D01*
X135771826Y-58756761D01*
X136000000Y-58756833D01*
X136031404Y-58756832D01*
X136254448Y-58756737D01*
X136439442Y-58756378D01*
X136590186Y-58755604D01*
X136710477Y-58754264D01*
X136804115Y-58752208D01*
X136874898Y-58749283D01*
X136926625Y-58745341D01*
X136963094Y-58740229D01*
X136988105Y-58733797D01*
X137005457Y-58725895D01*
X137018947Y-58716370D01*
X137068917Y-58675907D01*
X137068917Y-56699926D01*
X137018947Y-56659463D01*
X137017308Y-56658152D01*
X137003536Y-56648843D01*
X136985419Y-56641136D01*
X136959156Y-56634881D01*
X136920951Y-56629927D01*
X136867003Y-56626123D01*
X136793514Y-56623318D01*
X136696685Y-56621361D01*
X136572718Y-56620102D01*
X136417814Y-56619389D01*
X136228174Y-56619072D01*
X136000000Y-56619000D01*
X135968596Y-56619001D01*
X135745552Y-56619096D01*
X135560558Y-56619455D01*
X135409815Y-56620229D01*
X135289524Y-56621569D01*
X135195886Y-56623625D01*
X135125103Y-56626550D01*
X135073376Y-56630492D01*
X135036906Y-56635604D01*
X135011895Y-56642036D01*
X134994544Y-56649938D01*
X134981053Y-56659463D01*
X134931083Y-56699926D01*
X134592933Y-56699926D01*
X134596893Y-56661227D01*
X134610806Y-56595274D01*
X134631213Y-56540909D01*
X134659327Y-56491316D01*
X134696360Y-56439680D01*
X134725548Y-56408556D01*
X134788396Y-56357454D01*
X134859747Y-56311649D01*
X134973417Y-56248800D01*
X135433792Y-56241327D01*
X135491608Y-56240288D01*
X135620327Y-56237203D01*
X135731018Y-56233479D01*
X135817606Y-56229384D01*
X135874014Y-56225184D01*
X135894167Y-56221144D01*
X135893842Y-56219201D01*
X136127000Y-56219201D01*
X136127134Y-56221144D01*
X136127542Y-56227097D01*
X136133322Y-56238421D01*
X136149773Y-56246722D01*
X136182173Y-56252471D01*
X136235797Y-56256139D01*
X136315924Y-56258198D01*
X136427830Y-56259119D01*
X136576792Y-56259373D01*
X136664794Y-56259469D01*
X136794392Y-56260145D01*
X136891983Y-56261982D01*
X136964213Y-56265582D01*
X137017726Y-56271543D01*
X137059168Y-56280469D01*
X137095183Y-56292958D01*
X137132417Y-56309613D01*
X137225114Y-56362965D01*
X137322468Y-56454638D01*
X137395288Y-56576667D01*
X137406948Y-56604422D01*
X137418987Y-56642751D01*
X137427558Y-56688921D01*
X137428586Y-56699926D01*
X137433246Y-56749828D01*
X137436637Y-56832371D01*
X137438316Y-56943449D01*
X137438869Y-57089958D01*
X137439237Y-57192011D01*
X137440888Y-57316975D01*
X137444095Y-57406597D01*
X137449132Y-57465110D01*
X137456273Y-57496745D01*
X137465792Y-57505733D01*
X137474549Y-57504633D01*
X137520456Y-57496350D01*
X137582113Y-57483340D01*
X137631410Y-57469459D01*
X137667815Y-57445560D01*
X137684448Y-57406231D01*
X137689616Y-57382891D01*
X137764135Y-57094190D01*
X137850948Y-56837229D01*
X137948450Y-56616811D01*
X137990851Y-56533699D01*
X137871516Y-56288275D01*
X137856541Y-56256504D01*
X138070367Y-56256504D01*
X138109392Y-56325907D01*
X138124790Y-56351750D01*
X138225852Y-56477522D01*
X138293222Y-56533699D01*
X138356083Y-56586117D01*
X138505158Y-56670142D01*
X138662750Y-56722200D01*
X138698569Y-56729369D01*
X138808520Y-56742791D01*
X138910195Y-56737235D01*
X139026320Y-56712068D01*
X139178684Y-56654478D01*
X139331416Y-56555484D01*
X139460355Y-56423032D01*
X139562470Y-56259679D01*
X139573780Y-56236429D01*
X139603607Y-56167493D01*
X139620606Y-56105918D01*
X139628259Y-56035160D01*
X139630050Y-55938678D01*
X139629842Y-55903579D01*
X139627655Y-55825118D01*
X139623590Y-55768078D01*
X139618276Y-55742914D01*
X139605382Y-55742471D01*
X139559054Y-55752036D01*
X139488028Y-55771536D01*
X139401317Y-55798654D01*
X139196167Y-55866229D01*
X139196167Y-55923961D01*
X139196167Y-55939598D01*
X139195571Y-55960422D01*
X139170966Y-56070056D01*
X139115581Y-56161627D01*
X139036743Y-56232423D01*
X138941774Y-56279732D01*
X138837999Y-56300845D01*
X138732743Y-56293048D01*
X138633330Y-56253631D01*
X138547085Y-56179882D01*
X138501253Y-56125386D01*
X138436498Y-56179874D01*
X138354228Y-56234016D01*
X138247969Y-56269818D01*
X138145054Y-56270516D01*
X138070367Y-56256504D01*
X137856541Y-56256504D01*
X137818186Y-56175128D01*
X137774664Y-56069926D01*
X137749500Y-55985101D01*
X137741752Y-55918787D01*
X137947333Y-55918787D01*
X137949910Y-55961632D01*
X137969515Y-56019288D01*
X138016125Y-56078055D01*
X138098536Y-56141466D01*
X138186263Y-56164037D01*
X138277212Y-56144667D01*
X138288656Y-56139343D01*
X138367783Y-56081170D01*
X138417787Y-56004283D01*
X138431681Y-55939999D01*
X138559746Y-55939999D01*
X138584392Y-56032389D01*
X138639989Y-56111347D01*
X138722791Y-56166481D01*
X138751341Y-56177958D01*
X138807356Y-56192958D01*
X138856291Y-56186788D01*
X138919496Y-56158592D01*
X138998944Y-56103422D01*
X139055095Y-56022467D01*
X139073037Y-55923961D01*
X139068550Y-55877437D01*
X139035187Y-55790340D01*
X138976301Y-55724846D01*
X138900199Y-55683130D01*
X138815191Y-55667365D01*
X138729583Y-55679725D01*
X138651684Y-55722384D01*
X138589802Y-55797516D01*
X138569797Y-55844571D01*
X138562063Y-55917997D01*
X138559746Y-55939999D01*
X138431681Y-55939999D01*
X138436436Y-55917997D01*
X138421496Y-55831628D01*
X138370736Y-55754492D01*
X138301025Y-55701367D01*
X138207745Y-55673673D01*
X138106513Y-55687525D01*
X138097700Y-55690623D01*
X138017519Y-55741495D01*
X137965719Y-55819987D01*
X137947333Y-55918787D01*
X137741752Y-55918787D01*
X137740961Y-55912021D01*
X137747316Y-55842052D01*
X137766831Y-55766562D01*
X137767771Y-55763570D01*
X137786983Y-55697738D01*
X137792067Y-55653553D01*
X137782108Y-55613075D01*
X137756188Y-55558367D01*
X137749268Y-55544792D01*
X138096030Y-55544792D01*
X138100586Y-55549681D01*
X138134977Y-55557558D01*
X138192142Y-55560667D01*
X138196934Y-55560681D01*
X138287735Y-55569937D01*
X138362520Y-55601371D01*
X138439458Y-55662463D01*
X138497667Y-55716753D01*
X138555875Y-55661223D01*
X138573847Y-55645193D01*
X138674764Y-55585668D01*
X138786981Y-55560285D01*
X138900879Y-55568624D01*
X139006840Y-55610265D01*
X139095247Y-55684788D01*
X139107746Y-55698834D01*
X139148782Y-55735340D01*
X139178925Y-55748836D01*
X139204145Y-55745137D01*
X139267527Y-55729540D01*
X139343135Y-55705933D01*
X139420377Y-55678228D01*
X139488662Y-55650333D01*
X139537401Y-55626160D01*
X139556000Y-55609618D01*
X139555205Y-55598949D01*
X139531499Y-55537296D01*
X139480189Y-55462901D01*
X139408491Y-55383170D01*
X139323624Y-55305510D01*
X139232805Y-55237329D01*
X139143250Y-55186032D01*
X139116113Y-55173661D01*
X139052901Y-55149158D01*
X138991459Y-55134941D01*
X138917107Y-55128355D01*
X138815167Y-55126750D01*
X138776674Y-55126903D01*
X138685423Y-55129936D01*
X138617002Y-55138841D01*
X138556879Y-55156211D01*
X138490523Y-55184635D01*
X138432776Y-55213873D01*
X138356587Y-55258202D01*
X138300023Y-55297656D01*
X138292827Y-55303757D01*
X138245236Y-55349907D01*
X138193202Y-55407453D01*
X138145284Y-55466029D01*
X138110041Y-55515264D01*
X138096030Y-55544792D01*
X137749268Y-55544792D01*
X137739922Y-55526458D01*
X137715270Y-55479626D01*
X137702705Y-55457987D01*
X137698603Y-55457908D01*
X137670008Y-55473103D01*
X137625039Y-55504770D01*
X137586454Y-55531927D01*
X137460063Y-55601060D01*
X137319444Y-55655828D01*
X137185117Y-55687697D01*
X137095450Y-55695348D01*
X136925734Y-55685731D01*
X136759496Y-55648017D01*
X136608201Y-55585263D01*
X136483311Y-55500527D01*
X136407975Y-55434381D01*
X136321440Y-55620629D01*
X136308923Y-55648270D01*
X136266694Y-55750400D01*
X136224953Y-55862899D01*
X136186908Y-55975898D01*
X136155763Y-56079527D01*
X136134725Y-56163918D01*
X136127000Y-56219201D01*
X135893842Y-56219201D01*
X135888623Y-56188027D01*
X135869772Y-56120637D01*
X135840718Y-56031335D01*
X135804753Y-55929401D01*
X135765166Y-55824113D01*
X135725248Y-55724749D01*
X135688289Y-55640588D01*
X135591961Y-55434760D01*
X135515522Y-55494813D01*
X135499040Y-55507417D01*
X135433517Y-55552950D01*
X135375583Y-55587483D01*
X135357780Y-55598018D01*
X135349139Y-55607081D01*
X135311634Y-55646419D01*
X135274806Y-55726179D01*
X135253546Y-55774567D01*
X135204469Y-55857328D01*
X135147806Y-55930801D01*
X135107132Y-55973749D01*
X135063317Y-56009917D01*
X135021015Y-56026187D01*
X134965972Y-56030364D01*
X134896995Y-56023819D01*
X134817805Y-55989789D01*
X134794224Y-55970153D01*
X134726389Y-55893565D01*
X134665136Y-55798569D01*
X134621978Y-55702084D01*
X134593434Y-55643457D01*
X134530340Y-55588059D01*
X134516877Y-55580811D01*
X134500474Y-55570593D01*
X134693875Y-55570593D01*
X134710138Y-55637345D01*
X134739805Y-55714531D01*
X134777839Y-55789187D01*
X134819202Y-55848348D01*
X134834430Y-55864647D01*
X134904327Y-55913509D01*
X134973600Y-55920890D01*
X135040666Y-55887470D01*
X135103940Y-55813932D01*
X135161836Y-55700957D01*
X135190837Y-55607081D01*
X135189045Y-55538767D01*
X135155559Y-55498358D01*
X135128239Y-55486481D01*
X135052194Y-55468768D01*
X134963094Y-55461969D01*
X134871891Y-55465352D01*
X134789539Y-55478181D01*
X134726990Y-55499722D01*
X134695198Y-55529239D01*
X134693875Y-55570593D01*
X134500474Y-55570593D01*
X134453406Y-55541273D01*
X134389846Y-55495501D01*
X134314275Y-55436135D01*
X134284821Y-55495457D01*
X134254460Y-55556609D01*
X134234056Y-55599319D01*
X134213235Y-55653892D01*
X134202018Y-55709367D01*
X134198022Y-55779529D01*
X134198862Y-55878167D01*
X134195909Y-55936716D01*
X134188936Y-56075011D01*
X134145427Y-56267179D01*
X134067913Y-56434476D01*
X134019018Y-56514535D01*
X133744126Y-56514535D01*
X133834719Y-56414553D01*
X133923117Y-56266067D01*
X133980994Y-56104198D01*
X134004806Y-55936716D01*
X133991009Y-55771389D01*
X133972593Y-55689541D01*
X133953839Y-55638693D01*
X133928526Y-55618642D01*
X133889318Y-55623838D01*
X133828877Y-55648731D01*
X133799801Y-55660566D01*
X133667511Y-55694217D01*
X133518202Y-55707147D01*
X133368023Y-55698815D01*
X133233126Y-55668680D01*
X133232877Y-55668596D01*
X133137776Y-55639118D01*
X133072672Y-55626580D01*
X133029093Y-55630293D01*
X132998567Y-55649566D01*
X132990550Y-55673639D01*
X132983190Y-55734264D01*
X132977778Y-55822910D01*
X132974333Y-55931962D01*
X132972877Y-56053810D01*
X132891885Y-56053810D01*
X132884948Y-55613583D01*
X132937145Y-55564613D01*
X132986126Y-55530775D01*
X133050334Y-55516558D01*
X133133157Y-55526449D01*
X133242766Y-55560333D01*
X133258884Y-55565930D01*
X133394515Y-55595508D01*
X133538842Y-55601077D01*
X133677020Y-55583129D01*
X133794208Y-55542152D01*
X133884999Y-55495457D01*
X133840795Y-55433378D01*
X133809665Y-55394789D01*
X133723276Y-55312421D01*
X133618792Y-55235156D01*
X133511231Y-55174780D01*
X133502127Y-55170647D01*
X133443733Y-55148504D01*
X133381735Y-55135113D01*
X133303255Y-55128514D01*
X133195417Y-55126750D01*
X133138171Y-55127069D01*
X133050187Y-55130439D01*
X132984115Y-55139365D01*
X132926435Y-55156141D01*
X132863626Y-55183062D01*
X132843622Y-55192731D01*
X132685192Y-55294232D01*
X132556129Y-55425899D01*
X132456896Y-55587000D01*
X132387954Y-55776805D01*
X132349766Y-55994583D01*
X132346386Y-56092115D01*
X132019318Y-56092115D01*
X131942256Y-55819285D01*
X131865226Y-55509566D01*
X131799945Y-55206326D01*
X131748829Y-54920015D01*
X131714300Y-54661083D01*
X131708143Y-54603290D01*
X131697996Y-54526949D01*
X131685506Y-54481167D01*
X132042737Y-54481167D01*
X132046094Y-54512494D01*
X132056608Y-54579910D01*
X132072915Y-54674572D01*
X132093616Y-54789012D01*
X132117315Y-54915767D01*
X132142613Y-55047371D01*
X132168112Y-55176359D01*
X132192416Y-55295265D01*
X132214126Y-55396625D01*
X132231674Y-55465492D01*
X132250395Y-55508981D01*
X132267847Y-55512336D01*
X132285032Y-55476687D01*
X132317793Y-55410158D01*
X132376398Y-55327628D01*
X132451217Y-55241161D01*
X132533083Y-55161328D01*
X132612830Y-55098698D01*
X132779543Y-55008645D01*
X132964825Y-54949830D01*
X133155199Y-54926518D01*
X133344854Y-54937807D01*
X133527978Y-54982795D01*
X133698761Y-55060580D01*
X133851390Y-55170259D01*
X133980053Y-55310931D01*
X133986854Y-55320149D01*
X134032263Y-55379205D01*
X134060867Y-55408444D01*
X134078846Y-55412557D01*
X134092376Y-55396237D01*
X134096055Y-55387678D01*
X134097441Y-55351994D01*
X134080517Y-55298165D01*
X134042887Y-55217528D01*
X134023635Y-55177199D01*
X133958612Y-54985575D01*
X133932952Y-54791462D01*
X133934490Y-54766917D01*
X134147917Y-54766917D01*
X134148236Y-54824162D01*
X134151606Y-54912146D01*
X134160532Y-54978219D01*
X134177308Y-55035899D01*
X134204229Y-55098707D01*
X134241409Y-55167481D01*
X134321977Y-55280989D01*
X134415885Y-55382181D01*
X134510914Y-55456789D01*
X134583028Y-55501357D01*
X134624611Y-55448493D01*
X134624729Y-55448343D01*
X134685094Y-55401978D01*
X134776925Y-55369701D01*
X134891096Y-55353654D01*
X135018483Y-55355981D01*
X135083239Y-55364120D01*
X135154585Y-55378034D01*
X135200842Y-55393003D01*
X135235157Y-55415119D01*
X135280333Y-55457145D01*
X135286679Y-55464989D01*
X135308356Y-55484577D01*
X135333498Y-55481799D01*
X135378281Y-55456557D01*
X135441171Y-55412849D01*
X135556984Y-55299618D01*
X135651345Y-55162321D01*
X135719566Y-55010288D01*
X135756958Y-54852848D01*
X135758833Y-54699330D01*
X135745737Y-54615184D01*
X135700713Y-54465848D01*
X135625793Y-54332788D01*
X135515103Y-54204064D01*
X135449617Y-54143082D01*
X135320471Y-54051431D01*
X135180891Y-53992452D01*
X135018808Y-53960213D01*
X134873211Y-53959366D01*
X134710129Y-53994361D01*
X134554617Y-54063402D01*
X134413838Y-54162323D01*
X134294955Y-54286962D01*
X134205131Y-54433155D01*
X134189081Y-54468710D01*
X134167577Y-54527398D01*
X134155102Y-54587602D01*
X134149325Y-54662912D01*
X134147917Y-54766917D01*
X133934490Y-54766917D01*
X133944959Y-54599814D01*
X133992936Y-54415587D01*
X134075184Y-54243738D01*
X134190007Y-54089221D01*
X134335708Y-53956993D01*
X134510588Y-53852009D01*
X134560116Y-53828999D01*
X134634347Y-53798875D01*
X134701842Y-53780710D01*
X134778958Y-53770670D01*
X134882049Y-53764922D01*
X134964860Y-53762750D01*
X135061657Y-53765825D01*
X135144937Y-53777849D01*
X135231545Y-53800538D01*
X135248070Y-53805718D01*
X135436043Y-53887790D01*
X135600237Y-54004316D01*
X135738396Y-54153349D01*
X135848264Y-54332942D01*
X135849676Y-54335830D01*
X135881508Y-54402481D01*
X135902959Y-54455611D01*
X135916076Y-54506390D01*
X135922909Y-54565990D01*
X135925506Y-54645580D01*
X135925706Y-54699330D01*
X135925917Y-54756333D01*
X135925917Y-54763824D01*
X135925439Y-54872417D01*
X135922616Y-54950779D01*
X135915328Y-55010345D01*
X135901459Y-55062551D01*
X135878892Y-55118835D01*
X135845508Y-55190631D01*
X135765100Y-55360346D01*
X135837004Y-55518714D01*
X135839852Y-55525012D01*
X135880227Y-55618463D01*
X135918085Y-55712693D01*
X135945572Y-55788208D01*
X135961136Y-55834021D01*
X135978487Y-55881089D01*
X135987252Y-55899333D01*
X135993599Y-55886366D01*
X136009339Y-55842749D01*
X136030194Y-55779021D01*
X136030275Y-55778764D01*
X136059007Y-55697070D01*
X136097810Y-55598627D01*
X136138309Y-55504689D01*
X136208498Y-55350668D01*
X136147537Y-55238115D01*
X136112046Y-55166302D01*
X136048298Y-54976405D01*
X136028625Y-54822063D01*
X136241860Y-54822063D01*
X136272031Y-54989338D01*
X136337672Y-55147198D01*
X136435436Y-55289470D01*
X136561977Y-55409979D01*
X136713949Y-55502550D01*
X136748406Y-55518177D01*
X136834353Y-55550028D01*
X136919634Y-55567341D01*
X137025623Y-55575090D01*
X137094348Y-55575850D01*
X137203104Y-55568844D01*
X137285112Y-55552360D01*
X137428579Y-55489356D01*
X137575676Y-55386783D01*
X137698726Y-55257972D01*
X137789401Y-55110224D01*
X137840100Y-55000795D01*
X137719092Y-54967278D01*
X137666623Y-54951705D01*
X137597845Y-54928193D01*
X137552326Y-54908802D01*
X137541578Y-54902392D01*
X137478647Y-54848736D01*
X137414519Y-54773134D01*
X137360609Y-54690519D01*
X137328333Y-54615821D01*
X137304817Y-54528226D01*
X137212397Y-54567842D01*
X137190851Y-54576764D01*
X137002564Y-54629933D01*
X136809739Y-54642484D01*
X136618391Y-54614581D01*
X136434533Y-54546391D01*
X136368214Y-54516846D01*
X136316447Y-54499950D01*
X136290711Y-54499489D01*
X136280355Y-54522616D01*
X136265635Y-54576859D01*
X136251051Y-54648397D01*
X136250504Y-54651548D01*
X136241860Y-54822063D01*
X136028625Y-54822063D01*
X136023818Y-54784347D01*
X136037042Y-54594801D01*
X136086400Y-54412437D01*
X136117907Y-54348424D01*
X136363776Y-54348424D01*
X136383103Y-54374231D01*
X136430877Y-54410829D01*
X136496044Y-54448821D01*
X136553191Y-54476580D01*
X136606192Y-54496152D01*
X136662442Y-54507099D01*
X136734961Y-54511870D01*
X136836773Y-54512917D01*
X136921775Y-54512219D01*
X137000774Y-54508059D01*
X137061724Y-54497972D01*
X137118116Y-54479518D01*
X137183444Y-54450260D01*
X137251898Y-54420082D01*
X137315207Y-54404770D01*
X137359644Y-54419275D01*
X137394421Y-54467464D01*
X137428750Y-54553202D01*
X137486189Y-54672873D01*
X137567598Y-54770430D01*
X137665549Y-54833438D01*
X137732774Y-54853517D01*
X137801207Y-54862167D01*
X137868106Y-54862167D01*
X137858440Y-54695190D01*
X137839428Y-54560636D01*
X137780669Y-54394859D01*
X137685845Y-54248645D01*
X137557206Y-54125246D01*
X137397000Y-54027915D01*
X137341882Y-54002791D01*
X137282839Y-53981275D01*
X137223463Y-53969147D01*
X137149764Y-53963790D01*
X137047750Y-53962587D01*
X136968589Y-53963201D01*
X136889189Y-53967215D01*
X136828495Y-53977160D01*
X136772972Y-53995522D01*
X136709083Y-54024787D01*
X136701587Y-54028540D01*
X136625481Y-54074218D01*
X136547229Y-54132387D01*
X136474382Y-54195969D01*
X136414490Y-54257887D01*
X136375104Y-54311064D01*
X136363776Y-54348424D01*
X136117907Y-54348424D01*
X136170325Y-54241928D01*
X136287251Y-54087946D01*
X136435610Y-53955162D01*
X136455467Y-53943250D01*
X137528713Y-53943250D01*
X137528992Y-53944133D01*
X137549255Y-53969687D01*
X137593373Y-54011938D01*
X137652334Y-54062214D01*
X137770085Y-54157706D01*
X137827043Y-54108713D01*
X137850541Y-54090724D01*
X137945185Y-54049177D01*
X138051738Y-54039056D01*
X138160601Y-54057818D01*
X138262173Y-54102917D01*
X138346855Y-54171807D01*
X138405046Y-54261945D01*
X138406276Y-54264943D01*
X138429212Y-54359155D01*
X138431852Y-54463161D01*
X138413524Y-54553872D01*
X138401806Y-54593364D01*
X138409317Y-54604422D01*
X138439148Y-54583199D01*
X138493131Y-54529125D01*
X138501341Y-54520292D01*
X138584053Y-54407633D01*
X138630489Y-54285527D01*
X138645162Y-54142500D01*
X138641752Y-54078144D01*
X138607767Y-53935699D01*
X138541802Y-53809274D01*
X138449376Y-53703252D01*
X138336009Y-53622016D01*
X138207217Y-53569948D01*
X138068520Y-53551433D01*
X137925436Y-53570853D01*
X137888203Y-53583051D01*
X137772065Y-53642208D01*
X137666200Y-53724837D01*
X137586637Y-53819187D01*
X137561191Y-53862158D01*
X137536063Y-53913669D01*
X137528713Y-53943250D01*
X136455467Y-53943250D01*
X136613833Y-53848248D01*
X136648158Y-53831916D01*
X136712425Y-53803679D01*
X136767372Y-53786088D01*
X136825912Y-53776633D01*
X136900956Y-53772802D01*
X137005417Y-53772083D01*
X137081653Y-53772885D01*
X137175603Y-53776129D01*
X137250210Y-53781289D01*
X137293981Y-53787740D01*
X137323335Y-53793729D01*
X137352451Y-53783331D01*
X137375590Y-53740922D01*
X137401077Y-53696460D01*
X137463173Y-53623419D01*
X137545844Y-53548026D01*
X137638626Y-53479519D01*
X137731051Y-53427137D01*
X137731560Y-53426900D01*
X137800571Y-53398160D01*
X137865015Y-53381057D01*
X137940487Y-53372754D01*
X138042583Y-53370409D01*
X138058730Y-53370461D01*
X138224045Y-53384938D01*
X138365018Y-53427855D01*
X138491407Y-53503408D01*
X138612967Y-53615796D01*
X138666850Y-53678804D01*
X138753170Y-53816680D01*
X138802570Y-53965846D01*
X138818704Y-54135530D01*
X138818660Y-54142500D01*
X138818584Y-54154673D01*
X138796130Y-54336021D01*
X138735545Y-54499354D01*
X138637544Y-54643246D01*
X138502839Y-54766273D01*
X138482756Y-54780269D01*
X138385919Y-54827589D01*
X138298079Y-54840648D01*
X138224560Y-54823360D01*
X138170686Y-54779640D01*
X138141780Y-54713402D01*
X138143166Y-54628560D01*
X138180167Y-54529028D01*
X138198959Y-54492395D01*
X138218611Y-54437564D01*
X138216035Y-54391293D01*
X138192338Y-54336070D01*
X138149333Y-54282244D01*
X138084171Y-54242699D01*
X138013644Y-54228617D01*
X137951625Y-54245233D01*
X137942028Y-54256500D01*
X137939890Y-54286025D01*
X137951519Y-54338996D01*
X137978084Y-54423266D01*
X137990163Y-54461605D01*
X138029087Y-54665206D01*
X138027502Y-54862167D01*
X138027445Y-54869299D01*
X137999880Y-55000795D01*
X137985731Y-55068298D01*
X137904440Y-55256619D01*
X137892594Y-55278229D01*
X137865203Y-55335963D01*
X137858363Y-55372952D01*
X137869384Y-55400209D01*
X137882386Y-55413738D01*
X137901105Y-55413150D01*
X137928629Y-55387333D01*
X137972363Y-55331332D01*
X138058721Y-55230075D01*
X138204483Y-55107547D01*
X138382451Y-55006624D01*
X138388370Y-55003862D01*
X138468965Y-54969533D01*
X138540991Y-54948176D01*
X138621407Y-54935978D01*
X138727170Y-54929128D01*
X138829865Y-54927887D01*
X139009187Y-54946148D01*
X139168973Y-54993616D01*
X139318486Y-55072536D01*
X139417556Y-55146679D01*
X139523401Y-55246666D01*
X139614211Y-55353644D01*
X139678311Y-55455193D01*
X139720755Y-55540980D01*
X139754651Y-55386782D01*
X139779517Y-55266489D01*
X139807350Y-55117631D01*
X139834043Y-54961911D01*
X139857625Y-54811385D01*
X139876123Y-54678108D01*
X139887567Y-54574135D01*
X139891779Y-54522981D01*
X139894337Y-54465262D01*
X139888991Y-54433770D01*
X139873103Y-54418525D01*
X139844032Y-54409547D01*
X139782083Y-54388439D01*
X139664932Y-54321560D01*
X139551706Y-54225083D01*
X139450732Y-54106662D01*
X139370334Y-53973955D01*
X139347551Y-53924627D01*
X139329216Y-53871653D01*
X139318700Y-53813677D01*
X139313901Y-53738266D01*
X139312718Y-53632983D01*
X139312710Y-53618954D01*
X139705022Y-53618954D01*
X139720050Y-53742792D01*
X139767909Y-53858343D01*
X139847611Y-53958368D01*
X139958167Y-54035629D01*
X139958229Y-54035660D01*
X140089817Y-54080308D01*
X140223124Y-54085210D01*
X140350922Y-54051172D01*
X140465980Y-53978999D01*
X140551108Y-53885595D01*
X140611245Y-53767231D01*
X140634847Y-53640466D01*
X140621724Y-53512410D01*
X140571687Y-53390171D01*
X140484548Y-53280858D01*
X140461248Y-53260684D01*
X140369425Y-53203253D01*
X140265958Y-53162902D01*
X140169833Y-53147667D01*
X140141738Y-53149244D01*
X140041280Y-53173189D01*
X139939412Y-53219739D01*
X139855119Y-53280858D01*
X139777412Y-53375365D01*
X139723813Y-53494066D01*
X139705022Y-53618954D01*
X139312710Y-53618954D01*
X139312583Y-53409216D01*
X139122083Y-53328561D01*
X138847547Y-53218684D01*
X138314572Y-53039241D01*
X137763167Y-52896209D01*
X137196685Y-52790398D01*
X136618482Y-52722622D01*
X136597292Y-52720955D01*
X136451456Y-52713076D01*
X136276826Y-52708456D01*
X136082289Y-52706927D01*
X135876729Y-52708322D01*
X135669033Y-52712471D01*
X135468085Y-52719209D01*
X135282770Y-52728366D01*
X135121974Y-52739776D01*
X134994583Y-52753271D01*
X134445546Y-52842836D01*
X133904875Y-52965154D01*
X133381171Y-53119982D01*
X132867333Y-53309176D01*
X132623917Y-53407727D01*
X132623917Y-53624844D01*
X132623917Y-53632238D01*
X132622939Y-53735439D01*
X132618479Y-53810642D01*
X132608301Y-53868656D01*
X132590171Y-53922139D01*
X132561854Y-53983750D01*
X132505181Y-54079580D01*
X132404268Y-54201402D01*
X132285907Y-54304235D01*
X132161773Y-54376614D01*
X132127150Y-54392106D01*
X132074318Y-54421096D01*
X132049105Y-54448214D01*
X132042737Y-54481167D01*
X131685506Y-54481167D01*
X131684970Y-54479201D01*
X131664224Y-54451369D01*
X131630917Y-54434777D01*
X131580207Y-54420747D01*
X131525840Y-54403716D01*
X131387839Y-54333585D01*
X131259193Y-54231466D01*
X131148231Y-54104767D01*
X131063280Y-53960897D01*
X131049918Y-53930139D01*
X131032263Y-53876270D01*
X131021706Y-53815035D01*
X131016588Y-53734797D01*
X131015250Y-53623917D01*
X131015259Y-53622318D01*
X131369631Y-53622318D01*
X131387355Y-53756945D01*
X131391093Y-53769152D01*
X131439269Y-53864327D01*
X131513938Y-53955112D01*
X131603171Y-54029202D01*
X131695039Y-54074294D01*
X131703483Y-54076754D01*
X131821482Y-54097931D01*
X131929118Y-54086853D01*
X132043199Y-54041958D01*
X132067361Y-54028946D01*
X132173697Y-53947858D01*
X132247335Y-53849412D01*
X132289733Y-53739708D01*
X132302349Y-53624844D01*
X132286643Y-53510919D01*
X132244074Y-53404032D01*
X132176100Y-53310281D01*
X132084180Y-53235765D01*
X131969774Y-53186582D01*
X131834339Y-53168833D01*
X131756507Y-53175092D01*
X131630904Y-53214455D01*
X131524863Y-53284848D01*
X131442936Y-53380281D01*
X131389675Y-53494768D01*
X131369631Y-53622318D01*
X131015259Y-53622318D01*
X131015618Y-53558346D01*
X131018833Y-53465786D01*
X131026743Y-53397456D01*
X131041005Y-53341719D01*
X131063280Y-53286936D01*
X131132068Y-53163431D01*
X131251486Y-53021473D01*
X131400260Y-52909936D01*
X131577922Y-52829236D01*
X131735370Y-52793810D01*
X131911587Y-52791805D01*
X132084466Y-52826262D01*
X132245582Y-52895426D01*
X132386511Y-52997545D01*
X132480358Y-53084050D01*
X132705881Y-52989564D01*
X132907752Y-52908123D01*
X133463828Y-52714674D01*
X134033101Y-52560280D01*
X134612532Y-52445264D01*
X135199085Y-52369951D01*
X135789721Y-52334664D01*
X136381403Y-52339728D01*
X136971092Y-52385467D01*
X137555750Y-52472206D01*
X137573386Y-52475489D01*
X137913604Y-52547990D01*
X138269802Y-52639723D01*
X138627414Y-52746360D01*
X138971872Y-52863574D01*
X139288607Y-52987035D01*
X139518631Y-53083626D01*
X139623006Y-52989784D01*
X139624700Y-52988266D01*
X139767578Y-52887010D01*
X139924464Y-52821871D01*
X140089572Y-52791598D01*
X140257119Y-52794941D01*
X140421319Y-52830650D01*
X140576389Y-52897473D01*
X140716544Y-52994161D01*
X140836000Y-53119462D01*
X140928973Y-53272126D01*
X140952042Y-53324824D01*
X140969229Y-53378483D01*
X140979131Y-53438153D01*
X140983665Y-53515931D01*
X140984750Y-53623917D01*
X140984738Y-53640466D01*
X140984737Y-53641985D01*
G36*
X140984737Y-53641985D02*
G01*
X140983501Y-53742784D01*
X140978763Y-53815197D01*
X140968421Y-53871359D01*
X140950376Y-53923408D01*
X140922528Y-53983480D01*
X140888865Y-54043091D01*
X140825170Y-54134561D01*
X140758694Y-54211822D01*
X140738973Y-54230408D01*
X140665209Y-54288475D01*
X140578686Y-54344704D01*
X140490693Y-54392740D01*
X140412517Y-54426228D01*
X140355445Y-54438816D01*
X140337573Y-54441987D01*
X140320973Y-54458540D01*
X140318685Y-54465262D01*
X140308297Y-54495786D01*
X140297291Y-54560906D01*
X140285701Y-54661083D01*
X140265591Y-54824233D01*
X140218115Y-55114609D01*
X140154613Y-55425321D01*
X140110275Y-55609618D01*
X140077509Y-55745816D01*
X140024256Y-55938678D01*
X139989227Y-56065543D01*
X139892191Y-56373950D01*
X139891660Y-56375530D01*
X139852145Y-56496409D01*
X139818767Y-56604847D01*
X139793479Y-56693963D01*
X139778236Y-56756874D01*
X139774992Y-56786700D01*
X139778206Y-56796656D01*
X139794180Y-56844138D01*
X139818661Y-56915674D01*
X139847805Y-57000000D01*
X139893065Y-57141226D01*
X139937519Y-57319979D01*
X139966870Y-57503041D01*
X139982967Y-57702722D01*
X139987224Y-57910167D01*
X139987658Y-57931333D01*
X139983058Y-58152896D01*
X139969159Y-58345101D01*
X139945861Y-58497957D01*
X139913052Y-58612473D01*
X139892505Y-58647213D01*
X139849865Y-58683502D01*
X139781986Y-58717338D01*
X139683294Y-58751410D01*
X139548215Y-58788404D01*
X139466014Y-58808384D01*
X139452854Y-58810931D01*
X139234367Y-58853218D01*
X139010788Y-58876981D01*
X138775313Y-58882093D01*
X138534377Y-58878785D01*
X138356374Y-59093832D01*
X138133399Y-59349601D01*
X137863951Y-59630949D01*
X137577840Y-59904540D01*
X137286032Y-60159928D01*
X136999492Y-60386667D01*
X136951333Y-60422752D01*
X136877832Y-60479626D01*
X136831153Y-60520158D01*
X136806164Y-60549810D01*
X136797734Y-60574047D01*
X136800734Y-60598333D01*
X136804331Y-60618816D01*
X136809676Y-60681092D01*
X136813261Y-60766526D01*
X136814298Y-60850199D01*
X136814455Y-60862917D01*
X136813816Y-60933436D01*
X136809897Y-61016123D01*
X136800277Y-61078685D01*
X136782531Y-61134587D01*
X136754234Y-61197296D01*
X136725158Y-61251155D01*
X136619431Y-61391996D01*
X136485608Y-61510928D01*
X136332363Y-61601160D01*
X136168375Y-61655900D01*
X136005036Y-61672143D01*
X135831279Y-61652192D01*
X135665723Y-61596816D01*
X135514362Y-61509531D01*
X135383190Y-61393852D01*
X135278204Y-61253291D01*
X135205399Y-61091365D01*
X135191309Y-61024767D01*
X135181855Y-60930995D01*
X135179285Y-60860191D01*
X135536316Y-60860191D01*
X135554529Y-60974941D01*
X135602516Y-61083367D01*
X135681713Y-61179366D01*
X135793557Y-61256834D01*
X135920664Y-61301606D01*
X136052194Y-61306950D01*
X136179398Y-61271486D01*
X136297338Y-61195812D01*
X136307941Y-61186493D01*
X136395050Y-61083460D01*
X136446547Y-60969292D01*
X136464695Y-60850199D01*
X136451758Y-60732390D01*
X136409998Y-60622076D01*
X136341679Y-60525467D01*
X136249065Y-60448771D01*
X136134417Y-60398200D01*
X136000000Y-60379963D01*
X135971804Y-60380694D01*
X135841554Y-60405210D01*
X135732456Y-60460025D01*
X135645946Y-60539034D01*
X135583461Y-60636134D01*
X135546439Y-60745221D01*
X135536316Y-60860191D01*
X135179285Y-60860191D01*
X135178047Y-60826091D01*
X135179987Y-60723313D01*
X135187775Y-60635919D01*
X135201510Y-60577167D01*
X135201766Y-60576499D01*
X135194672Y-60552518D01*
X135159559Y-60513523D01*
X135093810Y-60457024D01*
X134994808Y-60380531D01*
X134924496Y-60327077D01*
X134587411Y-60050752D01*
X134254035Y-59745631D01*
X133935187Y-59422032D01*
X133641685Y-59090271D01*
X133465433Y-58878935D01*
X133214008Y-58881775D01*
X133131219Y-58881427D01*
X132956941Y-58873095D01*
X132783685Y-58855590D01*
X132617353Y-58830229D01*
X132537599Y-58813658D01*
X133906766Y-58813658D01*
X133908042Y-58818505D01*
X133928760Y-58848372D01*
X133969069Y-58898863D01*
X134023183Y-58962577D01*
X134198706Y-59157752D01*
X134517604Y-59483695D01*
X134848065Y-59787645D01*
X135179867Y-60059903D01*
X135411908Y-60238434D01*
X135492605Y-60174521D01*
X135562450Y-60124080D01*
X135680160Y-60063076D01*
X135811077Y-60026789D01*
X135968250Y-60010727D01*
X136037976Y-60008658D01*
X136129677Y-60011323D01*
X136205792Y-60023190D01*
X136282717Y-60046106D01*
X136333506Y-60066373D01*
X136427422Y-60112759D01*
X136507663Y-60162153D01*
X136608642Y-60234700D01*
X136838779Y-60056008D01*
X137083667Y-59856869D01*
X137361098Y-59611496D01*
X137628751Y-59354812D01*
X137871904Y-59100435D01*
X138134993Y-58810931D01*
X137963833Y-58755317D01*
X137902200Y-58734266D01*
X137822804Y-58699919D01*
X137771002Y-58662025D01*
X137737946Y-58613140D01*
X137714786Y-58545821D01*
X137707606Y-58516228D01*
X137688192Y-58406586D01*
X137671965Y-58272592D01*
X137660102Y-58127613D01*
X137653781Y-57985016D01*
X137654160Y-57864467D01*
X137832189Y-57864467D01*
X137834700Y-58072968D01*
X137851031Y-58277805D01*
X137880232Y-58460500D01*
X137883159Y-58472830D01*
X137896709Y-58506244D01*
X137921459Y-58533214D01*
X137963498Y-58556547D01*
X138028917Y-58579046D01*
X138123804Y-58603517D01*
X138254250Y-58632765D01*
X138349139Y-58650072D01*
X138520587Y-58670341D01*
X138708112Y-58682057D01*
X138897428Y-58684794D01*
X139074246Y-58678127D01*
X139224279Y-58661632D01*
X139330666Y-58642454D01*
X139450730Y-58617026D01*
X139560591Y-58590102D01*
X139649696Y-58564289D01*
X139707494Y-58542196D01*
X139727398Y-58520795D01*
X139751327Y-58458210D01*
X139770830Y-58361301D01*
X139785267Y-58234622D01*
X139793998Y-58082726D01*
X139796382Y-57910167D01*
X139795611Y-57848789D01*
X139783982Y-57629093D01*
X139756545Y-57426351D01*
X139710575Y-57228113D01*
X139643342Y-57021934D01*
X139552121Y-56795363D01*
X139468249Y-56601310D01*
X139349270Y-56684656D01*
X139185436Y-56775516D01*
X139004758Y-56831538D01*
X138817210Y-56850508D01*
X138629623Y-56832422D01*
X138448830Y-56777278D01*
X138281661Y-56685074D01*
X138163279Y-56602147D01*
X138098929Y-56742865D01*
X138069531Y-56808479D01*
X137981127Y-57030337D01*
X137916517Y-57242437D01*
X137871342Y-57461003D01*
X137841245Y-57702261D01*
X137832189Y-57864467D01*
X137654160Y-57864467D01*
X137654180Y-57858166D01*
X137654805Y-57840745D01*
X137657316Y-57752881D01*
X137656351Y-57698778D01*
X137650574Y-57671068D01*
X137638652Y-57662384D01*
X137619250Y-57665360D01*
X137580599Y-57672497D01*
X137520050Y-57677044D01*
X137463183Y-57677333D01*
X137456550Y-58201208D01*
X137454348Y-58359788D01*
X137451837Y-58488274D01*
X137448610Y-58585757D01*
X137444170Y-58658006D01*
X137438026Y-58710788D01*
X137429682Y-58749873D01*
X137418644Y-58781030D01*
X137404420Y-58810027D01*
X137384552Y-58844505D01*
X137284010Y-58967593D01*
X137153861Y-59060586D01*
X137140724Y-59067436D01*
X137119593Y-59076857D01*
X137094737Y-59084658D01*
X137062293Y-59091022D01*
X137018403Y-59096132D01*
X136959204Y-59100171D01*
X136880837Y-59103322D01*
X136779441Y-59105768D01*
X136651154Y-59107692D01*
X136492117Y-59109278D01*
X136298468Y-59110708D01*
X136066347Y-59112166D01*
X135974195Y-59112714D01*
X135738739Y-59113864D01*
X135540467Y-59114120D01*
X135375566Y-59113113D01*
X135240225Y-59110477D01*
X135130633Y-59105843D01*
X135042978Y-59098844D01*
X134973450Y-59089112D01*
X134918237Y-59076280D01*
X134873528Y-59059981D01*
X134835512Y-59039847D01*
X134800376Y-59015509D01*
X134764311Y-58986602D01*
X134736155Y-58959963D01*
X134677721Y-58887889D01*
X134632226Y-58811250D01*
X134630809Y-58808200D01*
X134615311Y-58772841D01*
X134603511Y-58738209D01*
X134594903Y-58698153D01*
X134588982Y-58646521D01*
X134585241Y-58577162D01*
X134583175Y-58483925D01*
X134582277Y-58360657D01*
X134582040Y-58201208D01*
X134581718Y-58106641D01*
X134580242Y-57975137D01*
X134577742Y-57862650D01*
X134574404Y-57775008D01*
X134570414Y-57718041D01*
X134565958Y-57697578D01*
X134559631Y-57696865D01*
X134519991Y-57690361D01*
X134461624Y-57679528D01*
X134373165Y-57662399D01*
X134372508Y-57950324D01*
X134370415Y-58065251D01*
X134370241Y-58074845D01*
X134360353Y-58243356D01*
X134343458Y-58392479D01*
X134320455Y-58516512D01*
X134292240Y-58609753D01*
X134259713Y-58666501D01*
X134258836Y-58667415D01*
X134215150Y-58697814D01*
X134145624Y-58731446D01*
X134064896Y-58761197D01*
X134053780Y-58764677D01*
X133982153Y-58787536D01*
X133929580Y-58805047D01*
X133906766Y-58813658D01*
X132537599Y-58813658D01*
X132463847Y-58798334D01*
X132329067Y-58761224D01*
X132218916Y-58720219D01*
X132139295Y-58676638D01*
X132096105Y-58631800D01*
X132071321Y-58566725D01*
X132045797Y-58450952D01*
X132027018Y-58301597D01*
X132015535Y-58123312D01*
X132011899Y-57920750D01*
X132012009Y-57901091D01*
X132193801Y-57901091D01*
X132194408Y-57999156D01*
X132202084Y-58105937D01*
X132217155Y-58237887D01*
X132217291Y-58238968D01*
X132235002Y-58366089D01*
X132251625Y-58455309D01*
X132268154Y-58510977D01*
X132285584Y-58537444D01*
X132291096Y-58540913D01*
X132338781Y-58560241D01*
X132416497Y-58583704D01*
X132514640Y-58608953D01*
X132623605Y-58633639D01*
X132733787Y-58655414D01*
X132835583Y-58671929D01*
X132979215Y-58686038D01*
X133209959Y-58690164D01*
X133452326Y-58675722D01*
X133691195Y-58643789D01*
X133911446Y-58595437D01*
X133953882Y-58583800D01*
X134029865Y-58560376D01*
X134077223Y-58536074D01*
X134104510Y-58502247D01*
X134120283Y-58450247D01*
X134133099Y-58371427D01*
X134164695Y-58065251D01*
X134163788Y-57752813D01*
X134126084Y-57448386D01*
X134050617Y-57144401D01*
X133936417Y-56833289D01*
X133838366Y-56600995D01*
X133719162Y-56684498D01*
X133703212Y-56695381D01*
X133544281Y-56779039D01*
X133369470Y-56832819D01*
X133194126Y-56851833D01*
X133059711Y-56851833D01*
X133091206Y-56941098D01*
X133099856Y-56964002D01*
X133135906Y-57045075D01*
X133176300Y-57121823D01*
X133179905Y-57128062D01*
X133216692Y-57214530D01*
X133216886Y-57280353D01*
X133180480Y-57325221D01*
X133175576Y-57327912D01*
X133121511Y-57333181D01*
X133045398Y-57312702D01*
X132953770Y-57270663D01*
X132853157Y-57211249D01*
X132750091Y-57138647D01*
X132651104Y-57057045D01*
X132562727Y-56970628D01*
X132491491Y-56883583D01*
X132446808Y-56820083D01*
X132390156Y-56947083D01*
X132378576Y-56974002D01*
X132322856Y-57131548D01*
X132273720Y-57316495D01*
X132234103Y-57516476D01*
X132206940Y-57719124D01*
X132199941Y-57795288D01*
X132193801Y-57901091D01*
X132012009Y-57901091D01*
X132012160Y-57874270D01*
X132018099Y-57677901D01*
X132033556Y-57505226D01*
X132060891Y-57341320D01*
X132102464Y-57171261D01*
X132160635Y-56980125D01*
X132235394Y-56750425D01*
X132117760Y-56404254D01*
X132028616Y-56125034D01*
X132019318Y-56092115D01*
X132346386Y-56092115D01*
X132360421Y-56254212D01*
X132394599Y-56419750D01*
X132445865Y-56570433D01*
X132450301Y-56580545D01*
X132514541Y-56699212D01*
X132599862Y-56822633D01*
X132694916Y-56935791D01*
X132788353Y-57023667D01*
X132845256Y-57065416D01*
X132913682Y-57110334D01*
X132982139Y-57151278D01*
X133041875Y-57183281D01*
X133084135Y-57201376D01*
X133100167Y-57200596D01*
X133099080Y-57195727D01*
X133085140Y-57161817D01*
X133060275Y-57110282D01*
X133053880Y-57097028D01*
X133025999Y-57031010D01*
X132993097Y-56944217D01*
X132961005Y-56851833D01*
X132954635Y-56832432D01*
X132937609Y-56777877D01*
X132924528Y-56727592D01*
X132914757Y-56674920D01*
X132907659Y-56613203D01*
X132902599Y-56535785D01*
X132898941Y-56436008D01*
X132896049Y-56307216D01*
X132893287Y-56142750D01*
X132891885Y-56053810D01*
X132972877Y-56053810D01*
X132973428Y-56180839D01*
X132976006Y-56305436D01*
X132980633Y-56419991D01*
X132987326Y-56516888D01*
X132996107Y-56588517D01*
X132996537Y-56590980D01*
X133010606Y-56662405D01*
X133025496Y-56702815D01*
X133047627Y-56722844D01*
X133083420Y-56733125D01*
X133178749Y-56742326D01*
X133320800Y-56729655D01*
X133465962Y-56691081D01*
X133599544Y-56629553D01*
X133719344Y-56541886D01*
X133744126Y-56514535D01*
X134019018Y-56514535D01*
X134088441Y-56656726D01*
X134109680Y-56702073D01*
X134170121Y-56848593D01*
X134228095Y-57011674D01*
X134277544Y-57173476D01*
X134312409Y-57316160D01*
X134324239Y-57370631D01*
X134341199Y-57424099D01*
X134361987Y-57452535D01*
X134392016Y-57466139D01*
X134446577Y-57479243D01*
X134513042Y-57493409D01*
X134581833Y-57506942D01*
X134581833Y-57083457D01*
X134581994Y-56996758D01*
X134583699Y-56855154D01*
X134588261Y-56745582D01*
X134592933Y-56699926D01*
X134931083Y-56699926D01*
X134931083Y-58675907D01*
X134981053Y-58716370D01*
X134982692Y-58717681D01*
X134996464Y-58726990D01*
X135014582Y-58734697D01*
X135040844Y-58740952D01*
X135079050Y-58745906D01*
X135132998Y-58749710D01*
X135206487Y-58752515D01*
X135303315Y-58754472D01*
X135427282Y-58755731D01*
X135582186Y-58756444D01*
X135771826Y-58756761D01*
X136000000Y-58756833D01*
X136031404Y-58756832D01*
X136254448Y-58756737D01*
X136439442Y-58756378D01*
X136590186Y-58755604D01*
X136710477Y-58754264D01*
X136804115Y-58752208D01*
X136874898Y-58749283D01*
X136926625Y-58745341D01*
X136963094Y-58740229D01*
X136988105Y-58733797D01*
X137005457Y-58725895D01*
X137018947Y-58716370D01*
X137068917Y-58675907D01*
X137068917Y-56699926D01*
X137018947Y-56659463D01*
X137017308Y-56658152D01*
X137003536Y-56648843D01*
X136985419Y-56641136D01*
X136959156Y-56634881D01*
X136920951Y-56629927D01*
X136867003Y-56626123D01*
X136793514Y-56623318D01*
X136696685Y-56621361D01*
X136572718Y-56620102D01*
X136417814Y-56619389D01*
X136228174Y-56619072D01*
X136000000Y-56619000D01*
X135968596Y-56619001D01*
X135745552Y-56619096D01*
X135560558Y-56619455D01*
X135409815Y-56620229D01*
X135289524Y-56621569D01*
X135195886Y-56623625D01*
X135125103Y-56626550D01*
X135073376Y-56630492D01*
X135036906Y-56635604D01*
X135011895Y-56642036D01*
X134994544Y-56649938D01*
X134981053Y-56659463D01*
X134931083Y-56699926D01*
X134592933Y-56699926D01*
X134596893Y-56661227D01*
X134610806Y-56595274D01*
X134631213Y-56540909D01*
X134659327Y-56491316D01*
X134696360Y-56439680D01*
X134725548Y-56408556D01*
X134788396Y-56357454D01*
X134859747Y-56311649D01*
X134973417Y-56248800D01*
X135433792Y-56241327D01*
X135491608Y-56240288D01*
X135620327Y-56237203D01*
X135731018Y-56233479D01*
X135817606Y-56229384D01*
X135874014Y-56225184D01*
X135894167Y-56221144D01*
X135893842Y-56219201D01*
X136127000Y-56219201D01*
X136127134Y-56221144D01*
X136127542Y-56227097D01*
X136133322Y-56238421D01*
X136149773Y-56246722D01*
X136182173Y-56252471D01*
X136235797Y-56256139D01*
X136315924Y-56258198D01*
X136427830Y-56259119D01*
X136576792Y-56259373D01*
X136664794Y-56259469D01*
X136794392Y-56260145D01*
X136891983Y-56261982D01*
X136964213Y-56265582D01*
X137017726Y-56271543D01*
X137059168Y-56280469D01*
X137095183Y-56292958D01*
X137132417Y-56309613D01*
X137225114Y-56362965D01*
X137322468Y-56454638D01*
X137395288Y-56576667D01*
X137406948Y-56604422D01*
X137418987Y-56642751D01*
X137427558Y-56688921D01*
X137428586Y-56699926D01*
X137433246Y-56749828D01*
X137436637Y-56832371D01*
X137438316Y-56943449D01*
X137438869Y-57089958D01*
X137439237Y-57192011D01*
X137440888Y-57316975D01*
X137444095Y-57406597D01*
X137449132Y-57465110D01*
X137456273Y-57496745D01*
X137465792Y-57505733D01*
X137474549Y-57504633D01*
X137520456Y-57496350D01*
X137582113Y-57483340D01*
X137631410Y-57469459D01*
X137667815Y-57445560D01*
X137684448Y-57406231D01*
X137689616Y-57382891D01*
X137764135Y-57094190D01*
X137850948Y-56837229D01*
X137948450Y-56616811D01*
X137990851Y-56533699D01*
X137871516Y-56288275D01*
X137856541Y-56256504D01*
X138070367Y-56256504D01*
X138109392Y-56325907D01*
X138124790Y-56351750D01*
X138225852Y-56477522D01*
X138293222Y-56533699D01*
X138356083Y-56586117D01*
X138505158Y-56670142D01*
X138662750Y-56722200D01*
X138698569Y-56729369D01*
X138808520Y-56742791D01*
X138910195Y-56737235D01*
X139026320Y-56712068D01*
X139178684Y-56654478D01*
X139331416Y-56555484D01*
X139460355Y-56423032D01*
X139562470Y-56259679D01*
X139573780Y-56236429D01*
X139603607Y-56167493D01*
X139620606Y-56105918D01*
X139628259Y-56035160D01*
X139630050Y-55938678D01*
X139629842Y-55903579D01*
X139627655Y-55825118D01*
X139623590Y-55768078D01*
X139618276Y-55742914D01*
X139605382Y-55742471D01*
X139559054Y-55752036D01*
X139488028Y-55771536D01*
X139401317Y-55798654D01*
X139196167Y-55866229D01*
X139196167Y-55923961D01*
X139196167Y-55939598D01*
X139195571Y-55960422D01*
X139170966Y-56070056D01*
X139115581Y-56161627D01*
X139036743Y-56232423D01*
X138941774Y-56279732D01*
X138837999Y-56300845D01*
X138732743Y-56293048D01*
X138633330Y-56253631D01*
X138547085Y-56179882D01*
X138501253Y-56125386D01*
X138436498Y-56179874D01*
X138354228Y-56234016D01*
X138247969Y-56269818D01*
X138145054Y-56270516D01*
X138070367Y-56256504D01*
X137856541Y-56256504D01*
X137818186Y-56175128D01*
X137774664Y-56069926D01*
X137749500Y-55985101D01*
X137741752Y-55918787D01*
X137947333Y-55918787D01*
X137949910Y-55961632D01*
X137969515Y-56019288D01*
X138016125Y-56078055D01*
X138098536Y-56141466D01*
X138186263Y-56164037D01*
X138277212Y-56144667D01*
X138288656Y-56139343D01*
X138367783Y-56081170D01*
X138417787Y-56004283D01*
X138431681Y-55939999D01*
X138559746Y-55939999D01*
X138584392Y-56032389D01*
X138639989Y-56111347D01*
X138722791Y-56166481D01*
X138751341Y-56177958D01*
X138807356Y-56192958D01*
X138856291Y-56186788D01*
X138919496Y-56158592D01*
X138998944Y-56103422D01*
X139055095Y-56022467D01*
X139073037Y-55923961D01*
X139068550Y-55877437D01*
X139035187Y-55790340D01*
X138976301Y-55724846D01*
X138900199Y-55683130D01*
X138815191Y-55667365D01*
X138729583Y-55679725D01*
X138651684Y-55722384D01*
X138589802Y-55797516D01*
X138569797Y-55844571D01*
X138562063Y-55917997D01*
X138559746Y-55939999D01*
X138431681Y-55939999D01*
X138436436Y-55917997D01*
X138421496Y-55831628D01*
X138370736Y-55754492D01*
X138301025Y-55701367D01*
X138207745Y-55673673D01*
X138106513Y-55687525D01*
X138097700Y-55690623D01*
X138017519Y-55741495D01*
X137965719Y-55819987D01*
X137947333Y-55918787D01*
X137741752Y-55918787D01*
X137740961Y-55912021D01*
X137747316Y-55842052D01*
X137766831Y-55766562D01*
X137767771Y-55763570D01*
X137786983Y-55697738D01*
X137792067Y-55653553D01*
X137782108Y-55613075D01*
X137756188Y-55558367D01*
X137749268Y-55544792D01*
X138096030Y-55544792D01*
X138100586Y-55549681D01*
X138134977Y-55557558D01*
X138192142Y-55560667D01*
X138196934Y-55560681D01*
X138287735Y-55569937D01*
X138362520Y-55601371D01*
X138439458Y-55662463D01*
X138497667Y-55716753D01*
X138555875Y-55661223D01*
X138573847Y-55645193D01*
X138674764Y-55585668D01*
X138786981Y-55560285D01*
X138900879Y-55568624D01*
X139006840Y-55610265D01*
X139095247Y-55684788D01*
X139107746Y-55698834D01*
X139148782Y-55735340D01*
X139178925Y-55748836D01*
X139204145Y-55745137D01*
X139267527Y-55729540D01*
X139343135Y-55705933D01*
X139420377Y-55678228D01*
X139488662Y-55650333D01*
X139537401Y-55626160D01*
X139556000Y-55609618D01*
X139555205Y-55598949D01*
X139531499Y-55537296D01*
X139480189Y-55462901D01*
X139408491Y-55383170D01*
X139323624Y-55305510D01*
X139232805Y-55237329D01*
X139143250Y-55186032D01*
X139116113Y-55173661D01*
X139052901Y-55149158D01*
X138991459Y-55134941D01*
X138917107Y-55128355D01*
X138815167Y-55126750D01*
X138776674Y-55126903D01*
X138685423Y-55129936D01*
X138617002Y-55138841D01*
X138556879Y-55156211D01*
X138490523Y-55184635D01*
X138432776Y-55213873D01*
X138356587Y-55258202D01*
X138300023Y-55297656D01*
X138292827Y-55303757D01*
X138245236Y-55349907D01*
X138193202Y-55407453D01*
X138145284Y-55466029D01*
X138110041Y-55515264D01*
X138096030Y-55544792D01*
X137749268Y-55544792D01*
X137739922Y-55526458D01*
X137715270Y-55479626D01*
X137702705Y-55457987D01*
X137698603Y-55457908D01*
X137670008Y-55473103D01*
X137625039Y-55504770D01*
X137586454Y-55531927D01*
X137460063Y-55601060D01*
X137319444Y-55655828D01*
X137185117Y-55687697D01*
X137095450Y-55695348D01*
X136925734Y-55685731D01*
X136759496Y-55648017D01*
X136608201Y-55585263D01*
X136483311Y-55500527D01*
X136407975Y-55434381D01*
X136321440Y-55620629D01*
X136308923Y-55648270D01*
X136266694Y-55750400D01*
X136224953Y-55862899D01*
X136186908Y-55975898D01*
X136155763Y-56079527D01*
X136134725Y-56163918D01*
X136127000Y-56219201D01*
X135893842Y-56219201D01*
X135888623Y-56188027D01*
X135869772Y-56120637D01*
X135840718Y-56031335D01*
X135804753Y-55929401D01*
X135765166Y-55824113D01*
X135725248Y-55724749D01*
X135688289Y-55640588D01*
X135591961Y-55434760D01*
X135515522Y-55494813D01*
X135499040Y-55507417D01*
X135433517Y-55552950D01*
X135375583Y-55587483D01*
X135357780Y-55598018D01*
X135349139Y-55607081D01*
X135311634Y-55646419D01*
X135274806Y-55726179D01*
X135253546Y-55774567D01*
X135204469Y-55857328D01*
X135147806Y-55930801D01*
X135107132Y-55973749D01*
X135063317Y-56009917D01*
X135021015Y-56026187D01*
X134965972Y-56030364D01*
X134896995Y-56023819D01*
X134817805Y-55989789D01*
X134794224Y-55970153D01*
X134726389Y-55893565D01*
X134665136Y-55798569D01*
X134621978Y-55702084D01*
X134593434Y-55643457D01*
X134530340Y-55588059D01*
X134516877Y-55580811D01*
X134500474Y-55570593D01*
X134693875Y-55570593D01*
X134710138Y-55637345D01*
X134739805Y-55714531D01*
X134777839Y-55789187D01*
X134819202Y-55848348D01*
X134834430Y-55864647D01*
X134904327Y-55913509D01*
X134973600Y-55920890D01*
X135040666Y-55887470D01*
X135103940Y-55813932D01*
X135161836Y-55700957D01*
X135190837Y-55607081D01*
X135189045Y-55538767D01*
X135155559Y-55498358D01*
X135128239Y-55486481D01*
X135052194Y-55468768D01*
X134963094Y-55461969D01*
X134871891Y-55465352D01*
X134789539Y-55478181D01*
X134726990Y-55499722D01*
X134695198Y-55529239D01*
X134693875Y-55570593D01*
X134500474Y-55570593D01*
X134453406Y-55541273D01*
X134389846Y-55495501D01*
X134314275Y-55436135D01*
X134284821Y-55495457D01*
X134254460Y-55556609D01*
X134234056Y-55599319D01*
X134213235Y-55653892D01*
X134202018Y-55709367D01*
X134198022Y-55779529D01*
X134198862Y-55878167D01*
X134195909Y-55936716D01*
X134188936Y-56075011D01*
X134145427Y-56267179D01*
X134067913Y-56434476D01*
X134019018Y-56514535D01*
X133744126Y-56514535D01*
X133834719Y-56414553D01*
X133923117Y-56266067D01*
X133980994Y-56104198D01*
X134004806Y-55936716D01*
X133991009Y-55771389D01*
X133972593Y-55689541D01*
X133953839Y-55638693D01*
X133928526Y-55618642D01*
X133889318Y-55623838D01*
X133828877Y-55648731D01*
X133799801Y-55660566D01*
X133667511Y-55694217D01*
X133518202Y-55707147D01*
X133368023Y-55698815D01*
X133233126Y-55668680D01*
X133232877Y-55668596D01*
X133137776Y-55639118D01*
X133072672Y-55626580D01*
X133029093Y-55630293D01*
X132998567Y-55649566D01*
X132990550Y-55673639D01*
X132983190Y-55734264D01*
X132977778Y-55822910D01*
X132974333Y-55931962D01*
X132972877Y-56053810D01*
X132891885Y-56053810D01*
X132884948Y-55613583D01*
X132937145Y-55564613D01*
X132986126Y-55530775D01*
X133050334Y-55516558D01*
X133133157Y-55526449D01*
X133242766Y-55560333D01*
X133258884Y-55565930D01*
X133394515Y-55595508D01*
X133538842Y-55601077D01*
X133677020Y-55583129D01*
X133794208Y-55542152D01*
X133884999Y-55495457D01*
X133840795Y-55433378D01*
X133809665Y-55394789D01*
X133723276Y-55312421D01*
X133618792Y-55235156D01*
X133511231Y-55174780D01*
X133502127Y-55170647D01*
X133443733Y-55148504D01*
X133381735Y-55135113D01*
X133303255Y-55128514D01*
X133195417Y-55126750D01*
X133138171Y-55127069D01*
X133050187Y-55130439D01*
X132984115Y-55139365D01*
X132926435Y-55156141D01*
X132863626Y-55183062D01*
X132843622Y-55192731D01*
X132685192Y-55294232D01*
X132556129Y-55425899D01*
X132456896Y-55587000D01*
X132387954Y-55776805D01*
X132349766Y-55994583D01*
X132346386Y-56092115D01*
X132019318Y-56092115D01*
X131942256Y-55819285D01*
X131865226Y-55509566D01*
X131799945Y-55206326D01*
X131748829Y-54920015D01*
X131714300Y-54661083D01*
X131708143Y-54603290D01*
X131697996Y-54526949D01*
X131685506Y-54481167D01*
X132042737Y-54481167D01*
X132046094Y-54512494D01*
X132056608Y-54579910D01*
X132072915Y-54674572D01*
X132093616Y-54789012D01*
X132117315Y-54915767D01*
X132142613Y-55047371D01*
X132168112Y-55176359D01*
X132192416Y-55295265D01*
X132214126Y-55396625D01*
X132231674Y-55465492D01*
X132250395Y-55508981D01*
X132267847Y-55512336D01*
X132285032Y-55476687D01*
X132317793Y-55410158D01*
X132376398Y-55327628D01*
X132451217Y-55241161D01*
X132533083Y-55161328D01*
X132612830Y-55098698D01*
X132779543Y-55008645D01*
X132964825Y-54949830D01*
X133155199Y-54926518D01*
X133344854Y-54937807D01*
X133527978Y-54982795D01*
X133698761Y-55060580D01*
X133851390Y-55170259D01*
X133980053Y-55310931D01*
X133986854Y-55320149D01*
X134032263Y-55379205D01*
X134060867Y-55408444D01*
X134078846Y-55412557D01*
X134092376Y-55396237D01*
X134096055Y-55387678D01*
X134097441Y-55351994D01*
X134080517Y-55298165D01*
X134042887Y-55217528D01*
X134023635Y-55177199D01*
X133958612Y-54985575D01*
X133932952Y-54791462D01*
X133934490Y-54766917D01*
X134147917Y-54766917D01*
X134148236Y-54824162D01*
X134151606Y-54912146D01*
X134160532Y-54978219D01*
X134177308Y-55035899D01*
X134204229Y-55098707D01*
X134241409Y-55167481D01*
X134321977Y-55280989D01*
X134415885Y-55382181D01*
X134510914Y-55456789D01*
X134583028Y-55501357D01*
X134624611Y-55448493D01*
X134624729Y-55448343D01*
X134685094Y-55401978D01*
X134776925Y-55369701D01*
X134891096Y-55353654D01*
X135018483Y-55355981D01*
X135083239Y-55364120D01*
X135154585Y-55378034D01*
X135200842Y-55393003D01*
X135235157Y-55415119D01*
X135280333Y-55457145D01*
X135286679Y-55464989D01*
X135308356Y-55484577D01*
X135333498Y-55481799D01*
X135378281Y-55456557D01*
X135441171Y-55412849D01*
X135556984Y-55299618D01*
X135651345Y-55162321D01*
X135719566Y-55010288D01*
X135756958Y-54852848D01*
X135758833Y-54699330D01*
X135745737Y-54615184D01*
X135700713Y-54465848D01*
X135625793Y-54332788D01*
X135515103Y-54204064D01*
X135449617Y-54143082D01*
X135320471Y-54051431D01*
X135180891Y-53992452D01*
X135018808Y-53960213D01*
X134873211Y-53959366D01*
X134710129Y-53994361D01*
X134554617Y-54063402D01*
X134413838Y-54162323D01*
X134294955Y-54286962D01*
X134205131Y-54433155D01*
X134189081Y-54468710D01*
X134167577Y-54527398D01*
X134155102Y-54587602D01*
X134149325Y-54662912D01*
X134147917Y-54766917D01*
X133934490Y-54766917D01*
X133944959Y-54599814D01*
X133992936Y-54415587D01*
X134075184Y-54243738D01*
X134190007Y-54089221D01*
X134335708Y-53956993D01*
X134510588Y-53852009D01*
X134560116Y-53828999D01*
X134634347Y-53798875D01*
X134701842Y-53780710D01*
X134778958Y-53770670D01*
X134882049Y-53764922D01*
X134964860Y-53762750D01*
X135061657Y-53765825D01*
X135144937Y-53777849D01*
X135231545Y-53800538D01*
X135248070Y-53805718D01*
X135436043Y-53887790D01*
X135600237Y-54004316D01*
X135738396Y-54153349D01*
X135848264Y-54332942D01*
X135849676Y-54335830D01*
X135881508Y-54402481D01*
X135902959Y-54455611D01*
X135916076Y-54506390D01*
X135922909Y-54565990D01*
X135925506Y-54645580D01*
X135925706Y-54699330D01*
X135925917Y-54756333D01*
X135925917Y-54763824D01*
X135925439Y-54872417D01*
X135922616Y-54950779D01*
X135915328Y-55010345D01*
X135901459Y-55062551D01*
X135878892Y-55118835D01*
X135845508Y-55190631D01*
X135765100Y-55360346D01*
X135837004Y-55518714D01*
X135839852Y-55525012D01*
X135880227Y-55618463D01*
X135918085Y-55712693D01*
X135945572Y-55788208D01*
X135961136Y-55834021D01*
X135978487Y-55881089D01*
X135987252Y-55899333D01*
X135993599Y-55886366D01*
X136009339Y-55842749D01*
X136030194Y-55779021D01*
X136030275Y-55778764D01*
X136059007Y-55697070D01*
X136097810Y-55598627D01*
X136138309Y-55504689D01*
X136208498Y-55350668D01*
X136147537Y-55238115D01*
X136112046Y-55166302D01*
X136048298Y-54976405D01*
X136028625Y-54822063D01*
X136241860Y-54822063D01*
X136272031Y-54989338D01*
X136337672Y-55147198D01*
X136435436Y-55289470D01*
X136561977Y-55409979D01*
X136713949Y-55502550D01*
X136748406Y-55518177D01*
X136834353Y-55550028D01*
X136919634Y-55567341D01*
X137025623Y-55575090D01*
X137094348Y-55575850D01*
X137203104Y-55568844D01*
X137285112Y-55552360D01*
X137428579Y-55489356D01*
X137575676Y-55386783D01*
X137698726Y-55257972D01*
X137789401Y-55110224D01*
X137840100Y-55000795D01*
X137719092Y-54967278D01*
X137666623Y-54951705D01*
X137597845Y-54928193D01*
X137552326Y-54908802D01*
X137541578Y-54902392D01*
X137478647Y-54848736D01*
X137414519Y-54773134D01*
X137360609Y-54690519D01*
X137328333Y-54615821D01*
X137304817Y-54528226D01*
X137212397Y-54567842D01*
X137190851Y-54576764D01*
X137002564Y-54629933D01*
X136809739Y-54642484D01*
X136618391Y-54614581D01*
X136434533Y-54546391D01*
X136368214Y-54516846D01*
X136316447Y-54499950D01*
X136290711Y-54499489D01*
X136280355Y-54522616D01*
X136265635Y-54576859D01*
X136251051Y-54648397D01*
X136250504Y-54651548D01*
X136241860Y-54822063D01*
X136028625Y-54822063D01*
X136023818Y-54784347D01*
X136037042Y-54594801D01*
X136086400Y-54412437D01*
X136117907Y-54348424D01*
X136363776Y-54348424D01*
X136383103Y-54374231D01*
X136430877Y-54410829D01*
X136496044Y-54448821D01*
X136553191Y-54476580D01*
X136606192Y-54496152D01*
X136662442Y-54507099D01*
X136734961Y-54511870D01*
X136836773Y-54512917D01*
X136921775Y-54512219D01*
X137000774Y-54508059D01*
X137061724Y-54497972D01*
X137118116Y-54479518D01*
X137183444Y-54450260D01*
X137251898Y-54420082D01*
X137315207Y-54404770D01*
X137359644Y-54419275D01*
X137394421Y-54467464D01*
X137428750Y-54553202D01*
X137486189Y-54672873D01*
X137567598Y-54770430D01*
X137665549Y-54833438D01*
X137732774Y-54853517D01*
X137801207Y-54862167D01*
X137868106Y-54862167D01*
X137858440Y-54695190D01*
X137839428Y-54560636D01*
X137780669Y-54394859D01*
X137685845Y-54248645D01*
X137557206Y-54125246D01*
X137397000Y-54027915D01*
X137341882Y-54002791D01*
X137282839Y-53981275D01*
X137223463Y-53969147D01*
X137149764Y-53963790D01*
X137047750Y-53962587D01*
X136968589Y-53963201D01*
X136889189Y-53967215D01*
X136828495Y-53977160D01*
X136772972Y-53995522D01*
X136709083Y-54024787D01*
X136701587Y-54028540D01*
X136625481Y-54074218D01*
X136547229Y-54132387D01*
X136474382Y-54195969D01*
X136414490Y-54257887D01*
X136375104Y-54311064D01*
X136363776Y-54348424D01*
X136117907Y-54348424D01*
X136170325Y-54241928D01*
X136287251Y-54087946D01*
X136435610Y-53955162D01*
X136455467Y-53943250D01*
X137528713Y-53943250D01*
X137528992Y-53944133D01*
X137549255Y-53969687D01*
X137593373Y-54011938D01*
X137652334Y-54062214D01*
X137770085Y-54157706D01*
X137827043Y-54108713D01*
X137850541Y-54090724D01*
X137945185Y-54049177D01*
X138051738Y-54039056D01*
X138160601Y-54057818D01*
X138262173Y-54102917D01*
X138346855Y-54171807D01*
X138405046Y-54261945D01*
X138406276Y-54264943D01*
X138429212Y-54359155D01*
X138431852Y-54463161D01*
X138413524Y-54553872D01*
X138401806Y-54593364D01*
X138409317Y-54604422D01*
X138439148Y-54583199D01*
X138493131Y-54529125D01*
X138501341Y-54520292D01*
X138584053Y-54407633D01*
X138630489Y-54285527D01*
X138645162Y-54142500D01*
X138641752Y-54078144D01*
X138607767Y-53935699D01*
X138541802Y-53809274D01*
X138449376Y-53703252D01*
X138336009Y-53622016D01*
X138207217Y-53569948D01*
X138068520Y-53551433D01*
X137925436Y-53570853D01*
X137888203Y-53583051D01*
X137772065Y-53642208D01*
X137666200Y-53724837D01*
X137586637Y-53819187D01*
X137561191Y-53862158D01*
X137536063Y-53913669D01*
X137528713Y-53943250D01*
X136455467Y-53943250D01*
X136613833Y-53848248D01*
X136648158Y-53831916D01*
X136712425Y-53803679D01*
X136767372Y-53786088D01*
X136825912Y-53776633D01*
X136900956Y-53772802D01*
X137005417Y-53772083D01*
X137081653Y-53772885D01*
X137175603Y-53776129D01*
X137250210Y-53781289D01*
X137293981Y-53787740D01*
X137323335Y-53793729D01*
X137352451Y-53783331D01*
X137375590Y-53740922D01*
X137401077Y-53696460D01*
X137463173Y-53623419D01*
X137545844Y-53548026D01*
X137638626Y-53479519D01*
X137731051Y-53427137D01*
X137731560Y-53426900D01*
X137800571Y-53398160D01*
X137865015Y-53381057D01*
X137940487Y-53372754D01*
X138042583Y-53370409D01*
X138058730Y-53370461D01*
X138224045Y-53384938D01*
X138365018Y-53427855D01*
X138491407Y-53503408D01*
X138612967Y-53615796D01*
X138666850Y-53678804D01*
X138753170Y-53816680D01*
X138802570Y-53965846D01*
X138818704Y-54135530D01*
X138818660Y-54142500D01*
X138818584Y-54154673D01*
X138796130Y-54336021D01*
X138735545Y-54499354D01*
X138637544Y-54643246D01*
X138502839Y-54766273D01*
X138482756Y-54780269D01*
X138385919Y-54827589D01*
X138298079Y-54840648D01*
X138224560Y-54823360D01*
X138170686Y-54779640D01*
X138141780Y-54713402D01*
X138143166Y-54628560D01*
X138180167Y-54529028D01*
X138198959Y-54492395D01*
X138218611Y-54437564D01*
X138216035Y-54391293D01*
X138192338Y-54336070D01*
X138149333Y-54282244D01*
X138084171Y-54242699D01*
X138013644Y-54228617D01*
X137951625Y-54245233D01*
X137942028Y-54256500D01*
X137939890Y-54286025D01*
X137951519Y-54338996D01*
X137978084Y-54423266D01*
X137990163Y-54461605D01*
X138029087Y-54665206D01*
X138027502Y-54862167D01*
X138027445Y-54869299D01*
X137999880Y-55000795D01*
X137985731Y-55068298D01*
X137904440Y-55256619D01*
X137892594Y-55278229D01*
X137865203Y-55335963D01*
X137858363Y-55372952D01*
X137869384Y-55400209D01*
X137882386Y-55413738D01*
X137901105Y-55413150D01*
X137928629Y-55387333D01*
X137972363Y-55331332D01*
X138058721Y-55230075D01*
X138204483Y-55107547D01*
X138382451Y-55006624D01*
X138388370Y-55003862D01*
X138468965Y-54969533D01*
X138540991Y-54948176D01*
X138621407Y-54935978D01*
X138727170Y-54929128D01*
X138829865Y-54927887D01*
X139009187Y-54946148D01*
X139168973Y-54993616D01*
X139318486Y-55072536D01*
X139417556Y-55146679D01*
X139523401Y-55246666D01*
X139614211Y-55353644D01*
X139678311Y-55455193D01*
X139720755Y-55540980D01*
X139754651Y-55386782D01*
X139779517Y-55266489D01*
X139807350Y-55117631D01*
X139834043Y-54961911D01*
X139857625Y-54811385D01*
X139876123Y-54678108D01*
X139887567Y-54574135D01*
X139891779Y-54522981D01*
X139894337Y-54465262D01*
X139888991Y-54433770D01*
X139873103Y-54418525D01*
X139844032Y-54409547D01*
X139782083Y-54388439D01*
X139664932Y-54321560D01*
X139551706Y-54225083D01*
X139450732Y-54106662D01*
X139370334Y-53973955D01*
X139347551Y-53924627D01*
X139329216Y-53871653D01*
X139318700Y-53813677D01*
X139313901Y-53738266D01*
X139312718Y-53632983D01*
X139312710Y-53618954D01*
X139705022Y-53618954D01*
X139720050Y-53742792D01*
X139767909Y-53858343D01*
X139847611Y-53958368D01*
X139958167Y-54035629D01*
X139958229Y-54035660D01*
X140089817Y-54080308D01*
X140223124Y-54085210D01*
X140350922Y-54051172D01*
X140465980Y-53978999D01*
X140551108Y-53885595D01*
X140611245Y-53767231D01*
X140634847Y-53640466D01*
X140621724Y-53512410D01*
X140571687Y-53390171D01*
X140484548Y-53280858D01*
X140461248Y-53260684D01*
X140369425Y-53203253D01*
X140265958Y-53162902D01*
X140169833Y-53147667D01*
X140141738Y-53149244D01*
X140041280Y-53173189D01*
X139939412Y-53219739D01*
X139855119Y-53280858D01*
X139777412Y-53375365D01*
X139723813Y-53494066D01*
X139705022Y-53618954D01*
X139312710Y-53618954D01*
X139312583Y-53409216D01*
X139122083Y-53328561D01*
X138847547Y-53218684D01*
X138314572Y-53039241D01*
X137763167Y-52896209D01*
X137196685Y-52790398D01*
X136618482Y-52722622D01*
X136597292Y-52720955D01*
X136451456Y-52713076D01*
X136276826Y-52708456D01*
X136082289Y-52706927D01*
X135876729Y-52708322D01*
X135669033Y-52712471D01*
X135468085Y-52719209D01*
X135282770Y-52728366D01*
X135121974Y-52739776D01*
X134994583Y-52753271D01*
X134445546Y-52842836D01*
X133904875Y-52965154D01*
X133381171Y-53119982D01*
X132867333Y-53309176D01*
X132623917Y-53407727D01*
X132623917Y-53624844D01*
X132623917Y-53632238D01*
X132622939Y-53735439D01*
X132618479Y-53810642D01*
X132608301Y-53868656D01*
X132590171Y-53922139D01*
X132561854Y-53983750D01*
X132505181Y-54079580D01*
X132404268Y-54201402D01*
X132285907Y-54304235D01*
X132161773Y-54376614D01*
X132127150Y-54392106D01*
X132074318Y-54421096D01*
X132049105Y-54448214D01*
X132042737Y-54481167D01*
X131685506Y-54481167D01*
X131684970Y-54479201D01*
X131664224Y-54451369D01*
X131630917Y-54434777D01*
X131580207Y-54420747D01*
X131525840Y-54403716D01*
X131387839Y-54333585D01*
X131259193Y-54231466D01*
X131148231Y-54104767D01*
X131063280Y-53960897D01*
X131049918Y-53930139D01*
X131032263Y-53876270D01*
X131021706Y-53815035D01*
X131016588Y-53734797D01*
X131015250Y-53623917D01*
X131015259Y-53622318D01*
X131369631Y-53622318D01*
X131387355Y-53756945D01*
X131391093Y-53769152D01*
X131439269Y-53864327D01*
X131513938Y-53955112D01*
X131603171Y-54029202D01*
X131695039Y-54074294D01*
X131703483Y-54076754D01*
X131821482Y-54097931D01*
X131929118Y-54086853D01*
X132043199Y-54041958D01*
X132067361Y-54028946D01*
X132173697Y-53947858D01*
X132247335Y-53849412D01*
X132289733Y-53739708D01*
X132302349Y-53624844D01*
X132286643Y-53510919D01*
X132244074Y-53404032D01*
X132176100Y-53310281D01*
X132084180Y-53235765D01*
X131969774Y-53186582D01*
X131834339Y-53168833D01*
X131756507Y-53175092D01*
X131630904Y-53214455D01*
X131524863Y-53284848D01*
X131442936Y-53380281D01*
X131389675Y-53494768D01*
X131369631Y-53622318D01*
X131015259Y-53622318D01*
X131015618Y-53558346D01*
X131018833Y-53465786D01*
X131026743Y-53397456D01*
X131041005Y-53341719D01*
X131063280Y-53286936D01*
X131132068Y-53163431D01*
X131251486Y-53021473D01*
X131400260Y-52909936D01*
X131577922Y-52829236D01*
X131735370Y-52793810D01*
X131911587Y-52791805D01*
X132084466Y-52826262D01*
X132245582Y-52895426D01*
X132386511Y-52997545D01*
X132480358Y-53084050D01*
X132705881Y-52989564D01*
X132907752Y-52908123D01*
X133463828Y-52714674D01*
X134033101Y-52560280D01*
X134612532Y-52445264D01*
X135199085Y-52369951D01*
X135789721Y-52334664D01*
X136381403Y-52339728D01*
X136971092Y-52385467D01*
X137555750Y-52472206D01*
X137573386Y-52475489D01*
X137913604Y-52547990D01*
X138269802Y-52639723D01*
X138627414Y-52746360D01*
X138971872Y-52863574D01*
X139288607Y-52987035D01*
X139518631Y-53083626D01*
X139623006Y-52989784D01*
X139624700Y-52988266D01*
X139767578Y-52887010D01*
X139924464Y-52821871D01*
X140089572Y-52791598D01*
X140257119Y-52794941D01*
X140421319Y-52830650D01*
X140576389Y-52897473D01*
X140716544Y-52994161D01*
X140836000Y-53119462D01*
X140928973Y-53272126D01*
X140952042Y-53324824D01*
X140969229Y-53378483D01*
X140979131Y-53438153D01*
X140983665Y-53515931D01*
X140984750Y-53623917D01*
X140984738Y-53640466D01*
X140984737Y-53641985D01*
G37*
X135875246Y-56835344D02*
X136152658Y-56841250D01*
X136317613Y-57254000D01*
X136482567Y-57666750D01*
X136286575Y-57677333D01*
X136090583Y-57687917D01*
X136248422Y-58016000D01*
X136285523Y-58093336D01*
X136339288Y-58206162D01*
X136386972Y-58307085D01*
X136424454Y-58387373D01*
X136447615Y-58438289D01*
X136468198Y-58485748D01*
X136478356Y-58514531D01*
X136471378Y-58515500D01*
X136447223Y-58494714D01*
X136443609Y-58491263D01*
X136412765Y-58458472D01*
X136360719Y-58400612D01*
X136291565Y-58322426D01*
X136209393Y-58228656D01*
X136118298Y-58124044D01*
X136022369Y-58013331D01*
X135925701Y-57901259D01*
X135832385Y-57792570D01*
X135746513Y-57692006D01*
X135672177Y-57604308D01*
X135613470Y-57534220D01*
X135574483Y-57486482D01*
X135559310Y-57465836D01*
X135561281Y-57462005D01*
X135591960Y-57452714D01*
X135652033Y-57444938D01*
X135732259Y-57440054D01*
X135911981Y-57433917D01*
X135754907Y-57153477D01*
X135726866Y-57103063D01*
X135675852Y-57009349D01*
X135634925Y-56931490D01*
X135607710Y-56876462D01*
X135597833Y-56851238D01*
X135608729Y-56843976D01*
X135658924Y-56837186D01*
X135748334Y-56834276D01*
X135875246Y-56835344D01*
G36*
X135875246Y-56835344D02*
G01*
X136152658Y-56841250D01*
X136317613Y-57254000D01*
X136482567Y-57666750D01*
X136286575Y-57677333D01*
X136090583Y-57687917D01*
X136248422Y-58016000D01*
X136285523Y-58093336D01*
X136339288Y-58206162D01*
X136386972Y-58307085D01*
X136424454Y-58387373D01*
X136447615Y-58438289D01*
X136468198Y-58485748D01*
X136478356Y-58514531D01*
X136471378Y-58515500D01*
X136447223Y-58494714D01*
X136443609Y-58491263D01*
X136412765Y-58458472D01*
X136360719Y-58400612D01*
X136291565Y-58322426D01*
X136209393Y-58228656D01*
X136118298Y-58124044D01*
X136022369Y-58013331D01*
X135925701Y-57901259D01*
X135832385Y-57792570D01*
X135746513Y-57692006D01*
X135672177Y-57604308D01*
X135613470Y-57534220D01*
X135574483Y-57486482D01*
X135559310Y-57465836D01*
X135561281Y-57462005D01*
X135591960Y-57452714D01*
X135652033Y-57444938D01*
X135732259Y-57440054D01*
X135911981Y-57433917D01*
X135754907Y-57153477D01*
X135726866Y-57103063D01*
X135675852Y-57009349D01*
X135634925Y-56931490D01*
X135607710Y-56876462D01*
X135597833Y-56851238D01*
X135608729Y-56843976D01*
X135658924Y-56837186D01*
X135748334Y-56834276D01*
X135875246Y-56835344D01*
G37*
X135286870Y-55081954D02*
X135301500Y-55115623D01*
X135295914Y-55135945D01*
X135257551Y-55176409D01*
X135189674Y-55214775D01*
X135100417Y-55245779D01*
X135031926Y-55256333D01*
X134939415Y-55255459D01*
X134842977Y-55242445D01*
X134751865Y-55219687D01*
X134675330Y-55189582D01*
X134622625Y-55154527D01*
X134603000Y-55116919D01*
X134603957Y-55105227D01*
X134625483Y-55078052D01*
X134676487Y-55078208D01*
X134758485Y-55105583D01*
X134790633Y-55116180D01*
X134869449Y-55131367D01*
X134952250Y-55137333D01*
X134995937Y-55135504D01*
X135079672Y-55124055D01*
X135146015Y-55105583D01*
X135166722Y-55097264D01*
X135242290Y-55075857D01*
X135286870Y-55081954D01*
G36*
X135286870Y-55081954D02*
G01*
X135301500Y-55115623D01*
X135295914Y-55135945D01*
X135257551Y-55176409D01*
X135189674Y-55214775D01*
X135100417Y-55245779D01*
X135031926Y-55256333D01*
X134939415Y-55255459D01*
X134842977Y-55242445D01*
X134751865Y-55219687D01*
X134675330Y-55189582D01*
X134622625Y-55154527D01*
X134603000Y-55116919D01*
X134603957Y-55105227D01*
X134625483Y-55078052D01*
X134676487Y-55078208D01*
X134758485Y-55105583D01*
X134790633Y-55116180D01*
X134869449Y-55131367D01*
X134952250Y-55137333D01*
X134995937Y-55135504D01*
X135079672Y-55124055D01*
X135146015Y-55105583D01*
X135166722Y-55097264D01*
X135242290Y-55075857D01*
X135286870Y-55081954D01*
G37*
%TD*%
%LPC*%
D13*
%TO.C,Q4*%
X148230000Y-69250000D03*
D14*
X150000000Y-69250000D03*
X151730000Y-69250000D03*
%TD*%
D15*
%TO.C,R13*%
X161190000Y-85200000D03*
D16*
X168810000Y-85200000D03*
%TD*%
D15*
%TO.C,R10*%
X159000000Y-103940000D03*
D16*
X159000000Y-111560000D03*
%TD*%
D17*
%TO.C,RV2*%
X135000000Y-126900000D03*
X135000000Y-118100000D03*
D18*
X142000000Y-119999999D03*
X142000000Y-122500000D03*
X142000000Y-125000001D03*
%TD*%
D17*
%TO.C,RV4*%
X145600000Y-107500000D03*
X154400000Y-107500000D03*
D19*
X152500001Y-114500000D03*
X150000000Y-114500000D03*
X147499999Y-114500000D03*
%TD*%
D20*
%TO.C,U3*%
X161190000Y-88690000D03*
D18*
X161190000Y-91230000D03*
X161190000Y-93770000D03*
X161190000Y-96310000D03*
X168810000Y-96310000D03*
X168810000Y-93770000D03*
X168810000Y-91230000D03*
X168810000Y-88690000D03*
%TD*%
D21*
%TO.C,D1*%
X145905000Y-99349556D03*
D15*
X142095000Y-92750442D03*
%TD*%
%TO.C,C3*%
X141000000Y-80000000D03*
X141000000Y-75000000D03*
%TD*%
%TO.C,R8*%
X167000000Y-103940000D03*
D16*
X167000000Y-111560000D03*
%TD*%
D20*
%TO.C,U1*%
X146190000Y-118690000D03*
D18*
X146190000Y-121230000D03*
X146190000Y-123770000D03*
X146190000Y-126310000D03*
X153810000Y-126310000D03*
X153810000Y-123770000D03*
X153810000Y-121230000D03*
X153810000Y-118690000D03*
%TD*%
D22*
%TO.C,J3*%
X171480000Y-77500000D03*
D23*
X168380000Y-77500000D03*
X160080000Y-77500000D03*
%TD*%
D24*
%TO.C,J4*%
X130000000Y-143550000D03*
D25*
X132000000Y-143550000D03*
X134000000Y-143550000D03*
%TD*%
D26*
%TO.C,Q2*%
X154621769Y-91827866D03*
D27*
X153736769Y-90295001D03*
X152871769Y-88796777D03*
%TD*%
D22*
%TO.C,J2*%
X171480000Y-62500000D03*
D23*
X168380000Y-62500000D03*
X160080000Y-62500000D03*
%TD*%
D15*
%TO.C,R4*%
X153810000Y-85160000D03*
D16*
X146190000Y-85160000D03*
%TD*%
D15*
%TO.C,R6*%
X136999999Y-103690000D03*
D16*
X136999999Y-111310000D03*
%TD*%
D15*
%TO.C,R9*%
X141000000Y-111310000D03*
D16*
X141000000Y-103690000D03*
%TD*%
D28*
%TO.C,Q1*%
X147148232Y-88787135D03*
D29*
X146263232Y-90320000D03*
X145398232Y-91818224D03*
%TD*%
D15*
%TO.C,R11*%
X156600000Y-58690000D03*
D16*
X156600000Y-66310000D03*
%TD*%
D30*
%TO.C,D4*%
X171000000Y-103940001D03*
D15*
X171000000Y-111560001D03*
%TD*%
%TO.C,R2*%
X143400000Y-66310000D03*
D16*
X143400000Y-58690000D03*
%TD*%
D15*
%TO.C,R3*%
X156650000Y-81410000D03*
D16*
X156650000Y-73790000D03*
%TD*%
D15*
%TO.C,C1*%
X155000000Y-98215064D03*
X157500000Y-93884937D03*
%TD*%
%TO.C,R5*%
X163000000Y-111560000D03*
D16*
X163000000Y-103940000D03*
%TD*%
D13*
%TO.C,Q3*%
X148230000Y-96800000D03*
D14*
X150000000Y-96800000D03*
X151730000Y-96800000D03*
%TD*%
D31*
%TO.C,D2*%
X129000000Y-111310000D03*
D15*
X129000000Y-103690000D03*
%TD*%
D32*
%TO.C,D3*%
X161190000Y-133250000D03*
D15*
X168810000Y-133250000D03*
%TD*%
D33*
%TO.C,RV5*%
X152530000Y-77505000D03*
X149990000Y-74965000D03*
X147450000Y-77505000D03*
%TD*%
D34*
%TO.C,D5*%
X148725000Y-62500000D03*
D35*
X151265000Y-62500000D03*
%TD*%
D22*
%TO.C,J1*%
X128520000Y-62500000D03*
D23*
X131620000Y-62500000D03*
X139920000Y-62500000D03*
%TD*%
D36*
%TO.C,SW1*%
X135000000Y-72800000D03*
X135000000Y-77500000D03*
X135000000Y-82200000D03*
%TD*%
D17*
%TO.C,RV3*%
X165000000Y-118100000D03*
X165000000Y-126900000D03*
D18*
X158000000Y-125000001D03*
X158000000Y-122500000D03*
X158000000Y-119999999D03*
%TD*%
D15*
%TO.C,R1*%
X138810000Y-69000000D03*
D16*
X131190000Y-69000000D03*
%TD*%
D15*
%TO.C,R7*%
X132999999Y-103690000D03*
D16*
X132999999Y-111310000D03*
%TD*%
D20*
%TO.C,U2*%
X131190000Y-88690000D03*
D18*
X131190000Y-91230000D03*
X131190000Y-93770000D03*
X131190000Y-96310000D03*
X138810000Y-96310000D03*
X138810000Y-93770000D03*
X138810000Y-91230000D03*
X138810000Y-88690000D03*
%TD*%
D15*
%TO.C,R12*%
X161190000Y-69250000D03*
D16*
X168810000Y-69250000D03*
%TD*%
D15*
%TO.C,C4*%
X129000000Y-75000000D03*
X129000000Y-80000000D03*
%TD*%
D24*
%TO.C,J5*%
X166000000Y-143550000D03*
D25*
X168000000Y-143550000D03*
X170000000Y-143550000D03*
%TD*%
D34*
%TO.C,C2*%
X142500000Y-134500001D03*
D35*
X142500000Y-132000001D03*
%TD*%
D17*
%TO.C,RV1*%
X154400000Y-137500000D03*
X145600000Y-137500000D03*
D19*
X147499999Y-130500000D03*
X150000000Y-130500000D03*
X152500001Y-130500000D03*
%TD*%
%LPD*%
M02*
