%TF.GenerationSoftware,KiCad,Pcbnew,9.0.2*%
%TF.CreationDate,2025-06-18T19:11:40+10:00*%
%TF.ProjectId,ASDR,41534452-2e6b-4696-9361-645f70636258,rev?*%
%TF.SameCoordinates,Original*%
%TF.FileFunction,Legend,Top*%
%TF.FilePolarity,Positive*%
%FSLAX46Y46*%
G04 Gerber Fmt 4.6, Leading zero omitted, Abs format (unit mm)*
G04 Created by KiCad (PCBNEW 9.0.2) date 2025-06-18 19:11:40*
%MOMM*%
%LPD*%
G01*
G04 APERTURE LIST*
G04 Aperture macros list*
%AMRoundRect*
0 Rectangle with rounded corners*
0 $1 Rounding radius*
0 $2 $3 $4 $5 $6 $7 $8 $9 X,Y pos of 4 corners*
0 Add a 4 corners polygon primitive as box body*
4,1,4,$2,$3,$4,$5,$6,$7,$8,$9,$2,$3,0*
0 Add four circle primitives for the rounded corners*
1,1,$1+$1,$2,$3*
1,1,$1+$1,$4,$5*
1,1,$1+$1,$6,$7*
1,1,$1+$1,$8,$9*
0 Add four rect primitives between the rounded corners*
20,1,$1+$1,$2,$3,$4,$5,0*
20,1,$1+$1,$4,$5,$6,$7,0*
20,1,$1+$1,$6,$7,$8,$9,0*
20,1,$1+$1,$8,$9,$2,$3,0*%
%AMHorizOval*
0 Thick line with rounded ends*
0 $1 width*
0 $2 $3 position (X,Y) of the first rounded end (center of the circle)*
0 $4 $5 position (X,Y) of the second rounded end (center of the circle)*
0 Add line between two ends*
20,1,$1,$2,$3,$4,$5,0*
0 Add two circle primitives to create the rounded ends*
1,1,$1,$2,$3*
1,1,$1,$4,$5*%
%AMRotRect*
0 Rectangle, with rotation*
0 The origin of the aperture is its center*
0 $1 length*
0 $2 width*
0 $3 Rotation angle, in degrees counterclockwise*
0 Add horizontal line*
21,1,$1,$2,0,0,$3*%
G04 Aperture macros list end*
%ADD10C,1.000000*%
%ADD11C,0.400000*%
%ADD12C,0.500000*%
%ADD13C,0.300000*%
%ADD14C,0.150000*%
%ADD15C,0.100000*%
%ADD16C,0.120000*%
%ADD17C,0.200000*%
%ADD18R,1.350000X1.900000*%
%ADD19O,1.350000X1.900000*%
%ADD20C,1.600000*%
%ADD21O,1.600000X1.600000*%
%ADD22C,4.000000*%
%ADD23O,2.400000X1.600000*%
%ADD24O,1.600000X2.400000*%
%ADD25R,2.400000X1.600000*%
%ADD26RoundRect,0.250000X0.751314X-0.201314X0.201314X0.751314X-0.751314X0.201314X-0.201314X-0.751314X0*%
%ADD27R,2.000000X2.000000*%
%ADD28C,2.200000*%
%ADD29RoundRect,0.291666X-0.408334X-0.708334X0.408334X-0.708334X0.408334X0.708334X-0.408334X0.708334X0*%
%ADD30O,1.400000X2.000000*%
%ADD31RotRect,1.350000X1.900000X120.000000*%
%ADD32HorizOval,1.350000X0.238157X0.137500X-0.238157X-0.137500X0*%
%ADD33RotRect,1.350000X1.900000X240.000000*%
%ADD34HorizOval,1.350000X-0.238157X0.137500X0.238157X-0.137500X0*%
%ADD35RoundRect,0.250000X-0.550000X0.550000X-0.550000X-0.550000X0.550000X-0.550000X0.550000X0.550000X0*%
%ADD36RoundRect,0.250000X0.550000X-0.550000X0.550000X0.550000X-0.550000X0.550000X-0.550000X-0.550000X0*%
%ADD37RoundRect,0.250000X-0.550000X-0.550000X0.550000X-0.550000X0.550000X0.550000X-0.550000X0.550000X0*%
%ADD38C,1.440000*%
%ADD39R,1.800000X1.800000*%
%ADD40C,1.800000*%
%ADD41O,3.600000X1.800000*%
G04 APERTURE END LIST*
D10*
X153000000Y-107500000D02*
G75*
G02*
X147000000Y-107500000I-3000000J0D01*
G01*
X147000000Y-107500000D02*
G75*
G02*
X153000000Y-107500000I3000000J0D01*
G01*
X168000000Y-122500000D02*
G75*
G02*
X162000000Y-122500000I-3000000J0D01*
G01*
X162000000Y-122500000D02*
G75*
G02*
X168000000Y-122500000I3000000J0D01*
G01*
X153000000Y-137500000D02*
G75*
G02*
X147000000Y-137500000I-3000000J0D01*
G01*
X147000000Y-137500000D02*
G75*
G02*
X153000000Y-137500000I3000000J0D01*
G01*
X138000000Y-122500000D02*
G75*
G02*
X132000000Y-122500000I-3000000J0D01*
G01*
X132000000Y-122500000D02*
G75*
G02*
X138000000Y-122500000I3000000J0D01*
G01*
X154250000Y-108000000D02*
G75*
G02*
X164494119Y-118229987I-4250000J-14500000D01*
G01*
X135500000Y-118250000D02*
G75*
G02*
X145750000Y-108000000I14500000J-4250000D01*
G01*
X145750000Y-137000000D02*
G75*
G02*
X135500000Y-126750000I4250000J14500000D01*
G01*
D11*
X149404762Y-137921461D02*
X150595238Y-137921461D01*
X149166667Y-138635747D02*
X150000000Y-136135747D01*
X150000000Y-136135747D02*
X150833333Y-138635747D01*
D12*
X155500000Y-53699999D02*
X155500000Y-56699999D01*
X154000000Y-52199999D02*
G75*
G02*
X155500001Y-53699999I0J-1500001D01*
G01*
X144499999Y-53699998D02*
G75*
G02*
X145999999Y-52199999I1500001J-2D01*
G01*
X144499999Y-53699998D02*
X144499999Y-56699998D01*
X155500001Y-56700000D02*
G75*
G02*
X154000001Y-58200001I-1500001J0D01*
G01*
X145999999Y-58199999D02*
X154000001Y-58200000D01*
X146000000Y-52199998D02*
X154000000Y-52199999D01*
X145999999Y-58200000D02*
G75*
G02*
X144500000Y-56700000I1J1500000D01*
G01*
X134285714Y-123611500D02*
X134642857Y-123730547D01*
X134642857Y-123730547D02*
X135238095Y-123730547D01*
X135238095Y-123730547D02*
X135476190Y-123611500D01*
X135476190Y-123611500D02*
X135595238Y-123492452D01*
X135595238Y-123492452D02*
X135714285Y-123254357D01*
X135714285Y-123254357D02*
X135714285Y-123016261D01*
X135714285Y-123016261D02*
X135595238Y-122778166D01*
X135595238Y-122778166D02*
X135476190Y-122659119D01*
X135476190Y-122659119D02*
X135238095Y-122540071D01*
X135238095Y-122540071D02*
X134761904Y-122421023D01*
X134761904Y-122421023D02*
X134523809Y-122301976D01*
X134523809Y-122301976D02*
X134404762Y-122182928D01*
X134404762Y-122182928D02*
X134285714Y-121944833D01*
X134285714Y-121944833D02*
X134285714Y-121706738D01*
X134285714Y-121706738D02*
X134404762Y-121468642D01*
X134404762Y-121468642D02*
X134523809Y-121349595D01*
X134523809Y-121349595D02*
X134761904Y-121230547D01*
X134761904Y-121230547D02*
X135357143Y-121230547D01*
X135357143Y-121230547D02*
X135714285Y-121349595D01*
X165873809Y-123830547D02*
X165040476Y-122640071D01*
X164445238Y-123830547D02*
X164445238Y-121330547D01*
X164445238Y-121330547D02*
X165397619Y-121330547D01*
X165397619Y-121330547D02*
X165635714Y-121449595D01*
X165635714Y-121449595D02*
X165754761Y-121568642D01*
X165754761Y-121568642D02*
X165873809Y-121806738D01*
X165873809Y-121806738D02*
X165873809Y-122163880D01*
X165873809Y-122163880D02*
X165754761Y-122401976D01*
X165754761Y-122401976D02*
X165635714Y-122521023D01*
X165635714Y-122521023D02*
X165397619Y-122640071D01*
X165397619Y-122640071D02*
X164445238Y-122640071D01*
X149515238Y-108800547D02*
X149515238Y-106300547D01*
X149515238Y-106300547D02*
X150110476Y-106300547D01*
X150110476Y-106300547D02*
X150467619Y-106419595D01*
X150467619Y-106419595D02*
X150705714Y-106657690D01*
X150705714Y-106657690D02*
X150824761Y-106895785D01*
X150824761Y-106895785D02*
X150943809Y-107371976D01*
X150943809Y-107371976D02*
X150943809Y-107729119D01*
X150943809Y-107729119D02*
X150824761Y-108205309D01*
X150824761Y-108205309D02*
X150705714Y-108443404D01*
X150705714Y-108443404D02*
X150467619Y-108681500D01*
X150467619Y-108681500D02*
X150110476Y-108800547D01*
X150110476Y-108800547D02*
X149515238Y-108800547D01*
D13*
X133952381Y-56409638D02*
X133952381Y-54409638D01*
X134904762Y-56409638D02*
X134904762Y-54409638D01*
X134904762Y-54409638D02*
X136047619Y-56409638D01*
X136047619Y-56409638D02*
X136047619Y-54409638D01*
D12*
X146499999Y-55190428D02*
X147499999Y-55190428D01*
X147928571Y-56761857D02*
X146499999Y-56761857D01*
X146499999Y-56761857D02*
X146499999Y-53761857D01*
X146499999Y-53761857D02*
X147928571Y-53761857D01*
X149214285Y-56761857D02*
X149214285Y-53761857D01*
X149214285Y-53761857D02*
X150928571Y-56761857D01*
X150928571Y-56761857D02*
X150928571Y-53761857D01*
X151928571Y-53761857D02*
X152928571Y-56761857D01*
X152928571Y-56761857D02*
X153928571Y-53761857D01*
D13*
X162999999Y-69909638D02*
X163380952Y-69909638D01*
X163380952Y-69909638D02*
X163571428Y-70004876D01*
X163571428Y-70004876D02*
X163761904Y-70195352D01*
X163761904Y-70195352D02*
X163857142Y-70576304D01*
X163857142Y-70576304D02*
X163857142Y-71242971D01*
X163857142Y-71242971D02*
X163761904Y-71623923D01*
X163761904Y-71623923D02*
X163571428Y-71814400D01*
X163571428Y-71814400D02*
X163380952Y-71909638D01*
X163380952Y-71909638D02*
X162999999Y-71909638D01*
X162999999Y-71909638D02*
X162809523Y-71814400D01*
X162809523Y-71814400D02*
X162619047Y-71623923D01*
X162619047Y-71623923D02*
X162523809Y-71242971D01*
X162523809Y-71242971D02*
X162523809Y-70576304D01*
X162523809Y-70576304D02*
X162619047Y-70195352D01*
X162619047Y-70195352D02*
X162809523Y-70004876D01*
X162809523Y-70004876D02*
X162999999Y-69909638D01*
X164714285Y-69909638D02*
X164714285Y-71528685D01*
X164714285Y-71528685D02*
X164809523Y-71719161D01*
X164809523Y-71719161D02*
X164904761Y-71814400D01*
X164904761Y-71814400D02*
X165095237Y-71909638D01*
X165095237Y-71909638D02*
X165476190Y-71909638D01*
X165476190Y-71909638D02*
X165666666Y-71814400D01*
X165666666Y-71814400D02*
X165761904Y-71719161D01*
X165761904Y-71719161D02*
X165857142Y-71528685D01*
X165857142Y-71528685D02*
X165857142Y-69909638D01*
X166523809Y-69909638D02*
X167666666Y-69909638D01*
X167095237Y-71909638D02*
X167095237Y-69909638D01*
X162999999Y-54509638D02*
X163380952Y-54509638D01*
X163380952Y-54509638D02*
X163571428Y-54604876D01*
X163571428Y-54604876D02*
X163761904Y-54795352D01*
X163761904Y-54795352D02*
X163857142Y-55176304D01*
X163857142Y-55176304D02*
X163857142Y-55842971D01*
X163857142Y-55842971D02*
X163761904Y-56223923D01*
X163761904Y-56223923D02*
X163571428Y-56414400D01*
X163571428Y-56414400D02*
X163380952Y-56509638D01*
X163380952Y-56509638D02*
X162999999Y-56509638D01*
X162999999Y-56509638D02*
X162809523Y-56414400D01*
X162809523Y-56414400D02*
X162619047Y-56223923D01*
X162619047Y-56223923D02*
X162523809Y-55842971D01*
X162523809Y-55842971D02*
X162523809Y-55176304D01*
X162523809Y-55176304D02*
X162619047Y-54795352D01*
X162619047Y-54795352D02*
X162809523Y-54604876D01*
X162809523Y-54604876D02*
X162999999Y-54509638D01*
X164714285Y-54509638D02*
X164714285Y-56128685D01*
X164714285Y-56128685D02*
X164809523Y-56319161D01*
X164809523Y-56319161D02*
X164904761Y-56414400D01*
X164904761Y-56414400D02*
X165095237Y-56509638D01*
X165095237Y-56509638D02*
X165476190Y-56509638D01*
X165476190Y-56509638D02*
X165666666Y-56414400D01*
X165666666Y-56414400D02*
X165761904Y-56319161D01*
X165761904Y-56319161D02*
X165857142Y-56128685D01*
X165857142Y-56128685D02*
X165857142Y-54509638D01*
X166523809Y-54509638D02*
X167666666Y-54509638D01*
X167095237Y-56509638D02*
X167095237Y-54509638D01*
D14*
X149904761Y-72750057D02*
X149809523Y-72702438D01*
X149809523Y-72702438D02*
X149714285Y-72607200D01*
X149714285Y-72607200D02*
X149571428Y-72464342D01*
X149571428Y-72464342D02*
X149476190Y-72416723D01*
X149476190Y-72416723D02*
X149380952Y-72416723D01*
X149428571Y-72654819D02*
X149333333Y-72607200D01*
X149333333Y-72607200D02*
X149238095Y-72511961D01*
X149238095Y-72511961D02*
X149190476Y-72321485D01*
X149190476Y-72321485D02*
X149190476Y-71988152D01*
X149190476Y-71988152D02*
X149238095Y-71797676D01*
X149238095Y-71797676D02*
X149333333Y-71702438D01*
X149333333Y-71702438D02*
X149428571Y-71654819D01*
X149428571Y-71654819D02*
X149619047Y-71654819D01*
X149619047Y-71654819D02*
X149714285Y-71702438D01*
X149714285Y-71702438D02*
X149809523Y-71797676D01*
X149809523Y-71797676D02*
X149857142Y-71988152D01*
X149857142Y-71988152D02*
X149857142Y-72321485D01*
X149857142Y-72321485D02*
X149809523Y-72511961D01*
X149809523Y-72511961D02*
X149714285Y-72607200D01*
X149714285Y-72607200D02*
X149619047Y-72654819D01*
X149619047Y-72654819D02*
X149428571Y-72654819D01*
X150714285Y-71988152D02*
X150714285Y-72654819D01*
X150476190Y-71607200D02*
X150238095Y-72321485D01*
X150238095Y-72321485D02*
X150857142Y-72321485D01*
X170857142Y-85654819D02*
X170523809Y-85178628D01*
X170285714Y-85654819D02*
X170285714Y-84654819D01*
X170285714Y-84654819D02*
X170666666Y-84654819D01*
X170666666Y-84654819D02*
X170761904Y-84702438D01*
X170761904Y-84702438D02*
X170809523Y-84750057D01*
X170809523Y-84750057D02*
X170857142Y-84845295D01*
X170857142Y-84845295D02*
X170857142Y-84988152D01*
X170857142Y-84988152D02*
X170809523Y-85083390D01*
X170809523Y-85083390D02*
X170761904Y-85131009D01*
X170761904Y-85131009D02*
X170666666Y-85178628D01*
X170666666Y-85178628D02*
X170285714Y-85178628D01*
X171809523Y-85654819D02*
X171238095Y-85654819D01*
X171523809Y-85654819D02*
X171523809Y-84654819D01*
X171523809Y-84654819D02*
X171428571Y-84797676D01*
X171428571Y-84797676D02*
X171333333Y-84892914D01*
X171333333Y-84892914D02*
X171238095Y-84940533D01*
X172142857Y-84654819D02*
X172761904Y-84654819D01*
X172761904Y-84654819D02*
X172428571Y-85035771D01*
X172428571Y-85035771D02*
X172571428Y-85035771D01*
X172571428Y-85035771D02*
X172666666Y-85083390D01*
X172666666Y-85083390D02*
X172714285Y-85131009D01*
X172714285Y-85131009D02*
X172761904Y-85226247D01*
X172761904Y-85226247D02*
X172761904Y-85464342D01*
X172761904Y-85464342D02*
X172714285Y-85559580D01*
X172714285Y-85559580D02*
X172666666Y-85607200D01*
X172666666Y-85607200D02*
X172571428Y-85654819D01*
X172571428Y-85654819D02*
X172285714Y-85654819D01*
X172285714Y-85654819D02*
X172190476Y-85607200D01*
X172190476Y-85607200D02*
X172142857Y-85559580D01*
X159454819Y-101892857D02*
X158978628Y-102226190D01*
X159454819Y-102464285D02*
X158454819Y-102464285D01*
X158454819Y-102464285D02*
X158454819Y-102083333D01*
X158454819Y-102083333D02*
X158502438Y-101988095D01*
X158502438Y-101988095D02*
X158550057Y-101940476D01*
X158550057Y-101940476D02*
X158645295Y-101892857D01*
X158645295Y-101892857D02*
X158788152Y-101892857D01*
X158788152Y-101892857D02*
X158883390Y-101940476D01*
X158883390Y-101940476D02*
X158931009Y-101988095D01*
X158931009Y-101988095D02*
X158978628Y-102083333D01*
X158978628Y-102083333D02*
X158978628Y-102464285D01*
X159454819Y-100940476D02*
X159454819Y-101511904D01*
X159454819Y-101226190D02*
X158454819Y-101226190D01*
X158454819Y-101226190D02*
X158597676Y-101321428D01*
X158597676Y-101321428D02*
X158692914Y-101416666D01*
X158692914Y-101416666D02*
X158740533Y-101511904D01*
X158454819Y-100321428D02*
X158454819Y-100226190D01*
X158454819Y-100226190D02*
X158502438Y-100130952D01*
X158502438Y-100130952D02*
X158550057Y-100083333D01*
X158550057Y-100083333D02*
X158645295Y-100035714D01*
X158645295Y-100035714D02*
X158835771Y-99988095D01*
X158835771Y-99988095D02*
X159073866Y-99988095D01*
X159073866Y-99988095D02*
X159264342Y-100035714D01*
X159264342Y-100035714D02*
X159359580Y-100083333D01*
X159359580Y-100083333D02*
X159407200Y-100130952D01*
X159407200Y-100130952D02*
X159454819Y-100226190D01*
X159454819Y-100226190D02*
X159454819Y-100321428D01*
X159454819Y-100321428D02*
X159407200Y-100416666D01*
X159407200Y-100416666D02*
X159359580Y-100464285D01*
X159359580Y-100464285D02*
X159264342Y-100511904D01*
X159264342Y-100511904D02*
X159073866Y-100559523D01*
X159073866Y-100559523D02*
X158835771Y-100559523D01*
X158835771Y-100559523D02*
X158645295Y-100511904D01*
X158645295Y-100511904D02*
X158550057Y-100464285D01*
X158550057Y-100464285D02*
X158502438Y-100416666D01*
X158502438Y-100416666D02*
X158454819Y-100321428D01*
X138404761Y-128954819D02*
X138071428Y-128478628D01*
X137833333Y-128954819D02*
X137833333Y-127954819D01*
X137833333Y-127954819D02*
X138214285Y-127954819D01*
X138214285Y-127954819D02*
X138309523Y-128002438D01*
X138309523Y-128002438D02*
X138357142Y-128050057D01*
X138357142Y-128050057D02*
X138404761Y-128145295D01*
X138404761Y-128145295D02*
X138404761Y-128288152D01*
X138404761Y-128288152D02*
X138357142Y-128383390D01*
X138357142Y-128383390D02*
X138309523Y-128431009D01*
X138309523Y-128431009D02*
X138214285Y-128478628D01*
X138214285Y-128478628D02*
X137833333Y-128478628D01*
X138690476Y-127954819D02*
X139023809Y-128954819D01*
X139023809Y-128954819D02*
X139357142Y-127954819D01*
X139642857Y-128050057D02*
X139690476Y-128002438D01*
X139690476Y-128002438D02*
X139785714Y-127954819D01*
X139785714Y-127954819D02*
X140023809Y-127954819D01*
X140023809Y-127954819D02*
X140119047Y-128002438D01*
X140119047Y-128002438D02*
X140166666Y-128050057D01*
X140166666Y-128050057D02*
X140214285Y-128145295D01*
X140214285Y-128145295D02*
X140214285Y-128240533D01*
X140214285Y-128240533D02*
X140166666Y-128383390D01*
X140166666Y-128383390D02*
X139595238Y-128954819D01*
X139595238Y-128954819D02*
X140214285Y-128954819D01*
X144554819Y-112095238D02*
X144078628Y-112428571D01*
X144554819Y-112666666D02*
X143554819Y-112666666D01*
X143554819Y-112666666D02*
X143554819Y-112285714D01*
X143554819Y-112285714D02*
X143602438Y-112190476D01*
X143602438Y-112190476D02*
X143650057Y-112142857D01*
X143650057Y-112142857D02*
X143745295Y-112095238D01*
X143745295Y-112095238D02*
X143888152Y-112095238D01*
X143888152Y-112095238D02*
X143983390Y-112142857D01*
X143983390Y-112142857D02*
X144031009Y-112190476D01*
X144031009Y-112190476D02*
X144078628Y-112285714D01*
X144078628Y-112285714D02*
X144078628Y-112666666D01*
X143554819Y-111809523D02*
X144554819Y-111476190D01*
X144554819Y-111476190D02*
X143554819Y-111142857D01*
X143888152Y-110380952D02*
X144554819Y-110380952D01*
X143507200Y-110619047D02*
X144221485Y-110857142D01*
X144221485Y-110857142D02*
X144221485Y-110238095D01*
X164303094Y-92024819D02*
X164303094Y-92834342D01*
X164303094Y-92834342D02*
X164350713Y-92929580D01*
X164350713Y-92929580D02*
X164398332Y-92977200D01*
X164398332Y-92977200D02*
X164493570Y-93024819D01*
X164493570Y-93024819D02*
X164684046Y-93024819D01*
X164684046Y-93024819D02*
X164779284Y-92977200D01*
X164779284Y-92977200D02*
X164826903Y-92929580D01*
X164826903Y-92929580D02*
X164874522Y-92834342D01*
X164874522Y-92834342D02*
X164874522Y-92024819D01*
X165255475Y-92024819D02*
X165874522Y-92024819D01*
X165874522Y-92024819D02*
X165541189Y-92405771D01*
X165541189Y-92405771D02*
X165684046Y-92405771D01*
X165684046Y-92405771D02*
X165779284Y-92453390D01*
X165779284Y-92453390D02*
X165826903Y-92501009D01*
X165826903Y-92501009D02*
X165874522Y-92596247D01*
X165874522Y-92596247D02*
X165874522Y-92834342D01*
X165874522Y-92834342D02*
X165826903Y-92929580D01*
X165826903Y-92929580D02*
X165779284Y-92977200D01*
X165779284Y-92977200D02*
X165684046Y-93024819D01*
X165684046Y-93024819D02*
X165398332Y-93024819D01*
X165398332Y-93024819D02*
X165303094Y-92977200D01*
X165303094Y-92977200D02*
X165255475Y-92929580D01*
X144987067Y-94388200D02*
X145853093Y-93888200D01*
X145853093Y-93888200D02*
X145972140Y-94094397D01*
X145972140Y-94094397D02*
X146002330Y-94241924D01*
X146002330Y-94241924D02*
X145967470Y-94372022D01*
X145967470Y-94372022D02*
X145908801Y-94460880D01*
X145908801Y-94460880D02*
X145767653Y-94597358D01*
X145767653Y-94597358D02*
X145643935Y-94668786D01*
X145643935Y-94668786D02*
X145455169Y-94722785D01*
X145455169Y-94722785D02*
X145348880Y-94729165D01*
X145348880Y-94729165D02*
X145218783Y-94694305D01*
X145218783Y-94694305D02*
X145106115Y-94594397D01*
X145106115Y-94594397D02*
X144987067Y-94388200D01*
X145748972Y-95707858D02*
X145463258Y-95212986D01*
X145606115Y-95460422D02*
X146472140Y-94960422D01*
X146472140Y-94960422D02*
X146300803Y-94949372D01*
X146300803Y-94949372D02*
X146170706Y-94914513D01*
X146170706Y-94914513D02*
X146081847Y-94855843D01*
X143821316Y-100250149D02*
X144687342Y-99750149D01*
X144107031Y-100745021D02*
X144387617Y-100088152D01*
X144973056Y-100245021D02*
X144192470Y-100035863D01*
X141359581Y-77666666D02*
X141407201Y-77714285D01*
X141407201Y-77714285D02*
X141454820Y-77857142D01*
X141454820Y-77857142D02*
X141454820Y-77952380D01*
X141454820Y-77952380D02*
X141407201Y-78095237D01*
X141407201Y-78095237D02*
X141311962Y-78190475D01*
X141311962Y-78190475D02*
X141216724Y-78238094D01*
X141216724Y-78238094D02*
X141026248Y-78285713D01*
X141026248Y-78285713D02*
X140883391Y-78285713D01*
X140883391Y-78285713D02*
X140692915Y-78238094D01*
X140692915Y-78238094D02*
X140597677Y-78190475D01*
X140597677Y-78190475D02*
X140502439Y-78095237D01*
X140502439Y-78095237D02*
X140454820Y-77952380D01*
X140454820Y-77952380D02*
X140454820Y-77857142D01*
X140454820Y-77857142D02*
X140502439Y-77714285D01*
X140502439Y-77714285D02*
X140550058Y-77666666D01*
X140454820Y-77333332D02*
X140454820Y-76714285D01*
X140454820Y-76714285D02*
X140835772Y-77047618D01*
X140835772Y-77047618D02*
X140835772Y-76904761D01*
X140835772Y-76904761D02*
X140883391Y-76809523D01*
X140883391Y-76809523D02*
X140931010Y-76761904D01*
X140931010Y-76761904D02*
X141026248Y-76714285D01*
X141026248Y-76714285D02*
X141264343Y-76714285D01*
X141264343Y-76714285D02*
X141359581Y-76761904D01*
X141359581Y-76761904D02*
X141407201Y-76809523D01*
X141407201Y-76809523D02*
X141454820Y-76904761D01*
X141454820Y-76904761D02*
X141454820Y-77190475D01*
X141454820Y-77190475D02*
X141407201Y-77285713D01*
X141407201Y-77285713D02*
X141359581Y-77333332D01*
X167454819Y-101916666D02*
X166978628Y-102249999D01*
X167454819Y-102488094D02*
X166454819Y-102488094D01*
X166454819Y-102488094D02*
X166454819Y-102107142D01*
X166454819Y-102107142D02*
X166502438Y-102011904D01*
X166502438Y-102011904D02*
X166550057Y-101964285D01*
X166550057Y-101964285D02*
X166645295Y-101916666D01*
X166645295Y-101916666D02*
X166788152Y-101916666D01*
X166788152Y-101916666D02*
X166883390Y-101964285D01*
X166883390Y-101964285D02*
X166931009Y-102011904D01*
X166931009Y-102011904D02*
X166978628Y-102107142D01*
X166978628Y-102107142D02*
X166978628Y-102488094D01*
X166883390Y-101345237D02*
X166835771Y-101440475D01*
X166835771Y-101440475D02*
X166788152Y-101488094D01*
X166788152Y-101488094D02*
X166692914Y-101535713D01*
X166692914Y-101535713D02*
X166645295Y-101535713D01*
X166645295Y-101535713D02*
X166550057Y-101488094D01*
X166550057Y-101488094D02*
X166502438Y-101440475D01*
X166502438Y-101440475D02*
X166454819Y-101345237D01*
X166454819Y-101345237D02*
X166454819Y-101154761D01*
X166454819Y-101154761D02*
X166502438Y-101059523D01*
X166502438Y-101059523D02*
X166550057Y-101011904D01*
X166550057Y-101011904D02*
X166645295Y-100964285D01*
X166645295Y-100964285D02*
X166692914Y-100964285D01*
X166692914Y-100964285D02*
X166788152Y-101011904D01*
X166788152Y-101011904D02*
X166835771Y-101059523D01*
X166835771Y-101059523D02*
X166883390Y-101154761D01*
X166883390Y-101154761D02*
X166883390Y-101345237D01*
X166883390Y-101345237D02*
X166931009Y-101440475D01*
X166931009Y-101440475D02*
X166978628Y-101488094D01*
X166978628Y-101488094D02*
X167073866Y-101535713D01*
X167073866Y-101535713D02*
X167264342Y-101535713D01*
X167264342Y-101535713D02*
X167359580Y-101488094D01*
X167359580Y-101488094D02*
X167407200Y-101440475D01*
X167407200Y-101440475D02*
X167454819Y-101345237D01*
X167454819Y-101345237D02*
X167454819Y-101154761D01*
X167454819Y-101154761D02*
X167407200Y-101059523D01*
X167407200Y-101059523D02*
X167359580Y-101011904D01*
X167359580Y-101011904D02*
X167264342Y-100964285D01*
X167264342Y-100964285D02*
X167073866Y-100964285D01*
X167073866Y-100964285D02*
X166978628Y-101011904D01*
X166978628Y-101011904D02*
X166931009Y-101059523D01*
X166931009Y-101059523D02*
X166883390Y-101154761D01*
X149303094Y-122024819D02*
X149303094Y-122834342D01*
X149303094Y-122834342D02*
X149350713Y-122929580D01*
X149350713Y-122929580D02*
X149398332Y-122977200D01*
X149398332Y-122977200D02*
X149493570Y-123024819D01*
X149493570Y-123024819D02*
X149684046Y-123024819D01*
X149684046Y-123024819D02*
X149779284Y-122977200D01*
X149779284Y-122977200D02*
X149826903Y-122929580D01*
X149826903Y-122929580D02*
X149874522Y-122834342D01*
X149874522Y-122834342D02*
X149874522Y-122024819D01*
X150874522Y-123024819D02*
X150303094Y-123024819D01*
X150588808Y-123024819D02*
X150588808Y-122024819D01*
X150588808Y-122024819D02*
X150493570Y-122167676D01*
X150493570Y-122167676D02*
X150398332Y-122262914D01*
X150398332Y-122262914D02*
X150303094Y-122310533D01*
X169854819Y-73803333D02*
X170569104Y-73803333D01*
X170569104Y-73803333D02*
X170711961Y-73850952D01*
X170711961Y-73850952D02*
X170807200Y-73946190D01*
X170807200Y-73946190D02*
X170854819Y-74089047D01*
X170854819Y-74089047D02*
X170854819Y-74184285D01*
X169854819Y-73422380D02*
X169854819Y-72803333D01*
X169854819Y-72803333D02*
X170235771Y-73136666D01*
X170235771Y-73136666D02*
X170235771Y-72993809D01*
X170235771Y-72993809D02*
X170283390Y-72898571D01*
X170283390Y-72898571D02*
X170331009Y-72850952D01*
X170331009Y-72850952D02*
X170426247Y-72803333D01*
X170426247Y-72803333D02*
X170664342Y-72803333D01*
X170664342Y-72803333D02*
X170759580Y-72850952D01*
X170759580Y-72850952D02*
X170807200Y-72898571D01*
X170807200Y-72898571D02*
X170854819Y-72993809D01*
X170854819Y-72993809D02*
X170854819Y-73279523D01*
X170854819Y-73279523D02*
X170807200Y-73374761D01*
X170807200Y-73374761D02*
X170759580Y-73422380D01*
X131666666Y-140454819D02*
X131666666Y-141169104D01*
X131666666Y-141169104D02*
X131619047Y-141311961D01*
X131619047Y-141311961D02*
X131523809Y-141407200D01*
X131523809Y-141407200D02*
X131380952Y-141454819D01*
X131380952Y-141454819D02*
X131285714Y-141454819D01*
X132571428Y-140788152D02*
X132571428Y-141454819D01*
X132333333Y-140407200D02*
X132095238Y-141121485D01*
X132095238Y-141121485D02*
X132714285Y-141121485D01*
X155810862Y-88987549D02*
X155804482Y-88881261D01*
X155804482Y-88881261D02*
X155839342Y-88751164D01*
X155839342Y-88751164D02*
X155891631Y-88556017D01*
X155891631Y-88556017D02*
X155885251Y-88449729D01*
X155885251Y-88449729D02*
X155837632Y-88367250D01*
X155655245Y-88527537D02*
X155648866Y-88421249D01*
X155648866Y-88421249D02*
X155683725Y-88291152D01*
X155683725Y-88291152D02*
X155824873Y-88154674D01*
X155824873Y-88154674D02*
X156113548Y-87988008D01*
X156113548Y-87988008D02*
X156302315Y-87934009D01*
X156302315Y-87934009D02*
X156432412Y-87968868D01*
X156432412Y-87968868D02*
X156521271Y-88027537D01*
X156521271Y-88027537D02*
X156616509Y-88192495D01*
X156616509Y-88192495D02*
X156622889Y-88298783D01*
X156622889Y-88298783D02*
X156588029Y-88428880D01*
X156588029Y-88428880D02*
X156446881Y-88565358D01*
X156446881Y-88565358D02*
X156158206Y-88732024D01*
X156158206Y-88732024D02*
X155969439Y-88786023D01*
X155969439Y-88786023D02*
X155839342Y-88751164D01*
X155839342Y-88751164D02*
X155750483Y-88692495D01*
X155750483Y-88692495D02*
X155655245Y-88527537D01*
X156843554Y-88776225D02*
X156908603Y-88793654D01*
X156908603Y-88793654D02*
X156997461Y-88852323D01*
X156997461Y-88852323D02*
X157116509Y-89058520D01*
X157116509Y-89058520D02*
X157122889Y-89164808D01*
X157122889Y-89164808D02*
X157105459Y-89229857D01*
X157105459Y-89229857D02*
X157046790Y-89318715D01*
X157046790Y-89318715D02*
X156964311Y-89366334D01*
X156964311Y-89366334D02*
X156816784Y-89396524D01*
X156816784Y-89396524D02*
X156036198Y-89187366D01*
X156036198Y-89187366D02*
X156345722Y-89723477D01*
X169854819Y-58803333D02*
X170569104Y-58803333D01*
X170569104Y-58803333D02*
X170711961Y-58850952D01*
X170711961Y-58850952D02*
X170807200Y-58946190D01*
X170807200Y-58946190D02*
X170854819Y-59089047D01*
X170854819Y-59089047D02*
X170854819Y-59184285D01*
X169950057Y-58374761D02*
X169902438Y-58327142D01*
X169902438Y-58327142D02*
X169854819Y-58231904D01*
X169854819Y-58231904D02*
X169854819Y-57993809D01*
X169854819Y-57993809D02*
X169902438Y-57898571D01*
X169902438Y-57898571D02*
X169950057Y-57850952D01*
X169950057Y-57850952D02*
X170045295Y-57803333D01*
X170045295Y-57803333D02*
X170140533Y-57803333D01*
X170140533Y-57803333D02*
X170283390Y-57850952D01*
X170283390Y-57850952D02*
X170854819Y-58422380D01*
X170854819Y-58422380D02*
X170854819Y-57803333D01*
X149833333Y-87864819D02*
X149500000Y-87388628D01*
X149261905Y-87864819D02*
X149261905Y-86864819D01*
X149261905Y-86864819D02*
X149642857Y-86864819D01*
X149642857Y-86864819D02*
X149738095Y-86912438D01*
X149738095Y-86912438D02*
X149785714Y-86960057D01*
X149785714Y-86960057D02*
X149833333Y-87055295D01*
X149833333Y-87055295D02*
X149833333Y-87198152D01*
X149833333Y-87198152D02*
X149785714Y-87293390D01*
X149785714Y-87293390D02*
X149738095Y-87341009D01*
X149738095Y-87341009D02*
X149642857Y-87388628D01*
X149642857Y-87388628D02*
X149261905Y-87388628D01*
X150690476Y-87198152D02*
X150690476Y-87864819D01*
X150452381Y-86817200D02*
X150214286Y-87531485D01*
X150214286Y-87531485D02*
X150833333Y-87531485D01*
X137454818Y-101666666D02*
X136978627Y-101999999D01*
X137454818Y-102238094D02*
X136454818Y-102238094D01*
X136454818Y-102238094D02*
X136454818Y-101857142D01*
X136454818Y-101857142D02*
X136502437Y-101761904D01*
X136502437Y-101761904D02*
X136550056Y-101714285D01*
X136550056Y-101714285D02*
X136645294Y-101666666D01*
X136645294Y-101666666D02*
X136788151Y-101666666D01*
X136788151Y-101666666D02*
X136883389Y-101714285D01*
X136883389Y-101714285D02*
X136931008Y-101761904D01*
X136931008Y-101761904D02*
X136978627Y-101857142D01*
X136978627Y-101857142D02*
X136978627Y-102238094D01*
X136454818Y-100809523D02*
X136454818Y-100999999D01*
X136454818Y-100999999D02*
X136502437Y-101095237D01*
X136502437Y-101095237D02*
X136550056Y-101142856D01*
X136550056Y-101142856D02*
X136692913Y-101238094D01*
X136692913Y-101238094D02*
X136883389Y-101285713D01*
X136883389Y-101285713D02*
X137264341Y-101285713D01*
X137264341Y-101285713D02*
X137359579Y-101238094D01*
X137359579Y-101238094D02*
X137407199Y-101190475D01*
X137407199Y-101190475D02*
X137454818Y-101095237D01*
X137454818Y-101095237D02*
X137454818Y-100904761D01*
X137454818Y-100904761D02*
X137407199Y-100809523D01*
X137407199Y-100809523D02*
X137359579Y-100761904D01*
X137359579Y-100761904D02*
X137264341Y-100714285D01*
X137264341Y-100714285D02*
X137026246Y-100714285D01*
X137026246Y-100714285D02*
X136931008Y-100761904D01*
X136931008Y-100761904D02*
X136883389Y-100809523D01*
X136883389Y-100809523D02*
X136835770Y-100904761D01*
X136835770Y-100904761D02*
X136835770Y-101095237D01*
X136835770Y-101095237D02*
X136883389Y-101190475D01*
X136883389Y-101190475D02*
X136931008Y-101238094D01*
X136931008Y-101238094D02*
X137026246Y-101285713D01*
X141454819Y-101666665D02*
X140978628Y-101999998D01*
X141454819Y-102238093D02*
X140454819Y-102238093D01*
X140454819Y-102238093D02*
X140454819Y-101857141D01*
X140454819Y-101857141D02*
X140502438Y-101761903D01*
X140502438Y-101761903D02*
X140550057Y-101714284D01*
X140550057Y-101714284D02*
X140645295Y-101666665D01*
X140645295Y-101666665D02*
X140788152Y-101666665D01*
X140788152Y-101666665D02*
X140883390Y-101714284D01*
X140883390Y-101714284D02*
X140931009Y-101761903D01*
X140931009Y-101761903D02*
X140978628Y-101857141D01*
X140978628Y-101857141D02*
X140978628Y-102238093D01*
X141454819Y-101190474D02*
X141454819Y-100999998D01*
X141454819Y-100999998D02*
X141407200Y-100904760D01*
X141407200Y-100904760D02*
X141359580Y-100857141D01*
X141359580Y-100857141D02*
X141216723Y-100761903D01*
X141216723Y-100761903D02*
X141026247Y-100714284D01*
X141026247Y-100714284D02*
X140645295Y-100714284D01*
X140645295Y-100714284D02*
X140550057Y-100761903D01*
X140550057Y-100761903D02*
X140502438Y-100809522D01*
X140502438Y-100809522D02*
X140454819Y-100904760D01*
X140454819Y-100904760D02*
X140454819Y-101095236D01*
X140454819Y-101095236D02*
X140502438Y-101190474D01*
X140502438Y-101190474D02*
X140550057Y-101238093D01*
X140550057Y-101238093D02*
X140645295Y-101285712D01*
X140645295Y-101285712D02*
X140883390Y-101285712D01*
X140883390Y-101285712D02*
X140978628Y-101238093D01*
X140978628Y-101238093D02*
X141026247Y-101190474D01*
X141026247Y-101190474D02*
X141073866Y-101095236D01*
X141073866Y-101095236D02*
X141073866Y-100904760D01*
X141073866Y-100904760D02*
X141026247Y-100809522D01*
X141026247Y-100809522D02*
X140978628Y-100761903D01*
X140978628Y-100761903D02*
X140883390Y-100714284D01*
X144093899Y-89177508D02*
X144005041Y-89236177D01*
X144005041Y-89236177D02*
X143874943Y-89271036D01*
X143874943Y-89271036D02*
X143679796Y-89323326D01*
X143679796Y-89323326D02*
X143590938Y-89381995D01*
X143590938Y-89381995D02*
X143543319Y-89464473D01*
X143773325Y-89542282D02*
X143684467Y-89600951D01*
X143684467Y-89600951D02*
X143554369Y-89635810D01*
X143554369Y-89635810D02*
X143365602Y-89581812D01*
X143365602Y-89581812D02*
X143076927Y-89415145D01*
X143076927Y-89415145D02*
X142935779Y-89278667D01*
X142935779Y-89278667D02*
X142900920Y-89148570D01*
X142900920Y-89148570D02*
X142907300Y-89042282D01*
X142907300Y-89042282D02*
X143002538Y-88877324D01*
X143002538Y-88877324D02*
X143091396Y-88818655D01*
X143091396Y-88818655D02*
X143221494Y-88783796D01*
X143221494Y-88783796D02*
X143410261Y-88837795D01*
X143410261Y-88837795D02*
X143698936Y-89004461D01*
X143698936Y-89004461D02*
X143840083Y-89140939D01*
X143840083Y-89140939D02*
X143874943Y-89271036D01*
X143874943Y-89271036D02*
X143868563Y-89377324D01*
X143868563Y-89377324D02*
X143773325Y-89542282D01*
X144463801Y-88346342D02*
X144178087Y-88841214D01*
X144320944Y-88593778D02*
X143454919Y-88093778D01*
X143454919Y-88093778D02*
X143531018Y-88247685D01*
X143531018Y-88247685D02*
X143565877Y-88377783D01*
X143565877Y-88377783D02*
X143559497Y-88484071D01*
X157054819Y-69642857D02*
X156578628Y-69976190D01*
X157054819Y-70214285D02*
X156054819Y-70214285D01*
X156054819Y-70214285D02*
X156054819Y-69833333D01*
X156054819Y-69833333D02*
X156102438Y-69738095D01*
X156102438Y-69738095D02*
X156150057Y-69690476D01*
X156150057Y-69690476D02*
X156245295Y-69642857D01*
X156245295Y-69642857D02*
X156388152Y-69642857D01*
X156388152Y-69642857D02*
X156483390Y-69690476D01*
X156483390Y-69690476D02*
X156531009Y-69738095D01*
X156531009Y-69738095D02*
X156578628Y-69833333D01*
X156578628Y-69833333D02*
X156578628Y-70214285D01*
X157054819Y-68690476D02*
X157054819Y-69261904D01*
X157054819Y-68976190D02*
X156054819Y-68976190D01*
X156054819Y-68976190D02*
X156197676Y-69071428D01*
X156197676Y-69071428D02*
X156292914Y-69166666D01*
X156292914Y-69166666D02*
X156340533Y-69261904D01*
X157054819Y-67738095D02*
X157054819Y-68309523D01*
X157054819Y-68023809D02*
X156054819Y-68023809D01*
X156054819Y-68023809D02*
X156197676Y-68119047D01*
X156197676Y-68119047D02*
X156292914Y-68214285D01*
X156292914Y-68214285D02*
X156340533Y-68309523D01*
X171454819Y-102488095D02*
X170454819Y-102488095D01*
X170454819Y-102488095D02*
X170454819Y-102250000D01*
X170454819Y-102250000D02*
X170502438Y-102107143D01*
X170502438Y-102107143D02*
X170597676Y-102011905D01*
X170597676Y-102011905D02*
X170692914Y-101964286D01*
X170692914Y-101964286D02*
X170883390Y-101916667D01*
X170883390Y-101916667D02*
X171026247Y-101916667D01*
X171026247Y-101916667D02*
X171216723Y-101964286D01*
X171216723Y-101964286D02*
X171311961Y-102011905D01*
X171311961Y-102011905D02*
X171407200Y-102107143D01*
X171407200Y-102107143D02*
X171454819Y-102250000D01*
X171454819Y-102250000D02*
X171454819Y-102488095D01*
X170788152Y-101059524D02*
X171454819Y-101059524D01*
X170407200Y-101297619D02*
X171121485Y-101535714D01*
X171121485Y-101535714D02*
X171121485Y-100916667D01*
X173454819Y-104201905D02*
X172454819Y-104201905D01*
X173454819Y-103630477D02*
X172883390Y-104059048D01*
X172454819Y-103630477D02*
X173026247Y-104201905D01*
X143854819Y-68916667D02*
X143378628Y-69250000D01*
X143854819Y-69488095D02*
X142854819Y-69488095D01*
X142854819Y-69488095D02*
X142854819Y-69107143D01*
X142854819Y-69107143D02*
X142902438Y-69011905D01*
X142902438Y-69011905D02*
X142950057Y-68964286D01*
X142950057Y-68964286D02*
X143045295Y-68916667D01*
X143045295Y-68916667D02*
X143188152Y-68916667D01*
X143188152Y-68916667D02*
X143283390Y-68964286D01*
X143283390Y-68964286D02*
X143331009Y-69011905D01*
X143331009Y-69011905D02*
X143378628Y-69107143D01*
X143378628Y-69107143D02*
X143378628Y-69488095D01*
X142950057Y-68535714D02*
X142902438Y-68488095D01*
X142902438Y-68488095D02*
X142854819Y-68392857D01*
X142854819Y-68392857D02*
X142854819Y-68154762D01*
X142854819Y-68154762D02*
X142902438Y-68059524D01*
X142902438Y-68059524D02*
X142950057Y-68011905D01*
X142950057Y-68011905D02*
X143045295Y-67964286D01*
X143045295Y-67964286D02*
X143140533Y-67964286D01*
X143140533Y-67964286D02*
X143283390Y-68011905D01*
X143283390Y-68011905D02*
X143854819Y-68583333D01*
X143854819Y-68583333D02*
X143854819Y-67964286D01*
X157104819Y-83616666D02*
X156628628Y-83949999D01*
X157104819Y-84188094D02*
X156104819Y-84188094D01*
X156104819Y-84188094D02*
X156104819Y-83807142D01*
X156104819Y-83807142D02*
X156152438Y-83711904D01*
X156152438Y-83711904D02*
X156200057Y-83664285D01*
X156200057Y-83664285D02*
X156295295Y-83616666D01*
X156295295Y-83616666D02*
X156438152Y-83616666D01*
X156438152Y-83616666D02*
X156533390Y-83664285D01*
X156533390Y-83664285D02*
X156581009Y-83711904D01*
X156581009Y-83711904D02*
X156628628Y-83807142D01*
X156628628Y-83807142D02*
X156628628Y-84188094D01*
X156104819Y-83283332D02*
X156104819Y-82664285D01*
X156104819Y-82664285D02*
X156485771Y-82997618D01*
X156485771Y-82997618D02*
X156485771Y-82854761D01*
X156485771Y-82854761D02*
X156533390Y-82759523D01*
X156533390Y-82759523D02*
X156581009Y-82711904D01*
X156581009Y-82711904D02*
X156676247Y-82664285D01*
X156676247Y-82664285D02*
X156914342Y-82664285D01*
X156914342Y-82664285D02*
X157009580Y-82711904D01*
X157009580Y-82711904D02*
X157057200Y-82759523D01*
X157057200Y-82759523D02*
X157104819Y-82854761D01*
X157104819Y-82854761D02*
X157104819Y-83140475D01*
X157104819Y-83140475D02*
X157057200Y-83235713D01*
X157057200Y-83235713D02*
X157009580Y-83283332D01*
X154478073Y-95124127D02*
X154495502Y-95189176D01*
X154495502Y-95189176D02*
X154465313Y-95336703D01*
X154465313Y-95336703D02*
X154417694Y-95419182D01*
X154417694Y-95419182D02*
X154305026Y-95519090D01*
X154305026Y-95519090D02*
X154174929Y-95553950D01*
X154174929Y-95553950D02*
X154068640Y-95547570D01*
X154068640Y-95547570D02*
X153879874Y-95493571D01*
X153879874Y-95493571D02*
X153756156Y-95422143D01*
X153756156Y-95422143D02*
X153615008Y-95285665D01*
X153615008Y-95285665D02*
X153556339Y-95196807D01*
X153556339Y-95196807D02*
X153521479Y-95066709D01*
X153521479Y-95066709D02*
X153551669Y-94919182D01*
X153551669Y-94919182D02*
X153599288Y-94836703D01*
X153599288Y-94836703D02*
X153711956Y-94736795D01*
X153711956Y-94736795D02*
X153777004Y-94719365D01*
X155036742Y-94346960D02*
X154751027Y-94841832D01*
X154893885Y-94594396D02*
X154027859Y-94094396D01*
X154027859Y-94094396D02*
X154103958Y-94248303D01*
X154103958Y-94248303D02*
X154138818Y-94378401D01*
X154138818Y-94378401D02*
X154132438Y-94484689D01*
X163454819Y-101916665D02*
X162978628Y-102249998D01*
X163454819Y-102488093D02*
X162454819Y-102488093D01*
X162454819Y-102488093D02*
X162454819Y-102107141D01*
X162454819Y-102107141D02*
X162502438Y-102011903D01*
X162502438Y-102011903D02*
X162550057Y-101964284D01*
X162550057Y-101964284D02*
X162645295Y-101916665D01*
X162645295Y-101916665D02*
X162788152Y-101916665D01*
X162788152Y-101916665D02*
X162883390Y-101964284D01*
X162883390Y-101964284D02*
X162931009Y-102011903D01*
X162931009Y-102011903D02*
X162978628Y-102107141D01*
X162978628Y-102107141D02*
X162978628Y-102488093D01*
X162454819Y-101011903D02*
X162454819Y-101488093D01*
X162454819Y-101488093D02*
X162931009Y-101535712D01*
X162931009Y-101535712D02*
X162883390Y-101488093D01*
X162883390Y-101488093D02*
X162835771Y-101392855D01*
X162835771Y-101392855D02*
X162835771Y-101154760D01*
X162835771Y-101154760D02*
X162883390Y-101059522D01*
X162883390Y-101059522D02*
X162931009Y-101011903D01*
X162931009Y-101011903D02*
X163026247Y-100964284D01*
X163026247Y-100964284D02*
X163264342Y-100964284D01*
X163264342Y-100964284D02*
X163359580Y-101011903D01*
X163359580Y-101011903D02*
X163407200Y-101059522D01*
X163407200Y-101059522D02*
X163454819Y-101154760D01*
X163454819Y-101154760D02*
X163454819Y-101392855D01*
X163454819Y-101392855D02*
X163407200Y-101488093D01*
X163407200Y-101488093D02*
X163359580Y-101535712D01*
X149904761Y-100250057D02*
X149809523Y-100202438D01*
X149809523Y-100202438D02*
X149714285Y-100107200D01*
X149714285Y-100107200D02*
X149571428Y-99964342D01*
X149571428Y-99964342D02*
X149476190Y-99916723D01*
X149476190Y-99916723D02*
X149380952Y-99916723D01*
X149428571Y-100154819D02*
X149333333Y-100107200D01*
X149333333Y-100107200D02*
X149238095Y-100011961D01*
X149238095Y-100011961D02*
X149190476Y-99821485D01*
X149190476Y-99821485D02*
X149190476Y-99488152D01*
X149190476Y-99488152D02*
X149238095Y-99297676D01*
X149238095Y-99297676D02*
X149333333Y-99202438D01*
X149333333Y-99202438D02*
X149428571Y-99154819D01*
X149428571Y-99154819D02*
X149619047Y-99154819D01*
X149619047Y-99154819D02*
X149714285Y-99202438D01*
X149714285Y-99202438D02*
X149809523Y-99297676D01*
X149809523Y-99297676D02*
X149857142Y-99488152D01*
X149857142Y-99488152D02*
X149857142Y-99821485D01*
X149857142Y-99821485D02*
X149809523Y-100011961D01*
X149809523Y-100011961D02*
X149714285Y-100107200D01*
X149714285Y-100107200D02*
X149619047Y-100154819D01*
X149619047Y-100154819D02*
X149428571Y-100154819D01*
X150190476Y-99154819D02*
X150809523Y-99154819D01*
X150809523Y-99154819D02*
X150476190Y-99535771D01*
X150476190Y-99535771D02*
X150619047Y-99535771D01*
X150619047Y-99535771D02*
X150714285Y-99583390D01*
X150714285Y-99583390D02*
X150761904Y-99631009D01*
X150761904Y-99631009D02*
X150809523Y-99726247D01*
X150809523Y-99726247D02*
X150809523Y-99964342D01*
X150809523Y-99964342D02*
X150761904Y-100059580D01*
X150761904Y-100059580D02*
X150714285Y-100107200D01*
X150714285Y-100107200D02*
X150619047Y-100154819D01*
X150619047Y-100154819D02*
X150333333Y-100154819D01*
X150333333Y-100154819D02*
X150238095Y-100107200D01*
X150238095Y-100107200D02*
X150190476Y-100059580D01*
X129454819Y-102238094D02*
X128454819Y-102238094D01*
X128454819Y-102238094D02*
X128454819Y-101999999D01*
X128454819Y-101999999D02*
X128502438Y-101857142D01*
X128502438Y-101857142D02*
X128597676Y-101761904D01*
X128597676Y-101761904D02*
X128692914Y-101714285D01*
X128692914Y-101714285D02*
X128883390Y-101666666D01*
X128883390Y-101666666D02*
X129026247Y-101666666D01*
X129026247Y-101666666D02*
X129216723Y-101714285D01*
X129216723Y-101714285D02*
X129311961Y-101761904D01*
X129311961Y-101761904D02*
X129407200Y-101857142D01*
X129407200Y-101857142D02*
X129454819Y-101999999D01*
X129454819Y-101999999D02*
X129454819Y-102238094D01*
X128550057Y-101285713D02*
X128502438Y-101238094D01*
X128502438Y-101238094D02*
X128454819Y-101142856D01*
X128454819Y-101142856D02*
X128454819Y-100904761D01*
X128454819Y-100904761D02*
X128502438Y-100809523D01*
X128502438Y-100809523D02*
X128550057Y-100761904D01*
X128550057Y-100761904D02*
X128645295Y-100714285D01*
X128645295Y-100714285D02*
X128740533Y-100714285D01*
X128740533Y-100714285D02*
X128883390Y-100761904D01*
X128883390Y-100761904D02*
X129454819Y-101333332D01*
X129454819Y-101333332D02*
X129454819Y-100714285D01*
X127654819Y-111571904D02*
X126654819Y-111571904D01*
X127654819Y-111000476D02*
X127083390Y-111429047D01*
X126654819Y-111000476D02*
X127226247Y-111571904D01*
X170261905Y-133704819D02*
X170261905Y-132704819D01*
X170261905Y-132704819D02*
X170500000Y-132704819D01*
X170500000Y-132704819D02*
X170642857Y-132752438D01*
X170642857Y-132752438D02*
X170738095Y-132847676D01*
X170738095Y-132847676D02*
X170785714Y-132942914D01*
X170785714Y-132942914D02*
X170833333Y-133133390D01*
X170833333Y-133133390D02*
X170833333Y-133276247D01*
X170833333Y-133276247D02*
X170785714Y-133466723D01*
X170785714Y-133466723D02*
X170738095Y-133561961D01*
X170738095Y-133561961D02*
X170642857Y-133657200D01*
X170642857Y-133657200D02*
X170500000Y-133704819D01*
X170500000Y-133704819D02*
X170261905Y-133704819D01*
X171166667Y-132704819D02*
X171785714Y-132704819D01*
X171785714Y-132704819D02*
X171452381Y-133085771D01*
X171452381Y-133085771D02*
X171595238Y-133085771D01*
X171595238Y-133085771D02*
X171690476Y-133133390D01*
X171690476Y-133133390D02*
X171738095Y-133181009D01*
X171738095Y-133181009D02*
X171785714Y-133276247D01*
X171785714Y-133276247D02*
X171785714Y-133514342D01*
X171785714Y-133514342D02*
X171738095Y-133609580D01*
X171738095Y-133609580D02*
X171690476Y-133657200D01*
X171690476Y-133657200D02*
X171595238Y-133704819D01*
X171595238Y-133704819D02*
X171309524Y-133704819D01*
X171309524Y-133704819D02*
X171214286Y-133657200D01*
X171214286Y-133657200D02*
X171166667Y-133609580D01*
X160928095Y-135454819D02*
X160928095Y-134454819D01*
X161499523Y-135454819D02*
X161070952Y-134883390D01*
X161499523Y-134454819D02*
X160928095Y-135026247D01*
X149404761Y-82454819D02*
X149071428Y-81978628D01*
X148833333Y-82454819D02*
X148833333Y-81454819D01*
X148833333Y-81454819D02*
X149214285Y-81454819D01*
X149214285Y-81454819D02*
X149309523Y-81502438D01*
X149309523Y-81502438D02*
X149357142Y-81550057D01*
X149357142Y-81550057D02*
X149404761Y-81645295D01*
X149404761Y-81645295D02*
X149404761Y-81788152D01*
X149404761Y-81788152D02*
X149357142Y-81883390D01*
X149357142Y-81883390D02*
X149309523Y-81931009D01*
X149309523Y-81931009D02*
X149214285Y-81978628D01*
X149214285Y-81978628D02*
X148833333Y-81978628D01*
X149690476Y-81454819D02*
X150023809Y-82454819D01*
X150023809Y-82454819D02*
X150357142Y-81454819D01*
X151166666Y-81454819D02*
X150690476Y-81454819D01*
X150690476Y-81454819D02*
X150642857Y-81931009D01*
X150642857Y-81931009D02*
X150690476Y-81883390D01*
X150690476Y-81883390D02*
X150785714Y-81835771D01*
X150785714Y-81835771D02*
X151023809Y-81835771D01*
X151023809Y-81835771D02*
X151119047Y-81883390D01*
X151119047Y-81883390D02*
X151166666Y-81931009D01*
X151166666Y-81931009D02*
X151214285Y-82026247D01*
X151214285Y-82026247D02*
X151214285Y-82264342D01*
X151214285Y-82264342D02*
X151166666Y-82359580D01*
X151166666Y-82359580D02*
X151119047Y-82407200D01*
X151119047Y-82407200D02*
X151023809Y-82454819D01*
X151023809Y-82454819D02*
X150785714Y-82454819D01*
X150785714Y-82454819D02*
X150690476Y-82407200D01*
X150690476Y-82407200D02*
X150642857Y-82359580D01*
X147054819Y-63338094D02*
X146054819Y-63338094D01*
X146054819Y-63338094D02*
X146054819Y-63099999D01*
X146054819Y-63099999D02*
X146102438Y-62957142D01*
X146102438Y-62957142D02*
X146197676Y-62861904D01*
X146197676Y-62861904D02*
X146292914Y-62814285D01*
X146292914Y-62814285D02*
X146483390Y-62766666D01*
X146483390Y-62766666D02*
X146626247Y-62766666D01*
X146626247Y-62766666D02*
X146816723Y-62814285D01*
X146816723Y-62814285D02*
X146911961Y-62861904D01*
X146911961Y-62861904D02*
X147007200Y-62957142D01*
X147007200Y-62957142D02*
X147054819Y-63099999D01*
X147054819Y-63099999D02*
X147054819Y-63338094D01*
X146054819Y-61861904D02*
X146054819Y-62338094D01*
X146054819Y-62338094D02*
X146531009Y-62385713D01*
X146531009Y-62385713D02*
X146483390Y-62338094D01*
X146483390Y-62338094D02*
X146435771Y-62242856D01*
X146435771Y-62242856D02*
X146435771Y-62004761D01*
X146435771Y-62004761D02*
X146483390Y-61909523D01*
X146483390Y-61909523D02*
X146531009Y-61861904D01*
X146531009Y-61861904D02*
X146626247Y-61814285D01*
X146626247Y-61814285D02*
X146864342Y-61814285D01*
X146864342Y-61814285D02*
X146959580Y-61861904D01*
X146959580Y-61861904D02*
X147007200Y-61909523D01*
X147007200Y-61909523D02*
X147054819Y-62004761D01*
X147054819Y-62004761D02*
X147054819Y-62242856D01*
X147054819Y-62242856D02*
X147007200Y-62338094D01*
X147007200Y-62338094D02*
X146959580Y-62385713D01*
X129054819Y-66863333D02*
X129769104Y-66863333D01*
X129769104Y-66863333D02*
X129911961Y-66910952D01*
X129911961Y-66910952D02*
X130007200Y-67006190D01*
X130007200Y-67006190D02*
X130054819Y-67149047D01*
X130054819Y-67149047D02*
X130054819Y-67244285D01*
X130054819Y-65863333D02*
X130054819Y-66434761D01*
X130054819Y-66149047D02*
X129054819Y-66149047D01*
X129054819Y-66149047D02*
X129197676Y-66244285D01*
X129197676Y-66244285D02*
X129292914Y-66339523D01*
X129292914Y-66339523D02*
X129340533Y-66434761D01*
D15*
X133666667Y-75609799D02*
X133809524Y-75657418D01*
X133809524Y-75657418D02*
X134047619Y-75657418D01*
X134047619Y-75657418D02*
X134142857Y-75609799D01*
X134142857Y-75609799D02*
X134190476Y-75562179D01*
X134190476Y-75562179D02*
X134238095Y-75466941D01*
X134238095Y-75466941D02*
X134238095Y-75371703D01*
X134238095Y-75371703D02*
X134190476Y-75276465D01*
X134190476Y-75276465D02*
X134142857Y-75228846D01*
X134142857Y-75228846D02*
X134047619Y-75181227D01*
X134047619Y-75181227D02*
X133857143Y-75133608D01*
X133857143Y-75133608D02*
X133761905Y-75085989D01*
X133761905Y-75085989D02*
X133714286Y-75038370D01*
X133714286Y-75038370D02*
X133666667Y-74943132D01*
X133666667Y-74943132D02*
X133666667Y-74847894D01*
X133666667Y-74847894D02*
X133714286Y-74752656D01*
X133714286Y-74752656D02*
X133761905Y-74705037D01*
X133761905Y-74705037D02*
X133857143Y-74657418D01*
X133857143Y-74657418D02*
X134095238Y-74657418D01*
X134095238Y-74657418D02*
X134238095Y-74705037D01*
X134571429Y-74657418D02*
X134809524Y-75657418D01*
X134809524Y-75657418D02*
X135000000Y-74943132D01*
X135000000Y-74943132D02*
X135190476Y-75657418D01*
X135190476Y-75657418D02*
X135428572Y-74657418D01*
X136333333Y-75657418D02*
X135761905Y-75657418D01*
X136047619Y-75657418D02*
X136047619Y-74657418D01*
X136047619Y-74657418D02*
X135952381Y-74800275D01*
X135952381Y-74800275D02*
X135857143Y-74895513D01*
X135857143Y-74895513D02*
X135761905Y-74943132D01*
D14*
X160404761Y-116954819D02*
X160071428Y-116478628D01*
X159833333Y-116954819D02*
X159833333Y-115954819D01*
X159833333Y-115954819D02*
X160214285Y-115954819D01*
X160214285Y-115954819D02*
X160309523Y-116002438D01*
X160309523Y-116002438D02*
X160357142Y-116050057D01*
X160357142Y-116050057D02*
X160404761Y-116145295D01*
X160404761Y-116145295D02*
X160404761Y-116288152D01*
X160404761Y-116288152D02*
X160357142Y-116383390D01*
X160357142Y-116383390D02*
X160309523Y-116431009D01*
X160309523Y-116431009D02*
X160214285Y-116478628D01*
X160214285Y-116478628D02*
X159833333Y-116478628D01*
X160690476Y-115954819D02*
X161023809Y-116954819D01*
X161023809Y-116954819D02*
X161357142Y-115954819D01*
X161595238Y-115954819D02*
X162214285Y-115954819D01*
X162214285Y-115954819D02*
X161880952Y-116335771D01*
X161880952Y-116335771D02*
X162023809Y-116335771D01*
X162023809Y-116335771D02*
X162119047Y-116383390D01*
X162119047Y-116383390D02*
X162166666Y-116431009D01*
X162166666Y-116431009D02*
X162214285Y-116526247D01*
X162214285Y-116526247D02*
X162214285Y-116764342D01*
X162214285Y-116764342D02*
X162166666Y-116859580D01*
X162166666Y-116859580D02*
X162119047Y-116907200D01*
X162119047Y-116907200D02*
X162023809Y-116954819D01*
X162023809Y-116954819D02*
X161738095Y-116954819D01*
X161738095Y-116954819D02*
X161642857Y-116907200D01*
X161642857Y-116907200D02*
X161595238Y-116859580D01*
X128643333Y-69454819D02*
X128310000Y-68978628D01*
X128071905Y-69454819D02*
X128071905Y-68454819D01*
X128071905Y-68454819D02*
X128452857Y-68454819D01*
X128452857Y-68454819D02*
X128548095Y-68502438D01*
X128548095Y-68502438D02*
X128595714Y-68550057D01*
X128595714Y-68550057D02*
X128643333Y-68645295D01*
X128643333Y-68645295D02*
X128643333Y-68788152D01*
X128643333Y-68788152D02*
X128595714Y-68883390D01*
X128595714Y-68883390D02*
X128548095Y-68931009D01*
X128548095Y-68931009D02*
X128452857Y-68978628D01*
X128452857Y-68978628D02*
X128071905Y-68978628D01*
X129595714Y-69454819D02*
X129024286Y-69454819D01*
X129310000Y-69454819D02*
X129310000Y-68454819D01*
X129310000Y-68454819D02*
X129214762Y-68597676D01*
X129214762Y-68597676D02*
X129119524Y-68692914D01*
X129119524Y-68692914D02*
X129024286Y-68740533D01*
X133454818Y-101666666D02*
X132978627Y-101999999D01*
X133454818Y-102238094D02*
X132454818Y-102238094D01*
X132454818Y-102238094D02*
X132454818Y-101857142D01*
X132454818Y-101857142D02*
X132502437Y-101761904D01*
X132502437Y-101761904D02*
X132550056Y-101714285D01*
X132550056Y-101714285D02*
X132645294Y-101666666D01*
X132645294Y-101666666D02*
X132788151Y-101666666D01*
X132788151Y-101666666D02*
X132883389Y-101714285D01*
X132883389Y-101714285D02*
X132931008Y-101761904D01*
X132931008Y-101761904D02*
X132978627Y-101857142D01*
X132978627Y-101857142D02*
X132978627Y-102238094D01*
X132454818Y-101333332D02*
X132454818Y-100666666D01*
X132454818Y-100666666D02*
X133454818Y-101095237D01*
X134303094Y-92024819D02*
X134303094Y-92834342D01*
X134303094Y-92834342D02*
X134350713Y-92929580D01*
X134350713Y-92929580D02*
X134398332Y-92977200D01*
X134398332Y-92977200D02*
X134493570Y-93024819D01*
X134493570Y-93024819D02*
X134684046Y-93024819D01*
X134684046Y-93024819D02*
X134779284Y-92977200D01*
X134779284Y-92977200D02*
X134826903Y-92929580D01*
X134826903Y-92929580D02*
X134874522Y-92834342D01*
X134874522Y-92834342D02*
X134874522Y-92024819D01*
X135303094Y-92120057D02*
X135350713Y-92072438D01*
X135350713Y-92072438D02*
X135445951Y-92024819D01*
X135445951Y-92024819D02*
X135684046Y-92024819D01*
X135684046Y-92024819D02*
X135779284Y-92072438D01*
X135779284Y-92072438D02*
X135826903Y-92120057D01*
X135826903Y-92120057D02*
X135874522Y-92215295D01*
X135874522Y-92215295D02*
X135874522Y-92310533D01*
X135874522Y-92310533D02*
X135826903Y-92453390D01*
X135826903Y-92453390D02*
X135255475Y-93024819D01*
X135255475Y-93024819D02*
X135874522Y-93024819D01*
X170857142Y-69704819D02*
X170523809Y-69228628D01*
X170285714Y-69704819D02*
X170285714Y-68704819D01*
X170285714Y-68704819D02*
X170666666Y-68704819D01*
X170666666Y-68704819D02*
X170761904Y-68752438D01*
X170761904Y-68752438D02*
X170809523Y-68800057D01*
X170809523Y-68800057D02*
X170857142Y-68895295D01*
X170857142Y-68895295D02*
X170857142Y-69038152D01*
X170857142Y-69038152D02*
X170809523Y-69133390D01*
X170809523Y-69133390D02*
X170761904Y-69181009D01*
X170761904Y-69181009D02*
X170666666Y-69228628D01*
X170666666Y-69228628D02*
X170285714Y-69228628D01*
X171809523Y-69704819D02*
X171238095Y-69704819D01*
X171523809Y-69704819D02*
X171523809Y-68704819D01*
X171523809Y-68704819D02*
X171428571Y-68847676D01*
X171428571Y-68847676D02*
X171333333Y-68942914D01*
X171333333Y-68942914D02*
X171238095Y-68990533D01*
X172190476Y-68800057D02*
X172238095Y-68752438D01*
X172238095Y-68752438D02*
X172333333Y-68704819D01*
X172333333Y-68704819D02*
X172571428Y-68704819D01*
X172571428Y-68704819D02*
X172666666Y-68752438D01*
X172666666Y-68752438D02*
X172714285Y-68800057D01*
X172714285Y-68800057D02*
X172761904Y-68895295D01*
X172761904Y-68895295D02*
X172761904Y-68990533D01*
X172761904Y-68990533D02*
X172714285Y-69133390D01*
X172714285Y-69133390D02*
X172142857Y-69704819D01*
X172142857Y-69704819D02*
X172761904Y-69704819D01*
X129359579Y-77666666D02*
X129407199Y-77714285D01*
X129407199Y-77714285D02*
X129454818Y-77857142D01*
X129454818Y-77857142D02*
X129454818Y-77952380D01*
X129454818Y-77952380D02*
X129407199Y-78095237D01*
X129407199Y-78095237D02*
X129311960Y-78190475D01*
X129311960Y-78190475D02*
X129216722Y-78238094D01*
X129216722Y-78238094D02*
X129026246Y-78285713D01*
X129026246Y-78285713D02*
X128883389Y-78285713D01*
X128883389Y-78285713D02*
X128692913Y-78238094D01*
X128692913Y-78238094D02*
X128597675Y-78190475D01*
X128597675Y-78190475D02*
X128502437Y-78095237D01*
X128502437Y-78095237D02*
X128454818Y-77952380D01*
X128454818Y-77952380D02*
X128454818Y-77857142D01*
X128454818Y-77857142D02*
X128502437Y-77714285D01*
X128502437Y-77714285D02*
X128550056Y-77666666D01*
X128788151Y-76809523D02*
X129454818Y-76809523D01*
X128407199Y-77047618D02*
X129121484Y-77285713D01*
X129121484Y-77285713D02*
X129121484Y-76666666D01*
X167666666Y-140454819D02*
X167666666Y-141169104D01*
X167666666Y-141169104D02*
X167619047Y-141311961D01*
X167619047Y-141311961D02*
X167523809Y-141407200D01*
X167523809Y-141407200D02*
X167380952Y-141454819D01*
X167380952Y-141454819D02*
X167285714Y-141454819D01*
X168619047Y-140454819D02*
X168142857Y-140454819D01*
X168142857Y-140454819D02*
X168095238Y-140931009D01*
X168095238Y-140931009D02*
X168142857Y-140883390D01*
X168142857Y-140883390D02*
X168238095Y-140835771D01*
X168238095Y-140835771D02*
X168476190Y-140835771D01*
X168476190Y-140835771D02*
X168571428Y-140883390D01*
X168571428Y-140883390D02*
X168619047Y-140931009D01*
X168619047Y-140931009D02*
X168666666Y-141026247D01*
X168666666Y-141026247D02*
X168666666Y-141264342D01*
X168666666Y-141264342D02*
X168619047Y-141359580D01*
X168619047Y-141359580D02*
X168571428Y-141407200D01*
X168571428Y-141407200D02*
X168476190Y-141454819D01*
X168476190Y-141454819D02*
X168238095Y-141454819D01*
X168238095Y-141454819D02*
X168142857Y-141407200D01*
X168142857Y-141407200D02*
X168095238Y-141359580D01*
X128359580Y-133416667D02*
X128407200Y-133464286D01*
X128407200Y-133464286D02*
X128454819Y-133607143D01*
X128454819Y-133607143D02*
X128454819Y-133702381D01*
X128454819Y-133702381D02*
X128407200Y-133845238D01*
X128407200Y-133845238D02*
X128311961Y-133940476D01*
X128311961Y-133940476D02*
X128216723Y-133988095D01*
X128216723Y-133988095D02*
X128026247Y-134035714D01*
X128026247Y-134035714D02*
X127883390Y-134035714D01*
X127883390Y-134035714D02*
X127692914Y-133988095D01*
X127692914Y-133988095D02*
X127597676Y-133940476D01*
X127597676Y-133940476D02*
X127502438Y-133845238D01*
X127502438Y-133845238D02*
X127454819Y-133702381D01*
X127454819Y-133702381D02*
X127454819Y-133607143D01*
X127454819Y-133607143D02*
X127502438Y-133464286D01*
X127502438Y-133464286D02*
X127550057Y-133416667D01*
X127550057Y-133035714D02*
X127502438Y-132988095D01*
X127502438Y-132988095D02*
X127454819Y-132892857D01*
X127454819Y-132892857D02*
X127454819Y-132654762D01*
X127454819Y-132654762D02*
X127502438Y-132559524D01*
X127502438Y-132559524D02*
X127550057Y-132511905D01*
X127550057Y-132511905D02*
X127645295Y-132464286D01*
X127645295Y-132464286D02*
X127740533Y-132464286D01*
X127740533Y-132464286D02*
X127883390Y-132511905D01*
X127883390Y-132511905D02*
X128454819Y-133083333D01*
X128454819Y-133083333D02*
X128454819Y-132464286D01*
X156454819Y-134095238D02*
X155978628Y-134428571D01*
X156454819Y-134666666D02*
X155454819Y-134666666D01*
X155454819Y-134666666D02*
X155454819Y-134285714D01*
X155454819Y-134285714D02*
X155502438Y-134190476D01*
X155502438Y-134190476D02*
X155550057Y-134142857D01*
X155550057Y-134142857D02*
X155645295Y-134095238D01*
X155645295Y-134095238D02*
X155788152Y-134095238D01*
X155788152Y-134095238D02*
X155883390Y-134142857D01*
X155883390Y-134142857D02*
X155931009Y-134190476D01*
X155931009Y-134190476D02*
X155978628Y-134285714D01*
X155978628Y-134285714D02*
X155978628Y-134666666D01*
X155454819Y-133809523D02*
X156454819Y-133476190D01*
X156454819Y-133476190D02*
X155454819Y-133142857D01*
X156454819Y-132285714D02*
X156454819Y-132857142D01*
X156454819Y-132571428D02*
X155454819Y-132571428D01*
X155454819Y-132571428D02*
X155597676Y-132666666D01*
X155597676Y-132666666D02*
X155692914Y-132761904D01*
X155692914Y-132761904D02*
X155740533Y-132857142D01*
D16*
%TO.C,Q4*%
X148200000Y-71100000D02*
X151800000Y-71100000D01*
X148161522Y-71088478D02*
G75*
G02*
X150000000Y-66649999I1838478J1838478D01*
G01*
X150000000Y-66650000D02*
G75*
G02*
X151838478Y-71088478I0J-2600000D01*
G01*
%TO.C,R13*%
X161730000Y-83830000D02*
X168270000Y-83830000D01*
X161730000Y-84160000D02*
X161730000Y-83830000D01*
X161730000Y-86240000D02*
X161730000Y-86570000D01*
X161730000Y-86570000D02*
X168270000Y-86570000D01*
X168270000Y-83830000D02*
X168270000Y-84160000D01*
X168270000Y-86570000D02*
X168270000Y-86240000D01*
%TO.C,R10*%
X160370000Y-104480000D02*
X160370000Y-111020000D01*
X160040000Y-104480000D02*
X160370000Y-104480000D01*
X157960000Y-104480000D02*
X157630000Y-104480000D01*
X157630000Y-104480000D02*
X157630000Y-111020000D01*
X160370000Y-111020000D02*
X160040000Y-111020000D01*
X157630000Y-111020000D02*
X157960000Y-111020000D01*
%TO.C,RV2*%
X132900001Y-127400000D02*
X129500000Y-127399999D01*
X140500000Y-127399999D02*
X137100000Y-127399999D01*
X140500000Y-127399999D02*
X140500000Y-117600001D01*
X129500000Y-117600001D02*
X129500000Y-127399999D01*
X132900000Y-117600001D02*
X129500000Y-117600001D01*
X140500000Y-117600001D02*
X137099999Y-117600000D01*
X133639853Y-125220293D02*
G75*
G02*
X133600001Y-119800001I1360147J2720293D01*
G01*
X136360147Y-119779707D02*
G75*
G02*
X136399999Y-125199999I-1360147J-2720293D01*
G01*
%TO.C,RV4*%
X145100000Y-105400001D02*
X145100001Y-102000000D01*
X145100001Y-113000000D02*
X145100001Y-109600000D01*
X145100001Y-113000000D02*
X154899999Y-113000000D01*
X154899999Y-102000000D02*
X145100001Y-102000000D01*
X154899999Y-105400000D02*
X154899999Y-102000000D01*
X154899999Y-113000000D02*
X154900000Y-109599999D01*
X147279707Y-106139853D02*
G75*
G02*
X152699999Y-106100001I2720293J-1360147D01*
G01*
X152720293Y-108860147D02*
G75*
G02*
X147300001Y-108899999I-2720293J1360147D01*
G01*
%TO.C,U3*%
X162750000Y-87860000D02*
X162750000Y-97090000D01*
X162750000Y-97090000D02*
X167250000Y-97090000D01*
X164000000Y-87860000D02*
X162750000Y-87860000D01*
X167250000Y-87860000D02*
X166000000Y-87860000D01*
X167250000Y-97090000D02*
X167250000Y-87860000D01*
X166000000Y-87860000D02*
G75*
G02*
X164000000Y-87860000I-1000000J0D01*
G01*
%TO.C,D1*%
X145385000Y-98448890D02*
X145060000Y-97885973D01*
X143790052Y-97926358D02*
X145729948Y-96806358D01*
X143730052Y-97822435D02*
X145669948Y-96702435D01*
X143670052Y-97718512D02*
X145609948Y-96598512D01*
X142615000Y-93651109D02*
X142940000Y-94214025D01*
X146029948Y-97325973D02*
X144090052Y-98445973D01*
X141970052Y-94774025D01*
X143909948Y-93654025D01*
X146029948Y-97325973D01*
%TO.C,C3*%
X139600000Y-80000000D02*
X139600000Y-75000000D01*
X140000000Y-80000000D02*
X139600000Y-80000000D01*
X142000000Y-80000000D02*
X142400000Y-80000000D01*
X142400000Y-80000000D02*
X142400000Y-75000000D01*
X139600000Y-75000000D02*
X140000000Y-75000000D01*
X142400000Y-75000000D02*
X142000000Y-75000000D01*
%TO.C,R8*%
X168370000Y-104480000D02*
X168370000Y-111020000D01*
X168040000Y-104480000D02*
X168370000Y-104480000D01*
X165960000Y-104480000D02*
X165630000Y-104480000D01*
X165630000Y-104480000D02*
X165630000Y-111020000D01*
X168370000Y-111020000D02*
X168040000Y-111020000D01*
X165630000Y-111020000D02*
X165960000Y-111020000D01*
%TO.C,U1*%
X147750000Y-117860000D02*
X147750000Y-127090000D01*
X147750000Y-127090000D02*
X152250000Y-127090000D01*
X149000000Y-117860000D02*
X147750000Y-117860000D01*
X152250000Y-117860000D02*
X151000000Y-117860000D01*
X152250000Y-127090000D02*
X152250000Y-117860000D01*
X151000000Y-117860000D02*
G75*
G02*
X149000000Y-117860000I-1000000J0D01*
G01*
%TO.C,J3*%
X159000000Y-82000000D02*
X159000000Y-78300000D01*
X169500000Y-82000000D02*
X159000000Y-82000000D01*
X169500000Y-82000000D02*
X169500000Y-78220000D01*
X169500000Y-76780000D02*
X169500000Y-73000000D01*
X159000000Y-76700000D02*
X159000000Y-73000000D01*
X172650000Y-76270000D02*
X172650000Y-77130000D01*
X172650000Y-76270000D02*
X171850000Y-76270000D01*
X169500000Y-73000000D02*
X159000000Y-73000000D01*
X166800000Y-77500000D02*
G75*
G02*
X163200000Y-77500000I-1800000J0D01*
G01*
X163200000Y-77500000D02*
G75*
G02*
X166800000Y-77500000I1800000J0D01*
G01*
%TO.C,J4*%
X127940000Y-142090000D02*
X127940000Y-149910000D01*
X127940000Y-143690000D02*
X128860000Y-143690000D01*
X127940000Y-149910000D02*
X136060000Y-149910000D01*
X128700000Y-146050000D02*
X128700000Y-147650000D01*
X128700000Y-147650000D02*
X129700000Y-147650000D01*
X128860000Y-142090000D02*
X127940000Y-142090000D01*
X128860000Y-143690000D02*
X128860000Y-142090000D01*
X129140000Y-143690000D02*
X128860000Y-143690000D01*
X129140000Y-143690000D02*
X129140000Y-142475000D01*
X129200000Y-147650000D02*
X129200000Y-149910000D01*
X129700000Y-146050000D02*
X128700000Y-146050000D01*
X129700000Y-147650000D02*
X129700000Y-146050000D01*
X129700000Y-147650000D02*
X129700000Y-149910000D01*
X130500000Y-145550000D02*
X133500000Y-145550000D01*
X130500000Y-149910000D02*
X130500000Y-145550000D01*
X133500000Y-145550000D02*
X133500000Y-149910000D01*
X134300000Y-146050000D02*
X135300000Y-146050000D01*
X134300000Y-147650000D02*
X134300000Y-146050000D01*
X135140000Y-142090000D02*
X135140000Y-143690000D01*
X135140000Y-143690000D02*
X134860000Y-143690000D01*
X135300000Y-146050000D02*
X135300000Y-147650000D01*
X135300000Y-147650000D02*
X134300000Y-147650000D01*
X136060000Y-142090000D02*
X135140000Y-142090000D01*
X136060000Y-143690000D02*
X135140000Y-143690000D01*
X136060000Y-149910000D02*
X136060000Y-142090000D01*
%TO.C,Q2*%
X156238916Y-90928846D02*
X154438916Y-87811155D01*
X156248177Y-90967930D02*
G75*
G02*
X151485102Y-91595001I-2511408J672929D01*
G01*
X151485103Y-91595001D02*
G75*
G02*
X154409699Y-87783594I2251666J1300000D01*
G01*
%TO.C,J2*%
X159000000Y-67000000D02*
X159000000Y-63300000D01*
X169500000Y-67000000D02*
X159000000Y-67000000D01*
X169500000Y-67000000D02*
X169500000Y-63220000D01*
X169500000Y-61780000D02*
X169500000Y-58000000D01*
X159000000Y-61700000D02*
X159000000Y-58000000D01*
X172650000Y-61270000D02*
X172650000Y-62130000D01*
X172650000Y-61270000D02*
X171850000Y-61270000D01*
X169500000Y-58000000D02*
X159000000Y-58000000D01*
X166800000Y-62500000D02*
G75*
G02*
X163200000Y-62500000I-1800000J0D01*
G01*
X163200000Y-62500000D02*
G75*
G02*
X166800000Y-62500000I1800000J0D01*
G01*
%TO.C,R4*%
X153270000Y-86530000D02*
X146730000Y-86530000D01*
X153270000Y-86200000D02*
X153270000Y-86530000D01*
X153270000Y-84120000D02*
X153270000Y-83790000D01*
X153270000Y-83790000D02*
X146730000Y-83790000D01*
X146730000Y-86530000D02*
X146730000Y-86200000D01*
X146730000Y-83790000D02*
X146730000Y-84120000D01*
%TO.C,R6*%
X138369999Y-104230000D02*
X138369999Y-110770000D01*
X138039999Y-104230000D02*
X138369999Y-104230000D01*
X135959999Y-104230000D02*
X135629999Y-104230000D01*
X135629999Y-104230000D02*
X135629999Y-110770000D01*
X138369999Y-110770000D02*
X138039999Y-110770000D01*
X135629999Y-110770000D02*
X135959999Y-110770000D01*
%TO.C,R9*%
X139630000Y-110770000D02*
X139630000Y-104230000D01*
X139960000Y-110770000D02*
X139630000Y-110770000D01*
X142040000Y-110770000D02*
X142370000Y-110770000D01*
X142370000Y-110770000D02*
X142370000Y-104230000D01*
X139630000Y-104230000D02*
X139960000Y-104230000D01*
X142370000Y-104230000D02*
X142040000Y-104230000D01*
%TO.C,Q1*%
X145561085Y-87836155D02*
X143761085Y-90953846D01*
X145590302Y-87808593D02*
G75*
G02*
X148514898Y-91620000I672930J-2511407D01*
G01*
X148514898Y-91620000D02*
G75*
G02*
X143751825Y-90992930I-2251666J1300000D01*
G01*
%TO.C,R11*%
X157970000Y-59230000D02*
X157970000Y-65770000D01*
X157640000Y-59230000D02*
X157970000Y-59230000D01*
X155560000Y-59230000D02*
X155230000Y-59230000D01*
X155230000Y-59230000D02*
X155230000Y-65770000D01*
X157970000Y-65770000D02*
X157640000Y-65770000D01*
X155230000Y-65770000D02*
X155560000Y-65770000D01*
%TO.C,D4*%
X171000000Y-104980001D02*
X171000000Y-105630001D01*
X172120000Y-106230001D02*
X169880000Y-106230001D01*
X172120000Y-106350001D02*
X169880000Y-106350001D01*
X172120000Y-106470001D02*
X169880000Y-106470001D01*
X171000000Y-110520001D02*
X171000000Y-109870001D01*
X172120000Y-105630001D02*
X169880000Y-105630001D01*
X169880000Y-109870001D01*
X172120000Y-109870001D01*
X172120000Y-105630001D01*
%TO.C,R2*%
X142030000Y-65770000D02*
X142030000Y-59230000D01*
X142360000Y-65770000D02*
X142030000Y-65770000D01*
X144440000Y-65770000D02*
X144770000Y-65770000D01*
X144770000Y-65770000D02*
X144770000Y-59230000D01*
X142030000Y-59230000D02*
X142360000Y-59230000D01*
X144770000Y-59230000D02*
X144440000Y-59230000D01*
%TO.C,R3*%
X155280000Y-80870000D02*
X155280000Y-74330000D01*
X155610000Y-80870000D02*
X155280000Y-80870000D01*
X157690000Y-80870000D02*
X158020000Y-80870000D01*
X158020000Y-80870000D02*
X158020000Y-74330000D01*
X155280000Y-74330000D02*
X155610000Y-74330000D01*
X158020000Y-74330000D02*
X157690000Y-74330000D01*
%TO.C,C1*%
X153787564Y-97515064D02*
X156287564Y-93184937D01*
X154133975Y-97715064D02*
X153787564Y-97515064D01*
X155866025Y-98715064D02*
X156212436Y-98915064D01*
X156212436Y-98915064D02*
X158712436Y-94584937D01*
X156287564Y-93184937D02*
X156633975Y-93384937D01*
X158712436Y-94584937D02*
X158366025Y-94384937D01*
%TO.C,R5*%
X161630000Y-111020000D02*
X161630000Y-104480000D01*
X161960000Y-111020000D02*
X161630000Y-111020000D01*
X164040000Y-111020000D02*
X164370000Y-111020000D01*
X164370000Y-111020000D02*
X164370000Y-104480000D01*
X161630000Y-104480000D02*
X161960000Y-104480000D01*
X164370000Y-104480000D02*
X164040000Y-104480000D01*
%TO.C,Q3*%
X148200000Y-98650000D02*
X151800000Y-98650000D01*
X148161522Y-98638478D02*
G75*
G02*
X150000000Y-94199999I1838478J1838478D01*
G01*
X150000000Y-94200000D02*
G75*
G02*
X151838478Y-98638478I0J-2600000D01*
G01*
%TO.C,D2*%
X129000000Y-110270000D02*
X129000000Y-109620000D01*
X127880000Y-109020000D02*
X130120000Y-109020000D01*
X127880000Y-108900000D02*
X130120000Y-108900000D01*
X127880000Y-108780000D02*
X130120000Y-108780000D01*
X129000000Y-104730000D02*
X129000000Y-105380000D01*
X127880000Y-109620000D02*
X130120000Y-109620000D01*
X130120000Y-105380000D01*
X127880000Y-105380000D01*
X127880000Y-109620000D01*
%TO.C,D3*%
X162230000Y-133250000D02*
X162880000Y-133250000D01*
X163480000Y-132130000D02*
X163480000Y-134370000D01*
X163600000Y-132130000D02*
X163600000Y-134370000D01*
X163720000Y-132130000D02*
X163720000Y-134370000D01*
X167770000Y-133250000D02*
X167120000Y-133250000D01*
X162880000Y-132130000D02*
X167120000Y-132130000D01*
X167120000Y-134370000D01*
X162880000Y-134370000D01*
X162880000Y-132130000D01*
%TO.C,RV5*%
X146500000Y-73965000D02*
X146500000Y-80155000D01*
X147000000Y-80155000D02*
X147000000Y-81000000D01*
X153000000Y-80155000D02*
X153000000Y-81000000D01*
X153000000Y-81000000D02*
X147000000Y-81000000D01*
X153500000Y-73965000D02*
X146500000Y-73965000D01*
X153500000Y-73965000D02*
X153500000Y-80155000D01*
X153500000Y-80155000D02*
X146500000Y-80155000D01*
%TO.C,D5*%
X147435000Y-60955000D02*
X147435000Y-64045000D01*
X147435000Y-60955170D02*
G75*
G02*
X152985000Y-62499952I2560000J-1544830D01*
G01*
X152985000Y-62500048D02*
G75*
G02*
X147435000Y-64044830I-2990000J48D01*
G01*
X152495000Y-62500000D02*
G75*
G02*
X147495000Y-62500000I-2500000J0D01*
G01*
X147495000Y-62500000D02*
G75*
G02*
X152495000Y-62500000I2500000J0D01*
G01*
%TO.C,J1*%
X141000000Y-58000000D02*
X141000000Y-61700000D01*
X130500000Y-58000000D02*
X141000000Y-58000000D01*
X130500000Y-58000000D02*
X130500000Y-61780000D01*
X130500000Y-63220000D02*
X130500000Y-67000000D01*
X141000000Y-63300000D02*
X141000000Y-67000000D01*
X127350000Y-63730000D02*
X127350000Y-62870000D01*
X127350000Y-63730000D02*
X128150000Y-63730000D01*
X130500000Y-67000000D02*
X141000000Y-67000000D01*
X136800000Y-62500000D02*
G75*
G02*
X133200000Y-62500000I-1800000J0D01*
G01*
X133200000Y-62500000D02*
G75*
G02*
X136800000Y-62500000I1800000J0D01*
G01*
%TO.C,SW1*%
D15*
X131000000Y-71000000D02*
X139000000Y-71000000D01*
X139000000Y-84000000D01*
X131000000Y-84000000D01*
X131000000Y-71000000D01*
D16*
%TO.C,RV3*%
X167099999Y-117600000D02*
X170500000Y-117600001D01*
X159500000Y-117600001D02*
X162900000Y-117600001D01*
X159500000Y-117600001D02*
X159500000Y-127399999D01*
X170500000Y-127399999D02*
X170500000Y-117600001D01*
X167100000Y-127399999D02*
X170500000Y-127399999D01*
X159500000Y-127399999D02*
X162900001Y-127400000D01*
X166360147Y-119779707D02*
G75*
G02*
X166399999Y-125199999I-1360147J-2720293D01*
G01*
X163639853Y-125220293D02*
G75*
G02*
X163600001Y-119800001I1360147J2720293D01*
G01*
%TO.C,R1*%
X138270000Y-70370000D02*
X131730000Y-70370000D01*
X138270000Y-70040000D02*
X138270000Y-70370000D01*
X138270000Y-67960000D02*
X138270000Y-67630000D01*
X138270000Y-67630000D02*
X131730000Y-67630000D01*
X131730000Y-70370000D02*
X131730000Y-70040000D01*
X131730000Y-67630000D02*
X131730000Y-67960000D01*
%TO.C,R7*%
X134369999Y-104230000D02*
X134369999Y-110770000D01*
X134039999Y-104230000D02*
X134369999Y-104230000D01*
X131959999Y-104230000D02*
X131629999Y-104230000D01*
X131629999Y-104230000D02*
X131629999Y-110770000D01*
X134369999Y-110770000D02*
X134039999Y-110770000D01*
X131629999Y-110770000D02*
X131959999Y-110770000D01*
%TO.C,U2*%
X132750000Y-87860000D02*
X132750000Y-97090000D01*
X132750000Y-97090000D02*
X137250000Y-97090000D01*
X134000000Y-87860000D02*
X132750000Y-87860000D01*
X137250000Y-87860000D02*
X136000000Y-87860000D01*
X137250000Y-97090000D02*
X137250000Y-87860000D01*
X136000000Y-87860000D02*
G75*
G02*
X134000000Y-87860000I-1000000J0D01*
G01*
%TO.C,R12*%
X161730000Y-67880000D02*
X168270000Y-67880000D01*
X161730000Y-68210000D02*
X161730000Y-67880000D01*
X161730000Y-70290000D02*
X161730000Y-70620000D01*
X161730000Y-70620000D02*
X168270000Y-70620000D01*
X168270000Y-67880000D02*
X168270000Y-68210000D01*
X168270000Y-70620000D02*
X168270000Y-70290000D01*
%TO.C,C4*%
X130400000Y-75000000D02*
X130400000Y-80000000D01*
X130000000Y-75000000D02*
X130400000Y-75000000D01*
X128000000Y-75000000D02*
X127600000Y-75000000D01*
X127600000Y-75000000D02*
X127600000Y-80000000D01*
X130400000Y-80000000D02*
X130000000Y-80000000D01*
X127600000Y-80000000D02*
X128000000Y-80000000D01*
%TO.C,J5*%
X163940000Y-142090000D02*
X163940000Y-149910000D01*
X163940000Y-143690000D02*
X164860000Y-143690000D01*
X163940000Y-149910000D02*
X172060000Y-149910000D01*
X164700000Y-146050000D02*
X164700000Y-147650000D01*
X164700000Y-147650000D02*
X165700000Y-147650000D01*
X164860000Y-142090000D02*
X163940000Y-142090000D01*
X164860000Y-143690000D02*
X164860000Y-142090000D01*
X165140000Y-143690000D02*
X164860000Y-143690000D01*
X165140000Y-143690000D02*
X165140000Y-142475000D01*
X165200000Y-147650000D02*
X165200000Y-149910000D01*
X165700000Y-146050000D02*
X164700000Y-146050000D01*
X165700000Y-147650000D02*
X165700000Y-146050000D01*
X165700000Y-147650000D02*
X165700000Y-149910000D01*
X166500000Y-145550000D02*
X169500000Y-145550000D01*
X166500000Y-149910000D02*
X166500000Y-145550000D01*
X169500000Y-145550000D02*
X169500000Y-149910000D01*
X170300000Y-146050000D02*
X171300000Y-146050000D01*
X170300000Y-147650000D02*
X170300000Y-146050000D01*
X171140000Y-142090000D02*
X171140000Y-143690000D01*
X171140000Y-143690000D02*
X170860000Y-143690000D01*
X171300000Y-146050000D02*
X171300000Y-147650000D01*
X171300000Y-147650000D02*
X170300000Y-147650000D01*
X172060000Y-142090000D02*
X171140000Y-142090000D01*
X172060000Y-143690000D02*
X171140000Y-143690000D01*
X172060000Y-149910000D02*
X172060000Y-142090000D01*
D17*
%TO.C,C2*%
X129500000Y-135750001D02*
X138500000Y-135750001D01*
X139500000Y-135750001D02*
X140000000Y-135750001D01*
X139500000Y-135750001D02*
X139000000Y-135250001D01*
X139000000Y-135250001D02*
X138500000Y-135750001D01*
X140500000Y-135250001D02*
X140500000Y-131250001D01*
D16*
X141100000Y-134925001D02*
X141100000Y-134075001D01*
X140700000Y-134500001D02*
X141500000Y-134500001D01*
X141100000Y-132400001D02*
X141100000Y-131550001D01*
D17*
X129000000Y-131250001D02*
X129000000Y-135250001D01*
X139000000Y-131250001D02*
X138500000Y-130750001D01*
X138500000Y-130750001D02*
X129500000Y-130750001D01*
X139500000Y-130750001D02*
X139000000Y-131250001D01*
X140000000Y-130750001D02*
X139500000Y-130750001D01*
X129500000Y-135750001D02*
G75*
G02*
X129000000Y-135250001I1J500001D01*
G01*
X140500000Y-135250001D02*
G75*
G02*
X140000000Y-135750001I-500001J1D01*
G01*
X129000000Y-131250001D02*
G75*
G02*
X129500000Y-130750001I500000J0D01*
G01*
X140000000Y-130750001D02*
G75*
G02*
X140500000Y-131250001I0J-500000D01*
G01*
D15*
X139000000Y-131250001D02*
X139500000Y-130750001D01*
X140000000Y-130750001D01*
X140353553Y-130896448D01*
X140500000Y-131250001D01*
X140500000Y-131750001D01*
X129000000Y-131750001D01*
X129000000Y-131250001D01*
X129146447Y-130896448D01*
X129500000Y-130750001D01*
X138500000Y-130750001D01*
X139000000Y-131250001D01*
G36*
X139000000Y-131250001D02*
G01*
X139500000Y-130750001D01*
X140000000Y-130750001D01*
X140353553Y-130896448D01*
X140500000Y-131250001D01*
X140500000Y-131750001D01*
X129000000Y-131750001D01*
X129000000Y-131250001D01*
X129146447Y-130896448D01*
X129500000Y-130750001D01*
X138500000Y-130750001D01*
X139000000Y-131250001D01*
G37*
D16*
%TO.C,RV1*%
X154900000Y-139599999D02*
X154899999Y-143000000D01*
X154899999Y-132000000D02*
X154899999Y-135400000D01*
X154899999Y-132000000D02*
X145100001Y-132000000D01*
X145100001Y-143000000D02*
X154899999Y-143000000D01*
X145100001Y-139600000D02*
X145100001Y-143000000D01*
X145100001Y-132000000D02*
X145100000Y-135400001D01*
X152720293Y-138860147D02*
G75*
G02*
X147300001Y-138899999I-2720293J1360147D01*
G01*
X147279707Y-136139853D02*
G75*
G02*
X152699999Y-136100001I2720293J-1360147D01*
G01*
%TD*%
%LPC*%
D18*
%TO.C,Q4*%
X148230000Y-69250000D03*
D19*
X150000000Y-69250000D03*
X151730000Y-69250000D03*
%TD*%
D20*
%TO.C,R13*%
X161190000Y-85200000D03*
D21*
X168810000Y-85200000D03*
%TD*%
D20*
%TO.C,R10*%
X159000000Y-103940000D03*
D21*
X159000000Y-111560000D03*
%TD*%
D22*
%TO.C,RV2*%
X135000000Y-126900000D03*
X135000000Y-118100000D03*
D23*
X142000000Y-119999999D03*
X142000000Y-122500000D03*
X142000000Y-125000001D03*
%TD*%
D22*
%TO.C,RV4*%
X145600000Y-107500000D03*
X154400000Y-107500000D03*
D24*
X152500001Y-114500000D03*
X150000000Y-114500000D03*
X147499999Y-114500000D03*
%TD*%
D25*
%TO.C,U3*%
X161190000Y-88690000D03*
D23*
X161190000Y-91230000D03*
X161190000Y-93770000D03*
X161190000Y-96310000D03*
X168810000Y-96310000D03*
X168810000Y-93770000D03*
X168810000Y-91230000D03*
X168810000Y-88690000D03*
%TD*%
D26*
%TO.C,D1*%
X145905000Y-99349556D03*
D20*
X142095000Y-92750442D03*
%TD*%
%TO.C,C3*%
X141000000Y-80000000D03*
X141000000Y-75000000D03*
%TD*%
%TO.C,R8*%
X167000000Y-103940000D03*
D21*
X167000000Y-111560000D03*
%TD*%
D25*
%TO.C,U1*%
X146190000Y-118690000D03*
D23*
X146190000Y-121230000D03*
X146190000Y-123770000D03*
X146190000Y-126310000D03*
X153810000Y-126310000D03*
X153810000Y-123770000D03*
X153810000Y-121230000D03*
X153810000Y-118690000D03*
%TD*%
D27*
%TO.C,J3*%
X171480000Y-77500000D03*
D28*
X168380000Y-77500000D03*
X160080000Y-77500000D03*
%TD*%
D29*
%TO.C,J4*%
X130000000Y-143550000D03*
D30*
X132000000Y-143550000D03*
X134000000Y-143550000D03*
%TD*%
D31*
%TO.C,Q2*%
X154621769Y-91827866D03*
D32*
X153736769Y-90295001D03*
X152871769Y-88796777D03*
%TD*%
D27*
%TO.C,J2*%
X171480000Y-62500000D03*
D28*
X168380000Y-62500000D03*
X160080000Y-62500000D03*
%TD*%
D20*
%TO.C,R4*%
X153810000Y-85160000D03*
D21*
X146190000Y-85160000D03*
%TD*%
D20*
%TO.C,R6*%
X136999999Y-103690000D03*
D21*
X136999999Y-111310000D03*
%TD*%
D20*
%TO.C,R9*%
X141000000Y-111310000D03*
D21*
X141000000Y-103690000D03*
%TD*%
D33*
%TO.C,Q1*%
X147148232Y-88787135D03*
D34*
X146263232Y-90320000D03*
X145398232Y-91818224D03*
%TD*%
D20*
%TO.C,R11*%
X156600000Y-58690000D03*
D21*
X156600000Y-66310000D03*
%TD*%
D35*
%TO.C,D4*%
X171000000Y-103940001D03*
D20*
X171000000Y-111560001D03*
%TD*%
%TO.C,R2*%
X143400000Y-66310000D03*
D21*
X143400000Y-58690000D03*
%TD*%
D20*
%TO.C,R3*%
X156650000Y-81410000D03*
D21*
X156650000Y-73790000D03*
%TD*%
D20*
%TO.C,C1*%
X155000000Y-98215064D03*
X157500000Y-93884937D03*
%TD*%
%TO.C,R5*%
X163000000Y-111560000D03*
D21*
X163000000Y-103940000D03*
%TD*%
D18*
%TO.C,Q3*%
X148230000Y-96800000D03*
D19*
X150000000Y-96800000D03*
X151730000Y-96800000D03*
%TD*%
D36*
%TO.C,D2*%
X129000000Y-111310000D03*
D20*
X129000000Y-103690000D03*
%TD*%
D37*
%TO.C,D3*%
X161190000Y-133250000D03*
D20*
X168810000Y-133250000D03*
%TD*%
D38*
%TO.C,RV5*%
X152530000Y-77505000D03*
X149990000Y-74965000D03*
X147450000Y-77505000D03*
%TD*%
D39*
%TO.C,D5*%
X148725000Y-62500000D03*
D40*
X151265000Y-62500000D03*
%TD*%
D27*
%TO.C,J1*%
X128520000Y-62500000D03*
D28*
X131620000Y-62500000D03*
X139920000Y-62500000D03*
%TD*%
D41*
%TO.C,SW1*%
X135000000Y-72800000D03*
X135000000Y-77500000D03*
X135000000Y-82200000D03*
%TD*%
D22*
%TO.C,RV3*%
X165000000Y-118100000D03*
X165000000Y-126900000D03*
D23*
X158000000Y-125000001D03*
X158000000Y-122500000D03*
X158000000Y-119999999D03*
%TD*%
D20*
%TO.C,R1*%
X138810000Y-69000000D03*
D21*
X131190000Y-69000000D03*
%TD*%
D20*
%TO.C,R7*%
X132999999Y-103690000D03*
D21*
X132999999Y-111310000D03*
%TD*%
D25*
%TO.C,U2*%
X131190000Y-88690000D03*
D23*
X131190000Y-91230000D03*
X131190000Y-93770000D03*
X131190000Y-96310000D03*
X138810000Y-96310000D03*
X138810000Y-93770000D03*
X138810000Y-91230000D03*
X138810000Y-88690000D03*
%TD*%
D20*
%TO.C,R12*%
X161190000Y-69250000D03*
D21*
X168810000Y-69250000D03*
%TD*%
D20*
%TO.C,C4*%
X129000000Y-75000000D03*
X129000000Y-80000000D03*
%TD*%
D29*
%TO.C,J5*%
X166000000Y-143550000D03*
D30*
X168000000Y-143550000D03*
X170000000Y-143550000D03*
%TD*%
D39*
%TO.C,C2*%
X142500000Y-134500001D03*
D40*
X142500000Y-132000001D03*
%TD*%
D22*
%TO.C,RV1*%
X154400000Y-137500000D03*
X145600000Y-137500000D03*
D24*
X147499999Y-130500000D03*
X150000000Y-130500000D03*
X152500001Y-130500000D03*
%TD*%
%LPD*%
M02*
