%TF.GenerationSoftware,KiCad,Pcbnew,9.0.2*%
%TF.CreationDate,2025-06-15T03:22:49+10:00*%
%TF.ProjectId,ASDR,41534452-2e6b-4696-9361-645f70636258,rev?*%
%TF.SameCoordinates,Original*%
%TF.FileFunction,Legend,Bot*%
%TF.FilePolarity,Positive*%
%FSLAX46Y46*%
G04 Gerber Fmt 4.6, Leading zero omitted, Abs format (unit mm)*
G04 Created by KiCad (PCBNEW 9.0.2) date 2025-06-15 03:22:49*
%MOMM*%
%LPD*%
G01*
G04 APERTURE LIST*
%ADD10C,0.150000*%
%ADD11C,0.200000*%
%ADD12C,0.010000*%
G04 APERTURE END LIST*
D10*
X155357142Y-146454486D02*
X154785714Y-146454486D01*
X155471428Y-146797343D02*
X155071428Y-145597343D01*
X155071428Y-145597343D02*
X154671428Y-146797343D01*
X154328571Y-146740201D02*
X154157143Y-146797343D01*
X154157143Y-146797343D02*
X153871428Y-146797343D01*
X153871428Y-146797343D02*
X153757143Y-146740201D01*
X153757143Y-146740201D02*
X153700000Y-146683058D01*
X153700000Y-146683058D02*
X153642857Y-146568772D01*
X153642857Y-146568772D02*
X153642857Y-146454486D01*
X153642857Y-146454486D02*
X153700000Y-146340201D01*
X153700000Y-146340201D02*
X153757143Y-146283058D01*
X153757143Y-146283058D02*
X153871428Y-146225915D01*
X153871428Y-146225915D02*
X154100000Y-146168772D01*
X154100000Y-146168772D02*
X154214285Y-146111629D01*
X154214285Y-146111629D02*
X154271428Y-146054486D01*
X154271428Y-146054486D02*
X154328571Y-145940201D01*
X154328571Y-145940201D02*
X154328571Y-145825915D01*
X154328571Y-145825915D02*
X154271428Y-145711629D01*
X154271428Y-145711629D02*
X154214285Y-145654486D01*
X154214285Y-145654486D02*
X154100000Y-145597343D01*
X154100000Y-145597343D02*
X153814285Y-145597343D01*
X153814285Y-145597343D02*
X153642857Y-145654486D01*
X153128571Y-146797343D02*
X153128571Y-145597343D01*
X153128571Y-145597343D02*
X152842857Y-145597343D01*
X152842857Y-145597343D02*
X152671428Y-145654486D01*
X152671428Y-145654486D02*
X152557143Y-145768772D01*
X152557143Y-145768772D02*
X152500000Y-145883058D01*
X152500000Y-145883058D02*
X152442857Y-146111629D01*
X152442857Y-146111629D02*
X152442857Y-146283058D01*
X152442857Y-146283058D02*
X152500000Y-146511629D01*
X152500000Y-146511629D02*
X152557143Y-146625915D01*
X152557143Y-146625915D02*
X152671428Y-146740201D01*
X152671428Y-146740201D02*
X152842857Y-146797343D01*
X152842857Y-146797343D02*
X153128571Y-146797343D01*
X151242857Y-146797343D02*
X151642857Y-146225915D01*
X151928571Y-146797343D02*
X151928571Y-145597343D01*
X151928571Y-145597343D02*
X151471428Y-145597343D01*
X151471428Y-145597343D02*
X151357143Y-145654486D01*
X151357143Y-145654486D02*
X151300000Y-145711629D01*
X151300000Y-145711629D02*
X151242857Y-145825915D01*
X151242857Y-145825915D02*
X151242857Y-145997343D01*
X151242857Y-145997343D02*
X151300000Y-146111629D01*
X151300000Y-146111629D02*
X151357143Y-146168772D01*
X151357143Y-146168772D02*
X151471428Y-146225915D01*
X151471428Y-146225915D02*
X151928571Y-146225915D01*
X149928571Y-145997343D02*
X149642857Y-146797343D01*
X149642857Y-146797343D02*
X149357142Y-145997343D01*
X148271428Y-146797343D02*
X148957142Y-146797343D01*
X148614285Y-146797343D02*
X148614285Y-145597343D01*
X148614285Y-145597343D02*
X148728571Y-145768772D01*
X148728571Y-145768772D02*
X148842856Y-145883058D01*
X148842856Y-145883058D02*
X148957142Y-145940201D01*
X147757142Y-146340201D02*
X146842857Y-146340201D01*
X146042857Y-145597343D02*
X145928571Y-145597343D01*
X145928571Y-145597343D02*
X145814285Y-145654486D01*
X145814285Y-145654486D02*
X145757143Y-145711629D01*
X145757143Y-145711629D02*
X145700000Y-145825915D01*
X145700000Y-145825915D02*
X145642857Y-146054486D01*
X145642857Y-146054486D02*
X145642857Y-146340201D01*
X145642857Y-146340201D02*
X145700000Y-146568772D01*
X145700000Y-146568772D02*
X145757143Y-146683058D01*
X145757143Y-146683058D02*
X145814285Y-146740201D01*
X145814285Y-146740201D02*
X145928571Y-146797343D01*
X145928571Y-146797343D02*
X146042857Y-146797343D01*
X146042857Y-146797343D02*
X146157143Y-146740201D01*
X146157143Y-146740201D02*
X146214285Y-146683058D01*
X146214285Y-146683058D02*
X146271428Y-146568772D01*
X146271428Y-146568772D02*
X146328571Y-146340201D01*
X146328571Y-146340201D02*
X146328571Y-146054486D01*
X146328571Y-146054486D02*
X146271428Y-145825915D01*
X146271428Y-145825915D02*
X146214285Y-145711629D01*
X146214285Y-145711629D02*
X146157143Y-145654486D01*
X146157143Y-145654486D02*
X146042857Y-145597343D01*
X159342855Y-148547342D02*
X159342855Y-147347342D01*
X159342855Y-147347342D02*
X158885712Y-147347342D01*
X158885712Y-147347342D02*
X158771427Y-147404485D01*
X158771427Y-147404485D02*
X158714284Y-147461628D01*
X158714284Y-147461628D02*
X158657141Y-147575914D01*
X158657141Y-147575914D02*
X158657141Y-147747342D01*
X158657141Y-147747342D02*
X158714284Y-147861628D01*
X158714284Y-147861628D02*
X158771427Y-147918771D01*
X158771427Y-147918771D02*
X158885712Y-147975914D01*
X158885712Y-147975914D02*
X159342855Y-147975914D01*
X157628570Y-148547342D02*
X157628570Y-147918771D01*
X157628570Y-147918771D02*
X157685712Y-147804485D01*
X157685712Y-147804485D02*
X157799998Y-147747342D01*
X157799998Y-147747342D02*
X158028570Y-147747342D01*
X158028570Y-147747342D02*
X158142855Y-147804485D01*
X157628570Y-148490200D02*
X157742855Y-148547342D01*
X157742855Y-148547342D02*
X158028570Y-148547342D01*
X158028570Y-148547342D02*
X158142855Y-148490200D01*
X158142855Y-148490200D02*
X158199998Y-148375914D01*
X158199998Y-148375914D02*
X158199998Y-148261628D01*
X158199998Y-148261628D02*
X158142855Y-148147342D01*
X158142855Y-148147342D02*
X158028570Y-148090200D01*
X158028570Y-148090200D02*
X157742855Y-148090200D01*
X157742855Y-148090200D02*
X157628570Y-148033057D01*
X157057141Y-147747342D02*
X157057141Y-148547342D01*
X157057141Y-147861628D02*
X156999998Y-147804485D01*
X156999998Y-147804485D02*
X156885713Y-147747342D01*
X156885713Y-147747342D02*
X156714284Y-147747342D01*
X156714284Y-147747342D02*
X156599998Y-147804485D01*
X156599998Y-147804485D02*
X156542856Y-147918771D01*
X156542856Y-147918771D02*
X156542856Y-148547342D01*
X155457142Y-148490200D02*
X155571427Y-148547342D01*
X155571427Y-148547342D02*
X155799999Y-148547342D01*
X155799999Y-148547342D02*
X155914284Y-148490200D01*
X155914284Y-148490200D02*
X155971427Y-148433057D01*
X155971427Y-148433057D02*
X156028570Y-148318771D01*
X156028570Y-148318771D02*
X156028570Y-147975914D01*
X156028570Y-147975914D02*
X155971427Y-147861628D01*
X155971427Y-147861628D02*
X155914284Y-147804485D01*
X155914284Y-147804485D02*
X155799999Y-147747342D01*
X155799999Y-147747342D02*
X155571427Y-147747342D01*
X155571427Y-147747342D02*
X155457142Y-147804485D01*
X154428571Y-148547342D02*
X154428571Y-147918771D01*
X154428571Y-147918771D02*
X154485713Y-147804485D01*
X154485713Y-147804485D02*
X154599999Y-147747342D01*
X154599999Y-147747342D02*
X154828571Y-147747342D01*
X154828571Y-147747342D02*
X154942856Y-147804485D01*
X154428571Y-148490200D02*
X154542856Y-148547342D01*
X154542856Y-148547342D02*
X154828571Y-148547342D01*
X154828571Y-148547342D02*
X154942856Y-148490200D01*
X154942856Y-148490200D02*
X154999999Y-148375914D01*
X154999999Y-148375914D02*
X154999999Y-148261628D01*
X154999999Y-148261628D02*
X154942856Y-148147342D01*
X154942856Y-148147342D02*
X154828571Y-148090200D01*
X154828571Y-148090200D02*
X154542856Y-148090200D01*
X154542856Y-148090200D02*
X154428571Y-148033057D01*
X153857142Y-148547342D02*
X153857142Y-147347342D01*
X153742857Y-148090200D02*
X153399999Y-148547342D01*
X153399999Y-147747342D02*
X153857142Y-148204485D01*
X152428570Y-148490200D02*
X152542856Y-148547342D01*
X152542856Y-148547342D02*
X152771428Y-148547342D01*
X152771428Y-148547342D02*
X152885713Y-148490200D01*
X152885713Y-148490200D02*
X152942856Y-148375914D01*
X152942856Y-148375914D02*
X152942856Y-147918771D01*
X152942856Y-147918771D02*
X152885713Y-147804485D01*
X152885713Y-147804485D02*
X152771428Y-147747342D01*
X152771428Y-147747342D02*
X152542856Y-147747342D01*
X152542856Y-147747342D02*
X152428570Y-147804485D01*
X152428570Y-147804485D02*
X152371428Y-147918771D01*
X152371428Y-147918771D02*
X152371428Y-148033057D01*
X152371428Y-148033057D02*
X152942856Y-148147342D01*
X151285714Y-148547342D02*
X151857142Y-148547342D01*
X151857142Y-148547342D02*
X151857142Y-147347342D01*
X150428570Y-148490200D02*
X150542856Y-148547342D01*
X150542856Y-148547342D02*
X150771428Y-148547342D01*
X150771428Y-148547342D02*
X150885713Y-148490200D01*
X150885713Y-148490200D02*
X150942856Y-148375914D01*
X150942856Y-148375914D02*
X150942856Y-147918771D01*
X150942856Y-147918771D02*
X150885713Y-147804485D01*
X150885713Y-147804485D02*
X150771428Y-147747342D01*
X150771428Y-147747342D02*
X150542856Y-147747342D01*
X150542856Y-147747342D02*
X150428570Y-147804485D01*
X150428570Y-147804485D02*
X150371428Y-147918771D01*
X150371428Y-147918771D02*
X150371428Y-148033057D01*
X150371428Y-148033057D02*
X150942856Y-148147342D01*
X149342857Y-147747342D02*
X149342857Y-148718771D01*
X149342857Y-148718771D02*
X149399999Y-148833057D01*
X149399999Y-148833057D02*
X149457142Y-148890200D01*
X149457142Y-148890200D02*
X149571428Y-148947342D01*
X149571428Y-148947342D02*
X149742857Y-148947342D01*
X149742857Y-148947342D02*
X149857142Y-148890200D01*
X149342857Y-148490200D02*
X149457142Y-148547342D01*
X149457142Y-148547342D02*
X149685714Y-148547342D01*
X149685714Y-148547342D02*
X149799999Y-148490200D01*
X149799999Y-148490200D02*
X149857142Y-148433057D01*
X149857142Y-148433057D02*
X149914285Y-148318771D01*
X149914285Y-148318771D02*
X149914285Y-147975914D01*
X149914285Y-147975914D02*
X149857142Y-147861628D01*
X149857142Y-147861628D02*
X149799999Y-147804485D01*
X149799999Y-147804485D02*
X149685714Y-147747342D01*
X149685714Y-147747342D02*
X149457142Y-147747342D01*
X149457142Y-147747342D02*
X149342857Y-147804485D01*
X148314285Y-148490200D02*
X148428571Y-148547342D01*
X148428571Y-148547342D02*
X148657143Y-148547342D01*
X148657143Y-148547342D02*
X148771428Y-148490200D01*
X148771428Y-148490200D02*
X148828571Y-148375914D01*
X148828571Y-148375914D02*
X148828571Y-147918771D01*
X148828571Y-147918771D02*
X148771428Y-147804485D01*
X148771428Y-147804485D02*
X148657143Y-147747342D01*
X148657143Y-147747342D02*
X148428571Y-147747342D01*
X148428571Y-147747342D02*
X148314285Y-147804485D01*
X148314285Y-147804485D02*
X148257143Y-147918771D01*
X148257143Y-147918771D02*
X148257143Y-148033057D01*
X148257143Y-148033057D02*
X148828571Y-148147342D01*
X147742857Y-147747342D02*
X147742857Y-148547342D01*
X147742857Y-147861628D02*
X147685714Y-147804485D01*
X147685714Y-147804485D02*
X147571429Y-147747342D01*
X147571429Y-147747342D02*
X147400000Y-147747342D01*
X147400000Y-147747342D02*
X147285714Y-147804485D01*
X147285714Y-147804485D02*
X147228572Y-147918771D01*
X147228572Y-147918771D02*
X147228572Y-148547342D01*
X146142858Y-148547342D02*
X146142858Y-147347342D01*
X146142858Y-148490200D02*
X146257143Y-148547342D01*
X146257143Y-148547342D02*
X146485715Y-148547342D01*
X146485715Y-148547342D02*
X146600000Y-148490200D01*
X146600000Y-148490200D02*
X146657143Y-148433057D01*
X146657143Y-148433057D02*
X146714286Y-148318771D01*
X146714286Y-148318771D02*
X146714286Y-147975914D01*
X146714286Y-147975914D02*
X146657143Y-147861628D01*
X146657143Y-147861628D02*
X146600000Y-147804485D01*
X146600000Y-147804485D02*
X146485715Y-147747342D01*
X146485715Y-147747342D02*
X146257143Y-147747342D01*
X146257143Y-147747342D02*
X146142858Y-147804485D01*
X144714286Y-147461628D02*
X144657143Y-147404485D01*
X144657143Y-147404485D02*
X144542858Y-147347342D01*
X144542858Y-147347342D02*
X144257143Y-147347342D01*
X144257143Y-147347342D02*
X144142858Y-147404485D01*
X144142858Y-147404485D02*
X144085715Y-147461628D01*
X144085715Y-147461628D02*
X144028572Y-147575914D01*
X144028572Y-147575914D02*
X144028572Y-147690200D01*
X144028572Y-147690200D02*
X144085715Y-147861628D01*
X144085715Y-147861628D02*
X144771429Y-148547342D01*
X144771429Y-148547342D02*
X144028572Y-148547342D01*
X143285715Y-147347342D02*
X143171429Y-147347342D01*
X143171429Y-147347342D02*
X143057143Y-147404485D01*
X143057143Y-147404485D02*
X143000001Y-147461628D01*
X143000001Y-147461628D02*
X142942858Y-147575914D01*
X142942858Y-147575914D02*
X142885715Y-147804485D01*
X142885715Y-147804485D02*
X142885715Y-148090200D01*
X142885715Y-148090200D02*
X142942858Y-148318771D01*
X142942858Y-148318771D02*
X143000001Y-148433057D01*
X143000001Y-148433057D02*
X143057143Y-148490200D01*
X143057143Y-148490200D02*
X143171429Y-148547342D01*
X143171429Y-148547342D02*
X143285715Y-148547342D01*
X143285715Y-148547342D02*
X143400001Y-148490200D01*
X143400001Y-148490200D02*
X143457143Y-148433057D01*
X143457143Y-148433057D02*
X143514286Y-148318771D01*
X143514286Y-148318771D02*
X143571429Y-148090200D01*
X143571429Y-148090200D02*
X143571429Y-147804485D01*
X143571429Y-147804485D02*
X143514286Y-147575914D01*
X143514286Y-147575914D02*
X143457143Y-147461628D01*
X143457143Y-147461628D02*
X143400001Y-147404485D01*
X143400001Y-147404485D02*
X143285715Y-147347342D01*
X142428572Y-147461628D02*
X142371429Y-147404485D01*
X142371429Y-147404485D02*
X142257144Y-147347342D01*
X142257144Y-147347342D02*
X141971429Y-147347342D01*
X141971429Y-147347342D02*
X141857144Y-147404485D01*
X141857144Y-147404485D02*
X141800001Y-147461628D01*
X141800001Y-147461628D02*
X141742858Y-147575914D01*
X141742858Y-147575914D02*
X141742858Y-147690200D01*
X141742858Y-147690200D02*
X141800001Y-147861628D01*
X141800001Y-147861628D02*
X142485715Y-148547342D01*
X142485715Y-148547342D02*
X141742858Y-148547342D01*
X140657144Y-147347342D02*
X141228572Y-147347342D01*
X141228572Y-147347342D02*
X141285715Y-147918771D01*
X141285715Y-147918771D02*
X141228572Y-147861628D01*
X141228572Y-147861628D02*
X141114287Y-147804485D01*
X141114287Y-147804485D02*
X140828572Y-147804485D01*
X140828572Y-147804485D02*
X140714287Y-147861628D01*
X140714287Y-147861628D02*
X140657144Y-147918771D01*
X140657144Y-147918771D02*
X140600001Y-148033057D01*
X140600001Y-148033057D02*
X140600001Y-148318771D01*
X140600001Y-148318771D02*
X140657144Y-148433057D01*
X140657144Y-148433057D02*
X140714287Y-148490200D01*
X140714287Y-148490200D02*
X140828572Y-148547342D01*
X140828572Y-148547342D02*
X141114287Y-148547342D01*
X141114287Y-148547342D02*
X141228572Y-148490200D01*
X141228572Y-148490200D02*
X141285715Y-148433057D01*
D11*
X132093316Y-145483958D02*
X132093316Y-146451578D01*
X132577126Y-145967768D02*
X131609507Y-145967768D01*
X131307126Y-146874911D02*
X132577126Y-147298244D01*
X132577126Y-147298244D02*
X131307126Y-147721578D01*
X129367602Y-146149197D02*
X129307126Y-146028244D01*
X129307126Y-146028244D02*
X129307126Y-145846816D01*
X129307126Y-145846816D02*
X129367602Y-145665387D01*
X129367602Y-145665387D02*
X129488554Y-145544435D01*
X129488554Y-145544435D02*
X129609507Y-145483958D01*
X129609507Y-145483958D02*
X129851411Y-145423482D01*
X129851411Y-145423482D02*
X130032840Y-145423482D01*
X130032840Y-145423482D02*
X130274745Y-145483958D01*
X130274745Y-145483958D02*
X130395697Y-145544435D01*
X130395697Y-145544435D02*
X130516650Y-145665387D01*
X130516650Y-145665387D02*
X130577126Y-145846816D01*
X130577126Y-145846816D02*
X130577126Y-145967768D01*
X130577126Y-145967768D02*
X130516650Y-146149197D01*
X130516650Y-146149197D02*
X130456173Y-146209673D01*
X130456173Y-146209673D02*
X130032840Y-146209673D01*
X130032840Y-146209673D02*
X130032840Y-145967768D01*
X130577126Y-146753958D02*
X129307126Y-146753958D01*
X129307126Y-146753958D02*
X130577126Y-147479673D01*
X130577126Y-147479673D02*
X129307126Y-147479673D01*
X130577126Y-148084434D02*
X129307126Y-148084434D01*
X129307126Y-148084434D02*
X129307126Y-148386815D01*
X129307126Y-148386815D02*
X129367602Y-148568244D01*
X129367602Y-148568244D02*
X129488554Y-148689196D01*
X129488554Y-148689196D02*
X129609507Y-148749673D01*
X129609507Y-148749673D02*
X129851411Y-148810149D01*
X129851411Y-148810149D02*
X130032840Y-148810149D01*
X130032840Y-148810149D02*
X130274745Y-148749673D01*
X130274745Y-148749673D02*
X130395697Y-148689196D01*
X130395697Y-148689196D02*
X130516650Y-148568244D01*
X130516650Y-148568244D02*
X130577126Y-148386815D01*
X130577126Y-148386815D02*
X130577126Y-148084434D01*
X134093316Y-145483958D02*
X134093316Y-146451578D01*
X133307126Y-146874911D02*
X134577126Y-147298244D01*
X134577126Y-147298244D02*
X133307126Y-147721578D01*
X168093316Y-145483958D02*
X168093316Y-146451578D01*
X168577126Y-145967768D02*
X167609507Y-145967768D01*
X167307126Y-146874911D02*
X168577126Y-147298244D01*
X168577126Y-147298244D02*
X167307126Y-147721578D01*
X165367602Y-146149197D02*
X165307126Y-146028244D01*
X165307126Y-146028244D02*
X165307126Y-145846816D01*
X165307126Y-145846816D02*
X165367602Y-145665387D01*
X165367602Y-145665387D02*
X165488554Y-145544435D01*
X165488554Y-145544435D02*
X165609507Y-145483958D01*
X165609507Y-145483958D02*
X165851411Y-145423482D01*
X165851411Y-145423482D02*
X166032840Y-145423482D01*
X166032840Y-145423482D02*
X166274745Y-145483958D01*
X166274745Y-145483958D02*
X166395697Y-145544435D01*
X166395697Y-145544435D02*
X166516650Y-145665387D01*
X166516650Y-145665387D02*
X166577126Y-145846816D01*
X166577126Y-145846816D02*
X166577126Y-145967768D01*
X166577126Y-145967768D02*
X166516650Y-146149197D01*
X166516650Y-146149197D02*
X166456173Y-146209673D01*
X166456173Y-146209673D02*
X166032840Y-146209673D01*
X166032840Y-146209673D02*
X166032840Y-145967768D01*
X166577126Y-146753958D02*
X165307126Y-146753958D01*
X165307126Y-146753958D02*
X166577126Y-147479673D01*
X166577126Y-147479673D02*
X165307126Y-147479673D01*
X166577126Y-148084434D02*
X165307126Y-148084434D01*
X165307126Y-148084434D02*
X165307126Y-148386815D01*
X165307126Y-148386815D02*
X165367602Y-148568244D01*
X165367602Y-148568244D02*
X165488554Y-148689196D01*
X165488554Y-148689196D02*
X165609507Y-148749673D01*
X165609507Y-148749673D02*
X165851411Y-148810149D01*
X165851411Y-148810149D02*
X166032840Y-148810149D01*
X166032840Y-148810149D02*
X166274745Y-148749673D01*
X166274745Y-148749673D02*
X166395697Y-148689196D01*
X166395697Y-148689196D02*
X166516650Y-148568244D01*
X166516650Y-148568244D02*
X166577126Y-148386815D01*
X166577126Y-148386815D02*
X166577126Y-148084434D01*
X170093316Y-145483958D02*
X170093316Y-146451578D01*
X169307126Y-146874911D02*
X170577126Y-147298244D01*
X170577126Y-147298244D02*
X169307126Y-147721578D01*
D12*
%TO.C,Ref\u002A\u002A*%
X148734737Y-101141985D02*
X148733501Y-101242784D01*
X148728763Y-101315197D01*
X148718421Y-101371359D01*
X148700376Y-101423408D01*
X148672528Y-101483480D01*
X148638865Y-101543091D01*
X148575170Y-101634561D01*
X148508694Y-101711822D01*
X148488973Y-101730408D01*
X148415209Y-101788475D01*
X148328686Y-101844704D01*
X148240693Y-101892740D01*
X148162517Y-101926228D01*
X148105445Y-101938816D01*
X148087573Y-101941987D01*
X148070973Y-101958540D01*
X148068685Y-101965262D01*
X148058297Y-101995786D01*
X148047291Y-102060906D01*
X148035701Y-102161083D01*
X148015591Y-102324233D01*
X147968115Y-102614609D01*
X147904613Y-102925321D01*
X147860275Y-103109618D01*
X147827509Y-103245816D01*
X147774256Y-103438678D01*
X147739227Y-103565543D01*
X147642191Y-103873950D01*
X147641660Y-103875530D01*
X147602145Y-103996409D01*
X147568767Y-104104847D01*
X147543479Y-104193963D01*
X147528236Y-104256874D01*
X147524992Y-104286700D01*
X147528206Y-104296656D01*
X147544180Y-104344138D01*
X147568661Y-104415674D01*
X147597805Y-104500000D01*
X147643065Y-104641226D01*
X147687519Y-104819979D01*
X147716870Y-105003041D01*
X147732967Y-105202722D01*
X147737224Y-105410167D01*
X147737658Y-105431333D01*
X147733058Y-105652896D01*
X147719159Y-105845101D01*
X147695861Y-105997957D01*
X147663052Y-106112473D01*
X147642505Y-106147213D01*
X147599865Y-106183502D01*
X147531986Y-106217338D01*
X147433294Y-106251410D01*
X147298215Y-106288404D01*
X147216014Y-106308384D01*
X147202854Y-106310931D01*
X146984367Y-106353218D01*
X146760788Y-106376981D01*
X146525313Y-106382093D01*
X146284377Y-106378785D01*
X146106374Y-106593832D01*
X145883399Y-106849601D01*
X145613951Y-107130949D01*
X145327840Y-107404540D01*
X145036032Y-107659928D01*
X144749492Y-107886667D01*
X144701333Y-107922752D01*
X144627832Y-107979626D01*
X144581153Y-108020158D01*
X144556164Y-108049810D01*
X144547734Y-108074047D01*
X144550734Y-108098333D01*
X144554331Y-108118816D01*
X144559676Y-108181092D01*
X144563261Y-108266526D01*
X144564298Y-108350199D01*
X144564455Y-108362917D01*
X144563816Y-108433436D01*
X144559897Y-108516123D01*
X144550277Y-108578685D01*
X144532531Y-108634587D01*
X144504234Y-108697296D01*
X144475158Y-108751155D01*
X144369431Y-108891996D01*
X144235608Y-109010928D01*
X144082363Y-109101160D01*
X143918375Y-109155900D01*
X143755036Y-109172143D01*
X143581279Y-109152192D01*
X143415723Y-109096816D01*
X143264362Y-109009531D01*
X143133190Y-108893852D01*
X143028204Y-108753291D01*
X142955399Y-108591365D01*
X142941309Y-108524767D01*
X142931855Y-108430995D01*
X142929285Y-108360191D01*
X143286316Y-108360191D01*
X143304529Y-108474941D01*
X143352516Y-108583367D01*
X143431713Y-108679366D01*
X143543557Y-108756834D01*
X143670664Y-108801606D01*
X143802194Y-108806950D01*
X143929398Y-108771486D01*
X144047338Y-108695812D01*
X144057941Y-108686493D01*
X144145050Y-108583460D01*
X144196547Y-108469292D01*
X144214695Y-108350199D01*
X144201758Y-108232390D01*
X144159998Y-108122076D01*
X144091679Y-108025467D01*
X143999065Y-107948771D01*
X143884417Y-107898200D01*
X143750000Y-107879963D01*
X143721804Y-107880694D01*
X143591554Y-107905210D01*
X143482456Y-107960025D01*
X143395946Y-108039034D01*
X143333461Y-108136134D01*
X143296439Y-108245221D01*
X143286316Y-108360191D01*
X142929285Y-108360191D01*
X142928047Y-108326091D01*
X142929987Y-108223313D01*
X142937775Y-108135919D01*
X142951510Y-108077167D01*
X142951766Y-108076499D01*
X142944672Y-108052518D01*
X142909559Y-108013523D01*
X142843810Y-107957024D01*
X142744808Y-107880531D01*
X142674496Y-107827077D01*
X142337411Y-107550752D01*
X142004035Y-107245631D01*
X141685187Y-106922032D01*
X141391685Y-106590271D01*
X141215433Y-106378935D01*
X140964008Y-106381775D01*
X140881219Y-106381427D01*
X140706941Y-106373095D01*
X140533685Y-106355590D01*
X140367353Y-106330229D01*
X140287599Y-106313658D01*
X141656766Y-106313658D01*
X141658042Y-106318505D01*
X141678760Y-106348372D01*
X141719069Y-106398863D01*
X141773183Y-106462577D01*
X141948706Y-106657752D01*
X142267604Y-106983695D01*
X142598065Y-107287645D01*
X142929867Y-107559903D01*
X143161908Y-107738434D01*
X143242605Y-107674521D01*
X143312450Y-107624080D01*
X143430160Y-107563076D01*
X143561077Y-107526789D01*
X143718250Y-107510727D01*
X143787976Y-107508658D01*
X143879677Y-107511323D01*
X143955792Y-107523190D01*
X144032717Y-107546106D01*
X144083506Y-107566373D01*
X144177422Y-107612759D01*
X144257663Y-107662153D01*
X144358642Y-107734700D01*
X144588779Y-107556008D01*
X144833667Y-107356869D01*
X145111098Y-107111496D01*
X145378751Y-106854812D01*
X145621904Y-106600435D01*
X145884993Y-106310931D01*
X145713833Y-106255317D01*
X145652200Y-106234266D01*
X145572804Y-106199919D01*
X145521002Y-106162025D01*
X145487946Y-106113140D01*
X145464786Y-106045821D01*
X145457606Y-106016228D01*
X145438192Y-105906586D01*
X145421965Y-105772592D01*
X145410102Y-105627613D01*
X145403781Y-105485016D01*
X145404160Y-105364467D01*
X145582189Y-105364467D01*
X145584700Y-105572968D01*
X145601031Y-105777805D01*
X145630232Y-105960500D01*
X145633159Y-105972830D01*
X145646709Y-106006244D01*
X145671459Y-106033214D01*
X145713498Y-106056547D01*
X145778917Y-106079046D01*
X145873804Y-106103517D01*
X146004250Y-106132765D01*
X146099139Y-106150072D01*
X146270587Y-106170341D01*
X146458112Y-106182057D01*
X146647428Y-106184794D01*
X146824246Y-106178127D01*
X146974279Y-106161632D01*
X147080666Y-106142454D01*
X147200730Y-106117026D01*
X147310591Y-106090102D01*
X147399696Y-106064289D01*
X147457494Y-106042196D01*
X147477398Y-106020795D01*
X147501327Y-105958210D01*
X147520830Y-105861301D01*
X147535267Y-105734622D01*
X147543998Y-105582726D01*
X147546382Y-105410167D01*
X147545611Y-105348789D01*
X147533982Y-105129093D01*
X147506545Y-104926351D01*
X147460575Y-104728113D01*
X147393342Y-104521934D01*
X147302121Y-104295363D01*
X147218249Y-104101310D01*
X147099270Y-104184656D01*
X146935436Y-104275516D01*
X146754758Y-104331538D01*
X146567210Y-104350508D01*
X146379623Y-104332422D01*
X146198830Y-104277278D01*
X146031661Y-104185074D01*
X145913279Y-104102147D01*
X145848929Y-104242865D01*
X145819531Y-104308479D01*
X145731127Y-104530337D01*
X145666517Y-104742437D01*
X145621342Y-104961003D01*
X145591245Y-105202261D01*
X145582189Y-105364467D01*
X145404160Y-105364467D01*
X145404180Y-105358166D01*
X145404805Y-105340745D01*
X145407316Y-105252881D01*
X145406351Y-105198778D01*
X145400574Y-105171068D01*
X145388652Y-105162384D01*
X145369250Y-105165360D01*
X145330599Y-105172497D01*
X145270050Y-105177044D01*
X145213183Y-105177333D01*
X145206550Y-105701208D01*
X145204348Y-105859788D01*
X145201837Y-105988274D01*
X145198610Y-106085757D01*
X145194170Y-106158006D01*
X145188026Y-106210788D01*
X145179682Y-106249873D01*
X145168644Y-106281030D01*
X145154420Y-106310027D01*
X145134552Y-106344505D01*
X145034010Y-106467593D01*
X144903861Y-106560586D01*
X144890724Y-106567436D01*
X144869593Y-106576857D01*
X144844737Y-106584658D01*
X144812293Y-106591022D01*
X144768403Y-106596132D01*
X144709204Y-106600171D01*
X144630837Y-106603322D01*
X144529441Y-106605768D01*
X144401154Y-106607692D01*
X144242117Y-106609278D01*
X144048468Y-106610708D01*
X143816347Y-106612166D01*
X143724195Y-106612714D01*
X143488739Y-106613864D01*
X143290467Y-106614120D01*
X143125566Y-106613113D01*
X142990225Y-106610477D01*
X142880633Y-106605843D01*
X142792978Y-106598844D01*
X142723450Y-106589112D01*
X142668237Y-106576280D01*
X142623528Y-106559981D01*
X142585512Y-106539847D01*
X142550376Y-106515509D01*
X142514311Y-106486602D01*
X142486155Y-106459963D01*
X142427721Y-106387889D01*
X142382226Y-106311250D01*
X142380809Y-106308200D01*
X142365311Y-106272841D01*
X142353511Y-106238209D01*
X142344903Y-106198153D01*
X142338982Y-106146521D01*
X142335241Y-106077162D01*
X142333175Y-105983925D01*
X142332277Y-105860657D01*
X142332040Y-105701208D01*
X142331718Y-105606641D01*
X142330242Y-105475137D01*
X142327742Y-105362650D01*
X142324404Y-105275008D01*
X142320414Y-105218041D01*
X142315958Y-105197578D01*
X142309631Y-105196865D01*
X142269991Y-105190361D01*
X142211624Y-105179528D01*
X142123165Y-105162399D01*
X142122508Y-105450324D01*
X142120415Y-105565251D01*
X142120241Y-105574845D01*
X142110353Y-105743356D01*
X142093458Y-105892479D01*
X142070455Y-106016512D01*
X142042240Y-106109753D01*
X142009713Y-106166501D01*
X142008836Y-106167415D01*
X141965150Y-106197814D01*
X141895624Y-106231446D01*
X141814896Y-106261197D01*
X141803780Y-106264677D01*
X141732153Y-106287536D01*
X141679580Y-106305047D01*
X141656766Y-106313658D01*
X140287599Y-106313658D01*
X140213847Y-106298334D01*
X140079067Y-106261224D01*
X139968916Y-106220219D01*
X139889295Y-106176638D01*
X139846105Y-106131800D01*
X139821321Y-106066725D01*
X139795797Y-105950952D01*
X139777018Y-105801597D01*
X139765535Y-105623312D01*
X139761899Y-105420750D01*
X139762009Y-105401091D01*
X139943801Y-105401091D01*
X139944408Y-105499156D01*
X139952084Y-105605937D01*
X139967155Y-105737887D01*
X139967291Y-105738968D01*
X139985002Y-105866089D01*
X140001625Y-105955309D01*
X140018154Y-106010977D01*
X140035584Y-106037444D01*
X140041096Y-106040913D01*
X140088781Y-106060241D01*
X140166497Y-106083704D01*
X140264640Y-106108953D01*
X140373605Y-106133639D01*
X140483787Y-106155414D01*
X140585583Y-106171929D01*
X140729215Y-106186038D01*
X140959959Y-106190164D01*
X141202326Y-106175722D01*
X141441195Y-106143789D01*
X141661446Y-106095437D01*
X141703882Y-106083800D01*
X141779865Y-106060376D01*
X141827223Y-106036074D01*
X141854510Y-106002247D01*
X141870283Y-105950247D01*
X141883099Y-105871427D01*
X141914695Y-105565251D01*
X141913788Y-105252813D01*
X141876084Y-104948386D01*
X141800617Y-104644401D01*
X141686417Y-104333289D01*
X141588366Y-104100995D01*
X141469162Y-104184498D01*
X141453212Y-104195381D01*
X141294281Y-104279039D01*
X141119470Y-104332819D01*
X140944126Y-104351833D01*
X140809711Y-104351833D01*
X140841206Y-104441098D01*
X140849856Y-104464002D01*
X140885906Y-104545075D01*
X140926300Y-104621823D01*
X140929905Y-104628062D01*
X140966692Y-104714530D01*
X140966886Y-104780353D01*
X140930480Y-104825221D01*
X140925576Y-104827912D01*
X140871511Y-104833181D01*
X140795398Y-104812702D01*
X140703770Y-104770663D01*
X140603157Y-104711249D01*
X140500091Y-104638647D01*
X140401104Y-104557045D01*
X140312727Y-104470628D01*
X140241491Y-104383583D01*
X140196808Y-104320083D01*
X140140156Y-104447083D01*
X140128576Y-104474002D01*
X140072856Y-104631548D01*
X140023720Y-104816495D01*
X139984103Y-105016476D01*
X139956940Y-105219124D01*
X139949941Y-105295288D01*
X139943801Y-105401091D01*
X139762009Y-105401091D01*
X139762160Y-105374270D01*
X139768099Y-105177901D01*
X139783556Y-105005226D01*
X139810891Y-104841320D01*
X139852464Y-104671261D01*
X139910635Y-104480125D01*
X139985394Y-104250425D01*
X139867760Y-103904254D01*
X139778616Y-103625034D01*
X139769318Y-103592115D01*
X140096386Y-103592115D01*
X140110421Y-103754212D01*
X140144599Y-103919750D01*
X140195865Y-104070433D01*
X140200301Y-104080545D01*
X140264541Y-104199212D01*
X140349862Y-104322633D01*
X140444916Y-104435791D01*
X140538353Y-104523667D01*
X140595256Y-104565416D01*
X140663682Y-104610334D01*
X140732139Y-104651278D01*
X140791875Y-104683281D01*
X140834135Y-104701376D01*
X140850167Y-104700596D01*
X140849080Y-104695727D01*
X140835140Y-104661817D01*
X140810275Y-104610282D01*
X140803880Y-104597028D01*
X140775999Y-104531010D01*
X140743097Y-104444217D01*
X140711005Y-104351833D01*
X140704635Y-104332432D01*
X140687609Y-104277877D01*
X140674528Y-104227592D01*
X140664757Y-104174920D01*
X140657659Y-104113203D01*
X140652599Y-104035785D01*
X140648941Y-103936008D01*
X140646049Y-103807216D01*
X140643287Y-103642750D01*
X140641885Y-103553810D01*
X140722877Y-103553810D01*
X140723428Y-103680839D01*
X140726006Y-103805436D01*
X140730633Y-103919991D01*
X140737326Y-104016888D01*
X140746107Y-104088517D01*
X140746537Y-104090980D01*
X140760606Y-104162405D01*
X140775496Y-104202815D01*
X140797627Y-104222844D01*
X140833420Y-104233125D01*
X140928749Y-104242326D01*
X141070800Y-104229655D01*
X141215962Y-104191081D01*
X141349544Y-104129553D01*
X141469344Y-104041886D01*
X141494126Y-104014535D01*
X141769018Y-104014535D01*
X141838441Y-104156726D01*
X141859680Y-104202073D01*
X141920121Y-104348593D01*
X141978095Y-104511674D01*
X142027544Y-104673476D01*
X142062409Y-104816160D01*
X142074239Y-104870631D01*
X142091199Y-104924099D01*
X142111987Y-104952535D01*
X142142016Y-104966139D01*
X142196577Y-104979243D01*
X142263042Y-104993409D01*
X142331833Y-105006942D01*
X142331833Y-104583457D01*
X142331994Y-104496758D01*
X142333699Y-104355154D01*
X142338261Y-104245582D01*
X142342933Y-104199926D01*
X142681083Y-104199926D01*
X142681083Y-106175907D01*
X142731053Y-106216370D01*
X142732692Y-106217681D01*
X142746464Y-106226990D01*
X142764582Y-106234697D01*
X142790844Y-106240952D01*
X142829050Y-106245906D01*
X142882998Y-106249710D01*
X142956487Y-106252515D01*
X143053315Y-106254472D01*
X143177282Y-106255731D01*
X143332186Y-106256444D01*
X143521826Y-106256761D01*
X143750000Y-106256833D01*
X143781404Y-106256832D01*
X144004448Y-106256737D01*
X144189442Y-106256378D01*
X144340186Y-106255604D01*
X144460477Y-106254264D01*
X144554115Y-106252208D01*
X144624898Y-106249283D01*
X144676625Y-106245341D01*
X144713094Y-106240229D01*
X144738105Y-106233797D01*
X144755457Y-106225895D01*
X144768947Y-106216370D01*
X144818917Y-106175907D01*
X144818917Y-104199926D01*
X144768947Y-104159463D01*
X144767308Y-104158152D01*
X144753536Y-104148843D01*
X144735419Y-104141136D01*
X144709156Y-104134881D01*
X144670951Y-104129927D01*
X144617003Y-104126123D01*
X144543514Y-104123318D01*
X144446685Y-104121361D01*
X144322718Y-104120102D01*
X144167814Y-104119389D01*
X143978174Y-104119072D01*
X143750000Y-104119000D01*
X143718596Y-104119001D01*
X143495552Y-104119096D01*
X143310558Y-104119455D01*
X143159815Y-104120229D01*
X143039524Y-104121569D01*
X142945886Y-104123625D01*
X142875103Y-104126550D01*
X142823376Y-104130492D01*
X142786906Y-104135604D01*
X142761895Y-104142036D01*
X142744544Y-104149938D01*
X142731053Y-104159463D01*
X142681083Y-104199926D01*
X142342933Y-104199926D01*
X142346893Y-104161227D01*
X142360806Y-104095274D01*
X142381213Y-104040909D01*
X142409327Y-103991316D01*
X142446360Y-103939680D01*
X142475548Y-103908556D01*
X142538396Y-103857454D01*
X142609747Y-103811649D01*
X142723417Y-103748800D01*
X143183792Y-103741327D01*
X143241608Y-103740288D01*
X143370327Y-103737203D01*
X143481018Y-103733479D01*
X143567606Y-103729384D01*
X143624014Y-103725184D01*
X143644167Y-103721144D01*
X143643842Y-103719201D01*
X143877000Y-103719201D01*
X143877134Y-103721144D01*
X143877542Y-103727097D01*
X143883322Y-103738421D01*
X143899773Y-103746722D01*
X143932173Y-103752471D01*
X143985797Y-103756139D01*
X144065924Y-103758198D01*
X144177830Y-103759119D01*
X144326792Y-103759373D01*
X144414794Y-103759469D01*
X144544392Y-103760145D01*
X144641983Y-103761982D01*
X144714213Y-103765582D01*
X144767726Y-103771543D01*
X144809168Y-103780469D01*
X144845183Y-103792958D01*
X144882417Y-103809613D01*
X144975114Y-103862965D01*
X145072468Y-103954638D01*
X145145288Y-104076667D01*
X145156948Y-104104422D01*
X145168987Y-104142751D01*
X145177558Y-104188921D01*
X145178586Y-104199926D01*
X145183246Y-104249828D01*
X145186637Y-104332371D01*
X145188316Y-104443449D01*
X145188869Y-104589958D01*
X145189237Y-104692011D01*
X145190888Y-104816975D01*
X145194095Y-104906597D01*
X145199132Y-104965110D01*
X145206273Y-104996745D01*
X145215792Y-105005733D01*
X145224549Y-105004633D01*
X145270456Y-104996350D01*
X145332113Y-104983340D01*
X145381410Y-104969459D01*
X145417815Y-104945560D01*
X145434448Y-104906231D01*
X145439616Y-104882891D01*
X145514135Y-104594190D01*
X145600948Y-104337229D01*
X145698450Y-104116811D01*
X145740851Y-104033699D01*
X145621516Y-103788275D01*
X145606541Y-103756504D01*
X145820367Y-103756504D01*
X145859392Y-103825907D01*
X145874790Y-103851750D01*
X145975852Y-103977522D01*
X146043222Y-104033699D01*
X146106083Y-104086117D01*
X146255158Y-104170142D01*
X146412750Y-104222200D01*
X146448569Y-104229369D01*
X146558520Y-104242791D01*
X146660195Y-104237235D01*
X146776320Y-104212068D01*
X146928684Y-104154478D01*
X147081416Y-104055484D01*
X147210355Y-103923032D01*
X147312470Y-103759679D01*
X147323780Y-103736429D01*
X147353607Y-103667493D01*
X147370606Y-103605918D01*
X147378259Y-103535160D01*
X147380050Y-103438678D01*
X147379842Y-103403579D01*
X147377655Y-103325118D01*
X147373590Y-103268078D01*
X147368276Y-103242914D01*
X147355382Y-103242471D01*
X147309054Y-103252036D01*
X147238028Y-103271536D01*
X147151317Y-103298654D01*
X146946167Y-103366229D01*
X146946167Y-103423961D01*
X146946167Y-103439598D01*
X146945571Y-103460422D01*
X146920966Y-103570056D01*
X146865581Y-103661627D01*
X146786743Y-103732423D01*
X146691774Y-103779732D01*
X146587999Y-103800845D01*
X146482743Y-103793048D01*
X146383330Y-103753631D01*
X146297085Y-103679882D01*
X146251253Y-103625386D01*
X146186498Y-103679874D01*
X146104228Y-103734016D01*
X145997969Y-103769818D01*
X145895054Y-103770516D01*
X145820367Y-103756504D01*
X145606541Y-103756504D01*
X145568186Y-103675128D01*
X145524664Y-103569926D01*
X145499500Y-103485101D01*
X145491752Y-103418787D01*
X145697333Y-103418787D01*
X145699910Y-103461632D01*
X145719515Y-103519288D01*
X145766125Y-103578055D01*
X145848536Y-103641466D01*
X145936263Y-103664037D01*
X146027212Y-103644667D01*
X146038656Y-103639343D01*
X146117783Y-103581170D01*
X146167787Y-103504283D01*
X146181681Y-103439999D01*
X146309746Y-103439999D01*
X146334392Y-103532389D01*
X146389989Y-103611347D01*
X146472791Y-103666481D01*
X146501341Y-103677958D01*
X146557356Y-103692958D01*
X146606291Y-103686788D01*
X146669496Y-103658592D01*
X146748944Y-103603422D01*
X146805095Y-103522467D01*
X146823037Y-103423961D01*
X146818550Y-103377437D01*
X146785187Y-103290340D01*
X146726301Y-103224846D01*
X146650199Y-103183130D01*
X146565191Y-103167365D01*
X146479583Y-103179725D01*
X146401684Y-103222384D01*
X146339802Y-103297516D01*
X146319797Y-103344571D01*
X146312063Y-103417997D01*
X146309746Y-103439999D01*
X146181681Y-103439999D01*
X146186436Y-103417997D01*
X146171496Y-103331628D01*
X146120736Y-103254492D01*
X146051025Y-103201367D01*
X145957745Y-103173673D01*
X145856513Y-103187525D01*
X145847700Y-103190623D01*
X145767519Y-103241495D01*
X145715719Y-103319987D01*
X145697333Y-103418787D01*
X145491752Y-103418787D01*
X145490961Y-103412021D01*
X145497316Y-103342052D01*
X145516831Y-103266562D01*
X145517771Y-103263570D01*
X145536983Y-103197738D01*
X145542067Y-103153553D01*
X145532108Y-103113075D01*
X145506188Y-103058367D01*
X145499268Y-103044792D01*
X145846030Y-103044792D01*
X145850586Y-103049681D01*
X145884977Y-103057558D01*
X145942142Y-103060667D01*
X145946934Y-103060681D01*
X146037735Y-103069937D01*
X146112520Y-103101371D01*
X146189458Y-103162463D01*
X146247667Y-103216753D01*
X146305875Y-103161223D01*
X146323847Y-103145193D01*
X146424764Y-103085668D01*
X146536981Y-103060285D01*
X146650879Y-103068624D01*
X146756840Y-103110265D01*
X146845247Y-103184788D01*
X146857746Y-103198834D01*
X146898782Y-103235340D01*
X146928925Y-103248836D01*
X146954145Y-103245137D01*
X147017527Y-103229540D01*
X147093135Y-103205933D01*
X147170377Y-103178228D01*
X147238662Y-103150333D01*
X147287401Y-103126160D01*
X147306000Y-103109618D01*
X147305205Y-103098949D01*
X147281499Y-103037296D01*
X147230189Y-102962901D01*
X147158491Y-102883170D01*
X147073624Y-102805510D01*
X146982805Y-102737329D01*
X146893250Y-102686032D01*
X146866113Y-102673661D01*
X146802901Y-102649158D01*
X146741459Y-102634941D01*
X146667107Y-102628355D01*
X146565167Y-102626750D01*
X146526674Y-102626903D01*
X146435423Y-102629936D01*
X146367002Y-102638841D01*
X146306879Y-102656211D01*
X146240523Y-102684635D01*
X146182776Y-102713873D01*
X146106587Y-102758202D01*
X146050023Y-102797656D01*
X146042827Y-102803757D01*
X145995236Y-102849907D01*
X145943202Y-102907453D01*
X145895284Y-102966029D01*
X145860041Y-103015264D01*
X145846030Y-103044792D01*
X145499268Y-103044792D01*
X145489922Y-103026458D01*
X145465270Y-102979626D01*
X145452705Y-102957987D01*
X145448603Y-102957908D01*
X145420008Y-102973103D01*
X145375039Y-103004770D01*
X145336454Y-103031927D01*
X145210063Y-103101060D01*
X145069444Y-103155828D01*
X144935117Y-103187697D01*
X144845450Y-103195348D01*
X144675734Y-103185731D01*
X144509496Y-103148017D01*
X144358201Y-103085263D01*
X144233311Y-103000527D01*
X144157975Y-102934381D01*
X144071440Y-103120629D01*
X144058923Y-103148270D01*
X144016694Y-103250400D01*
X143974953Y-103362899D01*
X143936908Y-103475898D01*
X143905763Y-103579527D01*
X143884725Y-103663918D01*
X143877000Y-103719201D01*
X143643842Y-103719201D01*
X143638623Y-103688027D01*
X143619772Y-103620637D01*
X143590718Y-103531335D01*
X143554753Y-103429401D01*
X143515166Y-103324113D01*
X143475248Y-103224749D01*
X143438289Y-103140588D01*
X143341961Y-102934760D01*
X143265522Y-102994813D01*
X143249040Y-103007417D01*
X143183517Y-103052950D01*
X143125583Y-103087483D01*
X143107780Y-103098018D01*
X143099139Y-103107081D01*
X143061634Y-103146419D01*
X143024806Y-103226179D01*
X143003546Y-103274567D01*
X142954469Y-103357328D01*
X142897806Y-103430801D01*
X142857132Y-103473749D01*
X142813317Y-103509917D01*
X142771015Y-103526187D01*
X142715972Y-103530364D01*
X142646995Y-103523819D01*
X142567805Y-103489789D01*
X142544224Y-103470153D01*
X142476389Y-103393565D01*
X142415136Y-103298569D01*
X142371978Y-103202084D01*
X142343434Y-103143457D01*
X142280340Y-103088059D01*
X142266877Y-103080811D01*
X142250474Y-103070593D01*
X142443875Y-103070593D01*
X142460138Y-103137345D01*
X142489805Y-103214531D01*
X142527839Y-103289187D01*
X142569202Y-103348348D01*
X142584430Y-103364647D01*
X142654327Y-103413509D01*
X142723600Y-103420890D01*
X142790666Y-103387470D01*
X142853940Y-103313932D01*
X142911836Y-103200957D01*
X142940837Y-103107081D01*
X142939045Y-103038767D01*
X142905559Y-102998358D01*
X142878239Y-102986481D01*
X142802194Y-102968768D01*
X142713094Y-102961969D01*
X142621891Y-102965352D01*
X142539539Y-102978181D01*
X142476990Y-102999722D01*
X142445198Y-103029239D01*
X142443875Y-103070593D01*
X142250474Y-103070593D01*
X142203406Y-103041273D01*
X142139846Y-102995501D01*
X142064275Y-102936135D01*
X142034821Y-102995457D01*
X142004460Y-103056609D01*
X141984056Y-103099319D01*
X141963235Y-103153892D01*
X141952018Y-103209367D01*
X141948022Y-103279529D01*
X141948862Y-103378167D01*
X141945909Y-103436716D01*
X141938936Y-103575011D01*
X141895427Y-103767179D01*
X141817913Y-103934476D01*
X141769018Y-104014535D01*
X141494126Y-104014535D01*
X141584719Y-103914553D01*
X141673117Y-103766067D01*
X141730994Y-103604198D01*
X141754806Y-103436716D01*
X141741009Y-103271389D01*
X141722593Y-103189541D01*
X141703839Y-103138693D01*
X141678526Y-103118642D01*
X141639318Y-103123838D01*
X141578877Y-103148731D01*
X141549801Y-103160566D01*
X141417511Y-103194217D01*
X141268202Y-103207147D01*
X141118023Y-103198815D01*
X140983126Y-103168680D01*
X140982877Y-103168596D01*
X140887776Y-103139118D01*
X140822672Y-103126580D01*
X140779093Y-103130293D01*
X140748567Y-103149566D01*
X140740550Y-103173639D01*
X140733190Y-103234264D01*
X140727778Y-103322910D01*
X140724333Y-103431962D01*
X140722877Y-103553810D01*
X140641885Y-103553810D01*
X140634948Y-103113583D01*
X140687145Y-103064613D01*
X140736126Y-103030775D01*
X140800334Y-103016558D01*
X140883157Y-103026449D01*
X140992766Y-103060333D01*
X141008884Y-103065930D01*
X141144515Y-103095508D01*
X141288842Y-103101077D01*
X141427020Y-103083129D01*
X141544208Y-103042152D01*
X141634999Y-102995457D01*
X141590795Y-102933378D01*
X141559665Y-102894789D01*
X141473276Y-102812421D01*
X141368792Y-102735156D01*
X141261231Y-102674780D01*
X141252127Y-102670647D01*
X141193733Y-102648504D01*
X141131735Y-102635113D01*
X141053255Y-102628514D01*
X140945417Y-102626750D01*
X140888171Y-102627069D01*
X140800187Y-102630439D01*
X140734115Y-102639365D01*
X140676435Y-102656141D01*
X140613626Y-102683062D01*
X140593622Y-102692731D01*
X140435192Y-102794232D01*
X140306129Y-102925899D01*
X140206896Y-103087000D01*
X140137954Y-103276805D01*
X140099766Y-103494583D01*
X140096386Y-103592115D01*
X139769318Y-103592115D01*
X139692256Y-103319285D01*
X139615226Y-103009566D01*
X139549945Y-102706326D01*
X139498829Y-102420015D01*
X139464300Y-102161083D01*
X139458143Y-102103290D01*
X139447996Y-102026949D01*
X139435506Y-101981167D01*
X139792737Y-101981167D01*
X139796094Y-102012494D01*
X139806608Y-102079910D01*
X139822915Y-102174572D01*
X139843616Y-102289012D01*
X139867315Y-102415767D01*
X139892613Y-102547371D01*
X139918112Y-102676359D01*
X139942416Y-102795265D01*
X139964126Y-102896625D01*
X139981674Y-102965492D01*
X140000395Y-103008981D01*
X140017847Y-103012336D01*
X140035032Y-102976687D01*
X140067793Y-102910158D01*
X140126398Y-102827628D01*
X140201217Y-102741161D01*
X140283083Y-102661328D01*
X140362830Y-102598698D01*
X140529543Y-102508645D01*
X140714825Y-102449830D01*
X140905199Y-102426518D01*
X141094854Y-102437807D01*
X141277978Y-102482795D01*
X141448761Y-102560580D01*
X141601390Y-102670259D01*
X141730053Y-102810931D01*
X141736854Y-102820149D01*
X141782263Y-102879205D01*
X141810867Y-102908444D01*
X141828846Y-102912557D01*
X141842376Y-102896237D01*
X141846055Y-102887678D01*
X141847441Y-102851994D01*
X141830517Y-102798165D01*
X141792887Y-102717528D01*
X141773635Y-102677199D01*
X141708612Y-102485575D01*
X141682952Y-102291462D01*
X141684490Y-102266917D01*
X141897917Y-102266917D01*
X141898236Y-102324162D01*
X141901606Y-102412146D01*
X141910532Y-102478219D01*
X141927308Y-102535899D01*
X141954229Y-102598707D01*
X141991409Y-102667481D01*
X142071977Y-102780989D01*
X142165885Y-102882181D01*
X142260914Y-102956789D01*
X142333028Y-103001357D01*
X142374611Y-102948493D01*
X142374729Y-102948343D01*
X142435094Y-102901978D01*
X142526925Y-102869701D01*
X142641096Y-102853654D01*
X142768483Y-102855981D01*
X142833239Y-102864120D01*
X142904585Y-102878034D01*
X142950842Y-102893003D01*
X142985157Y-102915119D01*
X143030333Y-102957145D01*
X143036679Y-102964989D01*
X143058356Y-102984577D01*
X143083498Y-102981799D01*
X143128281Y-102956557D01*
X143191171Y-102912849D01*
X143306984Y-102799618D01*
X143401345Y-102662321D01*
X143469566Y-102510288D01*
X143506958Y-102352848D01*
X143508833Y-102199330D01*
X143495737Y-102115184D01*
X143450713Y-101965848D01*
X143375793Y-101832788D01*
X143265103Y-101704064D01*
X143199617Y-101643082D01*
X143070471Y-101551431D01*
X142930891Y-101492452D01*
X142768808Y-101460213D01*
X142623211Y-101459366D01*
X142460129Y-101494361D01*
X142304617Y-101563402D01*
X142163838Y-101662323D01*
X142044955Y-101786962D01*
X141955131Y-101933155D01*
X141939081Y-101968710D01*
X141917577Y-102027398D01*
X141905102Y-102087602D01*
X141899325Y-102162912D01*
X141897917Y-102266917D01*
X141684490Y-102266917D01*
X141694959Y-102099814D01*
X141742936Y-101915587D01*
X141825184Y-101743738D01*
X141940007Y-101589221D01*
X142085708Y-101456993D01*
X142260588Y-101352009D01*
X142310116Y-101328999D01*
X142384347Y-101298875D01*
X142451842Y-101280710D01*
X142528958Y-101270670D01*
X142632049Y-101264922D01*
X142714860Y-101262750D01*
X142811657Y-101265825D01*
X142894937Y-101277849D01*
X142981545Y-101300538D01*
X142998070Y-101305718D01*
X143186043Y-101387790D01*
X143350237Y-101504316D01*
X143488396Y-101653349D01*
X143598264Y-101832942D01*
X143599676Y-101835830D01*
X143631508Y-101902481D01*
X143652959Y-101955611D01*
X143666076Y-102006390D01*
X143672909Y-102065990D01*
X143675506Y-102145580D01*
X143675706Y-102199330D01*
X143675917Y-102256333D01*
X143675917Y-102263824D01*
X143675439Y-102372417D01*
X143672616Y-102450779D01*
X143665328Y-102510345D01*
X143651459Y-102562551D01*
X143628892Y-102618835D01*
X143595508Y-102690631D01*
X143515100Y-102860346D01*
X143587004Y-103018714D01*
X143589852Y-103025012D01*
X143630227Y-103118463D01*
X143668085Y-103212693D01*
X143695572Y-103288208D01*
X143711136Y-103334021D01*
X143728487Y-103381089D01*
X143737252Y-103399333D01*
X143743599Y-103386366D01*
X143759339Y-103342749D01*
X143780194Y-103279021D01*
X143780275Y-103278764D01*
X143809007Y-103197070D01*
X143847810Y-103098627D01*
X143888309Y-103004689D01*
X143958498Y-102850668D01*
X143897537Y-102738115D01*
X143862046Y-102666302D01*
X143798298Y-102476405D01*
X143778625Y-102322063D01*
X143991860Y-102322063D01*
X144022031Y-102489338D01*
X144087672Y-102647198D01*
X144185436Y-102789470D01*
X144311977Y-102909979D01*
X144463949Y-103002550D01*
X144498406Y-103018177D01*
X144584353Y-103050028D01*
X144669634Y-103067341D01*
X144775623Y-103075090D01*
X144844348Y-103075850D01*
X144953104Y-103068844D01*
X145035112Y-103052360D01*
X145178579Y-102989356D01*
X145325676Y-102886783D01*
X145448726Y-102757972D01*
X145539401Y-102610224D01*
X145590100Y-102500795D01*
X145469092Y-102467278D01*
X145416623Y-102451705D01*
X145347845Y-102428193D01*
X145302326Y-102408802D01*
X145291578Y-102402392D01*
X145228647Y-102348736D01*
X145164519Y-102273134D01*
X145110609Y-102190519D01*
X145078333Y-102115821D01*
X145054817Y-102028226D01*
X144962397Y-102067842D01*
X144940851Y-102076764D01*
X144752564Y-102129933D01*
X144559739Y-102142484D01*
X144368391Y-102114581D01*
X144184533Y-102046391D01*
X144118214Y-102016846D01*
X144066447Y-101999950D01*
X144040711Y-101999489D01*
X144030355Y-102022616D01*
X144015635Y-102076859D01*
X144001051Y-102148397D01*
X144000504Y-102151548D01*
X143991860Y-102322063D01*
X143778625Y-102322063D01*
X143773818Y-102284347D01*
X143787042Y-102094801D01*
X143836400Y-101912437D01*
X143867907Y-101848424D01*
X144113776Y-101848424D01*
X144133103Y-101874231D01*
X144180877Y-101910829D01*
X144246044Y-101948821D01*
X144303191Y-101976580D01*
X144356192Y-101996152D01*
X144412442Y-102007099D01*
X144484961Y-102011870D01*
X144586773Y-102012917D01*
X144671775Y-102012219D01*
X144750774Y-102008059D01*
X144811724Y-101997972D01*
X144868116Y-101979518D01*
X144933444Y-101950260D01*
X145001898Y-101920082D01*
X145065207Y-101904770D01*
X145109644Y-101919275D01*
X145144421Y-101967464D01*
X145178750Y-102053202D01*
X145236189Y-102172873D01*
X145317598Y-102270430D01*
X145415549Y-102333438D01*
X145482774Y-102353517D01*
X145551207Y-102362167D01*
X145618106Y-102362167D01*
X145608440Y-102195190D01*
X145589428Y-102060636D01*
X145530669Y-101894859D01*
X145435845Y-101748645D01*
X145307206Y-101625246D01*
X145147000Y-101527915D01*
X145091882Y-101502791D01*
X145032839Y-101481275D01*
X144973463Y-101469147D01*
X144899764Y-101463790D01*
X144797750Y-101462587D01*
X144718589Y-101463201D01*
X144639189Y-101467215D01*
X144578495Y-101477160D01*
X144522972Y-101495522D01*
X144459083Y-101524787D01*
X144451587Y-101528540D01*
X144375481Y-101574218D01*
X144297229Y-101632387D01*
X144224382Y-101695969D01*
X144164490Y-101757887D01*
X144125104Y-101811064D01*
X144113776Y-101848424D01*
X143867907Y-101848424D01*
X143920325Y-101741928D01*
X144037251Y-101587946D01*
X144185610Y-101455162D01*
X144205467Y-101443250D01*
X145278713Y-101443250D01*
X145278992Y-101444133D01*
X145299255Y-101469687D01*
X145343373Y-101511938D01*
X145402334Y-101562214D01*
X145520085Y-101657706D01*
X145577043Y-101608713D01*
X145600541Y-101590724D01*
X145695185Y-101549177D01*
X145801738Y-101539056D01*
X145910601Y-101557818D01*
X146012173Y-101602917D01*
X146096855Y-101671807D01*
X146155046Y-101761945D01*
X146156276Y-101764943D01*
X146179212Y-101859155D01*
X146181852Y-101963161D01*
X146163524Y-102053872D01*
X146151806Y-102093364D01*
X146159317Y-102104422D01*
X146189148Y-102083199D01*
X146243131Y-102029125D01*
X146251341Y-102020292D01*
X146334053Y-101907633D01*
X146380489Y-101785527D01*
X146395162Y-101642500D01*
X146391752Y-101578144D01*
X146357767Y-101435699D01*
X146291802Y-101309274D01*
X146199376Y-101203252D01*
X146086009Y-101122016D01*
X145957217Y-101069948D01*
X145818520Y-101051433D01*
X145675436Y-101070853D01*
X145638203Y-101083051D01*
X145522065Y-101142208D01*
X145416200Y-101224837D01*
X145336637Y-101319187D01*
X145311191Y-101362158D01*
X145286063Y-101413669D01*
X145278713Y-101443250D01*
X144205467Y-101443250D01*
X144363833Y-101348248D01*
X144398158Y-101331916D01*
X144462425Y-101303679D01*
X144517372Y-101286088D01*
X144575912Y-101276633D01*
X144650956Y-101272802D01*
X144755417Y-101272083D01*
X144831653Y-101272885D01*
X144925603Y-101276129D01*
X145000210Y-101281289D01*
X145043981Y-101287740D01*
X145073335Y-101293729D01*
X145102451Y-101283331D01*
X145125590Y-101240922D01*
X145151077Y-101196460D01*
X145213173Y-101123419D01*
X145295844Y-101048026D01*
X145388626Y-100979519D01*
X145481051Y-100927137D01*
X145481560Y-100926900D01*
X145550571Y-100898160D01*
X145615015Y-100881057D01*
X145690487Y-100872754D01*
X145792583Y-100870409D01*
X145808730Y-100870461D01*
X145974045Y-100884938D01*
X146115018Y-100927855D01*
X146241407Y-101003408D01*
X146362967Y-101115796D01*
X146416850Y-101178804D01*
X146503170Y-101316680D01*
X146552570Y-101465846D01*
X146568704Y-101635530D01*
X146568660Y-101642500D01*
X146568584Y-101654673D01*
X146546130Y-101836021D01*
X146485545Y-101999354D01*
X146387544Y-102143246D01*
X146252839Y-102266273D01*
X146232756Y-102280269D01*
X146135919Y-102327589D01*
X146048079Y-102340648D01*
X145974560Y-102323360D01*
X145920686Y-102279640D01*
X145891780Y-102213402D01*
X145893166Y-102128560D01*
X145930167Y-102029028D01*
X145948959Y-101992395D01*
X145968611Y-101937564D01*
X145966035Y-101891293D01*
X145942338Y-101836070D01*
X145899333Y-101782244D01*
X145834171Y-101742699D01*
X145763644Y-101728617D01*
X145701625Y-101745233D01*
X145692028Y-101756500D01*
X145689890Y-101786025D01*
X145701519Y-101838996D01*
X145728084Y-101923266D01*
X145740163Y-101961605D01*
X145779087Y-102165206D01*
X145777502Y-102362167D01*
X145777445Y-102369299D01*
X145749880Y-102500795D01*
X145735731Y-102568298D01*
X145654440Y-102756619D01*
X145642594Y-102778229D01*
X145615203Y-102835963D01*
X145608363Y-102872952D01*
X145619384Y-102900209D01*
X145632386Y-102913738D01*
X145651105Y-102913150D01*
X145678629Y-102887333D01*
X145722363Y-102831332D01*
X145808721Y-102730075D01*
X145954483Y-102607547D01*
X146132451Y-102506624D01*
X146138370Y-102503862D01*
X146218965Y-102469533D01*
X146290991Y-102448176D01*
X146371407Y-102435978D01*
X146477170Y-102429128D01*
X146579865Y-102427887D01*
X146759187Y-102446148D01*
X146918973Y-102493616D01*
X147068486Y-102572536D01*
X147167556Y-102646679D01*
X147273401Y-102746666D01*
X147364211Y-102853644D01*
X147428311Y-102955193D01*
X147470755Y-103040980D01*
X147504651Y-102886782D01*
X147529517Y-102766489D01*
X147557350Y-102617631D01*
X147584043Y-102461911D01*
X147607625Y-102311385D01*
X147626123Y-102178108D01*
X147637567Y-102074135D01*
X147641779Y-102022981D01*
X147644337Y-101965262D01*
X147638991Y-101933770D01*
X147623103Y-101918525D01*
X147594032Y-101909547D01*
X147532083Y-101888439D01*
X147414932Y-101821560D01*
X147301706Y-101725083D01*
X147200732Y-101606662D01*
X147120334Y-101473955D01*
X147097551Y-101424627D01*
X147079216Y-101371653D01*
X147068700Y-101313677D01*
X147063901Y-101238266D01*
X147062718Y-101132983D01*
X147062710Y-101118954D01*
X147455022Y-101118954D01*
X147470050Y-101242792D01*
X147517909Y-101358343D01*
X147597611Y-101458368D01*
X147708167Y-101535629D01*
X147708229Y-101535660D01*
X147839817Y-101580308D01*
X147973124Y-101585210D01*
X148100922Y-101551172D01*
X148215980Y-101478999D01*
X148301108Y-101385595D01*
X148361245Y-101267231D01*
X148384847Y-101140466D01*
X148371724Y-101012410D01*
X148321687Y-100890171D01*
X148234548Y-100780858D01*
X148211248Y-100760684D01*
X148119425Y-100703253D01*
X148015958Y-100662902D01*
X147919833Y-100647667D01*
X147891738Y-100649244D01*
X147791280Y-100673189D01*
X147689412Y-100719739D01*
X147605119Y-100780858D01*
X147527412Y-100875365D01*
X147473813Y-100994066D01*
X147455022Y-101118954D01*
X147062710Y-101118954D01*
X147062583Y-100909216D01*
X146872083Y-100828561D01*
X146597547Y-100718684D01*
X146064572Y-100539241D01*
X145513167Y-100396209D01*
X144946685Y-100290398D01*
X144368482Y-100222622D01*
X144347292Y-100220955D01*
X144201456Y-100213076D01*
X144026826Y-100208456D01*
X143832289Y-100206927D01*
X143626729Y-100208322D01*
X143419033Y-100212471D01*
X143218085Y-100219209D01*
X143032770Y-100228366D01*
X142871974Y-100239776D01*
X142744583Y-100253271D01*
X142195546Y-100342836D01*
X141654875Y-100465154D01*
X141131171Y-100619982D01*
X140617333Y-100809176D01*
X140373917Y-100907727D01*
X140373917Y-101124844D01*
X140373917Y-101132238D01*
X140372939Y-101235439D01*
X140368479Y-101310642D01*
X140358301Y-101368656D01*
X140340171Y-101422139D01*
X140311854Y-101483750D01*
X140255181Y-101579580D01*
X140154268Y-101701402D01*
X140035907Y-101804235D01*
X139911773Y-101876614D01*
X139877150Y-101892106D01*
X139824318Y-101921096D01*
X139799105Y-101948214D01*
X139792737Y-101981167D01*
X139435506Y-101981167D01*
X139434970Y-101979201D01*
X139414224Y-101951369D01*
X139380917Y-101934777D01*
X139330207Y-101920747D01*
X139275840Y-101903716D01*
X139137839Y-101833585D01*
X139009193Y-101731466D01*
X138898231Y-101604767D01*
X138813280Y-101460897D01*
X138799918Y-101430139D01*
X138782263Y-101376270D01*
X138771706Y-101315035D01*
X138766588Y-101234797D01*
X138765250Y-101123917D01*
X138765259Y-101122318D01*
X139119631Y-101122318D01*
X139137355Y-101256945D01*
X139141093Y-101269152D01*
X139189269Y-101364327D01*
X139263938Y-101455112D01*
X139353171Y-101529202D01*
X139445039Y-101574294D01*
X139453483Y-101576754D01*
X139571482Y-101597931D01*
X139679118Y-101586853D01*
X139793199Y-101541958D01*
X139817361Y-101528946D01*
X139923697Y-101447858D01*
X139997335Y-101349412D01*
X140039733Y-101239708D01*
X140052349Y-101124844D01*
X140036643Y-101010919D01*
X139994074Y-100904032D01*
X139926100Y-100810281D01*
X139834180Y-100735765D01*
X139719774Y-100686582D01*
X139584339Y-100668833D01*
X139506507Y-100675092D01*
X139380904Y-100714455D01*
X139274863Y-100784848D01*
X139192936Y-100880281D01*
X139139675Y-100994768D01*
X139119631Y-101122318D01*
X138765259Y-101122318D01*
X138765618Y-101058346D01*
X138768833Y-100965786D01*
X138776743Y-100897456D01*
X138791005Y-100841719D01*
X138813280Y-100786936D01*
X138882068Y-100663431D01*
X139001486Y-100521473D01*
X139150260Y-100409936D01*
X139327922Y-100329236D01*
X139485370Y-100293810D01*
X139661587Y-100291805D01*
X139834466Y-100326262D01*
X139995582Y-100395426D01*
X140136511Y-100497545D01*
X140230358Y-100584050D01*
X140455881Y-100489564D01*
X140657752Y-100408123D01*
X141213828Y-100214674D01*
X141783101Y-100060280D01*
X142362532Y-99945264D01*
X142949085Y-99869951D01*
X143539721Y-99834664D01*
X144131403Y-99839728D01*
X144721092Y-99885467D01*
X145305750Y-99972206D01*
X145323386Y-99975489D01*
X145663604Y-100047990D01*
X146019802Y-100139723D01*
X146377414Y-100246360D01*
X146721872Y-100363574D01*
X147038607Y-100487035D01*
X147268631Y-100583626D01*
X147373006Y-100489784D01*
X147374700Y-100488266D01*
X147517578Y-100387010D01*
X147674464Y-100321871D01*
X147839572Y-100291598D01*
X148007119Y-100294941D01*
X148171319Y-100330650D01*
X148326389Y-100397473D01*
X148466544Y-100494161D01*
X148586000Y-100619462D01*
X148678973Y-100772126D01*
X148702042Y-100824824D01*
X148719229Y-100878483D01*
X148729131Y-100938153D01*
X148733665Y-101015931D01*
X148734750Y-101123917D01*
X148734738Y-101140466D01*
X148734737Y-101141985D01*
G36*
X148734737Y-101141985D02*
G01*
X148733501Y-101242784D01*
X148728763Y-101315197D01*
X148718421Y-101371359D01*
X148700376Y-101423408D01*
X148672528Y-101483480D01*
X148638865Y-101543091D01*
X148575170Y-101634561D01*
X148508694Y-101711822D01*
X148488973Y-101730408D01*
X148415209Y-101788475D01*
X148328686Y-101844704D01*
X148240693Y-101892740D01*
X148162517Y-101926228D01*
X148105445Y-101938816D01*
X148087573Y-101941987D01*
X148070973Y-101958540D01*
X148068685Y-101965262D01*
X148058297Y-101995786D01*
X148047291Y-102060906D01*
X148035701Y-102161083D01*
X148015591Y-102324233D01*
X147968115Y-102614609D01*
X147904613Y-102925321D01*
X147860275Y-103109618D01*
X147827509Y-103245816D01*
X147774256Y-103438678D01*
X147739227Y-103565543D01*
X147642191Y-103873950D01*
X147641660Y-103875530D01*
X147602145Y-103996409D01*
X147568767Y-104104847D01*
X147543479Y-104193963D01*
X147528236Y-104256874D01*
X147524992Y-104286700D01*
X147528206Y-104296656D01*
X147544180Y-104344138D01*
X147568661Y-104415674D01*
X147597805Y-104500000D01*
X147643065Y-104641226D01*
X147687519Y-104819979D01*
X147716870Y-105003041D01*
X147732967Y-105202722D01*
X147737224Y-105410167D01*
X147737658Y-105431333D01*
X147733058Y-105652896D01*
X147719159Y-105845101D01*
X147695861Y-105997957D01*
X147663052Y-106112473D01*
X147642505Y-106147213D01*
X147599865Y-106183502D01*
X147531986Y-106217338D01*
X147433294Y-106251410D01*
X147298215Y-106288404D01*
X147216014Y-106308384D01*
X147202854Y-106310931D01*
X146984367Y-106353218D01*
X146760788Y-106376981D01*
X146525313Y-106382093D01*
X146284377Y-106378785D01*
X146106374Y-106593832D01*
X145883399Y-106849601D01*
X145613951Y-107130949D01*
X145327840Y-107404540D01*
X145036032Y-107659928D01*
X144749492Y-107886667D01*
X144701333Y-107922752D01*
X144627832Y-107979626D01*
X144581153Y-108020158D01*
X144556164Y-108049810D01*
X144547734Y-108074047D01*
X144550734Y-108098333D01*
X144554331Y-108118816D01*
X144559676Y-108181092D01*
X144563261Y-108266526D01*
X144564298Y-108350199D01*
X144564455Y-108362917D01*
X144563816Y-108433436D01*
X144559897Y-108516123D01*
X144550277Y-108578685D01*
X144532531Y-108634587D01*
X144504234Y-108697296D01*
X144475158Y-108751155D01*
X144369431Y-108891996D01*
X144235608Y-109010928D01*
X144082363Y-109101160D01*
X143918375Y-109155900D01*
X143755036Y-109172143D01*
X143581279Y-109152192D01*
X143415723Y-109096816D01*
X143264362Y-109009531D01*
X143133190Y-108893852D01*
X143028204Y-108753291D01*
X142955399Y-108591365D01*
X142941309Y-108524767D01*
X142931855Y-108430995D01*
X142929285Y-108360191D01*
X143286316Y-108360191D01*
X143304529Y-108474941D01*
X143352516Y-108583367D01*
X143431713Y-108679366D01*
X143543557Y-108756834D01*
X143670664Y-108801606D01*
X143802194Y-108806950D01*
X143929398Y-108771486D01*
X144047338Y-108695812D01*
X144057941Y-108686493D01*
X144145050Y-108583460D01*
X144196547Y-108469292D01*
X144214695Y-108350199D01*
X144201758Y-108232390D01*
X144159998Y-108122076D01*
X144091679Y-108025467D01*
X143999065Y-107948771D01*
X143884417Y-107898200D01*
X143750000Y-107879963D01*
X143721804Y-107880694D01*
X143591554Y-107905210D01*
X143482456Y-107960025D01*
X143395946Y-108039034D01*
X143333461Y-108136134D01*
X143296439Y-108245221D01*
X143286316Y-108360191D01*
X142929285Y-108360191D01*
X142928047Y-108326091D01*
X142929987Y-108223313D01*
X142937775Y-108135919D01*
X142951510Y-108077167D01*
X142951766Y-108076499D01*
X142944672Y-108052518D01*
X142909559Y-108013523D01*
X142843810Y-107957024D01*
X142744808Y-107880531D01*
X142674496Y-107827077D01*
X142337411Y-107550752D01*
X142004035Y-107245631D01*
X141685187Y-106922032D01*
X141391685Y-106590271D01*
X141215433Y-106378935D01*
X140964008Y-106381775D01*
X140881219Y-106381427D01*
X140706941Y-106373095D01*
X140533685Y-106355590D01*
X140367353Y-106330229D01*
X140287599Y-106313658D01*
X141656766Y-106313658D01*
X141658042Y-106318505D01*
X141678760Y-106348372D01*
X141719069Y-106398863D01*
X141773183Y-106462577D01*
X141948706Y-106657752D01*
X142267604Y-106983695D01*
X142598065Y-107287645D01*
X142929867Y-107559903D01*
X143161908Y-107738434D01*
X143242605Y-107674521D01*
X143312450Y-107624080D01*
X143430160Y-107563076D01*
X143561077Y-107526789D01*
X143718250Y-107510727D01*
X143787976Y-107508658D01*
X143879677Y-107511323D01*
X143955792Y-107523190D01*
X144032717Y-107546106D01*
X144083506Y-107566373D01*
X144177422Y-107612759D01*
X144257663Y-107662153D01*
X144358642Y-107734700D01*
X144588779Y-107556008D01*
X144833667Y-107356869D01*
X145111098Y-107111496D01*
X145378751Y-106854812D01*
X145621904Y-106600435D01*
X145884993Y-106310931D01*
X145713833Y-106255317D01*
X145652200Y-106234266D01*
X145572804Y-106199919D01*
X145521002Y-106162025D01*
X145487946Y-106113140D01*
X145464786Y-106045821D01*
X145457606Y-106016228D01*
X145438192Y-105906586D01*
X145421965Y-105772592D01*
X145410102Y-105627613D01*
X145403781Y-105485016D01*
X145404160Y-105364467D01*
X145582189Y-105364467D01*
X145584700Y-105572968D01*
X145601031Y-105777805D01*
X145630232Y-105960500D01*
X145633159Y-105972830D01*
X145646709Y-106006244D01*
X145671459Y-106033214D01*
X145713498Y-106056547D01*
X145778917Y-106079046D01*
X145873804Y-106103517D01*
X146004250Y-106132765D01*
X146099139Y-106150072D01*
X146270587Y-106170341D01*
X146458112Y-106182057D01*
X146647428Y-106184794D01*
X146824246Y-106178127D01*
X146974279Y-106161632D01*
X147080666Y-106142454D01*
X147200730Y-106117026D01*
X147310591Y-106090102D01*
X147399696Y-106064289D01*
X147457494Y-106042196D01*
X147477398Y-106020795D01*
X147501327Y-105958210D01*
X147520830Y-105861301D01*
X147535267Y-105734622D01*
X147543998Y-105582726D01*
X147546382Y-105410167D01*
X147545611Y-105348789D01*
X147533982Y-105129093D01*
X147506545Y-104926351D01*
X147460575Y-104728113D01*
X147393342Y-104521934D01*
X147302121Y-104295363D01*
X147218249Y-104101310D01*
X147099270Y-104184656D01*
X146935436Y-104275516D01*
X146754758Y-104331538D01*
X146567210Y-104350508D01*
X146379623Y-104332422D01*
X146198830Y-104277278D01*
X146031661Y-104185074D01*
X145913279Y-104102147D01*
X145848929Y-104242865D01*
X145819531Y-104308479D01*
X145731127Y-104530337D01*
X145666517Y-104742437D01*
X145621342Y-104961003D01*
X145591245Y-105202261D01*
X145582189Y-105364467D01*
X145404160Y-105364467D01*
X145404180Y-105358166D01*
X145404805Y-105340745D01*
X145407316Y-105252881D01*
X145406351Y-105198778D01*
X145400574Y-105171068D01*
X145388652Y-105162384D01*
X145369250Y-105165360D01*
X145330599Y-105172497D01*
X145270050Y-105177044D01*
X145213183Y-105177333D01*
X145206550Y-105701208D01*
X145204348Y-105859788D01*
X145201837Y-105988274D01*
X145198610Y-106085757D01*
X145194170Y-106158006D01*
X145188026Y-106210788D01*
X145179682Y-106249873D01*
X145168644Y-106281030D01*
X145154420Y-106310027D01*
X145134552Y-106344505D01*
X145034010Y-106467593D01*
X144903861Y-106560586D01*
X144890724Y-106567436D01*
X144869593Y-106576857D01*
X144844737Y-106584658D01*
X144812293Y-106591022D01*
X144768403Y-106596132D01*
X144709204Y-106600171D01*
X144630837Y-106603322D01*
X144529441Y-106605768D01*
X144401154Y-106607692D01*
X144242117Y-106609278D01*
X144048468Y-106610708D01*
X143816347Y-106612166D01*
X143724195Y-106612714D01*
X143488739Y-106613864D01*
X143290467Y-106614120D01*
X143125566Y-106613113D01*
X142990225Y-106610477D01*
X142880633Y-106605843D01*
X142792978Y-106598844D01*
X142723450Y-106589112D01*
X142668237Y-106576280D01*
X142623528Y-106559981D01*
X142585512Y-106539847D01*
X142550376Y-106515509D01*
X142514311Y-106486602D01*
X142486155Y-106459963D01*
X142427721Y-106387889D01*
X142382226Y-106311250D01*
X142380809Y-106308200D01*
X142365311Y-106272841D01*
X142353511Y-106238209D01*
X142344903Y-106198153D01*
X142338982Y-106146521D01*
X142335241Y-106077162D01*
X142333175Y-105983925D01*
X142332277Y-105860657D01*
X142332040Y-105701208D01*
X142331718Y-105606641D01*
X142330242Y-105475137D01*
X142327742Y-105362650D01*
X142324404Y-105275008D01*
X142320414Y-105218041D01*
X142315958Y-105197578D01*
X142309631Y-105196865D01*
X142269991Y-105190361D01*
X142211624Y-105179528D01*
X142123165Y-105162399D01*
X142122508Y-105450324D01*
X142120415Y-105565251D01*
X142120241Y-105574845D01*
X142110353Y-105743356D01*
X142093458Y-105892479D01*
X142070455Y-106016512D01*
X142042240Y-106109753D01*
X142009713Y-106166501D01*
X142008836Y-106167415D01*
X141965150Y-106197814D01*
X141895624Y-106231446D01*
X141814896Y-106261197D01*
X141803780Y-106264677D01*
X141732153Y-106287536D01*
X141679580Y-106305047D01*
X141656766Y-106313658D01*
X140287599Y-106313658D01*
X140213847Y-106298334D01*
X140079067Y-106261224D01*
X139968916Y-106220219D01*
X139889295Y-106176638D01*
X139846105Y-106131800D01*
X139821321Y-106066725D01*
X139795797Y-105950952D01*
X139777018Y-105801597D01*
X139765535Y-105623312D01*
X139761899Y-105420750D01*
X139762009Y-105401091D01*
X139943801Y-105401091D01*
X139944408Y-105499156D01*
X139952084Y-105605937D01*
X139967155Y-105737887D01*
X139967291Y-105738968D01*
X139985002Y-105866089D01*
X140001625Y-105955309D01*
X140018154Y-106010977D01*
X140035584Y-106037444D01*
X140041096Y-106040913D01*
X140088781Y-106060241D01*
X140166497Y-106083704D01*
X140264640Y-106108953D01*
X140373605Y-106133639D01*
X140483787Y-106155414D01*
X140585583Y-106171929D01*
X140729215Y-106186038D01*
X140959959Y-106190164D01*
X141202326Y-106175722D01*
X141441195Y-106143789D01*
X141661446Y-106095437D01*
X141703882Y-106083800D01*
X141779865Y-106060376D01*
X141827223Y-106036074D01*
X141854510Y-106002247D01*
X141870283Y-105950247D01*
X141883099Y-105871427D01*
X141914695Y-105565251D01*
X141913788Y-105252813D01*
X141876084Y-104948386D01*
X141800617Y-104644401D01*
X141686417Y-104333289D01*
X141588366Y-104100995D01*
X141469162Y-104184498D01*
X141453212Y-104195381D01*
X141294281Y-104279039D01*
X141119470Y-104332819D01*
X140944126Y-104351833D01*
X140809711Y-104351833D01*
X140841206Y-104441098D01*
X140849856Y-104464002D01*
X140885906Y-104545075D01*
X140926300Y-104621823D01*
X140929905Y-104628062D01*
X140966692Y-104714530D01*
X140966886Y-104780353D01*
X140930480Y-104825221D01*
X140925576Y-104827912D01*
X140871511Y-104833181D01*
X140795398Y-104812702D01*
X140703770Y-104770663D01*
X140603157Y-104711249D01*
X140500091Y-104638647D01*
X140401104Y-104557045D01*
X140312727Y-104470628D01*
X140241491Y-104383583D01*
X140196808Y-104320083D01*
X140140156Y-104447083D01*
X140128576Y-104474002D01*
X140072856Y-104631548D01*
X140023720Y-104816495D01*
X139984103Y-105016476D01*
X139956940Y-105219124D01*
X139949941Y-105295288D01*
X139943801Y-105401091D01*
X139762009Y-105401091D01*
X139762160Y-105374270D01*
X139768099Y-105177901D01*
X139783556Y-105005226D01*
X139810891Y-104841320D01*
X139852464Y-104671261D01*
X139910635Y-104480125D01*
X139985394Y-104250425D01*
X139867760Y-103904254D01*
X139778616Y-103625034D01*
X139769318Y-103592115D01*
X140096386Y-103592115D01*
X140110421Y-103754212D01*
X140144599Y-103919750D01*
X140195865Y-104070433D01*
X140200301Y-104080545D01*
X140264541Y-104199212D01*
X140349862Y-104322633D01*
X140444916Y-104435791D01*
X140538353Y-104523667D01*
X140595256Y-104565416D01*
X140663682Y-104610334D01*
X140732139Y-104651278D01*
X140791875Y-104683281D01*
X140834135Y-104701376D01*
X140850167Y-104700596D01*
X140849080Y-104695727D01*
X140835140Y-104661817D01*
X140810275Y-104610282D01*
X140803880Y-104597028D01*
X140775999Y-104531010D01*
X140743097Y-104444217D01*
X140711005Y-104351833D01*
X140704635Y-104332432D01*
X140687609Y-104277877D01*
X140674528Y-104227592D01*
X140664757Y-104174920D01*
X140657659Y-104113203D01*
X140652599Y-104035785D01*
X140648941Y-103936008D01*
X140646049Y-103807216D01*
X140643287Y-103642750D01*
X140641885Y-103553810D01*
X140722877Y-103553810D01*
X140723428Y-103680839D01*
X140726006Y-103805436D01*
X140730633Y-103919991D01*
X140737326Y-104016888D01*
X140746107Y-104088517D01*
X140746537Y-104090980D01*
X140760606Y-104162405D01*
X140775496Y-104202815D01*
X140797627Y-104222844D01*
X140833420Y-104233125D01*
X140928749Y-104242326D01*
X141070800Y-104229655D01*
X141215962Y-104191081D01*
X141349544Y-104129553D01*
X141469344Y-104041886D01*
X141494126Y-104014535D01*
X141769018Y-104014535D01*
X141838441Y-104156726D01*
X141859680Y-104202073D01*
X141920121Y-104348593D01*
X141978095Y-104511674D01*
X142027544Y-104673476D01*
X142062409Y-104816160D01*
X142074239Y-104870631D01*
X142091199Y-104924099D01*
X142111987Y-104952535D01*
X142142016Y-104966139D01*
X142196577Y-104979243D01*
X142263042Y-104993409D01*
X142331833Y-105006942D01*
X142331833Y-104583457D01*
X142331994Y-104496758D01*
X142333699Y-104355154D01*
X142338261Y-104245582D01*
X142342933Y-104199926D01*
X142681083Y-104199926D01*
X142681083Y-106175907D01*
X142731053Y-106216370D01*
X142732692Y-106217681D01*
X142746464Y-106226990D01*
X142764582Y-106234697D01*
X142790844Y-106240952D01*
X142829050Y-106245906D01*
X142882998Y-106249710D01*
X142956487Y-106252515D01*
X143053315Y-106254472D01*
X143177282Y-106255731D01*
X143332186Y-106256444D01*
X143521826Y-106256761D01*
X143750000Y-106256833D01*
X143781404Y-106256832D01*
X144004448Y-106256737D01*
X144189442Y-106256378D01*
X144340186Y-106255604D01*
X144460477Y-106254264D01*
X144554115Y-106252208D01*
X144624898Y-106249283D01*
X144676625Y-106245341D01*
X144713094Y-106240229D01*
X144738105Y-106233797D01*
X144755457Y-106225895D01*
X144768947Y-106216370D01*
X144818917Y-106175907D01*
X144818917Y-104199926D01*
X144768947Y-104159463D01*
X144767308Y-104158152D01*
X144753536Y-104148843D01*
X144735419Y-104141136D01*
X144709156Y-104134881D01*
X144670951Y-104129927D01*
X144617003Y-104126123D01*
X144543514Y-104123318D01*
X144446685Y-104121361D01*
X144322718Y-104120102D01*
X144167814Y-104119389D01*
X143978174Y-104119072D01*
X143750000Y-104119000D01*
X143718596Y-104119001D01*
X143495552Y-104119096D01*
X143310558Y-104119455D01*
X143159815Y-104120229D01*
X143039524Y-104121569D01*
X142945886Y-104123625D01*
X142875103Y-104126550D01*
X142823376Y-104130492D01*
X142786906Y-104135604D01*
X142761895Y-104142036D01*
X142744544Y-104149938D01*
X142731053Y-104159463D01*
X142681083Y-104199926D01*
X142342933Y-104199926D01*
X142346893Y-104161227D01*
X142360806Y-104095274D01*
X142381213Y-104040909D01*
X142409327Y-103991316D01*
X142446360Y-103939680D01*
X142475548Y-103908556D01*
X142538396Y-103857454D01*
X142609747Y-103811649D01*
X142723417Y-103748800D01*
X143183792Y-103741327D01*
X143241608Y-103740288D01*
X143370327Y-103737203D01*
X143481018Y-103733479D01*
X143567606Y-103729384D01*
X143624014Y-103725184D01*
X143644167Y-103721144D01*
X143643842Y-103719201D01*
X143877000Y-103719201D01*
X143877134Y-103721144D01*
X143877542Y-103727097D01*
X143883322Y-103738421D01*
X143899773Y-103746722D01*
X143932173Y-103752471D01*
X143985797Y-103756139D01*
X144065924Y-103758198D01*
X144177830Y-103759119D01*
X144326792Y-103759373D01*
X144414794Y-103759469D01*
X144544392Y-103760145D01*
X144641983Y-103761982D01*
X144714213Y-103765582D01*
X144767726Y-103771543D01*
X144809168Y-103780469D01*
X144845183Y-103792958D01*
X144882417Y-103809613D01*
X144975114Y-103862965D01*
X145072468Y-103954638D01*
X145145288Y-104076667D01*
X145156948Y-104104422D01*
X145168987Y-104142751D01*
X145177558Y-104188921D01*
X145178586Y-104199926D01*
X145183246Y-104249828D01*
X145186637Y-104332371D01*
X145188316Y-104443449D01*
X145188869Y-104589958D01*
X145189237Y-104692011D01*
X145190888Y-104816975D01*
X145194095Y-104906597D01*
X145199132Y-104965110D01*
X145206273Y-104996745D01*
X145215792Y-105005733D01*
X145224549Y-105004633D01*
X145270456Y-104996350D01*
X145332113Y-104983340D01*
X145381410Y-104969459D01*
X145417815Y-104945560D01*
X145434448Y-104906231D01*
X145439616Y-104882891D01*
X145514135Y-104594190D01*
X145600948Y-104337229D01*
X145698450Y-104116811D01*
X145740851Y-104033699D01*
X145621516Y-103788275D01*
X145606541Y-103756504D01*
X145820367Y-103756504D01*
X145859392Y-103825907D01*
X145874790Y-103851750D01*
X145975852Y-103977522D01*
X146043222Y-104033699D01*
X146106083Y-104086117D01*
X146255158Y-104170142D01*
X146412750Y-104222200D01*
X146448569Y-104229369D01*
X146558520Y-104242791D01*
X146660195Y-104237235D01*
X146776320Y-104212068D01*
X146928684Y-104154478D01*
X147081416Y-104055484D01*
X147210355Y-103923032D01*
X147312470Y-103759679D01*
X147323780Y-103736429D01*
X147353607Y-103667493D01*
X147370606Y-103605918D01*
X147378259Y-103535160D01*
X147380050Y-103438678D01*
X147379842Y-103403579D01*
X147377655Y-103325118D01*
X147373590Y-103268078D01*
X147368276Y-103242914D01*
X147355382Y-103242471D01*
X147309054Y-103252036D01*
X147238028Y-103271536D01*
X147151317Y-103298654D01*
X146946167Y-103366229D01*
X146946167Y-103423961D01*
X146946167Y-103439598D01*
X146945571Y-103460422D01*
X146920966Y-103570056D01*
X146865581Y-103661627D01*
X146786743Y-103732423D01*
X146691774Y-103779732D01*
X146587999Y-103800845D01*
X146482743Y-103793048D01*
X146383330Y-103753631D01*
X146297085Y-103679882D01*
X146251253Y-103625386D01*
X146186498Y-103679874D01*
X146104228Y-103734016D01*
X145997969Y-103769818D01*
X145895054Y-103770516D01*
X145820367Y-103756504D01*
X145606541Y-103756504D01*
X145568186Y-103675128D01*
X145524664Y-103569926D01*
X145499500Y-103485101D01*
X145491752Y-103418787D01*
X145697333Y-103418787D01*
X145699910Y-103461632D01*
X145719515Y-103519288D01*
X145766125Y-103578055D01*
X145848536Y-103641466D01*
X145936263Y-103664037D01*
X146027212Y-103644667D01*
X146038656Y-103639343D01*
X146117783Y-103581170D01*
X146167787Y-103504283D01*
X146181681Y-103439999D01*
X146309746Y-103439999D01*
X146334392Y-103532389D01*
X146389989Y-103611347D01*
X146472791Y-103666481D01*
X146501341Y-103677958D01*
X146557356Y-103692958D01*
X146606291Y-103686788D01*
X146669496Y-103658592D01*
X146748944Y-103603422D01*
X146805095Y-103522467D01*
X146823037Y-103423961D01*
X146818550Y-103377437D01*
X146785187Y-103290340D01*
X146726301Y-103224846D01*
X146650199Y-103183130D01*
X146565191Y-103167365D01*
X146479583Y-103179725D01*
X146401684Y-103222384D01*
X146339802Y-103297516D01*
X146319797Y-103344571D01*
X146312063Y-103417997D01*
X146309746Y-103439999D01*
X146181681Y-103439999D01*
X146186436Y-103417997D01*
X146171496Y-103331628D01*
X146120736Y-103254492D01*
X146051025Y-103201367D01*
X145957745Y-103173673D01*
X145856513Y-103187525D01*
X145847700Y-103190623D01*
X145767519Y-103241495D01*
X145715719Y-103319987D01*
X145697333Y-103418787D01*
X145491752Y-103418787D01*
X145490961Y-103412021D01*
X145497316Y-103342052D01*
X145516831Y-103266562D01*
X145517771Y-103263570D01*
X145536983Y-103197738D01*
X145542067Y-103153553D01*
X145532108Y-103113075D01*
X145506188Y-103058367D01*
X145499268Y-103044792D01*
X145846030Y-103044792D01*
X145850586Y-103049681D01*
X145884977Y-103057558D01*
X145942142Y-103060667D01*
X145946934Y-103060681D01*
X146037735Y-103069937D01*
X146112520Y-103101371D01*
X146189458Y-103162463D01*
X146247667Y-103216753D01*
X146305875Y-103161223D01*
X146323847Y-103145193D01*
X146424764Y-103085668D01*
X146536981Y-103060285D01*
X146650879Y-103068624D01*
X146756840Y-103110265D01*
X146845247Y-103184788D01*
X146857746Y-103198834D01*
X146898782Y-103235340D01*
X146928925Y-103248836D01*
X146954145Y-103245137D01*
X147017527Y-103229540D01*
X147093135Y-103205933D01*
X147170377Y-103178228D01*
X147238662Y-103150333D01*
X147287401Y-103126160D01*
X147306000Y-103109618D01*
X147305205Y-103098949D01*
X147281499Y-103037296D01*
X147230189Y-102962901D01*
X147158491Y-102883170D01*
X147073624Y-102805510D01*
X146982805Y-102737329D01*
X146893250Y-102686032D01*
X146866113Y-102673661D01*
X146802901Y-102649158D01*
X146741459Y-102634941D01*
X146667107Y-102628355D01*
X146565167Y-102626750D01*
X146526674Y-102626903D01*
X146435423Y-102629936D01*
X146367002Y-102638841D01*
X146306879Y-102656211D01*
X146240523Y-102684635D01*
X146182776Y-102713873D01*
X146106587Y-102758202D01*
X146050023Y-102797656D01*
X146042827Y-102803757D01*
X145995236Y-102849907D01*
X145943202Y-102907453D01*
X145895284Y-102966029D01*
X145860041Y-103015264D01*
X145846030Y-103044792D01*
X145499268Y-103044792D01*
X145489922Y-103026458D01*
X145465270Y-102979626D01*
X145452705Y-102957987D01*
X145448603Y-102957908D01*
X145420008Y-102973103D01*
X145375039Y-103004770D01*
X145336454Y-103031927D01*
X145210063Y-103101060D01*
X145069444Y-103155828D01*
X144935117Y-103187697D01*
X144845450Y-103195348D01*
X144675734Y-103185731D01*
X144509496Y-103148017D01*
X144358201Y-103085263D01*
X144233311Y-103000527D01*
X144157975Y-102934381D01*
X144071440Y-103120629D01*
X144058923Y-103148270D01*
X144016694Y-103250400D01*
X143974953Y-103362899D01*
X143936908Y-103475898D01*
X143905763Y-103579527D01*
X143884725Y-103663918D01*
X143877000Y-103719201D01*
X143643842Y-103719201D01*
X143638623Y-103688027D01*
X143619772Y-103620637D01*
X143590718Y-103531335D01*
X143554753Y-103429401D01*
X143515166Y-103324113D01*
X143475248Y-103224749D01*
X143438289Y-103140588D01*
X143341961Y-102934760D01*
X143265522Y-102994813D01*
X143249040Y-103007417D01*
X143183517Y-103052950D01*
X143125583Y-103087483D01*
X143107780Y-103098018D01*
X143099139Y-103107081D01*
X143061634Y-103146419D01*
X143024806Y-103226179D01*
X143003546Y-103274567D01*
X142954469Y-103357328D01*
X142897806Y-103430801D01*
X142857132Y-103473749D01*
X142813317Y-103509917D01*
X142771015Y-103526187D01*
X142715972Y-103530364D01*
X142646995Y-103523819D01*
X142567805Y-103489789D01*
X142544224Y-103470153D01*
X142476389Y-103393565D01*
X142415136Y-103298569D01*
X142371978Y-103202084D01*
X142343434Y-103143457D01*
X142280340Y-103088059D01*
X142266877Y-103080811D01*
X142250474Y-103070593D01*
X142443875Y-103070593D01*
X142460138Y-103137345D01*
X142489805Y-103214531D01*
X142527839Y-103289187D01*
X142569202Y-103348348D01*
X142584430Y-103364647D01*
X142654327Y-103413509D01*
X142723600Y-103420890D01*
X142790666Y-103387470D01*
X142853940Y-103313932D01*
X142911836Y-103200957D01*
X142940837Y-103107081D01*
X142939045Y-103038767D01*
X142905559Y-102998358D01*
X142878239Y-102986481D01*
X142802194Y-102968768D01*
X142713094Y-102961969D01*
X142621891Y-102965352D01*
X142539539Y-102978181D01*
X142476990Y-102999722D01*
X142445198Y-103029239D01*
X142443875Y-103070593D01*
X142250474Y-103070593D01*
X142203406Y-103041273D01*
X142139846Y-102995501D01*
X142064275Y-102936135D01*
X142034821Y-102995457D01*
X142004460Y-103056609D01*
X141984056Y-103099319D01*
X141963235Y-103153892D01*
X141952018Y-103209367D01*
X141948022Y-103279529D01*
X141948862Y-103378167D01*
X141945909Y-103436716D01*
X141938936Y-103575011D01*
X141895427Y-103767179D01*
X141817913Y-103934476D01*
X141769018Y-104014535D01*
X141494126Y-104014535D01*
X141584719Y-103914553D01*
X141673117Y-103766067D01*
X141730994Y-103604198D01*
X141754806Y-103436716D01*
X141741009Y-103271389D01*
X141722593Y-103189541D01*
X141703839Y-103138693D01*
X141678526Y-103118642D01*
X141639318Y-103123838D01*
X141578877Y-103148731D01*
X141549801Y-103160566D01*
X141417511Y-103194217D01*
X141268202Y-103207147D01*
X141118023Y-103198815D01*
X140983126Y-103168680D01*
X140982877Y-103168596D01*
X140887776Y-103139118D01*
X140822672Y-103126580D01*
X140779093Y-103130293D01*
X140748567Y-103149566D01*
X140740550Y-103173639D01*
X140733190Y-103234264D01*
X140727778Y-103322910D01*
X140724333Y-103431962D01*
X140722877Y-103553810D01*
X140641885Y-103553810D01*
X140634948Y-103113583D01*
X140687145Y-103064613D01*
X140736126Y-103030775D01*
X140800334Y-103016558D01*
X140883157Y-103026449D01*
X140992766Y-103060333D01*
X141008884Y-103065930D01*
X141144515Y-103095508D01*
X141288842Y-103101077D01*
X141427020Y-103083129D01*
X141544208Y-103042152D01*
X141634999Y-102995457D01*
X141590795Y-102933378D01*
X141559665Y-102894789D01*
X141473276Y-102812421D01*
X141368792Y-102735156D01*
X141261231Y-102674780D01*
X141252127Y-102670647D01*
X141193733Y-102648504D01*
X141131735Y-102635113D01*
X141053255Y-102628514D01*
X140945417Y-102626750D01*
X140888171Y-102627069D01*
X140800187Y-102630439D01*
X140734115Y-102639365D01*
X140676435Y-102656141D01*
X140613626Y-102683062D01*
X140593622Y-102692731D01*
X140435192Y-102794232D01*
X140306129Y-102925899D01*
X140206896Y-103087000D01*
X140137954Y-103276805D01*
X140099766Y-103494583D01*
X140096386Y-103592115D01*
X139769318Y-103592115D01*
X139692256Y-103319285D01*
X139615226Y-103009566D01*
X139549945Y-102706326D01*
X139498829Y-102420015D01*
X139464300Y-102161083D01*
X139458143Y-102103290D01*
X139447996Y-102026949D01*
X139435506Y-101981167D01*
X139792737Y-101981167D01*
X139796094Y-102012494D01*
X139806608Y-102079910D01*
X139822915Y-102174572D01*
X139843616Y-102289012D01*
X139867315Y-102415767D01*
X139892613Y-102547371D01*
X139918112Y-102676359D01*
X139942416Y-102795265D01*
X139964126Y-102896625D01*
X139981674Y-102965492D01*
X140000395Y-103008981D01*
X140017847Y-103012336D01*
X140035032Y-102976687D01*
X140067793Y-102910158D01*
X140126398Y-102827628D01*
X140201217Y-102741161D01*
X140283083Y-102661328D01*
X140362830Y-102598698D01*
X140529543Y-102508645D01*
X140714825Y-102449830D01*
X140905199Y-102426518D01*
X141094854Y-102437807D01*
X141277978Y-102482795D01*
X141448761Y-102560580D01*
X141601390Y-102670259D01*
X141730053Y-102810931D01*
X141736854Y-102820149D01*
X141782263Y-102879205D01*
X141810867Y-102908444D01*
X141828846Y-102912557D01*
X141842376Y-102896237D01*
X141846055Y-102887678D01*
X141847441Y-102851994D01*
X141830517Y-102798165D01*
X141792887Y-102717528D01*
X141773635Y-102677199D01*
X141708612Y-102485575D01*
X141682952Y-102291462D01*
X141684490Y-102266917D01*
X141897917Y-102266917D01*
X141898236Y-102324162D01*
X141901606Y-102412146D01*
X141910532Y-102478219D01*
X141927308Y-102535899D01*
X141954229Y-102598707D01*
X141991409Y-102667481D01*
X142071977Y-102780989D01*
X142165885Y-102882181D01*
X142260914Y-102956789D01*
X142333028Y-103001357D01*
X142374611Y-102948493D01*
X142374729Y-102948343D01*
X142435094Y-102901978D01*
X142526925Y-102869701D01*
X142641096Y-102853654D01*
X142768483Y-102855981D01*
X142833239Y-102864120D01*
X142904585Y-102878034D01*
X142950842Y-102893003D01*
X142985157Y-102915119D01*
X143030333Y-102957145D01*
X143036679Y-102964989D01*
X143058356Y-102984577D01*
X143083498Y-102981799D01*
X143128281Y-102956557D01*
X143191171Y-102912849D01*
X143306984Y-102799618D01*
X143401345Y-102662321D01*
X143469566Y-102510288D01*
X143506958Y-102352848D01*
X143508833Y-102199330D01*
X143495737Y-102115184D01*
X143450713Y-101965848D01*
X143375793Y-101832788D01*
X143265103Y-101704064D01*
X143199617Y-101643082D01*
X143070471Y-101551431D01*
X142930891Y-101492452D01*
X142768808Y-101460213D01*
X142623211Y-101459366D01*
X142460129Y-101494361D01*
X142304617Y-101563402D01*
X142163838Y-101662323D01*
X142044955Y-101786962D01*
X141955131Y-101933155D01*
X141939081Y-101968710D01*
X141917577Y-102027398D01*
X141905102Y-102087602D01*
X141899325Y-102162912D01*
X141897917Y-102266917D01*
X141684490Y-102266917D01*
X141694959Y-102099814D01*
X141742936Y-101915587D01*
X141825184Y-101743738D01*
X141940007Y-101589221D01*
X142085708Y-101456993D01*
X142260588Y-101352009D01*
X142310116Y-101328999D01*
X142384347Y-101298875D01*
X142451842Y-101280710D01*
X142528958Y-101270670D01*
X142632049Y-101264922D01*
X142714860Y-101262750D01*
X142811657Y-101265825D01*
X142894937Y-101277849D01*
X142981545Y-101300538D01*
X142998070Y-101305718D01*
X143186043Y-101387790D01*
X143350237Y-101504316D01*
X143488396Y-101653349D01*
X143598264Y-101832942D01*
X143599676Y-101835830D01*
X143631508Y-101902481D01*
X143652959Y-101955611D01*
X143666076Y-102006390D01*
X143672909Y-102065990D01*
X143675506Y-102145580D01*
X143675706Y-102199330D01*
X143675917Y-102256333D01*
X143675917Y-102263824D01*
X143675439Y-102372417D01*
X143672616Y-102450779D01*
X143665328Y-102510345D01*
X143651459Y-102562551D01*
X143628892Y-102618835D01*
X143595508Y-102690631D01*
X143515100Y-102860346D01*
X143587004Y-103018714D01*
X143589852Y-103025012D01*
X143630227Y-103118463D01*
X143668085Y-103212693D01*
X143695572Y-103288208D01*
X143711136Y-103334021D01*
X143728487Y-103381089D01*
X143737252Y-103399333D01*
X143743599Y-103386366D01*
X143759339Y-103342749D01*
X143780194Y-103279021D01*
X143780275Y-103278764D01*
X143809007Y-103197070D01*
X143847810Y-103098627D01*
X143888309Y-103004689D01*
X143958498Y-102850668D01*
X143897537Y-102738115D01*
X143862046Y-102666302D01*
X143798298Y-102476405D01*
X143778625Y-102322063D01*
X143991860Y-102322063D01*
X144022031Y-102489338D01*
X144087672Y-102647198D01*
X144185436Y-102789470D01*
X144311977Y-102909979D01*
X144463949Y-103002550D01*
X144498406Y-103018177D01*
X144584353Y-103050028D01*
X144669634Y-103067341D01*
X144775623Y-103075090D01*
X144844348Y-103075850D01*
X144953104Y-103068844D01*
X145035112Y-103052360D01*
X145178579Y-102989356D01*
X145325676Y-102886783D01*
X145448726Y-102757972D01*
X145539401Y-102610224D01*
X145590100Y-102500795D01*
X145469092Y-102467278D01*
X145416623Y-102451705D01*
X145347845Y-102428193D01*
X145302326Y-102408802D01*
X145291578Y-102402392D01*
X145228647Y-102348736D01*
X145164519Y-102273134D01*
X145110609Y-102190519D01*
X145078333Y-102115821D01*
X145054817Y-102028226D01*
X144962397Y-102067842D01*
X144940851Y-102076764D01*
X144752564Y-102129933D01*
X144559739Y-102142484D01*
X144368391Y-102114581D01*
X144184533Y-102046391D01*
X144118214Y-102016846D01*
X144066447Y-101999950D01*
X144040711Y-101999489D01*
X144030355Y-102022616D01*
X144015635Y-102076859D01*
X144001051Y-102148397D01*
X144000504Y-102151548D01*
X143991860Y-102322063D01*
X143778625Y-102322063D01*
X143773818Y-102284347D01*
X143787042Y-102094801D01*
X143836400Y-101912437D01*
X143867907Y-101848424D01*
X144113776Y-101848424D01*
X144133103Y-101874231D01*
X144180877Y-101910829D01*
X144246044Y-101948821D01*
X144303191Y-101976580D01*
X144356192Y-101996152D01*
X144412442Y-102007099D01*
X144484961Y-102011870D01*
X144586773Y-102012917D01*
X144671775Y-102012219D01*
X144750774Y-102008059D01*
X144811724Y-101997972D01*
X144868116Y-101979518D01*
X144933444Y-101950260D01*
X145001898Y-101920082D01*
X145065207Y-101904770D01*
X145109644Y-101919275D01*
X145144421Y-101967464D01*
X145178750Y-102053202D01*
X145236189Y-102172873D01*
X145317598Y-102270430D01*
X145415549Y-102333438D01*
X145482774Y-102353517D01*
X145551207Y-102362167D01*
X145618106Y-102362167D01*
X145608440Y-102195190D01*
X145589428Y-102060636D01*
X145530669Y-101894859D01*
X145435845Y-101748645D01*
X145307206Y-101625246D01*
X145147000Y-101527915D01*
X145091882Y-101502791D01*
X145032839Y-101481275D01*
X144973463Y-101469147D01*
X144899764Y-101463790D01*
X144797750Y-101462587D01*
X144718589Y-101463201D01*
X144639189Y-101467215D01*
X144578495Y-101477160D01*
X144522972Y-101495522D01*
X144459083Y-101524787D01*
X144451587Y-101528540D01*
X144375481Y-101574218D01*
X144297229Y-101632387D01*
X144224382Y-101695969D01*
X144164490Y-101757887D01*
X144125104Y-101811064D01*
X144113776Y-101848424D01*
X143867907Y-101848424D01*
X143920325Y-101741928D01*
X144037251Y-101587946D01*
X144185610Y-101455162D01*
X144205467Y-101443250D01*
X145278713Y-101443250D01*
X145278992Y-101444133D01*
X145299255Y-101469687D01*
X145343373Y-101511938D01*
X145402334Y-101562214D01*
X145520085Y-101657706D01*
X145577043Y-101608713D01*
X145600541Y-101590724D01*
X145695185Y-101549177D01*
X145801738Y-101539056D01*
X145910601Y-101557818D01*
X146012173Y-101602917D01*
X146096855Y-101671807D01*
X146155046Y-101761945D01*
X146156276Y-101764943D01*
X146179212Y-101859155D01*
X146181852Y-101963161D01*
X146163524Y-102053872D01*
X146151806Y-102093364D01*
X146159317Y-102104422D01*
X146189148Y-102083199D01*
X146243131Y-102029125D01*
X146251341Y-102020292D01*
X146334053Y-101907633D01*
X146380489Y-101785527D01*
X146395162Y-101642500D01*
X146391752Y-101578144D01*
X146357767Y-101435699D01*
X146291802Y-101309274D01*
X146199376Y-101203252D01*
X146086009Y-101122016D01*
X145957217Y-101069948D01*
X145818520Y-101051433D01*
X145675436Y-101070853D01*
X145638203Y-101083051D01*
X145522065Y-101142208D01*
X145416200Y-101224837D01*
X145336637Y-101319187D01*
X145311191Y-101362158D01*
X145286063Y-101413669D01*
X145278713Y-101443250D01*
X144205467Y-101443250D01*
X144363833Y-101348248D01*
X144398158Y-101331916D01*
X144462425Y-101303679D01*
X144517372Y-101286088D01*
X144575912Y-101276633D01*
X144650956Y-101272802D01*
X144755417Y-101272083D01*
X144831653Y-101272885D01*
X144925603Y-101276129D01*
X145000210Y-101281289D01*
X145043981Y-101287740D01*
X145073335Y-101293729D01*
X145102451Y-101283331D01*
X145125590Y-101240922D01*
X145151077Y-101196460D01*
X145213173Y-101123419D01*
X145295844Y-101048026D01*
X145388626Y-100979519D01*
X145481051Y-100927137D01*
X145481560Y-100926900D01*
X145550571Y-100898160D01*
X145615015Y-100881057D01*
X145690487Y-100872754D01*
X145792583Y-100870409D01*
X145808730Y-100870461D01*
X145974045Y-100884938D01*
X146115018Y-100927855D01*
X146241407Y-101003408D01*
X146362967Y-101115796D01*
X146416850Y-101178804D01*
X146503170Y-101316680D01*
X146552570Y-101465846D01*
X146568704Y-101635530D01*
X146568660Y-101642500D01*
X146568584Y-101654673D01*
X146546130Y-101836021D01*
X146485545Y-101999354D01*
X146387544Y-102143246D01*
X146252839Y-102266273D01*
X146232756Y-102280269D01*
X146135919Y-102327589D01*
X146048079Y-102340648D01*
X145974560Y-102323360D01*
X145920686Y-102279640D01*
X145891780Y-102213402D01*
X145893166Y-102128560D01*
X145930167Y-102029028D01*
X145948959Y-101992395D01*
X145968611Y-101937564D01*
X145966035Y-101891293D01*
X145942338Y-101836070D01*
X145899333Y-101782244D01*
X145834171Y-101742699D01*
X145763644Y-101728617D01*
X145701625Y-101745233D01*
X145692028Y-101756500D01*
X145689890Y-101786025D01*
X145701519Y-101838996D01*
X145728084Y-101923266D01*
X145740163Y-101961605D01*
X145779087Y-102165206D01*
X145777502Y-102362167D01*
X145777445Y-102369299D01*
X145749880Y-102500795D01*
X145735731Y-102568298D01*
X145654440Y-102756619D01*
X145642594Y-102778229D01*
X145615203Y-102835963D01*
X145608363Y-102872952D01*
X145619384Y-102900209D01*
X145632386Y-102913738D01*
X145651105Y-102913150D01*
X145678629Y-102887333D01*
X145722363Y-102831332D01*
X145808721Y-102730075D01*
X145954483Y-102607547D01*
X146132451Y-102506624D01*
X146138370Y-102503862D01*
X146218965Y-102469533D01*
X146290991Y-102448176D01*
X146371407Y-102435978D01*
X146477170Y-102429128D01*
X146579865Y-102427887D01*
X146759187Y-102446148D01*
X146918973Y-102493616D01*
X147068486Y-102572536D01*
X147167556Y-102646679D01*
X147273401Y-102746666D01*
X147364211Y-102853644D01*
X147428311Y-102955193D01*
X147470755Y-103040980D01*
X147504651Y-102886782D01*
X147529517Y-102766489D01*
X147557350Y-102617631D01*
X147584043Y-102461911D01*
X147607625Y-102311385D01*
X147626123Y-102178108D01*
X147637567Y-102074135D01*
X147641779Y-102022981D01*
X147644337Y-101965262D01*
X147638991Y-101933770D01*
X147623103Y-101918525D01*
X147594032Y-101909547D01*
X147532083Y-101888439D01*
X147414932Y-101821560D01*
X147301706Y-101725083D01*
X147200732Y-101606662D01*
X147120334Y-101473955D01*
X147097551Y-101424627D01*
X147079216Y-101371653D01*
X147068700Y-101313677D01*
X147063901Y-101238266D01*
X147062718Y-101132983D01*
X147062710Y-101118954D01*
X147455022Y-101118954D01*
X147470050Y-101242792D01*
X147517909Y-101358343D01*
X147597611Y-101458368D01*
X147708167Y-101535629D01*
X147708229Y-101535660D01*
X147839817Y-101580308D01*
X147973124Y-101585210D01*
X148100922Y-101551172D01*
X148215980Y-101478999D01*
X148301108Y-101385595D01*
X148361245Y-101267231D01*
X148384847Y-101140466D01*
X148371724Y-101012410D01*
X148321687Y-100890171D01*
X148234548Y-100780858D01*
X148211248Y-100760684D01*
X148119425Y-100703253D01*
X148015958Y-100662902D01*
X147919833Y-100647667D01*
X147891738Y-100649244D01*
X147791280Y-100673189D01*
X147689412Y-100719739D01*
X147605119Y-100780858D01*
X147527412Y-100875365D01*
X147473813Y-100994066D01*
X147455022Y-101118954D01*
X147062710Y-101118954D01*
X147062583Y-100909216D01*
X146872083Y-100828561D01*
X146597547Y-100718684D01*
X146064572Y-100539241D01*
X145513167Y-100396209D01*
X144946685Y-100290398D01*
X144368482Y-100222622D01*
X144347292Y-100220955D01*
X144201456Y-100213076D01*
X144026826Y-100208456D01*
X143832289Y-100206927D01*
X143626729Y-100208322D01*
X143419033Y-100212471D01*
X143218085Y-100219209D01*
X143032770Y-100228366D01*
X142871974Y-100239776D01*
X142744583Y-100253271D01*
X142195546Y-100342836D01*
X141654875Y-100465154D01*
X141131171Y-100619982D01*
X140617333Y-100809176D01*
X140373917Y-100907727D01*
X140373917Y-101124844D01*
X140373917Y-101132238D01*
X140372939Y-101235439D01*
X140368479Y-101310642D01*
X140358301Y-101368656D01*
X140340171Y-101422139D01*
X140311854Y-101483750D01*
X140255181Y-101579580D01*
X140154268Y-101701402D01*
X140035907Y-101804235D01*
X139911773Y-101876614D01*
X139877150Y-101892106D01*
X139824318Y-101921096D01*
X139799105Y-101948214D01*
X139792737Y-101981167D01*
X139435506Y-101981167D01*
X139434970Y-101979201D01*
X139414224Y-101951369D01*
X139380917Y-101934777D01*
X139330207Y-101920747D01*
X139275840Y-101903716D01*
X139137839Y-101833585D01*
X139009193Y-101731466D01*
X138898231Y-101604767D01*
X138813280Y-101460897D01*
X138799918Y-101430139D01*
X138782263Y-101376270D01*
X138771706Y-101315035D01*
X138766588Y-101234797D01*
X138765250Y-101123917D01*
X138765259Y-101122318D01*
X139119631Y-101122318D01*
X139137355Y-101256945D01*
X139141093Y-101269152D01*
X139189269Y-101364327D01*
X139263938Y-101455112D01*
X139353171Y-101529202D01*
X139445039Y-101574294D01*
X139453483Y-101576754D01*
X139571482Y-101597931D01*
X139679118Y-101586853D01*
X139793199Y-101541958D01*
X139817361Y-101528946D01*
X139923697Y-101447858D01*
X139997335Y-101349412D01*
X140039733Y-101239708D01*
X140052349Y-101124844D01*
X140036643Y-101010919D01*
X139994074Y-100904032D01*
X139926100Y-100810281D01*
X139834180Y-100735765D01*
X139719774Y-100686582D01*
X139584339Y-100668833D01*
X139506507Y-100675092D01*
X139380904Y-100714455D01*
X139274863Y-100784848D01*
X139192936Y-100880281D01*
X139139675Y-100994768D01*
X139119631Y-101122318D01*
X138765259Y-101122318D01*
X138765618Y-101058346D01*
X138768833Y-100965786D01*
X138776743Y-100897456D01*
X138791005Y-100841719D01*
X138813280Y-100786936D01*
X138882068Y-100663431D01*
X139001486Y-100521473D01*
X139150260Y-100409936D01*
X139327922Y-100329236D01*
X139485370Y-100293810D01*
X139661587Y-100291805D01*
X139834466Y-100326262D01*
X139995582Y-100395426D01*
X140136511Y-100497545D01*
X140230358Y-100584050D01*
X140455881Y-100489564D01*
X140657752Y-100408123D01*
X141213828Y-100214674D01*
X141783101Y-100060280D01*
X142362532Y-99945264D01*
X142949085Y-99869951D01*
X143539721Y-99834664D01*
X144131403Y-99839728D01*
X144721092Y-99885467D01*
X145305750Y-99972206D01*
X145323386Y-99975489D01*
X145663604Y-100047990D01*
X146019802Y-100139723D01*
X146377414Y-100246360D01*
X146721872Y-100363574D01*
X147038607Y-100487035D01*
X147268631Y-100583626D01*
X147373006Y-100489784D01*
X147374700Y-100488266D01*
X147517578Y-100387010D01*
X147674464Y-100321871D01*
X147839572Y-100291598D01*
X148007119Y-100294941D01*
X148171319Y-100330650D01*
X148326389Y-100397473D01*
X148466544Y-100494161D01*
X148586000Y-100619462D01*
X148678973Y-100772126D01*
X148702042Y-100824824D01*
X148719229Y-100878483D01*
X148729131Y-100938153D01*
X148733665Y-101015931D01*
X148734750Y-101123917D01*
X148734738Y-101140466D01*
X148734737Y-101141985D01*
G37*
X143625246Y-104335344D02*
X143902658Y-104341250D01*
X144067613Y-104754000D01*
X144232567Y-105166750D01*
X144036575Y-105177333D01*
X143840583Y-105187917D01*
X143998422Y-105516000D01*
X144035523Y-105593336D01*
X144089288Y-105706162D01*
X144136972Y-105807085D01*
X144174454Y-105887373D01*
X144197615Y-105938289D01*
X144218198Y-105985748D01*
X144228356Y-106014531D01*
X144221378Y-106015500D01*
X144197223Y-105994714D01*
X144193609Y-105991263D01*
X144162765Y-105958472D01*
X144110719Y-105900612D01*
X144041565Y-105822426D01*
X143959393Y-105728656D01*
X143868298Y-105624044D01*
X143772369Y-105513331D01*
X143675701Y-105401259D01*
X143582385Y-105292570D01*
X143496513Y-105192006D01*
X143422177Y-105104308D01*
X143363470Y-105034220D01*
X143324483Y-104986482D01*
X143309310Y-104965836D01*
X143311281Y-104962005D01*
X143341960Y-104952714D01*
X143402033Y-104944938D01*
X143482259Y-104940054D01*
X143661981Y-104933917D01*
X143504907Y-104653477D01*
X143476866Y-104603063D01*
X143425852Y-104509349D01*
X143384925Y-104431490D01*
X143357710Y-104376462D01*
X143347833Y-104351238D01*
X143358729Y-104343976D01*
X143408924Y-104337186D01*
X143498334Y-104334276D01*
X143625246Y-104335344D01*
G36*
X143625246Y-104335344D02*
G01*
X143902658Y-104341250D01*
X144067613Y-104754000D01*
X144232567Y-105166750D01*
X144036575Y-105177333D01*
X143840583Y-105187917D01*
X143998422Y-105516000D01*
X144035523Y-105593336D01*
X144089288Y-105706162D01*
X144136972Y-105807085D01*
X144174454Y-105887373D01*
X144197615Y-105938289D01*
X144218198Y-105985748D01*
X144228356Y-106014531D01*
X144221378Y-106015500D01*
X144197223Y-105994714D01*
X144193609Y-105991263D01*
X144162765Y-105958472D01*
X144110719Y-105900612D01*
X144041565Y-105822426D01*
X143959393Y-105728656D01*
X143868298Y-105624044D01*
X143772369Y-105513331D01*
X143675701Y-105401259D01*
X143582385Y-105292570D01*
X143496513Y-105192006D01*
X143422177Y-105104308D01*
X143363470Y-105034220D01*
X143324483Y-104986482D01*
X143309310Y-104965836D01*
X143311281Y-104962005D01*
X143341960Y-104952714D01*
X143402033Y-104944938D01*
X143482259Y-104940054D01*
X143661981Y-104933917D01*
X143504907Y-104653477D01*
X143476866Y-104603063D01*
X143425852Y-104509349D01*
X143384925Y-104431490D01*
X143357710Y-104376462D01*
X143347833Y-104351238D01*
X143358729Y-104343976D01*
X143408924Y-104337186D01*
X143498334Y-104334276D01*
X143625246Y-104335344D01*
G37*
X143036870Y-102581954D02*
X143051500Y-102615623D01*
X143045914Y-102635945D01*
X143007551Y-102676409D01*
X142939674Y-102714775D01*
X142850417Y-102745779D01*
X142781926Y-102756333D01*
X142689415Y-102755459D01*
X142592977Y-102742445D01*
X142501865Y-102719687D01*
X142425330Y-102689582D01*
X142372625Y-102654527D01*
X142353000Y-102616919D01*
X142353957Y-102605227D01*
X142375483Y-102578052D01*
X142426487Y-102578208D01*
X142508485Y-102605583D01*
X142540633Y-102616180D01*
X142619449Y-102631367D01*
X142702250Y-102637333D01*
X142745937Y-102635504D01*
X142829672Y-102624055D01*
X142896015Y-102605583D01*
X142916722Y-102597264D01*
X142992290Y-102575857D01*
X143036870Y-102581954D01*
G36*
X143036870Y-102581954D02*
G01*
X143051500Y-102615623D01*
X143045914Y-102635945D01*
X143007551Y-102676409D01*
X142939674Y-102714775D01*
X142850417Y-102745779D01*
X142781926Y-102756333D01*
X142689415Y-102755459D01*
X142592977Y-102742445D01*
X142501865Y-102719687D01*
X142425330Y-102689582D01*
X142372625Y-102654527D01*
X142353000Y-102616919D01*
X142353957Y-102605227D01*
X142375483Y-102578052D01*
X142426487Y-102578208D01*
X142508485Y-102605583D01*
X142540633Y-102616180D01*
X142619449Y-102631367D01*
X142702250Y-102637333D01*
X142745937Y-102635504D01*
X142829672Y-102624055D01*
X142896015Y-102605583D01*
X142916722Y-102597264D01*
X142992290Y-102575857D01*
X143036870Y-102581954D01*
G37*
X160004634Y-101396087D02*
X160213316Y-101776199D01*
X160318416Y-102000053D01*
X160328802Y-102026208D01*
X160471359Y-102385234D01*
X160587292Y-102770354D01*
X160667953Y-103162877D01*
X160715076Y-103570270D01*
X160730397Y-104000000D01*
X160726097Y-104231247D01*
X160693676Y-104651213D01*
X160628099Y-105052793D01*
X160527721Y-105443071D01*
X160390901Y-105829127D01*
X160242550Y-106159000D01*
X160215996Y-106218046D01*
X160131678Y-106380766D01*
X159897772Y-106769419D01*
X159632166Y-107131717D01*
X159336934Y-107466251D01*
X159014152Y-107771612D01*
X158665897Y-108046390D01*
X158294244Y-108289175D01*
X157901269Y-108498558D01*
X157489047Y-108673130D01*
X157059655Y-108811480D01*
X156615168Y-108912200D01*
X156157662Y-108973879D01*
X156139016Y-108975418D01*
X156032290Y-108981126D01*
X155901386Y-108984455D01*
X155761163Y-108985152D01*
X155626480Y-108982962D01*
X155564857Y-108980858D01*
X155138191Y-108948276D01*
X154732349Y-108883579D01*
X154339279Y-108784798D01*
X153950930Y-108649962D01*
X153559250Y-108477100D01*
X153238275Y-108306969D01*
X152857153Y-108063387D01*
X152503180Y-107787569D01*
X152175739Y-107478977D01*
X151874216Y-107137071D01*
X151597994Y-106761313D01*
X151531584Y-106659675D01*
X151309342Y-106271670D01*
X151124992Y-105868401D01*
X150978533Y-105452713D01*
X150869966Y-105027451D01*
X150799291Y-104595459D01*
X150766508Y-104159583D01*
X150771616Y-103722669D01*
X150814616Y-103287560D01*
X150829282Y-103209517D01*
X151860909Y-103209517D01*
X151861232Y-103340150D01*
X151869204Y-103479502D01*
X151884197Y-103614068D01*
X151905584Y-103730342D01*
X151907506Y-103738264D01*
X151934768Y-103823841D01*
X151975130Y-103904146D01*
X152033884Y-103986712D01*
X152116323Y-104079069D01*
X152227739Y-104188747D01*
X152402192Y-104353881D01*
X152390419Y-104483722D01*
X152388234Y-104515985D01*
X152399509Y-104654948D01*
X152447211Y-104773861D01*
X152532405Y-104875662D01*
X152620887Y-104938834D01*
X152745717Y-104984331D01*
X152881190Y-104991343D01*
X153023206Y-104959781D01*
X153167667Y-104889556D01*
X153193784Y-104874026D01*
X153243072Y-104850711D01*
X153298190Y-104835628D01*
X153371304Y-104825980D01*
X153474583Y-104818967D01*
X153521310Y-104815977D01*
X153628727Y-104806202D01*
X153727131Y-104793735D01*
X153799871Y-104780542D01*
X153849641Y-104769365D01*
X153895354Y-104763663D01*
X153922024Y-104771233D01*
X153942477Y-104793216D01*
X153966550Y-104841087D01*
X153984563Y-104902692D01*
X153987721Y-104951630D01*
X153972154Y-105000122D01*
X153931916Y-105061935D01*
X153908238Y-105096062D01*
X153877995Y-105147553D01*
X153866167Y-105179971D01*
X153868646Y-105202492D01*
X153891894Y-105255967D01*
X153942240Y-105319416D01*
X154022897Y-105396528D01*
X154137077Y-105490990D01*
X154348321Y-105657997D01*
X154374113Y-105817884D01*
X154375563Y-105826775D01*
X154390619Y-105910383D01*
X154405662Y-105981094D01*
X154417639Y-106024412D01*
X154424576Y-106058323D01*
X154404836Y-106096397D01*
X154387433Y-106119471D01*
X154360872Y-106177564D01*
X154336102Y-106252308D01*
X154317806Y-106328966D01*
X154310667Y-106392798D01*
X154310391Y-106405613D01*
X154302258Y-106435654D01*
X154274396Y-106451901D01*
X154215548Y-106462617D01*
X154181406Y-106469149D01*
X154096861Y-106494501D01*
X154016552Y-106528292D01*
X153944558Y-106571970D01*
X153857089Y-106656501D01*
X153806007Y-106753351D01*
X153790868Y-106857528D01*
X153811226Y-106964042D01*
X153866635Y-107067904D01*
X153956649Y-107164122D01*
X154080822Y-107247708D01*
X154133136Y-107275759D01*
X154178858Y-107300322D01*
X154197821Y-107310578D01*
X154209410Y-107332747D01*
X154216465Y-107373109D01*
X154216755Y-107411749D01*
X154208506Y-107429000D01*
X154176431Y-107435884D01*
X154126836Y-107453477D01*
X154079439Y-107465725D01*
X154003719Y-107476062D01*
X153919083Y-107481262D01*
X153793153Y-107492266D01*
X153639166Y-107530045D01*
X153505309Y-107591307D01*
X153398216Y-107672816D01*
X153324519Y-107771336D01*
X153319650Y-107781493D01*
X153304080Y-107864053D01*
X153324406Y-107948343D01*
X153376003Y-108026988D01*
X153454244Y-108092617D01*
X153554501Y-108137855D01*
X153558224Y-108138931D01*
X153635952Y-108154394D01*
X153734318Y-108165120D01*
X153832967Y-108168843D01*
X153930650Y-108164499D01*
X154067299Y-108139421D01*
X154191978Y-108087375D01*
X154320364Y-108003026D01*
X154379646Y-107959689D01*
X154415750Y-107938797D01*
X154434462Y-107938977D01*
X154443583Y-107957337D01*
X154446897Y-107966703D01*
X154486203Y-108009181D01*
X154557327Y-108043434D01*
X154651896Y-108067815D01*
X154761536Y-108080679D01*
X154877876Y-108080378D01*
X154992542Y-108065268D01*
X155056124Y-108047147D01*
X155144537Y-107998290D01*
X155200986Y-107931131D01*
X155220833Y-107850041D01*
X155213915Y-107786981D01*
X155182807Y-107676335D01*
X155129577Y-107545237D01*
X155057398Y-107400475D01*
X154969446Y-107248841D01*
X154868893Y-107097124D01*
X154860143Y-107084729D01*
X154817597Y-107023490D01*
X154787658Y-106978778D01*
X154776346Y-106959540D01*
X154782270Y-106958246D01*
X154821979Y-106956070D01*
X154892864Y-106954327D01*
X154987669Y-106953170D01*
X155099137Y-106952750D01*
X155137436Y-106952727D01*
X155252858Y-106951967D01*
X155337135Y-106949309D01*
X155399045Y-106943652D01*
X155447363Y-106933897D01*
X155490867Y-106918942D01*
X155538333Y-106897687D01*
X155588876Y-106871473D01*
X155658673Y-106828303D01*
X155707667Y-106789621D01*
X155740037Y-106762610D01*
X155780693Y-106744441D01*
X155840047Y-106733103D01*
X155929917Y-106725170D01*
X156032367Y-106713385D01*
X156141850Y-106692968D01*
X156232948Y-106668496D01*
X156366645Y-106623269D01*
X156434031Y-106680154D01*
X156506914Y-106731938D01*
X156629118Y-106796250D01*
X156770905Y-106852262D01*
X156919458Y-106894321D01*
X156984662Y-106909334D01*
X157040624Y-106925167D01*
X157070103Y-106941238D01*
X157081579Y-106962747D01*
X157083533Y-106994891D01*
X157090667Y-107058275D01*
X157131604Y-107154526D01*
X157202562Y-107231843D01*
X157296286Y-107283307D01*
X157405522Y-107302000D01*
X157450198Y-107300733D01*
X157528228Y-107286960D01*
X157596186Y-107252249D01*
X157670875Y-107189474D01*
X157682462Y-107178060D01*
X157729327Y-107111290D01*
X157734281Y-107050321D01*
X157697333Y-106995083D01*
X157668988Y-106966155D01*
X157655050Y-106944178D01*
X157668815Y-106931094D01*
X157711164Y-106904141D01*
X157772125Y-106870436D01*
X157871281Y-106808180D01*
X157993113Y-106704583D01*
X158098995Y-106585182D01*
X158176294Y-106462718D01*
X158178050Y-106459132D01*
X158208804Y-106389790D01*
X158226636Y-106327632D01*
X158234818Y-106256192D01*
X158236619Y-106159000D01*
X158228089Y-106022419D01*
X158200249Y-105913789D01*
X158148803Y-105823241D01*
X158069450Y-105739998D01*
X157981524Y-105682038D01*
X157877722Y-105657597D01*
X157760405Y-105672282D01*
X157752789Y-105674498D01*
X157667667Y-105716987D01*
X157575428Y-105789749D01*
X157484043Y-105884607D01*
X157401486Y-105993382D01*
X157335729Y-106107897D01*
X157264528Y-106257143D01*
X156988806Y-106176583D01*
X156969760Y-106170982D01*
X156863904Y-106138544D01*
X156770090Y-106107737D01*
X156697897Y-106081810D01*
X156656901Y-106064012D01*
X156591013Y-106041263D01*
X156479851Y-106034077D01*
X156334506Y-106048653D01*
X156156110Y-106084944D01*
X156086066Y-106101713D01*
X156005697Y-106120382D01*
X155947864Y-106133121D01*
X155921851Y-106137833D01*
X155912290Y-106128148D01*
X155892704Y-106087785D01*
X155870733Y-106026708D01*
X155848785Y-105966440D01*
X155779573Y-105824824D01*
X155677848Y-105659813D01*
X155542981Y-105470340D01*
X155504651Y-105418485D01*
X155963613Y-105418485D01*
X156029304Y-105524159D01*
X156060236Y-105570005D01*
X156095455Y-105612502D01*
X156118289Y-105628301D01*
X156152110Y-105623714D01*
X156229340Y-105606676D01*
X156323551Y-105581224D01*
X156420913Y-105551437D01*
X156507597Y-105521393D01*
X156569772Y-105495170D01*
X156602945Y-105479075D01*
X156651173Y-105461025D01*
X156702328Y-105452199D01*
X156769483Y-105450829D01*
X156865714Y-105455147D01*
X156939567Y-105458837D01*
X157012796Y-105459216D01*
X157067643Y-105452443D01*
X157117798Y-105436506D01*
X157176951Y-105409391D01*
X157206674Y-105394079D01*
X157304563Y-105327259D01*
X157383560Y-105239984D01*
X157454167Y-105121340D01*
X157504988Y-105021049D01*
X157643435Y-105012233D01*
X157673030Y-105010070D01*
X157756576Y-104998083D01*
X157804366Y-104977121D01*
X157821376Y-104943715D01*
X157812583Y-104894400D01*
X157804437Y-104876000D01*
X157752126Y-104818806D01*
X157668114Y-104773850D01*
X157560048Y-104744390D01*
X157435574Y-104733686D01*
X157268033Y-104747252D01*
X157091857Y-104794909D01*
X156916388Y-104879016D01*
X156735817Y-105001800D01*
X156716554Y-105001285D01*
X156672118Y-104974357D01*
X156610898Y-104921207D01*
X156579906Y-104892184D01*
X156527358Y-104850136D01*
X156485212Y-104831348D01*
X156441947Y-104829573D01*
X156400226Y-104838673D01*
X156365583Y-104864494D01*
X156348600Y-104910882D01*
X156348754Y-104982539D01*
X156365520Y-105084163D01*
X156398375Y-105220455D01*
X156399205Y-105223799D01*
X156398390Y-105253911D01*
X156373769Y-105278831D01*
X156317036Y-105307446D01*
X156234617Y-105341312D01*
X156020848Y-105405841D01*
X155963613Y-105418485D01*
X155504651Y-105418485D01*
X155498118Y-105409646D01*
X155452625Y-105345663D01*
X155423053Y-105301000D01*
X155414306Y-105282805D01*
X155425939Y-105274619D01*
X155464642Y-105248135D01*
X155519529Y-105210929D01*
X155631331Y-105123302D01*
X155763593Y-104993473D01*
X155897132Y-104837369D01*
X155982849Y-104720683D01*
X158074326Y-104720683D01*
X158150413Y-104804903D01*
X158178782Y-104838601D01*
X158213105Y-104888082D01*
X158226500Y-104920811D01*
X158227045Y-104924970D01*
X158236541Y-104935119D01*
X158261939Y-104942488D01*
X158273361Y-104943715D01*
X158308526Y-104947493D01*
X158381586Y-104950553D01*
X158486403Y-104952082D01*
X158628264Y-104952500D01*
X158703506Y-104952482D01*
X158823883Y-104952091D01*
X158910576Y-104950672D01*
X158969337Y-104947560D01*
X159005916Y-104942089D01*
X159026065Y-104933595D01*
X159035535Y-104921412D01*
X159040078Y-104904875D01*
X159043057Y-104883637D01*
X159050493Y-104823660D01*
X159061755Y-104729700D01*
X159076358Y-104605982D01*
X159093820Y-104456730D01*
X159113655Y-104286168D01*
X159135381Y-104098519D01*
X159158514Y-103898009D01*
X159182570Y-103688860D01*
X159207065Y-103475298D01*
X159231516Y-103261546D01*
X159255438Y-103051828D01*
X159278348Y-102850369D01*
X159299763Y-102661392D01*
X159319198Y-102489121D01*
X159336169Y-102337781D01*
X159350194Y-102211596D01*
X159360788Y-102114789D01*
X159367467Y-102051585D01*
X159369749Y-102026208D01*
X159351560Y-102019758D01*
X159304846Y-102014305D01*
X159243690Y-102010582D01*
X159182184Y-102009171D01*
X159134421Y-102010657D01*
X159114493Y-102015625D01*
X159114251Y-102017579D01*
X159110473Y-102050274D01*
X159102444Y-102120486D01*
X159090566Y-102224673D01*
X159075243Y-102359295D01*
X159056877Y-102520811D01*
X159035870Y-102705681D01*
X159013878Y-102899333D01*
X159012626Y-102910362D01*
X158987546Y-103131316D01*
X158961035Y-103365000D01*
X158913018Y-103788333D01*
X158808583Y-104709083D01*
X158441455Y-104714883D01*
X158074326Y-104720683D01*
X155982849Y-104720683D01*
X156025683Y-104662374D01*
X156142984Y-104475873D01*
X156151590Y-104462011D01*
X156169285Y-104448128D01*
X156199141Y-104451729D01*
X156254538Y-104472395D01*
X156323631Y-104494528D01*
X156415648Y-104504425D01*
X156488733Y-104488042D01*
X156536943Y-104447142D01*
X156554333Y-104383489D01*
X156551236Y-104356340D01*
X156525367Y-104305068D01*
X156469120Y-104251709D01*
X156377528Y-104190850D01*
X156355737Y-104176868D01*
X156273561Y-104099300D01*
X156226993Y-104007326D01*
X156218179Y-103907387D01*
X156246549Y-103814792D01*
X156788359Y-103814792D01*
X156789091Y-103823962D01*
X156793769Y-103870477D01*
X156801983Y-103947162D01*
X156812860Y-104045944D01*
X156825526Y-104158750D01*
X156861501Y-104476250D01*
X157734500Y-104481776D01*
X157849109Y-104482444D01*
X158053027Y-104483224D01*
X158219395Y-104483156D01*
X158351418Y-104482164D01*
X158452303Y-104480169D01*
X158525255Y-104477093D01*
X158573480Y-104472860D01*
X158600184Y-104467391D01*
X158608573Y-104460610D01*
X158609393Y-104450319D01*
X158614255Y-104402475D01*
X158622695Y-104324664D01*
X158633839Y-104224881D01*
X158646811Y-104111125D01*
X158683975Y-103788333D01*
X157735571Y-103788333D01*
X157552058Y-103788470D01*
X157348176Y-103789102D01*
X157181297Y-103790325D01*
X157048410Y-103792223D01*
X156946499Y-103794881D01*
X156872552Y-103798383D01*
X156823556Y-103802812D01*
X156796496Y-103808254D01*
X156788359Y-103814792D01*
X156246549Y-103814792D01*
X156249266Y-103805923D01*
X156266829Y-103774748D01*
X156308243Y-103708849D01*
X156355100Y-103640405D01*
X156363291Y-103628812D01*
X156413397Y-103539980D01*
X156427246Y-103464362D01*
X156404583Y-103393811D01*
X156345157Y-103320176D01*
X156335277Y-103310562D01*
X156258432Y-103254511D01*
X156191007Y-103237140D01*
X156137195Y-103257093D01*
X156101189Y-103313016D01*
X156087179Y-103403553D01*
X156084557Y-103465157D01*
X156072585Y-103524351D01*
X156044112Y-103569214D01*
X155991743Y-103610251D01*
X155908082Y-103657969D01*
X155855314Y-103687399D01*
X155790306Y-103731103D01*
X155746654Y-103775497D01*
X155712958Y-103830673D01*
X155677564Y-103933464D01*
X155666331Y-104072797D01*
X155687201Y-104227883D01*
X155691307Y-104246711D01*
X155697184Y-104302262D01*
X155686591Y-104353442D01*
X155656317Y-104420241D01*
X155655611Y-104421632D01*
X155555120Y-104591180D01*
X155444037Y-104726882D01*
X155324892Y-104826618D01*
X155200216Y-104888264D01*
X155072537Y-104909702D01*
X155067484Y-104909683D01*
X155008429Y-104906849D01*
X154922413Y-104900007D01*
X154819312Y-104890238D01*
X154709005Y-104878623D01*
X154601370Y-104866245D01*
X154506284Y-104854184D01*
X154433625Y-104843522D01*
X154393272Y-104835341D01*
X154383775Y-104829680D01*
X154356335Y-104792570D01*
X154332756Y-104735565D01*
X154329411Y-104724266D01*
X154317026Y-104671956D01*
X154320759Y-104643394D01*
X154341722Y-104624841D01*
X154451347Y-104555188D01*
X154599162Y-104450294D01*
X154731323Y-104343685D01*
X154842189Y-104240340D01*
X154926119Y-104145243D01*
X154977474Y-104063374D01*
X154987597Y-104040482D01*
X155004031Y-103992012D01*
X155001915Y-103953678D01*
X154981811Y-103905025D01*
X154929641Y-103829760D01*
X154846704Y-103775260D01*
X154742445Y-103756583D01*
X154716842Y-103757590D01*
X154637225Y-103779619D01*
X154574360Y-103834118D01*
X154521961Y-103925917D01*
X154450034Y-104056142D01*
X154359687Y-104161922D01*
X154258508Y-104232467D01*
X154145766Y-104270984D01*
X154020394Y-104277984D01*
X153903399Y-104248081D01*
X153801450Y-104183107D01*
X153721216Y-104084894D01*
X153706039Y-104055565D01*
X153672274Y-103943429D01*
X153661865Y-103816829D01*
X153675102Y-103691861D01*
X153712271Y-103584621D01*
X153761177Y-103507153D01*
X153830890Y-103432455D01*
X153919199Y-103371004D01*
X154030007Y-103321444D01*
X154167220Y-103282420D01*
X154334742Y-103252574D01*
X154536478Y-103230550D01*
X154776333Y-103214992D01*
X154873798Y-103210027D01*
X155024562Y-103201047D01*
X155141951Y-103191453D01*
X155231773Y-103180209D01*
X155299835Y-103166276D01*
X155351945Y-103148618D01*
X155393910Y-103126198D01*
X155431538Y-103097978D01*
X155456194Y-103073014D01*
X155488818Y-103004265D01*
X155486290Y-102928393D01*
X155451184Y-102852316D01*
X155386076Y-102782949D01*
X155293538Y-102727209D01*
X155202900Y-102687116D01*
X155274590Y-102580585D01*
X155285847Y-102563458D01*
X155342924Y-102452695D01*
X155363448Y-102352691D01*
X155348902Y-102256988D01*
X155348126Y-102254662D01*
X155292380Y-102151692D01*
X155205680Y-102074903D01*
X155092194Y-102026912D01*
X154956087Y-102010333D01*
X156088167Y-102010333D01*
X156099448Y-102089708D01*
X156103681Y-102121734D01*
X156112747Y-102194720D01*
X156124768Y-102294376D01*
X156138689Y-102411921D01*
X156153452Y-102538574D01*
X156165715Y-102643097D01*
X156178570Y-102749103D01*
X156189247Y-102833278D01*
X156196886Y-102888876D01*
X156200630Y-102909154D01*
X156207374Y-102911393D01*
X156243830Y-102924136D01*
X156300333Y-102944163D01*
X156327845Y-102954063D01*
X156391701Y-102977763D01*
X156435793Y-102995105D01*
X156451227Y-103000891D01*
X156468343Y-102996733D01*
X156464129Y-102961022D01*
X156462812Y-102954313D01*
X156455862Y-102907184D01*
X156454854Y-102899333D01*
X156679415Y-102899333D01*
X156690595Y-102968125D01*
X156694032Y-102991612D01*
X156694683Y-102996733D01*
X156702712Y-103059955D01*
X156713176Y-103150008D01*
X156723858Y-103248583D01*
X156729470Y-103301369D01*
X156740433Y-103399685D01*
X156750429Y-103483749D01*
X156757831Y-103539625D01*
X156769721Y-103619000D01*
X158705729Y-103619000D01*
X158732387Y-103359708D01*
X158742774Y-103259660D01*
X158754140Y-103152221D01*
X158763966Y-103061371D01*
X158770887Y-102999875D01*
X158782730Y-102899333D01*
X156679415Y-102899333D01*
X156454854Y-102899333D01*
X156445584Y-102827147D01*
X156432835Y-102721255D01*
X156418469Y-102596562D01*
X156403344Y-102460125D01*
X156354433Y-102010333D01*
X156088167Y-102010333D01*
X154956087Y-102010333D01*
X154937070Y-102010622D01*
X154811479Y-102030654D01*
X154705114Y-102084161D01*
X154614026Y-102173881D01*
X154534264Y-102302550D01*
X154498864Y-102372517D01*
X154399474Y-102296709D01*
X154361263Y-102268900D01*
X154277012Y-102213297D01*
X154199257Y-102168033D01*
X154098431Y-102115165D01*
X154133105Y-102048113D01*
X154140896Y-102032477D01*
X154175731Y-101951175D01*
X154210033Y-101856072D01*
X154239661Y-101760300D01*
X154260475Y-101676990D01*
X154268333Y-101619276D01*
X154265832Y-101577629D01*
X154253135Y-101543777D01*
X154223799Y-101521851D01*
X154171409Y-101509322D01*
X154089551Y-101503659D01*
X153971812Y-101502333D01*
X153850573Y-101503967D01*
X153759934Y-101510587D01*
X153701175Y-101524406D01*
X153669000Y-101547637D01*
X153658112Y-101582490D01*
X153663215Y-101631176D01*
X153670687Y-101676284D01*
X153680841Y-101755709D01*
X153689381Y-101841000D01*
X153701014Y-101978583D01*
X153302049Y-101978583D01*
X153200655Y-101979079D01*
X153028325Y-101983372D01*
X152888835Y-101992912D01*
X152775984Y-102008711D01*
X152683571Y-102031782D01*
X152605395Y-102063136D01*
X152535256Y-102103787D01*
X152502100Y-102128396D01*
X152415465Y-102209286D01*
X152320122Y-102316648D01*
X152221598Y-102442430D01*
X152125422Y-102578582D01*
X152037120Y-102717053D01*
X151962219Y-102849793D01*
X151906248Y-102968749D01*
X151874734Y-103065872D01*
X151868862Y-103101110D01*
X151860909Y-103209517D01*
X150829282Y-103209517D01*
X150895508Y-102857103D01*
X151014292Y-102434142D01*
X151170968Y-102021522D01*
X151365535Y-101622089D01*
X151597994Y-101238687D01*
X151626659Y-101198743D01*
X157326917Y-101198743D01*
X157327159Y-101247745D01*
X157330331Y-101319430D01*
X157339892Y-101368688D01*
X157359208Y-101408723D01*
X157391644Y-101452743D01*
X157408117Y-101471748D01*
X157476589Y-101533635D01*
X157549587Y-101581708D01*
X157618789Y-101608476D01*
X157742204Y-101628457D01*
X157869957Y-101622206D01*
X157984265Y-101589410D01*
X158067706Y-101538485D01*
X158158850Y-101444646D01*
X158224772Y-101329054D01*
X158260196Y-101201612D01*
X158259844Y-101072222D01*
X158259474Y-101070017D01*
X158244125Y-101014945D01*
X158214372Y-100933232D01*
X158174349Y-100835541D01*
X158128187Y-100732535D01*
X158064116Y-100590444D01*
X157976847Y-100374107D01*
X157910266Y-100176897D01*
X157866962Y-100006007D01*
X157851416Y-99929591D01*
X157836333Y-99865312D01*
X157823443Y-99828908D01*
X157809850Y-99812697D01*
X157792658Y-99809000D01*
X157781380Y-99814499D01*
X157759826Y-99854899D01*
X157740395Y-99930708D01*
X157703443Y-100088678D01*
X157638738Y-100299599D01*
X157555648Y-100522714D01*
X157458209Y-100746358D01*
X157437527Y-100790501D01*
X157392143Y-100889377D01*
X157361246Y-100963143D01*
X157342056Y-101021381D01*
X157331791Y-101073673D01*
X157327672Y-101129600D01*
X157326917Y-101198743D01*
X151626659Y-101198743D01*
X151801326Y-100955350D01*
X152094056Y-100606828D01*
X152412011Y-100291803D01*
X152756665Y-100008976D01*
X153129488Y-99757050D01*
X153531954Y-99534728D01*
X153734828Y-99438588D01*
X154120831Y-99283534D01*
X154508536Y-99165690D01*
X154904758Y-99083476D01*
X155316308Y-99035307D01*
X155750000Y-99019603D01*
X156053301Y-99026909D01*
X156453391Y-99062279D01*
X156836360Y-99128752D01*
X157210642Y-99228287D01*
X157584671Y-99362843D01*
X157966881Y-99534378D01*
X158257735Y-99688840D01*
X158615307Y-99916392D01*
X158952559Y-100176864D01*
X159275457Y-100474543D01*
X159494280Y-100706512D01*
X159766397Y-101041527D01*
X159873962Y-101201612D01*
X160004634Y-101396087D01*
G36*
X160004634Y-101396087D02*
G01*
X160213316Y-101776199D01*
X160318416Y-102000053D01*
X160328802Y-102026208D01*
X160471359Y-102385234D01*
X160587292Y-102770354D01*
X160667953Y-103162877D01*
X160715076Y-103570270D01*
X160730397Y-104000000D01*
X160726097Y-104231247D01*
X160693676Y-104651213D01*
X160628099Y-105052793D01*
X160527721Y-105443071D01*
X160390901Y-105829127D01*
X160242550Y-106159000D01*
X160215996Y-106218046D01*
X160131678Y-106380766D01*
X159897772Y-106769419D01*
X159632166Y-107131717D01*
X159336934Y-107466251D01*
X159014152Y-107771612D01*
X158665897Y-108046390D01*
X158294244Y-108289175D01*
X157901269Y-108498558D01*
X157489047Y-108673130D01*
X157059655Y-108811480D01*
X156615168Y-108912200D01*
X156157662Y-108973879D01*
X156139016Y-108975418D01*
X156032290Y-108981126D01*
X155901386Y-108984455D01*
X155761163Y-108985152D01*
X155626480Y-108982962D01*
X155564857Y-108980858D01*
X155138191Y-108948276D01*
X154732349Y-108883579D01*
X154339279Y-108784798D01*
X153950930Y-108649962D01*
X153559250Y-108477100D01*
X153238275Y-108306969D01*
X152857153Y-108063387D01*
X152503180Y-107787569D01*
X152175739Y-107478977D01*
X151874216Y-107137071D01*
X151597994Y-106761313D01*
X151531584Y-106659675D01*
X151309342Y-106271670D01*
X151124992Y-105868401D01*
X150978533Y-105452713D01*
X150869966Y-105027451D01*
X150799291Y-104595459D01*
X150766508Y-104159583D01*
X150771616Y-103722669D01*
X150814616Y-103287560D01*
X150829282Y-103209517D01*
X151860909Y-103209517D01*
X151861232Y-103340150D01*
X151869204Y-103479502D01*
X151884197Y-103614068D01*
X151905584Y-103730342D01*
X151907506Y-103738264D01*
X151934768Y-103823841D01*
X151975130Y-103904146D01*
X152033884Y-103986712D01*
X152116323Y-104079069D01*
X152227739Y-104188747D01*
X152402192Y-104353881D01*
X152390419Y-104483722D01*
X152388234Y-104515985D01*
X152399509Y-104654948D01*
X152447211Y-104773861D01*
X152532405Y-104875662D01*
X152620887Y-104938834D01*
X152745717Y-104984331D01*
X152881190Y-104991343D01*
X153023206Y-104959781D01*
X153167667Y-104889556D01*
X153193784Y-104874026D01*
X153243072Y-104850711D01*
X153298190Y-104835628D01*
X153371304Y-104825980D01*
X153474583Y-104818967D01*
X153521310Y-104815977D01*
X153628727Y-104806202D01*
X153727131Y-104793735D01*
X153799871Y-104780542D01*
X153849641Y-104769365D01*
X153895354Y-104763663D01*
X153922024Y-104771233D01*
X153942477Y-104793216D01*
X153966550Y-104841087D01*
X153984563Y-104902692D01*
X153987721Y-104951630D01*
X153972154Y-105000122D01*
X153931916Y-105061935D01*
X153908238Y-105096062D01*
X153877995Y-105147553D01*
X153866167Y-105179971D01*
X153868646Y-105202492D01*
X153891894Y-105255967D01*
X153942240Y-105319416D01*
X154022897Y-105396528D01*
X154137077Y-105490990D01*
X154348321Y-105657997D01*
X154374113Y-105817884D01*
X154375563Y-105826775D01*
X154390619Y-105910383D01*
X154405662Y-105981094D01*
X154417639Y-106024412D01*
X154424576Y-106058323D01*
X154404836Y-106096397D01*
X154387433Y-106119471D01*
X154360872Y-106177564D01*
X154336102Y-106252308D01*
X154317806Y-106328966D01*
X154310667Y-106392798D01*
X154310391Y-106405613D01*
X154302258Y-106435654D01*
X154274396Y-106451901D01*
X154215548Y-106462617D01*
X154181406Y-106469149D01*
X154096861Y-106494501D01*
X154016552Y-106528292D01*
X153944558Y-106571970D01*
X153857089Y-106656501D01*
X153806007Y-106753351D01*
X153790868Y-106857528D01*
X153811226Y-106964042D01*
X153866635Y-107067904D01*
X153956649Y-107164122D01*
X154080822Y-107247708D01*
X154133136Y-107275759D01*
X154178858Y-107300322D01*
X154197821Y-107310578D01*
X154209410Y-107332747D01*
X154216465Y-107373109D01*
X154216755Y-107411749D01*
X154208506Y-107429000D01*
X154176431Y-107435884D01*
X154126836Y-107453477D01*
X154079439Y-107465725D01*
X154003719Y-107476062D01*
X153919083Y-107481262D01*
X153793153Y-107492266D01*
X153639166Y-107530045D01*
X153505309Y-107591307D01*
X153398216Y-107672816D01*
X153324519Y-107771336D01*
X153319650Y-107781493D01*
X153304080Y-107864053D01*
X153324406Y-107948343D01*
X153376003Y-108026988D01*
X153454244Y-108092617D01*
X153554501Y-108137855D01*
X153558224Y-108138931D01*
X153635952Y-108154394D01*
X153734318Y-108165120D01*
X153832967Y-108168843D01*
X153930650Y-108164499D01*
X154067299Y-108139421D01*
X154191978Y-108087375D01*
X154320364Y-108003026D01*
X154379646Y-107959689D01*
X154415750Y-107938797D01*
X154434462Y-107938977D01*
X154443583Y-107957337D01*
X154446897Y-107966703D01*
X154486203Y-108009181D01*
X154557327Y-108043434D01*
X154651896Y-108067815D01*
X154761536Y-108080679D01*
X154877876Y-108080378D01*
X154992542Y-108065268D01*
X155056124Y-108047147D01*
X155144537Y-107998290D01*
X155200986Y-107931131D01*
X155220833Y-107850041D01*
X155213915Y-107786981D01*
X155182807Y-107676335D01*
X155129577Y-107545237D01*
X155057398Y-107400475D01*
X154969446Y-107248841D01*
X154868893Y-107097124D01*
X154860143Y-107084729D01*
X154817597Y-107023490D01*
X154787658Y-106978778D01*
X154776346Y-106959540D01*
X154782270Y-106958246D01*
X154821979Y-106956070D01*
X154892864Y-106954327D01*
X154987669Y-106953170D01*
X155099137Y-106952750D01*
X155137436Y-106952727D01*
X155252858Y-106951967D01*
X155337135Y-106949309D01*
X155399045Y-106943652D01*
X155447363Y-106933897D01*
X155490867Y-106918942D01*
X155538333Y-106897687D01*
X155588876Y-106871473D01*
X155658673Y-106828303D01*
X155707667Y-106789621D01*
X155740037Y-106762610D01*
X155780693Y-106744441D01*
X155840047Y-106733103D01*
X155929917Y-106725170D01*
X156032367Y-106713385D01*
X156141850Y-106692968D01*
X156232948Y-106668496D01*
X156366645Y-106623269D01*
X156434031Y-106680154D01*
X156506914Y-106731938D01*
X156629118Y-106796250D01*
X156770905Y-106852262D01*
X156919458Y-106894321D01*
X156984662Y-106909334D01*
X157040624Y-106925167D01*
X157070103Y-106941238D01*
X157081579Y-106962747D01*
X157083533Y-106994891D01*
X157090667Y-107058275D01*
X157131604Y-107154526D01*
X157202562Y-107231843D01*
X157296286Y-107283307D01*
X157405522Y-107302000D01*
X157450198Y-107300733D01*
X157528228Y-107286960D01*
X157596186Y-107252249D01*
X157670875Y-107189474D01*
X157682462Y-107178060D01*
X157729327Y-107111290D01*
X157734281Y-107050321D01*
X157697333Y-106995083D01*
X157668988Y-106966155D01*
X157655050Y-106944178D01*
X157668815Y-106931094D01*
X157711164Y-106904141D01*
X157772125Y-106870436D01*
X157871281Y-106808180D01*
X157993113Y-106704583D01*
X158098995Y-106585182D01*
X158176294Y-106462718D01*
X158178050Y-106459132D01*
X158208804Y-106389790D01*
X158226636Y-106327632D01*
X158234818Y-106256192D01*
X158236619Y-106159000D01*
X158228089Y-106022419D01*
X158200249Y-105913789D01*
X158148803Y-105823241D01*
X158069450Y-105739998D01*
X157981524Y-105682038D01*
X157877722Y-105657597D01*
X157760405Y-105672282D01*
X157752789Y-105674498D01*
X157667667Y-105716987D01*
X157575428Y-105789749D01*
X157484043Y-105884607D01*
X157401486Y-105993382D01*
X157335729Y-106107897D01*
X157264528Y-106257143D01*
X156988806Y-106176583D01*
X156969760Y-106170982D01*
X156863904Y-106138544D01*
X156770090Y-106107737D01*
X156697897Y-106081810D01*
X156656901Y-106064012D01*
X156591013Y-106041263D01*
X156479851Y-106034077D01*
X156334506Y-106048653D01*
X156156110Y-106084944D01*
X156086066Y-106101713D01*
X156005697Y-106120382D01*
X155947864Y-106133121D01*
X155921851Y-106137833D01*
X155912290Y-106128148D01*
X155892704Y-106087785D01*
X155870733Y-106026708D01*
X155848785Y-105966440D01*
X155779573Y-105824824D01*
X155677848Y-105659813D01*
X155542981Y-105470340D01*
X155504651Y-105418485D01*
X155963613Y-105418485D01*
X156029304Y-105524159D01*
X156060236Y-105570005D01*
X156095455Y-105612502D01*
X156118289Y-105628301D01*
X156152110Y-105623714D01*
X156229340Y-105606676D01*
X156323551Y-105581224D01*
X156420913Y-105551437D01*
X156507597Y-105521393D01*
X156569772Y-105495170D01*
X156602945Y-105479075D01*
X156651173Y-105461025D01*
X156702328Y-105452199D01*
X156769483Y-105450829D01*
X156865714Y-105455147D01*
X156939567Y-105458837D01*
X157012796Y-105459216D01*
X157067643Y-105452443D01*
X157117798Y-105436506D01*
X157176951Y-105409391D01*
X157206674Y-105394079D01*
X157304563Y-105327259D01*
X157383560Y-105239984D01*
X157454167Y-105121340D01*
X157504988Y-105021049D01*
X157643435Y-105012233D01*
X157673030Y-105010070D01*
X157756576Y-104998083D01*
X157804366Y-104977121D01*
X157821376Y-104943715D01*
X157812583Y-104894400D01*
X157804437Y-104876000D01*
X157752126Y-104818806D01*
X157668114Y-104773850D01*
X157560048Y-104744390D01*
X157435574Y-104733686D01*
X157268033Y-104747252D01*
X157091857Y-104794909D01*
X156916388Y-104879016D01*
X156735817Y-105001800D01*
X156716554Y-105001285D01*
X156672118Y-104974357D01*
X156610898Y-104921207D01*
X156579906Y-104892184D01*
X156527358Y-104850136D01*
X156485212Y-104831348D01*
X156441947Y-104829573D01*
X156400226Y-104838673D01*
X156365583Y-104864494D01*
X156348600Y-104910882D01*
X156348754Y-104982539D01*
X156365520Y-105084163D01*
X156398375Y-105220455D01*
X156399205Y-105223799D01*
X156398390Y-105253911D01*
X156373769Y-105278831D01*
X156317036Y-105307446D01*
X156234617Y-105341312D01*
X156020848Y-105405841D01*
X155963613Y-105418485D01*
X155504651Y-105418485D01*
X155498118Y-105409646D01*
X155452625Y-105345663D01*
X155423053Y-105301000D01*
X155414306Y-105282805D01*
X155425939Y-105274619D01*
X155464642Y-105248135D01*
X155519529Y-105210929D01*
X155631331Y-105123302D01*
X155763593Y-104993473D01*
X155897132Y-104837369D01*
X155982849Y-104720683D01*
X158074326Y-104720683D01*
X158150413Y-104804903D01*
X158178782Y-104838601D01*
X158213105Y-104888082D01*
X158226500Y-104920811D01*
X158227045Y-104924970D01*
X158236541Y-104935119D01*
X158261939Y-104942488D01*
X158273361Y-104943715D01*
X158308526Y-104947493D01*
X158381586Y-104950553D01*
X158486403Y-104952082D01*
X158628264Y-104952500D01*
X158703506Y-104952482D01*
X158823883Y-104952091D01*
X158910576Y-104950672D01*
X158969337Y-104947560D01*
X159005916Y-104942089D01*
X159026065Y-104933595D01*
X159035535Y-104921412D01*
X159040078Y-104904875D01*
X159043057Y-104883637D01*
X159050493Y-104823660D01*
X159061755Y-104729700D01*
X159076358Y-104605982D01*
X159093820Y-104456730D01*
X159113655Y-104286168D01*
X159135381Y-104098519D01*
X159158514Y-103898009D01*
X159182570Y-103688860D01*
X159207065Y-103475298D01*
X159231516Y-103261546D01*
X159255438Y-103051828D01*
X159278348Y-102850369D01*
X159299763Y-102661392D01*
X159319198Y-102489121D01*
X159336169Y-102337781D01*
X159350194Y-102211596D01*
X159360788Y-102114789D01*
X159367467Y-102051585D01*
X159369749Y-102026208D01*
X159351560Y-102019758D01*
X159304846Y-102014305D01*
X159243690Y-102010582D01*
X159182184Y-102009171D01*
X159134421Y-102010657D01*
X159114493Y-102015625D01*
X159114251Y-102017579D01*
X159110473Y-102050274D01*
X159102444Y-102120486D01*
X159090566Y-102224673D01*
X159075243Y-102359295D01*
X159056877Y-102520811D01*
X159035870Y-102705681D01*
X159013878Y-102899333D01*
X159012626Y-102910362D01*
X158987546Y-103131316D01*
X158961035Y-103365000D01*
X158913018Y-103788333D01*
X158808583Y-104709083D01*
X158441455Y-104714883D01*
X158074326Y-104720683D01*
X155982849Y-104720683D01*
X156025683Y-104662374D01*
X156142984Y-104475873D01*
X156151590Y-104462011D01*
X156169285Y-104448128D01*
X156199141Y-104451729D01*
X156254538Y-104472395D01*
X156323631Y-104494528D01*
X156415648Y-104504425D01*
X156488733Y-104488042D01*
X156536943Y-104447142D01*
X156554333Y-104383489D01*
X156551236Y-104356340D01*
X156525367Y-104305068D01*
X156469120Y-104251709D01*
X156377528Y-104190850D01*
X156355737Y-104176868D01*
X156273561Y-104099300D01*
X156226993Y-104007326D01*
X156218179Y-103907387D01*
X156246549Y-103814792D01*
X156788359Y-103814792D01*
X156789091Y-103823962D01*
X156793769Y-103870477D01*
X156801983Y-103947162D01*
X156812860Y-104045944D01*
X156825526Y-104158750D01*
X156861501Y-104476250D01*
X157734500Y-104481776D01*
X157849109Y-104482444D01*
X158053027Y-104483224D01*
X158219395Y-104483156D01*
X158351418Y-104482164D01*
X158452303Y-104480169D01*
X158525255Y-104477093D01*
X158573480Y-104472860D01*
X158600184Y-104467391D01*
X158608573Y-104460610D01*
X158609393Y-104450319D01*
X158614255Y-104402475D01*
X158622695Y-104324664D01*
X158633839Y-104224881D01*
X158646811Y-104111125D01*
X158683975Y-103788333D01*
X157735571Y-103788333D01*
X157552058Y-103788470D01*
X157348176Y-103789102D01*
X157181297Y-103790325D01*
X157048410Y-103792223D01*
X156946499Y-103794881D01*
X156872552Y-103798383D01*
X156823556Y-103802812D01*
X156796496Y-103808254D01*
X156788359Y-103814792D01*
X156246549Y-103814792D01*
X156249266Y-103805923D01*
X156266829Y-103774748D01*
X156308243Y-103708849D01*
X156355100Y-103640405D01*
X156363291Y-103628812D01*
X156413397Y-103539980D01*
X156427246Y-103464362D01*
X156404583Y-103393811D01*
X156345157Y-103320176D01*
X156335277Y-103310562D01*
X156258432Y-103254511D01*
X156191007Y-103237140D01*
X156137195Y-103257093D01*
X156101189Y-103313016D01*
X156087179Y-103403553D01*
X156084557Y-103465157D01*
X156072585Y-103524351D01*
X156044112Y-103569214D01*
X155991743Y-103610251D01*
X155908082Y-103657969D01*
X155855314Y-103687399D01*
X155790306Y-103731103D01*
X155746654Y-103775497D01*
X155712958Y-103830673D01*
X155677564Y-103933464D01*
X155666331Y-104072797D01*
X155687201Y-104227883D01*
X155691307Y-104246711D01*
X155697184Y-104302262D01*
X155686591Y-104353442D01*
X155656317Y-104420241D01*
X155655611Y-104421632D01*
X155555120Y-104591180D01*
X155444037Y-104726882D01*
X155324892Y-104826618D01*
X155200216Y-104888264D01*
X155072537Y-104909702D01*
X155067484Y-104909683D01*
X155008429Y-104906849D01*
X154922413Y-104900007D01*
X154819312Y-104890238D01*
X154709005Y-104878623D01*
X154601370Y-104866245D01*
X154506284Y-104854184D01*
X154433625Y-104843522D01*
X154393272Y-104835341D01*
X154383775Y-104829680D01*
X154356335Y-104792570D01*
X154332756Y-104735565D01*
X154329411Y-104724266D01*
X154317026Y-104671956D01*
X154320759Y-104643394D01*
X154341722Y-104624841D01*
X154451347Y-104555188D01*
X154599162Y-104450294D01*
X154731323Y-104343685D01*
X154842189Y-104240340D01*
X154926119Y-104145243D01*
X154977474Y-104063374D01*
X154987597Y-104040482D01*
X155004031Y-103992012D01*
X155001915Y-103953678D01*
X154981811Y-103905025D01*
X154929641Y-103829760D01*
X154846704Y-103775260D01*
X154742445Y-103756583D01*
X154716842Y-103757590D01*
X154637225Y-103779619D01*
X154574360Y-103834118D01*
X154521961Y-103925917D01*
X154450034Y-104056142D01*
X154359687Y-104161922D01*
X154258508Y-104232467D01*
X154145766Y-104270984D01*
X154020394Y-104277984D01*
X153903399Y-104248081D01*
X153801450Y-104183107D01*
X153721216Y-104084894D01*
X153706039Y-104055565D01*
X153672274Y-103943429D01*
X153661865Y-103816829D01*
X153675102Y-103691861D01*
X153712271Y-103584621D01*
X153761177Y-103507153D01*
X153830890Y-103432455D01*
X153919199Y-103371004D01*
X154030007Y-103321444D01*
X154167220Y-103282420D01*
X154334742Y-103252574D01*
X154536478Y-103230550D01*
X154776333Y-103214992D01*
X154873798Y-103210027D01*
X155024562Y-103201047D01*
X155141951Y-103191453D01*
X155231773Y-103180209D01*
X155299835Y-103166276D01*
X155351945Y-103148618D01*
X155393910Y-103126198D01*
X155431538Y-103097978D01*
X155456194Y-103073014D01*
X155488818Y-103004265D01*
X155486290Y-102928393D01*
X155451184Y-102852316D01*
X155386076Y-102782949D01*
X155293538Y-102727209D01*
X155202900Y-102687116D01*
X155274590Y-102580585D01*
X155285847Y-102563458D01*
X155342924Y-102452695D01*
X155363448Y-102352691D01*
X155348902Y-102256988D01*
X155348126Y-102254662D01*
X155292380Y-102151692D01*
X155205680Y-102074903D01*
X155092194Y-102026912D01*
X154956087Y-102010333D01*
X156088167Y-102010333D01*
X156099448Y-102089708D01*
X156103681Y-102121734D01*
X156112747Y-102194720D01*
X156124768Y-102294376D01*
X156138689Y-102411921D01*
X156153452Y-102538574D01*
X156165715Y-102643097D01*
X156178570Y-102749103D01*
X156189247Y-102833278D01*
X156196886Y-102888876D01*
X156200630Y-102909154D01*
X156207374Y-102911393D01*
X156243830Y-102924136D01*
X156300333Y-102944163D01*
X156327845Y-102954063D01*
X156391701Y-102977763D01*
X156435793Y-102995105D01*
X156451227Y-103000891D01*
X156468343Y-102996733D01*
X156464129Y-102961022D01*
X156462812Y-102954313D01*
X156455862Y-102907184D01*
X156454854Y-102899333D01*
X156679415Y-102899333D01*
X156690595Y-102968125D01*
X156694032Y-102991612D01*
X156694683Y-102996733D01*
X156702712Y-103059955D01*
X156713176Y-103150008D01*
X156723858Y-103248583D01*
X156729470Y-103301369D01*
X156740433Y-103399685D01*
X156750429Y-103483749D01*
X156757831Y-103539625D01*
X156769721Y-103619000D01*
X158705729Y-103619000D01*
X158732387Y-103359708D01*
X158742774Y-103259660D01*
X158754140Y-103152221D01*
X158763966Y-103061371D01*
X158770887Y-102999875D01*
X158782730Y-102899333D01*
X156679415Y-102899333D01*
X156454854Y-102899333D01*
X156445584Y-102827147D01*
X156432835Y-102721255D01*
X156418469Y-102596562D01*
X156403344Y-102460125D01*
X156354433Y-102010333D01*
X156088167Y-102010333D01*
X154956087Y-102010333D01*
X154937070Y-102010622D01*
X154811479Y-102030654D01*
X154705114Y-102084161D01*
X154614026Y-102173881D01*
X154534264Y-102302550D01*
X154498864Y-102372517D01*
X154399474Y-102296709D01*
X154361263Y-102268900D01*
X154277012Y-102213297D01*
X154199257Y-102168033D01*
X154098431Y-102115165D01*
X154133105Y-102048113D01*
X154140896Y-102032477D01*
X154175731Y-101951175D01*
X154210033Y-101856072D01*
X154239661Y-101760300D01*
X154260475Y-101676990D01*
X154268333Y-101619276D01*
X154265832Y-101577629D01*
X154253135Y-101543777D01*
X154223799Y-101521851D01*
X154171409Y-101509322D01*
X154089551Y-101503659D01*
X153971812Y-101502333D01*
X153850573Y-101503967D01*
X153759934Y-101510587D01*
X153701175Y-101524406D01*
X153669000Y-101547637D01*
X153658112Y-101582490D01*
X153663215Y-101631176D01*
X153670687Y-101676284D01*
X153680841Y-101755709D01*
X153689381Y-101841000D01*
X153701014Y-101978583D01*
X153302049Y-101978583D01*
X153200655Y-101979079D01*
X153028325Y-101983372D01*
X152888835Y-101992912D01*
X152775984Y-102008711D01*
X152683571Y-102031782D01*
X152605395Y-102063136D01*
X152535256Y-102103787D01*
X152502100Y-102128396D01*
X152415465Y-102209286D01*
X152320122Y-102316648D01*
X152221598Y-102442430D01*
X152125422Y-102578582D01*
X152037120Y-102717053D01*
X151962219Y-102849793D01*
X151906248Y-102968749D01*
X151874734Y-103065872D01*
X151868862Y-103101110D01*
X151860909Y-103209517D01*
X150829282Y-103209517D01*
X150895508Y-102857103D01*
X151014292Y-102434142D01*
X151170968Y-102021522D01*
X151365535Y-101622089D01*
X151597994Y-101238687D01*
X151626659Y-101198743D01*
X157326917Y-101198743D01*
X157327159Y-101247745D01*
X157330331Y-101319430D01*
X157339892Y-101368688D01*
X157359208Y-101408723D01*
X157391644Y-101452743D01*
X157408117Y-101471748D01*
X157476589Y-101533635D01*
X157549587Y-101581708D01*
X157618789Y-101608476D01*
X157742204Y-101628457D01*
X157869957Y-101622206D01*
X157984265Y-101589410D01*
X158067706Y-101538485D01*
X158158850Y-101444646D01*
X158224772Y-101329054D01*
X158260196Y-101201612D01*
X158259844Y-101072222D01*
X158259474Y-101070017D01*
X158244125Y-101014945D01*
X158214372Y-100933232D01*
X158174349Y-100835541D01*
X158128187Y-100732535D01*
X158064116Y-100590444D01*
X157976847Y-100374107D01*
X157910266Y-100176897D01*
X157866962Y-100006007D01*
X157851416Y-99929591D01*
X157836333Y-99865312D01*
X157823443Y-99828908D01*
X157809850Y-99812697D01*
X157792658Y-99809000D01*
X157781380Y-99814499D01*
X157759826Y-99854899D01*
X157740395Y-99930708D01*
X157703443Y-100088678D01*
X157638738Y-100299599D01*
X157555648Y-100522714D01*
X157458209Y-100746358D01*
X157437527Y-100790501D01*
X157392143Y-100889377D01*
X157361246Y-100963143D01*
X157342056Y-101021381D01*
X157331791Y-101073673D01*
X157327672Y-101129600D01*
X157326917Y-101198743D01*
X151626659Y-101198743D01*
X151801326Y-100955350D01*
X152094056Y-100606828D01*
X152412011Y-100291803D01*
X152756665Y-100008976D01*
X153129488Y-99757050D01*
X153531954Y-99534728D01*
X153734828Y-99438588D01*
X154120831Y-99283534D01*
X154508536Y-99165690D01*
X154904758Y-99083476D01*
X155316308Y-99035307D01*
X155750000Y-99019603D01*
X156053301Y-99026909D01*
X156453391Y-99062279D01*
X156836360Y-99128752D01*
X157210642Y-99228287D01*
X157584671Y-99362843D01*
X157966881Y-99534378D01*
X158257735Y-99688840D01*
X158615307Y-99916392D01*
X158952559Y-100176864D01*
X159275457Y-100474543D01*
X159494280Y-100706512D01*
X159766397Y-101041527D01*
X159873962Y-101201612D01*
X160004634Y-101396087D01*
G37*
X153886830Y-102222027D02*
X153910284Y-102228797D01*
X153918257Y-102255103D01*
X153914472Y-102311958D01*
X153911464Y-102364175D01*
X153922345Y-102409864D01*
X153955132Y-102449216D01*
X154007054Y-102484910D01*
X154070505Y-102509459D01*
X154110763Y-102512942D01*
X154155425Y-102498319D01*
X154209865Y-102456868D01*
X154233683Y-102436494D01*
X154274989Y-102404107D01*
X154296823Y-102391333D01*
X154302711Y-102394741D01*
X154328133Y-102422932D01*
X154362820Y-102470330D01*
X154374694Y-102488746D01*
X154407077Y-102564630D01*
X154416030Y-102655538D01*
X154415292Y-102681566D01*
X154396912Y-102772730D01*
X154349757Y-102838353D01*
X154268333Y-102887042D01*
X154267598Y-102887357D01*
X154174671Y-102914472D01*
X154076067Y-102914973D01*
X153958096Y-102888946D01*
X153913704Y-102874444D01*
X153783301Y-102811157D01*
X153688902Y-102728155D01*
X153631519Y-102626555D01*
X153612167Y-102507474D01*
X153612956Y-102474436D01*
X153625866Y-102397439D01*
X153658054Y-102338706D01*
X153663201Y-102332452D01*
X153727717Y-102277942D01*
X153807969Y-102237698D01*
X153884054Y-102222000D01*
X153886830Y-102222027D01*
G36*
X153886830Y-102222027D02*
G01*
X153910284Y-102228797D01*
X153918257Y-102255103D01*
X153914472Y-102311958D01*
X153911464Y-102364175D01*
X153922345Y-102409864D01*
X153955132Y-102449216D01*
X154007054Y-102484910D01*
X154070505Y-102509459D01*
X154110763Y-102512942D01*
X154155425Y-102498319D01*
X154209865Y-102456868D01*
X154233683Y-102436494D01*
X154274989Y-102404107D01*
X154296823Y-102391333D01*
X154302711Y-102394741D01*
X154328133Y-102422932D01*
X154362820Y-102470330D01*
X154374694Y-102488746D01*
X154407077Y-102564630D01*
X154416030Y-102655538D01*
X154415292Y-102681566D01*
X154396912Y-102772730D01*
X154349757Y-102838353D01*
X154268333Y-102887042D01*
X154267598Y-102887357D01*
X154174671Y-102914472D01*
X154076067Y-102914973D01*
X153958096Y-102888946D01*
X153913704Y-102874444D01*
X153783301Y-102811157D01*
X153688902Y-102728155D01*
X153631519Y-102626555D01*
X153612167Y-102507474D01*
X153612956Y-102474436D01*
X153625866Y-102397439D01*
X153658054Y-102338706D01*
X153663201Y-102332452D01*
X153727717Y-102277942D01*
X153807969Y-102237698D01*
X153884054Y-102222000D01*
X153886830Y-102222027D01*
G37*
X157978238Y-100996758D02*
X158033574Y-101028118D01*
X158067076Y-101095176D01*
X158078333Y-101197272D01*
X158078151Y-101210527D01*
X158060195Y-101311675D01*
X158009541Y-101392940D01*
X157921461Y-101462308D01*
X157917865Y-101464455D01*
X157858059Y-101491192D01*
X157804531Y-101502254D01*
X157766336Y-101493330D01*
X157714657Y-101463723D01*
X157672458Y-101424546D01*
X157655000Y-101387509D01*
X157662950Y-101369125D01*
X157693172Y-101326622D01*
X157738226Y-101273683D01*
X157771188Y-101233652D01*
X157813407Y-101168645D01*
X157835921Y-101114942D01*
X157836753Y-101111105D01*
X157860258Y-101040967D01*
X157896366Y-101004675D01*
X157952725Y-100994333D01*
X157978238Y-100996758D01*
G36*
X157978238Y-100996758D02*
G01*
X158033574Y-101028118D01*
X158067076Y-101095176D01*
X158078333Y-101197272D01*
X158078151Y-101210527D01*
X158060195Y-101311675D01*
X158009541Y-101392940D01*
X157921461Y-101462308D01*
X157917865Y-101464455D01*
X157858059Y-101491192D01*
X157804531Y-101502254D01*
X157766336Y-101493330D01*
X157714657Y-101463723D01*
X157672458Y-101424546D01*
X157655000Y-101387509D01*
X157662950Y-101369125D01*
X157693172Y-101326622D01*
X157738226Y-101273683D01*
X157771188Y-101233652D01*
X157813407Y-101168645D01*
X157835921Y-101114942D01*
X157836753Y-101111105D01*
X157860258Y-101040967D01*
X157896366Y-101004675D01*
X157952725Y-100994333D01*
X157978238Y-100996758D01*
G37*
%TD*%
M02*
